<?xml version="1.0" encoding="UTF-8"?>
<svg width="18px" height="18px" viewBox="0 0 18 18" version="1.1" xmlns="http://www.w3.org/2000/svg" xmlns:xlink="http://www.w3.org/1999/xlink">
    <!-- Generator: Sketch 51.2 (57519) - http://www.bohemiancoding.com/sketch -->
    <title>Achievements</title>
    <desc>Created with Sketch.</desc>
    <defs></defs>
    <g id="Achievements" stroke="none" stroke-width="1" fill="none" fill-rule="evenodd">
        <path d="M15,2 L15,1 L3,1 L3,2 L0,2 L0,6 C0,7.6 1.4,9 3,9 L3,10 C3.4,11.5 6,12.6 8,13 L8,15 L5,15 C5,15 4,16.5 4,17 L14,17 C14,16.6 13,15 13,15 L10,15 L10,13 C12,12.6 14.6,11.5 15,10 L15,9 C16.6,8.8 18,7.6 18,6 L18,2 L15,2 Z M3,7 C2.5,7 2,6.5 2,6 L2,4 L3,4 L3,7 Z M11.4,9.5 L9,8 L6.6,9.4 L7.6,6.7 L5,5 L8,5 L9,2.3 L10,5 L12.8,5 L10.5,6.8 L11.5,9.5 L11.4,9.5 Z M16,6 C16,6.5 15.5,7 15,7 L15,4 L16,4 L16,6 Z" id="Shape" fill="#000000" fill-rule="nonzero"></path>
    </g>
</svg>