<?xml version="1.0" encoding="UTF-8"?>
<svg width="14px" height="14px" viewBox="0 0 14 14" version="1.1" xmlns="http://www.w3.org/2000/svg" xmlns:xlink="http://www.w3.org/1999/xlink">
    <!-- Generator: Sketch 51.2 (57519) - http://www.bohemiancoding.com/sketch -->
    <title>AchievementsSm</title>
    <desc>Created with Sketch.</desc>
    <defs></defs>
    <g id="AchievementsSm" stroke="none" stroke-width="1" fill="none" fill-rule="evenodd">
        <path d="M11,2 L11,1 L3,1 L3,2 L0,2 L0,5 C0,6.6 1.4,8 3,8 C3,8 3.5,10 6,10 L6,11 L4,11 C4,11 3,12.5 3,13 L11,13 C11,12.6 10,11 10,11 L8,11 L8,10 C10.5,10 11,8 11,8 C12.6,7.8 14,6.6 14,5 L14,2 L11,2 Z M3,6 C2.5,6 2,5.5 2,5 L2,4 L3,4 L3,6 Z M12,5 C12,5.5 11.5,6 11,6 L11,4 L12,4 L12,5 Z M7,7 C5.8954305,7 5,6.1045695 5,5 C5,3.8954305 5.8954305,3 7,3 C8.1045695,3 9,3.8954305 9,5 C9,6.1045695 8.1045695,7 7,7 Z" id="Shape" fill="#000000" fill-rule="nonzero"></path>
    </g>
</svg>