<?xml version="1.0" encoding="UTF-8"?>
<svg width="18px" height="18px" viewBox="0 0 18 18" version="1.1" xmlns="http://www.w3.org/2000/svg" xmlns:xlink="http://www.w3.org/1999/xlink">
    <!-- Generator: Sketch 52.5 (67469) - http://www.bohemiancoding.com/sketch -->
    <title>Aol</title>
    <desc>Created with Sketch.</desc>
    <g id="Aol" stroke="none" stroke-width="1" fill="none" fill-rule="evenodd">
        <path d="M14.9966038,5.0880914 L14.9966038,12.0260022 L13.4187816,12.0260022 L13.4187816,5.05255682 L14.9847589,5.05255682 L14.9966038,5.0880914 Z M4.92254934,12.0261466 L4.5832374,11.0178889 L2.16081883,11.0178889 L1.79348368,12.0261466 L-0.0681818182,12.0261466 L2.67968153,5.05255682 L4.08358648,5.05255682 L6.80299328,12.0260022 L4.92254934,12.0260022 L4.92254934,12.0261466 Z M9.73387418,12.1723296 C7.83970753,12.1723296 6.93010886,10.6742435 6.93010886,9.39312065 C6.93010886,8.11156445 7.83985198,6.61275616 9.73387418,6.61275616 C11.629052,6.61275616 12.5385062,8.11142 12.5385062,9.39312065 C12.5385062,10.674388 11.629052,12.1723296 9.73387418,12.1723296 Z M16.8825368,12.0754039 C16.303872,12.0754039 15.8341222,11.6050763 15.8341222,11.0267004 C15.8343612,10.4477292 16.3035657,9.97839531 16.8825368,9.97799679 C17.4614905,9.97799679 17.9318182,10.4480355 17.9318182,11.0267004 C17.9318182,11.6050763 17.4614905,12.0754039 16.8825368,12.0754039 Z M2.65108053,9.60459476 L4.11247639,9.60459476 L3.38141733,7.17336477 L2.65108053,9.60459476 Z M9.73387418,8.07386312 C9.05886154,8.07386312 8.48756366,8.6302827 8.48756366,9.39312065 C8.48756366,10.1561031 9.05886154,10.711367 9.73387418,10.711367 C10.4096091,10.711367 10.9814847,10.1561031 10.9814847,9.39312065 C10.9814847,8.6302827 10.4094646,8.07386312 9.73387418,8.07386312 Z" id="Shape" fill="#2D3140" fill-rule="nonzero"></path>
    </g>
</svg>