<?xml version="1.0" encoding="UTF-8"?>
<svg width="18px" height="18px" viewBox="0 0 18 18" version="1.1" xmlns="http://www.w3.org/2000/svg" xmlns:xlink="http://www.w3.org/1999/xlink">
    <!-- Generator: Sketch 52.5 (67469) - http://www.bohemiancoding.com/sketch -->
    <title>Blogger</title>
    <desc>Created with Sketch.</desc>
    <g id="Blogger" stroke="none" stroke-width="1" fill="none" fill-rule="evenodd">
        <path d="M15.816,1 L15.815,1 C16.467,1 17,1.516 17,2.153 L17,15.847 C17,16.484 16.467,17 15.815,17 L2.18,17 C1.528,17 1,16.484 1,15.847 L1,2.153 C1,1.516 1.528,1 2.18,1 L15.816,1 Z M9.00037386,3.00149542 L6.75724344,3.00149542 C4.68234781,3.00149542 3,4.68384323 3,6.75873886 L3,11.2449997 C3,13.3191476 4.68234781,15.0014954 6.75724344,15.0014954 L11.2435043,15.0014954 C13.3176522,15.0014954 15,13.3191476 15,11.2449997 L15,8.27285189 C15,7.82422581 14.6635304,7.48775625 14.2149044,7.48775625 L13.4866347,7.48775625 C13.0948346,7.48775625 12.7568696,7.15128668 12.7568696,6.75799115 C12.7568696,4.68234781 11.0745218,3 9.00037386,3 L9.00037386,3.00149542 Z M11.2706088,12.2035126 L6.72901738,12.2035126 C6.33646956,12.2035126 6,11.8670431 6,11.4744953 C6,11.0819474 6.33646956,10.7447302 6.72901738,10.7447302 L11.2706088,10.7447302 C11.6639043,10.7447302 12.0011216,11.0811997 12.0011216,11.4744953 C12.0011216,11.8677908 11.664652,12.2042604 11.2721042,12.2042604 L11.2706088,12.2035126 Z M9.2967033,5.78187112 C9.67645469,5.78187112 10,6.11834068 10,6.51088851 C10,6.90343633 9.6757341,7.23990589 9.29742389,7.23990589 L6.7032967,7.23990589 C6.32498649,7.23990589 6,6.90343633 6,6.51088851 C6,6.11834068 6.3242659,5.78187112 6.70257611,5.78187112 L9.2967033,5.78187112 Z" id="Shape" fill="#FF5723"></path>
    </g>
</svg>