<?xml version="1.0" encoding="UTF-8"?>
<svg width="18px" height="18px" viewBox="0 0 18 18" version="1.1" xmlns="http://www.w3.org/2000/svg" xmlns:xlink="http://www.w3.org/1999/xlink">
    <!-- Generator: Sketch 51.2 (57519) - http://www.bohemiancoding.com/sketch -->
    <title>Briefcase</title>
    <desc>Created with Sketch.</desc>
    <defs></defs>
    <g id="Briefcase" stroke="none" stroke-width="1" fill="none" fill-rule="evenodd">
        <path d="M5,5 C5,3.8954305 5.8954305,3 7,3 L11,3 C12.1045695,3 13,3.8954305 13,5 L14,5 C15.1045695,5 16,5.8954305 16,7 L16,13 C16,14.1045695 15.1045695,15 14,15 L4,15 C2.8954305,15 2,14.1045695 2,13 L2,7 C2,5.8954305 2.8954305,5 4,5 L5,5 Z M13,5 L5,5 L13,5 Z M7,4 L7,5 L11,5 L11,4 L7,4 Z" id="Combined-Shape" fill="#000000"></path>
    </g>
</svg>