<?xml version="1.0" encoding="UTF-8"?>
<svg width="18px" height="18px" viewBox="0 0 18 18" version="1.1" xmlns="http://www.w3.org/2000/svg" xmlns:xlink="http://www.w3.org/1999/xlink">
    <!-- Generator: Sketch 51.2 (57519) - http://www.bohemiancoding.com/sketch -->
    <title>Calendar</title>
    <desc>Created with Sketch.</desc>
    <defs></defs>
    <g id="Calendar" stroke="none" stroke-width="1" fill="none" fill-rule="evenodd">
        <path d="M14,2 L15,2 C16.1045695,2 17,2.8954305 17,4 L17,15 C17,16.1045695 16.1045695,17 15,17 L3,17 C1.8954305,17 1,16.1045695 1,15 L1,4 C1,2.8954305 1.8954305,2 3,2 L4,2 L4,0 L6,0 L6,2 L12,2 L12,0 L14,0 L14,2 Z M3,6 L3,15 L15,15 L15,6 L3,6 Z M5,8 L7,8 L7,10 L5,10 L5,8 Z M5,11 L7,11 L7,13 L5,13 L5,11 Z M8,11 L10,11 L10,13 L8,13 L8,11 Z M11,11 L13,11 L13,13 L11,13 L11,11 Z M11,8 L13,8 L13,10 L11,10 L11,8 Z M8,8 L10,8 L10,10 L8,10 L8,8 Z" id="Combined-Shape" fill="#000000"></path>
    </g>
</svg>