<?xml version="1.0" encoding="UTF-8"?>
<svg width="18px" height="18px" viewBox="0 0 18 18" version="1.1" xmlns="http://www.w3.org/2000/svg" xmlns:xlink="http://www.w3.org/1999/xlink">
    <!-- Generator: Sketch 51.2 (57519) - http://www.bohemiancoding.com/sketch -->
    <title>Chair</title>
    <desc>Created with Sketch.</desc>
    <defs></defs>
    <g id="Chair" stroke="none" stroke-width="1" fill="none" fill-rule="evenodd">
        <path d="M6.3809217,15.0263281 C7.9868087,13.9601698 10.0109871,13.9628777 11.6147493,15.0344517 C11.5414748,15.1734975 11.5,15.3319053 11.5,15.5 C11.5,16.0522847 11.9477153,16.5 12.5,16.5 C13.0522847,16.5 13.5,16.0522847 13.5,15.5 C13.5,15.0041086 13.1390484,14.5925219 12.6655439,14.5136387 C12.6645041,14.5123863 12.6634543,14.5111974 12.6623944,14.5100731 C11.8897494,13.7569484 10.9647891,13.2855303 10,13.0958189 L10,11 L8,11 L8,13.1019958 C7.04368852,13.2956355 6.12371316,13.7649946 5.34899324,14.5100731 L5.34715818,14.5116067 C4.86742193,14.5851834 4.5,14.9996837 4.5,15.5 C4.5,16.0522847 4.94771525,16.5 5.5,16.5 C6.05228475,16.5 6.5,16.0522847 6.5,15.5 C6.5,15.3286227 6.45688958,15.1673144 6.3809217,15.0263281 Z M10,8 L12.8667814,8 C13.5298465,8 14.0368962,7.52884615 13.9978924,6.95673077 L13.6858618,1.90865385 C13.6078541,1.40384615 13.1398082,1 12.5157469,1 L5.44524925,1 C4.86019183,1 4.35314206,1.40384615 4.31413823,1.90865385 L4.00210761,6.95673077 C3.96310378,7.52884615 4.47015355,8 5.13321863,8 L8,8 L8,9 L10,9 L10,8 Z M13.4386617,11 L4.56133829,11 C3.71375465,11 3,10.5428571 3,10 C3,9.45714286 3.71375465,9 4.56133829,9 L13.4386617,9 C14.2862454,9 15,9.45714286 15,10 C15,10.5714286 14.2862454,11 13.4386617,11 Z" id="Combined-Shape" fill="#000000" fill-rule="nonzero"></path>
    </g>
</svg>