<?xml version="1.0" encoding="UTF-8"?>
<svg width="18px" height="18px" viewBox="0 0 18 18" version="1.1" xmlns="http://www.w3.org/2000/svg" xmlns:xlink="http://www.w3.org/1999/xlink">
    <!-- Generator: Sketch 54.1 (76490) - https://sketchapp.com -->
    <title>Copy</title>
    <desc>Created with Sketch.</desc>
    <g id="Copy" stroke="none" stroke-width="1" fill="none" fill-rule="evenodd">
        <path d="M10.9999999,0.999999997 C12.1045694,0.999999997 12.9999999,1.8954305 12.9999999,3 L6.99999993,3 C5.89543043,3 4.99999993,3.8954305 4.99999993,5 L4.99999993,14 C3.89543043,14 2.99999993,13.1045695 2.99999993,12 L2.99999993,4 C2.99999993,2.34314575 4.34314568,0.999999997 5.99999993,0.999999997 L10.9999999,0.999999997 Z M6,5.99406028 C6,4.8927712 6.88670635,4 7.99810135,4 L12.5,4 L16,7.5 L16,14.9914698 C16,16.1007504 15.0980496,17 13.9914698,17 L8.0085302,17 C6.8992496,17 6,16.1054862 6,15.0059397 L6,5.99406028 Z M12,4.75 L12,8 L15.25,8 L12,4.75 Z" id="Combined-Shape" fill="#000000" fill-rule="nonzero"></path>
    </g>
</svg>