<?xml version="1.0" encoding="UTF-8"?>
<svg width="18px" height="18px" viewBox="0 0 18 18" version="1.1" xmlns="http://www.w3.org/2000/svg" xmlns:xlink="http://www.w3.org/1999/xlink">
    <!-- Generator: Sketch 51.2 (57519) - http://www.bohemiancoding.com/sketch -->
    <title>Edx</title>
    <desc>Created with Sketch.</desc>
    <defs></defs>
    <g id="Edx" stroke="none" stroke-width="1" fill="none" fill-rule="evenodd">
        <g id="edx_logo_final" transform="translate(0.000000, 5.026489)" fill-rule="nonzero">
            <path d="M17.9948689,1.2693937 L17.9948689,0.000987086855 L14.708894,0.000987086855 L14.708894,1.2693937 L15.4559863,1.2693937 L14.1249715,2.84873266 L12.7929304,1.2693937 L13.5431015,1.2693937 L13.5431015,0.000987086855 L11.0883694,0.000987086855 L11.0883694,1.42140507 L13.2095781,3.93650238 L11.0883694,6.45357386 L11.0883694,6.70725518 L12.1002281,6.70725518 L12.1002281,8.00724857 L13.5431015,8.00724857 L13.5431015,6.7062681 L12.7077537,6.7062681 L14.1270239,5.02229792 L15.5473204,6.7062681 L14.7099202,6.7062681 L14.7099202,8.00626148 L17.9958951,8.00626148 C17.9958951,7.58280122 17.9958951,7.12972836 17.9958951,6.7062681 L17.3791334,6.7062681 L15.0413911,3.93551529 L17.2888255,1.2693937 L17.9948689,1.2693937 Z" id="Shape" fill="#00A0E3"></path>
            <g id="Group" transform="translate(10.231471, 0.000000)" fill="#016AA3">
                <polygon id="Shape" points="0.855872292 6.7062681 0.855872292 6.45357386 0.642417332 6.7062681 0.00923603193 6.7062681 0.00923603193 8.00626148 1.8677309 8.00626148 1.8677309 6.7062681"></polygon>
                <polygon id="Shape" points="0.855872292 1.42140507 0.855872292 0.000987086855 0.00923603193 0.000987086855 0.00923603193 1.2693937 0.727594071 1.2693937"></polygon>
            </g>
            <g id="Group" transform="translate(4.710376, 2.803327)" fill="#77202D">
                <path d="M0.850741163,4.19709331 C1.08985177,3.93748947 1.28483466,3.63741506 1.42337514,3.30772805 L0.255530217,3.30772805 C0.40022805,3.63642798 0.602394527,3.93748947 0.850741163,4.19709331 Z" id="Shape"></path>
                <path d="M1.40285063,2.60294804 C1.35461802,2.44402705 1.32896237,2.2752352 1.32896237,2.10052083 C1.32896237,1.91593559 1.35769669,1.73727287 1.41106043,1.56848101 C1.44595211,1.45891437 1.49213227,1.35329608 1.54652223,1.25360031 C1.41413911,0.781772789 1.17297605,0.356338355 0.848688712,0.00493543428 C0.515165336,0.355351268 0.263740023,0.778811529 0.124173318,1.24866487 C0.178563284,1.35033482 0.222690992,1.4569402 0.256556442,1.56848101 L0.0482326112,1.56848101 C0.0174458381,1.74122121 0.00102622577,1.91889685 0.00102622577,2.10052083 C0.00102622577,2.27128685 0.0153933865,2.43909162 0.0431014823,2.60294804 L0.2668187,2.60294804 L1.40285063,2.60294804 Z" id="Shape"></path>
            </g>
            <g id="Group" transform="translate(4.751425, 0.000000)" fill="#8A8C8F">
                <path d="M6.20763968,1.2693937 L5.48928164,1.2693937 L5.48928164,0.000987086855 L4.13261117,0.000987086855 L4.13261117,1.2693937 L5.00900798,1.2693937 L5.00900798,2.36308593 C4.49897377,2.01069592 3.87297605,1.80340768 3.18643101,1.80340768 C2.24538198,1.80340768 1.39874572,2.19133282 0.809692132,2.80924919 C1.13397948,3.16065211 1.37514253,3.58608655 1.50752566,4.05791406 C1.82360319,3.48540369 2.44960091,3.09451729 3.17103763,3.09451729 C4.21060433,3.09451729 5.00900798,3.9049156 5.00900798,4.90483458 C5.00900798,5.90475357 4.20957811,6.71515188 3.17103763,6.71515188 C2.44960091,6.71515188 1.82360319,6.32525257 1.50752566,5.75175511 C1.44697834,5.64317555 1.39874572,5.52768639 1.36282782,5.40726179 L0.225769669,5.40726179 L0.00410490308,5.40726179 C0.0246294185,5.5266993 0.0513112885,5.64317555 0.0851767389,5.75669054 C0.121094641,5.87810222 0.164196123,5.99655265 0.214481186,6.11105472 L1.38129989,6.11105472 C1.24275941,6.44074173 1.04880274,6.74081614 0.808665906,7.00041998 C1.39874572,7.61833635 2.24538198,8.0052744 3.18643101,8.0052744 C3.87400228,8.0052744 4.5,7.79798616 5.00900798,7.44559615 L5.00900798,8.00626148 L5.48928164,8.00626148 L5.48928164,6.7062681 L6.12246294,6.7062681 L6.3359179,6.45258677 L6.3359179,1.42140507 L6.20763968,1.2693937 Z" id="Shape"></path>
                <path d="M0.191502042,4.05297863 C0.117610416,4.21032014 0.0560340615,4.37063035 0.00923603193,4.53390928 L0.509236032,4.53390928 C0.427955244,4.36617729 0.31958086,4.20586708 0.191502042,4.05297863 Z" id="Shape"></path>
            </g>
            <g id="Group" transform="translate(0.000000, 1.796498)" fill="#B72667">
                <path d="M6.47134648,2.57629669 C6.44373911,2.46969131 6.40846304,2.36407302 6.36551825,2.26141599 C6.28269617,2.36111176 6.21521151,2.46673005 6.16306427,2.57629669 C6.08330967,2.74410146 6.04036488,2.92276418 6.04036488,3.10833651 C6.04036488,3.28305088 6.07870844,3.45085565 6.15079433,3.61076372 L6.48054893,3.61076372 C6.52042623,3.4469073 6.54036488,3.28008962 6.54036488,3.10833651 C6.53883114,2.92671253 6.515825,2.74903689 6.47134648,2.57629669 Z" id="Shape"></path>
                <path d="M3.20900798,1.29801921 C3.92839225,1.29801921 4.53283922,1.68594435 4.83660205,2.25648055 C4.97514253,1.78662721 5.22656784,1.36316695 5.56111745,1.01275111 C4.99156214,0.394834742 4.1654504,0.00690960799 3.22440137,0.00690960799 C1.63169897,0.00690960799 0.308893957,1.11639523 0.0472063854,2.57629669 C0.0164196123,2.74903689 0,2.92671253 0,3.10833651 C0,3.27910253 0.0143671608,3.4469073 0.0420752566,3.61076372 C0.291448119,5.08448439 1.62143672,6.20877632 3.22440137,6.20877632 C4.1654504,6.20877632 4.99053592,5.82085119 5.56111745,5.20293481 C5.31379704,4.94333097 5.11163056,4.64325657 4.96693273,4.31356956 L4.58928164,4.31356956 C4.25678449,4.68471422 3.76830103,4.91766671 3.21003421,4.91766671 C2.35210946,4.91766671 1.62759407,4.36489807 1.4018244,3.60977663 L4.75655644,3.60977663 C4.72884835,3.44592021 4.71448119,3.27910253 4.71448119,3.10734942 C4.71448119,2.92572544 4.7309008,2.74804981 4.76168757,2.57530961 L1.41003421,2.57530961 C1.64503991,1.83598155 2.3613455,1.29801921 3.20900798,1.29801921 Z" id="Shape"></path>
            </g>
        </g>
    </g>
</svg>