<?xml version="1.0" encoding="UTF-8"?>
<svg width="18px" height="18px" viewBox="0 0 18 18" version="1.1" xmlns="http://www.w3.org/2000/svg" xmlns:xlink="http://www.w3.org/1999/xlink">
    <!-- Generator: Sketch 51.2 (57519) - http://www.bohemiancoding.com/sketch -->
    <title>EllipsisHorizontal</title>
    <desc>Created with Sketch.</desc>
    <defs></defs>
    <g id="EllipsisHorizontal" stroke="none" stroke-width="1" fill="none" fill-rule="evenodd">
        <path d="M4.5,10 C3.67157287,10 3,9.32842712 3,8.5 C3,7.67157288 3.67157287,7 4.5,7 C5.32842712,7 6,7.67157288 6,8.5 C6,9.32842712 5.32842712,10 4.5,10 Z M9.5,10 C8.67157288,10 8,9.32842712 8,8.5 C8,7.67157288 8.67157288,7 9.5,7 C10.3284271,7 11,7.67157288 11,8.5 C11,9.32842712 10.3284271,10 9.5,10 Z M14.5,10 C13.6715729,10 13,9.32842712 13,8.5 C13,7.67157288 13.6715729,7 14.5,7 C15.3284271,7 16,7.67157288 16,8.5 C16,9.32842712 15.3284271,10 14.5,10 Z" id="Shape" fill="#000000" fill-rule="nonzero"></path>
    </g>
</svg>