<?xml version="1.0" encoding="UTF-8"?>
<svg width="18px" height="18px" viewBox="0 0 18 18" version="1.1" xmlns="http://www.w3.org/2000/svg" xmlns:xlink="http://www.w3.org/1999/xlink">
    <!-- Generator: Sketch 51.2 (57519) - http://www.bohemiancoding.com/sketch -->
    <title>EllipsisVertical</title>
    <desc>Created with Sketch.</desc>
    <defs></defs>
    <g id="EllipsisVertical" stroke="none" stroke-width="1" fill="none" fill-rule="evenodd">
        <path d="M7,4.5 C7,3.67157288 7.67157288,3 8.5,3 C9.32842712,3 10,3.67157288 10,4.5 C10,5.32842712 9.32842712,6 8.5,6 C7.67157288,6 7,5.32842712 7,4.5 Z M7,9.5 C7,8.67157288 7.67157288,8 8.5,8 C9.32842712,8 10,8.67157288 10,9.5 C10,10.3284271 9.32842712,11 8.5,11 C7.67157288,11 7,10.3284271 7,9.5 Z M7,14.5 C7,13.6715729 7.67157288,13 8.5,13 C9.32842712,13 10,13.6715729 10,14.5 C10,15.3284271 9.32842712,16 8.5,16 C7.67157288,16 7,15.3284271 7,14.5 Z" id="Shape" fill="#000000" fill-rule="nonzero"></path>
    </g>
</svg>