<?xml version="1.0" encoding="UTF-8"?>
<svg width="18px" height="18px" viewBox="0 0 18 18" version="1.1" xmlns="http://www.w3.org/2000/svg" xmlns:xlink="http://www.w3.org/1999/xlink">
    <!-- Generator: Sketch 51.2 (57519) - http://www.bohemiancoding.com/sketch -->
    <title>EyeOff</title>
    <desc>Created with Sketch.</desc>
    <defs></defs>
    <g id="EyeOff" stroke="none" stroke-width="1" fill="none" fill-rule="evenodd">
        <path d="M5.02419667,9.44333741 L2.80464934,11.6311517 C1.63183496,10.2636699 1,9 1,9 C1,9 4,3 9.06,3 C9.81294338,3 10.5208183,3.13938691 11.1798715,3.37567067 L9.50062571,5.03090821 C9.33671845,5.01051098 9.1696439,5 9,5 C6.8,5 5,6.8 5,9 C5,9.14992343 5.00820929,9.29784014 5.02419667,9.44333741 Z M5.95104447,11.5902054 C6.68626059,12.4542348 7.78180836,13 9,13 C11.22,13 13,11.22 13,9 C13,7.76119318 12.4356067,6.6492163 11.5460678,5.91402951 L13.0647509,4.37331881 C15.5722433,6.14448667 17,9 17,9 C17,9 14,15 9.06,15 C7.21043341,15 5.63610339,14.1983401 4.3829177,13.181077 L5.95104447,11.5902054 Z M8.56472534,10.953119 L3.58999991,16 L2,14.4099998 L14.59,2 L16,3.41 L10.9467292,8.53656562 C10.981578,8.68515983 11,8.84030303 11,9 C11,10.11 10.11,11 9,11 C8.85036321,11 8.70472451,10.9838259 8.56472534,10.953119 Z" id="Combined-Shape" fill="#000000" fill-rule="nonzero"></path>
    </g>
</svg>