<?xml version="1.0" encoding="UTF-8"?>
<svg width="18px" height="18px" viewBox="0 0 18 18" version="1.1" xmlns="http://www.w3.org/2000/svg" xmlns:xlink="http://www.w3.org/1999/xlink">
    <!-- Generator: Sketch 51.2 (57519) - http://www.bohemiancoding.com/sketch -->
    <title>FaceSad</title>
    <desc>Created with Sketch.</desc>
    <defs></defs>
    <g id="FaceSad" stroke="none" stroke-width="1" fill="none" fill-rule="evenodd">
        <path d="M9,15 C12.3137085,15 15,12.3137085 15,9 C15,5.6862915 12.3137085,3 9,3 C5.6862915,3 3,5.6862915 3,9 C3,12.3137085 5.6862915,15 9,15 Z M9,17 C4.581722,17 1,13.418278 1,9 C1,4.581722 4.581722,1 9,1 C13.418278,1 17,4.581722 17,9 C17,13.418278 13.418278,17 9,17 Z M11,9.25 C11.6903559,9.25 12.25,8.69035594 12.25,8 C12.25,7.30964406 11.6903559,6.75 11,6.75 C10.3096441,6.75 9.75,7.30964406 9.75,8 C9.75,8.69035594 10.3096441,9.25 11,9.25 Z M13.4472136,11.1055728 C11.9788155,10.3713738 10.4933204,10 9,10 C7.50667956,10 6.02118449,10.3713738 4.5527864,11.1055728 L5.80273438,12.6976318 C7.00100296,12.0984975 7.82665377,12 9,12 C10.1733462,12 10.9972881,12.1033193 12.1955566,12.7024536 L13.4472136,11.1055728 Z M7,9.25 C7.69035594,9.25 8.25,8.69035594 8.25,8 C8.25,7.30964406 7.69035594,6.75 7,6.75 C6.30964406,6.75 5.75,7.30964406 5.75,8 C5.75,8.69035594 6.30964406,9.25 7,9.25 Z" id="Combined-Shape" fill="#000000" fill-rule="nonzero"></path>
    </g>
</svg>