<?xml version="1.0" encoding="UTF-8"?>
<svg width="18px" height="18px" viewBox="0 0 18 18" version="1.1" xmlns="http://www.w3.org/2000/svg" xmlns:xlink="http://www.w3.org/1999/xlink">
    <!-- Generator: Sketch 51.2 (57519) - http://www.bohemiancoding.com/sketch -->
    <title>Facebook</title>
    <desc>Created with Sketch.</desc>
    <defs></defs>
    <g id="Facebook" stroke="none" stroke-width="1" fill="none" fill-rule="evenodd">
        <path d="M1.883,1 C1.395,1 1,1.395 1,1.883 L1,16.117 C1,16.605 1.395,17 1.883,17 L9.546,17 L9.546,10.804 L7.46,10.804 L7.46,8.39 L9.546,8.39 L9.546,6.607 C9.546,4.541 10.808,3.417 12.652,3.417 C13.535,3.417 14.294,3.481 14.515,3.511 L14.515,5.671 L13.235,5.671 C12.235,5.671 12.04,6.151 12.04,6.851 L12.04,8.391 L14.43,8.391 L14.12,10.811 L12.04,10.811 L12.04,17 L16.117,17 C16.605,17 17,16.605 17,16.117 L17,1.883 C17,1.395 16.605,1 16.117,1 L1.883,1 Z" id="Shape" fill="#3C5A96"></path>
    </g>
</svg>