<?xml version="1.0" encoding="UTF-8"?>
<svg width="18px" height="18px" viewBox="0 0 18 18" version="1.1" xmlns="http://www.w3.org/2000/svg" xmlns:xlink="http://www.w3.org/1999/xlink">
    <!-- Generator: Sketch 51.2 (57519) - http://www.bohemiancoding.com/sketch -->
    <title>Female</title>
    <desc>Created with Sketch.</desc>
    <defs></defs>
    <g id="Female" stroke="none" stroke-width="1" fill="none" fill-rule="evenodd">
        <path d="M10,13 L12,13 L12,15 L10,15 L10,17 L8,17 L8,15 L6,15 L6,13 L8,13 L8,10.8999819 C5.71775968,10.4367116 4,8.41895791 4,6 C4,3.23857625 6.23857625,1 9,1 C11.7614237,1 14,3.23857625 14,6 C14,8.41895791 12.2822403,10.4367116 10,10.8999819 L10,13 Z M9,9 C10.6568542,9 12,7.65685425 12,6 C12,4.34314575 10.6568542,3 9,3 C7.34314575,3 6,4.34314575 6,6 C6,7.65685425 7.34314575,9 9,9 Z" id="Combined-Shape" fill="#000000" fill-rule="nonzero"></path>
    </g>
</svg>