<?xml version="1.0" encoding="UTF-8"?>
<svg width="14px" height="14px" viewBox="0 0 14 14" version="1.1" xmlns="http://www.w3.org/2000/svg" xmlns:xlink="http://www.w3.org/1999/xlink">
    <!-- Generator: Sketch 51.2 (57519) - http://www.bohemiancoding.com/sketch -->
    <title>FireSm</title>
    <desc>Created with Sketch.</desc>
    <defs></defs>
    <g id="FireSm" stroke="none" stroke-width="1" fill="none" fill-rule="evenodd">
        <path d="M6.21185277,0.00845253576 C6.88741462,1.8426528 6.55380383,2.86540962 5.77815874,3.65149545 C4.9608123,4.5390117 3.65138995,5.19830949 2.75064081,6.49154746 C1.54130169,8.2243173 1.33279495,12.0110533 5.69475604,13 C3.85989669,12.0195059 3.46790401,9.17945384 5.44454795,7.41287386 C4.93579149,9.12873862 5.88658225,10.2275683 7.06256029,9.83029909 C8.22185779,9.43302991 8.98082234,10.2782835 8.95580153,11.2418726 C8.93912099,11.9011704 8.69725317,12.4590377 8.01335104,12.7717815 C10.8657233,12.2730819 12,9.8810143 12,8.07217165 C12,5.6716515 9.88991174,5.35045514 10.9574663,3.33029909 C9.68974527,3.44018205 9.26439151,4.28543563 9.38115529,5.65474642 C9.45621772,6.56762029 8.53044777,7.17620286 7.82986511,6.77893368 C7.27106703,6.43237971 7.2794073,5.77308192 7.77982349,5.27438231 C8.82235721,4.23472042 9.2393707,1.81729519 6.21185277,0.0169050715 L6.19517223,0 L6.21185277,0.00845253576 Z" id="Shape" fill="#000000" fill-rule="nonzero"></path>
    </g>
</svg>