<?xml version="1.0" encoding="UTF-8"?>
<svg width="18px" height="18px" viewBox="0 0 18 18" version="1.1" xmlns="http://www.w3.org/2000/svg" xmlns:xlink="http://www.w3.org/1999/xlink">
    <!-- Generator: Sketch 51.2 (57519) - http://www.bohemiancoding.com/sketch -->
    <title>Fire</title>
    <desc>Created with Sketch.</desc>
    <defs></defs>
    <g id="Fire" stroke="none" stroke-width="1" fill="none" fill-rule="evenodd">
        <path d="M7.4754086,0.011053316 C8.35363901,2.40962289 7.91994498,3.74707412 6.91160636,4.77503251 C5.84905599,5.93563069 4.14680693,6.79778934 2.97583305,8.48894668 C1.4036922,10.7548765 1.13263343,15.706762 6.80318286,17 C4.4178657,15.7178153 3.90827521,12.0039012 6.47791233,9.69375813 C5.81652894,11.9375813 7.05255692,13.3745124 8.58132837,12.8550065 C10.0884151,12.3355007 11.075069,13.4408322 11.042542,14.7009103 C11.0208573,15.5630689 10.7064291,16.2925878 9.81735636,16.7015605 C13.5254403,16.0494148 15,12.9213264 15,10.5559168 C15,7.41677503 12.2568853,6.99674902 13.6447062,4.3550065 C11.9966689,4.49869961 11.443709,5.60403121 11.5955019,7.3946684 C11.693083,8.58842653 10.4895821,9.38426528 9.57882464,8.86475943 C8.85238714,8.41157347 8.86322949,7.54941482 9.51377054,6.89726918 C10.8690644,5.53771131 11.4111819,2.37646294 7.4754086,0.022106632 L7.4537239,0 L7.4754086,0.011053316 Z" id="Shape" fill="#000000" fill-rule="nonzero"></path>
    </g>
</svg>