<?xml version="1.0" encoding="UTF-8"?>
<svg width="18px" height="18px" viewBox="0 0 18 18" version="1.1" xmlns="http://www.w3.org/2000/svg" xmlns:xlink="http://www.w3.org/1999/xlink">
    <!-- Generator: Sketch 51.2 (57519) - http://www.bohemiancoding.com/sketch -->
    <title>Food</title>
    <desc>Created with Sketch.</desc>
    <defs></defs>
    <g id="Food" stroke="none" stroke-width="1" fill="none" fill-rule="evenodd">
        <path d="M8,7 L7,7 L7,1 L5,1 L5,7 L4,7 L4,1 L2,1 L2,7 C2,8.696 3.328,9.896 5,10 L5,17 L7,17 L7,10 C8.672,9.896 10,8.696 10,7 L10,1 L8,1 L8,7 Z M12,4.2 L12,10 L14,10 L14,17 L16,17 L16,1 C13.792,1 12,2.792 12,4.2 Z" id="Shape" fill="#000000" fill-rule="nonzero"></path>
    </g>
</svg>