<?xml version="1.0" encoding="UTF-8"?>
<svg width="14px" height="14px" viewBox="0 0 14 14" version="1.1" xmlns="http://www.w3.org/2000/svg" xmlns:xlink="http://www.w3.org/1999/xlink">
    <!-- Generator: Sketch 51.2 (57519) - http://www.bohemiancoding.com/sketch -->
    <title>GearSm</title>
    <desc>Created with Sketch.</desc>
    <defs></defs>
    <g id="GearSm" stroke="none" stroke-width="1" fill="none" fill-rule="evenodd">
        <path d="M8.17446993,11.4218483 L7.78130759,12.9495921 C7.52557832,12.9828472 7.26479229,13 7,13 C6.73021516,13 6.46458907,12.9821943 6.20423279,12.9476939 L5.8105292,11.4178469 C5.42257941,11.3136534 5.05499876,11.1597199 4.71504408,10.9633031 L3.35522447,11.7664794 C2.9359805,11.4454118 2.5603276,11.0702817 2.23868153,10.6515047 L3.04121946,9.29276575 C2.84341817,8.95197037 2.68836109,8.58328686 2.58338644,8.19405342 L1.05289298,7.80018346 C1.01800767,7.53841491 1,7.27131041 1,7 C1,6.73778546 1.01682047,6.47949956 1.04944127,6.22616241 L2.57610664,5.83327761 C2.67984491,5.43887031 2.83492928,5.06528427 3.03378103,4.72009819 L2.23019046,3.35957706 C2.54892825,2.94259 2.92110689,2.5686284 3.33649999,2.24791863 L4.69332435,3.04932571 C5.04137174,2.84567268 5.41874188,2.68669747 5.81756544,2.58026939 L6.21101451,1.05141138 C6.46920123,1.01749792 6.73255719,1 7,1 C7.26245355,1 7.5209713,1.01685115 7.77453033,1.04953051 L8.16744081,2.57629566 C8.56911618,2.68201588 8.94918829,2.84099408 9.29965016,3.04522327 L10.6574399,2.24324599 C11.0718481,2.56235617 11.4433828,2.93440836 11.7619207,3.34927948 L10.9593085,4.70814413 C11.1621312,5.05777637 11.3199705,5.43674636 11.4249058,5.8371336 L12.9510363,6.22988077 C12.9833437,6.48202674 13,6.73906823 13,7 C13,7.27002436 12.9821626,7.53588259 12.947602,7.79646065 L11.4176536,8.19019032 C11.311444,8.58538767 11.1536166,8.9594403 10.9518439,9.30467555 L11.7534131,10.6617744 C11.4319624,11.0784388 11.05695,11.451663 10.6386876,11.7711355 L9.27788618,10.9673794 C8.9355233,11.1643728 8.5652555,11.3183248 8.17446993,11.4218483 Z M7,9 C8.1045695,9 9,8.1045695 9,7 C9,5.8954305 8.1045695,5 7,5 C5.8954305,5 5,5.8954305 5,7 C5,8.1045695 5.8954305,9 7,9 Z" id="Combined-Shape" fill="#000000"></path>
    </g>
</svg>