<?xml version="1.0" encoding="UTF-8"?>
<svg width="18px" height="18px" viewBox="0 0 18 18" version="1.1" xmlns="http://www.w3.org/2000/svg" xmlns:xlink="http://www.w3.org/1999/xlink">
    <!-- Generator: Sketch 51.2 (57519) - http://www.bohemiancoding.com/sketch -->
    <title>Gear</title>
    <desc>Created with Sketch.</desc>
    <defs></defs>
    <g id="Gear" stroke="none" stroke-width="1" fill="none" fill-rule="evenodd">
        <path d="M14.8064,6.968 L14.5344,6.3088 C15.4672,4.1568 15.4064,4.0928 15.224,3.9088 L14.032,2.72 L13.9136,2.6176 L13.776,2.6176 C13.7024,2.6176 13.4864,2.6176 11.6736,3.456 L11.0064,3.1808 C10.144,1 10.056,1 9.8,1 L8.1216,1 C7.8688,1 7.7712,1 6.9728,3.1888 L6.3088,3.464 C5.0848,2.936 4.3664,2.664 4.1728,2.664 L4.0128,2.664 L2.7328,3.944 C2.536,4.144 2.4672,4.2096 3.4544,6.328 L3.1824,6.9856 C1,7.8464 1,7.9296 1,8.2 L1,9.8768 C1,10.1408 1,10.2336 3.1904,11.0352 L3.4624,11.6912 C2.5296,13.8432 2.592,13.9072 2.7728,14.0912 L3.9648,15.2816 L4.0832,15.3856 L4.2224,15.3856 C4.2944,15.3856 4.5088,15.3856 6.3232,14.5456 L6.9888,14.8224 C7.8512,17 7.9392,17 8.2,17 L9.8752,17 C10.1328,17 10.224,17 11.0256,14.8128 L11.6928,14.5376 C12.9168,15.0656 13.632,15.3376 13.8256,15.3376 L13.9856,15.3376 L15.2784,14.0464 C15.4624,13.8576 15.5264,13.792 14.5456,11.6816 L14.816,11.024 C17,10.1536 17,10.0624 17,9.8 L17,8.1232 C17,7.8592 17,7.7664 14.8064,6.968 Z M9.00712951,12.0999918 C7.75251305,12.1028592 6.61987213,11.3492086 6.13792845,10.1908473 C5.65598477,9.032486 5.91977668,7.69784053 6.80616497,6.80992924 C7.69255326,5.92201794 9.0267439,5.65593519 10.1859309,6.13588955 C11.3451179,6.61584392 12.1007118,7.74718935 12.0999982,9.00180888 C12.0970839,10.7096067 10.7149198,12.0941456 9.00712951,12.0999918 Z" id="Shape" fill="#000000" fill-rule="nonzero"></path>
    </g>
</svg>