<?xml version="1.0" encoding="UTF-8"?>
<svg width="18px" height="18px" viewBox="0 0 18 18" version="1.1" xmlns="http://www.w3.org/2000/svg" xmlns:xlink="http://www.w3.org/1999/xlink">
    <!-- Generator: Sketch 51.2 (57519) - http://www.bohemiancoding.com/sketch -->
    <title>Globe</title>
    <desc>Created with Sketch.</desc>
    <defs></defs>
    <g id="Globe" stroke="none" stroke-width="1" fill="none" fill-rule="evenodd">
        <path d="M9,1 C4.584,1 1,4.584 1,9 C1,13.416 4.584,17 9,17 C13.416,17 17,13.416 17,9 C17,4.584 13.416,1 9,1 Z M8.00040667,15.3160878 C4.9378419,14.8379975 2.6,12.1949407 2.6,9 C2.6,8.504 2.664,8.032 2.768,7.568 L7,11.6830322 L7,12.4830322 C7,13.3630322 7.12,13.8 8,13.8 C8,14.8142334 8.00013556,15.319596 8.00040667,15.3160878 Z M13.72,13.312 C13.512,12.664 12.72,12 12,12 L11,12 L11,10 C11,9.56 10.44,9 10,9 L6,9 L6,7 L7,7 C7.44,7 8,6.44 8,6 L8,5 L10,5 C10.88,5 11.4,4.28 11.4,3.4 L11.4,3.072 C13.744,4.024 15.4,6.32 15.4,9 C15.4,10.664 14.76,12.176 13.72,13.312 Z" id="Shape" fill="#000000" fill-rule="nonzero"></path>
    </g>
</svg>