<?xml version="1.0" encoding="UTF-8"?>
<svg width="18px" height="18px" viewBox="0 0 18 18" version="1.1" xmlns="http://www.w3.org/2000/svg" xmlns:xlink="http://www.w3.org/1999/xlink">
    <!-- Generator: Sketch 51.2 (57519) - http://www.bohemiancoding.com/sketch -->
    <title>Google</title>
    <desc>Created with Sketch.</desc>
    <defs></defs>
    <g id="Google" stroke="none" stroke-width="1" fill="none" fill-rule="evenodd">
        <g id="logo_googleg_48dp" transform="translate(0.000000, 1.000000)">
            <path d="M16.512843,6.99780273 L8.9799646,6.99780273 L8.9799646,10.010498 L13.2844666,10.010498 C13.099053,11.0102768 12.5355414,11.4865012 11.6884561,12.0536484 L11.6884561,14.060477 L14.2733386,14.060477 C15.7857312,12.6680579 16.6582654,10.6176025 16.6582654,8.18177795 C16.6582654,7.61463074 16.6073676,7.52132324 16.512843,6.99780273 Z" id="Shape" fill="#4285F4"></path>
            <path d="M8.9799646,15.99823 C11.1394867,15.99823 12.9499951,15.2820248 14.2733386,14.060477 L11.6884561,12.0536484 C10.972251,12.5335422 10.0560901,12.8171158 8.9799646,12.8171158 C6.89678925,12.8171158 5.13354309,11.4101544 4.50459137,9.5196637 L1.83245544,9.5196637 L1.83245544,11.5919324 C3.14852783,14.2058994 5.85338379,15.99823 8.9799646,15.99823 L8.9799646,15.99823 Z" id="Shape" fill="#34A853"></path>
            <path d="M4.50459137,9.5196637 C4.34462677,9.0397699 4.25373779,8.52715607 4.25373779,8 C4.25373779,7.47284393 4.34462677,6.9602301 4.50459137,6.4803363 L4.50459137,4.40806763 L1.83245544,4.40806763 C1.29075714,5.48782867 0.981734619,6.70937653 0.981734619,8 C0.981734619,9.29062347 1.29075714,10.5121713 1.83245544,11.5919324 L4.50459137,9.5196637 L4.50459137,9.5196637 Z" id="Shape" fill="#FBBC05"></path>
            <path d="M8.9799646,3.18288422 C10.1542502,3.18288422 11.2085623,3.58643127 12.0374698,4.37898315 L14.3315076,2.08494537 C12.9463596,0.794321899 11.1358511,0.00177001953 8.9799646,0.00177001953 C5.85338379,0.00177001953 3.14852783,1.79410065 1.83245544,4.40806763 L4.50459137,6.4803363 C5.13354309,4.58984558 6.89678925,3.18288422 8.9799646,3.18288422 L8.9799646,3.18288422 Z" id="Shape" fill="#EA4335"></path>
        </g>
    </g>
</svg>