<?xml version="1.0" encoding="UTF-8"?>
<svg width="18px" height="18px" viewBox="0 0 18 18" version="1.1" xmlns="http://www.w3.org/2000/svg" xmlns:xlink="http://www.w3.org/1999/xlink">
    <!-- Generator: Sketch 51.2 (57519) - http://www.bohemiancoding.com/sketch -->
    <title>Heart</title>
    <desc>Created with Sketch.</desc>
    <defs></defs>
    <g id="Heart" stroke="none" stroke-width="1" fill="none" fill-rule="evenodd">
        <path d="M5.77853016,2 C4.61421091,2 3.44989166,2.46128501 2.57665222,3.36079077 C0.807782593,5.18286656 0.807782593,8.15815486 2.57665222,9.98023064 L8.62215601,15.8385502 C8.73410979,15.9308072 8.86845432,16 9.00279884,16 C9.13714337,16 9.2714879,15.9538715 9.38344168,15.8385502 L15.4289455,9.98023064 C16.3021849,9.08072488 16.75,7.88138386 16.75,6.68204283 C16.75,5.48270181 16.3021849,4.28336079 15.4289455,3.38385502 C14.6452691,2.57660626 13.6376851,2.20757825 12.5853196,2.20757825 C11.3090466,2.20757825 10.0103828,2.76112026 9.04758035,3.72981878 C9.04758035,3.72981878 9.0251896,3.75288303 9.0251896,3.75288303 C9.0251896,3.75288303 9.00279884,3.75288303 9.00279884,3.72981878 C8.06238714,2.85337727 6.92045865,2 5.77853016,2 Z" id="Shape" fill="#000000" fill-rule="nonzero"></path>
    </g>
</svg>