<?xml version="1.0" encoding="UTF-8"?>
<svg width="18px" height="18px" viewBox="0 0 18 18" version="1.1" xmlns="http://www.w3.org/2000/svg" xmlns:xlink="http://www.w3.org/1999/xlink">
    <!-- Generator: Sketch 51.2 (57519) - http://www.bohemiancoding.com/sketch -->
    <title>Help</title>
    <desc>Created with Sketch.</desc>
    <defs></defs>
    <g id="Help" stroke="none" stroke-width="1" fill="none" fill-rule="evenodd">
        <path d="M9.00005555,1 C4.58150141,1.00024546 0.999754538,4.58239031 1,9.00094445 C1.00024546,13.4194986 4.58239031,17.0012455 9.00094445,17.001 C13.4194986,17.0007545 17.0012455,13.4186097 17.001,9.00005555 C17.0007545,4.58150141 13.4186097,0.999754538 9.00005555,1 L9.00005555,1 Z M9.812,13.126 C9.792,13.842 9.262,14.283 8.574,14.263 C7.915,14.243 7.397,13.773 7.417,13.054 C7.437,12.339 7.983,11.884 8.642,11.904 C9.333,11.925 9.836,12.411 9.812,13.126 Z M11.768,8.012 C11.6,8.249 11.222,8.554 10.748,8.924 L10.221,9.285 C9.964,9.482 9.804,9.715 9.719,9.98 C9.675,10.121 9.643,10.487 9.635,10.732 C9.631,10.78 9.603,10.888 9.454,10.888 L7.883,10.888 C7.718,10.888 7.698,10.792 7.703,10.744 C7.726,10.077 7.823,9.526 8.1,9.084 C8.474,8.49 9.526,7.863 9.526,7.863 C9.687,7.743 9.812,7.613 9.908,7.473 C10.085,7.233 10.229,6.963 10.229,6.673 C10.229,6.34 10.149,6.023 9.936,5.758 C9.687,5.448 9.418,5.3 8.9,5.3 C8.39,5.3 8.092,5.557 7.879,5.894 C7.666,6.232 7.702,6.629 7.702,6.991 L5.746,6.991 C5.746,5.625 6.103,4.753 6.858,4.239 C7.368,3.889 8.02,3.737 8.779,3.737 C9.775,3.737 10.567,3.921 11.266,4.452 C11.913,4.942 12.254,5.633 12.254,6.565 C12.254,7.14 12.054,7.622 11.768,8.012 L11.768,8.012 Z" id="Shape" fill="#000000" fill-rule="nonzero"></path>
    </g>
</svg>