<?xml version="1.0" encoding="UTF-8"?>
<svg width="14px" height="14px" viewBox="0 0 14 14" version="1.1" xmlns="http://www.w3.org/2000/svg" xmlns:xlink="http://www.w3.org/1999/xlink">
    <!-- Generator: Sketch 51.2 (57519) - http://www.bohemiancoding.com/sketch -->
    <title>HelpSm</title>
    <desc>Created with Sketch.</desc>
    <defs></defs>
    <g id="HelpSm" stroke="none" stroke-width="1" fill="none" fill-rule="evenodd">
        <path d="M6.99966669,1 C3.68595819,1.00018408 0.999815915,3.68662482 1,7.00033331 C1.00018408,10.3140418 3.68662482,13.0001841 7.00033331,13 C10.3140418,12.9998159 13.0001841,10.3133752 13,6.99966669 C12.9998159,3.68595819 10.3133752,0.999815915 6.99966669,1 L6.99966669,1 Z M8.06044928,10.0590768 C8.04281341,10.6904411 7.57546276,11.0793121 6.9687887,11.0616763 C6.38768667,11.0440404 5.93091754,10.6295974 5.94855342,9.9955877 C5.96618929,9.36510522 6.44764864,8.96388909 7.02875067,8.98152496 C7.63807011,9.00004263 8.08161233,9.42859436 8.06044928,10.0590768 Z M8.78961677,6.98751792 L8.32128906,7.29811563 C8.09290155,7.46761078 7.95071477,7.66807966 7.87517804,7.89608075 C7.83607668,8.01739454 7.80763932,8.33229416 7.80052998,8.54308762 C7.79697531,8.58438593 7.77209263,8.67730713 7.63968119,8.67730713 L6.24358474,8.67730713 C6.09695463,8.67730713 6.07918128,8.59471051 6.08362462,8.5534122 C6.10406397,7.97953776 6.1902647,7.50546757 6.43642556,7.12517896 C6.76878716,6.61411236 7.70366524,6.07465318 7.70366524,6.07465318 C7.84674069,5.97140741 7.91332173,5.85955782 7.9986338,5.73910441 C8.15592792,5.53261286 8.28389603,5.30030986 8.28389603,5.05079923 C8.28389603,4.7642922 8.21280264,4.49155128 8.02351648,4.26355019 C7.80223831,3.99683193 7.56318679,3.86949548 7.10285709,3.86949548 C6.64963673,3.86949548 6.2711343,4.09061351 6.08184814,4.38056207 C5.89256199,4.67137101 5.92455402,5.01294245 5.92455402,5.32440054 L4.18632064,5.32440054 C4.18632064,4.14911945 4.50357489,3.39886681 5.17451876,2.95663074 C5.62773912,2.65549722 6.3208298,2.52471924 6.99532833,2.52471924 C7.88044104,2.52471924 8.5842656,2.68302943 9.20544409,3.13989199 C9.78041188,3.56147891 10.0834475,4.15600251 10.0834475,4.95787803 C10.0834475,5.45259738 9.90571398,5.86730125 9.65155511,6.20285002 C9.50225899,6.40676043 9.2108451,6.66917678 8.78961677,6.98751792 Z" id="Shape" fill="#000000" fill-rule="nonzero"></path>
    </g>
</svg>