<?xml version="1.0" encoding="UTF-8"?>
<svg width="19px" height="18px" viewBox="0 0 19 18" version="1.1" xmlns="http://www.w3.org/2000/svg" xmlns:xlink="http://www.w3.org/1999/xlink">
    <!-- Generator: Sketch 51.2 (57519) - http://www.bohemiancoding.com/sketch -->
    <title>History</title>
    <desc>Created with Sketch.</desc>
    <defs></defs>
    <g id="History" stroke="none" stroke-width="1" fill="none" fill-rule="evenodd">
        <path d="M3,9 C3,4.581722 6.581722,1 11,1 C15.418278,1 19,4.581722 19,9 C19,13.418278 15.418278,17 11,17 C9.43091796,17 7.96734267,16.5482719 6.73222921,15.7677708 L8.19479299,14.305207 C9.03192923,14.7487744 9.98662617,15 11,15 C14.3137085,15 17,12.3137085 17,9 C17,5.6862915 14.3137085,3 11,3 C7.6862915,3 5,5.6862915 5,9 L8,9 L4,13 L0,9 L3,9 Z M10,5 L11.0134277,5.00726318 L11,9.35125732 L14.2245483,11.4567261 L13.6179199,12.3824463 L10,10 L10,5 Z" id="Combined-Shape" fill="#000000" fill-rule="nonzero"></path>
    </g>
</svg>