<?xml version="1.0" encoding="UTF-8"?>
<svg width="20px" height="18px" viewBox="0 0 20 18" version="1.1" xmlns="http://www.w3.org/2000/svg" xmlns:xlink="http://www.w3.org/1999/xlink">
    <!-- Generator: Sketch 51.2 (57519) - http://www.bohemiancoding.com/sketch -->
    <title>Inbox</title>
    <desc>Created with Sketch.</desc>
    <defs></defs>
    <g id="Inbox" stroke="none" stroke-width="1" fill="none" fill-rule="evenodd">
        <path d="M15.19,1 L4.63,1 C3.78307313,0.992704484 3.03140932,1.54121591 2.78,2.35 L0,10.79 L0,15 C1.3527075e-16,16.1045695 0.8954305,17 2,17 L18,17 C19.1045695,17 20,16.1045695 20,15 L20,10.79 L17.13,2.35 C16.8468257,1.52516413 16.0618354,0.978908045 15.19,1 Z M14.91,11 L12.91,13 L6.91,13 L4.91,11 L1.96,11 L4.4,3.68 C4.53757212,3.27268828 4.92008409,2.99889024 5.35,3 L14.47,3 C14.8999159,2.99889024 15.2824279,3.27268828 15.42,3.68 L17.86,11 L14.91,11 Z" id="Shape" fill="#000000" fill-rule="nonzero"></path>
    </g>
</svg>