<?xml version="1.0" encoding="UTF-8"?>
<svg width="18px" height="18px" viewBox="0 0 18 18" version="1.1" xmlns="http://www.w3.org/2000/svg" xmlns:xlink="http://www.w3.org/1999/xlink">
    <!-- Generator: Sketch 51.2 (57519) - http://www.bohemiancoding.com/sketch -->
    <title>Industry</title>
    <desc>Created with Sketch.</desc>
    <defs></defs>
    <g id="Industry" stroke="none" stroke-width="1" fill="none" fill-rule="evenodd">
        <path d="M10,16 L10,12 L8,12 L8,16 L2,16 L2,4 C2,2.8954305 2.8954305,2 4,2 L10,2 C11.1045695,2 12,2.8954305 12,4 L12,6 L14,6 C15.1045695,6 16,6.8954305 16,8 L16,16 L10,16 Z M4,4 L4,6 L6,6 L6,4 L4,4 Z M4,8 L4,10 L6,10 L6,8 L4,8 Z M8,4 L8,6 L10,6 L10,4 L8,4 Z M8,8 L8,10 L10,10 L10,8 L8,8 Z M4,12 L4,14 L6,14 L6,12 L4,12 Z M12,12 L12,14 L14,14 L14,12 L12,12 Z M12,8 L12,10 L14,10 L14,8 L12,8 Z" id="Combined-Shape" fill="#000000"></path>
    </g>
</svg>