<?xml version="1.0" encoding="UTF-8"?>
<svg width="18px" height="18px" viewBox="0 0 18 18" version="1.1" xmlns="http://www.w3.org/2000/svg" xmlns:xlink="http://www.w3.org/1999/xlink">
    <!-- Generator: Sketch 51.2 (57519) - http://www.bohemiancoding.com/sketch -->
    <title>KeySmall</title>
    <desc>Created with Sketch.</desc>
    <defs></defs>
    <g id="KeySmall" stroke="none" stroke-width="1" fill="none" fill-rule="evenodd">
        <path d="M8.82929429,8 L15,8 L15,10 L13,10 L13,12 L11,12 L11,10 L8.82929429,10 C8.41745788,11.1651924 7.30621883,12 6,12 C4.34314575,12 3,10.6568542 3,9 C3,7.34314575 4.34314575,6 6,6 C7.30621883,6 8.41745788,6.83480763 8.82929429,8 Z M6,10.3085938 C6.72271637,10.3085938 7.30859375,9.72271637 7.30859375,9 C7.30859375,8.27728363 6.72271637,7.69140625 6,7.69140625 C5.27728363,7.69140625 4.69140625,8.27728363 4.69140625,9 C4.69140625,9.72271637 5.27728363,10.3085938 6,10.3085938 Z" id="Combined-Shape" fill="#000000"></path>
    </g>
</svg>