<svg height="18" viewBox="0 0 18 18" width="18" xmlns="http://www.w3.org/2000/svg"><g fill="none" fill-rule="evenodd"><path d="m6 16.5c0 .825.44999999 1.5 1 1.5h4c.55 0 1-.675 1-1.5v-1.5h-6zm6-5.5v3h-6v-3c-2-1.35283203-3-3.0194987-3-5 0-2.97075195 2.99614258-6 6-6 3.0038574 0 6 3 6 6 0 2-1 3.66666667-3 5z" fill="#000"/><path d="m11 10v2h-4v-2c-1.33333333-1.32991536-2-2.6632487-2-4 0-2.00512695 1.99741211-4 4-4 2.0025879 0 4 1.98129883 4 4 0 1.34580078-.6666667 2.67913411-2 4z" fill="#fff"/></g></svg>