<?xml version="1.0" encoding="UTF-8"?>
<svg width="18px" height="18px" viewBox="0 0 18 18" version="1.1" xmlns="http://www.w3.org/2000/svg" xmlns:xlink="http://www.w3.org/1999/xlink">
    <!-- Generator: Sketch 51.2 (57519) - http://www.bohemiancoding.com/sketch -->
    <title>Lightbulb</title>
    <desc>Created with Sketch.</desc>
    <defs></defs>
    <g id="Lightbulb" stroke="none" stroke-width="1" fill="none" fill-rule="evenodd">
        <path d="M8,13 L10,13 C10.2229004,12.0070801 11.3610223,11.5014332 11.5272278,11.4007709 C13.0067031,10.5047273 14,8.83944429 14,7 C14,4.23857625 11.7614237,2 9,2 C6.23857625,2 4,4.23857625 4,7 C4,8.86505586 5.02114983,10.5510668 6.53485213,11.4377502 C6.68152193,11.5236651 7.73651123,12.1969604 8,13 Z M12,15 L6,15 C6,15 6.00305176,14.0013123 6,13.3299999 C3.61955033,12.2124694 2,9.80370743 2,7 C2,3.13400675 5.13400675,0 9,0 C12.8659932,0 16,3.13400675 16,7 C16,9.80370743 14.3812736,12.2174609 12.000824,13.3349915 C11.9998067,13.7810567 11.9995321,14.3360596 12,15 Z M6,16 L12,16 C12,17.1045695 11.1045695,18 10,18 L8,18 C6.8954305,18 6,17.1045695 6,16 Z" id="Combined-Shape" fill="#000000" fill-rule="nonzero"></path>
    </g>
</svg>