<?xml version="1.0" encoding="UTF-8"?>
<svg width="18px" height="18px" viewBox="0 0 18 18" version="1.1" xmlns="http://www.w3.org/2000/svg" xmlns:xlink="http://www.w3.org/1999/xlink">
    <!-- Generator: Sketch 51.2 (57519) - http://www.bohemiancoding.com/sketch -->
    <title>Link</title>
    <desc>Created with Sketch.</desc>
    <defs></defs>
    <g id="Link" stroke="none" stroke-width="1" fill="none" fill-rule="evenodd">
        <path d="M2.9,9 C2.9,7.84 3.84,6.9 5,6.9 L8,6.9 L8,5 L5,5 C2.79,5 1,6.79 1,9 C1,11.21 2.79,13 5,13 L8,13 L8,11.1 L5,11.1 C3.84,11.1 2.9,10.16 2.9,9 Z M13,5 L10,5 L10,6.9 L13,6.9 C14.16,6.9 15.1,7.84 15.1,9 C15.1,10.16 14.16,11.1 13,11.1 L10,11.1 L10,13 L13,13 C15.21,13 17,11.21 17,9 C17,6.79 15.21,5 13,5 Z M6,10 L12,10 L12,8 L6,8 L6,10 Z" id="Shape" fill="#000000" fill-rule="nonzero"></path>
    </g>
</svg>