<?xml version="1.0" encoding="UTF-8"?>
<svg width="18px" height="18px" viewBox="0 0 18 18" version="1.1" xmlns="http://www.w3.org/2000/svg" xmlns:xlink="http://www.w3.org/1999/xlink">
    <!-- Generator: Sketch 51.2 (57519) - http://www.bohemiancoding.com/sketch -->
    <title>LinkedIn</title>
    <desc>Created with Sketch.</desc>
    <defs></defs>
    <g id="LinkedIn" stroke="none" stroke-width="1" fill="none" fill-rule="evenodd">
        <path d="M14.632,14.635 L12.262,14.635 L12.262,10.922 C12.262,10.036 12.244,8.897 11.028,8.897 C9.793,8.897 9.604,9.861 9.604,10.857 L9.604,14.635 L7.234,14.635 L7.234,7 L9.51,7 L9.51,8.04 L9.54,8.04 C9.858,7.44 10.632,6.807 11.787,6.807 C14.187,6.807 14.632,8.387 14.632,10.444 L14.632,14.632 L14.632,14.635 Z M4.558,5.955 C3.796,5.955 3.182,5.338 3.182,4.578 C3.182,3.82 3.796,3.203 4.558,3.203 C5.318,3.203 5.934,3.82 5.934,4.578 C5.934,5.338 5.317,5.955 4.558,5.955 L4.558,5.955 Z M5.746,14.635 L3.37,14.635 L3.37,7 L5.746,7 L5.746,14.635 L5.746,14.635 Z M15.816,1 L2.18,1 C1.528,1 1,1.516 1,2.153 L1,15.847 C1,16.484 1.528,17 2.18,17 L15.815,17 C16.467,17 17,16.484 17,15.847 L17,2.153 C17,1.516 16.467,1 15.815,1 L15.816,1 Z" id="Shape" fill="#1178B3"></path>
    </g>
</svg>