<?xml version="1.0" encoding="UTF-8"?>
<svg width="18px" height="18px" viewBox="0 0 18 18" version="1.1" xmlns="http://www.w3.org/2000/svg" xmlns:xlink="http://www.w3.org/1999/xlink">
    <!-- Generator: Sketch 52.5 (67469) - http://www.bohemiancoding.com/sketch -->
    <title>LiveJournal</title>
    <desc>Created with Sketch.</desc>
    <g id="LiveJournal" stroke="none" stroke-width="1" fill="none" fill-rule="evenodd">
        <path d="M13.06,10.7973333 C12.052,11.24 11.2426667,12.054 10.806,13.0633333 L13.6526667,13.652 L13.062,10.7973333 L13.06,10.7973333 Z M2.65,6.54466667 L1,4.9 C1.75,3.158 3.144,1.76 4.882,1 L4.886,1 L6.532,2.642 C7.444,2.248 8.44933333,2.028 9.50733333,2.028 C13.6446667,2.028 17,5.37933333 17,9.514 C17,13.6486667 13.6446667,17 9.50733333,17 C5.36733333,17 2.01333333,13.6506667 2.01333333,9.514 C2.01333333,8.45333333 2.25,7.46 2.648,6.54666667 L8.74333333,12.6226667 C9.49333333,10.8806667 10.8886667,9.48266667 12.6253333,8.72266667 L6.53533333,2.64266667 L6.53,2.64266667 C4.79266667,3.40266667 3.4,4.80266667 2.648,6.54266667 L2.65,6.54466667 Z" id="Shape" fill="#00B0EA" fill-rule="nonzero"></path>
    </g>
</svg>