<?xml version="1.0" encoding="UTF-8"?>
<svg width="18px" height="18px" viewBox="0 0 18 18" version="1.1" xmlns="http://www.w3.org/2000/svg" xmlns:xlink="http://www.w3.org/1999/xlink">
    <!-- Generator: Sketch 51.2 (57519) - http://www.bohemiancoding.com/sketch -->
    <title>Lock</title>
    <desc>Created with Sketch.</desc>
    <defs></defs>
    <g id="Lock" stroke="none" stroke-width="1" fill="none" fill-rule="evenodd">
        <path d="M16,8.99961498 C16,7.89525812 15.1052949,7 14,7 L14,7 L14,6 C14,3.24 11.76,1 9,1 C6.24,1 4,3.24 4,6 L4,7 L4,7 C2.8954305,7 2,7.88743329 2,8.99961498 L2,15.000385 C2,16.1047419 2.89706013,17 4.00585866,17 L13.9941413,17 C15.1019465,17 16,16.1125667 16,15.000385 L16,8.99961498 Z M9,14 C7.9,14 7,13.1 7,12 C7,10.9 7.9,10 9,10 C10.1,10 11,10.9 11,12 C11,13.1 10.1,14 9,14 Z M12.1,7 L5.9,7 L5.9,6 C5.9,4.29 7.29,2.9 9,2.9 C10.71,2.9 12.1,4.29 12.1,6 L12.1,7 Z" id="Shape" fill="#000000" fill-rule="nonzero"></path>
    </g>
</svg>