<?xml version="1.0" encoding="UTF-8"?>
<svg width="19px" height="22px" viewBox="0 0 19 22" version="1.1" xmlns="http://www.w3.org/2000/svg" xmlns:xlink="http://www.w3.org/1999/xlink">
    <!-- Generator: Sketch 51.2 (57519) - http://www.bohemiancoding.com/sketch -->
    <title>LogoGlyphSm</title>
    <desc>Created with Sketch.</desc>
    <defs></defs>
    <g id="LogoGlyphSm" stroke="none" stroke-width="1" fill="none" fill-rule="evenodd">
        <polygon id="Shape" fill="#C1BEBC" fill-rule="nonzero" points="16 20 16 14 18 14 18 22 0 22 0 14 2 14 2 20"></polygon>
        <path d="M4,18 L14,18 L14,16 L4,16 L4,18 Z M12.7237687,0 L11.1487062,1.1715 L17.0062062,9.046125 L18.5812687,7.874625 L12.7237687,0 Z M7.85558125,4.6426875 L15.3967687,10.9236875 L16.6535187,9.4153125 L9.11164375,3.1343125 L7.85558125,4.6426875 Z M5.39364375,9.007625 L14.2905812,13.1511875 L15.1190187,11.37125 L6.22208125,7.228375 L5.39364375,9.007625 Z M4.12314375,13.6063125 L14.0302734,15.2767334 L14.161499,13.6072998 L4.52670625,11.6854375 L4.12314375,13.6063125 Z" id="Shape" fill="#F48024" fill-rule="nonzero"></path>
    </g>
</svg>