<?xml version="1.0" encoding="UTF-8"?>
<svg width="110px" height="15px" viewBox="0 0 110 15" version="1.1" xmlns="http://www.w3.org/2000/svg" xmlns:xlink="http://www.w3.org/1999/xlink">
    <!-- Generator: Sketch 51.2 (57519) - http://www.bohemiancoding.com/sketch -->
    <title>LogoSEAlternativeSm</title>
    <desc>Created with Sketch.</desc>
    <defs></defs>
    <g id="LogoSEAlternativeSm" stroke="none" stroke-width="1" fill="none" fill-rule="evenodd">
        <path d="M50.4084349,11.916938 L48.4228744,8.68507244 L47.3741966,9.85879466 L47.3741966,11.916938 L45.9480902,11.916938 L45.9480902,2.08259002 L47.3741966,2.08259002 L47.3741966,8.14634952 L50.1289468,4.91424796 L51.8624901,4.91424796 L49.4017997,7.66284393 L52.170166,11.916938 L50.4084349,11.916938 Z M42.5355261,12 C40.9417268,12 39.3756375,11.0329888 39.3756375,8.40874982 C39.3756375,5.78451083 40.9417268,4.83142196 42.5355261,4.83142196 C43.5144514,4.83142196 44.1995557,5.10774458 44.8705663,5.8121195 L43.8918799,6.75105007 C43.4444599,6.26801642 43.0949802,6.08820614 42.5355261,6.08820614 C41.9904047,6.08820614 41.5288909,6.30907546 41.221215,6.70999103 C40.9135391,7.09651234 40.8017438,7.59394025 40.8017438,8.40874982 C40.8017438,9.22355939 40.9135391,9.73467365 41.221215,10.1214309 C41.5288909,10.5218746 41.9904047,10.7427439 42.5355261,10.7427439 C43.0949802,10.7427439 43.4444599,10.5634055 43.8918799,10.0798999 L44.8705663,11.0053802 C44.1995557,11.7097551 43.5144514,12 42.5355261,12 Z M36.8346838,8.82311577 L35.1706541,8.82311577 C34.3317118,8.82311577 33.8983857,9.19595073 33.8983857,9.83118599 C33.8983857,10.4666572 34.303763,10.8258058 35.1988418,10.8258058 C35.7439632,10.8258058 36.1495794,10.7842749 36.5270079,10.4253622 C36.7367435,10.2181792 36.8346838,9.88663929 36.8346838,9.38921138 L36.8346838,8.82311577 Z M36.8626326,11.916938 L36.8626326,11.2817028 C36.3452211,11.792817 35.8559974,12 34.9750124,12 C34.0940274,12 33.5068634,11.792817 33.0735372,11.3642928 C32.7099637,10.9914578 32.5140831,10.4529709 32.5140831,9.85879466 C32.5140831,8.68507244 33.3389316,7.84218226 34.9609186,7.84218226 L36.8346838,7.84218226 L36.8346838,7.3452263 C36.8346838,6.46127708 36.3872638,6.03298881 35.2826883,6.03298881 C34.4996436,6.03298881 34.1219763,6.21256312 33.7306928,6.70999103 L32.7938102,5.83972816 C33.4648207,5.0662136 34.1640189,4.83142196 35.3385859,4.83142196 C37.2821038,4.83142196 38.2607902,5.64623154 38.2607902,7.23455567 L38.2607902,11.916938 L36.8626326,11.916938 Z M30.4169662,11.916938 C29.0885613,11.916938 28.4732095,10.9777715 28.4732095,9.96946529 L28.4732095,6.11581481 L27.6624549,6.11581481 L27.6624549,5.03860494 L28.4732095,5.03860494 L28.4732095,2.91155788 L29.8995548,2.91155788 L29.8995548,5.03860494 L31.2697635,5.03860494 L31.2697635,6.11581481 L29.8995548,6.11581481 L29.8995548,9.90032564 C29.8995548,10.4114399 30.1510941,10.7151352 30.6825994,10.7151352 L31.2697635,10.7151352 L31.2697635,11.916938 L30.4169662,11.916938 Z M23.523701,12 C22.0273643,12 20.9509765,11.6545377 20,10.7016848 L21.0066352,9.72075133 C21.7337823,10.4390486 22.5309208,10.6601539 23.551411,10.6601539 C24.8518671,10.6601539 25.6069629,10.1075086 25.6069629,9.15441975 C25.6069629,8.72636745 25.4810738,8.36721884 25.2154406,8.1324272 C24.9636624,7.89763557 24.712123,7.80112322 24.1247201,7.71806126 L22.9503919,7.55240927 C22.1393984,7.44173864 21.4960979,7.16565199 21.0627717,6.76497239 C20.5733091,6.30907546 20.3356247,5.68776252 20.3356247,4.88663929 C20.3356247,3.17395819 21.5940382,2 23.6634451,2 C24.9777562,2 25.900545,2.33153995 26.7535811,3.11874086 L25.7885108,4.0579074 C25.1733979,3.4776535 24.4603448,3.29831516 23.6214024,3.29831516 C22.4468354,3.29831516 21.8037737,3.96115909 21.8037737,4.83142196 C21.8037737,5.19033461 21.915569,5.50818821 22.1812022,5.74297985 C22.4329805,5.96384917 22.8383578,6.12973713 23.2998716,6.19887678 L24.4323959,6.36452876 C25.3551847,6.50257209 25.8725962,6.72367738 26.2920673,7.09651234 C26.8374276,7.56633159 27.1030608,8.27047053 27.1030608,9.11312473 C27.1030608,10.9223182 25.6069629,12 23.523701,12 Z" id="stack" fill="#FFFFFF"></path>
        <path d="M107.396275,6.87915172 C107.198401,6.44341023 106.788158,6.11984694 106.166027,6.11984694 C105.543897,6.11984694 105.133653,6.44341023 104.935538,6.87915172 C104.822708,7.14626558 104.780186,7.34323803 104.765931,7.66632089 L107.566123,7.66632089 C107.55211,7.34323803 107.509587,7.14626558 107.396275,6.87915172 Z M104.765931,8.91781658 C104.765931,9.8599214 105.346023,10.5486043 106.378156,10.5486043 C107.184147,10.5486043 107.580377,10.3240077 108.046915,9.8599214 L109.164092,10.9425492 C108.414636,11.6876816 107.693207,12.0955587 106.364142,12.0955587 C104.624593,12.0955587 102.955834,11.3079091 102.955834,8.34131185 C102.955834,5.95121931 104.256872,4.60147761 106.166027,4.60147761 C108.216763,4.60147761 109.376221,6.09174234 109.376221,8.10230259 L109.376221,8.91781658 L104.765931,8.91781658 Z M99.0857952,6.24643778 C97.9968855,6.24643778 97.8838148,7.17437018 97.8838148,8.14457961 C97.8838148,9.11478903 97.9968855,10.0568938 99.0857952,10.0568938 C100.174946,10.0568938 100.30203,9.11478903 100.30203,8.14457961 C100.30203,7.17437018 100.174946,6.24643778 99.0857952,6.24643778 Z M98.9019345,14.7811099 C97.7707441,14.7811099 96.9930205,14.5560329 96.22931,13.8248327 L97.374755,12.6718232 C97.7847571,13.0655279 98.1950009,13.2343958 98.817373,13.2343958 C99.9202957,13.2343958 100.30203,12.4609186 100.30203,11.7157862 L100.30203,10.9706538 C99.821238,11.5048816 99.2698975,11.7016138 98.5484677,11.7016138 C97.8272795,11.7016138 97.2051489,11.4626046 96.7949052,11.0549677 C96.1019846,10.3660445 96.0454493,9.4241799 96.0454493,8.14457961 C96.0454493,6.86497931 96.1019846,5.9370469 96.7949052,5.24812375 C97.2051489,4.84048686 97.8415341,4.60147761 98.5627223,4.60147761 C99.3404459,4.60147761 99.8495057,4.81238225 100.358807,5.37471458 L100.358807,4.68579142 L102.140637,4.68579142 L102.140637,11.7438908 C102.140637,13.5012694 100.88188,14.7811099 98.9019345,14.7811099 Z M93.3222598,12.0110047 L93.3222598,7.58224728 C93.3222598,6.58393325 92.6861163,6.24643778 92.1062665,6.24643778 C91.5264166,6.24643778 90.8757768,6.58393325 90.8757768,7.58224728 L90.8757768,12.0110047 L89.0374113,12.0110047 L89.0374113,4.68579142 L90.8337377,4.68579142 L90.8337377,5.36078238 C91.3142882,4.85441906 91.9931957,4.60147761 92.6718616,4.60147761 C93.4073045,4.60147761 94.0014089,4.84048686 94.4114111,5.24812375 C95.0052739,5.83856068 95.160867,6.52748383 95.160867,7.32906562 L95.160867,12.0110047 L93.3222598,12.0110047 Z M86.1807651,8.91781658 L84.724134,8.91781658 C84.0594812,8.91781658 83.6920013,9.22696724 83.6920013,9.74726276 C83.6920013,10.2536261 84.0312135,10.5908814 84.7524017,10.5908814 C85.2617031,10.5908814 85.5869022,10.5486043 85.9121013,10.2394537 C86.1099751,10.0568938 86.1807651,9.76143517 86.1807651,9.31152127 L86.1807651,8.91781658 Z M86.2232874,12.0110047 L86.2232874,11.3782907 C85.7282406,11.8704817 85.2617031,12.0813863 84.4131895,12.0813863 C83.578689,12.0813863 82.9705715,11.8704817 82.5323017,11.4347402 C82.1363126,11.0268631 81.9241842,10.4364261 81.9241842,9.78953978 C81.9241842,8.62259811 82.7301754,7.66632089 84.4414572,7.66632089 L86.1807651,7.66632089 L86.1807651,7.30096102 C86.1807651,6.49937923 85.7850176,6.14795155 84.8091786,6.14795155 C84.1020035,6.14795155 83.7768044,6.31657918 83.3948283,6.75256089 L82.2211156,5.61348362 C82.9423038,4.82631445 83.649479,4.60147761 84.8799686,4.60147761 C86.9444756,4.60147761 88.0193722,5.47296059 88.0193722,7.18830238 L88.0193722,12.0110047 L86.2232874,12.0110047 Z M79.2270854,12.0110047 L79.2270854,7.53997027 C79.2270854,6.56976085 78.6049549,6.24643778 78.0251051,6.24643778 C77.4452553,6.24643778 76.8371378,6.58393325 76.8371378,7.53997027 L76.8371378,12.0110047 L74.9987722,12.0110047 L74.9987722,2 L76.8371378,2 L76.8371378,5.36078238 C77.3321846,4.85441906 77.9543151,4.60147761 78.6049549,4.60147761 C80.2169374,4.60147761 81.0656926,5.72614225 81.0656926,7.27285641 L81.0656926,12.0110047 L79.2270854,12.0110047 Z M71.5109807,12.0955587 C70.0403366,12.0955587 68.2159841,11.3079091 68.2159841,8.34131185 C68.2159841,5.37471458 70.0403366,4.60147761 71.5109807,4.60147761 C72.5293419,4.60147761 73.2928108,4.91086848 73.9432091,5.58561923 L72.698948,6.82294251 C72.3169719,6.41506541 71.9917728,6.24643778 71.5109807,6.24643778 C71.0727108,6.24643778 70.7332571,6.40113321 70.4643517,6.72445628 C70.181675,7.07588396 70.0543496,7.56807487 70.0543496,8.34131185 C70.0543496,9.11478903 70.181675,9.62091214 70.4643517,9.97233982 C70.7332571,10.2959031 71.0727108,10.4503583 71.5109807,10.4503583 C71.9917728,10.4503583 72.3169719,10.2817307 72.698948,9.8740938 L73.9432091,11.0972447 C73.2928108,11.7719954 72.5293419,12.0955587 71.5109807,12.0955587 Z M65.4585566,12.0110047 L64.1009832,9.81764438 L62.7574228,12.0110047 L60.5513359,12.0110047 L63.0968766,8.27117044 L60.6503936,4.68579142 L62.8564805,4.68579142 L64.1009832,6.78066549 L65.3594989,4.68579142 L67.5655859,4.68579142 L65.1191028,8.27117044 L67.6646435,12.0110047 L65.4585566,12.0110047 Z M53,12.0110047 L53,2 L59.6325155,2 L59.6325155,3.74368661 L54.9656909,3.74368661 L54.9656909,6.09174234 L58.939595,6.09174234 L58.939595,7.83518873 L54.9656909,7.83518873 L54.9656909,10.2675583 L59.6325155,10.2675583 L59.6325155,12.0110047 L53,12.0110047 Z" id="exchange" fill="#2F96E8"></path>
        <path d="M2,1 L10,1 C11.1045695,1 12,1.8954305 12,3 L0,3 L0,3 C-1.3527075e-16,1.8954305 0.8954305,1 2,1 Z" id="Rectangle-32" fill="#8FD8F7"></path>
        <path d="M0,10 L12,10 L12,10 C12,11.1045695 11.1045695,12 10,12 L2,12 C0.8954305,12 1.3527075e-16,11.1045695 0,10 Z" id="Rectangle-32" fill="#155397"></path>
        <polygon id="Path-4" fill="#155397" points="7 12 7 15 10 12"></polygon>
        <rect id="Rectangle-33" fill="#46A2D9" x="0" y="4" width="12" height="2"></rect>
        <rect id="Rectangle" fill="#2D6DB5" x="0" y="7" width="12" height="2"></rect>
    </g>
</svg>