<?xml version="1.0" encoding="UTF-8"?>
<svg width="189px" height="37px" viewBox="0 0 189 37" version="1.1" xmlns="http://www.w3.org/2000/svg" xmlns:xlink="http://www.w3.org/1999/xlink">
    <!-- Generator: Sketch 51.2 (57519) - http://www.bohemiancoding.com/sketch -->
    <title>LogoMd</title>
    <desc>Created with Sketch.</desc>
    <defs></defs>
    <g id="LogoMd" stroke="none" stroke-width="1" fill="none" fill-rule="evenodd">
        <path d="M42,23.004195 L39.8,22.804195 C38.1,22.704195 37.5,22.004195 37.5,20.804195 C37.5,19.404195 38.5,18.604195 40.5,18.604195 C41.8,18.504195 43.1,18.904195 44.1,19.704195 L45.4,18.404195 C44,17.404195 42.3,16.904195 40.6,17.004195 C37.7,17.004195 35.7,18.504195 35.7,20.904195 C35.7,23.104195 37.1,24.304195 39.7,24.504195 L41.9,24.704195 C43.5,24.804195 44.1,25.504195 44.1,26.704195 C44.1,28.304195 42.7,29.104195 40.5,29.104195 C38.9,29.204195 37.4,28.604195 36.3,27.504195 L35,28.804195 C36.5,30.204195 38.5,30.804195 40.5,30.704195 C43.7,30.704195 46,29.204195 46,26.604195 C46,24.004195 44.4,23.204195 42,23.004195 L42,23.004195 Z M58.8,16.904195 C56.6,16.904195 55.3,17.304195 54.1,18.804195 L55.4,20.104195 C56.2,19.004195 57.5,18.404195 58.8,18.604195 C61.3,18.604195 62.2,19.604195 62.2,21.504195 L62.2,22.804195 L58.2,22.804195 C55.2,22.804195 53.6,24.304195 53.6,26.704195 C53.6,27.704195 53.9,28.704195 54.6,29.404195 C55.4,30.304195 56.5,30.604195 58.4,30.604195 C59.8,30.704195 61.3,30.204195 62.3,29.204195 L62.3,30.504195 L64.3,30.504195 L64.3,21.404195 C64.2,18.504195 62.4,16.904195 58.8,16.904195 L58.8,16.904195 Z M62.2,25.804195 C62.3,26.604195 62.1,27.504195 61.5,28.104195 C60.7,28.804195 59.6,29.104195 58.5,29.004195 C56.4,29.004195 55.4,28.304195 55.4,26.704195 C55.4,25.104195 56.4,24.304195 58.4,24.304195 L62.2,24.304195 L62.2,25.804195 L62.2,25.804195 Z M71.9,18.704195 C73.1,18.704195 74.3,19.204195 75,20.204195 L76.3,18.904195 C75.2,17.604195 73.6,16.804195 71.9,16.904195 C68.5,16.904195 66,19.204195 66,23.804195 C66,28.404195 68.6,30.704195 71.9,30.704195 C73.6,30.804195 75.2,30.004195 76.3,28.704195 L75,27.404195 C74.3,28.404195 73.1,28.904195 71.9,28.904195 C70.7,29.004195 69.5,28.404195 68.8,27.404195 C68.1,26.304195 67.8,25.104195 67.9,23.804195 C67.8,22.504195 68.1,21.304195 68.8,20.204195 C69.5,19.204195 70.7,18.604195 71.9,18.704195 Z M88.7,17.104195 L86.3,17.104195 L80.2,23.004195 L80.2,11.104195 L78.2,11.104195 L78.2,30.504195 L80.2,30.504195 L80.2,25.604195 L82.6,23.204195 L87.1,30.504195 L89.5,30.504195 L83.9,21.904195 L88.7,17.104195 L88.7,17.104195 Z M97.9,16.9417926 C96.3,16.8417926 94.7,17.4417926 93.6,18.6417926 C92.3,19.9417926 92,21.5417926 92,24.0417926 C92,26.5417926 92.3,28.1417926 93.6,29.4417926 C94.7,30.5417926 96.3,31.1417926 97.9,31.1417926 C99.5,31.2417926 101.1,30.6417926 102.2,29.4417926 C103.5,28.1417926 103.8,26.5417926 103.8,24.0417926 C103.8,21.5417926 103.5,19.9417926 102.2,18.6417926 C101.1,17.4417926 99.5,16.8417926 97.9,16.9417926 Z M99.6,27.4417926 C98.7,28.2417926 97.3,28.2417926 96.4,27.4417926 C95.7,26.7417926 95.6,25.4417926 95.6,24.0417926 C95.6,22.6417926 95.7,21.3417926 96.4,20.6417926 C97.3,19.8417926 98.7,19.8417926 99.6,20.6417926 C100.3,21.3417926 100.4,22.5417926 100.4,24.0417926 C100.4,25.5417926 100.3,26.7417926 99.6,27.4417926 Z M113.2,17.0417926 L110.4,25.6417926 L107.6,17.0417926 L103.9,17.0417926 L109.1,31.0417926 L111.8,31.0417926 L116.9,17.0417926 L113.2,17.0417926 Z M122.8,16.9417926 C119.2,16.9417926 116.7,19.5417926 116.7,24.0417926 C116.7,29.7417926 119.9,31.2417926 123.2,31.2417926 C125.2,31.3417926 127.2,30.5417926 128.5,29.0417926 L126.4,26.9417926 C125.6,27.8417926 124.4,28.3417926 123.2,28.2417926 C121.6,28.3417926 120.2,27.1417926 120.1,25.5417926 L120.1,25.1417926 L128.8,25.1417926 L128.8,23.5417926 C128.9,19.7417926 126.7,16.9417926 122.8,16.9417926 L122.8,16.9417926 Z M120.1,22.7417926 C120.1,22.2417926 120.2,21.7417926 120.4,21.2417926 C120.8,20.3417926 121.7,19.8417926 122.7,19.8417926 C123.7,19.7417926 124.6,20.3417926 125,21.2417926 C125.2,21.7417926 125.3,22.2417926 125.3,22.7417926 L120.1,22.7417926 L120.1,22.7417926 Z M134,18.4417926 L134,17.1417926 L130.6,17.1417926 L130.6,31.1417926 L134.1,31.1417926 L134.1,22.7417926 C134,21.4417926 134.9,20.3417926 136.2,20.1417926 L136.4,20.1417926 C137.1,20.1417926 137.8,20.4417926 138.2,20.9417926 L140.8,18.3417926 C140,17.4417926 138.7,16.9417926 137.5,17.0417926 C136.2,16.9417926 134.9,17.4417926 134,18.4417926 L134,18.4417926 Z M141.9,15.6417926 L141.9,31.0417926 L145.4,31.0417926 L145.4,20.0417926 L148,20.0417926 L148,17.3417926 L145.4,17.3417926 L145.4,15.8417926 C145.3,15.2417926 145.7,14.6417926 146.3,14.5417926 L147.9,14.5417926 L147.9,11.5417926 L145.9,11.5417926 C143.8,11.4417926 142,13.1417926 141.9,15.3417926 L141.9,15.6417926 L141.9,15.6417926 Z M162.3,16.9417926 C160.7,16.8417926 159.1,17.4417926 158,18.6417926 C156.7,19.9417926 156.4,21.5417926 156.4,24.0417926 C156.4,26.5417926 156.7,28.1417926 158,29.4417926 C159.1,30.5417926 160.7,31.1417926 162.3,31.1417926 C163.9,31.2417926 165.5,30.6417926 166.6,29.4417926 C167.9,28.1417926 168.2,26.5417926 168.2,24.0417926 C168.2,21.5417926 167.9,19.9417926 166.6,18.6417926 C165.5,17.4417926 163.9,16.8417926 162.3,16.9417926 L162.3,16.9417926 Z M164,27.4417926 C163.1,28.2417926 161.7,28.2417926 160.8,27.4417926 C160.1,26.7417926 160,25.4417926 160,24.0417926 C160,22.6417926 160.1,21.3417926 160.8,20.6417926 C161.7,19.8417926 163.1,19.8417926 164,20.6417926 C164.7,21.3417926 164.8,22.5417926 164.8,24.0417926 C164.8,25.5417926 164.7,26.7417926 164,27.4417926 Z M184.7,17.0417926 L182.4,25.6417926 L179.5,17.0417926 L177,17.0417926 L174.2,25.7417926 L171.9,17.1417926 L168.2,17.1417926 L172.5,31.1417926 L175.4,31.1417926 L178.3,22.3417926 L181.2,31.1417926 L184.2,31.1417926 L188.5,17.1417926 L184.7,17.0417926 L184.7,17.0417926 Z M153.1,26.8417926 L153.1,11.6417926 L149.6,11.6417926 L149.6,27.0417926 C149.5,29.1417926 151.1,30.9417926 153.2,31.0417926 L155.7,31.0417926 L155.7,28.0417926 L154.4,28.0417926 C153.8,28.1417926 153.3,27.8417926 153.1,27.2417926 L153.1,26.8417926 L153.1,26.8417926 Z M53.2,17.404195 L49.5,17.404195 L49.5,13.004195 L47.5,13.004195 L47.5,26.904195 C47.5,28.904195 48.6,30.504195 50.9,30.504195 L52.3,30.504195 L52.3,28.804195 L51.3,28.804195 C50,28.804195 49.5,28.104195 49.5,26.804195 L49.5,19.104195 L51.4,19.104195 L53.2,17.404195 L53.2,17.404195 Z" id="Shape" fill="#222426" fill-rule="nonzero"></path>
        <polygon id="Shape" fill="#BCBBBB" fill-rule="nonzero" points="26 33 26 24 30 24 30 37 0 37 0 24 4 24 4 33"></polygon>
        <path d="M23.0908203,25.9902344 L23.7844238,23.0410156 L7.67993164,19.6870117 L7,23 L23.0908203,25.9902344 Z M9.1,15.2 L24.1,22.2 L25.5,19.2 L10.5,12.2 L9.1,15.2 Z M13.3,7.8 L26,18.4 L28.1,15.9 L15.4,5.3 L13.3,7.8 L13.3,7.8 Z M21.5,0 L18.8,2 L28.7,15.3 L31.4,13.3 L21.5,0 Z M7,30 L23,30 L23,27 L7,27 L7,30 Z" id="Shape" fill="#F48024" fill-rule="nonzero"></path>
    </g>
</svg>