<?xml version="1.0" encoding="UTF-8"?>
<svg width="32px" height="37px" viewBox="0 0 32 37" version="1.1" xmlns="http://www.w3.org/2000/svg" xmlns:xlink="http://www.w3.org/1999/xlink">
    <!-- Generator: Sketch 51.2 (57519) - http://www.bohemiancoding.com/sketch -->
    <title>LogoSEGlyphMd</title>
    <desc>Created with Sketch.</desc>
    <defs></defs>
    <g id="LogoSEGlyphMd" stroke="none" stroke-width="1" fill="none" fill-rule="evenodd">
        <path d="M31,7 L1,7 L1,6 C1,3.38733333 3.41931818,1 6,1 L26,1 C28.5820455,1 31,3.38733333 31,6 L31,7 Z" id="Fill-1" fill="#8FD8F7"></path>
        <path d="M1,25 L1,26 C1,28.6126667 3.41931818,31 6,31 L19,31 L19,37 L25,31 L26,31 C28.5820455,31 31,28.6126667 31,26 L31,25 L1,25 Z" id="Path" fill="#155397"></path>
        <polygon id="Path" fill="#2D6DB5" points="1 17 1 23 31 23 31 17"></polygon>
        <polygon id="Path" fill="#46A2D9" points="1 9 1 15 31 15 31 9"></polygon>
    </g>
</svg>