<?xml version="1.0" encoding="UTF-8"?>
<svg width="88px" height="13px" viewBox="0 0 88 13" version="1.1" xmlns="http://www.w3.org/2000/svg" xmlns:xlink="http://www.w3.org/1999/xlink">
    <!-- Generator: Sketch 51.2 (57519) - http://www.bohemiancoding.com/sketch -->
    <title>LogoWordmarkSm</title>
    <desc>Created with Sketch.</desc>
    <defs></defs>
    <g id="LogoWordmarkSm" stroke="none" stroke-width="1" fill="none" fill-rule="evenodd">
        <path d="M9.25767015,5.51664036 L10.297972,4.47633848 L8.16744976,4.47633848 L8.16744976,1.9471336 L7.04195361,1.9471336 L7.04195361,9.93343069 C7.04195361,11.0749008 7.69888128,11.9967294 9.01140547,11.9967294 L9.80877058,11.9967294 L9.80877058,11.0276446 L9.21507302,11.0276446 C8.49558081,11.0276446 8.16744976,10.6056667 8.16744976,9.90214842 L8.16744976,5.51664036 L9.25767015,5.51664036 Z M67.9766524,9.58400107 L67.9766524,0.861572266 L65.977915,0.861572266 L65.977915,9.70713341 C65.977915,10.8452756 66.6694528,11.9987261 68.3147671,11.9987261 L69.4522437,11.9987261 L69.4522437,10.3068212 L68.6834986,10.3068212 C68.1763265,10.3068212 67.9766524,10.0612221 67.9766524,9.58400107 Z M86.003856,3.98713697 L84.7119643,8.93838826 L83.06665,3.98713697 L81.6057019,3.98713697 L79.9756955,8.93838826 L78.6844699,3.98713697 L76.5626001,3.98713697 L79.0225846,11.9987261 L80.6678989,11.9987261 L82.3438299,6.97026755 L84.0197609,11.9987261 L85.6650752,11.9987261 L88.1097518,3.98713697 L86.003856,3.98713697 Z M74.0999535,9.93808975 C73.8689972,10.1683805 73.5614991,10.2915128 73.1614854,10.2915128 C72.7621373,10.2915128 72.4699476,10.1683805 72.2389912,9.93808975 C71.8236692,9.52276769 71.7777441,8.81525592 71.7777441,7.98527739 C71.7777441,7.15463328 71.8236692,6.46309543 72.2389912,6.04777337 C72.4699476,5.81748262 72.7621373,5.69435028 73.1614854,5.69435028 C73.5614991,5.69435028 73.8689972,5.81748262 74.0999535,6.04777337 C74.51461,6.46309543 74.5612006,7.15463328 74.5612006,7.98527739 C74.5612006,8.81525592 74.51461,9.52276769 74.0999535,9.93808975 Z M73.1614854,3.8952869 C71.9774182,3.8952869 71.1780564,4.35653404 70.6861926,4.87901451 C69.9633725,5.63245132 69.7790067,6.53963715 69.7790067,7.98527739 C69.7790067,9.44622597 69.9633725,10.3534118 70.6861926,11.1068486 C71.1780564,11.6293291 71.9774182,12.0905762 73.1614854,12.0905762 C74.3455526,12.0905762 75.1602228,11.6293291 75.6527522,11.1068486 C76.3755723,10.3534118 76.5599378,9.44622597 76.5599378,7.98527739 C76.5599378,6.53963715 76.3755723,5.63245132 75.6527522,4.87901451 C75.1602228,4.35653404 74.3455526,3.8952869 73.1614854,3.8952869 Z M61.0448485,3.15249938 L61.0448485,11.9900736 L63.0442515,11.9900736 L63.0442515,5.67371729 L64.5205084,5.67371729 L64.5205084,4.15153528 L63.0442515,4.15153528 L63.0442515,3.27563172 C63.0442515,2.81371905 63.2745423,2.5528116 63.7510977,2.5528116 L64.5205084,2.5528116 L64.5205084,0.861572266 L63.3823663,0.861572266 C61.7523603,0.861572266 61.0448485,2.0143572 61.0448485,3.15249938 Z M56.9313118,4.75588217 L56.9313118,3.98713697 L54.9784994,3.98713697 L54.9784994,11.9987261 L56.9772368,11.9987261 L56.9772368,7.1706072 C56.9772368,6.15559737 57.6541319,5.69435028 58.269128,5.69435028 C58.7609918,5.69435028 59.015909,5.85741743 59.3240727,6.16491549 L60.8369365,4.64872375 C60.2831738,4.09496096 59.729411,3.8952869 58.9453575,3.8952869 C58.0847623,3.8952869 57.3153516,4.29463508 56.9313118,4.75588217 Z M48.9703068,7.24714893 C48.9849496,6.89306025 49.0315402,6.67807784 49.1546725,6.38588812 C49.3696549,5.90933269 49.8155937,5.55590959 50.4924888,5.55590959 C51.1687183,5.55590959 51.614657,5.90933269 51.830305,6.38588812 C51.9527718,6.67807784 51.9993624,6.89306025 52.0146707,7.24714893 L48.9703068,7.24714893 Z M50.4924888,3.8952869 C48.4165441,3.8952869 47.0015205,5.37154387 47.0015205,7.98527739 C47.0015205,11.229981 48.8158922,12.0905762 50.7074712,12.0905762 C52.1531114,12.0905762 52.9371649,11.6446374 53.7518351,10.8299672 L52.5371512,9.64590003 C52.0299791,10.1530722 51.5993487,10.3993368 50.7227795,10.3993368 C49.6006113,10.3993368 48.9703068,9.64590003 48.9703068,8.61558185 L53.9827914,8.61558185 L53.9827914,7.72370436 C53.9827914,5.5252929 52.7215169,3.8952869 50.4924888,3.8952869 Z M44.9848125,3.98713697 L43.3707804,8.93838826 L41.7407745,3.98713697 L39.6342131,3.98713697 L42.5867269,11.9987261 L44.1548339,11.9987261 L47.0913739,3.98713697 L44.9848125,3.98713697 Z M37.202183,9.93808975 C36.9712266,10.1683805 36.6637286,10.2915128 36.2643804,10.2915128 C35.8643667,10.2915128 35.572177,10.1683805 35.3418863,9.93808975 C34.9265642,9.52276769 34.8799736,8.81525592 34.8799736,7.98527739 C34.8799736,7.15463328 34.9265642,6.46309543 35.3418863,6.04777337 C35.572177,5.81748262 35.8643667,5.69435028 36.2643804,5.69435028 C36.6637286,5.69435028 36.9712266,5.81748262 37.202183,6.04777337 C37.617505,6.46309543 37.6634301,7.15463328 37.6634301,7.98527739 C37.6634301,8.81525592 37.617505,9.52276769 37.202183,9.93808975 Z M36.2643804,3.8952869 C35.0803132,3.8952869 34.2809514,4.35653404 33.788422,4.87901451 C33.0662675,5.63245132 32.8812362,6.53963715 32.8812362,7.98527739 C32.8812362,9.44622597 33.0662675,10.3534118 33.788422,11.1068486 C34.2809514,11.6293291 35.0803132,12.0905762 36.2643804,12.0905762 C37.4477821,12.0905762 38.2631178,11.6293291 38.7549816,11.1068486 C39.4778017,10.3534118 39.6621675,9.44622597 39.6621675,7.98527739 C39.6621675,6.53963715 39.4778017,5.63245132 38.7549816,4.87901451 C38.2631178,4.35653404 37.4477821,3.8952869 36.2643804,3.8952869 Z M30.9770112,4.29530066 L29.5739681,4.29530066 L26.0869933,7.69042535 L26.092318,0.868228068 L24.9674874,0.868228068 L24.9674874,11.9967294 L26.092318,11.9967294 L26.0869933,9.18997758 L27.4520984,7.82021349 L30.0312217,11.9967294 L31.4222844,11.9967294 L28.2314928,7.04081906 L30.9770112,4.29530066 Z M21.3387441,5.21380136 C22.072879,5.21380136 22.5268047,5.43211167 23.1045284,6.07306542 C23.1045284,6.07306542 23.8579652,5.34092718 23.851975,5.33427138 C23.0625968,4.49031566 22.3930231,4.21343429 21.3387441,4.21343429 C19.4005745,4.21343429 17.9309733,5.52595848 17.9309733,8.15167244 C17.9309733,10.7773864 19.4005745,12.0905762 21.3387441,12.0905762 C22.4016757,12.0905762 23.0732461,11.8090357 23.8706112,10.9497717 L23.1045284,10.2149711 C22.5268047,10.8559249 22.072879,11.0902091 21.3387441,11.0902091 C20.5879696,11.0902091 19.9629897,10.7933603 19.5569858,10.2149711 C19.1969069,9.71512037 19.0564695,9.12075724 19.0564695,8.15167244 C19.0564695,7.18325322 19.1969069,6.58889009 19.5569858,6.08903935 C19.9629897,5.50998456 20.5879696,5.21380136 21.3387441,5.21380136 Z M15.8057757,9.27716859 C15.8057757,9.91812234 15.6806466,10.3560741 15.4150801,10.6056667 C14.9305377,11.0749008 14.3521485,11.1214914 13.6952208,11.1214914 C12.4765435,11.1214914 11.9294365,10.6995135 11.9294365,9.8083016 C11.9294365,8.91775527 12.4918518,8.4491868 13.6486302,8.4491868 L15.8057757,8.4491868 L15.8057757,9.27716859 Z M13.8516322,4.21343429 C12.618312,4.21343429 11.8409143,4.45637107 11.1600258,5.31896303 C11.1507077,5.3302779 11.8981542,6.05775708 11.8981542,6.05775708 C12.3514144,5.41680333 12.8512651,5.18251909 13.8363238,5.18251909 C15.2426948,5.18251909 15.8057757,5.74493437 15.8057757,6.87043052 L15.8057757,7.6045655 L13.4922189,7.6045655 C11.7730252,7.6045655 10.8352226,8.48046907 10.8352226,9.82427553 C10.8352226,10.433947 11.0382246,11.0123362 11.4136118,11.3877235 C11.8981542,11.8875742 12.5231341,12.0905762 13.5860657,12.0905762 C14.617715,12.0905762 15.1801303,11.8875742 15.8057757,11.2625944 L15.8057757,11.9967294 L16.9306063,11.9967294 L16.9306063,6.77658371 C16.9306063,5.10398062 15.9149309,4.21343429 13.8516322,4.21343429 Z M4.22800782,7.66713004 L2.99335651,7.55797489 C2.02427171,7.480102 1.64955005,7.08940641 1.64955005,6.43247874 C1.64955005,5.65108756 2.24324761,5.16654516 3.36874375,5.16654516 C4.16610886,5.16654516 4.86896157,5.35423879 5.4160685,5.77621664 L6.15086907,5.04141608 C5.4633247,4.4790008 4.47826598,4.21343429 3.3840521,4.21343429 C1.74339686,4.21343429 0.555336173,5.05739001 0.555336173,6.46376101 C0.555336173,7.72969458 1.35270127,8.4019306 2.85291909,8.52705968 L4.11885266,8.63621484 C5.01006457,8.71475331 5.40076016,9.08947497 5.40076016,9.76171099 C5.40076016,10.6682312 4.61936898,11.1214914 3.35276983,11.1214914 C2.39965896,11.1214914 1.57101159,10.8712332 0.961340106,10.230945 L0.2112312,10.9810539 C1.05518692,11.7937274 2.07152791,12.0905762 3.36874375,12.0905762 C5.22837488,12.0905762 6.49497404,11.2313121 6.49497404,9.74640264 C6.49497404,8.30808379 5.57247986,7.79225912 4.22800782,7.66713004 Z" id="Shape" fill="#000000" fill-rule="nonzero"></path>
    </g>
</svg>