<?xml version="1.0" encoding="UTF-8"?>
<svg width="154px" height="20px" viewBox="0 0 154 20" version="1.1" xmlns="http://www.w3.org/2000/svg" xmlns:xlink="http://www.w3.org/1999/xlink">
    <!-- Generator: Sketch 51.2 (57519) - http://www.bohemiancoding.com/sketch -->
    <title>LogoWordmarkMd</title>
    <desc>Created with Sketch.</desc>
    <defs></defs>
    <g id="LogoWordmarkMd" stroke="none" stroke-width="1" fill="none" fill-rule="evenodd">
        <path d="M7,12.004195 L4.8,11.804195 C3.1,11.704195 2.5,11.004195 2.5,9.80419496 C2.5,8.40419496 3.5,7.60419496 5.5,7.60419496 C6.8,7.50419496 8.1,7.90419496 9.1,8.70419496 L10.4,7.40419496 C9,6.40419496 7.3,5.90419496 5.6,6.00419496 C2.7,6.00419496 0.7,7.50419496 0.7,9.90419496 C0.7,12.104195 2.1,13.304195 4.7,13.504195 L6.9,13.704195 C8.5,13.804195 9.1,14.504195 9.1,15.704195 C9.1,17.304195 7.7,18.104195 5.5,18.104195 C3.9,18.204195 2.4,17.604195 1.3,16.504195 L0,17.804195 C1.5,19.204195 3.5,19.804195 5.5,19.704195 C8.7,19.704195 11,18.204195 11,15.604195 C11,13.004195 9.4,12.204195 7,12.004195 L7,12.004195 Z M23.8,5.90419496 C21.6,5.90419496 20.3,6.30419496 19.1,7.80419496 L20.4,9.10419496 C21.2,8.00419496 22.5,7.40419496 23.8,7.60419496 C26.3,7.60419496 27.2,8.60419496 27.2,10.504195 L27.2,11.804195 L23.2,11.804195 C20.2,11.804195 18.6,13.304195 18.6,15.704195 C18.6,16.704195 18.9,17.704195 19.6,18.404195 C20.4,19.304195 21.5,19.604195 23.4,19.604195 C24.8,19.704195 26.3,19.204195 27.3,18.204195 L27.3,19.504195 L29.3,19.504195 L29.3,10.404195 C29.2,7.50419496 27.4,5.90419496 23.8,5.90419496 L23.8,5.90419496 Z M27.2,14.804195 C27.3,15.604195 27.1,16.504195 26.5,17.104195 C25.7,17.804195 24.6,18.104195 23.5,18.004195 C21.4,18.004195 20.4,17.304195 20.4,15.704195 C20.4,14.104195 21.4,13.304195 23.4,13.304195 L27.2,13.304195 L27.2,14.804195 L27.2,14.804195 Z M36.9,7.70419496 C38.1,7.70419496 39.3,8.20419496 40,9.20419496 L41.3,7.90419496 C40.2,6.60419496 38.6,5.80419496 36.9,5.90419496 C33.5,5.90419496 31,8.20419496 31,12.804195 C31,17.404195 33.6,19.704195 36.9,19.704195 C38.6,19.804195 40.2,19.004195 41.3,17.704195 L40,16.404195 C39.3,17.404195 38.1,17.904195 36.9,17.904195 C35.7,18.004195 34.5,17.404195 33.8,16.404195 C33.1,15.304195 32.8,14.104195 32.9,12.804195 C32.8,11.504195 33.1,10.304195 33.8,9.20419496 C34.5,8.20419496 35.7,7.60419496 36.9,7.70419496 Z M53.7,6.10419496 L51.3,6.10419496 L45.2,12.004195 L45.2,0.104194958 L43.2,0.104194958 L43.2,19.504195 L45.2,19.504195 L45.2,14.604195 L47.6,12.204195 L52.1,19.504195 L54.5,19.504195 L48.9,10.904195 L53.7,6.10419496 L53.7,6.10419496 Z M62.9,5.57411683 C61.3,5.47411683 59.7,6.07411683 58.6,7.27411683 C57.3,8.57411683 57,10.1741168 57,12.6741168 C57,15.1741168 57.3,16.7741168 58.6,18.0741168 C59.7,19.1741168 61.3,19.7741168 62.9,19.7741168 C64.5,19.8741168 66.1,19.2741168 67.2,18.0741168 C68.5,16.7741168 68.8,15.1741168 68.8,12.6741168 C68.8,10.1741168 68.5,8.57411683 67.2,7.27411683 C66.1,6.07411683 64.5,5.47411683 62.9,5.57411683 Z M64.6,16.0741168 C63.7,16.8741168 62.3,16.8741168 61.4,16.0741168 C60.7,15.3741168 60.6,14.0741168 60.6,12.6741168 C60.6,11.2741168 60.7,9.97411683 61.4,9.27411683 C62.3,8.47411683 63.7,8.47411683 64.6,9.27411683 C65.3,9.97411683 65.4,11.1741168 65.4,12.6741168 C65.4,14.1741168 65.3,15.3741168 64.6,16.0741168 Z M78.2,5.67411683 L75.4,14.2741168 L72.6,5.67411683 L68.9,5.67411683 L74.1,19.6741168 L76.8,19.6741168 L81.9,5.67411683 L78.2,5.67411683 Z M81.7,12.6741168 C81.7,18.3741168 84.9,19.8741168 88.2,19.8741168 C90.2,19.9741168 92.2,19.1741168 93.5,17.6741168 L91.4,15.5741168 C90.6,16.4741168 89.4,16.9741168 88.2,16.8741168 C86.6,16.9741168 85.2,15.7741168 85.1,14.1741168 L85.1,13.7741168 L93.8,13.7741168 L93.8,12.1741168 C93.9,8.37411683 91.7,5.57411683 87.8,5.57411683 C84.2,5.57411683 81.7,8.17411683 81.7,12.6741168 Z M85.4,9.87411683 C85.8,8.97411683 86.7,8.47411683 87.7,8.47411683 C88.7,8.37411683 89.6,8.97411683 90,9.87411683 C90.2,10.3741168 90.3,10.8741168 90.3,11.3741168 L85.1,11.3741168 C85.1,10.8741168 85.2,10.3741168 85.4,9.87411683 Z M99,5.77411683 L95.6,5.77411683 L95.6,19.7741168 L99.1,19.7741168 L99.1,11.3741168 C99,10.0741168 99.9,8.97411683 101.2,8.77411683 L101.4,8.77411683 C102.1,8.77411683 102.8,9.07411683 103.2,9.57411683 L105.8,6.97411683 C105,6.07411683 103.7,5.57411683 102.5,5.67411683 C101.2,5.57411683 99.9,6.07411683 99,7.07411683 L99,5.77411683 Z M106.9,19.6741168 L110.4,19.6741168 L110.4,8.67411683 L113,8.67411683 L113,5.97411683 L110.4,5.97411683 L110.4,4.47411683 C110.3,3.87411683 110.7,3.27411683 111.3,3.17411683 L112.9,3.17411683 L112.9,0.174116833 L110.9,0.174116833 C108.8,0.074116833 107,1.77411683 106.9,3.97411683 L106.9,4.27411683 L106.9,19.6741168 Z M123,7.27411683 C121.7,8.57411683 121.4,10.1741168 121.4,12.6741168 C121.4,15.1741168 121.7,16.7741168 123,18.0741168 C124.1,19.1741168 125.7,19.7741168 127.3,19.7741168 C128.9,19.8741168 130.5,19.2741168 131.6,18.0741168 C132.9,16.7741168 133.2,15.1741168 133.2,12.6741168 C133.2,10.1741168 132.9,8.57411683 131.6,7.27411683 C130.5,6.07411683 128.9,5.47411683 127.3,5.57411683 C125.7,5.47411683 124.1,6.07411683 123,7.27411683 Z M129,16.0741168 C128.1,16.8741168 126.7,16.8741168 125.8,16.0741168 C125.1,15.3741168 125,14.0741168 125,12.6741168 C125,11.2741168 125.1,9.97411683 125.8,9.27411683 C126.7,8.47411683 128.1,8.47411683 129,9.27411683 C129.7,9.97411683 129.8,11.1741168 129.8,12.6741168 C129.8,14.1741168 129.7,15.3741168 129,16.0741168 Z M147.4,14.2741168 L144.5,5.67411683 L142,5.67411683 L139.2,14.3741168 L136.9,5.77411683 L133.2,5.77411683 L137.5,19.7741168 L140.4,19.7741168 L143.3,10.9741168 L146.2,19.7741168 L149.2,19.7741168 L153.5,5.77411683 L149.7,5.67411683 L147.4,14.2741168 Z M118.1,0.274116833 L114.6,0.274116833 L114.6,15.6741168 C114.5,17.7741168 116.1,19.5741168 118.2,19.6741168 L120.7,19.6741168 L120.7,16.6741168 L119.4,16.6741168 C118.8,16.7741168 118.3,16.4741168 118.1,15.8741168 L118.1,15.4741168 L118.1,0.274116833 Z M18.2,6.40419496 L14.5,6.40419496 L14.5,2.00419496 L12.5,2.00419496 L12.5,15.904195 C12.5,17.904195 13.6,19.504195 15.9,19.504195 L17.3,19.504195 L17.3,17.804195 L16.3,17.804195 C15,17.804195 14.5,17.104195 14.5,15.804195 L14.5,8.10419496 L16.4,8.10419496 L18.2,6.40419496 L18.2,6.40419496 Z" id="Shape" fill="#222426" fill-rule="nonzero"></path>
    </g>
</svg>