<?xml version="1.0" encoding="UTF-8"?>
<svg width="150px" height="36px" viewBox="0 0 150 36" version="1.1" xmlns="http://www.w3.org/2000/svg" xmlns:xlink="http://www.w3.org/1999/xlink">
    <!-- Generator: Sketch 51.2 (57519) - http://www.bohemiancoding.com/sketch -->
    <title>LogoEnterprise</title>
    <desc>Created with Sketch.</desc>
    <defs></defs>
    <g id="LogoEnterprise" stroke="none" stroke-width="1" fill="none" fill-rule="evenodd">
        <path d="M33.9,18.6 L32.2,18.4 C30.9,18.3 30.3,17.8 30.3,16.8 C30.3,15.7 31.1,15 32.7,15 C33.8,15 34.8,15.3 35.5,15.8 L36.5,14.8 C35.5,14 34.2,13.7 32.7,13.7 C30.4,13.7 28.8,14.9 28.8,16.8 C28.8,18.6 29.9,19.5 32,19.7 L33.8,19.9 C35,20 35.6,20.5 35.6,21.5 C35.6,22.8 34.5,23.4 32.8,23.4 C31.5,23.4 30.3,23.1 29.5,22.2 L28.5,23.2 C29.7,24.3 31.1,24.7 32.9,24.7 C35.5,24.7 37.2,23.5 37.2,21.5 C37,19.5 35.7,18.8 33.9,18.6 Z M47.2,13.8 C45.5,13.8 44.4,14.1 43.5,15.3 L44.5,16.3 C45.1,15.4 45.8,15.1 47.2,15.1 C49.1,15.1 49.9,15.9 49.9,17.4 L49.9,18.4 L46.7,18.4 C44.3,18.4 43,19.6 43,21.5 C43,22.3 43.3,23.1 43.8,23.7 C44.5,24.4 45.3,24.7 46.8,24.7 C48.2,24.7 49,24.4 49.9,23.6 L49.9,24.6 L51.5,24.6 L51.5,17.4 C51.4,15 50,13.8 47.2,13.8 Z M49.9,20.8 C49.9,21.7 49.7,22.3 49.4,22.6 C48.7,23.2 47.9,23.3 47,23.3 C45.3,23.3 44.6,22.7 44.6,21.5 C44.6,20.3 45.4,19.6 47,19.6 L50,19.6 L49.9,20.8 Z M57.5,15.2 C58.5,15.2 59.1,15.5 59.9,16.4 L60.9,15.4 C59.8,14.2 58.9,13.8 57.4,13.8 C54.7,13.8 52.7,15.6 52.7,19.3 C52.7,22.9 54.7,24.8 57.4,24.8 C58.9,24.8 59.8,24.4 60.9,23.2 L59.8,22.2 C59,23.1 58.4,23.4 57.4,23.4 C56.4,23.4 55.5,23 54.9,22.2 C54.4,21.5 54.2,20.7 54.2,19.3 C54.2,18 54.4,17.1 54.9,16.4 C55.6,15.6 56.5,15.2 57.5,15.2 Z M70.9,13.9 L69,13.9 L64.2,18.6 L64.2,9.1 L62.6,9.1 L62.6,24.5 L64.2,24.5 L64.2,20.6 L66.1,18.7 L69.7,24.5 L71.6,24.5 L67.2,17.6 L70.9,13.9 Z M78.2,13.6 C76.6,13.6 75.5,14.2 74.8,15 C73.8,16 73.5,17.3 73.5,19.3 C73.5,21.3 73.8,22.6 74.8,23.6 C75.5,24.3 76.6,25 78.2,25 C79.8,25 81,24.4 81.6,23.6 C82.6,22.6 82.9,21.3 82.9,19.3 C82.9,17.3 82.6,16 81.6,15 C81,14.2 79.9,13.6 78.2,13.6 Z M79.5,21.9 C79.2,22.2 78.8,22.4 78.2,22.4 C77.6,22.4 77.2,22.2 76.9,21.9 C76.3,21.3 76.3,20.3 76.3,19.2 C76.3,18 76.4,17.1 76.9,16.5 C77.2,16.2 77.6,16 78.2,16 C78.8,16 79.2,16.2 79.5,16.5 C80.1,17.1 80.1,18 80.1,19.2 C80.2,20.4 80.1,21.4 79.5,21.9 Z M90.3,13.7 L88.1,20.6 L85.8,13.7 L82.9,13.7 L87,24.8 L89.2,24.8 L93.3,13.7 L90.3,13.7 Z M97.9,13.6 C95,13.6 93.1,15.6 93.1,19.3 C93.1,23.8 95.6,25 98.2,25 C100.2,25 101.3,24.4 102.4,23.3 L100.7,21.7 C100,22.4 99.4,22.7 98.2,22.7 C96.6,22.7 95.8,21.7 95.8,20.2 L102.7,20.2 L102.7,19 C102.7,15.8 101,13.6 97.9,13.6 Z M95.8,18.2 C95.8,17.7 95.9,17.4 96.1,17 C96.4,16.3 97,15.8 98,15.8 C98.9,15.8 99.6,16.3 99.9,17 C100.1,17.4 100.1,17.7 100.2,18.2 L95.8,18.2 Z M106.8,14.8 L106.8,13.7 L104.1,13.7 L104.1,24.8 L106.9,24.8 L106.9,18.1 C106.9,16.7 107.8,16.1 108.7,16.1 C109.4,16.1 109.7,16.3 110.2,16.8 L112.3,14.7 C111.5,13.9 110.8,13.7 109.7,13.7 C108.4,13.6 107.4,14.1 106.8,14.8 Z M113.1,12.5 L113.1,24.8 L115.9,24.8 L115.9,16 L117.9,16 L117.9,13.9 L115.9,13.9 L115.9,12.7 C115.9,12.1 116.2,11.7 116.9,11.7 L118,11.7 L118,9.4 L116.4,9.4 C114.1,9.4 113.1,11 113.1,12.5 Z M129.3,13.6 C127.7,13.6 126.6,14.2 125.9,15 C124.9,16 124.6,17.3 124.6,19.3 C124.6,21.3 124.9,22.6 125.9,23.6 C126.6,24.3 127.7,25 129.3,25 C130.9,25 132.1,24.4 132.7,23.6 C133.7,22.6 134,21.3 134,19.3 C134,17.3 133.7,16 132.7,15 C132.1,14.2 130.9,13.6 129.3,13.6 Z M130.6,21.9 C130.3,22.2 129.9,22.4 129.3,22.4 C128.7,22.4 128.3,22.2 128,21.9 C127.4,21.3 127.4,20.3 127.4,19.2 C127.4,18 127.5,17.1 128,16.5 C128.3,16.2 128.7,16 129.3,16 C129.9,16 130.3,16.2 130.6,16.5 C131.2,17.1 131.2,18 131.2,19.2 C131.2,20.4 131.2,21.4 130.6,21.9 Z M147.1,13.7 L145.3,20.6 L143,13.7 L141,13.7 L138.7,20.6 L136.9,13.7 L134,13.7 L137.4,24.8 L139.7,24.8 L142,17.8 L144.3,24.8 L146.6,24.8 L150,13.7 L147.1,13.7 Z M122,21.4 L122,9.3 L119.2,9.3 L119.2,21.6 C119.2,23.2 120.2,24.8 122.4,24.8 L124,24.8 L124,22.5 L123,22.5 C122.3,22.5 122,22.1 122,21.4 Z M41.3,15.6 L42.7,14.2 L39.7,14.2 L39.7,10.7 L38.1,10.7 L38.1,21.8 C38.1,23.4 39,24.7 40.8,24.7 L41.9,24.7 L41.9,23.4 L41.1,23.4 C40.1,23.4 39.6,22.8 39.6,21.8 L39.6,15.7 L41.3,15.6 Z" id="Shape" fill="#222426" fill-rule="nonzero"></path>
        <polygon id="Shape_1_" fill="#BCBBBB" fill-rule="nonzero" points="21 27 21 19 24 19 24 30 0 30 0 19 3 19 3 27"></polygon>
        <path d="M5.4,19.1 L19,21.1 L19.2,18.7 L5.9,16.1 L5.4,19.1 Z M7.2,12.3 L19.2,17.9 L20.3,15.5 L8.3,9.9 L7.2,12.3 Z M10.6,6.4 L20.8,14.9 L22.5,12.9 L12.3,4.4 L10.6,6.4 Z M17.1,0.2 L15,1.8 L22.9,12.4 L25,10.8 L17.1,0.2 Z M5,25 L19,25 L19,22 L5,22 L5,25 Z" id="Shape_2_" fill="#F48024" fill-rule="nonzero"></path>
        <polygon id="Shape" fill="#F48024" fill-rule="nonzero" points="34.0203491 29.7 31.0203491 29.7 31.0203491 31.1 33.7203491 31.1 33.7203491 32.6 30.9203491 32.6 30.9203491 34.3 33.9203491 34.3 33.9203491 35.8 29.0203491 35.8 29.0203491 27.9996338 34.0203491 27.9996338"></polygon>
        <polygon id="Shape" fill="#F48024" fill-rule="nonzero" points="41.0624634 28.107605 41.0624634 35.9 39.5624634 35.9 36.7624634 31.6 36.7624634 35.9 34.9624634 35.9 34.9624634 28.107605 36.4624634 28.107605 39.3624634 32.5 39.3624634 28.107605"></polygon>
        <polygon id="Shape" fill="#F48024" fill-rule="nonzero" points="47.9102295 28.0148315 47.9102295 29.7 45.9102295 29.7 45.9102295 35.9 44.0102295 35.9 44.0102295 29.7 42.0102295 29.7 42.0102295 28.0148315"></polygon>
        <polygon id="Shape" fill="#F48024" fill-rule="nonzero" points="53.9147949 29.7 50.9147949 29.7 50.9147949 31.1 53.6147949 31.1 53.6147949 32.6 50.9147949 32.6 50.9147949 34.3 53.9147949 34.3 53.9147949 35.8 49.0147949 35.8 49.0147949 28.0064697 53.9147949 28.0064697"></polygon>
        <path d="M59.2313843,35.9 L57.9313843,33 L56.9313843,33 L56.9313843,35.9 L55.0313843,35.9 L55.0313843,28.0205688 L57.9313843,28.0205688 C59.7313843,28.0205688 60.8313843,29 60.8313843,30.6 C60.8313843,31.6 60.4313843,32.3 59.6313843,32.6 L61.1313843,35.8 L59.2313843,35.8 L59.2313843,35.9 Z M57.8313843,31.4 C58.6313843,31.4 59.1313843,31.3 59.1313843,30.6 C59.1313843,29.9 58.6313843,29.7 57.8313843,29.7 L57.0313843,29.7 L57.0313843,31.4 L57.8313843,31.4 Z" id="Shape" fill="#F48024" fill-rule="nonzero"></path>
        <path d="M63.9046753,33.3 L63.9046753,35.9 L62.0046753,35.9 L62.0046753,28.0473022 L64.9046753,28.0473022 C66.7046753,28.0473022 67.8046753,29 67.8046753,30.7 C67.8046753,32.4 66.7046753,33.3 64.9046753,33.3 L63.9046753,33.3 Z M64.6048584,31.6008301 C65.6048584,31.6008301 66.0046753,31.4 66.0046753,30.6 C66.0046753,30 65.6046753,29.6 64.6046753,29.6 L63.9046753,29.6 L63.9046753,31.6 L64.6048584,31.6008301 Z" id="Shape" fill="#F48024" fill-rule="nonzero"></path>
        <path d="M73.0987793,35.9 L71.7987793,33 L70.7987793,33 L70.7987793,35.9 L68.9987793,35.9 L68.9987793,28.0366211 L71.8987793,28.0366211 C73.6987793,28.0366211 74.7987793,29 74.7987793,30.6 C74.7987793,31.6 74.3987793,32.3 73.5987793,32.6 L75.0987793,35.8 L73.0987793,35.8 L73.0987793,35.9 Z M71.6987793,31.4 C72.4987793,31.4 72.9987793,31.3 72.9987793,30.6 C72.9987793,29.9 72.4987793,29.7 71.6987793,29.7 L70.8987793,29.7 L70.8987793,31.4 L71.6987793,31.4 Z" id="Shape" fill="#F48024" fill-rule="nonzero"></path>
        <polygon id="Shape" fill="#F48024" fill-rule="nonzero" points="77.9066162 35.9 76.0066162 35.9 76.0066162 28.0309448 77.9066162 28.0309448"></polygon>
        <path d="M83.3996582,30.3 C83.0996582,29.8 82.6996582,29.6 81.9996582,29.6 C81.3996582,29.6 81.0996582,29.9 81.0996582,30.3 C81.0996582,30.8 81.4996582,31 82.4996582,31.3 C84.1996582,31.8 84.7996582,32.4 84.7996582,33.7 C84.7996582,35.1 83.8996582,36 82.0996582,36 C80.6996582,36 79.6996582,35.7 78.9996582,34.7 L80.3996582,33.7 C80.7996582,34.2 81.2996582,34.4 81.8996582,34.4 C82.5996582,34.4 82.8996582,34.1 82.8996582,33.7 C82.8996582,33.3 82.5996582,33 81.3996582,32.7 C79.7996582,32.2 79.1996582,31.5 79.1996582,30.2 C79.1996582,28.9 79.9996582,28 81.8996582,28 C83.0996582,28 84.0996582,28.4 84.6996582,29.3 L83.3996582,30.3 Z" id="Shape" fill="#F48024" fill-rule="nonzero"></path>
        <polygon id="Shape" fill="#F48024" fill-rule="nonzero" points="90.9038208 29.7 87.9038208 29.7 87.9038208 31.1 90.6038208 31.1 90.6038208 32.6 87.9038208 32.6 87.9038208 34.3 90.9038208 34.3 90.9038208 35.8 86.0038208 35.8 86.0038208 28.0015869 90.9038208 28.0015869"></polygon>
    </g>
</svg>