<?xml version="1.0" encoding="UTF-8"?>
<svg width="18px" height="18px" viewBox="0 0 18 18" version="1.1" xmlns="http://www.w3.org/2000/svg" xmlns:xlink="http://www.w3.org/1999/xlink">
    <!-- Generator: Sketch 51.2 (57519) - http://www.bohemiancoding.com/sketch -->
    <title>LogoGlyphXSm</title>
    <desc>Created with Sketch.</desc>
    <defs></defs>
    <g id="LogoGlyphXSm" stroke="none" stroke-width="1" fill="none" fill-rule="evenodd">
        <polygon id="Combined-Shape" fill="#BCBBBB" fill-rule="nonzero" points="14 16 14 11 16 11 16 18 2 18 2 11 4 11 4 16"></polygon>
        <path d="M5,15 L5,13 L13,13 L13,15 L5,15 Z M12.0899981,0.722916032 L16.5992432,6.78499262 L15.386722,7.68684163 L10.877477,1.62476504 L12.0899981,0.722916032 Z M8.34234981,4.29696905 L9.30929707,3.13578553 L15.1152146,7.97105109 L14.1477381,9.13223461 L8.34234981,4.29696905 Z M6.44709084,7.6572034 L7.08484204,6.28749376 L13.9339195,9.47677904 L13.2961683,10.8470179 L6.44709084,7.6572034 Z M5.40144925,11.3904647 L5.7797014,9.71864816 L13.1967977,11.1981442 L12.9805675,12.6551219 L5.40144925,11.3904647 Z" id="Combined-Shape" fill="#F48024"></path>
    </g>
</svg>