<?xml version="1.0" encoding="UTF-8"?>
<svg width="147px" height="35px" viewBox="0 0 147 35" version="1.1" xmlns="http://www.w3.org/2000/svg" xmlns:xlink="http://www.w3.org/1999/xlink">
    <!-- Generator: Sketch 52.5 (67469) - http://www.bohemiancoding.com/sketch -->
    <title>LogoSE</title>
    <desc>Created with Sketch.</desc>
    <g id="LogoSE" stroke="none" stroke-width="1" fill="none" fill-rule="evenodd">
        <path d="M43.4577068,30.8754071 L40.6041074,26.0276087 L39.096973,27.788192 L39.096973,30.8754071 L37.0474075,30.8754071 L37.0474075,16.123885 L39.096973,16.123885 L39.096973,25.2195243 L43.0560332,20.3713719 L45.5474397,20.3713719 L42.0109951,24.4942659 L45.989624,30.8754071 L43.4577068,30.8754071 Z M32.3875116,31 C30.096942,31 27.8461963,29.5494832 27.8461963,25.6131247 C27.8461963,21.6767662 30.096942,20.2471329 32.3875116,20.2471329 C33.7943993,20.2471329 34.7790147,20.6616169 35.7433747,21.7181792 L34.3368304,23.1265751 C33.6938092,22.4020246 33.1915455,22.1323092 32.3875116,22.1323092 C31.6040764,22.1323092 30.9407999,22.4636132 30.4986156,23.0649865 C30.0564313,23.6447685 29.8957618,24.3909104 29.8957618,25.6131247 C29.8957618,26.8353391 30.0564313,27.6020105 30.4986156,28.1821464 C30.9407999,28.7828118 31.6040764,29.1141158 32.3875116,29.1141158 C33.1915455,29.1141158 33.6938092,28.8451083 34.3368304,28.1198499 L35.7433747,29.5080702 C34.7790147,30.5646326 33.7943993,31 32.3875116,31 Z M23.9446435,26.2346737 L21.5531404,26.2346737 C20.3474329,26.2346737 19.7246671,26.7939261 19.7246671,27.746779 C19.7246671,28.6999858 20.3072655,29.2387088 21.5936511,29.2387088 C22.3770863,29.2387088 22.9600281,29.1764123 23.5024591,28.6380433 C23.803886,28.3272689 23.9446435,27.8299589 23.9446435,27.0838171 L23.9446435,26.2346737 Z M23.9848108,30.8754071 L23.9848108,29.9225542 C23.2411996,30.6892255 22.5380991,31 21.2719688,31 C20.0058386,31 19.1619806,30.6892255 18.5392149,30.0464392 C18.0166958,29.4871867 17.7351809,28.6794563 17.7351809,27.788192 C17.7351809,26.0276087 18.9206332,24.7632734 21.2517135,24.7632734 L23.9446435,24.7632734 L23.9446435,24.0178394 C23.9446435,22.6919156 23.3016223,22.0494832 21.7141532,22.0494832 C20.5887803,22.0494832 20.046006,22.3188447 19.4836629,23.0649865 L18.1371979,21.7595922 C19.1015579,20.5993204 20.1064287,20.2471329 21.7944879,20.2471329 C24.5876646,20.2471329 25.994209,21.4693473 25.994209,23.8518335 L25.994209,30.8754071 L23.9848108,30.8754071 Z M14.9710113,30.8754071 C13.0618599,30.8754071 12.1774913,29.4666572 12.1774913,27.9541979 L12.1774913,22.1737222 L11.0122944,22.1737222 L11.0122944,20.5579074 L12.1774913,20.5579074 L12.1774913,17.3673368 L14.2274001,17.3673368 L14.2274001,20.5579074 L16.1966308,20.5579074 L16.1966308,22.1737222 L14.2274001,22.1737222 L14.2274001,27.8504885 C14.2274001,28.6171598 14.5889063,29.0727028 15.3527729,29.0727028 L16.1966308,29.0727028 L16.1966308,30.8754071 L14.9710113,30.8754071 Z M5.06417766,31 C2.91367879,31 1.36672031,30.4818066 0,29.0525273 L1.44671173,27.581127 C2.49174981,28.6585728 3.63737796,28.9902308 5.10400172,28.9902308 C6.97298573,28.9902308 8.05819118,28.1612629 8.05819118,26.7316296 C8.05819118,26.0895512 7.87726639,25.5508283 7.49550477,25.1986408 C7.13365519,24.8464533 6.77214891,24.7016848 5.92794765,24.5770919 L4.24023173,24.3286139 C3.07469156,24.162608 2.15015556,23.748478 1.52738977,23.1474586 C0.823945929,22.4636132 0.482351679,21.5316438 0.482351679,20.3299589 C0.482351679,17.7609373 2.29091299,16 5.26501448,16 C7.15391052,16 8.48012016,16.4973099 9.70608304,17.6781113 L8.31910739,19.0868611 C7.43508207,18.2164802 6.41029932,17.9474727 5.20459178,17.9474727 C3.51653256,17.9474727 2.59233988,18.9417386 2.59233988,20.2471329 C2.59233988,20.7855019 2.75300933,21.2622823 3.13477095,21.6144698 C3.49662053,21.9457738 4.07921897,22.1946057 4.74249544,22.2983152 L6.37013196,22.5467931 C7.69634159,22.7538581 8.43995279,23.0855161 9.04280657,23.6447685 C9.82658513,24.3494974 10.2083467,25.4057058 10.2083467,26.6696871 C10.2083467,29.3834773 8.05819118,31 5.06417766,31 Z" id="Fill-1" fill="#020303"></path>
        <path d="M129.550008,23.3773796 C129.259526,22.7375863 128.657281,22.2625027 127.743983,22.2625027 C126.830685,22.2625027 126.22844,22.7375863 125.937603,23.3773796 C125.771968,23.7695792 125.709544,24.0587912 125.688618,24.5331694 L129.799348,24.5331694 C129.778776,24.0587912 129.716353,23.7695792 129.550008,23.3773796 Z M125.688618,26.3707235 C125.688618,27.7540032 126.540202,28.765187 128.055391,28.765187 C129.2386,28.765187 129.820274,28.4354148 130.505159,27.7540032 L132.145195,29.343611 C131.04498,30.4376787 129.985909,31.0365591 128.03482,31.0365591 C125.481131,31.0365591 123.031363,29.8800639 123.031363,25.5242494 C123.031363,22.014909 124.94131,20.0331016 127.743983,20.0331016 C130.754498,20.0331016 132.456603,22.2212371 132.456603,25.1733154 L132.456603,26.3707235 L125.688618,26.3707235 Z M116.521578,22.4483743 C114.92304,22.4483743 114.75705,23.8108448 114.75705,25.2353902 C114.75705,26.6599355 114.92304,28.0432152 116.521578,28.0432152 C118.120471,28.0432152 118.307032,26.6599355 118.307032,25.2353902 C118.307032,23.8108448 118.120471,22.4483743 116.521578,22.4483743 Z M116.251667,34.9797175 C114.59106,34.9797175 113.449348,34.6492399 112.328208,33.5756286 L114.009741,31.8826805 C114.611632,32.4607517 115.213876,32.7086981 116.12753,32.7086981 C117.746639,32.7086981 118.307032,31.5730121 118.307032,30.4789443 L118.307032,29.3848766 C117.601221,30.1692759 116.791843,30.4581352 115.732772,30.4581352 C114.674055,30.4581352 113.760757,30.1072011 113.158512,29.5086734 C112.141292,28.4971369 112.058297,27.1142099 112.058297,25.2353902 C112.058297,23.3565704 112.141292,21.9940999 113.158512,20.9825634 C113.760757,20.3840357 114.694981,20.0331016 115.753698,20.0331016 C116.89541,20.0331016 117.642718,20.34277 118.390382,21.168435 L118.390382,20.1568984 L121.006139,20.1568984 L121.006139,30.5202099 C121.006139,33.100545 119.158262,34.9797175 116.251667,34.9797175 Z M107.28258,30.9124096 L107.28258,24.4097252 C107.28258,22.9439143 106.34871,22.4483743 105.49748,22.4483743 C104.646251,22.4483743 103.6911,22.9439143 103.6911,24.4097252 L103.6911,30.9124096 L100.992348,30.9124096 L100.992348,20.1568984 L103.629386,20.1568984 L103.629386,21.1479785 C104.334843,20.4044921 105.331491,20.0331016 106.327784,20.0331016 C107.407427,20.0331016 108.279582,20.3840357 108.881473,20.9825634 C109.753274,21.8494939 109.981687,22.8610304 109.981687,24.0379821 L109.981687,30.9124096 L107.28258,30.9124096 Z M96.1364895,26.3707235 L93.9981298,26.3707235 C93.0224079,26.3707235 92.4829411,26.8246452 92.4829411,27.5885881 C92.4829411,28.3320745 92.9809105,28.8272618 94.0396273,28.8272618 C94.7872906,28.8272618 95.2646885,28.765187 95.7420865,28.3112653 C96.0325686,28.0432152 96.1364895,27.6093972 96.1364895,26.9487948 L96.1364895,26.3707235 Z M96.198913,30.9124096 L96.198913,29.9834043 C95.4721758,30.7060815 94.7872906,31.01575 93.541658,31.01575 C92.3165967,31.01575 91.4238697,30.7060815 90.780482,30.0662882 C90.1991631,29.4674078 89.8877549,28.6004773 89.8877549,27.6506628 C89.8877549,25.9372582 91.0709641,24.5331694 93.5831554,24.5331694 L96.1364895,24.5331694 L96.1364895,23.9967164 C96.1364895,22.8197648 95.5555253,22.3037683 94.1229768,22.3037683 C93.0848314,22.3037683 92.6074335,22.551362 92.046686,23.191508 L90.3236554,21.5190163 C91.3823722,20.3632265 92.4205176,20.0331016 94.2268978,20.0331016 C97.2576298,20.0331016 98.8355967,21.3126882 98.8355967,23.8313013 L98.8355967,30.9124096 L96.198913,30.9124096 Z M85.1984583,30.9124096 L85.1984583,24.3476505 C85.1984583,22.9231052 84.2851599,22.4483743 83.4339303,22.4483743 C82.5827007,22.4483743 81.6899737,22.9439143 81.6899737,24.3476505 L81.6899737,30.9124096 L78.9912212,30.9124096 L78.9912212,16.2133874 L81.6899737,16.2133874 L81.6899737,21.1479785 C82.4167109,20.4044921 83.3300094,20.0331016 84.2851599,20.0331016 C86.6515782,20.0331016 87.8975655,21.6844314 87.8975655,23.9554508 L87.8975655,30.9124096 L85.1984583,30.9124096 Z M74.1766992,31.0365591 C72.0177681,31.0365591 69.339587,29.8800639 69.339587,25.5242494 C69.339587,21.168435 72.0177681,20.0331016 74.1766992,20.0331016 C75.6716712,20.0331016 76.7924568,20.487376 77.7472527,21.4781034 L75.9206558,23.2948484 C75.3599083,22.695968 74.8825104,22.4483743 74.1766992,22.4483743 C73.5333115,22.4483743 73.0349875,22.6755115 72.6402298,23.1502424 C72.2252553,23.6662389 72.0383395,24.3889161 72.0383395,25.5242494 C72.0383395,26.6599355 72.2252553,27.4030692 72.6402298,27.9190657 C73.0349875,28.3941492 73.5333115,28.6209337 74.1766992,28.6209337 C74.8825104,28.6209337 75.3599083,28.3733401 75.9206558,27.7748124 L77.7472527,29.5707482 C76.7924568,30.5614755 75.6716712,31.0365591 74.1766992,31.0365591 Z M65.5882664,30.9124096 L63.5953251,27.6919284 L61.6229552,30.9124096 L58.3843813,30.9124096 L62.1212792,25.4212618 L58.5297997,20.1568984 L61.7683736,20.1568984 L63.5953251,23.2327736 L65.442848,20.1568984 L68.681422,20.1568984 L65.0899424,25.4212618 L68.8268404,30.9124096 L65.5882664,30.9124096 Z M48.0022583,30.9124096 L48.0022583,16.2133874 L57.7389062,16.2133874 L57.7389062,18.7736187 L50.8879266,18.7736187 L50.8879266,22.2212371 L56.7216868,22.2212371 L56.7216868,24.7811157 L50.8879266,24.7811157 L50.8879266,28.3525309 L57.7389062,28.3525309 L57.7389062,30.9124096 L48.0022583,30.9124096 Z" id="Fill-3" fill="#205196"></path>
        <path d="M147,3 L132,3 L132,2.5 C132,1.19366667 133.209659,0 134.5,0 L144.5,0 C145.791023,0 147,1.19366667 147,2.5 L147,3 Z" id="Fill-1" fill="#8FD8F7"></path>
        <path d="M132,12 L132,12.5 C132,13.8063333 133.209659,15 134.5,15 L141,15 L141,18 L144,15 L144.5,15 C145.791023,15 147,13.8063333 147,12.5 L147,12 L132,12 Z" id="Path" fill="#155397"></path>
        <polygon id="Path" fill="#2D6DB5" points="132 8 132 11 147 11 147 8"></polygon>
        <polygon id="Path" fill="#46A2D9" points="132 4 132 7 147 7 147 4"></polygon>
    </g>
</svg>