<?xml version="1.0" encoding="UTF-8"?>
<svg width="118px" height="16px" viewBox="0 0 118 16" version="1.1" xmlns="http://www.w3.org/2000/svg" xmlns:xlink="http://www.w3.org/1999/xlink">
    <!-- Generator: Sketch 52.5 (67469) - http://www.bohemiancoding.com/sketch -->
    <title>LogoWordmark</title>
    <desc>Created with Sketch.</desc>
    <g id="LogoWordmark" stroke="none" stroke-width="1" fill="none" fill-rule="evenodd">
        <path d="M5.90918689,9.89748338 L4.27840611,9.70562682 C3.03133846,9.60969854 2.45576878,9.13005713 2.45576878,8.17077432 C2.45576878,7.11556324 3.22319503,6.44406527 4.75804752,6.44406527 C5.81325861,6.44406527 6.77254141,6.73185011 7.44403938,7.21149152 L8.40332219,6.25220871 C7.44403938,5.48478246 6.19697173,5.19699762 4.75804752,5.19699762 C2.55169706,5.19699762 1.01684457,6.34813699 1.01684457,8.17077432 C1.01684457,9.89748338 2.07205566,10.7608379 4.08654955,10.9526945 L5.81325861,11.144551 C6.96439798,11.2404793 7.53996766,11.7201207 7.53996766,12.6794035 C7.53996766,13.9264712 6.48475657,14.5020409 4.8539758,14.5020409 C3.60690815,14.5020409 2.45576878,14.214256 1.68834253,13.3509015 L0.729059725,14.3101843 C1.88019909,15.3653954 3.22319503,15.7491085 4.94990408,15.7491085 C7.44403938,15.7491085 9.07482015,14.5979691 9.07482015,12.6794035 C8.88296359,10.7608379 7.63589594,10.0893399 5.90918689,9.89748338 Z M18.6676482,5.2929259 C17.0368675,5.2929259 15.9816564,5.58071074 15.1183018,6.73185011 L16.0775846,7.69113292 C16.6531543,6.82777839 17.3246523,6.53999355 18.6676482,6.53999355 C20.4902856,6.53999355 21.2577118,7.3074198 21.2577118,8.74634401 L21.2577118,9.70562682 L18.1880068,9.70562682 C15.8857281,9.70562682 14.6386604,10.8567662 14.6386604,12.6794035 C14.6386604,13.4468298 14.9264453,14.214256 15.4060867,14.7898257 C16.0775846,15.4613237 16.8450109,15.7491085 18.2839351,15.7491085 C19.626931,15.7491085 20.3943573,15.4613237 21.2577118,14.6938974 L21.2577118,15.6531802 L22.7925643,15.6531802 L22.7925643,8.74634401 C22.696636,6.44406527 21.3536401,5.2929259 18.6676482,5.2929259 Z M21.2577118,12.0079056 C21.2577118,12.8712601 21.0658553,13.4468298 20.7780704,13.7346146 C20.1065724,14.3101843 19.3391462,14.4061126 18.4757917,14.4061126 C16.8450109,14.4061126 16.1735129,13.8305429 16.1735129,12.6794035 C16.1735129,11.5282642 16.9409392,10.8567662 18.4757917,10.8567662 L21.3536401,10.8567662 L21.2577118,12.0079056 Z M28.5482612,6.63592183 C29.507544,6.63592183 30.0831136,6.92370667 30.8505399,7.7870612 L31.8098227,6.82777839 C30.7546116,5.67663902 29.8912571,5.2929259 28.4523329,5.2929259 C25.8622693,5.2929259 23.9437037,7.01963496 23.9437037,10.5689813 C23.9437037,14.0223995 25.8622693,15.8450368 28.4523329,15.8450368 C29.8912571,15.8450368 30.7546116,15.4613237 31.8098227,14.3101843 L30.7546116,13.3509015 C29.9871854,14.214256 29.4116157,14.5020409 28.4523329,14.5020409 C27.4930501,14.5020409 26.6296955,14.1183277 26.0541259,13.3509015 C25.5744844,12.6794035 25.3826279,11.9119773 25.3826279,10.5689813 C25.3826279,9.32191369 25.5744844,8.45855917 26.0541259,7.7870612 C26.7256238,7.01963496 27.5889783,6.63592183 28.5482612,6.63592183 Z M41.4026508,5.38885418 L39.5800134,5.38885418 L34.975456,9.89748338 L34.975456,0.784296705 L33.4406035,0.784296705 L33.4406035,15.5572519 L34.975456,15.5572519 L34.975456,11.816049 L36.7980933,9.99341166 L40.2515114,15.5572519 L42.0741487,15.5572519 L37.8533044,8.93820057 L41.4026508,5.38885418 Z M48.4054153,5.10106934 C46.8705628,5.10106934 45.8153517,5.67663902 45.1438537,6.44406527 C44.1845709,7.40334808 43.8967861,8.65041573 43.8967861,10.5689813 C43.8967861,12.487547 44.1845709,13.7346146 45.1438537,14.6938974 C45.8153517,15.3653954 46.8705628,16.0368933 48.4054153,16.0368933 C49.9402678,16.0368933 51.0914071,15.4613237 51.6669768,14.6938974 C52.6262596,13.7346146 52.9140445,12.487547 52.9140445,10.5689813 C52.9140445,8.65041573 52.6262596,7.40334808 51.6669768,6.44406527 C51.0914071,5.67663902 50.036196,5.10106934 48.4054153,5.10106934 Z M49.6524829,13.0631166 C49.3646981,13.3509015 48.980985,13.542758 48.4054153,13.542758 C47.8298456,13.542758 47.4461325,13.3509015 47.1583476,13.0631166 C46.5827779,12.487547 46.5827779,11.5282642 46.5827779,10.4730531 C46.5827779,9.32191369 46.6787062,8.45855917 47.1583476,7.88298948 C47.4461325,7.59520464 47.8298456,7.40334808 48.4054153,7.40334808 C48.980985,7.40334808 49.3646981,7.59520464 49.6524829,7.88298948 C50.2280526,8.45855917 50.2280526,9.32191369 50.2280526,10.4730531 C50.3239809,11.6241924 50.2280526,12.5834752 49.6524829,13.0631166 Z M60.0127372,5.19699762 L57.9023151,11.816049 L55.6959646,5.19699762 L52.9140445,5.19699762 L56.847104,15.8450368 L58.9575262,15.8450368 L62.8905857,5.19699762 L60.0127372,5.19699762 Z M67.3032866,5.10106934 C64.5213664,5.10106934 62.6987291,7.01963496 62.6987291,10.5689813 C62.6987291,14.885754 65.0969361,16.0368933 67.5910714,16.0368933 C69.509637,16.0368933 70.5648481,15.4613237 71.6200592,14.4061126 L69.9892784,12.8712601 C69.3177805,13.542758 68.7422108,13.8305429 67.5910714,13.8305429 C66.0562189,13.8305429 65.2887927,12.8712601 65.2887927,11.4323359 L71.9078441,11.4323359 L71.9078441,10.2811965 C71.9078441,7.21149152 70.2770633,5.10106934 67.3032866,5.10106934 Z M65.2887927,9.51377026 C65.2887927,9.03412885 65.384721,8.74634401 65.5765775,8.36263089 C65.8643624,7.69113292 66.4399321,7.21149152 67.3992149,7.21149152 C68.2625694,7.21149152 68.9340674,7.69113292 69.2218522,8.36263089 C69.4137088,8.74634401 69.4137088,9.03412885 69.509637,9.51377026 L65.2887927,9.51377026 Z M75.8409036,6.25220871 L75.8409036,5.19699762 L73.25084,5.19699762 L73.25084,15.8450368 L75.9368319,15.8450368 L75.9368319,9.41784197 C75.9368319,8.07484604 76.8001864,7.49927636 77.6635409,7.49927636 C78.3350389,7.49927636 78.6228237,7.69113292 79.1024651,8.17077432 L81.116959,6.15628043 C80.3495328,5.38885418 79.6780348,5.19699762 78.6228237,5.19699762 C77.3757561,5.10106934 76.4164733,5.58071074 75.8409036,6.25220871 Z M81.2304598,4.04585825 L81.2304598,15.8450368 L83.9164516,15.8450368 L83.9164516,7.40334808 L85.8350173,7.40334808 L85.8350173,5.38885418 L83.9164516,5.38885418 L83.9164516,4.23771481 C83.9164516,3.66214513 84.2042365,3.27843201 84.8757345,3.27843201 L85.9309455,3.27843201 L85.9309455,1.07208155 L84.396093,1.07208155 C82.1897426,1.07208155 81.2304598,2.60693404 81.2304598,4.04585825 Z M97.4247668,5.10106934 C95.8899143,5.10106934 94.8347032,5.67663902 94.1632052,6.44406527 C93.2039224,7.40334808 92.9161376,8.65041573 92.9161376,10.5689813 C92.9161376,12.487547 93.2039224,13.7346146 94.1632052,14.6938974 C94.8347032,15.3653954 95.8899143,16.0368933 97.4247668,16.0368933 C98.9596192,16.0368933 100.110759,15.4613237 100.686328,14.6938974 C101.645611,13.7346146 101.933396,12.487547 101.933396,10.5689813 C101.933396,8.65041573 101.645611,7.40334808 100.686328,6.44406527 C100.110759,5.67663902 98.9596192,5.10106934 97.4247668,5.10106934 Z M98.6718344,13.0631166 C98.3840496,13.3509015 98.0003364,13.542758 97.4247668,13.542758 C96.8491971,13.542758 96.4654839,13.3509015 96.1776991,13.0631166 C95.6021294,12.487547 95.6021294,11.5282642 95.6021294,10.4730531 C95.6021294,9.32191369 95.6980577,8.45855917 96.1776991,7.88298948 C96.4654839,7.59520464 96.8491971,7.40334808 97.4247668,7.40334808 C98.0003364,7.40334808 98.3840496,7.59520464 98.6718344,7.88298948 C99.2474041,8.45855917 99.2474041,9.32191369 99.2474041,10.4730531 C99.2474041,11.6241924 99.2474041,12.5834752 98.6718344,13.0631166 Z M114.500001,5.19699762 L112.773292,11.816049 L110.566941,5.19699762 L108.648376,5.19699762 L106.442025,11.816049 L104.715316,5.19699762 L101.933396,5.19699762 L105.194957,15.8450368 L107.401308,15.8450368 L109.607658,9.13005713 L111.814009,15.8450368 L114.020359,15.8450368 L117.281921,5.19699762 L114.500001,5.19699762 Z M89.9327818,12.5834752 L89.9327818,0.976153266 L87.2467899,0.976153266 L87.2467899,12.7753318 C87.2467899,14.3101843 88.2060728,15.8450368 90.3164949,15.8450368 L91.8513474,15.8450368 L91.8513474,13.6386863 L90.8920646,13.6386863 C90.2205666,13.6386863 89.9327818,13.2549732 89.9327818,12.5834752 Z M13.0078797,7.01963496 L14.3508756,5.67663902 L11.4730272,5.67663902 L11.4730272,2.3191492 L9.93817468,2.3191492 L9.93817468,12.9671884 C9.93817468,14.5020409 10.8015292,15.7491085 12.5282383,15.7491085 L13.5834493,15.7491085 L13.5834493,14.5020409 L12.8160231,14.5020409 C11.8567403,14.5020409 11.3770989,13.9264712 11.3770989,12.9671884 L11.3770989,7.11556324 L13.0078797,7.01963496 Z" id="Shape" fill="#222426" fill-rule="nonzero"></path>
    </g>
</svg>