<svg width="150" height="36" xmlns="http://www.w3.org/2000/svg"><g fill="none" fill-rule="evenodd"><path d="M33.9 18.6l-1.7-.2c-1.3-.1-1.9-.6-1.9-1.6 0-1.1.8-1.8 2.4-1.8 1.1 0 2.1.3 2.8.8l1-1c-1-.8-2.3-1.1-3.8-1.1-2.3 0-3.9 1.2-3.9 3.1 0 1.8 1.1 2.7 3.2 2.9l1.8.2c1.2.1 1.8.6 1.8 1.6 0 1.3-1.1 1.9-2.8 1.9-1.3 0-2.5-.3-3.3-1.2l-1 1c1.2 1.1 2.6 1.5 4.4 1.5 2.6 0 4.3-1.2 4.3-3.2-.2-2-1.5-2.7-3.3-2.9zm13.3-4.8c-1.7 0-2.8.3-3.7 1.5l1 1c.6-.9 1.3-1.2 2.7-1.2 1.9 0 2.7.8 2.7 2.3v1h-3.2c-2.4 0-3.7 1.2-3.7 3.1 0 .8.3 1.6.8 2.2.7.7 1.5 1 3 1 1.4 0 2.2-.3 3.1-1.1v1h1.6v-7.2c-.1-2.4-1.5-3.6-4.3-3.6zm2.7 7c0 .9-.2 1.5-.5 1.8-.7.6-1.5.7-2.4.7-1.7 0-2.4-.6-2.4-1.8 0-1.2.8-1.9 2.4-1.9h3l-.1 1.2zm7.6-5.6c1 0 1.6.3 2.4 1.2l1-1c-1.1-1.2-2-1.6-3.5-1.6-2.7 0-4.7 1.8-4.7 5.5 0 3.6 2 5.5 4.7 5.5 1.5 0 2.4-.4 3.5-1.6l-1.1-1c-.8.9-1.4 1.2-2.4 1.2s-1.9-.4-2.5-1.2c-.5-.7-.7-1.5-.7-2.9 0-1.3.2-2.2.7-2.9.7-.8 1.6-1.2 2.6-1.2zm13.4-1.3H69l-4.8 4.7V9.1h-1.6v15.4h1.6v-3.9l1.9-1.9 3.6 5.8h1.9l-4.4-6.9 3.7-3.7zm7.3-.328c-1.6 0-2.7.6-3.4 1.4-1 1-1.3 2.3-1.3 4.3s.3 3.3 1.3 4.3c.7.7 1.8 1.4 3.4 1.4 1.6 0 2.8-.6 3.4-1.4 1-1 1.3-2.3 1.3-4.3s-.3-3.3-1.3-4.3c-.6-.8-1.7-1.4-3.4-1.4zm1.3 8.3c-.3.3-.7.5-1.3.5-.6 0-1-.2-1.3-.5-.6-.6-.6-1.6-.6-2.7 0-1.2.1-2.1.6-2.7.3-.3.7-.5 1.3-.5.6 0 1 .2 1.3.5.6.6.6 1.5.6 2.7.1 1.2 0 2.2-.6 2.7zm10.8-8.2l-2.2 6.9-2.3-6.9h-2.9l4.1 11.1h2.2l4.1-11.1h-3zm7.6-.1c-2.9 0-4.8 2-4.8 5.7 0 4.5 2.5 5.7 5.1 5.7 2 0 3.1-.6 4.2-1.7l-1.7-1.6c-.7.7-1.3 1-2.5 1-1.6 0-2.4-1-2.4-2.5h6.9v-1.2c0-3.2-1.7-5.4-4.8-5.4zm-2.1 4.6c0-.5.1-.8.3-1.2.3-.7.9-1.2 1.9-1.2.9 0 1.6.5 1.9 1.2.2.4.2.7.3 1.2h-4.4zm11-3.4v-1.1h-2.7v11.1h2.8v-6.7c0-1.4.9-2 1.8-2 .7 0 1 .2 1.5.7l2.1-2.1c-.8-.8-1.5-1-2.6-1-1.3-.1-2.3.4-2.9 1.1zm6.3-2.3v12.3h2.8v-8.8h2v-2.1h-2v-1.2c0-.6.3-1 1-1h1.1v-2.3h-1.6c-2.3 0-3.3 1.6-3.3 3.1zm16.2 1.1c-1.6 0-2.7.6-3.4 1.4-1 1-1.3 2.3-1.3 4.3s.3 3.3 1.3 4.3c.7.7 1.8 1.4 3.4 1.4 1.6 0 2.8-.6 3.4-1.4 1-1 1.3-2.3 1.3-4.3s-.3-3.3-1.3-4.3c-.6-.8-1.8-1.4-3.4-1.4zm1.3 8.3c-.3.3-.7.5-1.3.5-.6 0-1-.2-1.3-.5-.6-.6-.6-1.6-.6-2.7 0-1.2.1-2.1.6-2.7.3-.3.7-.5 1.3-.5.6 0 1 .2 1.3.5.6.6.6 1.5.6 2.7 0 1.2 0 2.2-.6 2.7zm16.5-8.2l-1.8 6.9-2.3-6.9h-2l-2.3 6.9-1.8-6.9H134l3.4 11.1h2.3l2.3-7 2.3 7h2.3l3.4-11.1h-2.9zm-25.1 7.7v-12.1h-2.8v12.3c0 1.6 1 3.2 3.2 3.2h1.6v-2.3h-1c-.7 0-1-.4-1-1.1zM41.3 15.6l1.4-1.4h-3v-3.5h-1.6v11.1c0 1.6.9 2.9 2.7 2.9h1.1v-1.3h-.8c-1 0-1.5-.6-1.5-1.6v-6.1h1.7v-.1z" fill="#222426" fill-rule="nonzero"/><path fill="#BCBBBB" fill-rule="nonzero" d="M21 27v-8h3v11H0V19h3v8z"/><path d="M5.402 19.101l13.561 1.96.164-2.38-13.256-2.547-.469 2.967zM7.2 12.3l12 5.6 1.1-2.4-12-5.6-1.1 2.4zm3.4-5.9l10.2 8.5 1.7-2-10.2-8.5-1.7 2zM17.1.2L15 1.8l7.9 10.6 2.1-1.6L17.1.2zM5 25h14v-3H5v3z" fill="#F48024" fill-rule="nonzero"/><path d="M89.713 29.63h-3.298v1.565h2.771c.16 0 .287.127.287.285v.987a.286.286 0 0 1-.287.285h-2.77v1.628h3.297c.159 0 .287.128.287.285v.997a.286.286 0 0 1-.287.285h-4.7a.286.286 0 0 1-.287-.285v-7.315c0-.158.129-.285.287-.285h4.7c.159 0 .287.127.287.285v.997a.286.286 0 0 1-.287.285zm-8.288 1.616c.714.108 1.155.285 1.522.614.452.392.693.984.693 1.71 0 1.453-1.176 2.43-2.928 2.43-1.237 0-2.075-.314-2.805-1.05a.284.284 0 0 1 .004-.403l.743-.729a.288.288 0 0 1 .403.002c.44.437.925.615 1.676.615.459 0 1.23-.11 1.23-.834 0-.171-.033-.405-.193-.547-.13-.122-.248-.18-.654-.238l-.867-.123c-.644-.089-1.18-.317-1.549-.659-.416-.39-.627-.93-.627-1.604 0-1.453 1.102-2.43 2.743-2.43 1.05 0 1.79.271 2.476.908a.284.284 0 0 1 .005.411l-.712.698a.288.288 0 0 1-.4.004c-.358-.34-.777-.486-1.4-.486-.66 0-1.056.32-1.056.854 0 .203.06.355.184.464.142.126.396.227.677.27l.835.123zm-5.357-3.184h1.11c.159 0 .286.127.286.284v7.284a.285.285 0 0 1-.285.284h-1.11a.285.285 0 0 1-.287-.284v-7.284c0-.157.128-.284.286-.284zm-2.833 4.541l1.547 2.956a.286.286 0 0 1-.255.419H73.22a.289.289 0 0 1-.257-.159l-1.476-2.936h-.934v2.808a.287.287 0 0 1-.288.287h-1.12a.287.287 0 0 1-.287-.287v-7.343c0-.158.128-.286.288-.286h2.861c1.52 0 2.58 1 2.58 2.432 0 .966-.51 1.748-1.352 2.109zm-2.682-1.24h1.371c.29 0 .967-.085.967-.859 0-.544-.362-.869-.967-.869h-1.37v1.727zm-8.343-3.301h2.793c1.558 0 2.645 1.031 2.645 2.508s-1.087 2.508-2.645 2.508h-1.389v2.594a.287.287 0 0 1-.287.286H62.21a.287.287 0 0 1-.287-.286v-7.324c0-.158.128-.286.287-.286zm1.404 3.436h1.327c.646 0 1.016-.338 1.016-.928 0-.588-.38-.938-1.016-.938h-1.327v1.866zM59.3 32.564l1.533 2.93a.283.283 0 0 1-.253.416h-1.295a.286.286 0 0 1-.256-.157l-1.462-2.91h-.927v2.783a.285.285 0 0 1-.285.284h-1.11a.285.285 0 0 1-.286-.284v-7.28c0-.157.128-.284.286-.284h2.837c1.506 0 2.558.991 2.558 2.41 0 .96-.505 1.734-1.34 2.092zm-2.66-1.23H58c.288 0 .958-.083.958-.85 0-.54-.358-.862-.959-.862H56.64v1.712zm-7.451-3.272h4.684c.159 0 .286.127.286.284v.994a.285.285 0 0 1-.286.284h-3.286v1.56h2.761c.159 0 .286.128.286.285v.983a.285.285 0 0 1-.286.285h-2.761v1.622h3.286c.159 0 .286.128.286.285v.993a.285.285 0 0 1-.286.285h-4.684a.286.286 0 0 1-.286-.285v-7.29c0-.158.128-.285.286-.285zm-6.9 0h5.18c.16 0 .288.128.288.286v1a.287.287 0 0 1-.288.286h-1.743v6.052a.287.287 0 0 1-.287.286h-1.12a.287.287 0 0 1-.287-.286v-6.052h-1.743a.287.287 0 0 1-.288-.286v-1c0-.158.129-.286.288-.286zm-2.606 0H40.8c.16 0 .288.128.288.286v7.33a.287.287 0 0 1-.288.287h-1.025a.29.29 0 0 1-.24-.13l-2.877-4.358v4.202c0 .157-.13.286-.288.286h-1.118a.287.287 0 0 1-.288-.286v-7.331c0-.158.129-.286.288-.286h1.024c.098 0 .188.048.24.129l2.878 4.35v-4.193c0-.158.13-.286.288-.286zm-10.396 0h4.679c.158 0 .286.127.286.284v.992a.285.285 0 0 1-.286.285h-3.283v1.558h2.759c.158 0 .285.127.285.284v.982a.285.285 0 0 1-.285.284h-2.759v1.621h3.283c.158 0 .286.128.286.284v.993a.285.285 0 0 1-.286.284h-4.68a.285.285 0 0 1-.285-.284v-7.283c0-.157.128-.284.286-.284z" fill="#F48024"/></g></svg>