<?xml version="1.0" encoding="UTF-8"?>
<svg width="150px" height="30px" viewBox="0 0 150 30" version="1.1" xmlns="http://www.w3.org/2000/svg" xmlns:xlink="http://www.w3.org/1999/xlink">
    <!-- Generator: Sketch 51.2 (57519) - http://www.bohemiancoding.com/sketch -->
    <title>Logo</title>
    <desc>Created with Sketch.</desc>
    <defs></defs>
    <g id="Logo" stroke="none" stroke-width="1" fill="none" fill-rule="evenodd">
        <path d="M33.9,18.6 L32.2,18.4 C30.9,18.3 30.3,17.8 30.3,16.8 C30.3,15.7 31.1,15 32.7,15 C33.8,15 34.8,15.3 35.5,15.8 L36.5,14.8 C35.5,14 34.2,13.7 32.7,13.7 C30.4,13.7 28.8,14.9 28.8,16.8 C28.8,18.6 29.9,19.5 32,19.7 L33.8,19.9 C35,20 35.6,20.5 35.6,21.5 C35.6,22.8 34.5,23.4 32.8,23.4 C31.5,23.4 30.3,23.1 29.5,22.2 L28.5,23.2 C29.7,24.3 31.1,24.7 32.9,24.7 C35.5,24.7 37.2,23.5 37.2,21.5 C37,19.5 35.7,18.8 33.9,18.6 L33.9,18.6 Z M47.2,13.8 C45.5,13.8 44.4,14.1 43.5,15.3 L44.5,16.3 C45.1,15.4 45.8,15.1 47.2,15.1 C49.1,15.1 49.9,15.9 49.9,17.4 L49.9,18.4 L46.7,18.4 C44.3,18.4 43,19.6 43,21.5 C43,22.3 43.3,23.1 43.8,23.7 C44.5,24.4 45.3,24.7 46.8,24.7 C48.2,24.7 49,24.4 49.9,23.6 L49.9,24.6 L51.5,24.6 L51.5,17.4 C51.4,15 50,13.8 47.2,13.8 L47.2,13.8 Z M49.9,20.8 C49.9,21.7 49.7,22.3 49.4,22.6 C48.7,23.2 47.9,23.3 47,23.3 C45.3,23.3 44.6,22.7 44.6,21.5 C44.6,20.3 45.4,19.6 47,19.6 L50,19.6 L49.9,20.8 L49.9,20.8 Z M57.5,15.2 C58.5,15.2 59.1,15.5 59.9,16.4 L60.9,15.4 C59.8,14.2 58.9,13.8 57.4,13.8 C54.7,13.8 52.7,15.6 52.7,19.3 C52.7,22.9 54.7,24.8 57.4,24.8 C58.9,24.8 59.8,24.4 60.9,23.2 L59.8,22.2 C59,23.1 58.4,23.4 57.4,23.4 C56.4,23.4 55.5,23 54.9,22.2 C54.4,21.5 54.2,20.7 54.2,19.3 C54.2,18 54.4,17.1 54.9,16.4 C55.6,15.6 56.5,15.2 57.5,15.2 Z M70.9,13.9 L69,13.9 L64.2,18.6 L64.2,9.1 L62.6,9.1 L62.6,24.5 L64.2,24.5 L64.2,20.6 L66.1,18.7 L69.7,24.5 L71.6,24.5 L67.2,17.6 L70.9,13.9 Z M78.2,13.5723633 C76.6,13.5723633 75.5,14.1723633 74.8,14.9723633 C73.8,15.9723633 73.5,17.2723633 73.5,19.2723633 C73.5,21.2723633 73.8,22.5723633 74.8,23.5723633 C75.5,24.2723633 76.6,24.9723633 78.2,24.9723633 C79.8,24.9723633 81,24.3723633 81.6,23.5723633 C82.6,22.5723633 82.9,21.2723633 82.9,19.2723633 C82.9,17.2723633 82.6,15.9723633 81.6,14.9723633 C81,14.1723633 79.9,13.5723633 78.2,13.5723633 Z M79.5,21.8723633 C79.2,22.1723633 78.8,22.3723633 78.2,22.3723633 C77.6,22.3723633 77.2,22.1723633 76.9,21.8723633 C76.3,21.2723633 76.3,20.2723633 76.3,19.1723633 C76.3,17.9723633 76.4,17.0723633 76.9,16.4723633 C77.2,16.1723633 77.6,15.9723633 78.2,15.9723633 C78.8,15.9723633 79.2,16.1723633 79.5,16.4723633 C80.1,17.0723633 80.1,17.9723633 80.1,19.1723633 C80.2,20.3723633 80.1,21.3723633 79.5,21.8723633 Z M90.3,13.6723633 L88.1,20.5723633 L85.8,13.6723633 L82.9,13.6723633 L87,24.7723633 L89.2,24.7723633 L93.3,13.6723633 L90.3,13.6723633 L90.3,13.6723633 Z M97.9,13.5723633 C95,13.5723633 93.1,15.5723633 93.1,19.2723633 C93.1,23.7723633 95.6,24.9723633 98.2,24.9723633 C100.2,24.9723633 101.3,24.3723633 102.4,23.2723633 L100.7,21.6723633 C100,22.3723633 99.4,22.6723633 98.2,22.6723633 C96.6,22.6723633 95.8,21.6723633 95.8,20.1723633 L102.7,20.1723633 L102.7,18.9723633 C102.7,15.7723633 101,13.5723633 97.9,13.5723633 Z M95.8,18.1723633 C95.8,17.6723633 95.9,17.3723633 96.1,16.9723633 C96.4,16.2723633 97,15.7723633 98,15.7723633 C98.9,15.7723633 99.6,16.2723633 99.9,16.9723633 C100.1,17.3723633 100.1,17.6723633 100.2,18.1723633 L95.8,18.1723633 Z M106.8,14.7723633 L106.8,13.6723633 L104.1,13.6723633 L104.1,24.7723633 L106.9,24.7723633 L106.9,18.0723633 C106.9,16.6723633 107.8,16.0723633 108.7,16.0723633 C109.4,16.0723633 109.7,16.2723633 110.2,16.7723633 L112.3,14.6723633 C111.5,13.8723633 110.8,13.6723633 109.7,13.6723633 C108.4,13.5723633 107.4,14.0723633 106.8,14.7723633 L106.8,14.7723633 Z M113.1,12.4723633 L113.1,24.7723633 L115.9,24.7723633 L115.9,15.9723633 L117.9,15.9723633 L117.9,13.8723633 L115.9,13.8723633 L115.9,12.6723633 C115.9,12.0723633 116.2,11.6723633 116.9,11.6723633 L118,11.6723633 L118,9.37236328 L116.4,9.37236328 C114.1,9.37236328 113.1,10.9723633 113.1,12.4723633 L113.1,12.4723633 Z M129.3,13.5723633 C127.7,13.5723633 126.6,14.1723633 125.9,14.9723633 C124.9,15.9723633 124.6,17.2723633 124.6,19.2723633 C124.6,21.2723633 124.9,22.5723633 125.9,23.5723633 C126.6,24.2723633 127.7,24.9723633 129.3,24.9723633 C130.9,24.9723633 132.1,24.3723633 132.7,23.5723633 C133.7,22.5723633 134,21.2723633 134,19.2723633 C134,17.2723633 133.7,15.9723633 132.7,14.9723633 C132.1,14.1723633 130.9,13.5723633 129.3,13.5723633 Z M130.6,21.8723633 C130.3,22.1723633 129.9,22.3723633 129.3,22.3723633 C128.7,22.3723633 128.3,22.1723633 128,21.8723633 C127.4,21.2723633 127.4,20.2723633 127.4,19.1723633 C127.4,17.9723633 127.5,17.0723633 128,16.4723633 C128.3,16.1723633 128.7,15.9723633 129.3,15.9723633 C129.9,15.9723633 130.3,16.1723633 130.6,16.4723633 C131.2,17.0723633 131.2,17.9723633 131.2,19.1723633 C131.2,20.3723633 131.2,21.3723633 130.6,21.8723633 Z M147.1,13.6723633 L145.3,20.5723633 L143,13.6723633 L141,13.6723633 L138.7,20.5723633 L136.9,13.6723633 L134,13.6723633 L137.4,24.7723633 L139.7,24.7723633 L142,17.7723633 L144.3,24.7723633 L146.6,24.7723633 L150,13.6723633 L147.1,13.6723633 L147.1,13.6723633 Z M122,21.3723633 L122,9.27236328 L119.2,9.27236328 L119.2,21.5723633 C119.2,23.1723633 120.2,24.7723633 122.4,24.7723633 L124,24.7723633 L124,22.4723633 L123,22.4723633 C122.3,22.4723633 122,22.0723633 122,21.3723633 Z M41.3,15.6 L42.7,14.2 L39.7,14.2 L39.7,10.7 L38.1,10.7 L38.1,21.8 C38.1,23.4 39,24.7 40.8,24.7 L41.9,24.7 L41.9,23.4 L41.1,23.4 C40.1,23.4 39.6,22.8 39.6,21.8 L39.6,15.7 L41.3,15.7 L41.3,15.6 L41.3,15.6 Z" id="Shape" fill="#222426" fill-rule="nonzero"></path>
        <polygon id="Shape" fill="#BCBBBB" fill-rule="nonzero" points="21 27 21 19 24 19 24 30 0 30 0 19 3 19 3 27"></polygon>
        <path d="M5.40209961,19.1010742 L18.9631348,21.0610352 L19.1269531,18.6804199 L5.87133789,16.1340332 L5.40209961,19.1010742 Z M7.2,12.3 L19.2,17.9 L20.3,15.5 L8.3,9.9 L7.2,12.3 L7.2,12.3 Z M10.6,6.4 L20.8,14.9 L22.5,12.9 L12.3,4.4 L10.6,6.4 L10.6,6.4 Z M17.1,0.2 L15,1.8 L22.9,12.4 L25,10.8 L17.1,0.2 L17.1,0.2 Z M5,25 L19,25 L19,22 L5,22 L5,25 Z" id="Shape" fill="#F48024" fill-rule="nonzero"></path>
    </g>
</svg>