<?xml version="1.0" encoding="UTF-8"?>
<svg width="122px" height="16px" viewBox="0 0 122 16" version="1.1" xmlns="http://www.w3.org/2000/svg" xmlns:xlink="http://www.w3.org/1999/xlink">
    <!-- Generator: Sketch 51.2 (57519) - http://www.bohemiancoding.com/sketch -->
    <title>LogoWordmark</title>
    <desc>Created with Sketch.</desc>
    <defs></defs>
    <g id="LogoWordmark" stroke="none" stroke-width="1" fill="none" fill-rule="evenodd">
        <path d="M5.9,9.6 L4.2,9.4 C2.9,9.3 2.3,8.8 2.3,7.8 C2.3,6.7 3.1,6 4.7,6 C5.8,6 6.8,6.3 7.5,6.8 L8.5,5.8 C7.5,5 6.2,4.7 4.7,4.7 C2.4,4.7 0.8,5.9 0.8,7.8 C0.8,9.6 1.9,10.5 4,10.7 L5.8,10.9 C7,11 7.6,11.5 7.6,12.5 C7.6,13.8 6.5,14.4 4.8,14.4 C3.5,14.4 2.3,14.1 1.5,13.2 L0.5,14.2 C1.7,15.3 3.1,15.7 4.9,15.7 C7.5,15.7 9.2,14.5 9.2,12.5 C9,10.5 7.7,9.8 5.9,9.6 L5.9,9.6 Z M19.2,4.8 C17.5,4.8 16.4,5.1 15.5,6.3 L16.5,7.3 C17.1,6.4 17.8,6.1 19.2,6.1 C21.1,6.1 21.9,6.9 21.9,8.4 L21.9,9.4 L18.7,9.4 C16.3,9.4 15,10.6 15,12.5 C15,13.3 15.3,14.1 15.8,14.7 C16.5,15.4 17.3,15.7 18.8,15.7 C20.2,15.7 21,15.4 21.9,14.6 L21.9,15.6 L23.5,15.6 L23.5,8.4 C23.4,6 22,4.8 19.2,4.8 L19.2,4.8 Z M21.9,11.8 C21.9,12.7 21.7,13.3 21.4,13.6 C20.7,14.2 19.9,14.3 19,14.3 C17.3,14.3 16.6,13.7 16.6,12.5 C16.6,11.3 17.4,10.6 19,10.6 L22,10.6 L21.9,11.8 L21.9,11.8 Z M29.5,6.2 C30.5,6.2 31.1,6.5 31.9,7.4 L32.9,6.4 C31.8,5.2 30.9,4.8 29.4,4.8 C26.7,4.8 24.7,6.6 24.7,10.3 C24.7,13.9 26.7,15.8 29.4,15.8 C30.9,15.8 31.8,15.4 32.9,14.2 L31.8,13.2 C31,14.1 30.4,14.4 29.4,14.4 C28.4,14.4 27.5,14 26.9,13.2 C26.4,12.5 26.2,11.7 26.2,10.3 C26.2,9 26.4,8.1 26.9,7.4 C27.6,6.6 28.5,6.2 29.5,6.2 Z M42.9,4.9 L41,4.9 L36.2,9.6 L36.2,0.1 L34.6,0.1 L34.6,15.5 L36.2,15.5 L36.2,11.6 L38.1,9.7 L41.7,15.5 L43.6,15.5 L39.2,8.6 L42.9,4.9 Z M50.2,4.54904785 C48.6,4.54904785 47.5,5.14904785 46.8,5.94904785 C45.8,6.94904785 45.5,8.24904785 45.5,10.2490479 C45.5,12.2490479 45.8,13.5490479 46.8,14.5490479 C47.5,15.2490479 48.6,15.9490479 50.2,15.9490479 C51.8,15.9490479 53,15.3490479 53.6,14.5490479 C54.6,13.5490479 54.9,12.2490479 54.9,10.2490479 C54.9,8.24904785 54.6,6.94904785 53.6,5.94904785 C53,5.14904785 51.9,4.54904785 50.2,4.54904785 Z M51.5,12.8490479 C51.2,13.1490479 50.8,13.3490479 50.2,13.3490479 C49.6,13.3490479 49.2,13.1490479 48.9,12.8490479 C48.3,12.2490479 48.3,11.2490479 48.3,10.1490479 C48.3,8.94904785 48.4,8.04904785 48.9,7.44904785 C49.2,7.14904785 49.6,6.94904785 50.2,6.94904785 C50.8,6.94904785 51.2,7.14904785 51.5,7.44904785 C52.1,8.04904785 52.1,8.94904785 52.1,10.1490479 C52.2,11.3490479 52.1,12.3490479 51.5,12.8490479 Z M60.1,11.5490479 L57.8,4.64904785 L54.9,4.64904785 L59,15.7490479 L61.2,15.7490479 L65.3,4.64904785 L62.3,4.64904785 L60.1,11.5490479 Z M69.9,4.54904785 C67,4.54904785 65.1,6.54904785 65.1,10.2490479 C65.1,14.7490479 67.6,15.9490479 70.2,15.9490479 C72.2,15.9490479 73.3,15.3490479 74.4,14.2490479 L72.7,12.6490479 C72,13.3490479 71.4,13.6490479 70.2,13.6490479 C68.6,13.6490479 67.8,12.6490479 67.8,11.1490479 L74.7,11.1490479 L74.7,9.94904785 C74.7,6.74904785 73,4.54904785 69.9,4.54904785 Z M67.8,9.14904785 C67.8,8.64904785 67.9,8.34904785 68.1,7.94904785 C68.4,7.24904785 69,6.74904785 70,6.74904785 C70.9,6.74904785 71.6,7.24904785 71.9,7.94904785 C72.1,8.34904785 72.1,8.64904785 72.2,9.14904785 L67.8,9.14904785 Z M78.8,4.64904785 L76.1,4.64904785 L76.1,15.7490479 L78.9,15.7490479 L78.9,9.04904785 C78.9,7.64904785 79.8,7.04904785 80.7,7.04904785 C81.4,7.04904785 81.7,7.24904785 82.2,7.74904785 L84.3,5.64904785 C83.5,4.84904785 82.8,4.64904785 81.7,4.64904785 C80.4,4.54904785 79.4,5.04904785 78.8,5.74904785 L78.8,4.64904785 Z M85.1,15.7490479 L87.9,15.7490479 L87.9,6.94904785 L89.9,6.94904785 L89.9,4.84904785 L87.9,4.84904785 L87.9,3.64904785 C87.9,3.04904785 88.2,2.64904785 88.9,2.64904785 L90,2.64904785 L90,0.349047852 L88.4,0.349047852 C86.1,0.349047852 85.1,1.94904785 85.1,3.44904785 L85.1,15.7490479 Z M101.3,4.54904785 C99.7,4.54904785 98.6,5.14904785 97.9,5.94904785 C96.9,6.94904785 96.6,8.24904785 96.6,10.2490479 C96.6,12.2490479 96.9,13.5490479 97.9,14.5490479 C98.6,15.2490479 99.7,15.9490479 101.3,15.9490479 C102.9,15.9490479 104.1,15.3490479 104.7,14.5490479 C105.7,13.5490479 106,12.2490479 106,10.2490479 C106,8.24904785 105.7,6.94904785 104.7,5.94904785 C104.1,5.14904785 102.9,4.54904785 101.3,4.54904785 Z M102.6,12.8490479 C102.3,13.1490479 101.9,13.3490479 101.3,13.3490479 C100.7,13.3490479 100.3,13.1490479 100,12.8490479 C99.4,12.2490479 99.4,11.2490479 99.4,10.1490479 C99.4,8.94904785 99.5,8.04904785 100,7.44904785 C100.3,7.14904785 100.7,6.94904785 101.3,6.94904785 C101.9,6.94904785 102.3,7.14904785 102.6,7.44904785 C103.2,8.04904785 103.2,8.94904785 103.2,10.1490479 C103.2,11.3490479 103.2,12.3490479 102.6,12.8490479 Z M117.3,11.5490479 L115,4.64904785 L113,4.64904785 L110.7,11.5490479 L108.9,4.64904785 L106,4.64904785 L109.4,15.7490479 L111.7,15.7490479 L114,8.74904785 L116.3,15.7490479 L118.6,15.7490479 L122,4.64904785 L119.1,4.64904785 L117.3,11.5490479 Z M94,12.3490479 L94,0.249047852 L91.2,0.249047852 L91.2,12.5490479 C91.2,14.1490479 92.2,15.7490479 94.4,15.7490479 L96,15.7490479 L96,13.4490479 L95,13.4490479 C94.3,13.4490479 94,13.0490479 94,12.3490479 Z M13.3,6.6 L14.7,5.2 L11.7,5.2 L11.7,1.7 L10.1,1.7 L10.1,12.8 C10.1,14.4 11,15.7 12.8,15.7 L13.9,15.7 L13.9,14.4 L13.1,14.4 C12.1,14.4 11.6,13.8 11.6,12.8 L11.6,6.7 L13.3,6.7 L13.3,6.6 L13.3,6.6 Z" id="Shape" fill="#222426" fill-rule="nonzero"></path>
    </g>
</svg>