<?xml version="1.0" encoding="UTF-8"?>
<svg width="18px" height="18px" viewBox="0 0 18 18" version="1.1" xmlns="http://www.w3.org/2000/svg" xmlns:xlink="http://www.w3.org/1999/xlink">
    <!-- Generator: Sketch 51.2 (57519) - http://www.bohemiancoding.com/sketch -->
    <title>LogoGlyphXxs</title>
    <desc>Created with Sketch.</desc>
    <defs></defs>
    <g id="LogoGlyphXxs" stroke="none" stroke-width="1" fill="none" fill-rule="evenodd">
        <polygon id="Combined-Shape" fill="#9EA3A9" fill-rule="nonzero" points="13 15 13 12 14 12 14 16 3 16 3 12 4 12 4 15"></polygon>
        <path d="M10.9323728,2.06440745 L14.9414062,7.56115723 L14.1405029,8.17980957 L10.0212402,2.7331543 L10.9323728,2.06440745 Z M7.83483887,5.1697998 L8.61279966,4.32048975 L13.7528076,8.59216309 L13.0345459,9.37780762 L7.83483887,5.1697998 Z M6.11816406,8.09362793 L6.6861866,7.01196043 L12.7601318,9.89941406 L12.3060303,10.8410645 L6.11816406,8.09362793 Z M5.34545898,11.0996094 L5.56420898,9.9864502 L12.166626,11.4111328 L12.0202637,12.3717041 L5.34545898,11.0996094 Z" id="Combined-Shape" fill="#F27009"></path>
        <polygon id="Shape" fill="#F27009" points="5 14 12 14 12 13 5 13"></polygon>
    </g>
</svg>