<?xml version="1.0" encoding="UTF-8"?>
<svg width="62px" height="8px" viewBox="0 0 62 8" version="1.1" xmlns="http://www.w3.org/2000/svg" xmlns:xlink="http://www.w3.org/1999/xlink">
    <!-- Generator: Sketch 51.2 (57519) - http://www.bohemiancoding.com/sketch -->
    <title>LogoEnterpriseWordmarkSm</title>
    <desc>Created with Sketch.</desc>
    <defs></defs>
    <g id="LogoEnterpriseWordmarkSm" stroke="none" stroke-width="1" fill="none" fill-rule="evenodd">
        <path d="M60.7130732,1.62939726 L57.4154074,1.62939726 L57.4154074,3.19494581 L60.1863761,3.19494581 C60.3451162,3.19494581 60.4733029,3.32243562 60.4733029,3.48031162 L60.4733029,4.46654114 C60.4733029,4.62441714 60.3451162,4.75190696 60.1863761,4.75190696 L57.4154074,4.75190696 L57.4154074,6.37954899 L60.7130732,6.37954899 C60.8718123,6.37954899 61,6.50769938 61,6.6649148 L61,7.66171343 C61,7.81892886 60.8718123,7.94707924 60.7130732,7.94707924 L56.013319,7.94707924 C55.8545789,7.94707924 55.7263922,7.81892886 55.7263922,7.66171343 L55.7263922,0.347232817 C55.7263922,0.189356777 55.8545789,0.0618669582 56.013319,0.0618669582 L60.7130732,0.0618669582 C60.8718123,0.0618669582 61,0.189356777 61,0.347232817 L61,1.34403145 C61,1.50190744 60.8718123,1.62939726 60.7130732,1.62939726 Z M53.9468234,3.85977071 C54.3993388,4.25241279 54.6401933,4.84434548 54.6401933,5.5702384 C54.6401933,7.02334406 53.4637864,8 51.7121138,8 C50.4753267,8 49.6366471,7.68588633 48.9074466,6.95009487 C48.7966405,6.83791142 48.7979675,6.65775799 48.9107646,6.54689434 L49.6538985,5.8183618 C49.7653685,5.70881796 49.9458439,5.70947787 50.057314,5.81968161 C50.4965591,6.25653717 50.9815862,6.43471089 51.7326822,6.43471089 C52.1918327,6.43471089 52.9628341,6.32582695 52.9628341,5.60059393 C52.9628341,5.42967914 52.9296584,5.1960736 52.7697524,5.05353462 C52.639704,4.93211253 52.5215988,4.8733812 52.1155293,4.81596966 L51.2489821,4.69256787 C50.6047112,4.60414091 50.0692572,4.37647449 49.7003443,4.03398501 C49.2836586,3.64332264 49.0726616,3.10352226 49.0726616,2.42976164 C49.0726616,0.976655985 50.1754192,0 51.8156217,0 C52.8659613,0 53.606441,0.271220041 54.2918498,0.908026109 C54.3489118,0.960818322 54.3814235,1.03472742 54.3827505,1.11193603 C54.3834145,1.18980454 54.3528929,1.26503345 54.2971579,1.31914547 L53.5852086,2.01732248 C53.4750656,2.12620642 53.2979083,2.12686632 53.1857742,2.02062199 C52.8274775,1.68011222 52.4081377,1.53493364 51.7844361,1.53493364 C51.1242418,1.53493364 50.7294515,1.85432652 50.7294515,2.38884768 C50.7294515,2.5920977 50.7898316,2.74387531 50.9125809,2.85341915 C51.0552365,2.97946056 51.3086983,3.08042567 51.5900275,3.12265944 L52.424726,3.24606123 C53.1393283,3.35362537 53.5799005,3.53113918 53.9468234,3.85977071 Z M48.178658,0.0618669582 C48.3367421,0.0618669582 48.4643991,0.188829933 48.4643991,0.34605356 L48.4643991,7.63030753 C48.4643991,7.78687327 48.3367421,7.91449408 48.178658,7.91449408 L47.0681047,7.91449408 C46.9100206,7.91449408 46.7823637,7.78687327 46.7823637,7.63030753 L46.7823637,0.34605356 C46.7823637,0.188829933 46.9100206,0.0618669582 47.0681047,0.0618669582 L48.178658,0.0618669582 Z M44.2348113,4.60296671 L45.7823506,7.55852765 C45.8290235,7.64738679 45.825023,7.75415038 45.7730161,7.83969387 C45.7210091,7.92523737 45.6276634,7.97762447 45.5269829,7.97762447 L44.2201427,7.97762447 C44.1114621,7.97762447 44.0114488,7.91595358 43.9627752,7.81913691 L42.4872464,4.8834698 L41.5531219,4.8834698 L41.5531219,7.69115323 C41.5531219,7.84897766 41.4244386,7.97762447 41.2650836,7.97762447 L40.1456021,7.97762447 C39.9862471,7.97762447 39.8575638,7.84897766 39.8575638,7.69115323 L39.8575638,0.348338249 C39.8575638,0.189850638 39.9862471,0.0618669582 40.1456021,0.0618669582 L43.0073154,0.0618669582 C44.5261838,0.0618669582 45.5869909,1.06186384 45.5869909,2.49355693 C45.5869909,3.46039738 45.0775899,4.24156201 44.2348113,4.60296671 Z M42.9239706,3.36225445 C43.2146758,3.36225445 43.8907656,3.27803721 43.8907656,2.50416698 C43.8907656,1.95973899 43.5293843,1.63546946 42.9239706,1.63546946 L41.5531219,1.63546946 L41.5531219,3.36225445 L42.9239706,3.36225445 Z M36.0029005,0.0618669582 C37.5606108,0.0618669582 38.648081,1.09314746 38.648081,2.56961826 C38.648081,4.04675056 37.5606108,5.07803102 36.0029005,5.07803102 L34.6141306,5.07803102 L34.6141306,7.67243894 C34.6141306,7.82987624 34.485762,7.95820748 34.3267989,7.95820748 L33.2100625,7.95820748 C33.0510993,7.95820748 32.9227307,7.82987624 32.9227307,7.67243894 L32.9227307,0.347635548 C32.9227307,0.1895367 33.0510993,0.0618669582 33.2100625,0.0618669582 L36.0029005,0.0618669582 Z M35.9410439,3.49770452 C36.5868756,3.49770452 36.9566821,3.15967738 36.9566821,2.56961826 C36.9566821,1.98220515 36.5768983,1.63160948 35.9410439,1.63160948 L34.6141306,1.63160948 L34.6141306,3.49770452 L35.9410439,3.49770452 Z M30.2987731,4.56410659 L31.8324079,7.49437555 C31.8786814,7.58247428 31.8747151,7.68832425 31.8231532,7.77313572 C31.7715914,7.85794718 31.6790444,7.90988598 31.5792265,7.90988598 L30.2835694,7.90988598 C30.1758179,7.90988598 30.0766605,7.84874283 30.0284043,7.75275467 L28.5655013,4.8422093 L27.6393714,4.8422093 L27.6393714,7.6258662 C27.6393714,7.78234006 27.5117884,7.90988598 27.353798,7.90988598 L26.2438954,7.90988598 C26.0859051,7.90988598 25.9583221,7.78234006 25.9583221,7.6258662 L25.9583221,0.345886793 C25.9583221,0.188755428 26.0859051,0.0618669582 26.2438954,0.0618669582 L29.0811199,0.0618669582 C30.5869907,0.0618669582 31.6387209,1.05330645 31.6387209,2.47274793 C31.6387209,3.43131471 31.1336791,4.20579459 30.2987731,4.56410659 Z M28.9984892,3.33401164 C29.2867068,3.33401164 29.957011,3.25051508 29.957011,2.48326718 C29.957011,1.9434981 29.5987221,1.62200348 28.9984892,1.62200348 L27.6393714,1.62200348 L27.6393714,3.33401164 L28.9984892,3.33401164 Z M24.8724588,0.0618669582 C25.0306897,0.0618669582 25.1584652,0.188947816 25.1584652,0.346317424 L25.1584652,1.33991854 C25.1584652,1.4972881 25.0306897,1.62436896 24.8724588,1.62436896 L21.5860337,1.62436896 L21.5860337,3.18489556 L24.3474522,3.18489556 C24.5056821,3.18489556 24.6334586,3.31197642 24.6334586,3.46934598 L24.6334586,4.45241189 C24.6334586,4.60978145 24.5056821,4.73686231 24.3474522,4.73686231 L21.5860337,4.73686231 L21.5860337,6.35928321 L24.8724588,6.35928321 C25.0306897,6.35928321 25.1584652,6.48702252 25.1584652,6.64373363 L25.1584652,7.63733474 C25.1584652,7.79404585 25.0306897,7.92178516 24.8724588,7.92178516 L20.1877804,7.92178516 C20.0302121,7.92178516 19.901774,7.79404585 19.901774,7.63733474 L19.901774,0.346317424 C19.901774,0.188947816 20.0302121,0.0618669582 20.1877804,0.0618669582 L24.8724588,0.0618669582 Z M18.4684506,0.0618669582 C18.6276925,0.0618669582 18.7562862,0.189760604 18.7562862,0.348136722 L18.7562862,1.34809274 C18.7562862,1.50646881 18.6276925,1.63436246 18.4684506,1.63436246 L16.725446,1.63436246 L16.725446,7.68578616 C16.725446,7.84349957 16.5968523,7.97205588 16.4376103,7.97205588 L15.3189154,7.97205588 C15.1596735,7.97205588 15.0310798,7.84349957 15.0310798,7.68578616 L15.0310798,1.63436246 L13.2880752,1.63436246 C13.1288333,1.63436246 13.0002396,1.50646881 13.0002396,1.34809274 L13.0002396,0.348136722 C13.0002396,0.189760604 13.1288333,0.0618669582 13.2880752,0.0618669582 L18.4684506,0.0618669582 Z M11.8003344,0.0618669582 C11.9594277,0.0618669582 12.0879015,0.189641317 12.0879015,0.347869717 L12.0879015,7.67867531 C12.0879015,7.83624162 11.9594277,7.96467802 11.8003344,7.96467802 L10.7752107,7.96467802 C10.6786888,7.96467802 10.5881584,7.91568682 10.5349053,7.83557958 L7.65790237,3.47734845 L7.65790237,7.67867531 C7.65790237,7.83624162 7.52876342,7.96467802 7.36967004,7.96467802 L6.25201851,7.96467802 C6.09292512,7.96467802 5.96445135,7.83624162 5.96445135,7.67867531 L5.96445135,0.347869717 C5.96445135,0.189641317 6.09292512,0.0618669582 6.25201851,0.0618669582 L7.27647698,0.0618669582 C7.37366403,0.0618669582 7.46352828,0.11019612 7.51678146,0.190965404 L10.3944505,4.54059001 L10.3944505,0.347869717 C10.3944505,0.189641317 10.5235894,0.0618669582 10.6820176,0.0618669582 L11.8003344,0.0618669582 Z M0.285676724,0.0618669582 L4.96495566,0.0618669582 C5.12300415,0.0618669582 5.25063239,0.188801345 5.25063239,0.345989571 L5.25063239,1.33844547 C5.25063239,1.49563365 5.12300415,1.62256804 4.96495566,1.62256804 L1.68231849,1.62256804 L1.68231849,3.181296 L4.44055419,3.181296 C4.59860171,3.181296 4.72623092,3.30823038 4.72623092,3.46541856 L4.72623092,4.44735141 C4.72623092,4.60453958 4.59860171,4.73147397 4.44055419,4.73147397 L1.68231849,4.73147397 L1.68231849,6.35202489 L4.96495566,6.35202489 C5.12300415,6.35202489 5.25063239,6.47961697 5.25063239,6.63614746 L5.25063239,7.62860336 C5.25063239,7.78513385 5.12300415,7.91272593 4.96495566,7.91272593 L0.285676724,7.91272593 C0.127629203,7.91272593 0,7.78513385 0,7.62860336 L0,0.345989571 C0,0.188801345 0.127629203,0.0618669582 0.285676724,0.0618669582 Z" id="Shape" fill="#F48024"></path>
    </g>
</svg>