<?xml version="1.0" encoding="UTF-8"?>
<svg width="150px" height="35px" viewBox="0 0 150 35" version="1.1" xmlns="http://www.w3.org/2000/svg" xmlns:xlink="http://www.w3.org/1999/xlink">
    <!-- Generator: Sketch 51.2 (57519) - http://www.bohemiancoding.com/sketch -->
    <title>LogoSE</title>
    <desc>Created with Sketch.</desc>
    <defs></defs>
    <g id="LogoSE" stroke="none" stroke-width="1" fill="none" fill-rule="evenodd">
        <path d="M43.4577068,30.8754071 L40.6041074,26.0276087 L39.096973,27.788192 L39.096973,30.8754071 L37.0474075,30.8754071 L37.0474075,16.123885 L39.096973,16.123885 L39.096973,25.2195243 L43.0560332,20.3713719 L45.5474397,20.3713719 L42.0109951,24.4942659 L45.989624,30.8754071 L43.4577068,30.8754071 Z M32.3875116,31 C30.096942,31 27.8461963,29.5494832 27.8461963,25.6131247 C27.8461963,21.6767662 30.096942,20.2471329 32.3875116,20.2471329 C33.7943993,20.2471329 34.7790147,20.6616169 35.7433747,21.7181792 L34.3368304,23.1265751 C33.6938092,22.4020246 33.1915455,22.1323092 32.3875116,22.1323092 C31.6040764,22.1323092 30.9407999,22.4636132 30.4986156,23.0649865 C30.0564313,23.6447685 29.8957618,24.3909104 29.8957618,25.6131247 C29.8957618,26.8353391 30.0564313,27.6020105 30.4986156,28.1821464 C30.9407999,28.7828118 31.6040764,29.1141158 32.3875116,29.1141158 C33.1915455,29.1141158 33.6938092,28.8451083 34.3368304,28.1198499 L35.7433747,29.5080702 C34.7790147,30.5646326 33.7943993,31 32.3875116,31 Z M24.1943993,26.2346737 L21.8028963,26.2346737 C20.5971887,26.2346737 19.9744229,26.7939261 19.9744229,27.746779 C19.9744229,28.6999858 20.5570213,29.2387088 21.8434069,29.2387088 C22.6268422,29.2387088 23.2097839,29.1764123 23.752215,28.6380433 C24.0536419,28.3272689 24.1943993,27.8299589 24.1943993,27.0838171 L24.1943993,26.2346737 Z M24.2345667,30.8754071 L24.2345667,29.9225542 C23.4909555,30.6892255 22.787855,31 21.5217247,31 C20.2555945,31 19.4117365,30.6892255 18.7889707,30.0464392 C18.2664517,29.4871867 17.9849368,28.6794563 17.9849368,27.788192 C17.9849368,26.0276087 19.170389,24.7632734 21.5014694,24.7632734 L24.1943993,24.7632734 L24.1943993,24.0178394 C24.1943993,22.6919156 23.5513782,22.0494832 21.963909,22.0494832 C20.8385362,22.0494832 20.2957618,22.3188447 19.7334187,23.0649865 L18.3869538,21.7595922 C19.3513138,20.5993204 20.3561845,20.2471329 22.0442438,20.2471329 C24.8374204,20.2471329 26.2439648,21.4693473 26.2439648,23.8518335 L26.2439648,30.8754071 L24.2345667,30.8754071 Z M14.9710113,30.8754071 C13.0618599,30.8754071 12.1774913,29.4666572 12.1774913,27.9541979 L12.1774913,22.1737222 L11.0122944,22.1737222 L11.0122944,20.5579074 L12.1774913,20.5579074 L12.1774913,17.3673368 L14.2274001,17.3673368 L14.2274001,20.5579074 L16.1966308,20.5579074 L16.1966308,22.1737222 L14.2274001,22.1737222 L14.2274001,27.8504885 C14.2274001,28.6171598 14.5889063,29.0727028 15.3527729,29.0727028 L16.1966308,29.0727028 L16.1966308,30.8754071 L14.9710113,30.8754071 Z M5.06417766,31 C2.91367879,31 1.36672031,30.4818066 0,29.0525273 L1.44671173,27.581127 C2.49174981,28.6585728 3.63737796,28.9902308 5.10400172,28.9902308 C6.97298573,28.9902308 8.05819118,28.1612629 8.05819118,26.7316296 C8.05819118,26.0895512 7.87726639,25.5508283 7.49550477,25.1986408 C7.13365519,24.8464533 6.77214891,24.7016848 5.92794765,24.5770919 L4.24023173,24.3286139 C3.07469156,24.162608 2.15015556,23.748478 1.52738977,23.1474586 C0.823945929,22.4636132 0.482351679,21.5316438 0.482351679,20.3299589 C0.482351679,17.7609373 2.29091299,16 5.26501448,16 C7.15391052,16 8.48012016,16.4973099 9.70608304,17.6781113 L8.31910739,19.0868611 C7.43508207,18.2164802 6.41029932,17.9474727 5.20459178,17.9474727 C3.51653256,17.9474727 2.59233988,18.9417386 2.59233988,20.2471329 C2.59233988,20.7855019 2.75300933,21.2622823 3.13477095,21.6144698 C3.49662053,21.9457738 4.07921897,22.1946057 4.74249544,22.2983152 L6.37013196,22.5467931 C7.69634159,22.7538581 8.43995279,23.0855161 9.04280657,23.6447685 C9.82658513,24.3494974 10.2083467,25.4057058 10.2083467,26.6696871 C10.2083467,29.3834773 8.05819118,31 5.06417766,31 Z" id="Fill-1" fill="#020303"></path>
        <path d="M133.136923,23.3773796 C132.84644,22.7375863 132.244195,22.2625027 131.330897,22.2625027 C130.417599,22.2625027 129.815354,22.7375863 129.524517,23.3773796 C129.358882,23.7695792 129.296458,24.0587912 129.275532,24.5331694 L133.386262,24.5331694 C133.36569,24.0587912 133.303267,23.7695792 133.136923,23.3773796 Z M129.275532,26.3707235 C129.275532,27.7540032 130.127117,28.765187 131.642305,28.765187 C132.825514,28.765187 133.407188,28.4354148 134.092073,27.7540032 L135.732109,29.343611 C134.631895,30.4376787 133.572823,31.0365591 131.621734,31.0365591 C129.068045,31.0365591 126.618277,29.8800639 126.618277,25.5242494 C126.618277,22.014909 128.528224,20.0331016 131.330897,20.0331016 C134.341412,20.0331016 136.043517,22.2212371 136.043517,25.1733154 L136.043517,26.3707235 L129.275532,26.3707235 Z M119.64316,22.4483743 C118.044622,22.4483743 117.878632,23.8108448 117.878632,25.2353902 C117.878632,26.6599355 118.044622,28.0432152 119.64316,28.0432152 C121.242053,28.0432152 121.428614,26.6599355 121.428614,25.2353902 C121.428614,23.8108448 121.242053,22.4483743 119.64316,22.4483743 Z M119.373249,34.9797175 C117.712642,34.9797175 116.570931,34.6492399 115.44979,33.5756286 L117.131323,31.8826805 C117.733214,32.4607517 118.335459,32.7086981 119.249112,32.7086981 C120.868221,32.7086981 121.428614,31.5730121 121.428614,30.4789443 L121.428614,29.3848766 C120.722803,30.1692759 119.913425,30.4581352 118.854354,30.4581352 C117.795637,30.4581352 116.882339,30.1072011 116.280094,29.5086734 C115.262874,28.4971369 115.179879,27.1142099 115.179879,25.2353902 C115.179879,23.3565704 115.262874,21.9940999 116.280094,20.9825634 C116.882339,20.3840357 117.816563,20.0331016 118.87528,20.0331016 C120.016992,20.0331016 120.7643,20.34277 121.511964,21.168435 L121.511964,20.1568984 L124.127721,20.1568984 L124.127721,30.5202099 C124.127721,33.100545 122.279844,34.9797175 119.373249,34.9797175 Z M110.031359,30.9124096 L110.031359,24.4097252 C110.031359,22.9439143 109.097489,22.4483743 108.24626,22.4483743 C107.39503,22.4483743 106.43988,22.9439143 106.43988,24.4097252 L106.43988,30.9124096 L103.741127,30.9124096 L103.741127,20.1568984 L106.378165,20.1568984 L106.378165,21.1479785 C107.083622,20.4044921 108.08027,20.0331016 109.076563,20.0331016 C110.156206,20.0331016 111.028362,20.3840357 111.630252,20.9825634 C112.502053,21.8494939 112.730466,22.8610304 112.730466,24.0379821 L112.730466,30.9124096 L110.031359,30.9124096 Z M98.1364895,26.3707235 L95.9981298,26.3707235 C95.0224079,26.3707235 94.4829411,26.8246452 94.4829411,27.5885881 C94.4829411,28.3320745 94.9809105,28.8272618 96.0396273,28.8272618 C96.7872906,28.8272618 97.2646885,28.765187 97.7420865,28.3112653 C98.0325686,28.0432152 98.1364895,27.6093972 98.1364895,26.9487948 L98.1364895,26.3707235 Z M98.198913,30.9124096 L98.198913,29.9834043 C97.4721758,30.7060815 96.7872906,31.01575 95.541658,31.01575 C94.3165967,31.01575 93.4238697,30.7060815 92.780482,30.0662882 C92.1991631,29.4674078 91.8877549,28.6004773 91.8877549,27.6506628 C91.8877549,25.9372582 93.0709641,24.5331694 95.5831554,24.5331694 L98.1364895,24.5331694 L98.1364895,23.9967164 C98.1364895,22.8197648 97.5555253,22.3037683 96.1229768,22.3037683 C95.0848314,22.3037683 94.6074335,22.551362 94.046686,23.191508 L92.3236554,21.5190163 C93.3823722,20.3632265 94.4205176,20.0331016 96.2268978,20.0331016 C99.2576298,20.0331016 100.835597,21.3126882 100.835597,23.8313013 L100.835597,30.9124096 L98.198913,30.9124096 Z M87.0509974,30.9124096 L87.0509974,24.3476505 C87.0509974,22.9231052 86.137699,22.4483743 85.2864694,22.4483743 C84.4352398,22.4483743 83.5425127,22.9439143 83.5425127,24.3476505 L83.5425127,30.9124096 L80.8437602,30.9124096 L80.8437602,16.2133874 L83.5425127,16.2133874 L83.5425127,21.1479785 C84.26925,20.4044921 85.1825484,20.0331016 86.137699,20.0331016 C88.5041173,20.0331016 89.7501046,21.6844314 89.7501046,23.9554508 L89.7501046,30.9124096 L87.0509974,30.9124096 Z M75.1766992,31.0365591 C73.0177681,31.0365591 70.339587,29.8800639 70.339587,25.5242494 C70.339587,21.168435 73.0177681,20.0331016 75.1766992,20.0331016 C76.6716712,20.0331016 77.7924568,20.487376 78.7472527,21.4781034 L76.9206558,23.2948484 C76.3599083,22.695968 75.8825104,22.4483743 75.1766992,22.4483743 C74.5333115,22.4483743 74.0349875,22.6755115 73.6402298,23.1502424 C73.2252553,23.6662389 73.0383395,24.3889161 73.0383395,25.5242494 C73.0383395,26.6599355 73.2252553,27.4030692 73.6402298,27.9190657 C74.0349875,28.3941492 74.5333115,28.6209337 75.1766992,28.6209337 C75.8825104,28.6209337 76.3599083,28.3733401 76.9206558,27.7748124 L78.7472527,29.5707482 C77.7924568,30.5614755 76.6716712,31.0365591 75.1766992,31.0365591 Z M66.2916356,30.9124096 L64.2986943,27.6919284 L62.3263244,30.9124096 L59.0877504,30.9124096 L62.8246484,25.4212618 L59.2331688,20.1568984 L62.4717428,20.1568984 L64.2986943,23.2327736 L66.1462172,20.1568984 L69.3847911,20.1568984 L65.7933116,25.4212618 L69.5302095,30.9124096 L66.2916356,30.9124096 Z M48.0022583,30.9124096 L48.0022583,16.2133874 L57.7389062,16.2133874 L57.7389062,18.7736187 L50.8879266,18.7736187 L50.8879266,22.2212371 L56.7216868,22.2212371 L56.7216868,24.7811157 L50.8879266,24.7811157 L50.8879266,28.3525309 L57.7389062,28.3525309 L57.7389062,30.9124096 L48.0022583,30.9124096 Z" id="Fill-3" fill="#205196"></path>
        <path d="M150,3 L135,3 L135,2.5 C135,1.19366667 136.209659,0 137.5,0 L147.5,0 C148.791023,0 150,1.19366667 150,2.5 L150,3 Z" id="Fill-1" fill="#8FD8F7"></path>
        <path d="M135,12 L135,12.5 C135,13.8063333 136.209659,15 137.5,15 L144,15 L144,18 L147,15 L147.5,15 C148.791023,15 150,13.8063333 150,12.5 L150,12 L135,12 Z" id="Path" fill="#155397"></path>
        <polygon id="Path" fill="#2D6DB5" points="135 8 135 11 150 11 150 8"></polygon>
        <polygon id="Path" fill="#46A2D9" points="135 4 135 7 150 7 150 4"></polygon>
    </g>
</svg>