<?xml version="1.0" encoding="UTF-8"?>
<svg width="187px" height="37px" viewBox="0 0 187 37" version="1.1" xmlns="http://www.w3.org/2000/svg" xmlns:xlink="http://www.w3.org/1999/xlink">
    <!-- Generator: Sketch 52.5 (67469) - http://www.bohemiancoding.com/sketch -->
    <title>LogoMd</title>
    <desc>Created with Sketch.</desc>
    <g id="LogoMd" stroke="none" stroke-width="1" fill="none" fill-rule="evenodd">
        <path d="M42,23.004195 L39.8,22.804195 C38.1,22.704195 37.5,22.004195 37.5,20.804195 C37.5,19.404195 38.5,18.604195 40.5,18.604195 C41.8,18.504195 43.1,18.904195 44.1,19.704195 L45.4,18.404195 C44,17.404195 42.3,16.904195 40.6,17.004195 C37.7,17.004195 35.7,18.504195 35.7,20.904195 C35.7,23.104195 37.1,24.304195 39.7,24.504195 L41.9,24.704195 C43.5,24.804195 44.1,25.504195 44.1,26.704195 C44.1,28.304195 42.7,29.104195 40.5,29.104195 C38.9,29.204195 37.4,28.604195 36.3,27.504195 L35,28.804195 C36.5,30.204195 38.5,30.804195 40.5,30.704195 C43.7,30.704195 46,29.204195 46,26.604195 C46,24.004195 44.4,23.204195 42,23.004195 L42,23.004195 Z M57.8,16.904195 C55.6,16.904195 54.3,17.304195 53.1,18.804195 L54.4,20.104195 C55.2,19.004195 56.5,18.404195 57.8,18.604195 C60.3,18.604195 61.2,19.604195 61.2,21.504195 L61.2,22.804195 L57.2,22.804195 C54.2,22.804195 52.6,24.304195 52.6,26.704195 C52.6,27.704195 52.9,28.704195 53.6,29.404195 C54.4,30.304195 55.5,30.604195 57.4,30.604195 C58.8,30.704195 60.3,30.204195 61.3,29.204195 L61.3,30.504195 L63.3,30.504195 L63.3,21.404195 C63.2,18.504195 61.4,16.904195 57.8,16.904195 L57.8,16.904195 Z M61.2,25.804195 C61.3,26.604195 61.1,27.504195 60.5,28.104195 C59.7,28.804195 58.6,29.104195 57.5,29.004195 C55.4,29.004195 54.4,28.304195 54.4,26.704195 C54.4,25.104195 55.4,24.304195 57.4,24.304195 L61.2,24.304195 L61.2,25.804195 L61.2,25.804195 Z M70.9,18.704195 C72.1,18.704195 73.3,19.204195 74,20.204195 L75.3,18.904195 C74.2,17.604195 72.6,16.804195 70.9,16.904195 C67.5,16.904195 65,19.204195 65,23.804195 C65,28.404195 67.6,30.704195 70.9,30.704195 C72.6,30.804195 74.2,30.004195 75.3,28.704195 L74,27.404195 C73.3,28.404195 72.1,28.904195 70.9,28.904195 C69.7,29.004195 68.5,28.404195 67.8,27.404195 C67.1,26.304195 66.8,25.104195 66.9,23.804195 C66.8,22.504195 67.1,21.304195 67.8,20.204195 C68.5,19.204195 69.7,18.604195 70.9,18.704195 Z M87.7,17.104195 L85.3,17.104195 L79.2,23.004195 L79.2,11.104195 L77.2,11.104195 L77.2,30.504195 L79.2,30.504195 L79.2,25.604195 L81.6,23.204195 L86.1,30.504195 L88.5,30.504195 L82.9,21.904195 L87.7,17.104195 L87.7,17.104195 Z M96.9,16.9417926 C95.3,16.8417926 93.7,17.4417926 92.6,18.6417926 C91.3,19.9417926 91,21.5417926 91,24.0417926 C91,26.5417926 91.3,28.1417926 92.6,29.4417926 C93.7,30.5417926 95.3,31.1417926 96.9,31.1417926 C98.5,31.2417926 100.1,30.6417926 101.2,29.4417926 C102.5,28.1417926 102.8,26.5417926 102.8,24.0417926 C102.8,21.5417926 102.5,19.9417926 101.2,18.6417926 C100.1,17.4417926 98.5,16.8417926 96.9,16.9417926 Z M98.6,27.4417926 C97.7,28.2417926 96.3,28.2417926 95.4,27.4417926 C94.7,26.7417926 94.6,25.4417926 94.6,24.0417926 C94.6,22.6417926 94.7,21.3417926 95.4,20.6417926 C96.3,19.8417926 97.7,19.8417926 98.6,20.6417926 C99.3,21.3417926 99.4,22.5417926 99.4,24.0417926 C99.4,25.5417926 99.3,26.7417926 98.6,27.4417926 Z M112.2,17.0417926 L109.4,25.6417926 L106.6,17.0417926 L102.9,17.0417926 L108.1,31.0417926 L110.8,31.0417926 L115.9,17.0417926 L112.2,17.0417926 Z M121.8,16.9417926 C118.2,16.9417926 115.7,19.5417926 115.7,24.0417926 C115.7,29.7417926 118.9,31.2417926 122.2,31.2417926 C124.2,31.3417926 126.2,30.5417926 127.5,29.0417926 L125.4,26.9417926 C124.6,27.8417926 123.4,28.3417926 122.2,28.2417926 C120.6,28.3417926 119.2,27.1417926 119.1,25.5417926 L119.1,25.1417926 L127.8,25.1417926 L127.8,23.5417926 C127.9,19.7417926 125.7,16.9417926 121.8,16.9417926 L121.8,16.9417926 Z M119.1,22.7417926 C119.1,22.2417926 119.2,21.7417926 119.4,21.2417926 C119.8,20.3417926 120.7,19.8417926 121.7,19.8417926 C122.7,19.7417926 123.6,20.3417926 124,21.2417926 C124.2,21.7417926 124.3,22.2417926 124.3,22.7417926 L119.1,22.7417926 L119.1,22.7417926 Z M132.432861,18.4417926 L132.432861,17.1417926 L129.032861,17.1417926 L129.032861,31.1417926 L132.532861,31.1417926 L132.532861,22.7417926 C132.432861,21.4417926 133.332861,20.3417926 134.632861,20.1417926 L134.832861,20.1417926 C135.532861,20.1417926 136.232861,20.4417926 136.632861,20.9417926 L139.232861,18.3417926 C138.432861,17.4417926 137.132861,16.9417926 135.932861,17.0417926 C134.632861,16.9417926 133.332861,17.4417926 132.432861,18.4417926 L132.432861,18.4417926 Z M140.024268,15.6417926 L140.024268,31.0417926 L143.524268,31.0417926 L143.524268,20.0417926 L146.124268,20.0417926 L146.124268,17.3417926 L143.524268,17.3417926 L143.524268,15.8417926 C143.424268,15.2417926 143.824268,14.6417926 144.424268,14.5417926 L146.024268,14.5417926 L146.024268,11.5417926 L144.024268,11.5417926 C141.924268,11.4417926 140.124268,13.1417926 140.024268,15.3417926 L140.024268,15.6417926 L140.024268,15.6417926 Z M160.3,16.9417926 C158.7,16.8417926 157.1,17.4417926 156,18.6417926 C154.7,19.9417926 154.4,21.5417926 154.4,24.0417926 C154.4,26.5417926 154.7,28.1417926 156,29.4417926 C157.1,30.5417926 158.7,31.1417926 160.3,31.1417926 C161.9,31.2417926 163.5,30.6417926 164.6,29.4417926 C165.9,28.1417926 166.2,26.5417926 166.2,24.0417926 C166.2,21.5417926 165.9,19.9417926 164.6,18.6417926 C163.5,17.4417926 161.9,16.8417926 160.3,16.9417926 L160.3,16.9417926 Z M162,27.4417926 C161.1,28.2417926 159.7,28.2417926 158.8,27.4417926 C158.1,26.7417926 158,25.4417926 158,24.0417926 C158,22.6417926 158.1,21.3417926 158.8,20.6417926 C159.7,19.8417926 161.1,19.8417926 162,20.6417926 C162.7,21.3417926 162.8,22.5417926 162.8,24.0417926 C162.8,25.5417926 162.7,26.7417926 162,27.4417926 Z M182.7,17.0417926 L180.4,25.6417926 L177.5,17.0417926 L175,17.0417926 L172.2,25.7417926 L169.9,17.1417926 L166.2,17.1417926 L170.5,31.1417926 L173.4,31.1417926 L176.3,22.3417926 L179.2,31.1417926 L182.2,31.1417926 L186.5,17.1417926 L182.7,17.0417926 L182.7,17.0417926 Z M151.478662,26.8417926 L151.478662,11.6417926 L147.978662,11.6417926 L147.978662,27.0417926 C147.878662,29.1417926 149.478662,30.9417926 151.578662,31.0417926 L154.078662,31.0417926 L154.078662,28.0417926 L152.778662,28.0417926 C152.178662,28.1417926 151.678662,27.8417926 151.478662,27.2417926 L151.478662,26.8417926 L151.478662,26.8417926 Z M52.703418,17.404195 L49.003418,17.404195 L49.003418,13.004195 L47.003418,13.004195 L47.003418,26.904195 C47.003418,28.904195 48.103418,30.504195 50.403418,30.504195 L51.803418,30.504195 L51.803418,28.804195 L50.803418,28.804195 C49.503418,28.804195 49.003418,28.104195 49.003418,26.804195 L49.003418,19.104195 L50.903418,19.104195 L52.703418,17.404195 L52.703418,17.404195 Z" id="Shape" fill="#222426" fill-rule="nonzero"></path>
        <polygon id="Shape" fill="#BCBBBB" fill-rule="nonzero" points="26 33 26 24 30 24 30 37 0 37 0 24 4 24 4 33"></polygon>
        <path d="M23.0908203,25.9902344 L23.7844238,23.0410156 L7.67993164,19.6870117 L7,23 L23.0908203,25.9902344 Z M9.1,15.2 L24.1,22.2 L25.5,19.2 L10.5,12.2 L9.1,15.2 Z M13.3,7.8 L26,18.4 L28.1,15.9 L15.4,5.3 L13.3,7.8 L13.3,7.8 Z M21.5,0 L18.8,2 L28.7,15.3 L31.4,13.3 L21.5,0 Z M7,30 L23,30 L23,27 L7,27 L7,30 Z" id="Shape" fill="#F48024" fill-rule="nonzero"></path>
    </g>
</svg>