<?xml version="1.0" encoding="UTF-8"?>
<svg width="25px" height="30px" viewBox="0 0 25 30" version="1.1" xmlns="http://www.w3.org/2000/svg" xmlns:xlink="http://www.w3.org/1999/xlink">
    <!-- Generator: Sketch 51.2 (57519) - http://www.bohemiancoding.com/sketch -->
    <title>LogoGlyph</title>
    <desc>Created with Sketch.</desc>
    <defs></defs>
    <g id="LogoGlyph" stroke="none" stroke-width="1" fill="none" fill-rule="evenodd">
        <polygon id="Shape" fill="#BCBBBB" fill-rule="nonzero" points="21 27 21 19 24 19 24 30 0 30 0 19 3 19 3 27"></polygon>
        <path d="M5.40209961,19.1010742 L18.9631348,21.0610352 L19.1269531,18.6804199 L5.87133789,16.1340332 L5.40209961,19.1010742 Z M7.2,12.3 L19.2,17.9 L20.3,15.5 L8.3,9.9 L7.2,12.3 L7.2,12.3 Z M10.6,6.4 L20.8,14.9 L22.5,12.9 L12.3,4.4 L10.6,6.4 L10.6,6.4 Z M17.1,0.2 L15,1.8 L22.9,12.4 L25,10.8 L17.1,0.2 L17.1,0.2 Z M5,25 L19,25 L19,22 L5,22 L5,25 Z" id="Shape" fill="#F48024" fill-rule="nonzero"></path>
    </g>
</svg>