<?xml version="1.0" encoding="UTF-8"?>
<svg width="152px" height="21px" viewBox="0 0 152 21" version="1.1" xmlns="http://www.w3.org/2000/svg" xmlns:xlink="http://www.w3.org/1999/xlink">
    <!-- Generator: Sketch 52.5 (67469) - http://www.bohemiancoding.com/sketch -->
    <title>LogoWordmarkMd</title>
    <desc>Created with Sketch.</desc>
    <g id="LogoWordmarkMd" stroke="none" stroke-width="1" fill="none" fill-rule="evenodd">
        <g id="Shape-2" fill="#222426" fill-rule="nonzero">
            <path d="M7,12.004195 L4.8,11.804195 C3.1,11.704195 2.5,11.004195 2.5,9.80419496 C2.5,8.40419496 3.5,7.60419496 5.5,7.60419496 C6.8,7.50419496 8.1,7.90419496 9.1,8.70419496 L10.4,7.40419496 C9,6.40419496 7.3,5.90419496 5.6,6.00419496 C2.7,6.00419496 0.7,7.50419496 0.7,9.90419496 C0.7,12.104195 2.1,13.304195 4.7,13.504195 L6.9,13.704195 C8.5,13.804195 9.1,14.504195 9.1,15.704195 C9.1,17.304195 7.7,18.104195 5.5,18.104195 C3.9,18.204195 2.4,17.604195 1.3,16.504195 L0,17.804195 C1.5,19.204195 3.5,19.804195 5.5,19.704195 C8.7,19.704195 11,18.204195 11,15.604195 C11,13.004195 9.4,12.204195 7,12.004195 L7,12.004195 Z M22.8,5.90419496 C20.6,5.90419496 19.3,6.30419496 18.1,7.80419496 L19.4,9.10419496 C20.2,8.00419496 21.5,7.40419496 22.8,7.60419496 C25.3,7.60419496 26.2,8.60419496 26.2,10.504195 L26.2,11.804195 L22.2,11.804195 C19.2,11.804195 17.6,13.304195 17.6,15.704195 C17.6,16.704195 17.9,17.704195 18.6,18.404195 C19.4,19.304195 20.5,19.604195 22.4,19.604195 C23.8,19.704195 25.3,19.204195 26.3,18.204195 L26.3,19.504195 L28.3,19.504195 L28.3,10.404195 C28.2,7.50419496 26.4,5.90419496 22.8,5.90419496 L22.8,5.90419496 Z M26.2,14.804195 C26.3,15.604195 26.1,16.504195 25.5,17.104195 C24.7,17.804195 23.6,18.104195 22.5,18.004195 C20.4,18.004195 19.4,17.304195 19.4,15.704195 C19.4,14.104195 20.4,13.304195 22.4,13.304195 L26.2,13.304195 L26.2,14.804195 L26.2,14.804195 Z M35.9,7.70419496 C37.1,7.70419496 38.3,8.20419496 39,9.20419496 L40.3,7.90419496 C39.2,6.60419496 37.6,5.80419496 35.9,5.90419496 C32.5,5.90419496 30,8.20419496 30,12.804195 C30,17.404195 32.6,19.704195 35.9,19.704195 C37.6,19.804195 39.2,19.004195 40.3,17.704195 L39,16.404195 C38.3,17.404195 37.1,17.904195 35.9,17.904195 C34.7,18.004195 33.5,17.404195 32.8,16.404195 C32.1,15.304195 31.8,14.104195 31.9,12.804195 C31.8,11.504195 32.1,10.304195 32.8,9.20419496 C33.5,8.20419496 34.7,7.60419496 35.9,7.70419496 Z M52.7,6.10419496 L50.3,6.10419496 L44.2,12.004195 L44.2,0.104194958 L42.2,0.104194958 L42.2,19.504195 L44.2,19.504195 L44.2,14.604195 L46.6,12.204195 L51.1,19.504195 L53.5,19.504195 L47.9,10.904195 L52.7,6.10419496 L52.7,6.10419496 Z M61.9,5.94179261 C60.3,5.84179261 58.7,6.44179261 57.6,7.64179261 C56.3,8.94179261 56,10.5417926 56,13.0417926 C56,15.5417926 56.3,17.1417926 57.6,18.4417926 C58.7,19.5417926 60.3,20.1417926 61.9,20.1417926 C63.5,20.2417926 65.1,19.6417926 66.2,18.4417926 C67.5,17.1417926 67.8,15.5417926 67.8,13.0417926 C67.8,10.5417926 67.5,8.94179261 66.2,7.64179261 C65.1,6.44179261 63.5,5.84179261 61.9,5.94179261 Z M63.6,16.4417926 C62.7,17.2417926 61.3,17.2417926 60.4,16.4417926 C59.7,15.7417926 59.6,14.4417926 59.6,13.0417926 C59.6,11.6417926 59.7,10.3417926 60.4,9.64179261 C61.3,8.84179261 62.7,8.84179261 63.6,9.64179261 C64.3,10.3417926 64.4,11.5417926 64.4,13.0417926 C64.4,14.5417926 64.3,15.7417926 63.6,16.4417926 Z M77.2,6.04179261 L74.4,14.6417926 L71.6,6.04179261 L67.9,6.04179261 L73.1,20.0417926 L75.8,20.0417926 L80.9,6.04179261 L77.2,6.04179261 Z M86.8,5.94179261 C83.2,5.94179261 80.7,8.54179261 80.7,13.0417926 C80.7,18.7417926 83.9,20.2417926 87.2,20.2417926 C89.2,20.3417926 91.2,19.5417926 92.5,18.0417926 L90.4,15.9417926 C89.6,16.8417926 88.4,17.3417926 87.2,17.2417926 C85.6,17.3417926 84.2,16.1417926 84.1,14.5417926 L84.1,14.1417926 L92.8,14.1417926 L92.8,12.5417926 C92.9,8.74179261 90.7,5.94179261 86.8,5.94179261 L86.8,5.94179261 Z M84.1,11.7417926 C84.1,11.2417926 84.2,10.7417926 84.4,10.2417926 C84.8,9.34179261 85.7,8.84179261 86.7,8.84179261 C87.7,8.74179261 88.6,9.34179261 89,10.2417926 C89.2,10.7417926 89.3,11.2417926 89.3,11.7417926 L84.1,11.7417926 L84.1,11.7417926 Z M97.4328613,7.44179261 L97.4328613,6.14179261 L94.0328613,6.14179261 L94.0328613,20.1417926 L97.5328613,20.1417926 L97.5328613,11.7417926 C97.4328613,10.4417926 98.3328613,9.34179261 99.6328613,9.14179261 L99.8328613,9.14179261 C100.532861,9.14179261 101.232861,9.44179261 101.632861,9.94179261 L104.232861,7.34179261 C103.432861,6.44179261 102.132861,5.94179261 100.932861,6.04179261 C99.6328613,5.94179261 98.3328613,6.44179261 97.4328613,7.44179261 L97.4328613,7.44179261 Z M105.024268,4.64179261 L105.024268,20.0417926 L108.524268,20.0417926 L108.524268,9.04179261 L111.124268,9.04179261 L111.124268,6.34179261 L108.524268,6.34179261 L108.524268,4.84179261 C108.424268,4.24179261 108.824268,3.64179261 109.424268,3.54179261 L111.024268,3.54179261 L111.024268,0.541792614 L109.024268,0.541792614 C106.924268,0.441792614 105.124268,2.14179261 105.024268,4.34179261 L105.024268,4.64179261 L105.024268,4.64179261 Z M125.3,5.94179261 C123.7,5.84179261 122.1,6.44179261 121,7.64179261 C119.7,8.94179261 119.4,10.5417926 119.4,13.0417926 C119.4,15.5417926 119.7,17.1417926 121,18.4417926 C122.1,19.5417926 123.7,20.1417926 125.3,20.1417926 C126.9,20.2417926 128.5,19.6417926 129.6,18.4417926 C130.9,17.1417926 131.2,15.5417926 131.2,13.0417926 C131.2,10.5417926 130.9,8.94179261 129.6,7.64179261 C128.5,6.44179261 126.9,5.84179261 125.3,5.94179261 L125.3,5.94179261 Z M127,16.4417926 C126.1,17.2417926 124.7,17.2417926 123.8,16.4417926 C123.1,15.7417926 123,14.4417926 123,13.0417926 C123,11.6417926 123.1,10.3417926 123.8,9.64179261 C124.7,8.84179261 126.1,8.84179261 127,9.64179261 C127.7,10.3417926 127.8,11.5417926 127.8,13.0417926 C127.8,14.5417926 127.7,15.7417926 127,16.4417926 Z M147.7,6.04179261 L145.4,14.6417926 L142.5,6.04179261 L140,6.04179261 L137.2,14.7417926 L134.9,6.14179261 L131.2,6.14179261 L135.5,20.1417926 L138.4,20.1417926 L141.3,11.3417926 L144.2,20.1417926 L147.2,20.1417926 L151.5,6.14179261 L147.7,6.04179261 L147.7,6.04179261 Z M116.478662,15.8417926 L116.478662,0.641792614 L112.978662,0.641792614 L112.978662,16.0417926 C112.878662,18.1417926 114.478662,19.9417926 116.578662,20.0417926 L119.078662,20.0417926 L119.078662,17.0417926 L117.778662,17.0417926 C117.178662,17.1417926 116.678662,16.8417926 116.478662,16.2417926 L116.478662,15.8417926 L116.478662,15.8417926 Z M17.703418,6.40419496 L14.003418,6.40419496 L14.003418,2.00419496 L12.003418,2.00419496 L12.003418,15.904195 C12.003418,17.904195 13.103418,19.504195 15.403418,19.504195 L16.803418,19.504195 L16.803418,17.804195 L15.803418,17.804195 C14.503418,17.804195 14.003418,17.104195 14.003418,15.804195 L14.003418,8.10419496 L15.903418,8.10419496 L17.703418,6.40419496 L17.703418,6.40419496 Z" id="Shape"></path>
        </g>
    </g>
</svg>