<?xml version="1.0" encoding="UTF-8"?>
<svg width="18px" height="18px" viewBox="0 0 18 18" version="1.1" xmlns="http://www.w3.org/2000/svg" xmlns:xlink="http://www.w3.org/1999/xlink">
    <!-- Generator: Sketch 51.2 (57519) - http://www.bohemiancoding.com/sketch -->
    <title>Medal</title>
    <desc>Created with Sketch.</desc>
    <defs></defs>
    <g id="Medal" stroke="none" stroke-width="1" fill="none" fill-rule="evenodd">
        <path d="M10.4087586,9.18135806 C9.96016748,9.06312052 9.48701808,9 9,9 C8.2518533,9 7.53643451,9.14895459 6.89249499,9.41784999 L1.27535591,1.39336559 C1.24594129,1.3513447 1.23016389,1.30129303 1.23016389,1.25 C1.23016389,1.11192881 1.3420927,1 1.48016389,1 L4.5,1 L10.4087586,9.18135806 Z" id="Combined-Shape" fill="#000000"></path>
        <path d="M11.6065685,8.70490218 L9.77095845,6.1632883 L13.5,1 L16.5198361,1 C16.5711291,1 16.6211808,1.0157774 16.6632017,1.04519202 C16.776314,1.12437065 16.8038227,1.28025326 16.7246441,1.39336559 L11.6065685,8.70490218 Z" id="Combined-Shape" fill="#000000"></path>
        <path d="M9,17 C6.790861,17 5,15.4329966 5,13.5 C5,11.5670034 6.790861,10 9,10 C11.209139,10 13,11.5670034 13,13.5 C13,15.4329966 11.209139,17 9,17 Z M9,15.1 C10.2120386,15.1 11.1,14.3230338 11.1,13.5 C11.1,12.6769662 10.2120386,11.9 9,11.9 C7.78796139,11.9 6.9,12.6769662 6.9,13.5 C6.9,14.3230338 7.78796139,15.1 9,15.1 Z" id="Combined-Shape" fill="#000000"></path>
    </g>
</svg>