<?xml version="1.0" encoding="UTF-8"?>
<svg width="18px" height="18px" viewBox="0 0 18 18" version="1.1" xmlns="http://www.w3.org/2000/svg" xmlns:xlink="http://www.w3.org/1999/xlink">
    <!-- Generator: Sketch 51.2 (57519) - http://www.bohemiancoding.com/sketch -->
    <title>Message</title>
    <desc>Created with Sketch.</desc>
    <defs></defs>
    <g id="Message" stroke="none" stroke-width="1" fill="none" fill-rule="evenodd">
        <path d="M4,14 L1,17 L1,14 L1,3 C1,1.8954305 1.8954305,1 3,1 L15,1 C16.1045695,1 17,1.8954305 17,3 L17,12 C17,13.1045695 16.1045695,14 15,14 L4,14 Z M4,6 L4,7 L14,7 L14,6 L4,6 Z M4,4 L4,5 L14,5 L14,4 L4,4 Z M4,8 L4,9 L14,9 L14,8 L4,8 Z M4,10 L4,11 L11,11 L11,10 L4,10 Z" id="Combined-Shape" fill="#000000"></path>
    </g>
</svg>