<?xml version="1.0" encoding="UTF-8"?>
<svg width="18px" height="18px" viewBox="0 0 18 18" version="1.1" xmlns="http://www.w3.org/2000/svg" xmlns:xlink="http://www.w3.org/1999/xlink">
    <!-- Generator: Sketch 51.2 (57519) - http://www.bohemiancoding.com/sketch -->
    <title>Money</title>
    <desc>Created with Sketch.</desc>
    <defs></defs>
    <g id="Money" stroke="none" stroke-width="1" fill="none" fill-rule="evenodd">
        <path d="M9.24906352,8.12547479 C7.48895874,7.66800262 6.92293386,7.19502292 6.92293386,6.45841519 C6.92293386,5.61325475 7.70606418,5.02396857 9.01645056,5.02396857 C10.3966208,5.02396857 10.9724392,6.00685352 11.0189618,6.97607422 L12.7325439,6.97607422 C12.6782676,5.64242654 11.6298143,4.05120376 10.0092773,3.65576172 L10,2 L8,2 L8.00140381,3.59649658 C6.49717329,3.92215474 5.01617432,4.97744597 5.01617432,6.47392272 C5.01617432,8.26504257 6.620537,9.15672561 8.78383759,9.6762279 C10.722279,10.1414538 11.1099673,10.8237852 11.1099673,11.5448854 C11.1099673,12.0798952 10.7300327,12.9328094 9.01645056,12.9328094 C7.41917485,12.9328094 6.79111984,11.9116484 6.70582842,10.9967041 L5,11 C5.09304519,12.6980747 6.52616959,13.9563065 8.01489258,14.2742109 L8,16 L10,16 L9.99951172,14.2897184 C11.511496,14.0028291 13,13.0895219 13,11.5 C13,9.29793058 11.0091683,8.58294695 9.24906352,8.12547479 Z" id="Shape" fill="#000000" fill-rule="nonzero"></path>
    </g>
</svg>