<?xml version="1.0" encoding="UTF-8"?>
<svg width="18px" height="18px" viewBox="0 0 18 18" version="1.1" xmlns="http://www.w3.org/2000/svg" xmlns:xlink="http://www.w3.org/1999/xlink">
    <!-- Generator: Sketch 51.2 (57519) - http://www.bohemiancoding.com/sketch -->
    <title>NotInterested</title>
    <desc>Created with Sketch.</desc>
    <defs></defs>
    <g id="NotInterested" stroke="none" stroke-width="1" fill="none" fill-rule="evenodd">
        <path d="M5.52100516,13.8889948 C6.50227752,14.5885216 7.7030858,15 9,15 C12.3137085,15 15,12.3137085 15,9 C15,7.7030858 14.5885216,6.50227752 13.8889948,5.52100516 L5.52100516,13.8889948 Z M4.11100516,12.4789948 L12.4789948,4.11100516 C11.4977225,3.41147839 10.2969142,3 9,3 C5.6862915,3 3,5.6862915 3,9 C3,10.2969142 3.41147839,11.4977225 4.11100516,12.4789948 Z M9,17 C4.581722,17 1,13.418278 1,9 C1,4.581722 4.581722,1 9,1 C13.418278,1 17,4.581722 17,9 C17,13.418278 13.418278,17 9,17 Z" id="Combined-Shape" fill="#000000" fill-rule="nonzero"></path>
    </g>
</svg>