<?xml version="1.0" encoding="UTF-8"?>
<svg width="18px" height="18px" viewBox="0 0 18 18" version="1.1" xmlns="http://www.w3.org/2000/svg" xmlns:xlink="http://www.w3.org/1999/xlink">
    <!-- Generator: Sketch 51.2 (57519) - http://www.bohemiancoding.com/sketch -->
    <title>OpenSource</title>
    <desc>Created with Sketch.</desc>
    <defs></defs>
    <g id="OpenSource" stroke="none" stroke-width="1" fill="none" fill-rule="evenodd">
        <path d="M4,5.97499547 C3.42943992,5.85917789 3,5.35473948 3,4.75 L3,3.25 C3,2.55964406 3.55964406,2 4.25,2 L5.75,2 C6.44035594,2 7,2.55964406 7,3.25 L7,3.99844765 L9.99844765,1 L9.99844765,3 L10.9984476,3 C11.7784476,3.03 12.4584476,3.35 13.0584476,3.94 C13.6584476,4.53 13.9684476,5.22 13.9984476,6 L13.9984476,12.0246904 C14.569781,12.1399074 15,12.6447122 15,13.25 L15,14.75 C15,15.4403559 14.4403559,16 13.75,16 L12.25,16 C11.5596441,16 11,15.4403559 11,14.75 L11,13.25 C11,12.6458091 11.4286612,12.1417374 11.9984476,12.0253207 L11.9984476,6 C11.9884476,5.73 11.8984476,5.51 11.6884476,5.31 C11.4784476,5.11 11.2684476,5.02 10.9984476,5 L9.99844765,5 L9.99844765,7 L7,4.00155235 L7,4.75 C7,5.35473948 6.57056008,5.85917789 6,5.97499547 L6,12.0250045 C6.57056008,12.1408221 7,12.6452605 7,13.25 L7,14.75 C7,15.4403559 6.44035594,16 5.75,16 L4.25,16 C3.55964406,16 3,15.4403559 3,14.75 L3,13.25 C3,12.6452605 3.42943992,12.1408221 4,12.0250045 L4,5.97499547 Z M6,5 L6,3 L4,3 L4,5 L6,5 Z M4,13 L4,15 L6,15 L6,13 L4,13 Z M12,13 L12,15 L14,15 L14,13 L12,13 Z" id="Combined-Shape" fill="#000000" fill-rule="nonzero"></path>
    </g>
</svg>