<?xml version="1.0" encoding="UTF-8"?>
<svg width="18px" height="18px" viewBox="0 0 18 18" version="1.1" xmlns="http://www.w3.org/2000/svg" xmlns:xlink="http://www.w3.org/1999/xlink">
    <!-- Generator: Sketch 51.2 (57519) - http://www.bohemiancoding.com/sketch -->
    <title>OrderedList</title>
    <desc>Created with Sketch.</desc>
    <defs></defs>
    <g id="OrderedList" stroke="none" stroke-width="1" fill="none" fill-rule="evenodd">
        <path d="M2,13 L4,13 L4,13.5 L3,13.5 L3,14.5 L4,14.5 L4,15 L2,15 L2,16 L5,16 L5,12 L2,12 L2,13 Z M2,8 L3.8,8 L2,10.1 L2,11 L5,11 L5,10 L3.2,10 L5,7.9 L5,7 L2,7 L2,8 Z M3,6 L4,6 L4,2 L2,2 L2,3 L3,3 L3,6 Z M7,3 L7,5 L16,5 L16,3 L7,3 Z M7,15 L16,15 L16,13 L7,13 L7,15 Z M7,10 L16,10 L16,8 L7,8 L7,10 Z" id="Shape" fill="#000000" fill-rule="nonzero"></path>
    </g>
</svg>