<?xml version="1.0" encoding="UTF-8"?>
<svg width="18px" height="18px" viewBox="0 0 18 18" version="1.1" xmlns="http://www.w3.org/2000/svg" xmlns:xlink="http://www.w3.org/1999/xlink">
    <!-- Generator: Sketch 51.2 (57519) - http://www.bohemiancoding.com/sketch -->
    <title>Paperclip</title>
    <desc>Created with Sketch.</desc>
    <defs></defs>
    <g id="Paperclip" stroke="none" stroke-width="1" fill="none" fill-rule="evenodd">
        <path d="M1,9.5 C1,6.5 3.5,4 6.5,4 L13,4 C15.2,4 17,5.8 17,8 C17,10.2 15.2,12 13,12 L7.5,12 C6.1,12 5,10.9 5,9.5 C5,8.1 6.1,7 7.5,7 L12,7 L12,9 L7.4,9 C6.9,9 6.9,10 7.4,10 L13,10 C14.1,10 15,9.1 15,8 C15,6.9 14.1,6 13,6 L6.5,6 C4.6,6 3,7.6 3,9.5 C3,11.4 4.6,13 6.5,13 L12,13 L12,15 L6.5,15 C3.5,15 1,12.5 1,9.5 Z" id="Shape" fill="#000000" fill-rule="nonzero"></path>
    </g>
</svg>