<?xml version="1.0" encoding="UTF-8"?>
<svg width="18px" height="18px" viewBox="0 0 18 18" version="1.1" xmlns="http://www.w3.org/2000/svg" xmlns:xlink="http://www.w3.org/1999/xlink">
    <!-- Generator: Sketch 51.2 (57519) - http://www.bohemiancoding.com/sketch -->
    <title>People</title>
    <desc>Created with Sketch.</desc>
    <defs></defs>
    <g id="People" stroke="none" stroke-width="1" fill="none" fill-rule="evenodd">
        <path d="M17,13.999 C17,14.438 16.55,14.999 16,14.999 L8.995,14.999 C8.456,14.999 8.001,14.552 8,14 L2,14 C1.46,14 1,13.439 1,13 C1,10.366 4,9 4,9 C4,9 4.229,8.591 4,8 C3.159,7.379 2.942,7.41 3,5 C3.058,2.581 4.367,2 5.5,2 C6.633,2 7.942,2.58 8,5 C8.058,7.41 7.841,7.379 7,8 C6.771,8.59 7,9 7,9 C7,9 8.549,9.711 9.42,11.088 C10.196,10.369 11,9.999 11,9.999 C11,9.999 11.229,9.59 11,8.999 C10.159,8.379 9.942,8.409 10,5.999 C10.058,3.58 11.367,2.999 12.5,2.999 C13.633,2.999 14.937,3.58 14.995,5.999 C15.054,8.409 14.837,8.379 13.995,8.999 C13.766,9.589 13.995,9.999 13.995,9.999 C13.995,9.999 17,11.365 17,13.999" id="Shape" fill="#000000" fill-rule="nonzero"></path>
    </g>
</svg>