<?xml version="1.0" encoding="UTF-8"?>
<svg width="18px" height="18px" viewBox="0 0 18 18" version="1.1" xmlns="http://www.w3.org/2000/svg" xmlns:xlink="http://www.w3.org/1999/xlink">
    <!-- Generator: Sketch 54.1 (76490) - https://sketchapp.com -->
    <title>Question</title>
    <desc>Created with Sketch.</desc>
    <g id="Question" stroke="none" stroke-width="1" fill="none" fill-rule="evenodd">
        <path d="M4,14 L1,17 L1,3 C1,1.8954305 1.8954305,1 3,1 L15,1 C16.1045695,1 17,1.8954305 17,3 L17,12 C17,13.1045695 16.1045695,14 15,14 L4,14 Z M11.7539062,10.0280762 C12.069012,9.65925922 12.2981764,9.27791538 12.4414062,8.8840332 C12.6311858,8.36840563 12.7260742,7.77042983 12.7260742,7.09008789 C12.7260742,5.80459969 12.384118,4.80469107 11.7001953,4.09033203 C11.0162726,3.37597299 10.0906634,3.01879883 8.92333984,3.01879883 C7.74527406,3.01879883 6.81250344,3.37597299 6.125,4.09033203 C5.43749656,4.80469107 5.09375,5.80459969 5.09375,7.09008789 C5.09375,8.37915684 5.43660139,9.37996063 6.12231445,10.0925293 C6.80802752,10.805098 7.75601608,11.161377 8.96630859,11.161377 C9.59293933,11.161377 10.1640599,11.0485851 10.6796875,10.822998 C11.3349642,11.2634299 11.6876625,11.496175 11.737793,11.5212402 C11.9669608,11.6465664 12.2014962,11.7450354 12.4414062,11.8166504 L13.0268555,10.6940918 C12.5685198,10.5293774 12.1442077,10.3073744 11.7539062,10.0280762 Z M10.4755859,9.13110352 C9.99934658,8.77302881 9.49983985,8.50447681 8.97705078,8.32543945 L8.53125,9.2331543 C8.86425948,9.35131895 9.19189292,9.51603084 9.51416016,9.72729492 C9.31005757,9.80249061 9.09342563,9.84008789 8.86425781,9.84008789 C8.24836932,9.84008789 7.73901569,9.61181869 7.33618164,9.15527344 C6.9333476,8.69872819 6.73193359,8.01033989 6.73193359,7.09008789 C6.73193359,6.18415888 6.9333476,5.50561749 7.33618164,5.05444336 C7.73901569,4.60326923 8.26448244,4.37768555 8.91259766,4.37768555 C9.56071288,4.37768555 10.0852845,4.60237406 10.4863281,5.05175781 C10.8873718,5.50114157 11.0878906,6.18057813 11.0878906,7.09008789 C11.0878906,7.53051978 11.0368657,7.92081536 10.9348145,8.26098633 C10.8327632,8.6011573 10.6796885,8.89119346 10.4755859,9.13110352 Z" id="Combined-Shape" fill="#000000"></path>
    </g>
</svg>