<?xml version="1.0" encoding="UTF-8"?>
<svg width="17px" height="18px" viewBox="0 0 17 18" version="1.1" xmlns="http://www.w3.org/2000/svg" xmlns:xlink="http://www.w3.org/1999/xlink">
    <!-- Generator: Sketch 51.2 (57519) - http://www.bohemiancoding.com/sketch -->
    <title>Quote</title>
    <desc>Created with Sketch.</desc>
    <defs></defs>
    <g id="Quote" stroke="none" stroke-width="1" fill="none" fill-rule="evenodd">
        <path d="M9,5 C9,3.8954305 9.8954305,3 11,3 L14,3 C15.1045695,3 16,3.8954305 16,5 L16,12 L14.25,15 L12,15 L13.75,12 L11,12 C9.8954305,12 9,11.1045695 9,10 L9,5 Z M1,5 C1,3.8954305 1.8954305,3 3,3 L6,3 C7.1045695,3 8,3.8954305 8,5 L8,12 L6.25,15 L4,15 L5.75,12 L3,12 C1.8954305,12 1,11.1045695 1,10 L1,5 Z" id="Combined-Shape" fill="#000000" fill-rule="nonzero"></path>
    </g>
</svg>