<?xml version="1.0" encoding="UTF-8"?>
<svg width="18px" height="18px" viewBox="0 0 18 18" version="1.1" xmlns="http://www.w3.org/2000/svg" xmlns:xlink="http://www.w3.org/1999/xlink">
    <!-- Generator: Sketch 51.2 (57519) - http://www.bohemiancoding.com/sketch -->
    <title>Refresh</title>
    <desc>Created with Sketch.</desc>
    <defs></defs>
    <g id="Refresh" stroke="none" stroke-width="1" fill="none" fill-rule="evenodd">
        <path d="M14.6485303,3.35 C13.1976235,1.9 11.206379,1 8.99499687,1 C4.57223265,1 1,4.58 1,9 C1,13.42 4.57223265,17 8.99499687,17 C12.7273296,17 15.8392745,14.45 16.7298311,11 L14.6485303,11 C13.8280175,13.33 11.6066291,15 8.99499687,15 C5.68292683,15 2.99124453,12.31 2.99124453,9 C2.99124453,5.69 5.68292683,3 8.99499687,3 C10.656035,3 12.1369606,3.69 13.217636,4.78 L9.99562226,8 L17,8 L17,1 L14.6485303,3.35 Z" id="Shape" fill="#000000" fill-rule="nonzero"></path>
    </g>
</svg>