<?xml version="1.0" encoding="UTF-8"?>
<svg width="14px" height="14px" viewBox="0 0 14 14" version="1.1" xmlns="http://www.w3.org/2000/svg" xmlns:xlink="http://www.w3.org/1999/xlink">
    <!-- Generator: Sketch 51.2 (57519) - http://www.bohemiancoding.com/sketch -->
    <title>RefreshSm</title>
    <desc>Created with Sketch.</desc>
    <defs></defs>
    <g id="RefreshSm" stroke="none" stroke-width="1" fill="none" fill-rule="evenodd">
        <path d="M11.2426407,2.75735931 L13,1 L13,6 L8,6 L9.8991378,4.1008622 C9.15718374,3.35890813 8.13218374,2.9 7,2.9 C4.73563253,2.9 2.9,4.73563253 2.9,7 C2.9,9.26436747 4.73563253,11.1 7,11.1 C8.91942727,11.1 10.5307923,9.781029 10.9771822,8 L12.9170416,8 C12.4409635,10.8377133 9.97299629,13 7,13 C3.6862915,13 1,10.3137085 1,7 C1,3.6862915 3.6862915,1 7,1 C8.65685425,1 10.1568542,1.67157288 11.2426407,2.75735931 Z" id="Combined-Shape" fill="#000000" fill-rule="nonzero"></path>
    </g>
</svg>