<?xml version="1.0" encoding="UTF-8"?>
<svg width="18px" height="18px" viewBox="0 0 18 18" version="1.1" xmlns="http://www.w3.org/2000/svg" xmlns:xlink="http://www.w3.org/1999/xlink">
    <!-- Generator: Sketch 51.2 (57519) - http://www.bohemiancoding.com/sketch -->
    <title>Relocation</title>
    <desc>Created with Sketch.</desc>
    <defs></defs>
    <g id="Relocation" stroke="none" stroke-width="1" fill="none" fill-rule="evenodd">
        <path d="M15,5 L13,5 L13,1 L2,1 C0.8954305,1 -1.3527075e-16,1.8954305 0,3 L0,14 L1,14 C1,15.66 2.34,17 4,17 C5.66,17 7,15.66 7,14 L11,14 C11,15.66 12.34,17 14,17 C15.66,17 17,15.66 17,14 L18,14 L18,9 L15,5 Z M4,15.5 C3.17,15.5 2.5,14.83 2.5,14 C2.5,13.17 3.17,12.5 4,12.5 C4.83,12.5 5.5,13.17 5.5,14 C5.5,14.83 4.83,15.5 4,15.5 Z M14.5,6.5 L16.5,9 L13,9 L13,6.5 L14.5,6.5 Z M14,15.5 C13.17,15.5 12.5,14.83 12.5,14 C12.5,13.17 13.17,12.5 14,12.5 C14.83,12.5 15.5,13.17 15.5,14 C15.5,14.83 14.83,15.5 14,15.5 Z" id="Shape" fill="#000000" fill-rule="nonzero"></path>
    </g>
</svg>