<?xml version="1.0" encoding="UTF-8"?>
<svg width="18px" height="18px" viewBox="0 0 18 18" version="1.1" xmlns="http://www.w3.org/2000/svg" xmlns:xlink="http://www.w3.org/1999/xlink">
    <!-- Generator: Sketch 51.2 (57519) - http://www.bohemiancoding.com/sketch -->
    <title>ReviewQueue</title>
    <desc>Created with Sketch.</desc>
    <defs></defs>
    <g id="ReviewQueue" stroke="none" stroke-width="1" fill="none" fill-rule="evenodd">
        <path d="M16,7.5 L11,12.4686797 L9.20972409,10.6993757 C8.81886989,10.3131001 8.18955873,10.3145811 7.80052701,10.7026922 L5.70403888,12.7942197 C5.31354141,13.1847708 5.31358489,13.8179358 5.704136,14.2084333 L8.49608617,17 L2,17 C0.8954305,17 1.3527075e-16,16.1045695 0,15 L0,3 C-1.3527075e-16,1.8954305 0.8954305,1 2,1 L14,1 C15.1045695,1 16,1.8954305 16,3 L16,7.5 Z M12,7 L2,7 L2,9 L12,9 L12,7 Z M14,3 L2,3 L2,5 L14,5 L14,3 Z M2,11 L2,13 L5,13 L5,11 L2,11 Z M18,10.5 L11,17.5 L7,13.5 L8.5,12 L11,14.5 L16.5,9 L18,10.5 Z" id="Combined-Shape" fill="#000000"></path>
    </g>
</svg>