<?xml version="1.0" encoding="UTF-8"?>
<svg width="18px" height="18px" viewBox="0 0 18 18" version="1.1" xmlns="http://www.w3.org/2000/svg" xmlns:xlink="http://www.w3.org/1999/xlink">
    <!-- Generator: Sketch 51.2 (57519) - http://www.bohemiancoding.com/sketch -->
    <title>Rss</title>
    <desc>Created with Sketch.</desc>
    <defs></defs>
    <g id="Rss" stroke="none" stroke-width="1" fill="none" fill-rule="evenodd">
        <path d="M1,2.99406028 C1,1.8927712 1.89451376,1 2.99406028,1 L15.0059397,1 C16.1072288,1 17,1.89451376 17,2.99406028 L17,15.0059397 C17,16.1072288 16.1054862,17 15.0059397,17 L2.99406028,17 C1.8927712,17 1,16.1054862 1,15.0059397 L1,2.99406028 Z M15.5,15 C15.5,8.09644063 9.90355937,2.5 3,2.5 L3,5 C8.5228475,5 13,9.4771525 13,15 L15.5,15 Z M10.5,15 C10.5,10.8578644 7.14213562,7.5 3,7.5 L3,10 C5.76142375,10 8,12.2385763 8,15 L10.5,15 Z M5.5,15 C5.5,13.6192881 4.38071187,12.5 3,12.5 L3,15 L5.5,15 Z" id="Combined-Shape" fill="#000000"></path>
    </g>
</svg>