<?xml version="1.0" encoding="UTF-8"?>
<svg width="14px" height="14px" viewBox="0 0 14 14" version="1.1" xmlns="http://www.w3.org/2000/svg" xmlns:xlink="http://www.w3.org/1999/xlink">
    <!-- Generator: Sketch 51.2 (57519) - http://www.bohemiancoding.com/sketch -->
    <title>SearchSm</title>
    <desc>Created with Sketch.</desc>
    <defs></defs>
    <g id="SearchSm" stroke="none" stroke-width="1" fill="none" fill-rule="evenodd">
        <path d="M9.95169171,8.72163037 L10.2641069,8.72201465 L13,11.5 L11.5,13 L8.72210693,10.2650146 L8.72210693,9.95134613 C7.81631872,10.6082634 6.70229502,10.9956055 5.49780273,10.9956055 C2.46145013,10.9956055 0,8.53415534 0,5.49780273 C0,2.46145013 2.46145013,0 5.49780273,0 C8.53415534,0 10.9956055,2.46145013 10.9956055,5.49780273 C10.9956055,6.70208379 10.6083992,7.81592799 9.95169171,8.72163037 Z M5.50115967,9.00231934 C7.43479676,9.00231934 9.00231934,7.43479676 9.00231934,5.50115967 C9.00231934,3.56752258 7.43479676,2 5.50115967,2 C3.56752258,2 2,3.56752258 2,5.50115967 C2,7.43479676 3.56752258,9.00231934 5.50115967,9.00231934 Z" id="Combined-Shape" fill="#000000"></path>
    </g>
</svg>