<?xml version="1.0" encoding="UTF-8"?>
<svg width="18px" height="18px" viewBox="0 0 18 18" version="1.1" xmlns="http://www.w3.org/2000/svg" xmlns:xlink="http://www.w3.org/1999/xlink">
    <!-- Generator: Sketch 51.2 (57519) - http://www.bohemiancoding.com/sketch -->
    <title>Share</title>
    <desc>Created with Sketch.</desc>
    <defs></defs>
    <g id="Share" stroke="none" stroke-width="1" fill="none" fill-rule="evenodd">
        <path d="M15,4.5 L7.5,12 L6,10.5 L13.5,3 L10,3 L10,1 L17,1 L17,8 L15,8 L15,4.5 Z M8,1 L8,3 L3,3 L3,15 L15,15 L15,10 L17,10 L17,15.0059397 C17,16.1072288 16.1054862,17 15.0059397,17 L2.99406028,17 C1.8927712,17 1,16.1054862 1,15.0059397 L1,2.99406028 C1,1.8927712 1.89451376,1 2.99406028,1 L8,1 Z" id="Combined-Shape" fill="#000000"></path>
    </g>
</svg>