<?xml version="1.0" encoding="UTF-8"?>
<svg width="9px" height="10px" viewBox="0 0 9 10" version="1.1" xmlns="http://www.w3.org/2000/svg" xmlns:xlink="http://www.w3.org/1999/xlink">
    <!-- Generator: Sketch 51.2 (57519) - http://www.bohemiancoding.com/sketch -->
    <title>ShieldXSm</title>
    <desc>Created with Sketch.</desc>
    <defs></defs>
    <g id="ShieldXSm" stroke="none" stroke-width="1" fill="none" fill-rule="evenodd">
        <path d="M1.11022302e-16,1.84060384 L4.5,3.88578059e-16 L9,1.84060384 L9,5.01 C9,7.52751682 6.30413925,10 4.5,10 C2.69586075,10 0,7.52751682 0,5.01 L1.11022302e-16,1.84060384 Z" id="Shape" fill="#FFFFFF" fill-rule="nonzero"></path>
        <path d="M4.5,1 L1,2.5 L1,5.01 C1,7.345 3.655,9 4.5,9 C5.345,9 8,7.345 8,5.01 L8,2.5 L4.5,1 Z" id="Path" fill="#6A7E7C"></path>
        <path d="M3.19999695,7 L3.98175615,5.52472321 C4.00956253,5.37426823 3.94975829,5.22064863 3.83110387,5.13774157 C3.49364276,4.90161718 3.10443115,4.43600751 3.10443115,4.00311279 C3.10443115,3.28818061 3.57227015,2.76993865 4.48794782,2.76993865 C5.40362549,2.76993865 5.89837646,3.28818061 5.89837646,4.00311279 C5.89837646,4.43600751 5.50635724,4.90161718 5.16889613,5.13774157 C5.05440039,5.22300871 4.98811339,5.37386596 5.01824385,5.52472321 L5.80000305,6.99621582 L3.19999695,7 Z" id="Path" fill="#FFFFFF"></path>
    </g>
</svg>