<?xml version="1.0" encoding="UTF-8"?>
<svg width="18px" height="18px" viewBox="0 0 18 18" version="1.1" xmlns="http://www.w3.org/2000/svg" xmlns:xlink="http://www.w3.org/1999/xlink">
    <!-- Generator: Sketch 51.2 (57519) - http://www.bohemiancoding.com/sketch -->
    <title>Shield</title>
    <desc>Created with Sketch.</desc>
    <defs></defs>
    <g id="Shield" stroke="none" stroke-width="1" fill="none" fill-rule="evenodd">
        <path d="M9,1 L2,4 L2,9.02 C2,13.69 7.31,17 9,17 C10.69,17 16,13.69 16,9.02 L16,4 L9,1 Z M7,12 L8.14,9.2 C8.1861433,8.9706133 8.08690112,8.73640177 7.89,8.61 C7.33,8.25 7,7.66 7,7 C7,5.91 7.89,5 8.98,5 C10.06,5 11,5.91 11,7 C11,7.66 10.67,8.25 10.11,8.61 C9.92,8.74 9.81,8.97 9.86,9.2 L11,12 L7,12 Z" id="Shape" fill="#000000" fill-rule="nonzero"></path>
    </g>
</svg>