<?xml version="1.0" encoding="UTF-8"?>
<svg width="18px" height="18px" viewBox="0 0 18 18" version="1.1" xmlns="http://www.w3.org/2000/svg" xmlns:xlink="http://www.w3.org/1999/xlink">
    <!-- Generator: Sketch 51.2 (57519) - http://www.bohemiancoding.com/sketch -->
    <title>Slack</title>
    <desc>Created with Sketch.</desc>
    <defs></defs>
    <g id="Slack" stroke="none" stroke-width="1" fill="none" fill-rule="evenodd">
        <path d="M6.79991964,1.67019959 C12.3001205,0.0212782601 14.6792772,1.29951185 16.3293375,6.79591629 C17.9793978,12.2923207 16.7002813,14.6698352 11.2000804,16.3187565 C5.69987946,17.9676779 3.32072278,16.6894443 1.67066251,11.1930398 C0.0206022386,5.6966354 1.29971873,3.31912092 6.79991964,1.67019959 Z M12.5255258,10.7140161 L13.5623258,10.3686546 C13.9975258,10.2279518 14.2279258,9.75467873 14.0871258,9.31977912 C13.9463258,8.88487952 13.4727258,8.65463855 13.0375258,8.79534136 L12.0007258,9.14070281 L11.3095258,7.08132526 L12.3463258,6.73596381 C12.7815258,6.595261 13.0119258,6.1219879 12.8711258,5.68708829 C12.7303258,5.25218868 12.2567258,5.02194772 11.8215258,5.16265053 L10.7847258,5.50801198 L10.4263258,4.43355413 C10.2855258,3.99865452 9.81192575,3.76841355 9.37672575,3.90911637 C8.94152575,4.04981918 8.71112575,4.52309228 8.85192575,4.95799189 L9.21032575,6.03244974 L7.07272575,6.74875498 L6.71432575,5.67429713 C6.57352575,5.23939752 6.09992575,5.00915655 5.66472575,5.14985936 C5.22952575,5.29056218 4.99912575,5.76383528 5.13992575,6.19873489 L5.49832575,7.27319274 L4.46152575,7.61855419 C4.02632575,7.759257 3.79592575,8.23253011 3.93672575,8.66742971 C4.05192575,9 4.37192575,9.2174498 4.70472575,9.23024097 C4.79432575,9.24303213 4.89672575,9.2174498 4.98632575,9.19186747 L6.02312575,8.84650602 L6.71432575,10.9058836 L5.67752575,11.251245 C5.24232575,11.3919478 5.01192575,11.8652209 5.15272575,12.3001205 C5.26792575,12.6326908 5.58792575,12.8501406 5.92072575,12.8629318 C6.01032575,12.875723 6.11272575,12.8501406 6.20232575,12.8245583 L7.23912575,12.4791969 L7.59752575,13.5536547 C7.71272575,13.886225 8.03272575,14.1036748 8.36552575,14.116466 C8.45512575,14.1292571 8.55752575,14.1036748 8.64712575,14.0780925 C9.08232575,13.9373897 9.31272575,13.4641166 9.17192575,13.0292169 L8.81352575,11.9547591 L10.9511258,11.2384539 L11.3095258,12.3129117 C11.4247258,12.645482 11.7447258,12.8629318 12.0775258,12.875723 C12.1671258,12.8885141 12.2695258,12.8629318 12.3591258,12.8373495 C12.7943258,12.6966467 13.0247258,12.2233736 12.8839258,11.7884739 L12.5255258,10.7140161 Z M9.72782975,7.62379857 L10.4189018,9.68573435 L8.28283775,10.4007605 L7.59176575,8.33882469 L9.72782975,7.62379857 Z" id="Shape" fill="#000000" fill-rule="nonzero"></path>
    </g>
</svg>