<?xml version="1.0" encoding="UTF-8"?>
<svg width="18px" height="18px" viewBox="0 0 18 18" version="1.1" xmlns="http://www.w3.org/2000/svg" xmlns:xlink="http://www.w3.org/1999/xlink">
    <!-- Generator: Sketch 52.6 (67491) - http://www.bohemiancoding.com/sketch -->
    <title>Slack</title>
    <desc>Created with Sketch.</desc>
    <g id="Slack" stroke="none" stroke-width="1" fill="none" fill-rule="evenodd">
        <path d="M6.5,16 C5.67157288,16 5,15.3284271 5,14.5 L5,10.5 C5,9.67157288 5.67157288,9 6.5,9 C7.32842712,9 8,9.67157288 8,10.5 L8,14.5 C8,15.3284271 7.32842712,16 6.5,16 Z M2.5,12 C1.67157288,12 1,11.3284271 1,10.5 C1,9.67157288 1.67157288,9 2.5,9 L4,9 L4,10.5 C4,11.3284271 3.32842712,12 2.5,12 Z" id="Shape" fill="#E01E5A"></path>
        <path d="M2.5,5 L6.5,5 C7.32842712,5 8,5.67157288 8,6.5 C8,7.32842712 7.32842712,8 6.5,8 L2.5,8 C1.67157288,8 1,7.32842712 1,6.5 C1,5.67157288 1.67157288,5 2.5,5 Z M6.5,1 C7.32842712,1 8,1.67157288 8,2.5 L8,4 L6.5,4 C5.67157288,4 5,3.32842712 5,2.5 C5,1.67157288 5.67157288,1 6.5,1 Z" id="Shape" fill="#36C5F0"></path>
        <path d="M10.5,9 L14.5,9 C15.3284271,9 16,9.67157288 16,10.5 C16,11.3284271 15.3284271,12 14.5,12 L10.5,12 C9.67157288,12 9,11.3284271 9,10.5 C9,9.67157288 9.67157288,9 10.5,9 Z M10.5,16 C9.67157288,16 9,15.3284271 9,14.5 L9,13 L10.5,13 C11.3284271,13 12,13.6715729 12,14.5 C12,15.3284271 11.3284271,16 10.5,16 Z" id="Shape" fill="#ECB22E"></path>
        <path d="M10.5,1 C11.3284271,1 12,1.67157288 12,2.5 L12,6.5 C12,7.32842712 11.3284271,8 10.5,8 C9.67157288,8 9,7.32842712 9,6.5 L9,2.5 C9,1.67157288 9.67157288,1 10.5,1 Z M14.5,5 C15.3284271,5 16,5.67157288 16,6.5 C16,7.32842712 15.3284271,8 14.5,8 L13,8 L13,6.5 C13,5.67157288 13.6715729,5 14.5,5 Z" id="Shape" fill="#2EB67D"></path>
    </g>
</svg>