<?xml version="1.0" encoding="UTF-8"?>
<svg width="18px" height="18px" viewBox="0 0 18 18" version="1.1" xmlns="http://www.w3.org/2000/svg" xmlns:xlink="http://www.w3.org/1999/xlink">
    <!-- Generator: Sketch 51.2 (57519) - http://www.bohemiancoding.com/sketch -->
    <title>StackExchange</title>
    <desc>Created with Sketch.</desc>
    <defs></defs>
    <g id="StackExchange" stroke="none" stroke-width="1" fill="none" fill-rule="evenodd">
        <path d="M1,13 C1,14.1045695 1.8954305,15 3,15 L11,15 L11,18 L14,15 L15,15 C16.1045695,15 17,14.1045695 17,13 L17,11 L1,11 L1,13 Z M15,1 L3,1 C1.8954305,1 1,1.8954305 1,3 L1,5 L17,5 L17,3 C17,1.8954305 16.1045695,1 15,1 Z M1,6 L17,6 L17,10 L1,10 L1,6 Z" id="Shape" fill="#000000" fill-rule="nonzero"></path>
    </g>
</svg>