<?xml version="1.0" encoding="UTF-8"?>
<svg width="18px" height="18px" viewBox="0 0 18 18" version="1.1" xmlns="http://www.w3.org/2000/svg" xmlns:xlink="http://www.w3.org/1999/xlink">
    <!-- Generator: Sketch 51.2 (57519) - http://www.bohemiancoding.com/sketch -->
    <title>Steam</title>
    <desc>Created with Sketch.</desc>
    <defs></defs>
    <g id="Steam" stroke="none" stroke-width="1" fill="none" fill-rule="evenodd">
        <path d="M8.96397575,0.98614502 C4.75603407,0.98614502 1.30540168,4.23175629 0.978837087,8.35688814 L5.27426336,10.131957 C5.63822594,9.88419533 6.07765232,9.73794248 6.55113758,9.73794248 C6.59321032,9.73794248 6.63461524,9.74061376 6.67668798,9.74194941 L8.58732457,6.9758338 L8.58732457,6.93643234 C8.58732457,5.27021833 9.94166606,3.91520901 11.6085479,3.91520901 C13.2740941,3.91520901 14.6297712,5.27155397 14.6297712,6.93843581 C14.6297712,8.60531764 13.2740941,9.96032696 11.6085479,9.96032696 L11.5384267,9.96032696 L8.81638726,11.9043546 C8.81638726,11.9390813 8.81905854,11.9744758 8.81905854,12.0105382 C8.81905854,13.262703 7.80730935,14.2784591 6.55514451,14.2784591 C5.46325677,14.2784591 4.54099563,13.4951048 4.33063193,12.4573106 L1.25531508,11.1837755 C2.20762818,14.5475911 5.29563364,17.013855 8.96397575,17.013855 C13.3896272,17.013855 16.9771629,13.4256514 16.9771629,9 C16.9771629,4.57434859 13.3889593,0.98614502 8.96397575,0.98614502 Z M5.99951723,13.14717 L5.01581653,12.739799 C5.1907857,13.1024259 5.4926409,13.4069524 5.89333365,13.5745756 C6.75949781,13.9345312 7.7585584,13.5238211 8.11851405,12.6563213 C8.29415104,12.2355939 8.29481886,11.7754651 8.12185316,11.3547377 C7.94888746,10.9340103 7.62098722,10.6061101 7.2022633,10.4311409 C6.78554284,10.2575074 6.34077389,10.2648534 5.948095,10.4111063 L6.96518676,10.8318337 C7.60362387,11.0989622 7.9061469,11.8335656 7.6390184,12.4713348 C7.37389336,13.1104398 6.63928999,13.4129628 6.00018505,13.14717 L5.99951723,13.14717 Z M13.6226968,6.93442888 C13.6226968,5.82450996 12.7191346,4.92094781 11.6092157,4.92094781 C10.4972933,4.92094781 9.59573465,5.82450996 9.59573465,6.93442888 C9.59573465,8.04635126 10.4972933,8.94790994 11.6092157,8.94790994 C12.7198025,8.94790994 13.6226968,8.04635126 13.6226968,6.93442888 Z M10.1012753,6.93108977 C10.1012753,6.09497757 10.7777783,5.41780682 11.6138905,5.41780682 C12.4479992,5.41780682 13.1271734,6.09497757 13.1271734,6.93108977 C13.1271734,7.76653415 12.4479992,8.4437049 11.6138905,8.4437049 C10.7771104,8.4437049 10.1012753,7.76653415 10.1012753,6.93108977 Z" id="Shape" fill="#000000" fill-rule="nonzero"></path>
    </g>
</svg>