<?xml version="1.0" encoding="UTF-8"?>
<svg width="18px" height="18px" viewBox="0 0 18 18" version="1.1" xmlns="http://www.w3.org/2000/svg" xmlns:xlink="http://www.w3.org/1999/xlink">
    <!-- Generator: Sketch 51.2 (57519) - http://www.bohemiancoding.com/sketch -->
    <title>Stroller</title>
    <desc>Created with Sketch.</desc>
    <defs></defs>
    <g id="Stroller" stroke="none" stroke-width="1" fill="none" fill-rule="evenodd">
        <path d="M9.04704737,12.924742 C9.01468557,12.9195775 8.98241009,12.9141542 8.95022313,12.9084743 C8.98295348,13.1007597 9,13.2983891 9,13.5 C9,15.4329966 7.43299662,17 5.5,17 C3.56700338,17 2,15.4329966 2,13.5 C2,11.7928989 3.22215481,10.3712474 4.83922524,10.0622846 C4.30614585,9.16583546 4,8.11866983 4,7 L1,7 L1,5 L5,5 L6,7 L8,7 L8,1.34141142 C8.62555785,1.12030844 9.29872915,1 10,1 C12.9729963,1 15.4409635,3.16228666 15.9170416,6 L8,6 L8,7 L16,7 C16,8.42309731 15.504557,9.7304777 14.6767471,10.7590649 C15.4830617,11.4002645 16,12.3897635 16,13.5 C16,15.4329966 14.4329966,17 12.5,17 C10.5670034,17 9,15.4329966 9,13.5 C9,13.3040702 9.01609936,13.1119007 9.04704737,12.924742 Z M5.5,15 C6.32842712,15 7,14.3284271 7,13.5 C7,12.6715729 6.32842712,12 5.5,12 C4.67157288,12 4,12.6715729 4,13.5 C4,14.3284271 4.67157288,15 5.5,15 Z M12.5,15 C13.3284271,15 14,14.3284271 14,13.5 C14,12.6715729 13.3284271,12 12.5,12 C11.6715729,12 11,12.6715729 11,13.5 C11,14.3284271 11.6715729,15 12.5,15 Z" id="Combined-Shape" fill="#000000"></path>
    </g>
</svg>