<?xml version="1.0" encoding="UTF-8"?>
<svg width="18px" height="18px" viewBox="0 0 18 18" version="1.1" xmlns="http://www.w3.org/2000/svg" xmlns:xlink="http://www.w3.org/1999/xlink">
    <!-- Generator: Sketch 51.2 (57519) - http://www.bohemiancoding.com/sketch -->
    <title>Subway</title>
    <desc>Created with Sketch.</desc>
    <defs></defs>
    <g id="Subway" stroke="none" stroke-width="1" fill="none" fill-rule="evenodd">
        <path d="M9,1 C4.58,1 2,1.5 2,5 L2,11.5 C2,13.43 3.57,15 5.5,15 L4,16.5 L4,17 L14,17 L14,16.5 L12.5,15 C14.43,15 16,13.43 16,11.5 L16,5 C16,1.5 13.42,1 9,1 Z M5.5,12.75 C4.80833333,12.75 4.25,12.1916667 4.25,11.5 C4.25,10.8083333 4.80833333,10.25 5.5,10.25 C6.19166667,10.25 6.75,10.8083333 6.75,11.5 C6.75,12.1916667 6.19166667,12.75 5.5,12.75 Z M8,9 L4,9 L4,5 L8,5 L8,9 Z M12.5,12.75 C11.8083333,12.75 11.25,12.1916667 11.25,11.5 C11.25,10.8083333 11.8083333,10.25 12.5,10.25 C13.1916667,10.25 13.75,10.8083333 13.75,11.5 C13.75,12.1916667 13.1916667,12.75 12.5,12.75 Z M14,9 L10,9 L10,5 L14,5 L14,9 Z" id="Shape" fill="#000000" fill-rule="nonzero"></path>
    </g>
</svg>