<?xml version="1.0" encoding="UTF-8"?>
<svg width="18px" height="18px" viewBox="0 0 18 18" version="1.1" xmlns="http://www.w3.org/2000/svg" xmlns:xlink="http://www.w3.org/1999/xlink">
    <!-- Generator: Sketch 54.1 (76490) - https://sketchapp.com -->
    <title>ThumbsDown</title>
    <desc>Created with Sketch.</desc>
    <g id="ThumbsDown" stroke="none" stroke-width="1" fill="none" fill-rule="evenodd">
        <path d="M14.1104336,5.71688522 C14.7393799,5.68823242 17.0014648,5.8545585 17.0014648,7.50173885 C16.9923096,9.64123535 16.218633,11.5963009 15.5090942,13.3054199 C14.7995555,15.0145389 14.2341449,15.5996263 13.2588879,15.8475251 C12.3342246,16.0957622 11.3560319,16.0760728 10.4425357,15.7908364 L6.61143227,14.3988092 C5.69375802,14.1672617 5.0394618,13.3730865 5.00146484,12.4446543 L5.00146484,7.9373699 C5.00181551,7.5551059 5.12090373,7.18201542 5.34287392,6.86777227 L9.55540386,1.37035398 C10.0697143,0.90355982 10.8637598,0.90355982 11.3780702,1.37035398 C12.1903723,2.43262263 11.9546318,4.28350557 11.1313642,5.33762565 C10.8946684,5.67347931 11.2044454,6.10131836 11.6582031,6.10131836 C12.873726,5.86413146 13.6911361,5.73598708 14.1104336,5.71688522 Z M2.5,6 C3.32842712,6 4,6.67157288 4,7.5 L4,12.5 C4,13.3284271 3.32842712,14 2.5,14 C1.67157288,14 1,13.3284271 1,12.5 L1,7.5 C1,6.67157288 1.67157288,6 2.5,6 Z" id="Shape" fill="#000000" fill-rule="nonzero" transform="translate(9.000732, 8.520258) scale(1, -1) translate(-9.000732, -8.520258) "></path>
    </g>
</svg>