<?xml version="1.0" encoding="UTF-8"?>
<svg width="18px" height="18px" viewBox="0 0 18 18" version="1.1" xmlns="http://www.w3.org/2000/svg" xmlns:xlink="http://www.w3.org/1999/xlink">
    <!-- Generator: Sketch 54.1 (76490) - https://sketchapp.com -->
    <title>ThumbsUp</title>
    <desc>Created with Sketch.</desc>
    <g id="ThumbsUp" stroke="none" stroke-width="1" fill="none" fill-rule="evenodd">
        <path d="M14.1104336,5.71688522 C13.6911361,5.73598708 12.873726,5.86413146 11.6582031,6.10131836 C11.2044454,6.10131836 10.8946684,5.67347931 11.1313642,5.33762565 C11.9546318,4.28350557 12.1903723,2.43262263 11.3780702,1.37035398 C10.8637598,0.90355982 10.0697143,0.90355982 9.55540386,1.37035398 L5.34287392,6.86777227 C5.12090373,7.18201542 5.00181551,7.5551059 5.00146484,7.9373699 L5.00146484,12.4446543 C5.0394618,13.3730865 5.69375802,14.1672617 6.61143227,14.3988092 L10.4425357,15.7908364 C11.3560319,16.0760728 12.3342246,16.0957622 13.2588879,15.8475251 C14.2341449,15.5996263 14.7995555,15.0145389 15.5090942,13.3054199 C16.218633,11.5963009 16.9923096,9.64123535 17.0014648,7.50173885 C17.0014648,5.8545585 14.7393799,5.68823242 14.1104336,5.71688522 Z" id="Path" fill="#000000" fill-rule="nonzero"></path>
        <rect id="Rectangle" fill="#000000" x="1" y="6" width="3" height="8" rx="1.5"></rect>
    </g>
</svg>