<?xml version="1.0" encoding="UTF-8"?>
<svg width="18px" height="18px" viewBox="0 0 18 18" version="1.1" xmlns="http://www.w3.org/2000/svg" xmlns:xlink="http://www.w3.org/1999/xlink">
    <!-- Generator: Sketch 51.2 (57519) - http://www.bohemiancoding.com/sketch -->
    <title>Trash</title>
    <desc>Created with Sketch.</desc>
    <defs></defs>
    <g id="Trash" stroke="none" stroke-width="1" fill="none" fill-rule="evenodd">
        <path d="M16,3 L16,4 L2,4 L2,3 C2,2.44386482 2.44724809,2 2.99895656,2 L5,2 C5,1.45318604 5.4463856,1 5.99703014,1 L12.0029699,1 C12.5469637,1 13,1.44771525 13,2 L15.0010434,2 C15.5573397,2 16,2.44771525 16,3 Z M3,5 L15,5 L15,14.9914698 C15,16.1007504 14.0980496,17 12.9914698,17 L5.0085302,17 C3.8992496,17 3,16.0980496 3,14.9914698 L3,5 Z" id="Combined-Shape" fill="#000000" fill-rule="nonzero"></path>
    </g>
</svg>