<?xml version="1.0" encoding="UTF-8"?>
<svg width="14px" height="14px" viewBox="0 0 14 14" version="1.1" xmlns="http://www.w3.org/2000/svg" xmlns:xlink="http://www.w3.org/1999/xlink">
    <!-- Generator: Sketch 54.1 (76490) - https://sketchapp.com -->
    <title>TrashSm</title>
    <desc>Created with Sketch.</desc>
    <g id="TrashSm" stroke="none" stroke-width="1" fill="none" fill-rule="evenodd">
        <path d="M12,3 L12,4 L2,4 L2,3 C2,2.44386482 2.44724809,2 2.99895656,2 L5,2 C5,1.45318604 5.45190985,1 6.0093689,1 L7.9906311,1 C8.55664682,1 9,1.44771525 9,2 L11.0010434,2 C11.5573397,2 12,2.44771525 12,3 Z M3,5 L11,5 L11,11.0018986 C11,12.1054196 10.1132936,13 9.00189865,13 L4.99810135,13 C3.89458045,13 3,12.1132936 3,11.0018986 L3,5 Z" id="Combined-Shape" fill="#000000" fill-rule="nonzero"></path>
    </g>
</svg>