<?xml version="1.0" encoding="UTF-8"?>
<svg width="18px" height="18px" viewBox="0 0 18 18" version="1.1" xmlns="http://www.w3.org/2000/svg" xmlns:xlink="http://www.w3.org/1999/xlink">
    <!-- Generator: Sketch 51.2 (57519) - http://www.bohemiancoding.com/sketch -->
    <title>Twitter</title>
    <desc>Created with Sketch.</desc>
    <defs></defs>
    <g id="Twitter" stroke="none" stroke-width="1" fill="none" fill-rule="evenodd">
        <path d="M17,4.038 C16.41,4.298 15.78,4.475 15.115,4.555 C15.792,4.148 16.313,3.505 16.558,2.739 C15.924,3.109 15.221,3.379 14.473,3.529 C13.875,2.889 13.023,2.489 12.077,2.489 C10.265,2.489 8.795,3.959 8.795,5.769 C8.795,6.029 8.825,6.279 8.88,6.519 C6.152,6.389 3.733,5.079 2.114,3.099 C1.83,3.58 1.67,4.14 1.67,4.75 C1.67,5.89 2.25,6.893 3.13,7.482 C2.592,7.465 2.085,7.317 1.643,7.072 L1.643,7.112 C1.643,8.702 2.773,10.03 4.276,10.332 C4,10.406 3.71,10.446 3.411,10.446 C3.201,10.446 3.001,10.426 2.801,10.388 C3.221,11.692 4.431,12.641 5.871,12.668 C4.751,13.548 3.331,14.072 1.801,14.072 C1.541,14.072 1.281,14.057 1.021,14.027 C2.481,14.957 4.201,15.501 6.061,15.501 C12.101,15.501 15.401,10.501 15.401,6.171 C15.401,6.031 15.401,5.891 15.391,5.751 C16.031,5.291 16.591,4.711 17.031,4.051 L17,4.038 Z" id="Shape" fill="#2AA3EF"></path>
    </g>
</svg>