<?xml version="1.0" encoding="UTF-8"?>
<svg width="18px" height="18px" viewBox="0 0 18 18" version="1.1" xmlns="http://www.w3.org/2000/svg" xmlns:xlink="http://www.w3.org/1999/xlink">
    <!-- Generator: Sketch 51.2 (57519) - http://www.bohemiancoding.com/sketch -->
    <title>Vacation</title>
    <desc>Created with Sketch.</desc>
    <defs></defs>
    <g id="Vacation" stroke="none" stroke-width="1" fill="none" fill-rule="evenodd">
        <path d="M10.1257607,11.5587607 L11.5557607,10.1287607 L16.9957607,15.5717607 L15.5687607,16.9987607 L10.1257607,11.5587607 Z M13.7409837,6.1583762 L16.2655771,3.63378279 C12.7788135,0.147019157 7.12937367,0.138191908 3.64261004,3.61612829 C7.11171917,2.46858583 10.9780545,3.39544704 13.7409837,6.1583762 Z M3.61612829,3.64261004 C0.138191908,7.12937367 0.147019157,12.7788135 3.63378279,16.2655771 L6.1583762,13.7409837 C3.39544704,10.9780545 2.46858583,7.11171917 3.61612829,3.64261004 Z M3.63378279,3.62495554 L3.62495554,3.63378279 C3.28952005,6.29078494 4.65774375,9.70693058 7.42067291,12.478687 L12.478687,7.42067291 C9.71575783,4.65774375 6.29078494,3.28952005 3.63378279,3.62495554 Z" id="Shape" fill="#000000" fill-rule="nonzero"></path>
    </g>
</svg>