<?xml version="1.0" encoding="UTF-8"?>
<svg width="18px" height="18px" viewBox="0 0 18 18" version="1.1" xmlns="http://www.w3.org/2000/svg" xmlns:xlink="http://www.w3.org/1999/xlink">
    <!-- Generator: Sketch 50.2 (55047) - http://www.bohemiancoding.com/sketch -->
    <title>Wave</title>
    <desc>Created with Sketch.</desc>
    <defs></defs>
    <g id="Wave" stroke="none" stroke-width="1" fill="none" fill-rule="evenodd">
        <path d="M7.29902617,16.9953613 C6.63030502,16.9953613 5.93918511,16.8153763 5.24511798,16.4606351 C3.16645326,15.3983382 2.71081514,13.9287356 2.13404683,12.0683398 L2.03236821,11.7424953 C1.50069216,10.043921 1.14555378,8.6846762 1.04947485,8.30819375 C0.846412327,7.65622961 1.24487464,6.98390019 1.93393151,6.79565896 C2.26225032,6.70594165 2.61945174,6.74144329 2.9185932,6.89418288 C3.2212713,7.04912413 3.44054346,7.30341491 3.53632767,7.61027013 L4.19679664,9.89090618 C4.20740659,9.92805906 4.24630971,9.95750615 4.28698116,9.95998301 C4.33502063,9.94952516 4.3703871,9.93769128 4.3860073,9.90246486 L8.07296259,1.59618304 C8.402755,1.04577009 9.02874165,0.852850347 9.54656583,1.11704856 C10.1006406,1.40023603 10.2191183,1.86478455 9.90848278,2.53711397 C9.59401585,3.21825 8.08416198,7.37249173 7.83276526,8.10344013 C7.81390314,8.15875663 7.83394415,8.20389049 7.87903641,8.22700784 C7.94387495,8.2553541 7.98602,8.23058552 8.01077654,8.19068058 L11.8162095,2.05440182 C12.0007047,1.7392904 12.3493592,1.54196736 12.7242438,1.54196736 C12.8925293,1.54196736 13.0608148,1.58242271 13.2111224,1.65948052 C13.4519091,1.78249782 13.6219629,1.98422416 13.6897487,2.22723148 C13.7566503,2.46721153 13.7180419,2.72810727 13.580702,2.96230798 L10.0520117,8.98162399 C10.026371,9.02510661 10.0402229,9.07684543 10.0847257,9.10409087 C10.1536904,9.14096854 10.1887621,9.11977764 10.2185289,9.08482642 L13.8220783,4.66033192 C14.0218989,4.42585601 14.3493335,4.14982391 14.7864042,4.14982391 C14.9576369,4.14982391 15.1303432,4.19358174 15.2998076,4.28027178 C15.5140695,4.38952875 15.6537671,4.55657908 15.7038696,4.76270873 C15.7663504,5.02030199 15.6802919,5.32605639 15.4677983,5.60181327 C15.1730777,5.98352466 12.3204766,9.95860698 11.7519604,10.751752 L11.7345719,10.7748694 C11.7068682,10.8136735 11.7136467,10.8656875 11.7504868,10.8962354 C11.7870322,10.9267834 11.846271,10.9270586 11.8819322,10.8989875 L15.3973601,8.14609713 C15.5980649,7.98895424 15.9125318,7.80181383 16.2697332,7.80181383 C16.4256404,7.80181383 16.5753585,7.83786588 16.7147614,7.90914436 C16.8423754,7.97409309 16.941991,8.12242938 16.9811889,8.30571689 C17.0227445,8.49973745 16.9906199,8.70036297 16.8907096,8.87071578 C16.6826369,9.22573213 15.9906328,9.84659794 15.2576625,10.503791 C14.4430547,11.2344642 13.5214632,12.0609092 12.852742,12.8554303 C12.7118656,13.0227559 12.5621475,13.2129235 12.3661583,13.462811 C11.1958226,14.9536045 9.59283697,16.9953613 7.29902617,16.9953613 Z" id="Path" fill="#000000"></path>
        <path d="M14.3716075,17.6551639 C14.6477498,17.6551639 15.2288191,16.7987783 15.2288191,15.7504781 C15.2288191,14.7021779 14.6477498,13.8589329 14.3716075,13.8589329 C14.0954651,13.8589329 14.3668601,14.7318708 14.3668601,15.7801711 C14.3668601,16.8284713 14.0954651,17.6551639 14.3716075,17.6551639 Z" id="Oval-10" fill="#000000" transform="translate(14.747635, 15.757048) rotate(45.000000) translate(-14.747635, -15.757048) "></path>
        <path d="M3.76601665,5.19105258 C4.04215903,5.19105258 4.62322825,4.334667 4.62322825,3.28636677 C4.62322825,2.23806653 4.04215903,1.3948216 3.76601665,1.3948216 C3.48987428,1.3948216 3.76126923,2.26775949 3.76126923,3.31605973 C3.76126923,4.36435996 3.48987428,5.19105258 3.76601665,5.19105258 Z" id="Oval-10" fill="#000000" transform="translate(4.142044, 3.292937) scale(-1, -1) rotate(45.000000) translate(-4.142044, -3.292937) "></path>
    </g>
</svg>