<?xml version="1.0" encoding="UTF-8"?>
<svg width="18px" height="18px" viewBox="0 0 18 18" version="1.1" xmlns="http://www.w3.org/2000/svg" xmlns:xlink="http://www.w3.org/1999/xlink">
    <!-- Generator: Sketch 51.2 (57519) - http://www.bohemiancoding.com/sketch -->
    <title>Wave</title>
    <desc>Created with Sketch.</desc>
    <defs></defs>
    <g id="Wave" stroke="none" stroke-width="1" fill="none" fill-rule="evenodd">
        <path d="M10.6963352,16.9953613 C8.40252436,16.9953613 6.79953876,14.9536045 5.62920307,13.462811 C5.43321384,13.2129235 5.28349575,13.0227559 5.14261928,12.8554303 C4.47389813,12.0609092 3.55230667,11.2344642 2.7376988,10.503791 C2.00472855,9.84659794 1.31272448,9.22573213 1.1046517,8.87071578 C1.0047414,8.70036297 0.972616848,8.49973745 1.01417246,8.30571689 C1.05337031,8.12242938 1.15298588,7.97409309 1.28059992,7.90914436 C1.42000279,7.83786588 1.56972088,7.80181383 1.7256281,7.80181383 C2.08282953,7.80181383 2.39729646,7.98895424 2.59800122,8.14609713 L6.11342909,10.8989875 C6.14909029,10.9270586 6.20832914,10.9267834 6.2448745,10.8962354 C6.28171458,10.8656875 6.28849316,10.8136735 6.26078942,10.7748694 L6.2434009,10.751752 C5.67488477,9.95860698 2.82228363,5.98352466 2.52756298,5.60181327 C2.3150694,5.32605639 2.22901097,5.02030199 2.29149174,4.76270873 C2.34159425,4.55657908 2.48129184,4.38952875 2.69555375,4.28027178 C2.86501812,4.19358174 3.03772442,4.14982391 3.20895712,4.14982391 C3.64602784,4.14982391 3.97346248,4.42585601 4.17328307,4.66033192 L7.77683243,9.08482642 C7.80659921,9.11977764 7.84167097,9.14096854 7.9106356,9.10409087 C7.95513842,9.07684543 7.96899029,9.02510661 7.94334959,8.98162399 L4.41465928,2.96230798 C4.27731946,2.72810727 4.23871106,2.46721153 4.30561265,2.22723148 C4.37339839,1.98422416 4.54345221,1.78249782 4.78423898,1.65948052 C4.93454651,1.58242271 5.102832,1.54196736 5.27111749,1.54196736 C5.64600215,1.54196736 5.99465667,1.7392904 6.1791518,2.05440182 L9.98458479,8.19068058 C10.0093413,8.23058552 10.0514864,8.2553541 10.1163249,8.22700784 C10.1614172,8.20389049 10.1814582,8.15875663 10.1625961,8.10344013 C9.91119935,7.37249173 8.40134548,3.21825 8.08687855,2.53711397 C7.77624298,1.86478455 7.89472068,1.40023603 8.4487955,1.11704856 C8.96661968,0.852850347 9.59260633,1.04577009 9.92239874,1.59618304 L13.609354,9.90246486 C13.6249742,9.93769128 13.6603407,9.94952516 13.7083802,9.95998301 C13.7490516,9.95750615 13.7879547,9.92805906 13.7985647,9.89090618 L14.4590337,7.61027013 C14.5548179,7.30341491 14.77409,7.04912413 15.0767681,6.89418288 C15.3759096,6.74144329 15.733111,6.70594165 16.0614298,6.79565896 C16.7504867,6.98390019 17.148949,7.65622961 16.9458865,8.30819375 C16.8498075,8.6846762 16.4946692,10.043921 15.9629931,11.7424953 L15.8613145,12.0683398 C15.2845462,13.9287356 14.8289081,15.3983382 12.7502433,16.4606351 C12.0561762,16.8153763 11.3650563,16.9953613 10.6963352,16.9953613 Z M4.85578842,16.8333275 C4.66052628,17.0285896 3.64409224,16.8339116 2.90283203,16.0926514 C2.16157182,15.3513912 1.97618561,14.344249 2.17144775,14.1489868 C2.3667099,13.9537247 2.79206499,14.7628902 3.5333252,15.5041504 C4.2745854,16.2454106 5.05105057,16.6380653 4.85578842,16.8333275 Z M13.245256,2.21665802 C13.4405182,2.02139587 14.4569522,2.21607393 15.1982124,2.95733414 C15.9394726,3.69859434 16.1248589,4.70573654 15.9295967,4.90099869 C15.7343346,5.09626083 15.3089795,4.28709532 14.5677193,3.54583511 C13.8264591,2.80457491 13.0499939,2.41192017 13.245256,2.21665802 Z" id="Combined-Shape" fill="#000000"></path>
    </g>
</svg>