<?xml version="1.0" encoding="UTF-8"?>
<svg width="18px" height="18px" viewBox="0 0 18 18" version="1.1" xmlns="http://www.w3.org/2000/svg" xmlns:xlink="http://www.w3.org/1999/xlink">
    <!-- Generator: Sketch 52.5 (67469) - http://www.bohemiancoding.com/sketch -->
    <title>Wordpress</title>
    <desc>Created with Sketch.</desc>
    <g id="Wordpress" stroke="none" stroke-width="1" fill="none" fill-rule="evenodd">
        <path d="M15.3126667,5.55 C15.8726667,6.57466667 16.1913333,7.75 16.1913333,9 C16.1913333,11.6526667 14.754,13.9706667 12.616,15.2166667 L14.8126667,8.86533333 C15.2226667,7.83866667 15.3593333,7.018 15.3593333,6.28933333 C15.3593333,6.01933333 15.342,5.76933333 15.3126667,5.54933333 L15.3126667,5.55 Z M9.992,5.61933333 C10.4233333,5.59933333 10.8133333,5.54933333 10.8133333,5.54933333 C11.2013333,5.49933333 11.156,4.92933333 10.7686667,4.95 C10.7686667,4.95 9.59866667,5.04 8.84866667,5.04 C8.13933333,5.04 6.94866667,4.94 6.94866667,4.94 C6.55866667,4.92 6.508,5.51 6.89866667,5.53 C6.89866667,5.53 7.25866667,5.57066667 7.64866667,5.59 L8.76866667,8.66 L7.18866667,13.38 L4.56933333,5.6 C5.002,5.58 5.392,5.53333333 5.392,5.53333333 C5.782,5.48333333 5.736,4.91333333 5.34866667,4.936 C5.34866667,4.936 4.18466667,5.028 3.43266667,5.028 C3.29933333,5.028 3.14066667,5.02266667 2.97266667,5.018 C4.274,3.1 6.49,1.81 9,1.81 C10.8726667,1.81 12.5766667,2.52466667 13.8573333,3.69866667 C13.8266667,3.69666667 13.7966667,3.69266667 13.7633333,3.69266667 C13.0566667,3.69266667 12.5553333,4.308 12.5553333,4.96866667 C12.5553333,5.562 12.8973333,6.064 13.262,6.656 C13.536,7.136 13.8553333,7.75133333 13.8553333,8.64066667 C13.8553333,9.25066667 13.6193333,9.97 13.308,10.96 L12.5913333,13.35 L9.99133333,5.61 L9.992,5.61933333 Z M9,16.1893333 C8.294,16.1893333 7.61266667,16.0873333 6.968,15.898 L9.126,9.62733333 L11.336,15.6853333 C11.352,15.7206667 11.3693333,15.7526667 11.388,15.7846667 C10.6413333,16.0466667 9.838,16.1906667 9,16.1906667 L9,16.1893333 Z M1.80733333,9 C1.80733333,7.95733333 2.03133333,6.96666667 2.43066667,6.07333333 L5.86,15.4726667 C3.46266667,14.3066667 1.808,11.8473333 1.80733333,9 Z M9,1 C4.59,1 1,4.59 1,9 C1,13.41 4.59,17 9,17 C13.41,17 17,13.41 17,9 C17,4.59 13.41,1 9,1 Z" id="Shape" fill="#0087BE" fill-rule="nonzero"></path>
    </g>
</svg>