<?xml version="1.0" encoding="UTF-8"?>
<svg width="18px" height="18px" viewBox="0 0 18 18" version="1.1" xmlns="http://www.w3.org/2000/svg" xmlns:xlink="http://www.w3.org/1999/xlink">
    <!-- Generator: Sketch 52.5 (67469) - http://www.bohemiancoding.com/sketch -->
    <title>Yahoo</title>
    <desc>Created with Sketch.</desc>
    <g id="Yahoo" stroke="none" stroke-width="1" fill="none" fill-rule="evenodd">
        <path d="M10.027957,17 C10.027957,17 9.46795703,16.8986667 9.0166237,16.8986667 C8.6106237,16.8986667 8.00129036,17 8.00129036,17 L8.1286237,10.2033333 C7.18529036,8.57266667 4.41329036,3.60666667 2.68329036,1 C3.55329036,1.198 3.91929036,1.186 4.79329036,1 L4.8066237,1.02266667 C5.90795703,2.97333333 7.5926237,5.69266667 9.0166237,8.04933333 C10.4226237,5.734 12.635957,2.11866667 13.235957,1 C13.915957,1.17866667 14.601957,1.172 15.361957,1 C14.5612904,2.078 11.6512904,7.11533333 9.89195703,10.2033333 L10.0226237,17 L10.027957,17 Z" id="Path" fill="#440099"></path>
    </g>
</svg>