<svg aria-hidden="true" class="svg-spot spotAchievementsXL" width="196" height="196" viewBox="0 0 196 196"><path opacity=".04" d="M57.16 181.22c-3.79-.84-49.34-8.35-45.98-63.81 3.35-55.46 7.56-72.14 25.27-78.24 17.7-6.1 60.75-34.97 94.53-7.52s70.23 52.08 55.76 95.91c-14.46 43.84-16.83 58.46-54.57 56.22-37.74-2.24-56.98 1.4-75-2.56z" fill="#0054A3"/><path opacity=".5" d="M85.75 142h33.5a5.36 5.36 0 0 0 3.75 3.8v12.4a5.36 5.36 0 0 0-3.75 3.8h-33.5a5.36 5.36 0 0 0-3.75-3.8v-12.4a5.36 5.36 0 0 0 3.75-3.8z" fill="#ADDAFC"/><path d="M92 146a1 1 0 0 1 1-1h14a1 1 0 0 1 0 2H93a1 1 0 0 1-1-1zm-3 5a1 1 0 0 0 0 2h21a1 1 0 0 0 0-2H89z" fill="#07C"/><path d="M82.05 138.84a1 1 0 0 1 .99-.84h32.92a1 1 0 0 1 .99.84 4.36 4.36 0 0 0 3.3 3.51 1 1 0 0 1 .75.97v12.23a1 1 0 0 1-.76.97 4.4 4.4 0 0 0-3.12 2.8 1 1 0 0 1-.94.68H82.82a1 1 0 0 1-.94-.68 4.4 4.4 0 0 0-3.12-2.8 1 1 0 0 1-.76-.97v-12.23a1 1 0 0 1 .76-.97 4.36 4.36 0 0 0 3.29-3.5zm1.78 1.16a6.37 6.37 0 0 1-3.83 4.05v10.77a6.41 6.41 0 0 1 3.49 3.18h32.02a6.42 6.42 0 0 1 3.49-3.18v-10.77a6.37 6.37 0 0 1-3.83-4.05H83.83z" fill="#07C"/><path d="M143.9 84.2a1 1 0 0 0 .1-.42V35.3a3.3 3.3 0 0 0-3.3-3.3H57.3a3.3 3.3 0 0 0-3.3 3.3v48.48c0 .15.03.3.1.42 1.28 17.2 15.85 31.16 34.88 34.85-.99 6.4-1.96 9.7-2.86 11.38a3.26 3.26 0 0 1-1.12 1.36c-.28.16-.57.2-.99.21H65.75a4 4 0 0 0-3.83 2.86L53.25 164h-3.23a3 3 0 0 0-2.72 1.73l-2.34 5a3 3 0 0 0 2.72 4.27h104.65a3 3 0 0 0 2.74-4.23l-2.24-5a3 3 0 0 0-2.74-1.77h-3.34l-8.67-29.14a4 4 0 0 0-3.84-2.86H114c-.01 0-.14-.03-.4-.3a6.3 6.3 0 0 1-.92-1.36 29.63 29.63 0 0 1-1.85-4.65 77.12 77.12 0 0 1-1.72-6.31l-.05-.2-.03-.14c19.03-3.69 33.6-17.64 34.88-34.84zM84 134h50.25a2 2 0 0 1 1.91 1.43l8.5 28.57H55.34l8.5-28.57a2 2 0 0 1 1.91-1.43H84zm3.51-2c.13-.2.25-.4.37-.63 1.08-2 2.08-5.6 3.07-11.98a52.94 52.94 0 0 0 16.11 0 39.15 39.15 0 0 0 .48 2.04 79 79 0 0 0 1.38 4.88 31.48 31.48 0 0 0 2 4.97l.4.72h-23.8zM57.3 34h83.4c.72 0 1.3.58 1.3 1.3V40H56v-4.7c0-.72.58-1.3 1.3-1.3zm84.7 8v41.42a.98.98 0 0 0-.06.3C140.72 102.69 122.1 118 99 118c-23.1 0-41.72-15.31-42.94-34.28a1 1 0 0 0-.06-.3V42h86zM49.11 166.58a1 1 0 0 1 .9-.58H150.1a1 1 0 0 1 .91.6l2.24 5a1 1 0 0 1-.91 1.4H47.68a1 1 0 0 1-.9-1.42l2.33-5z" fill="#07C"/><path d="M52 45a1 1 0 0 0-1-1H37a1 1 0 0 0-1 1v22.33c0 7.69 3.72 12.15 7.44 14.64a20.43 20.43 0 0 0 7.36 3.01h.05L51 84l-.15.99a1 1 0 0 0 .3-1.98h-.03a5.31 5.31 0 0 1-.5-.1 18.44 18.44 0 0 1-6.06-2.6C41.28 78.1 38 74.24 38 67.33V46h13a1 1 0 0 0 1-1zm95-1h14a1 1 0 0 1 1 1v22.33c0 7.69-3.72 12.15-7.44 14.64a20.44 20.44 0 0 1-7.22 2.99h-.05l-.09.02h-.05L147 84l.15.99a1 1 0 0 1-.3-1.98h.03l.04-.01.06-.01.4-.08a18.43 18.43 0 0 0 6.06-2.6c3.28-2.2 6.56-6.07 6.56-12.98V46h-13a1 1 0 0 1 0-2z" fill="#07C"/><g opacity=".5" fill="#F7AA6D"><path d="M32 12a1 1 0 0 1 1 1v4h4a1 1 0 1 1 0 2h-4v4a1 1 0 1 1-2 0v-4h-4a1 1 0 1 1 0-2h4v-4a1 1 0 0 1 1-1zm69.49 76.86a1 1 0 0 1 1.02 0l11 6.55a1 1 0 0 0 1.5-1.08l-2.84-12.49a1 1 0 0 1 .32-.97l9.63-8.44a1 1 0 0 0-.57-1.75l-12.75-1.17a1 1 0 0 1-.83-.6l-5.05-11.77a1 1 0 0 0-1.84 0l-5.05 11.77a1 1 0 0 1-.83.6l-12.75 1.17a1 1 0 0 0-.57 1.75l9.63 8.44a1 1 0 0 1 .32.97L89 94.34a1 1 0 0 0 1.48 1.07l11-6.55zM161 14a1 1 0 0 1 .85.47l5 8A1 1 0 0 1 166 24h-10a1 1 0 0 1-.85-1.53l5-8A1 1 0 0 1 161 14zm3.2 8l-3.2-5.11-3.2 5.11h6.4zm11.3 57a5.5 5.5 0 1 0 0 11 5.5 5.5 0 0 0 0-11zm-3.5 5.5a3.5 3.5 0 1 1 7 0 3.5 3.5 0 0 1-7 0z"/></g><path d="M181 31a1 1 0 0 1 1 1v5h5a1 1 0 0 1 0 2h-5v5a1 1 0 0 1-2 0v-5h-5a1 1 0 0 1 0-2h5v-5a1 1 0 0 1 1-1zM8 36.5a6.5 6.5 0 1 1 13 0 6.5 6.5 0 0 1-13 0zm6.5-4.5a4.5 4.5 0 1 0 0 9 4.5 4.5 0 0 0 0-9zm82.66 21.75a2 2 0 0 1 3.68 0l5.05 11.77 12.75 1.16a2 2 0 0 1 1.14 3.5l-9.64 8.44 2.84 12.5a2 2 0 0 1-2.98 2.15l-11-6.55-11 6.55a2 2 0 0 1-2.98-2.16l2.83-12.49-9.63-8.44a2 2 0 0 1 1.14-3.5l12.75-1.16 5.05-11.77zm6.89 12.56L99 54.54 93.95 66.3a2 2 0 0 1-1.66 1.2l-12.75 1.17 9.63 8.44a2 2 0 0 1 .64 1.94l-2.84 12.5 11-6.56a2 2 0 0 1 2.05 0l11 6.56-2.83-12.5a2 2 0 0 1 .64-1.94l9.63-8.44-12.75-1.17a2 2 0 0 1-1.66-1.2z" fill="#F2720C"/></svg>