<svg aria-hidden="true" class="svg-spot spotAchievementsMd" width="48" height="48" viewBox="0 0 48 48"><g opacity=".5"><path d="M24.92 6.6a1 1 0 0 0-1.84 0l-2.2 5.12-5.53.5a1 1 0 0 0-.57 1.75l4.18 3.67-1.23 5.42a1 1 0 0 0 1.5 1.08L24 21.29l4.78 2.85a1 1 0 0 0 1.49-1.08l-1.23-5.42 4.18-3.67a1 1 0 0 0-.57-1.75l-5.54-.5-2.2-5.11zm-2.43 6.45L24 9.54l1.5 3.51a1 1 0 0 0 .84.6l3.8.35-2.87 2.52a1 1 0 0 0-.32.98l.85 3.73-3.29-1.96a1 1 0 0 0-1.02 0l-3.29 1.96.85-3.73a1 1 0 0 0-.32-.98L17.85 14l3.81-.35a1 1 0 0 0 .83-.6zM19 41a1 1 0 1 0 0 2h10a1 1 0 1 0 0-2H19z"/></g><path d="M10 1a2 2 0 0 0-2 2v19c0 3.2 1.95 5.97 4.84 7.9a18.76 18.76 0 0 0 7.03 2.73l-.02.12c-.11.55-.26 1.28-.45 2a14.51 14.51 0 0 1-.74 2.25H13a1 1 0 0 0-.94.65l-3 8A1 1 0 0 0 10 47h29a1 1 0 0 0 .94-1.35l-3-8A1 1 0 0 0 36 37h-6.66a14.54 14.54 0 0 1-.74-2.24 39.98 39.98 0 0 1-.47-2.13 18.76 18.76 0 0 0 7.03-2.73C38.06 27.97 40 25.2 40 22V3a2 2 0 0 0-2-2H10zm16.15 31.9a42.73 42.73 0 0 0 .5 2.34c.15.6.33 1.22.52 1.76h-6.34c.2-.54.37-1.16.52-1.76a41.97 41.97 0 0 0 .5-2.34 23.62 23.62 0 0 0 4.3 0zM10 3h28v19c0 2.32-1.41 4.55-3.95 6.24C31.52 29.92 27.97 31 24 31c-3.97 0-7.52-1.08-10.05-2.76C11.4 26.54 10 24.32 10 22V3zm25.3 36l2.26 6H11.44l2.25-6h21.62zM6 8a1 1 0 0 1 0 2H3v7c0 1.05.72 2.05 1.66 2.87.45.4.9.7 1.25.92l.08.05c.58.36 1.3.81.9 1.6a1 1 0 0 1-1.34.45c-.23-.12 0 0 0 0a11.84 11.84 0 0 1-2.21-1.52C2.28 20.46 1 18.96 1 17V9c0-.54.46-1 1-1h4zm35 1a1 1 0 0 1 1-1h4c.54 0 1 .46 1 1v8c0 1.95-1.28 3.45-2.34 4.38a12.7 12.7 0 0 1-2.21 1.51 1 1 0 1 1-.9-1.78 8.98 8.98 0 0 0 1.8-1.24C44.27 19.05 45 18.05 45 17v-7h-3a1 1 0 0 1-1-1z"/></svg>