<svg aria-hidden="true" class="svg-spot spotAchievementsLg" width="96" height="96" viewBox="0 0 96 96"><path opacity=".5" d="M38.87 78h24.26A4 4 0 0 0 66 80.87v8.26A4 4 0 0 0 63.13 92H38.87A4 4 0 0 0 36 89.13v-8.26A4 4 0 0 0 38.87 78z" fill="#ADDAFC"/><path opacity=".5" d="M51.51 43.1a1 1 0 0 0-1.02 0L43 47.57a1 1 0 0 1-1.49-1.08L43.44 38a1 1 0 0 0-.32-.97l-6.54-5.74a1 1 0 0 1 .56-1.75l8.67-.79a1 1 0 0 0 .83-.6l3.43-8a1 1 0 0 1 1.84 0l3.43 8a1 1 0 0 0 .83.6l8.67.8a1 1 0 0 1 .56 1.74l-6.54 5.74a1 1 0 0 0-.32.97l1.93 8.49a1 1 0 0 1-1.49 1.08l-7.48-4.45z" fill="#F7AA6D"/><path d="M43 79a1 1 0 1 0 0 2h10a1 1 0 1 0 0-2H43zm-3 5a1 1 0 0 1 1-1h15a1 1 0 1 1 0 2H41a1 1 0 0 1-1-1z" fill="#07C"/><path d="M35.87 74a1 1 0 0 0-.96.75 3 3 0 0 1-2.16 2.16 1 1 0 0 0-.75.96v8.26c0 .45.3.85.75.96a3 3 0 0 1 2.16 2.16 1 1 0 0 0 .96.75h24.26a1 1 0 0 0 .96-.75 3 3 0 0 1 2.16-2.16 1 1 0 0 0 .75-.96v-8.26a1 1 0 0 0-.75-.96 3 3 0 0 1-2.16-2.16 1 1 0 0 0-.96-.75H35.87zM34 78.58A5.02 5.02 0 0 0 36.58 76h22.84A5.02 5.02 0 0 0 62 78.58v6.84A5.02 5.02 0 0 0 59.42 88H36.58A5.02 5.02 0 0 0 34 85.42v-6.84z" fill="#07C"/><path d="M82 36.27a1 1 0 0 1-.07.37c-.99 11.91-12.28 21.4-26.78 23.78a54.93 54.93 0 0 0 1.35 4.23c.46 1.23.98 2.4 1.51 3.26.27.43.51.73.72.91.18.16.27.18.28.18h12.08a4 4 0 0 1 3.86 2.94l4.97 18A4 4 0 0 1 76.06 95H19.94a4 4 0 0 1-3.86-5.06l4.97-18A4 4 0 0 1 24.9 69H36c.35 0 .59-.04.8-.14.21-.11.5-.34.85-.89.7-1.12 1.48-3.34 2.29-7.7-14.07-2.63-24.9-11.97-25.87-23.63a1 1 0 0 1-.07-.37V4.3A3.3 3.3 0 0 1 17.3 1h61.4A3.3 3.3 0 0 1 82 4.3v31.97zM16 4.3V7h64V4.3c0-.72-.58-1.3-1.3-1.3H17.3c-.72 0-1.3.58-1.3 1.3zM16 9v26.98a1 1 0 0 1 .04.22C16.9 48.7 30.64 59 48 59s31.1-10.31 31.96-22.8a1 1 0 0 1 .04-.22V9H16zm40.32 59.97a21.08 21.08 0 0 1-1.7-3.62 50.57 50.57 0 0 1-1.47-4.65 44.4 44.4 0 0 1-11.24-.12c-.8 4.4-1.63 6.95-2.54 8.42h16.97l-.02-.03zM24.9 71a2 2 0 0 0-1.93 1.47l-4.97 18A2 2 0 0 0 19.94 93h56.12a2 2 0 0 0 1.93-2.53l-4.97-18A2 2 0 0 0 71.1 71H24.91zM12 10a1 1 0 1 1 0 2H5v11.46c0 4.74 1.84 6.76 3.49 7.69a6.89 6.89 0 0 0 3.44.85 1 1 0 0 1 1.07.93c.06.83-.7 1.09-1.36 1.07a8.89 8.89 0 0 1-4.14-1.1C5.16 31.57 3 28.83 3 23.46V11c0-.54.46-1 1-1h8zm72.13 0a1 1 0 1 0 0 2h7v11.46c0 4.74-1.85 6.76-3.5 7.69a6.89 6.89 0 0 1-3.18.85h-.26a1 1 0 0 0-.14 2 8.89 8.89 0 0 0 4.56-1.1c2.36-1.33 4.52-4.07 4.52-9.44V11c0-.54-.46-1-1-1h-8z" fill="#07C"/><path d="M48 14a1 1 0 0 1 .92.6l4.35 10.15 10.99 1a1 1 0 0 1 .57 1.75l-8.3 7.27 2.44 10.76a1 1 0 0 1-1.49 1.08L48 40.97l-9.48 5.64a1 1 0 0 1-1.49-1.08l2.44-10.76-8.3-7.27a1 1 0 0 1 .57-1.75l10.99-1 4.35-10.14A1 1 0 0 1 48 14zm0 3.54l-3.67 8.54a1 1 0 0 1-.82.6l-9.27.85 7 6.13a1 1 0 0 1 .32.97L39.5 43.7l7.99-4.76a1 1 0 0 1 1.02 0l8 4.76-2.07-9.07a1 1 0 0 1 .32-.97l7-6.13-9.27-.85a1 1 0 0 1-.82-.6L48 17.54z" fill="#F2720C"/></svg>