<svg aria-hidden="true" class="svg-spot spotAds" width="48" height="48" viewBox="0 0 48 48"><path d="M47 38.28c0 .36-.27.72-.68.72H32.68c-.34 0-.68-.36-.68-.72V26.72c0-.36.34-.72.68-.72h13.64c.4 0 .68.36.68.72v11.56zM4 14.76c0-.46.35-.76.7-.76h36.6c.35 0 .7.3.7.76v6.48c0 .46-.35.76-.7.76H4.7c-.35 0-.7-.3-.7-.76v-6.48z" opacity=".2"/><path d="M29 24a1 1 0 011-1h15a1 1 0 011 1v13a1 1 0 01-1 1H30a1 1 0 01-1-1V24zm2 1v11h13V25H31zM8 4a2 2 0 00-2 2v3a1 1 0 001 1h35v10.19a1 1 0 102 0V6a2 2 0 00-2-2H8zm7 4H8V6h7v2zm27 0H17V6h25v2zM8 24a1 1 0 10-2 0v18c0 1.1.9 2 2 2h34a2 2 0 002-2v-1a1 1 0 10-2 0v1H8V24zm10 9a1 1 0 100 2h8a1 1 0 100-2h-8zm-8 1a1 1 0 011-1h4a1 1 0 110 2h-4a1 1 0 01-1-1zm1-5a1 1 0 100 2h15a1 1 0 100-2H11zm-1-5a1 1 0 011-1h15a1 1 0 011 1v3a1 1 0 01-1 1H11a1 1 0 01-1-1v-3zm2 1v1h13v-1H12zM2 11a1 1 0 00-1 1v8a1 1 0 001 1h38a1 1 0 001-1v-8a1 1 0 00-1-1H2zm1 8v-6h36v6H3zm34-3a1 1 0 11-2 0 1 1 0 0 1 2 0zm5 13a1 1 0 11-2 0 1 1 0 0 1 2 0zm0 4a1 1 0 11-2 0 1 1 0 0 1 2 0zm-4 0a1 1 0 11-2 0 1 1 0 0 1 2 0z"/></svg>