<svg aria-hidden="true" class="svg-spot spotAdsLg" width="96" height="96" viewBox="0 0 96 96"><path d="M63 54c0-1.1.9-2 2-2h26a2 2 0 0 1 2 2v23a2 2 0 0 1-2 2H65a2 2 0 0 1-2-2V54Zm18-27H10c-1.1 0-2 .84-2 1.88v14.24c0 1.04.9 1.88 2 1.88h71c1.1 0 2-.84 2-1.88V28.88c0-1.04-.9-1.88-2-1.88Z" opacity=".2"/><path d="M11 11.55C11 9.6 12.6 8 14.55 8h68.9C85.4 8 87 9.6 87 11.55V42.5a1.5 1.5 0 1 1-3 0V19H12.5a1.5 1.5 0 0 1-1.5-1.5v-5.95ZM14 16h14v-5H14v5Zm17 0h53v-5H31v5ZM12.5 46c.83 0 1.5.67 1.5 1.5V85h70v-3.5a1.5 1.5 0 0 1 3 0v2.95C87 86.4 85.4 88 83.45 88h-68.9A3.55 3.55 0 0 1 11 84.45V47.5c0-.83.67-1.5 1.5-1.5ZM57 47.5c0-.83.67-1.5 1.5-1.5h31c.83 0 1.5.67 1.5 1.5v28c0 .83-.67 1.5-1.5 1.5h-31a1.5 1.5 0 0 1-1.5-1.5v-28Zm3 1.5v25h28V49H60ZM35.5 68a1.5 1.5 0 0 0 0 3h16a1.5 1.5 0 0 0 0-3h-16ZM19 69.5c0-.83.67-1.5 1.5-1.5H29a1.5 1.5 0 1 1 0 3h-8.5a1.5 1.5 0 0 1-1.5-1.5Zm1.5-9.5a1.5 1.5 0 0 0 0 3h31a1.5 1.5 0 1 0 0-3h-31ZM19 49.5c0-.83.67-1.5 1.5-1.5h31c.83 0 1.5.67 1.5 1.5v6c0 .83-.67 1.5-1.5 1.5h-31a1.5 1.5 0 0 1-1.5-1.5v-6Zm3 1.5v3h28v-3H22ZM3.5 21c-.83 0-1.5.67-1.5 1.5v19c0 .83.67 1.5 1.5 1.5h76c.83 0 1.5-.67 1.5-1.5v-19c0-.83-.67-1.5-1.5-1.5h-76ZM5 40V24h73v16H5Z"/><circle cx="82" cy="59" r="2"/><circle cx="70" cy="32" r="2"/><circle cx="82" cy="68" r="2"/><circle cx="73" cy="68" r="2"/></svg>