<svg aria-hidden="true" class="svg-spot spotAdsXL" width="196" height="196" viewBox="0 0 196 196"><path opacity=".07" d="M21.57 31.15C47.61 10.02 96.22-3.5 139.05 10.45c37.65 12.25 64.72 98.83 33.96 135.75-30.76 36.93-78.79 41.98-107.95 35.98-29.15-6-47.82-59.81-51.7-74.5-3.9-14.69-4.58-66.14 8.21-76.53ZM35 57v25h111V57H35Zm126 37h-45v41h45V94Z"/><path d="M150 63H43a2 2 0 0 0-2 2v21c0 1.1.9 2 2 2h107a2 2 0 0 0 2-2V65a2 2 0 0 0-2-2Zm14 37h-39a3 3 0 0 0-3 3v35a3 3 0 0 0 3 3h39a3 3 0 0 0 3-3v-35a3 3 0 0 0-3-3Z" opacity=".2"/><path d="m52 16-4-4-4 4 4 4 4-4Zm-1.95 20A4.05 4.05 0 0 0 46 40.05v9.69a2 2 0 0 0 0 .13A2 2 0 0 0 48 52h105v34.43a2 2 0 1 0 4 0V40.05a4.05 4.05 0 0 0-4.05-4.05H50.05ZM71 48H50v-7.95a.05.05 0 0 1 .02-.03l.01-.02H71v8Zm82 0H75v-8h77.96l.02.01.02.02V48ZM50 93.77a2 2 0 0 0-4 0v55.18a4.05 4.05 0 0 0 4.05 4.05h102.9a4.05 4.05 0 0 0 4.05-4.05v-3.29a2 2 0 0 0-4 0v3.3l-.01.03h-.03v.01H50.02l-.01-.01-.02-.02v-55.2ZM154 113a3 3 0 1 1-6 0 3 3 0 0 1 6 0Zm-3 15a3 3 0 1 0 0-6 3 3 0 0 0 0 6Zm-9-3a3 3 0 1 1-6 0 3 3 0 0 1 6 0Zm-26-33a2 2 0 0 0-2 2v41c0 1.1.9 2 2 2h45a2 2 0 0 0 2-2V94a2 2 0 0 0-2-2h-45Zm2 41V96h41v37h-41Zm-38-7c0-1.1.9-2 2-2h23a2 2 0 1 1 0 4H82a2 2 0 0 1-2-2Zm-20-2a2 2 0 1 0 0 4h15a2 2 0 1 0 0-4H60Zm-2-9c0-1.1.9-2 2-2h45a2 2 0 1 1 0 4H60a2 2 0 0 1-2-2Zm2-20a2 2 0 0 0-2 2v9c0 1.1.9 2 2 2h45a2 2 0 0 0 2-2v-9a2 2 0 0 0-2-2H60Zm2 9v-5h41v5H62Zm71-31a3 3 0 1 0 0-6 3 3 0 0 0 0 6ZM33 57c0-1.1.9-2 2-2h111a2 2 0 0 1 2 2v25a2 2 0 0 1-2 2H35a2 2 0 0 1-2-2V57Zm4 2v21h107V59H37ZM14 88a2 2 0 0 1 2 2v4h4a2 2 0 1 1 0 4h-4v4a2 2 0 1 1-4 0v-4H8a2 2 0 1 1 0-4h4v-4c0-1.1.9-2 2-2Zm159.5 54 8.5 8.5-8.5 8.5-8.5-8.5 8.5-8.5Zm-2.83 8.5 2.83 2.83 2.83-2.83-2.83-2.83-2.83 2.83Z"/></svg>