<svg aria-hidden="true" class="svg-spot spotAdsXL" width="196" height="196" viewBox="0 0 196 196"><path opacity=".07" d="M21.57 31.15C47.61 10.02 96.22-3.5 139.05 10.45c37.65 12.25 64.72 98.83 33.96 135.75-30.76 36.93-78.79 41.98-107.95 35.98-29.15-6-47.82-59.81-51.7-74.5-3.9-14.69-4.58-66.14 8.21-76.53zM35 57v25h111V57H35zm126 37h-45v41h45V94z"/><path d="M150 63H43a2 2 0 00-2 2v21c0 1.1.9 2 2 2h107a2 2 0 002-2V65a2 2 0 00-2-2zm14 37h-39a3 3 0 00-3 3v35a3 3 0 003 3h39a3 3 0 003-3v-35a3 3 0 00-3-3z" opacity=".2"/><path d="m52 16-4-4-4 4 4 4 4-4zm-1.95 20A4.05 4.05 0 0046 40.05v9.69a2 2 0 000 .13A2 2 0 0048 52h105v34.43a2 2 0 104 0V40.05a4.05 4.05 0 00-4.05-4.05H50.05zM71 48H50v-7.95a.05.05 0 01.02-.03l.01-.02H71v8zm82 0H75v-8h77.96l.02.01.02.02V48zM50 93.77a2 2 0 00-4 0v55.18a4.05 4.05 0 004.05 4.05h102.9a4.05 4.05 0 004.05-4.05v-3.29a2 2 0 00-4 0v3.3l-.01.03h-.03v.01H50.02l-.01-.01-.02-.02v-55.2zM154 113a3 3 0 11-6 0 3 3 0 0 1 6 0zm-3 15a3 3 0 100-6 3 3 0 0 0 0 6zm-9-3a3 3 0 11-6 0 3 3 0 0 1 6 0zm-26-33a2 2 0 00-2 2v41c0 1.1.9 2 2 2h45a2 2 0 002-2V94a2 2 0 00-2-2h-45zm2 41V96h41v37h-41zm-38-7c0-1.1.9-2 2-2h23a2 2 0 110 4H82a2 2 0 01-2-2zm-20-2a2 2 0 100 4h15a2 2 0 100-4H60zm-2-9c0-1.1.9-2 2-2h45a2 2 0 110 4H60a2 2 0 01-2-2zm2-20a2 2 0 00-2 2v9c0 1.1.9 2 2 2h45a2 2 0 002-2v-9a2 2 0 00-2-2H60zm2 9v-5h41v5H62zm71-31a3 3 0 100-6 3 3 0 0 0 0 6zM33 57c0-1.1.9-2 2-2h111a2 2 0 012 2v25a2 2 0 01-2 2H35a2 2 0 01-2-2V57zm4 2v21h107V59H37zM14 88a2 2 0 012 2v4h4a2 2 0 110 4h-4v4a2 2 0 11-4 0v-4H8a2 2 0 110-4h4v-4c0-1.1.9-2 2-2zm159.5 54 8.5 8.5-8.5 8.5-8.5-8.5 8.5-8.5zm-2.83 8.5 2.83 2.83 2.83-2.83-2.83-2.83-2.83 2.83z"/></svg>