<svg aria-hidden="true" class="svg-spot spotAlertCircleLg" width="96" height="96" viewBox="0 0 96 96"><path d="M77.09 2.72a2.5 2.5 0 0 1 1.26 3.3l-1.57 3.5a2.5 2.5 0 1 1-4.56-2.04l1.56-3.5a2.5 2.5 0 0 1 3.3-1.26zm13.16 6.89a2.5 2.5 0 0 0-3.31-3.75l-7.1 6.27a2.5 2.5 0 1 0 3.32 3.74l7.09-6.26zm.89 44.46a40.07 40.07 0 1 1-80.14 0 40.07 40.07 0 0 1 80.14 0zM45.5 76a6.5 6.5 0 1 0 0-13 6.5 6.5 0 0 0 0 13zm0-52.5A5.5 5.5 0 0 0 40 29v24.5a5.5 5.5 0 1 0 11 0V29a5.5 5.5 0 0 0-5.5-5.5zm48.9-2.8a2.5 2.5 0 0 1-2.2 2.77l-4.4.51a2.5 2.5 0 0 1-.6-4.96l4.43-.52a2.5 2.5 0 0 1 2.77 2.2zM3.55 23.46a2.5 2.5 0 1 1 .59-4.97l4.41.52a2.5 2.5 0 1 1-.58 4.96l-4.42-.51zM5.3 6.07a2.5 2.5 0 0 0 .22 3.54l7.09 6.26a2.5 2.5 0 0 0 3.3-3.74L8.84 5.86a2.5 2.5 0 0 0-3.53.22zm12.12-.04a2.5 2.5 0 1 1 4.56-2.04l1.56 3.49a2.5 2.5 0 1 1-4.56 2.04l-1.56-3.5z"  opacity=".2"/><path d="M45.5 76a6.5 6.5 0 1 0 0-13 6.5 6.5 0 0 0 0 13zm0-3a3.5 3.5 0 1 1 0-7 3.5 3.5 0 0 1 0 7zm0-49.5A5.5 5.5 0 0 0 40 29v24.5a5.5 5.5 0 1 0 11 0V29a5.5 5.5 0 0 0-5.5-5.5zM43 29a2.5 2.5 0 0 1 5 0v24.5a2.5 2.5 0 0 1-5 0V29zM6 49.5a41.5 41.5 0 1 1 83 0 41.5 41.5 0 0 1-83 0zM47.5 11a38.5 38.5 0 1 0 0 77 38.5 38.5 0 0 0 0-77z"/></svg>