<svg aria-hidden="true" class="svg-spot spotAlertCircle" width="48" height="48" viewBox="0 0 48 48"><path opacity=".2" d="M26.5 47a20.5 20.5 0 1 0 0-41 20.5 20.5 0 0 0 0 41ZM20 15a3 3 0 1 1 6 0v9a3 3 0 1 1-6 0v-9Zm3 20a3 3 0 1 1 0-6 3 3 0 0 1 0 6Z"/><path d="M23 12a3 3 0 0 0-3 3v9a3 3 0 1 0 6 0v-9a3 3 0 0 0-3-3Zm-1 3a1 1 0 1 1 2 0v9a1 1 0 1 1-2 0v-9Zm4.25 17a3.25 3.25 0 1 1-6.5 0 3.25 3.25 0 0 1 6.5 0Zm-2 0a1.25 1.25 0 1 0-2.5 0 1.25 1.25 0 0 0 2.5 0ZM2 23.5a21.5 21.5 0 1 1 43 0 21.5 21.5 0 0 1-43 0ZM23.5 4a19.5 19.5 0 1 0 0 39 19.5 19.5 0 0 0 0-39Z"/></svg>