<svg aria-hidden="true" class="svg-spot spotAlert" width="48" height="48" viewBox="0 0 48 48"><path opacity=".2" d="M22.97 11.06a3.55 3.55 0 016.06 0L46 38.61A3.55 3.55 0 0142.97 44H9.03A3.55 3.55 0 016 38.6l16.97-27.54zM23 37a3 3 0 100-6 3 3 0 000 6zm0-23a3 3 0 00-3 3v9a3 3 0 106 0v-9a3 3 0 00-3-3z"/><path d="M20 17a3 3 0 116 0v9a3 3 0 11-6 0v-9zm3-1a1 1 0 00-1 1v9a1 1 0 102 0v-9a1 1 0 00-1-1zm3.25 18a3.25 3.25 0 11-6.5 0 3.25 3.25 0 016.5 0zm-2 0a1.25 1.25 0 10-2.5 0 1.25 1.25 0 002.5 0zm1.78-26.94a3.55 3.55 0 00-6.06 0L2 36.61A3.55 3.55 0 005.03 42h35.94A3.55 3.55 0 0044 36.6L26.03 7.07zM21.68 8.1c.6-1 2.04-1 2.64 0L42.3 37.65A1.55 1.55 0 0140.97 40H5.03a1.55 1.55 0 01-1.32-2.35L21.68 8.1z"/></svg>