<svg aria-hidden="true" class="svg-spot spotAlert" width="48" height="48" viewBox="0 0 48 48"><path opacity=".2" d="M22.97 11.06a3.55 3.55 0 016.06 0L46 38.61A3.55 3.55 0 0142.97 44H9.03A3.55 3.55 0 016 38.6l16.97-27.54zM23 37a3 3 0 100-6 3 3 0 000 6zm0-23a3 3 0 00-3 3v9a3 3 0 106 0v-9a3 3 0 00-3-3z"/><path d="M23 37a3 3 0 100-6 3 3 0 000 6zm0-2a1 1 0 110-2 1 1 0 010 2zm0-21a3 3 0 00-3 3v9a3 3 0 106 0v-9a3 3 0 00-3-3zm-1 3a1 1 0 112 0v9a1 1 0 11-2 0v-9zm-2.03-9.94a3.55 3.55 0 016.06 0L44 36.61A3.55 3.55 0 0140.97 42H5.03A3.55 3.55 0 012 36.6L19.97 7.07zm4.35 1.04c-.6-1-2.04-1-2.64 0L3.7 37.65A1.55 1.55 0 005.03 40h35.94c1.2 0 1.95-1.32 1.32-2.35L24.32 8.1z"/></svg>