<svg aria-hidden="true" class="svg-spot spotAlertCircleXL" width="207" height="202" viewBox="0 0 207 202"><path opacity=".07" d="M20 27.28c24.68-22.7 109-30 147.5 0s44.35 107.57 13.6 144.5C150.33 208.7 91.65 188 62.5 182c-29.16-6-46.52-41.53-50.4-56.22C8.2 111.09-5 50.28 20 27.28z"/><path d="M41.02 36.44a3.5 3.5 0 016.82-1.56l2.38 10.33a3.5 3.5 0 01-6.82 1.57l-2.38-10.34zm-20.65-.25a3.5 3.5 0 00.32 4.94l14.9 13.12a3.5 3.5 0 004.62-5.26L25.3 35.87a3.5 3.5 0 00-4.94.32zM16.2 59.46a3.5 3.5 0 002.93 3.98l13.68 2.06a3.5 3.5 0 101.04-6.92l-13.67-2.06a3.5 3.5 0 00-3.99 2.94zm141.21-26.42a3.5 3.5 0 00-4.53 1.98l-5.06 12.87a3.5 3.5 0 106.52 2.56l5.05-12.88a3.5 3.5 0 00-1.98-4.53zm16.87 8.46a3.5 3.5 0 114.1 5.67l-16.1 11.6a3.5 3.5 0 01-4.1-5.67l16.1-11.6zm3.55 24.36a3.5 3.5 0 00-3.5-3.5l-10.6.02a3.5 3.5 0 000 7l10.6-.02a3.5 3.5 0 003.5-3.5zM103.5 175a65.5 65.5 0 100-131 65.5 65.5 0 000 131zm3.5-40.5a9.5 9.5 0 11-19 0 9.5 9.5 0 0119 0zm-17-64a7.5 7.5 0 0115 0v41a7.5 7.5 0 01-15 0v-41z" opacity=".2"/><path d="M140.37 10l4.63 4.5-4.5 4.5-4.5-4.5 4.37-4.5zM107 134.5a9.5 9.5 0 11-19 0 9.5 9.5 0 0119 0zm-4 0a5.5 5.5 0 10-11 0 5.5 5.5 0 0011 0zm-13-64a7.5 7.5 0 0115 0v41a7.5 7.5 0 01-15 0v-41zm7.5-3.5a3.5 3.5 0 00-3.5 3.5v41a3.5 3.5 0 107 0v-41a3.5 3.5 0 00-3.5-3.5zM30 103.5a67.5 67.5 0 11135 0 67.5 67.5 0 01-135 0zM97.5 40a63.5 63.5 0 100 127 63.5 63.5 0 000-127zM26 147a2 2 0 012 2v4h4a2 2 0 110 4h-4v4a2 2 0 11-4 0v-4h-4a2 2 0 110-4h4v-4c0-1.1.9-2 2-2zm140.29 26l9.29 9.29-9.3 9.29-9.28-9.3 9.29-9.28zm-3.1 9.29l3.1 3.1 3.1-3.1-3.1-3.1-3.1 3.1z"/></svg>