<svg aria-hidden="true" class="svg-spot spotAlert" width="48" height="48" viewBox="0 0 48 48"><path opacity=".2" d="M22.97 11.06a3.55 3.55 0 0 1 6.06 0L46 38.61A3.55 3.55 0 0 1 42.97 44H9.03A3.55 3.55 0 0 1 6 38.6l16.97-27.54ZM23 37a3 3 0 1 0 0-6 3 3 0 0 0 0 6Zm0-23a3 3 0 0 0-3 3v9a3 3 0 1 0 6 0v-9a3 3 0 0 0-3-3Z"/><path d="M20 17a3 3 0 1 1 6 0v9a3 3 0 1 1-6 0v-9Zm3-1a1 1 0 0 0-1 1v9a1 1 0 1 0 2 0v-9a1 1 0 0 0-1-1Zm3.25 18a3.25 3.25 0 1 1-6.5 0 3.25 3.25 0 0 1 6.5 0Zm-2 0a1.25 1.25 0 1 0-2.5 0 1.25 1.25 0 0 0 2.5 0Zm1.78-26.94a3.55 3.55 0 0 0-6.06 0L2 36.61A3.55 3.55 0 0 0 5.03 42h35.94A3.55 3.55 0 0 0 44 36.6L26.03 7.07ZM21.68 8.1c.6-1 2.04-1 2.64 0L42.3 37.65A1.55 1.55 0 0 1 40.97 40H5.03a1.55 1.55 0 0 1-1.32-2.35L21.68 8.1Z"/></svg>