<svg aria-hidden="true" class="svg-spot spotAlertCircle" width="48" height="48" viewBox="0 0 48 48"><path opacity=".2" d="M26.5 47a20.5 20.5 0 100-41 20.5 20.5 0 000 41zM20 15a3 3 0 116 0v9a3 3 0 11-6 0v-9zm3 20a3 3 0 110-6 3 3 0 010 6z"/><path d="M23 12a3 3 0 00-3 3v9a3 3 0 106 0v-9a3 3 0 00-3-3zm-1 3a1 1 0 112 0v9a1 1 0 11-2 0v-9zm4.25 17a3.25 3.25 0 11-6.5 0 3.25 3.25 0 016.5 0zm-2 0a1.25 1.25 0 10-2.5 0 1.25 1.25 0 002.5 0zM2 23.5a21.5 21.5 0 1143 0 21.5 21.5 0 01-43 0zM23.5 4a19.5 19.5 0 100 39 19.5 19.5 0 000-39z"/></svg>