<svg aria-hidden="true" class="svg-spot spotAlertLg" width="97" height="96" viewBox="0 0 97 96"><path d="M46.92 13.07a4.72 4.72 0 0 1 8.16 0l40.33 69.86A4.72 4.72 0 0 1 91.33 90H10.67a4.72 4.72 0 0 1-4.08-7.07l40.33-69.86ZM46.5 76a6.5 6.5 0 1 0 0-13 6.5 6.5 0 0 0 0 13Zm0-52.5A5.5 5.5 0 0 0 41 29v24.5a5.5 5.5 0 1 0 11 0V29a5.5 5.5 0 0 0-5.5-5.5Zm47.28 24.51A2.5 2.5 0 0 1 91 50.2l-7.01-.87a2.5 2.5 0 0 1 .61-4.96l7.02.87A2.5 2.5 0 0 1 93.78 48Zm-1.96-11.78a2.5 2.5 0 1 0-2.52-4.32l-9.75 5.69a2.5 2.5 0 0 0 2.52 4.32l9.75-5.7ZM79.98 26.8a2.5 2.5 0 0 1 1 3.4l-2.59 4.76a2.5 2.5 0 0 1-4.39-2.4l2.6-4.75a2.5 2.5 0 0 1 3.38-1ZM4.3 42.19a2.5 2.5 0 0 1-.6-4.96l7-.87a2.5 2.5 0 0 1 .62 4.96l-7.01.87ZM2.58 24.8a2.5 2.5 0 0 0 .9 3.43l9.75 5.69a2.5 2.5 0 1 0 2.52-4.32L6 23.9a2.5 2.5 0 0 0-3.42.9Zm11.74-2.6a2.5 2.5 0 1 1 4.39-2.4l2.6 4.77a2.5 2.5 0 1 1-4.4 2.39l-2.6-4.76Z" opacity=".2"/><path d="M46.5 76a6.5 6.5 0 1 0 0-13 6.5 6.5 0 0 0 0 13Zm0-3a3.5 3.5 0 1 1 0-7 3.5 3.5 0 0 1 0 7Zm0-49.5A5.5 5.5 0 0 0 41 29v24.5a5.5 5.5 0 1 0 11 0V29a5.5 5.5 0 0 0-5.5-5.5ZM44 29a2.5 2.5 0 0 1 5 0v24.5a2.5 2.5 0 0 1-5 0V29ZM41.13 8.24a6.22 6.22 0 0 1 10.74 0l39.3 67.41A6.22 6.22 0 0 1 85.78 85H7.21c-4.8 0-7.79-5.2-5.37-9.35L41.13 8.24Zm8.15 1.5a3.22 3.22 0 0 0-5.56 0L4.42 77.18A3.22 3.22 0 0 0 7.22 82H85.8c2.48 0 4.03-2.7 2.78-4.83L49.27 9.75Z"/></svg>