<svg aria-hidden="true" class="svg-spot spotAlertCircleXL" width="196" height="196" viewBox="0 0 196 196"><path opacity=".07" d="M162.5 25.28c-38.5-30-122.82-22.7-147.5 0-25 23-11.79 83.81-7.9 98.5C10.97 138.47 28.33 174 57.5 180c3.8.78 8.1 1.81 12.77 2.93 31.2 7.49 79.07 18.97 105.82-13.15 30.76-36.93 24.91-114.5-13.59-144.5ZM92.5 34a67.5 67.5 0 1 1 0 135 67.5 67.5 0 0 1 0-135Z"/><path d="M36.02 34.44a3.5 3.5 0 0 1 6.82-1.56l2.38 10.33a3.5 3.5 0 0 1-6.82 1.57l-2.38-10.34Zm-20.65-.25a3.5 3.5 0 0 0 .32 4.94l14.9 13.12a3.5 3.5 0 0 0 4.62-5.26L20.3 33.87a3.5 3.5 0 0 0-4.94.32ZM11.2 57.46a3.5 3.5 0 0 0 2.93 3.98l13.68 2.06a3.5 3.5 0 0 0 1.04-6.92l-13.67-2.06a3.5 3.5 0 0 0-3.99 2.94Zm141.21-26.42a3.5 3.5 0 0 0-4.53 1.98l-5.06 12.87a3.5 3.5 0 1 0 6.52 2.56l5.05-12.88a3.5 3.5 0 0 0-1.98-4.53Zm16.87 8.46a3.5 3.5 0 1 1 4.1 5.67l-16.1 11.6a3.5 3.5 0 0 1-4.1-5.67l16.1-11.6Zm3.55 24.36a3.5 3.5 0 0 0-3.5-3.5l-10.6.02a3.5 3.5 0 0 0 0 7l10.6-.02a3.5 3.5 0 0 0 3.5-3.5ZM98.5 173a65.5 65.5 0 1 0 0-131 65.5 65.5 0 0 0 0 131Zm3.5-40.5a9.5 9.5 0 1 1-19 0 9.5 9.5 0 0 1 19 0Zm-17-64a7.5 7.5 0 0 1 15 0v41a7.5 7.5 0 0 1-15 0v-41Z" opacity=".2"/><path d="m135.37 8 4.63 4.5-4.5 4.5-4.5-4.5 4.37-4.5ZM102 132.5a9.5 9.5 0 1 1-19 0 9.5 9.5 0 0 1 19 0Zm-4 0a5.5 5.5 0 1 0-11 0 5.5 5.5 0 0 0 11 0Zm-13-64a7.5 7.5 0 0 1 15 0v41a7.5 7.5 0 0 1-15 0v-41Zm7.5-3.5a3.5 3.5 0 0 0-3.5 3.5v41a3.5 3.5 0 1 0 7 0v-41a3.5 3.5 0 0 0-3.5-3.5ZM25 101.5a67.5 67.5 0 1 1 135 0 67.5 67.5 0 0 1-135 0ZM92.5 38a63.5 63.5 0 1 0 0 127 63.5 63.5 0 0 0 0-127ZM21 145a2 2 0 0 1 2 2v4h4a2 2 0 1 1 0 4h-4v4a2 2 0 1 1-4 0v-4h-4a2 2 0 1 1 0-4h4v-4c0-1.1.9-2 2-2Zm140.29 26 9.29 9.29-9.3 9.29-9.28-9.3 9.29-9.28Zm-3.1 9.29 3.1 3.1 3.1-3.1-3.1-3.1-3.1 3.1Z"/></svg>