<svg aria-hidden="true" class="svg-spot spotAlertLg" width="97" height="96" viewBox="0 0 97 96"><path d="M46.92 13.07a4.72 4.72 0 018.16 0l40.33 69.86A4.72 4.72 0 0191.33 90H10.67a4.72 4.72 0 01-4.08-7.07l40.33-69.86zM46.5 76a6.5 6.5 0 100-13 6.5 6.5 0 000 13zm0-52.5A5.5 5.5 0 0041 29v24.5a5.5 5.5 0 1011 0V29a5.5 5.5 0 00-5.5-5.5zm47.28 24.51A2.5 2.5 0 0191 50.2l-7.01-.87a2.5 2.5 0 01.61-4.96l7.02.87A2.5 2.5 0 0193.78 48zm-1.96-11.78a2.5 2.5 0 10-2.52-4.32l-9.75 5.69a2.5 2.5 0 002.52 4.32l9.75-5.7zM79.98 26.8a2.5 2.5 0 011 3.4l-2.59 4.76a2.5 2.5 0 01-4.39-2.4l2.6-4.75a2.5 2.5 0 013.38-1zM4.3 42.19a2.5 2.5 0 01-.6-4.96l7-.87a2.5 2.5 0 01.62 4.96l-7.01.87zM2.58 24.8a2.5 2.5 0 00.9 3.43l9.75 5.69a2.5 2.5 0 102.52-4.32L6 23.9a2.5 2.5 0 00-3.42.9zm11.74-2.6a2.5 2.5 0 114.39-2.4l2.6 4.77a2.5 2.5 0 11-4.4 2.39l-2.6-4.76z" opacity=".2"/><path d="M46.5 76a6.5 6.5 0 100-13 6.5 6.5 0 000 13zm0-3a3.5 3.5 0 110-7 3.5 3.5 0 010 7zm0-49.5A5.5 5.5 0 0041 29v24.5a5.5 5.5 0 1011 0V29a5.5 5.5 0 00-5.5-5.5zM44 29a2.5 2.5 0 015 0v24.5a2.5 2.5 0 01-5 0V29zM41.13 8.24a6.22 6.22 0 0110.74 0l39.3 67.41A6.22 6.22 0 0185.78 85H7.21c-4.8 0-7.79-5.2-5.37-9.35L41.13 8.24zm8.15 1.5a3.22 3.22 0 00-5.56 0L4.42 77.18A3.22 3.22 0 007.22 82H85.8c2.48 0 4.03-2.7 2.78-4.83L49.27 9.75z"/></svg>