<svg aria-hidden="true" class="svg-spot spotAnswerXL" width="196" height="196" viewBox="0 0 196 196"><path opacity=".07" d="M174.49 63.7c10.37 27.41 18.66 71.33-4.7 103.03-20.52 27.85-119.13 27.6-141.3-8.08-22.18-35.68-8.67-81.07 4.33-103.6 13-22.54 28.6-36.75 72.06-34.71 43.45 2.03 64.51 29.9 69.6 43.36z"/><path opacity=".2" d="M128.5 148.88H57c-8.1 0-15-6.76-15-14.88V69.7C42 61.6 45.32 57 53.43 57h87.82A14.9 14.9 0 01156 71.75V176l-27.5-27.13zm1.02-15.88L104 70H89.78l-23.83 63h15.02l4.79-13h25.74l5.1 13h12.92z"/><path d="M156.5 25l8.5 8.5-8.5 8.5-8.5-8.5 8.5-8.5zm-2.83 8.5l2.83 2.83 2.83-2.83-2.83-2.83-2.83 2.83zM92.7 81.2l8.04 21.8H84.9l7.81-21.8zm.06 11.7L90.57 99h4.44l-2.25-6.1zm14.1 37.1l-5.09-13h-17.7l-4.8 13H58.28l25.97-68h16.96l27.04 68h-21.39zm-2.36-17l5.1 13h12.75L98.5 66H87l-22.91 60h12.39l4.8-13h23.22zm32.75-64A14.9 14.9 0 01152 63.75V167l-22.13-22H48.75C40.74 145 34 138.08 34 130.12V63.75A14.8 14.8 0 0148.75 49h88.5zM148 157.38V63.75A10.9 10.9 0 00137.25 53h-88.5A10.8 10.8 0 0038 63.75v66.38c0 5.8 5 10.87 10.75 10.87h82.78L148 157.38zM22 144a2 2 0 012 2v4h4a2 2 0 110 4h-4v4a2 2 0 11-4 0v-4h-4a2 2 0 110-4h4v-4c0-1.1.9-2 2-2zm22 26l-4-4-4 4 4 4 4-4z"/></svg>