<svg aria-hidden="true" class="svg-spot spotAnswerXL" width="196" height="196" viewBox="0 0 196 196"><path opacity=".07" d="M169.8 166.73c23.35-31.7 15.06-75.62 4.69-103.03-5.1-13.47-26.16-41.33-69.6-43.36C61.42 18.3 45.8 32.5 32.81 55.04c-13 22.54-26.5 67.94-4.33 103.6 22.17 35.68 120.78 35.94 141.3 8.09ZM152 63.75V167l-22.13-22H48.75C40.74 145 34 138.08 34 130.12V63.75A14.8 14.8 0 0 1 48.75 49h88.5A14.9 14.9 0 0 1 152 63.75Z"/><path opacity=".2" d="M128.5 148.88H57c-8.1 0-15-6.76-15-14.88V69.7C42 61.6 45.32 57 53.43 57h87.82A14.9 14.9 0 0 1 156 71.75V176l-27.5-27.13Zm1.02-15.88L104 70H89.78l-23.83 63h15.02l4.79-13h25.74l5.1 13h12.92Z"/><path d="m156.5 25 8.5 8.5-8.5 8.5-8.5-8.5 8.5-8.5Zm-2.83 8.5 2.83 2.83 2.83-2.83-2.83-2.83-2.83 2.83ZM92.7 81.2l8.04 21.8H84.9l7.81-21.8Zm.06 11.7L90.57 99h4.44l-2.25-6.1Zm14.1 37.1-5.09-13h-17.7l-4.8 13H58.28l25.97-68h16.96l27.04 68h-21.39Zm-2.36-17 5.1 13h12.75L98.5 66H87l-22.91 60h12.39l4.8-13h23.22Zm32.75-64A14.9 14.9 0 0 1 152 63.75V167l-22.13-22H48.75C40.74 145 34 138.08 34 130.12V63.75A14.8 14.8 0 0 1 48.75 49h88.5ZM148 157.38V63.75A10.9 10.9 0 0 0 137.25 53h-88.5A10.8 10.8 0 0 0 38 63.75v66.38c0 5.8 5 10.87 10.75 10.87h82.78L148 157.38ZM22 144a2 2 0 0 1 2 2v4h4a2 2 0 1 1 0 4h-4v4a2 2 0 1 1-4 0v-4h-4a2 2 0 1 1 0-4h4v-4c0-1.1.9-2 2-2Zm22 26-4-4-4 4 4 4 4-4Z"/></svg>