<svg aria-hidden="true" class="svg-spot spotAnswerLg" width="96" height="96" viewBox="0 0 96 96"><path opacity=".2" d="M73 76.06H20.62A10.73 10.73 0 0 1 10 65.44V19.15c0-5.84 2.4-9.15 8.23-9.15h64.14C88.17 10 93 14.71 93 20.5V96L73 76.06Zm-.96-10.94L53.65 20.08h-9.52L26.97 65.12H37.8l3.45-9.5H59.8l3.66 9.5h8.6Z"/><path d="M74.78 70.06H15.12c-2.02 0-3.96-.8-5.39-2.23C8.01 66.1 7 64.19 7 62.5V14.62c0-4 3.76-7.62 8.13-7.62h63.74c2.03 0 3.97.8 5.4 2.23 1.7 1.7 2.73 3.69 2.73 5.4V81.9L74.78 70.06ZM90 14.62c0-2.81-1.62-5.52-3.61-7.5-2-2-4.7-3.12-7.52-3.12H15.13C9.29 4 4 8.78 4 14.63V62.5c0 2.82 1.62 5.46 3.61 7.45 2 2 4.7 3.11 7.51 3.11h58.44L90 89V14.62ZM72.95 63 53.52 15H40.45L21.79 63h15.4l3.46-9.38h12.59L56.9 63h16.05Zm-34.4-12.38L35.1 60h-8.93L42.5 18h9l17 42h-9.55l-3.66-9.38H38.55Zm14.03-7.07-5.8-15.51-5.62 15.51h11.42Zm-4.32-3h-2.82l1.39-3.83 1.43 3.83Z"/></svg>