<svg aria-hidden="true" class="svg-spot spotAnswerLg" width="96" height="96" viewBox="0 0 96 96"><path opacity=".2" d="M73 74.06H20.62A10.73 10.73 0 0110 63.44V17.15C10 11.31 12.4 8 18.23 8h64.14C88.17 8 93 12.71 93 18.5V94L73 74.06zm-.96-10.94L53.65 18.08h-9.52L26.97 63.12H37.8l3.45-9.5H59.8l3.66 9.5h8.6z"/><path d="M74.78 68.06H15.12c-2.02 0-3.96-.8-5.39-2.23C8.01 64.1 7 62.19 7 60.5V12.62C7 8.63 10.76 5 15.13 5h63.74c2.03 0 3.97.8 5.4 2.23 1.7 1.7 2.73 3.69 2.73 5.4V79.9L74.78 68.06zM90 12.62c0-2.81-1.62-5.52-3.61-7.5-2-2-4.7-3.12-7.52-3.12H15.13C9.29 2 4 6.78 4 12.63V60.5c0 2.82 1.62 5.46 3.61 7.45 2 2 4.7 3.11 7.51 3.11h58.44L90 87V12.62zM72.95 61L53.52 13H40.45L21.79 61h15.4l3.46-9.38h12.59L56.9 61h16.05zm-34.4-12.38L35.1 58h-8.93L42.5 16h9l17 42h-9.55l-3.66-9.38H38.55zm14.03-7.07l-5.8-15.51-5.62 15.51h11.42zm-4.32-3h-2.82l1.39-3.83 1.43 3.83z"/></svg>