<svg aria-hidden="true" class="svg-spot spotAnswer" width="48" height="49" viewBox="0 0 48 49"><path opacity=".2" d="M35 39H12c-2.72 0-5-2.28-5-5V9.3C7 6.57 8.13 5 10.88 5H40c2.72 0 5 2.28 5 5v38.5L35 39Zm-.33-7L26 10.8h-4.48L13.46 32h5.09l1.62-4.48h8.73L30.63 32h4.04Z"/><path d="M36.29 35H8c-.15 0-.43-.06-.86-.33a7.43 7.43 0 0 1-1.26-1.05A3 3 0 0 1 5 31.5V6a3 3 0 0 1 3-3h30a3 3 0 0 1 3 3v33.4L36.29 35ZM43 6a5 5 0 0 0-5-5H8C5.25 1 3 3.25 3 6v25.5a5 5 0 0 0 1.46 3.54C5.4 35.97 6.67 37 8 37h27.5l7.5 7V6Zm-7.11 25L26.41 7h-6.94L10.3 31h8.51l1.63-4.48h5.1L27.25 31h8.64Zm-16.87-6.48L17.4 29h-4.2l7.65-20h4.2l7.9 20h-4.33l-1.72-4.48h-7.88Zm6.6-3.32-2.72-7.3-2.65 7.3h5.38Z"/></svg>