<svg aria-hidden="true" class="svg-spot spotApproveXL" width="207" height="202" viewBox="0 0 207 202"><path opacity=".07" d="M20 27.28c24.68-22.7 109-30 147.5 0s44.35 107.57 13.6 144.5C150.33 208.7 91.65 188 62.5 182c-29.16-6-46.52-41.53-50.4-56.22C8.2 111.09-5 50.28 20 27.28z"/><path d="M16.2 59.46a3.5 3.5 0 002.93 3.98l13.68 2.06a3.5 3.5 0 101.04-6.92l-13.67-2.06a3.5 3.5 0 00-3.99 2.94zm4.17-23.27a3.5 3.5 0 00.32 4.94l14.9 13.12a3.5 3.5 0 104.62-5.26L25.3 35.87a3.5 3.5 0 00-4.94.32zm23.28-3.94a3.5 3.5 0 00-2.63 4.2l2.38 10.33a3.5 3.5 0 106.82-1.57l-2.38-10.33a3.5 3.5 0 00-4.19-2.63zm113.76.79a3.5 3.5 0 00-4.53 1.98l-5.06 12.87a3.5 3.5 0 106.52 2.56l5.05-12.88a3.5 3.5 0 00-1.98-4.53zm21.76 9.25a3.5 3.5 0 00-4.89-.8l-16.1 11.6a3.5 3.5 0 104.1 5.69l16.1-11.6a3.5 3.5 0 00.79-4.9zm-1.34 23.57a3.5 3.5 0 00-3.5-3.5l-10.6.02a3.5 3.5 0 000 7l10.6-.02a3.5 3.5 0 003.5-3.5zM103.5 175a65.5 65.5 0 100-131 65.5 65.5 0 000 131zm27.64-92.7l-36.41 52a7.5 7.5 0 01-11.44 1.02l-20.58-20.49a7.5 7.5 0 0110.58-10.63l14.26 14.2 31.3-44.7a7.5 7.5 0 1112.3 8.6z" opacity=".2"/><path d="M145 14.5l-4.63-4.5-4.37 4.5 4.5 4.5 4.5-4.5zm-13.86 67.8a7.5 7.5 0 00-12.28-8.6l-31.3 44.7-14.27-14.2a7.5 7.5 0 10-10.58 10.63l20.58 20.49a7.5 7.5 0 0011.44-1.02l36.41-52zm-60.67 24.73l17.63 17.55L122.13 76a3.5 3.5 0 015.74 4.02l-36.42 52a3.5 3.5 0 01-5.34.47L65.53 112a3.5 3.5 0 014.94-4.97zM97.5 36a67.5 67.5 0 100 135 67.5 67.5 0 000-135zM34 103.5a63.5 63.5 0 11127 0 63.5 63.5 0 01-127 0zM29 151a2 2 0 10-4 0v4h-4a2 2 0 100 4h4v4a2 2 0 104 0v-4h4a2 2 0 100-4h-4v-4zm146.58 31.29l-9.3-9.29-9.28 9.29 9.29 9.29 9.29-9.3zm-9.3 3.1l-3.09-3.1 3.1-3.1 3.1 3.1-3.1 3.1z"/></svg>