<svg aria-hidden="true" class="svg-spot spotApprove" width="48" height="48" viewBox="0 0 48 48"><path opacity=".2" d="M26.5 47a20.5 20.5 0 100-41 20.5 20.5 0 000 41zm-9.38-23.12l3.97 3.96 9.45-13.56a3 3 0 014.92 3.44l-11.5 16.5a3 3 0 01-4.58.4l-6.5-6.5a3 3 0 114.24-4.24z"/><path d="M23.5 4a19.5 19.5 0 100 39 19.5 19.5 0 000-39zM2 23.5a21.5 21.5 0 1143 0 21.5 21.5 0 01-43 0zm12.3 3.2a1 1 0 011.4-1.4l5.66 5.65 10.82-15.52a1 1 0 111.64 1.14l-11.5 16.5a1 1 0 01-1.53.14l-6.5-6.5zm6.79 1.15l-3.97-3.97a3 3 0 10-4.24 4.24l6.5 6.5a3 3 0 004.58-.4l11.5-16.5a3 3 0 10-4.92-3.44l-9.45 13.57z"/></svg>