<svg aria-hidden="true" class="svg-spot spotApproveXL" width="196" height="196" viewBox="0 0 196 196"><path opacity=".07" d="M162.5 25.28c-38.5-30-122.82-22.7-147.5 0-25 23-11.79 83.81-7.9 98.5C10.97 138.47 28.33 174 57.5 180c3.8.78 8.1 1.81 12.77 2.93 31.2 7.49 79.07 18.97 105.82-13.15 30.76-36.93 24.91-114.5-13.59-144.5zM25 101.5a67.5 67.5 0 1 1 135 0 67.5 67.5 0 0 1-135 0z"/><path d="M11.2 57.46a3.5 3.5 0 0 0 2.93 3.98l13.68 2.06a3.5 3.5 0 1 0 1.04-6.92l-13.67-2.06a3.5 3.5 0 0 0-3.99 2.94zm4.17-23.27a3.5 3.5 0 0 0 .32 4.94l14.9 13.12a3.5 3.5 0 1 0 4.62-5.26L20.3 33.87a3.5 3.5 0 0 0-4.94.32zm23.28-3.94a3.5 3.5 0 0 0-2.63 4.2l2.38 10.33a3.5 3.5 0 1 0 6.82-1.57l-2.38-10.33a3.5 3.5 0 0 0-4.19-2.63zm113.76.79a3.5 3.5 0 0 0-4.53 1.98l-5.06 12.87a3.5 3.5 0 1 0 6.52 2.56l5.05-12.88a3.5 3.5 0 0 0-1.98-4.53zm21.76 9.25a3.5 3.5 0 0 0-4.89-.8l-16.1 11.6a3.5 3.5 0 1 0 4.1 5.69l16.1-11.6a3.5 3.5 0 0 0 .79-4.9zm-.8 24.14a3.5 3.5 0 0 0-3.5-3.5l-10.6.02a3.5 3.5 0 1 0 0 7l10.61-.01a3.5 3.5 0 0 0 3.5-3.5zM98.5 173a65.5 65.5 0 1 0 0-131 65.5 65.5 0 0 0 0 131zm27.64-92.7-36.41 52a7.5 7.5 0 0 1-11.44 1.02l-20.58-20.49a7.5 7.5 0 0 1 10.58-10.63l14.26 14.2 31.3-44.7a7.5 7.5 0 1 1 12.3 8.6z"  opacity=".2"/><path d="M140 12.5 135.37 8 131 12.5l4.5 4.5 4.5-4.5zm-13.86 67.8a7.5 7.5 0 0 0-12.28-8.6l-31.3 44.7-14.27-14.2a7.5 7.5 0 1 0-10.58 10.63l20.58 20.49a7.5 7.5 0 0 0 11.44-1.02l36.41-52zm-60.67 24.73 17.63 17.55L117.13 74a3.5 3.5 0 0 1 5.74 4.02l-36.42 52a3.5 3.5 0 0 1-5.34.47L60.53 110a3.5 3.5 0 0 1 4.94-4.97zM92.5 34a67.5 67.5 0 1 0 0 135 67.5 67.5 0 0 0 0-135zM29 101.5a63.5 63.5 0 1 1 127 0 63.5 63.5 0 0 1-127 0zM24 149a2 2 0 1 0-4 0v4h-4a2 2 0 1 0 0 4h4v4a2 2 0 1 0 4 0v-4h4a2 2 0 1 0 0-4h-4v-4zm146.58 31.29-9.3-9.29-9.28 9.29 9.29 9.29 9.29-9.3zm-9.3 3.1-3.09-3.1 3.1-3.1 3.1 3.1-3.1 3.1z"/></svg>