<svg aria-hidden="true" class="svg-spot spotApproveLg" width="96" height="96" viewBox="0 0 96 96"><path d="M50.72 94.63a40.07 40.07 0 100-80.14 40.07 40.07 0 000 80.14zm18.44-56.99l-22.36 32a5.5 5.5 0 01-8.39.75l-12.64-12.6a5.5 5.5 0 017.77-7.8l8 7.98 18.6-26.63a5.5 5.5 0 019.02 6.3zm24.9-16.45a2.5 2.5 0 01-2.2 2.77l-4.41.52a2.5 2.5 0 11-.59-4.97l4.42-.52a2.5 2.5 0 012.78 2.2zM90.12 6.57a2.5 2.5 0 01-.22 3.53l-7.09 6.27a2.5 2.5 0 11-3.31-3.75l7.09-6.27a2.5 2.5 0 013.53.22zM76.74 3.22A2.5 2.5 0 0178 6.52l-1.56 3.5a2.5 2.5 0 11-4.57-2.05l1.57-3.5a2.5 2.5 0 013.3-1.25zM1.02 21.19a2.5 2.5 0 002.19 2.77l4.42.52a2.5 2.5 0 00.58-4.97L3.79 19a2.5 2.5 0 00-2.77 2.2zM4.95 6.57a2.5 2.5 0 00.22 3.53l7.1 6.27a2.5 2.5 0 003.3-3.75L8.48 6.35a2.5 2.5 0 00-3.53.22zm13.38-3.35a2.5 2.5 0 00-1.26 3.3l1.57 3.5a2.5 2.5 0 104.56-2.05l-1.56-3.5a2.5 2.5 0 00-3.3-1.25z" opacity=".2"/><path d="M69.5 37.15a5.5 5.5 0 10-9-6.3L41.87 57.48l-8-7.98a5.5 5.5 0 10-7.76 7.79l12.63 12.6a5.5 5.5 0 008.4-.74l22.36-32zM31.78 51.62l10.53 10.5 20.65-29.55a2.5 2.5 0 013.48-.62 2.5 2.5 0 01.62 3.48l-22.36 32a2.5 2.5 0 01-3.82.34l-12.64-12.6a2.5 2.5 0 013.54-3.55zM47.5 8a41.5 41.5 0 100 83 41.5 41.5 0 000-83zM9 49.5a38.5 38.5 0 1177 0 38.5 38.5 0 01-77 0z"/></svg>