<svg aria-hidden="true" class="svg-spot spotApproveLg" width="96" height="96" viewBox="0 0 96 96"><path d="M50.72 94.63a40.07 40.07 0 1 0 0-80.14 40.07 40.07 0 0 0 0 80.14Zm18.44-56.99-22.36 32a5.5 5.5 0 0 1-8.39.75l-12.64-12.6a5.5 5.5 0 0 1 7.77-7.8l8 7.98 18.6-26.63a5.5 5.5 0 0 1 9.02 6.3Zm24.9-16.45a2.5 2.5 0 0 1-2.2 2.77l-4.41.52a2.5 2.5 0 1 1-.59-4.97l4.42-.52a2.5 2.5 0 0 1 2.78 2.2ZM90.12 6.57a2.5 2.5 0 0 1-.22 3.53l-7.09 6.27a2.5 2.5 0 1 1-3.31-3.75l7.09-6.27a2.5 2.5 0 0 1 3.53.22ZM76.74 3.22A2.5 2.5 0 0 1 78 6.52l-1.56 3.5a2.5 2.5 0 1 1-4.57-2.05l1.57-3.5a2.5 2.5 0 0 1 3.3-1.25ZM1.02 21.19a2.5 2.5 0 0 0 2.19 2.77l4.42.52a2.5 2.5 0 0 0 .58-4.97L3.79 19a2.5 2.5 0 0 0-2.77 2.2ZM4.95 6.57a2.5 2.5 0 0 0 .22 3.53l7.1 6.27a2.5 2.5 0 0 0 3.3-3.75L8.48 6.35a2.5 2.5 0 0 0-3.53.22Zm13.38-3.35a2.5 2.5 0 0 0-1.26 3.3l1.57 3.5a2.5 2.5 0 1 0 4.56-2.05l-1.56-3.5a2.5 2.5 0 0 0-3.3-1.25Z" opacity=".2"/><path d="M69.5 37.15a5.5 5.5 0 1 0-9-6.3L41.87 57.48l-8-7.98a5.5 5.5 0 1 0-7.76 7.79l12.63 12.6a5.5 5.5 0 0 0 8.4-.74l22.36-32ZM31.78 51.62l10.53 10.5 20.65-29.55a2.5 2.5 0 0 1 3.48-.62 2.5 2.5 0 0 1 .62 3.48l-22.36 32a2.5 2.5 0 0 1-3.82.34l-12.64-12.6a2.5 2.5 0 0 1 3.54-3.55ZM47.5 8a41.5 41.5 0 1 0 0 83 41.5 41.5 0 0 0 0-83ZM9 49.5a38.5 38.5 0 1 1 77 0 38.5 38.5 0 0 1-77 0Z"/></svg>