<svg aria-hidden="true" class="svg-spot spotAstronautXL" width="196" height="196" viewBox="0 0 196 196"><path opacity=".07" d="M179 117c25-37-1.64-84.07-12.32-89.61a110.68 110.68 0 0 1-9.18-5.5C146.58 14.87 135.91 8 96.36 6.14 46.4 3.8 37.07 17.6 21.43 44.9 5.8 72.18-8.8 126.79 16.88 162.39c20.6 28.56 51.15 26.82 82.83 25.02 7.8-.44 15.67-.9 23.47-.9 33.65 0 36.8-13.4 41.35-32.78 2.54-10.8 5.52-23.48 14.47-36.73Zm-58-83a3 3 0 1 0 0 6 3 3 0 0 0 0-6ZM78 164.28a7.33 7.33 0 0 1 7.5-7.28 7.35 7.35 0 0 1 7.47 6.58V167H78v-2.72Zm0-8.58V140h14.97v15.67A11.65 11.65 0 0 0 85.5 153c-2.87 0-5.49 1-7.5 2.7ZM57.5 153c-2.87 0-5.49 1-7.5 2.7V140h15v15.7a11.63 11.63 0 0 0-7.5-2.7Zm0 4c4.23 0 7.5 3.26 7.5 7.28V167H50v-2.72a7.33 7.33 0 0 1 7.5-7.28ZM50 107h42.97v29H78v-14.01a2 2 0 0 0-2-2h-9a2 2 0 0 0-2 2V136H50v-29Zm0-4V86a2 2 0 1 0-4 0v27H35V84.56a12 12 0 0 1 10.83-12.02 4 4 0 0 0 .43.4c.59.48 1.32.83 2.06 1.1 1.49.55 3.5.96 5.74 1.27 4.54.63 10.52.9 16.46.83 5.93-.06 11.91-.45 16.45-1.16 2.25-.36 4.25-.81 5.74-1.39a7.38 7.38 0 0 0 2.05-1.14c.12-.1.25-.22.37-.35 1.85.32 3.7 1.43 5.66 3.12a58.91 58.91 0 0 1 4.42 4.4c.79.83 1.58 1.68 2.41 2.52L119 93.67v.51l-6.81 6.87-15.77-15.96a2 2 0 0 0-1.44-.59h-.01a2 2 0 0 0-2 2V103H50Zm-5.75 22.44A4.73 4.73 0 0 0 46 122v-5H35v5.04c0 2.6 2.49 4.99 5.3 4.99a6.1 6.1 0 0 0 3.95-1.59ZM119 99.86l-4 4.03 4 4.05v-8.08Zm4 10.72a5.05 5.05 0 0 0 4.25-8.55h-.01l-4.24-4.3v12.85ZM145.05 50H123v29h22V52.5c0-.16.02-.31.05-.46V50ZM164 55h-15v25.54c.03.15.05.3.05.46v3H164V55Zm-72 1.01v13.5c-.16.1-.4.22-.75.35-1.08.43-2.75.83-4.9 1.17-4.28.67-10.05 1.05-15.87 1.11-5.82.06-11.6-.2-15.87-.79-2.16-.3-3.82-.66-4.9-1.06a5.12 5.12 0 0 1-.72-.31V56c0-11.73 9.42-21 21.1-21C82 35 91.82 44.18 92 56.01Z"/><path d="M72.25 35.38c-12.54 0-22.57 10.34-22.57 22.92v13.78c0 5.1 45.29 5.1 45.29 0V58.3c-.15-12.73-10.33-22.92-22.72-22.92ZM58.4 62.8l.14-4.49c0-7.64 6.05-13.78 13.57-13.78 7.53 0 13.57 6.14 13.57 13.78v4.5c-5.75 1.64-21.68 1.8-27.28 0Zm96.16-3.8a2.56 2.56 0 0 1-2.56-2.56c0-1.35-1.1-2.44-2.44-2.44H129a2 2 0 0 0-2 2v26a5 5 0 0 0 5 5h17.5a2.5 2.5 0 0 1 2.5 2.5 2.5 2.5 0 0 0 2.5 2.5H167a5 5 0 0 0 5-5V64a5 5 0 0 0-5-5h-12.44Zm-89.7 40h19.28c2.67 0 4.86-2.03 4.86-4.5S86.8 90 84.14 90H64.86C62.19 90 60 92.03 60 94.5s2.2 4.5 4.86 4.5Z" opacity=".2"/><path d="M61.7 84c-3.6 0-6.7 2.85-6.7 6.5s3.1 6.5 6.7 6.5h18.6a6.83 6.83 0 0 0 6.7-6.5c0-3.65-3.1-6.5-6.7-6.5H61.7ZM59 90.5c0-1.29 1.14-2.5 2.7-2.5h18.6c1.53 0 2.66 1.18 2.7 2.44A2.83 2.83 0 0 1 80.3 93H61.7c-1.56 0-2.7-1.21-2.7-2.5ZM86 58v-2c0-8.9-7.03-16-15.9-16C61.24 40 54 47.07 54 56v2a2 2 0 0 0-2 2c0 1.03.58 1.75 1.06 2.16.47.41 1.05.7 1.58.9 1.09.43 2.5.75 4.06.98 3.13.48 7.24.71 11.3.71 4.06 0 8.17-.23 11.3-.7a20.5 20.5 0 0 0 4.06-.98c.53-.21 1.1-.5 1.58-.9A2.85 2.85 0 0 0 88 60a2 2 0 0 0-2-2ZM70.1 44C76.72 44 82 49.29 82 56v3.86c-.4.08-.83.16-1.3.23-2.87.44-6.76.66-10.7.66-3.94 0-7.83-.22-10.7-.66-.47-.07-.9-.15-1.3-.23V56c0-6.68 5.42-12 12.1-12ZM121 30a7 7 0 0 0-2 13.71v44.27l-8.53-8.65a113.7 113.7 0 0 1-2.12-2.22c-1.55-1.65-3.24-3.45-4.95-4.92-2.1-1.82-4.57-3.45-7.4-4V55.97C95.8 41.81 84.05 31 70.1 31A24.94 24.94 0 0 0 45 56v12.6a16 16 0 0 0-14 15.96v37.48c0 5.04 4.52 8.99 9.3 8.99a10 10 0 0 0 5.7-1.87V169c0 1.1.9 2 2 2h19a2 2 0 0 0 2-2v-45.01h5V169c0 1.1.9 2 2 2h19a2 2 0 0 0 2-2v-4.72c0-.3-.01-.58-.03-.87v-25.04a2 2 0 0 0 0-.74v-46.3l20.39 20.64c.5.51 1.06.95 1.64 1.31V169a2 2 0 1 0 4 0v-54.4a9.05 9.05 0 0 0 7.09-15.39L123 92.03V83h22.05v3c0 1.1.9 2 2 2H166a2 2 0 0 0 2-2V53a2 2 0 0 0-2-2h-16.95v-3a2 2 0 0 0-2-2H123v-2.29A7 7 0 0 0 121 30Zm-3 7a3 3 0 1 1 6 0 3 3 0 0 1-6 0ZM78 167v-2.72a7.33 7.33 0 0 1 7.5-7.28 7.35 7.35 0 0 1 7.47 6.58V167H78Zm7.5-14c-2.87 0-5.49 1-7.5 2.7V140h14.97v15.67A11.65 11.65 0 0 0 85.5 153ZM65 155.7a11.63 11.63 0 0 0-7.5-2.7c-2.87 0-5.49 1-7.5 2.7V140h15v15.7Zm-15 8.58a7.33 7.33 0 0 1 7.5-7.28c4.23 0 7.5 3.26 7.5 7.28V167H50v-2.72ZM50 136v-29h42.97v29H78v-14.01a2 2 0 0 0-2-2h-9a2 2 0 0 0-2 2V136H50Zm42.97-33H50V86a2 2 0 1 0-4 0v27H35V84.56a12 12 0 0 1 10.83-12.02 4 4 0 0 0 .43.4c.59.48 1.32.83 2.06 1.1 1.49.55 3.5.96 5.74 1.27 4.54.63 10.52.9 16.46.83 5.93-.06 11.91-.45 16.45-1.16 2.25-.36 4.25-.81 5.74-1.39a7.38 7.38 0 0 0 2.05-1.14c.12-.1.25-.22.37-.35 1.85.32 3.7 1.43 5.66 3.12a58.91 58.91 0 0 1 4.42 4.4c.79.83 1.58 1.68 2.41 2.52L119 93.67v.51l-6.81 6.87-15.77-15.96a2 2 0 0 0-1.44-.59h-.01a2 2 0 0 0-2 2V103ZM46 121.99c0 1.22-.62 2.46-1.75 3.45a6.15 6.15 0 0 1-3.94 1.59c-2.82 0-5.31-2.39-5.31-5V117h11v4.99Zm69-18.1 4-4.03v8.08l-4-4.05Zm12.25 5.26a4.95 4.95 0 0 1-4.25 1.43V97.73l4.24 4.3a5.05 5.05 0 0 1 0 7.12ZM123 50h22.05v2.04c-.03.15-.05.3-.05.46V79h-22V50Zm26 5h15v29h-14.95v-3c0-.16-.02-.31-.05-.46V55ZM70.1 35c11.89 0 21.72 9.18 21.9 21.01v13.5c-.16.1-.4.22-.75.35-1.08.43-2.75.83-4.9 1.17-4.28.67-10.05 1.05-15.87 1.11-5.82.06-11.6-.2-15.87-.79-2.16-.3-3.82-.66-4.9-1.06a5.12 5.12 0 0 1-.72-.31V56c0-11.73 9.42-21 21.1-21ZM174 119a2 2 0 0 1 2 2v4h4a2 2 0 1 1 0 4h-4v4a2 2 0 1 1-4 0v-4h-4a2 2 0 1 1 0-4h4v-4c0-1.1.9-2 2-2ZM29 39l-4-4-4 4 4 4 4-4Zm117.5 130 8.5 8.5-8.5 8.5-8.5-8.5 8.5-8.5Zm-2.83 8.5 2.83 2.83 2.83-2.83-2.83-2.83-2.83 2.83Z"/></svg>