<svg aria-hidden="true" class="svg-spot spotAstronautXL" width="196" height="196" viewBox="0 0 196 196"><path opacity=".07" d="M166.68 27.39C177.36 32.93 204 80 179 117s-3.4 69.52-55.82 69.52c-39.5 0-80.62 11.47-106.3-24.13-25.68-35.6-11.08-90.21 4.55-117.5 15.64-27.3 24.98-41.1 74.93-38.76 49.94 2.35 53.83 12.68 70.32 21.26z"/><path d="M72.25 35.38c-12.54 0-22.57 10.34-22.57 22.92v13.78c0 5.1 45.29 5.1 45.29 0V58.3c-.15-12.73-10.33-22.92-22.72-22.92zM58.4 62.8l.14-4.49c0-7.64 6.05-13.78 13.57-13.78 7.53 0 13.57 6.14 13.57 13.78v4.5c-5.75 1.64-21.68 1.8-27.28 0zm96.16-3.8a2.56 2.56 0 01-2.56-2.56c0-1.35-1.1-2.44-2.44-2.44H129a2 2 0 00-2 2v26a5 5 0 005 5h17.5a2.5 2.5 0 012.5 2.5 2.5 2.5 0 002.5 2.5H167a5 5 0 005-5V64a5 5 0 00-5-5h-12.44zm-89.7 40h19.28c2.67 0 4.86-2.03 4.86-4.5S86.8 90 84.14 90H64.86C62.19 90 60 92.03 60 94.5s2.2 4.5 4.86 4.5z" opacity=".2"/><path d="M61.7 84c-3.6 0-6.7 2.85-6.7 6.5s3.1 6.5 6.7 6.5h18.6a6.83 6.83 0 006.7-6.5c0-3.65-3.1-6.5-6.7-6.5H61.7zM59 90.5c0-1.29 1.14-2.5 2.7-2.5h18.6c1.53 0 2.66 1.18 2.7 2.44A2.83 2.83 0 0180.3 93H61.7c-1.56 0-2.7-1.21-2.7-2.5zM86 58v-2c0-8.9-7.03-16-15.9-16C61.24 40 54 47.07 54 56v2a2 2 0 00-2 2c0 1.03.58 1.75 1.06 2.16.47.41 1.05.7 1.58.9 1.09.43 2.5.75 4.06.98 3.13.48 7.24.71 11.3.71 4.06 0 8.17-.23 11.3-.7a20.5 20.5 0 004.06-.98c.53-.21 1.1-.5 1.58-.9A2.85 2.85 0 0088 60a2 2 0 00-2-2zM70.1 44C76.72 44 82 49.29 82 56v3.86c-.4.08-.83.16-1.3.23-2.87.44-6.76.66-10.7.66-3.94 0-7.83-.22-10.7-.66-.47-.07-.9-.15-1.3-.23V56c0-6.68 5.42-12 12.1-12zM121 30a7 7 0 00-2 13.71v44.27l-8.53-8.65a113.7 113.7 0 01-2.12-2.22c-1.55-1.65-3.24-3.45-4.95-4.92-2.1-1.82-4.57-3.45-7.4-4V55.97C95.8 41.81 84.05 31 70.1 31A24.94 24.94 0 0045 56v12.6a16 16 0 00-14 15.96v37.48c0 5.04 4.52 8.99 9.3 8.99a10 10 0 005.7-1.87V169c0 1.1.9 2 2 2h19a2 2 0 002-2v-45.01h5V169c0 1.1.9 2 2 2h19a2 2 0 002-2v-4.72c0-.3-.01-.58-.03-.87v-25.04a2 2 0 000-.74v-46.3l20.39 20.64c.5.51 1.06.95 1.64 1.31V169a2 2 0 104 0v-54.4a9.05 9.05 0 007.09-15.39L123 92.03V83h22.05v3c0 1.1.9 2 2 2H166a2 2 0 002-2V53a2 2 0 00-2-2h-16.95v-3a2 2 0 00-2-2H123v-2.29A7 7 0 00121 30zm-3 7a3 3 0 116 0 3 3 0 01-6 0zM78 167v-2.72a7.33 7.33 0 017.5-7.28 7.35 7.35 0 017.47 6.58V167H78zm7.5-14c-2.87 0-5.49 1-7.5 2.7V140h14.97v15.67A11.65 11.65 0 0085.5 153zM65 155.7a11.63 11.63 0 00-7.5-2.7c-2.87 0-5.49 1-7.5 2.7V140h15v15.7zm-15 8.58a7.33 7.33 0 017.5-7.28c4.23 0 7.5 3.26 7.5 7.28V167H50v-2.72zM50 136v-29h42.97v29H78v-14.01a2 2 0 00-2-2h-9a2 2 0 00-2 2V136H50zm42.97-33H50V86a2 2 0 10-4 0v27H35V84.56a12 12 0 0110.83-12.02 4 4 0 00.43.4c.59.48 1.32.83 2.06 1.1 1.49.55 3.5.96 5.74 1.27 4.54.63 10.52.9 16.46.83 5.93-.06 11.91-.45 16.45-1.16 2.25-.36 4.25-.81 5.74-1.39a7.38 7.38 0 002.05-1.14c.12-.1.25-.22.37-.35 1.85.32 3.7 1.43 5.66 3.12a58.91 58.91 0 014.42 4.4c.79.83 1.58 1.68 2.41 2.52L119 93.67v.51l-6.81 6.87-15.77-15.96a2 2 0 00-1.44-.59h-.01a2 2 0 00-2 2V103zM46 121.99c0 1.22-.62 2.46-1.75 3.45a6.15 6.15 0 01-3.94 1.59c-2.82 0-5.31-2.39-5.31-5V117h11v4.99zm69-18.1l4-4.03v8.08l-4-4.05zm12.25 5.26a4.95 4.95 0 01-4.25 1.43V97.73l4.24 4.3a5.05 5.05 0 010 7.12zM123 50h22.05v2.04c-.03.15-.05.3-.05.46V79h-22V50zm26 5h15v29h-14.95v-3c0-.16-.02-.31-.05-.46V55zM70.1 35c11.89 0 21.72 9.18 21.9 21.01v13.5c-.16.1-.4.22-.75.35-1.08.43-2.75.83-4.9 1.17-4.28.67-10.05 1.05-15.87 1.11-5.82.06-11.6-.2-15.87-.79-2.16-.3-3.82-.66-4.9-1.06a5.12 5.12 0 01-.72-.31V56c0-11.73 9.42-21 21.1-21zM174 119a2 2 0 012 2v4h4a2 2 0 110 4h-4v4a2 2 0 11-4 0v-4h-4a2 2 0 110-4h4v-4c0-1.1.9-2 2-2zM29 39l-4-4-4 4 4 4 4-4zm117.5 130l8.5 8.5-8.5 8.5-8.5-8.5 8.5-8.5zm-2.83 8.5l2.83 2.83 2.83-2.83-2.83-2.83-2.83 2.83z"/></svg>