<svg aria-hidden="true" class="svg-spot spotAstronautLg" width="96" height="96" viewBox="0 0 96 96"><g opacity=".2"><path d="M32.91 7.45c-7.8 0-14.04 6.43-14.04 14.26v8.58c0 3.17 28.18 3.17 28.18 0v-8.58c-.1-7.92-6.43-14.26-14.14-14.26Zm-8.63 17.06.1-2.8a8.49 8.49 0 018.44-8.57 8.49 8.49 0 018.45 8.57v2.8c-3.58 1.03-13.5 1.12-16.99 0ZM83 22a2 2 0 00-2-2H70a2 2 0 00-2 2v15a3 3 0 003 3h9a3 3 0 003 3h7a6 6 0 006-6V25a3 3 0 00-3-3H83ZM28.02 47h11.96A3.02 3.02 0 0043 44c0-1.65-1.36-3-3.02-3H28.02A3.02 3.02 0 0025 44c0 1.65 1.36 3 3.02 3Z"/></g><path d="M41.88 20.53v1.12a1.48 1.48 0 0 1 2.1 1.35c0 .84-.55 1.34-.86 1.56-.33.24-.72.4-1.06.5-.71.24-1.64.4-2.65.54-2.06.26-4.75.38-7.41.38s-5.35-.12-7.4-.38a15.4 15.4 0 0 1-2.66-.53 3.98 3.98 0 0 1-1.06-.51c-.3-.22-.86-.72-.86-1.56 0-.82.66-1.48 1.48-1.48v-.99A10.7 10.7 0 0 1 32 10.02c5.78 0 9.88 4.98 9.88 10.51Zm-17.41 0v2.05l.5.07c1.88.24 4.44.37 7.03.37 2.54 0 5.04-.12 6.92-.35v-2.14c0-4.17-3.05-7.55-6.92-7.55-4 0-7.53 3.52-7.53 7.55Zm2.05 16.49a4.5 4.5 0 0 0-4.5 4.48 4.5 4.5 0 0 0 4.5 4.48h11.96a4.64 4.64 0 0 0 4.5-4.48 4.5 4.5 0 0 0-4.5-4.48H26.52Zm-1.54 4.48c0-.82.7-1.52 1.54-1.52h11.96c.83 0 1.51.68 1.54 1.48-.08.9-.85 1.56-1.54 1.56H26.52c-.85 0-1.54-.7-1.54-1.52ZM32 4.02c-8.83 0-15.98 7.73-15.98 16.48v7.13c-5 .76-9 5.26-9 10.42V61c0 3.2 2.8 5.98 5.98 5.98a5.8 5.8 0 0 0 3.02-.87v5.17a1.51 1.51 0 0 0 0 .44v18.8c0 .82.66 1.48 1.48 1.48h12c.82 0 1.48-.66 1.48-1.48v-18.8a1.51 1.51 0 0 0 0-.44v-8.3h3.04v27.54c0 .82.66 1.48 1.48 1.48h12c.82 0 1.48-.66 1.48-1.48V43.14l11.84 12.14h.01c.37.37.76.68 1.19.93V90.5a1.48 1.48 0 1 0 2.96 0V57a5.87 5.87 0 0 0 4.1-10h.01l-3.84-3.9a1.49 1.49 0 0 0-.27-.32v-5.8h13.04v1.52c0 .82.66 1.48 1.48 1.48h9c2.48 0 4.48-2 4.49-4.47l.04-15c0-2.48-2-4.5-4.49-4.5h-7.89a3.48 3.48 0 0 0-3.15-2H64.98v-1.28a4.49 4.49 0 1 0-2.96 0v27.1l-5.14-5.2-1.32-1.39c-.96-1.02-2.02-2.15-3.07-3.06a10.55 10.55 0 0 0-4.5-2.5V20.5c0-8.75-7.06-16.48-15.99-16.48ZM18.98 20.5c0-7.24 5.95-13.52 13.02-13.52 7.16 0 13.02 6.27 13.02 13.52v8.05l-.3.13c-.64.24-1.65.48-2.97.67-2.62.4-6.17.6-9.75.6s-7.13-.2-9.75-.6a15.22 15.22 0 0 1-3.27-.8V20.5Zm43.04 27.43v4.32l-2.13-2.18 2.13-2.14Zm2.96 6.11v-6.97l2 2.02a2.9 2.9 0 0 1-2 4.95Zm-46 33.44a4.53 4.53 0 0 1 9.04.04v1.51h-9.04v-1.55Zm4.52-7.46a7.4 7.4 0 0 0-4.52 1.52V73h9.04v8.54a7.42 7.42 0 0 0-4.52-1.52Zm22.52 1.52a7.42 7.42 0 0 0-9.04 0v-8.56h9.04v8.56Zm-9.04 5.98a4.53 4.53 0 1 1 9.04 0v1.51h-9.04v-1.51ZM16.02 57.98V61A3.17 3.17 0 0 1 13 64.02 3.17 3.17 0 0 1 9.98 61v-3.02h6.04Zm0-19.48v16.52H9.98V38.05a7.77 7.77 0 0 1 6.7-7.52l.2.18c.39.32.87.56 1.34.74.94.36 2.2.63 3.6.84 2.8.42 6.51.62 10.18.62s7.37-.2 10.19-.62c1.4-.21 2.65-.48 3.6-.84a4.75 4.75 0 0 0 1.5-.88 7.5 7.5 0 0 1 3.26 1.85c.95.82 1.8 1.73 2.68 2.68.5.53 1 1.07 1.54 1.62l7.08 7.17-4.03 4.06-9.25-9.47a1.5 1.5 0 0 0-1.07-.46 1.48 1.48 0 0 0-1.48 1.5v9.46H18.98V38.5a1.48 1.48 0 0 0-2.96 0ZM18.98 70V51.95h27.04v18.07h-9.04V61.5c0-.82-.66-1.48-1.48-1.48h-6c-.82 0-1.48.66-1.48 1.48V70h-9.04ZM63.5 6.98a1.52 1.52 0 1 1 0 3.04 1.52 1.52 0 0 1 0-3.04Zm1.48 27.04V16.98H77.5c.29 0 .52.23.52.52v16.52H64.98Zm23.56-15.04c.84 0 1.52.68 1.52 1.52l-.04 15c0 .84-.68 1.52-1.51 1.52h-7.53V18.98h7.56Z"/></svg>