<svg aria-hidden="true" class="svg-spot spotAwardXL" width="196" height="196" viewBox="0 0 196 196"><path opacity=".07" d="M169.5 160.59c23.36-31.7 15.06-75.62 4.7-103.03-5.1-13.47-26.16-41.32-69.61-43.36-43.46-2.04-59.07 12.17-72.07 34.7-13 22.55-26.5 67.94-4.33 103.61 22.18 35.68 120.78 35.94 141.3 8.08ZM123.69 47.03c2.93 5.86.24 11.72.24 11.72s-6.1-1.46-10.51-8.06c-3.67-5.62-.49-13.68-.49-13.68-.24-.24 7.58 3.9 10.76 10.02Zm36.44 26.14c.24-.25 1.95 8.06-.74 14.17-2.69 6.1-8.8 8.3-8.8 8.3s-3.43-7.08-.74-13.19c2.7-6.35 10.28-9.28 10.28-9.28Zm6.84 29.31c.25-.24-.98 7.82-5.87 12.46-4.89 4.64-12.22 3.91-12.22 3.91s0-7.57 4.89-12.21c5.13-4.64 13.2-4.16 13.2-4.16Zm-23.72 52.28c.5 0-4.64 4.4-11.25 3.67-6.6-.74-12.95-6.36-12.95-6.36s5.86-5.13 12.47-4.4c6.6.74 11.73 7.1 11.73 7.1Zm9.3-15.14c-6.36 1.95-14.92-.5-14.92-.5s3.42-7.08 9.78-9.03c6.6-2.2 13.7 1.7 13.7 1.7.48-.24-2.2 5.87-8.57 7.83ZM143 49.22c0-.24 4.4 7.33 3.91 14.17-.49 6.84-6.11 10.27-6.11 10.27s-5.14-5.62-4.65-12.46c.49-6.84 6.85-11.97 6.85-11.97Zm-57.29-12.2c0-.01 3.18 8.05-.49 13.67-4.4 6.6-10.51 8.06-10.51 8.06s-2.7-5.86.24-11.72c3.18-6.11 11-10.26 10.76-10.02ZM39.26 87.33c-2.69-6.11-.98-14.42-.73-14.17 0 0 7.58 2.93 10.27 9.28 2.69 6.1-.74 13.2-.74 13.2s-6.11-2.2-8.8-8.31Zm-1.71 27.6c-4.9-4.64-6.11-12.7-5.87-12.46 0 0 8.07-.48 13.2 4.16 4.9 4.64 4.9 12.21 4.9 12.21s-7.34.73-12.23-3.9Zm29.1 43.49c-6.6.73-11.74-3.67-11.25-3.67 0 0 5.13-6.35 11.74-7.08 6.6-.74 12.47 4.4 12.47 4.4s-6.36 5.61-12.96 6.35Zm-29.1-26.63s7.09-3.91 13.7-1.71c6.35 1.95 9.77 9.04 9.77 9.04s-8.56 2.44-14.91.49c-6.36-1.96-9.05-8.07-8.56-7.82Zm14.18-68.4c-.49-6.85 3.91-14.42 3.91-14.17 0 0 6.36 5.13 6.85 11.97.49 6.84-4.64 12.45-4.64 12.45s-5.63-3.42-6.12-10.26Zm50.2 14.9L107 94h16.69c2.45 0 3.67 3.1 1.71 4.82l-13.2 10.01 4.89 15.4c.73 2.44-1.96 4.4-4.16 2.93l-13.45-9.29-13.7 9.53c-2.2 1.47-4.88-.49-4.15-2.93l4.9-15.4-13.21-10c-1.96-1.47-.98-5.07 1.7-5.07h16.4l5.37-15.7c.74-2.45 4.16-2.45 5.14 0Z"/><path d="m156.5 21 8.5 8.5-8.5 8.5-8.5-8.5 8.5-8.5Zm-2.83 8.5 2.83 2.83 2.83-2.83-2.83-2.83-2.83 2.83ZM25 142a2 2 0 1 0-4 0v4h-4a2 2 0 1 0 0 4h4v4a2 2 0 1 0 4 0v-4h4a2 2 0 1 0 0-4h-4v-4Zm19 24-4-4-4 4 4 4 4-4Zm81.46-119.9c-1.78-3.43-4.8-6.21-7.22-8.05a27.4 27.4 0 0 0-4.13-2.7c-.9-.47-1.97-.47-2.67.32-.5.55-.67 1.44-.87 2.14-.26.92-.57 2.2-.76 3.69-.36 2.9-.28 6.9 1.93 10.28l.02.02c2.4 3.6 5.28 5.82 7.57 7.13 1.27.73 2.6 1.34 3.87 2.05a49.06 49.06 0 0 1 25.14 42.97c0 23.93-17.14 43.9-39.95 48.36a2 2 0 0 0 .77 3.93 53.51 53.51 0 0 0 8.75-2.5c.5.42 2 1.64 4.09 2.94 2.5 1.55 6.05 3.32 9.78 3.73 3.8.42 7.12-.63 9.4-1.75 1.31-.65 3.4-1.64 3.97-3.13.89-2.31-2.59-4.44-4.04-5.6-2.18-1.74-5.36-3.71-9.08-4.2a53.75 53.75 0 0 0 5.17-4.65c1.72.47 3.49.79 5.25 1 3.03.39 7.1.55 10.68-.55a16.3 16.3 0 0 0 7.82-5.4c.92-1.13 2.46-3.05 2.18-4.65-.38-2.13-4.18-2.83-5.88-3.3a18.48 18.48 0 0 0-10.81.12 52.8 52.8 0 0 0 3.14-7.41c4.63.1 9.5-1.26 12.9-4.5 3.36-3.2 5.44-7.8 6.33-12.33.28-1.45.25-3.46-1.7-3.58-1.71-.1-3.48.08-5.16.37-3.47.6-7.03 1.92-9.62 4.4l.01-1.3a57 57 0 0 0-.4-6.7c.69-.31 1.86-.9 3.2-1.84a17.72 17.72 0 0 0 6.08-7.27c1.53-3.46 1.77-7.41 1.64-10.36-.07-1.5-.23-2.79-.4-3.72-.23-1.26-.64-2.79-2.18-2.9-1.73-.12-4.09 1.7-5.41 2.62-3.09 2.1-5.75 4.95-7.1 8.48a52.81 52.81 0 0 0-4.43-8.01 15.71 15.71 0 0 0 5.57-10.71c.28-3.85-.81-7.77-1.9-10.6a34.66 34.66 0 0 0-1.55-3.49c-.53-1.03-1.14-2.25-2.48-2.23-.97.01-1.72.85-2.37 1.48-.65.64-1.53 1.56-2.43 2.72-1.76 2.29-3.73 5.65-4.01 9.63-.07.99-.04 1.94.06 2.86a53.72 53.72 0 0 0-7.95-5.77c1.2-3.92 1.07-8.34-.82-12.04Zm-11.33-6.08c3.06 2.05 6.06 4.62 7.78 7.92a12.13 12.13 0 0 1 .77 8.22 18.45 18.45 0 0 1-7.6-6.57c-1.81-2.8-1.66-6.43-.95-9.57ZM142.5 52.5c1.52 3.33 2.69 7.06 2.43 10.75a11.6 11.6 0 0 1-3.77 7.58c-1.9-2.76-3.25-6.1-3-9.5.24-3.35 2.12-6.4 4.34-8.83Zm16.22 23.59c.4 3.46.26 7.22-1.16 10.44a14.11 14.11 0 0 1-5.88 6.35c-.97-3.08-1.33-6.6 0-9.62l.02-.03c1.33-3.15 4.1-5.49 7.02-7.14Zm-7.66 40.77c.47-3.2 1.68-6.48 4.06-8.76 2.57-2.3 6.1-3.28 9.47-3.56-.88 3.28-2.38 6.6-4.87 8.95-2.31 2.2-5.53 3.18-8.66 3.37Zm-10.27 20.92c1.8-2.56 4.22-4.8 7.25-5.8 3.4-1.12 7.16-.47 10.42.81a12.4 12.4 0 0 1-6.5 4.91c-3.58 1.1-7.54.75-11.17.09Zm-18.4 14.36c2.64-1.64 5.76-2.82 8.9-2.48 3.48.39 6.58 2.53 9.05 4.91a13.29 13.29 0 0 1-8.11 1.87c-3.59-.4-6.94-2.24-9.84-4.3ZM99.27 74.46c1.82 0 3.7 1.06 4.51 3.1l.01.02.02.04.01.04.01.02L108.46 92h15.23c4.33 0 6.35 5.42 3.03 8.32l-.1.09-12.09 9.16 4.46 14.05.01.03c1.32 4.37-3.53 7.6-7.18 5.17l-.02-.02-12.31-8.5-12.56 8.74-.01.01-.02.01c-3.65 2.43-8.5-.8-7.18-5.17v-.03l4.47-14.04-12.07-9.16a4.77 4.77 0 0 1-1.6-5.27 4.69 4.69 0 0 1 4.5-3.39h14.96l4.9-14.32a4.52 4.52 0 0 1 4.39-3.22Zm-.36 4.1a.53.53 0 0 0-.2.31l-.03.07-5.38 15.7A2 2 0 0 1 91.41 96H75.03a.6.6 0 0 0-.41.13.93.93 0 0 0-.28.44c-.14.47.02.78.18.9l13.21 10.01a2 2 0 0 1 .7 2.2l-4.89 15.38a.66.66 0 0 0 0 .42c.04.1.12.21.23.3.21.14.52.2.9-.04l13.67-9.51a2 2 0 0 1 2.28 0l13.43 9.27c.37.24.69.18.9.03a.66.66 0 0 0 .23-.3.66.66 0 0 0 0-.42l-4.89-15.37a2 2 0 0 1 .7-2.2l13.13-9.96c.54-.52.12-1.28-.43-1.28H107a2 2 0 0 1-1.9-1.39L100.05 79a.84.84 0 0 0-.78-.53.63.63 0 0 0-.36.1Zm-30.68 57.63a2.45 2.45 0 1 0 0-4.9 2.45 2.45 0 0 0 0 4.9Zm-2.06-8.08a2.45 2.45 0 1 1-4.9 0 2.45 2.45 0 0 1 4.9 0Zm-6.04-3.83a2.45 2.45 0 1 0 0-4.9 2.45 2.45 0 0 0 0 4.9Zm-.01-9.44a2.45 2.45 0 1 1-4.89 0 2.45 2.45 0 0 1 4.9 0Zm-3.67-4.76a2.44 2.44 0 1 0 0-4.89 2.44 2.44 0 0 0 0 4.9Zm2.45-9.59a2.45 2.45 0 1 1-4.9 0 2.45 2.45 0 0 1 4.9 0Zm-1.23-4.79a2.45 2.45 0 1 0 0-4.89 2.45 2.45 0 0 0 0 4.9Zm4.89-9.11a2.45 2.45 0 1 1-4.89 0 2.45 2.45 0 0 1 4.9 0Zm.95-4.17a2.45 2.45 0 1 0 0-4.89 2.45 2.45 0 0 0 0 4.9Zm7.18-8.02a2.45 2.45 0 1 1-4.9 0 2.45 2.45 0 0 1 4.9 0Zm2.85-2.33a2.45 2.45 0 1 0 0-4.89 2.45 2.45 0 0 0 0 4.9Zm8.63-6.25a2.45 2.45 0 1 1-4.89 0 2.45 2.45 0 0 1 4.9 0Zm4.35-.34a2.45 2.45 0 1 0 0-4.9 2.45 2.45 0 0 0 0 4.9Zm9.51-3.98a2.45 2.45 0 1 1-4.89 0 2.45 2.45 0 0 1 4.9 0Zm4.74 2.14a2.45 2.45 0 1 0 0-4.9 2.45 2.45 0 0 0 0 4.9Zm9.76-1.59a2.45 2.45 0 1 1-4.89 0 2.45 2.45 0 0 1 4.9 0Zm4.48 4.54a2.45 2.45 0 1 0 0-4.9 2.45 2.45 0 0 0 0 4.9Zm9.03.92a2.44 2.44 0 1 1-4.9 0 2.44 2.44 0 0 1 4.9 0Zm3.24 6.64a2.45 2.45 0 1 0 0-4.9 2.45 2.45 0 0 0 0 4.9Zm7.61 2.75a2.44 2.44 0 1 1-4.9 0 2.44 2.44 0 0 1 4.9 0Zm1.62 8.37a2.45 2.45 0 1 0 0-4.9 2.45 2.45 0 0 0 0 4.9Zm5.53 4.25a2.44 2.44 0 1 1-4.9 0 2.44 2.44 0 0 1 4.9 0Zm-.72 9.38a2.44 2.44 0 1 0 0-4.88 2.44 2.44 0 0 0 0 4.89Zm3.12 4.91a2.44 2.44 0 1 1-4.89 0 2.44 2.44 0 0 1 4.9 0Zm-2.97 9.88a2.45 2.45 0 1 0 0-4.9 2.45 2.45 0 0 0 0 4.9Zm.61 4.53a2.44 2.44 0 1 1-4.9 0 2.44 2.44 0 0 1 4.9 0Zm-5.53 8.96a2.44 2.44 0 1 0 0-4.89 2.44 2.44 0 0 0 0 4.9Zm-1.55 3.73a2.44 2.44 0 1 1-4.88 0 2.44 2.44 0 0 1 4.89 0Zm-7.58 7.73a2.45 2.45 0 1 0 0-4.89 2.45 2.45 0 0 0 0 4.9Zm-3.41 1.79a2.44 2.44 0 1 1-4.89 0 2.44 2.44 0 0 1 4.9 0Zm-8.96 5.67a2.44 2.44 0 1 0 0-4.9 2.44 2.44 0 0 0 0 4.9Zm-4.31-.23a2.44 2.44 0 1 1-4.89 0 2.44 2.44 0 0 1 4.9 0Zm-9.64 3.37a2.45 2.45 0 1 0 0-4.89 2.45 2.45 0 0 0 0 4.9Zm-4.9-2.8a2.45 2.45 0 1 1-4.9 0 2.45 2.45 0 0 1 4.9 0Zm-9.65 1.13a2.45 2.45 0 1 0 0-4.89 2.45 2.45 0 0 0 0 4.9Zm-4.22-5.34a2.45 2.45 0 1 1-4.9 0 2.45 2.45 0 0 1 4.9 0Zm-9.12-1.03a2.44 2.44 0 1 0 0-4.88 2.44 2.44 0 0 0 0 4.89Zm.04-95.1c1.79-3.43 4.8-6.21 7.22-8.05 1.3-1 2.67-1.95 4.13-2.7.9-.47 1.97-.47 2.68.32.49.55.66 1.44.86 2.14.26.92.57 2.2.76 3.69.36 2.9.28 6.9-1.93 10.28l-.01.02a22.67 22.67 0 0 1-7.58 7.13c-1.27.73-2.6 1.34-3.87 2.05a49.06 49.06 0 0 0-25.14 42.97c0 23.93 17.15 43.9 39.95 48.36a2 2 0 0 1-.77 3.93 53.41 53.41 0 0 1-8.75-2.5c-.5.42-2 1.64-4.09 2.94-2.5 1.55-6.05 3.32-9.78 3.73a17.2 17.2 0 0 1-9.4-1.75c-1.3-.65-3.4-1.64-3.97-3.13-.89-2.31 2.59-4.44 4.04-5.6 2.18-1.74 5.36-3.71 9.08-4.2a53.81 53.81 0 0 1-5.17-4.65c-1.72.47-3.49.79-5.25 1-3.03.39-7.1.55-10.68-.55a16.3 16.3 0 0 1-7.82-5.4c-.92-1.13-2.46-3.05-2.18-4.65.38-2.13 4.18-2.83 5.88-3.3 3.55-.95 7.3-1.08 10.81.12a52.83 52.83 0 0 1-3.14-7.41c-4.62.1-9.5-1.26-12.9-4.5-3.36-3.2-5.43-7.8-6.33-12.33-.28-1.45-.25-3.46 1.7-3.58 1.71-.1 3.48.08 5.16.37 3.48.6 7.03 1.92 9.62 4.4a54.26 54.26 0 0 1 .4-8c-.7-.31-1.87-.9-3.2-1.84a17.71 17.71 0 0 1-6.1-7.27c-1.51-3.45-1.75-7.41-1.63-10.36.07-1.5.23-2.79.4-3.72.23-1.26.64-2.79 2.18-2.9 1.74-.12 4.09 1.7 5.41 2.62 3.09 2.1 5.75 4.95 7.1 8.48a52.78 52.78 0 0 1 4.43-8.01 15.72 15.72 0 0 1-5.57-10.71c-.28-3.85.81-7.77 1.9-10.6a34.62 34.62 0 0 1 1.55-3.49c.53-1.03 1.15-2.25 2.48-2.23.97.01 1.72.85 2.37 1.48.66.64 1.53 1.56 2.43 2.72 1.76 2.29 3.73 5.65 4.02 9.63.07.99.03 1.94-.07 2.86a53.68 53.68 0 0 1 7.95-5.77c-1.2-3.92-1.07-8.34.82-12.04Zm11.33-6.08c-3.06 2.05-6.05 4.62-7.78 7.92a12.13 12.13 0 0 0-.77 8.22 18.45 18.45 0 0 0 7.6-6.57c1.81-2.8 1.66-6.43.95-9.57ZM56.21 52.5c-1.52 3.33-2.69 7.06-2.42 10.75a11.6 11.6 0 0 0 3.76 7.58c1.9-2.76 3.25-6.1 3-9.5-.23-3.35-2.12-6.4-4.34-8.83ZM40 76.1c-.4 3.46-.27 7.22 1.15 10.44a14.12 14.12 0 0 0 5.88 6.35c.97-3.08 1.33-6.6 0-9.62l-.02-.03c-1.33-3.15-4.1-5.49-7.01-7.14Zm7.65 40.77c-.47-3.2-1.68-6.48-4.06-8.76-2.57-2.3-6.1-3.28-9.47-3.56.88 3.28 2.38 6.6 4.87 8.95 2.31 2.2 5.53 3.18 8.66 3.37Zm10.27 20.92c-1.8-2.56-4.22-4.8-7.25-5.8-3.4-1.12-7.16-.47-10.41.81a12.41 12.41 0 0 0 6.5 4.91c3.57 1.1 7.53.75 11.16.09Zm18.4 14.36c-2.63-1.64-5.76-2.82-8.9-2.48-3.48.39-6.58 2.53-9.05 4.91a13.29 13.29 0 0 0 8.11 1.87c3.59-.4 6.94-2.24 9.84-4.3Z"/></svg>