<svg aria-hidden="true" class="svg-spot spotBellXL" width="196" height="196" viewBox="0 0 196 196"><path opacity=".07" d="M54.82 172.28c-23.1-5.2-38.7-9.49-45.83-65.02C6.35 86.72 11.33 42.63 34 26.5c15.15-10.78 74.75-30.57 108.04-2.9 33.3 27.67 52.45 53.12 38.19 97.3-14.25 44.19-11.08 38.78-45.58 51.38-28.94 10.57-62.06 4-79.83 0z"/><path d="M58.93 24.6a3.75 3.75 0 014.97 1.83l6.26 13.52a3.75 3.75 0 11-6.8 3.15L57.1 29.57a3.75 3.75 0 011.83-4.97zm71.27 130.65c-.57 2.98-3.84 4.03-6.6 2.75l-86.34-40.27c-2.91-1.36-4.14-4.78-1.95-7.14a22.4 22.4 0 017.52-5.28c5.91-2.57 11.1-10.58 17.12-19.9a313 313 0 017.07-10.61c18.96-26.8 46.46-26.28 46.46-26.28 2-4.27 6.45-5.72 10.23-3.96 3.79 1.77 5.53 6.1 3.54 10.38 0 0 18.57 20.96 10.22 52.7a326.02 326.02 0 01-3.59 12.22c-3.28 10.67-6.1 19.8-4.23 25.94a19.65 19.65 0 01.55 9.45zM41.36 41.12a3.75 3.75 0 00-4.8 5.76l12.9 10.8a3.75 3.75 0 004.82-5.75l-12.92-10.8zm5.58 30.68a3.75 3.75 0 01-3.83 3.66l-15.2-.35a3.75 3.75 0 11.18-7.5l15.19.35a3.75 3.75 0 013.66 3.84zm102.58 65.7a3.75 3.75 0 005.04-5.55l-11.04-10a3.75 3.75 0 00-5.04 5.55l11.04 10zm15.99-23.18a3.75 3.75 0 01-4.64 2.56l-16.17-4.69a3.75 3.75 0 112.09-7.2l16.16 4.69a3.75 3.75 0 012.56 4.64zm-15.47-26.98a3.75 3.75 0 002.46 7.1l14.1-4.9a3.75 3.75 0 00-2.46-7.08l-14.1 4.88z" opacity=".2"/><path d="M155.88 27.23l-8.49-8.48-8.49 8.48 8.49 8.49 8.49-8.49zm-8.49 2.83l-2.83-2.83 2.83-2.83 2.83 2.83-2.83 2.83zM28 149a2 2 0 10-4 0v4h-4a2 2 0 100 4h4v4a2 2 0 104 0v-4h4a2 2 0 100-4h-4v-4zm127.48 16.79l4.24 4.24-4.24 4.24-4.25-4.24 4.25-4.24zM84.9 143.9a2 2 0 00-3.56-1.8A12.36 12.36 0 0092.39 160c5.17 0 9.6-3.15 11.46-7.63a2 2 0 10-3.7-1.53A8.4 8.4 0 0192.4 156a8.36 8.36 0 01-7.49-12.1zm19.5-93.5a2 2 0 01-1.3 2.5 66 66 0 00-4.69 1.64 2 2 0 01-1.47-3.71 70.14 70.14 0 014.96-1.74 2 2 0 012.5 1.31zm-12.48 4.88a2 2 0 01-.57 2.77 61.1 61.1 0 00-9.23 7.28c-6.54 6.15-10 12.78-11.84 16.34a2 2 0 01-3.56-1.84c1.88-3.63 5.6-10.78 12.66-17.41a65.07 65.07 0 019.77-7.72 2 2 0 012.77.58zm16.65-17.56l.1-.15a9.47 9.47 0 0112.18-3.64 9.47 9.47 0 015.04 11.67l-.05.16.3.4.8 1.09.18.26a57.2 57.2 0 014.4 7.5c6.32 12.85 8.52 27.81 4.17 44.33-.7 2.63-1.47 5.3-2.47 8.62l-2.6 8.5-.44 1.47a108.6 108.6 0 00-1.78 6.72l-.11.51c-1.08 4.96-1.24 8.57-.43 11.24l.14.48c1.43 5.1.94 9.77-.65 13.7a3.72 3.72 0 01-5.07 1.9L29.24 109.1a3.72 3.72 0 01-1.67-5.37 23.59 23.59 0 0110.76-9.08l.28-.13c2.14-1 4.37-2.96 6.85-5.95 3-3.6 14.41-21.06 15.16-22.22l.55-.8.51-.73a66.25 66.25 0 0114.9-15.29 61.89 61.89 0 0122.27-10.35 55.68 55.68 0 019.86-1.46h-.14zm-43.62 29.4l-1 1.44-.02.04c-.65 1.01-12.23 18.73-15.39 22.53l-.35.42c-2.82 3.32-5.48 5.56-8.27 6.77l-.44.2a19.66 19.66 0 00-8.1 6.7l-.24.35 92.63 43.2.13-.38c1.07-3 1.33-6.53.26-10.38l-.23-.8c-.97-3.5-.7-7.8.57-13.45.46-2.04 1.05-4.25 1.84-6.94l.35-1.18 2.9-9.49c.9-2.97 1.6-5.43 2.24-7.83 4.08-15.51 2.02-29.51-3.9-41.54a53.15 53.15 0 00-5.42-8.77l-.26-.32-.2-.24a2 2 0 01-.32-2.18c1.48-3.16.32-6.37-2.57-7.72-2.9-1.35-6.1-.17-7.57 3a2 2 0 01-1.85 1.15h-.31c-.6 0-1.5.05-2.62.16-2.14.21-4.5.6-7.03 1.2a57.91 57.91 0 00-20.83 9.7 62.25 62.25 0 00-14 14.37z"/></svg>