<svg aria-hidden="true" class="svg-spot spotBell" width="48" height="48" viewBox="0 0 48 48"><path d="M11.81.8a1.37 1.37 0 1 0-2.5 1.16l1.91 4.09a1.38 1.38 0 0 0 2.5-1.16l-1.9-4.1Zm-8.7 3.98a1.38 1.38 0 0 1 1.94-.18l3.97 3.28A1.38 1.38 0 0 1 7.26 10L3.3 6.72a1.37 1.37 0 0 1-.19-1.94Zm34.91 23.57a21.3 21.3 0 0 0-.23-12.08 19.77 19.77 0 0 0-3-5.95 3.49 3.49 0 0 0-1.9-4.19 3.49 3.49 0 0 0-4.43 1.25c-2.2.13-4.4.71-6.44 1.58a21.65 21.65 0 0 0-9.3 7.6c-.82 1.18-1.6 2.39-2.4 3.6l-.38.6c-2.34 3.6-3.55 5.07-4.87 5.64-1.08.47-2.3 1.1-2.82 2.22A3 3 0 0 0 3.7 32.6l27.82 12.98c1.96.91 4.33-.6 4.27-2.8a8.47 8.47 0 0 0-.39-2.24c-.41-1.36-.07-3.24 1.2-7.35.49-1.6 1-3.21 1.42-4.84ZM.27 14.11c.02-.76.66-1.35 1.42-1.33l4.75.16a1.38 1.38 0 0 1-.1 2.75l-4.74-.16a1.38 1.38 0 0 1-1.33-1.42Zm45.99 15.63a1.37 1.37 0 0 0 .73-2.65l-4.96-1.37a1.37 1.37 0 0 0-.74 2.65l4.97 1.37Zm-2.74 6.53c-.5.57-1.37.64-1.94.14l-3.42-2.96a1.38 1.38 0 0 1 1.8-2.08l3.42 2.96c.57.5.64 1.36.14 1.94Zm3.22-15.37a1.38 1.38 0 0 0-1.05-2.54l-4.4 1.8a1.38 1.38 0 0 0 1.05 2.55l4.4-1.8Z" opacity=".2"/><path d="M13.73 22.3a1 1 0 1 1-1.78-.92c3.61-7.07 8.02-10.8 13.34-11.26a1 1 0 0 1 .17 2c-4.53.39-8.4 3.66-11.73 10.17Zm22.33 3.55c1.13-4.3.95-8.36-.23-12.08a19.78 19.78 0 0 0-3.01-5.95 3.49 3.49 0 0 0-1.9-4.18 3.49 3.49 0 0 0-4.42 1.24c-2.21.13-4.4.71-6.44 1.58a21.65 21.65 0 0 0-9.3 7.6c-.83 1.18-1.61 2.39-2.4 3.6l-.38.6c-2.34 3.6-3.55 5.07-4.87 5.64a9.4 9.4 0 0 0-1.9 1.08 3 3 0 0 0 .52 5.12l27.83 12.98a3 3 0 0 0 4.26-2.8 8.47 8.47 0 0 0-.38-2.24c-.41-1.36-.07-3.24 1.19-7.34l.21-.7c.43-1.38.85-2.75 1.22-4.15Zm-4.23 14.48a1 1 0 0 1-1.43.94L2.58 28.29a1 1 0 0 1-.18-1.7c.43-.32.93-.6 1.5-.86 1.84-.8 3.17-2.4 5.76-6.39l.39-.6c.77-1.19 1.53-2.38 2.35-3.53a19.65 19.65 0 0 1 8.44-6.91 15.72 15.72 0 0 1 6.23-1.44 1 1 0 0 0 .92-.57c.42-.9 1.3-1.21 2.09-.84.8.37 1.11 1.24.7 2.13a1 1 0 0 0 .15 1.09 15.96 15.96 0 0 1 3 5.7 19.36 19.36 0 0 1 .2 10.97c-.37 1.36-.78 2.71-1.2 4.06l-.21.7c-1.4 4.55-1.77 6.61-1.2 8.52.2.61.3 1.18.3 1.71Zm-14.78-.72a1 1 0 1 1 1.78.9 2.44 2.44 0 1 0 4.44 2.03 1 1 0 0 1 1.85.77 4.44 4.44 0 1 1-8.07-3.7Z"/></svg>