<svg aria-hidden="true" class="svg-spot spotBell" width="48" height="48" viewBox="0 0 48 48"><path d="M9.33 2.2a1 1 0 00-.48 1.33l2.08 4.51a1 1 0 101.82-.84l-2.09-4.5a1 1 0 00-1.33-.49zm-.39 8.9a1 1 0 00-.13-1.4l-4.3-3.61a1 1 0 00-1.29 1.53l4.31 3.6a1 1 0 001.4-.12zm-1.41 3.02a1 1 0 00-.98-1.02l-5.07-.12a1 1 0 10-.05 2l5.08.12a1 1 0 001.02-.98zm31.12 18.83l3.68 3.34c.99.9 2.33-.59 1.34-1.48L40 31.47c-.99-.9-2.33.59-1.34 1.48zm7.71-4.2l-5.4-1.56c-1.27-.37-1.83 1.55-.55 1.92l5.4 1.56c1.28.38 1.83-1.55.55-1.92zm-.46-7.5l-4.7 1.63c-1.26.43-.6 2.32.66 1.89l4.7-1.63c1.26-.44.6-2.33-.66-1.9zm-8.11 8.35c1.13-4.3.95-8.36-.23-12.08a19.78 19.78 0 00-3.01-5.95 3.49 3.49 0 00-1.9-4.18 3.49 3.49 0 00-4.42 1.24c-2.21.13-4.4.71-6.44 1.58a21.65 21.65 0 00-9.3 7.6c-.83 1.18-1.61 2.39-2.4 3.6l-.38.6c-2.34 3.6-3.55 5.07-4.87 5.64-.71.3-1.35.67-1.9 1.08a3 3 0 00.52 5.12L31.3 46.83a3 3 0 004.26-2.8 8.47 8.47 0 00-.38-2.24c-.41-1.36-.07-3.24 1.19-7.34l.21-.7c.43-1.38.85-2.75 1.22-4.15z" opacity=".2"/><path d="M15.08 22.3a1 1 0 11-1.78-.92c3.62-7.07 8.02-10.8 13.34-11.26a1 1 0 01.18 2c-4.54.39-8.4 3.66-11.74 10.17zm22.33 3.55a21.3 21.3 0 00-.23-12.08 19.78 19.78 0 00-3-5.95 3.49 3.49 0 00-1.9-4.18 3.49 3.49 0 00-4.43 1.24c-2.2.13-4.4.71-6.44 1.58a21.65 21.65 0 00-9.29 7.6c-.83 1.18-1.62 2.39-2.4 3.6l-.39.6C7 21.85 5.78 23.32 4.46 23.9c-.7.3-1.34.67-1.9 1.08a3 3 0 00.53 5.12L30.9 43.08a3 3 0 004.27-2.8 8.47 8.47 0 00-.38-2.24c-.42-1.36-.07-3.24 1.18-7.34l.21-.7c.43-1.38.85-2.75 1.22-4.15zm-4.23 14.48a1 1 0 01-1.42.94L3.93 28.29a1 1 0 01-.17-1.7c.43-.32.93-.6 1.5-.86 1.84-.8 3.17-2.4 5.75-6.39l.4-.6a93.76 93.76 0 012.34-3.53A19.65 19.65 0 0122.2 8.3a15.72 15.72 0 016.22-1.44 1 1 0 00.93-.57c.41-.9 1.29-1.21 2.08-.84.8.37 1.12 1.24.7 2.13a1 1 0 00.16 1.09 15.96 15.96 0 012.99 5.7 19.36 19.36 0 01.2 10.97c-.36 1.36-.78 2.71-1.19 4.06l-.22.7c-1.4 4.55-1.77 6.61-1.19 8.52.19.61.29 1.18.3 1.71zm-14.78-.72a1 1 0 111.79.9 2.44 2.44 0 104.44 2.03 1 1 0 011.84.77 4.44 4.44 0 11-8.06-3.7z"/></svg>