<svg aria-hidden="true" class="svg-spot spotBellXL" width="196" height="196" viewBox="0 0 196 196"><path opacity=".07" d="M9 107.26c7.12 55.53 22.71 59.82 45.82 65.02 17.77 4 50.9 10.57 79.83 0 15.98-5.84 23.88-7.8 29.17-12.64 6.13-5.6 8.76-15.02 16.41-38.74 14.26-44.18-4.9-69.63-38.19-97.3S49.15 15.72 34 26.5C11.33 42.63 6.35 86.72 9 107.26Zm99.67-69.7a9.47 9.47 0 0 1 12.18-3.63 9.47 9.47 0 0 1 5.04 11.67l-.05.16.3.4.8 1.09.18.25a57.2 57.2 0 0 1 4.4 7.52c6.32 12.83 8.52 27.8 4.17 44.32a244.5 244.5 0 0 1-2.47 8.62l-2.6 8.5-.44 1.47a108.6 108.6 0 0 0-1.78 6.72l-.11.51c-1.08 4.96-1.24 8.57-.43 11.24l.14.47c1.43 5.1.94 9.78-.65 13.7a3.71 3.71 0 0 1-5.07 1.92L29.24 109.1a3.72 3.72 0 0 1-1.67-5.37 23.59 23.59 0 0 1 10.76-9.08l.28-.13c2.14-1 4.37-2.96 6.85-5.95 3-3.6 14.41-21.06 15.16-22.22l.55-.8.51-.73a66.25 66.25 0 0 1 14.9-15.29 61.89 61.89 0 0 1 22.27-10.35 55.7 55.7 0 0 1 9.86-1.46h-.14l.1-.15Z"/><path d="M58.93 24.6a3.75 3.75 0 0 1 4.97 1.83l6.26 13.52a3.75 3.75 0 0 1-6.8 3.15L57.1 29.57a3.75 3.75 0 0 1 1.83-4.97Zm71.27 130.65c-.57 2.98-3.84 4.03-6.6 2.75l-86.34-40.27c-2.91-1.36-4.14-4.78-1.95-7.14a22.4 22.4 0 0 1 7.52-5.28c5.91-2.57 11.1-10.58 17.12-19.9 2.22-3.43 4.55-7.03 7.07-10.61 18.96-26.8 46.46-26.28 46.46-26.28 2-4.27 6.45-5.72 10.23-3.96 3.79 1.77 5.53 6.1 3.54 10.38 0 0 18.57 20.96 10.22 52.7a326.02 326.02 0 0 1-3.59 12.22c-3.28 10.67-6.1 19.8-4.23 25.94a19.65 19.65 0 0 1 .55 9.45ZM41.36 41.12a3.75 3.75 0 0 0-4.8 5.76l12.9 10.8a3.75 3.75 0 0 0 4.82-5.75l-12.92-10.8Zm5.58 30.68a3.75 3.75 0 0 1-3.83 3.66l-15.2-.35a3.75 3.75 0 0 1 .18-7.5l15.19.35a3.75 3.75 0 0 1 3.66 3.84Zm102.58 65.7a3.75 3.75 0 0 0 5.04-5.55l-11.04-10a3.75 3.75 0 0 0-5.04 5.55l11.04 10Zm15.99-23.18a3.75 3.75 0 0 1-4.64 2.56l-16.17-4.69a3.75 3.75 0 1 1 2.09-7.2l16.16 4.69a3.75 3.75 0 0 1 2.56 4.64Zm-15.47-26.98a3.75 3.75 0 1 0 2.46 7.1l14.1-4.9a3.75 3.75 0 0 0-2.46-7.08l-14.1 4.88Z" opacity=".2"/><path d="m155.88 27.23-8.49-8.48-8.49 8.48 8.49 8.49 8.49-8.49Zm-8.49 2.83-2.83-2.83 2.83-2.83 2.83 2.83-2.83 2.83ZM28 149a2 2 0 1 0-4 0v4h-4a2 2 0 1 0 0 4h4v4a2 2 0 1 0 4 0v-4h4a2 2 0 1 0 0-4h-4v-4Zm127.48 16.79 4.24 4.24-4.24 4.24-4.25-4.24 4.25-4.24ZM84.9 143.9a2 2 0 0 0-3.56-1.8A12.36 12.36 0 0 0 92.39 160c5.17 0 9.6-3.15 11.46-7.63a2 2 0 1 0-3.7-1.53A8.4 8.4 0 0 1 92.4 156a8.36 8.36 0 0 1-7.49-12.1Zm19.5-93.5a2 2 0 0 1-1.3 2.5 66 66 0 0 0-4.69 1.64 2 2 0 0 1-1.47-3.71 70.14 70.14 0 0 1 4.96-1.74 2 2 0 0 1 2.5 1.31Zm-12.48 4.88a2 2 0 0 1-.57 2.77 61.1 61.1 0 0 0-9.23 7.28c-6.54 6.15-10 12.78-11.84 16.34a2 2 0 0 1-3.56-1.84c1.88-3.63 5.6-10.78 12.66-17.41a65.07 65.07 0 0 1 9.77-7.72 2 2 0 0 1 2.77.58Zm16.65-17.56.1-.15a9.47 9.47 0 0 1 12.18-3.64 9.47 9.47 0 0 1 5.04 11.67l-.05.16.3.4.8 1.09.18.26a57.2 57.2 0 0 1 4.4 7.5c6.32 12.85 8.52 27.81 4.17 44.33-.7 2.63-1.47 5.3-2.47 8.62l-2.6 8.5-.44 1.47a108.6 108.6 0 0 0-1.78 6.72l-.11.51c-1.08 4.96-1.24 8.57-.43 11.24l.14.48c1.43 5.1.94 9.77-.65 13.7a3.72 3.72 0 0 1-5.07 1.9L29.24 109.1a3.72 3.72 0 0 1-1.67-5.37 23.59 23.59 0 0 1 10.76-9.08l.28-.13c2.14-1 4.37-2.96 6.85-5.95 3-3.6 14.41-21.06 15.16-22.22l.55-.8.51-.73a66.25 66.25 0 0 1 14.9-15.29 61.89 61.89 0 0 1 22.27-10.35 55.68 55.68 0 0 1 9.86-1.46h-.14Zm-43.62 29.4-1 1.44-.02.04c-.65 1.01-12.23 18.73-15.39 22.53l-.35.42c-2.82 3.32-5.48 5.56-8.27 6.77l-.44.2a19.66 19.66 0 0 0-8.1 6.7l-.24.35 92.63 43.2.13-.38c1.07-3 1.33-6.53.26-10.38l-.23-.8c-.97-3.5-.7-7.8.57-13.45.46-2.04 1.05-4.25 1.84-6.94l.35-1.18 2.9-9.49c.9-2.97 1.6-5.43 2.24-7.83 4.08-15.51 2.02-29.51-3.9-41.54a53.15 53.15 0 0 0-5.42-8.77l-.26-.32-.2-.24a2 2 0 0 1-.32-2.18c1.48-3.16.32-6.37-2.57-7.72-2.9-1.35-6.1-.17-7.57 3a2 2 0 0 1-1.85 1.15h-.31c-.6 0-1.5.05-2.62.16-2.14.21-4.5.6-7.03 1.2a57.91 57.91 0 0 0-20.83 9.7 62.25 62.25 0 0 0-14 14.37Z"/></svg>