<svg aria-hidden="true" class="svg-spot spotBellLg" width="96" height="96" viewBox="0 0 96 96"><path opacity=".2" d="M22.97 6.65a2.37 2.37 0 0 1 3.15 1.16l4.01 8.68a2.38 2.38 0 0 1-4.3 2L21.8 9.8a2.37 2.37 0 0 1 1.16-3.15ZM68.9 89.6c-.1 3.04-3.41 4.14-6.16 2.85L10.9 68.28c-2.9-1.36-4.1-4.84-1.6-6.85.9-.72 2-1.42 3.32-2 3.8-1.64 7.12-6.79 11-12.77 1.41-2.2 2.9-4.52 4.53-6.81 12.17-17.21 29.82-16.87 29.82-16.87a4.85 4.85 0 0 1 6.57-2.54c2.43 1.13 3.55 3.92 2.27 6.66 0 0 11.93 13.46 6.56 33.84-.72 2.71-1.53 5.34-2.3 7.84-2.1 6.85-3.91 12.7-2.72 16.65.47 1.53.6 2.94.56 4.17Zm-57-72.97a2.38 2.38 0 0 0-3.05 3.64l8.29 6.94a2.37 2.37 0 1 0 3.05-3.64l-8.3-6.94Zm3.94 18.92a2.37 2.37 0 0 1-2.43 2.32l-9.75-.23a2.38 2.38 0 0 1 .1-4.75l9.76.23a2.37 2.37 0 0 1 2.32 2.43Zm65.28 43.53a2.37 2.37 0 1 0 3.2-3.52l-7.1-6.42a2.37 2.37 0 1 0-3.18 3.52l7.08 6.42ZM91.34 64.2a2.38 2.38 0 0 1-2.94 1.62l-10.38-3a2.37 2.37 0 1 1 1.33-4.57l10.37 3.01a2.38 2.38 0 0 1 1.62 2.94ZM79.96 47.56a2.38 2.38 0 0 0 1.55 4.49l9.05-3.14A2.37 2.37 0 1 0 89 44.42l-9.04 3.14Z"/><path d="M50.43 23.79a1.5 1.5 0 0 1-.97 1.89A36 36 0 0 0 45.93 27a1.5 1.5 0 0 1-1.22-2.75 41 41 0 0 1 3.83-1.43 1.5 1.5 0 0 1 1.89.97Zm-8.96 3.97a1.5 1.5 0 0 1-.35 2.09c-1.08.76-3.1 2.54-4.33 3.73a35.22 35.22 0 0 0-7.07 9.97 1.5 1.5 0 0 1-2.69-1.35 38.2 38.2 0 0 1 7.68-10.78 50.96 50.96 0 0 1 4.67-4.02 1.5 1.5 0 0 1 2.1.36ZM55.2 15.04l.16-.24a6.28 6.28 0 0 1 7.94-2.19 6.22 6.22 0 0 1 3.25 7.74l.16.22.44.6.16.23c.99 1.4 1.97 3.02 2.89 4.87 4.1 8.28 5.55 17.94 2.75 28.59-.37 1.38-.77 2.79-1.26 4.42l-.61 2.04c-3.52 11.61-4.06 13.98-3.26 16.87l.21.74c.82 2.96.63 5.73-.2 8.17-.61 1.83-2.65 2.55-4.37 1.75L4.93 61.55c-1.81-.84-2.53-3.03-1.36-4.68a15.54 15.54 0 0 1 6.58-5.28l.23-.1c1.33-.64 2.72-1.87 4.27-3.73l.09-.12c2.07-2.56 9.33-13.68 9.64-14.16l.67-.96a42.75 42.75 0 0 1 9.61-9.86 39.94 39.94 0 0 1 19.27-7.53l1.26-.1ZM63.46 20c.92-1.96.27-3.87-1.44-4.67l-.18-.08c-1.7-.68-3.52.05-4.39 1.9l-.07.13a1.5 1.5 0 0 1-1.32.74h-.29a32.98 32.98 0 0 0-6.04.87 36.96 36.96 0 0 0-13.3 6.18 39.74 39.74 0 0 0-9.58 10.1c.23-.34-7.78 11.94-9.9 14.5l-.32.38c-1.8 2.1-3.5 3.52-5.3 4.3l-.4.18a12.5 12.5 0 0 0-4.92 4.08c-.04.05 0 .14.18.23l58.53 27.3c.17.07.25.04.26 0 .68-1.99.8-4.27.06-6.74l-.09-.3c-.61-2.27-.44-5.04.38-8.66a72.9 72.9 0 0 1 1.14-4.3l.27-.94c.25-.85 1-3.3 1.44-4.7l.78-2.6c.31-1.04.58-1.99.83-2.9l.25-.9c2.6-9.9 1.27-18.83-2.54-26.5a34 34 0 0 0-3.5-5.62l-.16-.18-.14-.17a1.5 1.5 0 0 1-.24-1.63ZM39.4 81.66a1.5 1.5 0 0 1 .67 2 5.47 5.47 0 0 0-.57 2.45c0 3 2.38 5.39 5.25 5.39a5.26 5.26 0 0 0 4.86-3.32 1.5 1.5 0 0 1 2.78 1.12 8.26 8.26 0 0 1-7.64 5.2 8.32 8.32 0 0 1-8.25-8.39c0-1.35.32-2.64.88-3.78a1.5 1.5 0 0 1 2.02-.67Z"/></svg>