<svg aria-hidden="true" class="svg-spot spotBell" width="48" height="48" viewBox="0 0 48 48"><path d="M11.58 2.05a1.38 1.38 0 00-2.5 1.16L11 7.3a1.37 1.37 0 102.5-1.16l-1.91-4.1zm-8.7 3.98a1.37 1.37 0 011.93-.18l3.97 3.28a1.38 1.38 0 01-1.75 2.12L3.06 7.97a1.37 1.37 0 01-.18-1.94zM37.79 29.6c1.13-4.3.95-8.36-.23-12.08a19.78 19.78 0 00-3.01-5.95 3.49 3.49 0 00-1.9-4.18 3.49 3.49 0 00-4.42 1.24c-2.21.13-4.4.71-6.44 1.58a21.65 21.65 0 00-9.3 7.6c-.83 1.18-1.61 2.39-2.4 3.6l-.38.6c-2.34 3.6-3.55 5.07-4.87 5.64-1.08.47-2.3 1.1-2.83 2.22a3 3 0 001.45 3.98L31.3 46.83c1.95.91 4.32-.6 4.26-2.8a8.48 8.48 0 00-.38-2.24c-.41-1.36-.07-3.24 1.19-7.34.5-1.61 1-3.22 1.43-4.85zM.03 15.36c.03-.76.66-1.35 1.42-1.33l4.75.16a1.38 1.38 0 01-.09 2.75l-4.75-.16a1.37 1.37 0 01-1.33-1.42zm46 15.64a1.37 1.37 0 10.73-2.66l-4.97-1.37a1.37 1.37 0 10-.73 2.65L46.03 31zm-2.74 6.52c-.5.57-1.37.64-1.94.14l-3.42-2.95a1.38 1.38 0 011.8-2.09l3.41 2.96c.58.5.64 1.36.15 1.94zm3.21-15.37a1.37 1.37 0 10-1.04-2.54l-4.4 1.8a1.37 1.37 0 101.04 2.55l4.4-1.8z" opacity=".2"/><path d="M15.08 22.3a1 1 0 11-1.78-.92c3.62-7.07 8.02-10.8 13.34-11.26a1 1 0 01.18 2c-4.54.39-8.4 3.66-11.74 10.17zm22.33 3.55a21.3 21.3 0 00-.23-12.08 19.78 19.78 0 00-3-5.95 3.49 3.49 0 00-1.9-4.18 3.49 3.49 0 00-4.43 1.24c-2.2.13-4.4.71-6.44 1.58a21.65 21.65 0 00-9.29 7.6c-.83 1.18-1.62 2.39-2.4 3.6l-.39.6C7 21.85 5.78 23.32 4.46 23.9c-.7.3-1.34.67-1.9 1.08a3 3 0 00.53 5.12L30.9 43.08a3 3 0 004.27-2.8 8.47 8.47 0 00-.38-2.24c-.42-1.36-.07-3.24 1.18-7.34l.21-.7c.43-1.38.85-2.75 1.22-4.15zm-4.23 14.48a1 1 0 01-1.42.94L3.93 28.29a1 1 0 01-.17-1.7c.43-.32.93-.6 1.5-.86 1.84-.8 3.17-2.4 5.75-6.39l.4-.6a93.76 93.76 0 012.34-3.53A19.65 19.65 0 0122.2 8.3a15.72 15.72 0 016.22-1.44 1 1 0 00.93-.57c.41-.9 1.29-1.21 2.08-.84.8.37 1.12 1.24.7 2.13a1 1 0 00.16 1.09 15.96 15.96 0 012.99 5.7 19.36 19.36 0 01.2 10.97c-.36 1.36-.78 2.71-1.19 4.06l-.22.7c-1.4 4.55-1.77 6.61-1.19 8.52.19.61.29 1.18.3 1.71zm-14.78-.72a1 1 0 111.79.9 2.44 2.44 0 104.44 2.03 1 1 0 011.84.77 4.44 4.44 0 11-8.06-3.7z"/></svg>