<svg aria-hidden="true" class="svg-spot spotBookmark" width="48" height="48" viewBox="0 0 48 48"><path opacity=".2" d="M33 13.5c0-.28.22-.5.5-.5h9c.28 0 .5.22.5.5v12.62a.5.5 0 0 1-.76.43l-3.98-2.4a.5.5 0 0 0-.52 0l-3.98 2.4a.5.5 0 0 1-.76-.43V13.5Z"/><path d="M28 27a1 1 0 1 0 0 2h12a1 1 0 1 0 0-2H28Zm-1 7a1 1 0 0 1 1-1h12a1 1 0 1 1 0 2H28a1 1 0 0 1-1-1Zm8.22-20.88a.3.3 0 0 1 .56 0l.7 1.7a.3.3 0 0 0 .27.2h1.39c.28 0 .4.36.18.53l-1.27 1a.3.3 0 0 0-.1.31l.41 1.64a.3.3 0 0 1-.49.3l-1.17-1.03a.3.3 0 0 0-.4 0l-1.17 1.03a.3.3 0 0 1-.5-.3l.42-1.64a.3.3 0 0 0-.1-.3l-1.27-1a.3.3 0 0 1 .18-.54h1.39a.3.3 0 0 0 .28-.2l.7-1.7ZM7 16a1 1 0 0 1 1-1h12a1 1 0 1 1 0 2H8a1 1 0 0 1-1-1Zm1 5a1 1 0 1 0 0 2h12a1 1 0 1 0 0-2H8Zm-1 7a1 1 0 0 1 1-1h12a1 1 0 1 1 0 2H8a1 1 0 0 1-1-1Zm1 5a1 1 0 1 0 0 2h12a1 1 0 1 0 0-2H8ZM3 12.25C3 11.01 4 10 5.25 10h17.5l.25.01V10h19.75c1.24 0 2.25 1 2.25 2.25v25.5c0 1.24-1 2.25-2.25 2.25H23v-.01l-.25.01H5.25C4.01 40 3 39 3 37.75v-25.5ZM41 12v11.1a1.5 1.5 0 0 1-2.29 1.28L36.48 23h-1.96l-2.23 1.38A1.5 1.5 0 0 1 30 23.1V23h-2a1 1 0 1 1 0-2h2v-4h-2a1 1 0 1 1 0-2h2v-3h-5v26h17.75c.14 0 .25-.11.25-.25v-25.5a.25.25 0 0 0-.25-.25H41Zm-4.71 8.53L39 22.2V12h-7v10.2l2.71-1.67c.48-.3 1.1-.3 1.58 0ZM22.75 12H5.25a.25.25 0 0 0-.25.25v25.5c0 .14.11.25.25.25h17.5c.14 0 .25-.11.25-.25v-25.5a.25.25 0 0 0-.25-.25Z"/></svg>