<svg aria-hidden="true" class="svg-spot spotBookmarkXL" width="196" height="196" viewBox="0 0 196 196"><path opacity=".07" d="M160.47 148.36c19.26-19.14 24.58-67.55 17.38-87.29-7.2-19.74-25.42-38.05-41.13-40.07l-1.67-.22C118.27 18.6 79.2 13.5 54.04 32.25c-26.05 19.41-34.77 41.87-39.2 89.55-4.08 44.06 29.27 49.24 63.44 54.54 2.8.44 5.6.87 8.4 1.33 36.86 6.05 54.53-10.17 73.8-29.31ZM37 59.44c0-3 2.44-5.44 5.44-5.44h112.12c3 0 5.44 2.44 5.44 5.44v76.12c0 3-2.44 5.44-5.44 5.44-24.92-.08-49.83-.06-74.75-.03-12.45.02-24.91.03-37.37.03-3 0-5.44-2.44-5.44-5.44V59.44Z"/><path opacity=".2" d="M125 63.38c0-.76.62-1.38 1.38-1.38h24.24c.76 0 1.38.62 1.38 1.38v35.16a1.38 1.38 0 0 1-2.1 1.17l-10.2-6.28a1.38 1.38 0 0 0-1.4-.02l-11.24 6.41a1.38 1.38 0 0 1-2.06-1.2V63.39Z"/><path d="M154 23a2 2 0 1 0-4 0v4h-4a2 2 0 1 0 0 4h4v4a2 2 0 1 0 4 0v-4h4a2 2 0 1 0 0-4h-4v-4Zm-21.04 40.14a.5.5 0 0 0-.92 0l-2.26 5.55a.5.5 0 0 1-.47.31h-4.87a.5.5 0 0 0-.31.9l4.32 3.4a.5.5 0 0 1 .17.51l-1.43 5.63a.5.5 0 0 0 .82.5l4.16-3.65a.5.5 0 0 1 .66 0l4.16 3.65a.5.5 0 0 0 .81-.5l-1.42-5.63a.5.5 0 0 1 .17-.51l4.32-3.4a.5.5 0 0 0-.31-.9h-4.87a.5.5 0 0 1-.47-.31l-2.26-5.55ZM111 104a2 2 0 1 0 0 4h36a2 2 0 1 0 0-4h-36Zm-2 19c0-1.1.9-2 2-2h36a2 2 0 1 1 0 4h-36a2 2 0 0 1-2-2ZM48 70c0-1.1.9-2 2-2h36a2 2 0 1 1 0 4H50a2 2 0 0 1-2-2Zm2 15a2 2 0 1 0 0 4h36a2 2 0 1 0 0-4H50Zm-2 21c0-1.1.9-2 2-2h36a2 2 0 1 1 0 4H50a2 2 0 0 1-2-2Zm2 15a2 2 0 1 0 0 4h36a2 2 0 1 0 0-4H50ZM37 59.44c0-3 2.44-5.44 5.44-5.44 37.37 0 74.75.12 112.12 0 3 0 5.44 2.44 5.44 5.44v76.12c0 3-2.44 5.44-5.44 5.44H42.44c-3 0-5.44-2.44-5.44-5.44V59.44ZM144 58h-23v33.55l10.3-5.88c1.07-.61 2.4-.6 3.44.05l9.26 5.7V58Zm-27 0h-17v79h54.56c.8 0 1.44-.65 1.44-1.44V59.44c0-.8-.65-1.44-1.44-1.44H148v34.54c0 2.64-2.9 4.26-5.15 2.87l-9.89-6.08-10.9 6.23a3.38 3.38 0 0 1-5.06-2.93V89h-6a2 2 0 1 1 0-4h6V72h-6a2 2 0 1 1 0-4h6V58Zm-22.44 0H42.44c-.8 0-1.44.65-1.44 1.44v76.12c0 .8.65 1.44 1.44 1.44h52.12c.8 0 1.44-.65 1.44-1.44V59.44c0-.8-.65-1.44-1.44-1.44ZM31 152l-9-9-9 9 9 9 9-9Zm-9 3-3-3 3-3 3 3-3 3Zm9 14 4-4 4 4-4 4-4-4Z"/></svg>