<svg aria-hidden="true" class="svg-spot spotBookmarkLg" width="96" height="96" viewBox="0 0 96 96"><path opacity=".2" d="M68 25.96c0-.53.43-.96.96-.96h17.08c.53 0 .96.43.96.96V50.3a.96.96 0 0 1-1.46.82L78 46.5a.96.96 0 0 0-1 0l-7.54 4.6a.96.96 0 0 1-1.46-.82V25.96Z"/><path d="M73.46 25.7a.5.5 0 0 0-.92 0l-1.21 2.97a.5.5 0 0 1-.47.31h-2.42a.5.5 0 0 0-.31.9l2.22 1.75a.5.5 0 0 1 .17.51L69.8 35a.5.5 0 0 0 .8.5l2.07-1.8a.5.5 0 0 1 .66 0l2.06 1.8a.5.5 0 0 0 .81-.5l-.72-2.86a.5.5 0 0 1 .17-.52l2.22-1.74a.5.5 0 0 0-.31-.9h-2.42a.5.5 0 0 1-.47-.3l-1.2-2.98ZM56 55.5c0-.83.67-1.5 1.5-1.5h25a1.5 1.5 0 1 1 0 3h-25a1.5 1.5 0 0 1-1.5-1.5ZM57.5 66a1.5 1.5 0 0 0 0 3h25a1.5 1.5 0 1 0 0-3h-25Zm-42-37a1.5 1.5 0 0 0 0 3h25a1.5 1.5 0 0 0 0-3h-25ZM14 42.5c0-.83.67-1.5 1.5-1.5h25a1.5 1.5 0 0 1 0 3h-25a1.5 1.5 0 0 1-1.5-1.5ZM15.5 54a1.5 1.5 0 0 0 0 3h25a1.5 1.5 0 0 0 0-3h-25ZM14 67.5c0-.83.67-1.5 1.5-1.5h25a1.5 1.5 0 0 1 0 3h-25a1.5 1.5 0 0 1-1.5-1.5ZM9.9 19A3.9 3.9 0 0 0 6 22.9v53.2A3.9 3.9 0 0 0 9.9 80h36.2c.3 0 .6-.04.9-.1v.1h41.1a3.9 3.9 0 0 0 3.9-3.9V22.9a3.9 3.9 0 0 0-3.9-3.9H47v.1c-.3-.06-.6-.1-.9-.1H9.9ZM65 22h16v22.83l-6.72-4.1a2.46 2.46 0 0 0-2.56 0L65 44.84V22Zm-3 7h-4.5a1.5 1.5 0 0 0 0 3H62v9h-4.5a1.5 1.5 0 0 0 0 3H62v1.79c0 1.92 2.1 3.1 3.74 2.1l6.4-3.89h1.73l6.39 3.89c1.64 1 3.74-.18 3.74-2.1V22h4.1c.5 0 .9.4.9.9v53.2c0 .5-.4.9-.9.9H50V22h12v7Zm-15-6.1v53.2c0 .5-.4.9-.9.9H9.9a.9.9 0 0 1-.9-.9V22.9c0-.5.4-.9.9-.9h36.2c.5 0 .9.4.9.9Z"/></svg>