<svg aria-hidden="true" class="svg-spot spotBullhorn" width="48" height="48" viewBox="0 0 48 48"><path d="M31.33 42.35a1 1 0 001.42-.9v-31.2L6 22.13v7.33a2 2 0 001.17 1.82l24.16 11.07zM41 22a1 1 0 100 2h5a1 1 0 100-2h-5zm5.86-8.51a1 1 0 01-.35 1.37l-5 3a1 1 0 11-1.02-1.72l5-3a1 1 0 011.37.35zm-5.35 14.65a1 1 0 00-1.02 1.72l5 3a1 1 0 101.02-1.72l-5-3z" opacity=".2"/><path d="M25.29 14.65a1 1 0 01-.5 1.32l-5.16 2.35a1 1 0 01-.83-1.82l5.16-2.35a1 1 0 011.33.5zm4.28-.83a1 1 0 00-.82-1.83l-.9.41a1 1 0 00.8 1.82l.92-.4zM32 6.35A3.4 3.4 0 0135.5 3 3.4 3.4 0 0139 6.38v33.24A3.4 3.4 0 0135.5 43a3.4 3.4 0 01-3.5-3.35L15.45 32.3l1.9 6.34a3.88 3.88 0 01-3.71 5.04 3.5 3.5 0 01-2.5-.99 3.76 3.76 0 01-1.25-2.36L8.07 29.01 7 28.54V29a1 1 0 01-1.4.92l-4-1.72a1 1 0 01-.6-.91V18.7a1 1 0 01.6-.91l4-1.72A1 1 0 017 17v.46L32 6.35zm2 .03c0-.75.59-1.38 1.5-1.38s1.5.63 1.5 1.38v33.24c0 .75-.59 1.38-1.5 1.38s-1.5-.63-1.5-1.38V6.38zm-2 2.16L7 19.65v6.7l25 11.11V8.54zM5 18.52l-2 .85v7.26l2 .85v-8.96zm5.25 11.46l1.62 10.06v.05a1.76 1.76 0 00.67 1.17c.26.26.62.42 1.1.42 1.27 0 2.16-1.17 1.8-2.48l-2.4-7.97-2.79-1.25z"/></svg>