<svg aria-hidden="true" class="svg-spot spotBullhornLg" width="96" height="96" viewBox="0 0 96 96"><path d="M66.02 23.43a5.5 5.5 0 1110.99 0V80a5.5 5.5 0 11-11 0L14.66 60.74a3.66 3.66 0 01-2.38-3.43V45.58c0-1.56 1-2.95 2.47-3.46l51.28-17.78v-.91zm17.1 21.27a2.38 2.38 0 000 4.75h9.2a2.37 2.37 0 100-4.75h-9.2zM93.7 28.67c.57 1.18.07 2.6-1.12 3.16l-8.47 4.04a2.38 2.38 0 01-2.04-4.29l8.47-4.04a2.37 2.37 0 013.17 1.13zm-9.6 29.41a2.37 2.37 0 10-1.97 4.32l8.63 3.95a2.38 2.38 0 101.98-4.32l-8.63-3.95z" opacity=".2"/><path d="M55.06 29.32a1.5 1.5 0 01-.9 1.92L43 35.22a1.5 1.5 0 01-1-2.82l11.14-3.98a1.5 1.5 0 011.92.9zm4.54-.02a1.5 1.5 0 00-.85-2.88l-.96.28a1.5 1.5 0 00.83 2.89l.97-.29zm12.4-18c-3.28 0-6 2.4-6 5.72v.38L9.59 38.5A4.5 4.5 0 001 40.37v12.28a4.5 4.5 0 008.13 2.66l4.96 1.8 3.6 18.93A6.35 6.35 0 0019.83 80a5.84 5.84 0 004.2 1.66c4.5 0 7.5-4.23 6.27-8.5v-.04L26.74 61.7 66 75.88v.08c0 3.3 2.72 5.71 6 5.71s6-2.4 6-5.7V17.01c0-3.31-2.72-5.71-6-5.71zm-3 5.72c0-1.47 1.18-2.71 3-2.71s3 1.24 3 2.7v58.95c0 1.47-1.18 2.71-3 2.71s-3-1.24-3-2.7V17.01zm-3 55.67L10 52.45v-10.9L66 20.6v52.1zM23.21 60.4l4.2 13.6a3.55 3.55 0 01-3.4 4.66 2.84 2.84 0 01-2.2-.9 3.34 3.34 0 01-1.15-2.23L17.37 58.3l5.84 2.11zM7 52.66a1.5 1.5 0 11-3 0V40.38a1.5 1.5 0 113 0v12.28z"/></svg>