<svg aria-hidden="true" class="svg-spot spotBullhornXL" width="196" height="196" viewBox="0 0 196 196"><path opacity=".07" d="M56.69 173.59l.47.1c9.98 2.2 20.34 2.06 34 1.88 11-.15 24.17-.32 41.01.68 37.74 2.24 42.37-10.41 56.83-54.25 14.46-43.83-12.22-69.55-46-97-29.36-23.86-74.81-5.83-97.82 3.3-3.47 1.37-6.42 2.54-8.73 3.34-17.71 6.1-21.92 22.78-25.27 78.24-3.25 53.72 39.4 62.46 45.5 63.7zm76.31-128V44.5c0-5.04 3.96-8.89 9-8.89s9 3.85 9 8.9v96.51c0 5.04-3.96 8.9-9 8.9s-9-3.86-9-8.9v-.62l-64.86-23.65 5.92 19.79v.02c1.94 6.73-2.78 13.35-9.83 13.35a9.1 9.1 0 01-6.56-2.6 9.93 9.93 0 01-3.33-6.24l-5.47-31.34-8.16-2.98a5 5 0 01-5.83 3.2l-4-.92a5 5 0 01-3.88-4.87v-22.8a5 5 0 013.88-4.87l4-.92a5 5 0 015.83 3.19L133 45.59z"/><path d="M124.39 10.75l8.48 8.48-8.48 8.49-8.49-8.49 8.49-8.48zm-2.83 8.48l2.83 2.83 2.83-2.83-2.83-2.83-2.83 2.83zM155 166a2 2 0 012 2v4h4a2 2 0 110 4h-4v4a2 2 0 11-4 0v-4h-4a2 2 0 110-4h4v-4c0-1.1.9-2 2-2zm-55.28-12.97l-4.24-4.24-4.25 4.24 4.25 4.24 4.24-4.24zM15 56a2 2 0 012 2v4h4a2 2 0 110 4h-4v4a2 2 0 11-4 0v-4H9a2 2 0 110-4h4v-4c0-1.1.9-2 2-2zm107.35 8.19a2 2 0 00-1.11-3.84l-1.59.46a2 2 0 001.12 3.84l1.58-.46zm-7.72.62a2 2 0 01-1.2 2.56l-18.26 6.51a2 2 0 01-1.34-3.76l18.25-6.52a2 2 0 012.55 1.21zM133 44.5v1.1L40.71 78.75a5 5 0 00-5.83-3.19l-4 .92A5 5 0 0027 81.36v22.8a5 5 0 003.88 4.87l4 .92a5 5 0 005.83-3.2l8.16 2.97 5.47 31.35a9.93 9.93 0 003.33 6.24 9.1 9.1 0 006.56 2.6c7.05 0 11.77-6.62 9.84-13.35v-.02l-5.93-19.78L133 140.4v.62c0 5.04 3.96 8.9 9 8.9s9-3.86 9-8.9V44.5c0-5.04-3.96-8.89-9-8.89s-9 3.85-9 8.9zm9-4.89c2.9 0 5 2.12 5 4.9v96.51c0 2.77-2.1 4.9-5 4.9s-5-2.13-5-4.9V44.5c0-2.77 2.1-4.89 5-4.89zM41 82.91l92-33.07v86.3L41 102.6V82.9zm-5.22-3.44a1 1 0 011.22.97v24.64a1 1 0 01-1.22.98l-4-.92a1 1 0 01-.78-.98v-22.8a1 1 0 01.78-.97l4-.92zm22.5 60.98L53.2 111.3l10.26 3.74 6.77 22.63c1.22 4.29-1.74 8.23-6 8.23a5.1 5.1 0 01-3.9-1.59 5.93 5.93 0 01-2.04-3.87z"/><path d="M133 55a9 9 0 1118 0v91a9 9 0 11-18 0l-84.1-31.54a6 6 0 01-3.9-5.62V91.27a6 6 0 014.04-5.67L133 56.5V55zm28 38a4.2 4.2 0 00-4 4c0 2.07 1.93 4 4 4h17c2.07 0 4-1.93 4-4 0-2.07-1.93-4-4-4h-17zm17.86-24.66c.92 1.86.16 4.1-1.7 5.02l-14.54 7.19a3.75 3.75 0 11-3.33-6.73l14.55-7.18a3.75 3.75 0 015.02 1.7zm-16.32 44.74a3.75 3.75 0 00-3.08 6.84l15.5 7a3.75 3.75 0 003.08-6.84l-15.5-7z" opacity=".2"/></svg>