<svg aria-hidden="true" class="svg-spot spotBullhorn" width="48" height="48" viewBox="0 0 48 48"><path d="M33 42.84 7.17 31.28A2 2 0 0 1 6 29.46v-7.34l27.03-12a2.97 2.97 0 0 1 5.9.41v32.38a2.97 2.97 0 0 1-5.93 0v-.07Zm14.8-29.98c.4.65.18 1.5-.47 1.89l-5.32 3.2a1.38 1.38 0 0 1-1.42-2.35l5.32-3.2c.65-.4 1.5-.19 1.89.46Zm0 20.26c.4-.65.18-1.5-.47-1.88l-5.32-3.2a1.38 1.38 0 1 0-1.42 2.35l5.32 3.2c.65.4 1.5.18 1.89-.47ZM39.92 23c0 .76.62 1.38 1.38 1.38h5.3a1.37 1.37 0 1 0 0-2.75h-5.3c-.76 0-1.38.61-1.38 1.37Z" opacity=".2"/><path d="M25.29 14.65a1 1 0 0 1-.5 1.32l-5.29 2.34a1 1 0 0 1-.83-1.82l5.3-2.34a1 1 0 0 1 1.32.5Zm4.28-.83a1 1 0 0 0-.82-1.83l-.9.41a1 1 0 0 0 .8 1.82l.92-.4ZM32 6.35A3.4 3.4 0 0 1 35.5 3 3.4 3.4 0 0 1 39 6.38v33.24A3.4 3.4 0 0 1 35.5 43a3.4 3.4 0 0 1-3.5-3.35L15.45 32.3l1.9 6.34a3.88 3.88 0 0 1-3.71 5.04 3.5 3.5 0 0 1-2.5-.99 3.76 3.76 0 0 1-1.25-2.36L8.07 29.01 7 28.54V29a1 1 0 0 1-1.4.92l-4-1.72a1 1 0 0 1-.6-.91V18.7a1 1 0 0 1 .6-.91l4-1.72A1 1 0 0 1 7 17v.46L32 6.35Zm2 .03v33.24c0 .75.59 1.38 1.5 1.38s1.5-.63 1.5-1.38V6.38C37 5.63 36.41 5 35.5 5S34 5.63 34 6.38Zm-2 2.16L7 19.65v6.7l25 11.11V8.54ZM5 18.52l-2 .85v7.26l2 .85v-8.96Zm5.25 11.46 1.62 10.06v.05a1.76 1.76 0 0 0 .67 1.17c.26.26.62.42 1.1.42 1.27 0 2.16-1.17 1.8-2.48l-2.4-7.97-2.79-1.25Z"/></svg>