<svg aria-hidden="true" class="svg-spot spotCalendar" width="48" height="48" viewBox="0 0 48 48"><path opacity=".2" d="M4 18.13C4 17.5 4.5 17 5.13 17h41.74c.63 0 1.13.5 1.13 1.13v22.74C48 42.6 46.6 44 44.87 44H5.13C4.5 44 4 43.5 4 42.87V18.13Z"/><path d="M14 19.5c0-.83.67-1.5 1.5-1.5h5c.83 0 1.5.67 1.5 1.5v5c0 .83-.67 1.5-1.5 1.5h-5a1.5 1.5 0 0 1-1.5-1.5v-5Zm2 4.5h4v-4h-4v4Zm9.5-6c-.83 0-1.5.67-1.5 1.5v5c0 .83.67 1.5 1.5 1.5h5c.83 0 1.5-.67 1.5-1.5v-5c0-.83-.67-1.5-1.5-1.5h-5Zm.5 2h4v4h-4v-4Zm8-.5c0-.83.67-1.5 1.5-1.5h5c.83 0 1.5.67 1.5 1.5v5c0 .83-.67 1.5-1.5 1.5h-5a1.5 1.5 0 0 1-1.5-1.5v-5Zm2 4.5h4v-4h-4v4Zm-20.5 5c-.83 0-1.5.67-1.5 1.5v5c0 .83.67 1.5 1.5 1.5h5c.83 0 1.5-.67 1.5-1.5v-5c0-.83-.67-1.5-1.5-1.5h-5Zm.5 6v-4h4v4h-4ZM4 30.5c0-.83.67-1.5 1.5-1.5h5c.83 0 1.5.67 1.5 1.5v5c0 .83-.67 1.5-1.5 1.5h-5A1.5 1.5 0 0 1 4 35.5v-5Zm2 .5v4h4v-4H6Zm19.5-2c-.83 0-1.5.67-1.5 1.5v5c0 .83.67 1.5 1.5 1.5h5c.83 0 1.5-.67 1.5-1.5v-5c0-.83-.67-1.5-1.5-1.5h-5Zm.5 6v-4h4v4h-4ZM9 22a1 1 0 1 1-2 0 1 1 0 0 1 2 0Zm29 12a1 1 0 1 0 0-2 1 1 0 0 0 0 2ZM12 6a1 1 0 1 0-2 0v2H2.13C.95 8 0 8.95 0 10.13v29.74C0 41.05.95 42 2.13 42h41.74c1.18 0 2.13-.95 2.13-2.13V10.13C46 8.95 45.05 8 43.87 8H36V6a1 1 0 1 0-2 0v2H24V6a1 1 0 1 0-2 0v2H12V6Zm22 4v1a1 1 0 1 0 2 0v-1h7.87c.07 0 .13.06.13.13V13H2v-2.87c0-.07.06-.13.13-.13H10v1a1 1 0 1 0 2 0v-1h10v1a1 1 0 1 0 2 0v-1h10ZM2 39.87V15h42v24.87c0 .07-.06.13-.13.13H2.13a.13.13 0 0 1-.13-.13Z"/></svg>