<svg aria-hidden="true" class="svg-spot spotCalendarXL" width="196" height="196" viewBox="0 0 196 196"><path opacity=".07" d="M31.11 57.3c-17.39 20.92-18.87 69.39-9.82 88.39 9.04 19 29.25 35.53 45.11 36.05l3.01.11c17.56.68 55.3 2.13 78.03-18.42 24.13-21.82 30.93-45.38 30.84-93.33-.1-43.95-33.27-45.84-67.54-47.8-3.11-.18-6.24-.36-9.35-.57C64.08 19.2 48.5 36.4 31.11 57.3zM40 57h114v19h3a3 3 0 013 3v66a3 3 0 01-3 3H49a3 3 0 01-3-3v-3h-6V57z"/><path opacity=".2" d="M46 79a3 3 0 013-3h108a3 3 0 013 3v66a3 3 0 01-3 3H49a3 3 0 01-3-3V79z"/><path d="M175 43a2 2 0 10-4 0v4h-4a2 2 0 100 4h4v4a2 2 0 104 0v-4h4a2 2 0 100-4h-4v-4zM24 142l9 9-9 9-9-9 9-9zm-3 9 3 3 3-3-3-3-3 3zm16 13 4 4-4 4-4-4 4-4zm35-80.67A3.33 3.33 0 0175.33 80h13.34A3.33 3.33 0 0192 83.33v13.34a3.33 3.33 0 01-3.33 3.33H75.33A3.33 3.33 0 0172 96.67V83.33zm4 .67v12h12V84H76zm27.33-4a3.33 3.33 0 00-3.33 3.33v13.34a3.33 3.33 0 003.33 3.33h13.34a3.33 3.33 0 003.33-3.33V83.33a3.33 3.33 0 00-3.33-3.33h-13.34zm.67 16V84h12v12h-12zm23-12.67a3.33 3.33 0 013.33-3.33h13.34a3.33 3.33 0 013.33 3.33v13.34a3.33 3.33 0 01-3.33 3.33h-13.34a3.33 3.33 0 01-3.33-3.33V83.33zm4 .67v12h12V84h-12zm-54.67 26a3.33 3.33 0 00-3.33 3.33v13.34a3.33 3.33 0 003.33 3.33h13.34a3.33 3.33 0 003.33-3.33v-13.34a3.33 3.33 0 00-3.33-3.33H76.33zm.67 16v-12h12v12H77zm-30-12.67a3.33 3.33 0 013.33-3.33h13.34a3.33 3.33 0 013.33 3.33v13.34a3.33 3.33 0 01-3.33 3.33H50.33a3.33 3.33 0 01-3.33-3.33v-13.34zm4 .67v12h12v-12H51zm51.33-4a3.33 3.33 0 00-3.33 3.33v13.34a3.33 3.33 0 003.33 3.33h13.34a3.33 3.33 0 003.33-3.33v-13.34a3.33 3.33 0 00-3.33-3.33h-13.34zm.67 16v-12h12v12h-12zM60 90.5a2.5 2.5 0 11-5 0 2.5 2.5 0 0 1 5 0zm76.5 32.5a2.5 2.5 0 100-5 2.5 2.5 0 0 0 0 5zM43 55a5 5 0 00-5 5v79a5 5 0 005 5h108a5 5 0 005-5V60a5 5 0 00-5-5h-19v-6a2 2 0 10-4 0v6h-28v-6a2 2 0 10-4 0v6H66v-6a2 2 0 10-4 0v6H43zm85 4v4a2 2 0 104 0v-4h19a1 1 0 011 1v8H42v-8a1 1 0 011-1h19v4a2 2 0 104 0v-4h30v4a2 2 0 104 0v-4h28zm-86 80V72h110v67a1 1 0 01-1 1H43a1 1 0 01-1-1z"/></svg>