<svg aria-hidden="true" class="svg-spot spotCalendarXL" width="196" height="196" viewBox="0 0 196 196"><path opacity=".07" d="M31.11 57.3c-17.39 20.92-18.87 69.39-9.82 88.39 9.04 19 29.25 35.53 45.11 36.05l3.01.11c17.56.68 55.3 2.13 78.03-18.42 24.13-21.82 30.93-45.38 30.84-93.33-.1-43.95-33.27-45.84-67.54-47.8-3.11-.18-6.24-.36-9.35-.57C64.08 19.2 48.5 36.4 31.11 57.3ZM40 57h114v19h3a3 3 0 0 1 3 3v66a3 3 0 0 1-3 3H49a3 3 0 0 1-3-3v-3h-6V57Z"/><path opacity=".2" d="M46 79a3 3 0 0 1 3-3h108a3 3 0 0 1 3 3v66a3 3 0 0 1-3 3H49a3 3 0 0 1-3-3V79Z"/><path d="M175 43a2 2 0 1 0-4 0v4h-4a2 2 0 1 0 0 4h4v4a2 2 0 1 0 4 0v-4h4a2 2 0 1 0 0-4h-4v-4ZM24 142l9 9-9 9-9-9 9-9Zm-3 9 3 3 3-3-3-3-3 3Zm16 13 4 4-4 4-4-4 4-4Zm35-80.67A3.33 3.33 0 0 1 75.33 80h13.34A3.33 3.33 0 0 1 92 83.33v13.34a3.33 3.33 0 0 1-3.33 3.33H75.33A3.33 3.33 0 0 1 72 96.67V83.33Zm4 .67v12h12V84H76Zm27.33-4a3.33 3.33 0 0 0-3.33 3.33v13.34a3.33 3.33 0 0 0 3.33 3.33h13.34a3.33 3.33 0 0 0 3.33-3.33V83.33a3.33 3.33 0 0 0-3.33-3.33h-13.34Zm.67 16V84h12v12h-12Zm23-12.67a3.33 3.33 0 0 1 3.33-3.33h13.34a3.33 3.33 0 0 1 3.33 3.33v13.34a3.33 3.33 0 0 1-3.33 3.33h-13.34a3.33 3.33 0 0 1-3.33-3.33V83.33Zm4 .67v12h12V84h-12Zm-54.67 26a3.33 3.33 0 0 0-3.33 3.33v13.34a3.33 3.33 0 0 0 3.33 3.33h13.34a3.33 3.33 0 0 0 3.33-3.33v-13.34a3.33 3.33 0 0 0-3.33-3.33H76.33Zm.67 16v-12h12v12H77Zm-30-12.67a3.33 3.33 0 0 1 3.33-3.33h13.34a3.33 3.33 0 0 1 3.33 3.33v13.34a3.33 3.33 0 0 1-3.33 3.33H50.33a3.33 3.33 0 0 1-3.33-3.33v-13.34Zm4 .67v12h12v-12H51Zm51.33-4a3.33 3.33 0 0 0-3.33 3.33v13.34a3.33 3.33 0 0 0 3.33 3.33h13.34a3.33 3.33 0 0 0 3.33-3.33v-13.34a3.33 3.33 0 0 0-3.33-3.33h-13.34Zm.67 16v-12h12v12h-12ZM60 90.5a2.5 2.5 0 1 1-5 0 2.5 2.5 0 0 1 5 0Zm76.5 32.5a2.5 2.5 0 1 0 0-5 2.5 2.5 0 0 0 0 5ZM43 55a5 5 0 0 0-5 5v79a5 5 0 0 0 5 5h108a5 5 0 0 0 5-5V60a5 5 0 0 0-5-5h-19v-6a2 2 0 1 0-4 0v6h-28v-6a2 2 0 1 0-4 0v6H66v-6a2 2 0 1 0-4 0v6H43Zm85 4v4a2 2 0 1 0 4 0v-4h19a1 1 0 0 1 1 1v8H42v-8a1 1 0 0 1 1-1h19v4a2 2 0 1 0 4 0v-4h30v4a2 2 0 1 0 4 0v-4h28Zm-86 80V72h110v67a1 1 0 0 1-1 1H43a1 1 0 0 1-1-1Z"/></svg>