<svg aria-hidden="true" class="svg-spot spotCalendarLg" width="96" height="96" viewBox="0 0 96 96"><path opacity=".2" d="M9 34.2c0-1.2.99-2.2 2.2-2.2h80.6c1.21 0 2.2.99 2.2 2.2V80a5 5 0 0 1-5 5H11.2A2.2 2.2 0 0 1 9 82.8V34.2Z"/><path d="M30 37.48C30 36.1 31.1 35 32.48 35h10.04C43.9 35 45 36.1 45 37.48v10.04C45 48.9 43.9 50 42.52 50H32.48A2.48 2.48 0 0 1 30 47.52V37.48Zm3 .52v9h9v-9h-9Zm18.48-3A2.48 2.48 0 0 0 49 37.48v10.04C49 48.9 50.1 50 51.48 50h10.04C62.9 50 64 48.9 64 47.52V37.48C64 36.1 62.9 35 61.52 35H51.48ZM52 47v-9h9v9h-9Zm16-9.52C68 36.1 69.1 35 70.48 35h10.04C81.9 35 83 36.1 83 37.48v10.04C83 48.9 81.9 50 80.52 50H70.48A2.48 2.48 0 0 1 68 47.52V37.48Zm3 .52v9h9v-9h-9ZM32.48 57A2.48 2.48 0 0 0 30 59.48v10.04C30 70.9 31.1 72 32.48 72h10.04C43.9 72 45 70.9 45 69.52V59.48C45 58.1 43.9 57 42.52 57H32.48ZM33 69v-9h9v9h-9Zm-22-9.52C11 58.1 12.1 57 13.48 57h10.04C24.9 57 26 58.1 26 59.48v10.04C26 70.9 24.9 72 23.52 72H13.48A2.48 2.48 0 0 1 11 69.52V59.48Zm3 .52v9h9v-9h-9Zm37.48-3A2.48 2.48 0 0 0 49 59.48v10.04C49 70.9 50.1 72 51.48 72h10.04C62.9 72 64 70.9 64 69.52V59.48C64 58.1 62.9 57 61.52 57H51.48ZM52 69v-9h9v9h-9ZM21 41.5a2.5 2.5 0 1 1-5 0 2.5 2.5 0 0 1 5 0ZM75.5 67a2.5 2.5 0 1 0 0-5 2.5 2.5 0 0 0 0 5ZM25 11.5a1.5 1.5 0 0 0-3 0V16H6.7A3.7 3.7 0 0 0 3 19.7v58.6A3.7 3.7 0 0 0 6.7 82h80.6a3.7 3.7 0 0 0 3.7-3.7V19.7a3.7 3.7 0 0 0-3.7-3.7H72v-4.5a1.5 1.5 0 0 0-3 0V16H48v-4.5a1.5 1.5 0 0 0-3 0V16H25v-4.5ZM69 19v2.5a1.5 1.5 0 0 0 3 0V19h15.3c.38 0 .7.32.7.7V26H6v-6.3c0-.38.32-.7.7-.7H22v2.5a1.5 1.5 0 0 0 3 0V19h20v2.5a1.5 1.5 0 0 0 3 0V19h21ZM6 78.3V29h82v49.3a.7.7 0 0 1-.7.7H6.7a.7.7 0 0 1-.7-.7Z"/></svg>