<svg aria-hidden="true" class="svg-spot spotChecklistXL" width="196" height="196" viewBox="0 0 196 196"><path opacity=".07" d="M169.5 160.59c23.36-31.7 15.06-75.62 4.7-103.03-5.1-13.47-26.16-41.32-69.61-43.36-43.46-2.04-59.07 12.17-72.07 34.7-13 22.55-26.5 67.94-4.33 103.61 22.18 35.68 120.78 35.94 141.3 8.08ZM74 39a4 4 0 0 1 4-4h41a4 4 0 0 1 4 4v2h22a6 6 0 0 1 6 6v1h3.35a3.65 3.65 0 0 1 3.65 3.65V160a7 7 0 0 1-7 7H54.65a3.65 3.65 0 0 1-3.65-3.65V160h-1a6 6 0 0 1-6-6V47a6 6 0 0 1 6-6h24v-2Z"/><path opacity=".2" d="M51 50c0-1.1.9-2 2-2h101.35a3.65 3.65 0 0 1 3.65 3.65V160a7 7 0 0 1-7 7H54.65a3.65 3.65 0 0 1-3.65-3.65V50Z"/><path d="M77.65 33A5.65 5.65 0 0 0 72 38.65v7.7A5.65 5.65 0 0 0 77.65 52h41.7a5.65 5.65 0 0 0 5.65-5.65v-7.7a5.65 5.65 0 0 0-5.65-5.65h-41.7ZM76 38.65c0-.9.74-1.65 1.65-1.65h41.7c.9 0 1.65.74 1.65 1.65v7.7c0 .9-.74 1.65-1.65 1.65h-41.7c-.9 0-1.65-.74-1.65-1.65v-7.7ZM47.65 43c-.9 0-1.65.74-1.65 1.65v111.7c0 .9.74 1.65 1.65 1.65h99.7c.9 0 1.65-.74 1.65-1.65V44.65c0-.9-.74-1.65-1.65-1.65h-14.18a2 2 0 1 1 0-4h14.18a5.65 5.65 0 0 1 5.65 5.65v111.7a5.65 5.65 0 0 1-5.65 5.65h-99.7a5.65 5.65 0 0 1-5.65-5.65V44.65A5.65 5.65 0 0 1 47.65 39h15.56a2 2 0 1 1 0 4H47.65Zm128.85 5 8.5 8.5-8.5 8.5-8.5-8.5 8.5-8.5Zm-2.83 8.5 2.83 2.83 2.83-2.83-2.83-2.83-2.83 2.83ZM18 116l-4-4-4 4 4 4 4-4Zm6 26a2 2 0 1 0-4 0v4h-4a2 2 0 1 0 0 4h4v4a2 2 0 1 0 4 0v-4h4a2 2 0 1 0 0-4h-4v-4Zm68-69a2 2 0 1 0 0 4h44a2 2 0 1 0 0-4H92Zm-12.86 47.36a2 2 0 0 1 .5 2.78l-9.82 14.18a4.92 4.92 0 0 1-8.32-.35l-3.24-5.67a2 2 0 1 1 3.48-1.98l3.23 5.66a.92.92 0 0 0 1.56.07l9.83-14.19a2 2 0 0 1 2.78-.5Zm-.44-25.32a2 2 0 1 0-3.4-2.08l-8.95 14.7a.92.92 0 0 1-1.6-.04l-3-5.44a2 2 0 0 0-3.5 1.93l3 5.44a4.92 4.92 0 0 0 8.52.18l8.94-14.69Zm.44-28.68a2 2 0 0 1 .5 2.78l-9.82 14.18a4.92 4.92 0 0 1-8.32-.36l-3.24-5.66a2 2 0 0 1 3.48-1.98l3.23 5.66a.92.92 0 0 0 1.56.07l9.83-14.19a2 2 0 0 1 2.78-.5ZM92 101a2 2 0 1 0 0 4h44a2 2 0 1 0 0-4H92Zm-2 31c0-1.1.9-2 2-2h44a2 2 0 1 1 0 4H92a2 2 0 0 1-2-2Z"/></svg>