<svg aria-hidden="true" class="svg-spot spotChecklist" width="48" height="48" viewBox="0 0 48 48"><path opacity=".2" d="M8 8.25C8 7.56 8.56 7 9.25 7h33.5c.69 0 1.25.56 1.25 1.25v36.5c0 .69-.56 1.25-1.25 1.25H9.25C8.56 46 8 45.44 8 44.75V8.25Z"/><path d="M16.25 1C15.01 1 14 2 14 3.25v2.5C14 6.99 15 8 16.25 8h14.5C31.99 8 33 7 33 5.75v-2.5C33 2.01 32 1 30.75 1h-14.5ZM16 3.25c0-.14.11-.25.25-.25h14.5c.14 0 .25.11.25.25v2.5c0 .14-.11.25-.25.25h-14.5a.25.25 0 0 1-.25-.25v-2.5Zm-10 2c0-.14.11-.25.25-.25H12a1 1 0 1 0 0-2H6.25C5.01 3 4 4 4 5.25v36.5C4 42.99 5 44 6.25 44h33.5c1.24 0 2.25-1 2.25-2.25V5.25C42 4.01 41 3 39.75 3H35a1 1 0 1 0 0 2h4.75c.14 0 .25.11.25.25v36.5c0 .14-.11.25-.25.25H6.25a.25.25 0 0 1-.25-.25V5.25ZM21 15a1 1 0 1 0 0 2h15a1 1 0 1 0 0-2H21Zm-4.45 15.17a1 1 0 0 1 .28 1.38l-3.17 4.76a2 2 0 0 1-3.32 0l-1.17-1.76a1 1 0 1 1 1.66-1.1L12 35.2l3.17-4.75a1 1 0 0 1 1.38-.28Zm.28-7.62a1 1 0 1 0-1.66-1.1L12 26.2l-1.17-1.75a1 1 0 1 0-1.66 1.1l1.17 1.76a2 2 0 0 0 3.32 0l3.17-4.76Zm-.28-10.38a1 1 0 0 1 .28 1.38l-3.17 4.76a2 2 0 0 1-3.32 0l-1.17-1.76a1 1 0 1 1 1.66-1.1L12 17.2l3.17-4.75a1 1 0 0 1 1.38-.28ZM21 24a1 1 0 1 0 0 2h15a1 1 0 1 0 0-2H21Zm-1 10a1 1 0 0 1 1-1h15a1 1 0 1 1 0 2H21a1 1 0 0 1-1-1Z"/></svg>