<svg aria-hidden="true" class="svg-spot spotChecklistLg" width="96" height="96" viewBox="0 0 96 96"><path opacity=".2" d="M13 13.2c0-.66.54-1.2 1.2-1.2h74.14C89.8 12 91 13.2 91 14.66V89a6 6 0 0 1-6 6H15.66A2.66 2.66 0 0 1 13 92.34V13.2Z"/><path d="M33.16 2A4.16 4.16 0 0 0 29 6.16v3.68c0 2.3 1.86 4.16 4.16 4.16h30.68c2.3 0 4.16-1.86 4.16-4.16V6.16C68 3.86 66.14 2 63.84 2H33.16ZM32 6.16c0-.64.52-1.16 1.16-1.16h30.68c.64 0 1.16.52 1.16 1.16v3.68c0 .64-.52 1.16-1.16 1.16H33.16c-.64 0-1.16-.52-1.16-1.16V6.16Zm-22 4c0-.64.52-1.16 1.16-1.16H22.5a1.5 1.5 0 0 0 0-3H11.16A4.16 4.16 0 0 0 7 10.16v77.68C7 90.14 8.86 92 11.16 92h72.68c2.3 0 4.16-1.86 4.16-4.16V10.16C88 7.86 86.14 6 83.84 6H73.5a1.5 1.5 0 0 0 0 3h10.34c.64 0 1.16.52 1.16 1.16v77.68c0 .64-.52 1.16-1.16 1.16H11.16c-.64 0-1.16-.52-1.16-1.16V10.16ZM43.5 29a1.5 1.5 0 0 0 0 3h32a1.5 1.5 0 0 0 0-3h-32Zm-9.15 36.27c.68.47.85 1.4.38 2.08l-7.07 10.22a3.63 3.63 0 0 1-6.14-.26l-2.32-4.07a1.5 1.5 0 1 1 2.6-1.48l2.32 4.06c.24.4.8.43 1.07.05l7.08-10.22a1.5 1.5 0 0 1 2.08-.38Zm-.08-19.47a1.5 1.5 0 0 0-2.54-1.6l-6.6 10.5a.63.63 0 0 1-1.09-.03l-2.24-3.91a1.5 1.5 0 0 0-2.6 1.48l2.24 3.92a3.63 3.63 0 0 0 6.22.13l6.6-10.5Zm.08-23.53c.68.47.85 1.4.38 2.08l-7.07 10.22a3.63 3.63 0 0 1-6.14-.26l-2.32-4.07a1.5 1.5 0 1 1 2.6-1.48l2.32 4.06c.24.4.8.43 1.07.05l7.08-10.22a1.5 1.5 0 0 1 2.08-.38ZM43.5 50a1.5 1.5 0 0 0 0 3h32a1.5 1.5 0 0 0 0-3h-32ZM42 72.5c0-.83.67-1.5 1.5-1.5h32a1.5 1.5 0 0 1 0 3h-32a1.5 1.5 0 0 1-1.5-1.5Z"/></svg>