<svg aria-hidden="true" class="svg-spot spotClock" width="48" height="48" viewBox="0 0 48 48"><path opacity=".2" d="M26 48a22 22 0 1 0 0-44 22 22 0 0 0 0 44z"/><path d="M27.95 15.3a1 1 0 0 0-1.9-.6l-1.76 5.51A4 4 0 0 0 19 23.88l-8.69 2.67a1 1 0 1 0 .59 1.9l8.54-2.62a4 4 0 1 0 6.58-4.45l1.93-6.08zm-3.94 6.98a1 1 0 0 0 .48.39 2 2 0 1 1-.48-.4zM24 6a1 1 0 1 0-2 0v3a1 1 0 1 0 2 0V6zm-1 31a1 1 0 0 1 1 1v3a1 1 0 1 1-2 0v-3a1 1 0 0 1 1-1zm17-13a1 1 0 1 0 0-2h-3a1 1 0 1 0 0 2h3zM9 23a1 1 0 0 1-1 1H5a1 1 0 1 1 0-2h3a1 1 0 0 1 1 1zm25.3 12.7a1 1 0 0 0 1.4-1.4l-2.11-2.13a1 1 0 1 0-1.42 1.42l2.12 2.12zM13.82 13.84a1 1 0 0 1-1.42 0l-2.1-2.14a1 1 0 1 1 1.42-1.42l2.12 2.12a1 1 0 0 1 0 1.42zM10.28 34.3a1 1 0 1 0 1.42 1.42l2.12-2.12a1 1 0 1 0-1.42-1.42l-2.1 2.12zm22-20.58a1 1 0 0 1 0-1.42l2.12-2.12a1 1 0 1 1 1.42 1.42l-2.12 2.1a1 1 0 0 1-1.42 0zM23 0a23 23 0 1 0 0 46 23 23 0 0 0 0-46zM2 23a21 21 0 1 1 42 0 21 21 0 0 1-42 0z"/></svg>