<svg aria-hidden="true" class="svg-spot spotClockXL" width="196" height="196" viewBox="0 0 196 196"><path opacity=".07" d="M39.68 30.98c13.07-13 38.79-24.12 47.05-25.55C95 4 121.1 2.86 155.78 20.46c34.69 17.6 51.36 122.52 15.28 151.52-36.09 29-89.17 21.53-116.62 11.13C27 172.7 8.43 158.26 3.23 111.73c-5.2-46.52 25.26-69.63 36.45-80.75z"/><path opacity=".2" d="M102 157a53 53 0 100-106 53 53 0 000 106z"/><path d="M156 19l-4-4-4 4 4 4 4-4zm-47.32 54.12a2 2 0 011.2 2.56L103.66 93a9 9 0 11-13.34 11.7l-23.14 6.89a2 2 0 11-1.14-3.84l23-6.84c-.02-.3-.04-.6-.04-.91a9 9 0 0111.04-8.77l6.08-16.9a2 2 0 012.56-1.21zM98 95a5 5 0 100 10 5 5 0 000-10zm0-43a2 2 0 012 2v7a2 2 0 11-4 0v-7c0-1.1.9-2 2-2zm2 83a2 2 0 10-4 0v7a2 2 0 104 0v-7zm44-37a2 2 0 01-2 2h-7a2 2 0 110-4h7a2 2 0 012 2zm-83 2a2 2 0 100-4h-7a2 2 0 100 4h7zm69.26 30.26a2 2 0 01-2.82 0l-4.88-4.87a2 2 0 112.83-2.82l4.87 4.87a2 2 0 010 2.82zM70.59 73.41a2 2 0 102.82-2.82l-4.95-4.95a2 2 0 00-2.82 2.82l4.95 4.95zm-5 57a2 2 0 010-2.82l4.95-4.95a2 2 0 012.82 2.82l-4.95 4.95a2 2 0 01-2.82 0zm57-59.82a2 2 0 002.82 2.82l4.95-4.95a2 2 0 00-2.82-2.82l-4.95 4.95zM98 43a55 55 0 100 110 55 55 0 000-110zM47 98a51 51 0 11102 0 51 51 0 01-102 0zm51-64a64 64 0 100 128 64 64 0 000-128zM38 98a60 60 0 11120 0 60 60 0 01-120 0zm130.5 69l8.5 8.5-8.5 8.5-8.5-8.5 8.5-8.5zm-2.83 8.5l2.83 2.83 2.83-2.83-2.83-2.83-2.83 2.83zM18 147a2 2 0 012 2v4h4a2 2 0 110 4h-4v4a2 2 0 11-4 0v-4h-4a2 2 0 110-4h4v-4c0-1.1.9-2 2-2z"/></svg>