<svg aria-hidden="true" class="svg-spot spotClockLg" width="96" height="96" viewBox="0 0 96 96"><path opacity=".2" d="M49.16 85.31a37.16 37.16 0 100-74.31 37.16 37.16 0 000 74.31z"/><path d="M56.93 32.95a1.5 1.5 0 10-2.86-.9L50.2 44.22a6.5 6.5 0 00-8.12 7.3l-15.4 4.63a1.5 1.5 0 00.86 2.87l15.7-4.7a6.5 6.5 0 109.64-8.62l4.05-12.75zM45 50.5a3.5 3.5 0 117 0 3.5 3.5 0 01-7 0zM50 18a1.5 1.5 0 00-3 0v5a1.5 1.5 0 003 0v-5zm-1.5 54.5c.83 0 1.5.67 1.5 1.5v5a1.5 1.5 0 01-3 0v-5c0-.83.67-1.5 1.5-1.5zm30-21.5a1.5 1.5 0 000-3h-5a1.5 1.5 0 000 3h5zm-55-1.5c0 .83-.67 1.5-1.5 1.5h-5a1.5 1.5 0 010-3h5c.83 0 1.5.67 1.5 1.5zm44.94 22.06a1.5 1.5 0 002.12-2.12l-3.54-3.54a1.5 1.5 0 10-2.12 2.13l3.54 3.53zm-37.88-40a1.5 1.5 0 01-2.12 0l-3.54-3.53a1.5 1.5 0 112.12-2.13l3.54 3.54a1.5 1.5 0 010 2.12zm-6.12 37.88a1.5 1.5 0 002.12 2.12l3.54-3.54a1.5 1.5 0 10-2.13-2.12l-3.53 3.54zm41-37.88a1.5 1.5 0 010-2.12l3.53-3.54a1.5 1.5 0 112.13 2.12l-3.54 3.54a1.5 1.5 0 01-2.12 0zM10 48.5a38.5 38.5 0 1177 0 38.5 38.5 0 01-77 0zM48.5 13a35.5 35.5 0 100 71 35.5 35.5 0 000-71zM3 48.5a45.5 45.5 0 1191 0 45.5 45.5 0 01-91 0zM48.5 6a42.5 42.5 0 100 85 42.5 42.5 0 000-85z"/></svg>