<svg aria-hidden="true" class="svg-spot spotClock" width="48" height="48" viewBox="0 0 48 48"><path opacity=".2" d="M26 48a22 22 0 100-44 22 22 0 000 44z"/><path d="M27.95 15.3a1 1 0 00-1.9-.6l-1.76 5.51A4 4 0 0019 23.88l-8.69 2.67a1 1 0 10.59 1.9l8.54-2.62a4 4 0 106.58-4.45l1.93-6.08zm-3.94 6.98a1 1 0 00.48.39 2 2 0 11-.48-.4zM24 6a1 1 0 10-2 0v3a1 1 0 102 0V6zm-1 31a1 1 0 011 1v3a1 1 0 11-2 0v-3a1 1 0 011-1zm17-13a1 1 0 100-2h-3a1 1 0 100 2h3zM9 23a1 1 0 01-1 1H5a1 1 0 110-2h3a1 1 0 011 1zm25.3 12.7a1 1 0 001.4-1.4l-2.11-2.13a1 1 0 10-1.42 1.42l2.12 2.12zM13.83 13.83a1 1 0 01-1.42 0L10.3 11.7a1 1 0 111.42-1.42l2.12 2.12a1 1 0 010 1.42zM10.3 34.3a1 1 0 101.4 1.4l2.13-2.11a1 1 0 10-1.42-1.42L10.3 34.3zm22-20.6a1 1 0 010-1.4l2.11-2.13a1 1 0 111.42 1.42L33.7 13.7a1 1 0 01-1.42 0zM23 0a23 23 0 100 46 23 23 0 000-46zM2 23a21 21 0 1142 0 21 21 0 01-42 0z"/></svg>