<svg aria-hidden="true" class="svg-spot spotClockLg" width="96" height="96" viewBox="0 0 96 96"><path opacity=".2" d="M49.16 85.31a37.16 37.16 0 1 0 0-74.31 37.16 37.16 0 0 0 0 74.31Z"/><path d="M56.93 32.95a1.5 1.5 0 1 0-2.86-.9L50.2 44.22a6.5 6.5 0 0 0-8.12 7.3l-15.4 4.63a1.5 1.5 0 0 0 .86 2.87l15.7-4.7a6.5 6.5 0 1 0 9.64-8.62l4.05-12.75ZM45 50.5a3.5 3.5 0 1 1 7 0 3.5 3.5 0 0 1-7 0ZM50 18a1.5 1.5 0 0 0-3 0v5a1.5 1.5 0 0 0 3 0v-5Zm-1.5 54.5c.83 0 1.5.67 1.5 1.5v5a1.5 1.5 0 0 1-3 0v-5c0-.83.67-1.5 1.5-1.5Zm30-21.5a1.5 1.5 0 0 0 0-3h-5a1.5 1.5 0 0 0 0 3h5Zm-55-1.5c0 .83-.67 1.5-1.5 1.5h-5a1.5 1.5 0 0 1 0-3h5c.83 0 1.5.67 1.5 1.5Zm44.94 22.06a1.5 1.5 0 0 0 2.12-2.12l-3.54-3.54a1.5 1.5 0 1 0-2.12 2.13l3.54 3.53Zm-37.88-40a1.5 1.5 0 0 1-2.12 0l-3.54-3.53a1.5 1.5 0 1 1 2.12-2.13l3.54 3.54a1.5 1.5 0 0 1 0 2.12Zm-6.12 37.88a1.5 1.5 0 0 0 2.12 2.12l3.54-3.54a1.5 1.5 0 1 0-2.13-2.12l-3.53 3.54Zm41-37.88a1.5 1.5 0 0 1 0-2.12l3.53-3.54a1.5 1.5 0 1 1 2.13 2.12l-3.54 3.54a1.5 1.5 0 0 1-2.12 0ZM10 48.5a38.5 38.5 0 1 1 77 0 38.5 38.5 0 0 1-77 0ZM48.5 13a35.5 35.5 0 1 0 0 71 35.5 35.5 0 0 0 0-71ZM3 48.5a45.5 45.5 0 1 1 91 0 45.5 45.5 0 0 1-91 0ZM48.5 6a42.5 42.5 0 1 0 0 85 42.5 42.5 0 0 0 0-85Z"/></svg>