<svg aria-hidden="true" class="svg-spot spotClock" width="48" height="48" viewBox="0 0 48 48"><path opacity=".2" d="M26 48a22 22 0 1 0 0-44 22 22 0 0 0 0 44Z"/><path d="M27.95 15.3a1 1 0 0 0-1.9-.6l-1.76 5.51A4 4 0 0 0 19 23.88l-8.69 2.67a1 1 0 1 0 .59 1.9l8.54-2.62a4 4 0 1 0 6.58-4.45l1.93-6.08Zm-3.94 6.98a1 1 0 0 0 .48.39 2 2 0 1 1-.48-.4ZM24 6a1 1 0 1 0-2 0v3a1 1 0 1 0 2 0V6Zm-1 31a1 1 0 0 1 1 1v3a1 1 0 1 1-2 0v-3a1 1 0 0 1 1-1Zm17-13a1 1 0 1 0 0-2h-3a1 1 0 1 0 0 2h3ZM9 23a1 1 0 0 1-1 1H5a1 1 0 1 1 0-2h3a1 1 0 0 1 1 1Zm25.3 12.7a1 1 0 0 0 1.4-1.4l-2.11-2.13a1 1 0 1 0-1.42 1.42l2.12 2.12ZM13.83 13.83a1 1 0 0 1-1.42 0L10.3 11.7a1 1 0 1 1 1.42-1.42l2.12 2.12a1 1 0 0 1 0 1.42ZM10.3 34.3a1 1 0 1 0 1.4 1.4l2.13-2.11a1 1 0 1 0-1.42-1.42L10.3 34.3Zm22-20.6a1 1 0 0 1 0-1.4l2.11-2.13a1 1 0 1 1 1.42 1.42L33.7 13.7a1 1 0 0 1-1.42 0ZM23 0a23 23 0 1 0 0 46 23 23 0 0 0 0-46ZM2 23a21 21 0 1 1 42 0 21 21 0 0 1-42 0Z"/></svg>