<svg aria-hidden="true" class="svg-spot spotCollectiveLg" width="96" height="96" viewBox="0 0 96 96"><path d="M50.5 15a5.5 5.5 0 100-11 5.5 5.5 0 000 11ZM27 34.5a2.5 2.5 0 012.5-2.5h45a2.5 2.5 0 012.5 2.5V73a2 2 0 01-3.2 1.6l-8.13-6.1a2.5 2.5 0 00-1.5-.5H29.5a2.5 2.5 0 01-2.5-2.5v-31Zm-12 14a5.5 5.5 0 11-11 0 5.5 5.5 0 0111 0ZM50.5 96a5.5 5.5 0 100-11 5.5 5.5 0 000 11ZM96 48.5a5.5 5.5 0 11-11 0 5.5 5.5 0 0111 0Z" opacity=".2"/><path d="M41 7a7 7 0 1114 0 7 7 0 01-14 0Zm7-4a4 4 0 100 8 4 4 0 000-8ZM0 47a7 7 0 1114 0 7 7 0 01-14 0Zm7-4a4 4 0 100 8 4 4 0 000-8Zm34 46a7 7 0 1114 0 7 7 0 01-14 0Zm7-4a4 4 0 100 8 4 4 0 000-8Zm40-45a7 7 0 100 14 7 7 0 000-14Zm-4 7a4 4 0 118 0 4 4 0 01-8 0Zm-44.85-5.96a1.5 1.5 0 01-.19 2.11L34.34 47l4.62 3.85a1.5 1.5 0 11-1.92 2.3l-4.83-4.03a2.77 2.77 0 010-4.24l4.83-4.03a1.5 1.5 0 012.11.19Zm15.89 2.11a1.5 1.5 0 111.92-2.3l4.83 4.03a2.77 2.77 0 010 4.24l-4.83 4.03a1.5 1.5 0 01-1.92-2.3L59.66 47l-4.62-3.85Zm-6.85-6.64c.82.1 1.4.85 1.3 1.68l-2 16a1.5 1.5 0 11-2.98-.38l2-16c.1-.82.85-1.4 1.68-1.3ZM25 26a4 4 0 00-4 4v31a4 4 0 004 4h34.67a1 1 0 01.6.2l8.13 6.1a3.5 3.5 0 005.6-2.8V30a4 4 0 00-4-4H25Zm-1 4a1 1 0 011-1h45a1 1 0 011 1v38.5a.5.5 0 01-.8.4l-8.13-6.1a4 4 0 00-2.4-.8H25a1 1 0 01-1-1V30ZM37.43 8.96a1.5 1.5 0 10-.71-2.92A43.27 43.27 0 005.6 35.66a1.5 1.5 0 102.88.86A40.27 40.27 0 0137.43 8.96ZM59.34 6.6a1.5 1.5 0 00-.86 2.88 40.28 40.28 0 0127.04 27.04 1.5 1.5 0 102.88-.86A43.28 43.28 0 0059.34 6.6ZM7.96 57.57a1.5 1.5 0 00-2.92.71 43.26 43.26 0 0031.68 31.68 1.5 1.5 0 10.71-2.92A40.26 40.26 0 017.96 57.57Zm81 .71a1.5 1.5 0 00-2.92-.71 40.27 40.27 0 01-27.56 28.96 1.5 1.5 0 10.86 2.87 43.27 43.27 0 0029.62-31.12Z"/></svg>