<svg aria-hidden="true" class="svg-spot spotCollection" width="48" height="48" viewBox="0 0 48 48"><path d="M11.52 20a.52.52 0 00-.52.52v3.96c0 .29.23.52.52.52h32.96c.29 0 .52-.23.52-.52v-3.96a.52.52 0 00-.52-.52H11.52zm0 13a.52.52 0 00-.52.52v2.96c0 .29.23.52.52.52h2.96c.29 0 .52-.23.52-.52v-2.96a.52.52 0 00-.52-.52h-2.96z" opacity=".2"/><path d="M9.52 17h32.96c.84 0 1.52.68 1.52 1.52v3.96c0 .84-.68 1.52-1.52 1.52H9.52C8.68 24 8 23.32 8 22.48v-3.96c0-.84.68-1.52 1.52-1.52zm.48 5h32v-3H10v3zm-2 9.52c0-.84.68-1.52 1.52-1.52h2.96c.84 0 1.52.68 1.52 1.52v2.96c0 .84-.68 1.52-1.52 1.52H9.52C8.68 36 8 35.32 8 34.48v-2.96zm2 .48v2h2v-2h-2zM9 13a1 1 0 100 2h8a1 1 0 100-2H9zM8 27a1 1 0 011-1h34a1 1 0 110 2H9a1 1 0 01-1-1zm9 5a1 1 0 100 2h6a1 1 0 100-2h-6zM4 10.52C4 9.68 4.68 9 5.52 9h40.96c.84 0 1.52.68 1.52 1.52v27.95c0 .84-.68 1.52-1.52 1.52H43v2.48c0 .84-.68 1.52-1.52 1.52H1.52C.68 43.99 0 43.3 0 42.47V14.52C0 13.68.68 13 1.52 13H4v-2.48zm1.52 29.47c-.84 0-1.52-.68-1.52-1.52V15H2v26.99h39v-2H5.52zM6 11v26.99h40V11H6z"/></svg>