<svg aria-hidden="true" class="svg-spot spotCollectionXL" width="196" height="196" viewBox="0 0 196 196"><path opacity=".07" d="M30.84 52.5c-17.41 20.96-19 69.5-10 88.5s32.66 35.5 45 36l1.67.06c14.28.62 56.17 2.43 79.33-18.57 24.16-21.9 31-45.5 31-93.5 0-44-33.13-45.83-67.36-47.72-3.12-.17-6.24-.34-9.35-.54-37.27-2.46-52.87 14.8-70.29 35.76ZM49 51.73c0-.96.78-1.74 1.74-1.74h111.52c.96 0 1.74.78 1.74 1.74v78.52c0 .96-.78 1.74-1.74 1.74H156v6.26c0 .96-.78 1.74-1.74 1.74H148v6.26c0 .96-.78 1.74-1.74 1.74H34.74c-.96 0-1.74-.78-1.74-1.74V68.74c0-.96.78-1.74 1.74-1.74H41v-6.26c0-.96.78-1.74 1.74-1.74H49v-7.26Z"/><path d="M65.74 80c-.96 0-1.74.78-1.74 1.74v8.52c0 .96.78 1.74 1.74 1.74h90.52c.96 0 1.74-.78 1.74-1.74v-8.52c0-.96-.78-1.74-1.74-1.74H65.74Zm0 35c-.96 0-1.74.78-1.74 1.74v7.52c0 .96.78 1.74 1.74 1.74h7.52c.96 0 1.74-.78 1.74-1.74v-7.52c0-.96-.78-1.74-1.74-1.74h-7.52Z" opacity=".2"/><path d="m148 21-9-9-9 9 9 9 9-9Zm-9 3-3-3 3-3 3 3-3 3Zm24 8-4-4-4 4 4 4 4-4ZM41 158a2 2 0 0 1 2 2v4h4a2 2 0 1 1 0 4h-4v4a2 2 0 1 1-4 0v-4h-4a2 2 0 1 1 0-4h4v-4c0-1.1.9-2 2-2Zm16-81.26v8.52A3.74 3.74 0 0 0 60.74 89h90.52a3.74 3.74 0 0 0 3.74-3.74v-8.52a3.74 3.74 0 0 0-3.74-3.74H60.74A3.74 3.74 0 0 0 57 76.74Zm4 .26h90v8H61v-8Zm-1-15a2 2 0 1 0 0 4h21.64a2 2 0 1 0 0-4H60Zm-3 36c0-1.1.9-2 2-2h94a2 2 0 1 1 0 4H59a2 2 0 0 1-2-2Zm3.74 10a3.74 3.74 0 0 0-3.74 3.74v7.52a3.74 3.74 0 0 0 3.74 3.74h7.52a3.74 3.74 0 0 0 3.74-3.74v-7.52a3.74 3.74 0 0 0-3.74-3.74h-7.52Zm.26 11v-7h7v7h-7Zm17-3c0-1.1.9-2 2-2h17.31a2 2 0 1 1 0 4H80a2 2 0 0 1-2-2ZM50.74 48A3.74 3.74 0 0 0 47 51.74V57h-4.26A3.74 3.74 0 0 0 39 60.74V65h-4.26A3.74 3.74 0 0 0 31 68.74v77.52a3.74 3.74 0 0 0 3.74 3.74h111.52a3.74 3.74 0 0 0 3.74-3.74V142h4.26a3.74 3.74 0 0 0 3.74-3.74V134h4.26a3.74 3.74 0 0 0 3.74-3.74V51.74a3.74 3.74 0 0 0-3.74-3.74H50.74ZM154 138H43V61h4v69.26a3.74 3.74 0 0 0 3.74 3.74H154v4Zm-111.26 4H146v4H35V69h4v69.26a3.74 3.74 0 0 0 3.74 3.74ZM51 52h111v78H51V52Z"/></svg>