<svg aria-hidden="true" class="svg-spot spotCollectionLg" width="96" height="96" viewBox="0 0 96 96"><path d="M23 35a1 1 0 0 0-1 1v6a1 1 0 0 0 1 1h63a1 1 0 0 0 1-1v-6a1 1 0 0 0-1-1H23Zm0 24a1 1 0 0 0-1 1v6a1 1 0 0 0 1 1h6a1 1 0 0 0 1-1v-6a1 1 0 0 0-1-1h-6Z" opacity=".2"/><path d="M19.5 30a2.5 2.5 0 0 0-2.5 2.5v6a2.5 2.5 0 0 0 2.5 2.5h63a2.5 2.5 0 0 0 2.5-2.5v-6a2.5 2.5 0 0 0-2.5-2.5h-63Zm.5 8v-5h62v5H20Zm-3 18.5a2.5 2.5 0 0 1 2.5-2.5h6a2.5 2.5 0 0 1 2.5 2.5v6a2.5 2.5 0 0 1-2.5 2.5h-6a2.5 2.5 0 0 1-2.5-2.5v-6Zm3 .5v5h5v-5h-5Zm-1.5-35a1.5 1.5 0 0 0 0 3h15a1.5 1.5 0 0 0 0-3h-15ZM17 48.5c0-.83.67-1.5 1.5-1.5h65a1.5 1.5 0 0 1 0 3h-65a1.5 1.5 0 0 1-1.5-1.5ZM33.5 58a1.5 1.5 0 0 0 0 3h12a1.5 1.5 0 0 0 0-3h-12ZM10 17.5a2.5 2.5 0 0 1 2.5-2.5h78a2.5 2.5 0 0 1 2.5 2.5v54a2.5 2.5 0 0 1-2.5 2.5H87v3.5a2.5 2.5 0 0 1-2.5 2.5h-78A2.5 2.5 0 0 1 4 77.5v-54A2.5 2.5 0 0 1 6.5 21H10v-3.5ZM12.5 74a2.5 2.5 0 0 1-2.5-2.5V24H7v53h77v-3H12.5Zm.5-56v53h77V18H13Z"/></svg>