<svg aria-hidden="true" class="svg-spot spotCollectiveLg" width="96" height="96" viewBox="0 0 96 96"><path d="M50.5 15a5.5 5.5 0 1 0 0-11 5.5 5.5 0 0 0 0 11ZM27 34.5a2.5 2.5 0 0 1 2.5-2.5h45a2.5 2.5 0 0 1 2.5 2.5V73a2 2 0 0 1-3.2 1.6l-8.13-6.1a2.5 2.5 0 0 0-1.5-.5H29.5a2.5 2.5 0 0 1-2.5-2.5v-31Zm-12 14a5.5 5.5 0 1 1-11 0 5.5 5.5 0 0 1 11 0ZM50.5 96a5.5 5.5 0 1 0 0-11 5.5 5.5 0 0 0 0 11ZM96 48.5a5.5 5.5 0 1 1-11 0 5.5 5.5 0 0 1 11 0Z" opacity=".2"/><path d="M41 7a7 7 0 1 1 14 0 7 7 0 0 1-14 0Zm7-4a4 4 0 1 0 0 8 4 4 0 0 0 0-8ZM0 47a7 7 0 1 1 14 0 7 7 0 0 1-14 0Zm7-4a4 4 0 1 0 0 8 4 4 0 0 0 0-8Zm34 46a7 7 0 1 1 14 0 7 7 0 0 1-14 0Zm7-4a4 4 0 1 0 0 8 4 4 0 0 0 0-8Zm40-45a7 7 0 1 0 0 14 7 7 0 0 0 0-14Zm-4 7a4 4 0 1 1 8 0 4 4 0 0 1-8 0Zm-44.85-5.96a1.5 1.5 0 0 1-.19 2.11L34.34 47l4.62 3.85a1.5 1.5 0 1 1-1.92 2.3l-4.83-4.03a2.77 2.77 0 0 1 0-4.24l4.83-4.03a1.5 1.5 0 0 1 2.11.19Zm15.89 2.11a1.5 1.5 0 1 1 1.92-2.3l4.83 4.03a2.77 2.77 0 0 1 0 4.24l-4.83 4.03a1.5 1.5 0 0 1-1.92-2.3L59.66 47l-4.62-3.85Zm-6.85-6.64c.82.1 1.4.85 1.3 1.68l-2 16a1.5 1.5 0 1 1-2.98-.38l2-16c.1-.82.85-1.4 1.68-1.3ZM25 26a4 4 0 0 0-4 4v31a4 4 0 0 0 4 4h34.67a1 1 0 0 1 .6.2l8.13 6.1a3.5 3.5 0 0 0 5.6-2.8V30a4 4 0 0 0-4-4H25Zm-1 4a1 1 0 0 1 1-1h45a1 1 0 0 1 1 1v38.5a.5.5 0 0 1-.8.4l-8.13-6.1a4 4 0 0 0-2.4-.8H25a1 1 0 0 1-1-1V30ZM37.43 8.96a1.5 1.5 0 1 0-.71-2.92A43.27 43.27 0 0 0 5.6 35.66a1.5 1.5 0 1 0 2.88.86A40.27 40.27 0 0 1 37.43 8.96ZM59.34 6.6a1.5 1.5 0 0 0-.86 2.88 40.28 40.28 0 0 1 27.04 27.04 1.5 1.5 0 1 0 2.88-.86A43.28 43.28 0 0 0 59.34 6.6ZM7.96 57.57a1.5 1.5 0 0 0-2.92.71 43.26 43.26 0 0 0 31.68 31.68 1.5 1.5 0 1 0 .71-2.92A40.26 40.26 0 0 1 7.96 57.57Zm81 .71a1.5 1.5 0 0 0-2.92-.71 40.27 40.27 0 0 1-27.56 28.96 1.5 1.5 0 1 0 .86 2.87 43.27 43.27 0 0 0 29.62-31.12Z"/></svg>