<svg aria-hidden="true" class="svg-spot spotCollectiveXL" width="196" height="196" viewBox="0 0 196 196"><path opacity=".07" d="M109.13 183.32c43.56-.01 67.8-15 71.71-26.4 6.06-17.63 9.1-31.53 3.38-72.98-5.44-39.41-19.94-48.63-36.22-58.99l-2.53-1.6c-17.3-11.1-86.66-23.22-118.1 7.5-31.42 30.72-19.46 90.58-4 116.65 15.47 26.07 42.2 35.84 85.76 35.82zM47 64.57A6.57 6.57 0 0153.57 58h81.86a6.57 6.57 0 016.57 6.57v2.47c2.25.28 4 2.2 4 4.53v70.21c0 3-3.4 4.72-5.82 2.95l-14.81-10.85a4.58 4.58 0 00-2.7-.88h-63.1a4.57 4.57 0 01-4.57-4.57V128h-1.43a6.57 6.57 0 01-6.57-6.58V64.57zM38 98a10 10 0 11-20 0 10 10 0 0 1 20 0zm63 84a10 10 0 100-20 10 10 0 0 0 0 20zm81-84a10 10 0 11-20 0 10 10 0 0 1 20 0zm-81-60a10 10 0 100-20 10 10 0 0 0 0 20z"/><path d="M101 38a10 10 0 100-20 10 10 0 0 0 0 20zM55 71.57A4.57 4.57 0 0159.57 67h81.86a4.57 4.57 0 014.57 4.57v70.21c0 3-3.4 4.73-5.82 2.96l-14.81-10.86a4.58 4.58 0 00-2.7-.88h-63.1a4.57 4.57 0 01-4.57-4.57V71.57zM38 98a10 10 0 11-20 0 10 10 0 0 1 20 0zm63 84a10 10 0 100-20 10 10 0 0 0 0 20zm81-84a10 10 0 11-20 0 10 10 0 0 1 20 0z" opacity=".2"/><path d="M97 11.9a12.1 12.1 0 100 24.2 12.1 12.1 0 0 0 0-24.2zM89.1 24a7.9 7.9 0 1115.8 0 7.9 7.9 0 0 1-15.8 0zM24 81.9a12.1 12.1 0 100 24.2 12.1 12.1 0 0 0 0-24.2zM16.1 94a7.9 7.9 0 1115.8 0 7.9 7.9 0 0 1-15.8 0zM97 155.9a12.1 12.1 0 100 24.2 12.1 12.1 0 0 0 0-24.2zM89.1 168a7.9 7.9 0 1115.8 0 7.9 7.9 0 0 1-15.8 0zm66.8-74a12.1 12.1 0 1124.2 0 12.1 12.1 0 0 1-24.2 0zm12.1-7.9a7.9 7.9 0 100 15.8 7.9 7.9 0 0 0 0-15.8zm-88.76.47a2 2 0 00-2.48-3.14l-9.57 7.58a4.45 4.45 0 000 6.98l9.57 7.58a2 2 0 102.48-3.14l-9.57-7.58a.45.45 0 010-.7l9.57-7.58zm31.19-2.81a2 2 0 00.33 2.8l9.57 7.59c.23.18.23.52 0 .7l-9.57 7.58a2 2 0 102.48 3.14l9.57-7.58a4.45 4.45 0 000-6.98l-9.57-7.58a2 2 0 00-2.8.33zm-12.45-4.5a2 2 0 00-3.96-.52l-4 31a2 2 0 003.96.52l4-31zM47 64.57A6.57 6.57 0 0153.57 58h81.86a6.57 6.57 0 016.57 6.57v70.21c0 4.64-5.27 7.3-9 4.57l-14.81-10.85c-.45-.33-.98-.5-1.53-.5H53.57a6.57 6.57 0 01-6.57-6.57V64.57zM53.57 62A2.57 2.57 0 0051 64.57v56.86a2.57 2.57 0 002.57 2.57h63.1c1.4 0 2.75.44 3.88 1.27l14.81 10.85c1.1.8 2.64.02 2.64-1.34v-70.2a2.57 2.57 0 00-2.57-2.58H53.57zm26.1-39.47a2 2 0 01-1.46 2.41 72.77 72.77 0 0 0-52.33 49.8 2 2 0 0 1-3.83-1.13 76.77 76.77 0 0 1 55.2-52.55 2 2 0 0 1 2.42 1.47zm35.23.87a2 2 0 012.5-1.35 76.8 76.8 0 0 1 51.56 51.56 2 2 0 0 1-3.84 1.14 72.8 72.8 0 0 0-48.87-48.87 2 2 0 0 1-1.34-2.49zm-92.37 87.93a2 2 0 012.41 1.47 72.75 72.75 0 0 0 53.27 53.26 2 2 0 1 1-.95 3.88 76.75 76.75 0 0 1-56.2-56.2 2 2 0 0 1 1.47-2.41zm145.94 0a2 2 0 011.47 2.41 76.77 76.77 0 0 1-52.55 55.22 2 2 0 0 1-1.14-3.84 72.77 72.77 0 0 0 49.8-52.33 2 2 0 0 1 2.42-1.46zM25 18a2 2 0 012 2v4h4a2 2 0 110 4h-4v4a2 2 0 11-4 0v-4h-4a2 2 0 110-4h4v-4c0-1.1.9-2 2-2zm159 33-5-5-5 5 5 5 5-5zm-27.5 122 8.5 8.5-8.5 8.5-8.5-8.5 8.5-8.5zm-2.83 8.5 2.83 2.83 2.83-2.83-2.83-2.83-2.83 2.83z"/></svg>