<svg aria-hidden="true" class="svg-spot spotCompassXL" width="196" height="196" viewBox="0 0 196 196"><path opacity=".07" d="M191.38 102.53s-7.43-35.45-18.36-50.29c-.91-1.23-1.91-2.67-3.01-4.25-10.2-14.67-29.29-42.14-71.52-43.66-46.78-1.7-63.8 14.56-78.12 40.18-14.32 25.62-29.5 77.03-6.12 116.98 23.39 39.95 129.62 38.86 152.12 7.14 22.5-31.73 25.01-66.1 25.01-66.1Zm-84.47-63.98A71.01 71.01 0 0 1 98 180a71 71 0 0 1-8.9-141.45 14.77 14.77 0 0 1-5.84-11.77C83.26 18.62 89.86 12 98 12s14.74 6.62 14.74 14.78c0 4.8-2.29 9.07-5.83 11.77Z"/><path d="M87 139.48v-34.99a2 2 0 0 1 .8-1.59l31-23.47a2 2 0 0 1 3.2 1.6V116a2 2 0 0 1-.8 1.59l-31 23.47a2 2 0 0 1-3.2-1.6ZM115 30a13 13 0 0 1-8.92 12.35 71 71 0 1 1-9.03-.32A13 13 0 1 1 115 30ZM98.5 173a60.5 60.5 0 1 0 0-121 60.5 60.5 0 0 0 0 121Z" opacity=".2"/><path d="M96 72a2 2 0 1 0 4 0V57.3a2 2 0 1 0-4 0V72Zm-35 39a2 2 0 1 0 0-4H46.34a2 2 0 1 0 0 4H61Zm88 0a2 2 0 1 0 0-4h-14.66a2 2 0 0 0 0 4H149Zm-51 51.47a2 2 0 0 1-2-2v-14.7a2 2 0 1 1 4 0v14.7a2 2 0 0 1-2 2Zm36.41-23.06a2 2 0 0 1-2.82 0l-5.66-5.65a2 2 0 1 1 2.83-2.83l5.65 5.66a2 2 0 0 1 0 2.82Zm-66.82-55a2 2 0 1 0 2.82-2.82l-5.65-5.66a2 2 0 0 0-2.83 2.83l5.66 5.65Zm-6 55a2 2 0 0 1 0-2.82l5.65-5.66a2 2 0 0 1 2.83 2.83l-5.66 5.65a2 2 0 0 1-2.82 0Zm65-58.82a2 2 0 0 0 2.82 2.82l5.66-5.65a2 2 0 0 0-2.83-2.83l-5.65 5.66ZM107 107a9 9 0 1 1-18 0 9 9 0 0 1 18 0Zm-4 0a5 5 0 1 0-10 0 5 5 0 0 0 10 0Zm13.9-34.79A2 2 0 0 1 118 74v39a2 2 0 0 1-.82 1.62l-35 25.5A2 2 0 0 1 79 138.5V100a2 2 0 0 1 .8-1.6l35-26a2 2 0 0 1 2.1-.19ZM83 101.01v33.56l31-22.59v-34L83 101Zm75 7.99c0 33.69-27.09 61-60.5 61S37 142.69 37 109s27.09-61 60.5-61S158 75.31 158 109Zm-4 0c0-31.51-25.33-57-56.5-57S41 77.49 41 109s25.33 57 56.5 57 56.5-25.49 56.5-57Zm-41.26-82.22c0 4.8-2.29 9.07-5.83 11.77A71.01 71.01 0 0 1 98 180a71 71 0 0 1-8.9-141.45 14.77 14.77 0 0 1-5.84-11.77C83.26 18.62 89.86 12 98 12s14.74 6.62 14.74 14.78ZM98 37.56c5.92 0 10.74-4.82 10.74-10.78C108.74 20.82 103.92 16 98 16a10.76 10.76 0 0 0-10.74 10.78c0 5.96 4.82 10.78 10.74 10.78ZM98 176a67 67 0 1 0 0-134 67 67 0 0 0 0 134ZM25 44l-4-4-4 4 4 4 4-4Zm145-4a2 2 0 0 1 2 2v4h4a2 2 0 1 1 0 4h-4v4a2 2 0 1 1-4 0v-4h-4a2 2 0 1 1 0-4h4v-4c0-1.1.9-2 2-2ZM26.5 167l8.5 8.5-8.5 8.5-8.5-8.5 8.5-8.5Zm-2.83 8.5 2.83 2.83 2.83-2.83-2.83-2.83-2.83 2.83Z"/></svg>