<svg aria-hidden="true" class="svg-spot spotCompass" width="48" height="48" viewBox="0 0 48 48"><path opacity=".2" d="M21 26.5V38l10-7V19.5l-10 7z"/><path d="M23 15.12a1 1 0 102 0v-3a1 1 0 10-2 0v3zM12.97 28a1 1 0 100-2H9.98a1 1 0 100 2h3zM38 28a1 1 0 100-2h-2.99a1 1 0 000 2H38zM23.94 43a1 1 0 01-1-1v-3a1 1 0 112 0v3a1 1 0 01-1 1zm9.3-6.35a1 1 0 001.41-1.41l-.7-.7a1 1 0 10-1.42 1.4l.71.71zM15.3 19.7l-.71-.7A1 1 0 0116 17.59l.7.7a1 1 0 01-1.4 1.42zm-1.95 16.54a1 1 0 001.41 1.41l.7-.7a1 1 0 10-1.4-1.42l-.71.71zM32.3 19.41a1 1 0 010-1.41l.7-.7a1 1 0 111.41 1.4l-.7.71a1 1 0 01-1.42 0zM24 29a2 2 0 100-4 2 2 0 000 4zm6-11a1 1 0 00-1.6-.8l-10 7.5a1 1 0 00-.4.8V36a1 1 0 001.55.84l10-6.5a1 1 0 00.45-.84V18zM20 34.16V26l8-6v8.96l-8 5.2zm6.48-26.12A3.96 3.96 0 0024 1a3.95 3.95 0 00-2.48 7.04A19.05 19.05 0 005 26.94C5 37.47 13.5 46 24 46s19-8.53 19-19.06c0-9.69-7.2-17.68-16.52-18.9zm-.53-3.08a1.95 1.95 0 11-3.9 0 1.95 1.95 0 113.9 0zM24 44c-9.38 0-17-7.63-17-17.06S14.62 9.87 24 9.87c9.38 0 17 7.64 17 17.07S33.38 44 24 44z"/></svg>