<svg aria-hidden="true" class="svg-spot spotCompassLg" width="96" height="96" viewBox="0 0 96 96"><path d="M42 73V52.5L60 39v20.5L42 73zm15.5-60a7 7 0 01-4.01 6.33 37 37 0 11-6.54-.3A7 7 0 1157.5 13zM48 87a31.5 31.5 0 100-63 31.5 31.5 0 000 63z" opacity=".2"/><path d="M47.5 37.5A1.5 1.5 0 0146 36v-7.79a1.5 1.5 0 013 0V36c0 .83-.67 1.5-1.5 1.5zm27 17c0 .83-.67 1.5-1.5 1.5h-7.74a1.5 1.5 0 010-3H73c.83 0 1.5.67 1.5 1.5zm-44 1c0 .83-.67 1.5-1.5 1.5h-7a1.5 1.5 0 010-3h7c.83 0 1.5.67 1.5 1.5zM46 81a1.5 1.5 0 003 0v-7.79a1.5 1.5 0 00-3 0V81zm18.44-8.44a1.5 1.5 0 002.12-2.12l-2.12-2.12a1.5 1.5 0 10-2.12 2.12l2.12 2.12zm-30.88-32a1.5 1.5 0 01-2.12 0l-2.12-2.12a1.5 1.5 0 112.12-2.12l2.12 2.12a1.5 1.5 0 010 2.12zm-5.12 29.88a1.5 1.5 0 002.12 2.12l2.12-2.12a1.5 1.5 0 10-2.12-2.12l-2.12 2.12zm33-29.88a1.5 1.5 0 010-2.12l2.12-2.12a1.5 1.5 0 112.12 2.12l-2.12 2.12a1.5 1.5 0 01-2.12 0zM47.66 58.77a5.29 5.29 0 10-.45-10.57 5.29 5.29 0 00.45 10.57zm-.12-3a2.29 2.29 0 11-.2-4.57 2.29 2.29 0 01.2 4.57zM58 37.5a1.5 1.5 0 00-2.36-1.23l-18 12.53c-.4.28-.64.74-.64 1.23V70a1.5 1.5 0 002.38 1.22l18-13.03c.39-.28.62-.74.62-1.22V37.5zM40 67.06V50.81l15-10.44v15.84L40 67.06zM47.5 87a32.5 32.5 0 100-65 32.5 32.5 0 000 65zm0-3a29.5 29.5 0 110-59 29.5 29.5 0 010 59zm5.86-67.56a8 8 0 10-11.72 0 38.5 38.5 0 1011.72 0zM52.5 11a5 5 0 11-10 0 5 5 0 0110 0zm-5 8a35.5 35.5 0 110 71 35.5 35.5 0 010-71z"/></svg>