<svg aria-hidden="true" class="svg-spot spotCompassXL" width="196" height="196" viewBox="0 0 196 196"><path opacity=".07" d="M173.02 52.24c10.93 14.84 18.36 50.3 18.36 50.3s-2.5 34.36-25 66.09c-22.5 31.72-128.74 32.8-152.13-7.14-23.39-39.95-8.2-91.36 6.12-116.98C34.69 18.89 51.7 2.64 98.49 4.33c46.79 1.69 65.17 35.21 74.53 47.91z"/><path d="M87 139.48v-34.99a2 2 0 01.8-1.59l31-23.47a2 2 0 013.2 1.6V116a2 2 0 01-.8 1.59l-31 23.47a2 2 0 01-3.2-1.6zM115 30a13 13 0 01-8.92 12.35 71 71 0 11-9.03-.32A13 13 0 11115 30zM98.5 173a60.5 60.5 0 100-121 60.5 60.5 0 000 121z" opacity=".2"/><path d="M96 72a2 2 0 104 0V57.3a2 2 0 10-4 0V72zm-35 39a2 2 0 100-4H46.34a2 2 0 100 4H61zm88 0a2 2 0 100-4h-14.66a2 2 0 000 4H149zm-51 51.47a2 2 0 01-2-2v-14.7a2 2 0 114 0v14.7a2 2 0 01-2 2zm36.41-23.06a2 2 0 01-2.82 0l-5.66-5.65a2 2 0 112.83-2.83l5.65 5.66a2 2 0 010 2.82zm-66.82-55a2 2 0 102.82-2.82l-5.65-5.66a2 2 0 00-2.83 2.83l5.66 5.65zm-6 55a2 2 0 010-2.82l5.65-5.66a2 2 0 012.83 2.83l-5.66 5.65a2 2 0 01-2.82 0zm65-58.82a2 2 0 002.82 2.82l5.66-5.65a2 2 0 00-2.83-2.83l-5.65 5.66zM107 107a9 9 0 11-18 0 9 9 0 0118 0zm-4 0a5 5 0 10-10 0 5 5 0 0010 0zm13.9-34.79A2 2 0 01118 74v39a2 2 0 01-.82 1.62l-35 25.5A2 2 0 0179 138.5V100a2 2 0 01.8-1.6l35-26a2 2 0 012.1-.19zM83 101.01v33.56l31-22.59v-34L83 101zm75 7.99c0 33.69-27.09 61-60.5 61S37 142.69 37 109s27.09-61 60.5-61S158 75.31 158 109zm-4 0c0-31.51-25.33-57-56.5-57S41 77.49 41 109s25.33 57 56.5 57 56.5-25.49 56.5-57zm-41.26-82.22c0 4.8-2.29 9.07-5.83 11.77A71.01 71.01 0 0198 180a71 71 0 01-8.9-141.45 14.77 14.77 0 01-5.84-11.77C83.26 18.62 89.86 12 98 12s14.74 6.62 14.74 14.78zM98 37.56c5.92 0 10.74-4.82 10.74-10.78C108.74 20.82 103.92 16 98 16a10.76 10.76 0 00-10.74 10.78c0 5.96 4.82 10.78 10.74 10.78zM98 176a67 67 0 100-134 67 67 0 000 134zM25 44l-4-4-4 4 4 4 4-4zm145-4a2 2 0 012 2v4h4a2 2 0 110 4h-4v4a2 2 0 11-4 0v-4h-4a2 2 0 110-4h4v-4c0-1.1.9-2 2-2zM26.5 167l8.5 8.5-8.5 8.5-8.5-8.5 8.5-8.5zm-2.83 8.5l2.83 2.83 2.83-2.83-2.83-2.83-2.83 2.83z"/></svg>