<svg aria-hidden="true" class="svg-spot spotCompassLg" width="96" height="96" viewBox="0 0 96 96"><path d="M42 73V52.5L60 39v20.5L42 73Zm15.5-60a7 7 0 0 1-4.01 6.33 37 37 0 1 1-6.54-.3A7 7 0 1 1 57.5 13ZM48 87a31.5 31.5 0 1 0 0-63 31.5 31.5 0 0 0 0 63Z" opacity=".2"/><path d="M47.5 37.5A1.5 1.5 0 0 1 46 36v-7.79a1.5 1.5 0 0 1 3 0V36c0 .83-.67 1.5-1.5 1.5Zm27 17c0 .83-.67 1.5-1.5 1.5h-7.74a1.5 1.5 0 0 1 0-3H73c.83 0 1.5.67 1.5 1.5Zm-44 1c0 .83-.67 1.5-1.5 1.5h-7a1.5 1.5 0 0 1 0-3h7c.83 0 1.5.67 1.5 1.5ZM46 81a1.5 1.5 0 0 0 3 0v-7.79a1.5 1.5 0 0 0-3 0V81Zm18.44-8.44a1.5 1.5 0 0 0 2.12-2.12l-2.12-2.12a1.5 1.5 0 1 0-2.12 2.12l2.12 2.12Zm-30.88-32a1.5 1.5 0 0 1-2.12 0l-2.12-2.12a1.5 1.5 0 1 1 2.12-2.12l2.12 2.12a1.5 1.5 0 0 1 0 2.12Zm-5.12 29.88a1.5 1.5 0 0 0 2.12 2.12l2.12-2.12a1.5 1.5 0 1 0-2.12-2.12l-2.12 2.12Zm33-29.88a1.5 1.5 0 0 1 0-2.12l2.12-2.12a1.5 1.5 0 1 1 2.12 2.12l-2.12 2.12a1.5 1.5 0 0 1-2.12 0ZM47.66 58.77a5.29 5.29 0 1 0-.45-10.57 5.29 5.29 0 0 0 .45 10.57Zm-.12-3a2.29 2.29 0 1 1-.2-4.57 2.29 2.29 0 0 1 .2 4.57ZM58 37.5a1.5 1.5 0 0 0-2.36-1.23l-18 12.53c-.4.28-.64.74-.64 1.23V70a1.5 1.5 0 0 0 2.38 1.22l18-13.03c.39-.28.62-.74.62-1.22V37.5ZM40 67.06V50.81l15-10.44v15.84L40 67.06ZM47.5 87a32.5 32.5 0 1 0 0-65 32.5 32.5 0 0 0 0 65Zm0-3a29.5 29.5 0 1 1 0-59 29.5 29.5 0 0 1 0 59Zm5.86-67.56a8 8 0 1 0-11.72 0 38.5 38.5 0 1 0 11.72 0ZM52.5 11a5 5 0 1 1-10 0 5 5 0 0 1 10 0Zm-5 8a35.5 35.5 0 1 1 0 71 35.5 35.5 0 0 1 0-71Z"/></svg>