<svg aria-hidden="true" class="svg-spot spotDocumentAltLg" width="96" height="96" viewBox="0 0 96 96"><path opacity=".2" d="M15 10.99A2.99 2.99 0 0118 8h63a6 6 0 016 6v74a6 6 0 01-6 6H21a6 6 0 01-6-6V10.99z"/><path d="M25 26a8 8 0 100-16 8 8 0 000 16zm0-13a5 5 0 110 10 5 5 0 010-10zm-5.5 30a1.5 1.5 0 000 3h50a1.5 1.5 0 000-3h-50zm0 10a1.5 1.5 0 000 3h50a1.5 1.5 0 000-3h-50zm0 10a1.5 1.5 0 000 3h50a1.5 1.5 0 000-3h-50zm0 10a1.5 1.5 0 000 3h50a1.5 1.5 0 000-3h-50zM8 5.5A4.5 4.5 0 0112.5 1h64A4.5 4.5 0 0181 5.5V8h2.5a4.5 4.5 0 014.5 4.5v78a4.5 4.5 0 01-4.5 4.5h-64a4.5 4.5 0 01-4.5-4.5V88h-2.5A4.5 4.5 0 018 83.5v-78zM18 88v2.5c0 .83.67 1.5 1.5 1.5h64c.83 0 1.5-.67 1.5-1.5v-78c0-.83-.67-1.5-1.5-1.5H81v72.5a4.5 4.5 0 01-4.5 4.5H18zM12.5 4c-.83 0-1.5.67-1.5 1.5v78c0 .83.67 1.5 1.5 1.5h64c.83 0 1.5-.67 1.5-1.5v-78c0-.83-.67-1.5-1.5-1.5h-64z"/></svg>