<svg aria-hidden="true" class="svg-spot spotDocumentAltXL" width="196" height="196" viewBox="0 0 196 196"><path opacity=".07" d="M52 179c-3.8-.84-46.18-9.67-42.82-65.12C12.53 58.42 17.29 38.6 35 32.5c17.7-6.1 77.72-29.45 111.5-2S201.46 82.17 187 126c-14.46 43.84-20.76 60.74-58.5 58.5-37.74-2.24-58.47-1.53-76.5-5.5z"/><path opacity=".2" d="M48 45.94c0-2.21 1.8-3.94 4-3.94h93.06a9.92 9.92 0 019.94 9.9v114.2c0 5.47-4.45 9.9-9.94 9.9H57.94a9.92 9.92 0 01-9.94-9.9V45.94z"/><path d="M124.88 17.23l-8.49-8.48-8.49 8.48 8.49 8.49 8.48-8.49zm-8.49 2.83l-2.83-2.83 2.83-2.83 2.83 2.83-2.83 2.83zM185 134a2 2 0 10-4 0v4h-4a2 2 0 100 4h4v4a2 2 0 104 0v-4h4a2 2 0 100-4h-4v-4zM12 71a2 2 0 012 2v4h4a2 2 0 110 4h-4v4a2 2 0 11-4 0v-4H6a2 2 0 110-4h4v-4c0-1.1.9-2 2-2zm53-1a12 12 0 100-24 12 12 0 000 24zm0-4a8 8 0 110-16 8 8 0 010 16zM54 97c0-1.1.9-2 2-2h75a2 2 0 110 4H56a2 2 0 01-2-2zm0 17c0-1.1.9-2 2-2h75a2 2 0 110 4H56a2 2 0 01-2-2zm0 17c0-1.1.9-2 2-2h75a2 2 0 110 4H56a2 2 0 01-2-2zm0 17c0-1.1.9-2 2-2h75a2 2 0 110 4H56a2 2 0 01-2-2zM46 32a7 7 0 00-7 7v121a7 7 0 007 7h3v3a7 7 0 007 7h94a7 7 0 007-7V49a7 7 0 00-7-7h-3v-3a7 7 0 00-7-7H46zm101 14h3a3 3 0 013 3v121a3 3 0 01-3 3H56a3 3 0 01-3-3v-3h87a7 7 0 007-7V46zM43 39a3 3 0 013-3h94a3 3 0 013 3v121a3 3 0 01-3 3H46a3 3 0 01-3-3V39z"/></svg>