<svg aria-hidden="true" class="svg-spot spotDocumentAlt" width="48" height="48" viewBox="0 0 48 48"><path opacity=".2" d="M8 5.99C8 5.43 8.45 5 9 5h31a3 3 0 013 3v35a3 3 0 01-3 3H11a3 3 0 01-3-3V5.99z"/><path d="M16 10a3 3 0 11-6 0 3 3 0 016 0zm-6 10a1 1 0 100 2h24a1 1 0 100-2H10zm0 5a1 1 0 100 2h24a1 1 0 100-2H10zm0 5a1 1 0 100 2h24a1 1 0 100-2H10zm0 5a1 1 0 100 2h24a1 1 0 100-2H10zM4 4a3 3 0 013-3h30a3 3 0 013 3v1h.91C42.61 5 44 6.31 44 7.93v36.14A3.01 3.01 0 0140.91 47H11.1A3.01 3.01 0 018 44.07V43H7a3 3 0 01-3-3V4zm6.06 39v1.07a1 1 0 001.03.98H40.9a1 1 0 001.03-.98V7.93a1 1 0 00-1.03-.98H40V40a3 3 0 01-3 3H10.06zM7 3a1 1 0 00-1 1v36a1 1 0 001 1h30a1 1 0 001-1V4a1 1 0 00-1-1H7z"/></svg>