<svg aria-hidden="true" class="svg-spot spotDocumentAltLg" width="96" height="96" viewBox="0 0 96 96"><path d="M76.5 86.5a3 3 0 0 0 3-3V9c3.31 0 7.5.69 7.5 4v75a6 6 0 0 1-6 6H20c-3.31 0-3.5-3-3.5-7.5h60ZM36 21a7 7 0 1 1-14 0 7 7 0 0 1 14 0Z" opacity=".2"/><path d="M25 26a8 8 0 1 0 0-16 8 8 0 0 0 0 16Zm0-13a5 5 0 1 1 0 10 5 5 0 0 1 0-10Zm-5.5 30a1.5 1.5 0 0 0 0 3h50a1.5 1.5 0 0 0 0-3h-50Zm0 10a1.5 1.5 0 0 0 0 3h50a1.5 1.5 0 0 0 0-3h-50Zm0 10a1.5 1.5 0 0 0 0 3h50a1.5 1.5 0 0 0 0-3h-50Zm0 10a1.5 1.5 0 0 0 0 3h50a1.5 1.5 0 0 0 0-3h-50ZM8 5.5A4.5 4.5 0 0 1 12.5 1h64A4.5 4.5 0 0 1 81 5.5V8h2.5a4.5 4.5 0 0 1 4.5 4.5v78a4.5 4.5 0 0 1-4.5 4.5h-64a4.5 4.5 0 0 1-4.5-4.5V88h-2.5A4.5 4.5 0 0 1 8 83.5v-78ZM18 88v2.5c0 .83.67 1.5 1.5 1.5h64c.83 0 1.5-.67 1.5-1.5v-78c0-.83-.67-1.5-1.5-1.5H81v72.5a4.5 4.5 0 0 1-4.5 4.5H18ZM12.5 4c-.83 0-1.5.67-1.5 1.5v78c0 .83.67 1.5 1.5 1.5h64c.83 0 1.5-.67 1.5-1.5v-78c0-.83-.67-1.5-1.5-1.5h-64Z"/></svg>