<svg aria-hidden="true" class="svg-spot spotDocumentAltXL" width="196" height="196" viewBox="0 0 196 196"><path opacity=".07" d="m51.9 178.98.1.02c12.24 2.7 25.72 3.23 44.93 4 9.08.37 19.45.78 31.57 1.5 37.74 2.24 44.04-14.66 58.5-58.5 14.46-43.83-6.72-68.05-40.5-95.5-31.96-25.97-87.4-6.47-108.28.87L35 32.5c-17.7 6.1-22.47 25.92-25.82 81.38-3.33 55 38.34 64.14 42.72 65.1ZM46 32h94a7 7 0 0 1 7 7v121a7 7 0 0 1-7 7H46a7 7 0 0 1-7-7V39a7 7 0 0 1 7-7Z"/><path d="M140 165a4 4 0 0 0 4-4V43.5c5.49 0 11 2.93 11 8.4v114.2c0 5.47-4.45 9.9-9.94 9.9H57.94c-5.49 0-7.44-5.53-7.44-11H140ZM82 62.5a11.5 11.5 0 1 1-23 0 11.5 11.5 0 0 1 23 0Z" opacity=".2"/><path d="m124.88 17.23-8.49-8.48-8.49 8.48 8.49 8.49 8.48-8.49Zm-8.49 2.83-2.83-2.83 2.83-2.83 2.83 2.83-2.83 2.83ZM185 134a2 2 0 1 0-4 0v4h-4a2 2 0 1 0 0 4h4v4a2 2 0 1 0 4 0v-4h4a2 2 0 1 0 0-4h-4v-4ZM12 71a2 2 0 0 1 2 2v4h4a2 2 0 1 1 0 4h-4v4a2 2 0 1 1-4 0v-4H6a2 2 0 1 1 0-4h4v-4c0-1.1.9-2 2-2Zm53-1a12 12 0 1 0 0-24 12 12 0 0 0 0 24Zm0-4a8 8 0 1 1 0-16 8 8 0 0 1 0 16ZM54 97c0-1.1.9-2 2-2h75a2 2 0 1 1 0 4H56a2 2 0 0 1-2-2Zm0 17c0-1.1.9-2 2-2h75a2 2 0 1 1 0 4H56a2 2 0 0 1-2-2Zm0 17c0-1.1.9-2 2-2h75a2 2 0 1 1 0 4H56a2 2 0 0 1-2-2Zm0 17c0-1.1.9-2 2-2h75a2 2 0 1 1 0 4H56a2 2 0 0 1-2-2ZM46 32a7 7 0 0 0-7 7v121a7 7 0 0 0 7 7h3v3a7 7 0 0 0 7 7h94a7 7 0 0 0 7-7V49a7 7 0 0 0-7-7h-3v-3a7 7 0 0 0-7-7H46Zm101 14h3a3 3 0 0 1 3 3v121a3 3 0 0 1-3 3H56a3 3 0 0 1-3-3v-3h87a7 7 0 0 0 7-7V46ZM43 39a3 3 0 0 1 3-3h94a3 3 0 0 1 3 3v121a3 3 0 0 1-3 3H46a3 3 0 0 1-3-3V39Z"/></svg>