<svg aria-hidden="true" class="svg-spot spotDocumentAlt" width="48" height="48" viewBox="0 0 48 48"><path opacity=".2" d="M9 5.99c0-.56.45-.99 1-.99h29a3 3 0 013 3v36a3 3 0 01-3 3H12a3 3 0 01-3-3V5.99z"/><path d="M14 13a3 3 0 100-6 3 3 0 000 6zm-4 10a1 1 0 011-1h23a1 1 0 110 2H11a1 1 0 01-1-1zm1 4a1 1 0 100 2h23a1 1 0 100-2H11zm-1 6a1 1 0 011-1h23a1 1 0 110 2H11a1 1 0 01-1-1zm1 4a1 1 0 100 2h23a1 1 0 100-2H11zM8 1a3 3 0 00-3 3v38a3 3 0 003 3h29a3 3 0 003-3V4a3 3 0 00-3-3H8zM7 4a1 1 0 011-1h29a1 1 0 011 1v38a1 1 0 01-1 1H8a1 1 0 01-1-1V4z"/></svg>