<svg aria-hidden="true" class="svg-spot spotDocumentAltXL" width="196" height="196" viewBox="0 0 196 196"><path opacity=".07" d="M51.9 178.98l.1.02c12.24 2.7 25.72 3.23 44.93 4 9.08.37 19.45.78 31.57 1.5 37.74 2.24 44.04-14.66 58.5-58.5 14.46-43.83-6.72-68.05-40.5-95.5-31.96-25.97-87.4-6.47-108.28.87L35 32.5c-17.7 6.1-22.47 25.92-25.82 81.38-3.33 55 38.34 64.14 42.72 65.1zM46 32h94a7 7 0 017 7v121a7 7 0 01-7 7H46a7 7 0 01-7-7V39a7 7 0 017-7z"/><path d="M140 165a4 4 0 004-4V43.5c5.49 0 11 2.93 11 8.4v114.2c0 5.47-4.45 9.9-9.94 9.9H57.94c-5.49 0-7.44-5.53-7.44-11H140zM82 62.5a11.5 11.5 0 11-23 0 11.5 11.5 0 0123 0z" opacity=".2"/><path d="M124.88 17.23l-8.49-8.48-8.49 8.48 8.49 8.49 8.48-8.49zm-8.49 2.83l-2.83-2.83 2.83-2.83 2.83 2.83-2.83 2.83zM185 134a2 2 0 10-4 0v4h-4a2 2 0 100 4h4v4a2 2 0 104 0v-4h4a2 2 0 100-4h-4v-4zM12 71a2 2 0 012 2v4h4a2 2 0 110 4h-4v4a2 2 0 11-4 0v-4H6a2 2 0 110-4h4v-4c0-1.1.9-2 2-2zm53-1a12 12 0 100-24 12 12 0 000 24zm0-4a8 8 0 110-16 8 8 0 010 16zM54 97c0-1.1.9-2 2-2h75a2 2 0 110 4H56a2 2 0 01-2-2zm0 17c0-1.1.9-2 2-2h75a2 2 0 110 4H56a2 2 0 01-2-2zm0 17c0-1.1.9-2 2-2h75a2 2 0 110 4H56a2 2 0 01-2-2zm0 17c0-1.1.9-2 2-2h75a2 2 0 110 4H56a2 2 0 01-2-2zM46 32a7 7 0 00-7 7v121a7 7 0 007 7h3v3a7 7 0 007 7h94a7 7 0 007-7V49a7 7 0 00-7-7h-3v-3a7 7 0 00-7-7H46zm101 14h3a3 3 0 013 3v121a3 3 0 01-3 3H56a3 3 0 01-3-3v-3h87a7 7 0 007-7V46zM43 39a3 3 0 013-3h94a3 3 0 013 3v121a3 3 0 01-3 3H46a3 3 0 01-3-3V39z"/></svg>