<svg aria-hidden="true" class="svg-spot spotDocumentAlt" width="48" height="48" viewBox="0 0 48 48"><path d="M39 6c2.5 0 4 0 4 2v35a3 3 0 01-3 3H11c-2 0-2-2.34-2-4h30V6zm-19 6a4 4 0 11-8 0 4 4 0 018 0z" fill="#C4C4C4"/><path d="M10 20a1 1 0 100 2h24a1 1 0 100-2H10zm0 5a1 1 0 100 2h24a1 1 0 100-2H10zm0 5a1 1 0 100 2h24a1 1 0 100-2H10zm0 5a1 1 0 100 2h24a1 1 0 100-2H10zM4 4a3 3 0 013-3h30a3 3 0 013 3v1h.91C42.61 5 44 6.31 44 7.93v36.14A3.01 3.01 0 0140.91 47H11.1A3.01 3.01 0 018 44.07V43H7a3 3 0 01-3-3V4zm6.06 39v1.07a1 1 0 001.03.98H40.9a1 1 0 001.03-.98V7.93a1 1 0 00-1.03-.98H40V40a3 3 0 01-3 3H10.06zM7 3a1 1 0 00-1 1v36a1 1 0 001 1h30a1 1 0 001-1V4a1 1 0 00-1-1H7zm6.5 10a2.5 2.5 0 110-5 2.5 2.5 0 010 5zm0 2a4.5 4.5 0 100-9 4.5 4.5 0 000 9z"/></svg>