<svg aria-hidden="true" class="svg-spot spotEmptyLg" width="96" height="96" viewBox="0 0 96 96"><path d="M8 12a4 4 0 0 1 4-4h79a4 4 0 0 1 4 4v18a4 4 0 0 1-4 4H12a4 4 0 0 1-4-4V12Zm0 33a4 4 0 0 1 4-4h79a4 4 0 0 1 4 4v18a4 4 0 0 1-4 4H12a4 4 0 0 1-4-4V45ZM4 78.63a1.5 1.5 0 0 1-3 0V75.5A4.5 4.5 0 0 1 5.5 71h2.44a1.5 1.5 0 0 1 0 3H5.5c-.83 0-1.5.67-1.5 1.5v3.13Zm9.27-6.13c0-.83.68-1.5 1.5-1.5h4.88a1.5 1.5 0 0 1 0 3h-4.88a1.5 1.5 0 0 1-1.5-1.5Zm11.72 0c0-.83.67-1.5 1.5-1.5h4.88a1.5 1.5 0 1 1 0 3h-4.88a1.5 1.5 0 0 1-1.5-1.5Zm11.71 0c0-.83.67-1.5 1.5-1.5h4.88a1.5 1.5 0 1 1 0 3H38.2a1.5 1.5 0 0 1-1.5-1.5Zm11.72 0c0-.83.67-1.5 1.5-1.5h4.88a1.5 1.5 0 0 1 0 3h-4.88a1.5 1.5 0 0 1-1.5-1.5Zm11.71 0c0-.83.67-1.5 1.5-1.5h4.88a1.5 1.5 0 0 1 0 3h-4.88a1.5 1.5 0 0 1-1.5-1.5Zm11.72 0c0-.83.67-1.5 1.5-1.5h4.88a1.5 1.5 0 0 1 0 3h-4.88a1.5 1.5 0 0 1-1.5-1.5Zm11.71 0c0-.83.67-1.5 1.5-1.5h2.44a4.5 4.5 0 0 1 4.5 4.5v3.13a1.5 1.5 0 0 1-3 0V75.5a1.5 1.5 0 0 0-1.5-1.5h-2.44a1.5 1.5 0 0 1-1.5-1.5ZM2.5 85.88c.83 0 1.5.67 1.5 1.5v3.15A1.5 1.5 0 0 0 5.5 92h2.44a1.5 1.5 0 0 1 0 3H5.4A4.5 4.5 0 0 1 1 90.5v-3.13c0-.82.67-1.5 1.5-1.5Zm88 0c.83 0 1.5.67 1.5 1.5v3.12a4.52 4.52 0 0 1-4.5 4.5h-2.44a1.5 1.5 0 0 1 0-3h2.44a1.5 1.5 0 0 0 1.5-1.5v-3.13c0-.82.67-1.5 1.5-1.5ZM13.27 93.5c0-.83.68-1.5 1.5-1.5h4.88a1.5 1.5 0 0 1 0 3h-4.88a1.5 1.5 0 0 1-1.5-1.5Zm11.72 0c0-.83.67-1.5 1.5-1.5h4.88a1.5 1.5 0 0 1 0 3h-4.88a1.5 1.5 0 0 1-1.5-1.5Zm11.71 0c0-.83.67-1.5 1.5-1.5h4.88a1.5 1.5 0 1 1 0 3H38.2a1.5 1.5 0 0 1-1.5-1.5Zm11.72 0c0-.83.67-1.5 1.5-1.5h4.88a1.5 1.5 0 0 1 0 3h-4.88a1.5 1.5 0 0 1-1.5-1.5Zm11.71 0c0-.83.67-1.5 1.5-1.5h4.88a1.5 1.5 0 0 1 0 3h-4.88a1.5 1.5 0 0 1-1.5-1.5Zm11.72 0c0-.83.67-1.5 1.5-1.5h4.88a1.5 1.5 0 0 1 0 3h-4.88a1.5 1.5 0 0 1-1.5-1.5Z" opacity=".2"/><path d="M14.5 18a2.5 2.5 0 1 0 0-5 2.5 2.5 0 0 0 0 5Zm8.5-2.5c0-.83.67-1.5 1.5-1.5h57a1.5 1.5 0 0 1 0 3h-57a1.5 1.5 0 0 1-1.5-1.5ZM5.5 1A4.5 4.5 0 0 0 1 5.5v20A4.5 4.5 0 0 0 5.5 30h81a4.5 4.5 0 0 0 4.5-4.5v-20A4.5 4.5 0 0 0 86.5 1h-81ZM4 5.5C4 4.67 4.67 4 5.5 4h81c.83 0 1.5.67 1.5 1.5v20c0 .83-.67 1.5-1.5 1.5h-81A1.5 1.5 0 0 1 4 25.5v-20Zm13 43a2.5 2.5 0 1 1-5 0 2.5 2.5 0 0 1 5 0Zm7.5-1.5a1.5 1.5 0 0 0 0 3h57a1.5 1.5 0 0 0 0-3h-57Zm-19-13A4.5 4.5 0 0 0 1 38.5v20A4.5 4.5 0 0 0 5.5 63h81a4.5 4.5 0 0 0 4.5-4.5v-20a4.5 4.5 0 0 0-4.5-4.5h-81ZM4 38.5c0-.83.67-1.5 1.5-1.5h81c.83 0 1.5.67 1.5 1.5v20c0 .83-.67 1.5-1.5 1.5h-81A1.5 1.5 0 0 1 4 58.5v-20Z"/></svg>