<svg aria-hidden="true" class="svg-spot spotEmptyXL" width="196" height="196" viewBox="0 0 196 196"><path opacity=".07" d="M35 177.5c-19.5-9-29.35-26.54-26-82 3.35-55.46 14.8-66.9 32.5-73 17.7-6.1 86.22-21.95 120 5.5s37.46 52.67 23 96.5c-14.46 43.84-22.26 63.24-60 61-37.74-2.24-70 1-89.5-8z"/><path opacity=".2" d="M42 48a4 4 0 014-4h112a7 7 0 017 7v23a7 7 0 01-7 7H49a7 7 0 01-7-7V48zm0 47a4 4 0 014-4h112a7 7 0 017 7v22a7 7 0 01-7 7H49a7 7 0 01-7-7V95zm-1 36h3.19a2 2 0 110 4H40a3 3 0 00-3 3v4.44a2 2 0 11-4 0V138a7 7 0 017-7h1zm11.65 2c0-1.1.9-2 2-2h8.37a2 2 0 110 4h-8.37a2 2 0 01-2-2zm18.83 0c0-1.1.9-2 2-2h8.37a2 2 0 110 4h-8.37a2 2 0 01-2-2zm18.83 0c0-1.1.9-2 2-2h8.38a2 2 0 110 4H92.3a2 2 0 01-2-2zm18.84 0c0-1.1.9-2 2-2h8.37a2 2 0 010 4h-8.37a2 2 0 01-2-2zm18.83 0c0-1.1.9-2 2-2h8.37a2 2 0 010 4h-8.37a2 2 0 01-2-2zm18.83 0c0-1.1.9-2 2-2H153a7 7 0 017 7v4.44a2 2 0 11-4 0v-4.58a3 3 0 00-3-2.86h-4.19a2 2 0 01-2-2zM35 151.56a2 2 0 012 2v4.51a3 3 0 003 2.93h4.19a2 2 0 110 4h-4.35a7 7 0 01-6.84-7v-4.44c0-1.1.9-2 2-2zm123 0a2 2 0 012 2v4.74a7 7 0 01-7 6.69h-4.19a2 2 0 110-4h4.33a3 3 0 002.86-3v-4.43c0-1.1.9-2 2-2zM52.65 163c0-1.1.9-2 2-2h8.37a2 2 0 110 4h-8.37a2 2 0 01-2-2zm18.83 0c0-1.1.9-2 2-2h8.37a2 2 0 110 4h-8.37a2 2 0 01-2-2zm18.83 0c0-1.1.9-2 2-2h8.38a2 2 0 110 4H92.3a2 2 0 01-2-2zm18.84 0c0-1.1.9-2 2-2h8.37a2 2 0 010 4h-8.37a2 2 0 01-2-2zm18.83 0c0-1.1.9-2 2-2h8.37a2 2 0 010 4h-8.37a2 2 0 01-2-2z"/><path d="M124.48 14.24L120.25 10 116 14.24l4.24 4.25 4.25-4.25zM52 58a4 4 0 100-8 4 4 0 000 8zm12-4c0-1.1.9-2 2-2h80a2 2 0 110 4H66a2 2 0 01-2-2zM33 42a7 7 0 017-7h113a7 7 0 017 7v26a7 7 0 01-7 7H40a7 7 0 01-7-7V42zm7-3a3 3 0 00-3 3v26a3 3 0 003 3h113a3 3 0 003-3V42a3 3 0 00-3-3H40zm16 62a4 4 0 11-8 0 4 4 0 018 0zm10-2a2 2 0 100 4h80a2 2 0 100-4H66zM40 81a7 7 0 00-7 7v27a7 7 0 007 7h113a7 7 0 007-7V88a7 7 0 00-7-7H40zm-3 7a3 3 0 013-3h113a3 3 0 013 3v27a3 3 0 01-3 3H40a3 3 0 01-3-3V88zm150.97 54.49L179.5 134l-8.49 8.49 8.49 8.48 8.48-8.48zm-8.48 2.82l-2.83-2.82 2.83-2.83 2.82 2.83-2.82 2.82zM8 97a2 2 0 012 2v4h4a2 2 0 110 4h-4v4a2 2 0 11-4 0v-4H2a2 2 0 110-4h4v-4c0-1.1.9-2 2-2z"/></svg>