<svg aria-hidden="true" class="svg-spot spotEmpty" width="48" height="48" viewBox="0 0 48 48"><path d="M5 7c0-1.1.9-2 2-2h38a2 2 0 012 2v8a2 2 0 01-2 2H7a2 2 0 01-2-2V7Zm0 16c0-1.1.9-2 2-2h38a2 2 0 012 2v8a2 2 0 01-2 2H7a2 2 0 01-2-2v-8ZM3 39.2a1 1 0 11-2 0V38a3 3 0 013-3h1.9a1 1 0 110 2H4a1 1 0 00-1 1v1.2Zm7.6-3.2a1 1 0 011-1h3.8a1 1 0 110 2h-3.8a1 1 0 01-1-1Zm9.5 0a1 1 0 011-1h3.8a1 1 0 110 2h-3.8a1 1 0 01-1-1Zm9.5 0a1 1 0 011-1h3.8a1 1 0 110 2h-3.8a1 1 0 01-1-1Zm9.5 0a1 1 0 011-1H42a3 3 0 013 3v1.2a1 1 0 11-2 0V38a1 1 0 00-1-1h-1.9a1 1 0 01-1-1ZM2 41.8a1 1 0 011 1v1.22A1 1 0 004 45h1.9a1 1 0 110 2H3.94A3 3 0 011 44v-1.2a1 1 0 011-1Zm42 0a1 1 0 011 1V44a3 3 0 01-3 3h-1.9a1 1 0 110-2h1.94a1 1 0 00.96-1v-1.2a1 1 0 011-1ZM10.6 46a1 1 0 011-1h3.8a1 1 0 110 2h-3.8a1 1 0 01-1-1Zm9.5 0a1 1 0 011-1h3.8a1 1 0 110 2h-3.8a1 1 0 01-1-1Zm9.5 0a1 1 0 011-1h3.8a1 1 0 110 2h-3.8a1 1 0 01-1-1Z" opacity=".2"/><path d="M10 8a2 2 0 11-4 0 2 2 0 014 0Zm2 0a1 1 0 011-1h26a1 1 0 110 2H13a1 1 0 01-1-1ZM4 1a3 3 0 00-3 3v8a3 3 0 003 3h38a3 3 0 003-3V4a3 3 0 00-3-3H4ZM3 4a1 1 0 011-1h38a1 1 0 011 1v8a1 1 0 01-1 1H4a1 1 0 01-1-1V4Zm5 22a2 2 0 100-4 2 2 0 000 4Zm5-3a1 1 0 100 2h26a1 1 0 100-2H13Zm-9-6a3 3 0 00-3 3v8a3 3 0 003 3h38a3 3 0 003-3v-8a3 3 0 00-3-3H4Zm-1 3a1 1 0 011-1h38a1 1 0 011 1v8a1 1 0 01-1 1H4a1 1 0 01-1-1v-8Z"/></svg>