<svg aria-hidden="true" class="svg-spot spotExpireXL" width="196" height="196" viewBox="0 0 196 196"><path opacity=".07" d="M21.57 31.15C47.61 10.02 96.22-3.5 139.05 10.45c37.65 12.25 64.72 98.83 33.96 135.75-30.76 36.93-78.79 41.98-107.95 35.98-29.15-6-47.82-59.81-51.7-74.5C9.45 93 8.77 41.54 21.56 31.15z"/><path d="M127.59 107.61a7.4 7.4 0 018.11-3.53l-2.7-3.58c-2.86-4.96-9.14-4.96-12 0l-22 38c-1.44 2.5-3.1 4.74-1.83 6.92a51.22 51.22 0 1144.03-36.52l21.87 37.88a7.43 7.43 0 01-6.43 11.15H111.4c-5.72 0-9.3-6.2-6.44-11.15l22.62-39.17zm49.71 26.96a3.5 3.5 0 00.85-6.95l-13.72-1.7a3.5 3.5 0 00-.86 6.95l13.72 1.7zm7.22-29.33a3.5 3.5 0 01-1.26 4.78l-19.09 11.13a3.5 3.5 0 11-3.52-6.04l19.08-11.13a3.5 3.5 0 014.79 1.26zm-21.03-2.57a3.5 3.5 0 00-6.15-3.34l-5.08 9.31a3.5 3.5 0 006.15 3.35l5.08-9.32z" opacity=".2"/><path d="M27 35.5L17.5 26 8 35.5l9.5 9.5 9.5-9.5zM17.5 39L14 35.5l3.5-3.5 3.5 3.5-3.5 3.5zM171 35.5l-4.5-4.5-4.5 4.5 4.5 4.5 4.5-4.5zM90 54a2 2 0 00-2 2v34.41l-23.09 14.91a2 2 0 102.18 3.36L92 92.58V56a2 2 0 00-2-2zm37 57c1 0 2 1 2 2v18c0 1-1 2-2 2s-2-1-2-2v-18c0-1 1-2 2-2zm0 33a3 3 0 100-6 3 3 0 000 6zm9.58-42.11A53 53 0 1086 139c3.38 0 7.37-.4 11-1.05l-.59 1a9.36 9.36 0 008.17 14.05h45.23a9.36 9.36 0 008.17-14.05l-21.4-37.06zM86 37a49 49 0 0147.62 60.58 9.44 9.44 0 00-14.6 2.2l-19.33 33.5A60.75 60.75 0 0186 135a49 49 0 110-98zm46.21 65.33l22.3 38.62a5.36 5.36 0 01-4.7 8.05h-45.23a5.36 5.36 0 01-4.7-8.05l22.61-39.17a5.43 5.43 0 019.4 0l.32.55zM46 161a2 2 0 10-4 0v4h-4a2 2 0 100 4h4v4a2 2 0 104 0v-4h4a2 2 0 100-4h-4v-4z"/></svg>