<svg aria-hidden="true" class="svg-spot spotExpireLg" width="96" height="96" viewBox="0 0 96 96"><path d="M71.06 58.58a32.5 32.5 0 10-27.31 21.26 4.67 4.67 0 01-.02-4.75l14.35-24.85a4.72 4.72 0 018.17 0l4.81 8.34zm-10.14-2.51a4.72 4.72 0 018.16 0l14.35 24.86A4.72 4.72 0 0179.35 88h-28.7a4.72 4.72 0 01-4.08-7.07l14.35-24.86zM92.7 74.55a2.5 2.5 0 00.62-4.96l-7.01-.87a2.5 2.5 0 00-.62 4.96l7.02.87zm1.74-17.38a2.5 2.5 0 01-.9 3.42l-9.76 5.69a2.5 2.5 0 11-2.52-4.32l9.76-5.7a2.5 2.5 0 013.42.9zM82.7 54.56a2.5 2.5 0 00-4.4-2.4l-2.59 4.77a2.5 2.5 0 004.4 2.39l2.59-4.76z" opacity=".2"/><path d="M37 11.92a31.08 31.08 0 108.29 61.04l.75 2.74A33.95 33.95 0 013.08 43a33.92 33.92 0 1165.9 11.3l-2.67-.94A31.08 31.08 0 0037 11.92zM38.5 21c-.83 0-1.5.67-1.5 1.5v22.67l-14.3 9.06a1.5 1.5 0 001.6 2.54l15-9.5c.44-.28.7-.76.7-1.27V22.5c0-.83-.67-1.5-1.5-1.5zm18.62 29.82a6.22 6.22 0 0110.76 0l14.35 24.86A6.22 6.22 0 0176.85 85h-28.7a6.22 6.22 0 01-5.38-9.32l14.35-24.86zm8.16 1.5a3.22 3.22 0 00-5.56 0L45.37 77.18A3.22 3.22 0 0048.15 82h28.7a3.22 3.22 0 002.78-4.82L65.28 52.32zm-2.78 6.01c.83 0 1.5.67 1.5 1.5v10.84a1.5 1.5 0 11-3 0V59.83c0-.83.67-1.5 1.5-1.5zm1.75 18.17a1.75 1.75 0 11-3.5 0 1.75 1.75 0 013.5 0z"/></svg>