<svg aria-hidden="true" class="svg-spot spotExpireXL" width="196" height="196" viewBox="0 0 196 196"><path opacity=".07" d="M139.05 10.44C96.22-3.5 47.61 10.02 21.57 31.15 8.78 41.54 9.47 93 13.35 107.68c3.89 14.69 22.56 68.5 51.71 74.5 29.16 6 77.2.95 107.95-35.98 30.76-36.92 3.69-123.5-33.96-135.76ZM139 86c0 5.53-.85 10.87-2.42 15.89l21.4 37.06A9.36 9.36 0 0 1 149.8 153h-45.23a9.36 9.36 0 0 1-8.17-14.05l.58-1A64.55 64.55 0 0 1 86 139a53 53 0 1 1 53-53Z"/><path d="M127.59 107.61a7.4 7.4 0 0 1 8.11-3.53l-2.7-3.58c-2.86-4.95-9.14-4.95-12 0l-22 38c-1.44 2.5-3.1 4.74-1.83 6.92a51.22 51.22 0 1 1 44.03-36.52l21.87 37.88a7.43 7.43 0 0 1-6.43 11.15H111.4c-5.72 0-9.3-6.2-6.44-11.15l22.62-39.17Zm49.71 26.96a3.5 3.5 0 1 0 .85-6.95l-13.72-1.7a3.5 3.5 0 1 0-.86 6.95l13.72 1.7Zm5.16-27.37a3.5 3.5 0 0 1-1.26 4.79l-17.03 9.17a3.5 3.5 0 0 1-3.52-6.05l17.02-9.17a3.5 3.5 0 0 1 4.79 1.26Zm-18.97-4.53a3.5 3.5 0 0 0-6.15-3.34l-5.08 9.31a3.5 3.5 0 0 0 6.15 3.35l5.08-9.32Z" opacity=".2"/><path d="M27 35.5 17.5 26 8 35.5l9.5 9.5 9.5-9.5ZM17.5 39 14 35.5l3.5-3.5 3.5 3.5-3.5 3.5ZM171 35.5l-4.5-4.5-4.5 4.5 4.5 4.5 4.5-4.5ZM90 54a2 2 0 0 0-2 2v34.41l-23.09 14.91a2 2 0 1 0 2.18 3.36L92 92.58V56a2 2 0 0 0-2-2Zm37 57c1 0 2 1 2 2v18c0 1-1 2-2 2s-2-1-2-2v-18c0-1 1-2 2-2Zm0 33a3 3 0 1 0 0-6 3 3 0 0 0 0 6Zm9.58-42.11A53 53 0 1 0 86 139c3.38 0 7.37-.4 11-1.05l-.59 1a9.36 9.36 0 0 0 8.17 14.05h45.23a9.36 9.36 0 0 0 8.17-14.05l-21.4-37.06ZM86 37a49 49 0 0 1 47.62 60.58 9.44 9.44 0 0 0-14.6 2.2l-19.33 33.5A60.75 60.75 0 0 1 86 135a49 49 0 1 1 0-98Zm46.21 65.33 22.3 38.62a5.36 5.36 0 0 1-4.7 8.05h-45.23a5.36 5.36 0 0 1-4.7-8.05l22.61-39.17a5.43 5.43 0 0 1 9.4 0l.32.55ZM46 161a2 2 0 1 0-4 0v4h-4a2 2 0 1 0 0 4h4v4a2 2 0 1 0 4 0v-4h4a2 2 0 1 0 0-4h-4v-4Z"/></svg>