<svg aria-hidden="true" class="svg-spot spotExpireXL" width="196" height="196" viewBox="0 0 196 196"><path opacity=".07" d="M21.57 31.15C47.61 10.02 96.22-3.5 139.05 10.45c37.65 12.25 64.72 98.83 33.96 135.75-30.76 36.93-78.79 41.98-107.95 35.98-29.15-6-47.82-59.81-51.7-74.5C9.45 93 8.77 41.54 21.56 31.15z"/><path d="M127.59 107.61a7.4 7.4 0 018.11-3.53l-2.7-3.58c-2.86-4.96-9.14-4.96-12 0l-22 38c-1.44 2.5-3.1 4.74-1.83 6.92a51.22 51.22 0 1144.03-36.52l21.87 37.88a7.43 7.43 0 01-6.43 11.15H111.4c-5.72 0-9.3-6.2-6.44-11.15l22.62-39.17zm49.71 26.96a3.5 3.5 0 00.85-6.95l-13.72-1.7a3.5 3.5 0 00-.86 6.95l13.72 1.7zm7.22-29.33a3.5 3.5 0 01-1.26 4.78l-19.09 11.13a3.5 3.5 0 11-3.52-6.04l19.08-11.13a3.5 3.5 0 014.79 1.26zm-21.03-2.57a3.5 3.5 0 00-6.15-3.34l-5.08 9.31a3.5 3.5 0 006.15 3.35l5.08-9.32z" opacity=".2"/><path d="M17.29 26l9.29 9.29-9.3 9.29L8 35.28 17.29 26zm-3.1 9.29l3.1 3.1 3.1-3.1-3.1-3.1-3.1 3.1zM166.37 31l4.37 4.37-4.37 4.37-4.37-4.37 4.37-4.37zM90 54a2 2 0 00-2 2v34.41l-23.09 14.91a2 2 0 102.18 3.36L92 92.58V56a2 2 0 00-2-2zm39.43 59.54a2.23 2.23 0 10-4.47 0v17.07a2.23 2.23 0 104.47 0v-17.07zm1.18 27.31a3.42 3.42 0 11-6.83 0 3.42 3.42 0 016.83 0zm5.97-38.96A53 53 0 1086 139c3.38 0 7.37-.4 11-1.05l-.59 1a9.43 9.43 0 008.17 14.15h45.23a9.43 9.43 0 008.17-14.15l-21.4-37.06zM86 37a49 49 0 0147.62 60.58 9.44 9.44 0 00-14.6 2.2l-19.33 33.5A60.75 60.75 0 0186 135a49 49 0 110-98zm46.21 65.33l22.3 38.62a5.43 5.43 0 01-4.7 8.15h-45.23a5.43 5.43 0 01-4.7-8.15l22.61-39.17a5.43 5.43 0 019.4 0l.32.55zM44 159a2 2 0 012 2v4h4a2 2 0 110 4h-4v4a2 2 0 11-4 0v-4h-4a2 2 0 110-4h4v-4c0-1.1.9-2 2-2z"/></svg>