<svg aria-hidden="true" class="svg-spot spotExpire" width="48" height="48" viewBox="0 0 48 48"><path opacity=".2" d="M37.08 27.74a2.55 2.55 0 0 0-3.37 1l-7.75 13.43a2.55 2.55 0 0 0 2.2 3.82h15.51a2.55 2.55 0 0 0 2.21-3.82l-7.29-12.62a17.56 17.56 0 1 0-14.93 12 2.54 2.54 0 0 1-.01-2.57l7.75-13.43a2.55 2.55 0 0 1 4.42 0l1.26 2.19Z"/><path d="M20 9a1 1 0 0 0-1 1v11.5l-7.1 5.2a1 1 0 0 0 1.2 1.6l7.5-5.5a1 1 0 0 0 .4-.8V10a1 1 0 0 0-1-1Zm14 20a1 1 0 0 1 1 1v6a1 1 0 1 1-2 0v-6a1 1 0 0 1 1-1Zm0 12.28a1.28 1.28 0 1 0 0-2.56 1.28 1.28 0 0 0 0 2.56Zm3.4-15.58A18.57 18.57 0 1 0 1 20.55a18.56 18.56 0 0 0 21.77 18.29A3.55 3.55 0 0 0 25.93 44h16.14c2.76 0 4.46-3 3.05-5.36L37.4 25.69ZM19.56 4A16.56 16.56 0 0 1 35.8 23.85a3.55 3.55 0 0 0-4.85 1.25l-6.92 11.62-.05-.2A16.58 16.58 0 0 1 3 20.57C3 11.41 10.41 4 19.56 4Zm15.66 21.96-.04.12.16.06 8.06 13.53a1.55 1.55 0 0 1-1.33 2.34H25.93c-1.2 0-1.95-1.3-1.33-2.34l8.07-13.55c.57-.95 1.9-1 2.55-.16Z"/></svg>