<svg aria-hidden="true" class="svg-spot spotFireLg" width="96" height="96" viewBox="0 0 96 96"><path opacity=".2" d="M49.75 92a28.02 28.02 0 0 1-28.02-28.02c0-5.7 1.67-11.46 3.44-17.57 3.05-10.5 6.4-22.07 2.16-36.23C20.6-12.24 49.75 22.5 56.47 50.53c2.71 3.28 7.18-5.11 10.73-11.8 2.23-4.17 4.1-7.69 4.96-7.26 2.25 1.12 5.6 28.85 5.6 32.5a28.02 28.02 0 0 1-28 28.03Zm-5.85-5.85c6.81 0 12.33-5.38 12.33-12 0-1.57-1.48-13.44-2.46-13.92-.38-.19-1.2 1.32-2.18 3.1-1.57 2.87-3.53 6.46-4.73 5.06-2.96-12-15.78-26.88-12.82-17.28 1.87 6.06.4 11.02-.95 15.51-.78 2.62-1.52 5.09-1.52 7.53 0 6.62 5.53 12 12.33 12Z"/><path d="m35.54 49.38.43.45c3.34 3.6 8.3 11.46 10.01 18.36.5.58 1.14.3 1.82-.45.29-.31.58-.7.87-1.13.69-1.02 1.4-2.3 2.03-3.47l.09-.16.3-.55c.8-1.46 1.47-2.56 1.8-2.4.28.14.61 1.25.94 2.79l.12.63c.74 3.78 1.4 9.45 1.4 10.5 0 6.62-5.52 12-12.33 12-6.8 0-12.33-5.38-12.33-12 0-2.44.74-4.9 1.52-7.53 1.3-4.38 2.74-9.18 1.09-15.03l-.14-.48-.03-.08c-1.14-3.76.2-3.67 2.4-1.45Zm8.15 20.75-.45-.54-.17-.69c-1.06-4.27-3.55-9.08-6.04-12.8.08 3.03-.45 5.76-1.1 8.2-.26 1-.54 1.94-.8 2.83l-.04.14c-.26.85-.5 1.64-.7 2.4-.44 1.64-.7 3.01-.7 4.27 0 4.9 4.1 9 9.33 9s9.33-4.1 9.33-9v-.05a8.17 8.17 0 0 0-.05-.7l-.18-1.67a125.9 125.9 0 0 0-.51-3.92c-.52.81-1.1 1.64-1.7 2.27a5.16 5.16 0 0 1-2.34 1.5 3.73 3.73 0 0 1-3.88-1.24Zm27.35-6.15c0-3.04-2.32-22.73-4.4-29.92v-.02c-.42-1.45-.83-2.38-1.2-2.57-.45-.22-1.18.63-2.1 2.1l-.01.03a96.94 96.94 0 0 0-2.85 5.14c-3.56 6.68-8.02 15.07-10.73 11.79C43.02 22.5 13.88-12.24 20.6 10.18c4.25 14.16.9 25.73-2.15 36.23C16.67 52.52 15 58.28 15 63.98a28.02 28.02 0 0 0 56.04 0Zm-23.6-11.54a4.6 4.6 0 0 0 4.95 1.65 7.95 7.95 0 0 0 3.55-2.41c1.78-1.92 3.55-4.88 5.09-7.65.78-1.4 1.48-2.73 2.14-3.96.44-.83.86-1.63 1.28-2.38.57 2.64 1.14 6.02 1.66 9.53 1.13 7.57 1.93 15.2 1.93 16.76a25.02 25.02 0 0 1-50.04 0c0-3.49.7-7.1 1.72-11.03.49-1.85 1.04-3.74 1.61-5.72l.1-.33c.6-2.08 1.23-4.24 1.8-6.47 2.3-8.96 3.83-19.16.25-31.11l-.39-1.38c1.35 1.3 2.94 3.1 4.67 5.34 7.12 9.16 15.84 24.47 19.07 37.95l.16.67.44.54Z"/></svg>