<svg aria-hidden="true" class="svg-spot spotFireXL" width="196" height="196" viewBox="0 0 196 196"><path opacity=".07" d="M22.2 145.54C10.38 114.16.98 63.9 27.76 27.67 51.29-4.17 146.23-.64 171.53 40.22c25.3 40.85 19.75 94.87 4.84 120.63-14.91 25.77-62.89 38.24-100.2 25.11-37.33-13.13-48.17-25-53.97-40.42z"/><path d="M62.9 117.75a41.25 41.25 0 0082.49 0c0-5.38-4.95-46.19-8.25-47.84-1.27-.63-4.02 4.54-7.3 10.7-5.24 9.83-11.8 22.17-15.8 17.35-9.9-41.25-52.8-92.4-42.9-59.4 6.26 20.85 1.32 37.88-3.17 53.33-2.61 9-5.07 17.48-5.07 25.86zm14.5 14.97c0 9.75 8.12 17.66 18.14 17.66 10.03 0 18.15-7.9 18.15-17.66 0-2.3-2.17-19.78-3.63-20.48-.56-.28-1.77 1.94-3.2 4.57-2.31 4.22-5.2 9.5-6.96 7.43-4.36-17.66-23.23-39.56-18.87-25.43 2.75 8.93.57 16.22-1.4 22.84-1.15 3.85-2.23 7.48-2.23 11.07zm57.17-75.78a3.5 3.5 0 10-2.79-6.42l-12.69 5.5a3.5 3.5 0 002.79 6.42l12.69-5.5zm-10.71-26.11a3.5 3.5 0 011.35 4.77l-10.8 19.27a3.5 3.5 0 11-6.11-3.42l10.8-19.27a3.5 3.5 0 014.76-1.35zm-18.98 6.44a3.5 3.5 0 10-7 .23l.36 10.6a3.5 3.5 0 007-.23l-.36-10.6z" opacity=".2"/><path d="M82.91 95.96l.35.35c4.92 4.96 12.73 17.06 15.34 27.64.74.86 1.68.44 2.68-.67.32-.34.64-.75.97-1.2a58.74 58.74 0 003.3-5.56 149.47 149.47 0 01.78-1.42c1.1-1.96 1.98-3.38 2.43-3.16.4.2.85 1.64 1.3 3.7l.15.72c1.13 5.53 2.18 14.46 2.18 16.07 0 9.75-8.12 17.66-18.15 17.66-10.02 0-18.14-7.91-18.14-17.66 0-3.6 1.08-7.22 2.23-11.08 1.97-6.62 4.15-13.9 1.4-22.83l-.03-.09c-.05-.15-.1-.3-.13-.46-1.4-4.92.37-4.9 3.34-2.01zm12.64 30.58l-.6-.72-.23-.91c-1.69-6.83-5.83-14.56-9.78-20.19.36 4.99-.48 9.45-1.53 13.41-.38 1.44-.8 2.84-1.18 4.15l-.06.2a116 116 0 00-1.03 3.56 24.93 24.93 0 00-1.04 6.39c0 7.44 6.23 13.66 14.14 13.66 7.92 0 14.15-6.22 14.15-13.66v-.1a12.56 12.56 0 00-.08-1.06 186.24 186.24 0 00-1.14-9.08l-.05-.3a24.18 24.18 0 01-3.03 4.25 7.17 7.17 0 01-3.26 2.09 5.06 5.06 0 01-5.28-1.7zm31.69-56.63c-.63-.31-1.61.79-2.84 2.72-1.27 1.99-2.8 4.85-4.46 7.97-5.24 9.84-11.8 22.18-15.8 17.36-9.9-41.25-52.79-92.4-42.9-59.4 6.26 20.85 1.32 37.88-3.17 53.33-2.61 9-5.07 17.48-5.07 25.86a41.24 41.24 0 1082.49 0c0-5.38-4.95-46.19-8.25-47.84zm-26.18 30.6a6.93 6.93 0 003.08 2.19c1.32.45 2.63.41 3.78.1 2.1-.58 3.8-2.1 5.04-3.43 2.58-2.8 5.16-7.1 7.43-11.17 1.14-2.06 2.17-4 3.14-5.82.84-1.6 1.64-3.1 2.42-4.5l.07.32c.9 4 1.8 9.32 2.63 14.82 1.65 11.14 2.84 22.4 2.84 24.73a37.24 37.24 0 11-74.49 0c0-5.18 1.03-10.53 2.55-16.33.72-2.74 1.53-5.52 2.37-8.43l.14-.49c.89-3.06 1.8-6.24 2.65-9.51 3.39-13.16 5.62-28.08.37-45.57-.4-1.34-.69-2.46-.89-3.38.28.25.58.52.9.83a75.18 75.18 0 017.02 8c10.5 13.53 23.37 36.11 28.14 56.02l.22.9.6.72zM63.82 30.45zm-38.24 85.84l-9.3-9.29L7 116.29l9.29 9.29 9.29-9.3zm-9.3 3.1l-3.09-3.1 3.1-3.1 3.1 3.1-3.1 3.1zM21.37 141l4.37 4.37-4.37 4.37-4.37-4.37 4.37-4.37zM173 162a2 2 0 10-4 0v4h-4a2 2 0 100 4h4v4a2 2 0 104 0v-4h4a2 2 0 100-4h-4v-4z"/></svg>