<svg aria-hidden="true" class="svg-spot spotFire" width="48" height="48" viewBox="0 0 48 48"><path opacity=".2" d="M26.18 46c-7.65 0-13.86-6.2-13.86-13.85 0-2.82.83-5.67 1.7-8.69 1.52-5.2 3.18-10.9 1.08-17.91-3.33-11.08 11.08 6.1 14.4 19.95 1.34 1.62 3.55-2.53 5.3-5.83 1.1-2.07 2.03-3.8 2.46-3.6 1.1.56 2.77 14.27 2.77 16.08 0 7.65-6.2 13.85-13.85 13.85Zm-2.89-2.9c3.37 0 6.1-2.65 6.1-5.93 0-.77-.74-6.64-1.22-6.88-.2-.09-.6.66-1.08 1.54-.78 1.41-1.75 3.19-2.34 2.5-1.46-5.94-7.8-13.3-6.34-8.55.93 3 .2 5.45-.47 7.67-.38 1.3-.75 2.52-.75 3.72a6.02 6.02 0 0 0 6.1 5.94Z"/><path d="M19.53 25.33c.2.22.4.47.62.74a25.81 25.81 0 0 1 3.65 6.51l.01.02c.2.55.37 1.1.5 1.63.25.29.57.14.9-.23.26-.28.54-.69.8-1.13a23.14 23.14 0 0 0 .58-1.03l.06-.1c.48-.9.9-1.64 1.08-1.55.17.09.37.88.57 1.9l.1.6c.3 1.79.55 3.94.55 4.38a6.02 6.02 0 0 1-6.1 5.94 6.02 6.02 0 0 1-6.1-5.94c0-1.2.37-2.42.76-3.72.57-1.9 1.18-3.97.77-6.4a9.7 9.7 0 0 0-.3-1.27c-.64-2.05.2-1.84 1.46-.45l.09.1Zm3.26 10.2-.3-.37-.12-.45a19.2 19.2 0 0 0-2.03-4.77c-.1.9-.29 1.73-.5 2.5-.12.5-.26.97-.4 1.41l-.01.07-.34 1.18a7.46 7.46 0 0 0-.33 1.97 4.02 4.02 0 0 0 4.1 3.94 4.02 4.02 0 0 0 4.06-4.27 32.93 32.93 0 0 0-.16-1.46l-.13.14a3 3 0 0 1-1.4.88 2.36 2.36 0 0 1-2.44-.78Zm.92-2.84.02-.03a.16.16 0 0 0-.02.03Zm12.99-.54a109.33 109.33 0 0 0-2.03-14.29c-.26-1-.5-1.67-.73-1.78-.27-.14-.73.5-1.31 1.5l-.08.13c-.33.57-.69 1.24-1.07 1.96-1.75 3.3-3.96 7.45-5.3 5.83C22.85 11.64 8.45-5.53 11.78 5.55c2.1 7 .43 12.72-1.08 17.91-.87 3.02-1.7 5.87-1.7 8.69a13.85 13.85 0 0 0 27.7 0Zm-12.06-5.38a2.8 2.8 0 0 0 2.98.98 4.44 4.44 0 0 0 2-1.33c.93-1 1.83-2.52 2.59-3.88l1.01-1.88c.18 1 .37 2.13.54 3.28a101 101 0 0 1 .95 8.2 11.85 11.85 0 0 1-23.71 0c0-1.65.33-3.38.84-5.31.23-.91.5-1.84.79-2.82l.04-.16c.3-1.03.61-2.1.9-3.22 1.06-4.13 1.8-8.83.5-14.27.26.32.54.66.83 1.04 3.49 4.5 7.76 12 9.33 18.56l.11.45.3.36Z"/></svg>