<svg aria-hidden="true" class="svg-spot spotFocusXL" width="196" height="196" viewBox="0 0 196 196"><path opacity=".07" d="M109.3 183c43.5-.02 67.7-14.92 71.61-26.26l.34-.97c5.8-16.78 7.92-22.93 3.03-71.6-4.17-41.49-16.35-48.01-30.33-55.5a122.34 122.34 0 0 1-8.35-4.76C128.31 12.87 59.05.82 27.67 31.37c-31.38 30.55-19.44 90.08-4 116C39.12 173.3 65.8 183.02 109.3 183Zm-11.8-55a28.5 28.5 0 1 1 0-57 28.5 28.5 0 0 1 0 57Z"/><circle opacity=".2" cx="103.5" cy="106.5" r="26.5"/><path d="M53 15a2 2 0 1 0-4 0v4h-4a2 2 0 1 0 0 4h4v4a2 2 0 1 0 4 0v-4h4a2 2 0 1 0 0-4h-4v-4Zm137 72-5-5-5 5 5 5 5-5Zm-70.5 84 8.5 8.5-8.5 8.5-8.5-8.5 8.5-8.5Zm-2.83 8.5 2.83 2.83 2.83-2.83-2.83-2.83-2.83 2.83ZM32 51.24A8.24 8.24 0 0 1 40.24 43h34.38a2 2 0 1 1 0 4H40.24A4.24 4.24 0 0 0 36 51.24v28.21a2 2 0 1 1-4 0V51.24ZM119.5 45c0-1.1.9-2 2-2h31.26a8.24 8.24 0 0 1 8.24 8.24v28.21a2 2 0 1 1-4 0V51.24c0-2.34-1.9-4.24-4.24-4.24H121.5a2 2 0 0 1-2-2ZM34 117.2a2 2 0 0 1 2 2v25.56c0 2.34 1.9 4.24 4.24 4.24h34.38a2 2 0 1 1 0 4H40.24a8.24 8.24 0 0 1-8.24-8.24V119.2c0-1.1.9-2 2-2Zm125 0a2 2 0 0 1 2 2v25.56a8.24 8.24 0 0 1-8.24 8.24H121.5a2 2 0 1 1 0-4h31.26c2.34 0 4.24-1.9 4.24-4.24V119.2c0-1.1.9-2 2-2ZM97.5 71a28.5 28.5 0 1 0 0 57 28.5 28.5 0 0 0 0-57ZM73 99.5a24.5 24.5 0 1 1 49 0 24.5 24.5 0 0 1-49 0Z"/></svg>