<svg aria-hidden="true" class="svg-spot spotFocus" width="48" height="48" viewBox="0 0 48 48"><circle opacity=".2" cx="27" cy="26" r="9"/><path d="M5 6a3 3 0 0 0-3 3v9.38a1 1 0 1 0 2 0V9a1 1 0 0 1 1-1h11.65a1 1 0 1 0 0-2H5Zm27.4 0a1 1 0 1 0 0 2H43a1 1 0 0 1 1 1v9.38a1 1 0 1 0 2 0V9a3 3 0 0 0-3-3H32.4ZM4 31.5a1 1 0 1 0-2 0V39a3 3 0 0 0 3 3h11.65a1 1 0 1 0 0-2H5a1 1 0 0 1-1-1v-7.5Zm42 0a1 1 0 1 0-2 0V39a1 1 0 0 1-1 1H32.4a1 1 0 1 0 0 2H43a3 3 0 0 0 3-3v-7.5ZM24 14a10 10 0 1 0 0 20 10 10 0 0 0 0-20Zm-8 10a8 8 0 1 1 16 0 8 8 0 0 1-16 0Z"/></svg>