<svg aria-hidden="true" class="svg-spot spotFocus" width="48" height="48" viewBox="0 0 48 48"><circle opacity=".2" cx="27" cy="26" r="9"/><path d="M5 6a3 3 0 00-3 3v9.38a1 1 0 102 0V9a1 1 0 011-1h11.65a1 1 0 100-2H5zm27.4 0a1 1 0 100 2H43a1 1 0 011 1v9.38a1 1 0 102 0V9a3 3 0 00-3-3H32.4zM4 31.5a1 1 0 10-2 0V39a3 3 0 003 3h11.65a1 1 0 100-2H5a1 1 0 01-1-1v-7.5zm42 0a1 1 0 10-2 0V39a1 1 0 01-1 1H32.4a1 1 0 100 2H43a3 3 0 003-3v-7.5zM24 14a10 10 0 100 20 10 10 0 000-20zm-8 10a8 8 0 1116 0 8 8 0 01-16 0z"/></svg>