<svg aria-hidden="true" class="svg-spot spotFocusXL" width="196" height="196" viewBox="0 0 196 196"><path opacity=".07" d="M180.91 156.74c-3.91 11.34-28.1 26.24-71.6 26.26-43.5.02-70.18-9.7-85.62-35.63-15.45-25.92-27.4-85.45 3.99-116C59.06.82 128.32 12.87 145.6 23.91c17.27 11.04 33.7 10.67 38.68 60.26 4.99 49.6 2.68 55.05-3.37 72.57z"/><circle opacity=".2" cx="103.5" cy="106.5" r="26.5"/><path d="M53 15a2 2 0 10-4 0v4h-4a2 2 0 100 4h4v4a2 2 0 104 0v-4h4a2 2 0 100-4h-4v-4zm137 72l-5-5-5 5 5 5 5-5zm-70.5 84l8.5 8.5-8.5 8.5-8.5-8.5 8.5-8.5zm-2.83 8.5l2.83 2.83 2.83-2.83-2.83-2.83-2.83 2.83zM32 51.24A8.24 8.24 0 0140.24 43h34.38a2 2 0 110 4H40.24A4.24 4.24 0 0036 51.24v28.21a2 2 0 11-4 0V51.24zM119.5 45c0-1.1.9-2 2-2h31.26a8.24 8.24 0 018.24 8.24v28.21a2 2 0 11-4 0V51.24c0-2.34-1.9-4.24-4.24-4.24H121.5a2 2 0 01-2-2zM34 117.2a2 2 0 012 2v25.56c0 2.34 1.9 4.24 4.24 4.24h34.38a2 2 0 110 4H40.24a8.24 8.24 0 01-8.24-8.24V119.2c0-1.1.9-2 2-2zm125 0a2 2 0 012 2v25.56a8.24 8.24 0 01-8.24 8.24H121.5a2 2 0 110-4h31.26c2.34 0 4.24-1.9 4.24-4.24V119.2c0-1.1.9-2 2-2zM97.5 71a28.5 28.5 0 100 57 28.5 28.5 0 000-57zM73 99.5a24.5 24.5 0 1149 0 24.5 24.5 0 01-49 0z"/></svg>