<svg aria-hidden="true" class="svg-spot spotFocusLg" width="96" height="96" viewBox="0 0 96 96"><circle opacity=".2" cx="54" cy="51" r="18"/><path d="M11.6 11A5.6 5.6 0 006 16.6v18.15a1.5 1.5 0 003 0V16.6a2.6 2.6 0 012.6-2.6h22.55a1.5 1.5 0 000-3H11.6zm53.3 0a1.5 1.5 0 000 3h20.5a2.6 2.6 0 012.6 2.6v18.15a1.5 1.5 0 003 0V16.6c0-3.1-2.5-5.6-5.6-5.6H64.9zM9 62a1.5 1.5 0 00-3 0v17.4c0 3.1 2.5 5.6 5.6 5.6h22.55a1.5 1.5 0 000-3H11.6A2.6 2.6 0 019 79.4V62zm82 0a1.5 1.5 0 00-3 0v17.4a2.6 2.6 0 01-2.6 2.6H64.9a1.5 1.5 0 000 3h20.5c3.1 0 5.6-2.5 5.6-5.6V62zM48.5 29.05a19.5 19.5 0 100 39 19.5 19.5 0 000-39zM32 48.55a16.5 16.5 0 1133 0 16.5 16.5 0 01-33 0z"/></svg>