<svg aria-hidden="true" class="svg-spot spotFocusLg" width="96" height="96" viewBox="0 0 96 96"><circle opacity=".2" cx="54" cy="51" r="18"/><path d="M11.6 11A5.6 5.6 0 0 0 6 16.6v18.15a1.5 1.5 0 0 0 3 0V16.6a2.6 2.6 0 0 1 2.6-2.6h22.55a1.5 1.5 0 0 0 0-3H11.6Zm53.3 0a1.5 1.5 0 0 0 0 3h20.5a2.6 2.6 0 0 1 2.6 2.6v18.15a1.5 1.5 0 0 0 3 0V16.6c0-3.1-2.5-5.6-5.6-5.6H64.9ZM9 62a1.5 1.5 0 0 0-3 0v17.4c0 3.1 2.5 5.6 5.6 5.6h22.55a1.5 1.5 0 0 0 0-3H11.6A2.6 2.6 0 0 1 9 79.4V62Zm82 0a1.5 1.5 0 0 0-3 0v17.4a2.6 2.6 0 0 1-2.6 2.6H64.9a1.5 1.5 0 0 0 0 3h20.5c3.1 0 5.6-2.5 5.6-5.6V62ZM48.5 29.05a19.5 19.5 0 1 0 0 39 19.5 19.5 0 0 0 0-39ZM32 48.55a16.5 16.5 0 1 1 33 0 16.5 16.5 0 0 1-33 0Z"/></svg>