<svg aria-hidden="true" class="svg-spot spotForYou" width="48" height="48" viewBox="0 0 48 48"><path opacity=".2" d="M28.88 25.03a6.24 6.24 0 1 0-4.78-.05c-7.1.96-7.1 6.95-7.1 14l7 1.52 7-1.52c1.5-.98 5.23-3.48 5.23-3.48-.17-5.47-1.21-9.59-7.35-10.47Z"/><path d="M22.9 3a1 1 0 0 1 1-1h.2a1 1 0 0 1 0 2h-.2a1 1 0 0 1-1-1Zm19.91 9.61a1 1 0 0 0-1.7 1.05A19.6 19.6 0 0 1 44 24c0 9.55-6.77 17.6-15.71 19.55a1 1 0 1 0 .42 1.95A22.07 22.07 0 0 0 46 24a21.6 21.6 0 0 0-3.19-11.39ZM23.92 44a1 1 0 1 0 0 2h.14a1 1 0 1 0 0-2h-.14Zm-4.2-39.54a1 1 0 0 0-.44-1.95A22.03 22.03 0 0 0 2 24a21.6 21.6 0 0 0 3.19 11.38 1 1 0 0 0 1.7-1.04A19.6 19.6 0 0 1 4 24c0-9.55 6.7-17.54 15.72-19.54ZM7.42 23a1 1 0 0 1 1 1 15.58 15.58 0 0 0 31.16 0 1 1 0 0 1 2 0 17.58 17.58 0 1 1-35.16 0 1 1 0 0 1 1-1ZM24 10a7 7 0 1 0 0 14 7 7 0 0 0 0-14Zm-5 7a5 5 0 1 1 10 0 5 5 0 0 1-10 0Zm-6 20a1 1 0 1 0 2 0h-2Zm10.64-13-.02 1 .02-1ZM32 37a1 1 0 0 0 2 0h-2Zm1-5.55h1v-.07l-.01-.08-.99.15ZM23.62 25c3.2.06 5.11.8 6.3 1.87 1.17 1.08 1.79 2.64 2.09 4.72l1.98-.29c-.33-2.28-1.06-4.38-2.73-5.9-1.68-1.53-4.13-2.33-7.6-2.4l-.04 2ZM34 37v-5.55h-2V37h2Zm-19 0v-.25l-.02-.1a1.88 1.88 0 0 0-.5-.67c-.72-.1-1.39.46-1.44.6a1.78 1.78 0 0 0-.04.21v.29c.03.1.9.87 1.88.36A1.96 1.96 0 0 0 15 37v-.18l-2-.01v.13-.08c0-.03.05-.23.13-.4.96-.5 1.85.27 1.86.37v.07l.01.03v.01-.07.05a1.91 1.91 0 0 1-.04.2c-.05.15-.72.7-1.44.61a2 2 0 0 1-.5-.67l-.01-.1v-.08c0-.01 0-.02 0 0V37h2Zm0-.18c.01-3.66.16-6.63 1.28-8.7a5.21 5.21 0 0 1 2.43-2.3c1.15-.54 2.72-.86 4.91-.82l.04-2c-2.38-.04-4.3.3-5.8 1.02a7.2 7.2 0 0 0-3.34 3.15c-1.4 2.58-1.5 6.1-1.52 9.64h2Zm0 .18v-.19h-2V37h2Z"/></svg>