<svg aria-hidden="true" class="svg-spot spotForYouXL" width="196" height="196" viewBox="0 0 196 196"><path opacity=".07" d="M109.49 182.91c43.56-.01 67.52-14.6 71.44-26.01l.3-.87c5.83-16.96 7.97-23.18 3.06-72.23-4.2-41.94-16.2-48.46-30.2-56.08-2.64-1.44-5.36-2.92-8.11-4.69-17.3-11.1-87.2-23.21-118.63 7.51-31.43 30.72-19.88 91.2-4.42 117.26 15.47 26.07 43 35.13 86.56 35.11Zm17.65-102.17c0 8.8-5.46 16.35-13.18 19.44 21.72 3.25 21.42 19.06 21.11 34.97-.03 1.87-.07 3.74-.07 5.6l-21.5 10.5L93.75 153l-19.73-5.97c0-23.67 0-43.8 23.91-47a20.95 20.95 0 0 1 8.2-40.24c11.6 0 21 9.38 21 20.95Z"/><path opacity=".2" d="M113.96 100.18a20.95 20.95 0 0 0-7.82-40.39 20.95 20.95 0 0 0-8.2 40.23c-23.92 3.21-23.92 23.34-23.92 47L93.75 153l19.75-1.75 21.5-10.5c0-1.86.04-3.73.07-5.6.3-15.91.61-31.72-21.11-34.97Z"/><path d="m169 32-9-9-9 9 9 9 9-9Zm-9 3-3-3 3-3 3 3-3 3Zm19 11 5 5-5 5-5-5 5-5ZM37 157a2 2 0 0 1 2 2v4h4a2 2 0 1 1 0 4h-4v4a2 2 0 1 1-4 0v-4h-4a2 2 0 1 1 0-4h4v-4c0-1.1.9-2 2-2Zm62 8a2 2 0 1 0 0 4h.49a2 2 0 1 0 0-4H99Zm58.72-106.91a2 2 0 0 1 2.75.65A71.06 71.06 0 0 1 171 96.26c0 34.63-24.58 63.77-57.1 70.86a2 2 0 1 1-.86-3.91c30.73-6.7 53.96-34.25 53.96-66.95 0-13-3.55-25.04-9.94-35.42a2 2 0 0 1 .66-2.75ZM97.03 25a2 2 0 1 0 0 4h.73a2 2 0 1 0 0-4h-.73Zm-11.55 1.57a2 2 0 0 1-1.52 2.38C53.03 35.8 30 63.15 30 95.87c0 13 3.55 25.04 9.94 35.42a2 2 0 1 1-3.4 2.1A71.05 71.05 0 0 1 26 95.87c0-34.65 24.39-63.58 57.1-70.82a2 2 0 0 1 2.38 1.52ZM44.8 97.5a2 2 0 0 0-4 0c0 31.85 25.87 57.66 57.79 57.66 31.92 0 57.8-25.81 57.8-57.66a2 2 0 1 0-4 0 53.54 53.54 0 0 1-22.13 43.38v-18.16l-.02-.14c-1.07-7.63-3.38-14.39-8.55-19.26-4.33-4.1-10.45-6.64-18.9-7.5 10.07-2 17.6-11.18 17.6-22.1 0-12.34-9.64-22.49-21.71-22.49s-21.73 10.15-21.73 22.5c0 10.5 6.97 19.4 16.48 21.83-5.81.27-10.57 1.38-14.44 3.28A22.74 22.74 0 0 0 68.64 109c-4.1 7.8-4.72 18.3-4.82 29.46A53.49 53.49 0 0 1 44.8 97.5Zm23 44.01v-.38c.05-12.35.5-22.88 4.38-30.28a18.74 18.74 0 0 1 8.58-8.42c4-1.96 9.38-3.06 16.7-2.92 10.68.21 17.29 2.76 21.48 6.72 4.19 3.94 6.3 9.6 7.32 16.77v18.77a2 2 0 0 0 .58 1.4 53.65 53.65 0 0 1-28.25 7.99 53.64 53.64 0 0 1-30.78-9.65Zm30.88-86.28c9.71 0 17.72 8.21 17.72 18.5 0 10.28-8 18.5-17.72 18.5-9.72 0-17.73-8.22-17.73-18.5 0-10.29 8-18.5 17.73-18.5Z"/></svg>