<svg aria-hidden="true" class="svg-spot spotForYouLg" width="96" height="96" viewBox="0 0 96 96"><path opacity=".2" d="M57.81 50.13a12.78 12.78 0 1 0-9.76-.09C33.5 52 33.5 64.27 33.5 78.71l10.88 3.42h11.87l14-7.5 1.63-1.13v-1.57c.05-9.36.1-19.75-14.07-21.8Z"/><path d="M47.5 4a1.5 1.5 0 0 0 0 3h.44a1.5 1.5 0 1 0 0-3h-.44Zm36.77 20.22a1.5 1.5 0 0 1 2.07.5 43.7 43.7 0 0 1 6.45 23.02 44.64 44.64 0 0 1-34.97 43.5 1.5 1.5 0 0 1-.64-2.94 41.64 41.64 0 0 0 32.6-40.56 40.7 40.7 0 0 0-6-21.46 1.5 1.5 0 0 1 .5-2.06ZM47 91.5c0-.83.67-1.5 1.5-1.5h.3a1.5 1.5 0 0 1 0 3h-.3a1.5 1.5 0 0 1-1.5-1.5ZM40.75 5.18a1.5 1.5 0 0 1-1.14 1.78A41.57 41.57 0 0 0 7 47.51a40.7 40.7 0 0 0 6 21.45 1.5 1.5 0 1 1-2.55 1.57A43.7 43.7 0 0 1 4 47.51 44.57 44.57 0 0 1 38.96 4.04a1.5 1.5 0 0 1 1.79 1.14ZM16 48.5a1.5 1.5 0 0 0-3 0 35.45 35.45 0 0 0 70.9 0 1.5 1.5 0 0 0-3 0A32.4 32.4 0 0 1 68 74.4V63.86l-.02-.1c-.65-4.68-2.07-8.88-5.28-11.91-2.44-2.3-5.76-3.81-10.2-4.47A13.97 13.97 0 0 0 62 34c0-7.67-5.99-14-13.5-14S35 26.33 35 34a14 14 0 0 0 8.82 13.14 21 21 0 0 0-7.42 1.93 14.13 14.13 0 0 0-6.43 6.3c-2.45 4.69-2.87 10.92-2.95 17.5A32.37 32.37 0 0 1 16 48.5Zm14 26.7c0-6-.24-12.95 2.63-18.43a11.13 11.13 0 0 1 5.1-5.01c2.37-1.17 5.6-1.84 10.02-1.75 6.46.12 10.4 1.67 12.89 4.01 2.47 2.35 3.74 5.72 4.36 10.05v12.4a31.37 31.37 0 0 1-16.55 4.48A32.3 32.3 0 0 1 30 75.2ZM48.5 23C54.24 23 59 27.87 59 34s-4.76 11-10.5 11S38 40.13 38 34s4.76-11 10.5-11Z"/></svg>