<svg aria-hidden="true" class="svg-spot spotFour" width="36" height="36" viewBox="0 0 36 36"><path opacity=".2" d="M22.42 23.8h3.56a1 1 0 0 1 1 1V28a1 1 0 0 1-1 1h-3.56v6a1 1 0 0 1-1 1h-4.24a1 1 0 0 1-1-1v-6H4.2a1 1 0 0 1-1-.91l-.33-3.65L15.34 4.47a1 1 0 0 1 .85-.47h5.24a1 1 0 0 1 1 1v18.8Zm-13.69 0h6.96V12.6l-.41.71-6.55 10.5Zm20.2 8.86c0-1.99 1.58-3.38 3.53-3.38 1.94 0 3.54 1.39 3.54 3.38 0 2.01-1.6 3.34-3.54 3.34s-3.52-1.34-3.52-3.34Z"/><path d="M13.26 1.47a1 1 0 0 1 .85-.47H21a1 1 0 0 1 1 1v19h2.98a1 1 0 0 1 1 1v5a1 1 0 0 1-1 1H22v6a1 1 0 0 1-1 1h-7a1 1 0 0 1-1-1v-6H1.28a1 1 0 0 1-1-.93L0 22.99a1 1 0 0 1 .15-.6L13.26 1.47ZM14.66 3 2.03 23.18l.2 2.82H14a1 1 0 0 1 1 1v6h5v-6a1 1 0 0 1 1-1h2.98v-3H21a1 1 0 0 1-1-1V3h-5.33Zm-.39 7.54a1 1 0 0 1 .73.96V22a1 1 0 0 1-1 1H7.5a1 1 0 0 1-.85-1.53l6.5-10.5a1 1 0 0 1 1.12-.43ZM9.3 21H13v-5.98L9.3 21Zm22.16 7.28c-1.46 0-2.52 1-2.52 2.38 0 1.36 1.05 2.34 2.52 2.34 1.48 0 2.54-.97 2.54-2.34 0-1.37-1.08-2.38-2.54-2.38Zm-4.52 2.38c0-2.6 2.08-4.38 4.52-4.38 2.42 0 4.54 1.77 4.54 4.38 0 2.65-2.14 4.34-4.54 4.34s-4.52-1.71-4.52-4.34Z"/></svg>