<svg aria-hidden="true" class="svg-spot spotGauge" width="48" height="48" viewBox="0 0 48 48"><path opacity=".2" d="M26.5 45a18.5 18.5 0 1 0 0-37 18.5 18.5 0 0 0 0 37Z"/><path d="M24 9c.52 0 .95.42.95.94v1.3a.95.95 0 0 1-1.9 0v-1.3c0-.52.43-.95.95-.95Zm13.06 14.15a.95.95 0 1 0 0 1.9h1.28a.95.95 0 0 0 0-1.9h-1.28Zm-28.03.95c0-.52.42-.95.95-.95h1.29a.95.95 0 0 1 0 1.9h-1.3a.95.95 0 0 1-.94-.95Zm26.34-9.33a.95.95 0 0 0-1.32-1.37l-1.04 1a.95.95 0 1 0 1.32 1.38l1.04-1Zm-21.71-1.35a.95.95 0 0 1 1.34 0l1 1a.95.95 0 1 1-1.34 1.34l-1-1a.95.95 0 0 1 0-1.34Zm17.15-1.76a.95.95 0 0 0-1.7-.85l-.64 1.28a.95.95 0 0 0 1.7.85l.64-1.28Zm4.43 17.17a.95.95 0 0 1 1.27-.43l1.29.64a.95.95 0 0 1-.85 1.7l-1.29-.64a.95.95 0 0 1-.42-1.27ZM11.56 18.07a.95.95 0 0 0-.85 1.7l1.3.65a.95.95 0 0 0 .84-1.7l-1.29-.65Zm26.18.46a.95.95 0 0 1-.42 1.27l-1.3.65a.95.95 0 0 1-.84-1.7l1.29-.65a.95.95 0 0 1 1.27.43ZM13.14 30.1a.95.95 0 0 0-.85-1.7l-1.29.64a.95.95 0 1 0 .85 1.7l1.29-.64Zm4.87-19.76a.95.95 0 0 1 1.28.42l.64 1.29a.95.95 0 1 1-1.7.85l-.64-1.29a.95.95 0 0 1 .42-1.27Zm14.71 10.47a1 1 0 0 0-1.16-1.62l-6.66 4.76a2.2 2.2 0 0 0-2.93 2.27l-.52.35a1 1 0 0 0 1.1 1.66l.47-.31a2.2 2.2 0 0 0 3.27-2.51l6.43-4.6Zm-8.75 5.23a.2.2 0 1 1 .41 0 .2.2 0 0 1-.41 0ZM15 31a1 1 0 0 1 1-1h17a1 1 0 0 1 1 1v4a1 1 0 0 1-1 1H16a1 1 0 0 1-1-1v-4Zm2 1v2h15v-2H17Zm3 7a1 1 0 1 0 0-2 1 1 0 0 0 0 2Zm5-1a1 1 0 1 1-2 0 1 1 0 0 1 2 0Zm3 1a1 1 0 1 0 0-2 1 1 0 0 0 0 2Zm-3.34-23.28a8.05 8.05 0 0 0-7.94 8.1c0 1.06.18 2.01.53 2.92a.72.72 0 0 1-1.33.52 9.26 9.26 0 0 1-.64-3.43c0-5.25 4.2-9.55 9.38-9.55 1.74 0 3.43.49 4.81 1.35a.72.72 0 1 1-.76 1.22 7.68 7.68 0 0 0-4.05-1.13Zm-2.42 4.35a7.04 7.04 0 0 1 2.3-.35c.93 0 1.86.18 2.65.49a.72.72 0 0 0 .53-1.33 8.71 8.71 0 0 0-3.19-.6c-.93 0-1.9.13-2.77.43a.72.72 0 1 0 .48 1.36ZM24 5a19 19 0 1 0 0 38 19 19 0 0 0 0-38ZM7 24a17 17 0 1 1 34 0 17 17 0 0 1-34 0ZM24 1a23 23 0 1 0 0 46 23 23 0 0 0 0-46ZM3 24a21 21 0 1 1 42 0 21 21 0 0 1-42 0Z"/></svg>