<svg aria-hidden="true" class="svg-spot spotGaugeXL" width="196" height="196" viewBox="0 0 196 196"><path opacity=".07" d="M45.38 183.6c-11.46-3.67-18.2-22.64-32.4-64.98S25.74 41.88 51.4 25.83C77.07 9.78 136.5-3.5 167.8 27.26c31.3 30.77 20.7 100.44 10.01 118-10.7 17.55-9.97 34-59.6 40.1-49.62 6.1-55.13 3.91-72.83-1.76z"/><path opacity=".2" d="M103.53 166.26a59.73 59.73 0 100-119.46 59.73 59.73 0 000 119.46z"/><path d="M145.5 6l8.5 8.5-8.5 8.5-8.5-8.5 8.5-8.5zm-2.83 8.5l2.83 2.83 2.83-2.83-2.83-2.83-2.83 2.83zm-72.94 86.3c0-15.48 12.4-28.07 27.52-28.07 5.11 0 10.05 1.42 14.03 3.92a2 2 0 002.12-3.4 30.6 30.6 0 00-16.15-4.52c-17.4 0-31.52 14.45-31.52 32.08 0 4.12.7 7.92 2.13 11.54a2 2 0 003.72-1.46 27.12 27.12 0 01-1.85-10.08zm26.81-17.98c-2.82 0-5.58.38-7.97 1.21a2 2 0 11-1.32-3.77 28.39 28.39 0 019.29-1.44c3.73 0 7.46.7 10.7 2a2 2 0 11-1.48 3.71 25.25 25.25 0 00-9.22-1.71zm3.8-29.1a2 2 0 10-4 0v4.33a2 2 0 104 0v-4.33zm39.3 47.62c0-1.1.9-2 2-2h4.33a2 2 0 110 4h-4.33a2 2 0 01-2-2zm-88.92-2a2 2 0 000 4h4.33a2 2 0 100-4h-4.33zm82.51-32.88a2 2 0 010 2.83l-3.17 3.16a2 2 0 11-2.83-2.83l3.17-3.16a2 2 0 012.83 0zm-66.94 0a2 2 0 10-2.83 2.83l3.16 3.16a2 2 0 102.83-2.83l-3.16-3.16zm52.43-10.2a2 2 0 01.9 2.68l-2.17 4.33a2 2 0 11-3.58-1.78l2.17-4.33a2 2 0 012.68-.9zm19.48 60.61a2 2 0 10-1.79 3.58l4.33 2.16a2 2 0 001.79-3.57l-4.33-2.17zM53.26 83.13a2 2 0 012.68-.9l4.33 2.17a2 2 0 01-1.78 3.58l-4.33-2.17a2 2 0 01-.9-2.68zm89.27 2.68a2 2 0 10-1.79-3.57l-4.33 2.16a2 2 0 001.8 3.58l4.32-2.17zm-81.36 31.96a2 2 0 01-.9 2.68l-4.33 2.16a2 2 0 01-1.78-3.57l4.33-2.17a2 2 0 012.68.9zm21.64-60.61a2 2 0 00-3.57 1.78l2.16 4.33a2 2 0 003.58-1.78l-2.17-4.33zm44.22 22.46a2 2 0 01-.47 2.79l-22.55 16.1a6.33 6.33 0 01-10.02 7.41l-2.11 1.42a2 2 0 01-2.22-3.33l2.44-1.63a6.33 6.33 0 019.08-6.7c.1-.1.2-.2.33-.3l22.73-16.23a2 2 0 012.79.47zm-28.69 19.4a2.33 2.33 0 100 4.65 2.33 2.33 0 000-4.66zM72 119a2 2 0 00-2 2v11c0 1.1.9 2 2 2h52a2 2 0 002-2v-11a2 2 0 00-2-2H72zm2 11v-7h48v7H74zm15.36 14.47a2 2 0 11-4 0 2 2 0 014 0zm8.82 2a2 2 0 100-4 2 2 0 000 4zm12.82-2a2 2 0 11-4 0 2 2 0 014 0zM35 100a62 62 0 11124 0 62 62 0 01-124 0zm62-58a58 58 0 100 116 58 58 0 000-116zm-76 58a76 76 0 11152 0 76 76 0 01-152 0zm76-72a72 72 0 100 144 72 72 0 000-144zM24 139l-5-5-5 5 5 5 5-5zm152 5a2 2 0 012 2v4h4a2 2 0 110 4h-4v4a2 2 0 11-4 0v-4h-4a2 2 0 110-4h4v-4c0-1.1.9-2 2-2z"/></svg>