<svg aria-hidden="true" class="svg-spot spotGauge" width="48" height="48" viewBox="0 0 48 48"><path opacity=".2" d="M26.5 45a18.5 18.5 0 100-37 18.5 18.5 0 000 37z"/><path d="M24 9c.52 0 .95.42.95.94v1.3a.95.95 0 01-1.9 0v-1.3c0-.52.43-.95.95-.95zm13.06 14.15a.95.95 0 100 1.9h1.28a.95.95 0 000-1.9h-1.28zm-28.03.95c0-.52.42-.95.95-.95h1.29a.95.95 0 010 1.9h-1.3a.95.95 0 01-.94-.95zm26.34-9.33a.95.95 0 00-1.32-1.37l-1.04 1a.95.95 0 101.32 1.38l1.04-1zm-21.71-1.35a.95.95 0 011.34 0l1 1a.95.95 0 11-1.34 1.34l-1-1a.95.95 0 010-1.34zm17.15-1.76a.95.95 0 00-1.7-.85l-.64 1.28a.95.95 0 001.7.85l.64-1.28zm4.43 17.17a.95.95 0 011.27-.43l1.29.64a.95.95 0 01-.85 1.7l-1.29-.64a.95.95 0 01-.42-1.27zM11.56 18.07a.95.95 0 00-.85 1.7l1.3.65a.95.95 0 00.84-1.7l-1.29-.65zm26.18.46a.95.95 0 01-.42 1.27l-1.3.65a.95.95 0 01-.84-1.7l1.29-.65a.95.95 0 011.27.43zM13.14 30.1a.95.95 0 00-.85-1.7l-1.29.64a.95.95 0 10.85 1.7l1.29-.64zm4.87-19.76a.95.95 0 011.28.42l.64 1.29a.95.95 0 11-1.7.85l-.64-1.29a.95.95 0 01.42-1.27zm14.71 10.47a1 1 0 00-1.16-1.62l-6.66 4.76a2.2 2.2 0 00-2.93 2.27l-.52.35a1 1 0 001.1 1.66l.47-.31a2.2 2.2 0 003.27-2.51l6.43-4.6zm-8.75 5.23a.2.2 0 11.41 0 .2.2 0 01-.41 0zM15 31a1 1 0 011-1h17a1 1 0 011 1v4a1 1 0 01-1 1H16a1 1 0 01-1-1v-4zm2 1v2h15v-2H17zm3 7a1 1 0 100-2 1 1 0 000 2zm5-1a1 1 0 11-2 0 1 1 0 012 0zm3 1a1 1 0 100-2 1 1 0 000 2zm-3.34-23.28a8.05 8.05 0 00-7.94 8.1c0 1.06.18 2.01.53 2.92a.72.72 0 01-1.33.52 9.26 9.26 0 01-.64-3.43c0-5.25 4.2-9.55 9.38-9.55 1.74 0 3.43.49 4.81 1.35a.72.72 0 11-.76 1.22 7.68 7.68 0 00-4.05-1.13zm-2.42 4.35a7.04 7.04 0 012.3-.35c.93 0 1.86.18 2.65.49a.72.72 0 00.53-1.33 8.71 8.71 0 00-3.19-.6c-.93 0-1.9.13-2.77.43a.72.72 0 10.48 1.36zM24 5a19 19 0 100 38 19 19 0 000-38zM7 24a17 17 0 1134 0 17 17 0 01-34 0zM24 1a23 23 0 100 46 23 23 0 000-46zM3 24a21 21 0 1142 0 21 21 0 01-42 0z"/></svg>