<svg aria-hidden="true" class="svg-spot spotGaugeXL" width="196" height="196" viewBox="0 0 196 196"><path opacity=".07" d="M12.98 118.62c14.2 42.34 20.94 61.3 32.4 64.98l.98.31c16.94 5.44 23.16 7.44 71.85 1.45 41.52-5.1 47.8-17.45 55-31.63 1.4-2.77 2.85-5.6 4.6-8.47 10.7-17.55 21.3-87.23-10-118C136.5-3.51 77.07 9.78 51.4 25.83s-52.64 50.45-38.43 92.8ZM97 176a76 76 0 1 1 0-152 76 76 0 0 1 0 152Z"/><path opacity=".2" d="M103.53 166.26a59.73 59.73 0 1 0 0-119.46 59.73 59.73 0 0 0 0 119.46Z"/><path d="m145.5 6 8.5 8.5-8.5 8.5-8.5-8.5 8.5-8.5Zm-2.83 8.5 2.83 2.83 2.83-2.83-2.83-2.83-2.83 2.83Zm-72.94 86.3c0-15.48 12.4-28.07 27.52-28.07 5.11 0 10.05 1.42 14.03 3.92a2 2 0 0 0 2.12-3.4 30.6 30.6 0 0 0-16.15-4.52c-17.4 0-31.52 14.45-31.52 32.08 0 4.12.7 7.92 2.13 11.54a2 2 0 0 0 3.72-1.46 27.12 27.12 0 0 1-1.85-10.08Zm26.81-17.98c-2.82 0-5.58.38-7.97 1.21a2 2 0 1 1-1.32-3.77 28.39 28.39 0 0 1 9.29-1.44c3.73 0 7.46.7 10.7 2a2 2 0 1 1-1.48 3.71 25.25 25.25 0 0 0-9.22-1.71Zm3.8-29.1a2 2 0 1 0-4 0v4.33a2 2 0 1 0 4 0v-4.33Zm39.3 47.62c0-1.1.9-2 2-2h4.33a2 2 0 1 1 0 4h-4.33a2 2 0 0 1-2-2Zm-88.92-2a2 2 0 0 0 0 4h4.33a2 2 0 1 0 0-4h-4.33Zm82.51-32.88a2 2 0 0 1 0 2.83l-3.17 3.16a2 2 0 1 1-2.83-2.83l3.17-3.16a2 2 0 0 1 2.83 0Zm-66.94 0a2 2 0 1 0-2.83 2.83l3.16 3.16a2 2 0 1 0 2.83-2.83l-3.16-3.16Zm52.43-10.2a2 2 0 0 1 .9 2.68l-2.17 4.33a2 2 0 1 1-3.58-1.78l2.17-4.33a2 2 0 0 1 2.68-.9Zm19.48 60.61a2 2 0 1 0-1.79 3.58l4.33 2.16a2 2 0 0 0 1.79-3.57l-4.33-2.17ZM53.26 83.13a2 2 0 0 1 2.68-.9l4.33 2.17a2 2 0 0 1-1.78 3.58l-4.33-2.17a2 2 0 0 1-.9-2.68Zm89.27 2.68a2 2 0 1 0-1.79-3.57l-4.33 2.16a2 2 0 0 0 1.8 3.58l4.32-2.17Zm-81.36 31.96a2 2 0 0 1-.9 2.68l-4.33 2.16a2 2 0 0 1-1.78-3.57l4.33-2.17a2 2 0 0 1 2.68.9Zm21.64-60.61a2 2 0 0 0-3.57 1.78l2.16 4.33a2 2 0 0 0 3.58-1.78l-2.17-4.33Zm44.22 22.46a2 2 0 0 1-.47 2.79l-22.55 16.1a6.33 6.33 0 0 1-10.02 7.41l-2.11 1.42a2 2 0 0 1-2.22-3.33l2.44-1.63a6.33 6.33 0 0 1 9.08-6.7c.1-.1.2-.2.33-.3l22.73-16.23a2 2 0 0 1 2.79.47Zm-28.69 19.4a2.33 2.33 0 1 0 0 4.65 2.33 2.33 0 0 0 0-4.66ZM72 119a2 2 0 0 0-2 2v11c0 1.1.9 2 2 2h52a2 2 0 0 0 2-2v-11a2 2 0 0 0-2-2H72Zm2 11v-7h48v7H74Zm15.36 14.47a2 2 0 1 1-4 0 2 2 0 0 1 4 0Zm8.82 2a2 2 0 1 0 0-4 2 2 0 0 0 0 4Zm12.82-2a2 2 0 1 1-4 0 2 2 0 0 1 4 0ZM35 100a62 62 0 1 1 124 0 62 62 0 0 1-124 0Zm62-58a58 58 0 1 0 0 116 58 58 0 0 0 0-116Zm-76 58a76 76 0 1 1 152 0 76 76 0 0 1-152 0Zm76-72a72 72 0 1 0 0 144 72 72 0 0 0 0-144ZM24 139l-5-5-5 5 5 5 5-5Zm152 5a2 2 0 0 1 2 2v4h4a2 2 0 1 1 0 4h-4v4a2 2 0 1 1-4 0v-4h-4a2 2 0 1 1 0-4h4v-4c0-1.1.9-2 2-2Z"/></svg>