<svg aria-hidden="true" class="svg-spot spotGear" width="50" height="48" viewBox="0 0 50 48"><g opacity=".2"><path d="M42.17 17.25a16.11 16.11 0 011.85 4.41l5.56.71v7.12l-5.56.71a18.66 18.66 0 01-1.85 4.42l3.42 4.41-4.98 4.98-4.42-3.41a16.11 16.11 0 01-4.4 1.85L31.06 48h-7.12l-.71-5.55a17.57 17.57 0 01-4.32-1.68l-4.69 3.24-2.31-2.49-2.38-2.49 3.13-4.5a15.14 15.14 0 01-1.68-4.33l-5.55-.75v-3.52l.2-3.51 5.47-.78.06-.24c.4-1.47.76-2.78 1.5-4.06l-3.13-4.69 4.69-4.68 4.69 3.12c1.16-.73 2.33-1.04 3.63-1.39l.66-.17.74-5.66h7.07l.79 5.55a18.3 18.3 0 014.38 1.85l4.42-3.42 4.98 4.98-3.42 4.42Zm-6.42 6.82a12.11 12.11 0 10-24.22 0 12.11 12.11 0 0024.22 0ZM24 32a8 8 0 100-16 8 8 0 000 16Z"/></g><path d="M24 15a9 9 0 1 0 0 18 9 9 0 0 0 0-18Zm-7 9a7 7 0 1 1 14 0 7 7 0 0 1-14 0Zm-6 0a13 13 0 1 1 26 0 13 13 0 0 1-26 0Zm13-11a11 11 0 1 0 0 22 11 11 0 0 0 0-22ZM19.46 1.87a1 1 0 0 1 1-.87h7.04a1 1 0 0 1 1 .86l.68 4.9c1.2.37 2.33.86 3.39 1.43l3.88-3a1 1 0 0 1 1.32.08l4.96 4.96a1 1 0 0 1 .09 1.32l-3 3.87a17.05 17.05 0 0 1 1.42 3.41l4.89.63a1 1 0 0 1 .87 1v7.09a1 1 0 0 1-.87.99l-4.89.63a19.65 19.65 0 0 1-1.43 3.4l3 3.88a1 1 0 0 1-.08 1.32l-4.96 4.96a1 1 0 0 1-1.32.09l-3.87-3a17.05 17.05 0 0 1-3.41 1.42l-.63 4.89a1 1 0 0 1-1 .87h-7.09a1 1 0 0 1-.99-.87l-.63-4.88a18.23 18.23 0 0 1-3.33-1.28l-4.17 2.88a1 1 0 0 1-1.3-.14l-2.3-2.48-2.37-2.48a1 1 0 0 1-.1-1.26l2.76-3.97a15.3 15.3 0 0 1-1.27-3.36l-4.88-.66a1 1 0 0 1-.87-1V24a1 1 0 0 1 0-.06l.2-3.5a1 1 0 0 1 .85-.93l4.8-.69c.31-1.12.64-2.23 1.19-3.33l-2.78-4.17a1 1 0 0 1 .12-1.27l4.67-4.67a1 1 0 0 1 1.27-.12l4.15 2.77c1.11-.6 2.24-.89 3.34-1.18l.65-4.98ZM21.33 3l-.62 4.78a1 1 0 0 1-.73.83l-.68.18c-1.3.35-2.32.62-3.33 1.26a1 1 0 0 1-1.1-.01L10.9 7.38l-3.51 3.5 2.66 4a1 1 0 0 1 .03 1.05 15.3 15.3 0 0 0-1.4 3.85l-.06.2a1 1 0 0 1-.82.73l-4.64.66L3 24.03v2.6l4.67.64a1 1 0 0 1 .83.72c.43 1.58.79 2.84 1.55 4.04a1 1 0 0 1-.02 1.1l-2.66 3.83 1.81 1.9h.01l1.72 1.85 3.96-2.74a1 1 0 0 1 1.06-.04c1.24.72 2.54 1.15 4.08 1.57a1 1 0 0 1 .72.84l.6 4.66h5.34l.6-4.66a1 1 0 0 1 .72-.84c1.5-.41 2.9-.94 4.13-1.73a1 1 0 0 1 1.15.06l3.7 2.87 3.73-3.73-2.87-3.7a1 1 0 0 1-.08-1.11 17.6 17.6 0 0 0 1.75-4.17 1 1 0 0 1 .84-.72l4.66-.6v-5.34l-4.66-.6a1 1 0 0 1-.84-.72c-.41-1.5-.94-2.9-1.73-4.13a1 1 0 0 1 .06-1.15l2.87-3.7-3.73-3.73-3.7 2.87a1 1 0 0 1-1.11.08 17.42 17.42 0 0 0-4.14-1.75 1 1 0 0 1-.73-.83L26.64 3h-5.31Z"/></svg>