<svg aria-hidden="true" class="svg-spot spotGearXL" width="196" height="196" viewBox="0 0 196 196"><path opacity=".07" d="M180.48 147.44C164.16 178.58 151.5 182.75 94 188.5S5.8 144.25 5.8 124.73c0-22.98-7.12-75.2 35.13-95.7s98.14-36.4 131.85-9.86c18.6 19.35 16 80.16 16 80.16s.56 31.22-8.3 48.1z"/><path d="M152.34 78.4c2.96 4.68 4.93 9.86 6.41 15.3L178 96.15v24.68l-19.25 2.47a64.67 64.67 0 01-6.41 15.3l11.84 15.3-17.27 17.27-15.3-11.84c-4.7 2.96-9.88 4.93-15.3 6.41L113.84 185H89.16l-2.47-19.25c-5.43-1.48-10.29-3.08-14.98-5.8l-16.25 11.23-16.24-17.27 10.83-15.62c-2.96-4.7-4.32-9.55-5.8-14.98L25 120.69V96.16l19.63-2.55.23-.84c1.38-5.08 2.61-9.61 5.19-14.06L39.22 62.46l16.24-16.24 16.25 10.83c4.02-2.54 8.1-3.62 12.61-4.8l2.29-.62L89.16 32h24.53l2.7 19.25a64.03 64.03 0 0115.22 6.41l15.3-11.84 17.27 17.27-11.84 15.3zM139 102c0 23.18-18.82 42-42 42s-42-18.82-42-42 18.82-42 42-42 42 18.82 42 42zm-37.5 35a29.5 29.5 0 100-59 29.5 29.5 0 000 59z" opacity=".2"/><path d="M96.5 71a31.5 31.5 0 100 63 31.5 31.5 0 000-63zM69 102.5a27.5 27.5 0 1155 0 27.5 27.5 0 01-55 0zm-17-.5c0-24.29 19.71-44 44-44s44 19.71 44 44-19.71 44-44 44-44-19.71-44-44zm44-40c-22.08 0-40 17.92-40 40s17.92 40 40 40 40-17.92 40-40-17.92-40-40-40zM83.16 23a2 2 0 00-1.98 1.74l-2.38 18.3c-.32.1-.63.17-.94.25-4.11 1.09-8.15 2.15-12.1 4.4L50.58 37.54a2 2 0 00-2.52.25L31.8 54.05a2 2 0 00-.25 2.52l10.16 15.24c-2.24 4.2-3.43 8.49-4.66 12.98l-18.3 2.39A2 2 0 0017 89.16v24.53a2 2 0 001.73 1.98l17.94 2.44c1.25 4.53 2.56 8.88 5 13.1l-10.1 14.56a2 2 0 00.19 2.5l16.25 17.28a2 2 0 002.6.28l15.21-10.52c4.18 2.26 8.48 3.72 13.06 5.01l2.3 17.93a2 2 0 001.98 1.75h24.68a2 2 0 001.98-1.75l2.3-17.93a57.84 57.84 0 0013.35-5.56l14.21 11a2 2 0 002.64-.16l17.28-17.28a2 2 0 00.16-2.64l-11.03-14.25a66.84 66.84 0 005.59-13.3l17.93-2.3a2 2 0 001.75-2V89.17a2 2 0 00-1.75-1.98l-17.93-2.3a57.85 57.85 0 00-5.56-13.35l11-14.21a2 2 0 00-.16-2.64L142.31 37.4a2 2 0 00-2.64-.17l-14.25 11.03a66.02 66.02 0 00-13.24-5.59l-2.52-17.96a2 2 0 00-1.98-1.72H83.16zm-.57 21.9L84.92 27h21.03l2.46 17.53a2 2 0 001.46 1.65 62.05 62.05 0 0114.73 6.22 2 2 0 002.23-.15l13.9-10.77 14.8 14.78-10.78 13.9a2 2 0 00-.1 2.3c2.82 4.47 4.72 9.45 6.17 14.76a2 2 0 001.68 1.46l17.5 2.24v21.16l-17.5 2.24a2 2 0 00-1.68 1.46 62.7 62.7 0 01-6.22 14.82 2 2 0 00.15 2.23l10.77 13.9-14.78 14.8-13.9-10.78a2 2 0 00-2.3-.1c-4.47 2.82-9.45 4.72-14.76 6.17a2 2 0 00-1.46 1.68l-2.24 17.5H84.92l-2.24-17.5a2 2 0 00-1.46-1.68c-5.38-1.46-10.04-3.02-14.5-5.6a2 2 0 00-2.14.09l-14.84 10.25-13.96-14.84 9.91-14.3a2 2 0 00.05-2.2c-2.78-4.4-4.07-8.98-5.56-14.44a2 2 0 00-1.66-1.45L21 111.94V90.92l17.9-2.33a2 2 0 001.66-1.46l.2-.75c1.41-5.16 2.58-9.45 5.02-13.67a2 2 0 00-.07-2.1L35.8 55.7l13.92-13.9 14.88 9.92a2 2 0 002.18.03c3.74-2.36 7.5-3.36 12.01-4.55.76-.2 1.54-.4 2.34-.63a2 2 0 001.46-1.67zM15 58a2 2 0 10-4 0v4H7a2 2 0 100 4h4v4a2 2 0 104 0v-4h4a2 2 0 100-4h-4v-4zm151 114l-5-5-5 5 5 5 5-5z"/></svg>