<svg aria-hidden="true" class="svg-spot spotGearXL" width="196" height="196" viewBox="0 0 196 196"><path opacity=".07" d="M94 188.5c57.5-5.75 70.16-9.92 86.48-41.06 8.86-16.89 8.3-48.1 8.3-48.1s2.6-60.82-16-80.17c-33.7-26.53-89.6-10.64-131.85 9.86C3.49 47.2 4.81 90.28 5.6 115.84c.1 3.28.2 6.28.2 8.9 0 19.51 30.7 69.51 88.2 63.76ZM81.18 24.74A2 2 0 0 1 83.16 23h24.53a2 2 0 0 1 1.98 1.72l2.52 17.96a66.02 66.02 0 0 1 13.24 5.59l14.25-11.03a2 2 0 0 1 2.64.17l17.28 17.27a2 2 0 0 1 .16 2.64l-11 14.2a57.62 57.62 0 0 1 5.56 13.36l17.93 2.3a2 2 0 0 1 1.75 1.98v24.68a2 2 0 0 1-1.75 1.98l-17.94 2.3a66.84 66.84 0 0 1-5.58 13.31l11.03 14.25a2 2 0 0 1-.16 2.64l-17.28 17.28a2 2 0 0 1-2.64.16l-14.2-11a57.84 57.84 0 0 1-13.36 5.56l-2.3 17.93a2 2 0 0 1-1.98 1.75H83.16a2 2 0 0 1-1.98-1.75l-2.3-17.93c-4.58-1.29-8.88-2.75-13.06-5.01L50.6 165.83a2 2 0 0 1-2.6-.28l-16.24-17.27a2 2 0 0 1-.19-2.51l10.1-14.56c-2.44-4.22-3.75-8.57-5-13.1l-17.94-2.44a2 2 0 0 1-1.73-1.98V89.16a2 2 0 0 1 1.74-1.98l18.31-2.39c1.23-4.5 2.42-8.78 4.66-12.98L31.55 56.57a2 2 0 0 1 .25-2.52L48.05 37.8a2 2 0 0 1 2.52-.25l15.2 10.13c3.94-2.24 7.98-3.3 12.08-4.38l.95-.25 2.38-18.3Z"/><path d="M152.34 78.4c2.96 4.68 4.93 9.86 6.41 15.3L178 96.15v24.68l-19.25 2.47a64.67 64.67 0 0 1-6.41 15.3l11.84 15.3-17.27 17.27-15.3-11.84c-4.7 2.96-9.88 4.93-15.3 6.41L113.84 185H89.16l-2.47-19.25c-5.43-1.48-10.29-3.08-14.98-5.8l-16.25 11.23-16.24-17.27 10.83-15.62c-2.96-4.7-4.32-9.55-5.8-14.98L25 120.69V96.16l19.63-2.55.23-.84c1.38-5.08 2.61-9.61 5.19-14.06L39.22 62.46l16.24-16.24 16.25 10.83c4.02-2.54 8.1-3.62 12.61-4.8l2.29-.62L89.16 32h24.53l2.7 19.25a64.03 64.03 0 0 1 15.22 6.41l15.3-11.84 17.27 17.27-11.84 15.3ZM139 102c0-23.18-18.82-42-42-42s-42 18.82-42 42 18.82 42 42 42 42-18.82 42-42Zm-37.5 35a29.5 29.5 0 1 0 0-59 29.5 29.5 0 0 0 0 59Z" opacity=".2"/><path d="M96.5 71a31.5 31.5 0 1 0 0 63 31.5 31.5 0 0 0 0-63ZM69 102.5a27.5 27.5 0 1 1 55 0 27.5 27.5 0 0 1-55 0Zm-17-.5c0-24.29 19.71-44 44-44s44 19.71 44 44-19.71 44-44 44-44-19.71-44-44Zm44-40c-22.08 0-40 17.92-40 40s17.92 40 40 40 40-17.92 40-40-17.92-40-40-40ZM83.16 23a2 2 0 0 0-1.98 1.74l-2.38 18.3c-.32.1-.63.17-.94.25-4.11 1.09-8.15 2.15-12.1 4.4L50.58 37.54a2 2 0 0 0-2.52.25L31.8 54.05a2 2 0 0 0-.25 2.52l10.16 15.24c-2.24 4.2-3.43 8.49-4.66 12.98l-18.3 2.39A2 2 0 0 0 17 89.16v24.53a2 2 0 0 0 1.73 1.98l17.94 2.44c1.25 4.53 2.56 8.88 5 13.1l-10.1 14.56a2 2 0 0 0 .19 2.5l16.25 17.28a2 2 0 0 0 2.6.28l15.21-10.52c4.18 2.26 8.48 3.72 13.06 5.01l2.3 17.93a2 2 0 0 0 1.98 1.75h24.68a2 2 0 0 0 1.98-1.75l2.3-17.93a57.84 57.84 0 0 0 13.35-5.56l14.21 11a2 2 0 0 0 2.64-.16l17.28-17.28a2 2 0 0 0 .16-2.64l-11.03-14.25a66.84 66.84 0 0 0 5.59-13.3l17.93-2.3a2 2 0 0 0 1.75-2V89.17a2 2 0 0 0-1.75-1.98l-17.93-2.3a57.85 57.85 0 0 0-5.56-13.35l11-14.21a2 2 0 0 0-.16-2.64L142.31 37.4a2 2 0 0 0-2.64-.17l-14.25 11.03a66.02 66.02 0 0 0-13.24-5.59l-2.52-17.96a2 2 0 0 0-1.98-1.72H83.16Zm-.57 21.9L84.92 27h21.03l2.46 17.53a2 2 0 0 0 1.46 1.65 62.05 62.05 0 0 1 14.73 6.22 2 2 0 0 0 2.23-.15l13.9-10.77 14.8 14.78-10.78 13.9a2 2 0 0 0-.1 2.3c2.82 4.47 4.72 9.45 6.17 14.76a2 2 0 0 0 1.68 1.46l17.5 2.24v21.16l-17.5 2.24a2 2 0 0 0-1.68 1.46 62.7 62.7 0 0 1-6.22 14.82 2 2 0 0 0 .15 2.23l10.77 13.9-14.78 14.8-13.9-10.78a2 2 0 0 0-2.3-.1c-4.47 2.82-9.45 4.72-14.76 6.17a2 2 0 0 0-1.46 1.68l-2.24 17.5H84.92l-2.24-17.5a2 2 0 0 0-1.46-1.68c-5.38-1.46-10.04-3.02-14.5-5.6a2 2 0 0 0-2.14.09l-14.84 10.25-13.96-14.84 9.91-14.3a2 2 0 0 0 .05-2.2c-2.78-4.4-4.07-8.98-5.56-14.44a2 2 0 0 0-1.66-1.45L21 111.94V90.92l17.9-2.33a2 2 0 0 0 1.66-1.46l.2-.75c1.41-5.16 2.58-9.45 5.02-13.67a2 2 0 0 0-.07-2.1L35.8 55.7l13.92-13.9 14.88 9.92a2 2 0 0 0 2.18.03c3.74-2.36 7.5-3.36 12.01-4.55.76-.2 1.54-.4 2.34-.63a2 2 0 0 0 1.46-1.67ZM15 58a2 2 0 1 0-4 0v4H7a2 2 0 1 0 0 4h4v4a2 2 0 1 0 4 0v-4h4a2 2 0 1 0 0-4h-4v-4Zm151 114-5-5-5 5 5 5 5-5Z"/></svg>