<svg aria-hidden="true" class="svg-spot spotGearLg" width="96" height="96" viewBox="0 0 96 96"><g opacity=".2"><path d="M77.91 34.16a30.67 30.67 0 013.52 8.4L92 43.9v13.55l-10.57 1.36a35.51 35.51 0 01-3.52 8.4l6.5 8.4-9.48 9.48-8.4-6.5a30.67 30.67 0 01-8.4 3.52l-1.36 10.57H43.23l-1.36-10.57a33.45 33.45 0 01-8.22-3.18l-8.92 6.16-8.92-9.48 5.94-8.58c-1.62-2.57-2.37-5.24-3.18-8.22L8 57.38V43.9l10.78-1.4.12-.46c.76-2.79 1.44-5.27 2.85-7.72l-5.94-8.92 8.92-8.92 8.92 5.95c2.2-1.4 4.45-1.99 6.92-2.64l1.25-.33 1.4-10.78H56.7l1.49 10.57c2.98.8 5.77 2.03 8.35 3.52l8.4-6.5 9.48 9.48-6.5 8.4ZM69 46.69a23 23 0 10-46.02.01 23 23 0 0046.02 0ZM46 62.5a16 16 0 100-32 16 16 0 000 32Z"/></g><path d="M46.5 29a17.5 17.5 0 1 0 0 35 17.5 17.5 0 0 0 0-35ZM32 46.5a14.5 14.5 0 1 1 29 0 14.5 14.5 0 0 1-29 0Zm-10 0a24.5 24.5 0 1 1 49.02.02A24.5 24.5 0 0 1 22 46.5ZM46.5 25a21.5 21.5 0 1 0 .02 43.02A21.5 21.5 0 0 0 46.5 25ZM38.24 4.3c.1-.74.73-1.3 1.49-1.3h13.46c.75 0 1.38.55 1.49 1.3l1.35 9.6c2.42.73 4.72 1.72 6.87 2.9l7.61-5.9a1.5 1.5 0 0 1 1.98.13l9.48 9.48c.54.53.6 1.38.13 1.98l-5.88 7.59A32.16 32.16 0 0 1 79.1 37l9.6 1.23c.74.1 1.3.73 1.3 1.49v13.54c0 .76-.56 1.4-1.3 1.5l-9.6 1.22a37.07 37.07 0 0 1-2.9 6.9l5.9 7.62c.46.6.4 1.45-.13 1.98l-9.48 9.48a1.5 1.5 0 0 1-1.98.13l-7.59-5.88A32.16 32.16 0 0 1 56 79.1l-1.23 9.6a1.5 1.5 0 0 1-1.49 1.3H39.73a1.5 1.5 0 0 1-1.5-1.3l-1.22-9.59a34.5 34.5 0 0 1-6.78-2.6l-8.15 5.64a1.5 1.5 0 0 1-1.95-.2l-8.92-9.5a1.5 1.5 0 0 1-.14-1.88l5.4-7.78a29.77 29.77 0 0 1-2.59-6.8L4.3 54.67A1.5 1.5 0 0 1 3 53.19V39.73c0-.76.56-1.4 1.3-1.5l9.8-1.27a32.9 32.9 0 0 1 2.4-6.74l-5.44-8.16a1.5 1.5 0 0 1 .18-1.9l8.92-8.92c.51-.5 1.3-.58 1.9-.18l8.14 5.42a27.62 27.62 0 0 1 6.52-2.33l.25-.06 1.27-9.78Zm2.8 1.7-1.23 9.47c-.08.6-.5 1.1-1.1 1.26l-1.29.34c-2.47.66-4.48 1.19-6.47 2.45-.5.32-1.14.3-1.64-.02l-7.9-5.26-7.17 7.18 5.26 7.9c.32.47.34 1.08.05 1.58-1.31 2.27-1.94 4.58-2.72 7.42l-.1.4a1.5 1.5 0 0 1-1.26 1.09L6 41.04v10.84l9.27 1.26c.6.08 1.09.51 1.24 1.1.82 3 1.52 5.45 3.01 7.81.32.51.3 1.16-.04 1.66l-5.25 7.58 7.2 7.66 7.86-5.44a1.5 1.5 0 0 1 1.6-.06 32 32 0 0 0 7.88 3.04 1.5 1.5 0 0 1 1.09 1.25L41.05 87h10.9l1.2-9.26c.07-.6.5-1.1 1.08-1.25 2.9-.8 5.59-1.83 8-3.35a1.5 1.5 0 0 1 1.72.08l7.35 5.7 7.62-7.62-5.7-7.35a1.5 1.5 0 0 1-.1-1.67 34.58 34.58 0 0 0 3.37-8.05 1.5 1.5 0 0 1 1.25-1.09L87 51.95v-10.9l-9.26-1.2a1.5 1.5 0 0 1-1.25-1.08 29.18 29.18 0 0 0-3.35-8 1.5 1.5 0 0 1 .08-1.72l5.7-7.35-7.62-7.62-7.35 5.7a1.5 1.5 0 0 1-1.67.1 33.66 33.66 0 0 0-8-3.37 1.5 1.5 0 0 1-1.09-1.23L51.9 6H41.04Z"/></svg>