<svg aria-hidden="true" class="svg-spot spotGlobeLg" width="96" height="96" viewBox="0 0 96 96"><circle opacity=".2" cx="51.5" cy="52.5" r="41.5"/><path d="M52.58 91.7a43.5 43.5 0 1 0-10.22 0 16.72 16.72 0 0 0 10.22 0ZM46 88.98c-1-.03-2-.1-2.98-.22-4.48-1.49-8.78-5.18-12.32-10.83a45.66 45.66 0 0 1-4.02-8.23A58.94 58.94 0 0 1 46 66.02v22.95Zm3 0V66.02a58.4 58.4 0 0 1 18.64 3.48 45.97 45.97 0 0 1-3.88 8.47c-3.35 5.64-7.47 9.31-11.84 10.8-.96.1-1.94.17-2.92.2Zm0-25.95V50h21.98a65.7 65.7 0 0 1-2.43 16.64A61.45 61.45 0 0 0 49 63.02Zm11.57 23.83c4.1-3.86 7.51-9.5 9.86-16.23a47.8 47.8 0 0 1 7.81 4.25 40.56 40.56 0 0 1-17.67 11.98Zm10.78-19.1A68.63 68.63 0 0 0 73.98 50h14a40.3 40.3 0 0 1-7.86 22.51 50.81 50.81 0 0 0-8.77-4.76Zm-45.64-.9A61.6 61.6 0 0 1 23.01 50H46v13.02a61.98 61.98 0 0 0-20.29 3.83ZM20.01 50a64.55 64.55 0 0 0 2.91 17.98 49.84 49.84 0 0 0-8.1 4.45A40.3 40.3 0 0 1 7.02 50h13Zm14.03 36.71A40.57 40.57 0 0 1 16.7 74.79a46.85 46.85 0 0 1 7.22-3.97c2.47 6.58 5.98 12.08 10.13 15.9ZM23.02 47a59.53 59.53 0 0 1 2.71-16.72A61.74 61.74 0 0 0 46 33.98V47H23.02Zm.93-20.68a43.79 43.79 0 0 1-7.27-4.09 40.54 40.54 0 0 1 18.9-12.45c-4.8 3.64-8.86 9.4-11.63 16.54Zm2.78 1.13a42.95 42.95 0 0 1 3.95-7.83C34.98 12.98 40.43 9.16 46 8.58v22.4a58.67 58.67 0 0 1-19.27-3.53ZM49 30.98V8.58c5.5.58 10.72 4.36 14.79 10.98a43.29 43.29 0 0 1 3.86 8.2A64.3 64.3 0 0 1 49 30.98Zm0 3c6.9-.15 13.6-1.37 19.57-3.36A63.61 63.61 0 0 1 70.98 47H49V33.98Zm22.4-4.38a50.53 50.53 0 0 0 9.1-4.59A40.3 40.3 0 0 1 87.97 47H73.98a66.55 66.55 0 0 0-2.59-17.4Zm-.93-2.86C67.84 19.34 63.89 13.4 59.1 9.7a40.54 40.54 0 0 1 19.56 12.94 47.66 47.66 0 0 1-8.2 4.11ZM14.8 24.6a46.78 46.78 0 0 0 8.13 4.56A62.49 62.49 0 0 0 20.02 47h-13a40.3 40.3 0 0 1 7.8-22.41Z"/></svg>