<svg aria-hidden="true" class="svg-spot spotGlobe" width="48" height="48" viewBox="0 0 48 48"><circle opacity=".2" cx="25.5" cy="25.5" r="20.5"/><path d="M23.8 45a9.25 9.25 0 0 0 1.13-.05 21.5 21.5 0 1 0-1.13.05Zm8.35-4.02a20.76 20.76 0 0 0 3.8-6.29c.88.43 1.7.89 2.45 1.4a19.57 19.57 0 0 1-6.25 4.89ZM43 24a19.4 19.4 0 0 1-3.38 10.49 22.6 22.6 0 0 0-2.98-1.7A31.13 31.13 0 0 0 38 24h5ZM16.6 41.74a19.54 19.54 0 0 1-8.08-5.76 21.6 21.6 0 0 1 3.35-1.77 20.28 20.28 0 0 0 4.72 7.53Zm-5.37-9.43a23.2 23.2 0 0 0-3.9 2.06A19.4 19.4 0 0 1 4 24h6c.04 2.95.47 5.76 1.21 8.3ZM23 42.93c-2.62-.37-5.18-2.18-7.22-5.32a21.1 21.1 0 0 1-2.05-4.1A30.52 30.52 0 0 1 23 32v10.92ZM23 30a32.8 32.8 0 0 0-9.9 1.6A29.35 29.35 0 0 1 12 24h11v6Zm2-6h11a29.19 29.19 0 0 1-1.22 8A31.65 31.65 0 0 0 25 30.05V24Zm0 18.93V32.04c3.34.16 6.43.83 9.12 1.86a20.83 20.83 0 0 1-1.9 3.71c-2.04 3.14-4.6 4.95-7.22 5.32ZM37.97 22a30.5 30.5 0 0 0-1.6-8.57c1-.44 1.95-.94 2.83-1.5A19.4 19.4 0 0 1 42.94 22h-4.97Zm-4.18-9.68c-2.61.93-5.6 1.52-8.79 1.65v-9.9c2.62.37 5.18 2.18 7.22 5.32.58.89 1.1 1.87 1.57 2.93ZM25 15.97c3.42-.13 6.66-.76 9.52-1.79A28.5 28.5 0 0 1 35.96 22H25v-6.03ZM23 16v6H12.04c.13-2.74.61-5.3 1.37-7.59A32.5 32.5 0 0 0 23 16Zm0-2a30.5 30.5 0 0 1-8.89-1.45c.49-1.15 1.05-2.2 1.67-3.15 2.04-3.14 4.6-4.95 7.22-5.32V14Zm-11.47-.27a30.62 30.62 0 0 0-1.5 8.28H4.06a19.4 19.4 0 0 1 3.81-10.17c1.12.71 2.34 1.34 3.66 1.89Zm-2.36-3.44a19.53 19.53 0 0 1 7.41-5.02 19.7 19.7 0 0 0-4.35 6.58c-1.1-.46-2.13-.98-3.06-1.56Zm26.48 1.29a20.3 20.3 0 0 0-3.5-5.55 19.57 19.57 0 0 1 5.77 4.36 22 22 0 0 1-2.27 1.19Z"/></svg>