<svg aria-hidden="true" class="svg-spot spotHeadset" width="48" height="48" viewBox="0 0 48 48"><path d="M33.8 7.06a19.9 19.9 0 0 0-8.42-2.4 19.57 19.57 0 0 0-8.57 1.62c-.2.14-.25.37-.12.6l2.25 3.97c.12.19.4.34.65.34a.7.7 0 0 0 .17-.03c.53-.12 3.52-.8 5.4-.72 1.9.09 4.89 1.07 5.32 1.22l.11.03c.23.03.52-.05.66-.28l2.61-3.74c.14-.22.12-.46-.07-.61ZM8 39.52c0 2.24 1.8 4.06 4 4.06 1.11 0 2.04-.93 2.04-2v-9.53c0-1.12-.93-2.05-2.03-2.05A4.04 4.04 0 0 0 8 34.06v5.46Zm32.03 4.06c2.2 0 4-1.82 4-4.06v-5.46c0-2.24-1.8-4.06-4-4.06-1.1 0-2.03.93-2.03 2.05v9.52c0 1.08.92 2 2.03 2ZM23 48h4a2 2 0 0 0 0-4h-4a2 2 0 0 0 0 4Z" opacity=".2"/><path d="M13.66 5.54C8.04 8.6 4 14.24 4 21v12h1v-1.11A4.94 4.94 0 0 1 9.98 27 3 3 0 0 1 13 29.97v9.1A3 3 0 0 1 9.98 42a4.97 4.97 0 0 1-4.9-4H3.33C1.93 38 1 36.77 1 35.5c0-.8.37-1.59 1-2.06V21C2 9.34 12.57 1 23.5 1S45 9.34 45 21v11.44c.63.47 1 1.26 1 2.06 0 1.27-.94 2.5-2.33 2.5H42v.11a4.89 4.89 0 0 1-3.07 4.52A1 1 0 0 1 39 42a2.88 2.88 0 0 1-3 3h-8.17A3 3 0 0 1 25 47h-4a3 3 0 0 1 0-6h4a3 3 0 0 1 2.83 2H36c.46 0 .66-.16.78-.3.14-.2.22-.46.22-.7a3 3 0 0 1-3-2.92v-9.11A3 3 0 0 1 37.02 27 4.94 4.94 0 0 1 42 31.89V32h1V21c0-6.51-3.75-11.97-9.04-15.1a1 1 0 0 1-.03.05l-1.16 1.68c2.42 1.57 4.44 3.1 5.87 5.16C40.22 15.1 41 17.93 41 22a1 1 0 1 1-2 0c0-3.8-.72-6.2-2.01-8.07-1.2-1.74-2.96-3.1-5.36-4.66l-.71 1.04a1 1 0 0 1-1.17.37c-1.83-.68-3.7-.94-5.82-.94-2.1 0-4 .3-5.84.94a1 1 0 0 1-1.15-.38l-.98-1.41c-2.7 1.73-4.65 3.16-5.95 5.04C8.72 15.8 8 18.2 8 22a1 1 0 1 1-2 0c0-4.07.78-6.91 2.36-9.2 1.54-2.23 3.78-3.84 6.47-5.56l-1.15-1.67a1 1 0 0 1-.02-.03Zm1.82-.89 2.68 3.9a19.7 19.7 0 0 1 5.77-.81c2.03 0 3.91.22 5.77.8l2.49-3.59A20.53 20.53 0 0 0 23.5 3c-2.79 0-5.52.59-8.02 1.65ZM25 43h-4a1 1 0 0 0 0 2h4a1 1 0 0 0 0-2ZM7 31.89v5.22A2.94 2.94 0 0 0 9.98 40c.59 0 1.02-.48 1.02-.92v-9.11A1 1 0 0 0 9.98 29 2.94 2.94 0 0 0 7 31.89ZM5 35H3.33c-.05 0-.12.02-.2.1a.6.6 0 0 0-.13.4c0 .17.06.31.14.4.07.08.14.1.2.1H5v-1Zm35-3.11A2.94 2.94 0 0 0 37.02 29a1 1 0 0 0-1.02.97v9.1c0 .45.43.93 1.02.93A2.94 2.94 0 0 0 40 37.11V31.9ZM42 35h1.67c.05 0 .12-.02.2-.1a.6.6 0 0 0 .13-.4.6.6 0 0 0-.14-.4c-.07-.08-.14-.1-.2-.1H42v1Z"/></svg>