<svg aria-hidden="true" class="svg-spot spotHeadsetLg" width="96" height="96" viewBox="0 0 96 96"><path d="M67.37 12.9A38.67 38.67 0 0 0 50.8 9a38.02 38.02 0 0 0-16.47 3.9c-.38.3-.44.74-.19 1.2l4.74 7.49c.24.35.79.61 1.29.6.1-.01.21-.04.32-.07 1.01-.29 6.76-1.88 10.4-1.88 3.7 0 9.6 1.65 10.45 1.9.07.02.14.04.22.04.44.05 1-.15 1.25-.6l4.73-7.49c.26-.44.2-.9-.18-1.18ZM19 77.5a7.84 7.84 0 0 0 7.79 7.88 3.98 3.98 0 0 0 3.93-3.9v-18.5A4 4 0 0 0 26.8 59a7.84 7.84 0 0 0-7.8 7.89v10.6Zm57.94 6.88c4.3 0 7.78-3.54 7.78-7.89V65.9a7.84 7.84 0 0 0-7.78-7.9A4 4 0 0 0 73 61.99v18.5a3.98 3.98 0 0 0 3.94 3.89ZM49 92h6a3 3 0 0 0 0-6h-6a3 3 0 0 0 0 6Z" opacity=".2"/><path d="M54.5 12a1.5 1.5 0 1 0 0-3 1.5 1.5 0 0 0 0 3ZM50 10.5a1.5 1.5 0 1 1-3 0 1.5 1.5 0 0 1 3 0ZM42.5 12a1.5 1.5 0 1 0 0-3 1.5 1.5 0 0 0 0 3ZM11 43.69a37.1 37.1 0 0 1 19.3-32.54l1.99 2.93C20.7 19.81 13.95 30.6 13.95 44.57a1.5 1.5 0 0 0 3 0c0-13 6.27-22.8 17-27.96l.05-.02 1.66 2.44c.38.57 1.1.8 1.74.57a34.63 34.63 0 0 1 11.47-1.97c4.03 0 7.94.63 11.45 1.96.66.25 1.4 0 1.79-.58l1.33-2.06c10.35 5.35 16.59 14.92 16.59 27.62a1.5 1.5 0 0 0 3 0c0-13.74-6.78-24.26-17.95-30.14l1.99-3.06A37.8 37.8 0 0 1 75 17.41a36.77 36.77 0 0 1 11 26.28V64h-3v-1.23c0-5.26-4.7-9.27-10.13-9.27-3.06 0-5.87 2.31-5.87 5.43v18.23c0 3.05 2.83 5.34 5.87 5.34.2 0 .4 0 .59-.02-.07.39-.21.77-.4 1.06-.28.43-.5.46-.56.46H54.74a4.5 4.5 0 0 0-4.24-3h-6a4.5 4.5 0 0 0 0 9h6a4.5 4.5 0 0 0 4.24-3H72.5a3.7 3.7 0 0 0 3.07-1.83c.6-.92.93-2.08.93-3.17v-.03a1.78 1.78 0 0 0 0-.09c3.74-1.32 6.5-4.62 6.5-8.65V73h4.33c2.46 0 4.17-2.19 4.17-4.5 0-1.74-.97-3.41-2.5-4.13V43.69c0-11.12-4.5-21.1-11.88-28.41A40.39 40.39 0 0 0 48.5 3.5C26.1 3.5 8 21.45 8 43.69v20.48a4.5 4.5 0 0 0-3 4.33C5 70.81 6.7 73 9.17 73H13v.23c0 5.26 4.7 9.27 10.13 9.27 3.04 0 5.87-2.3 5.87-5.34V58.93c0-3.12-2.8-5.43-5.87-5.43C17.7 53.5 13 57.51 13 62.77V64h-2V43.69ZM37.5 16.4 33 9.8a37.72 37.72 0 0 1 15.5-3.3 37.5 37.5 0 0 1 15.89 3.49l-4.16 6.39a37.63 37.63 0 0 0-22.73.03Zm14.25 68.26a1.5 1.5 0 0 0 0 1.66c-.27.4-.73.67-1.25.67h-6a1.5 1.5 0 0 1 0-3h6c.52 0 .98.27 1.25.67ZM23.13 56.5c1.7 0 2.87 1.26 2.87 2.43v18.23c0 1.06-1.14 2.34-2.87 2.34-4.08 0-7.13-2.96-7.13-6.27V62.77c0-3.31 3.05-6.27 7.13-6.27ZM9.17 67H13v3H9.17C8.69 70 8 69.5 8 68.5S8.69 67 9.17 67ZM70 58.93c0-1.17 1.16-2.43 2.87-2.43 4.08 0 7.13 2.96 7.13 6.27v10.46c0 3.31-3.05 6.27-7.13 6.27-1.73 0-2.87-1.28-2.87-2.34V58.93ZM83.5 70v-3h3.83c.48 0 1.17.5 1.17 1.5s-.69 1.5-1.17 1.5H83.5Z"/></svg>