<svg aria-hidden="true" class="svg-spot spotHeadsetXL" width="196" height="196" viewBox="0 0 196 196"><path opacity=".07" d="M27.5 156.5c-18-18-12.1-77-12.1-77S21.5 31.5 78 16c38.09-10.45 54.82-5.6 80.5 30s30.1 78.33 14.47 105.62C157.33 178.9 142.44 181.34 92.5 179s-51.85-9.35-65-22.5z"/><path d="M121.83 55.78l-.22-.14A47.32 47.32 0 00101.56 51a46.51 46.51 0 00-20.14 4.77c-.47.36-.54.91-.23 1.46l5.79 9.17c.3.43.96.76 1.58.73.13 0 .26-.04.39-.08 1.24-.35 8.27-2.3 12.73-2.3 4.53 0 11.74 2.02 12.78 2.32l.27.06c.54.06 1.23-.19 1.53-.73l5.8-9.17c.3-.55.23-1.1-.23-1.45zM62 133.43c0 5.28 4.47 9.57 9.96 9.57 2.75 0 5.04-2.2 5.04-4.73v-22.43a4.98 4.98 0 00-5.04-4.84c-5.5 0-9.96 4.29-9.96 9.57v12.86zm72.04 9.57c5.5 0 9.96-4.29 9.96-9.57v-12.86c0-5.28-4.47-9.57-9.96-9.57a4.98 4.98 0 00-5.04 4.84v22.43c0 2.53 2.29 4.73 5.04 4.73zm-35.29 9h7.5c2.07 0 3.75-1.57 3.75-3.5s-1.68-3.5-3.75-3.5h-7.5c-2.07 0-3.75 1.57-3.75 3.5s1.68 3.5 3.75 3.5z" opacity=".2"/><path d="M152 26.5l-8.5-8.5-8.5 8.5 8.5 8.5 8.5-8.5zm-8.5 2.83l-2.83-2.83 2.83-2.83 2.83 2.83-2.83 2.83zM94 53a2 2 0 11-4 0 2 2 0 014 0zm5 2a2 2 0 100-4 2 2 0 000 4zm9-2a2 2 0 11-4 0 2 2 0 014 0zm-31.41.62A45.68 45.68 0 0053 93.72V118h2v-1.43C55 110.1 60.44 105 66.96 105a6.98 6.98 0 017.04 6.84v22.43c0 3.74-3.3 6.73-7.04 6.73-6.52 0-11.96-5.1-11.96-11.57V129h-4.67a5.42 5.42 0 01-5.33-5.5c0-2.5 1.65-4.71 4-5.33V93.72C49 66.22 71.11 44 98.5 44c13.7 0 25.99 5.53 35 14.58A49.5 49.5 0 01148 93.72v24.98a6.1 6.1 0 013 5.3c0 3.14-2.38 6-5.67 6H140a11.55 11.55 0 01-6.62 9.79c.08.22.13.46.13.71 0 1.45-.53 3-1.49 4.22a5.7 5.7 0 01-4.51 2.28h-22.08a5.2 5.2 0 01-4.67 3h-6.5c-3.03 0-5.25-2.6-5.25-5.5s2.22-5.5 5.25-5.5h6.5c2.5 0 4.44 1.76 5.05 4h21.7c.51 0 .97-.24 1.36-.74.32-.4.52-.9.6-1.34-.47.05-.94.08-1.42.08-3.75 0-7.04-2.99-7.04-6.73v-22.43a6.98 6.98 0 017.04-6.84c6.52 0 11.96 5.1 11.96 11.57V118h4V93.72c0-12.65-5.05-24-13.34-32.32a45.98 45.98 0 00-9.08-7.09l-2.33 3.59C132.88 65.13 140 78.5 140 95a2 2 0 11-4 0c0-15.36-6.59-27.32-18.94-33.73l-1.28 1.96a2 2 0 01-2.38.78 39.47 39.47 0 00-13.94-2.39c-4.88 0-9.66.87-13.99 2.4a2 2 0 01-2.32-.76l-1.57-2.32C69.12 67.1 62 78.64 62 94a2 2 0 01-4 0c0-16.58 7.71-29.45 21.3-36.4l-2.71-3.98zm3.62-1.79l5.4 7.93a46.2 46.2 0 0127.68-.03l4.75-7.32A44.99 44.99 0 0098.5 48c-6.5 0-12.7 1.37-18.3 3.83zM51 122h-.67c-.64 0-1.33.58-1.33 1.5s.69 1.5 1.33 1.5H55v-3h-4zm8-5.43v12.86c0 4.1 3.5 7.57 7.96 7.57 1.75 0 3.04-1.4 3.04-2.73v-22.43c0-1.46-1.32-2.84-3.04-2.84-4.47 0-7.96 3.47-7.96 7.57zm77 0c0-4.1-3.5-7.57-7.96-7.57-1.72 0-3.04 1.38-3.04 2.84v22.43c0 1.32 1.29 2.73 3.04 2.73 4.47 0 7.96-3.47 7.96-7.57v-12.86zm4 9.43h5.33c.76 0 1.67-.73 1.67-2s-.9-2-1.67-2H140v4zm-45.75 17c-.55 0-1.25.53-1.25 1.5s.7 1.5 1.25 1.5h6.5c.55 0 1.25-.53 1.25-1.5s-.7-1.5-1.25-1.5h-6.5zM39 160a2 2 0 012 2v4h4a2 2 0 110 4h-4v4a2 2 0 11-4 0v-4h-4a2 2 0 110-4h4v-4c0-1.1.9-2 2-2zm138-23l4 4-4 4-4-4 4-4z"/></svg>