<svg aria-hidden="true" class="svg-spot spotHealthXL" width="196" height="196" viewBox="0 0 196 196"><path opacity=".07" d="M6.25 97.74c1.02 11.52 2.86 32.33 12.85 45.86.9 1.22 1.9 2.64 2.98 4.2 10.12 14.5 29.05 41.67 71.23 43.9 46.73 2.49 63.82-13.07 78.26-37.84 14.43-24.76 29.87-74.7 6.7-114.12C155.12.32 48.97-.5 26.34 30.07 3.7 60.64 5 84.34 6 95l.25 2.74Zm98.84-23.32a36.19 36.19 0 0 1 33.94-29.4c33.52 0 38.97 23.35 38.97 41.7 0 33.16-43.03 64.46-61.83 78.12-1.05.76-2.02 1.47-2.9 2.13a13.67 13.67 0 0 1-17.19 0l-1-.72c-18.87-13.37-63.73-45.14-63.73-79.54a36.56 36.56 0 0 1 9.18-29.64 36.96 36.96 0 0 1 28.74-12.04 38.5 38.5 0 0 1 35.82 29.39Z"/><path d="m66.5 3 8.5 8.5-8.5 8.5-8.5-8.5L66.5 3Zm-2.83 8.5 2.83 2.83 2.83-2.83-2.83-2.83-2.83 2.83Zm58.88 59.22.02-.07s.04-.02.09-.02h.08l.04.07 9.47 27.52a4.11 4.11 0 0 0 3.89 2.78H152v-4h-15.86a.11.11 0 0 1-.1-.08l-9.48-27.52c-1.4-4.06-7.3-3.54-7.96.7l-4.2 26.8a.1.1 0 0 1-.1.1H98.22a4.11 4.11 0 0 0-4.06 3.46L90.1 125.7c0 .05-.02.07-.02.07s-.03.03-.08.03a.17.17 0 0 1-.1-.01l-.02-.07-16.42-53.56a4.11 4.11 0 0 0-7.75-.31l-9.99 25.08a.11.11 0 0 1-.1.07H42v4h13.62c1.68 0 3.2-1.03 3.82-2.6l9.98-25.07a.19.19 0 0 1 .03-.06l.08-.02c.05 0 .07.02.08.02v.01l.03.05 16.41 53.56c1.28 4.17 7.3 3.75 8-.55l4.06-25.24c0-.06.06-.1.11-.1h16.08a4.11 4.11 0 0 0 4.06-3.48l4.2-26.8ZM30.44 45.86c6.9-8.2 17.05-13.31 29.9-12.83h.01c9.19.4 18.23 5.07 25.1 10.95 4.4 3.76 8.1 8.18 10.4 12.51.29-.07.6-.12.9-.1a46.04 46.04 0 0 1 9.5-12.34c6.3-5.9 14.67-10.6 23.69-11.02a2.16 2.16 0 0 1 .1 0c17.28 0 27.7 6.06 33.7 14.84 5.9 8.63 7.26 19.55 7.26 28.85 0 18.36-12.52 35.85-26.67 50.05-12.71 12.77-27.12 23.25-35.98 29.7-1.04.74-2 1.44-2.87 2.08-2.93 2.36-6.9 3.45-10.74 3.45-3.83 0-7.8-1.09-10.74-3.44-9.13-6.47-24.67-17.74-38.13-31.88C32.44 112.58 20.77 95.3 20 76.8v-.08c0-11.57 3.57-22.7 10.44-30.86Zm63.8 17.94c-.71-4.79-4.95-11.28-11.39-16.78-6.44-5.51-14.65-9.65-22.66-10-11.6-.43-20.57 4.14-26.7 11.41-6.14 7.32-9.48 17.48-9.49 28.25.72 16.98 11.53 33.34 24.77 47.24 13.2 13.86 28.5 24.96 37.6 31.41l.1.08c2.06 1.67 5.1 2.59 8.27 2.59s6.2-.92 8.27-2.59l.07-.06 2.9-2.11.02-.02c8.88-6.46 23.02-16.74 35.5-29.27 14.03-14.1 25.5-30.58 25.5-47.23 0-9.04-1.36-18.97-6.56-26.6-5.1-7.47-14.15-13.08-30.36-13.09-7.76.37-15.24 4.47-21.1 9.94-5.9 5.5-9.85 12.12-10.78 17.08a2.1 2.1 0 0 1-.27.7c-.07.1-.28.34-.42.47-.22.16-.8.4-1.15.46a3.5 3.5 0 0 1-1.3-.37c-.16-.14-.41-.4-.5-.52a3.57 3.57 0 0 1-.23-.5l-.01-.02a2.63 2.63 0 0 1-.09-.47ZM52 172a2 2 0 1 0-4 0v4h-4a2 2 0 1 0 0 4h4v4a2 2 0 1 0 4 0v-4h4a2 2 0 1 0 0-4h-4v-4Zm113-10-4 4 4 4 4-4-4-4Z"/><path opacity=".2" d="M139.03 45.03a36.19 36.19 0 0 0-33.94 29.39c0 1.25 0 1.25 0 0a38.5 38.5 0 0 0-35.82-29.4 37 37 0 0 0-28.74 12.05 36.56 36.56 0 0 0-9.18 29.64c0 35.02 46.5 67.33 64.73 80.26a13.7 13.7 0 0 0 17.18 0C130.02 154.66 178 121.72 178 86.7c0-18.34-5.45-41.68-38.97-41.68Z"/></svg>