<svg aria-hidden="true" class="svg-spot spotHealthLg" width="96" height="96" viewBox="0 0 96 96"><path opacity=".2" d="M71.32 20.71a20.2 20.2 0 0 0-18.88 16.54c0 .7 0 .7 0 0A21.48 21.48 0 0 0 32.51 20.7a20.45 20.45 0 0 0-15.98 6.78 20.73 20.73 0 0 0-5.11 16.67c0 19.7 25.87 37.88 36.01 45.15a7.54 7.54 0 0 0 9.56 0C66.3 82.4 93 63.87 93 44.16c0-10.32-3.03-23.45-21.68-23.45Z"/><path d="M9.8 20.42c3.88-4.73 9.65-7.68 17.05-7.4 8.7.38 16.4 6.33 19.86 13.58 3.31-7.18 10.25-13.18 18.82-13.58h.07c9.72 0 15.7 3.45 19.18 8.5C88.18 26.47 89 32.7 89 37.97c0 10.49-7.12 20.42-15.06 28.43C66.88 73.52 58.9 79.37 53.95 83l-1.77 1.3a9.04 9.04 0 0 1-11.38.01l-.74-.52c-5.17-3.7-13.82-9.9-21.33-17.53C10.9 58.29 4 48.45 4 37.97m5.8-17.55C5.94 25.1 4 31.46 4 37.97Zm2.31 1.9C8.78 26.38 7 32.02 7 37.97c0 9.23 6.14 18.33 13.87 26.19 7.32 7.44 15.78 13.5 20.97 17.21a1190.76 1190.76 0 0 1 .82.6 6.04 6.04 0 0 0 7.71-.05l1.82-1.34c4.96-3.65 12.74-9.36 19.62-16.3C79.66 56.37 86 47.18 86 37.98c0-5.06-.8-10.55-3.7-14.76-2.8-4.08-7.76-7.2-16.67-7.2-8.52.42-15.46 7.53-17.46 15.4a1.5 1.5 0 0 1-2.91-.02c-1.85-7.77-9.68-15-18.53-15.38-6.44-.25-11.32 2.29-14.62 6.3ZM61.5 34.06l-2.38 13.86A2.5 2.5 0 0 1 56.66 50h-8.87l-2.24 14.88c-.4 2.63-4.08 2.9-4.86.37l-9.22-29.97-5.33 13.16A2.5 2.5 0 0 1 23.83 50H16v-3h7.49l5.73-14.15a2.5 2.5 0 0 1 4.7.2l8.99 29.22 1.98-13.14A2.5 2.5 0 0 1 47.36 47h8.88l2.65-15.38c.44-2.56 4-2.83 4.83-.38L69.07 47H78v3h-9.28a2.5 2.5 0 0 1-2.37-1.7L61.5 34.06Z"/></svg>