<svg aria-hidden="true" class="svg-spot spotHeartLg" width="96" height="96" viewBox="0 0 96 96"><path d="M70.43 12.47a2.04 2.04 0 0 0-.91-2.7 1.95 1.95 0 0 0-2.64.93l-2.33 4.91a2.06 2.06 0 0 0 .91 2.71c.98.49 2.16.07 2.64-.94l2.33-4.91Zm-45.96-.27a2 2 0 0 0-.92 2.67l2.35 4.85a2 2 0 0 0 3.6-1.75l-2.35-4.84a2 2 0 0 0-2.68-.93ZM10.6 18.72a2 2 0 1 1 3.03-2.62l7.05 8.14a2 2 0 0 1-3.03 2.62l-7.05-8.14ZM5.1 29.86a2 2 0 0 0 .78 2.71l6.06 3.36a2 2 0 1 0 1.94-3.5l-6.06-3.36a2 2 0 0 0-2.72.79Zm57.65 3.34A12.35 12.35 0 0 0 51.2 43.3a13.13 13.13 0 0 0-12.18-10.1 12.5 12.5 0 0 0-9.78 4.14 12.67 12.67 0 0 0-3.12 10.2c0 12.17 13.22 21.3 22.02 27.6a4.61 4.61 0 0 0 5.84 0C59.68 70.91 76 59.58 76 47.54c0-6.31-1.85-14.34-13.25-14.34Zm25.23-1.63a2.05 2.05 0 0 0 .78-2.74 1.95 1.95 0 0 0-2.69-.77l-5.93 3.36a2.05 2.05 0 0 0-.8 2.75 1.95 1.95 0 0 0 2.7.77l5.94-3.37ZM83.15 14.8c.82.72.9 2 .18 2.84l-7.04 8.24c-.72.85-1.97.95-2.8.22-.82-.72-.9-2-.18-2.84l7.04-8.24a1.97 1.97 0 0 1 2.8-.23ZM7.1 64.14a2 2 0 0 1 .78-2.71l6.06-3.36a2 2 0 1 1 1.94 3.5l-6.06 3.36a2 2 0 0 1-2.72-.79Zm5.5 12.14a2 2 0 1 0 3.03 2.62l7.05-8.14a2 2 0 0 0-3.03-2.62l-7.05 8.14Zm13.83 7.89a2 2 0 0 1-.93-2.68l2.35-4.84a2 2 0 0 1 3.6 1.74l-2.35 4.85a2 2 0 0 1-2.67.93Zm61.69-23.74a2 2 0 0 1-1.94 3.5l-6.06-3.36a2 2 0 0 1 1.94-3.5l6.06 3.36Zm-4.2 16.97a2 2 0 0 0-.02-2.82l-7.66-7.56a2 2 0 0 0-2.8 2.85l7.66 7.55a2 2 0 0 0 2.82-.02ZM70.5 80.5a2 2 0 0 1-3.6 1.74l-2.35-4.85a2 2 0 1 1 3.6-1.74l2.35 4.84Z" opacity=".2"/><path d="M59.28 31.01c-4.9.25-8.95 4.36-10.12 8.98a1.5 1.5 0 0 1-2.92-.02c-1.07-4.51-5.65-8.74-10.78-8.96a10 10 0 0 0-8.47 3.64c-1.93 2.36-2.99 5.67-2.99 9.2 0 5.4 3.6 10.82 8.31 15.6 2.7 2.75 5.7 5.02 8.73 7.3 1.52 1.16 3.05 2.32 4.55 3.55a3.1 3.1 0 0 0 3.94 0c1.4-1.14 2.8-2.23 4.22-3.32a81.88 81.88 0 0 0 8.81-7.45C67.31 54.71 71 49.24 71 43.85c0-3.06-.46-6.27-2.1-8.7-1.55-2.3-4.34-4.13-9.62-4.14ZM21 43.85c0-4.1 1.22-8.11 3.68-11.1A13 13 0 0 1 35.57 28h.02c5.12.23 9.7 3.48 12.1 7.62 2.25-4.08 6.39-7.36 11.44-7.62h.16c6.08.01 9.9 2.2 12.1 5.47C73.53 36.65 74 40.6 74 43.85c0 6.66-4.47 12.88-9.3 17.79-2.88 2.92-6.2 5.47-9.32 7.88-1.37 1.05-2.7 2.08-3.95 3.1a6.11 6.11 0 0 1-7.74 0c-1.46-1.19-2.9-2.29-4.4-3.42l-2.32-1.76a65.42 65.42 0 0 1-6.8-5.88C25.37 56.66 21 50.5 21 43.86"/></svg>