<svg aria-hidden="true" class="svg-spot spotHeartXL" width="196" height="196" viewBox="0 0 196 196"><path opacity=".07" d="M6.25 97.74c1.02 11.52 2.86 32.33 12.85 45.86.9 1.22 1.9 2.64 2.98 4.2 10.12 14.5 29.05 41.67 71.23 43.9 46.73 2.49 63.82-13.07 78.26-37.84 14.43-24.76 29.87-74.7 6.7-114.12C155.12.32 48.97-.5 26.34 30.07 3.7 60.64 5 84.34 6 95l.25 2.74ZM73.1 55.02c6.44.28 12.72 3.54 17.47 7.6a31.54 31.54 0 0 1 6.94 8.18 32.27 32.27 0 0 1 6.36-8.11c4.36-4.08 10.18-7.37 16.52-7.67h.1c11.92 0 19.23 4.2 23.45 10.37C148.07 71.42 149 79 149 85.37c0 12.76-8.69 24.8-18.33 34.49-8.69 8.72-18.53 15.87-24.55 20.25l-1.94 1.41a12.44 12.44 0 0 1-7.7 2.48c-2.7 0-5.55-.77-7.69-2.47-6.21-4.4-16.82-12.1-26.01-21.74C53.6 110.16 45.53 98.27 45 85.45v-.08c0-8 2.47-15.71 7.25-21.4 4.82-5.73 11.92-9.28 20.86-8.95Z"/><path d="M142.53 31.79a3.5 3.5 0 1 0-6.29-3.06l-4.7 9.7a3.5 3.5 0 1 0 6.29 3.06l4.7-9.7Zm-89.22-.91a3.5 3.5 0 0 0-1.23 4.8l5.38 9.13a3.5 3.5 0 0 0 6.03-3.56l-5.38-9.13a3.5 3.5 0 0 0-4.8-1.24ZM25.6 45.53a3.5 3.5 0 1 1 4.85-5.05L46.42 55.8a3.5 3.5 0 0 1-4.84 5.05L25.6 45.53Zm101.9 18.49A24.61 24.61 0 0 0 104.4 84a26.19 26.19 0 0 0-24.37-19.98A25.15 25.15 0 0 0 60.5 72.2a24.86 24.86 0 0 0-6.25 20.16c0 23.38 30.51 44.99 43.35 54.08l.69.49a9.3 9.3 0 0 0 11.68 0c.6-.45 1.27-.93 1.98-1.44 12.79-9.3 42.06-30.58 42.06-53.13 0-12.48-3.7-28.35-26.5-28.35ZM17.39 70.49a3.5 3.5 0 0 0 1.53 4.7l12.32 6.29a3.5 3.5 0 0 0 3.18-6.24L22.1 68.96a3.5 3.5 0 0 0-4.71 1.53Zm159.67.17a3.5 3.5 0 0 0-3.4-6.12l-10.78 6.04a3.5 3.5 0 1 0 3.4 6.11l10.78-6.03Zm-7.96-33.82a3.5 3.5 0 0 1 .05 4.95l-15.44 15.88a3.5 3.5 0 1 1-5-4.89l15.44-15.88a3.5 3.5 0 0 1 4.94-.06ZM26.39 121.5a3.5 3.5 0 0 1 1.53-4.7l12.32-6.28a3.5 3.5 0 0 1 3.18 6.24l-12.32 6.28a3.5 3.5 0 0 1-4.71-1.53Zm8.21 23.97a3.5 3.5 0 0 0 4.85 5.05l15.97-15.32a3.5 3.5 0 0 0-4.84-5.05L34.6 145.47Zm27.88 14.94a3.5 3.5 0 0 1-1.04-4.84l5.68-8.76a3.5 3.5 0 1 1 5.87 3.8l-5.67 8.77a3.5 3.5 0 0 1-4.84 1.03Zm109.5-43.13a3.5 3.5 0 1 1-3.4 6.12l-12.1-6.7a3.5 3.5 0 1 1 3.4-6.12l12.1 6.7Zm-7.44 33.9a3.5 3.5 0 0 0 .07-4.95l-15.45-15.85a3.5 3.5 0 0 0-5.01 4.88l15.44 15.86a3.5 3.5 0 0 0 4.95.06Zm-27.14 3.75a3.5 3.5 0 0 1-6 3.6l-5.38-8.95a3.5 3.5 0 1 1 6-3.6l5.38 8.95Z" opacity=".2"/><path d="m66.5 3 8.5 8.5-8.5 8.5-8.5-8.5L66.5 3Zm-2.83 8.5 2.83 2.83 2.83-2.83-2.83-2.83-2.83 2.83Zm56.49 59.53c1.82-.15 4.58.24 6.82 1.8C129.11 74.3 131 76.99 131 82a2 2 0 0 0 4 0c0-6.2-2.44-10.16-5.73-12.46a14.97 14.97 0 0 0-9.43-2.5 2 2 0 0 0 .32 3.99Zm-67.91-7.06c4.82-5.73 11.92-9.28 20.86-8.95 6.44.28 12.72 3.54 17.47 7.6a31.54 31.54 0 0 1 6.94 8.18 32.27 32.27 0 0 1 6.36-8.11c4.36-4.08 10.18-7.37 16.52-7.67h.1c11.92 0 19.23 4.2 23.45 10.37C148.07 71.42 149 79 149 85.37c0 12.76-8.69 24.8-18.33 34.49-8.69 8.72-18.53 15.87-24.55 20.25l-1.94 1.41a12.44 12.44 0 0 1-7.7 2.48c-2.7 0-5.55-.77-7.69-2.47-6.21-4.4-16.82-12.1-26.01-21.74C53.6 110.16 45.53 98.27 45 85.45v-.08c0-8 2.47-15.71 7.25-21.4ZM95.5 76.66c-.45-3.03-3.2-7.31-7.52-11-4.31-3.69-9.77-6.41-15.03-6.64-7.68-.29-13.6 2.73-17.64 7.53-4.07 4.84-6.3 11.58-6.31 18.78.48 11.3 7.7 22.28 16.67 31.7 8.94 9.37 19.3 16.89 25.49 21.27l.1.08a8.45 8.45 0 0 0 5.22 1.62c2.05 0 3.96-.6 5.22-1.62l.03-.02.02-.01.03-.03 1.97-1.43.02-.02c6.04-4.4 15.62-11.36 24.07-19.84 9.53-9.56 17.16-20.6 17.16-31.66 0-6.1-.92-12.7-4.35-17.72-3.33-4.88-9.26-8.62-20.11-8.63-5.07.25-10.02 2.94-13.94 6.59-3.95 3.69-6.53 8.07-7.13 11.26a2.07 2.07 0 0 1-.28.7c-.07.1-.27.35-.41.47-.22.16-.8.4-1.16.46a3.5 3.5 0 0 1-1.29-.37c-.17-.13-.41-.4-.5-.52a3.6 3.6 0 0 1-.24-.5 3.72 3.72 0 0 1-.08-.4v-.05ZM52 172a2 2 0 1 0-4 0v4h-4a2 2 0 1 0 0 4h4v4a2 2 0 1 0 4 0v-4h4a2 2 0 1 0 0-4h-4v-4Zm117-6-4-4-4 4 4 4 4-4Z"/></svg>