<svg aria-hidden="true" class="svg-spot spotHeartXL" width="196" height="196" viewBox="0 0 196 196"><path opacity=".07" d="M19.1 143.6C8.26 128.9 7.01 105.66 6 95 4.99 84.34 3.7 60.64 26.33 30.07 48.98-.51 155.11.32 178.27 39.74c23.17 39.43 7.73 89.36-6.7 114.12-14.44 24.76-31.53 40.33-78.26 37.85-46.73-2.48-64.92-35.55-74.2-48.11z"/><path d="M142.53 31.79a3.5 3.5 0 10-6.29-3.06l-4.7 9.7a3.5 3.5 0 106.29 3.06l4.7-9.7zm-89.22-.91a3.5 3.5 0 00-1.23 4.8l5.38 9.13a3.5 3.5 0 006.03-3.56l-5.38-9.13a3.5 3.5 0 00-4.8-1.24zM25.6 45.53a3.5 3.5 0 114.85-5.05L46.42 55.8a3.5 3.5 0 01-4.84 5.05L25.6 45.53zm101.9 18.49A24.61 24.61 0 00104.4 84a26.19 26.19 0 00-24.37-19.98A25.15 25.15 0 0060.5 72.2a24.86 24.86 0 00-6.25 20.16c0 23.38 30.51 44.99 43.35 54.08l.69.49a9.3 9.3 0 0011.68 0c.6-.45 1.27-.93 1.98-1.44 12.79-9.3 42.06-30.58 42.06-53.13 0-12.48-3.7-28.35-26.5-28.35zM17.39 70.49a3.5 3.5 0 001.53 4.7l12.32 6.29a3.5 3.5 0 003.18-6.24L22.1 68.96a3.5 3.5 0 00-4.71 1.53zm159.67.17a3.5 3.5 0 00-3.4-6.12l-10.78 6.04a3.5 3.5 0 103.4 6.11l10.78-6.03zm-7.96-33.82a3.5 3.5 0 01.05 4.95l-15.44 15.88a3.5 3.5 0 11-5-4.89l15.44-15.88a3.5 3.5 0 014.94-.06zM26.39 121.5a3.5 3.5 0 011.53-4.7l12.32-6.28a3.5 3.5 0 013.18 6.24l-12.32 6.28a3.5 3.5 0 01-4.71-1.53zm8.21 23.97a3.5 3.5 0 004.85 5.05l15.97-15.32a3.5 3.5 0 00-4.84-5.05L34.6 145.47zm27.88 14.94a3.5 3.5 0 01-1.04-4.84l5.68-8.76a3.5 3.5 0 115.87 3.8l-5.67 8.77a3.5 3.5 0 01-4.84 1.03zm109.5-43.13a3.5 3.5 0 11-3.4 6.12l-12.1-6.7a3.5 3.5 0 113.4-6.12l12.1 6.7zm-7.44 33.9a3.5 3.5 0 00.07-4.95l-15.45-15.85a3.5 3.5 0 00-5.01 4.88l15.44 15.86a3.5 3.5 0 004.95.06zm-27.14 3.75a3.5 3.5 0 01-6 3.6l-5.38-8.95a3.5 3.5 0 116-3.6l5.38 8.95z" opacity=".2"/><path d="M66.5 3l8.5 8.5-8.5 8.5-8.5-8.5L66.5 3zm-2.83 8.5l2.83 2.83 2.83-2.83-2.83-2.83-2.83 2.83zm56.49 59.53c1.82-.15 4.58.24 6.82 1.8C129.11 74.3 131 76.99 131 82a2 2 0 004 0c0-6.2-2.44-10.16-5.73-12.46a14.97 14.97 0 00-9.43-2.5 2 2 0 00.32 3.99zm-67.91-7.06c4.82-5.73 11.92-9.28 20.86-8.95 6.44.28 12.72 3.54 17.47 7.6a31.54 31.54 0 016.94 8.18 32.27 32.27 0 016.36-8.11c4.36-4.08 10.18-7.37 16.52-7.67h.1c11.92 0 19.23 4.2 23.45 10.37C148.07 71.42 149 79 149 85.37c0 12.76-8.69 24.8-18.33 34.49-8.69 8.72-18.53 15.87-24.55 20.25l-1.94 1.41a12.44 12.44 0 01-7.7 2.48c-2.7 0-5.55-.77-7.69-2.47-6.21-4.4-16.82-12.1-26.01-21.74C53.6 110.16 45.53 98.27 45 85.45v-.08c0-8 2.47-15.71 7.25-21.4zM95.5 76.66c-.45-3.03-3.2-7.31-7.52-11-4.31-3.69-9.77-6.41-15.03-6.64-7.68-.29-13.6 2.73-17.64 7.53-4.07 4.84-6.3 11.58-6.31 18.78.48 11.3 7.7 22.28 16.67 31.7 8.94 9.37 19.3 16.89 25.49 21.27l.1.08a8.45 8.45 0 005.22 1.62c2.05 0 3.96-.6 5.22-1.62l.03-.02.02-.01.03-.03 1.97-1.43.02-.02c6.04-4.4 15.62-11.36 24.07-19.84 9.53-9.56 17.16-20.6 17.16-31.66 0-6.1-.92-12.7-4.35-17.72-3.33-4.88-9.26-8.62-20.11-8.63-5.07.25-10.02 2.94-13.94 6.59-3.95 3.69-6.53 8.07-7.13 11.26a2.07 2.07 0 01-.28.7c-.07.1-.27.35-.41.47-.22.16-.8.4-1.16.46a3.5 3.5 0 01-1.29-.37c-.17-.13-.41-.4-.5-.52a3.6 3.6 0 01-.24-.5 3.72 3.72 0 01-.08-.4v-.05zM52 172a2 2 0 10-4 0v4h-4a2 2 0 100 4h4v4a2 2 0 104 0v-4h4a2 2 0 100-4h-4v-4zm117-6l-4-4-4 4 4 4 4-4z"/></svg>