<svg aria-hidden="true" class="svg-spot spotHeart" width="48" height="48" viewBox="0 0 48 48"><path opacity=".2" d="M34.93 11a9.33 9.33 0 0 0-8.78 7.53c0 .32 0 .32 0 0a9.93 9.93 0 0 0-9.26-7.52 9.6 9.6 0 0 0-7.43 3.08 9.3 9.3 0 0 0-2.37 7.59c0 8.96 12.02 17.23 16.73 20.54a3.56 3.56 0 0 0 4.45 0C32.6 39.07 45 30.64 45 21.68 45 16.98 43.6 11 34.93 11Z"/><path d="M5.92 10.36a9.89 9.89 0 0 1 8.17-3.49h.01c3.83.17 7.22 2.29 9.06 5.47a10.43 10.43 0 0 1 8.76-5.47c4.6 0 7.48 1.62 9.15 4.07 1.62 2.37 1.97 5.32 1.97 7.74 0 4.97-3.37 9.6-7.01 13.25a76.36 76.36 0 0 1-10.02 8.2 4.64 4.64 0 0 1-5.77 0l-.48-.34a75.83 75.83 0 0 1-9.8-7.91c-3.67-3.64-7-8.23-7-13.2v-.04c.1-3.08 1.08-6.07 2.96-8.28ZM22.1 15.7A8.73 8.73 0 0 0 14 9.14a7.6 7.6 0 0 0-6.35 2.7 11.22 11.22 0 0 0-2.42 6.86c0 3.99 2.75 8 6.33 11.57a73.7 73.7 0 0 0 9.52 7.68l.5.35.06.04a2.37 2.37 0 0 0 3.01-.03l.75-.55c2.28-1.66 5.86-4.26 9.02-7.43 3.58-3.59 6.35-7.65 6.35-11.65 0-2.28-.35-4.66-1.57-6.46-1.17-1.7-3.27-3.07-7.25-3.08a8.13 8.13 0 0 0-7.64 6.76l-.04.12-.11.2c-.06.06-.21.22-.32.3a2 2 0 0 1-.7.17 2 2 0 0 1-.59-.22c-.08-.06-.2-.18-.24-.24a2 2 0 0 1-.14-.25 2.01 2.01 0 0 1-.06-.24v-.03l-.01-.01Z"/></svg>