<svg aria-hidden="true" class="svg-spot spotIdentityXL" width="196" height="196" viewBox="0 0 196 196"><path opacity=".07" d="M180 116s-1.64-84.07-12.32-89.61a110.63 110.63 0 0 1-9.18-5.5C147.58 13.87 136.91 7 97.36 5.14 47.4 2.8 38.07 16.6 22.43 43.9 6.8 71.18-7.8 125.79 17.88 161.39c20.6 28.56 51.15 26.82 82.83 25.02 7.8-.44 15.67-.89 23.47-.89C176.6 185.52 180 116 180 116ZM53 33h84a7 7 0 0 1 7 7v120a7 7 0 0 1-7 7H53a7 7 0 0 1-7-7V40a7 7 0 0 1 7-7Z"/><path opacity=".2" d="M144 137H58a4 4 0 0 0-4 4v26a4 4 0 0 0 4 4h81a9 9 0 0 0 9-9v-21a4 4 0 0 0-4-4Z"/><path d="M85 142a2 2 0 1 0 0 4h20a2 2 0 1 0 0-4H85Zm-12 10a2 2 0 1 0 0 4h44a2 2 0 1 0 0-4H73Zm3.82-126.62a2 2 0 0 1 2.8.44L84.85 33h20.26c.08-.21.19-.41.34-.6l5.41-6.66a2 2 0 0 1 3.1 2.52L110.13 33H137a7 7 0 0 1 7 7v120a7 7 0 0 1-7 7H53a7 7 0 0 1-7-7V40a7 7 0 0 1 7-7h26.9l-3.52-4.82a2 2 0 0 1 .44-2.8Zm11.5 19.18L82.82 37H53a3 3 0 0 0-3 3v89h9.91c.42-3.56 2.32-6.52 4.96-8.84 2.94-2.58 6.86-4.44 11-5.65l7.86-3.47.06-.02h.02l.03-.02.04-.02.06-.02a12.83 12.83 0 0 0 1.57-.81 4.83 4.83 0 0 0 1.1-.92v-4.15a20.6 20.6 0 0 1-4-5.97 14.27 14.27 0 0 1-1.03-4.95c-.18-.3-.4-.6-.68-1l-.13-.19c-.41-.58-.9-1.3-1.35-2.22-.91-1.88-1.55-4.37-1.55-8.34 0-5.08 2.1-9 5.3-11.62a17.91 17.91 0 0 1 11.3-3.81c4.03 0 8.15 1.23 11.3 3.8 3.2 2.62 5.3 6.55 5.3 11.63 0 2.72-.24 4.39-.78 5.95-.26.75-.57 1.43-.9 2.13l-.14.3c-.3.62-.61 1.29-.97 2.12-.14.32-.35.6-.6.8a19.43 19.43 0 0 1-.74 3.72 23.06 23.06 0 0 1-3.28 6.73l1.13 4.6a2 2 0 0 1 .06.43c0 .02.04.09.12.2.17.22.43.47.78.73 2.06 1.54 4.57 2.5 7.04 3.42 1.04.4 2.08.79 3.06 1.22 3.48 1.2 6.6 2.88 8.86 5.32a13.62 13.62 0 0 1 3.6 8.92H140V40a3 3 0 0 0-3-3H87.77l4.02 5.53A9.99 9.99 0 0 1 105 52a10 10 0 1 1-16.68-7.44ZM124.31 129a9.58 9.58 0 0 0-2.54-6.2c-1.66-1.8-4.12-3.19-7.3-4.28a2.4 2.4 0 0 1-.14-.06l-5.08-2.22a7.86 7.86 0 0 1-1.49 3.66 9.34 9.34 0 0 1-3.84 2.91c-2.85 1.24-6.36 1.51-9.23 1.51-2.94 0-6.1-.92-8.7-2.57a12.13 12.13 0 0 1-4.71-5.25l-3.93 1.73-.25.09c-3.81 1.1-7.2 2.75-9.6 4.85-1.93 1.7-3.16 3.64-3.55 5.83h60.36ZM50 160a3 3 0 0 0 3 3h84a3 3 0 0 0 3-3v-27H50v27ZM90.7 47.82a6 6 0 1 0 8.45-.15 2 2 0 0 1-.04.06l-1.45 1.97a3.47 3.47 0 0 1-2.8 1.47 3.47 3.47 0 0 1-2.78-1.47l-1.38-1.88Zm4.7-1.8a6.12 6.12 0 0 0-1.05.01l.52.72.54-.74Zm-9.7 27.86c-2.27 1.86-3.83 4.66-3.83 8.53 0 1.8.15 3.17.37 4.24a30.4 30.4 0 0 1 1.73-5.71c.35-.83.75-1.6 1.18-2.26.41-.63.93-1.27 1.58-1.72.37-.26 1-.67 1.76-.74a2.42 2.42 0 0 1 2.24 1.05c.23.32.43.75.52.96l.01.03.03.05c.12.27.24.52.41.78.56.87 2.14 2.66 8.07 3.53 3.26.48 5.5 2.1 6.75 4.4.33-.97.54-2.15.54-4.61 0-3.87-1.55-6.67-3.82-8.53-2.33-1.9-5.5-2.9-8.77-2.9-3.27 0-6.45 1-8.77 2.9Zm1.95 8.63a26.5 26.5 0 0 0-1.5 4.99 28.4 28.4 0 0 0-.6 5.64c.01 1.82.26 3.32.72 4.37.78 1.8 2.09 3.77 3.74 5.3 1.65 1.54 3.51 2.51 5.44 2.62 1 .05 2.47-.64 4.06-2.45a18.43 18.43 0 0 0 3.6-6.69c.75-2.54.84-4.9.23-6.62-.55-1.53-1.72-2.73-4.15-3.1-6.65-.97-9.46-3.16-10.85-5.32l-.04-.06c-.21.36-.43.8-.65 1.32Zm12.74 25.1a7.88 7.88 0 0 1-5.16 1.81c-1.67-.1-3.22-.58-4.62-1.3v1.23c0 1.2-.62 2.12-1.16 2.71a8.68 8.68 0 0 1-1.81 1.48 15.1 15.1 0 0 1-2.23 1.14l-.05.02-.02.01h-.03l-.37.18a8.1 8.1 0 0 0 3.2 3.49 12.67 12.67 0 0 0 6.55 1.94c2.75 0 5.57-.27 7.64-1.18 1-.44 1.74-.98 2.23-1.63.46-.63.78-1.46.78-2.67l.03-.3a12.82 12.82 0 0 1-2.02-1.23c-.5-.37-1.1-.88-1.57-1.5a4.4 4.4 0 0 1-.92-2.3l-.47-1.9Zm-13.76 1.58ZM26.5 38l8.5 8.5-8.5 8.5-8.5-8.5 8.5-8.5Zm-2.83 8.5 2.83 2.83 2.83-2.83-2.83-2.83-2.83 2.83ZM174 35l-4-4-4 4 4 4 4-4Zm0 106a2 2 0 0 1 2 2v4h4a2 2 0 1 1 0 4h-4v4a2 2 0 1 1-4 0v-4h-4a2 2 0 1 1 0-4h4v-4c0-1.1.9-2 2-2Z"/></svg>