<svg aria-hidden="true" class="svg-spot spotImage" width="48" height="48" viewBox="0 0 48 48"><path d="M38.4 39a1 1 0 00.9-1.43l-7.22-15.01a1 1 0 00-1.73-.13l-5.34 7.8a1 1 0 01-1.36.28l-4.78-3.04a1 1 0 00-1.3.2L9.4 37.35a1 1 0 00.76 1.65h28.26zM18 19a3 3 0 11-6 0 3 3 0 016 0z" opacity=".2"/><path d="M1 12c0-1.1.9-2 2-2h38a2 2 0 012 2v29a2 2 0 01-2 2H3a2 2 0 01-2-2V12zm2 0v29h38V12H3zm0-5a1 1 0 011-1h41a2 2 0 012 2v32a1 1 0 11-2 0V8H4a1 1 0 01-1-1zm23.53 12.86a2 2 0 013.45.26l7.23 15.01a2 2 0 01-1.8 2.87H7.15a2 2 0 01-1.52-3.3l8.18-9.68a2 2 0 012.6-.4l4.77 3.04 5.35-7.8zm1.65 1.13l-5.35 7.8a2 2 0 01-2.72.56l-4.77-3.04L7.15 36h28.26l-7.23-15.01zM13 16a2 2 0 100 4 2 2 0 000-4zm-4 2a4 4 0 118 0 4 4 0 01-8 0z"/></svg>