<svg aria-hidden="true" class="svg-spot spotImageLg" width="96" height="96" viewBox="0 0 96 96"><path d="M76.9 77.5a1 1 0 0 0 .9-1.44l-16.54-34a1 1 0 0 0-1.73-.12L47.11 60.32a1 1 0 0 1-1.36.28l-10.53-6.64a1 1 0 0 0-1.28.18l-18.99 21.7a1 1 0 0 0 .75 1.66h61.2ZM36 38a6 6 0 1 1-12 0 6 6 0 0 1 12 0Z" opacity=".2"/><path d="M3 23.5A2.5 2.5 0 0 1 5.5 21h77a2.5 2.5 0 0 1 2.5 2.5v59a2.5 2.5 0 0 1-2.5 2.5h-77A2.5 2.5 0 0 1 3 82.5v-59Zm3 .5v58h76V24H6Zm1-9.5c0-.83.67-1.5 1.5-1.5h82a2.5 2.5 0 0 1 2.5 2.5v62a1.5 1.5 0 0 1-3 0V16H8.5A1.5 1.5 0 0 1 7 14.5Zm47.29 23.6a2.5 2.5 0 0 1 4.32.3l16.54 34A2.5 2.5 0 0 1 72.9 76H11.63a2.5 2.5 0 0 1-1.92-4.1L27.8 50.21a2.5 2.5 0 0 1 3.25-.51l10.8 6.82L54.29 38.1Zm2 2.4L44.05 58.6a2.5 2.5 0 0 1-3.4.71L29.8 52.47 12.71 73h59.4L56.28 40.5ZM26.5 32a4.5 4.5 0 1 0 0 9 4.5 4.5 0 0 0 0-9ZM19 36.5a7.5 7.5 0 1 1 15 0 7.5 7.5 0 0 1-15 0Z"/></svg>