<svg aria-hidden="true" class="svg-spot spotImageXL" width="196" height="196" viewBox="0 0 196 196"><path opacity=".07" d="M12.97 115.18c14.2 42.34 20.95 61.3 32.4 64.97l.99.32c16.94 5.44 23.15 7.43 71.85 1.45 41.51-5.1 47.8-17.45 55-31.63 1.4-2.77 2.85-5.61 4.6-8.48 10.7-17.55 21.3-87.23-10-118C136.5-6.96 79.15 11.01 53.5 27.06 27.83 43.1-1.23 72.84 12.97 115.18ZM150 57v88H36V57h114Z"/><path d="M72.5 88a8.5 8.5 0 1 0 0-17 8.5 8.5 0 0 0 0 17Zm69.8 46.56a1 1 0 0 1-.9 1.44H51.23a1 1 0 0 1-.75-1.66l28.21-31.71a1 1 0 0 1 1.28-.19l15.95 9.91a1 1 0 0 0 1.36-.28l18.8-27.65a1 1 0 0 1 1.72.13l24.5 50.01Z" opacity=".2"/><path d="M90 18.5 81.5 10 73 18.5l8.5 8.5 8.5-8.5Zm-8.5 2.83-2.83-2.83 2.83-2.83 2.83 2.83-2.83 2.83ZM17 112l-5-5-5 5 5 5 5-5Zm161 31a2 2 0 1 0-4 0v4h-4a2 2 0 1 0 0 4h4v4a2 2 0 1 0 4 0v-4h4a2 2 0 1 0 0-4h-4v-4ZM34 58a3 3 0 0 1 3-3h112a3 3 0 0 1 3 3v86a3 3 0 0 1-3 3H37a3 3 0 0 1-3-3V58Zm4 1v84h110V59H38Zm2-13c0-1.1.9-2 2-2h118a3 3 0 0 1 3 3v89a2 2 0 1 1-4 0V48H42a2 2 0 0 1-2-2Zm68.42 33.3a3 3 0 0 1 5.18.37l24.5 50.01a3 3 0 0 1-2.7 4.32H45.17a3 3 0 0 1-2.29-4.94l27-31.7a3 3 0 0 1 3.87-.61l16.06 9.92 18.61-27.37Zm2.34 3.67-18.18 26.74a3 3 0 0 1-4.06.87l-16.15-9.98L47.33 130h86.46l-23.03-47.03ZM66.5 70a6.5 6.5 0 1 0 0 13 6.5 6.5 0 0 0 0-13ZM56 76.5a10.5 10.5 0 1 1 21 0 10.5 10.5 0 0 1-21 0Z"/></svg>