<svg aria-hidden="true" class="svg-spot spotImage" width="48" height="48" viewBox="0 0 48 48"><path d="M38.4 39a1 1 0 0 0 .9-1.43l-7.22-15.01a1 1 0 0 0-1.73-.13l-5.34 7.8a1 1 0 0 1-1.36.28l-4.78-3.04a1 1 0 0 0-1.3.2L9.4 37.35a1 1 0 0 0 .76 1.65h28.26ZM18 19a3 3 0 1 1-6 0 3 3 0 0 1 6 0Z" opacity=".2"/><path d="M1 12c0-1.1.9-2 2-2h38a2 2 0 0 1 2 2v29a2 2 0 0 1-2 2H3a2 2 0 0 1-2-2V12Zm2 0v29h38V12H3Zm0-5a1 1 0 0 1 1-1h41a2 2 0 0 1 2 2v32a1 1 0 1 1-2 0V8H4a1 1 0 0 1-1-1Zm23.53 12.86a2 2 0 0 1 3.45.26l7.23 15.01a2 2 0 0 1-1.8 2.87H7.15a2 2 0 0 1-1.52-3.3l8.18-9.68a2 2 0 0 1 2.6-.4l4.77 3.04 5.35-7.8Zm1.65 1.13-5.35 7.8a2 2 0 0 1-2.72.56l-4.77-3.04L7.15 36h28.26l-7.23-15.01ZM13 16a2 2 0 1 0 0 4 2 2 0 0 0 0-4Zm-4 2a4 4 0 1 1 8 0 4 4 0 0 1-8 0Z"/></svg>