<svg aria-hidden="true" class="svg-spot spotInspectLg" width="96" height="96" viewBox="0 0 96 96"><circle opacity=".2" cx="67" cy="72" r="12"/><path d="M9.5 2A3.5 3.5 0 0 0 6 5.5v72A3.5 3.5 0 0 0 9.5 81H47a1.5 1.5 0 0 0 0-3H9.5a.5.5 0 0 1-.5-.5v-72c0-.28.22-.5.5-.5h58.05c.27 0 .5.22.5.5v46.54a1.5 1.5 0 1 0 3 0V5.5a3.5 3.5 0 0 0-3.5-3.5H9.5Zm62.01 77.82a13 13 0 1 1 2.03-2.22l13.52 13.53a1.5 1.5 0 0 1-2.12 2.12L71.5 79.82ZM73 70a10 10 0 1 0-20 0 10 10 0 0 0 20 0ZM16 17a1.5 1.5 0 0 0 0 3h43a1.5 1.5 0 0 0 0-3H16Zm-1.5 14.5c0-.83.67-1.5 1.5-1.5h43a1.5 1.5 0 0 1 0 3H16a1.5 1.5 0 0 1-1.5-1.5ZM16 42a1.5 1.5 0 0 0 0 3h43a1.5 1.5 0 0 0 0-3H16Zm-1.5 13.5c0-.83.67-1.5 1.5-1.5h26a1.5 1.5 0 0 1 0 3H16a1.5 1.5 0 0 1-1.5-1.5Z"/></svg>