<svg aria-hidden="true" class="svg-spot spotInspectXL" width="196" height="196" viewBox="0 0 196 196"><path opacity=".07" d="M34.37 163.43C15.45 135.74-5.61 89.15 11.8 47.6 27.12 11.09 120.2-8 154.46 25.69c34.27 33.68 41.69 87.48 33.3 116.05-8.37 28.56-24.7 54.26-79.5 44.05-54.8-10.2-64.6-8.76-73.9-22.36z"/><circle opacity=".2" cx="137" cy="146" r="19"/><path d="M43 40a5 5 0 015-5h92a5 5 0 015 5v73a2 2 0 11-4 0V40a1 1 0 00-1-1H48a1 1 0 00-1 1v115a1 1 0 001 1h58a2 2 0 110 4H48a5 5 0 01-5-5V40zm88 123c5.56 0 10.6-2.16 14.36-5.68l21.23 21.1a2 2 0 102.82-2.84l-21.4-21.27A21 21 0 10131 163zm0-4a17 17 0 110-34 17 17 0 010 34zm60.74-16.63l-4.37-4.37-4.37 4.37 4.37 4.37 4.37-4.37zM174 44a2 2 0 012 2v4h4a2 2 0 110 4h-4v4a2 2 0 11-4 0v-4h-4a2 2 0 110-4h4v-4c0-1.1.9-2 2-2zM58.5 61c0-1.1.9-2 2-2H126a2 2 0 110 4H60.5a2 2 0 01-2-2zM60 79a2 2 0 100 4h66a2 2 0 100-4H60zm-2 22c0-1.1.9-2 2-2h65.7a2 2 0 110 4H60a2 2 0 01-2-2zm2 19a2 2 0 100 4h37.54a2 2 0 100-4H60zm-47.5-6l8.5 8.5-8.5 8.5-8.5-8.5 8.5-8.5zm-2.83 8.5l2.83 2.83 2.83-2.83-2.83-2.83-2.83 2.83z"/></svg>