<svg aria-hidden="true" class="svg-spot spotInspect" width="48" height="48" viewBox="0 0 48 48"><circle opacity=".2" cx="34.5" cy="36.5" r="5.5"/><path d="M8 3a2 2 0 0 0-2 2v33c0 1.1.9 2 2 2h16.5a1 1 0 1 0 0-2H8V5h26v21a1 1 0 1 0 2 0V5a2 2 0 0 0-2-2H8Zm28.1 36.92a6.5 6.5 0 1 1 1.48-1.35l6.1 5.7a1 1 0 1 1-1.36 1.46l-6.23-5.81Zm.9-5.42a4.5 4.5 0 1 0-9 0 4.5 4.5 0 0 0 9 0ZM11 10a1 1 0 1 0 0 2h20a1 1 0 1 0 0-2H11Zm-1 7a1 1 0 0 1 1-1h20a1 1 0 1 1 0 2H11a1 1 0 0 1-1-1Zm1 5a1 1 0 1 0 0 2h20a1 1 0 1 0 0-2H11Zm-1 7a1 1 0 0 1 1-1h11.08a1 1 0 1 1 0 2H11a1 1 0 0 1-1-1Z"/></svg>