<svg aria-hidden="true" class="svg-spot spotInspectXL" width="196" height="196" viewBox="0 0 196 196"><path opacity=".07" d="M34.37 163.43C15.45 135.74-5.61 89.15 11.8 47.6 27.12 11.09 120.2-8 154.46 25.69c34.27 33.68 41.69 87.48 33.3 116.05-8.37 28.56-24.7 54.26-79.5 44.05-54.8-10.2-64.6-8.76-73.9-22.36Z"/><circle opacity=".2" cx="137" cy="146" r="19"/><path d="M43 40a5 5 0 0 1 5-5h92a5 5 0 0 1 5 5v73a2 2 0 1 1-4 0V40a1 1 0 0 0-1-1H48a1 1 0 0 0-1 1v115a1 1 0 0 0 1 1h58a2 2 0 1 1 0 4H48a5 5 0 0 1-5-5V40Zm88 123c5.56 0 10.6-2.16 14.36-5.68l21.23 21.1a2 2 0 1 0 2.82-2.84l-21.4-21.27A21 21 0 1 0 131 163Zm0-4a17 17 0 1 1 0-34 17 17 0 0 1 0 34Zm60.74-16.63-4.37-4.37-4.37 4.37 4.37 4.37 4.37-4.37ZM174 44a2 2 0 0 1 2 2v4h4a2 2 0 1 1 0 4h-4v4a2 2 0 1 1-4 0v-4h-4a2 2 0 1 1 0-4h4v-4c0-1.1.9-2 2-2ZM58.5 61c0-1.1.9-2 2-2H126a2 2 0 1 1 0 4H60.5a2 2 0 0 1-2-2ZM60 79a2 2 0 1 0 0 4h66a2 2 0 1 0 0-4H60Zm-2 22c0-1.1.9-2 2-2h65.7a2 2 0 1 1 0 4H60a2 2 0 0 1-2-2Zm2 19a2 2 0 1 0 0 4h37.54a2 2 0 1 0 0-4H60Zm-47.5-6 8.5 8.5-8.5 8.5-8.5-8.5 8.5-8.5Zm-2.83 8.5 2.83 2.83 2.83-2.83-2.83-2.83-2.83 2.83Z"/></svg>