<svg aria-hidden="true" class="svg-spot spotInspectLg" width="96" height="96" viewBox="0 0 96 96"><circle opacity=".2" cx="67" cy="72" r="12"/><path d="M9.5 2A3.5 3.5 0 006 5.5v72A3.5 3.5 0 009.5 81H47a1.5 1.5 0 000-3H9.5a.5.5 0 01-.5-.5v-72c0-.28.22-.5.5-.5h58.05c.27 0 .5.22.5.5v46.54a1.5 1.5 0 103 0V5.5a3.5 3.5 0 00-3.5-3.5H9.5zm62.01 77.82a13 13 0 112.03-2.22l13.52 13.53a1.5 1.5 0 01-2.12 2.12L71.5 79.82zM73 70a10 10 0 10-20 0 10 10 0 0020 0zM16 17a1.5 1.5 0 000 3h43a1.5 1.5 0 000-3H16zm-1.5 14.5c0-.83.67-1.5 1.5-1.5h43a1.5 1.5 0 010 3H16a1.5 1.5 0 01-1.5-1.5zM16 42a1.5 1.5 0 000 3h43a1.5 1.5 0 000-3H16zm-1.5 13.5c0-.83.67-1.5 1.5-1.5h26a1.5 1.5 0 010 3H16a1.5 1.5 0 01-1.5-1.5z"/></svg>