<svg aria-hidden="true" class="svg-spot spotJobListingsLg" width="96" height="96" viewBox="0 0 96 96"><path opacity=".2" d="M87 27H11c-1.1 0-2 .91-2 2.04v12.92c0 1.13.9 2.04 2 2.04h76c1.1 0 2-.91 2-2.04V29.04c0-1.13-.9-2.04-2-2.04Z"/><path d="M76 34a2 2 0 1 0 0-4 2 2 0 0 0 0 4Zm0 24a2 2 0 1 0 0-4 2 2 0 0 0 0 4Zm0 23a2 2 0 1 0 0-4 2 2 0 0 0 0 4ZM17.6 8a3.6 3.6 0 0 0-3.6 3.6V22H4.5c-.83 0-1.5.67-1.5 1.5v16c0 .83.67 1.5 1.5 1.5H14v5.5c0 .18.03.34.09.5H4.5c-.83 0-1.5.67-1.5 1.5v16c0 .83.67 1.5 1.5 1.5H14v4H4.5c-.83 0-1.5.67-1.5 1.5v16c0 .83.67 1.5 1.5 1.5h80c.83 0 1.5-.67 1.5-1.5V82h4.4a3.6 3.6 0 0 0 3.6-3.6V11.6A3.6 3.6 0 0 0 90.4 8H17.6ZM86 79v-7.5c0-.83-.67-1.5-1.5-1.5H17v-4h67.5c.83 0 1.5-.67 1.5-1.5v-16c0-.83-.67-1.5-1.5-1.5H16.91c.06-.16.09-.32.09-.5V41h67.5c.83 0 1.5-.67 1.5-1.5v-16c0-.83-.67-1.5-1.5-1.5H17v-3.09c.16.06.32.09.5.09H91v59.4a.6.6 0 0 1-.6.6H86ZM17.5 16c-.18 0-.34.03-.5.09V11.6a.6.6 0 0 1 .6-.61H35v5H17.5ZM91 16H38v-5h52.4c.33 0 .6.27.6.6V16ZM6 38V25h77v13H6Zm0 12h77v13H6V50Zm0 36V73h77v13H6Z"/></svg>