<svg aria-hidden="true" class="svg-spot spotJobListings" width="48" height="48" viewBox="0 0 48 48"><path opacity=".2" d="M4 15.76c0-.46.36-.76.72-.76h37.56c.36 0 .72.3.72.76v6.48c0 .46-.36.76-.72.76H4.72a.74.74 0 0 1-.72-.76v-6.48z"/><path d="M37 18a1 1 0 1 0 0-2 1 1 0 0 0 0 2zm0 12a1 1 0 1 0 0-2 1 1 0 0 0 0 2zm0 11a1 1 0 1 0 0-2 1 1 0 0 0 0 2zM7 7c0-1.1.9-2 2-2h35a2 2 0 0 1 2 2v33a2 2 0 0 1-2 2h-2v2a1 1 0 0 1-1 1H2a1 1 0 0 1-1-1v-8a1 1 0 0 1 1-1h5v-1H2a1 1 0 0 1-1-1v-8a1 1 0 0 1 1-1h5v-2H2a1 1 0 0 1-1-1v-8a1 1 0 0 1 1-1h5V7zm37 33V11H9v1h32a1 1 0 0 1 1 1v8a1 1 0 0 1-1 1H9v2h32a1 1 0 0 1 1 1v8a1 1 0 0 1-1 1H9v1h32a1 1 0 0 1 1 1v4h2zM9 9h8V7H9v2zm10 0h25V7H19v2zM3 14v6h37v-6H3zm0 12v6h37v-6H3zm0 11v6h37v-6H3z"/></svg>