<svg aria-hidden="true" class="svg-spot spotJobListings" width="48" height="48" viewBox="0 0 48 48"><path opacity=".2" d="M5 22v-6h37v6H5z"  stroke="#000" stroke-width="2"/><path d="M37 18a1 1 0 100-2 1 1 0 000 2zm0 12a1 1 0 100-2 1 1 0 000 2zm0 11a1 1 0 100-2 1 1 0 000 2zM7 7c0-1.1.9-2 2-2h35a2 2 0 012 2v33a2 2 0 01-2 2h-2v2a1 1 0 01-1 1H2a1 1 0 01-1-1v-8a1 1 0 011-1h5v-1H2a1 1 0 01-1-1v-8a1 1 0 011-1h5v-2H2a1 1 0 01-1-1v-8a1 1 0 011-1h5V7zm37 33V11H9v1h32a1 1 0 011 1v8a1 1 0 01-1 1H9v2h32a1 1 0 011 1v8a1 1 0 01-1 1H9v1h32a1 1 0 011 1v4h2zM9 9h8V7H9v2zm10 0h25V7H19v2zM3 14v6h37v-6H3zm0 12v6h37v-6H3zm0 11v6h37v-6H3z"/></svg>