<svg aria-hidden="true" class="svg-spot spotJobListingsXL" width="196" height="196" viewBox="0 0 196 196"><path opacity=".07" d="M169.5 160.59c23.36-31.7 15.06-75.62 4.7-103.03-5.1-13.47-26.16-41.32-69.61-43.36-43.46-2.04-59.07 12.17-72.07 34.7-13 22.55-26.5 67.94-4.33 103.61 22.18 35.68 120.78 35.94 141.3 8.08ZM36 66h103v21H36V66Zm0 32h103v21H36V98Zm103 29v21H36v-21h103Z"/><path opacity=".2" d="M143 70H44a2 2 0 0 0-2 2v19c0 1.1.9 2 2 2h99a2 2 0 0 0 2-2V72a2 2 0 0 0-2-2Z"/><path d="m164.7 29.36-8.5-8.5-8.5 8.5 8.5 8.5 8.5-8.5Zm-8.5 2.84-2.83-2.84 2.84-2.83 2.83 2.83-2.83 2.84ZM20 140a2 2 0 0 1 2 2v4h4a2 2 0 1 1 0 4h-4v4a2 2 0 1 1-4 0v-4h-4a2 2 0 1 1 0-4h4v-4c0-1.1.9-2 2-2Zm19.7 21.86 4 4-4 4-4-4 4-4ZM129 141a3 3 0 1 0 0-6 3 3 0 0 0 0 6Zm0-61a3 3 0 1 0 0-6 3 3 0 0 0 0 6Zm0 31a3 3 0 1 0 0-6 3 3 0 0 0 0 6ZM48 50.1a4.1 4.1 0 0 1 4.1-4.1h94.8a4.1 4.1 0 0 1 4.1 4.1v86.8a4.1 4.1 0 0 1-4.1 4.1H141v7a2 2 0 0 1-2 2H36a2 2 0 0 1-2-2v-21c0-1.1.9-2 2-2h12v-4H36a2 2 0 0 1-2-2V98c0-1.1.9-2 2-2h12.08a2 2 0 0 1-.08-.58V89H36a2 2 0 0 1-2-2V66c0-1.1.9-2 2-2h12V50.1Zm89 78.9H38v17h99v-17Zm9.9 8a.1.1 0 0 0 .1-.1V60H52v4h87a2 2 0 0 1 2 2v21a2 2 0 0 1-2 2H52v6.42a2 2 0 0 1-.08.58H139a2 2 0 0 1 2 2v21a2 2 0 0 1-2 2H52v4h87a2 2 0 0 1 2 2v10h5.9ZM79 56h68v-6H79v6Zm-4-6H52v6h23v-6ZM38 85h99V68H38v17Zm0 15v17h99v-17H38Z"/></svg>