<svg aria-hidden="true" class="svg-spot spotJobSearch" width="48" height="48" viewBox="0 0 48 48"><path opacity=".2" d="M38 21.5a16.5 16.5 0 11-33 0 16.5 16.5 0 0133 0ZM15 18a2 2 0 00-2 2v8c0 1.1.9 2 2 2h12a3 3 0 003-3v-7a2 2 0 00-2-2H15Z"/><path d="M24.85 8.16a1 1 0 011.36-.37 13.5 13.5 0 016.53 9.05 1 1 0 11-1.97.4 11.5 11.5 0 00-5.55-7.72 1 1 0 01-.37-1.36ZM19.57 6a1 1 0 00-.01 2c.72 0 1.44.08 2.16.22a1 1 0 00.38-1.97A13.5 13.5 0 0019.57 6ZM14 14c0-1.1.9-2 2-2h6a2 2 0 012 2v1h2a2 2 0 012 2v9a2 2 0 01-2 2H12a2 2 0 01-2-2v-9c0-1.1.9-2 2-2h2v-1Zm8 0h-6v1h6v-1Zm-8 3h-2v9h2v-9Zm2 9h6v-9h-6v9Zm10 0v-9h-2v9h2ZM2 19.5a17.5 17.5 0 1131.85 10.01 3.5 3.5 0 012.16 1.02L44.5 39a3.5 3.5 0 11-4.95 4.95l-8.49-8.49a3.48 3.48 0 01-1-2.02A17.5 17.5 0 012 19.5ZM19.5 4a15.5 15.5 0 100 31 15.5 15.5 0 000-31Zm12.97 27.94a1.5 1.5 0 000 2.12l8.49 8.49a1.5 1.5 0 102.12-2.13l-8.48-8.48a1.5 1.5 0 00-2.13 0Z"/></svg>