<svg aria-hidden="true" class="svg-spot spotKey" width="48" height="48" viewBox="0 0 48 48"><path opacity=".2" d="m43.05 15.18-22.29 9.35a9.1 9.1 0 0 0-10.87-3 9 9 0 0 0-4.82 11.79 9 9 0 0 0 17.17-5.2l12.28-5.22 1.5 3.57c.2.47.7.68 1.18.48l1.65-.7c.46-.19.67-.7.48-1.16l-1.5-3.58 1.92-.8 2.08 4.94c.2.47.7.68 1.17.48l1.65-.69c.47-.2.68-.7.48-1.17l-2.06-4.9 1.45-.6c.47-.2.67-.7.48-1.18l-.81-1.92a.85.85 0 0 0-1.14-.5ZM15.36 34.86a5.33 5.33 0 1 1-4.14-9.84 5.33 5.33 0 0 1 4.14 9.84Z"/><path d="M6.82 30.54a5.5 5.5 0 1 0 10.14-4.26 5.5 5.5 0 0 0-10.14 4.26Zm3.72-5.36a3.5 3.5 0 1 1 2.7 6.45 3.5 3.5 0 0 1-2.7-6.45Zm8.74-3.38a10.2 10.2 0 0 0-11.26-2.25 10.06 10.06 0 0 0-5.46 13.14 10.06 10.06 0 0 0 13.2 5.3 10.18 10.18 0 0 0 6.04-10.7l9.66-3.99 1.17 2.78a2 2 0 0 0 2.61 1.07l1.85-.78a2 2 0 0 0 1.07-2.62l-1.2-2.86.63-.27L39.01 24a2 2 0 0 0 2.62 1.07l1.85-.78a2 2 0 0 0 1.07-2.61l-1.47-3.5c.9-.74 1.25-2.02.77-3.15l-.19-.46a2.78 2.78 0 0 0-3.63-1.48l-20.75 8.7Zm-1.12 1.74a1 1 0 0 0 1.23.38l21.41-8.99c.4-.16.85.02 1.02.42l.19.45a.73.73 0 0 1-.37.95 1 1 0 0 0-.75 1.37l1.81 4.33-1.84.77L39.08 19a1 1 0 0 0-.49-.52 1 1 0 0 0-.91-.07l-2.41 1.01a1 1 0 0 0-.55 1.28l.05.14 1.54 3.69-1.84.77-1.55-3.69a1 1 0 0 0-1.3-.53h-.01l-11.3 4.65a1 1 0 0 0-.6 1.16l.02.14A8.2 8.2 0 0 1 15 36.14a8.06 8.06 0 0 1-10.58-4.23A8.06 8.06 0 0 1 8.8 21.4a8.18 8.18 0 0 1 9.36 2.15Z"/></svg>