<svg aria-hidden="true" class="svg-spot spotKeyLg" width="96" height="96" viewBox="0 0 96 96"><path opacity=".2" d="M85.91 23.35 41.15 47.63a19.16 19.16 0 0 0-23.42-4.03 18.97 18.97 0 0 0-7.64 25.74A18.98 18.98 0 0 0 45 54.84l26.52-14.53 3.9 7.18a1.85 1.85 0 0 0 2.56.76l3.31-1.8a1.85 1.85 0 0 0 .76-2.55l-3.9-7.19 3.87-2.1 5.4 9.95a1.85 1.85 0 0 0 2.56.76l3.31-1.8a1.85 1.85 0 0 0 .76-2.56l-5.34-9.83 1.05-.57a1.85 1.85 0 0 0 .76-2.56l-2.1-3.87a1.8 1.8 0 0 0-2.5-.78ZM32 70.4a11.24 11.24 0 1 1-10.74-19.78A11.24 11.24 0 1 1 32 70.4Z"/><path d="M12.17 65.82a13 13 0 1 1 22.85-12.4 13 13 0 0 1-22.85 12.4Zm6.65-14.99a10 10 0 1 0 9.54 17.58 10 10 0 0 0-9.54-17.58Zm19.88-5.92a20.82 20.82 0 0 0-24.54-3.38 20.6 20.6 0 0 0-8.42 27.89 20.6 20.6 0 0 0 27.97 8.15 20.67 20.67 0 0 0 10.32-22.93l23.94-13.03L71.6 48a3.28 3.28 0 0 0 4.42 1.27l3.93-2.14a3.28 3.28 0 0 0 1.32-4.44l-3.44-6.33.57-.32 4.63 8.53a3.28 3.28 0 0 0 4.45 1.32l3.9-2.12a3.28 3.28 0 0 0 1.32-4.45l-4.66-8.58a3.28 3.28 0 0 0 .89-4.17l-2.18-4a3.28 3.28 0 0 0-4.44-1.33L38.7 44.91Zm.44 3.18.08-.04 44.52-24.16c.13-.07.3-.02.37.11l2.18 4.01a.3.3 0 0 1-.1.38l-.83.45-.04.03a1.5 1.5 0 0 0-.57 2.09l5.32 9.8c.07.14.02.3-.12.38l-3.9 2.12a.28.28 0 0 1-.38-.11l-5.35-9.87a1.5 1.5 0 0 0-1.28-.78c-.27 0-.54.05-.79.2l-3.17 1.77a1.5 1.5 0 0 0-.58 2.05l.02.02.07.15 4.04 7.44c.08.13.03.3-.1.37l-3.94 2.14a.28.28 0 0 1-.38-.1l-4.33-7.64-.01-.02v-.01a1.5 1.5 0 0 0-2.04-.6L41.59 52.56a1.5 1.5 0 0 0-.78 1.15c-.03.22-.02.45.05.68a17.66 17.66 0 0 1-8.58 20.54 17.6 17.6 0 0 1-23.9-6.94 17.6 17.6 0 0 1 7.2-23.83c7.4-4 16.42-2.3 21.7 3.62a1.5 1.5 0 0 0 1.86.3Z"/></svg>