<svg aria-hidden="true" class="svg-spot spotKeyXL" width="196" height="196" viewBox="0 0 196 196"><path opacity=".07" d="M48.9 184.84c41.75 16.9 88.08-4.72 115.53-23.99 10.7-7.5 11.93-15.21 16.74-45.52 1.25-7.89 2.75-17.3 4.71-28.63 9.53-54.93-16.36-70.95-45.03-78.97-28.67-8.02-82.37.05-115.63 34.74-33.26 34.69-13.02 127.5 23.67 142.37Zm-2.16-98.25a32.57 32.57 0 0 1 37.78 7.97l72.33-33.02a5 5 0 0 1 6.63 2.47l2.98 6.53a5 5 0 0 1-2.2 6.49l-.65.35 6.57 14.16a5 5 0 0 1-2.46 6.65l-5.44 2.49a5 5 0 0 1-6.62-2.48l-6.63-14.51-2.51 1.21 4.61 10.11a5 5 0 0 1-2.47 6.63l-5.45 2.49a5 5 0 0 1-6.63-2.47l-4.57-10.01-40.27 18.3c2.65 14.26-4.2 29.47-18 35.77a32.4 32.4 0 0 1-42.9-16.15 32.4 32.4 0 0 1 15.9-42.98Z"/><path d="M157.22 41.04a3.07 3.07 0 0 1 2.28 3.63l-1.05 5.02a2.93 2.93 0 0 1-3.52 2.3c-1.6-.37-2.62-2-2.28-3.63l1.06-5.03a2.93 2.93 0 0 1 3.51-2.3Zm17.02 6.76c.98-1.35.7-3.25-.62-4.24a2.94 2.94 0 0 0-4.16.65l-5.51 7.6a3.06 3.06 0 0 0 .62 4.24c1.32 1 3.18.7 4.16-.64l5.51-7.61Zm-1.64 11.57a3.05 3.05 0 0 0-2.55 3.43 2.95 2.95 0 0 0 3.35 2.56l4.71-.7a3.05 3.05 0 0 0 2.54-3.42 2.95 2.95 0 0 0-3.34-2.56l-4.71.7ZM88.98 98.72l73.27-33.45a2.87 2.87 0 0 1 3.88 1.55l2.94 6.42a2.95 2.95 0 0 1-1.46 4l-1.72.78 7.45 16.32a2.95 2.95 0 0 1-1.46 4l-5.42 2.47c-1.54.7-3.26.05-3.97-1.5l-7.54-16.52-6.33 2.9 5.44 11.92a2.95 2.95 0 0 1-1.46 3.99l-5.42 2.48c-1.54.7-3.26.04-3.97-1.52l-5.45-11.92-43.42 20.05c3.2 13.72-3.48 28.3-16.69 34.33-15.1 6.9-32.97.09-40-15.32-7-15.32-.44-33.28 14.67-40.17a30.4 30.4 0 0 1 36.66 9.2ZM48.5 124.97a17.9 17.9 0 0 0 23.7 9.02 17.9 17.9 0 0 0 8.69-23.8 17.9 17.9 0 0 0-23.69-9.03 17.9 17.9 0 0 0-8.7 23.8Z" opacity=".2"/><path d="m37.37 25 4.37 4.37-4.37 4.37L33 29.37 37.37 25ZM19.5 39l8.5 8.5-8.5 8.5-8.5-8.5 8.5-8.5Zm-2.83 8.5 2.83 2.83 2.83-2.83-2.83-2.83-2.83 2.83ZM170 156a2 2 0 1 0-4 0v4h-4a2 2 0 1 0 0 4h4v4a2 2 0 1 0 4 0v-4h4a2 2 0 1 0 0-4h-4v-4ZM41.66 124.2a20 20 0 1 1 36.38-16.6 20 20 0 0 1-36.38 16.6Zm11.54-22.86a16 16 0 1 0 13.3 29.11 16 16 0 0 0-13.3-29.1Zm31.32-6.78a32.57 32.57 0 0 0-37.78-7.97 32.4 32.4 0 0 0-15.9 42.99 32.4 32.4 0 0 0 42.9 16.14c13.8-6.3 20.65-21.5 18-35.76l40.27-18.31 4.57 10a5 5 0 0 0 6.63 2.48l5.45-2.5a5 5 0 0 0 2.47-6.62l-4.61-10.1 2.5-1.22 6.64 14.51a5 5 0 0 0 6.62 2.48l5.44-2.49a5 5 0 0 0 2.46-6.65l-6.57-14.16.65-.35a5 5 0 0 0 2.2-6.49l-2.98-6.53a5 5 0 0 0-6.63-2.47L84.52 94.56ZM83.95 99a2 2 0 0 0 .88-.18l73.68-33.64a1 1 0 0 1 1.33.5l2.98 6.52a1 1 0 0 1-.44 1.3l-2.3 1.22a1.98 1.98 0 0 0-1.07 2 2 2 0 0 0 .18.64l7.36 15.86a1 1 0 0 1-.49 1.33l-5.44 2.49a1 1 0 0 1-1.33-.5l-7.47-16.37a2 2 0 0 0-2.56-1.03l-.04.02-.05.02-.03.01-.01.01h-.02l-6 2.9a2 2 0 0 0-.9.86 2 2 0 0 0-.11 1.89l5.4 11.82A1 1 0 0 1 147 98l-5.46 2.49a1 1 0 0 1-1.32-.5l-5.4-11.82a2 2 0 0 0-2.65-.99h-.02L88.57 107a2 2 0 0 0-1 2.65l.04.08c2.85 12.89-3.25 26.74-15.53 32.35a28.4 28.4 0 0 1-37.6-14.17A28.4 28.4 0 0 1 48.4 90.23a28.56 28.56 0 0 1 34 8.02 2 2 0 0 0 1.55.75Z"/></svg>