<svg aria-hidden="true" class="svg-spot spotLightbulbXL" width="196" height="196" viewBox="0 0 196 196"><path opacity=".07" d="M20 153c-11.5-16-8.4-19.67-14.5-58.5S.82 34.23 20 18.5C42.25.25 158-15 182.5 28s7.62 97.78-8 125c-15.62 27.22-34.02 44.38-84 42-49.98-2.38-60.66-28.3-70.5-42z"/><path d="M150.31 20.07a3.5 3.5 0 01.62 4.91l-6.37 8.2a3.5 3.5 0 11-5.53-4.3l6.37-8.2a3.5 3.5 0 014.91-.6zm24.31 12.39a3.5 3.5 0 10-4.2-5.6l-17.3 12.97a3.5 3.5 0 104.2 5.6l17.3-12.97zm4.15 21.97a3.5 3.5 0 01-2.12 4.47l-12.74 4.55a3.5 3.5 0 11-2.36-6.59l12.75-4.55a3.5 3.5 0 014.47 2.12zM114.51 177c1.23 0 2.45 1.14 2.45 2.29v5.5c0 4.57-3.18 8.23-6.86 8.23H96.88c-3.68 0-6.87-3.66-6.87-8.24v-5.5c0-1.14 1.23-2.28 2.45-2.28h22.05zM16.5 59.67a3.5 3.5 0 012.35-6.59l12.75 4.55a3.5 3.5 0 01-2.36 6.6L16.5 59.66zm1.34-31.33a3.5 3.5 0 00.7 4.9l17.3 12.97a3.5 3.5 0 104.2-5.6l-17.3-12.97a3.5 3.5 0 00-4.9.7zm24.38-2.58a3.5 3.5 0 115.53-4.3l6.37 8.2a3.5 3.5 0 01-5.53 4.29l-6.37-8.2z" opacity=".2"/><path d="M73 2l4 4-4 4-4-4 4-4zm37.05 46.57a2 2 0 012.38-1.52c1.19.26 2.49.64 3.86 1.13a2 2 0 11-1.35 3.76 28.03 28.03 0 00-3.37-.99 2 2 0 01-1.52-2.38zm13.05 2.8a2 2 0 00-2.02 3.46C130.15 60.1 140 70.66 140 89a2 2 0 104 0c0-20.06-10.9-31.8-20.9-37.63zM113 172.97c6.09-.47 11-5.46 11-11.62v-2.17c0-9.03 4.2-17.6 11.38-23l.01-.02C149.74 125.2 159 108.22 159 88.98c0-35.25-31.34-63.38-68.44-59.65h-.03c-27.9 3.24-50.76 24.9-54.1 52.41-2.57 21.73 6.68 41.46 22.58 53.92 7.3 5.73 12.02 14.1 12.02 23.04v2.65c0 6.15 4.9 11.14 10.97 11.61V179c0 5.24 3.75 10 8.75 10h13.5c5 0 8.75-4.76 8.75-10v-6.03zM90.97 33.3C125.82 29.8 155 56.2 155 88.97c0 17.9-8.6 33.74-22.03 44A32.6 32.6 0 00121.3 150H106a2 2 0 100 4h14.4c-.25 1.64-.4 3.31-.4 5H91a2 2 0 100 4h28.81a7.9 7.9 0 01-7.73 6H82.95c-4.4 0-7.92-3.5-7.92-7.65v-2.65c0-10.37-5.47-19.84-13.55-26.18C46.6 120.86 38 102.47 40.4 82.22c3.1-25.56 24.4-45.87 50.57-48.9zM109 173v6c0 3.64-2.52 6-4.75 6h-13.5c-2.23 0-4.75-2.36-4.75-6v-6h23zm-96-36a2 2 0 012 2v4h4a2 2 0 110 4h-4v4a2 2 0 11-4 0v-4H7a2 2 0 110-4h4v-4c0-1.1.9-2 2-2zm154.5 14l8.5 8.5-8.5 8.5-8.5-8.5 8.5-8.5zm-2.83 8.5l2.83 2.83 2.83-2.83-2.83-2.83-2.83 2.83z"/></svg>