<svg aria-hidden="true" class="svg-spot spotLightbulbLg" width="96" height="96" viewBox="0 0 96 96"><path d="M16.89 8.96a2.37 2.37 0 1 1 3.75-2.92l3.55 4.57a2.38 2.38 0 0 1-3.75 2.91l-3.55-4.56ZM78.9 6.13c1.03.8 1.22 2.3.41 3.33l-3.55 4.56a2.38 2.38 0 0 1-3.75-2.91l3.55-4.57a2.37 2.37 0 0 1 3.34-.41Zm13.53 8.22a2.38 2.38 0 0 0-2.85-3.8l-9.64 7.23a2.37 2.37 0 1 0 2.85 3.8l9.64-7.23Zm2.46 10.5c.44 1.23-.2 2.6-1.44 3.03l-7.1 2.54a2.37 2.37 0 0 1-1.6-4.47l7.1-2.54c1.24-.44 2.6.2 3.04 1.44ZM57.75 85c.63 0 1.25.63 1.25 1.25v2.25c0 2.5-1.63 4.5-3.5 4.5h-8c-1.88 0-3.5-2-3.5-4.5v-2.25c0-.62.63-1.25 1.25-1.25h12.5Zm-55-57.62a2.38 2.38 0 0 1 1.6-4.47l7.1 2.54a2.38 2.38 0 0 1-1.6 4.47l-7.1-2.54Zm.55-16.85a2.37 2.37 0 0 0 .47 3.32l9.64 7.23a2.38 2.38 0 0 0 2.85-3.8l-9.64-7.23a2.37 2.37 0 0 0-3.32.48Z" opacity=".2"/><path d="M53.34 18.54a1.5 1.5 0 1 0-.68 2.92c.52.12 1.12.3 1.78.56a1.5 1.5 0 0 0 1.1-2.8 16.2 16.2 0 0 0-2.2-.68Zm6.55 3.03a1.5 1.5 0 0 0-1.71 2.46C62.3 26.9 66.5 32.17 66.5 41a1.5 1.5 0 1 0 3 0c0-9.95-4.8-16.1-9.61-19.43ZM44.16 10.13A30.4 30.4 0 0 1 78 40.5c0 9.72-4.1 18.46-11.38 24.08a14.08 14.08 0 0 0-5.59 11.11v1.09a6.17 6.17 0 0 1-5.03 6.1v2.62c0 2.88-2.13 5.5-5 5.5h-7c-2.87 0-5-2.62-5-5.5v-2.64a6.2 6.2 0 0 1-5-6.08v-1.33c0-4.27-2.34-8.33-5.88-11.13-8.06-6.37-12.2-16.64-10.92-27.62 1.68-13.98 12.86-24.92 26.94-26.56h.02Zm.32 2.99c-12.73 1.49-22.79 11.37-24.3 23.93-1.18 10.01 2.6 19.23 9.8 24.92 4.1 3.23 7.02 8.1 7.02 13.48v1.33A3.23 3.23 0 0 0 40.34 80h14.39a3.2 3.2 0 0 0 3.3-3H43.5a1.5 1.5 0 1 1 0-3h14.62c.1-1.02.3-2.02.6-3H51.5a1.5 1.5 0 1 1 0-3h8.42a17.25 17.25 0 0 1 4.88-5.8c6.48-5 10.2-12.84 10.2-21.7a27.4 27.4 0 0 0-30.52-27.38ZM42 83v2.5c0 1.57 1.12 2.5 2 2.5h7c.88 0 2-.93 2-2.5V83H42Z"/></svg>