<svg aria-hidden="true" class="svg-spot spotLightbulb" width="48" height="48" viewBox="0 0 48 48"><path opacity=".2" d="M30.87 42c.34 0 .67.31.67.63v2.1c0 1.26-.87 2.27-1.88 2.27h-5.77C22.88 47 22 46 22 44.74v-2.11c0-.32.34-.63.67-.63h8.2Z"/><path d="M27.2 7.02a1 1 0 0 0-.41 1.96A8.04 8.04 0 0 1 33 17a1 1 0 0 0 2 0c0-6.65-5.2-9.42-7.8-9.98ZM19 40.87a3.64 3.64 0 0 1-2.68-3.49v-.72a7.56 7.56 0 0 0-2.96-5.9 16.57 16.57 0 0 1-6.24-15.04C8.04 8.04 14.36 2 22.07 1.09h.02C32.33.05 41 7.9 41 17.74c0 5.37-2.56 10.1-6.53 13.16a7.32 7.32 0 0 0-2.81 5.9v.58A3.64 3.64 0 0 1 29 40.86V43c0 1.55-1.15 3-2.75 3h-4.5c-1.6 0-2.75-1.45-2.75-3v-2.13ZM9.1 15.96a14.57 14.57 0 0 0 5.5 13.24 9.54 9.54 0 0 1 3.72 7.46v.72c0 .87.73 1.62 1.67 1.62h8c.93 0 1.67-.75 1.67-1.62V37H22a1 1 0 1 1 0-2h7.82a9.16 9.16 0 0 1 3.43-5.68c3.5-2.7 5.75-6.87 5.75-11.58 0-8.62-7.6-15.58-16.7-14.66-6.83.8-12.39 6.16-13.2 12.88ZM21 41v2c0 .67.47 1 .75 1h4.5c.28 0 .75-.33.75-1v-2h-6Z"/></svg>