<svg aria-hidden="true" class="svg-spot spotLightbulb" width="48" height="48" viewBox="0 0 48 48"><path opacity=".2" d="M33.04 35.31a15.66 15.66 0 0010.07-14.65A15.6 15.6 0 0027.55 5 15.6 15.6 0 0012 20.66c0 6.7 4.18 12.42 10.06 14.65V38c0 1.1.9 2 2 2h6.98a2 2 0 002-2v-2.69z"/><path d="M20 38h8a2 2 0 002-2v-2.09a17 17 0 10-12 0V36c0 1.1.9 2 2 2zm8-4.09a2 2 0 011.3-1.87 15 15 0 10-10.6 0 2 2 0 011.3 1.87V36h3v-8.91l-3.99-2.22a1 1 0 01.98-1.74l3.98 2.2 3.5-2.18a1 1 0 011.06 1.7L25 27.05V36h3v-2.09zM19 41a1 1 0 011-1h8a1 1 0 110 2h-8a1 1 0 01-1-1zm2 4a1 1 0 011-1h4a1 1 0 110 2h-4a1 1 0 01-1-1z"/></svg>