<svg aria-hidden="true" class="svg-spot spotLightbulbXL" width="196" height="196" viewBox="0 0 196 196"><path opacity=".07" d="M51.66 172.69c-3.79-.84-49.34-8.36-45.98-63.81C9.03 53.42 18.29 30.1 36 24c17.7-6.1 80.72-27.45 114.5 0s45.2 51.2 30.74 95.03C168.74 156.9 167.33 155.75 137 165c-36.16 11.03-67.31 11.66-85.34 7.69z"/><path d="M48.6 40.15a3.5 3.5 0 015.52-4.3l5.43 6.98a3.5 3.5 0 11-5.53 4.3l-5.42-6.98zm95.34-4.72a3.5 3.5 0 01.61 4.91l-5.42 6.98a3.5 3.5 0 01-5.53-4.3l5.43-6.98a3.5 3.5 0 014.9-.6zm20.69 11.37a3.5 3.5 0 00-4.2-5.6L145.7 52.26a3.5 3.5 0 004.2 5.6l14.73-11.04zM116 145.44A51.02 51.02 0 00100 46a51 51 0 00-15 99.76V156a6 6 0 006 6h19a6 6 0 006-6v-10.56zm52.34-80.52a3.5 3.5 0 01-2.12 4.48l-10.85 3.87a3.5 3.5 0 11-2.35-6.59l10.85-3.87a3.5 3.5 0 014.47 2.11zM26.93 69.2a3.5 3.5 0 112.35-6.59l10.85 3.88a3.5 3.5 0 11-2.35 6.59L26.93 69.2zm.89-27.49a3.5 3.5 0 00.7 4.9l14.73 11.05a3.5 3.5 0 104.2-5.6L32.72 41.01a3.5 3.5 0 00-4.9.7zm140.52 78.87a3.5 3.5 0 00-2.12-4.48l-10.85-3.87a3.5 3.5 0 00-2.35 6.59l10.85 3.87a3.5 3.5 0 004.47-2.11zm-3.71 17.22a3.5 3.5 0 11-4.2 5.6l-14.73-11.06a3.5 3.5 0 014.2-5.6l14.73 11.05zm-20.69 12.27a3.5 3.5 0 00.61-4.91l-5.42-6.98a3.5 3.5 0 00-5.53 4.3l5.43 6.98a3.5 3.5 0 004.9.6zM26.93 116.3a3.5 3.5 0 102.35 6.59L40.13 119a3.5 3.5 0 10-2.35-6.59l-10.85 3.88zm.89 27.49a3.5 3.5 0 01.7-4.9l14.73-11.05a3.5 3.5 0 014.2 5.6l-14.73 11.05a3.5 3.5 0 01-4.9-.7zm20.78 1.56a3.5 3.5 0 005.52 4.3l5.43-6.98a3.5 3.5 0 00-5.53-4.3l-5.42 6.98z" opacity=".2"/><path d="M74 10a2 2 0 10-4 0v4h-4a2 2 0 100 4h4v4a2 2 0 104 0v-4h4a2 2 0 100-4h-4v-4zM19.88 94.23l-8.49-8.48-8.49 8.48 8.49 8.49 8.48-8.49zm-8.49 2.83l-2.83-2.83 2.83-2.83 2.83 2.83-2.83 2.83zM187.7 86.8l4.25 4.24-4.24 4.25-4.25-4.25 4.25-4.24zM95 39a53 53 0 00-17 103.21V151a8 8 0 008 8h19a8 8 0 008-8v-9.13A53.02 53.02 0 0095 39zM46 92a49 49 0 1164.37 46.54 2 2 0 00-1.37 1.9V151a4 4 0 01-4 4h-7v-27.99l16.19-11.9a2 2 0 10-2.38-3.22l-15.84 11.65-16.83-11.68a2 2 0 00-2.28 3.28L94 127.04V155h-8a4 4 0 01-4-4v-10.24a2 2 0 00-1.41-1.91A49.02 49.02 0 0146 92zm38 72a2 2 0 100 4h24a2 2 0 100-4H84zm2 11c0-1.1.9-2 2-2h16a2 2 0 110 4H88a2 2 0 01-2-2z"/></svg>