<svg aria-hidden="true" class="svg-spot spotLightbulbXL" width="196" height="196" viewBox="0 0 196 196"><path opacity=".07" d="M8.9 119.29C11 136.23 11.63 141.34 20 153c1.14 1.6 2.3 3.35 3.53 5.22C32.86 172.4 46.33 192.9 90.5 195c49.98 2.38 68.38-14.78 84-42 15.62-27.22 32.5-82 8-125S42.25.25 20 18.5C.82 34.23-.6 55.67 5.5 94.5a687.78 687.78 0 0 1 3.4 24.79ZM124 161.35c0 6.16-4.91 11.15-11 11.62V179c0 5.25-3.75 10-8.75 10h-13.5c-5 0-8.75-4.75-8.75-10v-6.04c-6.08-.47-10.97-5.46-10.97-11.6v-2.66c0-8.93-4.72-17.31-12.02-23.04-15.9-12.46-25.15-32.19-22.59-53.91 3.35-27.52 26.2-49.18 54.1-52.41h.04C127.66 25.6 159 53.72 159 88.97c0 19.24-9.26 36.21-23.61 47.18l-.01.01a28.81 28.81 0 0 0-11.38 23v2.18Z"/><path d="M150.31 20.07a3.5 3.5 0 0 1 .62 4.91l-6.37 8.2a3.5 3.5 0 1 1-5.53-4.3l6.37-8.2a3.5 3.5 0 0 1 4.91-.6Zm24.31 12.39a3.5 3.5 0 1 0-4.2-5.6l-17.3 12.97a3.5 3.5 0 1 0 4.2 5.6l17.3-12.97Zm4.15 21.97a3.5 3.5 0 0 1-2.12 4.47l-12.74 4.55a3.5 3.5 0 1 1-2.36-6.59l12.75-4.55a3.5 3.5 0 0 1 4.47 2.12ZM114.51 177c1.23 0 2.45 1.14 2.45 2.29v5.5c0 4.57-3.18 8.23-6.86 8.23H96.88c-3.68 0-6.87-3.66-6.87-8.24v-5.5c0-1.14 1.23-2.28 2.45-2.28h22.05ZM16.5 59.67a3.5 3.5 0 1 1 2.35-6.59l12.75 4.55a3.5 3.5 0 1 1-2.36 6.6L16.5 59.66Zm1.34-31.33a3.5 3.5 0 0 0 .7 4.9l17.3 12.97a3.5 3.5 0 1 0 4.19-5.6l-17.3-12.97a3.5 3.5 0 0 0-4.9.7Zm24.38-2.58a3.5 3.5 0 0 1 5.53-4.3l6.37 8.2a3.5 3.5 0 1 1-5.53 4.29l-6.37-8.2Z" opacity=".2"/><path d="m73 2 4 4-4 4-4-4 4-4Zm37.05 46.57a2 2 0 0 1 2.38-1.52c1.19.26 2.49.64 3.86 1.13a2 2 0 1 1-1.35 3.76 28.03 28.03 0 0 0-3.37-.99 2 2 0 0 1-1.52-2.38Zm13.05 2.8a2 2 0 0 0-2.02 3.46C130.15 60.1 140 70.66 140 89a2 2 0 1 0 4 0c0-20.06-10.9-31.8-20.9-37.63ZM113 172.97c6.09-.47 11-5.46 11-11.62v-2.17c0-9.03 4.2-17.6 11.38-23l.01-.02C149.74 125.2 159 108.22 159 88.98c0-35.25-31.34-63.38-68.44-59.65h-.03c-27.9 3.24-50.76 24.9-54.1 52.41-2.57 21.73 6.68 41.46 22.58 53.92 7.3 5.73 12.02 14.1 12.02 23.04v2.65c0 6.15 4.9 11.14 10.97 11.61V179c0 5.24 3.75 10 8.75 10h13.5c5 0 8.75-4.76 8.75-10v-6.03ZM90.97 33.3C125.82 29.8 155 56.2 155 88.97c0 17.9-8.6 33.74-22.03 44A32.6 32.6 0 0 0 121.3 150H106a2 2 0 1 0 0 4h14.4c-.25 1.64-.4 3.31-.4 5H91a2 2 0 1 0 0 4h28.81a7.9 7.9 0 0 1-7.73 6H82.95c-4.4 0-7.92-3.5-7.92-7.65v-2.65c0-10.37-5.47-19.84-13.55-26.18C46.6 120.86 38 102.47 40.4 82.22c3.1-25.56 24.4-45.87 50.57-48.9ZM109 173v6c0 3.64-2.52 6-4.75 6h-13.5c-2.23 0-4.75-2.36-4.75-6v-6h23Zm-96-36a2 2 0 0 1 2 2v4h4a2 2 0 1 1 0 4h-4v4a2 2 0 1 1-4 0v-4H7a2 2 0 1 1 0-4h4v-4c0-1.1.9-2 2-2Zm154.5 14 8.5 8.5-8.5 8.5-8.5-8.5 8.5-8.5Zm-2.83 8.5 2.83 2.83 2.83-2.83-2.83-2.83-2.83 2.83Z"/></svg>