<svg aria-hidden="true" class="svg-spot spotLightbulb" width="48" height="48" viewBox="0 0 48 48"><path opacity=".2" d="M33.04 35.31a15.66 15.66 0 0010.07-14.65A15.6 15.6 0 0027.55 5 15.6 15.6 0 0012 20.66c0 6.7 4.18 12.42 10.06 14.65V38c0 1.1.9 2 2 2h6.98a2 2 0 002-2v-2.69z"/><path d="M20 38h8a2 2 0 002-2v-2.09a17 17 0 10-12 0V36c0 1.1.9 2 2 2zm8-4.09V36h-3v-8.95l3.53-2.2a1 1 0 10-1.06-1.7l-3.5 2.19-3.98-2.21a1 1 0 00-.98 1.74L23 27.1V36h-3v-2.09a2 2 0 00-1.3-1.87 15 15 0 1110.6 0 2 2 0 00-1.3 1.87zM19 41a1 1 0 011-1h8a1 1 0 110 2h-8a1 1 0 01-1-1zm2 4a1 1 0 011-1h4a1 1 0 110 2h-4a1 1 0 01-1-1z"/></svg>