<svg aria-hidden="true" class="svg-spot spotLightbulbLg" width="96" height="96" viewBox="0 0 96 96"><path d="M49 3a34 34 0 00-12 65.82v8.68a4.5 4.5 0 004.5 4.5h16a4.5 4.5 0 004.5-4.5v-9.07A34.01 34.01 0 0049 3zM18 37a31 31 0 1141.97 29l-1 .38.03 1.07V77.5c0 .83-.67 1.5-1.5 1.5H51V59.68l10.68-7.65a1.5 1.5 0 00-1.75-2.44l-10.59 7.59-11.51-7.62a1.5 1.5 0 00-1.66 2.5L48 59.9V79h-6.5a1.5 1.5 0 01-1.5-1.5V66.7l-1.02-.35A31.01 31.01 0 0118 37zm23.5 48a1.5 1.5 0 000 3h17a1.5 1.5 0 000-3h-17zm.5 7.5c0-.83.67-1.5 1.5-1.5h13a1.5 1.5 0 010 3h-13a1.5 1.5 0 01-1.5-1.5z"/><path d="M17.8 3.83A2.38 2.38 0 0121.55.92l3.5 4.5a2.37 2.37 0 11-3.75 2.91l-3.5-4.5zM79.46.63c1.03.8 1.22 2.3.41 3.33l-3.5 4.5a2.37 2.37 0 11-3.74-2.92l3.5-4.5a2.37 2.37 0 013.33-.41zM92.8 8.15a2.38 2.38 0 00-2.85-3.8l-9.5 7.12a2.38 2.38 0 002.85 3.8l9.5-7.12zM63.26 71.12a33.01 33.01 0 0022-31.12c0-18.23-13.77-33-32-33a33 33 0 00-11 64.12V81a3 3 0 003 3h15a3 3 0 003-3v-9.88zM95.24 19.7c.44 1.24-.2 2.6-1.44 3.04l-7 2.5a2.38 2.38 0 01-1.6-4.48l7-2.5c1.24-.44 2.6.2 3.04 1.44zM3.88 22.61a2.38 2.38 0 011.6-4.47l7 2.5a2.37 2.37 0 01-1.6 4.47l-7-2.5zM4.4 4.7a2.37 2.37 0 00.47 3.32l9.5 7.13a2.37 2.37 0 102.85-3.8l-9.5-7.13a2.37 2.37 0 00-3.32.48zm90.84 50.97c.44-1.23-.2-2.6-1.44-3.03l-7-2.5a2.38 2.38 0 10-1.6 4.47l7 2.5c1.24.44 2.6-.2 3.04-1.44zM92.8 67.22a2.38 2.38 0 01-2.85 3.8l-9.5-7.12a2.38 2.38 0 012.85-3.8l9.5 7.12zm-13.34 7.53c1.03-.8 1.22-2.3.41-3.33l-3.5-4.5a2.37 2.37 0 10-3.74 2.91l3.5 4.5a2.38 2.38 0 003.33.42zM3.88 52.76a2.37 2.37 0 101.6 4.48l7-2.5a2.38 2.38 0 00-1.6-4.48l-7 2.5zm.52 17.91a2.37 2.37 0 01.47-3.32l9.5-7.13a2.38 2.38 0 012.85 3.8l-9.5 7.13a2.38 2.38 0 01-3.32-.48zm13.4.87a2.38 2.38 0 003.75 2.92l3.5-4.5a2.37 2.37 0 10-3.75-2.92l-3.5 4.5z" opacity=".2"/></svg>