<svg aria-hidden="true" class="svg-spot spotLocationMd" width="48" height="48" viewBox="0 0 48 48"><path d="M20.26 37.6a103.04 103.04 0 002.14 2.59 2.1 2.1 0 003.33-.03l.57-.66a107.98 107.98 0 006.28-8.22 69.45 69.45 0 003.69-5.94c2.11-3.85 3.28-7.16 3.28-9.8C39.55 6.84 32.97 1 24.05 1S8.55 6.83 8.55 15.54c0 2.65 1.18 5.95 3.3 9.8a69.49 69.49 0 003.68 5.94c1.5 2.18 3.12 4.32 4.73 6.33zm3.68 1.32l-.02-.04-.58-.67a106.07 106.07 0 01-6.16-8.07 69.37 69.37 0 01-3.59-5.75c-1.96-3.59-3.04-6.62-3.04-8.85C10.55 8 16.2 3 24.05 3c7.87 0 13.5 5 13.5 12.54 0 2.23-1.07 5.26-3.03 8.84-1 1.83-2.22 3.77-3.6 5.76a106 106 0 01-6.72 8.74c-.13.15-.17.15-.26.04zm.11-16.27a7.14 7.14 0 110-14.27 7.14 7.14 0 010 14.27zm5.14-7.14a5.14 5.14 0 10-10.28 0 5.14 5.14 0 0010.28 0z"/><path opacity=".5" d="M35.55 33a1 1 0 010-2h1.77c1.13 0 2.17.64 2.64 1.6L46 42.65A3 3 0 0143.32 47H4a3 3 0 01-2.57-4.55l6.68-9.94a3 3 0 012.6-1.51h1.84a1 1 0 110 2h-1.84c-.35 0-.69.2-.9.57L3.13 43.5A1 1 0 004 45h39.32a1 1 0 00.44-.1c.5-.25.7-.85.49-1.28L38.2 33.55a1 1 0 00-.9-.55h-1.76z"/></svg>