<svg aria-hidden="true" class="svg-spot spotLocationLg" width="96" height="96" viewBox="0 0 96 96"><path d="M48.89 45.65C52.34 39.75 61 24.31 61 18.44 61 11.1 55.1 5 47.5 5 40.14 5 34 11.1 34 18.44c0 5.87 8.66 21.3 12.11 27.21a1.6 1.6 0 002.78 0zM24.9 79.28l16.68 8.49A1.66 1.66 0 0044 86.29V53.8c0-.29-.07-.57-.21-.81L40 46.25l-5.71-9.7a1.66 1.66 0 00-.81-.69l-7.2-2.93A1.66 1.66 0 0024 34.47V77.8c0 .63.35 1.2.9 1.48zm66.21-30.61L71.44 38.3A1.66 1.66 0 0069 39.76v44.2c0 .63.37 1.22.95 1.5l19.67 9.4c1.1.53 2.38-.27 2.38-1.5V50.15c0-.62-.34-1.19-.89-1.48zM20 72.5a3.5 3.5 0 11-7 0 3.5 3.5 0 017 0zM16.5 62a3.5 3.5 0 100-7 3.5 3.5 0 000 7z" opacity=".2"/><path d="M44 10.5a6.5 6.5 0 100 13 6.5 6.5 0 000-13zM40.5 17a3.5 3.5 0 117 0 3.5 3.5 0 01-7 0zm4.78 28.28l.04-.07.03-.05.09-.14a158.88 158.88 0 001.97-3.36 237 237 0 004.67-8.5c1.7-3.26 3.4-6.77 4.7-9.95 1.26-3.1 2.22-6.11 2.22-8.27C59 6.53 52.43 0 44 0c-8.19 0-15 6.77-15 14.94 0 2.16.96 5.17 2.22 8.27 1.3 3.18 3 6.7 4.7 9.95a237 237 0 006.64 11.86l.07.12.05.07.04.07a1.5 1.5 0 002.56 0zM44 3c6.79 0 12 5.2 12 11.94 0 1.5-.73 4.02-2 7.14a118 118 0 01-4.58 9.7A234.24 234.24 0 0144 41.55a243.28 243.28 0 01-5.42-9.79A118 118 0 0134 22.08c-1.27-3.12-2-5.64-2-7.14C32 8.44 37.46 3 44 3zm-1.28 42.28L44 44.5l-1.28.78zM44 44.5l1.28.78L44 44.5zM9 69a5 5 0 1110 0 5 5 0 01-10 0zm5-2a2 2 0 100 4 2 2 0 000-4zm0-17a5 5 0 100 10 5 5 0 000-10zm-2 5a2 2 0 114 0 2 2 0 01-4 0zm12.2-26.07a1.5 1.5 0 00-1.5.07l-20 12.73c-.44.28-.7.76-.7 1.27v47.1a1.5 1.5 0 002.18 1.35L24.64 81.1l19.15 10.33c.44.24.97.24 1.42 0l19.33-10.35 22.33 10.39A1.5 1.5 0 0089 90.1V42a1.5 1.5 0 00-.82-1.34l-23-11.73a1.5 1.5 0 00-1.3-.04l-10.94 4.89a1.5 1.5 0 001.23 2.74l8.81-3.94v45.93l-17 9.1V53.55a1.5 1.5 0 10-3 0v34.04l-17.61-9.5a1.5 1.5 0 00-.37-.14v-45.2l8.5 4.46a1.5 1.5 0 101.39-2.66l-10.7-5.6zm41.78 49.51V32.7L86 42.92v44.84l-20.02-9.32zM22 32.99v46.08l-17 8.6V43.82L22 33z"/></svg>