<svg aria-hidden="true" class="svg-spot spotLocationLg" width="96" height="96" viewBox="0 0 96 96"><path d="M48.89 45.65C52.34 39.75 61 24.31 61 18.44 61 11.1 55.1 5 47.5 5 40.14 5 34 11.1 34 18.44c0 5.87 8.66 21.3 12.11 27.21a1.6 1.6 0 0 0 2.78 0ZM24.9 79.28l16.68 8.49A1.66 1.66 0 0 0 44 86.29V53.8c0-.29-.07-.57-.21-.81L40 46.25l-5.71-9.7a1.66 1.66 0 0 0-.81-.69l-7.2-2.93A1.66 1.66 0 0 0 24 34.47V77.8c0 .63.35 1.2.9 1.48Zm66.21-30.61L71.44 38.3A1.66 1.66 0 0 0 69 39.76v44.2c0 .63.37 1.22.95 1.5l19.67 9.4c1.1.53 2.38-.27 2.38-1.5V50.15c0-.62-.34-1.19-.89-1.48ZM20 72.5a3.5 3.5 0 1 1-7 0 3.5 3.5 0 0 1 7 0ZM16.5 62a3.5 3.5 0 1 0 0-7 3.5 3.5 0 0 0 0 7Z" opacity=".2"/><path d="M44 10.5a6.5 6.5 0 1 0 0 13 6.5 6.5 0 0 0 0-13ZM40.5 17a3.5 3.5 0 1 1 7 0 3.5 3.5 0 0 1-7 0Zm4.78 28.28.04-.07.03-.05.09-.14a158.88 158.88 0 0 0 1.97-3.36 237 237 0 0 0 4.67-8.5c1.7-3.26 3.4-6.77 4.7-9.95 1.26-3.1 2.22-6.11 2.22-8.27C59 6.53 52.43 0 44 0c-8.19 0-15 6.77-15 14.94 0 2.16.96 5.17 2.22 8.27 1.3 3.18 3 6.7 4.7 9.95a237 237 0 0 0 6.64 11.86l.07.12.05.07.04.07a1.5 1.5 0 0 0 2.56 0ZM44 3c6.79 0 12 5.2 12 11.94 0 1.5-.73 4.02-2 7.14a118 118 0 0 1-4.58 9.7A234.24 234.24 0 0 1 44 41.55a243.28 243.28 0 0 1-5.42-9.79A118 118 0 0 1 34 22.08c-1.27-3.12-2-5.64-2-7.14C32 8.44 37.46 3 44 3Zm-1.28 42.28L44 44.5l-1.28.78ZM44 44.5l1.28.78L44 44.5ZM9 69a5 5 0 1 1 10 0 5 5 0 0 1-10 0Zm5-2a2 2 0 1 0 0 4 2 2 0 0 0 0-4Zm0-17a5 5 0 1 0 0 10 5 5 0 0 0 0-10Zm-2 5a2 2 0 1 1 4 0 2 2 0 0 1-4 0Zm12.2-26.07a1.5 1.5 0 0 0-1.5.07l-20 12.73c-.44.28-.7.76-.7 1.27v47.1a1.5 1.5 0 0 0 2.18 1.35L24.64 81.1l19.15 10.33c.44.24.97.24 1.42 0l19.33-10.35 22.33 10.39A1.5 1.5 0 0 0 89 90.1V42a1.5 1.5 0 0 0-.82-1.34l-23-11.73a1.5 1.5 0 0 0-1.3-.04l-10.94 4.89a1.5 1.5 0 0 0 1.23 2.74l8.81-3.94v45.93l-17 9.1V53.55a1.5 1.5 0 1 0-3 0v34.04l-17.61-9.5a1.5 1.5 0 0 0-.37-.14v-45.2l8.5 4.46a1.5 1.5 0 1 0 1.39-2.66l-10.7-5.6Zm41.78 49.51V32.7L86 42.92v44.84l-20.02-9.32ZM22 32.99v46.08l-17 8.6V43.82L22 33Z"/></svg>