<svg aria-hidden="true" class="svg-spot spotLocationXL" width="196" height="196" viewBox="0 0 196 196"><path opacity=".07" d="M39.82 30.51C52.91 17.51 75.42 10.95 86.5 8c11.07-2.95 34.83-5.62 69.56 12 34.72 17.6 51.42 122.61 15.3 151.63-36.13 29.03-89.28 21.54-116.75 11.13-27.48-10.4-46.07-24.87-51.28-71.43-4.7-42.03 19.7-64.97 32.72-77.22 1.4-1.32 2.68-2.51 3.77-3.6ZM63.5 69.5 34 88v74.5L63.5 146 99 162.5l30-16.5 36 16.5-.5-73.5L129 69.5l-21.48 8.77 1.76-3.39c2.64-5.14 5.3-10.68 7.3-15.7 1.96-4.91 3.42-9.6 3.42-12.93C120 33.19 109.96 23 97 23c-12.58 0-23 10.58-23 23.25 0 3.32 1.46 8.02 3.42 12.94 2 5 4.66 10.55 7.3 15.7.98 1.9 1.96 3.77 2.91 5.54L63.5 69.5Z"/><path d="M105.2 94.23c5.38-9.38 18.8-33.71 18.8-42.98 0-11.6-9.16-21.25-21-21.25-11.45 0-21 9.66-21 21.25 0 9.27 13.42 33.6 18.8 42.98a2.51 2.51 0 0 0 4.4 0Zm-38.73 52.49 27.78 13.46a2.61 2.61 0 0 0 3.75-2.35v-51.39c0-.45-.12-.9-.34-1.3L91.6 94.5l-9.19-15.38a2.58 2.58 0 0 0-1.14-1.03l-12.55-5.86A2.61 2.61 0 0 0 65 74.6v69.76c0 1 .57 1.92 1.47 2.35Zm103.16-47.96-30.77-16.67a2.61 2.61 0 0 0-3.86 2.3v69.97c0 1 .57 1.92 1.47 2.35l30.77 14.96a2.61 2.61 0 0 0 3.76-2.35v-68.26c0-.96-.53-1.84-1.37-2.3ZM58 133a5 5 0 1 1-10 0 5 5 0 0 1 10 0Zm-5-16a5 5 0 1 0 0-10 5 5 0 0 0 0 10Z" opacity=".2"/><path d="M97 37a10 10 0 1 0 0 20 10 10 0 0 0 0-20Zm-6 10a6 6 0 1 1 12 0 6 6 0 0 1-12 0Zm7.72 47.02.01-.02.05-.08a148.8 148.8 0 0 0 .85-1.45 378.62 378.62 0 0 0 9.65-17.59c2.64-5.14 5.3-10.68 7.3-15.7 1.96-4.91 3.42-9.6 3.42-12.93C120 33.19 109.96 23 97 23c-12.58 0-23 10.58-23 23.25 0 3.32 1.46 8.02 3.42 12.94 2 5 4.66 10.55 7.3 15.7a376.68 376.68 0 0 0 10.5 19.03l.05.08.01.02a2 2 0 0 0 3.44 0ZM97 27c10.71 0 19 8.35 19 19.25 0 2.47-1.17 6.52-3.14 11.45a188.34 188.34 0 0 1-7.14 15.36A371.04 371.04 0 0 1 97 89.04a384.22 384.22 0 0 1-8.72-15.98c-2.61-5.1-5.2-10.51-7.14-15.36C79.17 52.77 78 48.72 78 46.25 78 35.75 86.67 27 97 27Zm-1.72 67.02L97 93l-1.72 1.02ZM97 93l1.72 1.02L97 93ZM30 26a2 2 0 0 1 2 2v4h4a2 2 0 1 1 0 4h-4v4a2 2 0 1 1-4 0v-4h-4a2 2 0 1 1 0-4h4v-4c0-1.1.9-2 2-2Zm151 19-4-4-4 4 4 4 4-4Zm-23 134.5-8.5-8.5-8.5 8.5 8.5 8.5 8.5-8.5Zm-8.5 2.83-2.83-2.83 2.83-2.83 2.83 2.83-2.83 2.83ZM42 130a7 7 0 1 1 14 0 7 7 0 0 1-14 0Zm7-3a3 3 0 1 0 0 6 3 3 0 0 0 0-6Zm0-25a7 7 0 1 0 0 14 7 7 0 0 0 0-14Zm-3 7a3 3 0 1 1 6 0 3 3 0 0 1-6 0Zm16.7-41.68a2 2 0 0 1 1.97-.11l17.7 8.8a2 2 0 0 1-1.78 3.59L66 72.34v72.69l31 14.64V105.5a2 2 0 1 1 4 0v54.28l26-14.69V72.14l-14.25 6.36a2 2 0 1 1-1.63-3.65l17.2-7.68a2 2 0 0 1 1.79.08l35.86 20.04a2 2 0 0 1 1.03 1.74V163a2 2 0 0 1-2.85 1.81l-34.84-16.33-.2.02-28.77 16.24a2 2 0 0 1-1.16.25L99 165a2 2 0 0 1-1.48-.66l-33.66-15.9-28.88 16.3A2 2 0 0 1 32 163V88.1a2 2 0 0 1 .92-1.68l29.78-19.1ZM163 159.85V90.21l-32-17.88v72.52l32 15ZM62 144.9V72.52L36 89.2v70.37l26-14.68Z"/></svg>