<svg aria-hidden="true" class="svg-spot spotLocationXL" width="196" height="196" viewBox="0 0 196 196"><path opacity=".07" d="M39.82 30.51C52.91 17.51 75.42 10.95 86.5 8c11.07-2.95 34.83-5.62 69.56 12 34.72 17.6 51.42 122.61 15.3 151.63-36.13 29.03-89.28 21.54-116.75 11.13-27.48-10.4-46.07-24.87-51.28-71.43-5.2-46.56 25.3-69.69 36.5-80.82z"/><path d="M105.2 94.23c5.38-9.38 18.8-33.71 18.8-42.98 0-11.6-9.16-21.25-21-21.25-11.45 0-21 9.66-21 21.25 0 9.27 13.42 33.6 18.8 42.98a2.51 2.51 0 004.4 0zm-38.73 52.49l27.78 13.46a2.61 2.61 0 003.75-2.35v-51.39c0-.45-.12-.9-.34-1.3L91.6 94.5l-9.19-15.38a2.58 2.58 0 00-1.14-1.03l-12.55-5.86A2.61 2.61 0 0065 74.6v69.76c0 1 .57 1.92 1.47 2.35zm103.16-47.96l-30.77-16.67a2.61 2.61 0 00-3.86 2.3v69.97c0 1 .57 1.92 1.47 2.35l30.77 14.96a2.61 2.61 0 003.76-2.35v-68.26c0-.96-.53-1.84-1.37-2.3zM58 133a5 5 0 11-10 0 5 5 0 0110 0zm-5-16a5 5 0 100-10 5 5 0 000 10z" opacity=".2"/><path d="M97 37a10 10 0 100 20 10 10 0 000-20zm-6 10a6 6 0 1112 0 6 6 0 01-12 0zm7.72 47.02l.01-.02.05-.08a148.8 148.8 0 00.85-1.45 378.62 378.62 0 009.65-17.59c2.64-5.14 5.3-10.68 7.3-15.7 1.96-4.91 3.42-9.6 3.42-12.93C120 33.19 109.96 23 97 23c-12.58 0-23 10.58-23 23.25 0 3.32 1.46 8.02 3.42 12.94 2 5 4.66 10.55 7.3 15.7a376.68 376.68 0 0010.5 19.03l.05.08.01.02a2 2 0 003.44 0zM97 27c10.71 0 19 8.35 19 19.25 0 2.47-1.17 6.52-3.14 11.45a188.34 188.34 0 01-7.14 15.36A371.04 371.04 0 0197 89.04a384.22 384.22 0 01-8.72-15.98c-2.61-5.1-5.2-10.51-7.14-15.36C79.17 52.77 78 48.72 78 46.25 78 35.75 86.67 27 97 27zm-1.72 67.02L97 93l-1.72 1.02zM97 93l1.72 1.02L97 93zM30 26a2 2 0 012 2v4h4a2 2 0 110 4h-4v4a2 2 0 11-4 0v-4h-4a2 2 0 110-4h4v-4c0-1.1.9-2 2-2zm151 19l-4-4-4 4 4 4 4-4zm-23 134.5l-8.5-8.5-8.5 8.5 8.5 8.5 8.5-8.5zm-8.5 2.83l-2.83-2.83 2.83-2.83 2.83 2.83-2.83 2.83zM42 130a7 7 0 1114 0 7 7 0 01-14 0zm7-3a3 3 0 100 6 3 3 0 000-6zm0-25a7 7 0 100 14 7 7 0 000-14zm-3 7a3 3 0 116 0 3 3 0 01-6 0zm16.7-41.68a2 2 0 011.97-.11l17.7 8.8a2 2 0 01-1.78 3.59L66 72.34v72.69l31 14.64V105.5a2 2 0 114 0v54.28l26-14.69V72.14l-14.25 6.36a2 2 0 11-1.63-3.65l17.2-7.68a2 2 0 011.79.08l35.86 20.04a2 2 0 011.03 1.74V163a2 2 0 01-2.85 1.81l-34.84-16.33-.2.02-28.77 16.24a2 2 0 01-1.16.25L99 165a2 2 0 01-1.48-.66l-33.66-15.9-28.88 16.3A2 2 0 0132 163V88.1a2 2 0 01.92-1.68l29.78-19.1zM163 159.85V90.21l-32-17.88v72.52l32 15zM62 144.9V72.52L36 89.2v70.37l26-14.68z"/></svg>