<svg aria-hidden="true" class="svg-spot spotLockLg" width="96" height="96" viewBox="0 0 96 96"><path opacity=".2" d="M24 45a3 3 0 00-3 3v42a3 3 0 003 3h55a5 5 0 005-5V48a3 3 0 00-3-3H24zm28.3 21.62a93.34 93.34 0 001.72 7.83A2.04 2.04 0 0152.05 77h-9.1a2.04 2.04 0 01-1.97-2.55 91.3 91.3 0 0 0 1.72-7.83 9 9 0 1 1 9.6 0z"/><path d="M54.02 74.45a93.34 93.34 0 01-1.72-7.83 9 9 0 1 0-9.6 0 93.34 93.34 0 0 1-1.72 7.83A2.04 2.04 0 0042.95 77h9.1c1.33 0 2.3-1.27 1.97-2.55zM50.7 64.08a3 3 0 00-1.36 3.01c.36 2.25.95 4.85 1.47 6.91h-6.62a88.25 88.25 0 001.47-6.9 3 3 0 0 0-1.36-3.02 6 6 0 1 1 6.4 0zM24 26.5V38h-5.5a4.5 4.5 0 00-4.5 4.5v42a4.5 4.5 0 004.5 4.5h57a4.5 4.5 0 004.5-4.5v-42a4.5 4.5 0 00-4.5-4.5H70V26.5C70 13.87 59.93 3 47 3S24 13.87 24 26.5zM47 6c11.17 0 20 9.42 20 20.5V38H27V26.5C27 15.42 35.83 6 47 6zM18.5 41h57c.83 0 1.5.67 1.5 1.5v42c0 .83-.67 1.5-1.5 1.5h-57a1.5 1.5 0 01-1.5-1.5v-42c0-.83.67-1.5 1.5-1.5z"/></svg>