<svg aria-hidden="true" class="svg-spot spotLock" width="48" height="48" viewBox="0 0 48 48"><path opacity=".2" d="M12 22a2 2 0 0 0-2 2v19a4 4 0 0 0 4 4h24a4 4 0 0 0 4-4V26a4 4 0 0 0-4-4H12Zm6 7a5 5 0 1 1 7.67 4.23l.05.35c.15.84.36 1.8.61 2.86A2.06 2.06 0 0 1 24.35 39h-2.7a2.06 2.06 0 0 1-1.98-2.56c.29-1.2.52-2.3.66-3.2l-.19-.14A5 5 0 0 1 18 29Z"/><path d="M23 24a5 5 0 0 0-2.86 9.1l.2.13c-.15.91-.38 2-.67 3.21A2.06 2.06 0 0 0 21.65 39h2.7c1.32 0 2.3-1.26 1.98-2.56a46.74 46.74 0 0 1-.6-2.86l-.06-.35A5 5 0 0 0 23 24Zm0 2a3 3 0 0 1 1.76 5.43l-.16.11a2 2 0 0 0-.91 2c.16.98.4 2.12.7 3.37.01.05-.02.09-.04.09h-2.7c-.02 0-.05-.04-.04-.09.3-1.25.54-2.4.7-3.36a2 2 0 0 0-.78-1.92l-.13-.09A3 3 0 0 1 23 26ZM12 12.44V18H9a3 3 0 0 0-3 3v21a3 3 0 0 0 3 3h28a3 3 0 0 0 3-3V21a3 3 0 0 0-3-3h-3v-5.56C34 6.2 29.36 1 23 1S12 6.19 12 12.44ZM23 3c5.14 0 9 4.18 9 9.44V18H14v-5.56C14 7.18 17.86 3 23 3ZM9 20h28a1 1 0 0 1 1 1v21a1 1 0 0 1-1 1H9a1 1 0 0 1-1-1V21a1 1 0 0 1 1-1Z"/></svg>