<svg aria-hidden="true" class="svg-spot spotLockXL" width="196" height="196" viewBox="0 0 196 196"><path opacity=".07" d="M164 28c10.67 5.55 23.13 23.87 30 68 6.87 44.13-21.09 91.13-73.5 91.13-39.5 0-80.63 11.47-106.3-24.13-25.68-35.6-11.09-90.2 4.55-117.5C34.39 18.2 43.73 4.4 93.67 6.75 143.62 9.09 147.5 19.43 164 28z"/><path opacity=".2" d="M45 94a4 4 0 014-4h103a7 7 0 017 7v66a10 10 0 01-10 10H52a7 7 0 01-7-7V94z"/><path d="M131 9l4 4-4 4-4-4 4-4zM13 44a2 2 0 012 2v4h4a2 2 0 110 4h-4v4a2 2 0 11-4 0v-4H7a2 2 0 110-4h4v-4c0-1.1.9-2 2-2zm182 106.5l-8.5-8.5-8.5 8.5 8.5 8.5 8.5-8.5zm-8.5 2.83l-2.83-2.83 2.83-2.83 2.83 2.83-2.83 2.83zm-82-11.88c-.85-3.25-2.3-9-3.04-13.6A13.99 13.99 0 0094 102a14 14 0 00-7.46 25.85 156.3 156.3 0 01-3.05 13.6 2.03 2.03 0 001.96 2.55h17.1c1.33 0 2.3-1.26 1.96-2.55zm-5.17-16.98a4 4 0 00-1.82 4.01c.6 3.77 1.65 8.2 2.49 11.52H88c.84-3.32 1.88-7.75 2.49-11.52a4 4 0 00-1.82-4.01 10 10 0 1110.66 0zM54 55.7V81H43a7 7 0 00-7 7v71a7 7 0 007 7h102a7 7 0 007-7V88a7 7 0 00-7-7h-8V55.7C137 33.21 118.25 15 95.5 15S54 33.22 54 55.7zM95.5 19c20.63 0 37.5 16.5 37.5 36.7V81H58V55.7C58 35.5 74.87 19 95.5 19zM40 88a3 3 0 013-3h102a3 3 0 013 3v71a3 3 0 01-3 3H43a3 3 0 01-3-3V88z"/></svg>