<svg aria-hidden="true" class="svg-spot spotLockXL" width="196" height="196" viewBox="0 0 196 196"><path opacity=".07" d="M194 96c-6.87-44.13-19.33-62.45-30-68a110.63 110.63 0 0 1-9.18-5.49c-10.92-7.04-21.59-13.9-61.15-15.76C43.73 4.4 34.4 18.2 18.75 45.5 3.11 72.8-11.48 127.4 14.2 163c20.6 28.57 51.15 26.83 82.82 25.03 7.8-.45 15.67-.9 23.48-.9 52.41 0 80.37-47 73.5-91.13ZM43 81h102a7 7 0 0 1 7 7v71a7 7 0 0 1-7 7H43a7 7 0 0 1-7-7V88a7 7 0 0 1 7-7Z"/><path opacity=".2" d="M49 90a4 4 0 0 0-4 4v72a7 7 0 0 0 7 7h97a10 10 0 0 0 10-10V97a7 7 0 0 0-7-7H49Zm52.46 37.85a154.9 154.9 0 0 0 3.05 13.6 2.03 2.03 0 0 1-1.95 2.55H85.45a2.03 2.03 0 0 1-1.96-2.55c.86-3.25 2.31-9 3.05-13.6A13.99 13.99 0 0 1 94 102a14 14 0 0 1 7.46 25.85Z"/><path d="m131 9 4 4-4 4-4-4 4-4ZM13 44a2 2 0 0 1 2 2v4h4a2 2 0 1 1 0 4h-4v4a2 2 0 1 1-4 0v-4H7a2 2 0 1 1 0-4h4v-4c0-1.1.9-2 2-2Zm182 106.5-8.5-8.5-8.5 8.5 8.5 8.5 8.5-8.5Zm-8.5 2.83-2.83-2.83 2.83-2.83 2.83 2.83-2.83 2.83Zm-82-11.88c-.85-3.25-2.3-9-3.04-13.6A13.99 13.99 0 0 0 94 102a14 14 0 0 0-7.46 25.85 156.3 156.3 0 0 1-3.05 13.6 2.03 2.03 0 0 0 1.96 2.55h17.1c1.33 0 2.3-1.26 1.96-2.55Zm-5.17-16.98a4 4 0 0 0-1.82 4.01c.6 3.77 1.65 8.2 2.49 11.52H88c.84-3.32 1.88-7.75 2.49-11.52a4 4 0 0 0-1.82-4.01 10 10 0 1 1 10.66 0ZM54 55.7V81H43a7 7 0 0 0-7 7v71a7 7 0 0 0 7 7h102a7 7 0 0 0 7-7V88a7 7 0 0 0-7-7h-8V55.7C137 33.21 118.25 15 95.5 15S54 33.22 54 55.7ZM95.5 19c20.63 0 37.5 16.5 37.5 36.7V81H58V55.7C58 35.5 74.87 19 95.5 19ZM40 88a3 3 0 0 1 3-3h102a3 3 0 0 1 3 3v71a3 3 0 0 1-3 3H43a3 3 0 0 1-3-3V88Z"/></svg>