<svg aria-hidden="true" class="svg-spot spotMagnet" width="48" height="48" viewBox="0 0 48 48"><path d="M44 7v7a1 1 0 0 1-1 1h-5a1 1 0 0 1-1-1V7a1 1 0 0 1 1-1h5a1 1 0 0 1 1 1Zm0 31v7a1 1 0 0 1-1 1h-5a1 1 0 0 1-1-1v-7a1 1 0 0 1 1-1h5a1 1 0 0 1 1 1Z" opacity=".2"/><path d="M19.97 7.75a1 1 0 0 1-.72 1.22 4.92 4.92 0 0 0-1.6.8 1 1 0 0 1-1.3-1.53 6.84 6.84 0 0 1 2.4-1.2 1 1 0 0 1 1.22.71ZM14.6 11.8a1 1 0 1 0-1.2-1.6c-2.3 1.7-4.13 3.9-5.3 6.37a1 1 0 1 0 1.8.86 15.12 15.12 0 0 1 4.7-5.63ZM42 33a1 1 0 0 1 1 1v10a1 1 0 0 1-1 1H23.73C12.27 45 3 35.58 3 24 3 12.44 12.26 3 23.73 3H42a1 1 0 0 1 1 1v8a1 1 0 0 1-1 1H23.88A9.95 9.95 0 0 0 14 23a10 10 0 0 0 2.9 7.07A9.75 9.75 0 0 0 23.89 33H42ZM41 5h-5v6h5V5Zm-7 6V5H23.73A18.84 18.84 0 0 0 5.1 22h6.94c.5-6.15 5.6-11 11.84-11H34ZM12.04 24H5c0 10.5 8.4 19 18.73 19H34v-8H23.88a11.98 11.98 0 0 1-11.84-11ZM36 35v8h5v-8h-5Z"/></svg>