<svg aria-hidden="true" class="svg-spot spotMagnetXL" width="196" height="196" viewBox="0 0 196 196"><path opacity=".07" d="M163.53 20.85c-38.4-23.57-87.66-9.88-117.9 4.59-14.87 7.1-25.77 18.93-35.64 57.23-9.88 38.31 6.67 85.04 33.62 97.68 26.95 12.65 81.24 13.55 119.77-15.18 38.54-28.72 33.9-123.6.16-144.32zM141 127v26H86.28C54.24 153 30 127.42 30 95.5 30 63.57 54.2 38 86.28 38H141v25H87.95C70.24 63 56 78.11 56 95.83c0 8.86 2.84 16.13 8.66 21.92 5.79 5.82 14.44 9.25 23.3 9.25H141z"/><path d="M146 46v19a3 3 0 01-3 3h-15a3 3 0 01-3-3V46a3 3 0 013-3h15a3 3 0 013 3zm0 89v20a3 3 0 01-3 3h-15a3 3 0 01-3-3v-20a3 3 0 013-3h15a3 3 0 013 3zm28.63-77.98a2 2 0 01-2.8.46l-7.83-5.6V59a2 2 0 01-3.16 1.63l-11-7.86a2 2 0 012.32-3.25l7.84 5.6V48a2 2 0 013.16-1.63l11 7.86a2 2 0 01.47 2.79zm-2.59 87.74a2 2 0 001.92-3.52l-11-6A2 2 0 00160 137v5.22l-7.87-5.37a2 2 0 10-2.26 3.3l11 7.5A2 2 0 00164 146v-5.63l8.04 4.39z" opacity=".2"/><path d="M174 22a2 2 0 10-4 0v4h-4a2 2 0 100 4h4v4a2 2 0 104 0v-4h4a2 2 0 100-4h-4v-4zM23.29 153l9.29 9.29-9.3 9.29-9.28-9.3 9.29-9.28zm-3.1 9.29l3.1 3.1 3.1-3.1-3.1-3.1-3.1 3.1zM41.37 175l4.37 4.37-4.37 4.37-4.37-4.37 4.37-4.37zM68.72 49.97a2 2 0 01-.7 2.74l-5 3a2 2 0 11-2.05-3.43l5-3a2 2 0 012.75.7zM58.26 60.55a2 2 0 00-2.52-3.1c-6.06 4.93-11.36 10.3-14.58 17.76a2 2 0 103.68 1.58c2.84-6.59 7.56-11.47 13.42-16.24zm84.66 67.02a2 2 0 01.08.56V153a2 2 0 01-2 2H86.28C53.08 155 28 128.47 28 95.5S53.04 36 86.28 36H141a2 2 0 012 2v25a2 2 0 01-2 2H87.95C71.41 65 58 79.15 58 95.83c0 8.38 2.67 15.12 8.07 20.5h.01c5.38 5.42 13.5 8.67 21.87 8.67H141a2 2 0 011.92 2.57zM139 129h-17v22h17v-22zm0-68V40h-17v21h17zm-21 0V40H86.28c-30.4 0-53.52 23.83-54.26 54h22.03c.94-17.96 15.63-33 33.9-33H118zM54.06 98h-22c1.22 29.7 24.18 53 54.22 53H118v-22H87.95c-9.34 0-18.5-3.61-24.7-9.84-5.75-5.71-8.76-12.78-9.2-21.16z"/></svg>