<svg aria-hidden="true" class="svg-spot spotMagnetLg" width="96" height="96" viewBox="0 0 96 96"><path d="M77 16v12a2 2 0 0 1-2 2h-9a2 2 0 0 1-2-2V16c0-1.1.9-2 2-2h9a2 2 0 0 1 2 2Zm0 57v13a2 2 0 0 1-2 2h-9a2 2 0 0 1-2-2V73c0-1.1.9-2 2-2h9a2 2 0 0 1 2 2Zm18.28-50.93a1.5 1.5 0 0 1-2.06.5L89 19.98v3.33a1.5 1.5 0 0 1-2.28 1.28l-7.5-4.6a1.5 1.5 0 0 1 1.56-2.57l5.22 3.2v-3.31a1.5 1.5 0 0 1 2.28-1.28l6.5 3.97c.71.43.93 1.35.5 2.06Zm-2.06 59.49a1.5 1.5 0 1 0 1.56-2.55l-6.5-4.11A1.5 1.5 0 0 0 86 76.18v3.32l-5.22-3.06a1.5 1.5 0 1 0-1.56 2.55l7.5 4.47A1.5 1.5 0 0 0 89 82.18v-3.33l4.22 2.72Z" opacity=".2"/><path d="M27.75 17.67a1.5 1.5 0 0 1-.42 2.08l-3 2a1.5 1.5 0 1 1-1.66-2.5l3-2a1.5 1.5 0 0 1 2.08.42Zm-7.3 6.99a1.5 1.5 0 0 0-1.9-2.32c-3.9 3.2-7.34 6.7-9.43 11.57a1.5 1.5 0 1 0 2.76 1.18c1.8-4.22 4.81-7.35 8.57-10.43ZM74.91 68c.06.16.09.32.09.5v16a1.5 1.5 0 0 1-1.5 1.5h-35C17.12 86 1 68.82 1 47.5S17.1 9 38.5 9h35a1.5 1.5 0 0 1 1.5 1.5v16c0 .83-.67 1.5-1.5 1.5h-34c-10.47 0-18.97 8.95-18.98 19.51v.04c0 5.3 1.7 9.56 5.1 12.96h.02C29.04 63.94 34.19 66 39.5 66h34a1.5 1.5 0 0 1 1.41 2ZM72 69H62v14h10V69Zm-13 0H39.5c-6.04 0-11.97-2.33-15.99-6.37a20.08 20.08 0 0 1-5.95-13.6H4.03C4.78 68.07 19.39 83 38.5 83H59V69ZM17.57 46.03C18.33 34.56 27.77 25 39.5 25H59V12H38.5C19.35 12 4.74 26.96 4.03 46.03h13.54ZM62 25h10V12H62v13Z"/></svg>