<svg aria-hidden="true" class="svg-spot spotMagnetXL" width="196" height="196" viewBox="0 0 196 196"><path opacity=".07" d="M163.53 20.85c-38.4-23.57-87.66-9.88-117.9 4.59-14.87 7.1-25.77 18.93-35.64 57.23-9.88 38.31 6.67 85.04 33.62 97.68 26.95 12.65 81.24 13.55 119.77-15.18 38.54-28.72 33.9-123.6.16-144.32ZM141 127v26H86.28C54.24 153 30 127.42 30 95.5 30 63.57 54.2 38 86.28 38H141v25H87.95C70.24 63 56 78.11 56 95.83c0 8.86 2.84 16.13 8.66 21.92 5.79 5.82 14.44 9.25 23.3 9.25H141Z"/><path d="M146 65V46a3 3 0 0 0-3-3h-15a3 3 0 0 0-3 3v19a3 3 0 0 0 3 3h15a3 3 0 0 0 3-3Zm0 90v-20a3 3 0 0 0-3-3h-15a3 3 0 0 0-3 3v20a3 3 0 0 0 3 3h15a3 3 0 0 0 3-3Zm14.63-109.67a3 3 0 0 1 3.11.23l11 7.86a3 3 0 0 1-3.48 4.88L165 53.83V59a3 3 0 0 1-4.74 2.44l-11-7.86a3 3 0 0 1 3.48-4.88l6.26 4.47V48a3 3 0 0 1 1.63-2.67Zm-.16 89.09a3 3 0 0 1 2.97-.05l11 6a3 3 0 0 1-2.88 5.26l-6.56-3.58V146a3 3 0 0 1-4.69 2.48l-11-7.5a3 3 0 0 1 3.38-4.96l6.31 4.3V137a3 3 0 0 1 1.47-2.58Z" opacity=".2"/><path d="M174 22a2 2 0 1 0-4 0v4h-4a2 2 0 1 0 0 4h4v4a2 2 0 1 0 4 0v-4h4a2 2 0 1 0 0-4h-4v-4ZM23.29 153l9.29 9.29-9.3 9.29-9.28-9.3 9.29-9.28Zm-3.1 9.29 3.1 3.1 3.1-3.1-3.1-3.1-3.1 3.1ZM41.37 175l4.37 4.37-4.37 4.37-4.37-4.37 4.37-4.37ZM68.72 49.97a2 2 0 0 1-.7 2.74l-5 3a2 2 0 1 1-2.05-3.43l5-3a2 2 0 0 1 2.75.7ZM58.26 60.55a2 2 0 0 0-2.52-3.1c-6.06 4.93-11.36 10.3-14.58 17.76a2 2 0 1 0 3.68 1.58c2.84-6.59 7.56-11.47 13.42-16.24Zm84.66 67.02a2 2 0 0 1 .08.56V153a2 2 0 0 1-2 2H86.28C53.08 155 28 128.47 28 95.5S53.04 36 86.28 36H141a2 2 0 0 1 2 2v25a2 2 0 0 1-2 2H87.95C71.41 65 58 79.15 58 95.83c0 8.38 2.67 15.12 8.07 20.5h.01c5.38 5.42 13.5 8.67 21.87 8.67H141a2 2 0 0 1 1.92 2.57ZM139 129h-17v22h17v-22Zm0-68V40h-17v21h17Zm-21 0V40H86.28c-30.4 0-53.52 23.83-54.26 54h22.03c.94-17.96 15.63-33 33.9-33H118ZM54.06 98h-22c1.22 29.7 24.18 53 54.22 53H118v-22H87.95c-9.34 0-18.5-3.61-24.7-9.84-5.75-5.71-8.76-12.78-9.2-21.16Z"/></svg>