<svg aria-hidden="true" class="svg-spot spotMailLg" width="96" height="96" viewBox="0 0 96 96"><path opacity=".2" d="m8 37.9 34.75 21.51a5.8 5.8 0 0 0 5.88-.04l36.6-22.54A5.8 5.8 0 0 1 94 41.8v46.4c0 3.2-2.6 5.8-5.8 5.8H13.8A5.8 5.8 0 0 1 8 88.2V37.9Z"/><path d="M11 7.5A4.5 4.5 0 0 1 15.5 3h60A4.5 4.5 0 0 1 80 7.5v18a1.5 1.5 0 0 1-3 0v-18c0-.83-.67-1.5-1.5-1.5h-60c-.83 0-1.5.67-1.5 1.5v18a1.5 1.5 0 0 1-3 0v-18ZM31.55 13a3.2 3.2 0 0 0-3 2.59A3.4 3.4 0 0 0 25.38 13a3.3 3.3 0 0 0-2.54 1.06 3.2 3.2 0 0 0-.8 2.61c0 3.03 3.96 5.82 5.63 7l.09.06a1.2 1.2 0 0 0 1.51 0l.26-.18c1.66-1.2 5.47-3.96 5.47-6.88 0-1.61-.48-3.67-3.45-3.67ZM1 23.5A4.5 4.5 0 0 1 5.5 19h2a1.5 1.5 0 0 1 0 3h-2c-.83 0-1.5.67-1.5 1.5v4.36l41.23 26.2c.17.1.37.1.54 0L87 27.85V23.5c0-.83-.67-1.5-1.5-1.5h-2a1.5 1.5 0 0 1 0-3h2a4.5 4.5 0 0 1 4.5 4.5v62a4.5 4.5 0 0 1-4.5 4.5h-80A4.5 4.5 0 0 1 1 85.5v-62Zm86 7.91L56.75 50.63l22.81 22.8a1.5 1.5 0 0 1-2.12 2.13L54.16 52.28l-6.78 4.3a3.5 3.5 0 0 1-3.76 0l-6.78-4.3-23.28 23.28a1.5 1.5 0 0 1-2.12-2.12l22.8-22.81L4 31.41V85.5c0 .83.67 1.5 1.5 1.5h80c.83 0 1.5-.67 1.5-1.5V31.41ZM42.5 24a1.5 1.5 0 0 0 0 3h26a1.5 1.5 0 0 0 0-3h-26ZM41 16.5c0-.83.67-1.5 1.5-1.5h17a1.5 1.5 0 0 1 0 3h-17a1.5 1.5 0 0 1-1.5-1.5ZM42.5 33a1.5 1.5 0 0 0 0 3h16a1.5 1.5 0 0 0 0-3h-16Z"/></svg>