<svg aria-hidden="true" class="svg-spot spotMailXL" width="196" height="196" viewBox="0 0 196 196"><path opacity=".07" d="M53.16 172.69c-3.79-.84-49.34-8.36-45.98-63.81C10.53 53.42 23.29 31.1 41 25c17.7-6.1 68.72-34.45 102.5-7 33.78 27.45 55.96 59.17 41.5 103-14.46 43.84-30.26 66.24-68 64-37.74-2.24-45.81-8.34-63.84-12.31z"/><path opacity=".2" d="M46 78.13l47.25 30.14a8 8 0 008.24-.07l51.21-33c5.41-3.3 12.29.66 12.29 7.06v65.51a8.18 8.18 0 01-8.11 8.24H54.1a8.18 8.18 0 01-8.11-8.24V78.13z"/><path d="M55 29a7 7 0 00-7 7v24a2 2 0 104 0V36a3 3 0 013-3h83a3 3 0 013 3v24a2 2 0 104 0V36a7 7 0 00-7-7H55zm38 17a2 2 0 100 4h23a2 2 0 100-4H93zm-49.24 8H42a3 3 0 00-3 3v5.92l57.5 37.69L154 62.92V57a3 3 0 00-3-3h-1.76a2 2 0 110-4H151a7 7 0 017 7v85a7 7 0 01-7 7H42a7 7 0 01-7-7V57a7 7 0 017-7h1.76a2 2 0 110 4zM39 142a3 3 0 003 3h109a3 3 0 003-3V67.7l-41.95 27.5 33.34 32.36a2 2 0 11-2.78 2.88l-33.99-33-9.93 6.51a4 4 0 01-4.38 0l-9.93-6.5-32.97 32.96a2 2 0 01-2.82-2.82L80.96 95.2 39 67.7V142zm52-83c0-1.1.9-2 2-2h36a2 2 0 110 4H93a2 2 0 01-2-2zm0 11c0-1.1.9-2 2-2h23a2 2 0 110 4H93a2 2 0 01-2-2zm75-40a2 2 0 012 2v4h4a2 2 0 110 4h-4v4a2 2 0 11-4 0v-4h-4a2 2 0 110-4h4v-4c0-1.1.9-2 2-2zM44.48 166.79l4.24 4.24-4.24 4.24-4.25-4.24 4.25-4.24zM19.17 40.34l8.49 8.49-8.49 8.48-8.48-8.48 8.48-8.49zm-2.83 8.49l2.83 2.83L22 48.83 19.17 46l-2.83 2.83zM77.23 42a4.5 4.5 0 00-4.16 3.77A4.77 4.77 0 0068.7 42a4.43 4.43 0 00-3.52 1.54 4.82 4.82 0 00-1.13 3.8c0 4.4 5.5 8.47 7.8 10.18l.13.1c.61.51 1.49.51 2.1 0 .11-.1.23-.18.36-.28 2.3-1.75 7.57-5.76 7.57-10 0-2.35-.67-5.34-4.77-5.34z"/></svg>