<svg aria-hidden="true" class="svg-spot spotMail" width="48" height="48" viewBox="0 0 48 48"><path opacity=".2" d="m4 20.5 17.47 10.11a3 3 0 0 0 3.05-.02l17.94-11.36A3 3 0 0 1 47 21.8V44a3 3 0 0 1-3 3H7a3 3 0 0 1-3-3V20.5Z"/><path d="M8 13a1 1 0 1 1-2 0V4a3 3 0 0 1 3-3h28a3 3 0 0 1 3 3v9a1 1 0 1 1-2 0V4a1 1 0 0 0-1-1H9a1 1 0 0 0-1 1v9Zm8.16-7c-.8.04-1.48.62-1.62 1.41-.2-.8-.9-1.37-1.71-1.4a1.76 1.76 0 0 0-1.81 2c0 1.64 2.14 3.17 3.04 3.8l.05.04c.24.2.58.2.82 0l.14-.1c.9-.66 2.95-2.16 2.95-3.75 0-.88-.26-2-1.86-2ZM41 10a1 1 0 0 0 1 1 1 1 0 0 1 1 1v2L23.96 26.2a2 2 0 0 1-2.07 0L3 14.1V12a1 1 0 0 1 1-1 1 1 0 1 0 0-2 3 3 0 0 0-3 3v30a3 3 0 0 0 3 3h38a3 3 0 0 0 3-3V12a3 3 0 0 0-3-3 1 1 0 0 0-1 1ZM4 43a1 1 0 0 1-1-1V16.43l14.01 9.14L6.3 37.3a1 1 0 1 0 1.42 1.42l11-12a1 1 0 0 0 .06-.07l2.08 1.26a4 4 0 0 0 4.15 0l2.18-1.32a1 1 0 0 0 .11.13l12 12a1 1 0 0 0 1.42-1.42L28.93 25.52 43 16.34V42a1 1 0 0 1-1 1H4ZM21 8a1 1 0 0 0 1 1h8a1 1 0 1 0 0-2h-8a1 1 0 0 0-1 1Zm1 6a1 1 0 1 1 0-2h13a1 1 0 1 1 0 2H22Zm-1 4a1 1 0 0 0 1 1h8a1 1 0 1 0 0-2h-8a1 1 0 0 0-1 1Z"/></svg>