<svg aria-hidden="true" class="svg-spot spotMailMd" width="48" height="48" viewBox="0 0 48 48"><path d="M15.54 7.41a1.7 1.7 0 0 1 1.62-1.4c1.6 0 1.86 1.11 1.86 2 0 1.58-2.06 3.08-2.95 3.74l-.14.1c-.24.2-.58.2-.82 0l-.05-.03c-.9-.64-3.04-2.17-3.04-3.82a1.76 1.76 0 0 1 1.8-2c.83.04 1.53.61 1.72 1.41z"/><path d="M44 12a1 1 0 1 1 0-2 3 3 0 0 1 3 3v31a3 3 0 0 1-3 3H4a3 3 0 0 1-3-3V13a3 3 0 0 1 3-3 1 1 0 1 1 0 2 1 1 0 0 0-1 1v2.1l19.89 12.1a2 2 0 0 0 2.07 0L45 15v-2a1 1 0 0 0-1-1zM3 44V17.43L21.85 28.9a4 4 0 0 0 4.15 0l19-11.56V44a1 1 0 0 1-1 1H4a1 1 0 0 1-1-1z"/><g opacity=".5" fill="#000"><path d="M7 15a1 1 0 0 0 1-1V4a1 1 0 0 1 1-1h30a1 1 0 0 1 1 1v10a1 1 0 1 0 2 0V4a3 3 0 0 0-3-3H9a3 3 0 0 0-3 3v10a1 1 0 0 0 1 1z"/><path d="M22 8a1 1 0 0 0 1 1h8a1 1 0 1 0 0-2h-8a1 1 0 0 0-1 1zm1 6a1 1 0 1 1 0-2h13a1 1 0 1 1 0 2H23zM6.3 38.3a1 1 0 1 0 1.4 1.4l12-12a1 1 0 0 0-1.4-1.4l-12 12zm35.4 0a1 1 0 0 1-1.4 1.4l-12-12a1 1 0 0 1 1.4-1.4l12 12zM23 19a1 1 0 1 1 0-2h8a1 1 0 1 1 0 2h-8z"/></g></svg>