<svg width="48" height="48" viewBox="0 0 48 48" fill="none"><g><path d="M17.16 6c-.8.04-1.48.62-1.62 1.41 0 .06 0 .06 0 0-.2-.8-.9-1.37-1.71-1.4a1.76 1.76 0 0 0-1.81 2c0 1.67 2.22 3.22 3.09 3.84.24.2.58.2.82 0 .8-.59 3.09-2.17 3.09-3.85 0-.88-.26-2-1.86-2z"/><path d="M43 11a1 1 0 0 0 1 1 1 1 0 0 1 1 1v2L24.96 27.2a2 2 0 0 1-2.07 0L3 15.1V13a1 1 0 0 1 1-1 1 1 0 1 0 0-2 3 3 0 0 0-3 3v31a3 3 0 0 0 3 3h40a3 3 0 0 0 3-3V13a3 3 0 0 0-3-3 1 1 0 0 0-1 1zM3 17.43V44a1 1 0 0 0 1 1h40a1 1 0 0 0 1-1V17.34L26 28.9a4 4 0 0 1-4.15 0L3 17.43z"/><g opacity=".5"><path d="M7 15a1 1 0 0 0 1-1V4a1 1 0 0 1 1-1h30a1 1 0 0 1 1 1v10a1 1 0 1 0 2 0V4a3 3 0 0 0-3-3H9a3 3 0 0 0-3 3v10a1 1 0 0 0 1 1z"/><path d="M22 8a1 1 0 0 0 1 1h8a1 1 0 1 0 0-2h-8a1 1 0 0 0-1 1zm1 6a1 1 0 1 1 0-2h13a1 1 0 1 1 0 2H23zM6.3 38.3a1 1 0 1 0 1.4 1.4l12-12a1 1 0 0 0-1.4-1.4l-12 12zm35.4 0a1 1 0 0 1-1.4 1.4l-12-12a1 1 0 0 1 1.4-1.4l12 12zM23 19a1 1 0 1 1 0-2h8a1 1 0 1 1 0 2h-8z"/></g></g></svg>