<svg aria-hidden="true" class="svg-spot spotMentionXL" width="196" height="196" viewBox="0 0 196 196"><path opacity=".07" d="M174.49 61.7c10.37 27.41 18.66 71.33-4.7 103.03-20.52 27.85-119.13 27.6-141.3-8.08-22.18-35.68-8.67-81.07 4.33-103.6 13-22.54 28.6-36.75 72.06-34.71 43.45 2.03 64.51 29.9 69.6 43.36Z"/><circle opacity=".2" cx="106.23" cy="105" r="59.77"/><path d="m165 33.5-8.5-8.5-8.5 8.5 8.5 8.5 8.5-8.5Zm-8.5 2.83-2.83-2.83 2.83-2.83 2.83 2.83-2.83 2.83ZM22 144a2 2 0 0 1 2 2v4h4a2 2 0 1 1 0 4h-4v4a2 2 0 1 1-4 0v-4h-4a2 2 0 1 1 0-4h4v-4c0-1.1.9-2 2-2Zm18 22 4 4-4 4-4-4 4-4Zm-1.84-72.67C39.9 65.75 62.78 35.68 103.9 40c41.11 4.32 57.1 39.56 54.56 63.65-1.01 9.68-4.1 17.06-8.27 21.95-4.18 4.9-9.53 7.34-14.83 6.74-6.68-.76-11.24-3.85-14.02-8.42a24.57 24.57 0 0 1-3.11-9.1c-4.75 14-14.8 18.13-23.07 16.89-9.9-1.49-24.83-8.04-23-31.35 1.83-23.3 19.68-26.85 29.02-25.87 7.02.74 15.96 5.67 18.73 17.26a137 137 0 0 1 4.5-15.36 2.27 2.27 0 0 1 4.3 1.53c-2.63 7.34-6.29 19.59-6.38 30.23-.04 5.33.81 9.98 2.9 13.4 2 3.3 5.26 5.66 10.64 6.28 3.47.39 7.42-1.16 10.86-5.18 3.44-4.03 6.27-10.47 7.21-19.47 2.33-22.13-12.4-54.65-50.51-58.66-38.1-4-59.12 23.62-60.73 49.1-1.63 25.69 13.46 56.06 47 61.71 17.76 3 29.71-2.55 36.7-6.16a2.27 2.27 0 0 1 2.08 4.04c-7.34 3.8-20.36 9.84-39.54 6.6-36.43-6.14-52.5-39.13-50.78-66.48Zm69.26 30.44c3.64-3.14 7.1-8.93 8.43-18.94 1.3-9.79-.98-15.96-4.04-19.73a16.8 16.8 0 0 0-11.11-6.09c-3.96-.42-9.66.16-14.43 3.16-4.52 2.84-8.76 8.2-9.58 18.55-.83 10.56 2.14 16.64 5.79 20.28 3.8 3.8 8.95 5.55 13.36 6.21 3.74.56 7.96-.31 11.58-3.44Z"/></svg>