<svg aria-hidden="true" class="svg-spot spotMentionLg" width="96" height="96" viewBox="0 0 96 96"><circle opacity=".2" cx="50.7" cy="49.57" r="39.43"/><path d="M49.5 6.54C22.34 3.68 7.2 23.55 6.07 41.78c-1.14 18.08 9.48 39.88 33.56 43.94 12.68 2.14 21.28-1.85 26.13-4.36a1.5 1.5 0 0 0-1.38-2.67c-4.61 2.4-12.51 6.06-24.25 4.08-22.17-3.74-32.14-23.82-31.07-40.8C10.12 25.13 24.01 6.87 49.2 9.52c25.2 2.65 34.93 24.15 33.4 38.77-.63 5.95-2.5 10.21-4.77 12.87-2.27 2.66-4.9 3.69-7.18 3.43-3.56-.4-5.72-1.97-7.04-4.15-1.38-2.26-1.94-5.34-1.91-8.86.06-7.04 2.47-15.13 4.2-19.98a1.5 1.5 0 0 0-2.82-1.01 89.46 89.46 0 0 0-2.98 10.15c-1.83-7.66-7.74-10.92-12.38-11.41-6.17-.65-17.97 1.7-19.18 17.1-1.21 15.4 8.66 19.74 15.2 20.72 5.47.82 12.11-1.91 15.25-11.17.33 2.18.97 4.24 2.05 6.02 1.84 3.02 4.85 5.06 9.27 5.57 3.5.4 7.04-1.22 9.8-4.46 2.76-3.23 4.8-8.11 5.47-14.5A39.02 39.02 0 0 0 49.5 6.53Zm7.9 42.84c-.87 6.62-3.16 10.45-5.56 12.53a9.43 9.43 0 0 1-7.66 2.27c-2.92-.43-6.32-1.6-8.84-4.1-2.4-2.41-4.37-6.43-3.82-13.41.54-6.85 3.34-10.39 6.33-12.27a15.53 15.53 0 0 1 9.54-2.09c2.4.26 5.28 1.48 7.35 4.03 2.02 2.5 3.53 6.57 2.67 13.04Z"/></svg>