<svg aria-hidden="true" class="svg-spot spotNetwork" width="48" height="48" viewBox="0 0 48 48"><path d="M26 11a3 3 0 1 0 0-6 3 3 0 0 0 0 6Zm0 36a3 3 0 1 0 0-6 3 3 0 0 0 0 6Zm19-12a3 3 0 1 1-6 0 3 3 0 0 1 6 0Zm-3-15a3 3 0 1 0 0-6 3 3 0 0 0 0 6Zm-29-3a3 3 0 1 1-6 0 3 3 0 0 1 6 0Zm-3 21a3 3 0 1 0 0-6 3 3 0 0 0 0 6Zm19-12a3 3 0 1 1-6 0 3 3 0 0 1 6 0Z" opacity=".2"/><path d="m10.98 35.67 9.23 5.04a4 4 0 1 0 7.4-.45l9.11-4.97A4 4 0 1 0 41 29.13V18.87a4 4 0 1 0-3.22-7.2l-9.82-6.24a4 4 0 0 0-7.92 0l-9.82 6.24A4 4 0 1 0 7 18.87v10.26a4 4 0 1 0 3.98 6.54ZM24 4a2 2 0 1 1 0 4 2 2 0 0 1 0-4Zm-3.24 17.66-3.92-2.5 5.4-9.56c.25.11.5.2.76.27v10.26a4 4 0 0 0-2.24 1.53Zm-5.61-3.57-3.28-2.08a4 4 0 0 0-.3-2.82l8.77-5.58a4 4 0 0 0 .36.65l-5.55 9.83Zm-.99 1.74L9 28.97v-10.1a4 4 0 0 0 1.9-1.11l3.26 2.07ZM10.7 30.04l5.16-9.13 4.17 2.65a4.05 4.05 0 0 0 0 .88l-9.12 5.8a4 4 0 0 0-.2-.2Zm16.2-8.8a4 4 0 0 0-1.9-1.11v-10.1l5.16 9.14-3.26 2.07Zm.98 1.75 3.28-2.08 5.45 9.65-8.73-5.55a4 4 0 0 0 0-2.02Zm4.97-3.16 3.92-2.49A4 4 0 0 0 39 18.87v10.26c-.26.06-.51.16-.75.27l-5.41-9.57ZM26.69 8.96c.41-.38.75-.84.97-1.35l8.77 5.58a3.98 3.98 0 0 0-.4 2.25l-4.18 2.65-5.16-9.13ZM25 27.87a4 4 0 0 0 1.9-1.11L35.14 32H25v-4.13ZM23 32H11.87l8.89-5.66A4 4 0 0 0 23 27.87V32Zm-10.91 2H23v4.13a4 4 0 0 0-1.68.9L12.09 34ZM10 33a2 2 0 1 1-4 0 2 2 0 0 1 4 0Zm15 1h9.91l-8.63 4.71a3.98 3.98 0 0 0-1.28-.58V34Zm1-10a2 2 0 1 1-4 0 2 2 0 0 1 4 0Zm-16-9a2 2 0 1 1-4 0 2 2 0 0 1 4 0Zm30 2a2 2 0 1 1 0-4 2 2 0 0 1 0 4ZM22 42a2 2 0 1 1 4 0 2 2 0 0 1-4 0Zm18-11a2 2 0 1 1 0 4 2 2 0 0 1 0-4Z"/></svg>