<svg aria-hidden="true" class="svg-spot spotNetworkLg" width="96" height="96" viewBox="0 0 96 96"><path d="M51 17a6 6 0 100-12 6 6 0 000 12zm0 78a6 6 0 100-12 6 6 0 000 12zm41-65a6 6 0 11-12 0 6 6 0 0112 0zm-75 6a6 6 0 100-12 6 6 0 000 12zm6 34a6 6 0 11-12 0 6 6 0 0112 0zm28-14a6 6 0 100-12 6 6 0 000 12zm41 14a6 6 0 11-12 0 6 6 0 0112 0z" opacity=".2"/><path d="M39.5 9.5a8 8 0 0116-.37l22.79 13.3A8 8 0 1185 36.36v23.28a8 8 0 11-7.68 12.94l-21.9 12.8a8 8 0 11-15.71-.7L20.18 72.9A8 8 0 1112 60.64V35.36a8 8 0 117.36-13.3l20.19-11.67a8.69 8.69 0 01-.05-.89zm8-5a5 5 0 100 10 5 5 0 000-10zM21.1 66H46v-9.64a8 8 0 01-4.94-3.1L20.6 64.81c.2.37.37.77.5 1.18zM46 69H21.48a8 8 0 01-.14 1.1l19.6 11.81A8 8 0 0146 78.64V69zm3 0v9.64a8 8 0 015.42 3.85l21.46-12.54c-.1-.31-.18-.63-.24-.95H49zm26.64-3c.1-.48.22-.94.4-1.38l-21.62-12.1A8 8 0 0149 56.36V66h26.64zm1.98-3.93l.03-.02.02-.03L64.3 39.4l-9.68 5.42a7.97 7.97 0 01.81 4.82l22.2 12.43zm2.5-1.82a7.96 7.96 0 011.88-.61V36.36a8 8 0 01-5.42-3.84l-9.67 5.41 13.2 22.32zm-4.54-30.61a8.06 8.06 0 01.82-4.84L55 12.31a8 8 0 01-1.67 2.67l12.05 20.37 10.2-5.71zm-12.82 7.18L50.88 16.75c-.59.28-1.22.48-1.88.61v23.28a8 8 0 013.72 1.8l10.04-5.62zM46 17.36l-.32-.07L34.2 36.8l8.94 5A7.95 7.95 0 0146 40.65V17.36zm-3.07-1.3a8.04 8.04 0 01-2.46-2.73L20.96 24.6a7.98 7.98 0 01.28 4.93l10.33 5.8 11.36-19.27zM30.05 37.91l-10.1-5.66A8 8 0 0115 35.36v25.28c.49.1.96.23 1.41.4l13.64-23.13zm-10.8 24.23l20.51-11.6a8.01 8.01 0 011.14-6.56l-8.23-4.6-13.42 22.75zM42.5 86.5a5 5 0 1010 0 5 5 0 00-10 0zm41-24a5 5 0 100 10 5 5 0 000-10zm-5-34a5 5 0 1010 0 5 5 0 00-10 0zm-65-6a5 5 0 100 10 5 5 0 000-10zm-5 46a5 5 0 1010 0 5 5 0 00-10 0zm39-25a5 5 0 100 10 5 5 0 000-10z"/></svg>