<svg aria-hidden="true" class="svg-spot spotNetworkXL" width="196" height="196" viewBox="0 0 196 196"><path opacity=".07" d="M19.3 142.83C8.55 127.85 4.53 99.27 5 92.5c.48-6.77-.57-34.6 22.32-66.1C50.2-5.1 156.52-4.97 179.47 35.3c22.94 40.25 7.13 91.55-7.5 117.03-14.62 25.48-31.84 41.55-78.64 39.32-46.8-2.22-64.8-36-74.02-48.82z"/><path d="M105.5 51c4.7 0 8.5-4.03 8.5-9s-3.8-9-8.5-9-8.5 4.03-8.5 9 3.8 9 8.5 9zm0 118c4.7 0 8.5-4.03 8.5-9s-3.8-9-8.5-9-8.5 4.03-8.5 9 3.8 9 8.5 9zm58.5-38c0 4.97-3.8 9-8.5 9s-8.5-4.03-8.5-9 3.8-9 8.5-9 8.5 4.03 8.5 9zm-8.5-51c4.7 0 8.5-4.03 8.5-9s-3.8-9-8.5-9-8.5 4.03-8.5 9 3.8 9 8.5 9zM61 71c0 4.97-3.8 9-8.5 9S44 75.97 44 71s3.8-9 8.5-9 8.5 4.03 8.5 9zm-8.5 69c4.7 0 8.5-4.03 8.5-9s-3.8-9-8.5-9-8.5 4.03-8.5 9 3.8 9 8.5 9zm61.5-39a9 9 0 11-18 0 9 9 0 0118 0z" opacity=".2"/><path d="M169 20l4 4-4 4-4-4 4-4zm-69.5 9C93.6 29 89 34.03 89 40c0 .28.01.56.03.83l-33.8 19.72A10.22 10.22 0 0047.5 57C41.6 57 37 62.03 37 68c0 5.45 3.83 10.12 9 10.89v38.22c-5.17.77-9 5.44-9 10.89 0 5.97 4.6 11 10.5 11 3.4 0 6.37-1.67 8.28-4.23l33.36 19.46c-.1.58-.14 1.17-.14 1.77 0 5.97 4.6 11 10.5 11s10.5-5.03 10.5-11c0-.79-.08-1.56-.23-2.3l32.45-18.93a10.28 10.28 0 008.28 4.23c5.9 0 10.5-5.03 10.5-11 0-5.1-3.35-9.5-8-10.69V78.7c4.65-1.18 8-5.6 8-10.69 0-5.97-4.6-11-10.5-11-3.1 0-5.82 1.38-7.73 3.55L109.92 41.4c.05-.46.08-.92.08-1.39 0-5.97-4.6-11-10.5-11zM93 40c0-3.98 3.02-7 6.5-7s6.5 3.02 6.5 7-3.02 7-6.5 7-6.5-3.02-6.5-7zm5 85H57.6c-.09-.34-.2-.67-.32-1l34-19.3a11 11 0 006.72 4.12V125zm-40.04 4H98v16.11c-3.23.48-5.95 2.5-7.52 5.27l-32.93-19.2c.2-.7.34-1.43.4-2.18zm82.08 0c.07.75.2 1.47.4 2.17l-32.17 18.78a10.5 10.5 0 00-6.27-4.64V129h38.04zM102 125v-16.18a11 11 0 006.4-3.72l32.5 18.44c-.2.47-.37.96-.5 1.46H102zm8.39-23.38a10.98 10.98 0 00-.32-8.06l14.26-8.1 19.87 33.73c-.39.3-.75.64-1.1 1l-32.71-18.57zM127.8 83.5l14.7-8.35a10.32 10.32 0 006.5 3.75v38.22c-.42.06-.83.15-1.23.26L127.81 83.5zm-2.03-3.45l-18.95-32.17c.74-.75 1.37-1.62 1.87-2.56L140.71 64a11.43 11.43 0 00-.13 7.65l-14.8 8.4zm-22.24-29.88l18.76 31.85-14.5 8.24a10.98 10.98 0 00-5.8-3.07v-36.5a9 9 0 001.54-.52zM98 87.18a10.98 10.98 0 00-6.15 3.43l-15.15-8.6 18.76-31.85c.8.35 1.65.6 2.54.73v36.3zm-24.78-7.14l-15.66-8.89a11.46 11.46 0 00-.28-7.16l32.8-19.14a11.07 11.07 0 002.09 3.02L73.22 80.04zm-17.43-5.3l15.4 8.75-20.12 34.16c-.35-.13-.7-.25-1.07-.34V78.7c2.35-.6 4.37-2.02 5.8-3.94zm-.55 45.83c-.25-.29-.5-.55-.78-.8l20.2-34.3 15.08 8.55a10.97 10.97 0 00-.28 7.12l-34.22 19.42zM47.5 75c-3.48 0-6.5-3.02-6.5-7s3.02-7 6.5-7 6.5 3.02 6.5 7-3.02 7-6.5 7zM157 68c0 3.98-3.02 7-6.5 7s-6.5-3.02-6.5-7 3.02-7 6.5-7 6.5 3.02 6.5 7zm-57.5 81c3.48 0 6.5 3.03 6.5 7s-3.02 7-6.5 7-6.5-3.03-6.5-7 3.02-7 6.5-7zm44.5-21c0-3.97 3.02-7 6.5-7s6.5 3.03 6.5 7-3.02 7-6.5 7-6.5-3.03-6.5-7zm-96.5-7c3.48 0 6.5 3.03 6.5 7s-3.02 7-6.5 7-6.5-3.03-6.5-7 3.02-7 6.5-7zM93 98a7 7 0 1114 0 7 7 0 01-14 0zm-48 71a2 2 0 10-4 0v4h-4a2 2 0 100 4h4v4a2 2 0 104 0v-4h4a2 2 0 100-4h-4v-4zM17.5 40l8.5 8.5-8.5 8.5L9 48.5l8.5-8.5zm-2.83 8.5l2.83 2.83 2.83-2.83-2.83-2.83-2.83 2.83z"/></svg>