<svg aria-hidden="true" class="svg-spot spotNetworkXL" width="196" height="196" viewBox="0 0 196 196"><path opacity=".07" d="M5 92.5c-.48 6.77 3.54 35.35 14.3 50.33.9 1.25 1.88 2.7 2.97 4.3 10.03 14.8 28.81 42.51 71.06 44.53 46.8 2.22 64.02-13.85 78.65-39.33 14.63-25.48 30.43-76.78 7.49-117.04C156.53-4.97 50.2-5.1 27.32 26.4 6.5 55.06 5.49 80.67 5.12 90.17L5 92.5ZM108 40a9 9 0 1 1-18 0 9 9 0 0 1 18 0Zm51 28a9 9 0 1 1-18 0 9 9 0 0 1 18 0Zm0 60a9 9 0 1 1-18 0 9 9 0 0 1 18 0Zm-50-30a9 9 0 1 1-18 0 9 9 0 0 1 18 0Zm0 58a9 9 0 1 1-18 0 9 9 0 0 1 18 0Zm-52-28a9 9 0 1 1-18 0 9 9 0 0 1 18 0Zm-1-60a9 9 0 1 1-18 0 9 9 0 0 1 18 0Z"/><path d="M105.5 51c4.7 0 8.5-4.03 8.5-9s-3.8-9-8.5-9-8.5 4.03-8.5 9 3.8 9 8.5 9Zm0 118c4.7 0 8.5-4.03 8.5-9s-3.8-9-8.5-9-8.5 4.03-8.5 9 3.8 9 8.5 9Zm58.5-38c0 4.97-3.8 9-8.5 9s-8.5-4.03-8.5-9 3.8-9 8.5-9 8.5 4.03 8.5 9Zm-8.5-51c4.7 0 8.5-4.03 8.5-9s-3.8-9-8.5-9-8.5 4.03-8.5 9 3.8 9 8.5 9ZM61 71c0 4.97-3.8 9-8.5 9S44 75.97 44 71s3.8-9 8.5-9 8.5 4.03 8.5 9Zm-8.5 69c4.7 0 8.5-4.03 8.5-9s-3.8-9-8.5-9-8.5 4.03-8.5 9 3.8 9 8.5 9Zm61.5-39a9 9 0 1 1-18 0 9 9 0 0 1 18 0Z" opacity=".2"/><path d="m169 20 4 4-4 4-4-4 4-4Zm-69.5 9C93.6 29 89 34.03 89 40c0 .28.01.56.03.83l-33.8 19.72A10.22 10.22 0 0 0 47.5 57C41.6 57 37 62.03 37 68c0 5.45 3.83 10.12 9 10.89v38.22c-5.17.77-9 5.44-9 10.89 0 5.97 4.6 11 10.5 11 3.4 0 6.37-1.67 8.28-4.23l33.36 19.46c-.1.58-.14 1.17-.14 1.77 0 5.97 4.6 11 10.5 11s10.5-5.03 10.5-11c0-.79-.08-1.56-.23-2.3l32.45-18.93a10.28 10.28 0 0 0 8.28 4.23c5.9 0 10.5-5.03 10.5-11 0-5.1-3.35-9.5-8-10.69V78.7c4.65-1.18 8-5.6 8-10.69 0-5.97-4.6-11-10.5-11-3.1 0-5.82 1.38-7.73 3.55L109.92 41.4c.05-.46.08-.92.08-1.39 0-5.97-4.6-11-10.5-11ZM93 40c0-3.98 3.02-7 6.5-7s6.5 3.02 6.5 7-3.02 7-6.5 7-6.5-3.02-6.5-7Zm5 85H57.6c-.09-.34-.2-.67-.32-1l34-19.3a11 11 0 0 0 6.72 4.12V125Zm-40.04 4H98v16.11c-3.23.48-5.95 2.5-7.52 5.27l-32.93-19.2c.2-.7.34-1.43.4-2.18Zm82.08 0c.07.75.2 1.47.4 2.17l-32.17 18.78a10.5 10.5 0 0 0-6.27-4.64V129h38.04ZM102 125v-16.18a11 11 0 0 0 6.4-3.72l32.5 18.44c-.2.47-.37.96-.5 1.46H102Zm8.39-23.38a10.98 10.98 0 0 0-.32-8.06l14.26-8.1 19.87 33.73c-.39.3-.75.64-1.1 1l-32.71-18.57ZM127.8 83.5l14.7-8.35a10.32 10.32 0 0 0 6.5 3.75v38.22c-.42.06-.83.15-1.23.26L127.81 83.5Zm-2.03-3.45-18.95-32.17c.74-.75 1.37-1.62 1.87-2.56L140.71 64a11.43 11.43 0 0 0-.13 7.65l-14.8 8.4Zm-22.24-29.88 18.76 31.85-14.5 8.24a10.98 10.98 0 0 0-5.8-3.07v-36.5a9 9 0 0 0 1.54-.52ZM98 87.18a10.98 10.98 0 0 0-6.15 3.43l-15.15-8.6 18.76-31.85c.8.35 1.65.6 2.54.73v36.3Zm-24.78-7.14-15.66-8.89a11.46 11.46 0 0 0-.28-7.16l32.8-19.14a11.07 11.07 0 0 0 2.09 3.02L73.22 80.04Zm-17.43-5.3 15.4 8.75-20.12 34.16c-.35-.13-.7-.25-1.07-.34V78.7c2.35-.6 4.37-2.02 5.8-3.94Zm-.55 45.83c-.25-.29-.5-.55-.78-.8l20.2-34.3 15.08 8.55a10.97 10.97 0 0 0-.28 7.12l-34.22 19.42ZM47.5 75c-3.48 0-6.5-3.02-6.5-7s3.02-7 6.5-7 6.5 3.02 6.5 7-3.02 7-6.5 7ZM157 68c0 3.98-3.02 7-6.5 7s-6.5-3.02-6.5-7 3.02-7 6.5-7 6.5 3.02 6.5 7Zm-57.5 81c3.48 0 6.5 3.03 6.5 7s-3.02 7-6.5 7-6.5-3.03-6.5-7 3.02-7 6.5-7Zm44.5-21c0-3.97 3.02-7 6.5-7s6.5 3.03 6.5 7-3.02 7-6.5 7-6.5-3.03-6.5-7Zm-96.5-7c3.48 0 6.5 3.03 6.5 7s-3.02 7-6.5 7-6.5-3.03-6.5-7 3.02-7 6.5-7ZM93 98a7 7 0 1 1 14 0 7 7 0 0 1-14 0Zm-48 71a2 2 0 1 0-4 0v4h-4a2 2 0 1 0 0 4h4v4a2 2 0 1 0 4 0v-4h4a2 2 0 1 0 0-4h-4v-4ZM17.5 40l8.5 8.5-8.5 8.5L9 48.5l8.5-8.5Zm-2.83 8.5 2.83 2.83 2.83-2.83-2.83-2.83-2.83 2.83Z"/></svg>