<svg aria-hidden="true" class="svg-spot spotNetwork" width="48" height="48" viewBox="0 0 48 48"><path d="M26 11a3 3 0 100-6 3 3 0 000 6zm0 36a3 3 0 100-6 3 3 0 000 6zm19-12a3 3 0 11-6 0 3 3 0 016 0zm-3-15a3 3 0 100-6 3 3 0 000 6zm-29-3a3 3 0 11-6 0 3 3 0 016 0zm-3 21a3 3 0 100-6 3 3 0 000 6zm19-12a3 3 0 11-6 0 3 3 0 016 0z" opacity=".2"/><path d="M10.98 35.67l9.23 5.04a4 4 0 107.4-.45l9.11-4.97A4 4 0 1041 29.13V18.87a4 4 0 10-3.22-7.2l-9.82-6.24a4 4 0 00-7.92 0l-9.82 6.24A4 4 0 107 18.87v10.26a4 4 0 103.98 6.54zM24 4a2 2 0 110 4 2 2 0 010-4zm-3.24 17.66l-3.92-2.5 5.4-9.56c.25.11.5.2.76.27v10.26a4 4 0 00-2.24 1.53zm-5.61-3.57l-3.28-2.08a4 4 0 00-.3-2.82l8.77-5.58a4 4 0 00.36.65l-5.55 9.83zm-.99 1.74L9 28.97v-10.1a4 4 0 001.9-1.11l3.26 2.07zM10.7 30.04l5.16-9.13 4.17 2.65a4.05 4.05 0 000 .88l-9.12 5.8a4 4 0 00-.2-.2zm16.2-8.8a4 4 0 00-1.9-1.11v-10.1l5.16 9.14-3.26 2.07zm.98 1.75l3.28-2.08 5.45 9.65-8.73-5.55a4 4 0 000-2.02zm4.97-3.16l3.92-2.49A4 4 0 0039 18.87v10.26c-.26.06-.51.16-.75.27l-5.41-9.57zM26.69 8.96c.41-.38.75-.84.97-1.35l8.77 5.58a3.98 3.98 0 00-.4 2.25l-4.18 2.65-5.16-9.13zM25 27.87a4 4 0 001.9-1.11L35.14 32H25v-4.13zM23 32H11.87l8.89-5.66A4 4 0 0023 27.87V32zm-10.91 2H23v4.13a4 4 0 00-1.68.9L12.09 34zM10 33a2 2 0 11-4 0 2 2 0 014 0zm15 1h9.91l-8.63 4.71a3.98 3.98 0 00-1.28-.58V34zm1-10a2 2 0 11-4 0 2 2 0 014 0zm-16-9a2 2 0 11-4 0 2 2 0 014 0zm30 2a2 2 0 110-4 2 2 0 010 4zM22 42a2 2 0 114 0 2 2 0 01-4 0zm18-11a2 2 0 110 4 2 2 0 010-4z"/></svg>