<svg aria-hidden="true" class="svg-spot spotNetworkLg" width="96" height="96" viewBox="0 0 96 96"><path d="M51 17a6 6 0 1 0 0-12 6 6 0 0 0 0 12Zm0 78a6 6 0 1 0 0-12 6 6 0 0 0 0 12Zm41-65a6 6 0 1 1-12 0 6 6 0 0 1 12 0Zm-75 6a6 6 0 1 0 0-12 6 6 0 0 0 0 12Zm6 34a6 6 0 1 1-12 0 6 6 0 0 1 12 0Zm28-14a6 6 0 1 0 0-12 6 6 0 0 0 0 12Zm41 14a6 6 0 1 1-12 0 6 6 0 0 1 12 0Z" opacity=".2"/><path d="M39.5 9.5a8 8 0 0 1 16-.37l22.79 13.3A8 8 0 1 1 85 36.36v23.28a8 8 0 1 1-7.68 12.94l-21.9 12.8a8 8 0 1 1-15.71-.7L20.18 72.9A8 8 0 1 1 12 60.64V35.36a8 8 0 1 1 7.36-13.3l20.19-11.67a8.69 8.69 0 0 1-.05-.89Zm8-5a5 5 0 1 0 0 10 5 5 0 0 0 0-10ZM21.1 66H46v-9.64a8 8 0 0 1-4.94-3.1L20.6 64.81c.2.37.37.77.5 1.18ZM46 69H21.48a8 8 0 0 1-.14 1.1l19.6 11.81A8 8 0 0 1 46 78.64V69Zm3 0v9.64a8 8 0 0 1 5.42 3.85l21.46-12.54c-.1-.31-.18-.63-.24-.95H49Zm26.64-3c.1-.48.22-.94.4-1.38l-21.62-12.1A8 8 0 0 1 49 56.36V66h26.64Zm1.98-3.93.03-.02.02-.03L64.3 39.4l-9.68 5.42a7.97 7.97 0 0 1 .81 4.82l22.2 12.43Zm2.5-1.82a7.96 7.96 0 0 1 1.88-.61V36.36a8 8 0 0 1-5.42-3.84l-9.67 5.41 13.2 22.32Zm-4.54-30.61a8.06 8.06 0 0 1 .82-4.84L55 12.31a8 8 0 0 1-1.67 2.67l12.05 20.37 10.2-5.71Zm-12.82 7.18L50.88 16.75c-.59.28-1.22.48-1.88.61v23.28a8 8 0 0 1 3.72 1.8l10.04-5.62ZM46 17.36l-.32-.07L34.2 36.8l8.94 5A7.95 7.95 0 0 1 46 40.65V17.36Zm-3.07-1.3a8.04 8.04 0 0 1-2.46-2.73L20.96 24.6a7.98 7.98 0 0 1 .28 4.93l10.33 5.8 11.36-19.27ZM30.05 37.91l-10.1-5.66A8 8 0 0 1 15 35.36v25.28c.49.1.96.23 1.41.4l13.64-23.13Zm-10.8 24.23 20.51-11.6a8.01 8.01 0 0 1 1.14-6.56l-8.23-4.6-13.42 22.75ZM42.5 86.5a5 5 0 1 0 10 0 5 5 0 0 0-10 0Zm41-24a5 5 0 1 0 0 10 5 5 0 0 0 0-10Zm-5-34a5 5 0 1 0 10 0 5 5 0 0 0-10 0Zm-65-6a5 5 0 1 0 0 10 5 5 0 0 0 0-10Zm-5 46a5 5 0 1 0 10 0 5 5 0 0 0-10 0Zm39-25a5 5 0 1 0 0 10 5 5 0 0 0 0-10Z"/></svg>