<svg aria-hidden="true" class="svg-spot spotOne" width="36" height="36" viewBox="0 0 36 36"><path opacity=".2" d="M13 36a1 1 0 0 1-1-1V11.73L5.3 13.9a1 1 0 0 1-1.3-.95V9.4a1 1 0 0 1 .66-.94l12-4.3A1 1 0 0 1 18 5.1V35a1 1 0 0 1-1 1h-4Zm12.84-3.33c0-2.01 1.62-3.38 3.57-3.38 1.95 0 3.59 1.37 3.59 3.38 0 2.02-1.64 3.33-3.59 3.33-1.94 0-3.57-1.32-3.57-3.33Z"/><path d="M14.86 1.06A1 1 0 0 1 15.2 1h.8a1 1 0 0 1 1 1v32.09a1 1 0 0 1-1 1h-6a1 1 0 0 1-1-1V11.54l-6.68 2.23A1 1 0 0 1 1 12.82V6.7a1 1 0 0 1 .66-.94l13.2-4.7ZM15 3.13 3 7.41v4.03L9.68 9.2a1 1 0 0 1 1.32.95v22.93h4V3.13ZM27.41 28.3c-1.49 0-2.57 1-2.57 2.38 0 1.36 1.08 2.33 2.57 2.33 1.51 0 2.59-.97 2.59-2.33 0-1.37-1.1-2.38-2.59-2.38Zm-4.57 2.38c0-2.65 2.15-4.38 4.57-4.38 2.4 0 4.59 1.72 4.59 4.38 0 2.68-2.2 4.33-4.59 4.33-2.38 0-4.57-1.67-4.57-4.33Z"/></svg>