<svg aria-hidden="true" class="svg-spot spotPage" width="48" height="48" viewBox="0 0 48 48"><path d="M41 27.15c0 .51-.32.85-.8.85H10.8c-.48 0-.8-.34-.8-.85v-4.3c0-.43.32-.85.8-.85h29.4c.48 0 .8.42.8.85v4.3zm6-13c0 .43-.39.85-.78.85H4.78c-.47 0-.78-.42-.78-.85v-4.3c0-.43.31-.85.78-.85h41.36c.4 0 .78.42.78.85v4.3H47z" opacity=".2"/><path d="M7 10a1 1 0 11-2 0 1 1 0 0 1 2 0zm2 1a1 1 0 100-2 1 1 0 0 0 0 2zm-1 8a1 1 0 00-1 1v6a1 1 0 001 1h31a1 1 0 001-1v-6a1 1 0 00-1-1H8zm25 2v4H9v-4h24zm2 4v-4h3v4h-3zM8 29a1 1 0 100 2h20a1 1 0 100-2H8zm0 4a1 1 0 100 2h13a1 1 0 100-2H8zm-7 7V8c0-1.1.9-2 2-2h41a2 2 0 012 2v32a2 2 0 01-2 2H3a2 2 0 01-2-2zm2-28h41V8H3v4zm41 2H3v26h41V14z"/></svg>