<svg aria-hidden="true" class="svg-spot spotPageXL" width="196" height="196" viewBox="0 0 196 196"><path d="M24 142a2 2 0 10-4 0v4h-4a2 2 0 100 4h4v4a2 2 0 104 0v-4h4a2 2 0 100-4h-4v-4zm19.5 24.5l-4-4-4 4 4 4 4-4zM164.7 29.36l-8.5-8.5-8.5 8.5 8.5 8.5 8.5-8.5zm-8.5 2.84l-2.83-2.84 2.84-2.83 2.83 2.83-2.83 2.84z"/><path opacity=".07" d="M169.5 160.59c23.36-31.7 15.06-75.62 4.7-103.03-5.1-13.47-26.16-41.32-69.61-43.36-43.46-2.04-59.07 12.17-72.07 34.7-13 22.55-26.5 67.94-4.33 103.61 22.18 35.67 120.78 35.94 141.3 8.08zM36 145.91V51.1c0-1.16.93-2.09 2.09-2.09H156.9c1.16 0 2.09.93 2.09 2.09v94.82c0 1.16-.94 2.09-2.09 2.09H38.1a2.09 2.09 0 01-2.09-2.09z"/><path opacity=".2" d="M59 96a3 3 0 013-3h83a3 3 0 013 3v11a3 3 0 01-3 3H62a3 3 0 01-3-3V96zM41 57a3 3 0 013-3h118a3 3 0 013 3v12a3 3 0 01-3 3H44a3 3 0 01-3-3V57z"/><path d="M59 58a3 3 0 11-6 0 3 3 0 016 0zm-13 3a3 3 0 100-6 3 3 0 000 6zm5 26c0-1.1.9-2 2-2h89a2 2 0 012 2v17a2 2 0 01-2 2H53a2 2 0 01-2-2V87zm75 2H55v13h71.2a2 2 0 01-.2-.88V89zm3.8 13H140V89h-10v12.12a2 2 0 01-.2.88zM51 117c0-1.1.9-2 2-2h57.9a2 2 0 010 4H53a2 2 0 01-2-2zm2 9a2 2 0 100 4h36.71a2 2 0 100-4H53zM34 51.09A4.09 4.09 0 0138.09 47H156.9a4.09 4.09 0 014.09 4.09v94.82a4.09 4.09 0 01-4.09 4.09H38.1a4.09 4.09 0 01-4.09-4.09V51.1zm4 0V64h119V51.09a.09.09 0 00-.09-.09H38.1a.09.09 0 00-.09.09zM38 68v77.91c0 .05.04.09.09.09H156.9c.05 0 .09-.04.09-.09V68H38z"/></svg>