<svg aria-hidden="true" class="svg-spot spotPageLg" width="96" height="96" viewBox="0 0 96 96"><path d="M9 16a2 2 0 00-2 2v9c0 1.1.9 2 2 2h84a2 2 0 002-2v-9a2 2 0 00-2-2H9zm12 27a2 2 0 00-2 2v9c0 1.1.9 2 2 2h60a2 2 0 002-2v-9a2 2 0 00-2-2H21z" opacity=".2"/><path d="M19 18.5a1.5 1.5 0 11-3 0 1.5 1.5 0 013 0zM10.5 20a1.5 1.5 0 100-3 1.5 1.5 0 000 3zM14 39.5c0-.83.67-1.5 1.5-1.5h63c.83 0 1.5.67 1.5 1.5v12c0 .83-.67 1.5-1.5 1.5h-63a1.5 1.5 0 01-1.5-1.5v-12zM67 41H17v9h50.09a1.5 1.5 0 01-.09-.5V41zm2.91 9H77v-9h-7v8.5c0 .18-.03.34-.09.5zM14 60.5c0-.83.67-1.5 1.5-1.5h41a1.5 1.5 0 010 3h-41a1.5 1.5 0 01-1.5-1.5zm1.5 6.5a1.5 1.5 0 000 3h26a1.5 1.5 0 000-3h-26zM2 14.59C2 12.6 3.6 11 5.59 11H88.4c2 0 3.6 1.6 3.6 3.59V80.4c0 2-1.6 3.6-3.59 3.6H5.6A3.59 3.59 0 012 80.41V14.6zm3 0V23h84v-8.41a.59.59 0 00-.59-.59H5.6a.59.59 0 00-.59.59zM89 26H5v54.41c0 .33.26.59.59.59H88.4c.33 0 .59-.26.59-.59V26z"/></svg>