<svg aria-hidden="true" class="svg-spot spotPageXL" width="196" height="196" viewBox="0 0 196 196"><path d="M24 142a2 2 0 1 0-4 0v4h-4a2 2 0 1 0 0 4h4v4a2 2 0 1 0 4 0v-4h4a2 2 0 1 0 0-4h-4v-4Zm19.5 24.5-4-4-4 4 4 4 4-4ZM164.7 29.36l-8.5-8.5-8.5 8.5 8.5 8.5 8.5-8.5Zm-8.5 2.84-2.83-2.84 2.84-2.83 2.83 2.83-2.83 2.84Z"/><path opacity=".07" d="M169.5 160.59c23.36-31.7 15.06-75.62 4.7-103.03-5.1-13.47-26.16-41.32-69.61-43.36-43.46-2.04-59.07 12.17-72.07 34.7-13 22.55-26.5 67.94-4.33 103.61 22.18 35.67 120.78 35.94 141.3 8.08ZM36 145.91V51.1c0-1.16.93-2.09 2.09-2.09H156.9c1.16 0 2.09.93 2.09 2.09v94.82c0 1.16-.94 2.09-2.09 2.09H38.1a2.09 2.09 0 0 1-2.09-2.09Z"/><path opacity=".2" d="M59 96a3 3 0 0 1 3-3h83a3 3 0 0 1 3 3v11a3 3 0 0 1-3 3H62a3 3 0 0 1-3-3V96ZM41 57a3 3 0 0 1 3-3h118a3 3 0 0 1 3 3v12a3 3 0 0 1-3 3H44a3 3 0 0 1-3-3V57Z"/><path d="M59 58a3 3 0 1 1-6 0 3 3 0 0 1 6 0Zm-13 3a3 3 0 1 0 0-6 3 3 0 0 0 0 6Zm5 26c0-1.1.9-2 2-2h89a2 2 0 0 1 2 2v17a2 2 0 0 1-2 2H53a2 2 0 0 1-2-2V87Zm75 2H55v13h71.2a2 2 0 0 1-.2-.88V89Zm3.8 13H140V89h-10v12.12a2 2 0 0 1-.2.88ZM51 117c0-1.1.9-2 2-2h57.9a2 2 0 0 1 0 4H53a2 2 0 0 1-2-2Zm2 9a2 2 0 1 0 0 4h36.71a2 2 0 1 0 0-4H53ZM34 51.09A4.09 4.09 0 0 1 38.09 47H156.9a4.09 4.09 0 0 1 4.09 4.09v94.82a4.09 4.09 0 0 1-4.09 4.09H38.1a4.09 4.09 0 0 1-4.09-4.09V51.1Zm4 0V64h119V51.09a.09.09 0 0 0-.09-.09H38.1a.09.09 0 0 0-.09.09ZM38 68v77.91c0 .05.04.09.09.09H156.9c.05 0 .09-.04.09-.09V68H38Z"/></svg>