<svg aria-hidden="true" class="svg-spot spotPencilLg" width="96" height="96" viewBox="0 0 96 96"><path opacity=".2" d="M63.05 10.38a.67.67 0 0 0-.94.17L14.02 79.88c-.06.1-.1.2-.11.32l-1.1 10.42c-.05.53.5.9.97.68l9.53-4.57c.1-.05.2-.13.26-.23l48.09-69.32a.67.67 0 0 0-.17-.94l-8.44-5.86Z"/><path d="M57.38 5.86a2.17 2.17 0 0 1 3.03-.55l8.44 5.86c.99.68 1.23 2.04.55 3.02L21.3 83.52c-.21.3-.5.56-.84.72l-9.53 4.57a2.17 2.17 0 0 1-3.1-2.18L8.91 76.2c.04-.36.17-.7.38-1.01L57.38 5.86Zm9.08 7.3-7.08-4.91-3.5 5.05 7.08 4.91 3.5-5.05Zm-5.21 7.52-7.09-4.91L13.07 75l7.09 4.91 41.09-59.24ZM10.97 85.47 18 82.09l-6.24-4.33-.8 7.7Zm70.45-.5a1.5 1.5 0 1 0-1.34-2.69c-5.2 2.6-10.44 4.91-16.02 6.16-3.93.88-7.74.63-11.61-.06-1.95-.35-3.89-.8-5.88-1.29l-.58-.14c-1.8-.43-3.62-.87-5.47-1.24-5.72-1.14-13.01-.95-18.58 1.27a1.5 1.5 0 0 0 1.12 2.79c4.9-1.96 11.57-2.18 16.87-1.12 1.79.36 3.56.79 5.36 1.22l.58.14c1.99.48 4 .95 6.05 1.32 4.08.73 8.33 1.04 12.8.04 5.93-1.33 11.44-3.77 16.7-6.4Z"/></svg>