<svg aria-hidden="true" class="svg-spot spotPencilXL" width="230" height="235" viewBox="0 0 230 235"><path opacity=".07" d="M37.5 165c-9-19-7.41-67.53 10-88.5s33.02-38.22 70.29-35.77C155.06 43.2 194.5 41 194.5 89s-6.85 71.6-31 93.5c-24.15 21.9-81 18.5-81 18.5s-36-17-45-36z"/><path opacity=".2" d="M138 62.66a2 2 0 00-2.78.5l-68.4 98.6a2 2 0 00-.34.93l-1.34 12.89a2 2 0 002.85 2.01l11.8-5.66a2 2 0 00.77-.66l68.38-98.59a2 2 0 00-.5-2.78L138 62.66z"/><path d="M66.76 49l8.76 8.76-8.76 8.76L58 57.76 66.76 49zm-2.92 8.76l2.92 2.92 2.92-2.92-2.92-2.92-2.92 2.92zM49.12 67l4.12 4.12-4.12 4.12L45 71.12 49.12 67zM190 138a2 2 0 10-4 0v4h-4a2 2 0 100 4h4v4a2 2 0 104 0v-4h4a2 2 0 100-4h-4v-4zm-56.73-83.09a2.97 2.97 0 00-4.13.75l-69.13 99.66a3 3 0 00-.51 1.38l-1.56 14.99a2.97 2.97 0 004.23 2.98l13.7-6.57c.47-.22.87-.56 1.16-.99l69.12-99.65c.94-1.35.6-3.2-.74-4.13l-12.14-8.42zm-1.43 3.87l10.44 7.24-5.22 7.53-10.44-7.25 5.22-7.52zm-7.5 10.81l10.44 7.24-59.24 85.42-10.45-7.24 59.25-85.42zm-61.02 89.06l9.4 6.52-10.61 5.1 1.2-11.62zm101.07 7.81a2 2 0 01-.9 2.68c-7.56 3.79-15.46 7.28-23.97 9.2-6.4 1.42-12.48.99-18.34-.06a153.7 153.7 0 01-8.68-1.9l-.84-.2c-2.59-.62-5.14-1.24-7.71-1.75-7.64-1.53-17.27-1.22-24.34 1.61a2 2 0 11-1.49-3.71c7.97-3.19 18.42-3.46 26.61-1.83 2.66.54 5.29 1.17 7.86 1.79l.84.2c2.86.69 5.66 1.35 8.46 1.85 5.58 1 11.07 1.36 16.75.09 8.04-1.8 15.59-5.13 23.07-8.86a2 2 0 012.68.9z"/></svg>