<svg aria-hidden="true" class="svg-spot spotPencilXL" width="196" height="196" viewBox="0 0 196 196"><path opacity=".07" d="M33.5 53.5c-17.41 20.97-19 69.5-10 88.5s22.5 32.5 45 36 56.85 3.4 81-18.5 31-45.5 31-93.5c0-44-33.14-45.83-67.37-47.72-3.11-.17-6.23-.34-9.34-.55-37.27-2.45-52.88 14.8-70.29 35.77Zm81.64-20.84a2.97 2.97 0 0 1 4.13-.75l12.14 8.42a2.97 2.97 0 0 1 .74 4.13L63.03 144.1c-.3.43-.69.77-1.15.99l-13.7 6.57c-2.1 1-4.49-.67-4.24-2.98l1.56-14.99c.05-.5.23-.97.51-1.38l69.13-99.66Z"/><path opacity=".2" d="M124 39.66a2 2 0 0 0-2.78.5l-68.4 98.6a2 2 0 0 0-.34.93l-1.34 12.89a2 2 0 0 0 2.85 2.01l11.8-5.66a2 2 0 0 0 .77-.66l68.38-98.59a2 2 0 0 0-.5-2.78L124 39.66Z"/><path d="m52.76 26 8.76 8.76-8.76 8.76L44 34.76 52.76 26Zm-2.92 8.76 2.92 2.92 2.92-2.92-2.92-2.92-2.92 2.92ZM35.12 44l4.12 4.12-4.12 4.12L31 48.12 35.12 44ZM176 115a2 2 0 1 0-4 0v4h-4a2 2 0 1 0 0 4h4v4a2 2 0 1 0 4 0v-4h4a2 2 0 1 0 0-4h-4v-4Zm-56.73-83.09a2.97 2.97 0 0 0-4.13.75l-69.13 99.66a3 3 0 0 0-.51 1.38l-1.56 14.99a2.97 2.97 0 0 0 4.23 2.98l13.7-6.57c.47-.22.87-.56 1.16-.99l69.12-99.65c.94-1.35.6-3.2-.74-4.13l-12.14-8.42Zm-1.43 3.87 10.44 7.24-5.22 7.53-10.44-7.25 5.22-7.52Zm-7.5 10.81 10.44 7.24-59.24 85.42-10.45-7.24 59.25-85.42Zm-61.02 89.06 9.4 6.52-10.61 5.1 1.2-11.62Zm101.07 7.81a2 2 0 0 1-.9 2.68c-7.56 3.79-15.46 7.28-23.97 9.2-6.4 1.42-12.48.99-18.34-.06a153.7 153.7 0 0 1-8.68-1.9l-.84-.2c-2.59-.62-5.14-1.24-7.71-1.75-7.64-1.53-17.27-1.22-24.34 1.61a2 2 0 1 1-1.49-3.71c7.97-3.19 18.42-3.46 26.61-1.83 2.66.54 5.29 1.17 7.86 1.79l.84.2c2.86.69 5.66 1.35 8.46 1.85 5.58 1 11.07 1.36 16.75.09 8.04-1.8 15.59-5.13 23.07-8.86a2 2 0 0 1 2.68.9Z"/></svg>