<svg aria-hidden="true" class="svg-spot spotPeopleXL" width="196" height="196" viewBox="0 0 196 196"><path d="M53.5 108a16.5 16.5 0 1 0 0-33 16.5 16.5 0 0 0 0 33Zm98.14-2a17.5 17.5 0 1 0-22.27 0h-4.56a9.83 9.83 0 0 0-9.81 9.8v10.62a9.56 9.56 0 0 0-2.8-.42h-3.45a17.5 17.5 0 1 0-29.66-10.76 9.92 9.92 0 0 0-8.9-5.24H43c-8 0-14 8.03-14 13v31a3 3 0 0 0 3 3h39v18a3 3 0 0 0 3 3h45a3 3 0 0 0 3-3v-18h41a3 3 0 0 0 3-3v-33.5c0-9-8.1-14.5-13.5-14.5h-.86Z" opacity=".2"/><path d="M28 28c0-1.1.9-2 2-2h26a2 2 0 1 1 0 4H30a2 2 0 0 1-2-2Zm2 7a2 2 0 1 0 0 4h19a2 2 0 1 0 0-4H30ZM20 16a2 2 0 0 0-2 2v28c0 1.1.9 2 2 2h17.7l18.04 14.56A2 2 0 0 0 59 61V48h7a2 2 0 0 0 2-2V18a2 2 0 0 0-2-2H20Zm2 28V20h42v24h-9v12.82L39.66 44.44A2 2 0 0 0 38.4 44H22Zm113-18a2 2 0 1 0 0 4h26a2 2 0 1 0 0-4h-26Zm-2 11c0-1.1.9-2 2-2h16a2 2 0 1 1 0 4h-16a2 2 0 0 1-2-2Zm38-19a2 2 0 0 0-2-2h-43a2 2 0 0 0-2 2v30c0 1.1.9 2 2 2h5v7a2 2 0 0 0 3.06 1.7l14.01-8.7H169a2 2 0 0 0 2-2V18Zm-4 2v26h-19.5a2 2 0 0 0-1.06.3L135 53.4V46h-7V20h39ZM84 58c0-1.1.9-2 2-2h19a2 2 0 1 1 0 4H86a2 2 0 0 1-2-2Zm31-11a2 2 0 0 0-2-2H78a2 2 0 0 0-2 2v22c0 1.1.9 2 2 2h5v9a2 2 0 0 0 3.39 1.44L97.23 71H113a2 2 0 0 0 2-2V47Zm-4 20H95.61L87 75.3V67h-7V49h31v18Z" opacity=".35"/><path opacity=".07" d="m40.4 50.2 15.14 12.35a2 2 0 0 0 2.12.26c.7-.33 1.34-1.04 1.34-1.81V48h7a2 2 0 0 0 2-2v-7.07c19.1-5.46 38.2-5.7 56 2.24V48c0 1.1.9 2 2 2h5v7c0 .73.88 1.4 1.52 1.76a2 2 0 0 0 2.04-.08l8.39-5.38a92.03 92.03 0 0 1 4.09 3.72c30.8 29.77 26.78 66.05 24.27 82.8-.2 1.37-.37 2.82-.54 4.34-1.9 16.9-4.6 40.9-76.01 37.52-77.8-3.7-78.56-37.35-80.29-46.52C12.75 126 12.5 105.75 16.5 89c4-16.75.75-35.7 23.9-38.8ZM78 45a2 2 0 0 0-2 2v22c0 1.1.9 2 2 2h5v9c0 .8.85 1.54 1.6 1.85a2 2 0 0 0 2.18-.43L97.25 71H113a2 2 0 0 0 2-2V47a2 2 0 0 0-2-2H78Z"/><path d="M100 11a2 2 0 0 1 2 2v4h4a2 2 0 1 1 0 4h-4v4a2 2 0 1 1-4 0v-4h-4a2 2 0 1 1 0-4h4v-4c0-1.1.9-2 2-2Zm81 65-4-4-4 4 4 4 4-4ZM40 173.5l-8.5-8.5-8.5 8.5 8.5 8.5 8.5-8.5Zm-8.5 2.83-2.83-2.83 2.83-2.83 2.83 2.83-2.83 2.83ZM65 146a22 22 0 0 1 16.6-21.33 19.5 19.5 0 1 1 21.8 0A22 22 0 0 1 120 146v27a2 2 0 0 1-2 2H67a2 2 0 0 1-2-2v-27Zm14-3a2 2 0 0 1 2 2v26h23v-26a2 2 0 1 1 4 0v26h8v-25a18 18 0 0 0-18-18H87a18 18 0 0 0-18 18v25h8v-26c0-1.1.9-2 2-2Zm-2-34.5a15.5 15.5 0 1 0 31 0 15.5 15.5 0 0 0-31 0ZM36 120a2 2 0 0 1 2 2v28h19a2 2 0 1 1 0 4H24a2 2 0 0 1-2-2v-28a20 20 0 0 1 16.16-19.63 19.5 19.5 0 1 1 23.17-.37H64a2 2 0 1 1 0 4H42a16 16 0 0 0-16 16v26h8v-28c0-1.1.9-2 2-2Zm-2-31.5a15.5 15.5 0 1 0 31 0 15.5 15.5 0 0 0-31 0ZM151 122a2 2 0 1 0-4 0v28h-19a2 2 0 1 0 0 4h33a2 2 0 0 0 2-2v-28a20 20 0 0 0-16.16-19.63 19.5 19.5 0 1 0-23.17-.37H121a2 2 0 1 0 0 4h22a16 16 0 0 1 16 16v26h-8v-28Zm-15.5-18a15.5 15.5 0 1 1 0-31 15.5 15.5 0 0 1 0 31Z"/></svg>