<svg aria-hidden="true" class="svg-spot spotPeople" width="48" height="48" viewBox="0 0 48 48"><path d="M13.5 28a4.5 4.5 0 1 0 0-9 4.5 4.5 0 0 0 0 9ZM7 30a1 1 0 0 1 1-1h11a1 1 0 0 1 1 1v5h11v-5a1 1 0 0 1 1-1h12a1 1 0 0 1 1 1v10a2 2 0 0 1-2 2H33v5a1 1 0 0 1-1 1H20a1 1 0 0 1-1-1v-5H8a1 1 0 0 1-1-1V30Zm25-6.5a4.5 4.5 0 1 0 9 0 4.5 4.5 0 0 0-9 0ZM24.5 34a4.5 4.5 0 1 0 0-9 4.5 4.5 0 0 0 0 9Z" opacity=".2"/><path d="M16.4 26.08A6 6 0 1 0 7.53 26C5.64 26.06 4 27.52 4 29.45V40a1 1 0 0 0 1 1h9a1 1 0 1 0 0-2h-4v-7a1 1 0 1 0-2 0v7H6v-9.55c0-.73.67-1.45 1.64-1.45H16a1 1 0 0 0 .4-1.92ZM12 18a4 4 0 1 1 0 8 4 4 0 0 1 0-8Zm16.47 14a6 6 0 1 0-8.94 0A3.6 3.6 0 0 0 16 35.5V46a1 1 0 0 0 1 1h14a1 1 0 0 0 1-1V35.5c0-1.94-1.64-3.42-3.53-3.5ZM20 28a4 4 0 1 1 8 0 4 4 0 0 1-8 0Zm-.3 6h8.6c1 0 1.7.75 1.7 1.5V45h-2v-7a1 1 0 1 0-2 0v7h-4v-7a1 1 0 1 0-2 0v7h-2v-9.5c0-.75.7-1.5 1.7-1.5ZM42 22c0 1.54-.58 2.94-1.53 4A3.5 3.5 0 0 1 44 29.45V40a1 1 0 0 1-1 1h-9a1 1 0 1 1 0-2h4v-7a1 1 0 1 1 2 0v7h2v-9.55A1.5 1.5 0 0 0 40.48 28H32a1 1 0 0 1-.4-1.92A6 6 0 1 1 42 22Zm-2 0a4 4 0 1 0-8 0 4 4 0 0 0 8 0Z"/><g opacity=".35"><path d="M17 10a1 1 0 011-1h12a1 1 0 110 2H18a1 1 0 01-1-1Zm1-5a1 1 0 100 2h12a1 1 0 100-2H18ZM14 1a1 1 0 00-1 1v12a1 1 0 001 1h5.09l4.2 4.2a1 1 0 001.46-.04l3.7-4.16H34a1 1 0 001-1V2a1 1 0 00-1-1H14Zm1 12V3h18v10h-5a1 1 0 00-.75.34l-3.3 3.7-3.74-3.75a1 1 0 00-.71-.29H15Z"/></g></svg>