<svg aria-hidden="true" class="svg-spot spotPeopleXL" width="196" height="196" viewBox="0 0 196 196"><path d="M53.5 108a16.5 16.5 0 100-33 16.5 16.5 0 000 33zm98.14-2a17.5 17.5 0 10-22.27 0h-4.56a9.83 9.83 0 00-9.81 9.8v10.62a9.56 9.56 0 00-2.8-.42h-3.45a17.5 17.5 0 10-29.66-10.76 9.92 9.92 0 00-8.9-5.24H43c-8 0-14 8.03-14 13v31a3 3 0 003 3h39v18a3 3 0 003 3h45a3 3 0 003-3v-18h41a3 3 0 003-3v-33.5c0-9-8.1-14.5-13.5-14.5h-.86z" opacity=".2"/><path d="M28 28c0-1.1.9-2 2-2h26a2 2 0 110 4H30a2 2 0 01-2-2zm2 7a2 2 0 100 4h19a2 2 0 100-4H30zM20 16a2 2 0 00-2 2v28c0 1.1.9 2 2 2h17.7l18.04 14.56A2 2 0 0059 61V48h7a2 2 0 002-2V18a2 2 0 00-2-2H20zm2 28V20h42v24h-9v12.82L39.66 44.44A2 2 0 0038.4 44H22zm113-18a2 2 0 100 4h26a2 2 0 100-4h-26zm-2 11c0-1.1.9-2 2-2h16a2 2 0 110 4h-16a2 2 0 01-2-2zm38-19a2 2 0 00-2-2h-43a2 2 0 00-2 2v30c0 1.1.9 2 2 2h5v7a2 2 0 003.06 1.7l14.01-8.7H169a2 2 0 002-2V18zm-4 2v26h-19.5a2 2 0 00-1.06.3L135 53.4V46h-7V20h39zM84 58c0-1.1.9-2 2-2h19a2 2 0 110 4H86a2 2 0 01-2-2zm31-11a2 2 0 00-2-2H78a2 2 0 00-2 2v22c0 1.1.9 2 2 2h5v9a2 2 0 003.39 1.44L97.23 71H113a2 2 0 002-2V47zm-4 20H95.61L87 75.3V67h-7V49h31v18z" opacity=".35"/><path opacity=".07" d="M40.4 50.2l15.14 12.35a2 2 0 002.12.26c.7-.33 1.34-1.04 1.34-1.81V48h7a2 2 0 002-2v-7.07c19.1-5.46 38.2-5.7 56 2.24V48c0 1.1.9 2 2 2h5v7c0 .73.88 1.4 1.52 1.76a2 2 0 002.04-.08l8.39-5.38a92.6 92.6 0 014.09 3.72c30.8 29.77 26.78 66.05 24.27 82.8-.2 1.37-.37 2.82-.54 4.34-1.9 16.9-4.6 40.9-76.01 37.52-77.8-3.7-80.29-27.76-80.29-46.52V84.93S8.32 67.4 40.4 50.2zM78 45a2 2 0 00-2 2v22c0 1.1.9 2 2 2h5v9c0 .8.85 1.54 1.6 1.85a2 2 0 002.18-.43L97.25 71H113a2 2 0 002-2V47a2 2 0 00-2-2H78z"/><path d="M100 11a2 2 0 012 2v4h4a2 2 0 110 4h-4v4a2 2 0 11-4 0v-4h-4a2 2 0 110-4h4v-4c0-1.1.9-2 2-2zm81 65l-4-4-4 4 4 4 4-4zM40 173.5l-8.5-8.5-8.5 8.5 8.5 8.5 8.5-8.5zm-8.5 2.83l-2.83-2.83 2.83-2.83 2.83 2.83-2.83 2.83zM65 146a22 22 0 0116.6-21.33 19.5 19.5 0 1121.8 0A22 22 0 01120 146v27a2 2 0 01-2 2H67a2 2 0 01-2-2v-27zm14-3a2 2 0 012 2v26h23v-26a2 2 0 114 0v26h8v-25a18 18 0 00-18-18H87a18 18 0 00-18 18v25h8v-26c0-1.1.9-2 2-2zm-2-34.5a15.5 15.5 0 1031 0 15.5 15.5 0 00-31 0zM36 120a2 2 0 012 2v28h19a2 2 0 110 4H24a2 2 0 01-2-2v-28a20 20 0 0116.16-19.63 19.5 19.5 0 1123.17-.37H64a2 2 0 110 4H42a16 16 0 00-16 16v26h8v-28c0-1.1.9-2 2-2zm-2-31.5a15.5 15.5 0 1031 0 15.5 15.5 0 00-31 0zM151 122a2 2 0 10-4 0v28h-19a2 2 0 100 4h33a2 2 0 002-2v-28a20 20 0 00-16.16-19.63 19.5 19.5 0 10-23.17-.37H121a2 2 0 100 4h22a16 16 0 0116 16v26h-8v-28zm-15.5-18a15.5 15.5 0 110-31 15.5 15.5 0 010 31z"/></svg>