<svg aria-hidden="true" class="svg-spot spotPeopleLg" width="96" height="96" viewBox="0 0 96 96"><path opacity=".2" d="M36 47.5a9.48 9.48 0 0 1-3.67 7.5h5.76a1 1 0 0 1 .7.29l1.39 1.36A9.5 9.5 0 0 1 57.87 54h7.7a9.5 9.5 0 1 1 13.86 0H83a4 4 0 0 1 4 4v23a2 2 0 0 1-2 2H64v10a1 1 0 0 1-1 1H36a1 1 0 0 1-1-1V83H16a1 1 0 0 1-1-1V59a4 4 0 0 1 4-4h1.67a9.48 9.48 0 0 1 5.83-17 9.5 9.5 0 0 1 9.5 9.5Z"/><path d="M13 44.5A11 11 0 1 1 30.98 53h.52a1.5 1.5 0 0 1 0 3H15.54C13.5 56 12 57.54 12 59.21V78h4.38a1.5 1.5 0 0 1-.38-1V63a1.5 1.5 0 0 1 3 0v14c0 .38-.14.73-.38 1h9.06a1.5 1.5 0 0 1 0 3H10.5A1.5 1.5 0 0 1 9 79.5V59.21c0-3.5 3.03-6.21 6.54-6.21h1.48A10.98 10.98 0 0 1 13 44.5Zm11-8a8 8 0 1 0 0 16 8 8 0 0 0 0-16Zm23 8A11 11 0 0 0 40.02 64h-1.33C35.12 64 32 66.73 32 70.3v20.2c0 .83.67 1.5 1.5 1.5h27c.83 0 1.5-.67 1.5-1.5V70.3c0-3.57-3.12-6.3-6.7-6.3h-1.32A11 11 0 0 0 47 44.5Zm-8 11a8 8 0 1 1 16 0 8 8 0 0 1-16 0Zm-4 14.8c0-1.7 1.55-3.3 3.7-3.3h16.6c2.15 0 3.7 1.6 3.7 3.3V89h-4V75a1.5 1.5 0 0 0-3 0v14H42V75a1.5 1.5 0 0 0-3 0v14h-4V70.3Zm35-36.8A11 11 0 0 1 76.98 53h1.7A6.28 6.28 0 0 1 85 59.21V79.5c0 .83-.67 1.5-1.5 1.5H66.32a1.5 1.5 0 0 1 0-3h8.06a1.5 1.5 0 0 1-.38-1V63a1.5 1.5 0 0 1 3 0v14c0 .38-.14.73-.38 1H82V59.21A3.28 3.28 0 0 0 78.68 56H62.5a1.5 1.5 0 0 1 0-3h.52A11 11 0 0 1 70 33.5Zm8 11a8 8 0 1 0-16 0 8 8 0 0 0 16 0Z"/><path d="M12.5 11a1.5 1.5 0 0 0 0 3h13a1.5 1.5 0 0 0 0-3h-13ZM11 17.5c0-.83.67-1.5 1.5-1.5h9a1.5 1.5 0 0 1 0 3h-9a1.5 1.5 0 0 1-1.5-1.5Zm-5-10C6 6.67 6.67 6 7.5 6h25c.83 0 1.5.67 1.5 1.5v15c0 .83-.67 1.5-1.5 1.5H29v6a1.5 1.5 0 0 1-2.4 1.2L17 24H7.5A1.5 1.5 0 0 1 6 22.5v-15ZM9 9v12h8.5c.32 0 .64.1.9.3L26 27v-6h5V9H9Zm60.5 3a1.5 1.5 0 0 0 0 3h13a1.5 1.5 0 0 0 0-3h-13ZM68 18.5c0-.83.67-1.5 1.5-1.5h8a1.5 1.5 0 0 1 0 3h-8a1.5 1.5 0 0 1-1.5-1.5ZM87.5 7c.83 0 1.5.67 1.5 1.5v16c0 .83-.67 1.5-1.5 1.5H76.42l-7.15 4.29A1.5 1.5 0 0 1 67 29v-3h-2.5a1.5 1.5 0 0 1-1.5-1.5v-16c0-.83.67-1.5 1.5-1.5h23ZM86 23V10H66v13h4v3.35l5.23-3.14c.23-.14.5-.21.77-.21h10Zm-42.5 4a1.5 1.5 0 0 0 0 3h9a1.5 1.5 0 0 0 0-3h-9ZM59 22.5c0-.83-.67-1.5-1.5-1.5h-19c-.83 0-1.5.67-1.5 1.5v12c0 .83.67 1.5 1.5 1.5H41v4.5a1.5 1.5 0 0 0 2.56 1.06L49.12 36h8.38c.83 0 1.5-.67 1.5-1.5v-12ZM40 24h16v9h-8.12L44 36.88V33h-4v-9Z" opacity=".35"/></svg>