<svg aria-hidden="true" class="svg-spot spotPersonVerifiedLg" width="96" height="96" viewBox="0 0 96 96"><path opacity=".2" d="M65.13 31a18 18 0 0 1-11 16.59c8.7 1.38 13.78 5.1 16.77 10.49a.88.88 0 0 0-.2.3l-4.97 11.6a.87.87 0 0 1-.8.52H54.11a.87.87 0 0 0-.52 1.57l9.43 7.08c.28.21.41.58.32.92L60.97 89H19.13c0-20.92 0-38.72 20.56-41.6A18 18 0 1 1 65.13 31Z"/><path d="M22 24.5a19.5 19.5 0 0 0 10.27 17.18 26.36 26.36 0 0 0-7.56 2.57 20.21 20.21 0 0 0-8.98 9.73c-1.87 4.06-2.79 8.83-3.25 13.97C12 73.1 12 78.73 12 84.51v1.5h39.5a1.5 1.5 0 0 0 0-3H15c0-5.25.06-10.23.47-14.79.45-4.99 1.32-9.37 2.99-12.99a17.22 17.22 0 0 1 7.67-8.33c3.52-1.9 8.29-2.97 14.77-2.9h.61c6.77.14 11.63 1.24 15.18 3.12a16.48 16.48 0 0 1 7.45 8.02 1.5 1.5 0 0 0 2.72-1.26 19.47 19.47 0 0 0-8.77-9.41 27.7 27.7 0 0 0-7.7-2.6A19.5 19.5 0 1 0 22 24.5ZM41.5 8a16.5 16.5 0 0 1 .04 33h-.58a16.5 16.5 0 0 1 .54-33Zm32.18 49.78a2.37 2.37 0 0 0-4.36 0L64.52 69h-10.4a2.37 2.37 0 0 0-1.42 4.27l9.09 6.82-3.03 11.37a2.37 2.37 0 0 0 3.81 2.43l8.93-7.44 8.93 7.44a2.37 2.37 0 0 0 3.81-2.43l-3.03-11.37 9.1-6.82A2.37 2.37 0 0 0 88.87 69h-10.4l-4.8-11.22Zm-6.57 12.78 4.39-10.25 4.4 10.25A2.37 2.37 0 0 0 78.07 72H87l-7.93 5.95a2.37 2.37 0 0 0-.87 2.5l2.63 9.88-7.81-6.52a2.37 2.37 0 0 0-3.04 0l-7.81 6.52 2.63-9.87c.25-.94-.1-1.93-.87-2.51L56 72h8.92a2.4 2.4 0 0 0 2.19-1.44Z"/></svg>