<svg aria-hidden="true" class="svg-spot spotPersonVerifiedXL" width="196" height="196" viewBox="0 0 196 196"><path opacity=".07" d="M174.54 30.88C140 1.77 84.15-2.84 57.77 18.01c-10.16 8.03-17.7 14.13-43.88 63.51-26.17 49.38-6.56 72.5 18.26 89.07 24.83 16.56 78.64 25.44 121.14 2.73a45.38 45.38 0 0 0 6.3-4.07L150 161.1l-5.61-4.6-7.8 5.5-12.54 10.15a.44.44 0 0 1-.7-.45l2.61-9.7H55c0-35.45.41-65.64 35.68-70.37a30.5 30.5 0 1 1 23.14.2c15.46 2.22 24.31 8.67 29.38 18.09l.38-.9a.44.44 0 0 1 .8.01l8.51 22.69c.07.17.23.28.41.28h22.39c.42 0 .6.53.26.79l-18.71 14.03a.43.43 0 0 0-.16.47l5.3 19.69c34.56-30.26 40.21-112.46 12.16-136.1Z"/><path opacity=".2" d="M133 63.5a30.51 30.51 0 0 1-19.18 28.33c15.46 2.22 24.31 8.67 29.38 18.09l-9.09 21.81a.44.44 0 0 1-.4.27h-22.4c-.42 0-.6.53-.26.79l18.71 14.03c.15.11.21.3.16.47L125.96 162H55c0-35.45.41-65.64 35.68-70.37A30.5 30.5 0 1 1 133 63.5Z"/><path d="M92.5 21a32.5 32.5 0 0 0-14.06 61.81 44.97 44.97 0 0 0-14.54 4.62c-7.04 3.8-11.73 9.38-14.83 16.2-3.07 6.79-4.58 14.78-5.32 23.45C43 135.74 43 145.23 43 155v2h66a2 2 0 1 0 0-4H47c0-9.08.05-17.7.73-25.58.73-8.47 2.18-15.95 4.98-22.13 2.79-6.14 6.91-11.02 13.08-14.33C72 87.62 80.44 85.77 91.96 86c11.55.23 20 2.03 26.21 5.2a27.74 27.74 0 0 1 13.02 13.64 2 2 0 1 0 3.62-1.68A31.73 31.73 0 0 0 120 87.64a49.2 49.2 0 0 0-14.24-4.45A32.5 32.5 0 0 0 92.5 21ZM64 53.5a28.5 28.5 0 1 1 57 0 28.5 28.5 0 0 1-57 0ZM160 24l5 5-5 5-5-5 5-5ZM15 108a2 2 0 0 1 2 2v4h4a2 2 0 1 1 0 4h-4v4a2 2 0 1 1-4 0v-4H9a2 2 0 1 1 0-4h4v-4c0-1.1.9-2 2-2Zm170-58-9-9-9 9 9 9 9-9Zm-9 3-3-3 3-3 3 3-3 3Zm-29.74 55.33a2.44 2.44 0 0 0-4.53-.08L132.67 130H111.3a2.44 2.44 0 0 0-1.46 4.39l17.87 13.4-6.3 23.39a2.44 2.44 0 0 0 3.89 2.53l18.66-15.11 17.67 15.02a2.44 2.44 0 0 0 3.93-2.5l-6.29-23.33 17.87-13.4a2.44 2.44 0 0 0-1.46-4.39h-21.3l-8.13-21.67Zm-10.3 24.17 7.94-19.06 7.12 18.98a2.44 2.44 0 0 0 2.28 1.58H171l-14.96 11.22c-.8.6-1.15 1.62-.9 2.59l5.26 19.5-14.83-12.6c-.9-.76-2.2-.77-3.11-.04l-15.93 12.9 5.32-19.76a2.44 2.44 0 0 0-.89-2.59L116 134h17.7c1 0 1.88-.6 2.26-1.5Z"/></svg>