<svg aria-hidden="true" class="svg-spot spotPlayXL" width="196" height="196" viewBox="0 0 196 196"><path opacity=".07" d="M169.8 164.73c23.35-31.7 15.06-75.62 4.69-103.03-5.1-13.47-26.16-41.33-69.6-43.36C61.42 16.3 45.8 30.5 32.81 53.04c-13 22.55-26.5 67.94-4.33 103.6 22.17 35.68 120.78 35.94 141.3 8.09zM86 89.53a1.52 1.52 0 012.25-1.33l42.39 22.97a1.52 1.52 0 01.03 2.66l-42.39 24.3A1.52 1.52 0 0186 136.8V89.54z"/><path d="m156.5 25 8.5 8.5-8.5 8.5-8.5-8.5 8.5-8.5zm-2.83 8.5 2.83 2.83 2.83-2.83-2.83-2.83-2.83 2.83zM24 146a2 2 0 10-4 0v4h-4a2 2 0 100 4h4v4a2 2 0 104 0v-4h4a2 2 0 100-4h-4v-4zm20 24-4-4-4 4 4 4 4-4zm35-89.1a3.52 3.52 0 015.17-3.1l45.47 24a3.52 3.52 0 01.07 6.19l-45.47 25.33a3.52 3.52 0 01-5.24-3.08V80.91zm4 .8v47.73l44-24.51L83 81.7zM97.4 44a59.4 59.4 0 100 118.8 59.4 59.4 0 0 0 0-118.8zM42 103.4a55.4 55.4 0 11110.8 0 55.4 55.4 0 0 1-110.8 0z"/><path opacity=".2" d="M101.6 166.4a57.4 57.4 0 100-114.8 57.4 57.4 0 0 0 0 114.8zM86 89.54a1.52 1.52 0 012.25-1.34l42.39 22.97a1.52 1.52 0 01.03 2.66l-42.39 24.3A1.52 1.52 0 0186 136.8V89.54z"/></svg>