<svg aria-hidden="true" class="svg-spot spotPuzzleAltXL" width="196" height="196" viewBox="0 0 196 196"><path opacity=".07" d="m57.16 173.69-.47-.1c-6.12-1.25-48.76-9.99-45.51-63.71C14.53 54.42 27.29 32.1 45 26c2.62-.9 5.96-2.29 9.86-3.9C77.4 12.73 118.71-4.4 147.5 19c33.78 27.45 55.96 59.17 41.5 103-14.46 43.84-30.26 66.24-68 64-26.94-1.6-38.76-5.16-49.88-8.52-4.46-1.34-8.8-2.66-13.96-3.8Zm23.04-12.65a20.68 20.68 0 0 0 29.05 0l61.57-62.42-21.4-21.2-.08-.08c-.44-.35-.64-.9-.52-1.62.14-.76.61-1.46 1.2-1.8 7.09-4.04 11.07-12.55 9.08-21.45a19.54 19.54 0 0 0-14.65-14.52c-9.02-1.99-17.07 2.02-21.55 8.93l-.02.03-.01.03a2.56 2.56 0 0 1-1.7 1.2c-.6.1-1.3-.04-1.97-.7L94.71 23.18l-22.2 22.48v.01c-3.38 3.36-1.87 8.52 1.88 10.38l.06.03.07.03a15.6 15.6 0 0 1 9.23 18.25c-1.64 5.66-6.1 10.4-12.03 11.57h-.04l-.05.02c-8.05 2-15.68-2.4-18.48-9.14l-.03-.07-.03-.07c-1.88-3.73-7.07-5.2-10.43-1.86l-24.5 24.28 62.04 61.95v.01Z"/><path opacity=".2" d="M24.54 114.64a5 5 0 0 1 .02-7.08l19.5-19.34c2.27-2.24 5.89-1.35 7.24 1.34a17.84 17.84 0 0 0 20.81 10.32c6.79-1.35 11.76-6.73 13.57-13a17.6 17.6 0 0 0-10.4-20.63c-2.72-1.35-3.62-4.93-1.36-7.18l17.29-17.5a5 5 0 0 1 7.07-.04l19.51 19.34c2.27 2.24 5.43 1.34 6.79-.9 4.07-6.28 11.3-9.86 19.45-8.07a17.55 17.55 0 0 1 13.12 13c1.8 8.07-1.81 15.7-8.15 19.28-2.26 1.35-3.16 4.94-.9 6.73l16.36 16.22c1.95 1.94 2 5.08.06 7.04a169259 169259 0 0 0-52.82 53.6 23.99 23.99 0 0 1-34.07.09l-53.09-53.22Z"/><path d="M80.2 161.04a20.68 20.68 0 0 0 29.05 0l61.57-62.42-21.4-21.2-.08-.08c-.44-.35-.64-.9-.52-1.62.14-.76.61-1.46 1.2-1.8 7.09-4.04 11.07-12.55 9.08-21.45a19.54 19.54 0 0 0-14.65-14.52c-9.02-1.99-17.07 2.02-21.55 8.93l-.02.03-.01.03a2.56 2.56 0 0 1-1.7 1.2c-.6.1-1.3-.04-1.97-.7L94.71 23.18l-22.2 22.48v.01c-3.38 3.36-1.87 8.52 1.88 10.38l.06.03.07.03a15.6 15.6 0 0 1 9.23 18.25c-1.64 5.66-6.1 10.4-12.03 11.57h-.04l-.05.02c-8.05 2-15.68-2.4-18.48-9.14l-.03-.07-.03-.07c-1.88-3.73-7.07-5.2-10.43-1.86l-24.5 24.28 62.04 61.95v.01Zm84.98-62.39-58.75 59.56a16.68 16.68 0 0 1-23.41 0v-.01L23.84 99.1l21.64-21.46c1.15-1.14 3.16-.83 4.01.77a19.84 19.84 0 0 0 23.06 11.42c7.6-1.53 13.07-7.54 15.05-14.4l.01-.03v-.04a19.6 19.6 0 0 0-11.5-22.93c-1.63-.85-1.9-2.82-.78-3.94l19.41-19.66L116.4 50.3c3.33 3.3 7.97 1.87 9.88-1.25 3.66-5.63 10.08-8.78 17.33-7.19h.01a15.55 15.55 0 0 1 11.58 11.48v.01c1.62 7.23-1.62 13.96-7.17 17.1l-.02.01-.02.01a6.71 6.71 0 0 0-3.1 4.57 5.58 5.58 0 0 0 1.88 5.37l18.42 18.25ZM172 31a2 2 0 1 0-4 0v4h-4a2 2 0 1 0 0 4h4v4a2 2 0 1 0 4 0v-4h4a2 2 0 1 0 0-4h-4v-4ZM52.72 170.03l-4.24-4.24-4.25 4.24 4.25 4.24 4.24-4.24ZM23.17 39.34l8.49 8.49-8.49 8.48-8.48-8.48 8.48-8.49Zm-2.83 8.49 2.83 2.83L26 47.83 23.17 45l-2.83 2.83Z"/></svg>