<svg aria-hidden="true" class="svg-spot spotPuzzleLg" width="96" height="96" viewBox="0 0 96 96"><path opacity=".2" d="M71.44 29.43l-7.49 7.5c-.73.73-1.9.44-2.35-.45a5.78 5.78 0 00-6.76-3.37 5.9 5.9 0 00-4.4 4.26 5.78 5.78 0 003.38 6.75c.88.44 1.17 1.62.44 2.35l-6.76 6.9-7.5-7.49c-.73-.73-1.75-.44-2.2.3a5.85 5.85 0 01-6.3 2.64 5.72 5.72 0 01-4.27-4.26 5.76 5.76 0 012.64-6.31c.74-.44 1.03-1.62.3-2.2l-6.46-6.47L43.24 9.61a6.03 6.03 0 018.52 0l19.68 19.82z"/><path d="M42.18 2.67a7.53 7.53 0 0110.64 0l39.5 39.51a7.49 7.49 0 01.16 10.5L52.82 92.32a7.53 7.53 0 01-10.64 0l-39.5-39.5a7.53 7.53 0 010-10.64l19.8-19.68v-.01l.02-.01L42.18 2.67zm-18.62 23L4.79 44.3a4.53 4.53 0 000 6.4l18.4 18.4 6.17-6.16a2.8 2.8 0 012.5-.8 2.9 2.9 0 011.97 1.35 4.17 4.17 0 004.53 1.9 4.4 4.4 0 003.14-3.17 4.08 4.08 0 00-1.85-4.46l-.03-.02a3 3 0 01-1.38-2.04c-.14-.8.04-1.8.85-2.5l6-5.99-6.05-6.05a7.26 7.26 0 01-7.94 3.24 7.59 7.59 0 01-5.48-5.54A7.35 7.35 0 0128.87 31l-5.31-5.31zM47.2 45.1l5.83-5.83a7.1 7.1 0 01-4-8.2 7.4 7.4 0 015.35-5.39h.02a7.1 7.1 0 018.23 4l6.46-6.47L50.7 4.8a4.53 4.53 0 00-6.4-.01L25.68 23.56l5.4 5.4c.72.72.98 1.66.82 2.54a2.98 2.98 0 01-1.38 2 4.35 4.35 0 00-1.97 4.72 4.6 4.6 0 003.3 3.27 4.26 4.26 0 004.67-1.96 3.04 3.04 0 012.08-1.4c.81-.14 1.81.05 2.52.87l6.1 6.09zm0 4.24l-5.91 5.92a7.09 7.09 0 013.1 7.7v.01a7.4 7.4 0 01-5.4 5.35c-3.2.71-6.04-.7-7.64-3.12l-6.04 6.03L44.3 90.21a4.53 4.53 0 006.4 0l18.7-18.7-5.44-5.42a2.68 2.68 0 01-.86-2.53 3.05 3.05 0 011.43-2.09 4.26 4.26 0 001.93-4.65 4.6 4.6 0 00-3.26-3.3h-.02c-1.96-.44-3.7.4-4.71 1.97a2.98 2.98 0 01-2 1.38c-.88.16-1.82-.1-2.54-.82l-6.72-6.72zM71.5 69.4l18.84-18.84a4.49 4.49 0 00-.14-6.25L71.23 25.32l-6.57 6.56c-1.54 1.54-3.86.82-4.68-.81a4.1 4.1 0 00-4.83-2.5 4.4 4.4 0 00-3.2 3.18 4.1 4.1 0 002.5 4.85c1.63.82 2.35 3.14.81 4.68l-5.93 5.93 6.63 6.63a7.35 7.35 0 017.87-3.25 7.59 7.59 0 015.55 5.54 7.26 7.26 0 01-3.25 7.88l5.38 5.38zM18.67 15.16a2.37 2.37 0 11-3.36 3.36 2.37 2.37 0 013.36-3.36zm61.01 64.38a2.37 2.37 0 10-3.36-3.36 2.37 2.37 0 003.36 3.36zM15.3 76.16a2.38 2.38 0 113.37 3.36 2.38 2.38 0 01-3.36-3.36zM79.7 15.2a2.37 2.37 0 10-3.37 3.35 2.37 2.37 0 003.36-3.36z"/></svg>