<svg aria-hidden="true" class="svg-spot spotPuzzleAlt" width="48" height="48" viewBox="0 0 48 48"><path opacity=".2" d="M3.83 30.27a1.94 1.94 0 0 1 .04-2.78l6.42-6.13c.63-.64 1.64-.38 2.02.39a4.94 4.94 0 0 0 5.8 2.97 5.13 5.13 0 0 0 .89-9.68c-.76-.39-1.01-1.42-.38-2.06l4.02-4.21a2 2 0 0 1 2.85-.05l4.68 4.61c.63.65 1.51.39 1.9-.26a4.98 4.98 0 0 1 5.42-2.32 4.97 4.97 0 0 1 3.66 3.74 5.1 5.1 0 0 1-2.27 5.55c-.64.39-.89 1.42-.26 1.94l5.25 5.32a2 2 0 0 1 .01 2.8L29 45.4a7 7 0 0 1-10 .01C14.27 40.58 7.05 33.5 3.84 30.27Z"/><path d="M45.7 23.3v-.01l-5.66-5.67a1 1 0 0 0-.08-.07.2.2 0 0 1 0-.06l.06-.15a.29.29 0 0 1 .08-.08 6.05 6.05 0 0 0 2.77-6.66 6.13 6.13 0 0 0-11.23-1.8.3.3 0 0 1-.19.14h-.06a.27.27 0 0 1-.11-.08L24.7 2.3a1 1 0 0 0-1.42 0l-6.22 6.23a1.98 1.98 0 0 0-.65 1.88c.1.6.47 1.2 1.05 1.56h.02a3.8 3.8 0 0 1 1.73 4.18 4.09 4.09 0 0 1-2.91 2.94h-.01a3.89 3.89 0 0 1-4.21-1.76 2.24 2.24 0 0 0-1.5-1.04 2.12 2.12 0 0 0-1.9.61l-6.4 6.4a1 1 0 0 0-.29.74 1 1 0 0 0 .29.74l17.25 17.38a6.23 6.23 0 0 0 8.86 0l17.3-17.44a.7.7 0 0 0 .14-.16 1 1 0 0 0-.13-1.26ZM18.46 9.95 24 4.41l5.86 5.87a2.2 2.2 0 0 0 1.95.63 2.3 2.3 0 0 0 1.54-1.07 4.13 4.13 0 0 1 4.48-1.87c1.4.3 2.67 1.53 3.1 3.13a4.05 4.05 0 0 1-1.84 4.43l-.02.01c-.59.36-.97.98-1.08 1.6-.1.64.04 1.4.67 1.93L43.59 24 26.98 40.74a4.23 4.23 0 0 1-6.02 0L4.38 24.04l5.73-5.73a.22.22 0 0 1 .08-.06h.04c.05 0 .11.04.15.11v.01l.02.02a5.89 5.89 0 0 0 10.77-1.8 5.8 5.8 0 0 0-2.67-6.35.23.23 0 0 1-.06-.07.33.33 0 0 1-.05-.15l.06-.06ZM8.47 6.53a1.37 1.37 0 1 1-1.94 1.94 1.37 1.37 0 0 1 1.94-1.94Zm33 33a1.38 1.38 0 1 1-1.94 1.94 1.38 1.38 0 0 1 1.94-1.94Zm-33 0a1.38 1.38 0 1 0-1.94 1.94 1.38 1.38 0 0 0 1.94-1.94Z"/></svg>