<svg aria-hidden="true" class="svg-spot spotPuzzleXL" width="196" height="196" viewBox="0 0 196 196"><path opacity=".07" d="M53.16 172.69c-3.79-.84-49.34-8.36-45.98-63.81C10.53 53.42 23.29 31.1 41 25c17.7-6.1 68.72-34.45 102.5-7 33.78 27.45 55.96 59.17 41.5 103-14.46 43.84-30.26 66.24-68 64-37.74-2.24-45.81-8.34-63.84-12.31z"/><path opacity=".2" d="M138.23 67.26l-12.75 12.75c-1.25 1.25-3.25.75-4-.75a9.83 9.83 0 00-11.5-5.75c-3.74.75-6.49 3.75-7.49 7.25a9.83 9.83 0 005.75 11.5c1.5.74 2 2.74.75 4L97.49 108 84.75 95.25c-1.25-1.25-3-.75-3.75.5a9.95 9.95 0 01-10.75 4.5A9.74 9.74 0 0163 93c-1-4.5 1-8.75 4.5-10.74 1.25-.75 1.75-2.75.5-3.75l-11-11 33.25-33.99c4-4 10.5-4 14.5 0l33.48 33.74z"/><path d="M106.16 22.11a12.26 12.26 0 00-17.33 0L55.36 55.84a2.07 2.07 0 00-.03.03L21.6 89.33a12.26 12.26 0 000 17.33l67.22 67.23a12.26 12.26 0 0017.33 0l67.47-67.48c4.56-4.56 4.5-12.32-.25-17.07L106.16 22.1zm-49.4 37.98l9.58 9.58c.1.1.12.17.13.2a.2.2 0 010 .1c-.02.1-.1.23-.25.32l-.03.02-.02.02a11.95 11.95 0 00-5.37 12.85c.93 4.3 4.54 7.83 8.94 9a1.64 1.64 0 00.08.02 11.8 11.8 0 0012.9-5.42.5.5 0 01.14-.14.7.7 0 01.26-.1.4.4 0 01.09-.01 2 2 0 00.12.14L94.17 97.5l-10.6 10.61a3.95 3.95 0 00-1.3 3.73c.21 1.21.94 2.4 2.1 3.1l.03.02a7.5 7.5 0 013.41 8.2c-.8 2.97-3.17 5.24-5.74 5.8h-.02a7.65 7.65 0 01-8.29-3.47 4.44 4.44 0 00-2.97-2.06c-1.3-.24-2.7.15-3.77 1.22l-10.66 10.66c-.08.08-.14.16-.2.24l-31.73-31.73a8.26 8.26 0 010-11.66l32.32-32.08zM97 100.34l11.83 11.82a4.28 4.28 0 003.83 1.24 4.52 4.52 0 003.02-2.1 7.95 7.95 0 018.62-3.6h.02c2.67.58 5.13 2.94 5.97 6.02a7.8 7.8 0 01-3.59 8.56 4.63 4.63 0 00-2.12 3.15 4.01 4.01 0 001.3 3.79l9.65 9.64-32.2 32.2a8.26 8.26 0 01-11.67 0l-32.7-32.7.23-.2 10.66-10.67a.4.4 0 01.15-.11h.07c.08.01.2.08.28.21l.02.03.02.02a11.65 11.65 0 0012.52 5.24c4.2-.9 7.64-4.43 8.78-8.71l.01-.06v-.02a11.5 11.5 0 00-5.28-12.58.43.43 0 01-.11-.11.63.63 0 01-.1-.28l.11-.1L97 100.33zm41.35 35.7l-9.7-9.71a2.06 2.06 0 00-.14-.13v-.09a.7.7 0 01.11-.26.5.5 0 01.13-.14 11.8 11.8 0 005.43-12.9c0-.03 0-.05-.02-.08-1.17-4.4-4.7-8.01-9-8.94a11.95 11.95 0 00-12.85 5.37l-.04.06a.52.52 0 01-.33.25.2.2 0 01-.1 0 .48.48 0 01-.19-.14L99.83 97.51l10.48-10.48c2.32-2.32 1.25-5.84-1.25-7.08a7.53 7.53 0 01-4.51-8.94c.56-2.58 2.84-4.95 5.82-5.75a7.53 7.53 0 018.85 4.53c1.25 2.49 4.77 3.56 7.08 1.24l11.56-11.56 32.7 32.7c3.25 3.25 3.18 8.48.25 11.41l-32.46 32.45zM97 94.67L86.23 83.91a4 4 0 00-3.8-1.31 4.63 4.63 0 00-3.17 2.16 7.8 7.8 0 01-8.53 3.55c-3.08-.84-5.45-3.3-6.02-5.97v-.02c-.8-3.6.75-6.77 3.6-8.62a4.52 4.52 0 002.1-3.02 4.28 4.28 0 00-1.24-3.83l-9.59-9.6 32.08-32.31a8.26 8.26 0 0111.67 0l31.7 31.7-11.56 11.57a.32.32 0 01-.14.09.33.33 0 01-.15 0 .56.56 0 01-.36-.26 11.53 11.53 0 00-13.44-6.66h-.03c-4.27 1.15-7.79 4.57-8.7 8.76a11.53 11.53 0 006.66 13.4c.15.1.24.23.27.36v.16c-.02.03-.04.08-.1.14L97 94.68zM168 32a2 2 0 10-4 0v4h-4a2 2 0 100 4h4v4a2 2 0 104 0v-4h4a2 2 0 100-4h-4v-4zM48.72 171.03l-4.24-4.24-4.25 4.24 4.25 4.24 4.24-4.24zM19.17 40.34l8.49 8.49-8.49 8.48-8.48-8.48 8.48-8.49zm-2.83 8.49l2.83 2.83L22 48.83 19.17 46l-2.83 2.83z"/></svg>