<svg aria-hidden="true" class="svg-spot spotPuzzleAltLg" width="97" height="96" viewBox="0 0 97 96"><path opacity=".2" d="M5.11 56.81a3 3 0 0 1 0-4.23L16.97 40.7c1.37-1.37 3.56-.82 4.38.82a10.77 10.77 0 0 0 12.6 6.3c4.1-.81 7.11-4.1 8.21-7.94a10.8 10.8 0 0 0-6.3-12.62c-1.64-.82-2.19-3.01-.82-4.38l10.47-10.72a3 3 0 0 1 4.27-.02L61.6 23.98c1.37 1.37 3.29.83 4.11-.54A10.9 10.9 0 0 1 77.5 18.5c3.83.82 7.12 4.11 7.94 7.95 1.1 4.94-1.1 9.6-4.93 11.8-1.37.81-1.92 3-.55 4.1l9.96 9.97a2.97 2.97 0 0 1 .03 4.2c-6.21 6.33-21.97 22.33-32.4 32.92a13.99 13.99 0 0 1-19.88.05L5.11 56.8Z"/><path d="M38.63 85.9a12.73 12.73 0 0 0 18.01 0l37.47-38.36-13.16-13.17-.06-.05c-.17-.14-.28-.36-.21-.73.06-.4.3-.75.58-.92 4.41-2.53 6.86-7.86 5.63-13.4a12.17 12.17 0 0 0-9.08-9.1 12.4 12.4 0 0 0-13.36 5.59l-.01.02-.02.02c-.2.33-.51.54-.83.6-.27.05-.6 0-.93-.34L47.63 1 33.98 14.96c-2.2 2.2-1.2 5.58 1.21 6.79l.05.02.05.03a9.3 9.3 0 0 1 5.42 10.83c-.97 3.39-3.6 6.18-7.06 6.87h-.03l-.04.02a9.27 9.27 0 0 1-10.84-5.42l-.03-.05-.02-.05c-1.21-2.43-4.59-3.42-6.79-1.22L.88 47.82 38.63 85.9ZM89.9 47.57 54.51 83.79a9.73 9.73 0 0 1-13.75 0L5.12 47.82l12.9-12.93c.54-.53 1.52-.43 1.97.4a12.27 12.27 0 0 0 14.28 7.14c4.73-.97 8.11-4.73 9.33-9v-.03l.02-.03a12.3 12.3 0 0 0-7.13-14.33c-.83-.45-.92-1.44-.39-1.97l11.56-11.8 12.9 12.9a4 4 0 0 0 3.58 1.18 4.26 4.26 0 0 0 2.85-1.99 9.4 9.4 0 0 1 10.18-4.26h.01a9.2 9.2 0 0 1 6.8 6.8v.01c.95 4.31-.97 8.3-4.22 10.16l-.01.01-.01.01c-1.1.66-1.8 1.8-2.01 2.98a3.7 3.7 0 0 0 1.22 3.53L89.9 47.57ZM19.67 18.65a2.38 2.38 0 1 0-3.36-3.35 2.38 2.38 0 0 0 3.36 3.35Zm61.01 57.53a2.38 2.38 0 1 1-3.36 3.36 2.38 2.38 0 0 1 3.36-3.36Zm-61.01-.02a2.38 2.38 0 1 0-3.36 3.36 2.38 2.38 0 0 0 3.36-3.36Z"/></svg>