<svg aria-hidden="true" class="svg-spot spotQuestion" width="48" height="48" viewBox="0 0 48 48"><path opacity=".2" d="M40 5H10c-2.64 0-5 2.99-5 5.64V45l6-6h29.5c2.44 0 4.5-2.85 4.5-5.1V10.63C45.09 7.69 43.09 5 40 5Zm-4.83 29.1c-1.74-.54-4.05-1.48-5.36-2.8-4.35 1.72-9.76.94-13.15-2.34-6.64-7.13-2.43-21.57 8.31-21.04a11.02 11.02 0 0 1 8.27 3.22c2.08 2.15 3.07 5.14 3.07 8.89a16 16 0 0 1-.84 5.26c-.37.94-.87 1.89-1.55 2.76 1.11.7 2.33 1.14 3.56 1.59l-2.3 4.46Z"/><path d="M9.97 35H36.8c.76 0 1.47-.01 2.1-.12.65-.1.93-.28 1.03-.38A3.63 3.63 0 0 0 41 31.94V6.62A3.63 3.63 0 0 0 37.37 3H8.64A3.64 3.64 0 0 0 5 6.63v34.05L9.97 35ZM3 46V6.62A5.65 5.65 0 0 1 8.63 1h28.74A5.63 5.63 0 0 1 43 6.63v25.3c0 1.5-.6 2.93-1.65 3.98C40.3 36.98 38.3 37 36.81 37H10.87L3 46Zm30.2-22.84c.5-1.43.8-3.12.8-5.03 0-3.63-1-6.44-2.9-8.44a10.3 10.3 0 0 0-7.83-3 10.4 10.4 0 0 0-7.87 3 11.67 11.67 0 0 0-2.9 8.44c0 3.63.99 6.44 2.9 8.44a10.58 10.58 0 0 0 8.02 3c1.74 0 3.37-.3 4.8-.95l.64.43a33 33 0 0 0 2.35 1.54c.64.36 1.29.64 1.96.84l1.66-3.18a14.63 14.63 0 0 1-3.6-1.85 10.02 10.02 0 0 0 1.97-3.24Zm-9.95-12.65a5.62 5.62 0 0 0-4.42 1.88c-1.12 1.3-1.69 3.2-1.69 5.74 0 2.59.57 4.53 1.7 5.82a5.31 5.31 0 0 0 4.28 1.91c.63 0 1.25-.11 1.81-.3a15.04 15.04 0 0 0-2.75-1.41l1.26-2.53c1.52.52 2.94 1.28 4.22 2.25a5.95 5.95 0 0 0 1.02-1.74 10.7 10.7 0 0 0 .7-4c0-2.56-.56-4.47-1.69-5.74a5.62 5.62 0 0 0-4.44-1.88ZM26.96 21a18.4 18.4 0 0 0-2.86-1.29l-1.66-.57-1.86 3.73a4.37 4.37 0 0 1-.25-.25c-.67-.79-1.19-2.17-1.19-4.5 0-2.27.51-3.63 1.2-4.42a3.63 3.63 0 0 1 2.83-1.2h.16a3.62 3.62 0 0 1 2.87 1.2c.66.76 1.18 2.1 1.18 4.42a8.9 8.9 0 0 1-.35 2.67l-.01.03-.01.02-.05.17ZM23.28 4.69a12.3 12.3 0 0 1 9.23 3.6l.01.01.02.02c2.36 2.46 3.45 5.83 3.45 9.82 0 2.1-.3 4.02-.9 5.7v.02l-.01.01c-.25.67-.57 1.32-.94 1.94.44.21.9.4 1.36.57l2.18.76-3.5 6.68-1.56-.46a11.17 11.17 0 0 1-2.5-1.07l-.26-.15-.63-.42-1.26-.85c-1.42.49-2.94.71-4.5.71A12.58 12.58 0 0 1 14 28l-.02-.02-.02-.02c-2.35-2.45-3.45-5.8-3.46-9.76-.2-3.6 1.02-7.12 3.4-9.82l.04-.05.05-.05a12.4 12.4 0 0 1 9.29-3.6Z"/></svg>