<svg aria-hidden="true" class="svg-spot spotQuestionLg" width="96" height="96" viewBox="0 0 96 96"><path opacity=".2" d="M93 19.99A10 10 0 0 0 83 10H16a7 7 0 0 0-7 7v73l11.97-12.56.44-.44H83a10 10 0 0 0 10-9.99V20ZM67.4 68.72c-3.75-1.16-7.67-2.64-10.49-5.46a24.47 24.47 0 0 1-9.08 1.62c-13.44.66-22.66-10.58-22.66-23.64-.74-12.87 9.04-24.28 22.3-23.64a21.54 21.54 0 0 1 16.16 6.28c4.06 4.21 5.98 10.05 5.98 17.36 0 3.84-.6 7.32-1.63 10.27a21.8 21.8 0 0 1-3.02 5.4c2.16 1.37 4.54 2.23 6.93 3.1l-4.5 8.71Z"/><path d="M17.14 71h61.11c1.3 0 2.62-.1 3.78-.4a5.26 5.26 0 0 0 2.48-1.22A8.81 8.81 0 0 0 87 63.5v-49c0-1.85-.82-3.52-2.5-5.2A7.88 7.88 0 0 0 78.95 7H13.69C9.29 7 6 10.24 6 14.5v68.4L17.14 71ZM3 90.5v-76C3 8.52 7.7 4 13.69 4h65.25c2.88 0 5.65 1.15 7.69 3.19C88.67 9.22 90 11.62 90 14.5v49a11.8 11.8 0 0 1-3.37 8c-2.04 2.04-5.5 2.5-8.38 2.5H18.44L3 90.5Zm62.07-43.65a29.26 29.26 0 0 0 1.52-9.74c0-7.01-1.9-12.45-5.6-16.3a19.9 19.9 0 0 0-15.11-5.83 20.12 20.12 0 0 0-15.23 5.82 22.57 22.57 0 0 0-5.6 16.31c0 7.02 1.9 12.46 5.6 16.32a20.44 20.44 0 0 0 15.5 5.81c3.37 0 6.52-.6 9.3-1.84l1.22.82c2.75 1.87 4.25 2.89 4.54 2.98 1.25.7 2.5 1.25 3.8 1.63l3.22-6.14a28.29 28.29 0 0 1-6.96-3.59c.68-.79 1.28-1.58 1.82-2.39a19.18 19.18 0 0 0 1.98-3.86Zm-19.2-34.87a22.9 22.9 0 0 1 17.25 6.7l.02.02.02.03c4.37 4.56 6.43 10.82 6.43 18.38 0 4-.58 7.6-1.69 10.74v.02l-.02.03a22.15 22.15 0 0 1-2.24 4.38 24.8 24.8 0 0 0 3.58 1.58L72.49 55l-5.95 11.4-2.36-.7a20.76 20.76 0 0 1-4.63-1.99c-.16-.08-.31-.18-.47-.28l-1.21-.79-2.78-1.87c-2.77 1-5.77 1.46-8.85 1.46a23.45 23.45 0 0 1-17.69-6.67l-.03-.03-.03-.04c-4.36-4.54-6.42-10.78-6.44-18.3a25.57 25.57 0 0 1 6.35-18.38l.07-.08.07-.07a23.12 23.12 0 0 1 17.34-6.69Zm8.54 14.04a10.87 10.87 0 0 0-8.59-3.64 10.87 10.87 0 0 0-8.53 3.64c-2.18 2.5-3.27 6.2-3.27 11.1 0 5 1.1 8.75 3.27 11.25a11.43 11.43 0 0 0 2.5 2.13c1.16.72 2.44 1.2 3.82 1.42a10.78 10.78 0 0 0 5.48-.45A28.46 28.46 0 0 0 44.4 49l-.65-.25 2.44-4.9a29.36 29.36 0 0 1 8.16 4.36 11.52 11.52 0 0 0 1.62-2.54 15 15 0 0 0 .83-2.2c.6-1.84.87-3.96.87-6.36 0-4.94-1.1-8.64-3.27-11.09ZM40.95 47.67a8.6 8.6 0 0 1-1.41-1.28c-1.5-1.74-2.52-4.65-2.52-9.28 0-4.5 1-7.36 2.52-9.1a7.87 7.87 0 0 1 6.17-2.63h.24A7.87 7.87 0 0 1 52.17 28c1.5 1.68 2.5 4.53 2.5 9.1 0 2.18-.24 3.97-.72 5.44l-.01.04-.01.04c-.14.48-.3.92-.48 1.34a32.36 32.36 0 0 0-6.27-2.95l-2.48-.86-3.75 7.5Z"/></svg>