<svg aria-hidden="true" class="svg-spot spotQuoteXL" width="196" height="196" viewBox="0 0 196 196"><path opacity=".07" d="M162.32 20.38C123.92-3.2 74.66 10.5 44.41 24.96 29.55 32.07 18.65 43.9 8.78 82.2c-9.88 38.3 6.67 85.03 33.62 97.68 26.95 12.64 81.24 13.54 119.77-15.18 38.54-28.72 33.9-123.61.15-144.32ZM22 63c0-11.58 9.35-21 20.9-21h28.26c11.56 0 20.9 9.42 20.9 21.01v65.06c0 .96-.25 1.9-.74 2.74l-15.4 26.48A5.46 5.46 0 0 1 71.2 160H57.95a5.46 5.46 0 0 1-4.7-8.21l10.87-18.6a1.46 1.46 0 0 0-1.26-2.19H42.9A20.96 20.96 0 0 1 22 109.99V63Zm75.06 0a20.96 20.96 0 0 1 20.9-21.01h29.2c11.56 0 20.9 9.42 20.9 21.01v65.04c0 .98-.26 1.95-.77 2.8l-15.78 26.49a5.46 5.46 0 0 1-4.7 2.66h-13.26a5.46 5.46 0 0 1-4.71-8.21l10.87-18.6a1.45 1.45 0 0 0-1.25-2.19h-20.5a20.96 20.96 0 0 1-20.9-21.01V63Z"/><path d="M30.76 69.93c0-10.5 8.46-19.02 18.9-19.02H78c10.43 0 18.9 8.52 18.9 19.02v66.1l-15.39 26.95a4 4 0 0 1-3.47 2.02H66a4 4 0 0 1-3.48-5.98l13.12-22.99H49.66a18.96 18.96 0 0 1-18.9-19.01v-47.1Zm75.26 0c0-10.5 8.46-19.02 18.9-19.02h29.18c10.44 0 18.9 8.52 18.9 19.02v66.55l-15.87 26.57a4 4 0 0 1-3.44 1.95h-12.1a4 4 0 0 1-3.47-5.98l13.12-22.99h-26.33a18.96 18.96 0 0 1-18.9-19.01v-47.1Z" opacity=".2"/><path d="M167 15a2 2 0 1 0-4 0v4h-4a2 2 0 1 0 0 4h4v4a2 2 0 1 0 4 0v-4h4a2 2 0 1 0 0-4h-4v-4ZM55 16l4 4-4 4-4-4 4-4Zm52.5 160 8.5 8.5-8.5 8.5-8.5-8.5 8.5-8.5Zm-2.83 8.5 2.83 2.83 2.83-2.83-2.83-2.83-2.83 2.83ZM42.9 42A20.96 20.96 0 0 0 22 63.01V110c0 11.58 9.35 21 20.9 21h19.96a1.46 1.46 0 0 1 1.26 2.2l-10.88 18.59a5.46 5.46 0 0 0 4.71 8.21H71.2a5.46 5.46 0 0 0 4.72-2.71l15.4-26.48a5.4 5.4 0 0 0 .74-2.74V63a20.95 20.95 0 0 0-20.9-21.01H42.9ZM26 63.01C26 53.61 33.58 46 42.9 46h28.26c9.33 0 16.9 7.6 16.9 17.01v65.06c0 .25-.07.5-.2.73l-15.4 26.48c-.26.44-.74.72-1.26.72H57.95a1.46 1.46 0 0 1-1.26-2.2l10.88-18.59a5.46 5.46 0 0 0-4.71-8.21H42.9c-9.32 0-16.9-7.6-16.9-17.01V63ZM117.96 42a20.96 20.96 0 0 0-20.9 21.01V110a20.96 20.96 0 0 0 20.9 21.01h20.5a1.46 1.46 0 0 1 1.25 2.2l-10.87 18.59a5.46 5.46 0 0 0 4.7 8.21h13.28c1.92 0 3.7-1.01 4.69-2.66l15.78-26.5c.5-.84.77-1.8.77-2.8V63.02a20.95 20.95 0 0 0-20.9-21.01h-29.2Zm-16.9 21.01c0-9.4 7.58-17.01 16.9-17.01h29.2c9.33 0 16.9 7.6 16.9 17.01v65.04c0 .26-.07.52-.2.74l-15.79 26.5c-.26.44-.74.71-1.25.71h-13.27a1.46 1.46 0 0 1-1.26-2.2l10.88-18.59a5.46 5.46 0 0 0-4.71-8.21h-20.5c-9.32 0-16.9-7.6-16.9-17.01V63Z"/></svg>