<svg aria-hidden="true" class="svg-spot spotQuoteXL" width="196" height="196" viewBox="0 0 196 196"><path opacity=".07" d="M44.4 24.96c30.26-14.46 79.53-28.15 117.92-4.58 33.74 20.7 38.39 115.6-.15 144.32-38.53 28.72-92.82 27.82-119.77 15.18C15.45 167.23-1.1 120.5 8.78 82.2c9.87-38.3 20.77-50.13 35.63-57.24z"/><path d="M30.76 69.93c0-10.5 8.46-19.02 18.9-19.02H78c10.43 0 18.9 8.52 18.9 19.02v66.1l-15.39 26.95a4 4 0 01-3.47 2.02H66a4 4 0 01-3.48-5.98l13.12-22.99H49.66a18.96 18.96 0 01-18.9-19.01v-47.1zm75.26 0c0-10.5 8.46-19.02 18.9-19.02h29.18c10.44 0 18.9 8.52 18.9 19.02v66.55l-15.87 26.57a4 4 0 01-3.44 1.95h-12.1a4 4 0 01-3.47-5.98l13.12-22.99h-26.33a18.96 18.96 0 01-18.9-19.01v-47.1z" opacity=".2"/><path d="M167 15a2 2 0 10-4 0v4h-4a2 2 0 100 4h4v4a2 2 0 104 0v-4h4a2 2 0 100-4h-4v-4zM55 16l4 4-4 4-4-4 4-4zm52.5 160l8.5 8.5-8.5 8.5-8.5-8.5 8.5-8.5zm-2.83 8.5l2.83 2.83 2.83-2.83-2.83-2.83-2.83 2.83zM42.9 42A20.96 20.96 0 0022 63.01V110c0 11.58 9.35 21 20.9 21h19.96a1.46 1.46 0 011.26 2.2l-10.88 18.59a5.46 5.46 0 004.71 8.21H71.2a5.46 5.46 0 004.72-2.71l15.4-26.48a5.4 5.4 0 00.74-2.74V63a20.95 20.95 0 00-20.9-21.01H42.9zM26 63.01C26 53.61 33.58 46 42.9 46h28.26c9.33 0 16.9 7.6 16.9 17.01v65.06c0 .25-.07.5-.2.73l-15.4 26.48c-.26.44-.74.72-1.26.72H57.95a1.46 1.46 0 01-1.26-2.2l10.88-18.59a5.46 5.46 0 00-4.71-8.21H42.9c-9.32 0-16.9-7.6-16.9-17.01V63zM117.96 42a20.96 20.96 0 00-20.9 21.01V110a20.96 20.96 0 0020.9 21.01h20.5a1.46 1.46 0 011.25 2.2l-10.87 18.59a5.46 5.46 0 004.7 8.21h13.28c1.92 0 3.7-1.01 4.69-2.66l15.78-26.5c.5-.84.77-1.8.77-2.8V63.02a20.95 20.95 0 00-20.9-21.01h-29.2zm-16.9 21.01c0-9.4 7.58-17.01 16.9-17.01h29.2c9.33 0 16.9 7.6 16.9 17.01v65.04c0 .26-.07.52-.2.74l-15.79 26.5c-.26.44-.74.71-1.25.71h-13.27a1.46 1.46 0 01-1.26-2.2l10.88-18.59a5.46 5.46 0 00-4.71-8.21h-20.5c-9.32 0-16.9-7.6-16.9-17.01V63z"/></svg>