<svg aria-hidden="true" class="svg-spot spotQuoteLg" width="96" height="96" viewBox="0 0 96 96"><path d="M10 31.79c0-6 4.68-10.85 10.63-10.85H36.8c5.95 0 10.2 4.86 10.2 10.85v37.95l-8 14.7A3 3 0 0 1 36.36 86h-5.14a3 3 0 0 1-2.6-4.5l6.63-11.44H20.5c-5.95 0-10.5-5.18-10.5-11.17V31.8Zm42.96 0c0-6 4.83-10.85 10.78-10.85h16.17C85.86 20.94 91 25.8 91 31.8v37.95l-8.87 14.8A3 3 0 0 1 79.55 86h-5.2a3 3 0 0 1-2.59-4.51l6.68-11.43h-14.7c-5.95 0-10.78-5.18-10.78-11.17V31.8Z" opacity=".2"/><path d="M4 27.34C4 20.54 9.49 15 16.28 15h15.44A12.3 12.3 0 0 1 44 27.34v37.32c0 .83-.2 1.65-.6 2.37l-7.31 13.44a4.96 4.96 0 0 1-4.36 2.59h-4.02a4.96 4.96 0 0 1-4.27-7.48l3.3-5.59a1.96 1.96 0 0 0-1.7-2.95h-8.76A12.31 12.31 0 0 1 4 54.7V27.34ZM16.28 18A9.31 9.31 0 0 0 7 27.34V54.7a9.31 9.31 0 0 0 9.28 9.34h8.77a4.96 4.96 0 0 1 4.27 7.48l-3.3 5.59a1.96 1.96 0 0 0 1.7 2.95h4.01c.72 0 1.38-.4 1.72-1.02l7.31-13.44c.16-.29.24-.61.24-.94V27.34A9.31 9.31 0 0 0 31.72 18H16.28ZM47 27.34C47 20.54 52.5 15 59.28 15l16.42.06a12.3 12.3 0 0 1 12.27 12.35v37.2a5 5 0 0 1-.7 2.56l-8.09 13.48a4.96 4.96 0 0 1-4.25 2.4H70.8a4.96 4.96 0 0 1-4.28-7.45l3.33-5.7a1.96 1.96 0 0 0-1.7-2.94L59.3 67A12.31 12.31 0 0 1 47 54.67V27.34ZM59.3 18a9.31 9.31 0 0 0-9.3 9.34v27.33A9.31 9.31 0 0 0 59.3 64l8.84-.05a4.96 4.96 0 0 1 4.3 7.45l-3.32 5.7a1.96 1.96 0 0 0 1.69 2.95h4.14c.69 0 1.33-.36 1.68-.95l8.09-13.49c.18-.3.27-.65.27-1V27.4a9.31 9.31 0 0 0-9.27-9.35L59.28 18Z"/></svg>