<svg aria-hidden="true" class="svg-spot spotQuote" width="48" height="48" viewBox="0 0 48 48"><path d="M5.01 14.71a5.64 5.64 0 015.62-5.65h8.75c3.1 0 5.62 2.53 5.62 5.65v19.8l-4.94 8.01a1 1 0 01-.85.48h-4.03a1 1 0 01-.86-1.5l4.04-6.99h-7.73a5.64 5.64 0 01-5.62-5.65V14.7zm22.99 0a5.61 5.61 0 015.6-5.65h7.72c3.1 0 5.63 2.53 5.63 5.65v19.8L43 42.44a1 1 0 01-.9.56h-4.02a1 1 0 01-.88-1.47l3.77-7.02h-7.38A5.61 5.61 0 0128 28.86V14.7z" opacity=".2"/><path d="M1 11.66A6.64 6.64 0 017.62 5h8.79a6.64 6.64 0 016.62 6.66v19.29a2.8 2.8 0 01-.42 1.47l-4.47 7.25A2.8 2.8 0 0115.75 41h-2.09a2.8 2.8 0 01-2.39-4.27l1.54-2.5a.8.8 0 00-.68-1.23h-4.5c-1.9 0-3.57-.94-4.73-2.27A7.59 7.59 0 011 25.8V11.66zM7.62 7A4.64 4.64 0 003 11.66V25.8c0 1.3.53 2.62 1.4 3.61A4.34 4.34 0 007.62 31h4.5a2.8 2.8 0 012.4 4.27l-1.54 2.5a.8.8 0 00.68 1.23h2.1a.8.8 0 00.68-.38l4.47-7.25a.8.8 0 00.12-.42v-19.3A4.64 4.64 0 0016.41 7H7.62zM24 11.66A6.64 6.64 0 0130.63 5h7.75A6.64 6.64 0 0145 11.66V31.5c0 .5-.14 1-.4 1.44l-3.96 6.69A2.8 2.8 0 0138.22 41h-2.07a2.8 2.8 0 01-2.39-4.27l1.54-2.5a.8.8 0 00-.68-1.23h-4c-1.9 0-3.55-.94-4.72-2.27A7.59 7.59 0 0124 25.8V11.66zM30.63 7A4.64 4.64 0 0026 11.66V25.8c0 1.3.53 2.62 1.4 3.61A4.34 4.34 0 0030.63 31h3.99A2.8 2.8 0 0137 35.27l-1.54 2.5a.8.8 0 00.68 1.23h2.07a.8.8 0 00.7-.4l3.97-6.68a.8.8 0 00.11-.42V11.66A4.64 4.64 0 0038.38 7h-7.76z"/></svg>