<svg aria-hidden="true" class="svg-spot spotRefresh" width="48" height="48" viewBox="0 0 48 48"><circle opacity=".2" cx="25.5" cy="27.5" r="17.5"/><path d="m41.28 10.01-1.63-.44a1 1 0 0 0-1.24.68 1 1 0 0 0 .71 1.22l3.89 1.07a.97.97 0 0 0 1.26-.86l.34-3.74a1 1 0 0 0-.91-1.08 1 1 0 0 0-1.1.89l-.05.59a14.45 14.45 0 0 0-7.04-5.48 1 1 0 0 0-.65 1.89c2.44.84 4.25 2.5 5.47 3.98.37.46.69.9.95 1.28ZM24 14a1 1 0 1 0-2 0v12.62l8.47 5.23a1 1 0 0 0 1.06-1.7L24 25.5V14Zm-.5-8a18.5 18.5 0 1 0 0 37 18.5 18.5 0 0 0 0-37ZM7 24.5a16.5 16.5 0 1 1 33 0 16.5 16.5 0 0 1-33 0ZM4.15 36.6a.98.98 0 0 0-.42.72l-.34 3.74a1 1 0 0 0 .91 1.08 1 1 0 0 0 1.1-.89l.05-.59a14.45 14.45 0 0 0 7.04 5.48 1 1 0 0 0 .65-1.89 12.46 12.46 0 0 1-5.47-3.98c-.37-.46-.69-.9-.95-1.28l1.63.44a1 1 0 0 0 1.24-.68 1 1 0 0 0-.71-1.22l-3.89-1.07c-.28-.08-.6-.03-.84.13Z"/></svg>