<svg aria-hidden="true" class="svg-spot spotRefreshXL" width="196" height="196" viewBox="0 0 196 196"><path opacity=".07" d="M167.97 20.55c11.15 5.8 14.77 26.52 21.95 72.65 7.18 46.13-26.66 76.83-55.93 88.85-29.27 12.02-92.85 15.26-119.69-21.95-26.84-37.21-3.66-107.15 10.46-123.35 14.1-16.2 16.26-33.28 68.47-30.84 52.2 2.45 57.5 5.68 74.74 14.64z"/><circle opacity=".2" cx="100.35" cy="100.35" r="63.09"/><path d="M159.57 45.78l-7.63-1.6a2 2 0 00-2.36 1.56 2 2 0 001.53 2.38l12.93 2.7a2.02 2.02 0 002.39-1.65l1.94-12.44a2 2 0 00-1.66-2.29 2 2 0 00-2.27 1.68l-1.25 7.97-.05-.1a59.48 59.48 0 00-5.78-9.52c-4.15-5.55-10.54-12.05-19.43-15.4a2 2 0 10-1.4 3.75c7.89 2.97 13.72 8.82 17.62 14.04a55.4 55.4 0 015.37 8.83l.05.1zM22 139.83a2.02 2.02 0 012.37-1.66l12.93 2.71a2 2 0 011.54 2.38 2 2 0 01-2.36 1.56l-7.63-1.6.04.1a55.46 55.46 0 005.37 8.83c3.9 5.21 9.74 11.06 17.63 14.03a2 2 0 01-1.4 3.75c-8.9-3.35-15.29-9.85-19.43-15.4a59.43 59.43 0 01-5.78-9.51l-.05-.1-1.25 7.96a2 2 0 01-2.28 1.68 2 2 0 01-1.65-2.3l1.94-12.43zM25 34a2 2 0 10-4 0v4h-4a2 2 0 100 4h4v4a2 2 0 104 0v-4h4a2 2 0 100-4h-4v-4zm159.37 103.72l-5.22-5.23-5.23 5.23 5.23 5.22 5.22-5.22zm-31.6 42.16l-8.89-8.88-8.88 8.88 8.88 8.9 8.9-8.9zm-8.89 2.97l-2.96-2.97 2.97-2.96 2.96 2.97-2.97 2.96zM96 54.5a2 2 0 00-4 0v43.6l31.1 19.5a2 2 0 002.13-3.38L96 95.89V54.5zM159 94a65 65 0 11-130 0 65 65 0 01130 0zm-4 0a61 61 0 10-122 0 61 61 0 00122 0z"/></svg>