<svg aria-hidden="true" class="svg-spot spotRefreshLg" width="96" height="96" viewBox="0 0 96 96"><circle opacity=".2" cx="52" cy="53" r="36"/><path d="m86 19.14-4.46-1a1.5 1.5 0 1 0-.65 2.92l8.02 1.8a1.5 1.5 0 0 0 1.81-1.25l1.1-7.67a1.5 1.5 0 0 0-2.98-.42l-.52 3.67a45.46 45.46 0 0 0-3-4.18c-2.9-3.61-7.27-7.85-12.92-9.92a1.5 1.5 0 0 0-1.03 2.82c4.92 1.8 8.86 5.56 11.62 8.98 1.3 1.6 2.3 3.11 3 4.25ZM49 25.5a1.5 1.5 0 0 0-3 0v25.69l17.73 10.6a1.5 1.5 0 1 0 1.54-2.58L49 49.5v-24ZM47.5 10a37.5 37.5 0 1 0 0 75 37.5 37.5 0 0 0 0-75ZM13 47.5a34.5 34.5 0 1 1 69 0 34.5 34.5 0 0 1-69 0ZM6.33 73.16a1.5 1.5 0 0 0-.2.12 1.5 1.5 0 0 0-.86 1.16l-1.11 7.74a1.5 1.5 0 0 0 1.26 1.7A1.5 1.5 0 0 0 7.1 82.6l.57-3.96a50.42 50.42 0 0 0 2.73 3.83c3.02 3.85 7.51 8.36 13.2 10.44a1.5 1.5 0 1 0 1.03-2.82c-4.92-1.8-8.98-5.79-11.87-9.47a47.4 47.4 0 0 1-2.6-3.66l4.21.94c.8.18 1.6-.34 1.79-1.15a1.5 1.5 0 0 0-1.13-1.8L8 73.38a1.5 1.5 0 0 0-1.67-.22Z"/></svg>