<svg aria-hidden="true" class="svg-spot spotRefreshXL" width="196" height="196" viewBox="0 0 196 196"><path opacity=".07" d="M189.92 93.2c-7.18-46.13-10.8-66.85-21.95-72.65l-.96-.5C150.5 11.47 144.45 8.32 93.23 5.9 49.55 3.87 40.9 15.5 30.99 28.83c-1.94 2.6-3.93 5.27-6.23 7.92-14.12 16.2-37.3 86.14-10.46 123.35 26.84 37.21 90.42 33.97 119.7 21.95 29.26-12.02 63.1-42.72 55.92-88.85ZM94 159a65 65 0 1 1 0-130 65 65 0 0 1 0 130Z"/><circle opacity=".2" cx="100.35" cy="100.35" r="63.09"/><path d="m159.57 45.78-7.63-1.6a2 2 0 0 0-2.36 1.56 2 2 0 0 0 1.53 2.38l12.93 2.7a2.02 2.02 0 0 0 2.39-1.65l1.94-12.44a2 2 0 0 0-1.66-2.29 2 2 0 0 0-2.27 1.68l-1.25 7.97-.05-.1a59.48 59.48 0 0 0-5.78-9.52c-4.15-5.55-10.54-12.05-19.43-15.4a2 2 0 1 0-1.4 3.75c7.89 2.97 13.72 8.82 17.62 14.04a55.4 55.4 0 0 1 5.37 8.83l.05.1ZM22 139.83a2.02 2.02 0 0 1 2.37-1.66l12.93 2.71a2 2 0 0 1 1.54 2.38 2 2 0 0 1-2.36 1.56l-7.63-1.6.04.1a55.46 55.46 0 0 0 5.37 8.83c3.9 5.21 9.74 11.06 17.63 14.03a2 2 0 0 1-1.4 3.75c-8.9-3.35-15.29-9.85-19.43-15.4a59.43 59.43 0 0 1-5.78-9.51l-.05-.1-1.25 7.96a2 2 0 0 1-2.28 1.68 2 2 0 0 1-1.65-2.3l1.94-12.43ZM25 34a2 2 0 1 0-4 0v4h-4a2 2 0 1 0 0 4h4v4a2 2 0 1 0 4 0v-4h4a2 2 0 1 0 0-4h-4v-4Zm159.37 103.72-5.22-5.23-5.23 5.23 5.23 5.22 5.22-5.22Zm-31.6 42.16-8.89-8.88-8.88 8.88 8.88 8.9 8.9-8.9Zm-8.89 2.97-2.96-2.97 2.97-2.96 2.96 2.97-2.97 2.96ZM96 54.5a2 2 0 0 0-4 0v43.6l31.1 19.5a2 2 0 0 0 2.13-3.38L96 95.89V54.5ZM159 94a65 65 0 1 1-130 0 65 65 0 0 1 130 0Zm-4 0a61 61 0 1 0-122 0 61 61 0 0 0 122 0Z"/></svg>