<svg aria-hidden="true" class="svg-spot spotReputationXL" width="196" height="196" viewBox="0 0 196 196"><path opacity=".07" d="M37 155c-50.15-41.67-22.6-81.31 0-113 25.19-35.31 77.5-35 115.5-3.5 36.84 36.84 48.4 53.07 8.43 111.5C134.54 188.57 76 187.4 37 155Z"/><path d="M125 38a2 2 0 0 1-2 2H75a2 2 0 1 1 0-4h48a2 2 0 0 1 2 2Zm31.78 12.66a2 2 0 0 1 1.06 2.62L151.18 69a2 2 0 1 1-3.68-1.56l6.66-15.71a2 2 0 0 1 2.62-1.06ZM101.71 87.1a2 2 0 0 1 1.79-1.1h18.6a2 2 0 1 1 0 4h-17.37l-6.2 12.33a2 2 0 1 1-3.57-1.8l6.75-13.43Zm-47.26 28.03a2 2 0 0 1 1.8-1.13h16.88a2 2 0 1 1 0 4H57.5l-14.7 30.37a2 2 0 0 1-3.6-1.74l15.25-31.5ZM71 79a2 2 0 1 0 0-4H41a2 2 0 1 0 0 4h30Zm9-23a2 2 0 0 1-2 2H56a2 2 0 1 1 0-4h22a2 2 0 0 1 2 2Zm13-2a2 2 0 1 0 0 4h12a2 2 0 1 0 0-4H93Zm-20 97c0-1.1.9-2 2-2h48a2 2 0 1 1 0 4H75a2 2 0 0 1-2-2Zm54-41a2 2 0 1 0 0 4h30a2 2 0 1 0 0-4h-30Zm-9 20c0-1.1.9-2 2-2h22a2 2 0 1 1 0 4h-22a2 2 0 0 1-2-2Zm-13 2a2 2 0 1 0 0-4H93a2 2 0 1 0 0 4h12Z" opacity=".2"/><path d="M156 37.5a5.5 5.5 0 0 1-5.1 5.49l-13.34 30.8a5.5 5.5 0 1 1-8.96 6.2h-28.2a5.5 5.5 0 0 1-5.35 3L85.75 101a5.5 5.5 0 1 1-9.15 6H54.4a5.5 5.5 0 0 1-5.32 2.97l-15.56 32.77a5.5 5.5 0 1 1-3.6-1.73l15.56-32.77a5.5 5.5 0 1 1 9.31-5.25h21.42a5.5 5.5 0 0 1 6.05-3.95l9.2-17.82A5.5 5.5 0 1 1 100.8 76h27.4a5.5 5.5 0 0 1 5.77-3.98l13.09-30.23A5.49 5.49 0 0 1 150.5 32a5.5 5.5 0 0 1 5.5 5.5ZM40.24 35l4.25 4.24-4.25 4.25L36 39.24 40.24 35Zm31.25 102.24L67.24 133 63 137.24l4.24 4.25 4.25-4.25ZM167.24 83l4.25 4.24-4.25 4.25-4.24-4.25 4.24-4.24Z"/></svg>