<svg aria-hidden="true" class="svg-spot spotReputationLg" width="96" height="96" viewBox="0 0 96 96"><path d="M70.67 13.19A2 2 0 0 1 72.5 12H85a2 2 0 1 1 0 4H73.8L63.26 39.81A2 2 0 0 1 61.43 41h-15.9l-5.88 11.89a2 2 0 0 1-1.8 1.11H23.79L11.8 79.84a2 2 0 1 1-3.62-1.68l12.5-27A2 2 0 0 1 22.5 50h14.12l5.87-11.89A2 2 0 0 1 44.3 37h15.84l10.54-23.81Z"/><path d="M75.67 20.2A2 2 0 0 1 77.5 19h6a2 2 0 1 1 0 4h-4.7L68.34 46.8A2 2 0 0 1 66.5 48H50.33l-4.99 11.78A2 2 0 0 1 43.5 61H28.28L19.3 80.34a2 2 0 1 1-3.62-1.68l9.5-20.5A2 2 0 0 1 27 57h15.17l4.99-11.78A2 2 0 0 1 49 44h16.2l10.47-23.8ZM56 25a2 2 0 0 1-2 2H13a2 2 0 1 1 0-4h41a2 2 0 0 1 2 2ZM33 37a2 2 0 1 0 0-4H13a2 2 0 1 0 0 4h20Zm2 32c0-1.1.9-2 2-2h44a2 2 0 1 1 0 4H37a2 2 0 0 1-2-2Zm23-12a2 2 0 1 0 0 4h23a2 2 0 1 0 0-4H58Zm15-8c0-1.1.9-2 2-2h6a2 2 0 1 1 0 4h-6a2 2 0 0 1-2-2Zm-60-6a2 2 0 1 0 0 4h6a2 2 0 1 0 0-4h-6Z" opacity=".2"/></svg>