<svg aria-hidden="true" class="svg-spot spotReputationLg" width="96" height="96" viewBox="0 0 96 96"><path d="M70.67 13.19A2 2 0 0172.5 12H85a2 2 0 110 4H73.8L63.26 39.81A2 2 0 0161.43 41h-15.9l-5.88 11.89a2 2 0 01-1.8 1.11H23.79L11.8 79.84a2 2 0 11-3.62-1.68l12.5-27A2 2 0 0122.5 50h14.12l5.87-11.89A2 2 0 0144.3 37h15.84l10.54-23.81z"/><path d="M75.67 20.2A2 2 0 0177.5 19h6a2 2 0 110 4h-4.7L68.34 46.8A2 2 0 0166.5 48H50.33l-4.99 11.78A2 2 0 0143.5 61H28.28L19.3 80.34a2 2 0 11-3.62-1.68l9.5-20.5A2 2 0 0127 57h15.17l4.99-11.78A2 2 0 0149 44h16.2l10.47-23.8zM56 25a2 2 0 01-2 2H13a2 2 0 110-4h41a2 2 0 012 2zM33 37a2 2 0 100-4H13a2 2 0 100 4h20zm2 32c0-1.1.9-2 2-2h44a2 2 0 110 4H37a2 2 0 01-2-2zm23-12a2 2 0 100 4h23a2 2 0 100-4H58zm15-8c0-1.1.9-2 2-2h6a2 2 0 110 4h-6a2 2 0 01-2-2zm-60-6a2 2 0 100 4h6a2 2 0 100-4h-6z" opacity=".2"/></svg>