<svg aria-hidden="true" class="svg-spot spotRocketXL" width="196" height="196" viewBox="0 0 196 196"><path opacity=".07" d="M12.97 115.18c14.2 42.34 20.95 61.3 32.4 64.97l.99.32c16.94 5.44 23.15 7.43 71.85 1.45 41.51-5.1 47.8-17.45 55-31.63 1.4-2.77 2.85-5.61 4.6-8.48 10.7-17.55 21.3-87.23-10-118C136.5-6.96 79.15 11.01 53.5 27.06 27.83 43.1-1.23 72.84 12.97 115.18zm76.29 18.22a3 3 0 01-3.77-.43l-2.04-2.04-3.62 3.61a3.1 3.1 0 01-4.36.02l-11.25-11.04a3.1 3.1 0 01-.07-4.35l3.68-3.86-2.04-2.04a3.01 3.01 0 01-.43-3.77c1.68-2.6 4.94-7.52 9.5-13.66l-4.36 5.15H53.81a3.1 3.1 0 01-2.4-5.06l8.88-10.9c.4-.48.93-.84 1.53-1.01L91.8 75.2c18.39-20.2 44.12-41.6 71.57-43.12 1.7-.1 3.1 1.3 3.01 3.01-1.56 28.64-24.47 55.35-45.24 73.89l-6.72 28.06a3.1 3.1 0 01-1.05 1.68l-10.25 8.38a3.1 3.1 0 01-5.06-2.4V129l9.34-8.57a260.58 260.58 0 01-18.14 12.97z"/><path d="M149.5 43.15a3 3 0 012.15-2.91c4-1.14 8.09-1.88 12.1-2.14 1.7-.1 3.1 1.29 3 3a58.72 58.72 0 01-2.17 12.31c-.34 1.19-1.38 2.07-2.6 2-6.4-.32-11.78-5.48-12.49-12.15v-.11zm-68.7 97.1l3.6-3.6-15.61-15.63-3.68 3.87a3.1 3.1 0 00.07 4.34l11.25 11.05a3.1 3.1 0 004.36-.03zm53.95-60.67a10.75 10.75 0 100-21.5 10.75 10.75 0 000 21.5zM123.5 90.83a10.75 10.75 0 11-21.5 0 10.75 10.75 0 0121.5 0z" opacity=".2"/><path d="M81.5 10l8.5 8.5-8.5 8.5-8.5-8.5 8.5-8.5zm-2.83 8.5l2.83 2.83 2.83-2.83-2.83-2.83-2.83 2.83zm54.51 57a10.75 10.75 0 100-21.5 10.75 10.75 0 000 21.5zm6.74-10.75a6.75 6.75 0 11-13.5 0 6.75 6.75 0 0113.5 0zm-18 22a10.75 10.75 0 11-21.5 0 10.75 10.75 0 0121.5 0zm-10.74 6.74a6.75 6.75 0 100-13.49 6.75 6.75 0 000 13.5zM91.06 73.05l-.14.04-29.7 9a5.1 5.1 0 00-2.47 1.67l-8.9 10.91a5.1 5.1 0 003.96 8.32H67.3a221.74 221.74 0 00-3.61 5.43 5.01 5.01 0 00.7 6.26l.65.66-2.33 2.45a5.1 5.1 0 00.12 7.16l4.46 4.38-.85.88a2 2 0 002.88 2.77l.82-.85 3.94 3.86a5.1 5.1 0 007.18-.03l2.2-2.2.62.62a5 5 0 006.27.7c1.35-.88 3.3-2.16 5.72-3.83v13.46c0 4.3 5 6.67 8.32 3.95l10.24-8.37a5.1 5.1 0 001.75-2.83l6.06-26.94c3.44-3.07 6.94-6.36 10.39-9.84 17.51-17.68 34.2-40.75 35.56-65.47a4.85 4.85 0 00-5.12-5.12c-24.61 1.36-47.6 18.13-65.24 35.7a222.86 222.86 0 00-6.96 7.26zm-14.19 60.09l-3.96-3.89 2.96-3.07 4.75 4.75-2.2 2.2a1.1 1.1 0 01-1.55 0zm-6.81-6.7l-4.44-4.34a1.1 1.1 0 01-.02-1.55l2.26-2.38 5.18 5.18-2.98 3.1zm25.88-21.05a2 2 0 00-2.88-2.78l-17.24 17.86-8.62-8.61c-.37-.37-.4-.9-.16-1.28 3.89-6.04 16.38-24.6 33.8-41.95 12.77-12.72 28-24.6 44.26-30.59a15.69 15.69 0 0015.38 15.33c-5.95 16.37-17.8 31.67-30.5 44.5-17.3 17.45-35.78 29.95-41.8 33.84a1 1 0 01-1.28-.16l-8.25-8.25 17.29-17.91zm53-68.64a61.23 61.23 0 0114.54-2.67c.52-.03.94.4.9.91a61.93 61.93 0 01-2.63 14.55 2 2 0 00-.78-.16A11.7 11.7 0 01149.1 37.5c0-.27-.05-.52-.15-.75zm-31.6 78.2l-4.88 21.64a1.1 1.1 0 01-.37.6l-10.24 8.37a1.1 1.1 0 01-1.8-.85V129c0-.18-.02-.36-.06-.53 4.88-3.5 10.9-8.08 17.35-13.53zM70.09 98.98H53.81a1.1 1.1 0 01-.85-1.8l8.9-10.9c.13-.18.32-.3.52-.36l23.59-7.16a280.52 280.52 0 00-15.88 20.22zM17 112l-5-5-5 5 5 5 5-5zm161 31a2 2 0 10-4 0v4h-4a2 2 0 100 4h4v4a2 2 0 104 0v-4h4a2 2 0 100-4h-4v-4zm-128.96 7.96a2 2 0 010 2.83L37.4 165.42a2 2 0 11-2.82-2.83l11.62-11.63a2 2 0 012.83 0zm13.66-10.95a2 2 0 00-2.82-2.83l-7.52 7.53a2 2 0 002.82 2.82l7.52-7.52zm-9.68-4.85a2 2 0 010 2.83l-11.57 11.57a2 2 0 01-2.83-2.83l11.57-11.57a2 2 0 012.83 0zM63.5 150.9a2 2 0 10-2.82-2.83l-7.53 7.53a2 2 0 102.83 2.82l7.52-7.52z"/></svg>