<svg aria-hidden="true" class="svg-spot spotRocket" width="48" height="48" viewBox="0 0 48 48"><path d="M41 6.72c0-.43.28-.82.7-.94 1.42-.4 2.87-.66 4.3-.75.55-.03 1 .42.97.97a20.1 20.1 0 0 1-.77 4.35.86.86 0 0 1-.84.65A4.65 4.65 0 0 1 41 6.8v-.09ZM19.78 39.33 21 38.1l-5-4.61-1.18 1.24a1 1 0 0 0 .05 1.43l3.53 3.2a1 1 0 0 0 1.38-.04ZM37 17.86a3 3 0 1 0 0-6 3 3 0 0 0 0 6ZM33 22a3 3 0 1 1-6 0 3 3 0 0 1 6 0Z" opacity=".2"/><path d="M38 13a3 3 0 1 1-6 0 3 3 0 0 1 6 0Zm-3 1a1 1 0 1 0 0-2 1 1 0 0 0 0 2Zm-7 9a3 3 0 1 0 0-6 3 3 0 0 0 0 6Zm1-3a1 1 0 1 1-2 0 1 1 0 0 1 2 0ZM14.02 36.52l1.11 1.06c.77.73 1.99.72 2.74-.04l1.96-1.95c.57.24 1.25.2 1.8-.15l1.37-.9v3.54c0 1.62 1.95 2.53 3.25 1.55l3.71-2.81c.34-.26.59-.61.7-1.01l2.8-9.53.02-.1a46.8 46.8 0 0 0 1.9-1.84c5.68-5.7 11.16-13.22 11.6-21.32a1.89 1.89 0 0 0-2-2c-8.08.44-15.6 5.93-21.3 11.6-.63.63-1.25 1.26-1.84 1.9a1 1 0 0 0-.15.03l-9.51 3.1c-.37.12-.7.34-.93.65l-2.8 3.52A1.96 1.96 0 0 0 10 25h3.49l-.92 1.38c-.5.78-.37 1.78.26 2.41l-1.93 2.12c-.71.79-.67 2 .1 2.74L12.41 35l-.23.26a1.1 1.1 0 1 0 1.64 1.48l.2-.22ZM44.97 3.03a19.27 19.27 0 0 1-.69 4.01A1 1 0 0 0 44 7c-1.7 0-3-1.3-3-3a1 1 0 0 0-.04-.28 19.2 19.2 0 0 1 4-.69Zm-19.88 11c4.05-4.02 8.83-7.75 13.92-9.67A4.94 4.94 0 0 0 43.65 9c-1.92 5.1-5.65 9.9-9.68 13.94a84.65 84.65 0 0 1-13.37 10.8l-2.13-2.12 4.85-5.37a1.1 1.1 0 0 0-1.64-1.48l-4.78 5.28-2.63-2.62A85.08 85.08 0 0 1 25.1 14.04Zm-9.53 17.5-1.8 1.98-1.36-1.28 1.84-2.02 1.32 1.31Zm-.2 3.51 1.77-1.95 1.18 1.18-1.83 1.83-1.12-1.06Zm9.64-1.9a90.42 90.42 0 0 0 5.67-4.44l-1.92 6.53L25 38v-4.86Zm-5.78-15.68A90.94 90.94 0 0 0 14.88 23h-4.81l2.74-3.45 6.41-2.1ZM6.7 42.3a1 1 0 0 1 0 1.4l-4 4a1 1 0 0 1-1.4-1.4l4-4a1 1 0 0 1 1.4 0Zm5-3.6a1 1 0 0 0-1.4-1.4l-2 2a1 1 0 1 0 1.4 1.4l2-2Zm-5-2.4a1 1 0 0 1 0 1.4l-4 4a1 1 0 0 1-1.4-1.4l4-4a1 1 0 0 1 1.4 0Zm6 7.4a1 1 0 0 0-1.4-1.4l-3 3a1 1 0 1 0 1.4 1.4l3-3Z"/></svg>