<svg aria-hidden="true" class="svg-spot spotRocketLg" width="96" height="96" viewBox="0 0 96 96"><path d="M78.2 14.36a1.73 1.73 0 0 1 1.27-1.85 37.5 37.5 0 0 1 7.66-1.5c1.09-.09 1.98.8 1.9 1.89-.21 2.6-.79 5.19-1.56 7.8a1.71 1.71 0 0 1-1.66 1.28c-4.27-.16-7.08-3.56-7.62-7.62ZM34.55 77.77l3.55-2.84-10-11-3.36 2.69c-.89.7-1 2.02-.23 2.86l7.34 8.08c.7.77 1.88.86 2.7.21ZM70.1 37.93a7 7 0 1 0 0-14 7 7 0 0 0 0 14Zm-7 7a7 7 0 1 1-14 0 7 7 0 0 1 14 0Z" opacity=".2"/><path d="M75.5 27a7 7 0 1 1-14 0 7 7 0 0 1 14 0Zm-7 4a4 4 0 1 0 0-8 4 4 0 0 0 0 8Zm-14 17a7 7 0 1 0 0-14 7 7 0 0 0 0 14Zm4-7a4 4 0 1 1-8 0 4 4 0 0 1 8 0ZM27.21 70.41l2.93 3.23a3.47 3.47 0 0 0 4.74.37l2.82-2.25c.95.34 2.03.25 2.95-.33.8-.51 1.95-1.26 3.35-2.2v8.29c0 3.02 3.6 4.6 5.82 2.56l8.25-7.56a3.5 3.5 0 0 0 1.03-1.77l3.84-16.33c1.7-1.53 3.4-3.13 5.08-4.8 11.26-11.2 22.04-25.83 22.92-41.56a3.32 3.32 0 0 0-3.5-3.5c-15.71.86-30.38 11.47-41.59 22.54a161.7 161.7 0 0 0-5.19 5.4 1.5 1.5 0 0 0-.54.05l-18.35 4.83c-.74.2-1.4.63-1.87 1.25l-5.18 6.8A3.47 3.47 0 0 0 17.48 51H26c-.83 1.21-1.5 2.2-1.95 2.92a3.42 3.42 0 0 0 .38 4.2l.4.43-2.06 2.06a3.47 3.47 0 0 0-.11 4.79l2.53 2.79-.75.75a1.5 1.5 0 0 0 2.12 2.12l.65-.65ZM87.95 7.9c-.17 2.9-.7 5.78-1.53 8.61a9.21 9.21 0 0 1-5.8-2.27 7.13 7.13 0 0 1-2.6-4.88 39.23 39.23 0 0 1 9.59-1.8c.2 0 .35.15.34.34ZM47.96 29.24c7.87-7.77 17.2-15.02 27.15-18.87a10.32 10.32 0 0 0 3.54 6.13 12.33 12.33 0 0 0 6.8 2.95c-3.8 10.29-11.39 19.93-19.54 28.03A169.1 169.1 0 0 1 39.04 68.9c-.15.1-.37.08-.53-.09l-4.68-5.02 10.73-10.73a1.5 1.5 0 0 0-2.12-2.12L31.78 61.6l-5.16-5.53a.42.42 0 0 1-.06-.52 167.03 167.03 0 0 1 21.4-26.31Zm-18.3 34.48-2.35 2.35-2.43-2.69a.47.47 0 0 1 .01-.65l1.99-1.99 2.78 2.98Zm-.33 4.57 2.37-2.37 3.64 3.89L33 71.67a.47.47 0 0 1-.65-.05l-3.03-3.33ZM47 67.15c3.38-2.4 7.6-5.56 12.06-9.34l-2.88 12.25a.47.47 0 0 1-.14.24l-8.25 7.56a.47.47 0 0 1-.79-.34V67.15Zm-9.8-30.73A177.28 177.28 0 0 0 28.11 48H17.48a.47.47 0 0 1-.37-.76l5.17-6.8a.47.47 0 0 1 .26-.16l14.67-3.86ZM14.06 81.44a1.5 1.5 0 0 1 0 2.12l-7 7a1.5 1.5 0 0 1-2.12-2.12l7-7a1.5 1.5 0 0 1 2.12 0Zm9-6.88a1.5 1.5 0 0 0-2.12-2.12l-5 5a1.5 1.5 0 0 0 2.12 2.12l5-5Zm-7-4.12a1.5 1.5 0 0 1 0 2.12l-7 7a1.5 1.5 0 0 1-2.12-2.12l7-7a1.5 1.5 0 0 1 2.12 0Zm9 12.12a1.5 1.5 0 0 0-2.12-2.12l-5 5a1.5 1.5 0 0 0 2.12 2.12l5-5Z"/></svg>