<svg aria-hidden="true" class="svg-spot spotSchoolXL" width="196" height="196" viewBox="0 0 196 196"><path opacity=".07" d="M20.62 145.64C8.8 114.26-.61 64 26.18 27.77 49.7-4.07 144.64-.54 169.95 40.3c25.3 40.86 19.75 94.88 4.84 120.64-14.92 25.77-62.9 38.24-100.21 25.1-37.32-13.12-48.16-25-53.96-40.41z"/><path d="M92.97 45.15L26.44 72.3a1.33 1.33 0 00-.05 2.44l66.49 30.09c.35.16.76.15 1.11-.01l68.05-32c1.06-.5 1-2.04-.1-2.45l-68-25.23a1.33 1.33 0 00-.97.01zm-1.6 111.99l-54.66-28.8a1.32 1.32 0 01-.71-1.17v-30.5c0-.99 1.05-1.63 1.94-1.17l52.03 26.83c.38.2.83.2 1.21 0l61.9-31.35c.88-.45 1.92.2 1.92 1.18v30.02c0 .49-.26.93-.69 1.17l-61.68 33.78c-.4.21-.87.21-1.26 0zm77.2-26.58l-7.22 20.7a1.6 1.6 0 001.79 2.1l13.47-2.42a1.6 1.6 0 001.23-2.08l-6.26-18.3a1.6 1.6 0 00-3 0z" opacity=".2"/><path d="M38 13a2 2 0 012 2v4h4a2 2 0 110 4h-4v4a2 2 0 11-4 0v-4h-4a2 2 0 110-4h4v-4c0-1.1.9-2 2-2zm52.89 27.14L26.1 66.01l64.74 29.3 55.75-25.66a2 2 0 111.67 3.64L92.25 99.06c-.88.4-1.89.41-2.77.01L23.02 69a3.33 3.33 0 01.14-6.12l66.48-26.55c.77-.3 1.62-.31 2.4-.03l73.82 27.4a3.33 3.33 0 012.17 3.11v41.85a2 2 0 11-4 0V67.28L90.9 40.14zM28 86.62a3.33 3.33 0 014.8-3L90.55 112l55.61-28.31a3.33 3.33 0 014.84 2.96v30.51c0 1.22-.67 2.35-1.75 2.93l-57.12 30.9c-.97.52-2.14.53-3.12.02L29.8 120.1a3.33 3.33 0 01-1.79-2.95V86.62zm4 1.08v29.04l58.55 30.56L147 116.76V87.75l-54.94 27.97c-.93.47-2.03.48-2.98.02L32 87.7zm137.76 34.31a3.6 3.6 0 00-6.8-.02l-7.22 20.71a3.6 3.6 0 004.03 4.72l13.47-2.41a3.6 3.6 0 002.77-4.7l-6.25-18.3zm-10.01 21.35l6.6-18.94 5.72 16.73-12.32 2.21zM56 167.5l-8.5-8.5-8.5 8.5 8.5 8.5 8.5-8.5zm-8.5 2.83l-2.83-2.83 2.83-2.83 2.83 2.83-2.83 2.83z"/></svg>