<svg aria-hidden="true" class="svg-spot spotSchoolXL" width="196" height="196" viewBox="0 0 196 196"><path opacity=".07" d="M26.18 27.77C-.61 64 8.8 114.26 20.62 145.64c5.8 15.42 16.64 27.29 53.96 40.42 37.32 13.13 85.3.66 100.2-25.1 14.92-25.77 20.47-79.79-4.83-120.65C144.65-.54 49.7-4.07 26.18 27.77Zm6.62 55.86L90.55 112l55.61-28.31a3.33 3.33 0 0 1 4.84 2.96v30.51c0 1.22-.67 2.35-1.75 2.93l-57.12 30.9c-.97.52-2.14.53-3.12.02L29.8 120.1a3.33 3.33 0 0 1-1.79-2.95V86.62a3.33 3.33 0 0 1 4.8-3Z"/><path d="M92.97 45.15 26.44 72.3a1.33 1.33 0 0 0-.05 2.44l66.49 30.09c.35.16.76.15 1.11-.01l68.05-32c1.06-.5 1-2.04-.1-2.45l-68-25.23a1.33 1.33 0 0 0-.97.01Zm-1.6 111.99-54.66-28.8a1.32 1.32 0 0 1-.71-1.17v-30.5c0-.99 1.05-1.63 1.94-1.17l52.03 26.83c.38.2.83.2 1.21 0l61.9-31.35c.88-.45 1.92.2 1.92 1.18v30.02c0 .49-.26.93-.69 1.17l-61.68 33.78c-.4.21-.87.21-1.26 0Zm77.2-26.58-7.22 20.7a1.6 1.6 0 0 0 1.79 2.1l13.47-2.42a1.6 1.6 0 0 0 1.23-2.08l-6.26-18.3a1.6 1.6 0 0 0-3 0Z" opacity=".2"/><path d="M38 13a2 2 0 0 1 2 2v4h4a2 2 0 1 1 0 4h-4v4a2 2 0 1 1-4 0v-4h-4a2 2 0 1 1 0-4h4v-4c0-1.1.9-2 2-2Zm52.89 27.14L26.1 66.01l64.74 29.3 55.75-25.66a2 2 0 1 1 1.67 3.64L92.25 99.06c-.88.4-1.89.41-2.77.01L23.02 69a3.33 3.33 0 0 1 .14-6.12l66.48-26.55c.77-.3 1.62-.31 2.4-.03l73.82 27.4a3.33 3.33 0 0 1 2.17 3.11v41.85a2 2 0 1 1-4 0V67.28L90.9 40.14ZM28 86.62a3.33 3.33 0 0 1 4.8-3L90.55 112l55.61-28.31a3.33 3.33 0 0 1 4.84 2.96v30.51c0 1.22-.67 2.35-1.75 2.93l-57.12 30.9c-.97.52-2.14.53-3.12.02L29.8 120.1a3.33 3.33 0 0 1-1.79-2.95V86.62Zm4 1.08v29.04l58.55 30.56L147 116.76V87.75l-54.94 27.97c-.93.47-2.03.48-2.98.02L32 87.7Zm137.76 34.31a3.6 3.6 0 0 0-6.8-.02l-7.22 20.71a3.6 3.6 0 0 0 4.03 4.72l13.47-2.41a3.6 3.6 0 0 0 2.77-4.7l-6.25-18.3Zm-10.01 21.35 6.6-18.94 5.72 16.73-12.32 2.21ZM56 167.5l-8.5-8.5-8.5 8.5 8.5 8.5 8.5-8.5Zm-8.5 2.83-2.83-2.83 2.83-2.83 2.83 2.83-2.83 2.83Z"/></svg>