<svg aria-hidden="true" class="svg-spot spotSchoolLg" width="96" height="96" viewBox="0 0 96 96"><path d="m44.84 17.3-38 15.16a.76.76 0 0 0-.03 1.4L44.8 51.04c.2.1.43.1.63 0l32.02-14.73 6.86-3.2a.76.76 0 0 0-.06-1.4L45.38 17.29a.76.76 0 0 0-.54 0Zm-2.15 64.52L11.4 65.72a.76.76 0 0 1-.41-.68V47.73c0-.57.6-.93 1.1-.68l30.6 15.28c.21.1.47.1.69-.01L75.32 45.4a.76.76 0 0 1 1.12.67V63.5c0 .27-.16.53-.4.66L43.4 81.81a.76.76 0 0 1-.71 0ZM86.33 66.9 82.2 78.71a.91.91 0 0 0 1.02 1.2l7.7-1.38c.55-.1.88-.66.7-1.2L88.05 66.9a.91.91 0 0 0-1.72 0Z" opacity=".2"/><path d="M42.44 15.6 6.33 30.03l36.08 16.33 31.71-14.59a1.5 1.5 0 1 1 1.26 2.73L43.36 49.22c-.6.27-1.28.27-1.87 0L3.5 32.04a2.26 2.26 0 0 1 .09-4.16l38-15.16c.51-.21 1.1-.22 1.62-.02l42.3 15.71A2.26 2.26 0 0 1 87 30.53V54.5a1.5 1.5 0 0 1-3 0V31.04L42.44 15.61ZM6 41.78a2.26 2.26 0 0 1 3.25-2.03L42.1 55.9l31.62-16.1c1.5-.77 3.28.32 3.28 2.01v17.44c0 .82-.45 1.59-1.18 1.98L43.18 78.88c-.66.35-1.46.36-2.12.01L7.2 61.23a2.26 2.26 0 0 1-1.21-2V41.78Zm3 1.2v15.8l33.1 17.27L74 58.8V43.01L43.13 58.73c-.64.32-1.39.33-2.02.01L9 42.97Zm78.78 18.49a2.41 2.41 0 0 0-4.56-.01L79.1 73.29a2.4 2.4 0 0 0 2.7 3.17l7.7-1.38a2.41 2.41 0 0 0 1.85-3.15l-3.57-10.46Zm-5.52 11.86 3.23-9.27 2.8 8.19-6.03 1.08Z"/></svg>