<svg aria-hidden="true" class="svg-spot spotSchool" width="48" height="48" viewBox="0 0 48 48"><path d="M23.16 9.55 5.28 16.7c-.3.12-.3.53-.02.66l17.88 8.08c.1.05.2.05.3 0L38.5 18.5l3.23-1.51a.36.36 0 0 0-.03-.66L23.41 9.55a.36.36 0 0 0-.25 0Zm-1.54 31.36L5.69 32.6a.36.36 0 0 1-.19-.32v-8.2c0-.27.28-.44.51-.33l15.62 7.67c.1.05.21.05.32 0l15.03-7.66c.24-.12.52.06.52.32v8.2c0 .14-.07.26-.19.32l-15.36 8.31a.36.36 0 0 1-.33 0Zm20.52-6.46-1.08 3.09a1 1 0 0 0 1.12 1.3l2-.35a1 1 0 0 0 .78-1.3l-.93-2.73a1 1 0 0 0-1.9 0Z" opacity=".2"/><path d="M21.01 9.07 5.02 15.56 21 22.9l14.58-6.8a1 1 0 1 1 .84 1.8l-14.85 6.94c-.36.16-.78.17-1.14 0l-17.6-8.09a1.36 1.36 0 0 1 .06-2.49l17.6-7.13c.32-.13.67-.14 1-.02l19.63 7.37c.53.2.88.7.88 1.27V27a1 1 0 1 1-2 0V16.2L21.01 9.06ZM4 21.07c0-1 1.05-1.66 1.96-1.21l15.32 7.52 14.75-7.5c.9-.47 1.97.19 1.97 1.2v8.2c0 .5-.27.96-.71 1.2l-15.36 8.3c-.4.22-.88.23-1.28.02L4.73 30.49c-.45-.24-.73-.7-.73-1.2v-8.22Zm2 1.04v6.78l15.28 7.98L36 28.9v-6.77l-14.1 7.18c-.38.2-.83.2-1.22 0L6 22.12Zm36.44 8.33a1.43 1.43 0 0 0-2.7 0L37.8 36a1.43 1.43 0 0 0 1.6 1.88l3.62-.65a1.43 1.43 0 0 0 1.1-1.87l-1.68-4.92ZM40 35.74l1.07-3.08.93 2.72-2 .36Z"/></svg>