<svg aria-hidden="true" class="svg-spot spotSearch" width="48" height="48" viewBox="0 0 48 48"><path opacity=".2" d="M22.5 40a17.5 17.5 0 100-35 17.5 17.5 0 000 35z"/><path d="M19.5 6a1 1 0 100 2c.63 0 1.24.05 1.84.15a1 1 0 00.32-1.98A13.6 13.6 0 0019.5 6zm7.02 1.97a1 1 0 10-1.04 1.7 11.5 11.5 0 015.44 8.45 1 1 0 001.98-.24 13.5 13.5 0 00-6.38-9.91zM19.5 1a18.5 18.5 0 1010.76 33.55c.16.57.46 1.12.9 1.57L41 45.94A3.5 3.5 0 1045.94 41l-9.82-9.82c-.45-.45-1-.75-1.57-.9A18.5 18.5 0 0019.5 1zM3 19.5a16.5 16.5 0 1133 0 16.5 16.5 0 01-33 0zm29.58 15.2a1.5 1.5 0 112.12-2.12l9.83 9.83a1.5 1.5 0 11-2.12 2.12l-9.83-9.83z"/></svg>