<svg aria-hidden="true" class="svg-spot spotSearchLg" width="96" height="96" viewBox="0 0 96 96"><circle opacity=".2" cx="41.5" cy="43.5" r="35.5"/><path d="M52.17 14.27a1.5 1.5 0 00-1.5 2.6A25.5 25.5 0 0163 33.97a1.5 1.5 0 102.94-.59 28.5 28.5 0 00-13.77-19.1zM36.64 12c0-.84.67-1.5 1.5-1.5 1.8 0 3.59.19 5.35.53a1.5 1.5 0 11-.58 2.95 25.5 25.5 0 00-4.78-.48 1.5 1.5 0 01-1.5-1.5zM38 2.5a36.5 36.5 0 1022.3 65.4 6.47 6.47 0 001.9 4.48l19.15 19.15a6.5 6.5 0 009.18-9.18L71.38 63.2a6.47 6.47 0 00-4.48-1.9A36.5 36.5 0 0038 2.5zM4.5 39a33.5 33.5 0 1167 0 33.5 33.5 0 01-67 0zm59.83 31.26a3.5 3.5 0 014.93-4.93l19.15 19.14a3.5 3.5 0 11-4.94 4.94L64.33 70.26z"/></svg>