<svg aria-hidden="true" class="svg-spot spotSearchMd" width="48" height="48" viewBox="0 0 48 48"><path opacity=".5" d="M18.5 7a1 1 0 011-1c.73 0 1.46.06 2.16.17a1 1 0 01-.32 1.98c-.6-.1-1.21-.15-1.84-.15a1 1 0 01-1-1zm6.65 1.3a1 1 0 011.37-.33 13.5 13.5 0 016.38 9.91 1 1 0 11-1.98.24 11.5 11.5 0 00-5.44-8.45 1 1 0 01-.33-1.37z"/><path d="M19.5 1a18.5 18.5 0 1010.76 33.55c.16.57.46 1.12.9 1.57L41 45.94A3.5 3.5 0 1045.94 41l-9.82-9.82c-.45-.45-1-.75-1.57-.9A18.5 18.5 0 0019.5 1zM3 19.5a16.5 16.5 0 1133 0 16.5 16.5 0 01-33 0zm29.58 15.2a1.5 1.5 0 112.12-2.12l9.83 9.83a1.5 1.5 0 11-2.12 2.12l-9.83-9.83z"/></svg>