<svg aria-hidden="true" class="svg-spot spotSearchXL" width="196" height="196" viewBox="0 0 196 196"><path opacity=".07" d="m55.41 170.17.46.1c9.7 2.16 19.77 2.02 33.05 1.85 10.7-.15 23.5-.32 39.87.66 34.52 2.07 38.6-10.52 50.68-47.88l2.37-7.3c12.98-39.75-16.25-63.4-46.65-88.02-2.52-2.04-5.05-4.08-7.56-6.14C100.6 1.26 67.48 16.53 47 25.97c-4.4 2.03-8.22 3.79-11.26 4.85-17.22 5.99-21.31 22.36-24.57 76.8-3.16 52.75 38.3 61.32 44.24 62.55ZM87 34a52 52 0 0 1 41.47 83.37 9.03 9.03 0 0 1 5.32 2.6l27.12 27.12a9.07 9.07 0 1 1-12.82 12.82l-27.13-27.12a9.03 9.03 0 0 1-2.59-5.31A52 52 0 1 1 87 34Z"/><path opacity=".2" d="M118.75 137.25a7.52 7.52 0 0 1 10.64-10.63L156 153.23a7.52 7.52 0 0 1-10.63 10.64l-26.62-26.62Z"/><path d="M39 18a2 2 0 0 1 2 2v4h4a2 2 0 1 1 0 4h-4v4a2 2 0 1 1-4 0v-4h-4a2 2 0 1 1 0-4h4v-4c0-1.1.9-2 2-2Zm-5.61 131.75 8.48 8.48-8.48 8.49-8.49-8.49 8.49-8.48Zm-2.83 8.48 2.83 2.83 2.83-2.83-2.83-2.82-2.83 2.82Zm138.39-61.19-4.24-4.24-4.25 4.24 4.25 4.25 4.24-4.25ZM106.88 51.3a2 2 0 0 0-1.98 3.46 35.99 35.99 0 0 1 17.4 24.15 2 2 0 0 0 3.92-.8 40 40 0 0 0-19.34-26.82Zm-21.69-3.31c0-1.1.9-2 2.01-1.99a40 40 0 0 1 7.5.75 2 2 0 1 1-.76 3.92 36 36 0 0 0-6.76-.67 2 2 0 0 1-1.99-2ZM35 86a52 52 0 1 1 93.47 31.37 9.03 9.03 0 0 1 5.32 2.6l27.12 27.12a9.07 9.07 0 1 1-12.82 12.82l-27.13-27.12a9.03 9.03 0 0 1-2.59-5.31A52 52 0 0 1 35 86Zm52-48a48 48 0 1 0 0 96 48 48 0 0 0 0-96Zm36.79 91.96 27.12 27.13a5.07 5.07 0 0 0 7.18-7.18l-27.13-27.12a5.07 5.07 0 0 0-7.17 7.17Z"/></svg>