<svg aria-hidden="true" class="svg-spot spotSearch" width="48" height="48" viewBox="0 0 48 48"><path opacity=".2" d="M21.5 40a17.5 17.5 0 100-35 17.5 17.5 0 000 35z"/><path d="M27.5 23a1.5 1.5 0 100-3 1.5 1.5 0 000 3zm1.5 4.5a1.5 1.5 0 11-3 0 1.5 1.5 0 013 0zM21.5 29a1.5 1.5 0 100-3 1.5 1.5 0 000 3zM1 19.5a18.5 18.5 0 1133.55 10.76c.57.16 1.12.46 1.57.9L45.94 41A3.5 3.5 0 0141 45.94l-9.82-9.82c-.45-.45-.75-1-.9-1.57A18.5 18.5 0 011 19.5zM19.5 3a16.5 16.5 0 100 33 16.5 16.5 0 000-33zm13.08 29.58a1.5 1.5 0 000 2.12l9.83 9.83a1.5 1.5 0 102.12-2.12l-9.83-9.83a1.5 1.5 0 00-2.12 0z"/></svg>