<svg width="48" height="48" viewBox="0 0 48 48" fill="none"><path opacity=".5" d="M19.5 7a12 12 0 0 1 2 .16M31.91 18A12.5 12.5 0 0 0 26 8.82" stroke="#000" stroke-width="2" stroke-linecap="round" stroke-linejoin="round"/><path d="M19.5 1a18.5 18.5 0 1 0 10.7 33.6c.16.51.45 1 .86 1.41l9.82 9.82a3.5 3.5 0 1 0 4.95-4.95l-9.82-9.82c-.41-.41-.9-.7-1.42-.86A18.5 18.5 0 0 0 19.5 1zm12.63 32.02l.9-.9a1.5 1.5 0 0 1 1.57.35l9.82 9.83a1.5 1.5 0 1 1-2.12 2.12l-9.83-9.82a1.5 1.5 0 0 1-.34-1.58zm-.32-2.53a16.5 16.5 0 1 0-1.31 1.31 3.5 3.5 0 0 1 1.3-1.3z"/></svg>