<svg aria-hidden="true" class="svg-spot spotSearchMd" width="48" height="48" viewBox="0 0 48 48"><path opacity=".5" d="M18.5 7a1 1 0 0 1 1-1c.73 0 1.46.06 2.16.17a1 1 0 0 1-.32 1.98c-.6-.1-1.21-.15-1.84-.15a1 1 0 0 1-1-1zm6.65 1.3a1 1 0 0 1 1.37-.33 13.5 13.5 0 0 1 6.38 9.91 1 1 0 1 1-1.98.24 11.5 11.5 0 0 0-5.44-8.45 1 1 0 0 1-.33-1.37z"/><path d="M19.5 1a18.5 18.5 0 1 0 10.76 33.55c.16.57.46 1.12.9 1.57L41 45.94A3.5 3.5 0 1 0 45.94 41l-9.82-9.82c-.45-.45-1-.75-1.57-.9A18.5 18.5 0 0 0 19.5 1zM3 19.5a16.5 16.5 0 1 1 33 0 16.5 16.5 0 0 1-33 0zm29.58 15.2a1.5 1.5 0 1 1 2.12-2.12l9.83 9.83a1.5 1.5 0 1 1-2.12 2.12l-9.83-9.83z"/></svg>