<svg aria-hidden="true" class="svg-spot spotSearchXL" width="196" height="196" viewBox="0 0 196 196"><path opacity=".07" d="M55.87 170.27c-3.68-.82-47.96-8.2-44.7-62.64 3.26-54.45 7.35-70.82 24.57-76.81 17.2-5.99 59.05-34.33 91.89-7.38 32.83 26.95 68.27 51.12 54.2 94.15-14.06 43.04-16.36 57.4-53.04 55.2-36.69-2.2-55.4 1.38-72.92-2.52z"/><circle opacity=".2" cx="92" cy="92" r="50"/><path d="M39 18a2 2 0 012 2v4h4a2 2 0 110 4h-4v4a2 2 0 11-4 0v-4h-4a2 2 0 110-4h4v-4c0-1.1.9-2 2-2zm-5.61 131.75l8.48 8.48-8.48 8.49-8.49-8.49 8.49-8.48zm-2.83 8.48l2.83 2.83 2.83-2.83-2.83-2.82-2.83 2.82zm138.39-61.19l-4.24-4.24-4.25 4.24 4.25 4.25 4.24-4.25zM106.88 51.3a2 2 0 00-1.98 3.46 35.99 35.99 0 0117.4 24.15 2 2 0 003.92-.8 40 40 0 00-19.34-26.82zm-21.69-3.31c0-1.1.9-2 2.01-1.99a40 40 0 017.5.75 2 2 0 11-.76 3.92 36 36 0 00-6.76-.67 2 2 0 01-1.99-2zM35 86a52 52 0 1193.47 31.37 9.03 9.03 0 015.32 2.6l27.12 27.12a9.07 9.07 0 11-12.82 12.82l-27.13-27.12a9.03 9.03 0 01-2.59-5.31A52 52 0 0135 86zm52-48a48 48 0 100 96 48 48 0 000-96zm36.79 91.96l27.12 27.13a5.07 5.07 0 007.18-7.18l-27.13-27.12a5.07 5.07 0 00-7.17 7.17z"/></svg>