<svg width="48" height="48" viewBox="0 0 48 48" fill="none"><path d="M7.2 9.76A2 2 0 0 0 6 11.6v10.18a1 1 0 1 1-2 0V11.6a4 4 0 0 1 2.44-3.7l17.19-6.84a1 1 0 0 1 .74 0l17.21 6.86A4 4 0 0 1 44 11.6v1.68a1 1 0 1 1-2 0V11.6a2 2 0 0 0-1.18-1.83L24 3.07 7.2 9.78zM4.38 27.84a1 1 0 1 1 1.96-.4c1.01 4.99 4 9.46 8.2 12.92C17.96 43.18 21.89 45 24 45c2.38 0 6.96-2.3 10.63-5.67C39.23 35.1 42 29.82 42 24.06v-4.89a1 1 0 0 1 2 0v4.89c0 6.37-3.03 12.16-8.01 16.74-4 3.68-9.03 6.2-11.99 6.2-2.66 0-7-2.01-10.73-5.1-4.53-3.73-7.78-8.59-8.89-14.06z"/><path d="M22.04 35l1.14-2.8a.57.57 0 0 0-.25-.59 1.9 1.9 0 0 1-.9-1.61 2 2 0 0 1 1.99-2c1.08 0 2.02.91 2.02 2a1.9 1.9 0 0 1-.9 1.61.58.58 0 0 0-.24.59l1.14 2.8h-4z" fill="#000"/><path d="M27.04 23v1h-6v-4a3 3 0 0 1 5.27-1.96 1 1 0 0 0 1.51-1.31A4.99 4.99 0 0 0 19.04 20v4.13a4 4 0 0 0-3 3.87v7a4 4 0 0 0 4 4h8a4 4 0 0 0 4-4v-7a4 4 0 0 0-3-3.87V23a1 1 0 0 0-2 0zm-9 5c0-1.1.9-2 2-2h8a2 2 0 0 1 2 2v7a2 2 0 0 1-2 2h-8a2 2 0 0 1-2-2v-7z" fill="#000"/><path opacity=".5" d="M22.05 21.74a1 1 0 0 0 1.18.79c9.41-1.9 19.9-4.73 22.15-5.8 2.8-1.33 3.23-3.45 1.04-5.46a1 1 0 1 0-1.35 1.46c1.1 1.02 1.01 1.45-.54 2.19-2.07.98-12.44 3.78-21.7 5.65a1 1 0 0 0-.78 1.17zM2.81 19.91a1 1 0 0 0-1.41.1c-2.08 2.42-1.87 4.57.81 5.49 1.35.46 6.06-.12 15-1.83a1 1 0 1 0-.38-1.96c-8.2 1.56-13.15 2.18-13.97 1.9-1.15-.4-1.2-.84.05-2.29a1 1 0 0 0-.1-1.4z" fill="#000"/></svg>