<svg aria-hidden="true" class="svg-spot spotStarXL" width="196" height="196" viewBox="0 0 196 196"><path opacity=".07" d="M99.98 187.51c11.44-1.7 32.1-4.8 45-15.6 1.17-.97 2.52-2.04 4.02-3.22 13.87-10.97 39.84-31.5 39.53-73.75-.34-46.8-16.91-62.91-42.5-75.83C120.44 6.2 69.67-6.2 31.71 19.3c-37.95 25.5-32.38 131.5-.5 152.25 31.9 20.75 55.47 18.03 66.05 16.38l2.72-.42zM96.79 42.13L106.13 74h34.42c3.57 0 4.89 4.69 1.85 6.55L114.2 97.8l11.45 33.92a3.53 3.53 0 01-5.46 3.97l-26.76-19.82-28.51 18.78a3.53 3.53 0 01-5.3-4.09l10.82-32.05-26.46-18.06a3.53 3.53 0 012-6.45h33.35l10.72-32a3.53 3.53 0 016.74.13z"/><path d="M52.02 37.18a3.54 3.54 0 011.51-4.74c1.71-.88 3.8-.2 4.68 1.53l3.88 7.66c.88 1.73.2 3.85-1.5 4.74-1.72.88-3.81.2-4.69-1.53l-3.88-7.66zm-19.41-.32a3.53 3.53 0 00-.5 4.94l11 13.64a3.47 3.47 0 004.91.53 3.53 3.53 0 00.5-4.94l-11-13.64a3.47 3.47 0 00-4.9-.53zm-7.6 23.18a3.54 3.54 0 001.25 4.82l7.75 4.6c1.66 1 3.8.45 4.77-1.22a3.54 3.54 0 00-1.25-4.82l-7.75-4.6a3.46 3.46 0 00-4.77 1.22zm134.85-.49a3.54 3.54 0 01-1.22 4.83l-8.95 5.41c-1.66 1-3.8.47-4.78-1.2a3.54 3.54 0 011.22-4.82l8.95-5.42c1.66-1 3.8-.46 4.78 1.2zm-8.21-14.51a3.54 3.54 0 00-.02-4.97 3.46 3.46 0 00-4.93.06l-12.45 12.76a3.54 3.54 0 00.02 4.97 3.46 3.46 0 004.93-.06l12.45-12.76zm-21.52-11.33a3.54 3.54 0 011.99 4.56l-3.2 8.4a3.46 3.46 0 01-4.5 2.03 3.54 3.54 0 01-1.99-4.56l3.2-8.4a3.46 3.46 0 014.5-2.03zm-90.58 91.43a3.52 3.52 0 001.58-4.7 3.48 3.48 0 00-4.68-1.58l-9.5 4.75a3.52 3.52 0 00-1.57 4.7 3.48 3.48 0 004.68 1.57l9.5-4.74zM33.48 150a3.51 3.51 0 01-.3-4.95l12-13.6a3.49 3.49 0 014.94-.3 3.51 3.51 0 01.3 4.94l-12 13.6a3.49 3.49 0 01-4.94.31zm20.04 3.65a3.49 3.49 0 106.64 2.16l2.48-7.7a3.49 3.49 0 10-6.64-2.16l-2.48 7.7zM161.9 128.1a3.52 3.52 0 00-.98-4.87l-7.53-5.04a3.48 3.48 0 00-4.84.97 3.52 3.52 0 00.98 4.87l7.53 5.04a3.48 3.48 0 004.84-.97zm-7.4 16.2a3.52 3.52 0 01.11 4.97 3.48 3.48 0 01-4.94.1l-12.8-12.29a3.52 3.52 0 01-.12-4.96 3.48 3.48 0 014.94-.1l12.8 12.29zm-22.35 15.38a3.52 3.52 0 002-4.54l-3.22-8.37a3.48 3.48 0 10-6.5 2.53l3.21 8.37a3.48 3.48 0 004.51 2.01zM100.36 52.9a3 3 0 00-5.72 0l-8.36 26.03A3 3 0 0183.43 81H55.04a3 3 0 00-1.79 5.4l22.72 16.94a3 3 0 011.06 3.32l-9.25 28.74a3 3 0 004.6 3.37l24.13-17.14a3 3 0 013.53.04l22.42 16.71a3 3 0 004.65-3.32l-9.14-28.4a3 3 0 011.06-3.32l22.72-16.94a3 3 0 00-1.8-5.4h-28.38a3 3 0 01-2.85-2.08l-8.36-26.04z" opacity=".2"/><path d="M66 10.5L57.5 2 49 10.5l8.5 8.5 8.5-8.5zm-8.5 2.83l-2.83-2.83 2.83-2.83 2.83 2.83-2.83 2.83zM83 6l-4-4-4 4 4 4 4-4zm7.05 36a3.53 3.53 0 016.74.13L106.13 74h34.42c3.57 0 4.89 4.69 1.85 6.55L114.2 97.8l11.45 33.92a3.53 3.53 0 01-5.46 3.97l-26.76-19.82-28.51 18.78a3.53 3.53 0 01-5.3-4.09l10.82-32.05-26.46-18.06a3.53 3.53 0 012-6.45h33.35l10.72-32zm3.32 2.68l-10.35 30.9A3.53 3.53 0 0179.67 78h-32.2l25.51 17.4a3.54 3.54 0 011.36 4.06l-10.5 31.1 27.66-18.21a3.54 3.54 0 014.05.11l25.83 19.14-11.09-32.87a3.53 3.53 0 011.5-4.15L138.9 78h-33.1a3.53 3.53 0 01-3.4-2.54l-9.02-30.78zM119 177a2 2 0 10-4 0v4h-4a2 2 0 100 4h4v4a2 2 0 104 0v-4h4a2 2 0 100-4h-4v-4z"/></svg>