<svg aria-hidden="true" class="svg-spot spotStarBubbleLg" width="96" height="96" viewBox="0 0 96 96"><path opacity=".2" d="M13 15a3 3 0 00-3 3v58a3 3 0 003 3h53.38c.4 0 .8.1 1.17.3L87.1 89.83A4 4 0 0093 86.3V18a3 3 0 00-3-3H13zm37.14 8.73 4.6 14.56c.15.5.61.84 1.14.84h15.54a1.2 1.2 0 01.71 2.15l-12.45 9.34c-.4.3-.58.83-.43 1.31l4.59 14.65a1.2 1.2 0 01-1.86 1.31l-12.26-9.23a1.2 1.2 0 00-1.44 0l-12.3 9.23c-.93.7-2.2-.2-1.86-1.31l4.62-14.65a1.2 1.2 0 00-.42-1.31l-12.45-9.34a1.2 1.2 0 01.71-2.16h15.54c.53 0 .99-.33 1.14-.83l4.6-14.56a1.2 1.2 0 012.28 0z"/><path d="M48.06 19.43a2.7 2.7 0 00-5.12 0L38.42 33H23.08a2.7 2.7 0 00-1.61 4.85l12.28 9.21-4.56 14.44a2.7 2.7 0 004.19 2.97l12.12-9.1 12.12 9.1a2.7 2.7 0 004.19-2.97l-4.56-14.44 12.28-9.2A2.7 2.7 0 0067.92 33H52.58l-4.52-13.57zM41.2 34.16l4.3-12.92 4.3 12.92A2.7 2.7 0 0052.36 36H67l-11.72 8.8a2.7 2.7 0 00-.96 2.96l4.34 13.74-11.54-8.66a2.7 2.7 0 00-3.24 0L32.34 61.5l4.34-13.74a2.7 2.7 0 00-.96-2.97L24 36h14.64a2.7 2.7 0 002.56-1.84zM7.98 9.03a3.95 3.95 0 00-3.95 3.95v59.04a3.95 3.95 0 003.95 3.95h58.91a1 1 0 01.47.12l17.55 9.2a3.46 3.46 0 005.06-3.07V12.98a3.95 3.95 0 00-3.95-3.95H7.98zm-1 3.95a1 1 0 011-1h78.04a1 1 0 011 1v69.24a.5.5 0 01-.74.45l-17.56-9.2a4.01 4.01 0 00-1.83-.44H7.98a1 1 0 01-1-1.01V12.98z"/></svg>