<svg aria-hidden="true" class="svg-spot spotStarBubbleXL" width="196" height="196" viewBox="0 0 196 196"><path opacity=".07" d="M169.8 160.73c23.35-31.7 15.06-75.62 4.69-103.03-5.1-13.47-26.16-41.33-69.6-43.36C61.42 12.3 45.8 26.5 32.81 49.04c-13 22.55-26.5 67.94-4.33 103.6 22.17 35.68 120.78 35.94 141.3 8.09ZM34 54a6 6 0 0 1 6-6h113a6 6 0 0 1 6 6v3h1a4 4 0 0 1 4 4v95.59a9 9 0 0 1-13.42 7.84l-25.02-14.11a2.42 2.42 0 0 0-1.2-.32H47a4 4 0 0 1-4-4v-.99h-3a6 6 0 0 1-6-6V54Z"/><path opacity=".2" d="M47 57a4 4 0 0 0-4 4v85a4 4 0 0 0 4 4h77.35c.43 0 .84.11 1.22.32l25.93 14.1c6 3.4 12.5-.94 12.5-7.83V61a4 4 0 0 0-4-4H47Zm53.26 10.85 7.37 23.3c.16.5.62.84 1.14.84h24.77a1.2 1.2 0 0 1 .71 2.15L114.42 109c-.4.3-.58.83-.43 1.32l7.34 23.39a1.2 1.2 0 0 1-1.86 1.3l-19.63-14.74a1.2 1.2 0 0 0-1.43 0l-19.7 14.75c-.92.7-2.2-.2-1.85-1.32l7.4-23.38a1.2 1.2 0 0 0-.43-1.32L64 94.14a1.2 1.2 0 0 1 .7-2.14h24.77c.52 0 .98-.34 1.14-.83l7.37-23.3a1.2 1.2 0 0 1 2.27 0Z"/><path d="m156.5 21 8.5 8.5-8.5 8.5-8.5-8.5 8.5-8.5Zm-2.83 8.5 2.83 2.83 2.83-2.83-2.83-2.83-2.83 2.83ZM24 142a2 2 0 1 0-4 0v4h-4a2 2 0 1 0 0 4h4v4a2 2 0 1 0 4 0v-4h4a2 2 0 1 0 0-4h-4v-4Zm20 24-4-4-4 4 4 4 4-4ZM97.66 61.3a3.2 3.2 0 0 0-6.07 0l-7.18 21.65H60.2a3.2 3.2 0 0 0-1.92 5.74l19.4 14.64-7.22 23.01a3.2 3.2 0 0 0 4.97 3.51l19.2-14.48 19.2 14.48a3.2 3.2 0 0 0 4.98-3.5l-7.23-23.02 19.4-14.64a3.2 3.2 0 0 0-1.91-5.74h-24.22l-7.18-21.66Zm-9.63 23.46 6.6-19.9 6.6 19.9a3.2 3.2 0 0 0 3.03 2.19h22.4l-17.95 13.53a3.2 3.2 0 0 0-1.13 3.5l6.65 21.17-17.68-13.34a3.2 3.2 0 0 0-3.85 0l-17.68 13.34 6.65-21.17a3.2 3.2 0 0 0-1.13-3.5L62.6 86.95H85a3.2 3.2 0 0 0 3.03-2.2ZM34 54a6 6 0 0 1 6-6h113a6 6 0 0 1 6 6v100.05a5 5 0 0 1-7.31 4.43l-25.7-13.41a.48.48 0 0 0-.21-.06H40a6 6 0 0 1-6-6V54Zm6-2a2 2 0 0 0-2 2v85.01c0 1.1.9 2 2 2h85.78c.72 0 1.43.18 2.07.51l25.69 13.41a1 1 0 0 0 1.46-.88V54a2 2 0 0 0-2-2H40Z"/></svg>