<svg aria-hidden="true" class="svg-spot spotStarLg" width="96" height="96" viewBox="0 0 96 96"><path d="M68.25 5.63c1 .43 1.49 1.61 1.07 2.65l-2 4.99a1.96 1.96 0 0 1-2.57 1.1c-1-.42-1.49-1.6-1.07-2.64l2-4.99a1.96 1.96 0 0 1 2.57-1.1Zm-45.9 4.77c-.49-1-.09-2.22.89-2.71.97-.5 2.15-.08 2.63.92l2.4 5c.48 1 .08 2.22-.9 2.71-.97.5-2.15.08-2.63-.92l-2.4-5Zm-12.1.52a2.03 2.03 0 0 0-.29 2.83l6.66 8.45a1.96 1.96 0 0 0 2.8.33c.84-.7.97-1.96.28-2.84l-6.66-8.44a1.96 1.96 0 0 0-2.79-.33ZM4.78 25.47c-.54.96-.22 2.2.73 2.77l5 3c.95.56 2.16.25 2.7-.71.55-.96.23-2.2-.72-2.77l-5-3a1.95 1.95 0 0 0-2.7.71Zm82.29-2.22c.67.87.51 2.14-.35 2.83l-5 4c-.87.7-2.12.55-2.79-.33a2.04 2.04 0 0 1 .35-2.83l5-4c.87-.7 2.12-.55 2.79.33Zm-5.09-9.42c.73-.84.66-2.11-.15-2.85a1.96 1.96 0 0 0-2.8.19l-7 8c-.74.84-.67 2.11.14 2.85.82.73 2.07.65 2.8-.19l7-8ZM14.39 70.3c.98-.5 1.39-1.7.9-2.7a1.99 1.99 0 0 0-2.68-.9l-6 3c-.98.5-1.39 1.7-.9 2.7.5.98 1.69 1.39 2.68.9l6-3Zm-3.18 16.06a2 2 0 0 1-.23-2.82l7-8.33a2 2 0 1 1 3.05 2.58l-7 8.33a2 2 0 0 1-2.82.24Zm12.43 2.41a2 2 0 1 0 3.71 1.46l1.84-4.73a2 2 0 1 0-3.71-1.46l-1.84 4.73Zm66.58-17.24c.56-.95.25-2.18-.7-2.75l-5-3a1.99 1.99 0 0 0-2.74.7 2 2 0 0 0 .7 2.74l5 3c.95.57 2.17.26 2.74-.7ZM85.9 82.08a2 2 0 0 1 .02 2.84 2 2 0 0 1-2.83 0l-8-8a2 2 0 0 1 0-2.84 2 2 0 0 1 2.82 0l8 8Zm-14.66 9.28a2 2 0 0 0 1.11-2.6l-2-5a2 2 0 1 0-3.7 1.49l2 5a2 2 0 0 0 2.6 1.11ZM51.47 23.69a1.53 1.53 0 0 0-2.94 0l-5.7 18.23c-.2.64-.79 1.08-1.46 1.08H22.23c-1.49 0-2.1 1.9-.9 2.78L36.6 56.85c.54.39.76 1.08.56 1.7L30.91 78.1a1.53 1.53 0 0 0 2.35 1.72L49.6 68.15a1.53 1.53 0 0 1 1.8.02l15.26 11.44c1.2.9 2.84-.27 2.38-1.7l-6.2-19.35c-.2-.63.03-1.32.57-1.71l15.27-11.07c1.2-.88.59-2.78-.9-2.78H58.63c-.67 0-1.27-.44-1.47-1.08l-5.7-18.23Z" opacity=".2"/><path d="M43.52 18.69a3.03 3.03 0 0 1 5.8.1l5.3 18.18c0 .02.02.03.03.03h19.52c3.05 0 4.2 3.99 1.61 5.6L59.82 52.63a.03.03 0 0 0-.02.04l6.57 19.7a3.03 3.03 0 0 1-4.7 3.38l-15.2-11.4h-.04L30.05 75.27a3.03 3.03 0 0 1-4.56-3.49l6.22-18.67v-.04L16.62 42.52A3.03 3.03 0 0 1 18.37 37h19.02l.04-.02 6.1-18.3Zm2.86.92-.01.03-6.1 18.28A3.03 3.03 0 0 1 37.4 40H18.35a.1.1 0 0 0-.02.05l.02.01 15.07 10.55a3.03 3.03 0 0 1 1.14 3.45l-6.22 18.67v.02l.01.02.02.01.02-.01 16.37-10.92a3.04 3.04 0 0 1 3.5.1l15.2 11.4.03.01a.1.1 0 0 0 .04-.03v-.02l-6.57-19.7a3.03 3.03 0 0 1 1.26-3.52L74.2 40.06h.02a.1.1 0 0 0-.02-.06H54.65a3.03 3.03 0 0 1-2.91-2.19l-5.3-18.17-.01-.02h-.03a.1.1 0 0 0-.02 0Z"/></svg>