<svg aria-hidden="true" class="svg-spot spotStarBubble" width="48" height="48" viewBox="0 0 48 48"><path opacity=".2" d="M6.25 7C5.56 7 5 7.56 5 8.25v29.5c0 .69.56 1.25 1.25 1.25h26.4c.23 0 .45.06.65.18l12.18 7.4a1 1 0 0 0 1.52-.86V8.25C47 7.56 46.44 7 45.75 7H6.25Zm18.83 4.28 2.35 7.31a.6.6 0 0 0 .58.42h7.64a.6.6 0 0 1 .36 1.1l-6.2 4.52a.6.6 0 0 0-.21.67l2.36 7.32a.6.6 0 0 1-.93.67l-6.17-4.51a.6.6 0 0 0-.72 0l-6.17 4.51a.6.6 0 0 1-.93-.67l2.36-7.32a.6.6 0 0 0-.22-.67L13 20.1a.6.6 0 0 1 .36-1.1H21a.6.6 0 0 0 .58-.41l2.35-7.3a.6.6 0 0 1 1.16 0Z"/><path d="M1 5.25C1 4.01 2 3 3.25 3h39.5C43.99 3 45 4 45 5.25v35.07a2 2 0 0 1-2.96 1.75l-9.24-5.04a.25.25 0 0 0-.12-.03H3.25C2.01 37 1 36 1 34.75V5.25ZM3.25 5a.25.25 0 0 0-.25.25v29.5c0 .14.11.25.25.25h29.43c.38 0 .75.1 1.08.27L43 40.32V5.25a.25.25 0 0 0-.25-.25H3.25Zm17.22 2.98a1.6 1.6 0 0 1 3.06 0L25.8 15h7.35a1.6 1.6 0 0 1 .95 2.9l-5.96 4.36 2.27 7.04a1.6 1.6 0 0 1-2.47 1.79L22 26.76l-5.94 4.34a1.6 1.6 0 0 1-2.47-1.79l2.27-7.04L9.9 17.9a1.6 1.6 0 0 1 .95-2.9h7.35l2.27-7.03ZM22 9.76l-1.98 6.14a1.6 1.6 0 0 1-1.53 1.1h-6.43l5.21 3.82c.56.4.8 1.13.58 1.79l-1.99 6.16 5.2-3.8a1.6 1.6 0 0 1 1.89 0l5.19 3.8-2-6.16a1.6 1.6 0 0 1 .59-1.79l5.2-3.81h-6.42a1.6 1.6 0 0 1-1.53-1.11L22 9.76Z"/></svg>