<svg aria-hidden="true" class="svg-spot spotTadaLg" width="97" height="96" viewBox="0 0 97 96"><path opacity=".2" d="M57.38 2.38a2.37 2.37 0 10-4.76 0v17.25a2.37 2.37 0 104.76 0V2.38zm-20.5 48C15.61 25.61 25.24 18.5 25.24 18.5s14.44 3.48 31.25 21.75c16.81 18.27 21.75 33.5 21.75 33.5-10.63 3.88-34.2-15.36-41.38-23.38zm-8.15 14.38c-9.38-9.19-13.9-18.56-13.9-18.56L7.39 68.86s2.69 6.23 8.24 11.64c5.56 5.4 13.1 8.24 13.1 8.24l23.4-6.87s-14.02-7.92-23.4-17.1zm45.3-24.73a2.38 2.38 0 012.38-2.37h17.25a2.38 2.38 0 010 4.75H76.4a2.38 2.38 0 01-2.38-2.38zm13.76-28.5a2.38 2.38 0 00-3.35-3.35L65.5 27.11a2.37 2.37 0 103.36 3.36l18.92-18.93z"/><path d="M44.88 10.5a2.37 2.37 0 11-4.75 0 2.37 2.37 0 014.74 0zm22.62 2.38a2.37 2.37 0 100-4.75 2.37 2.37 0 000 4.74zm19.38 14.4a2.37 2.37 0 11-4.75 0 2.37 2.37 0 014.75 0zm0 25.24a2.37 2.37 0 11-4.75 0 2.37 2.37 0 014.75 0zM36.89 16.33a36.28 36.28 0 00-7.77-3.17 8.83 8.83 0 00-2.62-.31c-.61.04-1.84.28-2.25 1.5L.87 84.85A8.32 8.32 0 003 93.26a8.3 8.3 0 008.68 1.7l70.14-20.37.1-.05a2 2 0 001.07-1.3c.12-.4.15-.83.15-1.23-.02-.8-.19-1.8-.48-2.94a49.4 49.4 0 00-3.48-9A97.5 97.5 0 0060.6 34.48c-9.03-9.02-17.43-14.85-23.72-18.15zM3.79 85.58l6.87-20.74.6 1.11c1.52 2.71 4 6.36 7.86 10.23a57.04 57.04 0 0010.9 8.47l.38.23 1.77 1L10.7 92.1l-.3.12c-1.8.63-3.94.18-5.32-1.14a5.3 5.3 0 01-1.3-5.5zm8.28-24.96l5.77-17.42c.51.92 1.16 2.04 1.96 3.31l.5.79a95.54 95.54 0 0012.77 15.75A96.62 96.62 0 0050.01 76.4l.43.27c1.3.8 2.47 1.49 3.49 2.06l.97.53-18.44 5.35-.46-.19-.63-.29-.75-.37c-.8-.4-1.85-.97-3.07-1.7l-.36-.22a53.96 53.96 0 01-9.95-7.79 44.28 44.28 0 01-7.36-9.57l-.17-.3c-.5-.91-.86-1.68-1.13-2.28l-.16-.38-.23-.58-.12-.33zm7.1-21.4l6.51-19.66a74.5 74.5 0 002.92 6.66l.2.42a88.81 88.81 0 0016.55 22.81 128.82 128.82 0 0022.9 17.99l1.07.65c3.23 1.97 6 3.47 8.02 4.5l.2.1-18.45 5.37-.62-.3-.79-.4-1.02-.54a88.15 88.15 0 01-4.22-2.43l-.84-.52a93.62 93.62 0 01-16.4-12.95 93.07 93.07 0 01-11.89-14.5l-.49-.74a69.18 69.18 0 01-2.58-4.34l-.35-.66-.28-.55-.28-.55-.17-.36zm8.63-22.64l-.22-.67c.24.03.51.09.83.16 1.65.41 4.07 1.34 7.08 2.92 6 3.15 14.17 8.78 23 17.61a94.5 94.5 0 0118 24.78 46.5 46.5 0 013.27 8.42l.07.26.11.49a94 94 0 01-.94-.47l-.59-.3c-1.93-1-4.52-2.42-7.53-4.25l-.55-.34c-6.58-4.04-15-10-22.85-17.86a85.73 85.73 0 01-16.2-22.44l-.22-.46a68.84 68.84 0 01-2.97-7.02l-.1-.3a47.8 47.8 0 01-.19-.53z"/></svg>