<svg aria-hidden="true" class="svg-spot spotTadaXL" width="196" height="196" viewBox="0 0 196 196"><path opacity=".07" d="M57.16 173.69c-3.79-.84-49.34-8.36-45.98-63.81C14.53 54.42 27.29 32.1 45 26c17.7-6.1 68.72-34.45 102.5-7 33.78 27.45 55.96 59.17 41.5 103-14.46 43.84-19.09 56.49-56.83 54.25-37.74-2.24-56.98 1.4-75-2.56z"/><path d="M117.33 24.38a3.75 3.75 0 00-7.5 0v22.85a3.75 3.75 0 007.5 0V24.38zm-27.72 65.2C57.42 48 72.9 44.09 72.9 44.09s21.71 5.23 47 32.71c25.28 27.48 32.7 50.38 32.7 50.38-15.97 5.83-52.2-25.55-62.98-37.6zM78.81 115c-14.1-13.82-20.88-27.92-20.88-27.92L46.7 119.36s4.05 9.37 12.4 17.5c8.35 8.14 19.7 12.4 19.7 12.4l35.18-8.54S92.91 128.82 78.81 115zm65.59-34.82a3.75 3.75 0 013.75-3.75H171a3.75 3.75 0 010 7.5h-22.85a3.75 3.75 0 01-3.75-3.75zm16.07-40.06a3.75 3.75 0 10-5.3-5.3l-24.56 24.55a3.75 3.75 0 105.3 5.3l24.56-24.55z" opacity=".2"/><path d="M137.43 32.41a3.75 3.75 0 11-7.5 0 3.75 3.75 0 017.5 0zM30 38a2 2 0 10-4 0v4h-4a2 2 0 100 4h4v4a2 2 0 104 0v-4h4a2 2 0 100-4h-4v-4zm62.72 136.03l-4.24-4.24-4.25 4.24 4.25 4.24 4.24-4.24zm81.16-6.8l-8.49-8.48-8.49 8.48 8.49 8.49 8.49-8.49zm-8.49 2.83l-2.83-2.83 2.83-2.82 2.83 2.82-2.83 2.83zM88.17 42.92c9.44 4.95 22.06 13.7 35.62 27.25 13.6 13.6 22.61 27.6 27.89 38.4a74 74 0 015.22 13.48c.44 1.7.69 3.2.7 4.38.02.58-.03 1.2-.2 1.76a2.82 2.82 0 01-1.48 1.8l-.13.06L50.3 160.68a12.3 12.3 0 01-12.8-2.5 12.24 12.24 0 01-3-12.76L69.52 39.8c.56-1.68 2.26-2.01 3.16-2.08 1.09-.08 2.41.1 3.86.46 2.94.72 6.92 2.28 11.62 4.75zm-12.57-.86c-.67-.17-1.22-.27-1.67-.32a104.72 104.72 0 005.71 13.93 129.18 129.18 0 0024.4 33.82c12.16 12.17 25.22 21.3 35.24 27.4a187.07 187.07 0 0014.11 7.8 25.3 25.3 0 00-.36-1.65c-.8-3.1-2.4-7.49-4.95-12.71-5.09-10.44-13.86-24.07-27.12-37.33-13.3-13.3-25.6-21.8-34.65-26.54-4.53-2.38-8.19-3.79-10.7-4.4zm.46 15.39a110.64 110.64 0 01-4.63-10.68L61.36 77.13l.01.02.01.02v.02l.05.08.23.5a101.9 101.9 0 005.26 9.2 140.2 140.2 0 0018.65 22.97 141.05 141.05 0 0036.09 25.85l28.46-8.26-.2-.1-.22-.12c-3.06-1.55-7.4-3.89-12.5-7-10.2-6.2-23.54-15.53-36-28a133.19 133.19 0 01-25.14-34.86zm39.99 79.97a145.08 145.08 0 01-33.3-24.66 143.48 143.48 0 01-19.19-23.63 108.83 108.83 0 01-3.97-6.67l-8.9 26.84.1.28a44.71 44.71 0 002.68 5.66 66.86 66.86 0 0011.12 14.45 81.53 81.53 0 0020.8 14.97 44.79 44.79 0 001.92.89h.03l.25.13 28.46-8.26zM49.98 117.2c-.45-.8-.83-1.53-1.17-2.21l-10.53 31.74v.02a8.24 8.24 0 002 8.54 8.24 8.24 0 008.62 1.64l.1-.04 32.86-9.54a85.55 85.55 0 01-20.1-14.83 70.86 70.86 0 01-11.78-15.32zm114.9-16.94a3.75 3.75 0 11-7.5 0 3.75 3.75 0 017.5 0zm-3.75-37a3.75 3.75 0 100-7.5 3.75 3.75 0 000 7.5zm-67.82-27.1a3.75 3.75 0 100-7.5 3.75 3.75 0 000 7.5z"/></svg>