<svg aria-hidden="true" class="svg-spot spotTada" width="48" height="48" viewBox="0 0 48 48"><path d="M28.88 2.5a1.37 1.37 0 10-2.75 0v8a1.37 1.37 0 102.75 0v-8zM20 26.27c-9.4-10.5-7.45-15.3-7.45-15.3s7.58 1.4 15.58 10.08c8 8.7 9.5 15.32 9.5 15.32s-8.25.4-17.64-10.1zm-5.3 5.83c-4.45-4.36-6.6-8.82-6.6-8.82L4.56 34.05s1.32 2.86 3.96 5.43a22.24 22.24 0 006.19 4.03l11.12-3.27s-6.66-3.76-11.12-8.13zm30.8-10.22h-8a1.37 1.37 0 110-2.75h8a1.37 1.37 0 110 2.75zM42.97 6.97a1.38 1.38 0 00-1.94-1.94l-9 9a1.38 1.38 0 001.94 1.94l9-9z" opacity=".2"/><path d="M34.88 6.53a1.37 1.37 0 11-2.75 0 1.37 1.37 0 012.74 0zM30.07 17.5a48.59 48.59 0 00-11.35-8.68c-1.5-.79-2.79-1.3-3.75-1.53a4.48 4.48 0 00-1.34-.15c-.3.02-1.07.14-1.32.9L1.23 41.44a4.24 4.24 0 001.05 4.42 4.24 4.24 0 004.42.87l33.36-9.69.07-.03c.43-.2.6-.57.66-.8.07-.22.09-.46.08-.66 0-.42-.09-.92-.23-1.47-.28-1.12-.84-2.6-1.68-4.33a46.65 46.65 0 00-8.89-12.24zm-16.81-5.97a43.52 43.52 0 009.15 13.5A61.84 61.84 0 0037.15 35.8l-7.98 2.31-.04-.02c-.17-.08-.43-.2-.75-.38a44.23 44.23 0 01-10.4-7.64 43.73 43.73 0 01-5.84-7.2A31.89 31.89 0 0110.5 20l-.03-.07 2.79-8.41zm-6.17 18.6l2.51-7.57a45.72 45.72 0 0016.81 16.37l-8.01 2.32a7 7 0 01-.57-.26 25.42 25.42 0 01-6.48-4.66 20.78 20.78 0 01-3.45-4.5 13.76 13.76 0 01-.81-1.7zm-.9 2.74a22.8 22.8 0 003.75 4.87 27.41 27.41 0 005.66 4.32l-9.56 2.78-.04.02c-.78.31-1.73.13-2.34-.45a2.24 2.24 0 01-.54-2.3v-.02l3.06-9.22zm32.44 1.45a59.85 59.85 0 01-14.8-10.7 41.52 41.52 0 01-7.74-10.73 35.08 35.08 0 01-1.57-3.61l-.02-.04c.76.19 1.88.62 3.3 1.35a46.62 46.62 0 0110.86 8.33 44.66 44.66 0 018.5 11.7c.73 1.5 1.21 2.77 1.47 3.7zm4.25-7.79a1.37 1.37 0 11-2.75 0 1.37 1.37 0 012.74 0zM41.5 15.9a1.37 1.37 0 100-2.74 1.37 1.37 0 000 2.75zm-20-8a1.37 1.37 0 100-2.74 1.37 1.37 0 000 2.75z"/></svg>