<svg aria-hidden="true" class="svg-spot spotTadaXL" width="196" height="196" viewBox="0 0 196 196"><path opacity=".07" d="m56.69 173.59.47.1c9.98 2.2 20.34 2.06 34 1.88 11-.15 24.17-.32 41.01.68 37.74 2.24 42.37-10.41 56.83-54.25 14.46-43.83-7.72-75.55-41.5-103-28.79-23.4-70.1-6.26-92.64 3.1-3.9 1.61-7.24 3-9.86 3.9-17.7 6.1-30.47 28.42-33.82 83.88-3.25 53.72 39.4 62.46 45.5 63.7Zm67.1-103.42c13.6 13.6 22.61 27.6 27.89 38.4a74 74 0 0 1 5.22 13.48c.44 1.7.69 3.2.7 4.38.02.58-.03 1.2-.2 1.76a2.82 2.82 0 0 1-1.48 1.8l-.13.06L50.3 160.68a12.3 12.3 0 0 1-12.8-2.5 12.24 12.24 0 0 1-3-12.76L69.52 39.8c.56-1.68 2.26-2.01 3.16-2.08 1.09-.08 2.41.1 3.86.46 2.94.72 6.92 2.28 11.62 4.75 9.44 4.95 22.06 13.7 35.62 27.25Z"/><path d="M117 24c0-2.07-1.43-4-3.5-4-2.07 0-3.5 1.93-3.5 4v23c0 2.07 1.43 4 3.5 4 2.07 0 3.5-1.93 3.5-4V24ZM89.61 89.58C57.42 48 72.9 44.09 72.9 44.09s21.71 5.23 47 32.71c25.28 27.48 32.7 50.38 32.7 50.38-15.97 5.83-52.2-25.55-62.98-37.6ZM78.81 115c-14.1-13.82-20.88-27.92-20.88-27.92L46.7 119.36s4.05 9.37 12.4 17.5c8.35 8.14 19.7 12.4 19.7 12.4l35.18-8.54S92.91 128.82 78.81 115ZM144 79.5c0-2.07 1.93-3.5 4-3.5h23c2.07 0 4 1.43 4 3.5 0 2.07-1.93 3.5-4 3.5h-23c-2.07 0-4-1.43-4-3.5Zm16.47-39.38a3.75 3.75 0 1 0-5.3-5.3l-24.56 24.55a3.75 3.75 0 1 0 5.3 5.3l24.56-24.55Z" opacity=".2"/><path d="M137.43 32.41a3.75 3.75 0 1 1-7.5 0 3.75 3.75 0 0 1 7.5 0ZM30 38a2 2 0 1 0-4 0v4h-4a2 2 0 1 0 0 4h4v4a2 2 0 1 0 4 0v-4h4a2 2 0 1 0 0-4h-4v-4Zm62.72 136.03-4.24-4.24-4.25 4.24 4.25 4.24 4.24-4.24Zm81.16-6.8-8.49-8.48-8.49 8.48 8.49 8.49 8.49-8.49Zm-8.49 2.83-2.83-2.83 2.83-2.82 2.83 2.82-2.83 2.83ZM88.17 42.92c9.44 4.95 22.06 13.7 35.62 27.25 13.6 13.6 22.61 27.6 27.89 38.4a74 74 0 0 1 5.22 13.48c.44 1.7.69 3.2.7 4.38.02.58-.03 1.2-.2 1.76a2.82 2.82 0 0 1-1.48 1.8l-.13.06L50.3 160.68a12.3 12.3 0 0 1-12.8-2.5 12.24 12.24 0 0 1-3-12.76L69.52 39.8c.56-1.68 2.26-2.01 3.16-2.08 1.09-.08 2.41.1 3.86.46 2.94.72 6.92 2.28 11.62 4.75Zm-12.57-.86c-.67-.17-1.22-.27-1.67-.32a104.72 104.72 0 0 0 5.71 13.93 129.18 129.18 0 0 0 24.4 33.82c12.16 12.17 25.22 21.3 35.24 27.4a187.07 187.07 0 0 0 14.11 7.8 25.3 25.3 0 0 0-.36-1.65c-.8-3.1-2.4-7.49-4.95-12.71-5.09-10.44-13.86-24.07-27.12-37.33-13.3-13.3-25.6-21.8-34.65-26.54-4.53-2.38-8.19-3.79-10.7-4.4Zm.46 15.39a110.64 110.64 0 0 1-4.63-10.68L61.36 77.13l.01.02.01.02v.02l.05.08.23.5a101.9 101.9 0 0 0 5.26 9.2 140.2 140.2 0 0 0 18.65 22.97 141.05 141.05 0 0 0 36.09 25.85l28.46-8.26-.2-.1-.22-.12c-3.06-1.55-7.4-3.89-12.5-7-10.2-6.2-23.54-15.53-36-28a133.19 133.19 0 0 1-25.14-34.86Zm39.99 79.97a145.08 145.08 0 0 1-33.3-24.66 143.48 143.48 0 0 1-19.19-23.63 108.83 108.83 0 0 1-3.97-6.67l-8.9 26.84.1.28a44.71 44.71 0 0 0 2.68 5.66 66.86 66.86 0 0 0 11.12 14.45 81.53 81.53 0 0 0 20.8 14.97 44.79 44.79 0 0 0 1.92.89h.03l.25.13 28.46-8.26ZM49.98 117.2c-.45-.8-.83-1.53-1.17-2.21l-10.53 31.74v.02a8.24 8.24 0 0 0 2 8.54 8.24 8.24 0 0 0 8.62 1.64l.1-.04 32.86-9.54a85.55 85.55 0 0 1-20.1-14.83 70.86 70.86 0 0 1-11.78-15.32Zm114.9-16.94a3.75 3.75 0 1 1-7.5 0 3.75 3.75 0 0 1 7.5 0Zm-3.75-37a3.75 3.75 0 1 0 0-7.5 3.75 3.75 0 0 0 0 7.5Zm-67.82-27.1a3.75 3.75 0 1 0 0-7.5 3.75 3.75 0 0 0 0 7.5Z"/></svg>