<svg aria-hidden="true" class="svg-spot spotTags" width="48" height="48" viewBox="0 0 48 48"><path opacity=".2" d="M28.89 5.55c-.42-.06-.84.09-1.12.4L6.02 30.34c-.46.51-.41 1.3.1 1.76l14.05 12.53c.52.46 1.3.42 1.77-.1l21.75-24.38c.28-.32.38-.75.27-1.16L41.04 8.13a1.25 1.25 0 0 0-1.02-.92L28.89 5.55Zm2.8 11.82a3.05 3.05 0 1 1 4.06-4.56 3.05 3.05 0 0 1-4.06 4.56Z"/><path d="M38.86 5.15a.25.25 0 0 0-.2-.18L27.53 3.3a.25.25 0 0 0-.23.08L5.55 27.77c-.09.1-.08.26.02.35l14.05 12.53c.1.1.26.08.35-.02l21.75-24.38a.25.25 0 0 0 .06-.23L38.86 5.15Zm.1-2.16c.88.13 1.6.78 1.83 1.64l2.92 10.87c.2.73.01 1.51-.5 2.08L21.48 41.96c-.83.93-2.25 1-3.18.18L4.24 29.61c-.92-.83-1-2.25-.18-3.18L25.81 2.05c.5-.57 1.26-.84 2.01-.73L38.95 3Zm5.61 17.46a1 1 0 0 1 .07 1.41L21.7 47.24c-.83.93-2.26 1-3.18.16L3.31 33.56a1 1 0 0 1 1.34-1.48l15.2 13.84c.1.1.27.09.36-.02l22.95-25.38a1 1 0 0 1 1.41-.07ZM33.98 10.41a2.2 2.2 0 1 0-2.93 3.29 2.2 2.2 0 0 0 2.93-3.29Zm-4.6-1.15a4.2 4.2 0 1 1 6.27 5.59 4.2 4.2 0 0 1-6.27-5.59Z"/></svg>