<svg aria-hidden="true" class="svg-spot spotTagsLg" width="96" height="96" viewBox="0 0 96 96"><path opacity=".2" d="M55.86 8.83a2.5 2.5 0 0 0-2.27.83l-43.44 49.1a2.52 2.52 0 0 0 .2 3.54l28.24 25.6c1.05.94 2.67.85 3.6-.22l43.45-50.06c.54-.63.74-1.47.54-2.27l-5.27-21.1a2.52 2.52 0 0 0-2.07-1.88L55.86 8.83Zm5.86 23.65a6.17 6.17 0 1 1 8.21-9.2 6.17 6.17 0 0 1-8.2 9.2Z"/><path d="M64.5 14c4.44 0 8.02 3.8 8.02 8.18 0 4.4-3.56 8-7.96 8A8.1 8.1 0 0 1 64.5 14Zm-4.98 8.1a5.1 5.1 0 0 0 5.04 5.08 4.98 4.98 0 0 0 4.96-5c0-2.8-2.32-5.18-5.02-5.18-2.7 0-4.98 2.3-4.98 5.1ZM78.05 4.76a4.02 4.02 0 0 1 3.3 3.04l5.3 22.07a4.02 4.02 0 0 1-.9 3.6L42.32 82.59a4.02 4.02 0 0 1-5.72.32L8.34 57.29a4.02 4.02 0 0 1-.31-5.65l43.43-49.1a4.02 4.02 0 0 1 3.63-1.31l22.96 3.53Zm.39 3.74c-.1-.4-.43-.71-.84-.78L54.63 4.2c-.34-.05-.69.07-.92.34l-43.43 49.1c-.38.42-.34 1.06.07 1.43l28.26 25.61c.43.39 1.08.35 1.46-.08L83.5 31.5c.22-.25.3-.6.22-.92L78.43 8.5ZM88.5 39.39c.62.55.67 1.5.11 2.12l-46.3 51.13a4.02 4.02 0 0 1-5.69.28L6.5 65.62a1.5 1.5 0 1 1 2.02-2.23l30.13 27.3c.42.38 1.06.35 1.44-.07l46.3-51.13a1.5 1.5 0 0 1 2.13-.1Z"/></svg>