<svg aria-hidden="true" class="svg-spot spotTagsXL" width="196" height="196" viewBox="0 0 196 196"><path opacity=".07" d="M48.63 184.9c41.87 16.91 88.33-4.72 115.85-23.97 10.73-7.51 11.95-15.21 16.78-45.52a1917.6 1917.6 0 0 1 4.72-28.62c9.56-54.9-16.4-70.92-45.15-78.94C112.1-.17 58.25 7.91 24.9 42.58-8.45 77.26 11.84 170.05 48.63 184.9Zm55.38-167.02a4.71 4.71 0 0 1 4.24-1.54l42.8 6.55c1.9.29 3.43 1.7 3.88 3.56l9.83 41.16c.08.3.12.59.13.88l1.51 5.98c.38 1.5 0 3.07-1.01 4.23l-80.75 92.68a4.73 4.73 0 0 1-6.73.4L25.2 124.21a4.69 4.69 0 0 1-.37-6.6l.02-.01-1.58-1.43a4.7 4.7 0 0 1-.37-6.61L104 17.88Z"/><path opacity=".2" d="M109.82 25.19a4.73 4.73 0 0 0-4.26 1.53l-80.73 90.9a4.69 4.69 0 0 0 .37 6.59l52.7 47.57a4.73 4.73 0 0 0 6.74-.4l80.75-92.68a4.69 4.69 0 0 0 1.01-4.23l-9.9-39.15a4.7 4.7 0 0 0-3.85-3.5l-42.83-6.63Zm10.43 43.58a11.44 11.44 0 0 1-.92-16.2 11.55 11.55 0 0 1 16.27-.93 11.44 11.44 0 0 1 .92 16.2 11.56 11.56 0 0 1-16.27.93Z"/><path d="M28 47.5 19.5 39 11 47.5l8.5 8.5 8.5-8.5Zm-8.5 2.83-2.83-2.83 2.83-2.83 2.83 2.83-2.83 2.83ZM42 29.5 37.5 25 33 29.5l4.5 4.5 4.5-4.5ZM170 156a2 2 0 1 0-4 0v4h-4a2 2 0 1 0 0 4h4v4a2 2 0 1 0 4 0v-4h4a2 2 0 1 0 0-4h-4v-4ZM153.47 26.92a2.71 2.71 0 0 0-2.22-2.05l-42.81-6.55c-.91-.14-1.83.2-2.44.88l-81.1 91.68a2.71 2.71 0 0 0 .2 3.8l52.65 47.72a2.71 2.71 0 0 0 3.85-.22l81.1-91.68c.59-.66.81-1.57.61-2.43l-9.84-41.15Zm-1.62-6a6.7 6.7 0 0 1 5.51 5.07l9.84 41.16a6.7 6.7 0 0 1-1.5 6l-81.1 91.69a6.7 6.7 0 0 1-9.54.52l-52.64-47.71a6.7 6.7 0 0 1-.52-9.42L103 16.55a6.71 6.71 0 0 1 6.04-2.18l42.81 6.54Zm19.75 64.11a2 2 0 0 1 .14 2.83L85.5 182.84a6.73 6.73 0 0 1-9.49.47l-56.58-51.15a2 2 0 0 1-.14-2.82 2 2 0 0 1 2.83-.14l56.58 51.15c1.11 1 2.83.92 3.83-.19l86.24-94.99a2 2 0 0 1 2.83-.14ZM126.96 42c-5.4 0-9.96 4.73-9.96 10.53C117 58.3 121.63 63 127.06 63c5.43 0 9.94-4.56 9.94-10.33 0-5.82-4.66-10.67-10.04-10.67ZM113 52.53c0-7.81 6.16-14.53 13.96-14.53 7.8 0 14.04 6.86 14.04 14.67 0 7.85-6.18 14.33-13.94 14.33-7.77 0-14.06-6.62-14.06-14.47Z"/></svg>