<svg aria-hidden="true" class="svg-spot spotTarget" width="48" height="48" viewBox="0 0 48 48"><path d="M37.7 13.3 37 9.86 41.85 5v4.15H46L41.15 14l-3.46-.7ZM23.5 40a12.5 12.5 0 1 0 0-25 12.5 12.5 0 0 0 0 25Zm0-6.73a5.77 5.77 0 1 1 0-11.54 5.77 5.77 0 0 1 0 11.54Z" opacity=".2"/><path d="M41.85 3a1 1 0 0 0-1.71-.7l-4.85 4.84a1 1 0 0 0-.27.9l.59 2.94-1.05 1.04a19.5 19.5 0 1 0 1.41 1.41l1.05-1.04 2.94.6a1 1 0 0 0 .9-.28l4.85-4.85a1 1 0 0 0-.71-1.7h-3.15V3Zm-3.97 7.53a1 1 0 0 0-.4-.41l-.4-1.95 2.77-2.76v1.74a1 1 0 0 0 1 1h1.74l-2.76 2.76-1.95-.38ZM21.5 9c4.47 0 8.55 1.68 11.65 4.44l-2.84 2.83a13.5 13.5 0 1 0 1.41 1.41l2.84-2.83A17.5 17.5 0 1 1 21.5 9Zm0 6c2.82 0 5.4 1.01 7.4 2.7l-3.57 3.55a6.5 6.5 0 1 0 1.41 1.41l3.57-3.55a11.5 11.5 0 1 1-8.8-4.1Zm0 7c.88 0 1.7.25 2.4.69l-3.6 3.6a1 1 0 0 0 1.4 1.42l3.61-3.6A4.5 4.5 0 1 1 21.5 22Z"/></svg>