<svg aria-hidden="true" class="svg-spot spotTechnicalWritingXL" width="196" height="196" viewBox="0 0 196 196"><path d="M117.76 87.5 85.96 120 73 109.64l34.88-36.38a26.54 26.54 0 0 0-40.09 11.2 26.51 26.51 0 0 0 48.91 20.41 26.38 26.38 0 0 0 1.06-17.37Zm-86.92-33c-17.41 20.96-19 69.5-10 88.5s45 36 45 36 56.85 3.39 81-18.5c24.16-21.9 31-45.5 31-93.5 0-44-33.13-45.84-67.36-47.73-3.12-.17-6.24-.34-9.35-.54-37.27-2.46-52.87 14.8-70.29 35.76Zm103.71 15.84 5.28 12.84-10.66 6.06c.58 3.47.47 6.98.01 10.52l10.66 6.15-6.03 14.43-11.86-3.25a41 41 0 0 1-7.49 7.38l3.2 11.84-14.33 5.9-6.06-10.68a35 35 0 0 1-10.52.02l-6.14 10.66-14.44-6.03.35-1.27L55.5 146 44 134.43 60.61 119l6.39 6.45v7.7l2.43-8.83c-2.82-2.2-5.27-4.32-7.35-7.05l-12.25 2.6-2.58-7.01-2.7-7.07L54.7 99.3c-.6-3.46-.2-6.64.26-10.18l-10.62-6.23 2.98-7.13 3.37-6.97 11.75 3.05.34-.43c2.05-2.64 3.87-4.99 6.47-6.96L66.88 52.3l13.47-5.54 6.86 10.3c2.97-.5 5.63-.13 8.55.27l1.49.2 6.29-10.86 14.35 5.99-3.12 11.92c.27.22.55.43.81.66l18-18.76L153 40l-7.77 19.43-10.68 10.9Z" opacity=".07"/><path d="M76.44 111.59a1 1 0 0 0 .19 1.57l13.74 8.1a1 1 0 0 0 1.23-.17l52.38-54.93a1 1 0 0 0 .23-.37l4.43-13.31a1 1 0 0 0-1.3-1.25l-14.66 5.63a1 1 0 0 0-.34.22l-55.9 54.5Zm-8.51 25.58a3 3 0 0 1-1.1-2.9l.76-4.22a3 3 0 0 0-.24-1.82l-1.13-2.4a3 3 0 0 0-4.83-.85l-15.32 15.16a3 3 0 0 0-.08 4.18l7.83 8.38a3 3 0 0 0 4.34.05l10.5-10.79a3 3 0 0 0-.3-4.46l-.43-.33Z" opacity=".2"/><path d="m50.1 27 8.76 8.75-8.76 8.76-8.76-8.76L50.1 27Zm-2.92 8.75 2.92 2.92 2.92-2.92-2.92-2.92-2.92 2.92ZM32.47 45l4.12 4.12-4.12 4.12-4.13-4.12 4.13-4.13ZM172 116a2 2 0 1 0-4 0v4h-4a2 2 0 1 0 0 4h4v4a2 2 0 1 0 4 0v-4h4a2 2 0 1 0 0-4h-4v-4Zm-16.14-76.26a2 2 0 0 0-2.5-2.64l-19.42 6.48a2 2 0 0 0-.81.51l-14.54 15.16.71-4.97a2 2 0 0 0-1.15-2.1l-14.21-6.46a2 2 0 0 0-2.58.85l-5.81 10.46a41.82 41.82 0 0 0-8.14.01l-5.8-10.47a2 2 0 0 0-2.58-.85L64.8 52.2a2 2 0 0 0-1.1 2.3l2.26 9.09a18.8 18.8 0 0 0-2.84 3.17c-.42.57-.83 1.16-1.22 1.73l-.27.39-.62.89-10.25-3.42a2 2 0 0 0-2.48 1.13l-6.47 15.51a2 2 0 0 0 1.04 2.6l10.29 4.57a55 55 0 0 0 0 9.16l-10.3 4.59a2 2 0 0 0-1.03 2.6l6.45 15.5a2 2 0 0 0 2.48 1.13l3.98-1.33-13.1 12.16a2 2 0 0 0-.05 2.88l11.5 11.57a2 2 0 0 0 2.84 0l10.39-10.45 12.7 5.77a2 2 0 0 0 2.6-.93l4.55-9.09c2.8.27 5.56.24 8.26-.03l7.06 9.42a2 2 0 0 0 2.42.63l13.92-6.17a2 2 0 0 0 1.14-2.25l-2.01-9.37a27.33 27.33 0 0 0 5-5.06l9.08 2.27a2 2 0 0 0 2.3-1.11l6.47-14.22a2 2 0 0 0-.66-2.46l-8.08-5.77c.3-2.87.27-5.69 0-8.46l8.09-5.78a2 2 0 0 0 .68-2.4l-4.4-10.63 12.23-12.5a2 2 0 0 0 .43-.65l7.77-19.43Zm-94.89 81.72a2 2 0 0 0 .56-.9 29.71 29.71 0 0 0 4.43 5.27l-2.27 9.08-.47.48-7.8-7.8a1.98 1.98 0 0 0-.6-.41l6.15-5.72Zm71.42-46.03 3.14 7.6-7.75 5.53a2 2 0 0 0-.83 1.88c.41 3.23.45 6.5 0 9.83a2 2 0 0 0 .82 1.89l7.7 5.5-5.09 11.2-8.72-2.17a2 2 0 0 0-2.05.7c-2.15 2.75-3.42 4.24-6.04 6.06a2 2 0 0 0-.8 2.07l1.94 9.04-10.98 4.87-6.8-9.07a2 2 0 0 0-1.84-.78c-3.23.4-6.5.45-9.82 0a2 2 0 0 0-2.06 1.1l-4.3 8.61-10.95-4.97 2.19-8.73a2 2 0 0 0-.7-2.06c-2.2-1.71-3.61-3.77-5.33-6.26l-.73-1.06a2 2 0 0 0-2.27-.75l-9.87 3.29-4.99-12 9.85-4.37a2 2 0 0 0 1.17-2.08c-.4-3.23-.45-7.8 0-11.12a2 2 0 0 0-1.17-2.1l-9.84-4.36 5-12 9.86 3.29a2 2 0 0 0 2.2-.67 44.46 44.46 0 0 0 1.89-2.6v-.02c.4-.56.75-1.09 1.13-1.6a13.08 13.08 0 0 1 3.02-3.13 2 2 0 0 0 .8-2.12l-2.18-8.73L79 50.13l5.56 10.02a2 2 0 0 0 2 1.01c3.23-.4 6.5-.45 9.82 0a2 2 0 0 0 2.02-1.01l5.56-10.03 11.17 5.08-1.08 7.56a2 2 0 0 0 .14 1.08l-7.7 8.04c-1.66-2.01-4.5-3.44-7.24-4.36A28.24 28.24 0 0 0 90.7 66C75.04 66 64 78.68 64 94.1c0 15.37 11.1 28.9 26.82 28.9C106.3 123 120 109.71 120 94.1a13.38 13.38 0 0 0-.99-5l13.38-13.67Zm-28.95-.96c.08.1.18.2.28.29l-31.16 32.5a2 2 0 0 0-.54 1.1A26.73 26.73 0 0 1 68 94.11C68 80.6 77.53 70 90.7 70c2.04 0 4.77.46 7.27 1.3 2.58.88 4.56 2.03 5.47 3.17ZM85.1 118.25a22.13 22.13 0 0 1-11.49-7.65 2 2 0 0 0 1.83-.58l57.65-60.1 9.43 9.43-57 58.25a2 2 0 0 0-.42.65Zm5.72.75c-.35 0-.7 0-1.05-.02l26.06-26.63c.1.53.17 1.12.17 1.76 0 13.33-11.84 24.89-25.18 24.89Zm54.16-62.84-9.03-9.04 14.6-4.86-5.57 13.9Zm-92.86 73.53a2 2 0 0 0 .47.72l7.8 7.82-5.89 5.93-8.62-8.67 6.24-5.8Z"/></svg>