<svg aria-hidden="true" class="svg-spot spotTechnicalWriting" width="48" height="48" viewBox="0 0 48 48"><path d="M16 30.33 21.14 35l12.87-12.93 3.34-3.35 4.57-5.02L44 7l-6.65 2.64-5.2 4.62L16 30.33ZM8.08 47.7 15 40.57 10.43 36l-7.14 7.12c-.39.32-.39.95 0 1.34L6.7 47.7c.3.4.98.4 1.37 0Z" opacity=".2"/><path d="M46.92 2.4a1 1 0 0 0-1.22-1.35l-7.47 2.32a1 1 0 0 0-.4.24l-5.37 5.33.2-.7a1 1 0 0 0-.57-1.19l-5.46-2.3a1 1 0 0 0-1.25.4L23.3 8.64a15 15 0 0 0-2.92 0l-1.97-3.5a1 1 0 0 0-1.25-.44L11.7 6.92a1 1 0 0 0-.6 1.19l1.04 3.86a14.5 14.5 0 0 0-2.1 2.07l-3.88-1.08a1 1 0 0 0-1.2.57l-2.31 5.5a1 1 0 0 0 .42 1.25l3.49 2.03c-.09.99-.09 1.97 0 2.93l-3.5 1.97a1 1 0 0 0-.44 1.25l2.22 5.47a1 1 0 0 0 1.18.6l.93-.25-4.65 4.68a1 1 0 0 0 .02 1.42l4.5 4.34a1 1 0 0 0 1.38 0l3.92-3.77 4.83 2.03a1 1 0 0 0 1.25-.41l2.03-3.49c.94.1 1.87.16 2.83.1l2.24 3.5a1 1 0 0 0 1.25.38l2.6-1.17 2.64-1.14a1 1 0 0 0 .58-1.13l-.82-3.88c.77-.63 1.39-1.34 1.97-2.07l3.9 1.06a1 1 0 0 0 1.18-.58l1.14-2.72.02-.05 1-2.78a1 1 0 0 0-.43-1.19l-3.4-2.05c.11-.9.21-1.82.16-2.8l3.44-2.27a1 1 0 0 0 .38-1.21l-1.05-2.58a1 1 0 0 0-.05-.1l-.92-1.7a1.03 1.03 0 0 0-.06-.1l4.89-4.9a1 1 0 0 0 .2-.3l3-7ZM30.5 8.54l-.99 3.4-1.8 1.81a1 1 0 0 0-.38-.38A11 11 0 1 0 33 23c0-.6-.03-.99-.17-1.38l-.15-.37-.03-.07a6.94 6.94 0 0 1-.13-.3l3.19-3.17 1.64-1.64.67 1.24.71 1.76-3.25 2.15a1 1 0 0 0-.44.96c.14 1.1 0 2.1-.17 3.4l-.02.17a1 1 0 0 0 .47.99l3.27 1.96-.71 1.98-.8 1.89-3.69-1a1 1 0 0 0-1.05.35 11.76 11.76 0 0 1-2.48 2.59 1 1 0 0 0-.4 1.03l.77 3.7-1.9.82h-.01l-1.8.82-2.1-3.3a1 1 0 0 0-.98-.45c-1.17.15-2.3.06-3.62-.12a1 1 0 0 0-1 .5L16.9 40.8l-3.87-1.64 1.02-3.67a1 1 0 0 0-.35-1.05 12.52 12.52 0 0 1-2.6-2.66 1 1 0 0 0-1.08-.39l-3.67.98-1.56-3.85 3.3-1.86a1 1 0 0 0 .51-1c-.15-1.22-.16-2.5 0-3.75a1 1 0 0 0-.48-1L4.82 19l1.64-3.88 3.67 1.02a1 1 0 0 0 1.06-.34c.8-1.03 1.66-1.92 2.65-2.6a1 1 0 0 0 .4-1.08l-.98-3.68 3.84-1.56 1.86 3.31a1 1 0 0 0 1 .5 14.5 14.5 0 0 1 3.73 0 1 1 0 0 0 1-.48l1.96-3.28 3.85 1.62Zm.48 13.86c0 .1.02.27.02.59a9 9 0 0 1-9.64 8.98l9.62-9.57Zm-11.93 9.1a9.02 9.02 0 0 1-3.74-2.5 1 1 0 0 0 .4-.24L31 13.3l2.88-2.94 4.05-4.02L41.1 9.5l-6.8 6.8-15.07 15a1 1 0 0 0-.17.2Zm-4.86-4.03a9 9 0 0 1 12.17-12.35L14.3 27.36l-.1.12Zm-6.46 8.84 2.45-2.46c.54.63 1.14 1.2 1.77 1.73l-1.05 3.74-.09.09a1 1 0 0 0-.1-.13l-2.98-2.97ZM42.36 7.95 39.5 5.07l4.74-1.47-1.87 4.35ZM9.3 40.7l.1.08-1.89 1.82-3.07-2.96 1.9-1.91L9.3 40.7Z"/></svg>