<svg aria-hidden="true" class="svg-spot spotThemeXL" width="196" height="196" viewBox="0 0 196 196"><path opacity=".07" d="M57.16 173.69c-3.79-.84-49.34-8.36-45.98-63.81 3.35-55.46 7.56-72.14 25.27-78.24C54.15 25.54 109.22-2.46 143 25c33.78 27.45 60.46 53.17 46 97-14.46 43.84-19.09 56.49-56.83 54.25-37.74-2.24-56.98 1.4-75-2.56z"/><path opacity=".2" d="M130.02 53.62a2 2 0 00-2.83 0L84 96.82v57.33l71.86-71.86a2 2 0 000-2.83l-25.84-25.84z"/><path d="M120.88 18.23l-8.49-8.48-8.49 8.48 8.49 8.49 8.48-8.49zm-8.49 2.83l-2.83-2.83 2.83-2.83 2.83 2.83-2.83 2.83zM157 168a2 2 0 10-4 0v4h-4a2 2 0 100 4h4v4a2 2 0 104 0v-4h4a2 2 0 100-4h-4v-4zM15 56a2 2 0 012 2v4h4a2 2 0 110 4h-4v4a2 2 0 11-4 0v-4H9a2 2 0 110-4h4v-4c0-1.1.9-2 2-2zm47.5 92a10.5 10.5 0 100-21 10.5 10.5 0 000 21zm0-4a6.5 6.5 0 110-13 6.5 6.5 0 010 13zM40 34a6 6 0 016-6h32a6 6 0 016 6v49.63l39.3-39.3a6 6 0 018.48 0l23 23.02a6 6 0 010 8.48L115.63 115H165a6 6 0 016 6v32a6 6 0 01-6 6H46a6 6 0 01-6-6V34zm44 112.62V153a6 6 0 01-.34 2H165a2 2 0 002-2v-32a2 2 0 00-2-2h-53.38L84 146.62zm0-5.66L151.96 73a2 2 0 000-2.82l-23.01-23.02a2 2 0 00-2.83 0L84 89.3v51.67zM46 32a2 2 0 00-2 2v119c0 1.1.9 2 2 2h32a2 2 0 002-2V34a2 2 0 00-2-2H46z"/></svg>