<svg aria-hidden="true" class="svg-spot spotThemeLg" width="96" height="96" viewBox="0 0 96 96"><path d="M65.65 20.8a2 2 0 00-2.83 0L33 50.64v40.12l49.88-49.88a2 2 0 000-2.83L65.65 20.8z"  fill-opacity=".2"/><path d="M17.5 87a8.5 8.5 0 100-17 8.5 8.5 0 000 17zm5.5-8.5a5.5 5.5 0 11-11 0 5.5 5.5 0 0111 0zM6.5 2A4.5 4.5 0 002 6.5v83A4.5 4.5 0 006.5 94h83a4.5 4.5 0 004.5-4.5v-22a4.5 4.5 0 00-4.5-4.5H55.62l26.86-26.87a4.5 4.5 0 000-6.36L66.67 13.95a4.5 4.5 0 00-6.37 0L33 41.25V6.5A4.5 4.5 0 0028.5 2h-22zM33 85.62L52.62 66H89.5c.83 0 1.5.67 1.5 1.5v22c0 .83-.67 1.5-1.5 1.5H32.74c.17-.47.26-.97.26-1.5v-3.88zm47.36-51.6L33 81.37V45.5l29.42-29.43a1.5 1.5 0 012.13 0L80.36 31.9a1.5 1.5 0 010 2.12zM5 6.5C5 5.67 5.67 5 6.5 5h22c.83 0 1.5.67 1.5 1.5v83c0 .83-.67 1.5-1.5 1.5h-22A1.5 1.5 0 015 89.5v-83z"/></svg>