<svg aria-hidden="true" class="svg-spot spotTheme" width="48" height="48" viewBox="0 0 48 48"><path opacity=".2" d="M16.83 45h.67l25.22-25.56a3 3 0 0 0 0-4.25l-5.07-5.07a3 3 0 0 0-4.24 0L17 26.52V44a3 3 0 0 1-.17 1Z"/><path d="M9 43a4 4 0 1 1 0-8 4 4 0 0 1 0 8Zm0-2a2 2 0 1 0 0-4 2 2 0 0 0 0 4Zm5-40H4a3 3 0 0 0-3 3v40a3 3 0 0 0 3 3h40a3 3 0 0 0 3-3V34a3 3 0 0 0-3-3H28.15l12.57-12.56a3 3 0 0 0 0-4.25l-7.07-7.07a3 3 0 0 0-4.24 0L17 19.52V4a3 3 0 0 0-3-3Zm30 44H16.83a3 3 0 0 0 .17-1v-1.85L26.15 33H44a1 1 0 0 1 1 1v10a1 1 0 0 1-1 1Zm-4.7-27.98L17 39.32V22.37L30.82 8.54a1 1 0 0 1 1.41 0l7.08 7.07a1 1 0 0 1 0 1.41ZM3 4a1 1 0 0 1 1-1h10a1 1 0 0 1 1 1v40a1 1 0 0 1-1 1H4a1 1 0 0 1-1-1V4Z"/></svg>