<svg aria-hidden="true" class="svg-spot spotThemeLg" width="96" height="96" viewBox="0 0 96 96"><path opacity=".2" d="M65.65 20.8a2 2 0 0 0-2.83 0L33 50.64v40.12l49.88-49.88a2 2 0 0 0 0-2.83L65.65 20.8Z"/><path d="M25 78.5a7.5 7.5 0 1 1-15 0 7.5 7.5 0 0 1 15 0Zm-3 0a4.5 4.5 0 1 0-9 0 4.5 4.5 0 0 0 9 0ZM2 6.5A4.5 4.5 0 0 1 6.5 2h22A4.5 4.5 0 0 1 33 6.5v34.76l27.3-27.3a4.5 4.5 0 0 1 6.37 0l15.81 15.81a4.5 4.5 0 0 1 0 6.36L55.62 63H89.5a4.5 4.5 0 0 1 4.5 4.5v22a4.5 4.5 0 0 1-4.5 4.5h-83A4.5 4.5 0 0 1 2 89.5v-83ZM52.62 66 33 85.62v3.88a4.5 4.5 0 0 1-.26 1.5H89.5c.83 0 1.5-.67 1.5-1.5v-22c0-.83-.67-1.5-1.5-1.5H52.62ZM33 81.38 80.36 34a1.5 1.5 0 0 0 0-2.12L64.55 16.07a1.5 1.5 0 0 0-2.13 0L33 45.5v35.88ZM6.5 5C5.67 5 5 5.67 5 6.5v83c0 .83.67 1.5 1.5 1.5h22c.83 0 1.5-.67 1.5-1.5v-83c0-.83-.67-1.5-1.5-1.5h-22Z"/></svg>