<svg aria-hidden="true" class="svg-spot spotThemeLg" width="96" height="96" viewBox="0 0 96 96"><path opacity=".2" d="M65.65 20.8a2 2 0 00-2.83 0L33 50.64v40.12l49.88-49.88a2 2 0 000-2.83L65.65 20.8z"/><path d="M25 78.5a7.5 7.5 0 11-15 0 7.5 7.5 0 0115 0zm-3 0a4.5 4.5 0 10-9 0 4.5 4.5 0 009 0zM2 6.5A4.5 4.5 0 016.5 2h22A4.5 4.5 0 0133 6.5v34.76l27.3-27.3a4.5 4.5 0 016.37 0l15.81 15.81a4.5 4.5 0 010 6.36L55.62 63H89.5a4.5 4.5 0 014.5 4.5v22a4.5 4.5 0 01-4.5 4.5h-83A4.5 4.5 0 012 89.5v-83zM52.62 66L33 85.62v3.88a4.5 4.5 0 01-.26 1.5H89.5c.83 0 1.5-.67 1.5-1.5v-22c0-.83-.67-1.5-1.5-1.5H52.62zM33 81.38L80.36 34a1.5 1.5 0 000-2.12L64.55 16.07a1.5 1.5 0 00-2.13 0L33 45.5v35.88zM6.5 5C5.67 5 5 5.67 5 6.5v83c0 .83.67 1.5 1.5 1.5h22c.83 0 1.5-.67 1.5-1.5v-83c0-.83-.67-1.5-1.5-1.5h-22z"/></svg>