<svg aria-hidden="true" class="svg-spot spotTrashMd" width="48" height="48" viewBox="0 0 48 48"><path d="M41 44V14a4 4 0 000-8H7a4 4 0 100 8v30a3 3 0 003 3h28a3 3 0 003-3zM7 12a2 2 0 110-4h34a2 2 0 110 4H7zm32 2v30a1 1 0 01-1 1H10a1 1 0 01-1-1V14h30z"/><path d="M11.06 4.8a1 1 0 001.37-.35A3 3 0 0115 3h18a3 3 0 012.57 1.45 1 1 0 101.71-1.03A5 5 0 0033 1H15a5 5 0 00-4.28 2.42 1 1 0 00.34 1.37zM18 39a1 1 0 11-2 0V20a1 1 0 112 0v19zm7 0a1 1 0 11-2 0V20a1 1 0 112 0v19zm7 0a1 1 0 11-2 0V20a1 1 0 112 0v19z" opacity=".5"/></svg>