<svg aria-hidden="true" class="svg-spot spotTrashMd" width="48" height="48" viewBox="0 0 48 48"><path d="M41 44V14a4 4 0 0 0 0-8H7a4 4 0 1 0 0 8v30a3 3 0 0 0 3 3h28a3 3 0 0 0 3-3zM7 12h34a2 2 0 1 0 0-4H7a2 2 0 1 0 0 4zm32 2H9v30a1 1 0 0 0 1 1h28a1 1 0 0 0 1-1V14z"/><path d="M11.06 4.8a1 1 0 0 0 1.37-.35A3 3 0 0 1 15 3h18a3 3 0 0 1 2.57 1.45 1 1 0 1 0 1.71-1.03A5 5 0 0 0 33 1H15a5 5 0 0 0-4.28 2.42 1 1 0 0 0 .34 1.37zM18 39a1 1 0 1 1-2 0V20a1 1 0 1 1 2 0v19zm7 0a1 1 0 1 1-2 0V20a1 1 0 1 1 2 0v19zm7 0a1 1 0 1 1-2 0V20a1 1 0 1 1 2 0v19z" opacity=".5"/></svg>