<svg aria-hidden="true" class="svg-spot spotTwo" width="36" height="36" viewBox="0 0 36 36"><path opacity=".2" d="M25 35a1 1 0 0 1-1 1H4.1a1 1 0 0 1-1-1v-2.86c0-.26.1-.5.27-.69l10-10.51c1.77-1.91 4.14-4.41 4.14-7.21 0-2.53-1.49-4.48-4.12-4.48-2.62 0-4.18 1.51-4.53 3.75-.08.55-.52 1-1.07 1H3.46c-.55 0-1-.45-.95-1 .53-5.46 5.4-8.76 10.99-8.76 5.54 0 10.34 2.9 10.34 8.89 0 4.08-2.79 7.5-5.41 10.35l-7.22 7.5H24a1 1 0 0 1 1 1V35Zm3.87-2.3c0-1.99 1.62-3.33 3.55-3.33 1.93 0 3.58 1.34 3.58 3.34 0 2.01-1.65 3.29-3.58 3.29-1.91 0-3.55-1.3-3.55-3.3Z"/><path d="M2.05 11H6.4a6 6 0 0 1 1.36-3.19 5.35 5.35 0 0 1 4.18-1.8c1.58 0 2.9.6 3.8 1.64a5.78 5.78 0 0 1 1.32 3.84c0 1.68-.71 3.2-1.58 4.5a27.25 27.25 0 0 1-2.83 3.38L3 30.12V33h19v-3.01H10.11a1 1 0 0 1-.74-1.67l6.85-7.74.01-.02c2.65-2.86 5.14-6.03 5.14-9.67a7.1 7.1 0 0 0-2.7-5.9C16.99 3.69 14.65 3 12.04 3c-5.17 0-9.46 3.19-9.99 8ZM0 12C0 5.26 5.7 1 12.04 1c2.93 0 5.75.77 7.86 2.41a9.1 9.1 0 0 1 3.47 7.48c0 4.5-3.06 8.2-5.66 11.02l-5.38 6.08H23a1 1 0 0 1 1 1V34a1 1 0 0 1-1 1H2a1 1 0 0 1-1-1v-4.26a1 1 0 0 1 .26-.67l9.9-11.04.01-.01.09-.1a25.7 25.7 0 0 0 2.55-3.05 6.2 6.2 0 0 0 1.24-3.38 3.8 3.8 0 0 0-.83-2.53 2.9 2.9 0 0 0-2.3-.94c-1.22 0-2.08.44-2.66 1.1A4.35 4.35 0 0 0 8.33 12a1 1 0 0 1-1 1H1a1 1 0 0 1-1-1Zm31.42 16.37c-1.48 0-2.55.99-2.55 2.34 0 1.33 1.07 2.29 2.55 2.29 1.51 0 2.58-.95 2.58-2.3 0-1.34-1.1-2.33-2.58-2.33Zm-4.55 2.34c0-2.65 2.17-4.34 4.55-4.34S36 28.05 36 30.71C36 33.4 33.78 35 31.42 35c-2.35 0-4.55-1.63-4.55-4.3Z"/></svg>