<svg aria-hidden="true" class="svg-spot spotUnlockLg" width="96" height="96" viewBox="0 0 96 96"><path d="M73.13 16.98a2.38 2.38 0 0 1 1.58 2.96l-2.06 6.75a2.38 2.38 0 0 1-4.55-1.38l2.07-6.75a2.37 2.37 0 0 1 2.96-1.58Zm14.34 8.76a2.37 2.37 0 1 0-2.94-3.73l-8.25 6.5a2.38 2.38 0 0 0 2.94 3.73l8.25-6.5Zm.15 15.38a2.38 2.38 0 0 0 .25-4.74L80.75 36a2.38 2.38 0 0 0-.25 4.75l7.12.37ZM15 45a3 3 0 0 1 3-3h55a5 5 0 0 1 5 5v38a5 5 0 0 1-5 5H20a5 5 0 0 1-5-5V45Zm32.52 26.45a93.34 93.34 0 0 1-1.72-7.83 9 9 0 1 0-9.6 0 93.34 93.34 0 0 1-1.72 7.83A2.04 2.04 0 0 0 36.45 74h9.1c1.33 0 2.3-1.27 1.97-2.55Z" opacity=".2"/><path d="M45.8 63.62a93.34 93.34 0 0 0 1.72 7.83A2.04 2.04 0 0 1 45.55 74h-9.1a2.04 2.04 0 0 1-1.97-2.55 91.3 91.3 0 0 0 1.72-7.83 9 9 0 1 1 9.6 0Zm-2.96.47a3 3 0 0 1 1.36-3.01 6 6 0 1 0-6.4 0 3 3 0 0 1 1.36 3.01A88.25 88.25 0 0 1 37.7 71h6.62a88.25 88.25 0 0 1-1.47-6.9ZM40.86 7.5A19.96 19.96 0 0 0 21 27.5V35h48.5a4.5 4.5 0 0 1 4.5 4.5v42a4.5 4.5 0 0 1-4.5 4.5h-57A4.5 4.5 0 0 1 8 81.5v-42a4.5 4.5 0 0 1 4.5-4.5H18v-7.5c0-12.67 10.25-23 22.86-23 10.96 0 20.36 7.8 22.62 18.18a1.5 1.5 0 0 1-2.93.64A20.27 20.27 0 0 0 40.86 7.5ZM11 39.5v42c0 .83.67 1.5 1.5 1.5h57c.83 0 1.5-.67 1.5-1.5v-42c0-.83-.67-1.5-1.5-1.5h-57c-.83 0-1.5.67-1.5 1.5Z"/></svg>