<svg aria-hidden="true" class="svg-spot spotUnlock" width="48" height="48" viewBox="0 0 48 48"><path opacity=".2" d="M10 24c0-1.1.9-2 2-2h26a4 4 0 014 4v17a4 4 0 01-4 4H14a4 4 0 01-4-4V24z"/><path d="M18 29a5 5 0 117.67 4.23l.05.35c.15.84.36 1.8.61 2.86A2.06 2.06 0 0124.35 39h-2.7a2.06 2.06 0 01-1.98-2.56c.29-1.2.52-2.3.66-3.2l-.19-.14A5 5 0 0118 29zm8 0a3 3 0 10-4.6 2.54l.13.09a2 2 0 01.78 1.92c-.16.97-.4 2.11-.7 3.36-.01.05.02.09.04.09h2.7c.02 0 .05-.04.04-.09-.3-1.25-.54-2.4-.7-3.36a2 2 0 01.9-2.01l.17-.1A3 3 0 0026 29zM22.93 5A10 10 0 0013 15.06V18h24a3 3 0 013 3v21a3 3 0 01-3 3H9a3 3 0 01-3-3V21a3 3 0 013-3h2v-2.94A12 12 0 0122.93 3c5.25 0 9.7 3.44 11.3 8.18a1 1 0 11-1.9.64A9.96 9.96 0 0022.93 5zM9 20a1 1 0 00-1 1v21a1 1 0 001 1h28a1 1 0 001-1V21a1 1 0 00-1-1H9z"/></svg>