<svg aria-hidden="true" class="svg-spot spotUnlockXL" width="196" height="196" viewBox="0 0 196 196"><path opacity=".07" d="M194.3 96c-6.87-44.13-19.33-62.45-30-68a108.1 108.1 0 0 1-9.18-5.49c-10.93-7.04-21.59-13.9-61.15-15.76C44.03 4.4 34.68 18.2 19.05 45.5 3.4 72.8-11.18 127.4 14.49 163c20.6 28.57 51.16 26.83 82.83 25.03 7.8-.45 15.67-.9 23.48-.9 52.41 0 80.37-47 73.5-91.13ZM33 81h102a7 7 0 0 1 7 7v71a7 7 0 0 1-7 7H33a7 7 0 0 1-7-7V88a7 7 0 0 1 7-7Z"/><path d="M143.11 48.79a3.5 3.5 0 0 1 1.78 4.62l-5.53 12.43a3.5 3.5 0 1 1-6.4-2.85l5.53-12.43a3.5 3.5 0 0 1 4.62-1.77Zm28.03 13.98a3.5 3.5 0 0 0-4.28-5.54l-18.7 14.46a3.5 3.5 0 1 0 4.28 5.53l18.7-14.45Zm3.24 28.53a3.5 3.5 0 0 0-1.3-6.88l-17.72 3.34a3.5 3.5 0 0 0 1.3 6.88l17.72-3.34ZM35 94a4 4 0 0 1 4-4h103a7 7 0 0 1 7 7v69a7 7 0 0 1-7 7H42a7 7 0 0 1-7-7V94Zm59.5 47.45c-.85-3.25-2.3-9-3.04-13.6A13.99 13.99 0 0 0 84 102a14 14 0 0 0-7.46 25.85 156.3 156.3 0 0 1-3.05 13.6 2.03 2.03 0 0 0 1.96 2.55h17.1c1.33 0 2.3-1.26 1.96-2.55Z" opacity=".2"/><path d="m131 9 4 4-4 4-4-4 4-4ZM13 44a2 2 0 0 1 2 2v4h4a2 2 0 1 1 0 4h-4v4a2 2 0 1 1-4 0v-4H7a2 2 0 1 1 0-4h4v-4c0-1.1.9-2 2-2Zm182 106.5-8.5-8.5-8.5 8.5 8.5 8.5 8.5-8.5Zm-8.5 2.83-2.83-2.83 2.83-2.83 2.83 2.83-2.83 2.83Zm-95.04-25.48a156.3 156.3 0 0 0 3.05 13.6 2.03 2.03 0 0 1-1.96 2.55h-17.1a2.03 2.03 0 0 1-1.96-2.55c.86-3.25 2.31-9 3.05-13.6A13.99 13.99 0 0 1 84 102a14 14 0 0 1 7.46 25.85Zm-3.95.63a4 4 0 0 1 1.82-4.01 10 10 0 1 0-10.66 0 4 4 0 0 1 1.82 4.01c-.6 3.77-1.65 8.2-2.49 11.52h12c-.84-3.32-1.88-7.75-2.49-11.52ZM47 58.3A37.33 37.33 0 0 1 84.25 21a37.33 37.33 0 0 1 37.25 37.3 2 2 0 1 0 4 0C125.5 35.55 107 17 84.25 17A41.33 41.33 0 0 0 43 58.3V81H33a7 7 0 0 0-7 7v71a7 7 0 0 0 7 7h102a7 7 0 0 0 7-7V88a7 7 0 0 0-7-7H47V58.3ZM33 85h102a3 3 0 0 1 3 3v71a3 3 0 0 1-3 3H33a3 3 0 0 1-3-3V88a3 3 0 0 1 3-3Z"/></svg>