<svg aria-hidden="true" class="svg-spot spotUnlockLg" width="96" height="96" viewBox="0 0 96 96"><path d="M74.7 19.94a2.38 2.38 0 00-4.53-1.38L68.1 25.3a2.37 2.37 0 104.55 1.38l2.06-6.75zm13.17 2.46a2.37 2.37 0 01-.4 3.34l-8.25 6.5a2.37 2.37 0 11-2.94-3.73l8.25-6.5a2.37 2.37 0 013.34.4zm-.25 18.72a2.38 2.38 0 00.25-4.74L80.75 36a2.38 2.38 0 00-.25 4.75l7.12.37zM18 42a3 3 0 00-3 3v40a5 5 0 005 5h53a5 5 0 005-5V47a5 5 0 00-5-5H18z" opacity=".2"/><path d="M45.8 63.62a93.34 93.34 0 001.72 7.83A2.04 2.04 0 0145.55 74h-9.1a2.04 2.04 0 01-1.97-2.55 91.3 91.3 0 001.72-7.83 9 9 0 119.6 0zm-2.96.47a3 3 0 011.36-3.01 6 6 0 10-6.4 0 3 3 0 011.36 3.01A88.25 88.25 0 0137.7 71h6.62a88.25 88.25 0 01-1.47-6.9zM40.86 7.5A19.96 19.96 0 0021 27.5V35h48.5a4.5 4.5 0 014.5 4.5v42a4.5 4.5 0 01-4.5 4.5h-57A4.5 4.5 0 018 81.5v-42a4.5 4.5 0 014.5-4.5H18v-7.5c0-12.67 10.25-23 22.86-23 10.96 0 20.36 7.8 22.62 18.18a1.5 1.5 0 01-2.93.64A20.27 20.27 0 0040.86 7.5zM11 39.5v42c0 .83.67 1.5 1.5 1.5h57c.83 0 1.5-.67 1.5-1.5v-42c0-.83-.67-1.5-1.5-1.5h-57c-.83 0-1.5.67-1.5 1.5z"/></svg>