<svg aria-hidden="true" class="svg-spot spotUnlockXL" width="196" height="196" viewBox="0 0 196 196"><path opacity=".07" d="M164.3 28c10.67 5.55 23.13 23.87 30 68 6.87 44.13-21.09 91.13-73.5 91.13-39.5 0-80.63 11.47-106.3-24.13-25.68-35.6-11.09-90.2 4.55-117.5C34.68 18.2 44.03 4.4 93.97 6.75 143.91 9.09 147.8 19.43 164.3 28z"/><path d="M144.89 53.4a3.5 3.5 0 10-6.4-2.84L132.97 63a3.5 3.5 0 006.4 2.85l5.52-12.43zm26.88 4.46a3.5 3.5 0 01-.63 4.9l-18.7 14.46a3.5 3.5 0 01-4.28-5.53l18.7-14.46a3.5 3.5 0 014.9.63zm2.61 33.44a3.5 3.5 0 00-1.3-6.88l-17.72 3.34a3.5 3.5 0 001.3 6.88l17.72-3.34zM39 90a4 4 0 00-4 4v72a7 7 0 007 7h100a7 7 0 007-7V97a7 7 0 00-7-7H39z" opacity=".2"/><path d="M131 9l4 4-4 4-4-4 4-4zM13 44a2 2 0 012 2v4h4a2 2 0 110 4h-4v4a2 2 0 11-4 0v-4H7a2 2 0 110-4h4v-4c0-1.1.9-2 2-2zm182 106.5l-8.5-8.5-8.5 8.5 8.5 8.5 8.5-8.5zm-8.5 2.83l-2.83-2.83 2.83-2.83 2.83 2.83-2.83 2.83zm-95.04-25.48a156.3 156.3 0 003.05 13.6 2.03 2.03 0 01-1.96 2.55h-17.1a2.03 2.03 0 01-1.96-2.55c.86-3.25 2.31-9 3.05-13.6A13.99 13.99 0 0184 102a14 14 0 017.46 25.85zm-3.95.63a4 4 0 011.82-4.01 10 10 0 10-10.66 0 4 4 0 011.82 4.01c-.6 3.77-1.65 8.2-2.49 11.52h12c-.84-3.32-1.88-7.75-2.49-11.52zM47 58.3A37.33 37.33 0 0184.25 21a37.33 37.33 0 0137.25 37.3 2 2 0 104 0C125.5 35.55 107 17 84.25 17A41.33 41.33 0 0043 58.3V81H33a7 7 0 00-7 7v71a7 7 0 007 7h102a7 7 0 007-7V88a7 7 0 00-7-7H47V58.3zM33 85h102a3 3 0 013 3v71a3 3 0 01-3 3H33a3 3 0 01-3-3V88a3 3 0 013-3z"/></svg>