<svg aria-hidden="true" class="svg-spot spotUserAddXL" width="196" height="196" viewBox="0 0 196 196"><path opacity=".07" d="M176.78 56.01c11.12 29.4 20.01 76.48-5.03 110.47-22.01 29.87-127.74 29.6-151.52-8.66-23.78-38.25-9.3-86.92 4.64-111.09 13.94-24.17 30.68-39.4 77.28-37.21 46.59 2.18 69.17 32.05 74.63 46.5Z"/><path d="M123.34 61.97a31 31 0 0 1-19.38 28.73c36.69 5.28 36.69 35.83 36.69 71.3H45c0-35 0-66.76 35.27-71.51a30.98 30.98 0 1 1 43.07-28.52Zm46.96 98.59a3.5 3.5 0 0 0 .85-6.94l-13.72-1.7a3.5 3.5 0 0 0-.86 6.95l13.72 1.7Zm7.22-29.32a3.5 3.5 0 0 1-1.26 4.78l-19.09 11.13a3.5 3.5 0 1 1-3.52-6.04l19.08-11.13a3.5 3.5 0 0 1 4.79 1.26Zm-21.03-2.57a3.5 3.5 0 0 0-6.15-3.34l-5.08 9.31a3.5 3.5 0 0 0 6.15 3.35l5.08-9.32Z" opacity=".2"/><path d="M85 22a33 33 0 0 0-12.44 63.58c-5.99.84-11.04 2.4-15.3 4.63-7.17 3.73-11.94 9.25-15.1 16-3.13 6.71-4.65 14.62-5.4 23.18-.76 8.55-.76 17.9-.76 27.55V159h68.1a2 2 0 1 0 0-4H40c0-8.97.05-17.47.74-25.26.74-8.36 2.2-15.74 5.05-21.84 2.83-6.05 7.02-10.86 13.31-14.14 6.33-3.3 14.94-5.13 26.69-4.9 16.27.3 26.54 4.1 33.12 10.15 6.6 6.06 9.82 14.7 11.36 25.44a2 2 0 1 0 3.96-.57c-1.6-11.15-5.04-20.85-12.6-27.81-5.75-5.29-13.69-8.82-24.53-10.36A33.01 33.01 0 0 0 85 22ZM56 55a29 29 0 1 1 58 0 29 29 0 0 1-58 0Zm-32-9a2 2 0 1 0-4 0v4h-4a2 2 0 1 0 0 4h4v4a2 2 0 1 0 4 0v-4h4a2 2 0 1 0 0-4h-4v-4Zm159 26 4 4-4 4-4-4 4-4Zm-51 65a2 2 0 1 0-4 0v12h-12a2 2 0 1 0 0 4h12v11a2 2 0 1 0 4 0v-11h12a2 2 0 1 0 0-4h-12v-12Zm-80.5 34 8.5 8.5-8.5 8.5-8.5-8.5 8.5-8.5Zm-2.83 8.5 2.83 2.83 2.83-2.83-2.83-2.83-2.83 2.83Z"/></svg>