<svg aria-hidden="true" class="svg-spot spotUserAddXL" width="222" height="220" viewBox="0 0 222 220"><path opacity=".07" d="M186.78 66.01c11.12 29.4 20.01 76.48-5.03 110.47-22.01 29.87-127.74 29.6-151.52-8.66-23.78-38.25-9.3-86.92 4.64-111.09 13.94-24.17 30.68-39.4 77.28-37.21 46.59 2.18 69.17 32.05 74.63 46.5z"/><path d="M133.34 71.97a31 31 0 01-19.38 28.73c36.69 5.28 36.69 35.83 36.69 71.3H55c0-35 0-66.76 35.27-71.51a30.98 30.98 0 1143.07-28.52zm46.96 98.59a3.5 3.5 0 00.85-6.94l-13.72-1.7a3.5 3.5 0 00-.86 6.95l13.72 1.7zm7.22-29.32a3.5 3.5 0 01-1.26 4.78l-19.09 11.13a3.5 3.5 0 11-3.52-6.04l19.08-11.13a3.5 3.5 0 014.79 1.26zm-21.03-2.57a3.5 3.5 0 00-6.15-3.34l-5.08 9.31a3.5 3.5 0 006.15 3.35l5.08-9.32z" opacity=".2"/><path d="M95 32a33 33 0 00-12.44 63.58c-5.99.84-11.04 2.4-15.3 4.63-7.17 3.73-11.94 9.25-15.1 16-3.13 6.71-4.65 14.62-5.4 23.18-.76 8.55-.76 17.9-.76 27.55V169h68.1a2 2 0 100-4H50c0-8.97.05-17.47.74-25.26.74-8.36 2.2-15.74 5.05-21.84 2.83-6.05 7.02-10.86 13.31-14.14 6.33-3.3 14.94-5.13 26.69-4.9 16.27.3 26.54 4.1 33.12 10.15 6.6 6.06 9.82 14.7 11.36 25.44a2 2 0 103.96-.57c-1.6-11.15-5.04-20.85-12.6-27.81-5.75-5.29-13.69-8.82-24.52-10.36A33.01 33.01 0 0095 32zM66 65a29 29 0 1158 0 29 29 0 01-58 0zm-32-9a2 2 0 10-4 0v4h-4a2 2 0 100 4h4v4a2 2 0 104 0v-4h4a2 2 0 100-4h-4v-4zm159 26l4 4-4 4-4-4 4-4zm-51 65a2 2 0 10-4 0v12h-12a2 2 0 100 4h12v11a2 2 0 104 0v-11h12a2 2 0 100-4h-12v-12zm-80.5 34l8.5 8.5-8.5 8.5-8.5-8.5 8.5-8.5zm-2.83 8.5l2.83 2.83 2.83-2.83-2.83-2.83-2.83 2.83z"/></svg>