<svg aria-hidden="true" class="svg-spot spotUserAddLg" width="96" height="96" viewBox="0 0 96 96"><path opacity=".2" d="M55.99 46.71a19.25 19.25 0 10-14.73-.13c-21.91 2.95-21.91 21.44-21.91 43.19h59.44c0-22.04 0-39.78-22.8-43.06z"/><path d="M53.87 43.54a21 21 0 10-20.06-.17c-2.83.56-5.3 1.4-7.46 2.52a20.83 20.83 0 00-9.5 10.01c-1.96 4.2-2.9 9.12-3.38 14.45-.47 5.3-.47 11.12-.47 17.1V89h42.5a1.5 1.5 0 100-3H16c0-5.48.04-10.65.46-15.39.46-5.17 1.36-9.7 3.11-13.43a17.8 17.8 0 018.16-8.62c3.1-1.61 7.11-2.65 12.3-2.93a21.1 21.1 0 007.47.08c8.18.6 13.54 2.81 17.1 6.1 4.04 3.7 6.03 9 6.98 15.65a1.5 1.5 0 002.97-.43c-1-6.95-3.15-13.05-7.91-17.43-3.14-2.9-7.3-4.94-12.77-6.06zM44 7a18 18 0 013.34 35.7 65.21 65.21 0 00-7.08-.09A18 18 0 0144 7zm28 68.5a1.5 1.5 0 00-3 0v6.51h-6.5a1.5 1.5 0 000 3H69v6.49a1.5 1.5 0 003 0v-6.49h6.5a1.5 1.5 0 100-3H72V75.5z"/></svg>