<svg aria-hidden="true" class="svg-spot spotUserAdd" width="48" height="48" viewBox="0 0 48 48"><path opacity=".2" d="M28.27 25.48a9.07 9.07 0 10-6.94-.06C11 26.82 11 35.52 11 45.78h28.01c0-10.39 0-18.75-10.74-20.3z"/><path d="M12 14.07a10 10 0 1114.7 8.82 12.5 12.5 0 016.07 2.91c2.32 2.13 3.35 5.08 3.82 8.4a1 1 0 11-1.98.28c-.44-3.1-1.37-5.52-3.2-7.2-1.81-1.7-4.71-2.78-9.41-2.88-3.4-.07-5.85.46-7.62 1.39a8.15 8.15 0 00-3.71 3.95A18.8 18.8 0 009.2 36a81.88 81.88 0 00-.2 6.95h18.36a1 1 0 110 2H7v-1.03c0-2.81 0-5.57.22-8.1.23-2.52.68-4.9 1.62-6.92a10.15 10.15 0 014.6-4.88 14 14 0 013.67-1.24 9.99 9.99 0 01-5.1-8.71zm10-8a8 8 0 100 16 8 8 0 000-16zM37 39a1 1 0 10-2 0v3h-3a1 1 0 100 2h3v3a1 1 0 102 0v-3h3a1 1 0 100-2h-3v-3z"/></svg>