<svg aria-hidden="true" class="svg-spot spotWaveLg" width="96" height="96" viewBox="0 0 96 96"><path d="M73.75 8.35a2.47 2.47 0 0 1 3.32 1.09l9.73 19.3a2.47 2.47 0 1 1-4.41 2.23l-9.73-19.3a2.47 2.47 0 0 1 1.1-3.32Zm-5.77 10.6c1.25-.56 2.71 0 3.27 1.24l4.17 9.27a2.47 2.47 0 0 1-4.5 2.03l-4.18-9.27c-.56-1.24 0-2.7 1.24-3.27ZM18 69a2.5 2.5 0 0 1 3.5-.1l8.34 7.88a2.47 2.47 0 1 1-3.4 3.6l-8.33-7.88c-1-.94-1.04-2.5-.1-3.5Zm-9.5 4.26c.94-1 2.5-1.04 3.5-.11L26.98 87.2a2.47 2.47 0 0 1-3.38 3.6L8.62 76.76c-1-.93-1.04-2.5-.11-3.49Zm26.47-1.35c5.78 7.37 13.7 17.46 25.04 17.46 3.3 0 6.72-.9 10.15-2.64C80.43 81.48 82.7 74.2 85.54 65.02l.5-1.61a349.7 349.7 0 0 0 4.86-16.97c1-3.23-.97-6.55-4.38-7.48a6.83 6.83 0 0 0-4.86.49 6 6 0 0 0-3.05 3.54l-3.27 11.27a.5.5 0 0 1-.44.34c-.24-.05-.42-.11-.5-.28L56.2 13.27c-1.63-2.72-4.73-3.68-7.29-2.37-2.73 1.4-3.32 3.7-1.78 7.02 1.55 3.36 9.01 23.9 10.25 27.5.1.28 0 .5-.23.62-.32.14-.52.01-.65-.18L37.7 15.53a5.2 5.2 0 0 0-6.9-1.95 4.53 4.53 0 0 0-2.36 2.8 4.67 4.67 0 0 0 .54 3.64L46.4 49.76c.12.22.05.48-.17.61-.34.18-.51.08-.66-.1l-17.8-21.86c-1-1.16-2.61-2.52-4.77-2.52-.85 0-1.7.21-2.54.64a3.64 3.64 0 0 0-2 2.39c-.3 1.27.12 2.78 1.17 4.14C21.1 34.95 35.2 54.6 38 58.51l.1.12c.13.19.1.45-.09.6a.54.54 0 0 1-.65.01L20 45.64c-1-.78-2.55-1.7-4.31-1.7-.77 0-1.51.17-2.2.52a2.87 2.87 0 0 0-1.32 1.96 3.9 3.9 0 0 0 .45 2.8c1.03 1.75 4.45 4.82 8.07 8.07h.01c4.02 3.62 8.57 7.7 11.87 11.62.7.83 1.44 1.77 2.4 3Z" opacity=".2"/><path d="M43.74 7.32c-3.43 1.76-4.29 4.84-2.6 8.72l.29.62c.8 1.86 2.84 7.24 4.92 12.86l1.91 5.21L34.48 12.5a6.7 6.7 0 0 0-8.85-2.5 6.02 6.02 0 0 0-3.13 3.74l-.07.28a6.2 6.2 0 0 0 .76 4.52l10.74 18.32-9.48-11.64c-1.6-1.88-3.56-3.07-5.93-3.07a7.1 7.1 0 0 0-3.22.8 5.13 5.13 0 0 0-2.77 3.37 6.4 6.4 0 0 0 1.26 5.17l.87 1.18a1574 1574 0 0 1 6.65 9.18l6 8.34.89 1.24-11.77-9.21a8.52 8.52 0 0 0-5.24-2.03c-1 0-1.98.24-2.88.7a4.27 4.27 0 0 0-2.1 2.98 5.4 5.4 0 0 0 .62 3.87l.12.2c.91 1.45 2.55 3.1 6.7 6.83l4.74 4.28.48.43c2.15 1.98 3.9 3.66 5.45 5.27a61.3 61.3 0 0 1 2.22 2.42l.69.82.52.64 2.62 3.32c4 5.04 6.37 7.67 9.6 10.36 4.89 4.1 9.98 6.32 15.56 6.32 3.55 0 7.2-.95 10.83-2.8 5.07-2.6 8.55-5.8 11.07-9.94l.28-.46c1.67-2.84 2.67-5.48 4.47-11.24l.8-2.57a343.05 343.05 0 0 0 4.88-17.05c1.24-3.97-1.2-8.14-5.42-9.3a8.33 8.33 0 0 0-5.95.6l-.27.15a7.46 7.46 0 0 0-3.53 4.28l-2.5 8.66-17.12-38.54-.08-.16c-2.01-3.36-5.95-4.62-9.25-2.94Zm6.55 4.28.08.13 18.18 40.95a1.9 1.9 0 0 0 1.36 1.1l.39.09.2-.01a2 2 0 0 0 1.8-1.43l3.26-11.26a4.48 4.48 0 0 1 2.3-2.63 5.33 5.33 0 0 1 3.78-.37c2.62.71 4.08 3.2 3.34 5.58l-.26 1a353.9 353.9 0 0 1-4.6 15.97l-1.07 3.42c-1.65 5.23-2.6 7.58-4.18 10.2-2.23 3.66-5.3 6.47-9.88 8.81a20.82 20.82 0 0 1-9.46 2.48c-4.8 0-9.25-1.95-13.64-5.62-2.95-2.46-5.17-4.9-8.86-9.54L30.2 66.9l-.87-1.06-.1-.13a61.54 61.54 0 0 0-2.75-3.03 119.76 119.76 0 0 0-5.09-4.94l-1.62-1.48-3.79-3.41c-4.21-3.8-5.88-5.46-6.56-6.62a2.4 2.4 0 0 1-.28-1.72c.11-.5.34-.84.54-.94a3.3 3.3 0 0 1 1.51-.37c1.12 0 2.3.53 3.39 1.39l17.37 13.6c.74.58 1.82.56 2.54-.04.78-.65.93-1.8.34-2.62l-.11-.15-15.93-22.13a404.3 404.3 0 0 0-1.99-2.73l-.46-.6c-.79-1.03-1.08-2.09-.9-2.88.15-.58.55-1.05 1.23-1.4a4.06 4.06 0 0 1 1.85-.48c1.34 0 2.56.74 3.63 2l17.79 21.83c.64.76 1.58.98 2.53.47.98-.6 1.3-1.76.74-2.69L25.78 17.02a3.18 3.18 0 0 1-.4-2.47c.23-.79.79-1.45 1.61-1.87a3.72 3.72 0 0 1 4.8 1.2L50.74 44.4c.53.84 1.54 1.2 2.53.76.98-.5 1.38-1.5 1.05-2.47l-.8-2.3c-2.58-7.23-8.01-21.91-9.4-25.1l-.12-.25c-1.22-2.64-.86-4.05 1.11-5.06 1.8-.91 3.95-.27 5.19 1.6Z"/></svg>