<svg aria-hidden="true" class="svg-spot spotWaveMd" width="48" height="48" viewBox="0 0 48 48"><path d="M37.09 18.86l-1 4.28-10.16-20-.06-.1C24.62 1.19 22.34.59 20.5 1.65c-1.94 1.13-2.31 2.99-1.15 5.2.43.82 2.07 4.55 3.6 8.13l-7.08-10.2a3.82 3.82 0 0 0-5.13-1.16c-.86.5-1.46 1.3-1.67 2.24-.21.93-.01 1.9.53 2.73l5.04 7.64-3.87-4.27a4.38 4.38 0 0 0-3.45-1.56c-.62.03-1.23.22-1.81.55a2.97 2.97 0 0 0-1.5 2.03c-.2 1.03.18 2.13.98 3.06a4319.52 4319.52 0 0 1 7.48 9.28l-5.6-3.93a4.8 4.8 0 0 0-3.02-.98 3.6 3.6 0 0 0-1.63.48A2.5 2.5 0 0 0 1.1 22.7a3.1 3.1 0 0 0 .47 2.22c.6.9 1.66 1.83 4.82 4.38l2.15 1.74a59.64 59.64 0 0 1 3.53 3.12 29.25 29.25 0 0 1 2.37 2.55c2.71 3.11 4.15 4.6 6.15 6.1 2.8 2.1 5.67 3.18 8.75 3.02a13.2 13.2 0 0 0 5.89-1.86c4.89-2.83 6.34-5.53 8.2-12.85l.22-.89c.94-3.67 1.68-6.99 2.17-9.4a4.23 4.23 0 0 0-3.36-5.12 4.71 4.71 0 0 0-3.34.52 4.26 4.26 0 0 0-2.02 2.63zM21.13 5.9c-.7-1.31-.56-1.98.39-2.53.88-.5 1.98-.23 2.65.73l11.04 21.72c.23.45.55.6 1 .67a1 1 0 0 0 .27.01c.53-.06.98-.44 1.1-.97l1.45-6.2c.14-.56.52-1.06 1.08-1.38a2.71 2.71 0 0 1 1.92-.3c1.34.3 2.14 1.5 1.83 2.72a191.7 191.7 0 0 1-2.16 9.36l-.22.89c-1.74 6.84-2.96 9.12-7.27 11.6a11.1 11.1 0 0 1-4.98 1.6c-4.6.24-7.85-2.2-13.3-8.43l-1.4-1.59-1.08-1.09A61.55 61.55 0 0 0 9.8 29.5l-2.16-1.76c-2.89-2.33-3.99-3.28-4.4-3.92a1.12 1.12 0 0 1-.18-.8c.04-.22.12-.37.17-.4.23-.13.48-.2.74-.21.55-.03 1.17.2 1.76.62l9.82 6.9c.48.34 1.17.29 1.6-.12.48-.44.54-1.17.13-1.68l-.06-.08a4854.82 4854.82 0 0 0-10.7-13.31c-.43-.5-.6-1.01-.53-1.39.05-.26.22-.48.53-.67.31-.18.62-.27.91-.29.66-.03 1.3.31 1.88.93L19.6 24.67c.43.46 1.04.57 1.62.22.6-.42.77-1.17.39-1.74L11.28 7.49c-.25-.4-.34-.81-.25-1.2.08-.38.34-.71.73-.94a1.83 1.83 0 0 1 2.46.55l11.09 15.96a1.27 1.27 0 0 0 2.21-1.2 395.82 395.82 0 0 0-6.4-14.75z"/><path opacity=".5" d="M33.14 1.81a1 1 0 0 0 .67 1.25c5.36 1.57 8.95 5 10.84 10.37a1 1 0 1 0 1.89-.67C44.44 6.8 40.35 2.9 34.38 1.14a1 1 0 0 0-1.24.67zm.08 4.8a1 1 0 0 0 .4 1.36c2.8 1.54 4.45 3.2 5.03 4.94a1 1 0 1 0 1.9-.63c-.76-2.29-2.77-4.3-5.97-6.06a1 1 0 0 0-1.36.4zM14.58 40.22a1 1 0 1 1-.97 1.75c-3.2-1.76-5.2-3.77-5.96-6.06a1 1 0 0 1 1.9-.63c.57 1.74 2.23 3.4 5.03 4.94zm.48 6.16a1 1 0 0 0-.68-1.24c-5.36-1.58-8.95-5.01-10.84-10.38a1 1 0 0 0-1.89.67c2.1 5.97 6.19 9.87 12.16 11.63a1 1 0 0 0 1.25-.68z"/></svg>