<svg aria-hidden="true" class="svg-spot spotWaveXL" width="196" height="196" viewBox="0 0 196 196"><path opacity=".07" d="M57.16 173.69c-3.79-.84-49.34-8.36-45.98-63.81 3.35-55.46 7.56-72.14 25.27-78.24 17.7-6.1 60.75-34.98 94.53-7.52 33.78 27.45 70.23 52.07 55.76 95.9-14.46 43.84-16.83 58.47-54.57 56.23-37.74-2.24-56.98 1.4-75-2.56z"/><path d="M134.79 40.32c1.8-.9 3.98-.18 4.89 1.62l14.35 28.47a3.64 3.64 0 11-6.51 3.28l-14.35-28.47a3.64 3.64 0 011.62-4.9zm-8.51 15.65c1.83-.83 3.99 0 4.81 1.83l6.15 13.66a3.65 3.65 0 01-6.64 3l-6.15-13.67c-.83-1.84-.01-4 1.83-4.82zm-75.14 73.82a3.64 3.64 0 015.15-.15l12.3 11.62a3.64 3.64 0 11-5 5.3l-12.3-11.62a3.64 3.64 0 01-.15-5.15zm-15.27 7.3a3.64 3.64 0 015.15-.17l22.1 20.73a3.64 3.64 0 11-5 5.31l-22.08-20.72a3.64 3.64 0 01-.17-5.16zm41.72-3.02c8.53 10.86 20.21 25.74 36.93 25.74 4.87 0 9.91-1.3 14.97-3.9 15.15-7.74 18.47-18.45 22.67-32l.74-2.38a515.59 515.59 0 007.17-25.03c1.48-4.75-1.43-9.65-6.45-11.02-2.4-.66-5-.4-7.18.71a8.84 8.84 0 00-4.5 5.22l-4.81 16.63a.74.74 0 01-.66.5c-.35-.08-.6-.16-.72-.42l-26.87-60.54c-2.4-4.01-6.97-5.42-10.74-3.5-4.04 2.07-4.9 5.46-2.64 10.36 2.3 4.96 13.3 35.24 15.13 40.57.14.4-.01.73-.34.9-.47.2-.78.02-.96-.27L81.6 50.92a7.68 7.68 0 00-10.17-2.88 6.7 6.7 0 00-3.49 4.14 6.89 6.89 0 00.8 5.36l25.71 43.87c.2.31.09.7-.23.89-.5.27-.76.12-.98-.14L66.98 69.91c-1.46-1.7-3.85-3.72-7.03-3.72a8.2 8.2 0 00-3.74.95 5.37 5.37 0 00-2.95 3.52c-.45 1.88.17 4.1 1.72 6.12 2.15 2.78 22.94 31.75 27.08 37.53l.13.17c.2.28.15.66-.11.88a.8.8 0 01-.96.02L55.5 95.32c-1.47-1.15-3.76-2.51-6.36-2.51-1.14 0-2.23.26-3.25.78-.93.47-1.65 1.56-1.94 2.9a5.74 5.74 0 00.66 4.11c1.52 2.59 6.56 7.11 11.9 11.9l.02.02c5.93 5.32 12.64 11.34 17.51 17.12 1.03 1.22 2.12 2.6 3.55 4.43z" opacity=".2"/><path d="M128.88 16.23l-8.49-8.48-8.49 8.48 8.49 8.49 8.48-8.49zm-8.49 2.83l-2.83-2.83 2.83-2.83 2.83 2.83-2.83 2.83zM15 52a2 2 0 10-4 0v4H7a2 2 0 100 4h4v4a2 2 0 104 0v-4h4a2 2 0 100-4h-4v-4zm169.95 16.04l-4.24-4.24-4.25 4.24 4.25 4.25 4.24-4.25zM91.48 39c-4.97 2.55-6.18 7-3.68 12.66l.2.44.25.58c1.58 3.72 6 15.52 9.72 25.7l1 2.72-21.42-34.54a9.66 9.66 0 00-8.32-4.68c-1.54 0-3.08.37-4.46 1.08a8.67 8.67 0 00-4.5 5.38l-.08.3a8.92 8.92 0 001.08 6.6l17.23 29.4-15.72-19.3c-2.32-2.72-5.16-4.45-8.58-4.45-1.57 0-3.14.4-4.65 1.17a7.35 7.35 0 00-3.98 4.82c-.58 2.43.13 5.15 1.88 7.54l1.08 1.44 2.78 3.82 9.5 13.17 8.7 12.1-18.53-14.5c-2.28-1.8-4.84-2.94-7.59-2.94-1.45 0-2.85.33-4.15 1a6.1 6.1 0 00-2.99 4.25c-.4 1.9-.09 3.87.9 5.55l.21.35c1.37 2.16 3.88 4.64 10.21 10.36l5.3 4.76 1.98 1.8 1.17 1.08c2.66 2.47 4.9 4.63 6.89 6.7a90.97 90.97 0 013.86 4.27l.85 1.03.88 1.09 3.36 4.27c5.88 7.4 9.36 11.27 14.1 15.23 7.18 6 14.64 9.26 22.81 9.26 5.2 0 10.55-1.4 15.88-4.11 7.45-3.81 12.54-8.5 16.24-14.57l.31-.52c2.5-4.2 3.97-8.04 6.63-16.5l1.5-4.85a506.1 506.1 0 006.78-23.7l.14-.53-.02.06c1.82-5.84-1.72-11.88-7.83-13.55a12.08 12.08 0 00-8.61.87l-.3.16a10.8 10.8 0 00-5.2 6.24l-3.86 13.33-25.52-57.48-.06-.11c-2.91-4.86-8.6-6.68-13.37-4.25zm9.8 6.08l.08.13 26.82 60.42c.25.56.66.97 1.18 1.24.3.16.58.24.94.32l.27.06.28-.02a2.74 2.74 0 002.46-1.95l4.8-16.61a6.83 6.83 0 013.5-4 8.08 8.08 0 015.74-.57c3.89 1.07 6.1 4.72 5.13 8.28l-.1.32-.6 2.36a516.93 516.93 0 01-6.53 22.57l-1.38 4.43c-2.57 8.17-3.97 11.71-6.4 15.69-3.3 5.44-7.84 9.6-14.64 13.08-4.78 2.45-9.51 3.68-14.06 3.68-7.13 0-13.73-2.89-20.25-8.33l-.58-.49c-4.29-3.66-7.64-7.45-13.35-14.67l-2.9-3.67a59.84 59.84 0 00-1.75-2.16l-.11-.14a90.66 90.66 0 00-4.04-4.46 171.92 171.92 0 00-7.05-6.86l-2.44-2.24-6.66-6c-5.75-5.2-8.07-7.53-9.05-9.2a3.74 3.74 0 01-.43-2.7c.17-.78.55-1.34.9-1.52a5.06 5.06 0 012.33-.56c1.7 0 3.48.8 5.13 2.08l25.62 20.06c1 .8 2.49.77 3.47-.06a2.65 2.65 0 00.46-3.58l-.15-.2-20.58-28.63c-3.43-4.74-5.66-7.8-6.42-8.8l-.1-.13c-1.2-1.56-1.66-3.19-1.36-4.42.22-.92.85-1.67 1.91-2.2a6.2 6.2 0 012.83-.74c2.04 0 3.9 1.13 5.51 3.02l26.24 32.21a2.66 2.66 0 003.46.64l.1-.06a2.64 2.64 0 00.92-3.61L64.72 53.22a4.9 4.9 0 01-.6-3.8 4.68 4.68 0 012.48-2.9 5.7 5.7 0 017.4 1.9l27.89 44.97a2.68 2.68 0 003.46 1.05l.11-.06c1.23-.63 1.77-2 1.32-3.32l-.74-2.12c-3.54-10.05-12.1-33.2-14.27-38.2l-.2-.44c-1.84-3.99-1.28-6.2 1.73-7.73 2.78-1.42 6.1-.41 7.98 2.5z"/></svg>