<svg aria-hidden="true" class="svg-spot spotWaveXL" width="196" height="196" viewBox="0 0 196 196"><path opacity=".07" d="m56.69 173.59.47.1c9.98 2.2 28.15 4.99 41.8 4.81 11.02-.15 16.37-3.25 33.21-2.25 35.52 2.1 39.7-10.72 52.14-48.78l2.43-7.44c13.36-40.48-16.7-64.58-47.99-89.65-2.59-2.08-5.19-4.16-7.77-6.26-27.8-22.6-61.88-7.04-82.94 2.58-4.53 2.07-8.46 3.86-11.6 4.94-17.7 6.1-21.91 22.78-25.26 78.24-3.25 53.72 39.4 62.46 45.5 63.7ZM87.8 51.66C85.3 46 86.5 41.55 91.48 39c4.77-2.43 10.46-.6 13.37 4.25l.06.1 25.52 57.49 3.86-13.33a10.8 10.8 0 0 1 5.2-6.24l.3-.16a12.08 12.08 0 0 1 8.61-.87c6.1 1.67 9.64 7.68 7.84 13.52l-.13.5a506.1 506.1 0 0 1-6.77 23.7l-1.51 4.84c-2.66 8.47-4.13 12.3-6.63 16.51l-.3.52c-3.7 6.08-8.8 10.76-16.25 14.56-5.33 2.73-10.67 4.12-15.88 4.12-8.17 0-15.63-3.26-22.81-9.26-4.74-3.96-8.22-7.82-14.1-15.23l-3.36-4.27-.88-1.1-.85-1.02a86.55 86.55 0 0 0-3.86-4.27c-2-2.07-4.23-4.23-6.9-6.7l-1.16-1.08a359.1 359.1 0 0 0-1.98-1.8l-5.3-4.76c-6.33-5.72-8.84-8.2-10.21-10.36l-.22-.35a7.74 7.74 0 0 1-.89-5.55 6.1 6.1 0 0 1 2.99-4.25c1.3-.67 2.7-1 4.15-1 2.75 0 5.3 1.14 7.6 2.93l18.52 14.5-8.7-12.09-9.5-13.17-2.78-3.82-1.08-1.44c-1.75-2.4-2.46-5.1-1.88-7.54a7.35 7.35 0 0 1 3.98-4.82 10.2 10.2 0 0 1 4.65-1.17c3.42 0 6.26 1.73 8.58 4.46l15.72 19.3-17.23-29.4a8.92 8.92 0 0 1-1.08-6.61l.08-.3a8.67 8.67 0 0 1 4.5-5.38 9.81 9.81 0 0 1 4.46-1.08 9.66 9.66 0 0 1 8.32 4.68L98.97 81.1l-1-2.72a879.05 879.05 0 0 0-9.72-25.7L88 52.1l-.2-.44Z"/><path d="M134.79 40.32c1.8-.9 3.98-.18 4.89 1.62l14.35 28.47a3.64 3.64 0 1 1-6.51 3.28l-14.35-28.47a3.64 3.64 0 0 1 1.62-4.9Zm-8.51 15.65c1.83-.83 3.99 0 4.81 1.83l6.15 13.66a3.65 3.65 0 0 1-6.64 3l-6.15-13.67c-.83-1.84-.01-4 1.83-4.82Zm-75.14 73.82a3.64 3.64 0 0 1 5.15-.15l12.3 11.62a3.64 3.64 0 1 1-5 5.3l-12.3-11.62a3.64 3.64 0 0 1-.15-5.15Zm-15.27 7.3a3.64 3.64 0 0 1 5.15-.17l22.1 20.73a3.64 3.64 0 1 1-5 5.31l-22.08-20.72a3.64 3.64 0 0 1-.17-5.16Zm41.72-3.02c8.53 10.86 20.21 25.74 36.93 25.74 4.87 0 9.91-1.3 14.97-3.9 15.15-7.74 18.47-18.45 22.67-32l.74-2.38a515.59 515.59 0 0 0 7.17-25.03c1.48-4.75-1.43-9.65-6.45-11.02-2.4-.66-5-.4-7.18.71a8.84 8.84 0 0 0-4.5 5.22l-4.81 16.63a.74.74 0 0 1-.66.5c-.35-.08-.6-.16-.72-.42l-26.87-60.54c-2.4-4.01-6.97-5.42-10.74-3.5-4.04 2.07-4.9 5.46-2.64 10.36 2.3 4.96 13.3 35.24 15.13 40.57.14.4-.01.73-.34.9-.47.2-.78.02-.96-.27L81.6 50.92a7.68 7.68 0 0 0-10.17-2.88 6.7 6.7 0 0 0-3.49 4.14 6.89 6.89 0 0 0 .8 5.36l25.71 43.87c.2.31.09.7-.23.89-.5.27-.76.12-.98-.14L66.98 69.91c-1.46-1.7-3.85-3.72-7.03-3.72a8.2 8.2 0 0 0-3.74.95 5.37 5.37 0 0 0-2.95 3.52c-.45 1.88.17 4.1 1.72 6.12 2.15 2.78 22.94 31.75 27.08 37.53l.13.17c.2.28.15.66-.11.88a.8.8 0 0 1-.96.02L55.5 95.32c-1.47-1.15-3.76-2.51-6.36-2.51-1.14 0-2.23.26-3.25.78-.93.47-1.65 1.56-1.94 2.9a5.74 5.74 0 0 0 .66 4.11c1.52 2.59 6.56 7.11 11.9 11.9l.02.02c5.93 5.32 12.64 11.34 17.51 17.12 1.03 1.22 2.12 2.6 3.55 4.43Z" opacity=".2"/><path d="m128.88 16.23-8.49-8.48-8.49 8.48 8.49 8.49 8.48-8.49Zm-8.49 2.83-2.83-2.83 2.83-2.83 2.83 2.83-2.83 2.83ZM15 52a2 2 0 1 0-4 0v4H7a2 2 0 1 0 0 4h4v4a2 2 0 0 0 4 0v-4h4a2 2 0 0 0 0-4h-4v-4Zm165.7 11.8 4.25 4.24-4.24 4.25-4.25-4.25 4.25-4.24ZM87.8 51.66C85.3 46 86.5 41.55 91.48 39c4.77-2.43 10.46-.6 13.37 4.25l.06.1 25.52 57.49 3.86-13.33a10.8 10.8 0 0 1 5.2-6.24l.3-.16a12.08 12.08 0 0 1 8.61-.87c6.1 1.67 9.64 7.68 7.84 13.52l-.13.5a506.1 506.1 0 0 1-6.77 23.7l-1.51 4.84c-2.66 8.47-4.13 12.3-6.63 16.51l-.3.52c-3.7 6.08-8.8 10.76-16.25 14.56-5.33 2.73-10.67 4.12-15.88 4.12-8.17 0-15.63-3.26-22.81-9.26-4.74-3.96-8.22-7.82-14.1-15.23l-3.36-4.27-.88-1.1-.85-1.02a86.55 86.55 0 0 0-3.86-4.27c-2-2.07-4.23-4.23-6.9-6.7l-1.16-1.08-1.98-1.8-5.3-4.76c-6.33-5.72-8.84-8.2-10.21-10.36l-.22-.35a7.74 7.74 0 0 1-.89-5.55 6.1 6.1 0 0 1 2.99-4.25c1.3-.67 2.7-1 4.15-1 2.75 0 5.3 1.14 7.6 2.93l18.52 14.5-8.7-12.09-9.5-13.17-2.78-3.82-1.08-1.44c-1.75-2.4-2.46-5.1-1.88-7.54a7.35 7.35 0 0 1 3.98-4.82 10.2 10.2 0 0 1 4.65-1.17c3.42 0 6.26 1.73 8.58 4.46l15.72 19.3-17.23-29.4a8.92 8.92 0 0 1-1.08-6.61l.08-.3a8.67 8.67 0 0 1 4.5-5.38 9.81 9.81 0 0 1 4.46-1.08 9.66 9.66 0 0 1 8.32 4.68L98.97 81.1l-1-2.72a879.05 879.05 0 0 0-9.72-25.7L88 52.1l-.2-.44Zm13.56-6.45-.08-.13c-1.89-2.92-5.2-3.93-7.98-2.51-3 1.54-3.57 3.74-1.73 7.73l.2.44c2.17 5 10.73 28.15 14.27 38.2l.74 2.12a2.69 2.69 0 0 1-1.32 3.32l-.11.06c-1.37.6-2.75.11-3.46-1.05l-27.9-44.97a5.7 5.7 0 0 0-7.4-1.9 4.68 4.68 0 0 0-2.47 2.9 4.9 4.9 0 0 0 .6 3.8L90.43 97.1a2.64 2.64 0 0 1-.91 3.61l-.1.06c-1.31.7-2.6.4-3.47-.64L59.7 67.91c-1.6-1.89-3.47-3.02-5.5-3.02a6.2 6.2 0 0 0-2.84.73 3.38 3.38 0 0 0-1.9 2.2c-.3 1.24.15 2.87 1.35 4.43l.1.13c.76 1 3 4.06 6.42 8.8l20.58 28.62.15.21c.82 1.14.61 2.7-.46 3.58a2.8 2.8 0 0 1-3.47.06L48.52 93.6c-1.65-1.29-3.42-2.08-5.13-2.08-.82 0-1.6.18-2.33.56-.35.18-.73.74-.9 1.53-.2.92-.04 1.88.43 2.69.98 1.67 3.3 4 9.05 9.2l6.66 6 2.44 2.24c2.71 2.51 5 4.73 7.05 6.86a90.6 90.6 0 0 1 4.04 4.46l.11.14c.53.62 1.04 1.25 1.76 2.16l2.9 3.67c5.7 7.22 9.05 11 13.34 14.67l.58.49c6.52 5.44 13.12 8.33 20.25 8.33 4.55 0 9.28-1.23 14.06-3.68 6.8-3.47 11.34-7.64 14.65-13.08 2.42-3.98 3.82-7.52 6.39-15.7l1.38-4.42a516.93 516.93 0 0 0 6.52-22.57l.61-2.36.1-.32c.97-3.56-1.24-7.21-5.13-8.28-1.92-.52-4-.31-5.74.57a6.83 6.83 0 0 0-3.5 4l-4.8 16.61a2.74 2.74 0 0 1-2.46 1.95l-.28.02-.27-.06a3.54 3.54 0 0 1-.94-.32 2.55 2.55 0 0 1-1.18-1.24L101.36 45.2Z"/></svg>