<svg width="196" height="196" viewBox="0 0 196 196" fill="none" xmlns="http://www.w3.org/2000/svg">
<path opacity="0.04" d="M57.1629 181.22C53.3719 180.385 7.82349 172.866 11.1762 117.408C14.529 61.9504 18.7376 45.2724 36.4462 39.1707C54.1548 33.069 97.2013 4.19626 130.98 31.6496C164.759 59.1029 201.208 83.7258 186.744 127.561C172.28 171.396 169.911 186.018 132.173 183.781C94.4338 181.544 75.1893 185.189 57.1629 181.22Z" fill="#0054A3"/>
<path opacity="0.5" fill-rule="evenodd" clip-rule="evenodd" d="M85.746 142H119.254C119.73 143.839 121.167 145.294 123 145.804V158.196C121.167 158.706 119.73 160.161 119.254 162H85.746C85.2702 160.161 83.8334 158.706 82 158.196V145.804C83.8334 145.294 85.2702 143.839 85.746 142Z" fill="#ADDAFC"/>
<path d="M92 146C92 145.448 92.4477 145 93 145H107C107.552 145 108 145.448 108 146C108 146.552 107.552 147 107 147H93C92.4477 147 92 146.552 92 146Z" fill="#0077CC"/>
<path d="M89 151C88.4477 151 88 151.448 88 152C88 152.552 88.4477 153 89 153H110C110.552 153 111 152.552 111 152C111 151.448 110.552 151 110 151H89Z" fill="#0077CC"/>
<path fill-rule="evenodd" clip-rule="evenodd" d="M82.0499 138.845C82.1263 138.358 82.5454 138 83.0378 138H115.962C116.455 138 116.874 138.358 116.95 138.845C117.215 140.531 118.514 141.92 120.242 142.35C120.687 142.461 121 142.861 121 143.32V155.549C121 156.008 120.687 156.409 120.242 156.52C118.762 156.888 117.592 157.963 117.124 159.325C116.985 159.729 116.605 160 116.178 160H82.8218C82.3949 160 82.015 159.729 81.8762 159.325C81.4079 157.963 80.2382 156.888 78.7584 156.52C78.3128 156.409 78 156.008 78 155.549V143.32C78 142.861 78.3128 142.461 78.7584 142.35C80.4857 141.92 81.7854 140.531 82.0499 138.845ZM83.831 140C83.2595 141.864 81.8275 143.353 80 144.052V154.817C81.5341 155.404 82.7877 156.546 83.4896 158H115.51C116.212 156.546 117.466 155.404 119 154.817V144.052C117.172 143.353 115.74 141.864 115.169 140H83.831Z" fill="#0077CC"/>
<path fill-rule="evenodd" clip-rule="evenodd" d="M143.908 84.2005C143.967 84.0729 144 83.9308 144 83.781V35.3C144 33.4775 142.523 32 140.7 32H57.3C55.4775 32 54 33.4775 54 35.3V83.781C54 83.9308 54.033 84.0729 54.092 84.2005C55.378 101.403 69.9472 115.362 88.9811 119.046C87.9922 125.446 87.0209 128.743 86.1185 130.428C85.6732 131.259 85.2858 131.617 84.9961 131.786C84.7179 131.949 84.4254 131.999 84.0126 132H65.7549C63.9849 132 62.4254 133.163 61.9209 134.86L53.2541 164H50.0154C48.8507 164 47.7912 164.674 47.2979 165.729L44.9599 170.729C44.0297 172.718 45.4816 175 47.6774 175H152.329C154.503 175 155.955 172.759 155.067 170.774L152.828 165.774C152.344 164.695 151.272 164 150.09 164H146.746L138.079 134.86C137.575 133.163 136.015 132 134.245 132H114.004L114.002 132C113.989 131.997 113.857 131.971 113.601 131.704C113.323 131.416 113.01 130.96 112.678 130.34C112.018 129.108 111.384 127.426 110.827 125.694C110.274 123.972 109.811 122.245 109.486 120.945C109.323 120.296 109.196 119.755 109.109 119.378C109.093 119.304 109.077 119.237 109.064 119.177L109.034 119.043C128.06 115.355 142.622 101.399 143.908 84.2005ZM83.9944 134L84 134L84.0151 134H134.245C135.13 134 135.91 134.582 136.162 135.43L144.659 164H55.3407L63.8379 135.43C64.0902 134.582 64.8699 134 65.7549 134H83.9944ZM87.5108 132C87.6374 131.807 87.7608 131.598 87.8815 131.372C88.9566 129.365 89.9631 125.777 90.952 119.388C93.5658 119.79 96.2558 120 99 120C101.749 120 104.443 119.79 107.061 119.386C107.084 119.491 107.117 119.639 107.16 119.825C107.249 120.213 107.38 120.767 107.545 121.43C107.877 122.755 108.351 124.528 108.923 126.306C109.491 128.074 110.169 129.892 110.915 131.285C111.048 131.532 111.186 131.772 111.329 132H87.5108ZM57.3 34H140.7C141.418 34 142 34.582 142 35.3V40H56V35.3C56 34.582 56.582 34 57.3 34ZM142 42V83.4249C141.965 83.5165 141.943 83.6146 141.937 83.7171C140.724 102.688 122.106 118 99 118C75.8942 118 57.2761 102.688 56.0633 83.7171C56.0567 83.6146 56.0349 83.5165 56 83.4249V42H142ZM49.1096 166.576C49.274 166.225 49.6272 166 50.0154 166H150.09C150.484 166 150.841 166.232 151.002 166.591L153.241 171.591C153.537 172.253 153.053 173 152.329 173H47.6774C46.9455 173 46.4615 172.239 46.7716 171.576L49.1096 166.576Z" fill="#0077CC"/>
<path d="M51.9999 45C51.9999 44.4477 51.5522 44 50.9999 44H36.9999C36.7347 44 36.4803 44.1054 36.2928 44.2929C36.1052 44.4804 35.9999 44.7348 35.9999 45V67.3333C35.9999 75.0202 39.7161 79.4761 43.4437 81.9708C45.2906 83.2068 47.1308 83.9577 48.5061 84.4002C49.1953 84.6219 49.7723 84.7677 50.1812 84.8586C50.3857 84.9041 50.5486 84.936 50.6629 84.9569C50.72 84.9673 50.7651 84.975 50.7971 84.9803L50.8353 84.9865L50.847 84.9882L50.8509 84.9888L50.8523 84.9891C50.8523 84.9891 50.8535 84.9892 50.9999 84L50.8535 84.9892C51.3998 85.0701 51.9083 84.6927 51.9891 84.1464C52.0699 83.6004 51.6931 83.0922 51.1472 83.0109L51.1441 83.0104L51.1223 83.0069C51.1014 83.0035 51.0678 82.9978 51.0224 82.9895C50.9316 82.9729 50.7937 82.946 50.6155 82.9063C50.2587 82.827 49.7419 82.6968 49.1187 82.4963C47.869 82.0942 46.2092 81.415 44.5561 80.3087C41.2837 78.1187 37.9999 74.2413 37.9999 67.3333V46H50.9999C51.5522 46 51.9999 45.5523 51.9999 45Z" fill="#0077CC"/>
<path d="M147 44H161C161.265 44 161.52 44.1054 161.707 44.2929C161.895 44.4804 162 44.7348 162 45V67.3333C162 75.0202 158.284 79.4761 154.556 81.9708C152.709 83.2068 150.869 83.9577 149.494 84.4002C148.805 84.6219 148.228 84.7677 147.819 84.8586C147.614 84.9041 147.451 84.936 147.337 84.9569L147.289 84.9655C147.254 84.9717 147.225 84.9766 147.203 84.9803L147.165 84.9865L147.153 84.9882L147.149 84.9888L147.148 84.9891C147.148 84.9891 147.146 84.9892 147 84L147.146 84.9892C146.6 85.0701 146.092 84.6927 146.011 84.1464C145.93 83.6004 146.307 83.0922 146.853 83.0109L146.856 83.0104L146.878 83.0069L146.921 82.9995L146.977 82.9895C147.068 82.9729 147.206 82.946 147.384 82.9063C147.741 82.827 148.258 82.6968 148.881 82.4963C150.131 82.0942 151.791 81.415 153.444 80.3087C156.716 78.1187 160 74.2413 160 67.3333V46H147C146.448 46 146 45.5523 146 45C146 44.4477 146.448 44 147 44Z" fill="#0077CC"/>
<g opacity="0.5">
<path d="M32 12C32.5523 12 33 12.4477 33 13V17H37C37.5523 17 38 17.4477 38 18C38 18.5523 37.5523 19 37 19H33V23C33 23.5523 32.5523 24 32 24C31.4477 24 31 23.5523 31 23V19H27C26.4477 19 26 18.5523 26 18C26 17.4477 26.4477 17 27 17H31V13C31 12.4477 31.4477 12 32 12Z" fill="#F7AA6D"/>
<path d="M101.488 88.8598C101.804 88.672 102.196 88.672 102.512 88.8598L113.517 95.4146C114.272 95.8643 115.198 95.1913 115.003 94.3343L112.17 81.8426C112.089 81.4846 112.21 81.111 112.486 80.8692L122.121 72.4285C122.782 71.8494 122.428 70.7605 121.553 70.6805L108.797 69.515C108.432 69.4816 108.114 69.2507 107.969 68.9134L102.919 57.142C102.572 56.3344 101.428 56.3344 101.081 57.142L96.0307 68.9134C95.886 69.2507 95.5682 69.4816 95.2027 69.515L82.4469 70.6805C81.5717 70.7605 81.2179 71.8494 81.8789 72.4286L91.5135 80.8692C91.7896 81.111 91.911 81.4846 91.8298 81.8426L88.9965 94.3343C88.8021 95.1913 89.7284 95.8643 90.4835 95.4146L101.488 88.8598Z" fill="#F7AA6D"/>
<path fill-rule="evenodd" clip-rule="evenodd" d="M161 14C161.345 14 161.665 14.1776 161.848 14.47L166.848 22.47C167.041 22.7783 167.051 23.1668 166.875 23.4848C166.698 23.8027 166.364 24 166 24H156C155.636 24 155.302 23.8027 155.125 23.4848C154.949 23.1668 154.959 22.7783 155.152 22.47L160.152 14.47C160.335 14.1776 160.655 14 161 14ZM164.196 22L161 16.8868L157.804 22H164.196Z" fill="#F7AA6D"/>
<path fill-rule="evenodd" clip-rule="evenodd" d="M175.5 79C172.462 79 170 81.4624 170 84.5C170 87.5376 172.462 90 175.5 90C178.538 90 181 87.5376 181 84.5C181 81.4624 178.538 79 175.5 79ZM172 84.5C172 82.567 173.567 81 175.5 81C177.433 81 179 82.567 179 84.5C179 86.433 177.433 88 175.5 88C173.567 88 172 86.433 172 84.5Z" fill="#F7AA6D"/>
</g>
<path d="M181 31C181.552 31 182 31.4477 182 32V37H187C187.552 37 188 37.4477 188 38C188 38.5523 187.552 39 187 39H182V44C182 44.5523 181.552 45 181 45C180.448 45 180 44.5523 180 44V39H175C174.448 39 174 38.5523 174 38C174 37.4477 174.448 37 175 37H180V32C180 31.4477 180.448 31 181 31Z" fill="#F2720C"/>
<path fill-rule="evenodd" clip-rule="evenodd" d="M8 36.5C8 32.9101 10.9101 30 14.5 30C18.0899 30 21 32.9101 21 36.5C21 40.0899 18.0899 43 14.5 43C10.9101 43 8 40.0899 8 36.5ZM14.5 32C12.0147 32 10 34.0147 10 36.5C10 38.9853 12.0147 41 14.5 41C16.9853 41 19 38.9853 19 36.5C19 34.0147 16.9853 32 14.5 32Z" fill="#F2720C"/>
<path fill-rule="evenodd" clip-rule="evenodd" d="M97.162 53.7478C97.855 52.1325 100.145 52.1325 100.838 53.7478L105.888 65.5191L118.644 66.6847C120.394 66.8446 121.102 69.0225 119.78 70.1807L110.145 78.6214L112.979 91.1131C113.368 92.8272 111.515 94.1732 110.005 93.2738L99 86.719L87.9952 93.2738C86.4851 94.1732 84.6325 92.8272 85.0213 91.1131L87.8546 78.6214L78.2199 70.1807C76.8979 69.0225 77.6055 66.8446 79.3559 66.6847L92.1118 65.5191L97.162 53.7478ZM104.05 66.3077L99 54.5363L93.9497 66.3077C93.6603 66.9822 93.0247 67.4441 92.2937 67.5108L79.5379 68.6764L89.1725 77.117C89.7246 77.6007 89.9674 78.3479 89.805 79.0638L86.9717 91.5555L97.9765 85.0007C98.6071 84.6251 99.3929 84.6251 100.023 85.0007L111.028 91.5555L108.195 79.0638C108.033 78.3479 108.275 77.6007 108.827 77.117L118.462 68.6764L105.706 67.5108C104.975 67.4441 104.34 66.9822 104.05 66.3077Z" fill="#F2720C"/>
</svg>
