<svg width="48" height="48" viewBox="0 0 48 48" fill="none" xmlns="http://www.w3.org/2000/svg">
<g opacity="0.5">
<path fill-rule="evenodd" clip-rule="evenodd" d="M24.919 6.60573C24.7613 6.23823 24.3999 6 24 6C23.6001 6 23.2387 6.23823 23.081 6.60573L20.8881 11.7169L15.3495 12.223C14.9512 12.2594 14.613 12.5295 14.4894 12.9098C14.3658 13.2901 14.4807 13.7075 14.7815 13.971L18.9649 17.636L17.7347 23.06C17.6462 23.4499 17.7986 23.8551 18.1221 24.0902C18.4456 24.3252 18.8781 24.3449 19.2216 24.1403L24 21.2942L28.7783 24.1403C29.1219 24.3449 29.5543 24.3252 29.8778 24.0902C30.2013 23.8551 30.3537 23.4499 30.2653 23.06L29.035 17.636L33.2185 13.971C33.5192 13.7075 33.6341 13.2901 33.5105 12.9098C33.387 12.5295 33.0487 12.2594 32.6505 12.223L27.1118 11.7169L24.919 6.60573ZM22.4913 13.0528L24 9.53631L25.5087 13.0528C25.6534 13.3901 25.9712 13.621 26.3367 13.6544L30.1473 14.0026L27.2691 16.5241C26.9931 16.766 26.8717 17.1396 26.9528 17.4975L27.7992 21.2292L24.5117 19.2711C24.1964 19.0833 23.8036 19.0833 23.4882 19.2711L20.2007 21.2292L21.0471 17.4975C21.1283 17.1396 21.0069 16.766 20.7309 16.5241L17.8526 14.0026L21.6633 13.6544C22.0288 13.621 22.3466 13.3901 22.4913 13.0528Z" fill="black"/>
<path d="M19 41C18.4477 41 18 41.4477 18 42C18 42.5523 18.4477 43 19 43H29C29.5523 43 30 42.5523 30 42C30 41.4477 29.5523 41 29 41H19Z" fill="black"/>
</g>
<path fill-rule="evenodd" clip-rule="evenodd" d="M9.99994 1C8.89537 1 7.99994 1.89543 7.99994 3V22C7.99994 25.1998 9.94539 27.9743 12.8386 29.9031C14.7804 31.1976 17.1922 32.1469 19.8684 32.633C19.8613 32.6699 19.854 32.7078 19.8465 32.7466C19.739 33.2992 19.5865 34.0306 19.4048 34.7575C19.2207 35.494 19.0163 36.1858 18.8112 36.6779C18.754 36.8153 18.7031 36.9213 18.6605 37H12.9999C12.5831 37 12.21 37.2586 12.0636 37.6489L9.06362 45.6489C8.94846 45.956 8.99121 46.3 9.17802 46.5696C9.36484 46.8392 9.67197 47 9.99995 47H38.9999C39.3279 47 39.6351 46.8392 39.8219 46.5696C40.0087 46.3 40.0514 45.956 39.9363 45.6489L36.9363 37.6489C36.7899 37.2586 36.4168 37 35.9999 37H29.3394C29.2969 36.9213 29.246 36.8154 29.1887 36.6779C28.9837 36.1858 28.7793 35.494 28.5951 34.7575C28.4134 34.0306 28.2609 33.2992 28.1535 32.7466C28.1459 32.7078 28.1386 32.6699 28.1315 32.633C30.8077 32.1469 33.2195 31.1976 35.1612 29.9031C38.0545 27.9743 39.9999 25.1998 39.9999 22V3C39.9999 1.89543 39.1045 1 37.9999 1H9.99994ZM26.1469 32.9027C26.1604 32.974 26.1749 33.0494 26.1903 33.1284C26.3016 33.7008 26.4616 34.4694 26.6549 35.2425C26.8032 35.8358 26.977 36.456 27.1708 37H20.8291C21.023 36.456 21.1968 35.8358 21.3451 35.2425C21.5384 34.4694 21.6984 33.7008 21.8097 33.1284C21.825 33.0494 21.8395 32.974 21.853 32.9027C22.5561 32.9669 23.2729 33 23.9999 33C24.727 33 25.4438 32.9669 26.1469 32.9027ZM9.99994 3L37.9999 3V22C37.9999 24.323 36.5875 26.5486 34.0518 28.239C31.5231 29.9248 27.9722 31 23.9999 31C20.0277 31 16.4767 29.9248 13.948 28.239C11.4124 26.5486 9.99994 24.323 9.99994 22V3ZM35.3069 39L37.5569 45H11.4429L13.6929 39H35.3069Z" fill="black"/>
<path d="M6 8C6.55228 8 7 8.44772 7 9C7 9.55229 6.55228 10 6 10H3V17C3 18.0536 3.71825 19.0497 4.6585 19.8724C5.10762 20.2654 5.56146 20.5779 5.905 20.7926L5.98903 20.8449C6.56856 21.2045 7.29147 21.6531 6.89443 22.4472C6.64744 22.9412 6.04676 23.1414 5.55279 22.8944C5.32438 22.773 5.55155 22.8938 5.55155 22.8938C5.30951 22.771 5.07509 22.6324 4.845 22.4886C4.43854 22.2346 3.89238 21.8596 3.3415 21.3776C2.28175 20.4503 1 18.9464 1 17V9C1 8.45533 1.45533 8 2 8H6Z" fill="black"/>
<path d="M40.9999 9C40.9999 8.44772 41.4476 8 41.9999 8H45.9999C46.5446 8 46.9999 8.45533 46.9999 9V17C46.9999 18.9464 45.7182 20.4503 44.6584 21.3776C43.9772 21.9737 43.2285 22.4464 42.4471 22.8944C41.9531 23.1414 41.3525 22.9412 41.1055 22.4472C40.8585 21.9532 41.0587 21.3526 41.5527 21.1056C42.195 20.7757 42.7994 20.3467 43.3414 19.8724C44.2817 19.0497 44.9999 18.0536 44.9999 17V10H41.9999C41.4476 10 40.9999 9.55229 40.9999 9Z" fill="black"/>
</svg>
