<svg width="96" height="96" viewBox="0 0 96 96" fill="none" xmlns="http://www.w3.org/2000/svg">
<path opacity="0.5" fill-rule="evenodd" clip-rule="evenodd" d="M38.874 78H63.126C63.4878 79.4056 64.5944 80.5122 66 80.874V89.126C64.5944 89.4878 63.4878 90.5944 63.126 92H38.874C38.5122 90.5944 37.4056 89.4878 36 89.126V80.874C37.4056 80.5122 38.5122 79.4056 38.874 78Z" fill="#ADDAFC"/>
<path opacity="0.5" fill-rule="evenodd" clip-rule="evenodd" d="M51.5117 43.1064C51.1964 42.9185 50.8036 42.9185 50.4883 43.1064L43.0102 47.5605C42.2551 48.0102 41.3288 47.3372 41.5232 46.4802L43.4485 37.9917C43.5297 37.6338 43.4083 37.2602 43.1323 37.0183L36.5852 31.2826C35.9242 30.7035 36.278 29.6146 37.1532 29.5346L45.8212 28.7426C46.1867 28.7092 46.5045 28.4783 46.6492 28.141L50.081 20.142C50.4275 19.3344 51.5725 19.3344 51.919 20.142L55.3508 28.141C55.4955 28.4783 55.8133 28.7092 56.1788 28.7426L64.8468 29.5346C65.722 29.6146 66.0758 30.7035 65.4148 31.2826L58.8677 37.0183C58.5917 37.2602 58.4703 37.6338 58.5515 37.9917L60.4768 46.4802C60.6712 47.3372 59.7449 48.0102 58.9898 47.5605L51.5117 43.1064Z" fill="#F7AA6D"/>
<path d="M43 79C42.4477 79 42 79.4477 42 80C42 80.5523 42.4477 81 43 81H53C53.5523 81 54 80.5523 54 80C54 79.4477 53.5523 79 53 79H43Z" fill="#0077CC"/>
<path d="M40 84C40 83.4477 40.4477 83 41 83H56C56.5523 83 57 83.4477 57 84C57 84.5523 56.5523 85 56 85H41C40.4477 85 40 84.5523 40 84Z" fill="#0077CC"/>
<path fill-rule="evenodd" clip-rule="evenodd" d="M35.874 74C35.4177 74 35.0193 74.3089 34.9055 74.7507C34.6346 75.8035 33.8035 76.6346 32.7507 76.9055C32.3089 77.0193 32 77.4177 32 77.874V86.126C32 86.5823 32.3089 86.9807 32.7507 87.0945C33.8035 87.3654 34.6346 88.1965 34.9055 89.2493C35.0193 89.6911 35.4177 90 35.874 90H60.126C60.5823 90 60.9807 89.6911 61.0945 89.2493C61.3654 88.1965 62.1965 87.3654 63.2493 87.0945C63.6911 86.9807 64 86.5823 64 86.126V77.874C64 77.4177 63.6911 77.0193 63.2493 76.9055C62.1965 76.6346 61.3654 75.8035 61.0945 74.7507C60.9807 74.3089 60.5823 74 60.126 74H35.874ZM34 78.5837C35.1538 78.0797 36.0797 77.1538 36.5837 76H59.4163C59.9203 77.1538 60.8462 78.0797 62 78.5837V85.4163C60.8462 85.9203 59.9203 86.8462 59.4163 88H36.5837C36.0797 86.8462 35.1538 85.9203 34 85.4163V78.5837Z" fill="#0077CC"/>
<path fill-rule="evenodd" clip-rule="evenodd" d="M82 36.2727C82 36.4027 81.9752 36.5269 81.9301 36.6409C80.9403 48.5535 69.6525 58.0402 55.1462 60.4217C55.2112 60.6589 55.2929 60.9506 55.3897 61.2825C55.659 62.2059 56.0419 63.4302 56.4989 64.6489C56.9598 65.878 57.4791 67.0546 58.0121 67.9075C58.2797 68.3356 58.5238 68.6381 58.7318 68.8229C58.9068 68.9785 58.9953 68.9981 59.0051 69H71.0949C72.8943 69 74.4723 70.2016 74.9509 71.9363L79.9164 89.9363C80.619 92.4835 78.7027 95 76.0604 95H19.9397C17.2973 95 15.381 92.4835 16.0837 89.9363L21.0492 71.9363C21.5278 70.2016 23.1057 69 24.9052 69H35.9944L36 69C36.3516 69 36.5878 68.9631 36.8028 68.8556C37.0144 68.7497 37.3057 68.524 37.652 67.97C38.3519 66.8501 39.1326 64.6287 39.9364 60.2608C25.874 57.6372 15.0388 48.3011 14.07 36.6409C14.0249 36.5269 14 36.4027 14 36.2727V4.3C14 2.47746 15.4775 1 17.3 1H78.7C80.5226 1 82 2.47746 82 4.3V36.2727ZM16 4.3V7H80V4.3C80 3.58203 79.418 3 78.7 3H17.3C16.5821 3 16 3.58203 16 4.3ZM16 9V35.9758C16.0227 36.0487 16.0372 36.1253 16.0426 36.2046C16.8955 48.687 30.6395 59 48 59C65.3606 59 79.1046 48.687 79.9574 36.2046C79.9629 36.1253 79.9774 36.0487 80 35.9758V9H16ZM56.3161 68.9675C55.6772 67.9453 55.1028 66.622 54.6262 65.3511C54.1457 64.0697 53.7473 62.7941 53.4697 61.8425C53.3328 61.3732 53.2247 60.9805 53.15 60.7018C51.4674 60.8983 49.7473 61 48 61C45.9264 61 43.8909 60.8567 41.9109 60.5818C41.1046 64.9769 40.2754 67.5294 39.3666 69H56.3365L56.3161 68.9675ZM24.9052 71C24.0055 71 23.2165 71.6008 22.9772 72.4681L18.0117 90.4681C17.6604 91.7417 18.6185 93 19.9397 93H76.0604C77.3816 93 78.3397 91.7417 77.9884 90.4681L73.0229 72.4681C72.7836 71.6008 71.9946 71 71.0949 71H24.9052Z" fill="#0077CC"/>
<path d="M12 10C12.5523 10 13 10.4477 13 11C13 11.5523 12.5523 12 12 12H5V23.4615C5 28.1967 6.84187 30.2238 8.48913 31.1476C9.35193 31.6315 10.2243 31.8473 10.8884 31.9401C11.232 31.9882 11.5846 32.0198 11.932 32.0023C12.4748 31.9653 12.9591 32.3868 12.9975 32.9295C13.056 33.7571 12.3079 34.0175 11.6367 34.0044C11.3842 33.9995 11.0315 33.9796 10.6116 33.9209C9.77572 33.804 8.64807 33.5298 7.51087 32.892C5.15813 31.5726 3 28.8305 3 23.4615V11C3 10.4553 3.45533 10 4 10H12Z" fill="#0077CC"/>
<path d="M84.125 10C83.5727 10 83.125 10.4477 83.125 11C83.125 11.5523 83.5727 12 84.125 12H91.125V23.4615C91.125 28.1967 89.2831 30.2238 87.6359 31.1476C86.7731 31.6315 85.9007 31.8473 85.2366 31.9401C84.9065 31.9863 84.6342 32.0012 84.4493 32.0048C84.3635 32.0064 84.2771 32.0081 84.1915 32.0022C83.6423 31.9656 83.1664 32.3799 83.1275 32.9295C83.0885 33.4804 83.5036 33.9586 84.0545 33.9975C84.542 34.0196 85.0303 33.9884 85.5135 33.9209C86.3493 33.804 87.4769 33.5298 88.6141 32.892C90.9669 31.5726 93.125 28.8305 93.125 23.4615V11C93.125 10.4553 92.6697 10 92.125 10H84.125Z" fill="#0077CC"/>
<path fill-rule="evenodd" clip-rule="evenodd" d="M48 14C48.3999 14 48.7614 14.2382 48.919 14.6057L53.2698 24.7468L64.259 25.7509C64.6572 25.7872 64.9955 26.0574 65.1191 26.4377C65.2426 26.818 65.1277 27.2354 64.827 27.4989L56.5267 34.7705L58.9676 45.5321C59.0561 45.9221 58.9037 46.3273 58.5802 46.5623C58.2567 46.7974 57.8242 46.8171 57.4806 46.6124L48 40.9655L38.5194 46.6124C38.1759 46.8171 37.7434 46.7974 37.4199 46.5623C37.0964 46.3273 36.944 45.9221 37.0325 45.5321L39.4733 34.7705L31.1731 27.4989C30.8723 27.2354 30.7574 26.818 30.881 26.4377C31.0046 26.0574 31.3429 25.7872 31.7411 25.7509L42.7302 24.7468L47.081 14.6057C47.2387 14.2382 47.6001 14 48 14ZM48 17.5363L44.3334 26.0827C44.1887 26.42 43.8709 26.6509 43.5054 26.6843L34.2442 27.5305L41.2393 33.6586C41.5153 33.9005 41.6367 34.2741 41.5555 34.632L39.4985 43.7014L47.4883 38.9424C47.8036 38.7546 48.1965 38.7546 48.5118 38.9424L56.5016 43.7014L54.4445 34.632C54.3633 34.2741 54.4847 33.9005 54.7608 33.6586L61.7558 27.5305L52.4947 26.6843C52.1292 26.6509 51.8114 26.42 51.6667 26.0827L48 17.5363Z" fill="#F2720C"/>
</svg>
