<svg width="48" height="48" viewBox="0 0 48 48" fill="none" xmlns="http://www.w3.org/2000/svg">
<g opacity="0.2">
<path d="M47 38.2818C47 38.6409 46.7273 39 46.3182 39H32.6818C32.3409 39 32 38.6409 32 38.2818V26.7182C32 26.3591 32.3409 26 32.6818 26H46.3182C46.7273 26 47 26.3591 47 26.7182V38.2818Z" fill="black"/>
<path d="M4 14.7619C4 14.3048 4.34862 14 4.69725 14H41.3027C41.6514 14 42 14.3048 42 14.7619V21.2381C42 21.6952 41.6514 22 41.3027 22H4.69725C4.34862 22 4 21.6952 4 21.2381V14.7619Z" fill="black"/>
</g>
<path fill-rule="evenodd" clip-rule="evenodd" d="M29 24C29 23.4477 29.4477 23 30 23H45C45.5523 23 46 23.4477 46 24V37C46 37.5523 45.5523 38 45 38H30C29.4477 38 29 37.5523 29 37V24ZM31 25V36H44V25H31Z" fill="black"/>
<path fill-rule="evenodd" clip-rule="evenodd" d="M8 4C6.89543 4 6 4.89543 6 6V9C6 9.55228 6.44772 10 7 10H42V20.1871C42 20.7394 42.4477 21.1871 43 21.1871C43.5523 21.1871 44 20.7394 44 20.1871V6C44 4.89543 43.1046 4 42 4H8ZM15 8H8V6H15V8ZM42 8H17V6H42V8Z" fill="black"/>
<path d="M8 24C8 23.4477 7.55228 23 7 23C6.44772 23 6 23.4477 6 24V42C6 43.1046 6.89543 44 8 44H42C43.1046 44 44 43.1046 44 42V41C44 40.4477 43.5523 40 43 40C42.4477 40 42 40.4477 42 41V42H8V24Z" fill="black"/>
<path d="M18 33C17.4477 33 17 33.4477 17 34C17 34.5523 17.4477 35 18 35H26C26.5523 35 27 34.5523 27 34C27 33.4477 26.5523 33 26 33H18Z" fill="black"/>
<path d="M10 34C10 33.4477 10.4477 33 11 33H15C15.5523 33 16 33.4477 16 34C16 34.5523 15.5523 35 15 35H11C10.4477 35 10 34.5523 10 34Z" fill="black"/>
<path d="M11 29C10.4477 29 10 29.4477 10 30C10 30.5523 10.4477 31 11 31H26C26.5523 31 27 30.5523 27 30C27 29.4477 26.5523 29 26 29H11Z" fill="black"/>
<path fill-rule="evenodd" clip-rule="evenodd" d="M10 24C10 23.4477 10.4477 23 11 23H26C26.5523 23 27 23.4477 27 24V27C27 27.5523 26.5523 28 26 28H11C10.4477 28 10 27.5523 10 27V24ZM12 25V26H25V25H12Z" fill="black"/>
<path fill-rule="evenodd" clip-rule="evenodd" d="M2 11C1.44772 11 1 11.4477 1 12V20C1 20.5523 1.44772 21 2 21H40C40.5523 21 41 20.5523 41 20V12C41 11.4477 40.5523 11 40 11H2ZM3 19V13H39V19H3Z" fill="black"/>
<path d="M37 16C37 16.5523 36.5523 17 36 17C35.4477 17 35 16.5523 35 16C35 15.4477 35.4477 15 36 15C36.5523 15 37 15.4477 37 16Z" fill="black"/>
<path d="M42 29C42 29.5523 41.5523 30 41 30C40.4477 30 40 29.5523 40 29C40 28.4477 40.4477 28 41 28C41.5523 28 42 28.4477 42 29Z" fill="black"/>
<path d="M42 33C42 33.5523 41.5523 34 41 34C40.4477 34 40 33.5523 40 33C40 32.4477 40.4477 32 41 32C41.5523 32 42 32.4477 42 33Z" fill="black"/>
<path d="M38 33C38 33.5523 37.5523 34 37 34C36.4477 34 36 33.5523 36 33C36 32.4477 36.4477 32 37 32C37.5523 32 38 32.4477 38 33Z" fill="black"/>
</svg>
