<svg width="96" height="96" viewBox="0 0 96 96" fill="none" xmlns="http://www.w3.org/2000/svg">
<g opacity="0.2">
<path d="M63 54C63 52.8954 63.8954 52 65 52H91C92.1046 52 93 52.8954 93 54V77C93 78.1046 92.1046 79 91 79H65C63.8954 79 63 78.1046 63 77V54Z" fill="black"/>
<path d="M81 27H10C8.89543 27 8 27.8428 8 28.8824V43.1176C8 44.1572 8.89543 45 10 45H81C82.1046 45 83 44.1572 83 43.1176V28.8824C83 27.8428 82.1046 27 81 27Z" fill="black"/>
</g>
<path fill-rule="evenodd" clip-rule="evenodd" d="M11 11.5526C11 9.59057 12.5906 8 14.5527 8H83.4474C85.4095 8 87 9.59056 87 11.5526V42.5C87 43.3284 86.3285 44 85.5 44C84.6716 44 84 43.3284 84 42.5V19H12.5C11.6716 19 11 18.3284 11 17.5V11.5526ZM14 16H28L28 11H14C14 12.6667 14 14.3333 14 16ZM31 16H84V11C66.3334 11 48.6667 11 31 11L31 16Z" fill="black"/>
<path d="M12.5 46C13.3285 46 14 46.6716 14 47.5C14 60 14 72.5 14 85C37.1492 85 60.8509 85 84 85V81.5C84 80.6716 84.6716 80 85.5 80C86.3285 80 87 80.6716 87 81.5V84.4474C87 86.4094 85.4095 88 83.4474 88H14.5527C12.5906 88 11 86.4094 11 84.4474V47.5C11 46.6716 11.6716 46 12.5 46Z" fill="black"/>
<path fill-rule="evenodd" clip-rule="evenodd" d="M57 47.5C57 46.6716 57.6716 46 58.5 46H89.5C90.3284 46 91 46.6716 91 47.5V75.5C91 76.3284 90.3284 77 89.5 77H58.5C57.6716 77 57 76.3284 57 75.5V47.5ZM60 49V74H88V49H60Z" fill="black"/>
<path d="M35.5 68C34.6716 68 34 68.6716 34 69.5C34 70.3284 34.6716 71 35.5 71H51.5C52.3284 71 53 70.3284 53 69.5C53 68.6716 52.3284 68 51.5 68H35.5Z" fill="black"/>
<path d="M19 69.5C19 68.6716 19.6716 68 20.5 68H29C29.8285 68 30.5 68.6716 30.5 69.5C30.5 70.3284 29.8285 71 29 71H20.5C19.6716 71 19 70.3284 19 69.5Z" fill="black"/>
<path d="M20.5 60C19.6716 60 19 60.6716 19 61.5C19 62.3284 19.6716 63 20.5 63H51.5C52.3285 63 53 62.3284 53 61.5C53 60.6716 52.3285 60 51.5 60H20.5Z" fill="black"/>
<path fill-rule="evenodd" clip-rule="evenodd" d="M19 49.5C19 48.6716 19.6716 48 20.5 48H51.5C52.3285 48 53 48.6716 53 49.5V55.5C53 56.3284 52.3285 57 51.5 57H20.5C19.6716 57 19 56.3284 19 55.5V49.5ZM22 51V54H50V51H22Z" fill="black"/>
<path fill-rule="evenodd" clip-rule="evenodd" d="M3.5 21C2.67157 21 2 21.6716 2 22.5V41.5C2 42.3284 2.67157 43 3.5 43H79.5C80.3284 43 81 42.3284 81 41.5V22.5C81 21.6716 80.3284 21 79.5 21H3.5ZM5 40V24H78V40H5Z" fill="black"/>
<circle cx="82" cy="59" r="2" fill="black"/>
<circle cx="70" cy="32" r="2" fill="black"/>
<circle cx="82" cy="68" r="2" fill="black"/>
<circle cx="73" cy="68" r="2" fill="black"/>
</svg>
