<svg width="196" height="196" viewBox="0 0 196 196" fill="none" xmlns="http://www.w3.org/2000/svg">
<path opacity="0.07" fill-rule="evenodd" clip-rule="evenodd" d="M21.5745 31.1531C47.6109 10.0198 96.2153 -3.50949 139.054 10.4423C176.696 22.702 203.769 109.277 173.01 146.204C142.252 183.13 94.2215 188.184 65.0635 182.184C35.9055 176.184 17.2357 122.368 13.3513 107.68C9.4669 92.9922 8.78341 41.5355 21.5745 31.1531ZM35 57V82H146V57H35ZM161 94H116V135H161V94Z" fill="black"/>
<g opacity="0.2">
<path d="M150 63H43C41.8954 63 41 63.8954 41 65V86C41 87.1046 41.8954 88 43 88H150C151.105 88 152 87.1046 152 86V65C152 63.8954 151.105 63 150 63Z" fill="black"/>
<path d="M164 100H125C123.343 100 122 101.343 122 103V138C122 139.657 123.343 141 125 141H164C165.657 141 167 139.657 167 138V103C167 101.343 165.657 100 164 100Z" fill="black"/>
</g>
<path d="M52 16L48 12L44 16L48 20L52 16Z" fill="black"/>
<path fill-rule="evenodd" clip-rule="evenodd" d="M50.0526 36C47.8144 36 46 37.8144 46 40.0526V49.7403C46 49.7839 46.0014 49.8272 46.0042 49.8701C46.0014 49.9131 46 49.9564 46 50C46 51.1046 46.8954 52 48 52H153V86.4286C153 87.5331 153.895 88.4286 155 88.4286C156.105 88.4286 157 87.5331 157 86.4286V40.0526C157 37.8144 155.186 36 152.947 36H50.0526ZM71 48H50V40.0526C50 40.0417 50.0018 40.0363 50.0033 40.0328C50.0054 40.0279 50.0092 40.0216 50.0154 40.0154C50.0216 40.0092 50.0279 40.0054 50.0328 40.0033L50.0351 40.0024L50.037 40.0018C50.0405 40.0008 50.0453 40 50.0526 40H71V48ZM153 48H75V40H152.947C152.951 40 152.954 40.0002 152.956 40.0005L152.96 40.0011L152.964 40.0021L152.967 40.0033C152.971 40.005 152.976 40.0079 152.981 40.0123L152.985 40.0154C152.991 40.0216 152.995 40.0279 152.997 40.0328C152.998 40.0363 153 40.0417 153 40.0526V48Z" fill="black"/>
<path d="M50 93.7662C50 92.6617 49.1046 91.7662 48 91.7662C46.8954 91.7662 46 92.6617 46 93.7662V148.947C46 151.186 47.8144 153 50.0526 153H152.947C155.186 153 157 151.186 157 148.947V145.662C157 144.558 156.105 143.662 155 143.662C153.895 143.662 153 144.558 153 145.662V148.947C153 148.953 153 148.957 152.999 148.96C152.998 148.963 152.997 148.967 152.997 148.967C152.995 148.972 152.991 148.978 152.985 148.985C152.983 148.987 152.98 148.988 152.978 148.99C152.974 148.993 152.97 148.995 152.967 148.997L152.965 148.998C152.965 148.998 152.962 148.999 152.959 148.999L152.956 149L152.952 149L152.947 149H50.0526C50.0417 149 50.0363 148.998 50.0328 148.997L50.0308 148.996C50.0263 148.994 50.0208 148.99 50.0154 148.985C50.0092 148.978 50.0054 148.972 50.0033 148.967C50.0018 148.964 50 148.958 50 148.947V93.7662Z" fill="black"/>
<path d="M154 113C154 114.657 152.657 116 151 116C149.343 116 148 114.657 148 113C148 111.343 149.343 110 151 110C152.657 110 154 111.343 154 113Z" fill="black"/>
<path d="M151 128C152.657 128 154 126.657 154 125C154 123.343 152.657 122 151 122C149.343 122 148 123.343 148 125C148 126.657 149.343 128 151 128Z" fill="black"/>
<path d="M142 125C142 126.657 140.657 128 139 128C137.343 128 136 126.657 136 125C136 123.343 137.343 122 139 122C140.657 122 142 123.343 142 125Z" fill="black"/>
<path fill-rule="evenodd" clip-rule="evenodd" d="M116 92C114.895 92 114 92.8954 114 94V135C114 136.105 114.895 137 116 137H161C162.105 137 163 136.105 163 135V94C163 92.8954 162.105 92 161 92H116ZM118 133V96H159V133H118Z" fill="black"/>
<path d="M80 126C80 124.895 80.8954 124 82 124H105C106.105 124 107 124.895 107 126C107 127.105 106.105 128 105 128H82C80.8954 128 80 127.105 80 126Z" fill="black"/>
<path d="M60 124C58.8954 124 58 124.895 58 126C58 127.105 58.8954 128 60 128H75C76.1046 128 77 127.105 77 126C77 124.895 76.1046 124 75 124H60Z" fill="black"/>
<path d="M58 115C58 113.895 58.8954 113 60 113H105C106.105 113 107 113.895 107 115C107 116.105 106.105 117 105 117H60C58.8954 117 58 116.105 58 115Z" fill="black"/>
<path fill-rule="evenodd" clip-rule="evenodd" d="M60 95C58.8954 95 58 95.8954 58 97V106C58 107.105 58.8954 108 60 108H105C106.105 108 107 107.105 107 106V97C107 95.8954 106.105 95 105 95H60ZM62 104V99H103V104H62Z" fill="black"/>
<path d="M133 73C134.657 73 136 71.6569 136 70C136 68.3431 134.657 67 133 67C131.343 67 130 68.3431 130 70C130 71.6569 131.343 73 133 73Z" fill="black"/>
<path fill-rule="evenodd" clip-rule="evenodd" d="M33 57C33 55.8954 33.8954 55 35 55H146C147.105 55 148 55.8954 148 57V82C148 83.1046 147.105 84 146 84H35C33.8954 84 33 83.1046 33 82V57ZM37 59V80H144V59H37Z" fill="black"/>
<path d="M14 88C15.1046 88 16 88.8954 16 90V94H20C21.1046 94 22 94.8954 22 96C22 97.1046 21.1046 98 20 98H16V102C16 103.105 15.1046 104 14 104C12.8954 104 12 103.105 12 102V98H8C6.89543 98 6 97.1046 6 96C6 94.8954 6.89543 94 8 94H12V90C12 88.8954 12.8954 88 14 88Z" fill="black"/>
<path fill-rule="evenodd" clip-rule="evenodd" d="M173.5 142L182 150.5L173.5 159L165 150.5L173.5 142ZM170.667 150.5L173.5 153.333L176.333 150.5L173.5 147.667L170.667 150.5Z" fill="black"/>
</svg>
