<svg width="96" height="96" viewBox="0 0 96 96" fill="none" xmlns="http://www.w3.org/2000/svg">
<g opacity="0.2">
<path d="M77.0852 2.7246C78.3454 3.28865 78.9098 4.76753 78.3457 6.02777L76.782 9.52158C76.218 10.7818 74.7391 11.3462 73.4789 10.7822C72.2186 10.2181 71.6542 8.73924 72.2183 7.479L73.782 3.98519C74.346 2.72494 75.8249 2.16056 77.0852 2.7246Z" fill="black"/>
<path d="M90.2463 9.6072C91.2808 8.6928 91.3782 7.11289 90.4638 6.07836C89.5494 5.04384 87.9695 4.94645 86.935 5.86085L79.8447 12.1278C78.8102 13.0422 78.7128 14.6221 79.6272 15.6566C80.5416 16.6911 82.1215 16.7885 83.1561 15.8741L90.2463 9.6072Z" fill="black"/>
<path fill-rule="evenodd" clip-rule="evenodd" d="M91.1365 54.0688C91.1365 76.1978 73.1974 94.137 51.0683 94.137C28.9393 94.137 11.0002 76.1978 11.0002 54.0688C11.0002 31.9398 28.9393 14.0006 51.0683 14.0006C73.1974 14.0006 91.1365 31.9398 91.1365 54.0688ZM45.5002 76.0006C49.09 76.0006 52.0002 73.0905 52.0002 69.5006C52.0002 65.9108 49.09 63.0006 45.5002 63.0006C41.9103 63.0006 39.0002 65.9108 39.0002 69.5006C39.0002 73.0905 41.9103 76.0006 45.5002 76.0006ZM45.5002 23.5006C42.4626 23.5006 40.0002 25.9631 40.0002 29.0006V53.5006C40.0002 56.5382 42.4626 59.0006 45.5002 59.0006C48.5377 59.0006 51.0002 56.5382 51.0002 53.5006V29.0006C51.0002 25.9631 48.5377 23.5006 45.5002 23.5006Z" fill="black"/>
<path d="M94.4003 20.6923C94.561 22.0637 93.5795 23.3056 92.2082 23.4662L87.791 23.9836C86.4197 24.1442 85.1778 23.1628 85.0171 21.7914C84.8565 20.4201 85.838 19.1782 87.2093 19.0176L91.6264 18.5001C92.9978 18.3395 94.2397 19.321 94.4003 20.6923Z" fill="black"/>
<path d="M3.55436 23.4662C2.18302 23.3056 1.20156 22.0637 1.36219 20.6923C1.52282 19.321 2.76473 18.3395 4.13607 18.5001L8.5532 19.0176C9.92454 19.1782 10.906 20.4201 10.7454 21.7914C10.5847 23.1628 9.34284 24.1442 7.9715 23.9836L3.55436 23.4662Z" fill="black"/>
<path d="M5.29868 6.07836C4.38428 7.11289 4.48167 8.6928 5.51619 9.6072L12.6064 15.8741C13.641 16.7885 15.2209 16.6911 16.1353 15.6566C17.0497 14.6221 16.9523 13.0422 15.9178 12.1278L8.82751 5.86085C7.79299 4.94645 6.21308 5.04384 5.29868 6.07836Z" fill="black"/>
<path d="M17.4168 6.02777C16.8527 4.76753 17.4171 3.28865 18.6773 2.7246C19.9376 2.16056 21.4165 2.72494 21.9805 3.98519L23.5442 7.479C24.1083 8.73924 23.5439 10.2181 22.2836 10.7822C21.0234 11.3462 19.5445 10.7818 18.9805 9.52158L17.4168 6.02777Z" fill="black"/>
</g>
<path fill-rule="evenodd" clip-rule="evenodd" d="M45.5 76C49.0899 76 52 73.0899 52 69.5C52 65.9101 49.0899 63 45.5 63C41.9101 63 39 65.9101 39 69.5C39 73.0899 41.9101 76 45.5 76ZM45.5 73C43.567 73 42 71.433 42 69.5C42 67.567 43.567 66 45.5 66C47.433 66 49 67.567 49 69.5C49 71.433 47.433 73 45.5 73Z" fill="black"/>
<path fill-rule="evenodd" clip-rule="evenodd" d="M45.5 23.5C42.4624 23.5 40 25.9624 40 29V53.5C40 56.5376 42.4624 59 45.5 59C48.5376 59 51 56.5376 51 53.5V29C51 25.9624 48.5376 23.5 45.5 23.5ZM43 29C43 27.6193 44.1193 26.5 45.5 26.5C46.8807 26.5 48 27.6193 48 29V53.5C48 54.8807 46.8807 56 45.5 56C44.1193 56 43 54.8807 43 53.5V29Z" fill="black"/>
<path fill-rule="evenodd" clip-rule="evenodd" d="M6 49.5C6 26.5802 24.5802 8 47.5 8C70.4198 8 89 26.5802 89 49.5C89 72.4198 70.4198 91 47.5 91C24.5802 91 6 72.4198 6 49.5ZM47.5 11C26.237 11 9 28.237 9 49.5C9 70.763 26.237 88 47.5 88C68.763 88 86 70.763 86 49.5C86 28.237 68.763 11 47.5 11Z" fill="black"/>
</svg>
