<svg width="48" height="48" viewBox="0 0 48 48" fill="none" xmlns="http://www.w3.org/2000/svg">
<path opacity="0.2" fill-rule="evenodd" clip-rule="evenodd" d="M26.5 47C37.8218 47 47 37.8218 47 26.5C47 15.1782 37.8218 6 26.5 6C15.1782 6 6 15.1782 6 26.5C6 37.8218 15.1782 47 26.5 47ZM20 15C20 13.3431 21.3431 12 23 12C24.6569 12 26 13.3431 26 15V24C26 25.6569 24.6569 27 23 27C21.3431 27 20 25.6569 20 24V15ZM23 35C21.3431 35 20 33.6569 20 32C20 30.3431 21.3431 29 23 29C24.6569 29 26 30.3431 26 32C26 33.6569 24.6569 35 23 35Z" fill="black"/>
<path fill-rule="evenodd" clip-rule="evenodd" d="M23 12C21.3431 12 20 13.3431 20 15V24C20 25.6569 21.3431 27 23 27C24.6569 27 26 25.6569 26 24V15C26 13.3431 24.6569 12 23 12ZM22 15C22 14.4477 22.4477 14 23 14C23.5523 14 24 14.4477 24 15V24C24 24.5523 23.5523 25 23 25C22.4477 25 22 24.5523 22 24V15Z" fill="black"/>
<path fill-rule="evenodd" clip-rule="evenodd" d="M26.25 32C26.25 33.7949 24.7949 35.25 23 35.25C21.2051 35.25 19.75 33.7949 19.75 32C19.75 30.2051 21.2051 28.75 23 28.75C24.7949 28.75 26.25 30.2051 26.25 32ZM24.25 32C24.25 31.3096 23.6904 30.75 23 30.75C22.3096 30.75 21.75 31.3096 21.75 32C21.75 32.6904 22.3096 33.25 23 33.25C23.6904 33.25 24.25 32.6904 24.25 32Z" fill="black"/>
<path fill-rule="evenodd" clip-rule="evenodd" d="M2 23.5C2 11.6259 11.6259 2 23.5 2C35.3741 2 45 11.6259 45 23.5C45 35.3741 35.3741 45 23.5 45C11.6259 45 2 35.3741 2 23.5ZM23.5 4C12.7304 4 4 12.7304 4 23.5C4 34.2696 12.7304 43 23.5 43C34.2696 43 43 34.2696 43 23.5C43 12.7304 34.2696 4 23.5 4Z" fill="black"/>
</svg>
