<svg width="197" height="196" viewBox="0 0 197 196" fill="none" xmlns="http://www.w3.org/2000/svg">
<path opacity="0.07" d="M31.5002 34.4996C56.1787 11.7955 101.215 4.49014 144.054 18.4419C181.696 30.7016 208.769 117.276 178.01 154.203C147.252 191.13 86.158 183 57 177C27.842 170.999 11.3844 120.688 7.5 106C3.61561 91.3116 6.5 57.4995 31.5002 34.4996Z" fill="black"/>
<g opacity="0.2">
<path fill-rule="evenodd" clip-rule="evenodd" d="M112.436 41.1476C109.576 36.193 102.425 36.193 99.564 41.1476L41.4222 141.852C38.5617 146.807 42.1374 153 47.8584 153H164.142C169.863 153 173.439 146.807 170.578 141.852L112.436 41.1476ZM110 126.5C110 131.746 105.747 136 100.5 136C95.2535 136 91.0002 131.746 91.0002 126.5C91.0002 121.253 95.2535 117 100.5 117C105.747 117 110 121.253 110 126.5ZM93.0002 62.4998C93.0002 58.3577 96.358 54.9998 100.5 54.9998C104.642 54.9998 108 58.3577 108 62.4998V103.5C108 107.642 104.642 111 100.5 111C96.358 111 93.0002 107.642 93.0002 103.5V62.4998Z" fill="black"/>
<path d="M59.8209 39.9263C58.1232 40.8506 57.4962 42.9761 58.4205 44.6738L63.4921 53.9893C64.4164 55.687 66.5419 56.314 68.2396 55.3897C69.9373 54.4655 70.5643 52.3399 69.6401 50.6422L64.5684 41.3267C63.6442 39.629 61.5186 39.002 59.8209 39.9263Z" fill="black"/>
<path d="M38.6468 52.0235C36.9771 51.0496 36.4129 48.9066 37.3867 47.2368C38.3606 45.567 40.5036 45.0029 42.1734 45.9767L61.2584 57.1074C62.9282 58.0812 63.4923 60.2243 62.5185 61.894C61.5447 63.5638 59.4016 64.128 57.7318 63.1541L38.6468 52.0235Z" fill="black"/>
<path d="M152.485 66.6738C153.409 64.9761 152.782 62.8506 151.084 61.9263C149.387 61.002 147.261 61.629 146.337 63.3267L141.265 72.6422C140.341 74.3399 140.968 76.4655 142.666 77.3897C144.363 78.314 146.489 77.687 147.413 75.9893L152.485 66.6738Z" fill="black"/>
<path d="M173.518 69.2368C174.492 70.9066 173.928 73.0496 172.258 74.0235L153.173 85.1541C151.504 86.128 149.361 85.5638 148.387 83.894C147.413 82.2243 147.977 80.0812 149.647 79.1074L168.732 67.9767C170.402 67.0029 172.545 67.567 173.518 69.2368Z" fill="black"/>
<path d="M170.198 95.5229C169.961 97.4413 168.213 98.804 166.295 98.5666L152.57 96.8683C150.652 96.6309 149.289 94.8834 149.527 92.965C149.764 91.0466 151.512 89.6839 153.43 89.9213L167.154 91.6196C169.073 91.857 170.435 93.6045 170.198 95.5229Z" fill="black"/>
<path d="M40.7072 73.5229C40.9445 75.4413 42.6921 76.804 44.6105 76.5666L58.3349 74.8683C60.2533 74.6309 61.616 72.8834 61.3786 70.965C61.1412 69.0466 59.3937 67.6839 57.4753 67.9213L43.7509 69.6196C41.8325 69.857 40.4698 71.6045 40.7072 73.5229Z" fill="black"/>
</g>
<path d="M150.371 17L155 21.5L150.5 26L146 21.5L150.371 17Z" fill="black"/>
<path fill-rule="evenodd" clip-rule="evenodd" d="M159.288 162L168.577 171.288L159.288 180.577L150 171.288L159.288 162ZM156.192 171.288L159.288 174.384L162.384 171.288L159.288 168.192L156.192 171.288Z" fill="black"/>
<path fill-rule="evenodd" clip-rule="evenodd" d="M100.5 136C105.747 136 110 131.747 110 126.5C110 121.253 105.747 117 100.5 117C95.2533 117 91 121.253 91 126.5C91 131.747 95.2533 136 100.5 136ZM100.5 132C97.4624 132 95 129.538 95 126.5C95 123.462 97.4624 121 100.5 121C103.538 121 106 123.462 106 126.5C106 129.538 103.538 132 100.5 132Z" fill="black"/>
<path fill-rule="evenodd" clip-rule="evenodd" d="M100.5 55C96.3579 55 93 58.3579 93 62.5V103.5C93 107.642 96.3579 111 100.5 111C104.642 111 108 107.642 108 103.5V62.5C108 58.3579 104.642 55 100.5 55ZM97 62.5C97 60.567 98.567 59 100.5 59C102.433 59 104 60.567 104 62.5V103.5C104 105.433 102.433 107 100.5 107C98.567 107 97 105.433 97 103.5V62.5Z" fill="black"/>
<path fill-rule="evenodd" clip-rule="evenodd" d="M91.8314 33.1502C95.4615 26.8614 104.539 26.8614 108.169 33.1502L166.298 133.852C169.927 140.14 165.389 148 158.129 148H41.8711C34.6108 148 30.0729 140.14 33.7025 133.852L91.8314 33.1502ZM104.704 35.1499C102.614 31.5282 97.3863 31.5282 95.2957 35.1499L37.1667 135.852C35.0764 139.473 37.6899 144 41.8711 144H158.129C162.31 144 164.924 139.473 162.833 135.852L104.704 35.1499Z" fill="black"/>
<path d="M14 112C15.1046 112 16 112.895 16 114V118H20C21.1046 118 22 118.895 22 120C22 121.105 21.1046 122 20 122H16V126C16 127.105 15.1046 128 14 128C12.8954 128 12 127.105 12 126V122H8C6.89543 122 6 121.105 6 120C6 118.895 6.89543 118 8 118H12V114C12 112.895 12.8954 112 14 112Z" fill="black"/>
</svg>
