<svg width="196" height="196" viewBox="0 0 196 196" fill="none" xmlns="http://www.w3.org/2000/svg">
<path opacity="0.07" fill-rule="evenodd" clip-rule="evenodd" d="M162.5 25.2797C124 -4.72021 39.6786 2.57556 15 25.2796C-10.0002 48.2795 3.20966 109.092 7.09406 123.78C10.9785 138.468 28.3417 174 57.4997 180C61.2966 180.782 65.594 181.812 70.2652 182.933C101.466 190.416 149.341 201.898 176.094 169.78C206.852 132.853 201 55.2795 162.5 25.2797ZM92.5 34.0001C129.779 34.0001 160 64.2209 160 101.5C160 138.779 129.779 169 92.5 169C55.2208 169 25 138.779 25 101.5C25 64.2209 55.2208 34.0001 92.5 34.0001Z" fill="black"/>
<g opacity="0.2">
<path d="M36.0227 34.4443C35.5898 32.5604 36.7661 30.6823 38.65 30.2493C40.5339 29.8164 42.412 30.9927 42.8449 32.8766L45.2204 43.2138C45.6533 45.0977 44.477 46.9758 42.5931 47.4087C40.7093 47.8416 38.8311 46.6654 38.3982 44.7815L36.0227 34.4443Z" fill="black"/>
<path d="M15.3738 34.1865C14.0961 35.637 14.2362 37.8487 15.6867 39.1263L30.5813 52.2462C32.0319 53.5238 34.2435 53.3837 35.5212 51.9332C36.7989 50.4827 36.6587 48.271 35.2082 46.9934L20.3136 33.8736C18.8631 32.5959 16.6515 32.736 15.3738 34.1865Z" fill="black"/>
<path d="M11.1943 57.4572C10.9063 59.3687 12.2223 61.1517 14.1337 61.4397L27.8085 63.5003C29.7199 63.7883 31.5029 62.4723 31.7909 60.5609C32.0789 58.6495 30.7629 56.8665 28.8515 56.5785L15.1768 54.5178C13.2654 54.2298 11.4824 55.5458 11.1943 57.4572Z" fill="black"/>
<path d="M152.411 31.0376C150.611 30.3318 148.58 31.2184 147.875 33.0179L142.825 45.8922C142.119 47.6917 143.006 49.7227 144.805 50.4285C146.605 51.1343 148.636 50.2477 149.342 48.4482L154.391 35.574C155.097 33.7744 154.211 31.7434 152.411 31.0376Z" fill="black"/>
<path d="M169.284 39.4939C170.852 38.3638 173.04 38.719 174.17 40.2872C175.3 41.8554 174.945 44.0429 173.376 45.173L157.273 56.7775C155.705 57.9076 153.518 57.5524 152.387 55.9842C151.257 54.416 151.612 52.2286 153.181 51.0984L169.284 39.4939Z" fill="black"/>
<path d="M172.833 63.8555C172.83 61.9226 171.26 60.3581 169.327 60.3613L158.721 60.3788C156.788 60.382 155.223 61.9516 155.226 63.8846C155.23 65.8176 156.799 67.382 158.732 67.3788L169.339 67.3613C171.272 67.3581 172.836 65.7885 172.833 63.8555Z" fill="black"/>
<path fill-rule="evenodd" clip-rule="evenodd" d="M98.5 173C134.675 173 164 143.675 164 107.5C164 71.3256 134.675 42.0002 98.5 42.0002C62.3253 42.0002 33 71.3256 33 107.5C33 143.675 62.3253 173 98.5 173ZM102 132.5C102 137.747 97.7467 142 92.5 142C87.2533 142 83 137.747 83 132.5C83 127.254 87.2533 123 92.5 123C97.7467 123 102 127.254 102 132.5ZM85 68.5002C85 64.3581 88.3579 61.0002 92.5 61.0002C96.6421 61.0002 100 64.3581 100 68.5002V109.5C100 113.642 96.6421 117 92.5 117C88.3579 117 85 113.642 85 109.5V68.5002Z" fill="black"/>
</g>
<path d="M135.371 8L140 12.5L135.5 17L131 12.5L135.371 8Z" fill="black"/>
<path fill-rule="evenodd" clip-rule="evenodd" d="M102 132.5C102 137.747 97.7467 142 92.5 142C87.2533 142 83 137.747 83 132.5C83 127.253 87.2533 123 92.5 123C97.7467 123 102 127.253 102 132.5ZM98 132.5C98 129.462 95.5376 127 92.5 127C89.4624 127 87 129.462 87 132.5C87 135.538 89.4624 138 92.5 138C95.5376 138 98 135.538 98 132.5Z" fill="black"/>
<path fill-rule="evenodd" clip-rule="evenodd" d="M85 68.5C85 64.3579 88.3579 61 92.5 61C96.6421 61 100 64.3579 100 68.5V109.5C100 113.642 96.6421 117 92.5 117C88.3579 117 85 113.642 85 109.5V68.5ZM92.5 65C90.567 65 89 66.567 89 68.5V109.5C89 111.433 90.567 113 92.5 113C94.433 113 96 111.433 96 109.5V68.5C96 66.567 94.433 65 92.5 65Z" fill="black"/>
<path fill-rule="evenodd" clip-rule="evenodd" d="M25 101.5C25 64.2208 55.2208 34 92.5 34C129.779 34 160 64.2208 160 101.5C160 138.779 129.779 169 92.5 169C55.2208 169 25 138.779 25 101.5ZM92.5 38C57.4299 38 29 66.4299 29 101.5C29 136.57 57.4299 165 92.5 165C127.57 165 156 136.57 156 101.5C156 66.4299 127.57 38 92.5 38Z" fill="black"/>
<path d="M21 145C22.1046 145 23 145.895 23 147V151H27C28.1046 151 29 151.895 29 153C29 154.105 28.1046 155 27 155H23V159C23 160.105 22.1046 161 21 161C19.8954 161 19 160.105 19 159V155H15C13.8954 155 13 154.105 13 153C13 151.895 13.8954 151 15 151H19V147C19 145.895 19.8954 145 21 145Z" fill="black"/>
<path fill-rule="evenodd" clip-rule="evenodd" d="M161.288 171L170.577 180.288L161.288 189.577L152 180.288L161.288 171ZM158.192 180.288L161.288 183.384L164.384 180.288L161.288 177.192L158.192 180.288Z" fill="black"/>
</svg>
