<svg width="97" height="96" viewBox="0 0 97 96" fill="none" xmlns="http://www.w3.org/2000/svg">
<g opacity="0.2">
<path fill-rule="evenodd" clip-rule="evenodd" d="M46.9162 13.0737C48.7313 9.92987 53.2689 9.92987 55.084 13.0737L95.4136 82.9266C97.2287 86.0704 94.9599 90.0001 91.3297 90.0001H10.6705C7.04034 90.0001 4.77151 86.0704 6.58658 82.9266L46.9162 13.0737ZM46.5001 76.0001C50.09 76.0001 53.0001 73.09 53.0001 69.5001C53.0001 65.9103 50.09 63.0001 46.5001 63.0001C42.9102 63.0001 40.0001 65.9103 40.0001 69.5001C40.0001 73.09 42.9102 76.0001 46.5001 76.0001ZM46.5001 23.5001C43.4625 23.5001 41.0001 25.9626 41.0001 29.0001V53.5001C41.0001 56.5377 43.4625 59.0001 46.5001 59.0001C49.5377 59.0001 52.0001 56.5377 52.0001 53.5001V29.0001C52.0001 25.9626 49.5377 23.5001 46.5001 23.5001Z" fill="black"/>
<path d="M93.7825 48.0144C93.6129 49.3847 92.3646 50.358 90.9944 50.1885L83.9799 49.3205C82.6097 49.1509 81.6363 47.9026 81.8059 46.5324C81.9754 45.1621 83.2237 44.1888 84.594 44.3583L91.6084 45.2263C92.9787 45.3959 93.952 46.6441 93.7825 48.0144Z" fill="black"/>
<path d="M91.8232 36.2266C93.0159 35.531 93.4189 34.0003 92.7233 32.8076C92.0277 31.6149 90.4969 31.2119 89.3042 31.9075L79.55 37.5963C78.3573 38.2919 77.9544 39.8227 78.65 41.0153C79.3456 42.208 80.8763 42.611 82.069 41.9154L91.8232 36.2266Z" fill="black"/>
<path d="M79.983 26.8048C81.1956 27.465 81.6435 28.9832 80.9833 30.1959L78.3912 34.957C77.731 36.1696 76.2128 36.6174 75.0002 35.9573C73.7875 35.2971 73.3397 33.7788 73.9999 32.5662L76.5919 27.8051C77.2521 26.5924 78.7704 26.1446 79.983 26.8048Z" fill="black"/>
<path d="M4.30691 42.1885C2.93665 42.358 1.68838 41.3847 1.51882 40.0144C1.34926 38.6441 2.32262 37.3959 3.69288 37.2263L10.7073 36.3583C12.0776 36.1888 13.3259 37.1621 13.4954 38.5324C13.665 39.9026 12.6916 41.1509 11.3214 41.3205L4.30691 42.1885Z" fill="black"/>
<path d="M2.57801 24.8076C1.88241 26.0003 2.28538 27.531 3.47808 28.2266L13.2323 33.9154C14.425 34.611 15.9557 34.208 16.6513 33.0153C17.3469 31.8227 16.9439 30.2919 15.7512 29.5963L5.99705 23.9075C4.80436 23.2119 3.2736 23.6149 2.57801 24.8076Z" fill="black"/>
<path d="M14.318 22.1959C13.6578 20.9832 14.1056 19.465 15.3183 18.8048C16.5309 18.1446 18.0492 18.5924 18.7094 19.8051L21.3014 24.5662C21.9616 25.7788 21.5138 27.2971 20.3011 27.9573C19.0885 28.6174 17.5702 28.1696 16.9101 26.957L14.318 22.1959Z" fill="black"/>
</g>
<path fill-rule="evenodd" clip-rule="evenodd" d="M46.5 76C50.0899 76 53 73.0899 53 69.5C53 65.9101 50.0899 63 46.5 63C42.9101 63 40 65.9101 40 69.5C40 73.0899 42.9101 76 46.5 76ZM46.5 73C44.567 73 43 71.433 43 69.5C43 67.567 44.567 66 46.5 66C48.433 66 50 67.567 50 69.5C50 71.433 48.433 73 46.5 73Z" fill="black"/>
<path fill-rule="evenodd" clip-rule="evenodd" d="M46.5 23.5C43.4624 23.5 41 25.9624 41 29V53.5C41 56.5376 43.4624 59 46.5 59C49.5376 59 52 56.5376 52 53.5V29C52 25.9624 49.5376 23.5 46.5 23.5ZM44 29C44 27.6193 45.1193 26.5 46.5 26.5C47.8807 26.5 49 27.6193 49 29V53.5C49 54.8807 47.8807 56 46.5 56C45.1193 56 44 54.8807 44 53.5V29Z" fill="black"/>
<path fill-rule="evenodd" clip-rule="evenodd" d="M41.1299 8.23523C43.5279 4.12079 49.4722 4.12082 51.8702 8.23526L91.1636 75.6545C93.5786 79.7983 90.5895 85.0001 85.7934 85.0001H7.20648C2.41032 85.0001 -0.578752 79.7983 1.83632 75.6545L41.1299 8.23523ZM49.2783 9.74588C48.0377 7.61726 44.9624 7.61726 43.7218 9.74586L4.42823 77.1652C3.17879 79.3089 4.72519 82.0001 7.20648 82.0001H85.7934C88.2747 82.0001 89.8211 79.3089 88.5716 77.1652L49.2783 9.74588Z" fill="black"/>
</svg>
