<svg width="196" height="196" viewBox="0 0 196 196" fill="none" xmlns="http://www.w3.org/2000/svg">
<path opacity="0.07" fill-rule="evenodd" clip-rule="evenodd" d="M143.054 18.4423C100.215 4.49054 55.1787 11.7959 30.5002 34.5C5.49999 57.4999 2.61559 91.312 6.49999 106C10.3844 120.688 26.842 171 56 177C85.158 183 146.252 191.13 177.01 154.204C207.769 117.277 180.696 30.702 143.054 18.4423ZM107.169 33.1501L165.298 133.852C168.927 140.14 164.389 147.999 157.129 147.999H40.8711C33.6108 147.999 29.0729 140.14 32.7025 133.852L90.8314 33.1501C94.4615 26.8613 103.539 26.8613 107.169 33.1501Z" fill="black"/>
<g opacity="0.2">
<path fill-rule="evenodd" clip-rule="evenodd" d="M111.436 41.1476C108.576 36.193 101.425 36.193 98.564 41.1476L40.4222 141.852C37.5617 146.807 41.1374 153 46.8584 153H163.142C168.863 153 172.439 146.807 169.578 141.852L111.436 41.1476ZM109 126.5C109 131.746 104.747 136 99.5002 136C94.2535 136 90.0002 131.746 90.0002 126.5C90.0002 121.253 94.2535 117 99.5002 117C104.747 117 109 121.253 109 126.5ZM92.0002 62.4998C92.0002 58.3577 95.358 54.9998 99.5002 54.9998C103.642 54.9998 107 58.3577 107 62.4998V103.5C107 107.642 103.642 111 99.5002 111C95.358 111 92.0002 107.642 92.0002 103.5V62.4998Z" fill="black"/>
<path d="M58.8209 39.9263C57.1232 40.8506 56.4962 42.9761 57.4205 44.6738L62.4921 53.9893C63.4164 55.687 65.5419 56.314 67.2396 55.3897C68.9373 54.4655 69.5643 52.3399 68.6401 50.6422L63.5684 41.3267C62.6442 39.629 60.5186 39.002 58.8209 39.9263Z" fill="black"/>
<path d="M37.6468 52.0235C35.9771 51.0496 35.4129 48.9066 36.3867 47.2368C37.3606 45.567 39.5036 45.0029 41.1734 45.9767L60.2584 57.1074C61.9282 58.0812 62.4923 60.2243 61.5185 61.894C60.5447 63.5638 58.4016 64.128 56.7318 63.1541L37.6468 52.0235Z" fill="black"/>
<path d="M151.485 66.6738C152.409 64.9761 151.782 62.8506 150.084 61.9263C148.387 61.002 146.261 61.629 145.337 63.3267L140.265 72.6422C139.341 74.3399 139.968 76.4655 141.666 77.3897C143.363 78.314 145.489 77.687 146.413 75.9893L151.485 66.6738Z" fill="black"/>
<path d="M172.518 69.2368C173.492 70.9066 172.928 73.0496 171.258 74.0235L152.173 85.1541C150.504 86.128 148.361 85.5638 147.387 83.894C146.413 82.2243 146.977 80.0812 148.647 79.1074L167.732 67.9767C169.402 67.0029 171.545 67.567 172.518 69.2368Z" fill="black"/>
<path d="M169.198 95.5229C168.961 97.4413 167.213 98.804 165.295 98.5666L151.57 96.8683C149.652 96.6309 148.289 94.8834 148.527 92.965C148.764 91.0466 150.512 89.6839 152.43 89.9213L166.154 91.6196C168.073 91.857 169.435 93.6045 169.198 95.5229Z" fill="black"/>
<path d="M39.7072 73.5229C39.9445 75.4413 41.6921 76.804 43.6105 76.5666L57.3349 74.8683C59.2533 74.6309 60.616 72.8834 60.3786 70.965C60.1412 69.0466 58.3937 67.6839 56.4753 67.9213L42.7509 69.6196C40.8325 69.857 39.4698 71.6045 39.7072 73.5229Z" fill="black"/>
</g>
<path d="M149.371 17L154 21.5L149.5 26L145 21.5L149.371 17Z" fill="black"/>
<path fill-rule="evenodd" clip-rule="evenodd" d="M158.288 162L167.577 171.288L158.288 180.577L149 171.288L158.288 162ZM155.192 171.288L158.288 174.384L161.384 171.288L158.288 168.192L155.192 171.288Z" fill="black"/>
<path fill-rule="evenodd" clip-rule="evenodd" d="M99.5 136C104.747 136 109 131.747 109 126.5C109 121.253 104.747 117 99.5 117C94.2533 117 90 121.253 90 126.5C90 131.747 94.2533 136 99.5 136ZM99.5 132C96.4624 132 94 129.538 94 126.5C94 123.462 96.4624 121 99.5 121C102.538 121 105 123.462 105 126.5C105 129.538 102.538 132 99.5 132Z" fill="black"/>
<path fill-rule="evenodd" clip-rule="evenodd" d="M99.5 55C95.3579 55 92 58.3579 92 62.5V103.5C92 107.642 95.3579 111 99.5 111C103.642 111 107 107.642 107 103.5V62.5C107 58.3579 103.642 55 99.5 55ZM96 62.5C96 60.567 97.567 59 99.5 59C101.433 59 103 60.567 103 62.5V103.5C103 105.433 101.433 107 99.5 107C97.567 107 96 105.433 96 103.5V62.5Z" fill="black"/>
<path fill-rule="evenodd" clip-rule="evenodd" d="M90.8314 33.1502C94.4615 26.8614 103.539 26.8614 107.169 33.1502L165.298 133.852C168.927 140.14 164.389 148 157.129 148H40.8711C33.6108 148 29.0729 140.14 32.7025 133.852L90.8314 33.1502ZM103.704 35.1499C101.614 31.5282 96.3863 31.5282 94.2957 35.1499L36.1667 135.852C34.0764 139.473 36.6899 144 40.8711 144H157.129C161.31 144 163.924 139.473 161.833 135.852L103.704 35.1499Z" fill="black"/>
<path d="M13 112C14.1046 112 15 112.895 15 114V118H19C20.1046 118 21 118.895 21 120C21 121.105 20.1046 122 19 122H15V126C15 127.105 14.1046 128 13 128C11.8954 128 11 127.105 11 126V122H7C5.89543 122 5 121.105 5 120C5 118.895 5.89543 118 7 118H11V114C11 112.895 11.8954 112 13 112Z" fill="black"/>
</svg>
