<svg width="207" height="202" viewBox="0 0 207 202" fill="none" xmlns="http://www.w3.org/2000/svg">
<path opacity="0.07" d="M20 27.2795C44.6786 4.57543 129 -2.72034 167.5 27.2795C206 57.2794 211.852 134.853 181.094 171.779C150.335 208.706 91.6577 188 62.4997 182C33.3417 176 15.9785 140.467 12.0941 125.779C8.20968 111.091 -5.00018 50.2794 20 27.2795Z" fill="black"/>
<g opacity="0.2">
<path d="M41.0227 36.4438C40.5898 34.5599 41.7661 32.6818 43.65 32.2489C45.5339 31.8159 47.412 32.9922 47.8449 34.8761L50.2204 45.2133C50.6533 47.0972 49.477 48.9753 47.5931 49.4082C45.7093 49.8412 43.8311 48.6649 43.3982 46.781L41.0227 36.4438Z" fill="black"/>
<path d="M20.3738 36.186C19.0961 37.6365 19.2362 39.8482 20.6867 41.1259L35.5813 54.2457C37.0319 55.5233 39.2435 55.3832 40.5212 53.9327C41.7989 52.4822 41.6587 50.2706 40.2082 48.9929L25.3136 35.8731C23.8631 34.5954 21.6515 34.7355 20.3738 36.186Z" fill="black"/>
<path d="M16.1943 59.4568C15.9063 61.3682 17.2223 63.1512 19.1337 63.4392L32.8085 65.4998C34.7199 65.7879 36.5029 64.4718 36.7909 62.5604C37.0789 60.649 35.7629 58.866 33.8515 58.578L20.1768 56.5174C18.2654 56.2293 16.4824 57.5453 16.1943 59.4568Z" fill="black"/>
<path d="M157.411 33.0371C155.611 32.3313 153.58 33.2179 152.875 35.0174L147.825 47.8917C147.119 49.6912 148.006 51.7222 149.805 52.428C151.605 53.1338 153.636 52.2472 154.342 50.4477L159.391 37.5735C160.097 35.7739 159.211 33.743 157.411 33.0371Z" fill="black"/>
<path d="M174.284 41.4935C175.852 40.3633 178.04 40.7185 179.17 42.2867C180.3 43.855 179.945 46.0424 178.376 47.1725L162.273 58.777C160.705 59.9071 158.518 59.552 157.387 57.9837C156.257 56.4155 156.612 54.2281 158.181 53.098L174.284 41.4935Z" fill="black"/>
<path d="M177.833 65.8551C177.83 63.9221 176.26 62.3576 174.327 62.3608L163.721 62.3783C161.788 62.3815 160.223 63.9511 160.226 65.8841C160.23 67.8171 161.799 69.3815 163.732 69.3783L174.339 69.3608C176.272 69.3576 177.836 67.7881 177.833 65.8551Z" fill="black"/>
<path fill-rule="evenodd" clip-rule="evenodd" d="M103.5 175C139.675 175 169 145.674 169 109.5C169 73.3251 139.675 43.9997 103.5 43.9997C67.3253 43.9997 38 73.3251 38 109.5C38 145.674 67.3253 175 103.5 175ZM107 134.5C107 139.746 102.747 144 97.5 144C92.2533 144 88 139.746 88 134.5C88 129.253 92.2533 125 97.5 125C102.747 125 107 129.253 107 134.5ZM90 70.4997C90 66.3576 93.3579 62.9997 97.5 62.9997C101.642 62.9997 105 66.3576 105 70.4997V111.5C105 115.642 101.642 119 97.5 119C93.3579 119 90 115.642 90 111.5V70.4997Z" fill="black"/>
</g>
<path d="M140.371 10L145 14.5L140.5 19L136 14.5L140.371 10Z" fill="black"/>
<path fill-rule="evenodd" clip-rule="evenodd" d="M107 134.5C107 139.747 102.747 144 97.5 144C92.2533 144 88 139.747 88 134.5C88 129.253 92.2533 125 97.5 125C102.747 125 107 129.253 107 134.5ZM103 134.5C103 131.462 100.538 129 97.5 129C94.4624 129 92 131.462 92 134.5C92 137.538 94.4624 140 97.5 140C100.538 140 103 137.538 103 134.5Z" fill="black"/>
<path fill-rule="evenodd" clip-rule="evenodd" d="M90 70.5C90 66.3579 93.3579 63 97.5 63C101.642 63 105 66.3579 105 70.5V111.5C105 115.642 101.642 119 97.5 119C93.3579 119 90 115.642 90 111.5V70.5ZM97.5 67C95.567 67 94 68.567 94 70.5V111.5C94 113.433 95.567 115 97.5 115C99.433 115 101 113.433 101 111.5V70.5C101 68.567 99.433 67 97.5 67Z" fill="black"/>
<path fill-rule="evenodd" clip-rule="evenodd" d="M30 103.5C30 66.2208 60.2208 36 97.5 36C134.779 36 165 66.2208 165 103.5C165 140.779 134.779 171 97.5 171C60.2208 171 30 140.779 30 103.5ZM97.5 40C62.4299 40 34 68.4299 34 103.5C34 138.57 62.4299 167 97.5 167C132.57 167 161 138.57 161 103.5C161 68.4299 132.57 40 97.5 40Z" fill="black"/>
<path d="M26 147C27.1046 147 28 147.895 28 149V153H32C33.1046 153 34 153.895 34 155C34 156.105 33.1046 157 32 157H28V161C28 162.105 27.1046 163 26 163C24.8954 163 24 162.105 24 161V157H20C18.8954 157 18 156.105 18 155C18 153.895 18.8954 153 20 153H24V149C24 147.895 24.8954 147 26 147Z" fill="black"/>
<path fill-rule="evenodd" clip-rule="evenodd" d="M166.288 173L175.577 182.288L166.288 191.577L157 182.288L166.288 173ZM163.192 182.288L166.288 185.384L169.384 182.288L166.288 179.192L163.192 182.288Z" fill="black"/>
</svg>
