<svg width="48" height="48" viewBox="0 0 48 48" fill="none" xmlns="http://www.w3.org/2000/svg">
<path opacity="0.2" fill-rule="evenodd" clip-rule="evenodd" d="M22.9684 11.06C24.3505 8.78728 27.6494 8.78729 29.0315 11.06L45.9998 38.6079C47.4376 40.9723 45.7355 43.9995 42.9682 43.9995H9.03164C6.26432 43.9995 4.56225 40.9723 6.00009 38.6079L22.9684 11.06ZM23 36.9995C24.6569 36.9995 26 35.6564 26 33.9995C26 32.3427 24.6569 30.9995 23 30.9995C21.3431 30.9995 20 32.3427 20 33.9995C20 35.6564 21.3431 36.9995 23 36.9995ZM23 13.9995C21.3431 13.9995 20 15.3427 20 16.9995V25.9995C20 27.6564 21.3431 28.9995 23 28.9995C24.6569 28.9995 26 27.6564 26 25.9995V16.9995C26 15.3427 24.6569 13.9995 23 13.9995Z" fill="black"/>
<path fill-rule="evenodd" clip-rule="evenodd" d="M23 37C24.6569 37 26 35.6569 26 34C26 32.3431 24.6569 31 23 31C21.3431 31 20 32.3431 20 34C20 35.6569 21.3431 37 23 37ZM23 35C22.4477 35 22 34.5523 22 34C22 33.4477 22.4477 33 23 33C23.5523 33 24 33.4477 24 34C24 34.5523 23.5523 35 23 35Z" fill="black"/>
<path fill-rule="evenodd" clip-rule="evenodd" d="M23 14C21.3431 14 20 15.3431 20 17V26C20 27.6569 21.3431 29 23 29C24.6569 29 26 27.6569 26 26V17C26 15.3431 24.6569 14 23 14ZM22 17C22 16.4477 22.4477 16 23 16C23.5523 16 24 16.4477 24 17V26C24 26.5523 23.5523 27 23 27C22.4477 27 22 26.5523 22 26V17Z" fill="black"/>
<path fill-rule="evenodd" clip-rule="evenodd" d="M19.9685 7.061C21.3506 4.78825 24.6495 4.78826 26.0316 7.06101L43.9999 36.6089C45.4377 38.9733 43.7357 42.0004 40.9683 42.0004H5.03176C2.26445 42.0004 0.562374 38.9733 2.00022 36.6089L19.9685 7.061ZM24.3227 8.10017C23.7197 7.10854 22.2804 7.10854 21.6774 8.10016L3.70906 37.648C3.08171 38.6797 3.82435 40.0004 5.03176 40.0004H40.9683C42.1758 40.0004 42.9184 38.6797 42.291 37.648L24.3227 8.10017Z" fill="black"/>
</svg>
