<svg width="48" height="48" viewBox="0 0 48 48" fill="none" xmlns="http://www.w3.org/2000/svg">
<path opacity="0.2" fill-rule="evenodd" clip-rule="evenodd" d="M22.9684 11.06C24.3505 8.78728 27.6494 8.78729 29.0315 11.06L45.9998 38.6079C47.4376 40.9723 45.7355 43.9995 42.9682 43.9995H9.03164C6.26432 43.9995 4.56225 40.9723 6.00009 38.6079L22.9684 11.06ZM23 36.9995C24.6569 36.9995 26 35.6564 26 33.9995C26 32.3427 24.6569 30.9995 23 30.9995C21.3431 30.9995 20 32.3427 20 33.9995C20 35.6564 21.3431 36.9995 23 36.9995ZM23 13.9995C21.3431 13.9995 20 15.3427 20 16.9995V25.9995C20 27.6564 21.3431 28.9995 23 28.9995C24.6569 28.9995 26 27.6564 26 25.9995V16.9995C26 15.3427 24.6569 13.9995 23 13.9995Z" fill="black"/>
<path fill-rule="evenodd" clip-rule="evenodd" d="M20 17C20 15.3431 21.3431 14 23 14C24.6569 14 26 15.3431 26 17V26C26 27.6569 24.6569 29 23 29C21.3431 29 20 27.6569 20 26V17ZM23 16C22.4477 16 22 16.4477 22 17V26C22 26.5523 22.4477 27 23 27C23.5523 27 24 26.5523 24 26V17C24 16.4477 23.5523 16 23 16Z" fill="black"/>
<path fill-rule="evenodd" clip-rule="evenodd" d="M26.25 34C26.25 35.7949 24.7949 37.25 23 37.25C21.2051 37.25 19.75 35.7949 19.75 34C19.75 32.2051 21.2051 30.75 23 30.75C24.7949 30.75 26.25 32.2051 26.25 34ZM24.25 34C24.25 33.3096 23.6904 32.75 23 32.75C22.3096 32.75 21.75 33.3096 21.75 34C21.75 34.6904 22.3096 35.25 23 35.25C23.6904 35.25 24.25 34.6904 24.25 34Z" fill="black"/>
<path fill-rule="evenodd" clip-rule="evenodd" d="M26.0316 7.06101C24.6495 4.78826 21.3506 4.78825 19.9685 7.061L2.00022 36.6089C0.562374 38.9733 2.26445 42.0004 5.03176 42.0004H40.9683C43.7357 42.0004 45.4377 38.9733 43.9999 36.6089L26.0316 7.06101ZM21.6774 8.10016C22.2804 7.10854 23.7197 7.10854 24.3227 8.10017L42.291 37.648C42.9184 38.6797 42.1758 40.0004 40.9683 40.0004H5.03176C3.82435 40.0004 3.08171 38.6797 3.70906 37.648L21.6774 8.10016Z" fill="black"/>
</svg>
