<svg width="48" height="49" viewBox="0 0 48 49" fill="none" xmlns="http://www.w3.org/2000/svg">
<path opacity="0.2" d="M35 39H12C9.27667 39 7 36.7233 7 34V9.30697C7 6.55697 8.12513 5 10.8751 5H40C42.7233 5 45 7.27667 45 10V48.5L35 39ZM34.6681 32L26.0139 10.7979H21.5341L13.4568 32H18.5475L20.1725 27.525H28.9L30.625 32H34.6681Z" fill="black"/>
<path fill-rule="evenodd" clip-rule="evenodd" d="M36.2883 35H8C7.84821 35 7.56889 34.9362 7.1432 34.6713C6.72663 34.4121 6.29735 34.04 5.87868 33.6213C5.31607 33.0587 5 32.2956 5 31.5V6C5 4.35457 6.35457 3 8 3H38C38.7957 3 39.5587 3.31607 40.1213 3.87868C40.6839 4.44129 41 5.20435 41 6V39.3976L36.2883 35ZM43 6C43 4.67392 42.4732 3.40215 41.5355 2.46447C40.5979 1.52678 39.3261 1 38 1H8C5.25 1 3 3.25 3 6V31.5C3 32.8261 3.52678 34.0979 4.46447 35.0355C5.40215 35.9732 6.67392 37 8 37H35.5L43 44V6ZM35.8904 31L26.4104 7H19.4737L10.2937 31H18.8015L20.4265 26.525H25.5275L27.2525 31H35.8904ZM19.025 24.525L17.4 29H13.2L20.85 9H25.05L32.95 29H28.625L26.9 24.525H19.025ZM25.625 21.2L22.9 13.9L20.25 21.2H25.625Z" fill="black"/>
</svg>
