<svg width="96" height="96" viewBox="0 0 96 96" fill="none" xmlns="http://www.w3.org/2000/svg">
<path opacity="0.2" d="M73 76.0625H20.625C14.8379 76.0625 10 71.2246 10 65.4375V19.1523C10 13.3086 12.3909 10 18.2347 10H82.375C88.1621 10 93 14.7129 93 20.5V96L73 76.0625ZM72.0448 65.125L53.6546 20.0705H44.1349L26.9707 65.125H37.7885L41.2416 55.6156H59.7875L63.4531 65.125H72.0448Z" fill="black"/>
<path fill-rule="evenodd" clip-rule="evenodd" d="M74.7781 70.0625H15.125C13.1027 70.0625 11.1633 69.2592 9.73331 67.8292C8.01455 66.1104 7 64.1904 7 62.5V14.625C7 10.613 10.7576 7 15.125 7H78.875C80.8973 7 82.8367 7.80335 84.2667 9.23331C85.9671 10.9337 87 12.9173 87 14.625V81.9126L74.7781 70.0625ZM90 14.625C90 11.8071 88.3806 9.10456 86.388 7.11199C84.3954 5.11942 81.6929 4 78.875 4H15.125C9.28125 4 4 8.78125 4 14.625V62.5C4 65.3179 5.61942 67.9579 7.61199 69.9505C9.60456 71.9431 12.3071 73.0625 15.125 73.0625H73.5625L90 89V14.625ZM72.9507 63L53.5221 15H40.4474L21.7903 63H37.1928L40.6459 53.6156H53.2386L56.9042 63H72.9507ZM38.5531 50.6156L35.1 60H26.175L42.5 18H51.5L68.5 60H58.9531L55.2875 50.6156H38.5531ZM52.5781 43.55L46.7875 28.0375L41.1562 43.55H52.5781ZM48.2561 40.55H45.4368L46.8268 36.7211L48.2561 40.55Z" fill="black"/>
</svg>
