<svg width="196" height="196" viewBox="0 0 196 196" fill="none" xmlns="http://www.w3.org/2000/svg">
<path opacity="0.07" fill-rule="evenodd" clip-rule="evenodd" d="M169.793 166.727C193.15 135.026 184.859 91.1116 174.488 63.6993C169.393 50.2322 148.334 22.3731 104.881 20.3374C61.4281 18.3017 45.8147 32.5067 32.8172 55.0457C19.8196 77.5848 6.31078 122.975 28.4851 158.648C50.6594 194.322 149.269 194.584 169.793 166.727ZM152 63.75V167L129.875 145H48.75C40.7399 145 34 138.082 34 130.125V63.75C34 55.6375 40.6375 49 48.75 49H137.25C145.284 49 152 55.7162 152 63.75Z" fill="black"/>
<path opacity="0.2" d="M128.5 148.875H57C48.899 148.875 42 142.118 42 134V69.7056C42 61.5931 45.3191 57 53.4316 57H141.25C149.284 57 156 63.7162 156 71.75V176L128.5 148.875ZM129.521 133L103.991 70H89.7755L65.9475 133H80.9652L85.7589 120H111.505L116.594 133H129.521Z" fill="black"/>
<path fill-rule="evenodd" clip-rule="evenodd" d="M156.5 25L165 33.5L156.5 42L148 33.5L156.5 25ZM153.667 33.5L156.5 36.3333L159.333 33.5L156.5 30.6667L153.667 33.5Z" fill="black"/>
<path fill-rule="evenodd" clip-rule="evenodd" d="M92.705 81.205L100.744 103H84.8875L92.705 81.205ZM92.7575 92.9063L90.5718 99H95.005L92.7575 92.9063Z" fill="black"/>
<path fill-rule="evenodd" clip-rule="evenodd" d="M106.865 130L101.771 117H84.062L79.2683 130H58.281L84.2457 62H101.214L128.247 130H106.865ZM104.5 113L109.594 126H122.352L98.5 66H87L64.09 126H76.48L81.2738 113H104.5Z" fill="black"/>
<path fill-rule="evenodd" clip-rule="evenodd" d="M137.25 49C145.284 49 152 55.7162 152 63.75V167L129.875 145H48.75C40.7399 145 34 138.082 34 130.125V63.75C34 55.6375 40.6375 49 48.75 49H137.25ZM148 157.382V63.75C148 57.9253 143.075 53 137.25 53H48.75C42.8466 53 38 57.8466 38 63.75V130.125C38 135.926 43.0017 141 48.75 141H131.525L148 157.382Z" fill="black"/>
<path d="M22 144C23.1046 144 24 144.895 24 146V150H28C29.1046 150 30 150.895 30 152C30 153.105 29.1046 154 28 154H24V158C24 159.105 23.1046 160 22 160C20.8954 160 20 159.105 20 158V154H16C14.8954 154 14 153.105 14 152C14 150.895 14.8954 150 16 150H20V146C20 144.895 20.8954 144 22 144Z" fill="black"/>
<path d="M44 170L40 166L36 170L40 174L44 170Z" fill="black"/>
</svg>
