<svg width="96" height="96" viewBox="0 0 96 96" fill="none" xmlns="http://www.w3.org/2000/svg">
<path opacity="0.2" d="M73 74.0625H20.625C14.8379 74.0625 10 69.2246 10 63.4375V17.1523C10 11.3086 12.3909 8 18.2347 8H82.375C88.1621 8 93 12.7129 93 18.5V94L73 74.0625ZM72.0448 63.125L53.6546 18.0705H44.1349L26.9707 63.125H37.7885L41.2416 53.6156H59.7875L63.4531 63.125H72.0448Z" fill="black"/>
<path fill-rule="evenodd" clip-rule="evenodd" d="M74.7781 68.0625H15.125C13.1027 68.0625 11.1633 67.2592 9.73331 65.8292C8.01455 64.1104 7 62.1904 7 60.5V12.625C7 8.61304 10.7576 5 15.125 5H78.875C80.8973 5 82.8367 5.80335 84.2667 7.23331C85.9671 8.9337 87 10.9173 87 12.625V79.9126L74.7781 68.0625ZM90 12.625C90 9.80707 88.3806 7.10456 86.388 5.11199C84.3954 3.11942 81.6929 2 78.875 2H15.125C9.28125 2 4 6.78125 4 12.625V60.5C4 63.3179 5.61942 65.9579 7.61199 67.9505C9.60456 69.9431 12.3071 71.0625 15.125 71.0625H73.5625L90 87V12.625ZM72.9507 61L53.5221 13H40.4474L21.7903 61H37.1928L40.6459 51.6156H53.2386L56.9042 61H72.9507ZM38.5531 48.6156L35.1 58H26.175L42.5 16H51.5L68.5 58H58.9531L55.2875 48.6156H38.5531ZM52.5781 41.55L46.7875 26.0375L41.1562 41.55H52.5781ZM48.2561 38.55H45.4368L46.8268 34.7211L48.2561 38.55Z" fill="black"/>
</svg>
