<svg width="96" height="96" viewBox="0 0 96 96" fill="none" xmlns="http://www.w3.org/2000/svg">
<g opacity="0.2">
<path fill-rule="evenodd" clip-rule="evenodd" d="M50.7234 94.6309C72.8524 94.6309 90.7915 76.6917 90.7915 54.5627C90.7915 32.4337 72.8524 14.4945 50.7234 14.4945C28.5943 14.4945 10.6552 32.4337 10.6552 54.5627C10.6552 76.6917 28.5943 94.6309 50.7234 94.6309ZM69.1635 37.6449L46.8024 69.6449C45.8714 70.9772 44.3987 71.8295 42.7796 71.973C41.1605 72.1165 39.5609 71.5365 38.41 70.3886L25.7711 57.7826C23.6205 55.6375 23.6159 52.1551 25.761 50.0044C27.9061 47.8537 31.3885 47.8492 33.5392 49.9943L41.5389 57.9732L60.1468 31.3441C61.8867 28.8542 65.3157 28.2463 67.8055 29.9862C70.2954 31.7261 70.9034 35.155 69.1635 37.6449Z" fill="black"/>
<path fill-rule="evenodd" clip-rule="evenodd" d="M94.0553 21.1863C94.216 22.5576 93.2345 23.7995 91.8632 23.9601L87.446 24.4775C86.0747 24.6382 84.8328 23.6567 84.6721 22.2854C84.5115 20.914 85.493 19.6721 86.8643 19.5115L91.2815 18.9941C92.6528 18.8335 93.8947 19.8149 94.0553 21.1863Z" fill="black"/>
<path fill-rule="evenodd" clip-rule="evenodd" d="M90.1189 6.57201C91.0333 7.60654 90.9359 9.18645 89.9014 10.1009L82.8111 16.3678C81.7766 17.2822 80.1967 17.1848 79.2823 16.1503C78.3679 15.1157 78.4653 13.5358 79.4998 12.6214L86.5901 6.3545C87.6246 5.4401 89.2045 5.53749 90.1189 6.57201Z" fill="black"/>
<path fill-rule="evenodd" clip-rule="evenodd" d="M76.7402 3.21883C78.0004 3.78287 78.5648 5.26175 78.0008 6.522L76.437 10.0158C75.873 11.2761 74.3941 11.8404 73.1339 11.2764C71.8736 10.7123 71.3093 9.23347 71.8733 7.97322L73.437 4.47942C74.001 3.21917 75.4799 2.65479 76.7402 3.21883Z" fill="black"/>
<path fill-rule="evenodd" clip-rule="evenodd" d="M1.01722 21.1862C0.856583 22.5575 1.83805 23.7994 3.20939 23.96L7.62653 24.4775C8.99786 24.6381 10.2398 23.6566 10.4004 22.2853C10.561 20.9139 9.57957 19.672 8.20823 19.5114L3.79109 18.994C2.41975 18.8334 1.17785 19.8148 1.01722 21.1862Z" fill="black"/>
<path fill-rule="evenodd" clip-rule="evenodd" d="M4.95366 6.57193C4.03926 7.60645 4.13665 9.18637 5.17117 10.1008L12.2614 16.3677C13.296 17.2821 14.8759 17.1847 15.7903 16.1502C16.7047 15.1156 16.6073 13.5357 15.5728 12.6213L8.4825 6.35441C7.44797 5.44002 5.86805 5.5374 4.95366 6.57193Z" fill="black"/>
<path fill-rule="evenodd" clip-rule="evenodd" d="M18.3324 3.21874C17.0721 3.78279 16.5077 5.26167 17.0718 6.52191L18.6355 10.0157C19.1995 11.276 20.6784 11.8404 21.9387 11.2763C23.1989 10.7123 23.7633 9.23338 23.1993 7.97314L21.6355 4.47933C21.0715 3.21908 19.5926 2.6547 18.3324 3.21874Z" fill="black"/>
</g>
<path fill-rule="evenodd" clip-rule="evenodd" d="M69.5083 37.1499C71.2482 34.66 70.6403 31.231 68.1504 29.4912C65.6605 27.7513 62.2315 28.3592 60.4917 30.8491L41.8837 57.4782L33.884 49.4993C31.7334 47.3542 28.2509 47.3587 26.1059 49.5094C23.9608 51.6601 23.9653 55.1425 26.116 57.2876L38.7549 69.8936C39.9057 71.0415 41.5053 71.6215 43.1244 71.478C44.7435 71.3345 46.2162 70.4822 47.1472 69.1499L69.5083 37.1499ZM31.7655 51.6234L42.2956 62.1262L62.9508 32.5675C63.3248 32.0323 63.8705 31.6883 64.4616 31.5581C65.0905 31.4196 65.7708 31.5231 66.3502 31.8954C66.3777 31.9131 66.405 31.9314 66.432 31.9502C67.5638 32.7411 67.8401 34.2997 67.0492 35.4315L44.6881 67.4315C44.2649 68.0371 43.5955 68.4245 42.8596 68.4897C42.1236 68.555 41.3965 68.2913 40.8734 67.7696L28.2345 55.1635C27.257 54.1885 27.2549 52.6055 28.2299 51.628C29.205 50.6504 30.7879 50.6483 31.7655 51.6234Z" fill="black"/>
<path fill-rule="evenodd" clip-rule="evenodd" d="M47.5 8C24.5802 8 6 26.5802 6 49.5C6 72.4198 24.5802 91 47.5 91C70.4198 91 89 72.4198 89 49.5C89 26.5802 70.4198 8 47.5 8ZM9 49.5C9 28.237 26.237 11 47.5 11C68.763 11 86 28.237 86 49.5C86 70.763 68.763 88 47.5 88C26.237 88 9 70.763 9 49.5Z" fill="black"/>
</svg>
