<svg width="48" height="48" viewBox="0 0 48 48" fill="none" xmlns="http://www.w3.org/2000/svg">
<path opacity="0.2" fill-rule="evenodd" clip-rule="evenodd" d="M26.5 47C37.8218 47 47 37.8218 47 26.5C47 15.1782 37.8218 6 26.5 6C15.1782 6 6 15.1782 6 26.5C6 37.8218 15.1782 47 26.5 47ZM17.1213 23.8787L21.0876 27.845L30.5388 14.2846C31.4862 12.9254 33.3561 12.5914 34.7154 13.5388C36.0747 14.4862 36.4086 16.3561 35.4612 17.7154L23.9612 34.2154C23.4535 34.9438 22.6492 35.41 21.7647 35.4883C20.8803 35.5667 20.0065 35.2492 19.3787 34.6213L12.8787 28.1213C11.7071 26.9498 11.7071 25.0503 12.8787 23.8787C14.0503 22.7071 15.9497 22.7071 17.1213 23.8787Z" fill="black"/>
<path fill-rule="evenodd" clip-rule="evenodd" d="M23.5 4C12.7304 4 4 12.7304 4 23.5C4 34.2696 12.7304 43 23.5 43C34.2696 43 43 34.2696 43 23.5C43 12.7304 34.2696 4 23.5 4ZM2 23.5C2 11.6259 11.6259 2 23.5 2C35.3741 2 45 11.6259 45 23.5C45 35.3741 35.3741 45 23.5 45C11.6259 45 2 35.3741 2 23.5Z" fill="black"/>
<path fill-rule="evenodd" clip-rule="evenodd" d="M14.2931 26.7074C13.9026 26.3169 13.9024 25.6835 14.2929 25.293C14.6834 24.9025 15.3166 24.9025 15.7071 25.293L21.3625 30.9484L32.1796 15.4283C32.4954 14.9752 33.1187 14.8639 33.5718 15.1797C34.0249 15.4955 34.1362 16.1188 33.8204 16.5719L22.3204 33.0719C22.1512 33.3147 21.8831 33.4701 21.5882 33.4962C21.2934 33.5223 21.0022 33.4165 20.7929 33.2072L14.2931 26.7074ZM21.0876 27.8451L17.1213 23.8788C15.9497 22.7072 14.0503 22.7072 12.8787 23.8788C11.7071 25.0503 11.7071 26.9498 12.8787 28.1214L19.3787 34.6214C20.0065 35.2493 20.8803 35.5667 21.7647 35.4884C22.6492 35.41 23.4535 34.9439 23.9612 34.2155L35.4612 17.7155C36.4086 16.3562 36.0747 14.4863 34.7154 13.5389C33.3561 12.5915 31.4862 12.9254 30.5388 14.2847L21.0876 27.8451Z" fill="black"/>
</svg>
