<svg width="196" height="196" viewBox="0 0 196 196" fill="none" xmlns="http://www.w3.org/2000/svg">
<path opacity="0.07" fill-rule="evenodd" clip-rule="evenodd" d="M162.5 25.2797C124 -4.72021 39.6786 2.57556 15 25.2796C-10.0002 48.2795 3.20966 109.092 7.09406 123.78C10.9785 138.468 28.3417 174 57.4997 180C61.2966 180.782 65.594 181.812 70.2652 182.933C101.466 190.416 149.341 201.898 176.094 169.78C206.852 132.853 201 55.2795 162.5 25.2797ZM25 101.5C25 64.2209 55.2208 34.0001 92.5 34.0001C129.779 34.0001 160 64.2209 160 101.5C160 138.779 129.779 169 92.5 169C55.2208 169 25 138.779 25 101.5Z" fill="black"/>
<g opacity="0.2">
<path fill-rule="evenodd" clip-rule="evenodd" d="M11.1943 57.4568C10.9063 59.3682 12.2223 61.1512 14.1337 61.4393L27.8085 63.4999C29.7199 63.7879 31.5029 62.4719 31.7909 60.5605C32.0789 58.6491 30.7629 56.8661 28.8515 56.578L15.1768 54.5174C13.2654 54.2294 11.4824 55.5454 11.1943 57.4568Z" fill="black"/>
<path fill-rule="evenodd" clip-rule="evenodd" d="M15.3738 34.1863C14.0961 35.6369 14.2362 37.8485 15.6867 39.1262L30.5813 52.246C32.0318 53.5237 34.2435 53.3836 35.5212 51.933C36.7988 50.4825 36.6587 48.2709 35.2082 46.9932L20.3136 33.8734C18.8631 32.5957 16.6514 32.7358 15.3738 34.1863Z" fill="black"/>
<path fill-rule="evenodd" clip-rule="evenodd" d="M38.65 30.2489C36.7661 30.6818 35.5898 32.5599 36.0228 34.4438L38.3982 44.781C38.8311 46.6649 40.7093 47.8412 42.5932 47.4082C44.4771 46.9753 45.6533 45.0972 45.2204 43.2133L42.8449 32.8761C42.412 30.9922 40.5339 29.8159 38.65 30.2489Z" fill="black"/>
<path fill-rule="evenodd" clip-rule="evenodd" d="M152.411 31.0374C150.611 30.3316 148.58 31.2182 147.875 33.0177L142.825 45.8919C142.119 47.6914 143.006 49.7224 144.805 50.4282C146.605 51.1341 148.636 50.2475 149.342 48.4479L154.391 35.5737C155.097 33.7742 154.211 31.7432 152.411 31.0374Z" fill="black"/>
<path fill-rule="evenodd" clip-rule="evenodd" d="M174.17 40.2864C173.04 38.7182 170.852 38.3631 169.284 39.4932L153.181 51.0977C151.612 52.2278 151.257 54.4152 152.387 55.9834C153.517 57.5517 155.705 57.9068 157.273 56.7767L173.376 45.1722C174.945 44.0421 175.3 41.8547 174.17 40.2864Z" fill="black"/>
<path fill-rule="evenodd" clip-rule="evenodd" d="M173.376 64.4317C173.373 62.4987 171.804 60.9343 169.871 60.9375L159.264 60.955C157.331 60.9582 155.767 62.5278 155.77 64.4608C155.773 66.3937 157.343 67.9582 159.276 67.955L169.882 67.9375C171.815 67.9343 173.38 66.3647 173.376 64.4317Z" fill="black"/>
<path fill-rule="evenodd" clip-rule="evenodd" d="M98.5 173C134.675 173 164 143.674 164 107.5C164 71.3251 134.675 41.9997 98.5 41.9997C62.3253 41.9997 33 71.3251 33 107.5C33 143.674 62.3253 173 98.5 173ZM126.143 80.3022L89.7266 132.302C88.4567 134.115 86.4507 135.275 84.2456 135.471C82.0406 135.666 79.8618 134.877 78.2927 133.316L57.7094 112.831C54.7734 109.909 54.7621 105.16 57.684 102.224C60.6059 99.2885 65.3546 99.2772 68.2905 102.199L82.5544 116.395L113.857 71.6976C116.233 68.3047 120.909 67.4805 124.302 69.8566C127.695 72.2327 128.519 76.9093 126.143 80.3022Z" fill="black"/>
</g>
<path d="M140 12.5L135.371 8L131 12.5L135.5 17L140 12.5Z" fill="black"/>
<path fill-rule="evenodd" clip-rule="evenodd" d="M126.143 80.302C128.519 76.9091 127.695 72.2324 124.302 69.8563C120.909 67.4803 116.233 68.3045 113.857 71.6974L82.5544 116.394L68.2906 102.199C65.3546 99.2769 60.6059 99.2883 57.684 102.224C54.7621 105.16 54.7735 109.909 57.7094 112.831L78.2928 133.316C79.8618 134.877 82.0406 135.666 84.2457 135.47C86.4507 135.275 88.4568 134.115 89.7266 132.302L126.143 80.302ZM65.4689 105.034L83.1032 122.584L117.133 73.9919C118.242 72.4086 120.424 72.0239 122.008 73.1328C123.591 74.2416 123.976 76.4241 122.867 78.0074L86.4502 130.007C85.8576 130.854 84.9214 131.395 83.8924 131.486C82.8634 131.577 81.8466 131.209 81.1144 130.48L60.5311 109.996C59.161 108.632 59.1556 106.416 60.5192 105.046C61.8828 103.676 64.0988 103.67 65.4689 105.034Z" fill="black"/>
<path fill-rule="evenodd" clip-rule="evenodd" d="M92.5 34C55.2208 34 25 64.2208 25 101.5C25 138.779 55.2208 169 92.5 169C129.779 169 160 138.779 160 101.5C160 64.2208 129.779 34 92.5 34ZM29 101.5C29 66.4299 57.4299 38 92.5 38C127.57 38 156 66.4299 156 101.5C156 136.57 127.57 165 92.5 165C57.4299 165 29 136.57 29 101.5Z" fill="black"/>
<path d="M24 149C24 147.895 23.1046 147 22 147C20.8954 147 20 147.895 20 149V153H16C14.8954 153 14 153.895 14 155C14 156.105 14.8954 157 16 157H20V161C20 162.105 20.8954 163 22 163C23.1046 163 24 162.105 24 161V157H28C29.1046 157 30 156.105 30 155C30 153.895 29.1046 153 28 153H24V149Z" fill="black"/>
<path fill-rule="evenodd" clip-rule="evenodd" d="M170.577 180.288L161.288 171L152 180.288L161.288 189.577L170.577 180.288ZM161.288 183.384L158.192 180.288L161.288 177.192L164.384 180.288L161.288 183.384Z" fill="black"/>
</svg>
