<svg width="207" height="202" viewBox="0 0 207 202" fill="none" xmlns="http://www.w3.org/2000/svg">
<path opacity="0.07" d="M20 27.2795C44.6786 4.57543 129 -2.72034 167.5 27.2795C206 57.2794 211.852 134.853 181.094 171.779C150.335 208.706 91.6577 188 62.4997 182C33.3417 176 15.9785 140.467 12.0941 125.779C8.20968 111.091 -5.00018 50.2794 20 27.2795Z" fill="black"/>
<g opacity="0.2">
<path fill-rule="evenodd" clip-rule="evenodd" d="M16.1943 59.4568C15.9063 61.3682 17.2223 63.1512 19.1337 63.4393L32.8085 65.4999C34.7199 65.7879 36.5029 64.4719 36.7909 62.5605C37.0789 60.6491 35.7629 58.8661 33.8515 58.578L20.1768 56.5174C18.2654 56.2294 16.4824 57.5454 16.1943 59.4568Z" fill="black"/>
<path fill-rule="evenodd" clip-rule="evenodd" d="M20.3738 36.1863C19.0961 37.6369 19.2362 39.8485 20.6867 41.1262L35.5813 54.246C37.0318 55.5237 39.2435 55.3836 40.5212 53.933C41.7988 52.4825 41.6587 50.2709 40.2082 48.9932L25.3136 35.8734C23.8631 34.5957 21.6514 34.7358 20.3738 36.1863Z" fill="black"/>
<path fill-rule="evenodd" clip-rule="evenodd" d="M43.65 32.2489C41.7661 32.6818 40.5898 34.5599 41.0228 36.4438L43.3982 46.781C43.8311 48.6649 45.7093 49.8412 47.5932 49.4082C49.4771 48.9753 50.6533 47.0972 50.2204 45.2133L47.8449 34.8761C47.412 32.9922 45.5339 31.8159 43.65 32.2489Z" fill="black"/>
<path fill-rule="evenodd" clip-rule="evenodd" d="M157.411 33.0374C155.611 32.3316 153.58 33.2182 152.875 35.0177L147.825 47.8919C147.119 49.6914 148.006 51.7224 149.805 52.4282C151.605 53.1341 153.636 52.2475 154.342 50.4479L159.391 37.5737C160.097 35.7742 159.211 33.7432 157.411 33.0374Z" fill="black"/>
<path fill-rule="evenodd" clip-rule="evenodd" d="M179.17 42.2864C178.04 40.7182 175.852 40.3631 174.284 41.4932L158.181 53.0977C156.612 54.2278 156.257 56.4152 157.387 57.9834C158.517 59.5517 160.705 59.9068 162.273 58.7767L178.376 47.1722C179.945 46.0421 180.3 43.8547 179.17 42.2864Z" fill="black"/>
<path fill-rule="evenodd" clip-rule="evenodd" d="M177.833 65.8555C177.83 63.9225 176.26 62.3581 174.327 62.3613L163.721 62.3787C161.788 62.3819 160.223 63.9515 160.226 65.8845C160.23 67.8175 161.799 69.3819 163.732 69.3787L174.339 69.3612C176.272 69.3581 177.836 67.7885 177.833 65.8555Z" fill="black"/>
<path fill-rule="evenodd" clip-rule="evenodd" d="M103.5 175C139.675 175 169 145.674 169 109.5C169 73.3251 139.675 43.9997 103.5 43.9997C67.3253 43.9997 38 73.3251 38 109.5C38 145.674 67.3253 175 103.5 175ZM131.143 82.3022L94.7266 134.302C93.4567 136.115 91.4507 137.275 89.2456 137.471C87.0406 137.666 84.8618 136.877 83.2927 135.316L62.7094 114.831C59.7734 111.909 59.7621 107.16 62.684 104.224C65.6059 101.289 70.3546 101.277 73.2905 104.199L87.5544 118.395L118.857 73.6976C121.233 70.3048 125.909 69.4805 129.302 71.8566C132.695 74.2327 133.519 78.9093 131.143 82.3022Z" fill="black"/>
</g>
<path d="M145 14.5L140.371 10L136 14.5L140.5 19L145 14.5Z" fill="black"/>
<path fill-rule="evenodd" clip-rule="evenodd" d="M131.143 82.302C133.519 78.9091 132.695 74.2324 129.302 71.8563C125.909 69.4803 121.233 70.3045 118.857 73.6974L87.5544 118.394L73.2906 104.199C70.3546 101.277 65.6059 101.288 62.684 104.224C59.7621 107.16 59.7735 111.909 62.7094 114.831L83.2928 135.316C84.8618 136.877 87.0406 137.666 89.2457 137.47C91.4507 137.275 93.4568 136.115 94.7266 134.302L131.143 82.302ZM70.4689 107.034L88.1032 124.584L122.133 75.9919C123.242 74.4086 125.424 74.0239 127.008 75.1328C128.591 76.2416 128.976 78.4241 127.867 80.0074L91.4502 132.007C90.8576 132.854 89.9214 133.395 88.8924 133.486C87.8634 133.577 86.8466 133.209 86.1144 132.48L65.5311 111.996C64.161 110.632 64.1556 108.416 65.5192 107.046C66.8828 105.676 69.0988 105.67 70.4689 107.034Z" fill="black"/>
<path fill-rule="evenodd" clip-rule="evenodd" d="M97.5 36C60.2208 36 30 66.2208 30 103.5C30 140.779 60.2208 171 97.5 171C134.779 171 165 140.779 165 103.5C165 66.2208 134.779 36 97.5 36ZM34 103.5C34 68.4299 62.4299 40 97.5 40C132.57 40 161 68.4299 161 103.5C161 138.57 132.57 167 97.5 167C62.4299 167 34 138.57 34 103.5Z" fill="black"/>
<path d="M29 151C29 149.895 28.1046 149 27 149C25.8954 149 25 149.895 25 151V155H21C19.8954 155 19 155.895 19 157C19 158.105 19.8954 159 21 159H25V163C25 164.105 25.8954 165 27 165C28.1046 165 29 164.105 29 163V159H33C34.1046 159 35 158.105 35 157C35 155.895 34.1046 155 33 155H29V151Z" fill="black"/>
<path fill-rule="evenodd" clip-rule="evenodd" d="M175.577 182.288L166.288 173L157 182.288L166.288 191.577L175.577 182.288ZM166.288 185.384L163.192 182.288L166.288 179.192L169.384 182.288L166.288 185.384Z" fill="black"/>
</svg>
