<svg width="96" height="96" viewBox="0 0 96 96" fill="none" xmlns="http://www.w3.org/2000/svg">
<g opacity="0.2">
<path fill-rule="evenodd" clip-rule="evenodd" d="M32.9125 7.4502C25.1093 7.4502 18.8667 13.8825 18.8667 21.7132V30.2897C18.8667 33.4593 47.05 33.4593 47.05 30.2897V21.7132C46.9582 13.7893 40.6239 7.4502 32.9125 7.4502ZM24.283 24.5099L24.3748 21.7132C24.3748 16.9589 28.1387 13.1368 32.8207 13.1368C37.5026 13.1368 41.2665 16.9589 41.2665 21.7132V24.5099C37.6862 25.5353 27.7715 25.6286 24.283 24.5099Z" fill="black"/>
<path d="M83 22C83 20.8954 82.1046 20 81 20H70C68.8954 20 68 20.8954 68 22V37C68 38.6569 69.3431 40 71 40H80C80 41.6569 81.3431 43 83 43H90C93.3137 43 96 40.3137 96 37V25C96 23.3431 94.6569 22 93 22H83Z" fill="black"/>
<path d="M28.0162 47H39.9838C41.6378 47 43 45.6452 43 44C43 42.3548 41.6378 41 39.9838 41H28.0162C26.3622 41 25 42.3548 25 44C25 45.6452 26.3622 47 28.0162 47Z" fill="black"/>
</g>
<path fill-rule="evenodd" clip-rule="evenodd" d="M41.8824 20.5343V21.6508C42.0704 21.5647 42.2796 21.5166 42.4999 21.5166C43.3192 21.5166 43.9833 22.1807 43.9833 22.9999C43.9833 23.8398 43.4274 24.3444 43.1237 24.5603C42.7917 24.7965 42.4026 24.9537 42.058 25.0662C41.3496 25.2976 40.4194 25.4677 39.4055 25.5965C37.3528 25.8571 34.6604 25.9833 31.9999 25.9833C29.3395 25.9833 26.647 25.8571 24.5943 25.5965C23.5804 25.4677 22.6502 25.2976 21.9418 25.0662C21.5972 24.9537 21.2082 24.7965 20.8761 24.5603C20.5725 24.3444 20.0166 23.8398 20.0166 22.9999C20.0166 22.181 20.6802 21.5171 21.499 21.5166V20.5343C21.499 14.8598 26.3527 10.0166 31.9999 10.0166C37.781 10.0166 41.8824 15.0004 41.8824 20.5343ZM24.4657 20.5343V22.5844C24.6247 22.6081 24.7923 22.6311 24.968 22.6534C26.8528 22.8928 29.4104 23.0166 31.9999 23.0166C34.5367 23.0166 37.0428 22.8978 38.9158 22.6679V20.5343C38.9158 16.3565 35.8738 12.9833 31.9999 12.9833C27.9922 12.9833 24.4657 16.4971 24.4657 20.5343Z" fill="black"/>
<path fill-rule="evenodd" clip-rule="evenodd" d="M26.5162 37.0166C24.0504 37.0166 22.0166 39.028 22.0166 41.4999C22.0166 43.9718 24.0504 45.9833 26.5162 45.9833H38.4837C40.8976 45.9833 42.8414 43.9427 42.9807 41.5875C42.9824 41.5583 42.9833 41.5291 42.9833 41.4999C42.9833 39.028 40.9494 37.0166 38.4837 37.0166H26.5162ZM24.9833 41.4999C24.9833 40.6815 25.6738 39.9833 26.5162 39.9833H38.4837C39.3114 39.9833 39.9924 40.6573 40.016 41.4572C39.9389 42.3688 39.1721 43.0166 38.4837 43.0166H26.5162C25.6738 43.0166 24.9833 42.3183 24.9833 41.4999Z" fill="black"/>
<path fill-rule="evenodd" clip-rule="evenodd" d="M31.9999 4.0166C23.1684 4.0166 16.0166 11.7453 16.0166 20.4999V27.6288C11.0259 28.3874 7.0166 32.8899 7.0166 38.0537V60.9999C7.0166 64.2024 9.81725 66.9833 12.9999 66.9833C14.0812 66.9833 15.1185 66.6623 16.0167 66.1128V71.2752C16.0057 71.3485 16 71.4236 16 71.5C16 71.5764 16.0057 71.6515 16.0167 71.7248V87.4731L16.0166 87.5177V90.5166C16.0166 91.3358 16.6807 91.9999 17.4999 91.9999H29.4999C30.3192 91.9999 30.9833 91.3358 30.9833 90.5166V71.7248C30.9943 71.6515 31 71.5764 31 71.5C31 71.4236 30.9943 71.3485 30.9833 71.2752V62.9833H34.0166V90.5166C34.0166 91.3358 34.6807 91.9999 35.4999 91.9999H47.4999C48.3181 91.9999 48.9816 91.3375 48.9833 90.5197L48.9834 90.4999L48.9834 43.1436L60.8245 55.2762L60.8341 55.2859C61.1966 55.6505 61.5945 55.9573 62.0166 56.2062V90.4999C62.0166 91.3192 62.6807 91.9833 63.4999 91.9833C64.3192 91.9833 64.9833 91.3192 64.9833 90.4999V57.0088C66.4695 57.0035 67.9541 56.4292 69.0907 55.2859C71.3691 52.9941 71.3697 49.2997 69.0925 47.0072L69.0907 47.0054L65.2473 43.1093C65.1842 43.0023 65.1065 42.9015 65.0143 42.8098C65.0041 42.7996 64.9937 42.7896 64.9833 42.7798V36.9833H78.0166V38.4999C78.0166 39.3192 78.6807 39.9833 79.4999 39.9833H88.5071C90.979 39.9833 92.9845 37.9825 92.9904 35.5106L93.0261 20.5106C93.032 18.0304 91.0231 16.0166 88.5428 16.0166H80.6526C80.0955 14.8346 78.8932 14.0166 77.4999 14.0166H64.9833V12.7321C66.7304 12.1198 67.9833 10.4562 67.9833 8.49993C67.9833 6.02386 65.976 4.0166 63.4999 4.0166C61.0239 4.0166 59.0166 6.02386 59.0166 8.49993C59.0166 10.4562 60.2695 12.1197 62.0166 12.7321V39.8344L56.8841 34.6316L56.88 34.6276C56.4716 34.2167 56.0267 33.742 55.5575 33.2414C54.6012 32.221 53.5443 31.0932 52.4902 30.18C51.2216 29.0811 49.7231 28.0661 47.9833 27.6805V20.4999C47.9833 11.7518 40.9323 4.0166 31.9999 4.0166ZM18.9833 20.4999C18.9833 13.2586 24.9293 6.98327 31.9999 6.98327C39.1591 6.98327 45.0166 13.2521 45.0166 20.4999V28.5511C44.9423 28.5875 44.8461 28.63 44.7236 28.6768C44.0815 28.9226 43.0741 29.1567 41.7503 29.3537C39.1294 29.7438 35.5832 29.9446 31.9999 29.9446C28.4167 29.9446 24.8705 29.7438 22.2496 29.3537C20.9258 29.1567 19.9184 28.9226 19.2762 28.6768C19.1538 28.63 19.0575 28.5874 18.9833 28.5511V20.4999ZM62.0166 47.9291V52.2501L59.8886 50.0697L62.0166 47.9291ZM64.9833 54.0421V47.066L66.9828 49.0929L66.9868 49.097C68.1154 50.2323 68.1154 52.059 66.9868 53.1943C66.4302 53.7542 65.7075 54.0368 64.9833 54.0421ZM18.9834 87.483C19.002 85.0141 21.0011 82.9833 23.4999 82.9833C26.0104 82.9833 28.0166 85.0332 28.0166 87.5177V89.0333H18.9834V87.483ZM23.4999 80.0166C21.7936 80.0166 20.2329 80.5849 18.9834 81.5362V73H28.0166V81.5363C26.7671 80.585 25.2063 80.0166 23.4999 80.0166ZM46.0167 81.5364C44.7672 80.585 43.2064 80.0166 41.4999 80.0166C39.7936 80.0166 38.2328 80.585 36.9833 81.5363V72.9833H46.0167V81.5364ZM36.9833 87.5177C36.9833 85.0332 38.9894 82.9833 41.4999 82.9833C44.0104 82.9833 46.0166 85.0332 46.0166 87.5177V89.0333H36.9833V87.5177ZM16.0167 57.9833V60.98L16.0166 60.9999C16.0166 62.5581 14.5501 64.0166 12.9999 64.0166C11.4498 64.0166 9.98327 62.5581 9.98327 60.9999V57.9833H16.0167ZM16.0167 38.4999V55.0166H9.98327V38.0537C9.98327 34.2865 13.0334 30.9701 16.6833 30.5322C16.748 30.5972 16.8129 30.6559 16.8759 30.7084C17.2677 31.035 17.7506 31.2694 18.2158 31.4475C19.1596 31.8087 20.4178 32.0804 21.8128 32.2881C24.6294 32.7073 28.3332 32.9112 31.9999 32.9112C35.6667 32.9112 39.3705 32.7073 42.1871 32.2881C43.582 32.0804 44.8403 31.8087 45.7841 31.4475C46.2493 31.2694 46.7322 31.035 47.124 30.7084C47.1762 30.6649 47.2297 30.6171 47.2833 30.565C48.3319 30.782 49.3961 31.4247 50.5477 32.4224C51.4958 33.2436 52.3446 34.1519 53.2262 35.0954C53.7238 35.6279 54.2319 36.1716 54.7742 36.7172L54.7761 36.7192L61.8495 43.8893L57.8162 47.9464L48.5733 38.476C48.5335 38.4343 48.4912 38.3949 48.4468 38.358C48.3508 38.2781 48.2469 38.2122 48.1379 38.1604C47.946 38.0688 47.7313 38.0173 47.5046 38.0166L47.5001 38.0166C47.3245 38.0166 47.156 38.0471 46.9997 38.1031C46.8049 38.1728 46.6216 38.2845 46.4639 38.4384C46.2807 38.6172 46.1536 38.8318 46.0829 39.0604C46.057 39.1442 46.0387 39.2299 46.028 39.3164C46.0196 39.3839 46.0158 39.4518 46.0167 39.5198V48.9834H18.9834V38.4999C18.9834 37.6807 18.3193 37.0166 17.5001 37.0166C16.6808 37.0166 16.0167 37.6807 16.0167 38.4999ZM18.9834 70V51.9501H46.0167V70.0166H36.9833V61.4999C36.9833 60.6807 36.3192 60.0166 35.4999 60.0166H29.4999C28.6807 60.0166 28.0166 60.6807 28.0166 61.4999V70H18.9834ZM63.4999 6.98327C64.3376 6.98327 65.0166 7.6623 65.0166 8.49993C65.0166 9.33757 64.3376 10.0166 63.4999 10.0166C62.6623 10.0166 61.9833 9.33757 61.9833 8.49993C61.9833 7.6623 62.6623 6.98327 63.4999 6.98327ZM64.9833 34.0166V16.9833H77.4999C77.7853 16.9833 78.0166 17.2146 78.0166 17.4999V34.0166H64.9833ZM88.5428 18.9833C89.3819 18.9833 90.0615 19.6645 90.0595 20.5035L90.0237 35.5035C90.0217 36.3398 89.3433 37.0166 88.5071 37.0166H80.9833V18.9833H88.5428Z" fill="black"/>
</svg>
