<svg width="48" height="48" viewBox="0 0 48 48" fill="none" xmlns="http://www.w3.org/2000/svg">
<path opacity="0.2" d="M39.5 12C39.2239 12 39 11.7761 39 11.5C39 11.2239 38.7761 11 38.5 11H32.4C31.6268 11 31 11.6268 31 12.4V18.6C31 19.3732 31.6268 20 32.4 20H38C38.5523 20 39 20.4477 39 21C39 21.5523 39.4477 22 40 22H43.6C44.3732 22 45 21.3732 45 20.6V13.4C45 12.6268 44.3732 12 43.6 12H39.5Z" fill="black"/>
<path fill-rule="evenodd" clip-rule="evenodd" d="M15.0312 5.84375C12.8566 5.84375 11.3687 6.26431 10.5907 7.42893C10.2214 7.98176 10.0901 8.59806 10.0369 9.15713C9.99433 9.6035 9.99676 10.0941 9.99902 10.5495C9.99951 10.6496 10 10.7479 10 10.8438V12.3438C10 12.7501 10.1962 13.0526 10.3805 13.2381C10.5555 13.4143 10.759 13.529 10.9242 13.6053C11.2577 13.7594 11.6679 13.8617 12.0731 13.9346C12.9019 14.0835 13.9658 14.1525 15 14.1525C16.0342 14.1525 17.0981 14.0835 17.9269 13.9346C18.3321 13.8617 18.7423 13.7594 19.0758 13.6053C19.241 13.529 19.4445 13.4143 19.6195 13.2381C19.8038 13.0526 20 12.7501 20 12.3438V10.8438C20 10.7282 20.0009 10.6082 20.0019 10.4857V10.4825C20.0052 10.0507 20.0087 9.5869 19.974 9.16914C19.9279 8.61502 19.8081 7.99757 19.4489 7.44171C18.6872 6.26273 17.2019 5.84375 15.0312 5.84375ZM11.9991 10.4966C11.9972 10.0486 11.9957 9.68416 12.0279 9.34687C12.0665 8.94111 12.1464 8.70063 12.2538 8.53991C12.4291 8.27742 12.9568 7.84375 15.0312 7.84375C17.1096 7.84375 17.6088 8.27899 17.7691 8.52712C17.871 8.68482 17.9467 8.92415 17.9808 9.33487C18.0074 9.65394 18.005 9.99098 18.002 10.4001C18.0011 10.5388 18 10.6864 18 10.8438V11.8714C17.8895 11.9021 17.748 11.9347 17.5731 11.9661C16.9019 12.0867 15.9658 12.1525 15 12.1525C14.0342 12.1525 13.0981 12.0867 12.4269 11.9661C12.252 11.9347 12.1105 11.9021 12 11.8714V10.8438C12 10.7225 11.9995 10.6069 11.9991 10.4966Z" fill="black"/>
<path d="M11 21C11 20.4477 11.4477 20 12 20H18C18.5523 20 19 20.4477 19 21C19 21.5523 18.5523 22 18 22H12C11.4477 22 11 21.5523 11 21Z" fill="black"/>
<path fill-rule="evenodd" clip-rule="evenodd" d="M15.0312 2C11.2138 2 8.83127 3.12304 7.46438 4.99489C6.14739 6.79841 5.94555 9.08264 5.94555 11V14.9389C5.00971 15.0918 4.1519 15.4663 3.46776 16.0711C2.53169 16.8987 2 18.0895 2 19.5V30.5C2 32.0179 3.13425 34 5.46597 34C6.04579 34 6.55808 33.8762 7 33.6661V44C7 44.5523 7.44769 45 7.99995 45L13 45C13.5523 45 14 44.5523 14 44V32H16V44C16 44.5523 16.4477 45 17 45L22 45C22.5523 45 23 44.5523 23 44L23 35V25L23 23.3024L25.8737 26.036L27.8421 27.8959C27.8932 27.9473 27.9459 27.9962 28 28.0428V44C28 44.5523 28.4477 45 29 45C29.5523 45 30 44.5523 30 44V28.7859C30.033 28.7869 30.0659 28.7873 30.0987 28.7873C30.8936 28.7873 31.7508 28.5126 32.3702 27.8809C32.991 27.2479 33.2511 26.3725 33.2511 25.5747C33.2511 24.7798 32.9928 23.9079 32.3769 23.2754L30 20.7665V19H36C36 20.1046 36.8954 21 38 21H41C42.6569 21 44 19.6569 44 18V12C44 10.3431 42.6569 9 41 9H37.9146C37.7087 8.4174 37.1531 8 36.5 8H30V7.82929C31.1652 7.41746 32 6.30622 32 5C32 3.34315 30.6569 2 29 2C27.3431 2 26 3.34314 26 5C26 6.30622 26.8348 7.41746 28 7.82929V18.6553L26.7572 17.3435L26.7452 17.3311C26.6309 17.2145 26.5178 17.098 26.4061 16.9829C25.9298 16.4923 25.4779 16.0267 25.0532 15.6811C24.7479 15.4326 24.4113 15.2064 24.0312 15.0546V11C24.0312 9.09294 23.8535 6.80738 22.5607 5.00235C21.2148 3.12323 18.8483 2 15.0312 2ZM7.94555 11C7.94555 9.14302 8.16467 7.42725 9.07958 6.17436C9.94459 4.98979 11.6049 4 15.0312 4C18.4579 4 20.0915 4.98961 20.9347 6.1669C21.8309 7.41828 22.0312 9.13272 22.0312 11L22.0304 15.4098C21.6809 15.5236 21.1264 15.6337 20.3922 15.7266C18.9407 15.9104 16.9753 16.0051 14.9884 16.0051C13.0015 16.0051 11.0361 15.9104 9.58457 15.7266C8.8504 15.6337 8.29514 15.5234 7.94555 15.4095V11ZM12 39.3441C11.5504 39.1239 11.0437 39 10.5 39C9.95631 39 9.44963 39.1239 9 39.3441V36H12V39.3441ZM9 42.6522C9 41.6697 9.71369 41 10.5 41C11.2863 41 12 41.6697 12 42.6522V43H9V42.6522ZM18 43V42.6522C18 41.6697 18.7137 41 19.5 41C20.2856 41 20.9987 41.6684 21 42.6494L21 43H18ZM19.5 39C18.9563 39 18.4496 39.1239 18 39.3441V36H21V39.3441C20.5504 39.1239 20.0437 39 19.5 39ZM9 34V26H21V34H18V31C18 30.4477 17.5523 30 17 30H13C12.4477 30 12 30.4477 12 31V34H9ZM7 30.5C7 31.1884 6.43714 32 5.46597 32C4.5298 32 4 31.2287 4 30.5V29H7V30.5ZM7 27H4V19.5C4 18.6189 4.31752 17.9894 4.79245 17.5695C5.19476 17.2139 5.76379 16.9628 6.46985 16.8849C6.49735 16.9069 6.52357 16.9265 6.54775 16.9436C6.78568 17.1123 7.06855 17.2273 7.32711 17.3115C7.85721 17.4841 8.55945 17.6128 9.33331 17.7108C10.8978 17.9089 12.9538 18.0051 14.9884 18.0051C17.023 18.0051 19.079 17.9089 20.6435 17.7108C21.4173 17.6128 22.1196 17.4841 22.6497 17.3115C22.8979 17.2307 23.1686 17.1215 23.4004 16.9636C23.5076 17.0201 23.6349 17.1054 23.7907 17.2322C24.1158 17.4968 24.4608 17.8517 24.9269 18.3311L24.9278 18.332L24.936 18.3405L24.9371 18.3416L24.9386 18.3432C25.0548 18.4626 25.1785 18.5898 25.3112 18.7252L28 21.5634V22.4813L26.5469 23.9205L22.9136 20.4599C22.6606 20.2208 22.3637 20 22 20C21.4477 20 21 20.4477 21 21V24H9V21C9 20.4477 8.55228 20 8 20C7.44772 20 7 20.4477 7 21V27ZM30 26.7841V23.6745L30.9303 24.6565L30.9423 24.6689C31.1146 24.8447 31.2511 25.1709 31.2511 25.5747C31.2511 25.9785 31.1146 26.3048 30.9423 26.4806C30.7686 26.6577 30.4648 26.7873 30.0987 26.7873C30.0653 26.7873 30.0324 26.7862 30 26.7841ZM29 4C29.5523 4 30 4.44771 30 5C30 5.55229 29.5523 6 29 6C28.4477 6 28 5.55228 28 5C28 4.44772 28.4477 4 29 4ZM30 17V10H36V17H30ZM38 19V11H41C41.5523 11 42 11.4477 42 12V18C42 18.5523 41.5523 19 41 19H38Z" fill="black"/>
</svg>
