<svg width="196" height="196" viewBox="0 0 196 196" fill="none" xmlns="http://www.w3.org/2000/svg">
<path opacity="0.07" fill-rule="evenodd" clip-rule="evenodd" d="M179 117C204 80 177.358 32.9338 166.684 27.3866C163.254 25.604 160.369 23.7451 157.502 21.8977C146.58 14.8601 135.915 7.98819 96.3561 6.13302C46.412 3.79085 37.0698 17.596 21.4341 44.8866C5.79836 72.1772 -8.7962 126.787 16.8799 162.387C37.4823 190.952 68.0335 189.213 99.7076 187.411C107.508 186.967 115.376 186.519 123.18 186.519C156.829 186.519 159.977 173.119 164.531 153.734C167.071 142.922 170.048 130.248 179 117ZM121 34C119.343 34 118 35.3431 118 37C118 38.6569 119.343 40 121 40C122.657 40 124 38.6569 124 37C124 35.3431 122.657 34 121 34ZM78 164.283C78 160.257 81.2656 157 85.5 157C89.4862 157 92.6138 159.886 92.9668 163.583V167H78V164.283ZM78 155.697V140H92.9668V155.67C90.9583 153.998 88.351 153 85.5 153C82.6332 153 80.0129 154.009 78 155.697ZM57.5 153C54.6332 153 52.0129 154.009 50 155.697V140H65V155.697C62.9871 154.009 60.3668 153 57.5 153ZM57.5 157C61.7344 157 65 160.257 65 164.283V167H50V164.283C50 160.257 53.2656 157 57.5 157ZM50 107H92.9668V136H78V121.99C78 120.885 77.1046 119.99 76 119.99H67C65.8954 119.99 65 120.885 65 121.99V136H50V107ZM50 103V86C50 84.8954 49.1046 84 48 84C46.8954 84 46 84.8954 46 86V113H35V84.5557C35 78.2437 39.737 73.1205 45.8282 72.5366C45.9685 72.6901 46.1144 72.8244 46.2556 72.9397C46.8455 73.421 47.5842 73.772 48.3194 74.0434C49.8087 74.5932 51.8141 75.0041 54.065 75.3132C58.6033 75.9363 64.5849 76.2023 70.5165 76.1416C76.4483 76.0808 82.4295 75.6924 86.9667 74.9766C89.2177 74.6214 91.2206 74.1698 92.7062 73.591C93.44 73.305 94.1725 72.9413 94.7552 72.4538C94.8785 72.3507 95.0056 72.2327 95.1293 72.0997C96.9842 72.4248 98.832 73.5315 100.786 75.2165C102.346 76.5615 103.762 78.0711 105.212 79.6178C105.996 80.4535 106.79 81.3 107.622 82.1374L107.626 82.1411L119 93.6711V94.1829L112.185 101.046L96.4226 85.0942C96.0272 84.6941 95.5047 84.4958 94.9833 84.5001L94.9668 84.5C93.8622 84.5 92.9668 85.3954 92.9668 86.5V103H50ZM44.254 125.445C45.3761 124.452 46 123.205 46 121.99V117H35V122.037C35 124.641 37.4896 127.027 40.307 127.027C41.6659 127.027 43.1291 126.44 44.254 125.445ZM119 99.8599L114.997 103.891L119 107.942V99.8599ZM123 110.576C124.502 110.797 126.082 110.323 127.245 109.153C129.207 107.179 129.207 104.003 127.245 102.029L127.24 102.024L123 97.7259V110.576ZM145.053 50H123V79H145V52.5C145 52.3425 145.018 52.1893 145.053 52.0422V50ZM164 55H149V80.5422C149.034 80.6892 149.053 80.8425 149.053 81V84H164V55ZM92 56.0149V69.5145C91.8446 69.6068 91.6047 69.7272 91.2541 69.8638C90.1689 70.2866 88.4993 70.6853 86.3433 71.0254C82.0666 71.7002 76.2957 72.0822 70.4756 72.1418C64.6553 72.2013 58.8849 71.9374 54.6091 71.3504C52.4531 71.0544 50.786 70.6901 49.7046 70.2909C49.3742 70.169 49.1444 70.0601 48.9921 69.9751V56C48.9921 44.2694 58.4052 35 70.0916 35C81.9881 35 91.8181 44.1807 92 56.0149Z" fill="black"/>
<g opacity="0.2">
<path fill-rule="evenodd" clip-rule="evenodd" d="M72.2515 35.3833C59.7138 35.3833 49.6836 45.7184 49.6836 58.3003V72.0805C49.6836 77.1731 94.9669 77.1731 94.9669 72.0805V58.3003C94.8194 45.5686 84.6417 35.3833 72.2515 35.3833ZM58.3863 62.7938L58.5338 58.3003C58.5338 50.6613 64.5814 44.5201 72.104 44.5201C79.6266 44.5201 85.6743 50.6613 85.6743 58.3003V62.7938C79.9217 64.4415 63.9914 64.5912 58.3863 62.7938Z" fill="black"/>
<path d="M154.56 59C153.146 59 152 57.854 152 56.4403C152 55.0925 150.907 54 149.56 54H129C127.895 54 127 54.8954 127 56V82C127 84.7614 129.239 87 132 87H149.5C150.881 87 152 88.1193 152 89.5C152 90.8807 153.119 92 154.5 92H167C169.761 92 172 89.7614 172 87V64C172 61.2386 169.761 59 167 59H154.56Z" fill="black"/>
<path d="M64.8595 99H84.1405C86.8054 99 89 96.9677 89 94.5C89 92.0323 86.8054 90 84.1405 90H64.8595C62.1946 90 60 92.0323 60 94.5C60 96.9677 62.1946 99 64.8595 99Z" fill="black"/>
</g>
<path fill-rule="evenodd" clip-rule="evenodd" d="M61.6919 84C58.0939 84 55 86.8498 55 90.5C55 94.1502 58.0939 97 61.6919 97H80.3081C83.8223 97 86.7824 94.1094 86.9962 90.6224C86.9987 90.5817 87 90.5408 87 90.5C87 86.8498 83.9061 84 80.3081 84H61.6919ZM59 90.5C59 89.2147 60.144 88 61.6919 88H80.3081C81.8319 88 82.9643 89.1772 82.9992 90.44C82.8781 91.8597 81.618 93 80.3081 93H61.6919C60.144 93 59 91.7853 59 90.5Z" fill="black"/>
<path fill-rule="evenodd" clip-rule="evenodd" d="M86 58V56C86 47.1061 78.9656 40 70.0916 40C61.2519 40 54 47.072 54 56V58C52.8954 58 52 58.8954 52 60C52 61.0312 52.5777 61.7527 53.0582 62.1642C53.5339 62.5718 54.1098 62.8562 54.6428 63.0659C55.7251 63.4916 57.1479 63.8052 58.6975 64.0423C61.8329 64.5219 65.9421 64.7537 70 64.7537C74.0579 64.7537 78.1671 64.5219 81.3024 64.0423C82.8521 63.8052 84.2749 63.4916 85.3572 63.0659C85.8902 62.8562 86.4661 62.5718 86.9418 62.1642C87.4223 61.7527 88 61.0312 88 60C88 58.8954 87.1046 58 86 58ZM70.0916 44C76.7307 44 82 49.2895 82 56V59.8595C81.6066 59.939 81.1721 60.0157 80.6976 60.0883C77.8329 60.5265 73.9421 60.7537 70 60.7537C66.0579 60.7537 62.1671 60.5265 59.3025 60.0883C58.8279 60.0157 58.3934 59.939 58 59.8595V56C58 49.3236 63.4184 44 70.0916 44Z" fill="black"/>
<path fill-rule="evenodd" clip-rule="evenodd" d="M121 30C117.134 30 114 33.134 114 37C114 40.171 116.109 42.8496 119 43.7101V87.9754L110.468 79.3265L110.462 79.321C109.801 78.6553 109.09 77.8992 108.346 77.1069C106.8 75.4622 105.107 73.6607 103.398 72.1871C101.293 70.3718 98.8335 68.7372 96 68.1921V56L95.9998 55.9706C95.7916 41.8119 84.0453 31 70.0916 31C56.2272 31 44.9921 42.0293 44.9921 56V68.6044C37.0738 69.5879 31 76.3395 31 84.5557V122.037C31 127.082 35.5201 131.027 40.307 131.027C42.3554 131.027 44.3614 130.311 46 129.156V169C46 170.105 46.8954 171 48 171H67C68.1046 171 69 170.105 69 169V123.99H74V169C74 170.105 74.8954 171 76 171H95C96.1046 171 97 170.105 97 169V164.283C97 163.988 96.9888 163.696 96.9668 163.407V138.365C96.9886 138.247 97 138.125 97 138C97 137.875 96.9886 137.753 96.9668 137.635L96.9668 91.3358L117.355 111.969L117.359 111.973C117.866 112.482 118.417 112.919 119 113.281V169C119 170.105 119.895 171 121 171C122.105 171 123 170.105 123 169V114.599C125.535 114.804 128.138 113.928 130.082 111.973C133.594 108.44 133.595 102.746 130.085 99.2119L130.082 99.209L123 92.0302V83H145.053V86C145.053 87.1046 145.948 88 147.053 88H166C167.105 88 168 87.1046 168 86V53C168 51.8954 167.105 51 166 51H149.053V48C149.053 46.8954 148.157 46 147.053 46H123V43.7101C125.891 42.8496 128 40.171 128 37C128 33.134 124.866 30 121 30ZM118 37C118 35.3431 119.343 34 121 34C122.657 34 124 35.3431 124 37C124 38.6569 122.657 40 121 40C119.343 40 118 38.6569 118 37ZM78 167V164.283C78 160.257 81.2656 157 85.5 157C89.4862 157 92.6138 159.886 92.9668 163.583V167H78ZM85.5 153C82.6332 153 80.0129 154.009 78 155.697V140H92.9668V155.67C90.9583 153.998 88.351 153 85.5 153ZM65 155.697C62.9871 154.009 60.3668 153 57.5 153C54.6332 153 52.0129 154.009 50 155.697V140H65V155.697ZM50 164.283C50 160.257 53.2656 157 57.5 157C61.7344 157 65 160.257 65 164.283V167H50V164.283ZM50 136V107H92.9668L92.9668 136H78V121.99C78 120.885 77.1046 119.99 76 119.99H67C65.8954 119.99 65 120.885 65 121.99V136H50ZM92.9668 103H50V86C50 84.8954 49.1046 84 48 84C46.8954 84 46 84.8954 46 86V113H35V84.5557C35 78.2437 39.737 73.1205 45.8282 72.5366C45.9685 72.6901 46.1144 72.8244 46.2556 72.9397C46.8455 73.421 47.5842 73.772 48.3194 74.0434C49.8087 74.5932 51.8141 75.0041 54.065 75.3132C58.6033 75.9363 64.5849 76.2023 70.5165 76.1416C76.4483 76.0808 82.4295 75.6924 86.9667 74.9766C89.2177 74.6214 91.2206 74.1698 92.7062 73.591C93.44 73.305 94.1725 72.9413 94.7552 72.4538C94.8785 72.3507 95.0056 72.2327 95.1293 72.0997C96.9842 72.4248 98.832 73.5315 100.786 75.2165C102.346 76.5616 103.762 78.071 105.212 79.6178C105.996 80.4535 106.79 81.3 107.622 82.1374L107.626 82.1411L119 93.6711V94.1829L112.185 101.046L96.4226 85.0942C96.0272 84.6941 95.5047 84.4958 94.9833 84.5001L94.9668 84.5C93.8622 84.5 92.9668 85.3954 92.9668 86.5V103ZM46 121.99C46 123.205 45.3761 124.452 44.254 125.445C43.1291 126.44 41.6659 127.027 40.307 127.027C37.4896 127.027 35 124.641 35 122.037V117H46V121.99ZM114.997 103.891L119 99.8599V107.942L114.997 103.891ZM127.245 109.153C126.082 110.323 124.502 110.797 123 110.576V97.7259L127.24 102.024L127.245 102.029C129.207 104.003 129.207 107.179 127.245 109.153ZM123 50H145.053V52.0422C145.018 52.1893 145 52.3425 145 52.5V79H123V50ZM149 55H164V84H149.053V81C149.053 80.8425 149.034 80.6892 149 80.5422V55ZM70.0916 35C81.9881 35 91.8181 44.1807 92 56.0149V69.5145C91.8446 69.6068 91.6047 69.7272 91.2541 69.8638C90.1689 70.2866 88.4993 70.6853 86.3433 71.0254C82.0666 71.7002 76.2957 72.0822 70.4756 72.1418C64.6553 72.2013 58.8849 71.9374 54.6091 71.3504C52.4531 71.0544 50.786 70.6901 49.7046 70.2909C49.3742 70.169 49.1444 70.0601 48.9921 69.9751V56C48.9921 44.2694 58.4052 35 70.0916 35Z" fill="black"/>
<path d="M174 119C175.105 119 176 119.895 176 121V125H180C181.105 125 182 125.895 182 127C182 128.105 181.105 129 180 129H176V133C176 134.105 175.105 135 174 135C172.895 135 172 134.105 172 133V129H168C166.895 129 166 128.105 166 127C166 125.895 166.895 125 168 125H172V121C172 119.895 172.895 119 174 119Z" fill="black"/>
<path d="M29 39L25 35L21 39L25 43L29 39Z" fill="black"/>
<path fill-rule="evenodd" clip-rule="evenodd" d="M146.5 169L155 177.5L146.5 186L138 177.5L146.5 169ZM143.667 177.5L146.5 180.333L149.333 177.5L146.5 174.667L143.667 177.5Z" fill="black"/>
</svg>
