<svg width="48" height="48" viewBox="0 0 48 48" fill="none" xmlns="http://www.w3.org/2000/svg">
<path fill-rule="evenodd" clip-rule="evenodd" d="M32.8699 6.9909C32.2489 5.79777 31.2059 4.84129 30.3829 4.21383C29.7548 3.73496 29.2246 3.42074 28.9653 3.2862C28.7401 3.16931 28.474 3.11309 28.2311 3.18879C27.7727 3.3317 27.6376 3.81258 27.5199 4.22507C27.4298 4.54083 27.3237 4.98417 27.2603 5.49639C27.1367 6.49529 27.1593 7.89051 27.9387 9.08449L27.9435 9.09163C28.7727 10.3343 29.7669 11.0983 30.5589 11.5521C30.9868 11.7973 31.436 12.0049 31.8648 12.2458C36.8888 15.0692 40.2598 20.3976 40.2598 26.5899C40.2598 34.5806 34.5351 41.2465 26.9198 42.7367C26.4591 42.8269 26.1587 43.2734 26.2488 43.7341C26.339 44.1948 26.7855 44.4952 27.2463 44.4051C28.2396 44.2107 29.204 43.9363 30.1323 43.5891C30.3566 43.7735 30.8259 44.1417 31.4523 44.5298C32.3085 45.0604 33.5294 45.6723 34.8282 45.8165C36.1504 45.9633 37.3056 45.5959 38.0923 45.2088C38.5826 44.9676 39.3074 44.6076 39.5195 44.0578C39.5412 44.0016 39.6624 43.6863 39.4774 43.3395C39.1929 42.806 38.5609 42.3331 38.1021 41.9677C37.4311 41.4334 36.4729 40.8239 35.3429 40.5803C35.8262 40.1823 36.2884 39.7601 36.7278 39.3154C37.2858 39.4584 37.8548 39.5619 38.4262 39.6333C39.4569 39.762 40.8577 39.8201 42.1023 39.4375C43.3819 39.0441 44.2775 38.2387 44.8241 37.562C45.0982 37.2227 45.2973 36.9003 45.4217 36.6502C45.5406 36.4109 45.644 36.1208 45.5959 35.8482C45.5772 35.7427 45.4941 35.4028 45.1276 35.2227C44.602 34.9645 44.0528 34.7528 43.4874 34.5999C42.5984 34.3596 41.3753 34.1845 40.1332 34.5189C40.4544 33.8615 40.7368 33.182 40.9777 32.4831C41.3852 32.4826 41.7922 32.4511 42.1946 32.3858C43.1133 32.2366 44.3306 31.8605 45.3251 30.9165C46.2905 30.0003 46.8631 28.784 47.1833 27.8573C47.346 27.3863 47.4515 26.9672 47.5116 26.6623C47.5759 26.3364 47.6383 25.9784 47.4643 25.6742C47.2095 25.2288 46.6907 25.2307 46.2406 25.2451C45.9279 25.2551 45.4932 25.2863 44.998 25.3716C44.1051 25.5254 42.9442 25.8671 41.9597 26.643L41.9598 26.5899C41.9598 25.86 41.9173 25.141 41.8346 24.4351C42.0799 24.3186 42.434 24.13 42.8268 23.8533C43.5378 23.3526 44.4059 22.5415 44.9408 21.3268C45.4701 20.125 45.551 18.7592 45.5072 17.753C45.4849 17.2411 45.4291 16.7955 45.3705 16.4734C45.3106 16.1442 45.2369 15.7818 44.9686 15.5548C44.8951 15.4926 44.7264 15.3712 44.4742 15.3535C44.1744 15.3324 43.8791 15.5004 43.6183 15.63C43.3372 15.7697 42.9537 15.9797 42.5381 16.2641C41.7565 16.799 40.7939 17.6428 40.2358 18.8389C39.8683 18.06 39.4468 17.3122 38.9762 16.5997C40.0126 15.6658 40.7023 14.3685 40.8025 12.9668C40.898 11.6319 40.5191 10.2798 40.1504 9.31561C39.9626 8.82447 39.7687 8.41157 39.6189 8.1221C39.4059 7.71061 39.1535 7.26508 38.6225 7.27327C38.3653 7.27724 38.1665 7.40241 37.9809 7.56557C37.7751 7.7464 37.3311 8.16059 36.8685 8.75967C36.2634 9.5433 35.5759 10.7122 35.4764 12.1037C35.4626 12.2974 35.4599 12.4879 35.4668 12.6747C34.7546 12.0795 33.9956 11.5374 33.1961 11.0544C33.2604 10.8262 33.3255 10.5436 33.3704 10.2206C33.489 9.36747 33.4711 8.19161 32.8762 7.00288L32.8699 6.9909ZM29.0082 5.31399C29.9313 5.96222 30.8305 6.75899 31.3588 7.76977C31.7158 8.48644 31.7991 9.42419 31.6499 10.21C30.7048 9.72936 29.9555 9.04275 29.36 8.15176C28.821 7.32287 28.8329 6.25438 29.0082 5.31399ZM41.5593 30.7549C41.7345 29.7864 42.1195 28.8113 42.8423 28.1209C43.6154 27.4265 44.6621 27.1094 45.6773 26.9905C45.3797 27.9764 44.9101 28.9666 44.1549 29.6834C43.4568 30.3459 42.5023 30.6621 41.5593 30.7549ZM38.1942 37.883C38.7529 37.1565 39.4783 36.4966 40.3696 36.2226C41.4252 35.8848 42.5438 36.0398 43.5706 36.4061C43.1796 36.9169 42.5201 37.5305 41.6028 37.8125C40.5108 38.1482 39.3089 38.0628 38.1942 37.883ZM32.0014 42.8609C32.7918 42.4137 33.7482 42.0879 34.6631 42.1895C35.547 42.2876 36.3862 42.7745 37.0431 43.2976C37.188 43.413 37.3203 43.5272 37.4382 43.6346C37.407 43.6509 37.3748 43.6672 37.3417 43.6835C36.7463 43.9765 35.9212 44.2274 35.0157 44.1269C33.9241 44.0057 32.9015 43.467 32.0014 42.8609ZM38.413 9.55257C38.8505 10.5802 39.1874 11.7194 39.1069 12.8456C39.0314 13.9017 38.4969 14.6723 38.0391 15.1433C37.4873 14.2812 37.0979 13.2617 37.1721 12.2249C37.2437 11.2226 37.7759 10.3059 38.413 9.55257ZM43.787 17.4794C43.8736 18.534 43.8162 19.6626 43.3851 20.6416C42.9695 21.5852 42.242 22.2156 41.6635 22.5876C41.4024 21.646 41.3207 20.5917 41.723 19.6782C42.1254 18.7275 42.9241 18.0118 43.787 17.4794Z" fill="black"/>
<path fill-rule="evenodd" clip-rule="evenodd" d="M23.8409 18.0299L21.9942 23.3762C21.855 23.7793 21.4755 24.0497 21.049 24.0497H15.3361C15.3337 24.058 15.3321 24.0664 15.3312 24.0741L19.9337 27.5514C20.2723 27.8072 20.4126 28.2489 20.2836 28.6532L18.624 33.8552L23.3143 30.6048C23.6558 30.3681 24.108 30.3673 24.4504 30.6027L29.0581 33.7705L27.3983 28.5677C27.2693 28.1634 27.4095 27.7218 27.7481 27.4659L32.2703 24.0493H26.6328C26.2064 24.0493 25.8269 23.7789 25.6876 23.3758L23.8409 18.0299ZM23.8087 15.9372C24.5604 15.9372 25.3349 16.3699 25.6708 17.2054C25.6769 17.2207 25.6827 17.2362 25.6881 17.2518L27.3454 22.0493H32.3885C34.2019 22.0493 35.0085 24.3273 33.6465 25.5132C33.6291 25.5283 33.6111 25.5429 33.5926 25.5569L29.5189 28.6347L31.0217 33.3453L31.0265 33.3606C31.5783 35.1909 29.5403 36.4932 28.0558 35.5084L28.0421 35.4991L23.8861 32.6418L19.6428 35.5825L19.626 35.5939C18.1415 36.5787 16.1036 35.2764 16.6554 33.4461L16.6601 33.4308L18.1629 28.7202L14.0912 25.6439C13.3326 25.0757 13.2143 24.1462 13.4247 23.4612C13.6432 22.7499 14.2915 22.0497 15.2934 22.0497H20.3364L21.9883 17.2677C22.2664 16.3806 23.0549 15.9372 23.8087 15.9372Z" fill="black"/>
<path d="M14.2266 36.6439C14.2266 37.0996 13.8572 37.4691 13.4016 37.4691C12.946 37.4691 12.5766 37.0996 12.5766 36.6439C12.5766 36.1882 12.946 35.8187 13.4016 35.8187C13.8572 35.8187 14.2266 36.1882 14.2266 36.6439Z" fill="black"/>
<path d="M12.7063 34.744C12.7063 35.1997 12.337 35.5692 11.8814 35.5692C11.4257 35.5692 11.0564 35.1997 11.0564 34.744C11.0564 34.2882 11.4257 33.9188 11.8814 33.9188C12.337 33.9188 12.7063 34.2882 12.7063 34.744Z" fill="black"/>
<path d="M11.4931 32.6251C11.4931 33.0808 11.1238 33.4503 10.6682 33.4503C10.2125 33.4503 9.8432 33.0808 9.8432 32.6251C9.8432 32.1693 10.2125 31.7999 10.6682 31.7999C11.1238 31.7999 11.4931 32.1693 11.4931 32.6251Z" fill="black"/>
<path d="M10.6678 30.2656C10.6678 30.7213 10.2984 31.0908 9.84284 31.0908C9.38722 31.0908 9.01788 30.7213 9.01788 30.2656C9.01788 29.8098 9.38722 29.4404 9.84284 29.4404C10.2984 29.4404 10.6678 29.8098 10.6678 30.2656Z" fill="black"/>
<path d="M10.2544 27.8348C10.2544 28.2906 9.88507 28.66 9.42945 28.66C8.97384 28.66 8.60449 28.2906 8.60449 27.8348C8.60449 27.3791 8.97384 27.0097 9.42945 27.0097C9.88507 27.0097 10.2544 27.3791 10.2544 27.8348Z" fill="black"/>
<path d="M10.2544 25.4219C10.2544 25.8776 9.88507 26.2471 9.42945 26.2471C8.97384 26.2471 8.60449 25.8776 8.60449 25.4219C8.60449 24.9662 8.97384 24.5967 9.42945 24.5967C9.88507 24.5967 10.2544 24.9662 10.2544 25.4219Z" fill="black"/>
<path d="M10.6644 22.982C10.6644 23.4378 10.2951 23.8072 9.83947 23.8072C9.38385 23.8072 9.01451 23.4378 9.01451 22.982C9.01451 22.5263 9.38385 22.1568 9.83947 22.1568C10.2951 22.1568 10.6644 22.5263 10.6644 22.982Z" fill="black"/>
<path d="M11.4898 20.7322C11.4898 21.188 11.1204 21.5574 10.6648 21.5574C10.2092 21.5574 9.83983 21.188 9.83983 20.7322C9.83983 20.2765 10.2092 19.9071 10.6648 19.9071C11.1204 19.9071 11.4898 20.2765 11.4898 20.7322Z" fill="black"/>
<path d="M12.6356 18.5017C12.6356 18.9574 12.2662 19.3269 11.8106 19.3269C11.355 19.3269 10.9857 18.9574 10.9857 18.5017C10.9857 18.046 11.355 17.6765 11.8106 17.6765C12.2662 17.6765 12.6356 18.046 12.6356 18.5017Z" fill="black"/>
<path d="M14.2318 16.6196C14.2318 17.0753 13.8625 17.4448 13.4069 17.4448C12.9513 17.4448 12.5819 17.0753 12.5819 16.6196C12.5819 16.1638 12.9513 15.7944 13.4069 15.7944C13.8625 15.7944 14.2318 16.1638 14.2318 16.6196Z" fill="black"/>
<path d="M16.0201 15.0093C16.0201 15.4651 15.6508 15.8345 15.1952 15.8345C14.7396 15.8345 14.3702 15.4651 14.3702 15.0093C14.3702 14.5536 14.7396 14.1842 15.1952 14.1842C15.6508 14.1842 16.0201 14.5536 16.0201 15.0093Z" fill="black"/>
<path d="M18.1068 13.7249C18.1068 14.1807 17.7374 14.5501 17.2818 14.5501C16.8262 14.5501 16.4569 14.1807 16.4569 13.7249C16.4569 13.2692 16.8262 12.8997 17.2818 12.8997C17.7374 12.8997 18.1068 13.2692 18.1068 13.7249Z" fill="black"/>
<path d="M20.3989 12.7836C20.3989 13.2394 20.0296 13.6088 19.574 13.6088C19.1183 13.6088 18.749 13.2394 18.749 12.7836C18.749 12.3279 19.1183 11.9584 19.574 11.9584C20.0296 11.9584 20.3989 12.3279 20.3989 12.7836Z" fill="black"/>
<path d="M22.7844 12.2663C22.7844 12.722 22.4151 13.0915 21.9595 13.0915C21.5038 13.0915 21.1345 12.722 21.1345 12.2663C21.1345 11.8106 21.5038 11.4411 21.9595 11.4411C22.4151 11.4411 22.7844 11.8106 22.7844 12.2663Z" fill="black"/>
<path d="M25.206 12.1638C25.206 12.6195 24.8367 12.989 24.3811 12.989C23.9254 12.989 23.5561 12.6195 23.5561 12.1638C23.5561 11.708 23.9254 11.3386 24.3811 11.3386C24.8367 11.3386 25.206 11.708 25.206 12.1638Z" fill="black"/>
<path d="M27.6762 12.4535C27.6762 12.9092 27.3069 13.2787 26.8512 13.2787C26.3956 13.2787 26.0263 12.9092 26.0263 12.4535C26.0263 11.9978 26.3956 11.6283 26.8512 11.6283C27.3069 11.6283 27.6762 11.9978 27.6762 12.4535Z" fill="black"/>
<path d="M30.0126 13.1585C30.0126 13.6142 29.6433 13.9837 29.1877 13.9837C28.7321 13.9837 28.3627 13.6142 28.3627 13.1585C28.3627 12.7028 28.7321 12.3333 29.1877 12.3333C29.6433 12.3333 30.0126 12.7028 30.0126 13.1585Z" fill="black"/>
<path d="M32.2335 14.2957C32.2335 14.7514 31.8642 15.1209 31.4086 15.1209C30.953 15.1209 30.5836 14.7514 30.5836 14.2957C30.5836 13.8399 30.953 13.4705 31.4086 13.4705C31.8642 13.4705 32.2335 13.8399 32.2335 14.2957Z" fill="black"/>
<path d="M34.1508 15.7095C34.1508 16.1653 33.7814 16.5347 33.3258 16.5347C32.8702 16.5347 32.5009 16.1653 32.5009 15.7095C32.5009 15.2538 32.8702 14.8844 33.3258 14.8844C33.7814 14.8844 34.1508 15.2538 34.1508 15.7095Z" fill="black"/>
<path d="M35.8943 17.4627C35.8943 17.9184 35.525 18.2879 35.0694 18.2879C34.6137 18.2879 34.2444 17.9184 34.2444 17.4627C34.2444 17.007 34.6137 16.6375 35.0694 16.6375C35.525 16.6375 35.8943 17.007 35.8943 17.4627Z" fill="black"/>
<path d="M37.2678 19.4608C37.2678 19.9165 36.8984 20.286 36.4428 20.286C35.9872 20.286 35.6179 19.9165 35.6179 19.4608C35.6179 19.0051 35.9872 18.6356 36.4428 18.6356C36.8984 18.6356 37.2678 19.0051 37.2678 19.4608Z" fill="black"/>
<path d="M38.3068 21.7221C38.3068 22.1779 37.9374 22.5473 37.4818 22.5473C37.0262 22.5473 36.6568 22.1779 36.6568 21.7221C36.6568 21.2664 37.0262 20.897 37.4818 20.897C37.9374 20.897 38.3068 21.2664 38.3068 21.7221Z" fill="black"/>
<path d="M38.891 24.0638C38.891 24.5196 38.5216 24.889 38.066 24.889C37.6104 24.889 37.2411 24.5196 37.2411 24.0638C37.2411 23.6081 37.6104 23.2387 38.066 23.2387C38.5216 23.2387 38.891 23.6081 38.891 24.0638Z" fill="black"/>
<path d="M39.1186 26.5437C39.1186 26.9994 38.7493 27.3689 38.2937 27.3689C37.838 27.3689 37.4687 26.9994 37.4687 26.5437C37.4687 26.0879 37.838 25.7185 38.2937 25.7185C38.7493 25.7185 39.1186 26.0879 39.1186 26.5437Z" fill="black"/>
<path d="M38.9401 29.0504C38.9401 29.5062 38.5707 29.8756 38.1151 29.8756C37.6595 29.8756 37.2902 29.5062 37.2902 29.0504C37.2902 28.5947 37.6595 28.2253 38.1151 28.2253C38.5707 28.2253 38.9401 28.5947 38.9401 29.0504Z" fill="black"/>
<path d="M38.3202 31.4056C38.3202 31.8614 37.9509 32.2308 37.4953 32.2308C37.0397 32.2308 36.6703 31.8614 36.6703 31.4056C36.6703 30.9499 37.0397 30.5804 37.4953 30.5804C37.9509 30.5804 38.3202 30.9499 38.3202 31.4056Z" fill="black"/>
<path d="M37.2813 33.6044C37.2813 34.0601 36.9119 34.4296 36.4563 34.4296C36.0007 34.4296 35.6313 34.0601 35.6313 33.6044C35.6313 33.1487 36.0007 32.7792 36.4563 32.7792C36.9119 32.7792 37.2813 33.1487 37.2813 33.6044Z" fill="black"/>
<path d="M35.9347 35.6877C35.9347 36.1434 35.5654 36.5129 35.1098 36.5129C34.6542 36.5129 34.2848 36.1434 34.2848 35.6877C34.2848 35.2319 34.6542 34.8625 35.1098 34.8625C35.5654 34.8625 35.9347 35.2319 35.9347 35.6877Z" fill="black"/>
<path d="M34.1999 37.4716C34.1999 37.9274 33.8305 38.2968 33.3749 38.2968C32.9193 38.2968 32.55 37.9274 32.55 37.4716C32.55 37.0159 32.9193 36.6465 33.3749 36.6465C33.8305 36.6465 34.1999 37.0159 34.1999 37.4716Z" fill="black"/>
<path d="M32.2249 38.899C32.2249 39.3547 31.8555 39.7242 31.3999 39.7242C30.9443 39.7242 30.575 39.3547 30.575 38.899C30.575 38.4433 30.9443 38.0738 31.3999 38.0738C31.8555 38.0738 32.2249 38.4433 32.2249 38.899Z" fill="black"/>
<path d="M30.0261 39.9871C30.0261 40.4428 29.6567 40.8123 29.2011 40.8123C28.7455 40.8123 28.3762 40.4428 28.3762 39.9871C28.3762 39.5313 28.7455 39.1619 29.2011 39.1619C29.6567 39.1619 30.0261 39.5313 30.0261 39.9871Z" fill="black"/>
<path d="M27.7474 40.7364C27.7474 41.1921 27.3781 41.5615 26.9225 41.5615C26.4669 41.5615 26.0975 41.1921 26.0975 40.7364C26.0975 40.2806 26.4669 39.9112 26.9225 39.9112C27.3781 39.9112 27.7474 40.2806 27.7474 40.7364Z" fill="black"/>
<path d="M25.3191 41.0472C25.3191 41.503 24.9498 41.8724 24.4941 41.8724C24.0385 41.8724 23.6692 41.503 23.6692 41.0472C23.6692 40.5915 24.0385 40.2221 24.4941 40.2221C24.9498 40.2221 25.3191 40.5915 25.3191 41.0472Z" fill="black"/>
<path d="M22.8398 40.9264C22.8398 41.3822 22.4704 41.7516 22.0148 41.7516C21.5592 41.7516 21.1898 41.3822 21.1898 40.9264C21.1898 40.4707 21.5592 40.1013 22.0148 40.1013C22.4704 40.1013 22.8398 40.4707 22.8398 40.9264Z" fill="black"/>
<path d="M20.411 40.4851C20.411 40.9409 20.0416 41.3103 19.586 41.3103C19.1304 41.3103 18.761 40.9409 18.761 40.4851C18.761 40.0294 19.1304 39.66 19.586 39.66C20.0416 39.66 20.411 40.0294 20.411 40.4851Z" fill="black"/>
<path d="M18.1592 39.5082C18.1592 39.964 17.7899 40.3334 17.3343 40.3334C16.8787 40.3334 16.5093 39.964 16.5093 39.5082C16.5093 39.0525 16.8787 38.6831 17.3343 38.6831C17.7899 38.6831 18.1592 39.0525 18.1592 39.5082Z" fill="black"/>
<path d="M15.909 38.3369C15.909 38.7926 15.5396 39.1621 15.084 39.1621C14.6284 39.1621 14.259 38.7926 14.259 38.3369C14.259 37.8812 14.6284 37.5117 15.084 37.5117C15.5396 37.5117 15.909 37.8812 15.909 38.3369Z" fill="black"/>
<path fill-rule="evenodd" clip-rule="evenodd" d="M14.9403 6.9909C15.5614 5.79777 16.6044 4.84129 17.4274 4.21383C18.0555 3.73496 18.5857 3.42074 18.845 3.2862C19.0702 3.16931 19.3363 3.11309 19.5792 3.18879C20.0375 3.3317 20.1727 3.81258 20.2904 4.22507C20.3805 4.54083 20.4866 4.98417 20.55 5.49639C20.6736 6.49529 20.651 7.89051 19.8716 9.08449L19.8668 9.09163C19.0376 10.3343 18.0434 11.0983 17.2514 11.5521C16.8235 11.7973 16.3743 12.0049 15.9455 12.2458C10.9215 15.0692 7.55046 20.3976 7.55046 26.5899C7.55046 34.5806 13.2751 41.2465 20.8905 42.7367C21.3512 42.8269 21.6516 43.2734 21.5615 43.7341C21.4713 44.1948 21.0247 44.4952 20.564 44.4051C19.5707 44.2107 18.6063 43.9363 17.678 43.5891C17.4537 43.7735 16.9843 44.1417 16.358 44.5298C15.5018 45.0604 14.2809 45.6723 12.9821 45.8165C11.6599 45.9633 10.5047 45.5959 9.71801 45.2088C9.22769 44.9676 8.50293 44.6076 8.29079 44.0578C8.26912 44.0016 8.14792 43.6863 8.33289 43.3395C8.61738 42.806 9.24942 42.3331 9.70818 41.9677C10.3792 41.4334 11.3373 40.8239 12.4674 40.5803C11.9841 40.1823 11.5218 39.7601 11.0824 39.3154C10.5245 39.4584 9.95547 39.5619 9.38409 39.6333C8.35336 39.762 6.95257 39.8201 5.70794 39.4375C4.42835 39.0441 3.53284 38.2387 2.98618 37.562C2.71214 37.2227 2.51298 36.9003 2.38862 36.6502C2.26965 36.4109 2.16631 36.1208 2.21444 35.8482C2.23306 35.7427 2.3162 35.4028 2.68269 35.2227C3.20829 34.9645 3.75744 34.7528 4.32289 34.5999C5.21193 34.3596 6.43499 34.1845 7.67712 34.5189C7.35593 33.8615 7.07345 33.182 6.83263 32.4831C6.42508 32.4826 6.01806 32.4511 5.61568 32.3858C4.69703 32.2366 3.47973 31.8605 2.48515 30.9165C1.51977 30.0003 0.94723 28.784 0.627007 27.8573C0.464239 27.3863 0.358807 26.9672 0.298653 26.6623C0.234343 26.3364 0.171947 25.9784 0.345978 25.6742C0.600775 25.2288 1.11958 25.2307 1.56969 25.2451C1.88237 25.2551 2.31705 25.2863 2.81234 25.3716C3.70516 25.5254 4.86612 25.8671 5.85054 26.643L5.85046 26.5899C5.85046 25.86 5.89297 25.141 5.97566 24.4351C5.73035 24.3186 5.3763 24.13 4.98347 23.8533C4.27253 23.3526 3.4044 22.5415 2.86944 21.3268C2.34015 20.125 2.25929 18.7592 2.30308 17.753C2.32536 17.2411 2.38115 16.7955 2.43977 16.4734C2.49969 16.1442 2.57335 15.7818 2.84168 15.5548C2.91521 15.4926 3.08386 15.3712 3.33607 15.3535C3.63584 15.3324 3.93122 15.5004 4.19195 15.63C4.47308 15.7697 4.85656 15.9797 5.27219 16.2641C6.05381 16.799 7.01638 17.6428 7.57444 18.8389C7.94198 18.06 8.36345 17.3122 8.83411 16.5997C7.7977 15.6658 7.10796 14.3685 7.00774 12.9668C6.9123 11.6319 7.29115 10.2798 7.65985 9.31561C7.84765 8.82447 8.04156 8.41157 8.19138 8.1221C8.40436 7.71061 8.65679 7.26508 9.18779 7.27327C9.44497 7.27724 9.64378 7.40241 9.82941 7.56557C10.0351 7.7464 10.4792 8.16059 10.9418 8.75967C11.5469 9.5433 12.2344 10.7122 12.3339 12.1037C12.3477 12.2974 12.3504 12.4879 12.3435 12.6747C13.0557 12.0795 13.8146 11.5374 14.6142 11.0544C14.5499 10.8262 14.4848 10.5436 14.4399 10.2206C14.3213 9.36747 14.3392 8.19161 14.9341 7.00288L14.9403 6.9909ZM18.8021 5.31399C17.879 5.96222 16.9798 6.75899 16.4514 7.76977C16.0945 8.48644 16.0111 9.42419 16.1604 10.21C17.1055 9.72936 17.8548 9.04275 18.4502 8.15176C18.9893 7.32287 18.9774 6.25438 18.8021 5.31399ZM6.251 30.7549C6.07578 29.7864 5.69079 28.8113 4.96795 28.1209C4.1949 27.4265 3.14823 27.1094 2.13294 26.9905C2.43055 27.9764 2.90017 28.9666 3.65543 29.6834C4.35346 30.3459 5.308 30.6621 6.251 30.7549ZM9.61607 37.883C9.05744 37.1565 8.33203 36.4966 7.44067 36.2226C6.38507 35.8848 5.2665 36.0398 4.23969 36.4061C4.63067 36.9169 5.29019 37.5305 6.20745 37.8125C7.29946 38.1482 8.50135 38.0628 9.61607 37.883ZM15.8089 42.8609C15.0185 42.4137 14.0621 42.0879 13.1471 42.1895C12.2633 42.2876 11.4241 42.7745 10.7672 43.2976C10.6223 43.413 10.49 43.5272 10.3721 43.6346C10.4033 43.6509 10.4355 43.6672 10.4686 43.6835C11.064 43.9765 11.889 44.2274 12.7946 44.1269C13.8862 44.0057 14.9088 43.467 15.8089 42.8609ZM9.39726 9.55257C8.95975 10.5802 8.6229 11.7194 8.70341 12.8456C8.77892 13.9017 9.31334 14.6723 9.77115 15.1433C10.323 14.2812 10.7123 13.2617 10.6382 12.2249C10.5666 11.2226 10.0343 10.3059 9.39726 9.55257ZM4.02326 17.4794C3.93665 18.534 3.99408 19.6626 4.42523 20.6416C4.84082 21.5852 5.56831 22.2156 6.14682 22.5876C6.40787 21.646 6.48961 20.5917 6.08728 19.6782C5.68488 18.7275 4.88622 18.0118 4.02326 17.4794Z" fill="black"/>
</svg>
