<svg width="196" height="196" viewBox="0 0 196 196" fill="none" xmlns="http://www.w3.org/2000/svg">
<path opacity="0.07" fill-rule="evenodd" clip-rule="evenodd" d="M169.499 160.59C192.856 128.889 184.565 84.9744 174.194 57.5621C169.099 44.095 148.04 16.2359 104.587 14.2002C61.1342 12.1645 45.5208 26.3695 32.5233 48.9085C19.5258 71.4476 6.01689 116.837 28.1912 152.511C50.3655 188.185 148.975 188.446 169.499 160.59ZM123.689 47.0267C126.624 52.8899 123.934 58.753 123.934 58.753C123.934 58.753 117.821 57.2872 113.419 50.6912C109.751 45.0724 112.93 37.0105 112.93 37.0105C112.686 36.7663 120.511 40.9193 123.689 47.0267ZM160.125 73.1667C160.37 72.9224 162.082 81.2285 159.392 87.3359C156.702 93.4434 150.589 95.6421 150.589 95.6421C150.589 95.6421 147.165 88.5574 149.855 82.45C152.545 76.0983 160.125 73.1667 160.125 73.1667ZM166.971 102.483C167.215 102.239 165.993 110.301 161.102 114.943C156.211 119.584 148.875 118.851 148.875 118.851C148.875 118.851 148.875 111.278 153.766 106.636C158.901 101.995 166.971 102.483 166.971 102.483ZM143.254 154.762C143.743 154.762 138.608 159.159 132.005 158.426C125.403 157.693 119.045 152.074 119.045 152.074C119.045 152.074 124.914 146.944 131.516 147.677C138.119 148.41 143.254 154.762 143.254 154.762ZM152.545 139.616C146.187 141.57 137.628 139.127 137.628 139.127C137.628 139.127 141.052 132.043 147.41 130.088C154.012 127.89 161.103 131.798 161.103 131.798C161.592 131.554 158.902 137.661 152.545 139.616ZM143.008 49.2253C143.008 48.981 147.409 56.5542 146.92 63.3945C146.431 70.2349 140.807 73.655 140.807 73.655C140.807 73.655 135.672 68.0362 136.161 61.1959C136.65 54.3556 143.008 49.2253 143.008 49.2253ZM85.7217 37.0105C85.7217 37.0105 88.9006 45.0724 85.2326 50.6912C80.8311 57.2872 74.7178 58.753 74.7178 58.753C74.7178 58.753 72.028 52.8899 74.9624 47.0267C78.1412 40.9193 85.9662 36.7663 85.7217 37.0105ZM39.26 87.3359C36.5702 81.2285 38.2819 72.9224 38.5264 73.1667C38.5264 73.1667 46.1068 76.0983 48.7967 82.45C51.4865 88.5574 48.0631 95.6421 48.0631 95.6421C48.0631 95.6421 41.9498 93.4434 39.26 87.3359ZM37.5499 114.943C32.6593 110.301 31.4367 102.239 31.6812 102.483C31.6812 102.483 39.7507 101.995 44.8858 106.636C49.7764 111.278 49.7764 118.851 49.7764 118.851C49.7764 118.851 42.4405 119.584 37.5499 114.943ZM66.6464 158.426C60.0441 159.159 54.909 154.762 55.398 154.762C55.398 154.762 60.5331 148.41 67.1355 147.677C73.7378 146.944 79.6065 152.074 79.6065 152.074C79.6065 152.074 73.2487 157.693 66.6464 158.426ZM37.5486 131.798C37.5486 131.798 44.64 127.89 51.2423 130.088C57.6001 132.043 61.0235 139.127 61.0235 139.127C61.0235 139.127 52.4649 141.57 46.1071 139.616C39.7494 137.661 37.0595 131.554 37.5486 131.798ZM51.7318 63.3945C51.2428 56.5542 55.6443 48.981 55.6443 49.2253C55.6443 49.2253 62.0021 54.3556 62.4911 61.1959C62.9802 68.0362 57.8451 73.655 57.8451 73.655C57.8451 73.655 52.2209 70.2349 51.7318 63.3945ZM101.927 78.2964L107 94.0003H123.69C126.136 94.0003 127.358 97.1073 125.402 98.8174L112.197 108.834L117.088 124.224C117.822 126.667 115.132 128.622 112.931 127.156L99.4818 117.873L85.7882 127.4C83.5874 128.866 80.8976 126.912 81.6311 124.469L86.5218 109.078L73.3171 99.0617C71.3609 97.5959 72.339 94.0003 75.0288 94.0003H91.4124L96.792 78.2964C97.5256 75.8534 100.949 75.8534 101.927 78.2964Z" fill="black"/>
<path fill-rule="evenodd" clip-rule="evenodd" d="M156.5 21L165 29.5L156.5 38L148 29.5L156.5 21ZM153.667 29.5L156.5 32.3333L159.333 29.5L156.5 26.6667L153.667 29.5Z" fill="black"/>
<path d="M25 142C25 140.895 24.1046 140 23 140C21.8954 140 21 140.895 21 142V146H17C15.8954 146 15 146.895 15 148C15 149.105 15.8954 150 17 150H21V154C21 155.105 21.8954 156 23 156C24.1046 156 25 155.105 25 154V150H29C30.1046 150 31 149.105 31 148C31 146.895 30.1046 146 29 146H25V142Z" fill="black"/>
<path d="M44 166L40 162L36 166L40 170L44 166Z" fill="black"/>
<path fill-rule="evenodd" clip-rule="evenodd" d="M125.464 46.1031C123.675 42.6665 120.654 39.8874 118.239 38.0461C116.937 37.0538 115.569 36.1005 114.113 35.3449C113.216 34.8796 112.143 34.8764 111.436 35.6662C110.941 36.2177 110.766 37.1143 110.568 37.809C110.306 38.7258 109.998 40.0128 109.814 41.4981C109.454 44.4084 109.533 48.396 111.744 51.7843L111.756 51.8011C114.16 55.4047 117.041 57.6176 119.333 58.9307C120.6 59.6567 121.931 60.2713 123.199 60.9841C138.245 69.4394 148.344 85.3999 148.344 103.947C148.344 127.883 131.196 147.846 108.39 152.309C107.306 152.521 106.599 153.572 106.811 154.656C107.023 155.74 108.074 156.447 109.158 156.235C112.174 155.645 115.098 154.803 117.909 153.734C118.416 154.163 119.909 155.381 121.996 156.675C124.508 158.231 128.049 159.998 131.785 160.413C135.576 160.834 138.899 159.781 141.172 158.662C142.49 158.014 144.571 157.021 145.147 155.53C146.04 153.216 142.565 151.09 141.107 149.929C138.927 148.193 135.749 146.22 132.034 145.725C133.855 144.289 135.58 142.738 137.197 141.083C138.918 141.549 140.686 141.868 142.454 142.089C145.484 142.467 149.549 142.629 153.132 141.527C156.798 140.4 159.371 138.09 160.947 136.139C161.869 134.998 163.41 133.081 163.127 131.476C162.752 129.351 158.948 128.646 157.254 128.188C153.697 127.226 149.955 127.105 146.438 128.3C147.665 125.928 148.719 123.452 149.582 120.889C154.205 120.992 159.073 119.626 162.479 116.393C165.844 113.199 167.915 108.582 168.807 104.062C169.094 102.607 169.059 100.604 167.106 100.482C165.398 100.375 163.633 100.559 161.954 100.848C158.475 101.448 154.921 102.769 152.328 105.244C152.339 104.813 152.344 104.381 152.344 103.947C152.344 101.676 152.204 99.441 151.931 97.2495C152.627 96.9391 153.801 96.3522 155.133 95.4143C157.19 93.9657 159.686 91.6292 161.222 88.1419C162.745 84.6849 162.985 80.7287 162.857 77.7823C162.792 76.2883 162.629 74.9915 162.46 74.0605C162.23 72.7969 161.824 71.2748 160.278 71.1662C158.546 71.0447 156.195 72.8689 154.87 73.7757C151.782 75.8885 149.121 78.726 147.772 82.2604C146.521 79.4512 145.035 76.7729 143.336 74.2493C146.493 71.5555 148.617 67.7079 148.915 63.5364C149.19 59.6907 148.097 55.7668 147.015 52.9381C146.466 51.5024 145.9 50.2965 145.464 49.4542C144.927 48.4169 144.316 47.1984 142.98 47.219C142.008 47.234 141.261 48.0678 140.611 48.7001C139.956 49.3383 139.079 50.2634 138.184 51.4223C136.421 53.7066 134.45 57.0737 134.166 61.0524C134.095 62.0369 134.126 62.994 134.232 63.914C131.772 61.7598 129.111 59.8268 126.279 58.1444C127.484 54.2175 127.349 49.7964 125.464 46.1031ZM114.129 40.0248C117.19 42.0654 120.186 44.6374 121.908 47.9358C123.175 50.4763 123.332 53.4247 122.677 56.158C120.753 55.2775 117.614 53.3694 115.089 49.5896C113.27 46.7958 113.42 43.1612 114.129 40.0248ZM142.498 52.5012C144.017 55.827 145.189 59.5645 144.925 63.2511C144.716 66.172 143.28 68.8546 141.157 70.834C139.264 68.0721 137.913 64.7332 138.156 61.3377C138.396 57.9812 140.276 54.9393 142.498 52.5012ZM158.715 76.0869C159.111 79.5504 158.981 83.3059 157.561 86.5297C156.372 89.2314 154.208 91.4057 151.679 92.884C150.709 89.8 150.352 86.2837 151.685 83.256L151.697 83.2297C153.029 80.0836 155.799 77.7432 158.715 76.0869ZM151.056 116.861C151.527 113.651 152.738 110.381 155.125 108.104C157.688 105.798 161.213 104.822 164.588 104.542C163.713 107.818 162.211 111.132 159.725 113.492C157.408 115.691 154.191 116.67 151.056 116.861ZM140.786 137.785C142.596 135.225 145.012 132.972 148.041 131.986C151.432 130.856 155.196 131.511 158.455 132.792C156.904 135.074 154.606 136.89 151.957 137.704C148.38 138.804 144.423 138.453 140.786 137.785ZM122.389 152.136C125.025 150.503 128.153 149.315 131.296 149.664C134.773 150.05 137.874 152.188 140.336 154.572C137.916 156 135.034 156.749 132.226 156.438C128.641 156.04 125.294 154.197 122.389 152.136Z" fill="black"/>
<path fill-rule="evenodd" clip-rule="evenodd" d="M99.2679 74.4639C101.094 74.4639 102.969 75.5169 103.784 77.5527L103.794 77.5783C103.799 77.592 103.804 77.6058 103.809 77.6197C103.814 77.6316 103.818 77.6437 103.822 77.6557L103.83 77.6813L108.456 92H123.69C128.017 92 130.039 97.4196 126.718 100.323C126.683 100.353 126.648 100.383 126.611 100.41L114.531 109.573L118.994 123.618L119.003 123.649C120.316 128.019 115.466 131.247 111.822 128.82L111.795 128.801L99.4864 120.306L86.9304 129.042L86.9151 129.052L86.8968 129.064C83.2526 131.492 78.4033 128.263 79.7156 123.893L79.7251 123.863L84.188 109.818L72.1178 100.662L72.1125 100.658C70.3152 99.3073 69.9931 97.0857 70.5208 95.3876C71.0644 93.6378 72.643 92 75.0288 92H89.9834L94.889 77.6797C95.5514 75.5397 97.436 74.4639 99.2679 74.4639ZM98.9077 78.5642C98.8423 78.6097 98.7618 78.6903 98.7075 78.8713C98.7001 78.8958 98.6923 78.9201 98.6841 78.9443L93.3044 94.6482C93.0274 95.4568 92.2671 96 91.4123 96H75.0288C74.8274 96 74.7079 96.059 74.619 96.1318C74.5135 96.2183 74.405 96.3671 74.3406 96.5744C74.1963 97.0388 74.3621 97.3452 74.5164 97.4608L74.5258 97.4679L87.7304 107.484C88.4049 107.996 88.6842 108.876 88.4278 109.683L83.5433 125.055C83.4865 125.252 83.5074 125.387 83.5411 125.479C83.5796 125.585 83.6561 125.69 83.771 125.772C83.9795 125.921 84.2938 125.986 84.6663 125.744L98.3396 116.23C99.0239 115.754 99.9318 115.753 100.618 116.226L114.05 125.498C114.424 125.742 114.739 125.677 114.948 125.528C115.063 125.446 115.14 125.34 115.178 125.235C115.212 125.142 115.233 125.007 115.176 124.811L110.291 109.439C110.035 108.632 110.314 107.751 110.989 107.24L124.123 97.2766C124.658 96.7596 124.242 96 123.69 96H107C106.132 96 105.364 95.4405 105.097 94.6148L100.05 78.9918C99.8813 78.6191 99.5688 78.4639 99.2679 78.4639C99.1089 78.4639 98.9866 78.5094 98.9077 78.5642Z" fill="black"/>
<path d="M68.2269 136.19C69.5772 136.19 70.6718 135.095 70.6718 133.744C70.6718 132.394 69.5772 131.299 68.2269 131.299C66.8766 131.299 65.782 132.394 65.782 133.744C65.782 135.095 66.8766 136.19 68.2269 136.19Z" fill="black"/>
<path d="M66.1661 128.113C66.1661 129.464 65.0715 130.559 63.7212 130.559C62.371 130.559 61.2764 129.464 61.2764 128.113C61.2764 126.763 62.371 125.668 63.7212 125.668C65.0715 125.668 66.1661 126.763 66.1661 128.113Z" fill="black"/>
<path d="M60.1262 124.28C61.4764 124.28 62.571 123.185 62.571 121.834C62.571 120.484 61.4764 119.389 60.1262 119.389C58.7759 119.389 57.6813 120.484 57.6813 121.834C57.6813 123.185 58.7759 124.28 60.1262 124.28Z" fill="black"/>
<path d="M60.1247 114.842C60.1247 116.193 59.0301 117.288 57.6799 117.288C56.3296 117.288 55.235 116.193 55.235 114.842C55.235 113.491 56.3296 112.396 57.6799 112.396C59.0301 112.396 60.1247 113.491 60.1247 114.842Z" fill="black"/>
<path d="M56.4549 110.083C57.8052 110.083 58.8998 108.989 58.8998 107.638C58.8998 106.287 57.8052 105.192 56.4549 105.192C55.1046 105.192 54.01 106.287 54.01 107.638C54.01 108.989 55.1046 110.083 56.4549 110.083Z" fill="black"/>
<path d="M58.8998 100.488C58.8998 101.838 57.8052 102.933 56.4549 102.933C55.1046 102.933 54.01 101.838 54.01 100.488C54.01 99.1369 55.1046 98.042 56.4549 98.042C57.8052 98.042 58.8998 99.1369 58.8998 100.488Z" fill="black"/>
<path d="M57.6698 95.7016C59.02 95.7016 60.1147 94.6067 60.1147 93.2561C60.1147 91.9054 59.02 90.8105 57.6698 90.8105C56.3195 90.8105 55.2249 91.9054 55.2249 93.2561C55.2249 94.6067 56.3195 95.7016 57.6698 95.7016Z" fill="black"/>
<path d="M62.561 86.5891C62.561 87.9397 61.4664 89.0346 60.1161 89.0346C58.7659 89.0346 57.6712 87.9397 57.6712 86.5891C57.6712 85.2385 58.7659 84.1436 60.1161 84.1436C61.4664 84.1436 62.561 85.2385 62.561 86.5891Z" fill="black"/>
<path d="M63.5119 82.4242C64.8622 82.4242 65.9568 81.3293 65.9568 79.9787C65.9568 78.6281 64.8622 77.5332 63.5119 77.5332C62.1617 77.5332 61.067 78.6281 61.067 79.9787C61.067 81.3293 62.1617 82.4242 63.5119 82.4242Z" fill="black"/>
<path d="M70.6876 74.4006C70.6876 75.7512 69.593 76.8461 68.2428 76.8461C66.8925 76.8461 65.7979 75.7512 65.7979 74.4006C65.7979 73.05 66.8925 71.9551 68.2428 71.9551C69.593 71.9551 70.6876 73.05 70.6876 74.4006Z" fill="black"/>
<path d="M73.5425 72.0737C74.8928 72.0737 75.9874 70.9788 75.9874 69.6281C75.9874 68.2775 74.8928 67.1826 73.5425 67.1826C72.1923 67.1826 71.0977 68.2775 71.0977 69.6281C71.0977 70.9788 72.1923 72.0737 73.5425 72.0737Z" fill="black"/>
<path d="M82.1712 65.8215C82.1712 67.1721 81.0766 68.267 79.7263 68.267C78.3761 68.267 77.2814 67.1721 77.2814 65.8215C77.2814 64.4709 78.3761 63.376 79.7263 63.376C81.0766 63.376 82.1712 64.4709 82.1712 65.8215Z" fill="black"/>
<path d="M86.5194 65.477C87.8696 65.477 88.9642 64.3821 88.9642 63.0315C88.9642 61.6808 87.8696 60.5859 86.5194 60.5859C85.1691 60.5859 84.0745 61.6808 84.0745 63.0315C84.0745 64.3821 85.1691 65.477 86.5194 65.477Z" fill="black"/>
<path d="M96.0335 61.4992C96.0335 62.8499 94.9389 63.9448 93.5886 63.9448C92.2384 63.9448 91.1438 62.8499 91.1438 61.4992C91.1438 60.1486 92.2384 59.0537 93.5886 59.0537C94.9389 59.0537 96.0335 60.1486 96.0335 61.4992Z" fill="black"/>
<path d="M100.766 63.6401C102.116 63.6401 103.211 62.5452 103.211 61.1945C103.211 59.8439 102.116 58.749 100.766 58.749C99.4155 58.749 98.3209 59.8439 98.3209 61.1945C98.3209 62.5452 99.4155 63.6401 100.766 63.6401Z" fill="black"/>
<path d="M110.531 62.0539C110.531 63.4045 109.436 64.4995 108.086 64.4995C106.736 64.4995 105.641 63.4045 105.641 62.0539C105.641 60.7033 106.736 59.6084 108.086 59.6084C109.436 59.6084 110.531 60.7033 110.531 62.0539Z" fill="black"/>
<path d="M115.011 66.5883C116.361 66.5883 117.456 65.4934 117.456 64.1428C117.456 62.7922 116.361 61.6973 115.011 61.6973C113.66 61.6973 112.566 62.7922 112.566 64.1428C112.566 65.4934 113.66 66.5883 115.011 66.5883Z" fill="black"/>
<path d="M124.037 67.5129C124.037 68.8635 122.943 69.9584 121.592 69.9584C120.242 69.9584 119.147 68.8635 119.147 67.5129C119.147 66.1623 120.242 65.0674 121.592 65.0674C122.943 65.0674 124.037 66.1623 124.037 67.5129Z" fill="black"/>
<path d="M127.275 74.1489C128.625 74.1489 129.72 73.054 129.72 71.7033C129.72 70.3527 128.625 69.2578 127.275 69.2578C125.924 69.2578 124.83 70.3527 124.83 71.7033C124.83 73.054 125.924 74.1489 127.275 74.1489Z" fill="black"/>
<path d="M134.886 76.8996C134.886 78.2502 133.792 79.3451 132.441 79.3451C131.091 79.3451 129.997 78.2502 129.997 76.8996C129.997 75.549 131.091 74.4541 132.441 74.4541C133.792 74.4541 134.886 75.549 134.886 76.8996Z" fill="black"/>
<path d="M136.512 85.2661C137.862 85.2661 138.957 84.1712 138.957 82.8205C138.957 81.4699 137.862 80.375 136.512 80.375C135.162 80.375 134.067 81.4699 134.067 82.8205C134.067 84.1712 135.162 85.2661 136.512 85.2661Z" fill="black"/>
<path d="M142.036 89.5217C142.036 90.8723 140.942 91.9672 139.591 91.9672C138.241 91.9672 137.146 90.8723 137.146 89.5217C137.146 88.1711 138.241 87.0762 139.591 87.0762C140.942 87.0762 142.036 88.1711 142.036 89.5217Z" fill="black"/>
<path d="M141.323 98.9086C142.673 98.9086 143.767 97.8137 143.767 96.4631C143.767 95.1125 142.673 94.0176 141.323 94.0176C139.972 94.0176 138.878 95.1125 138.878 96.4631C138.878 97.8137 139.972 98.9086 141.323 98.9086Z" fill="black"/>
<path d="M144.442 103.812C144.442 105.162 143.348 106.257 141.997 106.257C140.647 106.257 139.552 105.162 139.552 103.812C139.552 102.461 140.647 101.366 141.997 101.366C143.348 101.366 144.442 102.461 144.442 103.812Z" fill="black"/>
<path d="M141.468 113.686C142.818 113.686 143.913 112.591 143.913 111.24C143.913 109.89 142.818 108.795 141.468 108.795C140.118 108.795 139.023 109.89 139.023 111.24C139.023 112.591 140.118 113.686 141.468 113.686Z" fill="black"/>
<path d="M142.076 118.221C142.076 119.572 140.981 120.666 139.631 120.666C138.281 120.666 137.186 119.572 137.186 118.221C137.186 116.87 138.281 115.775 139.631 115.775C140.981 115.775 142.076 116.87 142.076 118.221Z" fill="black"/>
<path d="M136.552 127.182C137.903 127.182 138.997 126.087 138.997 124.737C138.997 123.386 137.903 122.291 136.552 122.291C135.202 122.291 134.107 123.386 134.107 124.737C134.107 126.087 135.202 127.182 136.552 127.182Z" fill="black"/>
<path d="M135.006 130.911C135.006 132.262 133.912 133.357 132.562 133.357C131.211 133.357 130.117 132.262 130.117 130.911C130.117 129.561 131.211 128.466 132.562 128.466C133.912 128.466 135.006 129.561 135.006 130.911Z" fill="black"/>
<path d="M127.42 138.644C128.77 138.644 129.865 137.549 129.865 136.198C129.865 134.848 128.77 133.753 127.42 133.753C126.07 133.753 124.975 134.848 124.975 136.198C124.975 137.549 126.07 138.644 127.42 138.644Z" fill="black"/>
<path d="M124.012 140.428C124.012 141.779 122.917 142.873 121.567 142.873C120.217 142.873 119.122 141.779 119.122 140.428C119.122 139.077 120.217 137.982 121.567 137.982C122.917 137.982 124.012 139.077 124.012 140.428Z" fill="black"/>
<path d="M115.05 146.098C116.401 146.098 117.495 145.003 117.495 143.653C117.495 142.302 116.401 141.207 115.05 141.207C113.7 141.207 112.605 142.302 112.605 143.653C112.605 145.003 113.7 146.098 115.05 146.098Z" fill="black"/>
<path d="M110.742 145.873C110.742 147.224 109.648 148.319 108.298 148.319C106.947 148.319 105.853 147.224 105.853 145.873C105.853 144.523 106.947 143.428 108.298 143.428C109.648 143.428 110.742 144.523 110.742 145.873Z" fill="black"/>
<path d="M101.101 149.241C102.451 149.241 103.546 148.146 103.546 146.795C103.546 145.445 102.451 144.35 101.101 144.35C99.7507 144.35 98.6561 145.445 98.6561 146.795C98.6561 148.146 99.7507 149.241 101.101 149.241Z" fill="black"/>
<path d="M96.1975 146.437C96.1975 147.787 95.1029 148.882 93.7526 148.882C92.4024 148.882 91.3078 147.787 91.3078 146.437C91.3078 145.086 92.4024 143.991 93.7526 143.991C95.1029 143.991 96.1975 145.086 96.1975 146.437Z" fill="black"/>
<path d="M86.5546 147.575C87.9049 147.575 88.9995 146.48 88.9995 145.129C88.9995 143.778 87.9049 142.684 86.5546 142.684C85.2043 142.684 84.1097 143.778 84.1097 145.129C84.1097 146.48 85.2043 147.575 86.5546 147.575Z" fill="black"/>
<path d="M82.3266 142.234C82.3266 143.584 81.232 144.679 79.8817 144.679C78.5314 144.679 77.4368 143.584 77.4368 142.234C77.4368 140.883 78.5314 139.788 79.8817 139.788C81.232 139.788 82.3266 140.883 82.3266 142.234Z" fill="black"/>
<path d="M73.2131 141.207C74.5633 141.207 75.6579 140.113 75.6579 138.762C75.6579 137.411 74.5633 136.316 73.2131 136.316C71.8628 136.316 70.7682 137.411 70.7682 138.762C70.7682 140.113 71.8628 141.207 73.2131 141.207Z" fill="black"/>
<path fill-rule="evenodd" clip-rule="evenodd" d="M73.2473 46.1032C75.036 42.6666 78.0571 39.8875 80.4722 38.0462C81.7736 37.054 83.1415 36.1007 84.5977 35.345C85.4945 34.8797 86.5674 34.8765 87.2752 35.6664C87.7694 36.2178 87.945 37.1144 88.1433 37.8091C88.4049 38.7259 88.7127 40.0129 88.8965 41.4982C89.2565 44.4085 89.1782 48.3961 86.9664 51.7844L86.9552 51.8012C84.5506 55.4048 81.6697 57.6177 79.3779 58.9308C78.111 59.6568 76.7799 60.2714 75.5115 60.9842C60.4654 69.4395 50.367 85.4 50.367 103.947C50.367 127.883 67.5151 147.846 90.3212 152.309C91.4052 152.522 92.112 153.572 91.8998 154.656C91.6877 155.74 90.637 156.447 89.553 156.235C86.5371 155.645 83.6124 154.804 80.8017 153.734C80.2948 154.163 78.8023 155.381 76.7148 156.675C74.2026 158.231 70.6623 159.998 66.9261 160.413C63.1346 160.834 59.8119 159.781 57.5389 158.663C56.2212 158.014 54.1393 157.021 53.5643 155.53C52.6713 153.216 56.146 151.09 57.604 149.929C59.7839 148.193 62.9619 146.22 66.6765 145.725C64.8556 144.289 63.131 142.738 61.5136 141.083C59.7923 141.549 58.0244 141.868 56.2563 142.089C53.2264 142.467 49.1621 142.629 45.5785 141.527C41.9126 140.401 39.3395 138.09 37.7635 136.139C36.8418 134.998 35.3004 133.082 35.5837 131.477C35.9589 129.351 39.7625 128.646 41.4566 128.188C45.0138 127.226 48.7561 127.105 52.2725 128.301C51.0453 125.928 49.9919 123.452 49.129 120.889C44.5055 120.992 39.638 119.626 36.2321 116.393C32.8666 113.199 30.796 108.582 29.9041 104.062C29.6171 102.607 29.6517 100.604 31.6048 100.482C33.3131 100.375 35.0775 100.559 36.7563 100.849C40.2363 101.448 43.7893 102.769 46.3825 105.244C46.3722 104.813 46.367 104.381 46.367 103.947C46.367 101.676 46.5071 99.4411 46.7794 97.2496C46.0842 96.9392 44.9094 96.3523 43.5776 95.4144C41.5206 93.9658 39.0245 91.6293 37.4886 88.142C35.9661 84.685 35.7255 80.7288 35.8537 77.7824C35.9187 76.2884 36.0815 74.9916 36.2509 74.0606C36.4809 72.797 36.8864 71.2749 38.4329 71.1663C40.1653 71.0448 42.516 72.869 43.8413 73.7758C46.9289 75.8886 49.5903 78.7262 50.9393 82.2605C52.1894 79.4513 53.6761 76.773 55.3745 74.2494C52.2178 71.5556 50.0941 67.708 49.7959 63.5365C49.521 59.6908 50.6139 55.7669 51.6956 52.9382C52.2445 51.5025 52.811 50.2966 53.247 49.4543C53.7838 48.417 54.3952 47.1985 55.731 47.2191C56.7025 47.2341 57.4503 48.0679 58.0996 48.7002C58.755 49.3384 59.6314 50.2635 60.5263 51.4224C62.2902 53.7067 64.2606 57.0738 64.545 61.0525C64.6154 62.037 64.5849 62.9941 64.479 63.9141C66.9384 61.7599 69.5996 59.8269 72.4315 58.1446C71.2265 54.2177 71.3618 49.7965 73.2473 46.1032ZM84.5822 40.025C81.5203 42.0655 78.5251 44.6375 76.8028 47.9359C75.536 50.4764 75.3783 53.4248 76.0339 56.1581C77.9582 55.2776 81.097 53.3695 83.6222 49.5897C85.4408 46.7959 85.291 43.1613 84.5822 40.025ZM56.2131 52.5013C54.6943 55.8271 53.5221 59.5646 53.7857 63.2512C53.9946 66.1721 55.4311 68.8547 57.5535 70.8341C59.4473 68.0722 60.798 64.7333 60.5552 61.3378C60.3152 57.9813 58.4344 54.9394 56.2131 52.5013ZM39.9961 76.087C39.5999 79.5505 39.7295 83.306 41.1493 86.5298C42.3393 89.2315 44.5027 91.4058 47.0322 92.8841C48.002 89.8001 48.3588 86.2838 47.0253 83.2561L47.014 83.2299C45.6816 80.0837 42.9122 77.7433 39.9961 76.087ZM47.6546 116.861C47.1834 113.651 45.9732 110.381 43.5856 108.104C41.0225 105.798 37.4979 104.822 34.1227 104.543C34.9978 107.818 36.4996 111.133 38.9857 113.492C41.3026 115.691 44.5201 116.67 47.6546 116.861ZM57.9247 137.785C56.1151 135.225 53.6984 132.972 50.6694 131.986C47.2785 130.856 43.5147 131.512 40.2557 132.792C41.8073 135.074 44.105 136.89 46.7538 137.704C50.3313 138.804 54.2879 138.454 57.9247 137.785ZM76.3223 152.136C73.6856 150.503 70.5576 149.315 67.4151 149.664C63.9374 150.05 60.8365 152.188 58.3746 154.572C60.7945 156 63.6765 156.749 66.4847 156.438C70.0701 156.04 73.4166 154.197 76.3223 152.136Z" fill="black"/>
</svg>
