<svg width="96" height="96" viewBox="0 0 96 96" fill="none" xmlns="http://www.w3.org/2000/svg">
<path fill-rule="evenodd" clip-rule="evenodd" d="M60.7616 7.59675C62.7231 9.0923 64.5846 10.916 65.7169 13.1348C66.9768 15.6522 67.0951 18.6117 66.302 21.2877C68.1574 22.3976 69.9046 23.6658 71.5245 25.0741C71.2326 22.0236 72.4109 19.0968 74.2588 16.7036C74.8713 15.9105 75.4709 15.2775 75.9195 14.8407C76.3988 14.374 76.9059 13.806 77.6245 13.7949C78.6008 13.7799 79.051 14.6388 79.4393 15.3891C79.7375 15.9652 80.1243 16.7887 80.499 17.7687C81.2363 19.6968 81.9864 22.3833 81.7976 25.0241C81.5924 27.895 80.1314 30.5438 77.9582 32.3971C79.0378 34.0235 79.989 35.7429 80.7977 37.5417C81.7439 35.1727 83.5335 33.2724 85.6174 31.8464C86.5141 31.2329 87.4473 30.7023 88.442 30.2691C88.7444 30.1374 89.0415 30.0268 89.3792 30.0505C90.1079 30.1016 90.6017 30.6448 90.8031 31.3134C91.1275 32.3906 91.2137 33.5617 91.2622 34.6775C91.3497 36.6873 91.1866 39.3981 90.1405 41.7735C89.0843 44.1716 87.3688 45.7762 85.9587 46.7692C85.0112 47.4365 84.18 47.8447 83.7091 48.0518C83.9077 49.7148 83.9951 51.4268 83.9628 53.1396C86.0002 51.308 88.5482 50.5343 90.483 50.201C91.6328 50.003 92.8431 49.8772 94.0131 49.9505C94.75 49.9966 95.117 50.5151 95.2269 50.7071C95.5493 51.2707 95.4172 51.9476 95.2983 52.5501C94.6872 55.6474 93.267 58.8083 90.961 60.9969C89.002 62.8562 86.599 63.6015 84.774 63.8978C83.6084 64.087 82.6335 64.1018 82.0548 64.0865C81.5029 65.7107 80.8387 67.2833 80.0714 68.7952C82.4515 68.0281 84.9565 68.1153 87.3537 68.7634C88.3195 69.0245 89.1303 69.336 89.7026 69.5835C90.4423 69.9033 91.2851 70.2115 91.4435 71.1085C91.5355 71.6297 91.3399 72.1332 91.1118 72.5919C89.8222 75.1861 87.3081 77.2474 84.5604 78.0921C81.096 79.157 77.0831 78.73 73.6211 77.7799C72.6101 78.8124 71.5378 79.7853 70.4099 80.6928C72.8843 81.0748 74.9931 82.393 76.4439 83.5484C77.2221 84.1681 77.8466 84.7695 78.2783 85.2178C78.8942 85.8571 79.6053 86.5413 79.2303 87.5132C79.0565 87.9637 78.6821 88.294 78.3102 88.5829C76.0131 90.3679 72.8885 91.2376 70.0114 90.9182C66.5247 90.5312 63.1823 88.599 60.5311 86.3642C58.6068 87.0983 56.604 87.6753 54.5384 88.0795C53.7254 88.2386 52.9373 87.7085 52.7782 86.8955C52.6191 86.0825 53.1492 85.2945 53.9622 85.1354C69.3787 82.1185 80.9694 68.6239 80.9694 52.4452C80.9694 39.9085 74.1438 29.1204 63.9731 23.4048C63.1114 22.9206 62.2077 22.5036 61.3473 22.0106C59.2643 20.8171 57.4697 19.1166 56.1476 17.1136C54.6193 14.7724 54.5692 12.0251 54.8153 10.0358C54.9412 9.01855 55.1519 8.13752 55.331 7.50997C55.5467 6.75414 55.7787 5.83114 56.6225 5.56808C57.3546 5.33982 58.0062 5.76613 58.6126 6.13086C59.1623 6.46154 59.9244 6.95848 60.7616 7.59675ZM57.9796 9.28834C57.5512 11.3236 57.4812 13.6626 58.6558 15.4677C60.2837 17.9042 62.2901 19.1811 63.5889 19.8014C63.9797 18.027 63.8575 16.1296 63.0394 14.4881C61.9124 12.3306 59.9695 10.6426 57.9796 9.28834ZM77.2594 17.7806C75.8426 19.3815 74.6493 21.3576 74.4939 23.5316C74.3353 25.7493 75.1985 27.9291 76.4133 29.7489C77.7627 28.4412 78.6701 26.7006 78.8053 24.8102C78.9775 22.4016 78.2292 19.9637 77.2594 17.7806ZM83.6146 44.7202C85.2386 43.7342 86.6235 42.3158 87.3949 40.5643C88.3206 38.4625 88.4191 36.0262 88.19 33.7653C86.2908 34.8799 84.5552 36.3996 83.6667 38.4568C82.7996 40.4254 83.0105 42.7053 83.6146 44.7202ZM83.2767 61.057C85.3126 60.9029 87.3904 60.2497 88.8958 58.8209C90.5168 57.2825 91.5055 55.1369 92.1035 53.0089C89.9112 53.2198 87.6343 53.8728 85.968 55.371C84.4137 56.854 83.6111 58.9699 83.2767 61.057ZM76.3849 75.3155C78.7643 75.7317 81.3423 75.9428 83.6789 75.2245C85.3909 74.6982 86.8763 73.5449 87.9113 72.0939C85.7145 71.262 83.3519 70.9253 81.0745 71.6245C79.1268 72.2232 77.5649 73.7002 76.3849 75.3155ZM63.9084 85.1667C65.8176 86.4933 68.003 87.6768 70.3424 87.9365C72.1576 88.138 74.0137 87.6726 75.5965 86.7829C73.9721 85.2466 71.9473 83.8731 69.6794 83.6214C67.6502 83.3961 65.6284 84.1377 63.9084 85.1667Z" fill="black"/>
<path d="M48.7881 25.0837C49.7047 25.0837 50.4477 24.3404 50.4477 23.4236C50.4477 22.5067 49.7047 21.7635 48.7881 21.7635C47.8715 21.7635 47.1284 22.5067 47.1284 23.4236C47.1284 24.3404 47.8715 25.0837 48.7881 25.0837Z" fill="black"/>
<path d="M45.5757 23.6306C45.5757 24.5475 44.8326 25.2907 43.916 25.2907C42.9994 25.2907 42.2564 24.5475 42.2564 23.6306C42.2564 22.7138 42.9994 21.9705 43.916 21.9705C44.8326 21.9705 45.5757 22.7138 45.5757 23.6306Z" fill="black"/>
<path d="M39.1172 26.3317C40.0338 26.3317 40.7768 25.5885 40.7768 24.6716C40.7768 23.7548 40.0338 23.0115 39.1172 23.0115C38.2006 23.0115 37.4575 23.7548 37.4575 24.6716C37.4575 25.5885 38.2006 26.3317 39.1172 26.3317Z" fill="black"/>
<path d="M36.1655 26.5642C36.1655 27.4811 35.4225 28.2243 34.5059 28.2243C33.5892 28.2243 32.8462 27.4811 32.8462 26.5642C32.8462 25.6474 33.5892 24.9041 34.5059 24.9041C35.4225 24.9041 36.1655 25.6474 36.1655 26.5642Z" fill="black"/>
<path d="M30.3081 30.8093C31.2247 30.8093 31.9677 30.066 31.9677 29.1492C31.9677 28.2323 31.2247 27.4891 30.3081 27.4891C29.3915 27.4891 28.6484 28.2323 28.6484 29.1492C28.6484 30.066 29.3915 30.8093 30.3081 30.8093Z" fill="black"/>
<path d="M28.3701 32.3884C28.3701 33.3053 27.627 34.0485 26.7104 34.0485C25.7938 34.0485 25.0508 33.3053 25.0508 32.3884C25.0508 31.4716 25.7938 30.7283 26.7104 30.7283C27.627 30.7283 28.3701 31.4716 28.3701 32.3884Z" fill="black"/>
<path fill-rule="evenodd" clip-rule="evenodd" d="M51.2215 34.022C50.6502 32.5757 49.3268 31.8123 48.0212 31.8123C46.709 31.8123 45.3755 32.5949 44.9107 34.1189L41.6084 43.9995H31.567C29.9065 43.9995 28.7708 45.1052 28.3744 46.3458C27.9895 47.5505 28.2383 49.0967 29.4938 50.053L29.4977 50.056L37.6241 56.3043L34.6175 65.8952L34.6106 65.9178C33.7024 68.9836 37.0805 71.3795 39.71 69.6043C39.7185 69.5986 39.7269 69.5928 39.7352 69.5869L48.1699 63.6383L56.4362 69.422L56.4568 69.4362C59.0863 71.2114 62.4645 68.8155 61.5562 65.7497L61.5494 65.7271L58.5428 56.1362L66.6762 49.8826C66.7038 49.8613 66.7306 49.8392 66.7566 49.8161C69.1288 47.7142 67.6256 43.9998 64.5999 43.9998H54.5585L51.249 34.0976C51.2448 34.0851 51.2405 34.0727 51.236 34.0603C51.2313 34.0475 51.2265 34.0347 51.2215 34.022ZM47.7787 34.9991C47.8088 34.8974 47.848 34.8663 47.8657 34.8538C47.8931 34.8345 47.9445 34.8123 48.0212 34.8123C48.0978 34.8123 48.1781 34.8351 48.2465 34.8802C48.3038 34.9179 48.3688 34.9813 48.4199 35.0969L52.0556 45.9753C52.2601 46.5872 52.833 46.9998 53.4783 46.9998H64.5999C64.7012 46.9998 64.7597 47.0276 64.7967 47.054C64.8399 47.0849 64.8778 47.1322 64.9002 47.191C64.9223 47.2487 64.9252 47.3057 64.9134 47.3561C64.9044 47.3949 64.8796 47.4616 64.7952 47.5446L55.8838 54.3964C55.3851 54.7799 55.1786 55.4339 55.3668 56.0342L58.6822 66.61C58.7142 66.7233 58.7005 66.7933 58.6855 66.835C58.6673 66.886 58.6306 66.9374 58.5749 66.9776C58.5196 67.0176 58.4566 67.0386 58.3952 67.0403C58.3431 67.0417 58.2586 67.0309 58.1432 66.9549L49.0263 60.5762C48.5083 60.2137 47.8186 60.215 47.3019 60.5794L38.022 67.1242C37.9074 67.1991 37.8235 67.2098 37.7717 67.2084C37.7103 67.2066 37.6473 67.1857 37.5919 67.1457C37.5363 67.1055 37.4996 67.054 37.4813 67.0031C37.4663 66.9614 37.4527 66.8914 37.4847 66.778L40.8 56.2023C40.9882 55.602 40.7818 54.948 40.283 54.5645L31.3193 47.6724L31.3123 47.667C31.2633 47.6299 31.2356 47.5872 31.2196 47.5268C31.2009 47.4561 31.2001 47.3591 31.2321 47.2588C31.2638 47.1597 31.3154 47.0939 31.36 47.0586C31.3936 47.032 31.4492 46.9995 31.567 46.9995H42.6886C43.3338 46.9995 43.9067 46.5869 44.1112 45.975L47.7631 35.0485L47.7722 35.0205L47.7787 34.9991Z" fill="black"/>
<path d="M26.6997 74.3337C27.6163 74.3337 28.3593 73.5904 28.3593 72.6736C28.3593 71.7567 27.6163 71.0135 26.6997 71.0135C25.7831 71.0135 25.04 71.7567 25.04 72.6736C25.04 73.5904 25.7831 74.3337 26.6997 74.3337Z" fill="black"/>
<path d="M25.3008 68.8513C25.3008 69.7682 24.5577 70.5114 23.6411 70.5114C22.7245 70.5114 21.9814 69.7682 21.9814 68.8513C21.9814 67.9345 22.7245 67.1912 23.6411 67.1912C24.5577 67.1912 25.3008 67.9345 25.3008 68.8513Z" fill="black"/>
<path d="M21.2007 66.2477C22.1173 66.2477 22.8603 65.5045 22.8603 64.5876C22.8603 63.6708 22.1173 62.9275 21.2007 62.9275C20.2841 62.9275 19.541 63.6708 19.541 64.5876C19.541 65.5045 20.2841 66.2477 21.2007 66.2477Z" fill="black"/>
<path d="M21.1997 59.8416C21.1997 60.7584 20.4566 61.5017 19.54 61.5017C18.6234 61.5017 17.8804 60.7584 17.8804 59.8416C17.8804 58.9247 18.6234 58.1815 19.54 58.1815C20.4566 58.1815 21.1997 58.9247 21.1997 59.8416Z" fill="black"/>
<path d="M18.7085 56.611C19.6251 56.611 20.3681 55.8678 20.3681 54.9509C20.3681 54.0341 19.6251 53.2908 18.7085 53.2908C17.7919 53.2908 17.0488 54.0341 17.0488 54.9509C17.0488 55.8678 17.7919 56.611 18.7085 56.611Z" fill="black"/>
<path d="M20.3681 50.0974C20.3681 51.0143 19.6251 51.7575 18.7085 51.7575C17.7919 51.7575 17.0488 51.0143 17.0488 50.0974C17.0488 49.1806 17.7919 48.4373 18.7085 48.4373C19.6251 48.4373 20.3681 49.1806 20.3681 50.0974Z" fill="black"/>
<path d="M19.5332 46.8483C20.4498 46.8483 21.1928 46.1051 21.1928 45.1882C21.1928 44.2714 20.4498 43.5281 19.5332 43.5281C18.6166 43.5281 17.8735 44.2714 17.8735 45.1882C17.8735 46.1051 18.6166 46.8483 19.5332 46.8483Z" fill="black"/>
<path d="M22.8535 40.6619C22.8535 41.5787 22.1104 42.322 21.1938 42.322C20.2772 42.322 19.5342 41.5787 19.5342 40.6619C19.5342 39.745 20.2772 39.0018 21.1938 39.0018C22.1104 39.0018 22.8535 39.745 22.8535 40.6619Z" fill="black"/>
<path d="M23.499 37.8356C24.4156 37.8356 25.1587 37.0924 25.1587 36.1755C25.1587 35.2587 24.4156 34.5154 23.499 34.5154C22.5824 34.5154 21.8394 35.2587 21.8394 36.1755C21.8394 37.0924 22.5824 37.8356 23.499 37.8356Z" fill="black"/>
<path d="M55.417 24.0076C55.417 24.9244 54.6739 25.6677 53.7573 25.6677C52.8407 25.6677 52.0977 24.9244 52.0977 24.0076C52.0977 23.0907 52.8407 22.3475 53.7573 22.3475C54.6739 22.3475 55.417 23.0907 55.417 24.0076Z" fill="black"/>
<path d="M58.458 27.0856C59.3746 27.0856 60.1177 26.3424 60.1177 25.4255C60.1177 24.5087 59.3746 23.7654 58.458 23.7654C57.5414 23.7654 56.7983 24.5087 56.7983 25.4255C56.7983 26.3424 57.5414 27.0856 58.458 27.0856Z" fill="black"/>
<path d="M64.5854 27.7126C64.5854 28.6295 63.8424 29.3727 62.9258 29.3727C62.0092 29.3727 61.2661 28.6295 61.2661 27.7126C61.2661 26.7958 62.0092 26.0525 62.9258 26.0525C63.8424 26.0525 64.5854 26.7958 64.5854 27.7126Z" fill="black"/>
<path d="M66.7832 32.2175C67.6998 32.2175 68.4428 31.4742 68.4428 30.5574C68.4428 29.6405 67.6998 28.8973 66.7832 28.8973C65.8666 28.8973 65.1235 29.6405 65.1235 30.5574C65.1235 31.4742 65.8666 32.2175 66.7832 32.2175Z" fill="black"/>
<path d="M71.9502 34.0847C71.9502 35.0016 71.2071 35.7448 70.2905 35.7448C69.3739 35.7448 68.6309 35.0016 68.6309 34.0847C68.6309 33.1679 69.3739 32.4246 70.2905 32.4246C71.2071 32.4246 71.9502 33.1679 71.9502 34.0847Z" fill="black"/>
<path d="M73.0537 39.7644C73.9703 39.7644 74.7134 39.0211 74.7134 38.1042C74.7134 37.1874 73.9703 36.4441 73.0537 36.4441C72.1371 36.4441 71.394 37.1874 71.394 38.1042C71.394 39.0211 72.1371 39.7644 73.0537 39.7644Z" fill="black"/>
<path d="M76.8037 42.6541C76.8037 43.5709 76.0606 44.3142 75.144 44.3142C74.2274 44.3142 73.4844 43.5709 73.4844 42.6541C73.4844 41.7372 74.2274 40.994 75.144 40.994C76.0606 40.994 76.8037 41.7372 76.8037 42.6541Z" fill="black"/>
<path d="M76.3193 49.0251C77.2359 49.0251 77.979 48.2818 77.979 47.365C77.979 46.4481 77.2359 45.7049 76.3193 45.7049C75.4027 45.7049 74.6597 46.4481 74.6597 47.365C74.6597 48.2818 75.4027 49.0251 76.3193 49.0251Z" fill="black"/>
<path d="M78.437 52.3533C78.437 53.2701 77.6939 54.0134 76.7773 54.0134C75.8607 54.0134 75.1177 53.2701 75.1177 52.3533C75.1177 51.4364 75.8607 50.6932 76.7773 50.6932C77.6939 50.6932 78.437 51.4364 78.437 52.3533Z" fill="black"/>
<path d="M76.418 59.0563C77.3346 59.0563 78.0776 58.3131 78.0776 57.3962C78.0776 56.4794 77.3346 55.7361 76.418 55.7361C75.5014 55.7361 74.7583 56.4794 74.7583 57.3962C74.7583 58.3131 75.5014 59.0563 76.418 59.0563Z" fill="black"/>
<path d="M76.8305 62.1345C76.8305 63.0514 76.0875 63.7946 75.1709 63.7946C74.2543 63.7946 73.5112 63.0514 73.5112 62.1345C73.5112 61.2177 74.2543 60.4744 75.1709 60.4744C76.0875 60.4744 76.8305 61.2177 76.8305 62.1345Z" fill="black"/>
<path d="M73.0811 68.2184C73.9977 68.2184 74.7407 67.4752 74.7407 66.5583C74.7407 65.6415 73.9977 64.8983 73.0811 64.8983C72.1644 64.8983 71.4214 65.6415 71.4214 66.5583C71.4214 67.4752 72.1644 68.2184 73.0811 68.2184Z" fill="black"/>
<path d="M72.0317 70.7498C72.0317 71.6666 71.2887 72.4098 70.3721 72.4098C69.4555 72.4098 68.7124 71.6666 68.7124 70.7498C68.7124 69.8329 69.4555 69.0897 70.3721 69.0897C71.2887 69.0897 72.0317 69.8329 72.0317 70.7498Z" fill="black"/>
<path d="M66.8818 75.9987C67.7984 75.9987 68.5415 75.2555 68.5415 74.3386C68.5415 73.4218 67.7984 72.6785 66.8818 72.6785C65.9652 72.6785 65.2222 73.4218 65.2222 74.3386C65.2222 75.2555 65.9652 75.9987 66.8818 75.9987Z" fill="black"/>
<path d="M64.5683 77.2107C64.5683 78.1275 63.8253 78.8708 62.9087 78.8708C61.9921 78.8708 61.249 78.1275 61.249 77.2107C61.249 76.2938 61.9921 75.5506 62.9087 75.5506C63.8253 75.5506 64.5683 76.2938 64.5683 77.2107Z" fill="black"/>
<path d="M58.4849 81.0593C59.4014 81.0593 60.1445 80.316 60.1445 79.3992C60.1445 78.4823 59.4014 77.7391 58.4849 77.7391C57.5683 77.7391 56.8252 78.4823 56.8252 79.3992C56.8252 80.316 57.5683 81.0593 58.4849 81.0593Z" fill="black"/>
<path d="M55.5605 80.906C55.5605 81.8229 54.8175 82.5661 53.9009 82.5661C52.9843 82.5661 52.2412 81.8229 52.2412 80.906C52.2412 79.9892 52.9843 79.2459 53.9009 79.2459C54.8175 79.2459 55.5605 79.9892 55.5605 80.906Z" fill="black"/>
<path d="M49.0156 83.1921C49.9322 83.1921 50.6753 82.4488 50.6753 81.532C50.6753 80.6151 49.9322 79.8719 49.0156 79.8719C48.099 79.8719 47.356 80.6151 47.356 81.532C47.356 82.4488 48.099 83.1921 49.0156 83.1921Z" fill="black"/>
<path d="M45.687 81.2888C45.687 82.2057 44.9439 82.9489 44.0273 82.9489C43.1107 82.9489 42.3677 82.2057 42.3677 81.2888C42.3677 80.372 43.1107 79.6287 44.0273 79.6287C44.9439 79.6287 45.687 80.372 45.687 81.2888Z" fill="black"/>
<path d="M39.1411 82.0612C40.0577 82.0612 40.8008 81.318 40.8008 80.4011C40.8008 79.4843 40.0577 78.741 39.1411 78.741C38.2245 78.741 37.4815 79.4843 37.4815 80.4011C37.4815 81.318 38.2245 82.0612 39.1411 82.0612Z" fill="black"/>
<path d="M36.271 78.4353C36.271 79.3522 35.5279 80.0954 34.6113 80.0954C33.6947 80.0954 32.9517 79.3522 32.9517 78.4353C32.9517 77.5185 33.6947 76.7752 34.6113 76.7752C35.5279 76.7752 36.271 77.5185 36.271 78.4353Z" fill="black"/>
<path d="M30.0845 77.7399C31.0011 77.7399 31.7441 76.9967 31.7441 76.0798C31.7441 75.163 31.0011 74.4197 30.0845 74.4197C29.1679 74.4197 28.4248 75.163 28.4248 76.0798C28.4248 76.9967 29.1679 77.7399 30.0845 77.7399Z" fill="black"/>
<path fill-rule="evenodd" clip-rule="evenodd" d="M35.4173 7.59675C33.4557 9.0923 31.5942 10.916 30.462 13.1348C29.2021 15.6522 29.0838 18.6117 29.8769 21.2877C28.0215 22.3976 26.2743 23.6658 24.6544 25.0741C24.9463 22.0236 23.768 19.0968 21.92 16.7036C21.3076 15.9105 20.7079 15.2775 20.2594 14.8407C19.7801 14.374 19.2729 13.806 18.5543 13.7949C17.5781 13.7799 17.1279 14.6388 16.7395 15.3891C16.4414 15.9652 16.0546 16.7887 15.6798 17.7687C14.9425 19.6968 14.1925 22.3833 14.3813 25.0241C14.5865 27.895 16.0474 30.5438 18.2207 32.3971C17.1411 34.0235 16.1898 35.7429 15.3812 37.5417C14.435 35.1727 12.6453 33.2724 10.5614 31.8464C9.66481 31.2329 8.73154 30.7023 7.73683 30.2691C7.43446 30.1374 7.13737 30.0268 6.79969 30.0505C6.07099 30.1016 5.57714 30.6448 5.37577 31.3134C5.05135 32.3906 4.96519 33.5617 4.91663 34.6775C4.82916 36.6873 4.99224 39.3981 6.03842 41.7735C7.0946 44.1716 8.81007 45.7762 10.2201 46.7692C11.1677 47.4365 11.9989 47.8447 12.4698 48.0518C12.2711 49.7148 12.1838 51.4268 12.2161 53.1396C10.1787 51.308 7.6307 50.5343 5.69585 50.201C4.54609 50.003 3.33581 49.8772 2.1658 49.9505C1.42889 49.9966 1.06183 50.5151 0.951991 50.7071C0.629531 51.2707 0.761665 51.9476 0.880534 52.5501C1.49165 55.6474 2.91189 58.8083 5.21784 60.9969C7.17686 62.8562 9.57988 63.6015 11.4049 63.8978C12.5705 64.087 13.5454 64.1018 14.1241 64.0865C14.6759 65.7107 15.3401 67.2833 16.1075 68.7952C13.7274 68.0281 11.2224 68.1153 8.82514 68.7634C7.85936 69.0245 7.04857 69.336 6.47628 69.5835C5.73659 69.9033 4.89373 70.2115 4.7354 71.1085C4.64339 71.6297 4.839 72.1332 5.06707 72.5919C6.35668 75.1861 8.87077 77.2474 11.6185 78.0921C15.0829 79.157 19.0958 78.73 22.5577 77.7799C23.5687 78.8124 24.6411 79.7853 25.7689 80.6928C23.2945 81.0748 21.1858 82.393 19.735 83.5484C18.9568 84.1681 18.3323 84.7695 17.9006 85.2178C17.2847 85.8571 16.5736 86.5413 16.9486 87.5132C17.1224 87.9637 17.4968 88.294 17.8686 88.5829C20.1658 90.3679 23.2904 91.2376 26.1675 90.9182C29.6542 90.5312 32.9966 88.599 35.6477 86.3642C37.5721 87.0983 39.5749 87.6753 41.6405 88.0795C42.4535 88.2386 43.2416 87.7085 43.4007 86.8955C43.5598 86.0825 43.0297 85.2945 42.2167 85.1354C26.8002 82.1185 15.2095 68.6239 15.2095 52.4452C15.2095 39.9085 22.035 29.1204 32.2058 23.4048C33.0674 22.9206 33.9712 22.5036 34.8316 22.0106C36.9146 20.8171 38.7091 19.1166 40.0312 17.1136C41.5596 14.7724 41.6097 12.0251 41.3635 10.0358C41.2377 9.01855 41.0269 8.13752 40.8479 7.50997C40.6322 6.75414 40.4002 5.83114 39.5564 5.56808C38.8242 5.33982 38.1727 5.76613 37.5663 6.13086C37.0165 6.46154 36.2545 6.95848 35.4173 7.59675ZM38.1992 9.28834C38.6277 11.3236 38.6977 13.6626 37.5231 15.4677C35.8951 17.9042 33.8888 19.1811 32.59 19.8014C32.1991 18.027 32.3214 16.1296 33.1395 14.4881C34.2665 12.3306 36.2094 10.6426 38.1992 9.28834ZM18.9195 17.7806C20.3363 19.3815 21.5296 21.3576 21.685 23.5316C21.8436 25.7493 20.9804 27.9291 19.7656 29.7489C18.4161 28.4412 17.5088 26.7006 17.3736 24.8102C17.2014 22.4016 17.9497 19.9637 18.9195 17.7806ZM12.5643 44.7202C10.9403 43.7342 9.55534 42.3158 8.78394 40.5643C7.85825 38.4625 7.75979 36.0262 7.98888 33.7653C9.88807 34.8799 11.6237 36.3996 12.5122 38.4568C13.3792 40.4254 13.1683 42.7053 12.5643 44.7202ZM12.9021 61.057C10.8663 60.9029 8.78849 60.2497 7.28305 58.8209C5.66211 57.2825 4.67338 55.1369 4.07539 53.0089C6.26768 53.2198 8.54458 53.8728 10.2109 55.371C11.7652 56.854 12.5678 58.9699 12.9021 61.057ZM19.794 75.3155C17.4145 75.7317 14.8366 75.9428 12.5 75.2245C10.788 74.6982 9.30262 73.5449 8.26758 72.0939C10.4644 71.262 12.827 70.9253 15.1044 71.6245C17.0521 72.2232 18.6139 73.7002 19.794 75.3155ZM32.2704 85.1667C30.3612 86.4933 28.1759 87.6768 25.8365 87.9365C24.0213 88.138 22.1652 87.6726 20.5824 86.7829C22.2068 85.2466 24.2316 83.8731 26.4995 83.6214C28.5287 83.3961 30.5505 84.1377 32.2704 85.1667Z" fill="black"/>
</svg>
