<svg width="196" height="196" viewBox="0 0 196 196" fill="none" xmlns="http://www.w3.org/2000/svg">
<path opacity="0.07" fill-rule="evenodd" clip-rule="evenodd" d="M8.99128 107.264C16.122 162.791 31.7108 167.076 54.8209 172.281C72.5873 176.282 105.714 182.851 134.653 172.281C150.632 166.444 158.529 164.471 163.818 159.643C169.948 154.048 172.578 144.62 180.23 120.902C194.486 76.7155 175.337 51.2722 142.045 23.5989C108.753 -4.07444 49.1542 15.7178 34 26.4997C11.3316 42.6279 6.35358 86.7241 8.99128 107.264ZM108.666 37.5684C111.341 33.3693 116.379 31.8414 120.849 33.9258C125.323 36.0121 127.388 40.8499 125.89 45.5992L125.836 45.7597L126.147 46.1656C126.388 46.485 126.653 46.8461 126.937 47.2481L127.118 47.5047C128.625 49.6596 130.128 52.171 131.529 55.0187C137.842 67.8549 140.042 82.8224 135.694 99.3366C134.995 101.974 134.222 104.649 133.215 107.962L130.614 116.467L130.18 117.933C129.412 120.558 128.843 122.693 128.401 124.646L128.286 125.164C127.208 130.118 127.046 133.728 127.858 136.396L127.998 136.875C129.433 141.973 128.94 146.649 127.353 150.575C126.537 152.599 124.218 153.391 122.276 152.486L29.2373 109.101C27.1914 108.147 26.3434 105.68 27.5669 103.734C29.8517 100.1 33.3637 96.804 38.3277 94.6489L38.6072 94.5225C40.7531 93.5122 42.9832 91.5608 45.4622 88.5745C48.4516 84.9735 59.873 67.5099 60.6215 66.3475L61.1719 65.5493L61.6832 64.8207C66.0368 58.6633 71.0442 53.5968 76.5779 49.5327C83.6572 44.3336 91.2402 41.0047 98.8501 39.1756C101.564 38.5233 104.107 38.1071 106.424 37.8808C107.267 37.7985 108.031 37.7464 108.71 37.719L108.568 37.7247L108.666 37.5684Z" fill="black"/>
<g opacity="0.2">
<path d="M58.9262 24.5963C60.806 23.7269 63.0346 24.5461 63.9039 26.4259L70.1581 39.9499C71.0274 41.8297 70.2082 44.0583 68.3284 44.9276C66.4487 45.7969 64.2201 44.9778 63.3508 43.098L57.0966 29.574C56.2273 27.6942 57.0464 25.4656 58.9262 24.5963Z" fill="black"/>
<path d="M130.196 155.246C129.629 158.232 126.361 159.282 123.606 157.997L37.2626 117.734C34.3486 116.375 33.1158 112.947 35.306 110.593C36.9995 108.773 39.4412 106.779 42.8289 105.308C48.7395 102.742 53.9218 94.7292 59.9531 85.4032C62.1684 81.9777 64.4984 78.375 67.0209 74.8002C85.976 47.9916 113.48 48.523 113.48 48.523C115.474 44.2479 119.929 42.8007 123.708 44.5632C127.495 46.3289 129.243 50.6687 127.25 54.9438C127.25 54.9438 145.825 75.8997 137.466 107.649C136.345 111.879 135.082 115.974 133.883 119.865C130.596 130.532 127.783 139.663 129.649 145.802C130.776 149.512 130.667 152.768 130.196 155.246Z" fill="black"/>
<path d="M41.3645 41.1242C39.7763 39.795 37.4112 40.005 36.082 41.5932C34.7528 43.1815 34.9628 45.5465 36.551 46.8757L49.4621 57.6813C51.0504 59.0105 53.4155 58.8005 54.7447 57.2123C56.0739 55.6241 55.8639 53.259 54.2757 51.9298L41.3645 41.1242Z" fill="black"/>
<path d="M46.9413 71.7998C46.8937 73.8703 45.1766 75.5102 43.1061 75.4626L27.9138 75.1136C25.8433 75.066 24.2034 73.349 24.2509 71.2784C24.2985 69.2079 26.0156 67.568 28.0861 67.6156L43.2784 67.9646C45.3489 68.0122 46.9888 69.7292 46.9413 71.7998Z" fill="black"/>
<path d="M149.523 137.504C151.058 138.894 153.429 138.778 154.82 137.243C156.211 135.708 156.094 133.337 154.559 131.946L143.518 121.941C141.983 120.55 139.612 120.667 138.221 122.201C136.83 123.736 136.947 126.108 138.482 127.498L149.523 137.504Z" fill="black"/>
<path d="M165.511 114.322C164.934 116.311 162.854 117.456 160.865 116.879L144.7 112.193C142.711 111.617 141.566 109.537 142.143 107.547C142.719 105.558 144.799 104.413 146.788 104.99L162.953 109.676C164.942 110.252 166.087 112.332 165.511 114.322Z" fill="black"/>
<path d="M150.043 87.3448C148.086 88.0234 147.05 90.1597 147.729 92.1165C148.407 94.0732 150.543 95.1094 152.5 94.4308L166.595 89.5429C168.551 88.8643 169.588 86.7279 168.909 84.7712C168.23 82.8144 166.094 81.7783 164.137 82.4569L150.043 87.3448Z" fill="black"/>
</g>
<path fill-rule="evenodd" clip-rule="evenodd" d="M155.875 27.2333L147.39 18.748L138.904 27.2333L147.39 35.7186L155.875 27.2333ZM147.39 30.0618L144.561 27.2333L147.39 24.4049L150.218 27.2333L147.39 30.0618Z" fill="black"/>
<path d="M28 149C28 147.895 27.1046 147 26 147C24.8954 147 24 147.895 24 149V153H20C18.8954 153 18 153.895 18 155C18 156.105 18.8954 157 20 157H24V161C24 162.105 24.8954 163 26 163C27.1046 163 28 162.105 28 161V157H32C33.1046 157 34 156.105 34 155C34 153.895 33.1046 153 32 153H28V149Z" fill="black"/>
<path d="M155.476 165.789L159.719 170.031L155.476 174.274L151.233 170.031L155.476 165.789Z" fill="black"/>
<path d="M84.9 143.909C85.402 142.925 85.0114 141.72 84.0275 141.218C83.0435 140.716 81.839 141.107 81.337 142.091C80.4815 143.768 80 145.665 80 147.668C80 154.489 85.5583 160 92.3908 160C97.558 160 101.989 156.851 103.847 152.373C104.271 151.353 103.787 150.183 102.767 149.759C101.746 149.336 100.576 149.82 100.153 150.84C98.8965 153.867 95.8959 156 92.3908 156C87.746 156 84 152.259 84 147.668C84 146.312 84.3248 145.036 84.9 143.909Z" fill="black"/>
<path d="M104.409 50.4034C104.739 51.4576 104.151 52.5794 103.097 52.909C101.511 53.4045 99.9592 53.9317 98.4143 54.5445C97.3876 54.9517 96.2251 54.4495 95.8178 53.4228C95.4106 52.396 95.9128 51.2335 96.9395 50.8263C98.6059 50.1653 100.258 49.6054 101.903 49.0911C102.958 48.7616 104.079 49.3491 104.409 50.4034Z" fill="black"/>
<path d="M91.923 55.279C92.5283 56.2029 92.27 57.4426 91.3461 58.048C87.8193 60.3587 85.3756 62.2732 82.1196 65.3326C75.5808 71.4764 72.1125 78.1109 70.2774 81.6672C69.7709 82.6488 68.5645 83.0339 67.5829 82.5274C66.6013 82.0209 66.2162 80.8145 66.7227 79.8329C68.5967 76.2012 72.3193 69.0522 79.3805 62.4175C82.8044 59.2004 85.4308 57.1414 89.154 54.7021C90.0779 54.0968 91.3176 54.3551 91.923 55.279Z" fill="black"/>
<path fill-rule="evenodd" clip-rule="evenodd" d="M108.568 37.7249L108.666 37.5687C111.341 33.3695 116.379 31.8417 120.849 33.926C125.323 36.0123 127.388 40.8501 125.89 45.5994L125.836 45.7599L126.147 46.1658C126.388 46.4853 126.653 46.8463 126.937 47.2484L127.118 47.505C128.625 49.6599 130.128 52.1713 131.529 55.0189C137.842 67.8552 140.042 82.8226 135.694 99.3369C134.995 101.974 134.222 104.649 133.215 107.963L130.614 116.467L130.18 117.933C129.412 120.558 128.843 122.693 128.401 124.647L128.286 125.164C127.208 130.119 127.046 133.728 127.858 136.396L127.998 136.876C129.433 141.974 128.94 146.65 127.353 150.576C126.537 152.599 124.218 153.392 122.276 152.487L29.2373 109.102C27.1913 108.148 26.3434 105.68 27.5669 103.734C29.8517 100.1 33.3637 96.8042 38.3277 94.6492L38.6072 94.5227C40.7531 93.5124 42.9832 91.5611 45.4622 88.5748C48.4516 84.9738 59.8729 67.5101 60.6215 66.3478L61.1719 65.5496L61.6832 64.821C66.0368 58.6635 71.0442 53.5971 76.5779 49.533C83.6572 44.3338 91.2402 41.005 98.8501 39.1758C101.564 38.5235 104.107 38.1073 106.424 37.8811C107.267 37.7987 108.031 37.7467 108.71 37.7193L108.568 37.7249ZM64.9503 67.1287C64.6192 67.598 64.2855 68.0761 63.9482 68.5644L63.9258 68.6013C63.2844 69.6101 51.6952 87.3288 48.5399 91.1297L48.1866 91.5508C45.3671 94.8734 42.7127 97.1061 39.9207 98.3183L39.4796 98.5154C35.8429 100.187 33.1876 102.587 31.3727 105.226L31.1379 105.574L123.765 148.767L123.904 148.394C124.966 145.39 125.235 141.862 124.16 138.006L123.929 137.211C122.961 133.702 123.222 129.416 124.5 123.764C124.962 121.721 125.55 119.514 126.337 116.82L126.688 115.635L129.583 106.154C130.483 103.177 131.188 100.724 131.827 98.3153C135.91 82.8058 133.853 68.8069 127.939 56.7844C126.632 54.1272 125.234 51.7905 123.84 49.7975C123.356 49.1058 122.91 48.5083 122.512 48.0079C122.412 47.8832 122.327 47.7774 122.255 47.6907L122.048 47.4459C121.52 46.8495 121.396 45.9962 121.732 45.274C123.207 42.111 122.054 38.9014 119.159 37.5513C116.267 36.203 113.062 37.3833 111.588 40.5437C111.254 41.2608 110.528 41.7133 109.737 41.6981L109.425 41.6987C108.821 41.7066 107.938 41.7522 106.812 41.8621C104.675 42.071 102.313 42.4574 99.7849 43.065C92.6676 44.7758 85.5711 47.8911 78.9456 52.757C73.7552 56.5689 69.0521 61.3275 64.9503 67.1287Z" fill="black"/>
</svg>
