<svg width="48" height="48" viewBox="0 0 48 48" fill="none" xmlns="http://www.w3.org/2000/svg">
<g opacity="0.2">
<path d="M11.5773 2.04539C11.2567 1.35698 10.4388 1.05877 9.75038 1.37933C9.06197 1.69989 8.76376 2.51783 9.08432 3.20624L10.9906 7.29999C11.3111 7.98841 12.1291 8.28661 12.8175 7.96605C13.5059 7.64549 13.8041 6.82756 13.4835 6.13914L11.5773 2.04539Z" fill="black"/>
<path d="M2.87787 6.03016C3.36175 5.44489 4.22847 5.36271 4.81373 5.84659L8.78248 9.12784C9.36774 9.61172 9.44993 10.4784 8.96605 11.0637C8.48217 11.649 7.61546 11.7311 7.0302 11.2473L3.06145 7.96602C2.47618 7.48214 2.39399 6.61542 2.87787 6.03016Z" fill="black"/>
<path d="M37.7891 29.6028C38.9233 25.2952 38.7371 21.2391 37.5581 17.5224C36.8863 15.4046 35.8928 13.3443 34.5468 11.5682C35.0284 9.86314 34.2644 8.13635 32.6536 7.38525C31.0426 6.63402 29.2252 7.16063 28.2292 8.62862C26.0185 8.75815 23.8216 9.344 21.7899 10.2073C18.2425 11.7147 15.0549 14.1852 12.4949 17.8059C11.6618 18.9865 10.8766 20.1994 10.0915 21.4122L10.0907 21.4135C9.96359 21.6098 9.83652 21.8061 9.70925 22.0023C7.37067 25.6064 6.15623 27.0762 4.839 27.6481C3.75654 28.118 2.53411 28.7468 2.01134 29.8678C1.31112 31.3695 1.96078 33.1544 3.4624 33.8546L31.2876 46.8297C33.2422 47.7412 35.6115 46.2346 35.5544 44.033C35.5358 43.3158 35.4068 42.5679 35.1703 41.7896C34.7563 40.4272 35.1002 38.5527 36.3589 34.4453C36.852 32.8361 37.3578 31.23 37.7891 29.6028Z" fill="black"/>
<path d="M0.0327369 15.3618C0.0577033 14.6028 0.693218 14.0078 1.4522 14.0327L6.2022 14.189C6.96118 14.214 7.55622 14.8495 7.53125 15.6084C7.50628 16.3674 6.87077 16.9625 6.11179 16.9375L1.36179 16.7812C0.602807 16.7563 0.00777039 16.1208 0.0327369 15.3618Z" fill="black"/>
<path d="M46.0254 30.9924C46.7575 31.1941 47.5145 30.7641 47.7162 30.032C47.9178 29.2998 47.4878 28.5429 46.7557 28.3412L41.7911 26.9735C41.059 26.7718 40.302 27.2018 40.1003 27.9339C39.8987 28.6661 40.3287 29.4231 41.0608 29.6247L46.0254 30.9924Z" fill="black"/>
<path d="M43.2851 37.5182C42.7884 38.0926 41.9201 38.1556 41.3457 37.6589L37.9298 34.7052C37.3554 34.2085 37.2924 33.3401 37.7891 32.7657C38.2858 32.1913 39.1541 32.1283 39.7285 32.625L43.1444 35.5787C43.7188 36.0754 43.7818 36.9437 43.2851 37.5182Z" fill="black"/>
<path d="M46.5014 22.1547C47.204 21.8666 47.54 21.0635 47.2519 20.3609C46.9637 19.6583 46.1606 19.3222 45.458 19.6104L41.0608 21.4135C40.3582 21.7016 40.0221 22.5048 40.3103 23.2074C40.5984 23.91 41.4015 24.246 42.1041 23.9579L46.5014 22.1547Z" fill="black"/>
</g>
<path d="M15.0806 22.2945C14.8293 22.7863 14.2269 22.9813 13.7351 22.73C13.2433 22.4787 13.0484 21.8763 13.2997 21.3845C16.9156 14.3078 21.3243 10.5808 26.6444 10.1201C27.1946 10.0725 27.6793 10.4799 27.727 11.0301C27.7746 11.5803 27.3672 12.065 26.817 12.1127C22.2803 12.5055 18.4112 15.7763 15.0806 22.2945Z" fill="black"/>
<path fill-rule="evenodd" clip-rule="evenodd" d="M37.414 25.8528C38.5482 21.5452 38.3621 17.4891 37.1831 13.7724C36.5112 11.6546 35.5178 9.59425 34.1717 7.81816C34.6533 6.11312 33.8893 4.38634 32.2786 3.63523C30.6676 2.88401 28.8501 3.41062 27.8541 4.8786C25.6435 5.00813 23.4465 5.59399 21.4149 6.45726C17.8674 7.96467 14.6799 10.4352 12.1198 14.0559C11.2868 15.2364 10.5017 16.4492 9.71669 17.6619L9.71495 17.6645C9.5881 17.8605 9.46125 18.0564 9.33421 18.2522C6.99563 21.8564 5.78118 23.3262 4.46395 23.8981C3.75276 24.2068 3.11969 24.5662 2.56599 24.9776C2.16626 25.2746 1.84675 25.6665 1.63628 26.1178C0.936069 27.6194 1.58573 29.4044 3.08735 30.1046L30.9125 43.0797C31.3333 43.2759 31.794 43.3718 32.2581 43.3598C33.9144 43.3168 35.2223 41.9393 35.1794 40.283C35.1608 39.5658 35.0318 38.8178 34.7953 38.0396C34.3812 36.6772 34.7252 34.8027 35.9839 30.6953C36.0541 30.4663 36.1245 30.2374 36.1949 30.0085L36.1958 30.0057L36.1967 30.0028C36.6206 28.6248 37.0446 27.2467 37.414 25.8528ZM33.18 40.3349C33.1944 40.887 32.7584 41.3461 32.2063 41.3604C32.0516 41.3645 31.898 41.3325 31.7578 41.2671L3.93259 28.292C3.43205 28.0586 3.2155 27.4636 3.4489 26.9631C3.51905 26.8126 3.62556 26.682 3.7588 26.583C4.18501 26.2663 4.68513 25.9824 5.26041 25.7327C7.09529 24.9361 8.42835 23.3227 11.012 19.3409C11.1428 19.1393 11.2733 18.9376 11.4038 18.7359C12.1713 17.5501 12.9389 16.3641 13.7534 15.2098C16.0903 11.9046 18.98 9.66496 22.1971 8.29798C24.1074 7.48623 26.3173 6.82228 28.4229 6.86296C28.8185 6.8706 29.1814 6.64432 29.3486 6.28576C29.763 5.3969 30.6353 5.0757 31.4333 5.44785C32.2327 5.82062 32.5465 6.69368 32.1315 7.58348C31.9631 7.94461 32.0252 8.37125 32.2895 8.66943C33.6984 10.2589 34.6434 12.3807 35.2767 14.3771C36.3452 17.7454 36.5137 21.4174 35.4804 25.342C35.1192 26.7048 34.7045 28.0522 34.2898 29.3995L34.2889 29.4024C34.2164 29.638 34.1439 29.8736 34.0717 30.1093C32.6792 34.6531 32.3015 36.7119 32.8817 38.6212C33.0678 39.2336 33.1663 39.8046 33.18 40.3349Z" fill="black"/>
<path d="M18.4058 39.6112C18.6556 39.1187 19.2575 38.9219 19.75 39.1718C20.2425 39.4217 20.4392 40.0235 20.1894 40.516C20.0178 40.8543 19.9272 41.2288 19.9272 41.6183C19.9272 42.9664 21.02 44.0592 22.3681 44.0592C23.3659 44.0592 24.2517 43.4552 24.6258 42.5485C24.8365 42.038 25.4212 41.7949 25.9317 42.0056C26.4422 42.2163 26.6853 42.8009 26.4746 43.3115C25.7941 44.9605 24.1828 46.0592 22.3681 46.0592C19.9155 46.0592 17.9272 44.0709 17.9272 41.6183C17.9272 40.9125 18.0927 40.2283 18.4058 39.6112Z" fill="black"/>
</svg>
