<svg width="48" height="48" viewBox="0 0 48 48" fill="none" xmlns="http://www.w3.org/2000/svg">
<g opacity="0.2">
<path d="M11.8114 0.794903C11.4909 0.106487 10.6729 -0.191719 9.98451 0.128841C9.2961 0.449401 8.99789 1.26734 9.31845 1.95575L11.2247 6.0495C11.5453 6.73792 12.3632 7.03613 13.0516 6.71557C13.74 6.39501 14.0382 5.57707 13.7177 4.88865L11.8114 0.794903Z" fill="black"/>
<path d="M3.112 4.77967C3.59588 4.19441 4.4626 4.11222 5.04786 4.5961L9.01661 7.87735C9.60187 8.36123 9.68406 9.22794 9.20018 9.81321C8.7163 10.3985 7.84959 10.4807 7.26433 9.99678L3.29558 6.71553C2.71031 6.23165 2.62812 5.36494 3.112 4.77967Z" fill="black"/>
<path d="M38.0232 28.3523C39.1574 24.0447 38.9712 19.9886 37.7922 16.2719C37.1204 14.1541 36.127 12.0938 34.7809 10.3177C35.2625 8.61265 34.4985 6.88586 32.8877 6.13476C31.2767 5.38353 29.4593 5.91015 28.4633 7.37813C26.2527 7.50766 24.0557 8.09351 22.0241 8.95679C18.4766 10.4642 15.2891 12.9347 12.729 16.5554C11.8959 17.7361 11.1107 18.9489 10.3257 20.1617L10.3248 20.163C10.1977 20.3593 10.0707 20.5556 9.94338 20.7518C7.6048 24.356 6.39037 25.8258 5.07313 26.3976C3.99067 26.8676 2.76824 27.4963 2.24547 28.6174C1.54525 30.119 2.19492 31.9039 3.69653 32.6041L31.5217 45.5792C33.4764 46.4907 35.8456 44.9841 35.7885 42.7826C35.7699 42.0653 35.641 41.3174 35.4045 40.5392C34.9904 39.1768 35.3343 37.3022 36.5931 33.1948C37.0862 31.5856 37.5919 29.9795 38.0232 28.3523Z" fill="black"/>
<path d="M0.266868 14.1113C0.291834 13.3523 0.927349 12.7573 1.68633 12.7822L6.43633 12.9385C7.19531 12.9635 7.79035 13.599 7.76538 14.358C7.74041 15.1169 7.1049 15.712 6.34592 15.687L1.59592 15.5308C0.836938 15.5058 0.241901 14.8703 0.266868 14.1113Z" fill="black"/>
<path d="M46.2595 29.7419C46.9916 29.9436 47.7486 29.5136 47.9503 28.7815C48.152 28.0494 47.722 27.2924 46.9899 27.0907L42.0253 25.723C41.2932 25.5213 40.5362 25.9513 40.3345 26.6835C40.1328 27.4156 40.5628 28.1726 41.2949 28.3743L46.2595 29.7419Z" fill="black"/>
<path d="M43.5192 36.2677C43.0225 36.8421 42.1542 36.9051 41.5798 36.4084L38.1639 33.4547C37.5895 32.958 37.5265 32.0897 38.0232 31.5152C38.5199 30.9408 39.3882 30.8778 39.9627 31.3745L43.3785 34.3282C43.9529 34.8249 44.0159 35.6932 43.5192 36.2677Z" fill="black"/>
<path d="M46.7355 20.9043C47.4381 20.6161 47.7741 19.813 47.486 19.1104C47.1979 18.4078 46.3947 18.0718 45.6921 18.3599L41.2949 20.163C40.5923 20.4512 40.2563 21.2543 40.5444 21.9569C40.8325 22.6595 41.6357 22.9955 42.3383 22.7074L46.7355 20.9043Z" fill="black"/>
</g>
<path d="M13.7261 22.2945C13.4749 22.7863 12.8725 22.9813 12.3807 22.73C11.8889 22.4787 11.6939 21.8763 11.9452 21.3845C15.5612 14.3078 19.9698 10.5808 25.2899 10.1201C25.8401 10.0725 26.3248 10.4799 26.3725 11.0301C26.4201 11.5803 26.0127 12.065 25.4625 12.1127C20.9258 12.5055 17.0567 15.7763 13.7261 22.2945Z" fill="black"/>
<path fill-rule="evenodd" clip-rule="evenodd" d="M36.0595 25.8528C37.1937 21.5452 37.0076 17.4891 35.8286 13.7724C35.1567 11.6546 34.1633 9.59425 32.8172 7.81816C33.2988 6.11312 32.5348 4.38634 30.9241 3.63523C29.3131 2.88401 27.4956 3.41062 26.4997 4.8786C24.289 5.00813 22.092 5.59399 20.0604 6.45726C16.5129 7.96467 13.3254 10.4352 10.7653 14.0559C9.9323 15.2364 9.14721 16.4492 8.36219 17.6619L8.36046 17.6645C8.23361 17.8605 8.10676 18.0564 7.97971 18.2522C5.64113 21.8564 4.42669 23.3262 3.10946 23.8981C2.39827 24.2068 1.76519 24.5662 1.2115 24.9776C0.811766 25.2746 0.492255 25.6665 0.281792 26.1178C-0.418423 27.6194 0.231241 29.4044 1.73286 30.1046L29.558 43.0797C29.9789 43.2759 30.4395 43.3718 30.9036 43.3598C32.5599 43.3168 33.8678 41.9393 33.8249 40.283C33.8063 39.5658 33.6773 38.8178 33.4408 38.0396C33.0267 36.6772 33.3707 34.8027 34.6294 30.6953C34.6996 30.4663 34.77 30.2374 34.8404 30.0085L34.8413 30.0057L34.8422 30.0028C35.2661 28.6248 35.6901 27.2467 36.0595 25.8528ZM31.8256 40.3349C31.8399 40.887 31.4039 41.3461 30.8518 41.3604C30.6971 41.3645 30.5435 41.3325 30.4033 41.2671L2.57809 28.292C2.07756 28.0586 1.861 27.4636 2.09441 26.9631C2.16456 26.8126 2.27106 26.682 2.40431 26.583C2.83052 26.2663 3.33064 25.9824 3.90592 25.7327C5.74079 24.9361 7.07386 23.3227 9.65748 19.3409C9.78826 19.1393 9.91881 18.9376 10.0494 18.7359C10.8168 17.5501 11.5844 16.3641 12.3989 15.2098C14.7358 11.9046 17.6255 9.66496 20.8426 8.29798C22.7529 7.48623 24.9628 6.82228 27.0684 6.86296C27.464 6.8706 27.8269 6.64432 27.9941 6.28576C28.4085 5.3969 29.2808 5.0757 30.0788 5.44785C30.8783 5.82062 31.192 6.69368 30.777 7.58348C30.6086 7.94461 30.6707 8.37125 30.935 8.66943C32.344 10.2589 33.2889 12.3807 33.9222 14.3771C34.9907 17.7454 35.1592 21.4174 34.1259 25.342C33.7647 26.7048 33.35 28.0522 32.9353 29.3995L32.9344 29.4024C32.8619 29.638 32.7894 29.8736 32.7172 30.1093C31.3247 34.6531 30.947 36.7119 31.5272 38.6212C31.7133 39.2336 31.8118 39.8046 31.8256 40.3349Z" fill="black"/>
<path d="M17.0513 39.6112C17.3011 39.1187 17.903 38.9219 18.3955 39.1718C18.888 39.4217 19.0848 40.0235 18.8349 40.516C18.6633 40.8543 18.5727 41.2288 18.5727 41.6183C18.5727 42.9664 19.6655 44.0592 21.0136 44.0592C22.0114 44.0592 22.8972 43.4552 23.2713 42.5485C23.482 42.038 24.0667 41.7949 24.5772 42.0056C25.0877 42.2163 25.3308 42.8009 25.1201 43.3115C24.4396 44.9605 22.8283 46.0592 21.0136 46.0592C18.561 46.0592 16.5727 44.0709 16.5727 41.6183C16.5727 40.9125 16.7382 40.2283 17.0513 39.6112Z" fill="black"/>
</svg>
