<svg width="48" height="48" viewBox="0 0 48 48" fill="none" xmlns="http://www.w3.org/2000/svg">
<g opacity="0.2">
<path d="M9.33461 2.20148C8.83333 2.4333 8.61489 3.02759 8.84671 3.52887L10.9341 8.04255C11.1659 8.54383 11.7602 8.76227 12.2614 8.53045C12.7627 8.29864 12.9812 7.70435 12.7493 7.20307L10.662 2.68939C10.4302 2.18811 9.83589 1.96967 9.33461 2.20148Z" fill="black"/>
<path d="M8.93879 11.1037C9.29325 10.6802 9.23726 10.0495 8.81373 9.69502L4.5046 6.08863C4.08107 5.73417 3.45038 5.79017 3.09592 6.2137C2.74147 6.63723 2.79746 7.26791 3.22099 7.62237L7.53012 11.2288C7.95365 11.5832 8.58433 11.5272 8.93879 11.1037Z" fill="black"/>
<path d="M7.52773 14.1234C7.54041 13.5712 7.1031 13.1134 6.55096 13.1007L1.48049 12.9842C0.928355 12.9715 0.470474 13.4088 0.457789 13.9609C0.445103 14.5131 0.882416 14.971 1.43456 14.9837L6.50502 15.1002C7.05716 15.1128 7.51504 14.6755 7.52773 14.1234Z" fill="black"/>
<path d="M38.645 32.9514L42.3301 36.2907C43.3181 37.186 44.6611 35.704 43.6731 34.8086L39.988 31.4694C39 30.5741 37.657 32.0561 38.645 32.9514Z" fill="black"/>
<path d="M46.3624 28.7534L40.9674 27.1895C39.6868 26.8182 39.1299 28.7391 40.4105 29.1104L45.8056 30.6743C47.0862 31.0456 47.643 29.1247 46.3624 28.7534Z" fill="black"/>
<path d="M45.9047 21.2456L41.2007 22.877C39.9409 23.3139 40.5962 25.2035 41.856 24.7666L46.56 23.1352C47.8198 22.6984 47.1644 20.8088 45.9047 21.2456Z" fill="black"/>
<path d="M37.789 29.6029C38.9232 25.2952 38.7371 21.2392 37.5581 17.5225C36.8862 15.4047 35.8928 13.3443 34.5467 11.5682C35.0283 9.86318 34.2643 8.1364 32.6536 7.3853C31.0426 6.63407 29.2251 7.16068 28.2291 8.62866C26.0185 8.75819 23.8215 9.34405 21.7899 10.2073C18.2424 11.7147 15.0549 14.1852 12.4948 17.806C11.6618 18.9865 10.8767 20.1993 10.0917 21.4119C9.96426 21.6088 9.83683 21.8056 9.70921 22.0023C7.37063 25.6065 6.15618 27.0763 4.83895 27.6481C4.12776 27.9569 3.49469 28.3163 2.94099 28.7277C2.54126 29.0247 2.22175 29.4165 2.01128 29.8679C1.31107 31.3695 1.96073 33.1544 3.46235 33.8547L31.2875 46.8298C31.7083 47.026 32.169 47.1219 32.6331 47.1098C34.2894 47.0669 35.5973 45.6894 35.5544 44.0331C35.5358 43.3158 35.4068 42.5679 35.1703 41.7897C34.7562 40.4273 35.1002 38.5527 36.3589 34.4453C36.4296 34.2145 36.5006 33.9837 36.5717 33.7528C36.9956 32.3748 37.4196 30.9967 37.789 29.6029Z" fill="black"/>
</g>
<path d="M15.0806 22.2946C14.8293 22.7864 14.2269 22.9814 13.7351 22.7301C13.2433 22.4788 13.0484 21.8764 13.2997 21.3846C16.9156 14.3078 21.3243 10.5809 26.6444 10.1202C27.1946 10.0725 27.6793 10.48 27.727 11.0302C27.7746 11.5804 27.3672 12.0651 26.817 12.1127C22.2803 12.5056 18.4112 15.7764 15.0806 22.2946Z" fill="black"/>
<path fill-rule="evenodd" clip-rule="evenodd" d="M37.414 25.8529C38.5482 21.5452 38.3621 17.4892 37.1831 13.7725C36.5112 11.6547 35.5178 9.59431 34.1717 7.81823C34.6533 6.11318 33.8893 4.3864 32.2786 3.6353C30.6676 2.88407 28.8501 3.41068 27.8541 4.87866C25.6435 5.00819 23.4465 5.59405 21.4149 6.45732C17.8674 7.96473 14.6799 10.4352 12.1198 14.056C11.2868 15.2365 10.5017 16.4493 9.71669 17.6619L9.71495 17.6646C9.5881 17.8605 9.46125 18.0565 9.33421 18.2523C6.99563 21.8565 5.78118 23.3263 4.46395 23.8981C3.75276 24.2069 3.11969 24.5663 2.56599 24.9777C2.16626 25.2747 1.84675 25.6665 1.63628 26.1179C0.936069 27.6195 1.58573 29.4044 3.08735 30.1047L30.9125 43.0798C31.3333 43.276 31.794 43.3719 32.2581 43.3598C33.9144 43.3169 35.2223 41.9394 35.1794 40.2831C35.1608 39.5658 35.0318 38.8179 34.7953 38.0397C34.3812 36.6773 34.7252 34.8028 35.9839 30.6953C36.0541 30.4664 36.1245 30.2375 36.1949 30.0086L36.1958 30.0057L36.1967 30.0028C36.6206 28.6248 37.0446 27.2467 37.414 25.8529ZM33.18 40.3349C33.1944 40.887 32.7584 41.3462 32.2063 41.3605C32.0516 41.3645 31.898 41.3326 31.7578 41.2671L3.93259 28.292C3.43205 28.0586 3.2155 27.4637 3.4489 26.9631C3.51905 26.8127 3.62556 26.6821 3.7588 26.5831C4.18501 26.2664 4.68513 25.9825 5.26041 25.7327C7.09529 24.9361 8.42835 23.3228 11.012 19.3409C11.1428 19.1394 11.2733 18.9377 11.4038 18.7359C12.1713 17.5501 12.9389 16.3641 13.7534 15.2098C16.0903 11.9047 18.98 9.66502 22.1971 8.29804C24.1074 7.48629 26.3173 6.82234 28.4229 6.86302C28.8185 6.87066 29.1814 6.64438 29.3486 6.28582C29.763 5.39696 30.6353 5.07576 31.4333 5.44791C32.2327 5.82068 32.5465 6.69375 32.1315 7.58355C31.9631 7.94467 32.0252 8.37131 32.2895 8.66949C33.6984 10.259 34.6434 12.3807 35.2767 14.3772C36.3452 17.7455 36.5137 21.4175 35.4804 25.3421C35.1192 26.7049 34.7045 28.0523 34.2898 29.3995L34.2889 29.4025C34.2164 29.6381 34.1439 29.8737 34.0717 30.1093C32.6792 34.6531 32.3015 36.712 32.8817 38.6212C33.0678 39.2336 33.1663 39.8047 33.18 40.3349Z" fill="black"/>
<path d="M18.4058 39.6113C18.6556 39.1187 19.2575 38.922 19.75 39.1719C20.2425 39.4217 20.4392 40.0236 20.1894 40.5161C20.0178 40.8544 19.9272 41.2288 19.9272 41.6183C19.9272 42.9664 21.02 44.0593 22.3681 44.0593C23.3659 44.0593 24.2517 43.4553 24.6258 42.5486C24.8365 42.0381 25.4212 41.795 25.9317 42.0057C26.4422 42.2164 26.6853 42.801 26.4746 43.3115C25.7941 44.9606 24.1828 46.0593 22.3681 46.0593C19.9155 46.0593 17.9272 44.071 17.9272 41.6183C17.9272 40.9126 18.0927 40.2284 18.4058 39.6113Z" fill="black"/>
</svg>
