<svg width="96" height="96" viewBox="0 0 96 96" fill="none" xmlns="http://www.w3.org/2000/svg">
<path opacity="0.2" fill-rule="evenodd" clip-rule="evenodd" d="M22.9652 6.64985C24.1557 6.09928 25.5672 6.61809 26.1177 7.80862L30.1327 16.4906C30.6833 17.6811 30.1645 19.0926 28.9739 19.6431C27.7834 20.1937 26.372 19.6749 25.8214 18.4844L21.8064 9.80239C21.2559 8.61185 21.7747 7.20041 22.9652 6.64985ZM68.9143 89.5985C68.8143 92.6364 65.4998 93.7379 62.745 92.4533L10.9106 68.2825C7.99658 66.9237 6.78676 63.4368 9.29727 61.4279C10.1988 60.7066 11.296 60.0089 12.6175 59.4352C16.412 57.7878 19.7388 52.6437 23.6107 46.6567C25.0329 44.4576 26.5286 42.1449 28.148 39.85C40.3165 22.6397 57.9733 22.9809 57.9733 22.9809C59.2531 20.2364 62.1131 19.3073 64.5396 20.4388C66.9704 21.5723 68.0927 24.3583 66.8129 27.1028C66.8129 27.1028 78.7376 40.5558 73.3711 60.9379C72.6515 63.6531 71.8413 66.2822 71.0716 68.7801C68.9612 75.6283 67.1551 81.4895 68.3529 85.4311C68.8171 86.9583 68.9549 88.3658 68.9143 89.5985ZM11.9067 16.6308C10.9008 15.7889 9.40293 15.9219 8.56109 16.9278C7.71925 17.9337 7.85223 19.4315 8.85811 20.2734L17.1466 27.2102C18.1525 28.052 19.6504 27.919 20.4922 26.9132C21.3341 25.9073 21.2011 24.4094 20.1952 23.5676L11.9067 16.6308ZM15.8502 35.5478C15.8201 36.8591 14.7326 37.8977 13.4213 37.8676L3.66836 37.6435C2.35703 37.6134 1.31841 36.5259 1.34854 35.2146C1.37867 33.9032 2.46614 32.8646 3.77747 32.8948L13.5304 33.1188C14.8418 33.149 15.8804 34.2364 15.8502 35.5478ZM81.1336 79.0794C82.1056 79.9601 83.6075 79.8862 84.4883 78.9142C85.3691 77.9423 85.2951 76.4403 84.3232 75.5595L77.235 69.1365C76.263 68.2557 74.7611 68.3297 73.8803 69.3016C72.9995 70.2736 73.0735 71.7756 74.0455 72.6563L81.1336 79.0794ZM91.3442 64.2123C90.979 65.4721 89.6617 66.1973 88.4019 65.8321L78.0246 62.8239C76.7648 62.4586 76.0396 61.1413 76.4048 59.8815C76.77 58.6217 78.0874 57.8965 79.3472 58.2617L89.7244 61.2699C90.9842 61.6352 91.7094 62.9525 91.3442 64.2123ZM79.9561 47.5588C78.7168 47.9885 78.0606 49.3416 78.4903 50.5808C78.9201 51.8201 80.2731 52.4763 81.5124 52.0466L90.5606 48.9087C91.7999 48.4789 92.4561 47.1259 92.0263 45.8866C91.5965 44.6473 90.2435 43.9911 89.0042 44.4209L79.9561 47.5588Z" fill="black"/>
<path d="M50.4275 23.7895C50.6819 24.578 50.2489 25.4233 49.4605 25.6776C48.2568 26.0659 47.0897 26.4839 45.9263 26.9979C45.1685 27.3327 44.2828 26.9898 43.948 26.232C43.6132 25.4742 43.9561 24.5885 44.7139 24.2538C46.0052 23.6833 47.278 23.2294 48.5395 22.8225C49.3279 22.5681 50.1732 23.0011 50.4275 23.7895Z" fill="black"/>
<path d="M41.4733 27.757C41.9527 28.4326 41.7936 29.3689 41.118 29.8483C40.0396 30.6137 38.0139 32.3941 36.7942 33.5769C32.8548 37.3969 30.8207 41.3378 29.7166 43.5459C29.3461 44.2868 28.4451 44.5872 27.7041 44.2167C26.9632 43.8462 26.6628 42.9452 27.0333 42.2042C28.1793 39.9123 30.3951 35.6032 34.7057 31.4232C35.9664 30.2007 38.1193 28.2977 39.3819 27.4018C40.0575 26.9223 40.9938 27.0814 41.4733 27.757Z" fill="black"/>
<path fill-rule="evenodd" clip-rule="evenodd" d="M55.192 15.0386L55.2035 15.0374L55.3585 14.8046C57.1675 12.1925 60.4144 11.2687 63.3011 12.6148C66.2555 13.9924 67.5534 17.1909 66.55 20.3451L66.5455 20.3574L66.711 20.5729C66.8478 20.7534 66.9955 20.9533 67.1529 21.1725L67.3135 21.3981C68.2993 22.7952 69.2818 24.4226 70.1975 26.2673C74.3094 34.5519 75.7523 44.2092 72.9487 54.8577C72.5811 56.2448 72.1814 57.6476 71.694 59.2778L71.0752 61.3239C67.5576 72.9297 67.024 75.3031 67.8171 78.19L68.0328 78.9348C68.8452 81.892 68.6607 84.6624 67.8365 87.0999C67.2194 88.925 65.1767 89.6509 63.4583 88.8495L4.92892 61.5568C3.11979 60.7133 2.39789 58.5223 3.57221 56.8684C5.09335 54.7261 7.25394 52.851 10.1478 51.5946L10.3811 51.4875C11.7072 50.8466 13.098 49.6221 14.6479 47.7551L14.7396 47.643C16.8075 45.0803 24.0733 33.9626 24.3819 33.4797L25.0509 32.5195C27.8594 28.5474 31.0904 25.2782 34.6614 22.6556C39.2305 19.2999 44.1248 17.1514 49.0367 15.9708C50.7888 15.5496 52.4316 15.2808 53.9281 15.1346C54.4062 15.0879 54.8291 15.0571 55.192 15.0386ZM63.4711 19.9974C64.3852 18.0372 63.7438 16.1313 62.0333 15.3337L61.8519 15.2548C60.1537 14.5692 58.3254 15.2954 57.4604 17.1503L57.3918 17.2805C57.1186 17.7423 56.6159 18.0266 56.072 18.0161L55.7811 18.0182C55.4041 18.0265 54.8777 18.0561 54.2197 18.1204C52.857 18.2535 51.3506 18.5 49.7378 18.8877C45.1954 19.9795 40.6659 21.9679 36.4372 25.0735C33.1237 27.507 30.1208 30.5454 27.5013 34.2503C27.2889 34.5512 27.075 34.8578 26.8586 35.1709C27.0929 34.8318 19.0785 47.1146 16.9561 49.6713L16.6381 50.0487C14.8416 52.147 13.1404 53.566 11.3425 54.3465L10.9329 54.5321C8.78208 55.5487 7.16811 56.9859 6.01831 58.6053C5.9811 58.6577 6.01213 58.7518 6.19672 58.8379L64.7262 86.1306C64.8988 86.2111 64.9799 86.1823 64.9945 86.139C65.6672 84.1495 65.7946 81.8678 65.0454 79.4027L64.9611 79.1078C64.3488 76.8258 64.523 74.0605 65.3427 70.4354C65.6306 69.1622 65.9942 67.7916 66.4762 66.1351L66.7511 65.202C67.0048 64.3507 67.7583 61.8961 68.1866 60.5015L68.975 57.8965C69.2822 56.8594 69.5531 55.9138 69.8037 54.9987L70.0482 54.0914C72.6523 44.2009 71.3184 35.2737 67.5103 27.6011C66.6657 25.8995 65.7623 24.4033 64.8623 23.1277C64.5503 22.6856 64.2624 22.3041 64.0063 21.9849L63.852 21.7953L63.7124 21.6312C63.3124 21.1838 63.2175 20.5412 63.4711 19.9974Z" fill="black"/>
<path d="M39.3951 81.657C40.1368 82.0259 40.439 82.9263 40.07 83.668C39.7064 84.3991 39.5 85.2283 39.5 86.112C39.5 89.1156 41.8799 91.5 44.7541 91.5C46.9268 91.5 48.8133 90.1429 49.6095 88.1751C49.9203 87.4072 50.7947 87.0366 51.5627 87.3473C52.3306 87.6581 52.7012 88.5325 52.3905 89.3004C51.1622 92.3359 48.2182 94.5 44.7541 94.5C40.1678 94.5 36.5 90.7166 36.5 86.112C36.5 84.756 36.8177 83.4703 37.384 82.3319C37.753 81.5902 38.6534 81.288 39.3951 81.657Z" fill="black"/>
</svg>
