<svg width="96" height="96" viewBox="0 0 96 96" fill="none" xmlns="http://www.w3.org/2000/svg">
<path opacity="0.2" fill-rule="evenodd" clip-rule="evenodd" d="M22.9653 6.6496C24.1558 6.09904 25.5672 6.61784 26.1178 7.80838L30.1328 16.4904C30.6833 17.6809 30.1645 19.0923 28.974 19.6429C27.7835 20.1935 26.372 19.6747 25.8215 18.4841L21.8065 9.80214C21.2559 8.61161 21.7747 7.20017 22.9653 6.6496ZM68.9144 89.5983C68.8143 92.6362 65.4999 93.7376 62.7451 92.4531L10.9107 68.2823C7.99664 66.9235 6.78682 63.4365 9.29733 61.4277C10.1988 60.7063 11.2961 60.0086 12.6176 59.4349C16.412 57.7876 19.7389 52.6434 23.6108 46.6564C25.033 44.4574 26.5287 42.1447 28.1481 39.8497C40.3166 22.6395 57.9734 22.9806 57.9734 22.9806C59.2532 20.2361 62.1132 19.3071 64.5396 20.4385C66.9705 21.5721 68.0927 24.3581 66.813 27.1026C66.813 27.1026 78.7377 40.5555 73.3712 60.9376C72.6516 63.6528 71.8414 66.282 71.0716 68.7798C68.9613 75.628 67.1551 81.4892 68.353 85.4308C68.8171 86.958 68.955 88.3656 68.9144 89.5983ZM11.9067 16.6305C10.9009 15.7887 9.40299 15.9217 8.56115 16.9275C7.71931 17.9334 7.85229 19.4313 8.85817 20.2731L17.1467 27.2099C18.1526 28.0518 19.6505 27.9188 20.4923 26.9129C21.3341 25.907 21.2012 24.4092 20.1953 23.5673L11.9067 16.6305ZM15.8503 35.5475C15.8202 36.8588 14.7327 37.8975 13.4214 37.8673L3.66842 37.6433C2.35709 37.6131 1.31847 36.5257 1.3486 35.2143C1.37873 33.903 2.4662 32.8644 3.77753 32.8945L13.5305 33.1186C14.8418 33.1487 15.8804 34.2362 15.8503 35.5475ZM81.1337 79.0791C82.1056 79.9599 83.6076 79.886 84.4883 78.914C85.3691 77.942 85.2952 76.4401 84.3232 75.5593L77.2351 69.1363C76.2631 68.2555 74.7611 68.3294 73.8804 69.3014C72.9996 70.2734 73.0735 71.7753 74.0455 72.6561L81.1337 79.0791ZM91.3443 64.2121C90.9791 65.4719 89.6617 66.1971 88.4019 65.8319L78.0247 62.8236C76.7649 62.4584 76.0397 61.1411 76.4049 59.8813C76.7701 58.6215 78.0874 57.8962 79.3472 58.2614L89.7245 61.2697C90.9843 61.6349 91.7095 62.9522 91.3443 64.2121ZM79.9561 47.5585C78.7169 47.9883 78.0606 49.3413 78.4904 50.5806C78.9202 51.8199 80.2732 52.4761 81.5125 52.0463L90.5607 48.9084C91.7999 48.4787 92.4562 47.1256 92.0264 45.8864C91.5966 44.6471 90.2436 43.9909 89.0043 44.4207L79.9561 47.5585Z" fill="black"/>
<path d="M50.4275 23.7895C50.6819 24.578 50.2489 25.4233 49.4605 25.6776C48.2568 26.0659 47.0897 26.4839 45.9263 26.9979C45.1685 27.3327 44.2828 26.9898 43.948 26.232C43.6132 25.4742 43.9561 24.5885 44.7139 24.2538C46.0052 23.6833 47.278 23.2294 48.5395 22.8225C49.3279 22.5681 50.1732 23.0011 50.4275 23.7895Z" fill="black"/>
<path d="M41.4733 27.757C41.9527 28.4326 41.7936 29.3689 41.118 29.8483C40.0396 30.6137 38.0139 32.3941 36.7942 33.5769C32.8548 37.3969 30.8207 41.3378 29.7166 43.5459C29.3461 44.2868 28.4451 44.5872 27.7041 44.2167C26.9632 43.8462 26.6628 42.9452 27.0333 42.2042C28.1793 39.9123 30.3951 35.6032 34.7057 31.4232C35.9664 30.2007 38.1193 28.2977 39.3819 27.4018C40.0575 26.9223 40.9938 27.0814 41.4733 27.757Z" fill="black"/>
<path fill-rule="evenodd" clip-rule="evenodd" d="M55.192 15.0386L55.2035 15.0374L55.3585 14.8046C57.1675 12.1925 60.4144 11.2687 63.3011 12.6148C66.2555 13.9924 67.5534 17.1909 66.55 20.3451L66.5455 20.3574L66.711 20.5729C66.8478 20.7534 66.9955 20.9533 67.1529 21.1725L67.3135 21.3981C68.2993 22.7952 69.2818 24.4226 70.1975 26.2673C74.3094 34.5519 75.7523 44.2092 72.9487 54.8577C72.5811 56.2448 72.1814 57.6476 71.694 59.2778L71.0752 61.3239C67.5576 72.9297 67.024 75.3031 67.8171 78.19L68.0328 78.9348C68.8452 81.892 68.6607 84.6624 67.8365 87.0999C67.2194 88.925 65.1767 89.6509 63.4583 88.8495L4.92892 61.5568C3.11979 60.7133 2.39789 58.5223 3.57221 56.8684C5.09335 54.7261 7.25394 52.851 10.1478 51.5946L10.3811 51.4875C11.7072 50.8466 13.098 49.6221 14.6479 47.7551L14.7396 47.643C16.8075 45.0803 24.0733 33.9626 24.3819 33.4797L25.0509 32.5195C27.8594 28.5474 31.0904 25.2782 34.6614 22.6556C39.2305 19.2999 44.1248 17.1514 49.0367 15.9708C50.7888 15.5496 52.4316 15.2808 53.9281 15.1346C54.4062 15.0879 54.8291 15.0571 55.192 15.0386ZM63.4711 19.9974C64.3852 18.0372 63.7438 16.1313 62.0333 15.3337L61.8519 15.2548C60.1537 14.5692 58.3254 15.2954 57.4604 17.1503L57.3918 17.2805C57.1186 17.7423 56.6159 18.0266 56.072 18.0161L55.7811 18.0182C55.4041 18.0265 54.8777 18.0561 54.2197 18.1204C52.857 18.2535 51.3506 18.5 49.7378 18.8877C45.1954 19.9795 40.6659 21.9679 36.4372 25.0735C33.1237 27.507 30.1208 30.5454 27.5013 34.2503C27.2889 34.5512 27.075 34.8578 26.8586 35.1709C27.0929 34.8318 19.0785 47.1146 16.9561 49.6713L16.6381 50.0487C14.8416 52.147 13.1404 53.566 11.3425 54.3465L10.9329 54.5321C8.78208 55.5487 7.16811 56.9859 6.01831 58.6053C5.9811 58.6577 6.01213 58.7518 6.19672 58.8379L64.7262 86.1306C64.8988 86.2111 64.9799 86.1823 64.9945 86.139C65.6672 84.1495 65.7946 81.8678 65.0454 79.4027L64.9611 79.1078C64.3488 76.8258 64.523 74.0605 65.3427 70.4354C65.6306 69.1622 65.9942 67.7916 66.4762 66.1351L66.7511 65.202C67.0048 64.3507 67.7583 61.8961 68.1866 60.5015L68.975 57.8965C69.2822 56.8594 69.5531 55.9138 69.8037 54.9987L70.0482 54.0914C72.6523 44.2009 71.3184 35.2737 67.5103 27.6011C66.6657 25.8995 65.7623 24.4033 64.8623 23.1277C64.5503 22.6856 64.2624 22.3041 64.0063 21.9849L63.852 21.7953L63.7124 21.6312C63.3124 21.1838 63.2175 20.5412 63.4711 19.9974Z" fill="black"/>
<path d="M39.3951 81.657C40.1368 82.0259 40.439 82.9263 40.07 83.668C39.7064 84.3991 39.5 85.2283 39.5 86.112C39.5 89.1156 41.8799 91.5 44.7541 91.5C46.9268 91.5 48.8133 90.1429 49.6095 88.1751C49.9203 87.4072 50.7947 87.0366 51.5627 87.3473C52.3306 87.6581 52.7012 88.5325 52.3905 89.3004C51.1622 92.3359 48.2182 94.5 44.7541 94.5C40.1678 94.5 36.5 90.7166 36.5 86.112C36.5 84.756 36.8177 83.4703 37.384 82.3319C37.753 81.5902 38.6534 81.288 39.3951 81.657Z" fill="black"/>
</svg>
