<svg width="196" height="196" viewBox="0 0 196 196" fill="none" xmlns="http://www.w3.org/2000/svg">
<path opacity="0.07" fill-rule="evenodd" clip-rule="evenodd" d="M63.2391 25.2801C54.0706 29.4271 44.3204 38.8689 36.0828 50.9596C35.3382 52.0524 34.4586 53.2703 33.4876 54.6145C24.4811 67.0837 9.13878 83.2244 19.4152 118.5C30.7994 157.578 40.4323 170.884 64.9069 175.624C89.3814 180.363 142.2 180.839 167.915 150.5C181.958 133.931 183.305 106.186 173.673 78.9536C165.667 56.3185 145.713 28.7414 131.367 24.2903C99.7594 14.4839 73.8744 20.3982 65.4152 24.2906C64.7501 24.5966 64.0215 24.9262 63.2391 25.2801Z" fill="black"/>
<path fill-rule="evenodd" clip-rule="evenodd" d="M57.3935 18L67.3717 27.9783L57.3935 37.9565L47.4152 27.9783L57.3935 18ZM54.0674 27.9783L57.3935 31.3043L60.7196 27.9783L57.3935 24.6522L54.0674 27.9783Z" fill="black"/>
<path d="M23.0239 126.695L18.3283 131.391L23.0239 136.087L27.7196 131.391L23.0239 126.695Z" fill="black"/>
<path d="M170.415 146C170.415 144.895 169.52 144 168.415 144C167.311 144 166.415 144.895 166.415 146V150H162.415C161.311 150 160.415 150.895 160.415 152C160.415 153.105 161.311 154 162.415 154H166.415V158C166.415 159.105 167.311 160 168.415 160C169.52 160 170.415 159.105 170.415 158V154H174.415C175.52 154 176.415 153.105 176.415 152C176.415 150.895 175.52 150 174.415 150H170.415V146Z" fill="black"/>
<path d="M138.415 33C138.415 31.8954 137.52 31 136.415 31C135.311 31 134.415 31.8954 134.415 33V45H122.415C121.311 45 120.415 45.8954 120.415 47C120.415 48.1046 121.311 49 122.415 49H134.415V60C134.415 61.1046 135.311 62 136.415 62C137.52 62 138.415 61.1046 138.415 60V49H150.415C151.52 49 152.415 48.1046 152.415 47C152.415 45.8954 151.52 45 150.415 45H138.415V33Z" fill="black"/>
<path fill-rule="evenodd" clip-rule="evenodd" d="M71.4152 49C65.3486 49 60.4152 53.9427 60.4152 60.0588V154.254L97.4152 129.475L134.415 154.254V76C134.415 74.8954 135.311 74 136.415 74C137.52 74 138.415 74.8954 138.415 76V156.127C138.415 158.526 135.739 159.954 133.746 158.619L97.4152 134.289L61.0845 158.619C59.0913 159.954 56.4152 158.526 56.4152 156.127V60.0588C56.4152 51.7506 63.1224 45 71.4152 45H107.415C108.52 45 109.415 45.8954 109.415 47C109.415 48.1046 108.52 49 107.415 49H71.4152Z" fill="black"/>
<path opacity="0.2" fill-rule="evenodd" clip-rule="evenodd" d="M82.2486 57C75.1609 57 69.4152 62.794 69.4152 69.9412V163.246C69.4152 164.846 71.2025 165.798 72.531 164.905L107.915 141.118L143.299 164.905C144.628 165.798 146.415 164.846 146.415 163.246V85.7387V69.9412C146.415 62.794 140.67 57 133.582 57H117.787H82.2486Z" fill="black"/>
</svg>
