<svg width="96" height="96" viewBox="0 0 96 96" fill="none" xmlns="http://www.w3.org/2000/svg">
<path d="M68.5787 8.57895C68.5787 7.70692 67.8718 7 66.9998 7C66.1277 7 65.4208 7.70692 65.4208 8.57895V15.4343L58.5789 15.4343C57.7069 15.4343 57 16.1412 57 17.0133C57 17.8853 57.7069 18.5922 58.579 18.5922L65.4208 18.5922V25.4211C65.4208 26.2931 66.1277 27 66.9998 27C67.8718 27 68.5787 26.2931 68.5787 25.4211V18.5922L75.4211 18.5921C76.2931 18.5921 77 17.8852 77 17.0132C77 16.1412 76.2931 15.4342 75.421 15.4342L68.5787 15.4343V8.57895Z" fill="black"/>
<path fill-rule="evenodd" clip-rule="evenodd" d="M28.0625 17.8747C24.3972 17.8747 21.4167 20.8609 21.4167 24.556V81.4654L43.7708 66.4952L66.125 81.4654V34.1872C66.125 33.5198 66.666 32.9788 67.3333 32.9788C68.0007 32.9788 68.5417 33.5198 68.5417 34.1872V82.5971C68.5417 84.0465 66.9249 84.9096 65.7206 84.1031L43.7708 69.4037L21.821 84.1031C20.6168 84.9096 19 84.0465 19 82.5971V24.556C19 19.5365 23.0523 15.458 28.0625 15.458H49.8125C50.4798 15.458 51.0208 15.999 51.0208 16.6663C51.0208 17.3337 50.4798 17.8747 49.8125 17.8747H28.0625Z" fill="black"/>
<path fill-rule="evenodd" clip-rule="evenodd" d="M27.8333 18.5C24.3443 18.5 21.5 21.3486 21.5 24.8824V81.1875L43.5 66.429L65.5 81.1875V34C65.5 33.1716 66.1716 32.5 67 32.5C67.8284 32.5 68.5 33.1716 68.5 34V82.125C68.5 84.125 66.2682 85.3153 64.6073 84.2011L43.5 70.0415L22.3927 84.2011C20.7318 85.3153 18.5 84.125 18.5 82.125V24.8824C18.5 19.7095 22.6699 15.5 27.8333 15.5H50C50.8284 15.5 51.5 16.1716 51.5 17C51.5 17.8284 50.8284 18.5 50 18.5H27.8333Z" fill="black"/>
<path opacity="0.2" fill-rule="evenodd" clip-rule="evenodd" d="M34.6076 23.708C30.3255 23.708 26.8542 27.2085 26.8542 31.5266V87.898C26.8542 88.8652 27.934 89.4404 28.7366 88.9008L50.1146 74.5291L71.4925 88.9008C72.2952 89.4404 73.375 88.8652 73.375 87.898V41.071V31.5266C73.375 27.2085 69.9036 23.708 65.6215 23.708H56.0788H34.6076Z" fill="black"/>
</svg>
