<svg width="48" height="48" viewBox="0 0 48 48" fill="none" xmlns="http://www.w3.org/2000/svg">
<path opacity="0.2" d="M33 13.5C33 13.2239 33.2239 13 33.5 13H42.5C42.7761 13 43 13.2239 43 13.5V26.1169C43 26.5056 42.576 26.7456 42.2428 26.5457L38.2572 24.1543C38.0989 24.0593 37.9011 24.0593 37.7428 24.1543L33.7572 26.5457C33.424 26.7456 33 26.5056 33 26.1169V13.5Z" fill="black"/>
<path d="M28 27C27.4477 27 27 27.4477 27 28C27 28.5523 27.4477 29 28 29H40C40.5523 29 41 28.5523 41 28C41 27.4477 40.5523 27 40 27H28Z" fill="black"/>
<path d="M27 34C27 33.4477 27.4477 33 28 33H40C40.5523 33 41 33.4477 41 34C41 34.5523 40.5523 35 40 35H28C27.4477 35 27 34.5523 27 34Z" fill="black"/>
<path d="M35.2222 13.1195C35.3236 12.8703 35.6764 12.8703 35.7779 13.1195L36.4739 14.8291C36.5199 14.9421 36.6298 15.016 36.7518 15.016H38.1359C38.4204 15.016 38.5451 15.3751 38.3218 15.5515L37.0527 16.5533C36.9598 16.6267 36.9187 16.7478 36.9478 16.8625L37.3629 18.5013C37.4353 18.7868 37.0957 18.9947 36.8743 18.8005L35.6978 17.7685C35.5846 17.6692 35.4154 17.6692 35.3022 17.7685L34.1257 18.8005C33.9043 18.9947 33.5647 18.7868 33.6371 18.5013L34.0522 16.8625C34.0813 16.7478 34.0402 16.6267 33.9473 16.5533L32.6783 15.5515C32.4549 15.3751 32.5796 15.016 32.8642 15.016H34.2482C34.3702 15.016 34.4801 14.9421 34.5261 14.8291L35.2222 13.1195Z" fill="black"/>
<path d="M7 16C7 15.4477 7.44772 15 8 15H20C20.5523 15 21 15.4477 21 16C21 16.5523 20.5523 17 20 17H8C7.44772 17 7 16.5523 7 16Z" fill="black"/>
<path d="M8 21C7.44772 21 7 21.4477 7 22C7 22.5523 7.44772 23 8 23H20C20.5523 23 21 22.5523 21 22C21 21.4477 20.5523 21 20 21H8Z" fill="black"/>
<path d="M7 28C7 27.4477 7.44772 27 8 27H20C20.5523 27 21 27.4477 21 28C21 28.5523 20.5523 29 20 29H8C7.44772 29 7 28.5523 7 28Z" fill="black"/>
<path d="M8 33C7.44772 33 7 33.4477 7 34C7 34.5523 7.44772 35 8 35H20C20.5523 35 21 34.5523 21 34C21 33.4477 20.5523 33 20 33H8Z" fill="black"/>
<path fill-rule="evenodd" clip-rule="evenodd" d="M3 12.25C3 11.0074 4.00736 10 5.25 10H22.75C22.8345 10 22.9179 10.0047 23 10.0137V10H42.75C43.9926 10 45 11.0074 45 12.25V37.75C45 38.9926 43.9926 40 42.75 40H23V39.9863C22.9179 39.9953 22.8345 40 22.75 40H5.25C4.00736 40 3 38.9926 3 37.75V12.25ZM41 12V23.1024C41 24.2777 39.7098 24.9964 38.7105 24.3778L36.4848 23H34.5152L32.2895 24.3778C31.2902 24.9964 30 24.2777 30 23.1024V23H28C27.4477 23 27 22.5523 27 22C27 21.4477 27.4477 21 28 21H30V17H28C27.4477 17 27 16.5523 27 16C27 15.4477 27.4477 15 28 15H30V12H25V38H42.75C42.8881 38 43 37.8881 43 37.75V12.25C43 12.1119 42.8881 12 42.75 12H41ZM36.2895 20.5269L39 22.2048V12H32V22.2048L34.7105 20.5269C35.1942 20.2275 35.8058 20.2275 36.2895 20.5269ZM22.75 12H5.25C5.11193 12 5 12.1119 5 12.25V37.75C5 37.8881 5.11193 38 5.25 38H22.75C22.8881 38 23 37.8881 23 37.75V12.25C23 12.1119 22.8881 12 22.75 12Z" fill="black"/>
</svg>
