<svg width="196" height="196" viewBox="0 0 196 196" fill="none" xmlns="http://www.w3.org/2000/svg">
<path opacity="0.07" fill-rule="evenodd" clip-rule="evenodd" d="M160.474 148.359C179.734 129.218 185.054 80.8136 177.851 61.0716C170.648 41.3295 152.434 23.0221 136.715 20.999C136.187 20.931 135.631 20.8584 135.048 20.7824C118.266 18.593 79.2149 13.4984 54.039 32.2531C27.9883 51.6595 19.2726 74.123 14.8467 121.796C10.7558 165.86 44.1067 171.038 78.285 176.344C81.0842 176.779 83.889 177.214 86.6792 177.672C123.538 183.718 141.215 167.499 160.474 148.359ZM37 59.4434C37 56.4371 39.4371 54 42.4434 54H154.557C157.563 54 160 56.4371 160 59.4434V135.557C160 138.563 157.563 141 154.557 141C129.643 140.918 104.729 140.945 79.8143 140.973C67.3572 140.986 54.9002 141 42.4434 141C39.4371 141 37 138.563 37 135.557V59.4434Z" fill="black"/>
<path opacity="0.2" d="M125 63.3774C125 62.6167 125.617 62 126.377 62H150.623C151.383 62 152 62.6167 152 63.3774V98.5351C152 99.6127 150.818 100.273 149.901 99.7082L139.696 93.4282C139.267 93.1642 138.728 93.1555 138.291 93.4054L127.061 99.8224C126.143 100.347 125 99.6841 125 98.6265V63.3774Z" fill="black"/>
<path d="M154 23C154 21.8954 153.105 21 152 21C150.895 21 150 21.8954 150 23V27H146C144.895 27 144 27.8954 144 29C144 30.1046 144.895 31 146 31H150V35C150 36.1046 150.895 37 152 37C153.105 37 154 36.1046 154 35V31H158C159.105 31 160 30.1046 160 29C160 27.8954 159.105 27 158 27H154V23Z" fill="black"/>
<path d="M132.963 63.1374C132.794 62.7221 132.206 62.7221 132.037 63.1374L129.777 68.6885C129.7 68.8769 129.517 69 129.314 69H124.44C123.966 69 123.758 69.5986 124.13 69.8924L128.446 73.2991C128.6 73.4213 128.669 73.6231 128.62 73.8143L127.195 79.4403C127.075 79.9163 127.64 80.2628 128.01 79.939L132.17 76.2892C132.359 76.1237 132.641 76.1237 132.83 76.2892L136.99 79.939C137.36 80.2628 137.925 79.9163 137.805 79.4403L136.38 73.8143C136.331 73.6231 136.4 73.4213 136.554 73.2991L140.87 69.8924C141.242 69.5986 141.034 69 140.56 69H135.686C135.483 69 135.3 68.8769 135.223 68.6885L132.963 63.1374Z" fill="black"/>
<path d="M111 104C109.895 104 109 104.895 109 106C109 107.105 109.895 108 111 108H147C148.105 108 149 107.105 149 106C149 104.895 148.105 104 147 104H111Z" fill="black"/>
<path d="M109 123C109 121.895 109.895 121 111 121H147C148.105 121 149 121.895 149 123C149 124.105 148.105 125 147 125H111C109.895 125 109 124.105 109 123Z" fill="black"/>
<path d="M48 70C48 68.8954 48.8954 68 50 68H86C87.1046 68 88 68.8954 88 70C88 71.1046 87.1046 72 86 72H50C48.8954 72 48 71.1046 48 70Z" fill="black"/>
<path d="M50 85C48.8954 85 48 85.8954 48 87C48 88.1046 48.8954 89 50 89H86C87.1046 89 88 88.1046 88 87C88 85.8954 87.1046 85 86 85H50Z" fill="black"/>
<path d="M48 106C48 104.895 48.8954 104 50 104H86C87.1046 104 88 104.895 88 106C88 107.105 87.1046 108 86 108H50C48.8954 108 48 107.105 48 106Z" fill="black"/>
<path d="M50 121C48.8954 121 48 121.895 48 123C48 124.105 48.8954 125 50 125H86C87.1046 125 88 124.105 88 123C88 121.895 87.1046 121 86 121H50Z" fill="black"/>
<path fill-rule="evenodd" clip-rule="evenodd" d="M37 59.4434C37 56.4371 39.4371 54 42.4434 54C79.814 54 117.186 54.1235 154.557 54C157.563 54 160 56.4371 160 59.4434V135.557C160 138.563 157.563 141 154.557 141C12.8105 141 340.305 141 42.4434 141C39.4371 141 37 138.563 37 135.557V59.4434ZM144 58H121V91.5536L131.298 85.6689C132.371 85.0561 133.692 85.0776 134.744 85.7249L144 91.4209V58ZM117 58H100V137H154.557C155.354 137 156 136.354 156 135.557V59.4434C156 58.6462 155.354 58 154.557 58H148V92.5351C148 95.1773 145.103 96.7962 142.853 95.4115L132.962 89.3251L122.053 95.5589C119.801 96.8455 117 95.2198 117 92.6265V89H111C109.895 89 109 88.1046 109 87C109 85.8954 109.895 85 111 85H117V72H111C109.895 72 109 71.1046 109 70C109 68.8954 109.895 68 111 68H117V58ZM94.5566 58H42.4434C41.6462 58 41 58.6462 41 59.4434V135.557C41 136.354 41.6462 137 42.4434 137H94.5566C95.3538 137 96 136.354 96 135.557V59.4434C96 58.6462 95.3538 58 94.5566 58Z" fill="black"/>
<path fill-rule="evenodd" clip-rule="evenodd" d="M31 152L22 143L13 152L22 161L31 152ZM22 155L19 152L22 149L25 152L22 155Z" fill="black"/>
<path d="M31 169L35 165L39 169L35 173L31 169Z" fill="black"/>
</svg>
