<svg width="48" height="48" viewBox="0 0 48 48" fill="none" xmlns="http://www.w3.org/2000/svg">
<path d="M35 5C35 4.44772 34.5523 4 34 4C33.4477 4 33 4.44772 33 5V8H30C29.4477 8 29 8.44772 29 9C29 9.55228 29.4477 10 30 10H33V13C33 13.5523 33.4477 14 34 14C34.5523 14 35 13.5523 35 13V10H38C38.5523 10 39 9.55228 39 9C39 8.44772 38.5523 8 38 8H35V5Z" fill="black"/>
<path fill-rule="evenodd" clip-rule="evenodd" d="M14.8333 10C13.2805 10 12 11.2785 12 12.8824V40.1182L22.5 33.0287L33 40.1182V17.5C33 16.9477 33.4477 16.5 34 16.5C34.5523 16.5 35 16.9477 35 17.5V40.1182C35 41.7209 33.2091 42.6726 31.8808 41.7758L22.5 35.4419L13.1192 41.7758C11.7909 42.6726 10 41.7209 10 40.1182V12.8824C10 10.1979 12.152 8 14.8333 8H24.5C25.0523 8 25.5 8.44772 25.5 9C25.5 9.55228 25.0523 10 24.5 10H14.8333Z" fill="black"/>
<path opacity="0.2" fill-rule="evenodd" clip-rule="evenodd" d="M18.3446 12.8066C16.2166 12.8066 14.4915 14.5462 14.4915 16.6922V44.7063C14.4915 45.187 15.0281 45.4729 15.427 45.2047L26.0509 38.0626L36.6748 45.2047C37.0737 45.4729 37.6103 45.187 37.6103 44.7063V21.4353V16.6922C37.6103 14.5462 35.8852 12.8066 33.7572 12.8066H29.0148H18.3446Z" fill="black"/>
</svg>
