<svg width="96" height="96" viewBox="0 0 96 96" fill="none" xmlns="http://www.w3.org/2000/svg">
<path opacity="0.2" d="M68 25.9625C68 25.4309 68.4309 25 68.9625 25H86.0375C86.5691 25 87 25.4309 87 25.9625V50.2869C87 51.0379 86.1783 51.4995 85.5369 51.1089L78.0006 46.5192C77.6932 46.3319 77.3068 46.3319 76.9994 46.5192L69.4631 51.1089C68.8217 51.4995 68 51.0379 68 50.2869V25.9625Z" fill="black"/>
<path d="M73.4631 25.7001C73.294 25.2849 72.706 25.2849 72.5369 25.7001L71.3268 28.6723C71.2501 28.8606 71.0671 28.9838 70.8637 28.9838H68.4403C67.966 28.9838 67.7582 29.5823 68.1304 29.8762L70.3455 31.625C70.5003 31.7472 70.5688 31.949 70.5204 32.1402L69.7951 35.0031C69.6746 35.479 70.2405 35.8255 70.6095 35.5017L72.6703 33.694C72.8589 33.5286 73.1411 33.5286 73.3297 33.694L75.3905 35.5017C75.7596 35.8255 76.3255 35.479 76.2049 35.0031L75.4796 32.1402C75.4312 31.949 75.4997 31.7472 75.6545 31.625L77.8696 29.8762C78.2418 29.5823 78.034 28.9838 77.5598 28.9838H75.1363C74.933 28.9838 74.7499 28.8606 74.6732 28.6723L73.4631 25.7001Z" fill="black"/>
<path d="M56 55.5C56 54.6716 56.6716 54 57.5 54H82.4997C83.3282 54 83.9997 54.6716 83.9997 55.5C83.9997 56.3284 83.3282 57 82.4997 57H57.5C56.6716 57 56 56.3284 56 55.5Z" fill="black"/>
<path d="M57.5 66C56.6716 66 56 66.6716 56 67.5C56 68.3284 56.6716 69 57.5 69H82.4997C83.3282 69 83.9997 68.3284 83.9997 67.5C83.9997 66.6716 83.3282 66 82.4997 66H57.5Z" fill="black"/>
<path d="M15.5 29C14.6716 29 14 29.6716 14 30.5C14 31.3284 14.6716 32 15.5 32H40.5C41.3284 32 42 31.3284 42 30.5C42 29.6716 41.3284 29 40.5 29H15.5Z" fill="black"/>
<path d="M14 42.5C14 41.6716 14.6716 41 15.5 41H40.5C41.3284 41 42 41.6716 42 42.5C42 43.3284 41.3284 44 40.5 44H15.5C14.6716 44 14 43.3284 14 42.5Z" fill="black"/>
<path d="M15.5 54C14.6716 54 14 54.6716 14 55.5C14 56.3284 14.6716 57 15.5 57H40.4999C41.3283 57 41.9999 56.3284 41.9999 55.5C41.9999 54.6716 41.3283 54 40.4999 54H15.5Z" fill="black"/>
<path d="M14 67.5C14 66.6716 14.6716 66 15.5 66H40.4999C41.3283 66 41.9999 66.6716 41.9999 67.5C41.9999 68.3284 41.3283 69 40.4999 69H15.5C14.6716 69 14 68.3284 14 67.5Z" fill="black"/>
<path fill-rule="evenodd" clip-rule="evenodd" d="M9.90625 19C7.74889 19 6 20.7489 6 22.9063V76.0938C6 78.2511 7.74889 80 9.90625 80H46.0938C46.4057 80 46.7092 79.9634 47 79.8943V80H88.0938C90.2511 80 92 78.2511 92 76.0937V22.9062C92 20.7489 90.2511 19 88.0938 19H47V19.1057C46.7092 19.0366 46.4057 19 46.0938 19H9.90625ZM65 22H81V44.8302L74.2809 40.7381C73.4942 40.259 72.5058 40.259 71.7191 40.7381L65 44.8302V22ZM62 29H57.5C56.6716 29 56 29.6716 56 30.5C56 31.3284 56.6716 32 57.5 32H62V41H57.5C56.6716 41 56 41.6716 56 42.5C56 43.3284 56.6716 44 57.5 44H62V45.7869C62 47.7082 64.1024 48.8894 65.7434 47.89L72.1307 44H73.8693L80.2566 47.89C81.8976 48.8894 84 47.7082 84 45.7869V22H88.0938C88.5943 22 89 22.4057 89 22.9062V76.0937C89 76.5943 88.5943 77 88.0938 77H50V22H62V29ZM47 22.9062V76.0938C47 76.5943 46.5943 77 46.0938 77H9.90625C9.40574 77 9 76.5943 9 76.0938V22.9063C9 22.4057 9.40574 22 9.90625 22H46.0938C46.5943 22 47 22.4057 47 22.9062Z" fill="black"/>
</svg>
