<svg width="96" height="96" viewBox="0 0 96 96" fill="none" xmlns="http://www.w3.org/2000/svg">
<g opacity="0.2">
<path d="M66.0169 23.426C66.0169 20.3903 68.4778 17.9293 71.5135 17.9293C74.5493 17.9293 77.0102 20.3903 77.0102 23.426V80.0032C77.0102 83.0389 74.5493 85.4999 71.5135 85.4999C68.4778 85.4999 66.0169 83.0389 66.0169 80.0032L14.6496 60.7405C13.2194 60.2042 12.2719 58.8369 12.2719 57.3094V45.5779C12.2719 44.0166 13.2611 42.6268 14.7363 42.1155L66.0169 24.3421V23.426Z" fill="black"/>
<path d="M83.1174 44.702C81.8058 44.702 80.7424 45.7654 80.7424 47.077C80.7424 48.3887 81.8058 49.452 83.1174 49.452H92.3125C93.6242 49.452 94.6875 48.3887 94.6875 47.077C94.6875 45.7654 93.6242 44.702 92.3125 44.702H83.1174Z" fill="black"/>
<path d="M93.7064 28.6657C94.2707 29.8497 93.7683 31.2671 92.5842 31.8314L84.1111 35.8696C82.927 36.4339 81.5097 35.9315 80.9453 34.7474C80.381 33.5633 80.8834 32.146 82.0675 31.5817L90.5407 27.5435C91.7247 26.9792 93.1421 27.4816 93.7064 28.6657Z" fill="black"/>
<path d="M84.1058 58.0768C82.9131 57.5309 81.5038 58.0552 80.9579 59.2479C80.412 60.4405 80.9363 61.8499 82.129 62.3958L90.7615 66.347C91.9542 66.8929 93.3636 66.3686 93.9095 65.1759C94.4554 63.9832 93.9311 62.5738 92.7384 62.0279L84.1058 58.0768Z" fill="black"/>
</g>
<path d="M55.061 29.3242C55.3396 30.1044 54.933 30.9627 54.1529 31.2413L43.008 35.2212C42.2279 35.4998 41.3696 35.0932 41.091 34.3131C40.8123 33.5329 41.2189 32.6746 41.9991 32.396L53.1439 28.416C53.9241 28.1374 54.7824 28.544 55.061 29.3242Z" fill="black"/>
<path d="M59.5913 29.3046C60.3868 29.0736 60.8445 28.2414 60.6136 27.4458C60.3826 26.6502 59.5504 26.1925 58.7548 26.4235L57.788 26.7042C56.9924 26.9352 56.5347 27.7674 56.7657 28.5629C56.9967 29.3585 57.8288 29.8162 58.6244 29.5853L59.5913 29.3046Z" fill="black"/>
<path fill-rule="evenodd" clip-rule="evenodd" d="M72 11.3051C68.7171 11.3051 66 13.7087 66 17.0155V17.4019L9.58622 38.4925C8.7072 36.5967 6.55417 35.4581 4.36244 36.0307C2.38177 36.5482 1 38.3374 1 40.3846V52.6577C1 54.7226 2.40534 56.5225 4.40859 57.0233C6.26976 57.4886 8.09276 56.7266 9.12838 55.3221L14.0903 57.1154L17.699 76.0483C17.8958 77.6819 18.7679 79.0981 19.8192 80.0097C20.9564 81.1383 22.443 81.6724 24.017 81.6724C28.5148 81.6724 31.5218 77.4431 30.293 73.1622L30.2896 73.1506L30.2843 73.1331L26.7469 61.6895L66 75.8757V75.9619C66 79.2686 68.7171 81.6723 72 81.6723C75.2829 81.6723 78 79.2686 78 75.9619V17.0155C78 13.7087 75.2829 11.3051 72 11.3051ZM69 17.0155C69 15.5504 70.1829 14.3051 72 14.3051C73.8171 14.3051 75 15.5504 75 17.0155V75.9619C75 77.4269 73.8171 78.6723 72 78.6723C70.1829 78.6723 69 77.4269 69 75.9619V17.0155ZM66 72.6858L10 52.4472V41.5407L66 20.6047V72.6858ZM23.2119 60.4119L27.4133 74.0034C28.1082 76.4539 26.4208 78.6724 24.017 78.6724C23.1271 78.6724 22.4236 78.3797 21.9093 77.8572C21.8775 77.8248 21.8442 77.7939 21.8096 77.7646C21.2401 77.2824 20.7656 76.4977 20.6739 75.6586C20.6696 75.6191 20.6637 75.5798 20.6563 75.5408L17.3703 58.3007L23.2119 60.4119ZM7 52.6577C7 53.6336 6.08292 54.3496 5.1362 54.1129C4.46845 53.946 4 53.346 4 52.6577V40.3846C4 39.7022 4.46059 39.1058 5.12081 38.9333C6.07132 38.685 7 39.4022 7 40.3846V52.6577Z" fill="black"/>
</svg>
