<svg width="48" height="48" viewBox="0 0 48 48" fill="none" xmlns="http://www.w3.org/2000/svg">
<g opacity="0.2">
<path d="M31.3334 42.3508C31.9958 42.6543 32.75 42.1703 32.75 41.4417V10.25L6 22.125V29.457C6 30.2391 6.45581 30.9494 7.16674 31.2752L31.3334 42.3508Z" fill="black"/>
<path d="M41 22C40.4477 22 40 22.4477 40 23C40 23.5523 40.4477 24 41 24H46C46.5523 24 47 23.5523 47 23C47 22.4477 46.5523 22 46 22H41Z" fill="black"/>
<path d="M46.8575 13.4855C47.1417 13.9591 46.9881 14.5734 46.5145 14.8575L41.5145 17.8575C41.0409 18.1417 40.4267 17.9881 40.1425 17.5145C39.8584 17.0409 40.012 16.4267 40.4855 16.1425L45.4855 13.1425C45.9591 12.8584 46.5734 13.012 46.8575 13.4855Z" fill="black"/>
<path d="M41.5145 28.1425C41.0409 27.8584 40.4267 28.012 40.1425 28.4855C39.8584 28.9591 40.012 29.5734 40.4855 29.8575L45.4855 32.8575C45.9591 33.1417 46.5734 32.9881 46.8575 32.5145C47.1417 32.0409 46.9881 31.4267 46.5145 31.1425L41.5145 28.1425Z" fill="black"/>
</g>
<path d="M25.2854 14.6487C25.5139 15.1515 25.2916 15.7443 24.7888 15.9729L19.6326 18.3166C19.1298 18.5452 18.5369 18.3228 18.3084 17.8201C18.0798 17.3173 18.3022 16.7244 18.8049 16.4959L23.9612 14.1521C24.464 13.9236 25.0568 14.1459 25.2854 14.6487Z" fill="black"/>
<path d="M29.5653 13.8188C30.0693 13.5928 30.2947 13.0012 30.0688 12.4972C29.8428 11.9932 29.2512 11.7678 28.7472 11.9937L27.8409 12.4C27.337 12.6259 27.1116 13.2176 27.3375 13.7216C27.5634 14.2255 28.1551 14.4509 28.6591 14.225L29.5653 13.8188Z" fill="black"/>
<path fill-rule="evenodd" clip-rule="evenodd" d="M32.0001 6.35009C32.0135 4.41698 33.5882 3 35.5 3C37.42 3 39 4.42917 39 6.375V39.625C39 41.5708 37.42 43 35.5 43C33.5882 43 32.0135 41.583 32.0001 39.6499L15.454 32.2961L17.3522 38.6426C18.0776 41.1699 16.3006 43.6765 13.6369 43.6765C12.708 43.6765 11.8241 43.3612 11.1464 42.6905C10.5226 42.148 10.006 41.3067 9.89179 40.3338L8.06993 29.0143L7 28.5388V29C7 29.3361 6.83112 29.6498 6.55049 29.8348C6.26987 30.0199 5.91504 30.0516 5.60608 29.9191L1.60608 28.2049C1.2384 28.0473 1 27.6857 1 27.2857V18.7143C1 18.3143 1.2384 17.9527 1.60608 17.7951L5.60608 16.0809C5.91505 15.9484 6.26987 15.9801 6.55049 16.1652C6.83112 16.3502 7 16.6639 7 17V17.4612L32.0001 6.35009ZM34 6.375C34 5.62917 34.5867 5 35.5 5C36.4133 5 37 5.62917 37 6.375V39.625C37 40.3708 36.4133 41 35.5 41C34.5867 41 34 40.3708 34 39.625V39.0228C34.0003 39.0079 34.0003 38.9931 34 38.9783V7.02168C34.0003 7.00689 34.0003 6.99207 34 6.97722V6.375ZM32 8.53877L7 19.6499V26.3501L32 37.4612V8.53877ZM5 18.5165L3 19.3737V26.6263L5 27.4835V18.5165ZM10.2517 29.984L11.8701 40.0389C11.8727 40.0556 11.875 40.0723 11.8768 40.0891C11.9246 40.526 12.174 40.9403 12.4732 41.1937C12.4963 41.2133 12.5185 41.2339 12.5398 41.2555C12.8023 41.5222 13.1641 41.6765 13.6369 41.6765C14.906 41.6765 15.8038 40.508 15.4312 39.1993L13.0464 31.2261L10.2517 29.984Z" fill="black"/>
</svg>
