<svg width="196" height="196" viewBox="0 0 196 196" fill="none" xmlns="http://www.w3.org/2000/svg">
<path opacity="0.07" fill-rule="evenodd" clip-rule="evenodd" d="M56.6883 173.589C56.8854 173.63 57.0445 173.662 57.1629 173.688C67.1429 175.886 77.4964 175.75 91.1548 175.57C102.167 175.424 115.327 175.251 132.173 176.25C169.911 178.487 174.536 165.835 189 122C203.464 78.1651 176.779 52.4535 143 25.0001C113.637 1.13573 68.1884 19.1669 45.1755 28.297C41.7146 29.67 38.7612 30.8418 36.4462 31.6394C18.7376 37.7411 14.529 54.4191 11.1762 109.877C7.92819 163.602 50.5749 172.337 56.6883 173.589ZM133 45.5937V44.5038C133 39.4639 136.958 35.6097 142 35.6097C147.042 35.6097 151 39.4639 151 44.5038V141.02C151 146.06 147.042 149.914 142 149.914C136.958 149.914 133 146.06 133 141.02V140.4L68.1448 116.755L74.0626 136.54L74.0689 136.562C76.0012 143.294 71.2781 149.914 64.2312 149.914C61.7549 149.914 59.4365 149.074 57.6682 147.313C56.0108 145.881 54.6357 143.645 54.3353 141.075L48.8651 109.726L40.7147 106.754C39.8964 109.064 37.4363 110.541 34.8802 109.953L30.8802 109.034C28.6094 108.512 27 106.491 27 104.161V81.3625C27 79.0325 28.6094 77.0114 30.8802 76.4895L34.8802 75.5703C37.4327 74.9837 39.8897 76.4556 40.7113 78.76L133 45.5937Z" fill="black"/>
<path fill-rule="evenodd" clip-rule="evenodd" d="M124.39 10.748L132.875 19.2333L124.39 27.7186L115.904 19.2333L124.39 10.748ZM121.561 19.2333L124.39 22.0618L127.218 19.2333L124.39 16.4049L121.561 19.2333Z" fill="black"/>
<path d="M155 166C156.105 166 157 166.895 157 168V172H161C162.105 172 163 172.895 163 174C163 175.105 162.105 176 161 176H157V180C157 181.105 156.105 182 155 182C153.895 182 153 181.105 153 180V176H149C147.895 176 147 175.105 147 174C147 172.895 147.895 172 149 172H153V168C153 166.895 153.895 166 155 166Z" fill="black"/>
<path d="M99.7188 153.031L95.4761 148.789L91.2335 153.031L95.4761 157.274L99.7188 153.031Z" fill="black"/>
<path d="M15 56C16.1046 56 17 56.8954 17 58V62H21C22.1046 62 23 62.8954 23 64C23 65.1046 22.1046 66 21 66H17V70C17 71.1046 16.1046 72 15 72C13.8954 72 13 71.1046 13 70V66H9C7.89543 66 7 65.1046 7 64C7 62.8954 7.89543 62 9 62H13V58C13 56.8954 13.8954 56 15 56Z" fill="black"/>
<path d="M122.352 64.187C123.413 63.879 124.023 62.7694 123.715 61.7086C123.407 60.6479 122.297 60.0376 121.237 60.3456L119.653 60.8052C118.593 61.1131 117.982 62.2227 118.29 63.2835C118.598 64.3443 119.708 64.9545 120.769 64.6466L122.352 64.187Z" fill="black"/>
<path d="M114.632 64.8108C115.003 65.8511 114.461 66.9955 113.421 67.367L95.1727 73.8836C94.1324 74.255 92.988 73.7129 92.6166 72.6727C92.2451 71.6324 92.7872 70.488 93.8274 70.1166L112.076 63.6C113.116 63.2285 114.26 63.7706 114.632 64.8108Z" fill="black"/>
<path fill-rule="evenodd" clip-rule="evenodd" d="M133 44.5036V45.5936L40.7113 78.7598C39.8897 76.4555 37.4327 74.9836 34.8802 75.5702L30.8802 76.4894C28.6094 77.0112 27 79.0324 27 81.3624V104.161C27 106.491 28.6094 108.512 30.8802 109.034L34.8802 109.953C37.4363 110.541 39.8964 109.064 40.7147 106.754L48.8651 109.725L54.3353 141.075C54.6357 143.645 56.0108 145.881 57.6682 147.313C59.4365 149.074 61.7549 149.914 64.2312 149.914C71.2781 149.914 76.0012 143.293 74.0689 136.562L74.0626 136.54L68.1448 116.755L133 140.4V141.02C133 146.06 136.958 149.914 142 149.914C147.042 149.914 151 146.06 151 141.02V44.5036C151 39.4638 147.042 35.6096 142 35.6096C136.958 35.6096 133 39.4638 133 44.5036ZM142 39.6096C144.891 39.6096 147 41.7303 147 44.5036V141.02C147 143.793 144.891 145.914 142 145.914C139.109 145.914 137 143.793 137 141.02V139.047C137 139.032 137.001 139.017 137.001 139.002C137.001 138.986 137 138.97 137 138.954V47.0465C137.001 47.0156 137.001 46.9845 137 46.9535V44.5036C137 41.7303 139.109 39.6096 142 39.6096ZM41 82.9065L133 49.844V136.142L41 102.6V82.9065ZM35.776 79.4686C36.4024 79.3246 37 79.8005 37 80.4432V105.08C37 105.723 36.4024 106.199 35.776 106.055L31.776 105.136C31.3219 105.031 31 104.627 31 104.161V81.3624C31 80.8964 31.3219 80.4922 31.776 80.3878L35.776 79.4686ZM58.286 140.446L53.2014 111.306L63.4587 115.046L70.227 137.675C71.4534 141.97 68.4886 145.914 64.2312 145.914C62.6666 145.914 61.3927 145.396 60.4551 144.443C60.4126 144.4 60.3683 144.359 60.3221 144.32C59.3108 143.463 58.4683 142.076 58.3039 140.573C58.2993 140.531 58.2933 140.488 58.286 140.446Z" fill="black"/>
<g opacity="0.2">
<path d="M133 55C133 50.0294 137.029 46 142 46C146.971 46 151 50.0294 151 55V146C151 150.971 146.971 155 142 155C137.029 155 133 150.971 133 146L48.8933 114.46C46.5514 113.582 45 111.343 45 108.842V91.2706C45 88.7142 46.6197 86.4386 49.0351 85.6015L133 56.5V55Z" fill="black"/>
<path d="M161 93C158.929 93 157 94.9289 157 97C157 99.0711 158.929 101 161 101H178C180.071 101 182 99.0711 182 97C182 94.9289 180.071 93 178 93H161Z" fill="black"/>
<path d="M178.862 68.3391C179.779 70.196 179.018 72.4449 177.161 73.3621L162.615 80.5477C160.758 81.465 158.509 80.7033 157.592 78.8465C156.674 76.9896 157.436 74.7407 159.293 73.8235L173.839 66.6378C175.696 65.7206 177.945 66.4823 178.862 68.3391Z" fill="black"/>
<path d="M162.543 113.082C160.656 112.23 158.435 113.069 157.582 114.956C156.73 116.844 157.569 119.065 159.456 119.918L174.956 126.918C176.844 127.77 179.065 126.931 179.918 125.043C180.77 123.156 179.931 120.935 178.043 120.082L162.543 113.082Z" fill="black"/>
</g>
</svg>
