<svg width="96" height="96" viewBox="0 0 96 96" fill="none" xmlns="http://www.w3.org/2000/svg">
<g opacity="0.2">
<path d="M66.0169 23.4258C66.0169 20.3901 68.4778 17.9292 71.5135 17.9292C74.5493 17.9292 77.0102 20.3901 77.0102 23.4259V80.0031C77.0102 83.0388 74.5493 85.4998 71.5135 85.4998C68.4778 85.4998 66.0169 83.0388 66.0169 80.0031L14.6496 60.7404C13.2194 60.204 12.2719 58.8368 12.2719 57.3093V45.5777C12.2719 44.0165 13.2611 42.6266 14.7363 42.1154L66.0169 24.342V23.4258Z" fill="black"/>
<path d="M83.1174 44.7019C81.8058 44.7019 80.7424 45.7652 80.7424 47.0769C80.7424 48.3886 81.8058 49.4519 83.1174 49.4519H92.3125C93.6242 49.4519 94.6875 48.3886 94.6875 47.0769C94.6875 45.7652 93.6242 44.7019 92.3125 44.7019H83.1174Z" fill="black"/>
<path d="M93.7064 28.6655C94.2707 29.8496 93.7683 31.267 92.5842 31.8313L84.1111 35.8695C82.927 36.4338 81.5097 35.9314 80.9453 34.7473C80.381 33.5632 80.8834 32.1459 82.0675 31.5816L90.5407 27.5434C91.7247 26.979 93.1421 27.4815 93.7064 28.6655Z" fill="black"/>
<path d="M84.1058 58.0766C82.9131 57.5307 81.5038 58.0551 80.9579 59.2477C80.412 60.4404 80.9363 61.8498 82.129 62.3957L90.7615 66.3469C91.9542 66.8928 93.3636 66.3685 93.9095 65.1758C94.4554 63.9831 93.9311 62.5737 92.7384 62.0278L84.1058 58.0766Z" fill="black"/>
</g>
<path d="M55.061 29.3243C55.3396 30.1045 54.933 30.9628 54.1529 31.2414L43.008 35.2213C42.2279 35.5 41.3696 35.0934 41.091 34.3132C40.8123 33.533 41.2189 32.6747 41.9991 32.3961L53.1439 28.4162C53.9241 28.1375 54.7824 28.5441 55.061 29.3243Z" fill="black"/>
<path d="M59.5913 29.3047C60.3868 29.0737 60.8445 28.2415 60.6136 27.4459C60.3826 26.6504 59.5504 26.1927 58.7548 26.4236L57.788 26.7043C56.9924 26.9353 56.5347 27.7675 56.7657 28.5631C56.9967 29.3586 57.8288 29.8163 58.6244 29.5854L59.5913 29.3047Z" fill="black"/>
<path fill-rule="evenodd" clip-rule="evenodd" d="M72 11.3052C68.7171 11.3052 66 13.7089 66 17.0156V17.402L9.58622 38.4927C8.7072 36.5968 6.55417 35.4582 4.36244 36.0309C2.38177 36.5484 1 38.3375 1 40.3847V52.6578C1 54.7227 2.40534 56.5227 4.40859 57.0235C6.26976 57.4888 8.09276 56.7267 9.12838 55.3222L14.0903 57.1155L17.699 76.0484C17.8958 77.682 18.7679 79.0982 19.8192 80.0098C20.9564 81.1384 22.443 81.6726 24.017 81.6726C28.5148 81.6726 31.5218 77.4432 30.293 73.1623L30.2896 73.1507L30.2843 73.1332L26.7469 61.6896L66 75.8758V75.962C66 79.2687 68.7171 81.6724 72 81.6724C75.2829 81.6724 78 79.2687 78 75.962V17.0156C78 13.7089 75.2829 11.3052 72 11.3052ZM69 17.0156C69 15.5505 70.1829 14.3052 72 14.3052C73.8171 14.3052 75 15.5505 75 17.0156V75.962C75 77.4271 73.8171 78.6724 72 78.6724C70.1829 78.6724 69 77.4271 69 75.962V17.0156ZM66 72.6859L10 52.4473V41.5408L66 20.6048V72.6859ZM23.2119 60.4121L27.4133 74.0035C28.1082 76.4541 26.4208 78.6726 24.017 78.6726C23.1271 78.6726 22.4236 78.3798 21.9093 77.8573C21.8775 77.8249 21.8442 77.794 21.8096 77.7647C21.2401 77.2825 20.7656 76.4978 20.6739 75.6587C20.6696 75.6192 20.6637 75.5799 20.6563 75.5409L17.3703 58.3009L23.2119 60.4121ZM7 52.6578C7 53.6337 6.08292 54.3497 5.1362 54.113C4.46845 53.9461 4 53.3461 4 52.6578V40.3847C4 39.7023 4.46059 39.1059 5.12081 38.9334C6.07132 38.6851 7 39.4023 7 40.3847V52.6578Z" fill="black"/>
</svg>
