<svg width="48" height="48" viewBox="0 0 48 48" fill="none" xmlns="http://www.w3.org/2000/svg">
<g opacity="0.2">
<path d="M33 42.8447L7.16674 31.2752C6.45581 30.9494 6 30.2391 6 29.457V22.125L33.0294 10.1119C33.2331 8.67091 34.4715 7.5625 35.9688 7.5625C37.6083 7.5625 38.9375 8.89165 38.9375 10.5312V42.9062C38.9375 44.5458 37.6083 45.875 35.9688 45.875C34.3292 45.875 33 44.5458 33 42.9062V42.8447Z" fill="black"/>
<path d="M47.7993 12.8614C48.1907 13.5122 47.9806 14.357 47.3299 14.7485L42.0057 17.9516C41.355 18.3431 40.5101 18.1329 40.1186 17.4822C39.7271 16.8315 39.9373 15.9867 40.588 15.5952L45.9122 12.3921C46.5629 12.0006 47.4078 12.2107 47.7993 12.8614Z" fill="black"/>
<path d="M47.7993 33.1229C48.1907 32.4722 47.9806 31.6274 47.3299 31.2359L42.0057 28.0328C41.355 27.6413 40.5101 27.8514 40.1186 28.5021C39.7271 29.1529 39.9373 29.9977 40.588 30.3892L45.9122 33.5923C46.5629 33.9838 47.4078 33.7736 47.7993 33.1229Z" fill="black"/>
<path d="M39.9219 23C39.9219 23.7594 40.5375 24.375 41.2969 24.375H46.6094C47.3688 24.375 47.9844 23.7594 47.9844 23C47.9844 22.2406 47.3688 21.625 46.6094 21.625H41.2969C40.5375 21.625 39.9219 22.2406 39.9219 23Z" fill="black"/>
</g>
<path d="M25.2854 14.6487C25.5139 15.1515 25.2916 15.7443 24.7888 15.9729L19.5 18.3125C18.9972 18.541 18.4044 18.3187 18.1758 17.8159C17.9473 17.3132 18.1696 16.7203 18.6724 16.4918L23.9612 14.1521C24.464 13.9236 25.0568 14.1459 25.2854 14.6487Z" fill="black"/>
<path d="M29.5653 13.8188C30.0693 13.5928 30.2947 13.0012 30.0688 12.4972C29.8428 11.9932 29.2512 11.7678 28.7472 11.9937L27.8409 12.4C27.337 12.6259 27.1116 13.2176 27.3375 13.7216C27.5634 14.2255 28.1551 14.4509 28.6591 14.225L29.5653 13.8188Z" fill="black"/>
<path fill-rule="evenodd" clip-rule="evenodd" d="M32.0001 6.35009C32.0135 4.41698 33.5882 3 35.5 3C37.42 3 39 4.42917 39 6.375V39.625C39 41.5708 37.42 43 35.5 43C33.5882 43 32.0135 41.583 32.0001 39.6499L15.454 32.2961L17.3522 38.6426C18.0776 41.1699 16.3006 43.6765 13.6369 43.6765C12.708 43.6765 11.8241 43.3612 11.1464 42.6905C10.5226 42.148 10.006 41.3067 9.89179 40.3338L8.06993 29.0143L7 28.5388V29C7 29.3361 6.83112 29.6498 6.55049 29.8348C6.26987 30.0199 5.91504 30.0516 5.60608 29.9191L1.60608 28.2049C1.2384 28.0473 1 27.6857 1 27.2857V18.7143C1 18.3143 1.2384 17.9527 1.60608 17.7951L5.60608 16.0809C5.91505 15.9484 6.26987 15.9801 6.55049 16.1652C6.83112 16.3502 7 16.6639 7 17V17.4612L32.0001 6.35009ZM34 6.375V6.97722C34.0003 6.99207 34.0003 7.00689 34 7.02168V38.9783C34.0003 38.9931 34.0003 39.0079 34 39.0228V39.625C34 40.3708 34.5867 41 35.5 41C36.4133 41 37 40.3708 37 39.625V6.375C37 5.62917 36.4133 5 35.5 5C34.5867 5 34 5.62917 34 6.375ZM32 8.53877L7 19.6499V26.3501L32 37.4612V8.53877ZM5 18.5165L3 19.3737V26.6263L5 27.4835V18.5165ZM10.2517 29.984L11.8701 40.0389C11.8727 40.0556 11.875 40.0723 11.8768 40.0891C11.9246 40.526 12.174 40.9403 12.4732 41.1937C12.4963 41.2133 12.5185 41.2339 12.5398 41.2555C12.8023 41.5222 13.1641 41.6765 13.6369 41.6765C14.906 41.6765 15.8038 40.508 15.4312 39.1993L13.0464 31.2261L10.2517 29.984Z" fill="black"/>
</svg>
