<svg width="48" height="48" viewBox="0 0 48 48" fill="none" xmlns="http://www.w3.org/2000/svg">
<path opacity="0.2" d="M4 18.128C4 17.505 4.50504 17 5.12805 17H46.872C47.495 17 48 17.505 48 18.128V40.87C48 42.5986 46.5987 44 44.87 44H5.12805C4.50504 44 4 43.495 4 42.872V18.128Z" fill="black"/>
<path fill-rule="evenodd" clip-rule="evenodd" d="M14 19.5C14 18.6716 14.6716 18 15.5 18H20.5C21.3284 18 22 18.6716 22 19.5V24.5C22 25.3284 21.3284 26 20.5 26H15.5C14.6716 26 14 25.3284 14 24.5V19.5ZM16 24H20V20H16V24Z" fill="black"/>
<path fill-rule="evenodd" clip-rule="evenodd" d="M25.5 18C24.6716 18 24 18.6716 24 19.5V24.5C24 25.3284 24.6716 26 25.5 26H30.5C31.3284 26 32 25.3284 32 24.5V19.5C32 18.6716 31.3284 18 30.5 18H25.5ZM26 20H30V24H26V20Z" fill="black"/>
<path fill-rule="evenodd" clip-rule="evenodd" d="M34 19.5C34 18.6716 34.6716 18 35.5 18H40.5C41.3284 18 42 18.6716 42 19.5V24.5C42 25.3284 41.3284 26 40.5 26H35.5C34.6716 26 34 25.3284 34 24.5V19.5ZM36 24H40V20H36V24Z" fill="black"/>
<path fill-rule="evenodd" clip-rule="evenodd" d="M15.5 29C14.6716 29 14 29.6716 14 30.5V35.5C14 36.3284 14.6716 37 15.5 37H20.5C21.3284 37 22 36.3284 22 35.5V30.5C22 29.6716 21.3284 29 20.5 29H15.5ZM16 35V31H20V35H16Z" fill="black"/>
<path fill-rule="evenodd" clip-rule="evenodd" d="M4 30.5C4 29.6716 4.67157 29 5.5 29H10.5C11.3284 29 12 29.6716 12 30.5V35.5C12 36.3284 11.3284 37 10.5 37H5.5C4.67157 37 4 36.3284 4 35.5V30.5ZM6 31V35H10V31H6Z" fill="black"/>
<path fill-rule="evenodd" clip-rule="evenodd" d="M25.5 29C24.6716 29 24 29.6716 24 30.5V35.5C24 36.3284 24.6716 37 25.5 37H30.5C31.3284 37 32 36.3284 32 35.5V30.5C32 29.6716 31.3284 29 30.5 29H25.5ZM26 35V31H30V35H26Z" fill="black"/>
<path d="M9 22C9 22.5523 8.55229 23 8 23C7.44772 23 7 22.5523 7 22C7 21.4477 7.44772 21 8 21C8.55229 21 9 21.4477 9 22Z" fill="black"/>
<path d="M38 34C38.5523 34 39 33.5523 39 33C39 32.4477 38.5523 32 38 32C37.4477 32 37 32.4477 37 33C37 33.5523 37.4477 34 38 34Z" fill="black"/>
<path fill-rule="evenodd" clip-rule="evenodd" d="M12 6C12 5.44772 11.5523 5 11 5C10.4477 5 10 5.44772 10 6V8H2.12805C0.952761 8 0 8.95276 0 10.128V39.872C0 41.0472 0.952758 42 2.12805 42H43.872C45.0472 42 46 41.0472 46 39.872V10.128C46 8.95276 45.0472 8 43.872 8H36V6C36 5.44772 35.5523 5 35 5C34.4477 5 34 5.44772 34 6V8H24V6C24 5.44772 23.5523 5 23 5C22.4477 5 22 5.44772 22 6V8H12V6ZM34 10V11C34 11.5523 34.4477 12 35 12C35.5523 12 36 11.5523 36 11V10H43.872C43.9427 10 44 10.0573 44 10.128V13L2 13V10.128C2 10.0573 2.05733 10 2.12805 10H10V11C10 11.5523 10.4477 12 11 12C11.5523 12 12 11.5523 12 11V10H22V11C22 11.5523 22.4477 12 23 12C23.5523 12 24 11.5523 24 11V10H34ZM2 39.872L2 15L44 15V39.872C44 39.9427 43.9427 40 43.872 40H2.12805C2.05733 40 2 39.9427 2 39.872Z" fill="black"/>
</svg>
