<svg width="196" height="196" viewBox="0 0 196 196" fill="none" xmlns="http://www.w3.org/2000/svg">
<path opacity="0.07" fill-rule="evenodd" clip-rule="evenodd" d="M31.1104 57.3081C13.7237 78.217 12.2373 126.69 21.2857 145.687C30.334 164.685 50.543 181.215 66.4028 181.74C67.3232 181.771 68.3284 181.809 69.4102 181.851C86.9697 182.528 124.71 183.983 147.44 163.43C171.571 141.612 178.374 118.047 178.275 70.1008C178.183 26.1517 145.011 24.2551 110.743 22.2959C107.627 22.1177 104.501 21.939 101.391 21.7281C64.0781 19.1984 48.497 36.3991 31.1104 57.3081ZM40 57H154V76H157.009C158.661 76 160 77.3392 160 78.9911V145.009C160 146.661 158.661 148 157.009 148H48.9911C47.3392 148 46 146.661 46 145.009V142H40V57Z" fill="black"/>
<path opacity="0.2" d="M46 78.9911C46 77.3392 47.3392 76 48.9911 76H157.009C158.661 76 160 77.3392 160 78.9911V145C160 146.657 158.657 148 157 148H48.9911C47.3392 148 46 146.661 46 145.009V78.9911Z" fill="black"/>
<path d="M175 43C175 41.8954 174.105 41 173 41C171.895 41 171 41.8954 171 43V47H167C165.895 47 165 47.8954 165 49C165 50.1046 165.895 51 167 51H171V55C171 56.1046 171.895 57 173 57C174.105 57 175 56.1046 175 55V51H179C180.105 51 181 50.1046 181 49C181 47.8954 180.105 47 179 47H175V43Z" fill="black"/>
<path fill-rule="evenodd" clip-rule="evenodd" d="M24 142L33 151L24 160L15 151L24 142ZM21 151L24 154L27 151L24 148L21 151Z" fill="black"/>
<path d="M37 164L41 168L37 172L33 168L37 164Z" fill="black"/>
<path fill-rule="evenodd" clip-rule="evenodd" d="M72 83.3258C72 81.489 73.489 80 75.3258 80H88.6742C90.511 80 92 81.489 92 83.3258V96.6742C92 98.511 90.511 100 88.6742 100H75.3258C73.489 100 72 98.511 72 96.6742V83.3258ZM76 84V96H88V84H76Z" fill="black"/>
<path fill-rule="evenodd" clip-rule="evenodd" d="M103.326 80C101.489 80 100 81.489 100 83.3258V96.6742C100 98.511 101.489 100 103.326 100H116.674C118.511 100 120 98.511 120 96.6742V83.3258C120 81.489 118.511 80 116.674 80H103.326ZM104 96V84H116V96H104Z" fill="black"/>
<path fill-rule="evenodd" clip-rule="evenodd" d="M127 83.3258C127 81.489 128.489 80 130.326 80H143.674C145.511 80 147 81.489 147 83.3258V96.6742C147 98.511 145.511 100 143.674 100H130.326C128.489 100 127 98.511 127 96.6742V83.3258ZM131 84V96H143V84H131Z" fill="black"/>
<path fill-rule="evenodd" clip-rule="evenodd" d="M76.3258 110C74.489 110 73 111.489 73 113.326V126.674C73 128.511 74.489 130 76.3258 130H89.6742C91.511 130 93 128.511 93 126.674V113.326C93 111.489 91.511 110 89.6742 110H76.3258ZM77 126V114H89V126H77Z" fill="black"/>
<path fill-rule="evenodd" clip-rule="evenodd" d="M47 113.326C47 111.489 48.489 110 50.3258 110H63.6742C65.511 110 67 111.489 67 113.326V126.674C67 128.511 65.511 130 63.6742 130H50.3258C48.489 130 47 128.511 47 126.674V113.326ZM51 114V126H63V114H51Z" fill="black"/>
<path fill-rule="evenodd" clip-rule="evenodd" d="M102.326 110C100.489 110 99 111.489 99 113.326V126.674C99 128.511 100.489 130 102.326 130H115.674C117.511 130 119 128.511 119 126.674V113.326C119 111.489 117.511 110 115.674 110H102.326ZM103 126V114H115V126H103Z" fill="black"/>
<path d="M60 90.5C60 91.8807 58.8807 93 57.5 93C56.1193 93 55 91.8807 55 90.5C55 89.1193 56.1193 88 57.5 88C58.8807 88 60 89.1193 60 90.5Z" fill="black"/>
<path d="M136.5 123C137.881 123 139 121.881 139 120.5C139 119.119 137.881 118 136.5 118C135.119 118 134 119.119 134 120.5C134 121.881 135.119 123 136.5 123Z" fill="black"/>
<path fill-rule="evenodd" clip-rule="evenodd" d="M42.9911 55C40.2346 55 38 57.2346 38 59.9911V139.009C38 141.765 40.2346 144 42.9911 144H151.009C153.765 144 156 141.765 156 139.009V59.9911C156 57.2346 153.765 55 151.009 55H132V49C132 47.8954 131.105 47 130 47C128.895 47 128 47.8954 128 49V55H100V49C100 47.8954 99.1046 47 98 47C96.8954 47 96 47.8954 96 49V55H66V49C66 47.8954 65.1046 47 64 47C62.8954 47 62 47.8954 62 49V55H42.9911ZM128 59V63C128 64.1046 128.895 65 130 65C131.105 65 132 64.1046 132 63V59H151.009C151.556 59 152 59.4437 152 59.9911V68H42V59.9911C42 59.4437 42.4437 59 42.9911 59H62V63C62 64.1046 62.8954 65 64 65C65.1046 65 66 64.1046 66 63V59H96V63C96 64.1046 96.8954 65 98 65C99.1046 65 100 64.1046 100 63V59H128ZM42 139.009V72H152V139.009C152 139.556 151.556 140 151.009 140H42.9911C42.4437 140 42 139.556 42 139.009Z" fill="black"/>
</svg>
