<svg width="96" height="96" viewBox="0 0 96 96" fill="none" xmlns="http://www.w3.org/2000/svg">
<path opacity="0.2" d="M9 34.206C9 32.9876 9.98764 32 11.206 32H91.794C93.0124 32 94 32.9876 94 34.206V80C94 82.7614 91.7614 85 89 85H11.206C9.98764 85 9 84.0124 9 82.794V34.206Z" fill="black"/>
<path fill-rule="evenodd" clip-rule="evenodd" d="M30 37.4778C30 36.1093 31.1093 35 32.4778 35H42.5222C43.8907 35 45 36.1093 45 37.4778V47.5222C45 48.8907 43.8907 50 42.5222 50H32.4778C31.1093 50 30 48.8907 30 47.5222V37.4778ZM33 38V47H42V38H33Z" fill="black"/>
<path fill-rule="evenodd" clip-rule="evenodd" d="M51.4778 35C50.1093 35 49 36.1093 49 37.4778V47.5222C49 48.8907 50.1093 50 51.4778 50H61.5222C62.8907 50 64 48.8907 64 47.5222V37.4778C64 36.1093 62.8907 35 61.5222 35H51.4778ZM52 47V38H61V47H52Z" fill="black"/>
<path fill-rule="evenodd" clip-rule="evenodd" d="M68 37.4778C68 36.1093 69.1093 35 70.4778 35H80.5222C81.8907 35 83 36.1093 83 37.4778V47.5222C83 48.8907 81.8907 50 80.5222 50H70.4778C69.1093 50 68 48.8907 68 47.5222V37.4778ZM71 38V47H80V38H71Z" fill="black"/>
<path fill-rule="evenodd" clip-rule="evenodd" d="M32.4778 57C31.1093 57 30 58.1093 30 59.4778V69.5222C30 70.8907 31.1093 72 32.4778 72H42.5222C43.8907 72 45 70.8907 45 69.5222V59.4778C45 58.1093 43.8907 57 42.5222 57H32.4778ZM33 69V60H42V69H33Z" fill="black"/>
<path fill-rule="evenodd" clip-rule="evenodd" d="M11 59.4778C11 58.1093 12.1093 57 13.4778 57H23.5222C24.8907 57 26 58.1093 26 59.4778V69.5222C26 70.8907 24.8907 72 23.5222 72H13.4778C12.1093 72 11 70.8907 11 69.5222V59.4778ZM14 60V69H23V60H14Z" fill="black"/>
<path fill-rule="evenodd" clip-rule="evenodd" d="M51.4778 57C50.1093 57 49 58.1093 49 59.4778V69.5222C49 70.8907 50.1093 72 51.4778 72H61.5222C62.8907 72 64 70.8907 64 69.5222V59.4778C64 58.1093 62.8907 57 61.5222 57H51.4778ZM52 69V60H61V69H52Z" fill="black"/>
<path d="M21 41.5C21 42.8807 19.8807 44 18.5 44C17.1193 44 16 42.8807 16 41.5C16 40.1193 17.1193 39 18.5 39C19.8807 39 21 40.1193 21 41.5Z" fill="black"/>
<path d="M75.5 67C76.8807 67 78 65.8807 78 64.5C78 63.1193 76.8807 62 75.5 62C74.1193 62 73 63.1193 73 64.5C73 65.8807 74.1193 67 75.5 67Z" fill="black"/>
<path fill-rule="evenodd" clip-rule="evenodd" d="M25 11.5C25 10.6716 24.3284 10 23.5 10C22.6716 10 22 10.6716 22 11.5V16H6.70596C4.65921 16 3 17.6592 3 19.706V78.294C3 80.3408 4.65922 82 6.70596 82H87.294C89.3408 82 91 80.3408 91 78.294V19.706C91 17.6592 89.3408 16 87.294 16H72V11.5C72 10.6716 71.3284 10 70.5 10C69.6716 10 69 10.6716 69 11.5V16H48V11.5C48 10.6716 47.3284 10 46.5 10C45.6716 10 45 10.6716 45 11.5V16H25V11.5ZM69 19V21.5C69 22.3284 69.6716 23 70.5 23C71.3284 23 72 22.3284 72 21.5V19H87.294C87.6839 19 88 19.3161 88 19.706V26H6V19.706C6 19.3161 6.31607 19 6.70596 19H22V21.5C22 22.3284 22.6716 23 23.5 23C24.3284 23 25 22.3284 25 21.5V19H45V21.5C45 22.3284 45.6716 23 46.5 23C47.3284 23 48 22.3284 48 21.5V19H69ZM6 78.294V29H88V78.294C88 78.6839 87.6839 79 87.294 79H6.70596C6.31607 79 6 78.6839 6 78.294Z" fill="black"/>
</svg>
