<svg width="196" height="196" viewBox="0 0 196 196" fill="none" xmlns="http://www.w3.org/2000/svg">
<path opacity="0.07" fill-rule="evenodd" clip-rule="evenodd" d="M169.499 160.59C192.856 128.889 184.565 84.9744 174.194 57.5621C169.099 44.095 148.04 16.2359 104.587 14.2002C61.1342 12.1645 45.5208 26.3695 32.5233 48.9085C19.5258 71.4476 6.01689 116.837 28.1912 152.511C50.3655 188.185 148.975 188.446 169.499 160.59ZM74 39C74 36.7909 75.7909 35 78 35H119C121.209 35 123 36.7909 123 39V41H145C148.314 41 151 43.6863 151 47V48H154.346C156.364 48 158 49.6361 158 51.6543V160C158 163.866 154.866 167 151 167H54.6543C52.6361 167 51 165.364 51 163.346V160H50C46.6863 160 44 157.314 44 154V47C44 43.6863 46.6863 41 50 41H74V39Z" fill="black"/>
<path opacity="0.2" d="M51 50C51 48.8954 51.8954 48 53 48H154.346C156.364 48 158 49.6361 158 51.6543V160C158 163.866 154.866 167 151 167H54.6543C52.6361 167 51 165.364 51 163.346V50Z" fill="black"/>
<path fill-rule="evenodd" clip-rule="evenodd" d="M77.6543 33C74.5315 33 72 35.5315 72 38.6543V46.3457C72 49.4685 74.5315 52 77.6543 52H119.346C122.468 52 125 49.4685 125 46.3457V38.6543C125 35.5315 122.468 33 119.346 33H77.6543ZM76 38.6543C76 37.7407 76.7407 37 77.6543 37H119.346C120.259 37 121 37.7407 121 38.6543V46.3457C121 47.2593 120.259 48 119.346 48H77.6543C76.7407 48 76 47.2593 76 46.3457V38.6543Z" fill="black"/>
<path d="M47.6543 43C46.7407 43 46 43.7407 46 44.6543V156.346C46 157.259 46.7407 158 47.6543 158H147.346C148.259 158 149 157.259 149 156.346V44.6543C149 43.7407 148.259 43 147.346 43H133.167C132.062 43 131.167 42.1046 131.167 41C131.167 39.8954 132.062 39 133.167 39H147.346C150.468 39 153 41.5315 153 44.6543V156.346C153 159.468 150.468 162 147.346 162H47.6543C44.5315 162 42 159.468 42 156.346V44.6543C42 41.5315 44.5315 39 47.6543 39H63.2051C64.3097 39 65.2051 39.8954 65.2051 41C65.2051 42.1046 64.3097 43 63.2051 43H47.6543Z" fill="black"/>
<path fill-rule="evenodd" clip-rule="evenodd" d="M176.5 48L185 56.5L176.5 65L168 56.5L176.5 48ZM173.667 56.5L176.5 59.3333L179.333 56.5L176.5 53.6667L173.667 56.5Z" fill="black"/>
<path d="M18 116L14 112L10 116L14 120L18 116Z" fill="black"/>
<path d="M24 142C24 140.895 23.1046 140 22 140C20.8954 140 20 140.895 20 142V146H16C14.8954 146 14 146.895 14 148C14 149.105 14.8954 150 16 150H20V154C20 155.105 20.8954 156 22 156C23.1046 156 24 155.105 24 154V150H28C29.1046 150 30 149.105 30 148C30 146.895 29.1046 146 28 146H24V142Z" fill="black"/>
<path d="M92 73C90.8954 73 90 73.8954 90 75C90 76.1046 90.8954 77 92 77H136C137.105 77 138 76.1046 138 75C138 73.8954 137.105 73 136 73H92Z" fill="black"/>
<path d="M79.1384 120.356C80.0466 120.985 80.2731 122.23 79.6444 123.139L69.8233 137.325C67.7614 140.303 63.2977 140.11 61.5005 136.965L58.2635 131.3C57.7155 130.341 58.0487 129.119 59.0077 128.571C59.9668 128.023 61.1885 128.357 61.7365 129.316L64.9735 134.98C65.3106 135.57 66.1478 135.606 66.5345 135.048L76.3556 120.862C76.9843 119.954 78.2302 119.727 79.1384 120.356Z" fill="black"/>
<path d="M78.7086 95.0398C79.2827 94.0962 78.9832 92.8658 78.0396 92.2917C77.0959 91.7176 75.8655 92.0171 75.2914 92.9607L66.3515 107.654C65.9828 108.26 65.097 108.242 64.7542 107.621L61.7508 102.182C61.2169 101.215 60.0002 100.864 59.0332 101.398C58.0663 101.932 57.7153 103.148 58.2492 104.115L61.2525 109.554C63.0805 112.865 67.8031 112.964 69.7687 109.733L78.7086 95.0398Z" fill="black"/>
<path d="M79.1384 66.3558C80.0466 66.9845 80.2731 68.2304 79.6444 69.1386L69.8233 83.3246C67.7614 86.3029 63.2977 86.11 61.5005 82.9649L58.2635 77.3002C57.7155 76.3411 58.0487 75.1194 59.0077 74.5714C59.9668 74.0234 61.1885 74.3566 61.7365 75.3156L64.9735 80.9803C65.3106 81.5702 66.1478 81.6064 66.5345 81.0478L76.3556 66.8618C76.9843 65.9536 78.2302 65.7271 79.1384 66.3558Z" fill="black"/>
<path d="M92 101C90.8954 101 90 101.895 90 103C90 104.105 90.8954 105 92 105H136C137.105 105 138 104.105 138 103C138 101.895 137.105 101 136 101H92Z" fill="black"/>
<path d="M90 132C90 130.895 90.8954 130 92 130H136C137.105 130 138 130.895 138 132C138 133.105 137.105 134 136 134H92C90.8954 134 90 133.105 90 132Z" fill="black"/>
</svg>
