<svg width="96" height="96" viewBox="0 0 96 96" fill="none" xmlns="http://www.w3.org/2000/svg">
<path opacity="0.2" d="M13 13.2C13 12.5373 13.5373 12 14.2 12H88.3364C89.8075 12 91 13.1925 91 14.6636V89C91 92.3137 88.3137 95 85 95H15.6636C14.1925 95 13 93.8075 13 92.3364V13.2Z" fill="black"/>
<path fill-rule="evenodd" clip-rule="evenodd" d="M33.1636 2C30.8641 2 29 3.8641 29 6.16359V9.83641C29 12.1359 30.8641 14 33.1636 14H63.8364C66.1359 14 68 12.1359 68 9.83641V6.16359C68 3.8641 66.1359 2 63.8364 2H33.1636ZM32 6.16359C32 5.52096 32.521 5 33.1636 5H63.8364C64.479 5 65 5.52096 65 6.16359V9.83641C65 10.479 64.479 11 63.8364 11H33.1636C32.521 11 32 10.479 32 9.83641V6.16359Z" fill="black"/>
<path d="M10 10.1636C10 9.52096 10.521 9 11.1636 9H22.5C23.3284 9 24 8.32843 24 7.5C24 6.67157 23.3284 6 22.5 6H11.1636C8.8641 6 7 7.86411 7 10.1636V87.8364C7 90.1359 8.86411 92 11.1636 92H83.8364C86.1359 92 88 90.1359 88 87.8364V10.1636C88 7.8641 86.1359 6 83.8364 6H73.5C72.6716 6 72 6.67157 72 7.5C72 8.32843 72.6716 9 73.5 9H83.8364C84.479 9 85 9.52095 85 10.1636V87.8364C85 88.479 84.479 89 83.8364 89H11.1636C10.521 89 10 88.479 10 87.8364V10.1636Z" fill="black"/>
<path d="M43.5 29C42.6716 29 42 29.6716 42 30.5C42 31.3284 42.6716 32 43.5 32H75.5C76.3284 32 77 31.3284 77 30.5C77 29.6716 76.3284 29 75.5 29H43.5Z" fill="black"/>
<path d="M34.3538 65.2668C35.035 65.7384 35.2048 66.6728 34.7333 67.354L27.6579 77.574C26.1373 79.7704 22.8455 79.6281 21.5201 77.3087L19.1976 73.2443C18.7866 72.5251 19.0365 71.6088 19.7558 71.1978C20.4751 70.7868 21.3914 71.0367 21.8024 71.7559L24.1249 75.8203C24.3551 76.2233 24.9271 76.248 25.1913 75.8664L32.2667 65.6463C32.7383 64.9652 33.6727 64.7953 34.3538 65.2668Z" fill="black"/>
<path d="M34.2694 45.7994C34.7108 45.0984 34.5003 44.1722 33.7992 43.7308C33.0982 43.2895 32.1721 43.4999 31.7307 44.201L25.1224 54.6964C24.8687 55.0994 24.2771 55.0867 24.0408 54.6733L21.8024 50.756C21.3914 50.0367 20.4751 49.7868 19.7558 50.1978C19.0365 50.6088 18.7866 51.5251 19.1976 52.2444L21.4361 56.1617C22.7958 58.5412 26.2009 58.6141 27.6611 56.2948L34.2694 45.7994Z" fill="black"/>
<path d="M34.3538 22.2668C35.035 22.7384 35.2048 23.6728 34.7333 24.354L27.6579 34.574C26.1373 36.7704 22.8455 36.6281 21.5201 34.3087L19.1976 30.2443C18.7866 29.5251 19.0365 28.6088 19.7558 28.1978C20.4751 27.7868 21.3914 28.0367 21.8024 28.7559L24.1249 32.8203C24.3551 33.2233 24.9271 33.248 25.1913 32.8664L32.2667 22.6463C32.7383 21.9652 33.6727 21.7953 34.3538 22.2668Z" fill="black"/>
<path d="M43.5 50C42.6716 50 42 50.6716 42 51.5C42 52.3284 42.6716 53 43.5 53H75.5C76.3284 53 77 52.3284 77 51.5C77 50.6716 76.3284 50 75.5 50H43.5Z" fill="black"/>
<path d="M42 72.5C42 71.6716 42.6716 71 43.5 71H75.5C76.3284 71 77 71.6716 77 72.5C77 73.3284 76.3284 74 75.5 74H43.5C42.6716 74 42 73.3284 42 72.5Z" fill="black"/>
</svg>
