<svg width="48" height="48" viewBox="0 0 48 48" fill="none" xmlns="http://www.w3.org/2000/svg">
<path opacity="0.2" d="M8 8.25C8 7.55964 8.55964 7 9.25 7H42.75C43.4404 7 44 7.55964 44 8.25V44.75C44 45.4404 43.4404 46 42.75 46H9.25C8.55964 46 8 45.4404 8 44.75V8.25Z" fill="black"/>
<path fill-rule="evenodd" clip-rule="evenodd" d="M16.25 1C15.0074 1 14 2.00736 14 3.25V5.75C14 6.99264 15.0074 8 16.25 8H30.75C31.9926 8 33 6.99264 33 5.75V3.25C33 2.00736 31.9926 1 30.75 1H16.25ZM16 3.25C16 3.11193 16.1119 3 16.25 3H30.75C30.8881 3 31 3.11193 31 3.25V5.75C31 5.88807 30.8881 6 30.75 6H16.25C16.1119 6 16 5.88807 16 5.75V3.25Z" fill="black"/>
<path d="M6 5.25C6 5.11193 6.11193 5 6.25 5H12C12.5523 5 13 4.55228 13 4C13 3.44772 12.5523 3 12 3H6.25C5.00736 3 4 4.00736 4 5.25V41.75C4 42.9926 5.00736 44 6.25 44H39.75C40.9926 44 42 42.9926 42 41.75V5.25C42 4.00736 40.9926 3 39.75 3H35C34.4477 3 34 3.44772 34 4C34 4.55228 34.4477 5 35 5H39.75C39.8881 5 40 5.11193 40 5.25V41.75C40 41.8881 39.8881 42 39.75 42H6.25C6.11193 42 6 41.8881 6 41.75V5.25Z" fill="black"/>
<path d="M21 15C20.4477 15 20 15.4477 20 16C20 16.5523 20.4477 17 21 17H36C36.5523 17 37 16.5523 37 16C37 15.4477 36.5523 15 36 15H21Z" fill="black"/>
<path d="M16.5547 30.1681C17.0142 30.4744 17.1384 31.0953 16.832 31.5548L13.6641 36.3067C12.8724 37.4942 11.1275 37.4942 10.3359 36.3067L9.16793 34.5548C8.86158 34.0953 8.98576 33.4744 9.44528 33.1681C9.90481 32.8617 10.5257 32.9859 10.832 33.4454L12 35.1973L15.1679 30.4454C15.4743 29.9859 16.0952 29.8617 16.5547 30.1681Z" fill="black"/>
<path d="M16.832 22.5548C17.1384 22.0953 17.0142 21.4744 16.5547 21.1681C16.0952 20.8617 15.4743 20.9859 15.1679 21.4454L12 26.1973L10.832 24.4454C10.5257 23.9859 9.90481 23.8617 9.44528 24.1681C8.98576 24.4744 8.86158 25.0953 9.16793 25.5548L10.3359 27.3067C11.1275 28.4942 12.8724 28.4942 13.6641 27.3067L16.832 22.5548Z" fill="black"/>
<path d="M16.5547 12.1681C17.0142 12.4744 17.1384 13.0953 16.832 13.5548L13.6641 18.3067C12.8724 19.4942 11.1275 19.4942 10.3359 18.3067L9.16793 16.5548C8.86158 16.0953 8.98576 15.4744 9.44528 15.1681C9.90481 14.8617 10.5257 14.9859 10.832 15.4454L12 17.1973L15.1679 12.4454C15.4743 11.9859 16.0952 11.8617 16.5547 12.1681Z" fill="black"/>
<path d="M21 24C20.4477 24 20 24.4477 20 25C20 25.5523 20.4477 26 21 26H36C36.5523 26 37 25.5523 37 25C37 24.4477 36.5523 24 36 24H21Z" fill="black"/>
<path d="M20 34C20 33.4477 20.4477 33 21 33H36C36.5523 33 37 33.4477 37 34C37 34.5523 36.5523 35 36 35H21C20.4477 35 20 34.5523 20 34Z" fill="black"/>
</svg>
