<svg width="48" height="48" viewBox="0 0 48 48" fill="none" xmlns="http://www.w3.org/2000/svg">
<path opacity="0.2" d="M26 48C38.1503 48 48 38.1503 48 26C48 13.8497 38.1503 4 26 4C13.8497 4 4 13.8497 4 26C4 38.1503 13.8497 48 26 48Z" fill="black"/>
<path fill-rule="evenodd" clip-rule="evenodd" d="M27.953 15.3031C28.1203 14.7768 27.8294 14.2144 27.3031 14.047C26.7768 13.8797 26.2144 14.1706 26.047 14.6969L24.2926 20.2135C23.8872 20.0751 23.4523 20 23 20C20.8324 20 19.0675 21.7241 19.0019 23.8758L10.3115 26.5454C9.78351 26.7076 9.48701 27.267 9.64918 27.795C9.81135 28.3229 10.3708 28.6194 10.8987 28.4572L19.4435 25.8324C20.1081 27.1198 21.4513 28 23 28C25.2091 28 27 26.2091 27 24C27 22.997 26.6308 22.0802 26.021 21.3781L27.953 15.3031ZM24.0132 22.2753C24.1241 22.4497 24.2892 22.5908 24.494 22.6703C24.8088 23.0237 25 23.4895 25 24C25 25.1046 24.1046 26 23 26C21.8954 26 21 25.1046 21 24C21 22.8954 21.8954 22 23 22C23.3698 22 23.7161 22.1003 24.0132 22.2753Z" fill="black"/>
<path d="M24 6C24 5.44772 23.5523 5 23 5C22.4477 5 22 5.44772 22 6V9C22 9.55228 22.4477 10 23 10C23.5523 10 24 9.55228 24 9V6Z" fill="black"/>
<path d="M23 37C23.5523 37 24 37.4477 24 38V41C24 41.5523 23.5523 42 23 42C22.4477 42 22 41.5523 22 41V38C22 37.4477 22.4477 37 23 37Z" fill="black"/>
<path d="M40 24C40.5523 24 41 23.5523 41 23C41 22.4477 40.5523 22 40 22H37C36.4477 22 36 22.4477 36 23C36 23.5523 36.4477 24 37 24H40Z" fill="black"/>
<path d="M9 23C9 23.5523 8.55229 24 8 24H5C4.44772 24 4 23.5523 4 23C4 22.4477 4.44772 22 5 22H8C8.55229 22 9 22.4477 9 23Z" fill="black"/>
<path d="M34.2929 35.7071C34.6834 36.0976 35.3166 36.0976 35.7071 35.7071C36.0976 35.3166 36.0976 34.6834 35.7071 34.2929L33.5858 32.1716C33.1953 31.781 32.5621 31.781 32.1716 32.1716C31.781 32.5621 31.781 33.1953 32.1716 33.5858L34.2929 35.7071Z" fill="black"/>
<path d="M13.8282 13.8282C13.4377 14.2187 12.8045 14.2187 12.414 13.8282L10.2927 11.7069C9.90214 11.3164 9.90214 10.6832 10.2927 10.2927C10.6832 9.90214 11.3164 9.90214 11.7069 10.2927L13.8282 12.414C14.2187 12.8045 14.2187 13.4377 13.8282 13.8282Z" fill="black"/>
<path d="M10.2929 34.2929C9.90237 34.6834 9.90237 35.3166 10.2929 35.7071C10.6834 36.0976 11.3166 36.0976 11.7071 35.7071L13.8284 33.5858C14.219 33.1953 14.219 32.5621 13.8284 32.1716C13.4379 31.781 12.8047 31.781 12.4142 32.1716L10.2929 34.2929Z" fill="black"/>
<path d="M32.2929 13.7071C31.9024 13.3166 31.9024 12.6834 32.2929 12.2929L34.4142 10.1716C34.8047 9.78105 35.4379 9.78105 35.8284 10.1716C36.219 10.5621 36.219 11.1953 35.8284 11.5858L33.7071 13.7071C33.3166 14.0976 32.6834 14.0976 32.2929 13.7071Z" fill="black"/>
<path fill-rule="evenodd" clip-rule="evenodd" d="M23 0C10.2975 0 0 10.2975 0 23C0 35.7025 10.2975 46 23 46C35.7025 46 46 35.7025 46 23C46 10.2975 35.7025 0 23 0ZM2 23C2 11.402 11.402 2 23 2C34.598 2 44 11.402 44 23C44 34.598 34.598 44 23 44C11.402 44 2 34.598 2 23Z" fill="black"/>
</svg>
