<svg width="96" height="96" viewBox="0 0 96 96" fill="none" xmlns="http://www.w3.org/2000/svg">
<circle opacity="0.2" cx="52" cy="53" r="36" fill="black"/>
<path d="M85.994 19.1373L81.5406 18.1413C80.7308 17.9602 79.928 18.4677 79.7475 19.2748C79.567 20.0819 80.0771 20.883 80.8869 21.0641L88.9102 22.8584C89.319 22.9499 89.7474 22.867 90.0918 22.6299C90.4363 22.3927 90.6656 22.0228 90.7244 21.6094L91.8154 13.9398C91.9319 13.121 91.3604 12.3621 90.5389 12.2449C89.7175 12.1276 88.9571 12.6963 88.8407 13.5151L88.3173 17.1941C87.5793 16.0273 86.5771 14.5646 85.3245 13.0095C82.4141 9.39655 78.0513 5.15934 72.3971 3.09164C71.6191 2.80713 70.7576 3.20722 70.473 3.98526C70.1883 4.7633 70.5882 5.62466 71.3662 5.90916C76.2865 7.70848 80.2328 11.4713 82.988 14.8917C84.2821 16.4982 85.2913 18.0014 85.994 19.1373Z" fill="black"/>
<path d="M49 25.5005C49 24.6721 48.3284 24.0005 47.5 24.0005C46.6716 24.0005 46 24.6721 46 25.5005V51.1901L63.7304 61.788C64.4415 62.2131 65.3625 61.9812 65.7875 61.2701C66.2126 60.559 65.9807 59.638 65.2696 59.213L49 49.4883V25.5005Z" fill="black"/>
<path fill-rule="evenodd" clip-rule="evenodd" d="M47.5 10.0005C26.7893 10.0005 10 26.7898 10 47.5005C10 68.2112 26.7893 85.0005 47.5 85.0005C68.2107 85.0005 85 68.2112 85 47.5005C85 26.7898 68.2107 10.0005 47.5 10.0005ZM13 47.5005C13 28.4467 28.4462 13.0005 47.5 13.0005C66.5538 13.0005 82 28.4467 82 47.5005C82 66.5543 66.5538 82.0005 47.5 82.0005C28.4462 82.0005 13 66.5543 13 47.5005Z" fill="black"/>
<path d="M6.33246 73.1568C6.25735 73.194 6.18674 73.2368 6.12088 73.2842C6.04548 73.32 5.97263 73.3623 5.90318 73.411C5.56077 73.6509 5.33198 74.024 5.27195 74.4404L4.15635 82.1779C4.03735 83.0032 4.60138 83.7662 5.41614 83.8819C6.2309 83.9977 6.98786 83.4225 7.10686 82.5972L7.678 78.6359C8.40332 79.7638 9.31723 81.0867 10.4064 82.4744C13.4284 86.3248 17.922 90.8323 23.6119 92.9095C24.3903 93.1937 25.2511 92.7932 25.5347 92.015C25.8182 91.2368 25.4171 90.3756 24.6387 90.0915C19.7244 88.2974 15.6553 84.3049 12.7657 80.6232C11.7249 79.2971 10.853 78.0319 10.1653 76.9591L14.3842 77.8997C15.1873 78.0788 15.9855 77.5641 16.167 76.7501C16.3484 75.9362 15.8444 75.1312 15.0413 74.9521L7.99921 73.3821C7.55527 72.9857 6.89787 72.8762 6.33246 73.1568Z" fill="black"/>
</svg>
