<svg width="96" height="96" viewBox="0 0 96 96" fill="none" xmlns="http://www.w3.org/2000/svg">
<path opacity="0.2" d="M49.1562 85.3125C69.6771 85.3125 86.3125 68.6771 86.3125 48.1562C86.3125 27.6354 69.6771 11 49.1562 11C28.6354 11 12 27.6354 12 48.1562C12 68.6771 28.6354 85.3125 49.1562 85.3125Z" fill="black"/>
<path fill-rule="evenodd" clip-rule="evenodd" d="M56.9294 32.9544C57.1805 32.165 56.744 31.3214 55.9546 31.0704C55.1651 30.8193 54.3216 31.2558 54.0705 32.0452L50.1974 44.2239C49.6563 44.0779 49.0872 44 48.5 44C44.9101 44 42 46.9101 42 50.5C42 50.8487 42.0275 51.191 42.0803 51.5249L26.6782 56.1491C25.8848 56.3873 25.4347 57.2237 25.6729 58.0171C25.9111 58.8105 26.7475 59.2606 27.5409 59.0224L43.2338 54.3109C44.4149 55.9403 46.3337 57 48.5 57C52.0899 57 55 54.0899 55 50.5C55 48.5964 54.1817 46.8839 52.8776 45.6951L56.9294 32.9544ZM45 50.5C45 48.567 46.567 47 48.5 47C50.433 47 52 48.567 52 50.5C52 52.433 50.433 54 48.5 54C46.567 54 45 52.433 45 50.5Z" fill="black"/>
<path d="M50 18C50 17.1716 49.3284 16.5 48.5 16.5C47.6716 16.5 47 17.1716 47 18V23C47 23.8284 47.6716 24.5 48.5 24.5C49.3284 24.5 50 23.8284 50 23V18Z" fill="black"/>
<path d="M48.5 72.5C49.3284 72.5 50 73.1716 50 74V79C50 79.8284 49.3284 80.5 48.5 80.5C47.6716 80.5 47 79.8284 47 79V74C47 73.1716 47.6716 72.5 48.5 72.5Z" fill="black"/>
<path d="M78.5 51C79.3284 51 80 50.3284 80 49.5C80 48.6716 79.3284 48 78.5 48H73.5C72.6716 48 72 48.6716 72 49.5C72 50.3284 72.6716 51 73.5 51H78.5Z" fill="black"/>
<path d="M23.5 49.5C23.5 50.3284 22.8284 51 22 51H17C16.1716 51 15.5 50.3284 15.5 49.5C15.5 48.6716 16.1716 48 17 48H22C22.8284 48 23.5 48.6716 23.5 49.5Z" fill="black"/>
<path d="M68.4391 71.5607C69.0249 72.1464 69.9746 72.1464 70.5604 71.5607C71.1462 70.9749 71.1462 70.0251 70.5604 69.4393L67.0249 65.9038C66.4391 65.318 65.4894 65.318 64.9036 65.9038C64.3178 66.4896 64.3178 67.4393 64.9036 68.0251L68.4391 71.5607Z" fill="black"/>
<path d="M30.5604 31.5607C29.9746 32.1464 29.0249 32.1464 28.4391 31.5607L24.9036 28.0251C24.3178 27.4393 24.3178 26.4896 24.9036 25.9038C25.4894 25.318 26.4391 25.318 27.0249 25.9038L30.5604 29.4393C31.1462 30.0251 31.1462 30.9749 30.5604 31.5607Z" fill="black"/>
<path d="M24.4393 69.4391C23.8536 70.0249 23.8536 70.9746 24.4393 71.5604C25.0251 72.1462 25.9749 72.1462 26.5607 71.5604L30.0962 68.0249C30.682 67.4391 30.682 66.4894 30.0962 65.9036C29.5104 65.3178 28.5607 65.3178 27.9749 65.9036L24.4393 69.4391Z" fill="black"/>
<path d="M65.4393 31.5604C64.8536 30.9746 64.8536 30.0249 65.4393 29.4391L68.9749 25.9036C69.5607 25.3178 70.5104 25.3178 71.0962 25.9036C71.682 26.4894 71.682 27.4391 71.0962 28.0249L67.5607 31.5604C66.9749 32.1462 66.0251 32.1462 65.4393 31.5604Z" fill="black"/>
<path fill-rule="evenodd" clip-rule="evenodd" d="M10 48.5C10 27.237 27.237 10 48.5 10C69.763 10 87 27.237 87 48.5C87 69.763 69.763 87 48.5 87C27.237 87 10 69.763 10 48.5ZM48.5 13C28.8939 13 13 28.8939 13 48.5C13 68.1061 28.8939 84 48.5 84C68.1061 84 84 68.1061 84 48.5C84 28.8939 68.1061 13 48.5 13Z" fill="black"/>
<path fill-rule="evenodd" clip-rule="evenodd" d="M3 48.5C3 23.371 23.371 3 48.5 3C73.629 3 94 23.371 94 48.5C94 73.629 73.629 94 48.5 94C23.371 94 3 73.629 3 48.5ZM48.5 6C25.0279 6 6 25.0279 6 48.5C6 71.9721 25.0279 91 48.5 91C71.9721 91 91 71.9721 91 48.5C91 25.0279 71.9721 6 48.5 6Z" fill="black"/>
</svg>
