<svg width="196" height="196" viewBox="0 0 196 196" fill="none" xmlns="http://www.w3.org/2000/svg">
<path opacity="0.07" fill-rule="evenodd" clip-rule="evenodd" d="M86.734 5.42944C78.4679 6.85893 52.7539 17.9863 39.681 30.9797C38.5923 32.0617 37.3211 33.2573 35.918 34.5769C22.9026 46.8181 -1.46314 69.7342 3.22979 111.732C8.42863 158.257 27.0012 172.707 54.4442 183.108C81.8873 193.51 134.974 200.985 171.055 171.983C207.137 142.982 190.465 38.0613 155.78 20.462C121.096 2.86277 95 3.99995 86.734 5.42944ZM98 162C62.6538 162 34 133.346 34 98C34 62.6538 62.6538 34 98 34C133.346 34 162 62.6538 162 98C162 133.346 133.346 162 98 162Z" fill="black"/>
<path opacity="0.2" d="M102 157C131.271 157 155 133.271 155 104C155 74.7289 131.271 51 102 51C72.7289 51 49 74.7289 49 104C49 133.271 72.7289 157 102 157Z" fill="black"/>
<path d="M156 19L152 15L148 19L152 23L156 19Z" fill="black"/>
<path fill-rule="evenodd" clip-rule="evenodd" d="M108.676 73.1178C109.716 73.4913 110.256 74.6367 109.882 75.6763L103.658 93.0004C105.697 94.6503 107 97.1729 107 100C107 104.971 102.971 109 98 109C94.7518 109 91.9056 107.279 90.323 104.7L67.1842 111.587C66.1255 111.902 65.0119 111.3 64.6967 110.241C64.3816 109.182 64.9844 108.069 66.043 107.753L89.0451 100.907C89.0153 100.608 89 100.306 89 100C89 95.0294 93.0294 91 98 91C98.7025 91 99.3863 91.0805 100.043 91.2328L106.118 74.3237C106.491 73.2842 107.637 72.7443 108.676 73.1178ZM98 95C95.2386 95 93 97.2386 93 100C93 102.761 95.2386 105 98 105C100.761 105 103 102.761 103 100C103 97.2386 100.761 95 98 95Z" fill="black"/>
<path d="M98 52C99.1046 52 100 52.8954 100 54V61C100 62.1046 99.1046 63 98 63C96.8954 63 96 62.1046 96 61V54C96 52.8954 96.8954 52 98 52Z" fill="black"/>
<path d="M100 135C100 133.895 99.1046 133 98 133C96.8954 133 96 133.895 96 135V142C96 143.105 96.8954 144 98 144C99.1046 144 100 143.105 100 142V135Z" fill="black"/>
<path d="M144 98C144 99.1046 143.105 100 142 100H135C133.895 100 133 99.1046 133 98C133 96.8954 133.895 96 135 96H142C143.105 96 144 96.8954 144 98Z" fill="black"/>
<path d="M61 100C62.1046 100 63 99.1046 63 98C63 96.8954 62.1046 96 61 96H54C52.8954 96 52 96.8954 52 98C52 99.1046 52.8954 100 54 100H61Z" fill="black"/>
<path d="M130.265 130.265C129.484 131.046 128.217 131.046 127.436 130.265L122.565 125.394C121.784 124.613 121.784 123.347 122.565 122.566C123.346 121.785 124.613 121.785 125.394 122.566L130.265 127.437C131.046 128.218 131.046 129.484 130.265 130.265Z" fill="black"/>
<path d="M70.5858 73.4142C71.3668 74.1953 72.6332 74.1953 73.4142 73.4142C74.1953 72.6332 74.1953 71.3668 73.4142 70.5858L68.4645 65.636C67.6834 64.855 66.4171 64.855 65.636 65.636C64.855 66.4171 64.855 67.6834 65.636 68.4645L70.5858 73.4142Z" fill="black"/>
<path d="M65.5858 130.414C64.8047 129.633 64.8047 128.367 65.5858 127.586L70.5355 122.636C71.3166 121.855 72.5829 121.855 73.364 122.636C74.145 123.417 74.145 124.683 73.364 125.464L68.4142 130.414C67.6332 131.195 66.3668 131.195 65.5858 130.414Z" fill="black"/>
<path d="M122.586 70.5858C121.805 71.3668 121.805 72.6332 122.586 73.4142C123.367 74.1953 124.633 74.1953 125.414 73.4142L130.364 68.4645C131.145 67.6834 131.145 66.4171 130.364 65.636C129.583 64.855 128.317 64.855 127.536 65.636L122.586 70.5858Z" fill="black"/>
<path fill-rule="evenodd" clip-rule="evenodd" d="M98 43C67.6243 43 43 67.6243 43 98C43 128.376 67.6243 153 98 153C128.376 153 153 128.376 153 98C153 67.6243 128.376 43 98 43ZM47 98C47 69.8335 69.8335 47 98 47C126.167 47 149 69.8335 149 98C149 126.167 126.167 149 98 149C69.8335 149 47 126.167 47 98Z" fill="black"/>
<path fill-rule="evenodd" clip-rule="evenodd" d="M98 34C62.6538 34 34 62.6538 34 98C34 133.346 62.6538 162 98 162C133.346 162 162 133.346 162 98C162 62.6538 133.346 34 98 34ZM38 98C38 64.8629 64.8629 38 98 38C131.137 38 158 64.8629 158 98C158 131.137 131.137 158 98 158C64.8629 158 38 131.137 38 98Z" fill="black"/>
<path fill-rule="evenodd" clip-rule="evenodd" d="M168.5 167L177 175.5L168.5 184L160 175.5L168.5 167ZM165.667 175.5L168.5 178.333L171.333 175.5L168.5 172.667L165.667 175.5Z" fill="black"/>
<path d="M18 147C19.1046 147 20 147.895 20 149V153H24C25.1046 153 26 153.895 26 155C26 156.105 25.1046 157 24 157H20V161C20 162.105 19.1046 163 18 163C16.8954 163 16 162.105 16 161V157H12C10.8954 157 10 156.105 10 155C10 153.895 10.8954 153 12 153H16V149C16 147.895 16.8954 147 18 147Z" fill="black"/>
</svg>
