<svg width="48" height="48" viewBox="0 0 48 48" fill="none" xmlns="http://www.w3.org/2000/svg">
<g opacity="0.2">
<path d="M25.5 7C26.8807 7 28 5.88071 28 4.5C28 3.11929 26.8807 2 25.5 2C24.1193 2 23 3.11929 23 4.5C23 5.88071 24.1193 7 25.5 7Z" fill="black"/>
<path d="M14 18.25C14 17.5596 14.5596 17 15.25 17H37.75C38.4404 17 39 17.5596 39 18.25V37.5C39 38.324 38.0592 38.7944 37.4 38.3L33.3333 35.25C33.117 35.0877 32.8538 35 32.5833 35H15.25C14.5596 35 14 34.4404 14 33.75V18.25Z" fill="black"/>
<path d="M7 24.5C7 25.8807 5.88071 27 4.5 27C3.11929 27 2 25.8807 2 24.5C2 23.1193 3.11929 22 4.5 22C5.88071 22 7 23.1193 7 24.5Z" fill="black"/>
<path d="M25.5 48C26.8807 48 28 46.8807 28 45.5C28 44.1193 26.8807 43 25.5 43C24.1193 43 23 44.1193 23 45.5C23 46.8807 24.1193 48 25.5 48Z" fill="black"/>
<path d="M48 24.5C48 25.8807 46.8807 27 45.5 27C44.1193 27 43 25.8807 43 24.5C43 23.1193 44.1193 22 45.5 22C46.8807 22 48 23.1193 48 24.5Z" fill="black"/>
</g>
<path fill-rule="evenodd" clip-rule="evenodd" d="M21 3.5C21 1.567 22.567 0 24.5 0C26.433 0 28 1.567 28 3.5C28 5.433 26.433 7 24.5 7C22.567 7 21 5.433 21 3.5ZM24.5 2C23.6716 2 23 2.67157 23 3.5C23 4.32843 23.6716 5 24.5 5C25.3284 5 26 4.32843 26 3.5C26 2.67157 25.3284 2 24.5 2Z" fill="black"/>
<path fill-rule="evenodd" clip-rule="evenodd" d="M0 23.5C0 21.567 1.567 20 3.5 20C5.433 20 7 21.567 7 23.5C7 25.433 5.433 27 3.5 27C1.567 27 0 25.433 0 23.5ZM3.5 22C2.67157 22 2 22.6716 2 23.5C2 24.3284 2.67157 25 3.5 25C4.32843 25 5 24.3284 5 23.5C5 22.6716 4.32843 22 3.5 22Z" fill="black"/>
<path fill-rule="evenodd" clip-rule="evenodd" d="M21 44.5C21 42.567 22.567 41 24.5 41C26.433 41 28 42.567 28 44.5C28 46.433 26.433 48 24.5 48C22.567 48 21 46.433 21 44.5ZM24.5 43C23.6716 43 23 43.6716 23 44.5C23 45.3284 23.6716 46 24.5 46C25.3284 46 26 45.3284 26 44.5C26 43.6716 25.3284 43 24.5 43Z" fill="black"/>
<path fill-rule="evenodd" clip-rule="evenodd" d="M44.5 20C42.567 20 41 21.567 41 23.5C41 25.433 42.567 27 44.5 27C46.433 27 48 25.433 48 23.5C48 21.567 46.433 20 44.5 20ZM43 23.5C43 22.6716 43.6716 22 44.5 22C45.3284 22 46 22.6716 46 23.5C46 24.3284 45.3284 25 44.5 25C43.6716 25 43 24.3284 43 23.5Z" fill="black"/>
<path d="M19.7682 20.3598C20.1218 20.7841 20.0645 21.4147 19.6402 21.7682L17.5621 23.5L19.6402 25.2318C20.0645 25.5854 20.1218 26.2159 19.7682 26.6402C19.4147 27.0645 18.7841 27.1218 18.3598 26.7682L15.943 24.7542C15.1598 24.1015 15.1598 22.8985 15.943 22.2458L18.3598 20.2318C18.7841 19.8782 19.4147 19.9356 19.7682 20.3598Z" fill="black"/>
<path d="M27.3598 21.7682C26.9355 21.4147 26.8782 20.7841 27.2318 20.3598C27.5854 19.9356 28.2159 19.8782 28.6402 20.2318L31.057 22.2458C31.8403 22.8985 31.8403 24.1015 31.057 24.7542L28.6402 26.7682C28.2159 27.1218 27.5854 27.0645 27.2318 26.6402C26.8782 26.2159 26.9355 25.5854 27.3598 25.2318L29.438 23.5L27.3598 21.7682Z" fill="black"/>
<path d="M24.124 18.0078C24.6721 18.0763 25.0608 18.5761 24.9923 19.1241L23.9923 27.1241C23.9238 27.6722 23.424 28.0609 22.876 27.9924C22.328 27.9239 21.9392 27.4241 22.0077 26.8761L23.0077 18.8761C23.0762 18.3281 23.576 17.9393 24.124 18.0078Z" fill="black"/>
<path fill-rule="evenodd" clip-rule="evenodd" d="M12.25 13C11.0074 13 10 14.0074 10 15.25V30.75C10 31.9926 11.0074 33 12.25 33H29.5833C29.6374 33 29.6901 33.0175 29.7333 33.05L33.8 36.1C35.1185 37.0889 37 36.1481 37 34.5V15.25C37 14.0074 35.9926 13 34.75 13H12.25ZM12 15.25C12 15.1119 12.1119 15 12.25 15H34.75C34.8881 15 35 15.1119 35 15.25V34.5L30.9333 31.45C30.5439 31.1579 30.0702 31 29.5833 31H12.25C12.1119 31 12 30.8881 12 30.75V15.25Z" fill="black"/>
<path d="M19.2372 4.57031C19.7738 4.43927 20.1025 3.89811 19.9714 3.3616C19.8404 2.82508 19.2992 2.49638 18.7627 2.62742C11.1709 4.48166 5.12613 10.2723 2.91116 17.7147C2.75362 18.2441 3.05502 18.8009 3.58436 18.9584C4.1137 19.116 4.67052 18.8146 4.82806 18.2852C6.8412 11.521 12.3391 6.25513 19.2372 4.57031Z" fill="black"/>
<path d="M30.2852 2.91116C29.7559 2.75362 29.1991 3.05502 29.0415 3.58436C28.884 4.1137 29.1854 4.67052 29.7147 4.82806C36.1644 6.74758 41.2524 11.8356 43.1719 18.2852C43.3294 18.8146 43.8862 19.116 44.4156 18.9584C44.9449 18.8009 45.2463 18.2441 45.0888 17.7147C42.9766 10.6177 37.3822 5.02333 30.2852 2.91116Z" fill="black"/>
<path d="M4.57031 28.7627C4.43927 28.2262 3.89811 27.8975 3.3616 28.0285C2.82508 28.1596 2.49638 28.7007 2.62742 29.2372C4.56771 37.1814 10.8186 43.4322 18.7627 45.3725C19.2992 45.5036 19.8404 45.1749 19.9714 44.6383C20.1025 44.1018 19.7738 43.5607 19.2372 43.4296C12.0182 41.6665 6.3335 35.9817 4.57031 28.7627Z" fill="black"/>
<path d="M45.3725 29.2372C45.5036 28.7007 45.1749 28.1596 44.6383 28.0285C44.1018 27.8975 43.5607 28.2262 43.4296 28.7627C41.7448 35.6609 36.479 41.1587 29.7147 43.1719C29.1854 43.3294 28.884 43.8862 29.0415 44.4156C29.1991 44.9449 29.7559 45.2463 30.2852 45.0888C37.7277 42.8738 43.5183 36.829 45.3725 29.2372Z" fill="black"/>
</svg>
