<svg width="96" height="96" viewBox="0 0 96 96" fill="none" xmlns="http://www.w3.org/2000/svg">
<g opacity="0.2">
<path d="M50.5 15C53.5376 15 56 12.5376 56 9.5C56 6.46243 53.5376 4 50.5 4C47.4624 4 45 6.46243 45 9.5C45 12.5376 47.4624 15 50.5 15Z" fill="black"/>
<path d="M27 34.5C27 33.1193 28.1193 32 29.5 32H74.5C75.8807 32 77 33.1193 77 34.5V73C77 74.6481 75.1185 75.5889 73.8 74.6L65.6667 68.5C65.2339 68.1754 64.7076 68 64.1667 68H29.5C28.1193 68 27 66.8807 27 65.5V34.5Z" fill="black"/>
<path d="M15 48.5C15 51.5376 12.5376 54 9.5 54C6.46243 54 4 51.5376 4 48.5C4 45.4624 6.46243 43 9.5 43C12.5376 43 15 45.4624 15 48.5Z" fill="black"/>
<path d="M50.5 96C53.5376 96 56 93.5376 56 90.5C56 87.4624 53.5376 85 50.5 85C47.4624 85 45 87.4624 45 90.5C45 93.5376 47.4624 96 50.5 96Z" fill="black"/>
<path d="M96 48.5C96 51.5376 93.5376 54 90.5 54C87.4624 54 85 51.5376 85 48.5C85 45.4624 87.4624 43 90.5 43C93.5376 43 96 45.4624 96 48.5Z" fill="black"/>
</g>
<path fill-rule="evenodd" clip-rule="evenodd" d="M41 7C41 3.13401 44.134 0 48 0C51.866 0 55 3.13401 55 7C55 10.866 51.866 14 48 14C44.134 14 41 10.866 41 7ZM48 3C45.7909 3 44 4.79086 44 7C44 9.20914 45.7909 11 48 11C50.2091 11 52 9.20914 52 7C52 4.79086 50.2091 3 48 3Z" fill="black"/>
<path fill-rule="evenodd" clip-rule="evenodd" d="M0 47C0 43.134 3.13401 40 7 40C10.866 40 14 43.134 14 47C14 50.866 10.866 54 7 54C3.13401 54 0 50.866 0 47ZM7 43C4.79086 43 3 44.7909 3 47C3 49.2091 4.79086 51 7 51C9.20914 51 11 49.2091 11 47C11 44.7909 9.20914 43 7 43Z" fill="black"/>
<path fill-rule="evenodd" clip-rule="evenodd" d="M41 89C41 85.134 44.134 82 48 82C51.866 82 55 85.134 55 89C55 92.866 51.866 96 48 96C44.134 96 41 92.866 41 89ZM48 85C45.7909 85 44 86.7909 44 89C44 91.2091 45.7909 93 48 93C50.2091 93 52 91.2091 52 89C52 86.7909 50.2091 85 48 85Z" fill="black"/>
<path fill-rule="evenodd" clip-rule="evenodd" d="M88 40C84.134 40 81 43.134 81 47C81 50.866 84.134 54 88 54C91.866 54 95 50.866 95 47C95 43.134 91.866 40 88 40ZM84 47C84 44.7909 85.7909 43 88 43C90.2091 43 92 44.7909 92 47C92 49.2091 90.2091 51 88 51C85.7909 51 84 49.2091 84 47Z" fill="black"/>
<path d="M39.1523 41.0398C39.6827 41.6762 39.5967 42.622 38.9603 43.1524L34.3431 47L38.9603 50.8477C39.5967 51.3781 39.6827 52.3239 39.1523 52.9603C38.622 53.5967 37.6762 53.6827 37.0397 53.1524L32.2061 49.1244C30.8795 48.0188 30.8795 45.9812 32.2061 44.8757L37.0397 40.8477C37.6762 40.3174 38.622 40.4033 39.1523 41.0398Z" fill="black"/>
<path d="M55.0397 43.1524C54.4033 42.622 54.3173 41.6762 54.8477 41.0398C55.378 40.4033 56.3238 40.3174 56.9603 40.8477L61.7939 44.8757C63.1205 45.9812 63.1205 48.0188 61.7939 49.1244L56.9603 53.1524C56.3238 53.6827 55.378 53.5967 54.8477 52.9603C54.3173 52.3239 54.4033 51.3781 55.0397 50.8477L59.6569 47L55.0397 43.1524Z" fill="black"/>
<path d="M48.1861 36.5117C49.0081 36.6145 49.5912 37.3642 49.4884 38.1862L47.4884 54.1862C47.3857 55.0082 46.636 55.5913 45.814 55.4886C44.9919 55.3858 44.4088 54.6361 44.5116 53.8141L46.5116 37.8141C46.6143 36.9921 47.364 36.409 48.1861 36.5117Z" fill="black"/>
<path fill-rule="evenodd" clip-rule="evenodd" d="M25 26C22.7909 26 21 27.7909 21 30V61C21 63.2091 22.7909 65 25 65H59.6667C59.883 65 60.0936 65.0702 60.2667 65.2L68.4 71.3C70.7073 73.0305 74 71.3842 74 68.5V30C74 27.7909 72.2091 26 70 26H25ZM24 30C24 29.4477 24.4477 29 25 29H70C70.5523 29 71 29.4477 71 30V68.5C71 68.912 70.5296 69.1472 70.2 68.9L62.0667 62.8C61.3743 62.2807 60.5321 62 59.6667 62H25C24.4477 62 24 61.5523 24 61V30Z" fill="black"/>
<path d="M37.43 8.95751C38.2348 8.76096 38.7278 7.94922 38.5312 7.14445C38.3347 6.33968 37.523 5.84662 36.7182 6.04318C21.8153 9.68309 9.94799 21.0513 5.59981 35.6614C5.3635 36.4554 5.81561 37.2906 6.60962 37.5269C7.40363 37.7632 8.23886 37.3111 8.47517 36.5171C12.5206 22.9243 23.5676 12.3433 37.43 8.95751Z" fill="black"/>
<path d="M59.339 6.60015C58.545 6.36384 57.7098 6.81594 57.4734 7.60995C57.2371 8.40396 57.6892 9.2392 58.4833 9.47551C71.4441 13.3328 81.6675 23.5563 85.5249 36.5171C85.7612 37.3111 86.5964 37.7632 87.3904 37.5269C88.1844 37.2906 88.6365 36.4554 88.4002 35.6614C84.2539 21.7295 73.2709 10.7465 59.339 6.60015Z" fill="black"/>
<path d="M7.95718 57.5704C7.76062 56.7656 6.94888 56.2726 6.14411 56.4691C5.33934 56.6657 4.84629 57.4774 5.04285 58.2822C8.85172 73.8768 21.1235 86.1487 36.7182 89.9575C37.523 90.1541 38.3347 89.661 38.5312 88.8563C38.7278 88.0515 38.2348 87.2397 37.43 87.0432C22.923 83.5 11.5004 72.0774 7.95718 57.5704Z" fill="black"/>
<path d="M88.9572 58.2822C89.1537 57.4774 88.6607 56.6657 87.8559 56.4691C87.0511 56.2726 86.2394 56.7656 86.0428 57.5704C82.6571 71.4328 72.0761 82.4798 58.4833 86.5252C57.6892 86.7615 57.2371 87.5967 57.4734 88.3907C57.7098 89.1848 58.545 89.6369 59.339 89.4006C73.9491 85.0524 85.3173 73.1851 88.9572 58.2822Z" fill="black"/>
</svg>
