<svg width="196" height="196" viewBox="0 0 196 196" fill="none" xmlns="http://www.w3.org/2000/svg">
<path opacity="0.07" fill-rule="evenodd" clip-rule="evenodd" d="M109.13 183.324C152.693 183.306 176.921 168.323 180.842 156.918C186.901 139.293 189.933 125.387 184.216 83.9436C178.78 44.5286 164.285 35.3106 148.001 24.9547C147.163 24.4216 146.32 23.8856 145.473 23.3423C128.177 12.2428 58.8082 0.128323 27.3788 30.8479C-4.05067 61.5675 7.91457 121.43 23.3786 147.499C38.8427 173.569 65.5664 183.341 109.13 183.324ZM47 64.5743C47 60.9433 49.9435 57.9998 53.5745 57.9998H135.426C139.057 57.9998 142 60.9433 142 64.5743V67.0355C144.255 67.3181 146 69.2424 146 71.5743V141.782C146 144.779 142.595 146.505 140.178 144.734L125.367 133.884C124.583 133.31 123.636 133 122.664 133H59.5745C57.0481 133 55 130.952 55 128.425V128H53.5745C49.9435 128 47 125.056 47 121.425V64.5743ZM38 98C38 103.523 33.5228 108 28 108C22.4772 108 18 103.523 18 98C18 92.4771 22.4772 88 28 88C33.5228 88 38 92.4771 38 98ZM101 182C106.523 182 111 177.523 111 172C111 166.477 106.523 162 101 162C95.4771 162 91 166.477 91 172C91 177.523 95.4771 182 101 182ZM182 98C182 103.523 177.523 108 172 108C166.477 108 162 103.523 162 98C162 92.4771 166.477 88 172 88C177.523 88 182 92.4771 182 98ZM101 38C106.523 38 111 33.5228 111 28C111 22.4772 106.523 18 101 18C95.4771 18 91 22.4772 91 28C91 33.5228 95.4771 38 101 38Z" fill="black"/>
<g opacity="0.2">
<path d="M101 38C106.523 38 111 33.5228 111 28C111 22.4772 106.523 18 101 18C95.4771 18 91 22.4772 91 28C91 33.5228 95.4771 38 101 38Z" fill="black"/>
<path d="M55 71.5745C55 69.0481 57.0481 67 59.5745 67H141.426C143.952 67 146 69.0481 146 71.5745V141.782C146 144.779 142.595 146.506 140.178 144.735L125.367 133.884C124.583 133.31 123.636 133 122.664 133H59.5745C57.0481 133 55 130.952 55 128.426V71.5745Z" fill="black"/>
<path d="M38 98C38 103.523 33.5228 108 28 108C22.4772 108 18 103.523 18 98C18 92.4771 22.4772 88 28 88C33.5228 88 38 92.4771 38 98Z" fill="black"/>
<path d="M101 182C106.523 182 111 177.523 111 172C111 166.477 106.523 162 101 162C95.4771 162 91 166.477 91 172C91 177.523 95.4771 182 101 182Z" fill="black"/>
<path d="M182 98C182 103.523 177.523 108 172 108C166.477 108 162 103.523 162 98C162 92.4771 166.477 88 172 88C177.523 88 182 92.4771 182 98Z" fill="black"/>
</g>
<path fill-rule="evenodd" clip-rule="evenodd" d="M97 11.9004C90.3174 11.9004 84.9 17.3177 84.9 24.0004C84.9 30.683 90.3174 36.1004 97 36.1004C103.683 36.1004 109.1 30.683 109.1 24.0004C109.1 17.3177 103.683 11.9004 97 11.9004ZM89.1 24.0004C89.1 19.6373 92.6369 16.1004 97 16.1004C101.363 16.1004 104.9 19.6373 104.9 24.0004C104.9 28.3634 101.363 31.9004 97 31.9004C92.6369 31.9004 89.1 28.3634 89.1 24.0004Z" fill="black"/>
<path fill-rule="evenodd" clip-rule="evenodd" d="M24 81.9004C17.3173 81.9004 11.9 87.3177 11.9 94.0004C11.9 100.683 17.3173 106.1 24 106.1C30.6826 106.1 36.1 100.683 36.1 94.0004C36.1 87.3177 30.6826 81.9004 24 81.9004ZM16.1 94.0004C16.1 89.6373 19.6369 86.1004 24 86.1004C28.363 86.1004 31.9 89.6373 31.9 94.0004C31.9 98.3634 28.363 101.9 24 101.9C19.6369 101.9 16.1 98.3634 16.1 94.0004Z" fill="black"/>
<path fill-rule="evenodd" clip-rule="evenodd" d="M97 155.9C90.3174 155.9 84.9 161.318 84.9 168C84.9 174.683 90.3174 180.1 97 180.1C103.683 180.1 109.1 174.683 109.1 168C109.1 161.318 103.683 155.9 97 155.9ZM89.1 168C89.1 163.637 92.6369 160.1 97 160.1C101.363 160.1 104.9 163.637 104.9 168C104.9 172.363 101.363 175.9 97 175.9C92.6369 175.9 89.1 172.363 89.1 168Z" fill="black"/>
<path fill-rule="evenodd" clip-rule="evenodd" d="M155.9 94.0004C155.9 87.3177 161.317 81.9004 168 81.9004C174.683 81.9004 180.1 87.3177 180.1 94.0004C180.1 100.683 174.683 106.1 168 106.1C161.317 106.1 155.9 100.683 155.9 94.0004ZM168 86.1004C163.637 86.1004 160.1 89.6373 160.1 94.0004C160.1 98.3634 163.637 101.9 168 101.9C172.363 101.9 175.9 98.3634 175.9 94.0004C175.9 89.6373 172.363 86.1004 168 86.1004Z" fill="black"/>
<path d="M79.2414 86.5682C80.1074 85.8826 80.2537 84.6247 79.5681 83.7587C78.8825 82.8926 77.6246 82.7464 76.7586 83.432L67.1864 91.0099C64.9352 92.7922 64.9352 96.208 67.1864 97.9902L76.7586 105.568C77.6246 106.254 78.8825 106.108 79.5681 105.241C80.2537 104.375 80.1074 103.118 79.2414 102.432L69.6693 94.854C69.4409 94.6733 69.4409 94.3269 69.6692 94.1461L79.2414 86.5682Z" fill="black"/>
<path d="M110.432 83.7587C109.746 84.6247 109.893 85.8826 110.759 86.5682L120.331 94.1461C120.559 94.3269 120.559 94.6733 120.331 94.854L110.759 102.432C109.893 103.118 109.746 104.375 110.432 105.241C111.118 106.108 112.375 106.254 113.241 105.568L122.814 97.9902C125.065 96.208 125.065 92.7922 122.814 91.0099L113.241 83.432C112.375 82.7464 111.118 82.8926 110.432 83.7587Z" fill="black"/>
<path d="M97.9836 79.2562C98.1249 78.1607 97.3514 77.158 96.256 77.0167C95.1605 76.8753 94.1578 77.6488 94.0164 78.7443L90.0164 109.744C89.8751 110.84 90.6486 111.842 91.7441 111.984C92.8396 112.125 93.8422 111.352 93.9836 110.256L97.9836 79.2562Z" fill="black"/>
<path fill-rule="evenodd" clip-rule="evenodd" d="M47 64.5745C47 60.9435 49.9435 58 53.5745 58H135.426C139.057 58 142 60.9435 142 64.5745V134.782C142 139.417 136.734 142.087 132.996 139.348L118.185 128.498C117.744 128.174 117.211 128 116.664 128H53.5745C49.9435 128 47 125.057 47 121.426V64.5745ZM53.5745 62C52.1526 62 51 63.1526 51 64.5745V121.426C51 122.847 52.1526 124 53.5745 124H116.664C118.061 124 119.422 124.445 120.549 125.271L135.36 136.121C136.456 136.924 138 136.141 138 134.782V64.5745C138 63.1526 136.847 62 135.426 62H53.5745Z" fill="black"/>
<path d="M79.6743 22.5259C79.9363 23.599 79.2789 24.6813 78.2059 24.9434C53.1528 31.0624 33.19 50.1834 25.8791 74.7486C25.564 75.8073 24.4503 76.4101 23.3917 76.095C22.333 75.7799 21.7302 74.6663 22.0453 73.6076C29.7599 47.6861 50.8165 27.5154 77.2568 21.0576C78.3299 20.7955 79.4122 21.4529 79.6743 22.5259Z" fill="black"/>
<path d="M114.905 23.3921C115.221 22.3334 116.334 21.7306 117.393 22.0457C142.111 29.4021 161.598 48.8896 168.955 73.6076C169.27 74.6663 168.667 75.7799 167.608 76.095C166.55 76.4101 165.436 75.8073 165.121 74.7486C158.15 51.3253 139.675 32.8506 116.252 25.8795C115.193 25.5644 114.59 24.4508 114.905 23.3921Z" fill="black"/>
<path d="M22.5255 111.326C23.5985 111.064 24.6808 111.722 24.9429 112.795C31.3464 139.012 51.9882 159.654 78.2059 166.058C79.2789 166.32 79.9363 167.402 79.6743 168.475C79.4122 169.548 78.3299 170.205 77.2568 169.943C49.5889 163.186 27.8148 141.412 21.0571 113.744C20.795 112.671 21.4524 111.588 22.5255 111.326Z" fill="black"/>
<path d="M168.475 111.326C169.548 111.588 170.205 112.671 169.943 113.744C163.485 140.184 143.314 161.241 117.393 168.955C116.334 169.27 115.221 168.667 114.905 167.609C114.59 166.55 115.193 165.436 116.252 165.121C140.817 157.81 159.938 137.848 166.057 112.795C166.319 111.722 167.402 111.064 168.475 111.326Z" fill="black"/>
<path d="M25 18C26.1046 18 27 18.8954 27 20V24H31C32.1046 24 33 24.8954 33 26C33 27.1046 32.1046 28 31 28H27V32C27 33.1046 26.1046 34 25 34C23.8954 34 23 33.1046 23 32V28H19C17.8954 28 17 27.1046 17 26C17 24.8954 17.8954 24 19 24H23V20C23 18.8954 23.8954 18 25 18Z" fill="black"/>
<path d="M184 51L179 46L174 51L179 56L184 51Z" fill="black"/>
<path fill-rule="evenodd" clip-rule="evenodd" d="M156.5 173L165 181.5L156.5 190L148 181.5L156.5 173ZM153.667 181.5L156.5 184.333L159.333 181.5L156.5 178.667L153.667 181.5Z" fill="black"/>
</svg>
