<svg width="48" height="48" viewBox="0 0 48 48" fill="none" xmlns="http://www.w3.org/2000/svg">
<g opacity="0.2">
<path d="M11.5176 20C11.2318 20 11 20.2318 11 20.5176V24.4824C11 24.7682 11.2318 25 11.5176 25H44.4824C44.7682 25 45 24.7682 45 24.4824V20.5176C45 20.2318 44.7682 20 44.4824 20H11.5176Z" fill="black"/>
<path d="M11.5176 33C11.2318 33 11 33.2318 11 33.5176V36.4824C11 36.7682 11.2318 37 11.5176 37H14.4824C14.7682 37 15 36.7682 15 36.4824V33.5176C15 33.2318 14.7682 33 14.4824 33H11.5176Z" fill="black"/>
</g>
<path fill-rule="evenodd" clip-rule="evenodd" d="M9.51765 17H42.4824C43.3205 17 44 17.6795 44 18.5176V22.4824C44 23.3205 43.3205 24 42.4824 24H9.51765C8.67948 24 8 23.3205 8 22.4824V18.5176C8 17.6795 8.67947 17 9.51765 17ZM10 22H42V19H10V22Z" fill="black"/>
<path fill-rule="evenodd" clip-rule="evenodd" d="M8 31.5176C8 30.6795 8.67947 30 9.51765 30H12.4824C13.3205 30 14 30.6795 14 31.5176V34.4824C14 35.3205 13.3205 36 12.4824 36H9.51765C8.67947 36 8 35.3205 8 34.4824V31.5176ZM10 32V34H12V32H10Z" fill="black"/>
<path d="M9 13C8.44771 13 8 13.4477 8 14C8 14.5523 8.44771 15 9 15H17C17.5523 15 18 14.5523 18 14C18 13.4477 17.5523 13 17 13H9Z" fill="black"/>
<path d="M8 27C8 26.4477 8.44771 26 9 26H43C43.5523 26 44 26.4477 44 27C44 27.5523 43.5523 28 43 28H9C8.44771 28 8 27.5523 8 27Z" fill="black"/>
<path d="M17 32C16.4477 32 16 32.4477 16 33C16 33.5523 16.4477 34 17 34H23C23.5523 34 24 33.5523 24 33C24 32.4477 23.5523 32 23 32H17Z" fill="black"/>
<path fill-rule="evenodd" clip-rule="evenodd" d="M4 10.5176C4 9.67948 4.67947 9 5.51765 9H46.4824C47.3206 9 48.0001 9.67947 48.0001 10.5176V38.4705C48.0001 39.3087 47.3206 39.9882 46.4824 39.9882H43.0001V42.4705C43.0001 43.3087 42.3206 43.9882 41.4824 43.9882H1.51765C0.679476 43.9882 0 43.3087 0 42.4705V14.5176C0 13.6795 0.679469 13 1.51765 13H4V10.5176ZM5.51765 39.9882C4.67948 39.9882 4 39.3087 4 38.4705V15H2V41.9882H41.0001V39.9882H5.51765ZM6 11V37.9882H46.0001V11H6Z" fill="black"/>
</svg>
