<svg width="96" height="96" viewBox="0 0 96 96" fill="none" xmlns="http://www.w3.org/2000/svg">
<g opacity="0.2">
<path d="M23 35C22.4477 35 22 35.4477 22 36V42C22 42.5523 22.4477 43 23 43H86C86.5523 43 87 42.5523 87 42V36C87 35.4477 86.5523 35 86 35H23Z" fill="black"/>
<path d="M23 59C22.4477 59 22 59.4477 22 60V66C22 66.5523 22.4477 67 23 67H29C29.5523 67 30 66.5523 30 66V60C30 59.4477 29.5523 59 29 59H23Z" fill="black"/>
</g>
<path fill-rule="evenodd" clip-rule="evenodd" d="M19.5 30C18.1193 30 17 31.1193 17 32.5V38.5C17 39.8807 18.1193 41 19.5 41H82.5C83.8807 41 85 39.8807 85 38.5V32.5C85 31.1193 83.8807 30 82.5 30H19.5ZM20 38V33H82V38H20Z" fill="black"/>
<path fill-rule="evenodd" clip-rule="evenodd" d="M17 56.5C17 55.1193 18.1193 54 19.5 54H25.5C26.8807 54 28 55.1193 28 56.5V62.5C28 63.8807 26.8807 65 25.5 65H19.5C18.1193 65 17 63.8807 17 62.5V56.5ZM20 57V62H25V57H20Z" fill="black"/>
<path d="M18.5 22C17.6716 22 17 22.6716 17 23.5C17 24.3284 17.6716 25 18.5 25H33.5C34.3284 25 35 24.3284 35 23.5C35 22.6716 34.3284 22 33.5 22H18.5Z" fill="black"/>
<path d="M17 48.5C17 47.6716 17.6716 47 18.5 47H83.5C84.3284 47 85 47.6716 85 48.5C85 49.3284 84.3284 50 83.5 50H18.5C17.6716 50 17 49.3284 17 48.5Z" fill="black"/>
<path d="M33.5 58C32.6716 58 32 58.6716 32 59.5C32 60.3284 32.6716 61 33.5 61H45.5C46.3284 61 47 60.3284 47 59.5C47 58.6716 46.3284 58 45.5 58H33.5Z" fill="black"/>
<path fill-rule="evenodd" clip-rule="evenodd" d="M10 17.5C10 16.1193 11.1193 15 12.5 15H90.5C91.8807 15 93 16.1193 93 17.5V71.5C93 72.8807 91.8807 74 90.5 74H87V77.5C87 78.8807 85.8807 80 84.5 80H6.5C5.11929 80 4 78.8807 4 77.5V23.5C4 22.1193 5.11929 21 6.5 21H10V17.5ZM12.5 74C11.1193 74 10 72.8807 10 71.5V24H7V77H84V74H12.5ZM13 18V71H90V18H13Z" fill="black"/>
</svg>
