<svg width="196" height="196" viewBox="0 0 196 196" fill="none" xmlns="http://www.w3.org/2000/svg">
<path opacity="0.07" fill-rule="evenodd" clip-rule="evenodd" d="M30.8444 52.4927C13.4303 73.4617 11.844 121.993 20.8443 140.993C29.8445 159.993 53.5 176.5 65.844 176.993C66.3478 177.013 66.9052 177.037 67.5126 177.063C81.7867 177.681 123.676 179.493 146.844 158.493C170.998 136.599 177.844 112.993 177.844 64.9925C177.845 20.9937 144.708 19.1642 110.476 17.2744C107.363 17.1025 104.241 16.9301 101.134 16.7255C63.8609 14.2708 48.2585 31.5237 30.8444 52.4927ZM49 51.7419C49 50.7799 49.7799 50 50.7419 50H162.258C163.22 50 164 50.7799 164 51.7419V130.258C164 131.22 163.22 132 162.258 132H156V138.258C156 139.22 155.22 140 154.258 140H148V146.258C148 147.22 147.22 148 146.258 148H34.7419C33.7799 148 33 147.22 33 146.258V68.7419C33 67.7799 33.7799 67 34.7419 67H41V60.7419C41 59.7799 41.7799 59 42.7419 59H49V51.7419Z" fill="black"/>
<g opacity="0.2">
<path d="M65.7419 80C64.7799 80 64 80.7799 64 81.7419V90.2581C64 91.2201 64.7799 92 65.7419 92H156.258C157.22 92 158 91.2201 158 90.2581V81.7419C158 80.7799 157.22 80 156.258 80H65.7419Z" fill="black"/>
<path d="M65.7419 115C64.7799 115 64 115.78 64 116.742V124.258C64 125.22 64.7799 126 65.7419 126H73.2581C74.2201 126 75 125.22 75 124.258V116.742C75 115.78 74.2201 115 73.2581 115H65.7419Z" fill="black"/>
</g>
<path fill-rule="evenodd" clip-rule="evenodd" d="M148 21L139 12L130 21L139 30L148 21ZM139 24L136 21L139 18L142 21L139 24Z" fill="black"/>
<path d="M163 32L159 28L155 32L159 36L163 32Z" fill="black"/>
<path d="M41 158C42.1046 158 43 158.895 43 160V164H47C48.1046 164 49 164.895 49 166C49 167.105 48.1046 168 47 168H43V172C43 173.105 42.1046 174 41 174C39.8954 174 39 173.105 39 172V168H35C33.8954 168 33 167.105 33 166C33 164.895 33.8954 164 35 164H39V160C39 158.895 39.8954 158 41 158Z" fill="black"/>
<path fill-rule="evenodd" clip-rule="evenodd" d="M57 76.7419V85.2581C57 87.3247 58.6753 89 60.7419 89H151.258C153.325 89 155 87.3247 155 85.2581V76.7419C155 74.6753 153.325 73 151.258 73H60.7419C58.6753 73 57 74.6753 57 76.7419ZM61 77H151V85H61V77Z" fill="black"/>
<path d="M60 62C58.8954 62 58 62.8954 58 64C58 65.1046 58.8954 66 60 66H81.6379C82.7425 66 83.6379 65.1046 83.6379 64C83.6379 62.8954 82.7425 62 81.6379 62H60Z" fill="black"/>
<path d="M57 98C57 96.8954 57.8954 96 59 96H153C154.105 96 155 96.8954 155 98C155 99.1046 154.105 100 153 100H59C57.8954 100 57 99.1046 57 98Z" fill="black"/>
<path fill-rule="evenodd" clip-rule="evenodd" d="M60.7419 108C58.6753 108 57 109.675 57 111.742V119.258C57 121.325 58.6753 123 60.7419 123H68.2581C70.3247 123 72 121.325 72 119.258V111.742C72 109.675 70.3247 108 68.2581 108H60.7419ZM61 119V112H68V119H61Z" fill="black"/>
<path d="M78 116C78 114.895 78.8954 114 80 114H97.3103C98.4149 114 99.3103 114.895 99.3103 116C99.3103 117.105 98.4149 118 97.3103 118H80C78.8954 118 78 117.105 78 116Z" fill="black"/>
<path fill-rule="evenodd" clip-rule="evenodd" d="M50.7419 48C48.6753 48 47 49.6753 47 51.7419V57H42.7419C40.6753 57 39 58.6753 39 60.7419V65H34.7419C32.6753 65 31 66.6753 31 68.7419V146.258C31 148.325 32.6753 150 34.7419 150H146.258C148.325 150 150 148.325 150 146.258V142H154.258C156.325 142 158 140.325 158 138.258V134H162.258C164.325 134 166 132.325 166 130.258V51.7419C166 49.6753 164.325 48 162.258 48H50.7419ZM154 138H43V61H47V130.258C47 132.325 48.6753 134 50.7419 134H154V138ZM42.7419 142H146V146H35V69H39V138.258C39 140.325 40.6753 142 42.7419 142ZM51 52H162V130H51V52Z" fill="black"/>
</svg>
