<svg width="48" height="48" viewBox="0 0 48 48" fill="none" xmlns="http://www.w3.org/2000/svg">
<path opacity="0.2" d="M21 26.5V38L31 31V19.5L21 26.5Z" fill="black"/>
<path d="M23 15.124C23 15.6763 23.4477 16.124 24 16.124C24.5523 16.124 25 15.6763 25 15.124V12.124C25 11.5717 24.5523 11.124 24 11.124C23.4477 11.124 23 11.5717 23 12.124V15.124Z" fill="black"/>
<path d="M12.9736 28C13.5259 28 13.9736 27.5523 13.9736 27C13.9736 26.4477 13.5259 26 12.9736 26H9.98348C9.43119 26 8.98348 26.4477 8.98348 27C8.98348 27.5523 9.43119 28 9.98348 28H12.9736Z" fill="black"/>
<path d="M38 28C38.5523 28 39 27.5523 39 27C39 26.4477 38.5523 26 38 26H35.0098C34.4576 26 34.0098 26.4477 34.0098 27C34.0098 27.5523 34.4576 28 35.0098 28H38Z" fill="black"/>
<path d="M23.9375 43C23.3852 43 22.9375 42.5523 22.9375 42V39C22.9375 38.4477 23.3852 38 23.9375 38C24.4898 38 24.9375 38.4477 24.9375 39V42C24.9375 42.5523 24.4898 43 23.9375 43Z" fill="black"/>
<path d="M33.24 36.6544C33.6305 37.0449 34.2637 37.0449 34.6542 36.6544C35.0447 36.2638 35.0447 35.6307 34.6542 35.2402L33.9471 34.5331C33.5566 34.1425 32.9234 34.1425 32.5329 34.5331C32.1424 34.9236 32.1424 35.5567 32.5329 35.9473L33.24 36.6544Z" fill="black"/>
<path d="M15.2927 19.7071L14.5856 19C14.1951 18.6095 14.1951 17.9763 14.5856 17.5858C14.9762 17.1953 15.6093 17.1953 15.9998 17.5858L16.707 18.2929C17.0975 18.6834 17.0975 19.3166 16.707 19.7071C16.3164 20.0976 15.6833 20.0976 15.2927 19.7071Z" fill="black"/>
<path d="M13.3461 36.24C12.9556 36.6305 12.9556 37.2637 13.3461 37.6542C13.7366 38.0447 14.3698 38.0447 14.7603 37.6542L15.4674 36.9471C15.858 36.5566 15.858 35.9234 15.4674 35.5329C15.0769 35.1424 14.4437 35.1424 14.0532 35.5329L13.3461 36.24Z" fill="black"/>
<path d="M32.2929 19.414C31.9024 19.0235 31.9024 18.3903 32.2929 17.9998L33 17.2927C33.3905 16.9021 34.0237 16.9021 34.4142 17.2927C34.8047 17.6832 34.8047 18.3164 34.4142 18.7069L33.7071 19.414C33.3166 19.8045 32.6834 19.8045 32.2929 19.414Z" fill="black"/>
<path d="M24.0004 29C25.1049 29 26.0009 28.1046 26.0017 27C26.0024 25.8954 25.1075 25 24.0029 25C22.8984 25 22.0024 25.8954 22.0017 27C22.0009 28.1046 22.8958 29 24.0004 29Z" fill="black"/>
<path fill-rule="evenodd" clip-rule="evenodd" d="M30 18C30 17.6212 29.786 17.275 29.4472 17.1056C29.1084 16.9362 28.703 16.9727 28.4 17.2L18.4 24.7C18.1482 24.8889 18 25.1852 18 25.5V36C18 36.3667 18.2007 36.704 18.523 36.8789C18.8453 37.0538 19.2375 37.0383 19.545 36.8384L29.545 30.3384C29.8288 30.154 30 29.8385 30 29.5V18ZM20 34.1573V26L28 20V28.9573L20 34.1573Z" fill="black"/>
<path fill-rule="evenodd" clip-rule="evenodd" d="M26.4817 8.03614C27.3749 7.31044 27.9459 6.20129 27.9459 4.95834C27.9459 2.77221 26.1795 1 24.0005 1C21.8216 1 20.0552 2.77221 20.0552 4.95834C20.0552 6.20123 20.6261 7.31032 21.5192 8.03602C12.198 9.25548 5 17.2532 5 26.9375C5 37.4655 13.5066 46.0001 24 46.0001C34.4934 46.0001 43 37.4655 43 26.9375C43 17.2535 35.8025 9.25601 26.4817 8.03614ZM25.9459 4.95834C25.9459 6.0461 25.0687 6.91668 24.0005 6.91668C22.9323 6.91668 22.0552 6.0461 22.0552 4.95834C22.0552 3.87058 22.9323 3 24.0005 3C25.0687 3 25.9459 3.87058 25.9459 4.95834ZM24 44.0001C14.6174 44.0001 7 36.3671 7 26.9375C7 17.508 14.6174 9.875 24 9.875C33.3826 9.875 41 17.508 41 26.9375C41 36.3671 33.3826 44.0001 24 44.0001Z" fill="black"/>
</svg>
