<svg width="196" height="196" viewBox="0 0 196 196" fill="none" xmlns="http://www.w3.org/2000/svg">
<path opacity="0.07" fill-rule="evenodd" clip-rule="evenodd" d="M191.381 102.535C191.381 102.535 183.949 67.0798 173.016 52.2408C172.106 51.005 171.11 49.572 170.01 47.9904C159.813 33.3186 140.723 5.85217 98.4913 4.32762C51.7069 2.63872 34.6872 18.8884 20.369 44.5067C6.0507 70.125 -9.13844 121.539 14.251 161.488C37.6404 201.436 143.872 200.351 166.373 168.626C188.874 136.902 191.381 102.535 191.381 102.535ZM106.909 38.5535C141.916 42.9359 169 72.805 169 109C169 148.212 137.212 180 98 180C58.7878 180 27 148.212 27 109C27 72.805 54.0841 42.9359 89.0912 38.5535C85.546 35.8547 83.2568 31.5842 83.2568 26.7778C83.2568 18.6162 89.8576 12 98 12C106.142 12 112.743 18.6162 112.743 26.7778C112.743 31.5842 110.454 35.8547 106.909 38.5535Z" fill="black"/>
<g opacity="0.2">
<path d="M87 139.477V104.494C87 103.868 87.2934 103.278 87.7927 102.9L118.793 79.4284C120.11 78.431 122 79.3706 122 81.0229V116.006C122 116.632 121.707 117.222 121.207 117.6L90.2073 141.072C88.89 142.069 87 141.129 87 139.477Z" fill="black"/>
<path fill-rule="evenodd" clip-rule="evenodd" d="M115 30C115 35.756 111.259 40.6382 106.076 42.3482C141.966 45.8993 170 76.1758 170 113C170 152.212 138.212 184 99 184C59.7878 184 28 152.212 28 113C28 74.4384 58.7416 43.057 97.0542 42.0261C92.3275 40.0802 89 35.4287 89 30C89 22.8203 94.8203 17 102 17C109.18 17 115 22.8203 115 30ZM98.5 173C131.913 173 159 145.913 159 112.5C159 79.0868 131.913 52 98.5 52C65.0868 52 38 79.0868 38 112.5C38 145.913 65.0868 173 98.5 173Z" fill="black"/>
</g>
<path d="M96 72C96 73.1046 96.8954 74 98 74C99.1046 74 100 73.1046 100 72V57.3027C100 56.1981 99.1046 55.3027 98 55.3027C96.8954 55.3027 96 56.1981 96 57.3027V72Z" fill="black"/>
<path d="M61 111C62.1046 111 63 110.105 63 109C63 107.895 62.1046 107 61 107H46.3371C45.2325 107 44.3371 107.895 44.3371 109C44.3371 110.105 45.2325 111 46.3371 111H61Z" fill="black"/>
<path d="M149 111C150.105 111 151 110.105 151 109C151 107.895 150.105 107 149 107H134.337C133.233 107 132.337 107.895 132.337 109C132.337 110.105 133.233 111 134.337 111H149Z" fill="black"/>
<path d="M98 162.475C96.8954 162.475 96 161.58 96 160.475V145.778C96 144.673 96.8954 143.778 98 143.778C99.1046 143.778 100 144.673 100 145.778V160.475C100 161.58 99.1046 162.475 98 162.475Z" fill="black"/>
<path d="M134.414 139.414C133.633 140.195 132.367 140.195 131.586 139.414L125.929 133.757C125.148 132.976 125.148 131.71 125.929 130.929C126.71 130.148 127.976 130.148 128.757 130.929L134.414 136.586C135.195 137.367 135.195 138.633 134.414 139.414Z" fill="black"/>
<path d="M67.5858 84.4142C68.3668 85.1953 69.6332 85.1953 70.4142 84.4142C71.1953 83.6332 71.1953 82.3668 70.4142 81.5858L64.7574 75.9289C63.9763 75.1479 62.71 75.1479 61.9289 75.9289C61.1479 76.71 61.1479 77.9763 61.9289 78.7574L67.5858 84.4142Z" fill="black"/>
<path d="M61.5858 139.414C60.8047 138.633 60.8047 137.367 61.5858 136.586L67.2426 130.929C68.0237 130.148 69.29 130.148 70.0711 130.929C70.8521 131.71 70.8521 132.976 70.0711 133.757L64.4142 139.414C63.6332 140.195 62.3668 140.195 61.5858 139.414Z" fill="black"/>
<path d="M126.586 80.5858C125.805 81.3668 125.805 82.6332 126.586 83.4142C127.367 84.1953 128.633 84.1953 129.414 83.4142L135.071 77.7574C135.852 76.9763 135.852 75.71 135.071 74.9289C134.29 74.1479 133.024 74.1479 132.243 74.9289L126.586 80.5858Z" fill="black"/>
<path fill-rule="evenodd" clip-rule="evenodd" d="M107 107C107 111.971 102.971 116 98 116C93.0294 116 89 111.971 89 107C89 102.029 93.0294 98 98 98C102.971 98 107 102.029 107 107ZM103 107C103 104.239 100.761 102 98 102C95.2386 102 93 104.239 93 107C93 109.761 95.2386 112 98 112C100.761 112 103 109.761 103 107Z" fill="black"/>
<path fill-rule="evenodd" clip-rule="evenodd" d="M116.899 72.2132C117.574 72.5528 118 73.2441 118 74V113C118 113.639 117.694 114.24 117.178 114.616L82.1777 140.116C81.5695 140.56 80.764 140.624 80.0932 140.283C79.4224 139.941 79 139.253 79 138.5V100C79 99.3673 79.2994 98.7718 79.8074 98.3945L114.807 72.3945C115.414 71.9438 116.223 71.8736 116.899 72.2132ZM83 101.006V134.568L114 111.983V77.9772L83 101.006Z" fill="black"/>
<path fill-rule="evenodd" clip-rule="evenodd" d="M158 109C158 142.689 130.913 170 97.5 170C64.0868 170 37 142.689 37 109C37 75.3106 64.0868 48 97.5 48C130.913 48 158 75.3106 158 109ZM154 109C154 77.4887 128.673 52 97.5 52C66.3269 52 41 77.4887 41 109C41 140.511 66.3269 166 97.5 166C128.673 166 154 140.511 154 109Z" fill="black"/>
<path fill-rule="evenodd" clip-rule="evenodd" d="M112.743 26.7778C112.743 31.5842 110.454 35.8547 106.909 38.5535C141.916 42.9359 169 72.805 169 109C169 148.212 137.212 180 98 180C58.7878 180 27 148.212 27 109C27 72.805 54.0841 42.9359 89.0912 38.5535C85.5461 35.8547 83.2568 31.5842 83.2568 26.7778C83.2568 18.6162 89.8576 12 98 12C106.142 12 112.743 18.6162 112.743 26.7778ZM98 37.5556C103.924 37.5556 108.743 32.7391 108.743 26.7778C108.743 20.8165 103.924 16 98 16C92.0756 16 87.2568 20.8165 87.2568 26.7778C87.2568 32.7391 92.0756 37.5556 98 37.5556ZM98 176C135.003 176 165 146.003 165 109C165 71.9969 135.003 42 98 42C60.9969 42 31 71.9969 31 109C31 146.003 60.9969 176 98 176Z" fill="black"/>
<path d="M25 44L21 40L17 44L21 48L25 44Z" fill="black"/>
<path d="M170 40C171.105 40 172 40.8954 172 42V46H176C177.105 46 178 46.8954 178 48C178 49.1046 177.105 50 176 50H172V54C172 55.1046 171.105 56 170 56C168.895 56 168 55.1046 168 54V50H164C162.895 50 162 49.1046 162 48C162 46.8954 162.895 46 164 46H168V42C168 40.8954 168.895 40 170 40Z" fill="black"/>
<path fill-rule="evenodd" clip-rule="evenodd" d="M26.5 167L35 175.5L26.5 184L18 175.5L26.5 167ZM23.6667 175.5L26.5 178.333L29.3333 175.5L26.5 172.667L23.6667 175.5Z" fill="black"/>
</svg>
