<svg width="96" height="96" viewBox="0 0 96 96" fill="none" xmlns="http://www.w3.org/2000/svg">
<g opacity="0.2">
<path d="M42 73V52.5L60 39V59.5L42 73Z" fill="black"/>
<path fill-rule="evenodd" clip-rule="evenodd" d="M57.5 13C57.5 15.798 55.8584 18.2125 53.4859 19.3331C71.5625 21.7679 85.5 37.2563 85.5 56C85.5 76.4345 68.9345 93 48.5 93C28.0655 93 11.5 76.4345 11.5 56C11.5 36.086 27.2323 19.8465 46.9461 19.032C44.8836 17.8142 43.5 15.5687 43.5 13C43.5 9.13401 46.634 6 50.5 6C54.366 6 57.5 9.13401 57.5 13ZM48 87C65.397 87 79.5 72.897 79.5 55.5C79.5 38.103 65.397 24 48 24C30.603 24 16.5 38.103 16.5 55.5C16.5 72.897 30.603 87 48 87Z" fill="black"/>
</g>
<path d="M47.5 37.5C46.6716 37.5 46 36.8284 46 36V28.2139C46 27.3855 46.6716 26.7139 47.5 26.7139C48.3284 26.7139 49 27.3855 49 28.2139V36C49 36.8284 48.3284 37.5 47.5 37.5Z" fill="black"/>
<path d="M74.5 54.5C74.5 55.3284 73.8284 56 73 56H65.2555C64.4271 56 63.7555 55.3284 63.7555 54.5C63.7555 53.6716 64.4271 53 65.2555 53H73C73.8284 53 74.5 53.6716 74.5 54.5Z" fill="black"/>
<path d="M30.5 55.5C30.5 56.3284 29.8284 57 29 57H22C21.1716 57 20.5 56.3284 20.5 55.5C20.5 54.6716 21.1716 54 22 54H29C29.8284 54 30.5 54.6716 30.5 55.5Z" fill="black"/>
<path d="M46 81C46 81.8284 46.6716 82.5 47.5 82.5C48.3284 82.5 49 81.8284 49 81V73.2139C49 72.3855 48.3284 71.7139 47.5 71.7139C46.6716 71.7139 46 72.3855 46 73.2139V81Z" fill="black"/>
<path d="M64.4391 72.5607C65.0249 73.1464 65.9746 73.1464 66.5604 72.5607C67.1462 71.9749 67.1462 71.0251 66.5604 70.4393L64.4391 68.318C63.8533 67.7322 62.9036 67.7322 62.3178 68.318C61.732 68.9038 61.732 69.8536 62.3178 70.4393L64.4391 72.5607Z" fill="black"/>
<path d="M33.5604 40.5607C32.9746 41.1464 32.0249 41.1464 31.4391 40.5607L29.3178 38.4393C28.732 37.8536 28.732 36.9038 29.3178 36.318C29.9036 35.7322 30.8533 35.7322 31.4391 36.318L33.5604 38.4393C34.1462 39.0251 34.1462 39.9749 33.5604 40.5607Z" fill="black"/>
<path d="M28.4393 70.4391C27.8536 71.0249 27.8536 71.9746 28.4393 72.5604C29.0251 73.1462 29.9749 73.1462 30.5607 72.5604L32.682 70.4391C33.2678 69.8533 33.2678 68.9036 32.682 68.3178C32.0962 67.732 31.1464 67.732 30.5607 68.3178L28.4393 70.4391Z" fill="black"/>
<path d="M61.4393 40.5604C60.8536 39.9746 60.8536 39.0249 61.4393 38.4391L63.5607 36.3178C64.1464 35.732 65.0962 35.732 65.682 36.3178C66.2678 36.9036 66.2678 37.8533 65.682 38.4391L63.5607 40.5604C62.9749 41.1462 62.0251 41.1462 61.4393 40.5604Z" fill="black"/>
<path fill-rule="evenodd" clip-rule="evenodd" d="M47.6648 58.7666C50.5816 58.6422 52.8452 56.1769 52.7209 53.2601C52.5965 50.3433 50.1312 48.0796 47.2144 48.204C44.2976 48.3284 42.0339 50.7937 42.1583 53.7105C42.2827 56.6273 44.748 58.8909 47.6648 58.7666ZM47.537 55.7693C46.2756 55.8231 45.2094 54.8441 45.1556 53.5827C45.1018 52.3213 46.0808 51.2551 47.3422 51.2013C48.6036 51.1475 49.6698 52.1265 49.7236 53.3879C49.7774 54.6493 48.7984 55.7155 47.537 55.7693Z" fill="black"/>
<path fill-rule="evenodd" clip-rule="evenodd" d="M58 37.5C58 36.9414 57.6896 36.4291 57.1945 36.1705C56.6995 35.9119 56.1017 35.9497 55.6432 36.2688L37.6432 48.7951C37.2402 49.0755 37 49.5354 37 50.0263V70C37 70.5636 37.3159 71.0796 37.8178 71.3359C38.3197 71.5922 38.9229 71.5456 39.3794 71.2152L57.3794 58.1889C57.7692 57.9068 58 57.4548 58 56.9737V37.5ZM40 67.0629V50.8099L55 40.3713V56.2076L40 67.0629Z" fill="black"/>
<path fill-rule="evenodd" clip-rule="evenodd" d="M47.5 87C65.4493 87 80 72.4492 80 54.5C80 36.5507 65.4493 22 47.5 22C29.5507 22 15 36.5507 15 54.5C15 72.4492 29.5507 87 47.5 87ZM47.5 84C31.2076 84 18 70.7924 18 54.5C18 38.2076 31.2076 25 47.5 25C63.7924 25 77 38.2076 77 54.5C77 70.7924 63.7924 84 47.5 84Z" fill="black"/>
<path fill-rule="evenodd" clip-rule="evenodd" d="M53.3625 16.4435C54.6889 15.0157 55.5 13.1026 55.5 11C55.5 6.58172 51.9183 3 47.5 3C43.0817 3 39.5 6.58172 39.5 11C39.5 13.1026 40.3111 15.0157 41.6375 16.4435C23.1569 19.2669 9 35.2302 9 54.5C9 75.763 26.237 93 47.5 93C68.763 93 86 75.763 86 54.5C86 35.2302 71.8431 19.2669 53.3625 16.4435ZM52.5 11C52.5 13.7614 50.2614 16 47.5 16C44.7386 16 42.5 13.7614 42.5 11C42.5 8.23858 44.7386 6 47.5 6C50.2614 6 52.5 8.23858 52.5 11ZM47.5 19C67.1061 19 83 34.8939 83 54.5C83 74.1061 67.1061 90 47.5 90C27.8939 90 12 74.1061 12 54.5C12 34.8939 27.8939 19 47.5 19Z" fill="black"/>
</svg>
