<svg width="48" height="48" viewBox="0 0 48 48" fill="none" xmlns="http://www.w3.org/2000/svg">
<g opacity="0.2">
<path fill-rule="evenodd" clip-rule="evenodd" d="M39 6C41.4999 6 43.0001 6 43.0001 8V43C43.0001 44.6569 41.6569 46 40.0001 46H11.0001C9.00005 46 9 43.6569 9 42H39V6Z" fill="black"/>
<path d="M20 12C20 14.2091 18.2091 16 16 16C13.7909 16 12 14.2091 12 12C12 9.79086 13.7909 8 16 8C18.2091 8 20 9.79086 20 12Z" fill="black"/>
</g>
<path d="M10 20C9.44771 20 9 20.4477 9 21C9 21.5523 9.44772 22 10 22H34C34.5523 22 35 21.5523 35 21C35 20.4477 34.5523 20 34 20H10Z" fill="black"/>
<path d="M10 25C9.44771 25 9 25.4477 9 26C9 26.5523 9.44772 27 10 27H34C34.5523 27 35 26.5523 35 26C35 25.4477 34.5523 25 34 25H10Z" fill="black"/>
<path d="M10 30C9.44771 30 9 30.4477 9 31C9 31.5523 9.44772 32 10 32H34C34.5523 32 35 31.5523 35 31C35 30.4477 34.5523 30 34 30H10Z" fill="black"/>
<path d="M10 35C9.44771 35 9 35.4477 9 36C9 36.5523 9.44772 37 10 37H34C34.5523 37 35 36.5523 35 36C35 35.4477 34.5523 35 34 35H10Z" fill="black"/>
<path fill-rule="evenodd" clip-rule="evenodd" d="M4 4C4 2.34315 5.34315 1 7 1H37C38.6569 1 40 2.34315 40 4V5H40.9143C42.6185 5 44 6.31191 44 7.93023V44.0698C44 45.6881 42.6185 47 40.9143 47H11.0857C9.38152 47 8 45.6881 8 44.0698V43H7C5.34315 43 4 41.6569 4 40V4ZM10.0571 43V44.0698C10.0571 44.6092 10.5177 45.0465 11.0857 45.0465H40.9143C41.4824 45.0465 41.9429 44.6092 41.9429 44.0698V7.93023C41.9429 7.39079 41.4824 6.95349 40.9143 6.95349H40V40C40 41.6569 38.6569 43 37 43H10.0571ZM7 3C6.44772 3 6 3.44772 6 4V40C6 40.5523 6.44772 41 7 41H37C37.5523 41 38 40.5523 38 40V4C38 3.44772 37.5523 3 37 3H7Z" fill="black"/>
<path fill-rule="evenodd" clip-rule="evenodd" d="M13.5 13C12.1193 13 11 11.8807 11 10.5C11 9.11929 12.1193 8 13.5 8C14.8807 8 16 9.11929 16 10.5C16 11.8807 14.8807 13 13.5 13ZM13.5 15C15.9853 15 18 12.9853 18 10.5C18 8.01472 15.9853 6 13.5 6C11.0147 6 9 8.01472 9 10.5C9 12.9853 11.0147 15 13.5 15Z" fill="black"/>
</svg>
