<svg width="96" height="96" viewBox="0 0 96 96" fill="none" xmlns="http://www.w3.org/2000/svg">
<g opacity="0.2">
<path fill-rule="evenodd" clip-rule="evenodd" d="M76.5 86.5C78.1569 86.5 79.5 85.1569 79.5 83.5V9C82.8137 9 87 9.68629 87 13V88C87 91.3137 84.3137 94 81 94H20C16.6863 94 16.5 91 16.5 86.5H76.5Z" fill="black"/>
<path d="M36 21C36 24.866 32.866 28 29 28C25.134 28 22 24.866 22 21C22 17.134 25.134 14 29 14C32.866 14 36 17.134 36 21Z" fill="black"/>
</g>
<path fill-rule="evenodd" clip-rule="evenodd" d="M25 26C29.4183 26 33 22.4183 33 18C33 13.5817 29.4183 10 25 10C20.5817 10 17 13.5817 17 18C17 22.4183 20.5817 26 25 26ZM25 13C27.7614 13 30 15.2386 30 18C30 20.7614 27.7614 23 25 23C22.2386 23 20 20.7614 20 18C20 15.2386 22.2386 13 25 13Z" fill="black"/>
<path d="M19.5 43C18.6716 43 18 43.6716 18 44.5C18 45.3284 18.6716 46 19.5 46H69.5C70.3284 46 71 45.3284 71 44.5C71 43.6716 70.3284 43 69.5 43H19.5Z" fill="black"/>
<path d="M19.5 53C18.6716 53 18 53.6716 18 54.5C18 55.3284 18.6716 56 19.5 56H69.5C70.3284 56 71 55.3284 71 54.5C71 53.6716 70.3284 53 69.5 53H19.5Z" fill="black"/>
<path d="M19.5 63C18.6716 63 18 63.6716 18 64.5C18 65.3284 18.6716 66 19.5 66H69.5C70.3284 66 71 65.3284 71 64.5C71 63.6716 70.3284 63 69.5 63H19.5Z" fill="black"/>
<path d="M19.5 73C18.6716 73 18 73.6716 18 74.5C18 75.3284 18.6716 76 19.5 76H69.5C70.3284 76 71 75.3284 71 74.5C71 73.6716 70.3284 73 69.5 73H19.5Z" fill="black"/>
<path fill-rule="evenodd" clip-rule="evenodd" d="M8 5.5C8 3.01472 10.0147 1 12.5 1H76.5C78.9853 1 81 3.01472 81 5.5V8H83.5C85.9853 8 88 10.0147 88 12.5V90.5C88 92.9853 85.9853 95 83.5 95H19.5C17.0147 95 15 92.9853 15 90.5V88H12.5C10.0147 88 8 85.9853 8 83.5V5.5ZM18 88V90.5C18 91.3284 18.6716 92 19.5 92H83.5C84.3284 92 85 91.3284 85 90.5V12.5C85 11.6716 84.3284 11 83.5 11H81V83.5C81 85.9853 78.9853 88 76.5 88H18ZM12.5 4C11.6716 4 11 4.67157 11 5.5V83.5C11 84.3284 11.6716 85 12.5 85H76.5C77.3284 85 78 84.3284 78 83.5V5.5C78 4.67157 77.3284 4 76.5 4H12.5Z" fill="black"/>
</svg>
