<svg width="48" height="48" viewBox="0 0 48 48" fill="none" xmlns="http://www.w3.org/2000/svg">
<path opacity="0.2" fill-rule="evenodd" clip-rule="evenodd" d="M9 5.9871C9 5.43481 9.44772 5 10 5H39.0001C40.6569 5 42.0001 6.34315 42.0001 8V44C42.0001 45.6569 40.6569 47 39.0001 47H12.0001C10.3432 47 9.00006 45.6569 9.00006 44C9.00006 40.6193 9.00001 11.7222 9 5.9871Z" fill="black"/>
<path d="M14 13C15.6569 13 17 11.6569 17 10C17 8.34315 15.6569 7 14 7C12.3431 7 11 8.34315 11 10C11 11.6569 12.3431 13 14 13Z" fill="black"/>
<path d="M10 23C10 22.4477 10.4477 22 11 22H34C34.5523 22 35 22.4477 35 23C35 23.5523 34.5523 24 34 24H11C10.4477 24 10 23.5523 10 23Z" fill="black"/>
<path d="M11 27C10.4477 27 10 27.4477 10 28C10 28.5523 10.4477 29 11 29H34C34.5523 29 35 28.5523 35 28C35 27.4477 34.5523 27 34 27H11Z" fill="black"/>
<path d="M10 33C10 32.4477 10.4477 32 11 32H34C34.5523 32 35 32.4477 35 33C35 33.5523 34.5523 34 34 34H11C10.4477 34 10 33.5523 10 33Z" fill="black"/>
<path d="M11 37C10.4477 37 10 37.4477 10 38C10 38.5523 10.4477 39 11 39H34C34.5523 39 35 38.5523 35 38C35 37.4477 34.5523 37 34 37H11Z" fill="black"/>
<path fill-rule="evenodd" clip-rule="evenodd" d="M8 1C6.34315 1 5 2.34315 5 4V42C5 43.6569 6.34315 45 8 45H37C38.6569 45 40 43.6569 40 42V4C40 2.34315 38.6569 1 37 1H8ZM7 4C7 3.44772 7.44772 3 8 3H37C37.5523 3 38 3.44772 38 4V42C38 42.5523 37.5523 43 37 43H8C7.44772 43 7 42.5523 7 42V4Z" fill="black"/>
</svg>
