<svg width="196" height="196" viewBox="0 0 196 196" fill="none" xmlns="http://www.w3.org/2000/svg">
<path opacity="0.07" d="M52 179C48.209 178.165 5.8235 169.334 9.17625 113.877C12.529 58.419 17.2914 38.6017 35 32.5C52.7086 26.3983 112.721 3.04669 146.5 30.5C180.279 57.9533 201.464 82.165 187 126C172.536 169.835 166.239 186.737 128.5 184.5C90.7612 182.263 70.0264 182.969 52 179Z" fill="black"/>
<path opacity="0.2" fill-rule="evenodd" clip-rule="evenodd" d="M48 45.9378C48 43.7286 49.7909 42 52 42H145.06C150.55 42 155 46.434 155 51.9036V166.096C155 171.566 150.55 176 145.06 176H57.9405C52.4506 176 48.0002 171.566 48.0002 166.096C48.0002 155.093 48 65.8669 48 45.9378Z" fill="black"/>
<path fill-rule="evenodd" clip-rule="evenodd" d="M124.875 17.2333L116.39 8.74805L107.904 17.2333L116.39 25.7186L124.875 17.2333ZM116.39 20.0618L113.561 17.2333L116.39 14.4049L119.218 17.2333L116.39 20.0618Z" fill="black"/>
<path d="M185 134C185 132.895 184.105 132 183 132C181.895 132 181 132.895 181 134V138H177C175.895 138 175 138.895 175 140C175 141.105 175.895 142 177 142H181V146C181 147.105 181.895 148 183 148C184.105 148 185 147.105 185 146V142H189C190.105 142 191 141.105 191 140C191 138.895 190.105 138 189 138H185V134Z" fill="black"/>
<path d="M12 71C13.1046 71 14 71.8954 14 73V77H18C19.1046 77 20 77.8954 20 79C20 80.1046 19.1046 81 18 81H14V85C14 86.1046 13.1046 87 12 87C10.8954 87 10 86.1046 10 85V81H6C4.89543 81 4 80.1046 4 79C4 77.8954 4.89543 77 6 77H10V73C10 71.8954 10.8954 71 12 71Z" fill="black"/>
<path fill-rule="evenodd" clip-rule="evenodd" d="M65 70C71.6274 70 77 64.6274 77 58C77 51.3726 71.6274 46 65 46C58.3726 46 53 51.3726 53 58C53 64.6274 58.3726 70 65 70ZM65 66C60.5817 66 57 62.4183 57 58C57 53.5817 60.5817 50 65 50C69.4183 50 73 53.5817 73 58C73 62.4183 69.4183 66 65 66Z" fill="black"/>
<path d="M54 97C54 95.8954 54.8954 95 56 95H131C132.105 95 133 95.8954 133 97C133 98.1046 132.105 99 131 99H56C54.8954 99 54 98.1046 54 97Z" fill="black"/>
<path d="M54 114C54 112.895 54.8954 112 56 112H131C132.105 112 133 112.895 133 114C133 115.105 132.105 116 131 116H56C54.8954 116 54 115.105 54 114Z" fill="black"/>
<path d="M54 131C54 129.895 54.8954 129 56 129H131C132.105 129 133 129.895 133 131C133 132.105 132.105 133 131 133H56C54.8954 133 54 132.105 54 131Z" fill="black"/>
<path d="M54 148C54 146.895 54.8954 146 56 146H131C132.105 146 133 146.895 133 148C133 149.105 132.105 150 131 150H56C54.8954 150 54 149.105 54 148Z" fill="black"/>
<path fill-rule="evenodd" clip-rule="evenodd" d="M46 32C42.134 32 39 35.134 39 39V160C39 163.866 42.134 167 46 167H49V170C49 173.866 52.134 177 56 177H150C153.866 177 157 173.866 157 170V49C157 45.134 153.866 42 150 42H147V39C147 35.134 143.866 32 140 32H46ZM147 46H150C151.657 46 153 47.3431 153 49V170C153 171.657 151.657 173 150 173H56C54.3431 173 53 171.657 53 170V167H140C143.866 167 147 163.866 147 160V46ZM43 39C43 37.3431 44.3431 36 46 36H140C141.657 36 143 37.3431 143 39V160C143 161.657 141.657 163 140 163H46C44.3431 163 43 161.657 43 160V39Z" fill="black"/>
</svg>
