<svg width="196" height="196" viewBox="0 0 196 196" fill="none" xmlns="http://www.w3.org/2000/svg">
<path opacity="0.07" d="M52 179C48.209 178.165 5.8235 169.334 9.17625 113.877C12.529 58.419 17.2914 38.6017 35 32.5C52.7086 26.3983 112.721 3.04669 146.5 30.5C180.279 57.9533 201.464 82.165 187 126C172.536 169.835 166.239 186.737 128.5 184.5C90.7612 182.263 70.0264 182.97 52 179Z" fill="black"/>
<path opacity="0.2" fill-rule="evenodd" clip-rule="evenodd" d="M52 47.9429C52 45.7337 53.7909 44 56 44H142.06C147.55 44 152 48.434 152 53.9036V165.096C152 170.566 147.55 175 142.06 175H61.9405C56.4506 175 52.0002 170.566 52.0002 165.096C52.0002 154.113 52 67.5572 52 47.9429Z" fill="black"/>
<path fill-rule="evenodd" clip-rule="evenodd" d="M124.875 17.2333L116.39 8.74805L107.904 17.2333L116.39 25.7186L124.875 17.2333ZM116.39 20.0618L113.561 17.2333L116.39 14.4049L119.218 17.2333L116.39 20.0618Z" fill="black"/>
<path d="M185 134C185 132.895 184.105 132 183 132C181.895 132 181 132.895 181 134V138H177C175.895 138 175 138.895 175 140C175 141.105 175.895 142 177 142H181V146C181 147.105 181.895 148 183 148C184.105 148 185 147.105 185 146V142H189C190.105 142 191 141.105 191 140C191 138.895 190.105 138 189 138H185V134Z" fill="black"/>
<path d="M14 73C14 71.8954 13.1046 71 12 71C10.8954 71 10 71.8954 10 73V77H6C4.89543 77 4 77.8954 4 79C4 80.1046 4.89543 81 6 81H10V85C10 86.1046 10.8954 87 12 87C13.1046 87 14 86.1046 14 85V81H18C19.1046 81 20 80.1046 20 79C20 77.8954 19.1046 77 18 77H14V73Z" fill="black"/>
<path fill-rule="evenodd" clip-rule="evenodd" d="M68 72C74.6274 72 80 66.6274 80 60C80 53.3726 74.6274 48 68 48C61.3726 48 56 53.3726 56 60C56 66.6274 61.3726 72 68 72ZM68 68C63.5817 68 60 64.4183 60 60C60 55.5817 63.5817 52 68 52C72.4183 52 76 55.5817 76 60C76 64.4183 72.4183 68 68 68Z" fill="black"/>
<path d="M59 97C57.8954 97 57 97.8954 57 99C57 100.105 57.8954 101 59 101H130C131.105 101 132 100.105 132 99C132 97.8954 131.105 97 130 97H59Z" fill="black"/>
<path d="M57 116C57 114.895 57.8954 114 59 114H130C131.105 114 132 114.895 132 116C132 117.105 131.105 118 130 118H59C57.8954 118 57 117.105 57 116Z" fill="black"/>
<path d="M59 131C57.8954 131 57 131.895 57 133C57 134.105 57.8954 135 59 135H130C131.105 135 132 134.105 132 133C132 131.895 131.105 131 130 131H59Z" fill="black"/>
<path d="M57 150C57 148.895 57.8954 148 59 148H130C131.105 148 132 148.895 132 150C132 151.105 131.105 152 130 152H59C57.8954 152 57 151.105 57 150Z" fill="black"/>
<path fill-rule="evenodd" clip-rule="evenodd" d="M42 41C42 37.134 45.134 34 49 34H139C142.866 34 146 37.134 146 41V162C146 165.866 142.866 169 139 169H49C45.134 169 42 165.866 42 162V41ZM49 38C47.3431 38 46 39.3431 46 41V162C46 163.657 47.3431 165 49 165H139C140.657 165 142 163.657 142 162V41C142 39.3431 140.657 38 139 38H49Z" fill="black"/>
</svg>
