<svg width="96" height="96" viewBox="0 0 96 96" fill="none" xmlns="http://www.w3.org/2000/svg">
<path opacity="0.2" fill-rule="evenodd" clip-rule="evenodd" d="M20 12.9999C20 11.3431 21.3431 10 23 10H81C84.3137 10 87 12.6863 87 16V87C87 90.3137 84.3137 93 81 93H26.0001C22.6864 93 20.0001 90.3137 20.0001 87C20.0001 80.4276 20 26.4022 20 12.9999Z" fill="black"/>
<path fill-rule="evenodd" clip-rule="evenodd" d="M38 20C38 24.4183 34.4183 28 30 28C25.5817 28 22 24.4183 22 20C22 15.5817 25.5817 12 30 12C34.4183 12 38 15.5817 38 20ZM35 20C35 17.2386 32.7614 15 30 15C27.2386 15 25 17.2386 25 20C25 22.7614 27.2386 25 30 25C32.7614 25 35 22.7614 35 20Z" fill="black"/>
<path d="M23 45.5C23 44.6716 23.6716 44 24.5 44H71.5C72.3284 44 73 44.6716 73 45.5C73 46.3284 72.3284 47 71.5 47H24.5C23.6716 47 23 46.3284 23 45.5Z" fill="black"/>
<path d="M24.5 54C23.6716 54 23 54.6716 23 55.5C23 56.3284 23.6716 57 24.5 57H71.5C72.3284 57 73 56.3284 73 55.5C73 54.6716 72.3284 54 71.5 54H24.5Z" fill="black"/>
<path d="M23 65.5C23 64.6716 23.6716 64 24.5 64H71.5C72.3284 64 73 64.6716 73 65.5C73 66.3284 72.3284 67 71.5 67H24.5C23.6716 67 23 66.3284 23 65.5Z" fill="black"/>
<path d="M24.5 74C23.6716 74 23 74.6716 23 75.5C23 76.3284 23.6716 77 24.5 77H71.5C72.3284 77 73 76.3284 73 75.5C73 74.6716 72.3284 74 71.5 74H24.5Z" fill="black"/>
<path fill-rule="evenodd" clip-rule="evenodd" d="M17.5 3C15.0147 3 13 5.01472 13 7.5V84.5C13 86.9853 15.0147 89 17.5 89H78.5C80.9853 89 83 86.9853 83 84.5V7.5C83 5.01472 80.9853 3 78.5 3H17.5ZM16 7.5C16 6.67157 16.6716 6 17.5 6H78.5C79.3284 6 80 6.67157 80 7.5V84.5C80 85.3284 79.3284 86 78.5 86H17.5C16.6716 86 16 85.3284 16 84.5V7.5Z" fill="black"/>
</svg>
