<svg width="96" height="96" viewBox="0 0 96 96" fill="none" xmlns="http://www.w3.org/2000/svg">
<g opacity="0.2">
<path d="M44.8359 17.2963L6.84375 32.4643C6.22237 32.7123 6.20271 33.5847 6.81229 33.8605L44.7918 51.0452C44.9922 51.1358 45.2221 51.1351 45.4219 51.0432L77.4377 36.3129L84.2953 33.1052C84.9053 32.8199 84.8691 31.9405 84.2377 31.7063L45.3813 17.2896C45.2049 17.2242 45.0106 17.2265 44.8359 17.2963Z" fill="black"/>
<path d="M42.6887 81.817L11.4117 65.7123C11.159 65.5822 11.0002 65.3218 11.0002 65.0376V47.7276C11.0002 47.1636 11.5935 46.7967 12.0981 47.0486L42.6955 62.326C42.9147 62.4355 43.1733 62.4324 43.3898 62.3177L75.3235 45.4031C75.8289 45.1353 76.4377 45.5018 76.4377 46.0737V63.4856C76.4377 63.7643 76.2849 64.0205 76.0398 64.1531L43.3972 81.8098C43.1767 81.9291 42.9115 81.9318 42.6887 81.817Z" fill="black"/>
<path d="M86.3264 66.8911L82.2011 78.7245C81.9717 79.3824 82.536 80.0437 83.2218 79.9207L90.9196 78.5404C91.4688 78.4419 91.8011 77.8773 91.6207 77.3494L88.0482 66.8964C87.7683 66.0775 86.6113 66.0739 86.3264 66.8911Z" fill="black"/>
</g>
<path d="M42.4393 15.6077L6.32956 30.0242L42.4146 46.3516L74.1232 31.7627C74.8758 31.4164 75.7666 31.7458 76.1129 32.4984C76.4591 33.251 76.1297 34.1418 75.3771 34.4881L43.3614 49.2183C42.7666 49.492 42.0824 49.4941 41.486 49.2242L3.50645 32.0396C1.69206 31.2186 1.75057 28.622 3.60009 27.8836L41.5921 12.7157C42.1123 12.508 42.6911 12.501 43.2161 12.696L85.5277 28.4105C86.4129 28.7392 87.0002 29.5839 87.0002 30.5281V54.5004C87.0002 55.3288 86.3286 56.0004 85.5002 56.0004C84.6717 56.0004 84.0002 55.3288 84.0002 54.5004V31.0434L42.4393 15.6077Z" fill="black"/>
<path fill-rule="evenodd" clip-rule="evenodd" d="M6 41.7813C6 40.109 7.75391 39.0165 9.2549 39.7538L42.0952 55.8859L73.7162 39.7879C75.2191 39.0228 77 40.1145 77 41.8009V59.2356C77 60.0651 76.5454 60.8279 75.8158 61.2225L43.1755 78.8779C42.5154 79.235 41.7209 79.2409 41.0556 78.8936L7.21373 61.2306C6.46774 60.8412 6 60.0695 6 59.228V41.7813ZM9 42.971V58.7788L42.0946 76.0519L74 58.7939V43.0098L43.1259 58.7275C42.4921 59.0502 41.7434 59.0555 41.1051 58.7419L9 42.971Z" fill="black"/>
<path fill-rule="evenodd" clip-rule="evenodd" d="M87.7794 61.4741C87.0385 59.3063 83.976 59.297 83.2218 61.4601L79.0965 73.2935C78.4894 75.035 79.983 76.7854 81.7983 76.4599L89.4962 75.0796C90.9498 74.819 91.8294 73.3245 91.3519 71.9271L87.7794 61.4741ZM82.2612 73.3291L85.4927 64.0597L88.2911 72.2478L82.2612 73.3291Z" fill="black"/>
</svg>
