<svg width="196" height="196" viewBox="0 0 196 196" fill="none" xmlns="http://www.w3.org/2000/svg">
<path opacity="0.07" d="M20.616 145.639C8.80005 114.256 -0.606174 63.9954 26.1757 27.7669C49.7093 -4.06773 144.644 -0.543812 169.949 40.313C195.255 81.1698 189.697 135.187 174.785 160.951C159.872 186.716 111.897 199.187 74.5795 186.058C37.2618 172.928 26.421 161.057 20.616 145.639Z" fill="black"/>
<g opacity="0.2">
<path d="M92.9701 45.1531L26.4373 72.3018C25.3577 72.7424 25.3292 74.2609 26.3916 74.7416L92.8792 104.825C93.2335 104.986 93.6401 104.983 93.992 104.817L162.039 72.8151C163.104 72.3141 163.04 70.7775 161.936 70.368L93.9339 45.1376C93.6221 45.0219 93.2781 45.0275 92.9701 45.1531Z" fill="black"/>
<path d="M91.3688 157.136L36.7091 128.342C36.273 128.112 36 127.66 36 127.167V96.6788C36 95.6843 37.0528 95.0426 37.9368 95.4983L89.9748 122.329C90.3537 122.525 90.8034 122.526 91.1837 122.334L153.072 90.9768C153.955 90.5291 155 91.1711 155 92.1615V122.182C155 122.667 154.735 123.113 154.31 123.346L92.6257 157.126C92.235 157.34 91.763 157.344 91.3688 157.136Z" fill="black"/>
<path d="M168.571 130.558L161.352 151.267C160.95 152.418 161.938 153.575 163.138 153.36L176.609 150.945C177.57 150.772 178.152 149.784 177.836 148.86L171.584 130.568C171.094 129.135 169.07 129.128 168.571 130.558Z" fill="black"/>
</g>
<path d="M38 13C39.1046 13 40 13.8954 40 15V19H44C45.1046 19 46 19.8954 46 21C46 22.1046 45.1046 23 44 23H40V27C40 28.1046 39.1046 29 38 29C36.8954 29 36 28.1046 36 27V23H32C30.8954 23 30 22.1046 30 21C30 19.8954 30.8954 19 32 19H36V15C36 13.8954 36.8954 13 38 13Z" fill="black"/>
<path d="M90.8858 40.1428L26.1059 66.0054L90.8525 95.3014L146.602 69.6516C147.605 69.1899 148.793 69.6291 149.254 70.6326C149.716 71.636 149.277 72.8238 148.274 73.2854L92.2459 99.0634C91.3697 99.4666 90.3616 99.4697 89.4828 99.0721L23.0187 68.999C20.3455 67.7894 20.4317 63.9638 23.1566 62.8759L89.6429 36.332C90.409 36.0261 91.2613 36.0156 92.0346 36.3026L165.861 63.6939C167.166 64.178 168.031 65.4227 168.031 66.8142V108.656C168.031 109.761 167.136 110.656 166.031 110.656C164.927 110.656 164.031 109.761 164.031 108.656V67.2816L90.8858 40.1428Z" fill="black"/>
<path fill-rule="evenodd" clip-rule="evenodd" d="M28 86.6165C28 84.1527 30.5841 82.543 32.7955 83.6293L90.5465 111.998L146.162 83.685C148.376 82.5577 151 84.1662 151 86.6509V117.162C151 118.384 150.33 119.507 149.255 120.089L92.1348 150.986C91.1622 151.512 89.9918 151.521 89.0115 151.009L29.7882 120.099C28.6891 119.525 28 118.388 28 117.148V86.6165ZM32 87.6951V116.741L90.5457 147.298L147 116.761V87.7468L92.0618 115.715C91.1281 116.191 90.025 116.199 89.0845 115.737L32 87.6951Z" fill="black"/>
<path fill-rule="evenodd" clip-rule="evenodd" d="M169.756 122.013C168.652 118.782 164.086 118.768 162.962 121.992L155.743 142.701C154.838 145.297 157.064 147.906 159.77 147.421L173.242 145.005C175.409 144.617 176.72 142.389 176.008 140.306L169.756 122.013ZM159.749 143.361L166.352 124.42L172.07 141.152L159.749 143.361Z" fill="black"/>
<path fill-rule="evenodd" clip-rule="evenodd" d="M56 167.5L47.5 159L39 167.5L47.5 176L56 167.5ZM47.5 170.333L44.6667 167.5L47.5 164.667L50.3333 167.5L47.5 170.333Z" fill="black"/>
</svg>
