<svg width="96" height="96" viewBox="0 0 96 96" fill="none" xmlns="http://www.w3.org/2000/svg">
<g opacity="0.2">
<path d="M8 12C8 9.79086 9.79086 8 12 8H91C93.2091 8 95 9.79086 95 12V30C95 32.2091 93.2091 34 91 34H12C9.79086 34 8 32.2091 8 30V12Z" fill="black"/>
<path d="M8 45C8 42.7909 9.79086 41 12 41H91C93.2091 41 95 42.7909 95 45V63C95 65.2091 93.2091 67 91 67H12C9.79086 67 8 65.2091 8 63V45Z" fill="black"/>
<path d="M4 78.625C4 79.4534 3.32843 80.125 2.5 80.125C1.67157 80.125 1 79.4534 1 78.625V75.5C1 73.0147 3.01472 71 5.5 71H7.94048C8.7689 71 9.44048 71.6716 9.44048 72.5C9.44048 73.3284 8.7689 74 7.94048 74H5.5C4.67157 74 4 74.6716 4 75.5V78.625Z" fill="black"/>
<path d="M13.2738 72.5C13.2738 71.6716 13.9454 71 14.7738 71H19.6548C20.4832 71 21.1548 71.6716 21.1548 72.5C21.1548 73.3284 20.4832 74 19.6548 74H14.7738C13.9454 74 13.2738 73.3284 13.2738 72.5Z" fill="black"/>
<path d="M24.9881 72.5C24.9881 71.6716 25.6597 71 26.4881 71H31.369C32.1975 71 32.869 71.6716 32.869 72.5C32.869 73.3284 32.1975 74 31.369 74H26.4881C25.6597 74 24.9881 73.3284 24.9881 72.5Z" fill="black"/>
<path d="M36.7024 72.5C36.7024 71.6716 37.374 71 38.2024 71H43.0833C43.9118 71 44.5833 71.6716 44.5833 72.5C44.5833 73.3284 43.9118 74 43.0833 74H38.2024C37.374 74 36.7024 73.3284 36.7024 72.5Z" fill="black"/>
<path d="M48.4167 72.5C48.4167 71.6716 49.0882 71 49.9167 71H54.7976C55.626 71 56.2976 71.6716 56.2976 72.5C56.2976 73.3284 55.626 74 54.7976 74H49.9167C49.0882 74 48.4167 73.3284 48.4167 72.5Z" fill="black"/>
<path d="M60.1309 72.5C60.1309 71.6716 60.8025 71 61.6309 71H66.5119C67.3403 71 68.0119 71.6716 68.0119 72.5C68.0119 73.3284 67.3403 74 66.5119 74H61.6309C60.8025 74 60.1309 73.3284 60.1309 72.5Z" fill="black"/>
<path d="M71.8452 72.5C71.8452 71.6716 72.5168 71 73.3452 71H78.2262C79.0546 71 79.7262 71.6716 79.7262 72.5C79.7262 73.3284 79.0546 74 78.2262 74H73.3452C72.5168 74 71.8452 73.3284 71.8452 72.5Z" fill="black"/>
<path d="M83.5595 72.5C83.5595 71.6716 84.2311 71 85.0595 71H87.5C89.8839 71 91.8348 72.8537 91.99 75.1984C91.9966 75.2982 92 75.3988 92 75.5V78.625C92 79.4534 91.3284 80.125 90.5 80.125C89.6716 80.125 89 79.4534 89 78.625V75.5C89 75.4786 88.9996 75.4573 88.9987 75.4362C88.9667 74.6724 88.3636 74.0561 87.6052 74.0036C87.5706 74.0012 87.5355 74 87.5 74H85.0595C84.2311 74 83.5595 73.3284 83.5595 72.5Z" fill="black"/>
<path d="M2.5 85.875C3.32843 85.875 4 86.5466 4 87.375V90.5C4 90.5107 4.00011 90.5214 4.00033 90.532C4.01703 91.3298 4.65652 91.9744 5.45221 91.9993C5.46806 91.9998 5.48399 92 5.5 92H7.94048C8.76891 92 9.44048 92.6716 9.44048 93.5C9.44048 94.3284 8.76891 95 7.94048 95H5.5C5.46853 95 5.43712 94.9997 5.40578 94.999C2.964 94.9489 1 92.9538 1 90.5V87.375C1 86.5466 1.67157 85.875 2.5 85.875Z" fill="black"/>
<path d="M90.5 85.875C91.3284 85.875 92 86.5466 92 87.375V90.5C92 90.5629 91.9987 90.6256 91.9961 90.688C91.9017 92.9848 90.0859 94.8373 87.8045 94.9898C87.7038 94.9966 87.6022 95 87.5 95H85.0595C84.2311 95 83.5595 94.3284 83.5595 93.5C83.5595 92.6716 84.2311 92 85.0595 92H87.5C87.5214 92 87.5427 91.9996 87.5638 91.9987C88.329 91.9667 88.9461 91.3613 88.9967 90.6011C88.9989 90.5678 89 90.5341 89 90.5V87.375C89 86.5466 89.6716 85.875 90.5 85.875Z" fill="black"/>
<path d="M13.2738 93.5C13.2738 92.6716 13.9454 92 14.7738 92H19.6548C20.4832 92 21.1548 92.6716 21.1548 93.5C21.1548 94.3284 20.4832 95 19.6548 95H14.7738C13.9454 95 13.2738 94.3284 13.2738 93.5Z" fill="black"/>
<path d="M24.9881 93.5C24.9881 92.6716 25.6597 92 26.4881 92H31.3691C32.1975 92 32.8691 92.6716 32.8691 93.5C32.8691 94.3284 32.1975 95 31.3691 95H26.4881C25.6597 95 24.9881 94.3284 24.9881 93.5Z" fill="black"/>
<path d="M36.7024 93.5C36.7024 92.6716 37.374 92 38.2024 92H43.0833C43.9118 92 44.5833 92.6716 44.5833 93.5C44.5833 94.3284 43.9118 95 43.0833 95H38.2024C37.374 95 36.7024 94.3284 36.7024 93.5Z" fill="black"/>
<path d="M48.4167 93.5C48.4167 92.6716 49.0882 92 49.9167 92H54.7976C55.626 92 56.2976 92.6716 56.2976 93.5C56.2976 94.3284 55.626 95 54.7976 95H49.9167C49.0882 95 48.4167 94.3284 48.4167 93.5Z" fill="black"/>
<path d="M60.131 93.5C60.131 92.6716 60.8025 92 61.631 92H66.5119C67.3403 92 68.0119 92.6716 68.0119 93.5C68.0119 94.3284 67.3403 95 66.5119 95H61.631C60.8025 95 60.131 94.3284 60.131 93.5Z" fill="black"/>
<path d="M71.8452 93.5C71.8452 92.6716 72.5168 92 73.3452 92H78.2262C79.0546 92 79.7262 92.6716 79.7262 93.5C79.7262 94.3284 79.0546 95 78.2262 95H73.3452C72.5168 95 71.8452 94.3284 71.8452 93.5Z" fill="black"/>
</g>
<path d="M14.5 18C15.8807 18 17 16.8807 17 15.5C17 14.1193 15.8807 13 14.5 13C13.1193 13 12 14.1193 12 15.5C12 16.8807 13.1193 18 14.5 18Z" fill="black"/>
<path d="M23 15.5C23 14.6716 23.6716 14 24.5 14H81.5C82.3284 14 83 14.6716 83 15.5C83 16.3284 82.3284 17 81.5 17H24.5C23.6716 17 23 16.3284 23 15.5Z" fill="black"/>
<path fill-rule="evenodd" clip-rule="evenodd" d="M5.5 1C3.01472 1 1 3.01472 1 5.5V25.5C1 27.9853 3.01472 30 5.5 30H86.5C88.9853 30 91 27.9853 91 25.5V5.5C91 3.01472 88.9853 1 86.5 1H5.5ZM4 5.5C4 4.67157 4.67157 4 5.5 4H86.5C87.3284 4 88 4.67157 88 5.5V25.5C88 26.3284 87.3284 27 86.5 27H5.5C4.67157 27 4 26.3284 4 25.5V5.5Z" fill="black"/>
<path d="M17 48.5C17 49.8807 15.8807 51 14.5 51C13.1193 51 12 49.8807 12 48.5C12 47.1193 13.1193 46 14.5 46C15.8807 46 17 47.1193 17 48.5Z" fill="black"/>
<path d="M24.5 47C23.6716 47 23 47.6716 23 48.5C23 49.3284 23.6716 50 24.5 50H81.5C82.3284 50 83 49.3284 83 48.5C83 47.6716 82.3284 47 81.5 47H24.5Z" fill="black"/>
<path fill-rule="evenodd" clip-rule="evenodd" d="M5.5 34C3.01472 34 1 36.0147 1 38.5V58.5C1 60.9853 3.01472 63 5.5 63H86.5C88.9853 63 91 60.9853 91 58.5V38.5C91 36.0147 88.9853 34 86.5 34H5.5ZM4 38.5C4 37.6716 4.67157 37 5.5 37H86.5C87.3284 37 88 37.6716 88 38.5V58.5C88 59.3284 87.3284 60 86.5 60H5.5C4.67157 60 4 59.3284 4 58.5V38.5Z" fill="black"/>
</svg>
