<svg width="196" height="196" viewBox="0 0 196 196" fill="none" xmlns="http://www.w3.org/2000/svg">
<path opacity="0.07" fill-rule="evenodd" clip-rule="evenodd" d="M35 177.5C15.5 168.5 5.64727 150.958 9.00003 95.5C12.3528 40.0424 23.7914 28.6017 41.5 22.5C59.2086 16.3983 127.721 0.546617 161.5 27.9999C195.279 55.4532 198.964 80.665 184.5 124.5C170.036 168.335 162.239 187.737 124.5 185.5C113.1 184.824 102.2 184.648 92.0003 184.483C68.4352 184.102 48.6094 183.781 35 177.5ZM33 42V68C33 71.866 36.134 75 40 75H153C156.866 75 160 71.866 160 68V42C160 38.134 156.866 35 153 35H40C36.134 35 33 38.134 33 42ZM40 81C36.134 81 33 84.134 33 88V115C33 118.866 36.134 122 40 122H153C156.866 122 160 118.866 160 115V88C160 84.134 156.866 81 153 81H40Z" fill="black"/>
<path opacity="0.2" fill-rule="evenodd" clip-rule="evenodd" d="M42 48C42 45.7909 43.7909 44 46 44H158C161.866 44 165 47.134 165 51V74C165 77.866 161.866 81 158 81H49C45.134 81 42 77.866 42 74V48ZM42 95C42 92.7909 43.7909 91 46 91H158C161.866 91 165 94.134 165 98V120C165 123.866 161.866 127 158 127H49C45.134 127 42 123.866 42 120V95ZM41 131H44.1852C45.2898 131 46.1852 131.895 46.1852 133C46.1852 134.105 45.2898 135 44.1852 135H41H40C38.3431 135 37 136.343 37 138V139V142.444C37 143.549 36.1046 144.444 35 144.444C33.8954 144.444 33 143.549 33 142.444V139V138C33 134.134 36.134 131 40 131H41ZM52.6481 133C52.6481 131.895 53.5436 131 54.6481 131H63.0185C64.1231 131 65.0185 131.895 65.0185 133C65.0185 134.105 64.1231 135 63.0185 135H54.6481C53.5436 135 52.6481 134.105 52.6481 133ZM71.4815 133C71.4815 131.895 72.3769 131 73.4815 131H81.8518C82.9564 131 83.8518 131.895 83.8518 133C83.8518 134.105 82.9564 135 81.8518 135H73.4815C72.3769 135 71.4815 134.105 71.4815 133ZM90.3148 133C90.3148 131.895 91.2102 131 92.3148 131H100.685C101.79 131 102.685 131.895 102.685 133C102.685 134.105 101.79 135 100.685 135H92.3148C91.2102 135 90.3148 134.105 90.3148 133ZM109.148 133C109.148 131.895 110.044 131 111.148 131H119.519C120.623 131 121.519 131.895 121.519 133C121.519 134.105 120.623 135 119.519 135H111.148C110.044 135 109.148 134.105 109.148 133ZM127.981 133C127.981 131.895 128.877 131 129.981 131H138.352C139.456 131 140.352 131.895 140.352 133C140.352 134.105 139.456 135 138.352 135H129.981C128.877 135 127.981 134.105 127.981 133ZM146.815 133C146.815 131.895 147.71 131 148.815 131H153C156.728 131 159.775 133.914 159.988 137.589C159.996 137.725 160 137.862 160 138V139V142.444C160 143.549 159.105 144.444 158 144.444C156.895 144.444 156 143.549 156 142.444V139V138C156 137.954 155.999 137.909 155.997 137.864C155.929 136.329 154.706 135.093 153.176 135.005C153.118 135.002 153.059 135 153 135H148.815C147.71 135 146.815 134.105 146.815 133ZM35 151.556C36.1046 151.556 37 152.451 37 153.556V156V158C37 158.023 37.0002 158.045 37.0007 158.068C37.0363 159.666 38.3207 160.955 39.9162 160.999C39.944 161 39.972 161 40 161H41H44.1852C45.2898 161 46.1852 161.895 46.1852 163C46.1852 164.105 45.2898 165 44.1852 165H41H40C39.9477 165 39.8954 164.999 39.8433 164.998C36.0497 164.915 33 161.814 33 158V156V153.556C33 152.451 33.8954 151.556 35 151.556ZM158 151.556C159.105 151.556 160 152.451 160 153.556V156V158C160 158.105 159.998 158.209 159.993 158.313C159.836 161.897 156.982 164.782 153.41 164.988C153.274 164.996 153.137 165 153 165H148.815C147.71 165 146.815 164.105 146.815 163C146.815 161.895 147.71 161 148.815 161H153C153.046 161 153.091 160.999 153.136 160.997C154.672 160.929 155.908 159.704 155.995 158.173C155.998 158.116 156 158.058 156 158V156V153.556C156 152.451 156.895 151.556 158 151.556ZM52.6482 163C52.6482 161.895 53.5436 161 54.6482 161H63.0185C64.1231 161 65.0185 161.895 65.0185 163C65.0185 164.105 64.1231 165 63.0185 165H54.6482C53.5436 165 52.6482 164.105 52.6482 163ZM71.4815 163C71.4815 161.895 72.3769 161 73.4815 161H81.8519C82.9564 161 83.8519 161.895 83.8519 163C83.8519 164.105 82.9564 165 81.8519 165H73.4815C72.3769 165 71.4815 164.105 71.4815 163ZM90.3148 163C90.3148 161.895 91.2103 161 92.3148 161H100.685C101.79 161 102.685 161.895 102.685 163C102.685 164.105 101.79 165 100.685 165H92.3148C91.2103 165 90.3148 164.105 90.3148 163ZM109.148 163C109.148 161.895 110.044 161 111.148 161H119.519C120.623 161 121.519 161.895 121.519 163C121.519 164.105 120.623 165 119.519 165H111.148C110.044 165 109.148 164.105 109.148 163ZM127.981 163C127.981 161.895 128.877 161 129.981 161H138.352C139.456 161 140.352 161.895 140.352 163C140.352 164.105 139.456 165 138.352 165H129.981C128.877 165 127.981 164.105 127.981 163Z" fill="black"/>
<path d="M124.485 14.2426L120.243 10L116 14.2426L120.243 18.4853L124.485 14.2426Z" fill="black"/>
<path d="M52 58C54.2091 58 56 56.2091 56 54C56 51.7909 54.2091 50 52 50C49.7909 50 48 51.7909 48 54C48 56.2091 49.7909 58 52 58Z" fill="black"/>
<path d="M64 54C64 52.8954 64.8954 52 66 52H146C147.105 52 148 52.8954 148 54C148 55.1046 147.105 56 146 56H66C64.8954 56 64 55.1046 64 54Z" fill="black"/>
<path fill-rule="evenodd" clip-rule="evenodd" d="M33 42C33 38.134 36.134 35 40 35H153C156.866 35 160 38.134 160 42V68C160 71.866 156.866 75 153 75H40C36.134 75 33 71.866 33 68V42ZM40 39C38.3431 39 37 40.3431 37 42V68C37 69.6569 38.3431 71 40 71H153C154.657 71 156 69.6569 156 68V42C156 40.3431 154.657 39 153 39H40Z" fill="black"/>
<path d="M56 101C56 103.209 54.2091 105 52 105C49.7909 105 48 103.209 48 101C48 98.7909 49.7909 97 52 97C54.2091 97 56 98.7909 56 101Z" fill="black"/>
<path d="M66 99C64.8954 99 64 99.8954 64 101C64 102.105 64.8954 103 66 103H146C147.105 103 148 102.105 148 101C148 99.8954 147.105 99 146 99H66Z" fill="black"/>
<path fill-rule="evenodd" clip-rule="evenodd" d="M40 81C36.134 81 33 84.134 33 88V115C33 118.866 36.134 122 40 122H153C156.866 122 160 118.866 160 115V88C160 84.134 156.866 81 153 81H40ZM37 88C37 86.3431 38.3431 85 40 85H153C154.657 85 156 86.3431 156 88V115C156 116.657 154.657 118 153 118H40C38.3431 118 37 116.657 37 115V88Z" fill="black"/>
<path fill-rule="evenodd" clip-rule="evenodd" d="M187.971 142.485L179.485 134L171 142.485L179.485 150.971L187.971 142.485ZM179.485 145.314L176.657 142.485L179.485 139.657L182.314 142.485L179.485 145.314Z" fill="black"/>
<path d="M8 97C9.10457 97 10 97.8954 10 99V103H14C15.1046 103 16 103.895 16 105C16 106.105 15.1046 107 14 107H10V111C10 112.105 9.10457 113 8 113C6.89543 113 6 112.105 6 111V107H2C0.895432 107 0 106.105 0 105C0 103.895 0.895432 103 2 103H6V99C6 97.8954 6.89543 97 8 97Z" fill="black"/>
</svg>
