<svg width="48" height="48" viewBox="0 0 48 48" fill="none" xmlns="http://www.w3.org/2000/svg">
<g opacity="0.2">
<path d="M5 7C5 5.89543 5.89543 5 7 5H45C46.1046 5 47 5.89543 47 7V15C47 16.1046 46.1046 17 45 17H7C5.89543 17 5 16.1046 5 15V7Z" fill="black"/>
<path d="M5 23C5 21.8954 5.89543 21 7 21H45C46.1046 21 47 21.8954 47 23V31C47 32.1046 46.1046 33 45 33H7C5.89543 33 5 32.1046 5 31V23Z" fill="black"/>
<path d="M3 39.2C3 39.7523 2.55228 40.2 2 40.2C1.44772 40.2 1 39.7523 1 39.2V38C1 36.3431 2.34315 35 4 35H5.9C6.45228 35 6.9 35.4477 6.9 36C6.9 36.5523 6.45228 37 5.9 37H4C3.44772 37 3 37.4477 3 38V39.2Z" fill="black"/>
<path d="M10.6 36C10.6 35.4477 11.0477 35 11.6 35H15.4C15.9523 35 16.4 35.4477 16.4 36C16.4 36.5523 15.9523 37 15.4 37H11.6C11.0477 37 10.6 36.5523 10.6 36Z" fill="black"/>
<path d="M20.1 36C20.1 35.4477 20.5477 35 21.1 35H24.9C25.4523 35 25.9 35.4477 25.9 36C25.9 36.5523 25.4523 37 24.9 37H21.1C20.5477 37 20.1 36.5523 20.1 36Z" fill="black"/>
<path d="M29.6 36C29.6 35.4477 30.0477 35 30.6 35H34.4C34.9523 35 35.4 35.4477 35.4 36C35.4 36.5523 34.9523 37 34.4 37H30.6C30.0477 37 29.6 36.5523 29.6 36Z" fill="black"/>
<path d="M39.1 36C39.1 35.4477 39.5477 35 40.1 35H42C43.5993 35 44.9063 36.2514 44.9952 37.8285C44.9984 37.8853 45 37.9425 45 38V39.2C45 39.7523 44.5523 40.2 44 40.2C43.4477 40.2 43 39.7523 43 39.2V38C43 37.4673 42.5835 37.0319 42.0583 37.0016C42.0391 37.0006 42.0196 37 42 37H40.1C39.5477 37 39.1 36.5523 39.1 36Z" fill="black"/>
<path d="M2 41.8C2.55228 41.8 3 42.2477 3 42.8V44L3.0002 44.0205C3.01092 44.554 3.4395 44.985 3.97207 44.9996C3.98134 44.9999 3.99065 45 4 45H5.9C6.45229 45 6.9 45.4477 6.9 46C6.9 46.5523 6.45229 47 5.9 47H4C3.97988 47 3.9598 46.9998 3.93976 46.9994C2.31071 46.9673 1 45.6367 1 44V42.8C1 42.2477 1.44772 41.8 2 41.8Z" fill="black"/>
<path d="M44 41.8C44.5523 41.8 45 42.2477 45 42.8V44C45 44.0402 44.9992 44.0803 44.9976 44.1202C44.9368 45.664 43.7094 46.908 42.1725 46.9951C42.1153 46.9984 42.0578 47 42 47H40.1C39.5477 47 39.1 46.5523 39.1 46C39.1 45.4477 39.5477 45 40.1 45H42C42.0137 45 42.0273 44.9997 42.0408 44.9992C42.5742 44.9778 43 44.5386 43 44V42.8C43 42.2477 43.4477 41.8 44 41.8Z" fill="black"/>
<path d="M10.6 46C10.6 45.4477 11.0477 45 11.6 45H15.4C15.9523 45 16.4 45.4477 16.4 46C16.4 46.5523 15.9523 47 15.4 47H11.6C11.0477 47 10.6 46.5523 10.6 46Z" fill="black"/>
<path d="M20.1 46C20.1 45.4477 20.5477 45 21.1 45H24.9C25.4523 45 25.9 45.4477 25.9 46C25.9 46.5523 25.4523 47 24.9 47H21.1C20.5477 47 20.1 46.5523 20.1 46Z" fill="black"/>
<path d="M29.6 46C29.6 45.4477 30.0477 45 30.6 45H34.4C34.9523 45 35.4 45.4477 35.4 46C35.4 46.5523 34.9523 47 34.4 47H30.6C30.0477 47 29.6 46.5523 29.6 46Z" fill="black"/>
</g>
<path d="M10 8C10 9.10457 9.10457 10 8 10C6.89543 10 6 9.10457 6 8C6 6.89543 6.89543 6 8 6C9.10457 6 10 6.89543 10 8Z" fill="black"/>
<path d="M12 8C12 7.44772 12.4477 7 13 7H39C39.5523 7 40 7.44772 40 8C40 8.55228 39.5523 9 39 9H13C12.4477 9 12 8.55228 12 8Z" fill="black"/>
<path fill-rule="evenodd" clip-rule="evenodd" d="M4 1C2.34315 1 1 2.34315 1 4V12C1 13.6569 2.34315 15 4 15H42C43.6569 15 45 13.6569 45 12V4C45 2.34315 43.6569 1 42 1H4ZM3 4C3 3.44772 3.44772 3 4 3H42C42.5523 3 43 3.44772 43 4V12C43 12.5523 42.5523 13 42 13H4C3.44772 13 3 12.5523 3 12V4Z" fill="black"/>
<path d="M8 26C9.10457 26 10 25.1046 10 24C10 22.8954 9.10457 22 8 22C6.89543 22 6 22.8954 6 24C6 25.1046 6.89543 26 8 26Z" fill="black"/>
<path d="M13 23C12.4477 23 12 23.4477 12 24C12 24.5523 12.4477 25 13 25H39C39.5523 25 40 24.5523 40 24C40 23.4477 39.5523 23 39 23H13Z" fill="black"/>
<path fill-rule="evenodd" clip-rule="evenodd" d="M4 17C2.34315 17 1 18.3431 1 20V28C1 29.6569 2.34315 31 4 31H42C43.6569 31 45 29.6569 45 28V20C45 18.3431 43.6569 17 42 17H4ZM3 20C3 19.4477 3.44772 19 4 19H42C42.5523 19 43 19.4477 43 20V28C43 28.5523 42.5523 29 42 29H4C3.44772 29 3 28.5523 3 28V20Z" fill="black"/>
</svg>
