<svg width="48" height="48" viewBox="0 0 48 48" fill="none" xmlns="http://www.w3.org/2000/svg">
<path opacity="0.2" d="M37.0781 27.7394C35.9376 27.1621 34.4312 27.4953 33.7132 28.7389L25.9599 42.1679C24.9792 43.8666 26.2051 45.99 28.1666 45.99H43.6731C45.6346 45.99 46.8605 43.8666 45.8797 42.1679L38.5933 29.5473C39.1579 27.8247 39.4633 25.9846 39.4633 24.0732C39.4633 14.3745 31.6009 6.51221 21.9023 6.51221C12.2036 6.51221 4.34131 14.3745 4.34131 24.0732C4.34131 33.7718 12.2036 41.6342 21.9023 41.6342C22.4953 41.6342 23.0814 41.6048 23.6593 41.5474C23.2216 40.8019 23.1557 39.8385 23.6497 38.9829L31.4029 25.5539C32.3837 23.8552 34.8356 23.8552 35.8163 25.5539L37.0781 27.7394Z" fill="black"/>
<path d="M20 9C19.4477 9 19 9.44772 19 10V21.4933L11.9086 26.6936C11.4633 27.0202 11.367 27.646 11.6936 28.0914C12.0202 28.5367 12.646 28.633 13.0914 28.3064L20.5914 22.8064C20.8482 22.618 21 22.3185 21 22V10C21 9.44772 20.5523 9 20 9Z" fill="black"/>
<path d="M34 29C34.5523 29 35 29.4477 35 30V36C35 36.5523 34.5523 37 34 37C33.4477 37 33 36.5523 33 36V30C33 29.4477 33.4477 29 34 29Z" fill="black"/>
<path d="M34 41.2812C34.7076 41.2812 35.2812 40.7076 35.2812 40C35.2812 39.2924 34.7076 38.7188 34 38.7188C33.2924 38.7188 32.7188 39.2924 32.7188 40C32.7188 40.7076 33.2924 41.2812 34 41.2812Z" fill="black"/>
<path fill-rule="evenodd" clip-rule="evenodd" d="M37.4027 25.6945C37.8712 24.0632 38.122 22.3406 38.122 20.561C38.122 10.31 29.8119 2 19.561 2C9.31003 2 1 10.31 1 20.561C1 30.8119 9.31003 39.122 19.561 39.122C20.6542 39.122 21.726 39.0273 22.7684 38.8457C21.5656 41.1764 23.2507 44.0108 25.927 44.0108H42.0727C44.8258 44.0108 46.53 41.0115 45.1207 38.6465L37.4027 25.6945ZM19.561 4C28.7074 4 36.122 11.4146 36.122 20.561C36.122 21.6876 36.0096 22.7872 35.7957 23.8495C34.2023 22.9187 32.003 23.3352 30.9519 25.099L24.0299 36.7152L23.9779 36.5267C22.5728 36.9145 21.0919 37.122 19.561 37.122C10.4146 37.122 3 29.7074 3 20.561C3 11.4146 10.4146 4 19.561 4ZM35.2212 25.9631C35.2075 26.0026 35.1938 26.042 35.1799 26.0814L35.3385 26.1375L43.4026 39.6702C44.0175 40.7021 43.2739 42.0108 42.0727 42.0108H25.927C24.7258 42.0108 23.9823 40.7021 24.5972 39.6702L32.67 26.1228C33.2368 25.1717 34.5687 25.1185 35.2212 25.9631Z" fill="black"/>
</svg>
