<svg width="96" height="96" viewBox="0 0 96 96" fill="none" xmlns="http://www.w3.org/2000/svg">
<g opacity="0.2">
<path d="M71.0637 58.5763C72.3167 55.1194 73 51.3895 73 47.5C73 29.5507 58.4492 15 40.5 15C22.5507 15 8 29.5507 8 47.5C8 65.4492 22.5507 80 40.5 80C41.5975 80 42.6824 79.9456 43.752 79.8393C42.9416 78.4595 42.8195 76.6763 43.7339 75.0926L58.0827 50.2396C59.8978 47.0959 64.4355 47.0959 66.2505 50.2396L71.0637 58.5763Z" fill="black"/>
<path d="M60.9159 56.0737C62.731 52.9299 67.2686 52.9299 69.0837 56.0737L83.4325 80.9266C85.2476 84.0704 82.9788 88.0001 79.3486 88.0001H50.6509C47.0208 88.0001 44.752 84.0704 46.567 80.9266L60.9159 56.0737Z" fill="black"/>
<path d="M92.7073 74.5508C94.0775 74.7203 95.3258 73.747 95.4953 72.3767C95.6649 71.0064 94.6915 69.7582 93.3213 69.5886L86.3068 68.7206C84.9366 68.5511 83.6883 69.5244 83.5187 70.8947C83.3492 72.265 84.3225 73.5132 85.6928 73.6828L92.7073 74.5508Z" fill="black"/>
<path d="M94.4359 57.1694C95.1315 58.3621 94.7285 59.8928 93.5358 60.5884L83.7817 66.2772C82.589 66.9728 81.0582 66.5699 80.3626 65.3772C79.667 64.1845 80.07 62.6537 81.2627 61.9581L91.0169 56.2693C92.2096 55.5737 93.7403 55.9767 94.4359 57.1694Z" fill="black"/>
<path d="M82.6961 54.5572C83.3563 53.3445 82.9084 51.8263 81.6958 51.1661C80.4831 50.5059 78.9649 50.9538 78.3047 52.1664L75.7126 56.9275C75.0524 58.1401 75.5003 59.6584 76.7129 60.3186C77.9256 60.9788 79.4438 60.5309 80.104 59.3183L82.6961 54.5572Z" fill="black"/>
</g>
<path fill-rule="evenodd" clip-rule="evenodd" d="M37 11.9176C19.8336 11.9176 5.91757 25.8337 5.91757 43.0001C5.91757 60.1664 19.8336 74.0825 37 74.0825C39.8726 74.0825 42.6521 73.6932 45.2895 72.9652L46.0438 75.6982C43.163 76.4933 40.1299 76.9176 37 76.9176C18.2679 76.9176 3.08246 61.7322 3.08246 43.0001C3.08246 24.2679 18.2679 9.08252 37 9.08252C55.7321 9.08252 70.9175 24.2679 70.9175 43.0001C70.9175 46.9618 70.2377 50.7677 68.9872 54.3058L66.3141 53.361C67.4589 50.1222 68.0824 46.6355 68.0824 43.0001C68.0824 25.8337 54.1663 11.9176 37 11.9176Z" fill="black"/>
<path fill-rule="evenodd" clip-rule="evenodd" d="M38.5001 21.0001C37.6717 21.0001 37.0001 21.6716 37.0001 22.5001V45.1745L22.6974 54.2328C21.9975 54.6761 21.7895 55.6028 22.2327 56.3026C22.676 57.0025 23.6027 57.2105 24.3025 56.7673L39.3027 47.2673C39.7369 46.9923 40.0001 46.5141 40.0001 46.0001V22.5001C40.0001 21.6716 39.3286 21.0001 38.5001 21.0001Z" fill="black"/>
<path fill-rule="evenodd" clip-rule="evenodd" d="M57.1171 50.8236C59.5095 46.6798 65.4905 46.6798 67.8829 50.8236L82.2318 75.6765C84.6242 79.8203 81.6337 85.0001 76.8488 85.0001H48.1512C43.3663 85.0001 40.3758 79.8203 42.7682 75.6765L57.1171 50.8236ZM65.2849 52.3236C64.0471 50.1798 60.9529 50.1798 59.7151 52.3236L45.3663 77.1765C44.1286 79.3203 45.6757 82.0001 48.1512 82.0001H76.8488C79.3243 82.0001 80.8714 79.3203 79.6337 77.1765L65.2849 52.3236Z" fill="black"/>
<path fill-rule="evenodd" clip-rule="evenodd" d="M62.4999 58.3336C63.3283 58.3336 63.9999 59.0051 63.9999 59.8336V70.6673C63.9999 71.4958 63.3283 72.1673 62.4999 72.1673C61.6715 72.1673 60.9999 71.4958 60.9999 70.6673V59.8336C60.9999 59.0051 61.6715 58.3336 62.4999 58.3336Z" fill="black"/>
<path d="M64.25 76.5001C64.25 77.4666 63.4665 78.2501 62.5 78.2501C61.5335 78.2501 60.75 77.4666 60.75 76.5001C60.75 75.5336 61.5335 74.7501 62.5 74.7501C63.4665 74.7501 64.25 75.5336 64.25 76.5001Z" fill="black"/>
</svg>
