<svg width="196" height="196" viewBox="0 0 196 196" fill="none" xmlns="http://www.w3.org/2000/svg">
<path opacity="0.07" fill-rule="evenodd" clip-rule="evenodd" d="M139.054 10.4423C96.2153 -3.50949 47.6109 10.0198 21.5745 31.1531C8.78341 41.5355 9.4669 92.9922 13.3513 107.68C17.2357 122.368 35.9055 176.184 65.0635 182.184C94.2215 188.184 142.252 183.13 173.01 146.204C203.769 109.277 176.696 22.702 139.054 10.4423ZM139 86C139 91.5312 138.152 96.8679 136.578 101.885L157.977 138.95C161.607 145.238 157.069 153 149.809 153H104.582C97.321 153 92.7831 145.238 96.4135 138.95L96.993 137.946C93.3661 138.603 89.3823 139 86 139C56.7289 139 33 115.271 33 86C33 56.7289 56.7289 33 86 33C115.271 33 139 56.7289 139 86Z" fill="black"/>
<g opacity="0.2">
<path d="M127.588 107.611C129.34 104.577 132.701 103.401 135.7 104.083L133 100.5C130.139 95.5454 123.861 95.5454 121 100.5L99 138.5C97.5591 140.996 95.8966 143.242 97.1735 145.417C95.4879 145.584 93.7783 145.67 92.0486 145.67C63.7609 145.67 40.8291 122.738 40.8291 94.4505C40.8291 66.1627 63.7609 43.231 92.0486 43.231C120.336 43.231 143.268 66.1627 143.268 94.4505C143.268 99.467 142.547 104.315 141.203 108.897L163.074 146.779C165.935 151.734 162.359 157.927 156.638 157.927H111.411C105.69 157.927 102.114 151.734 104.975 146.779L127.588 107.611Z" fill="black"/>
<path d="M177.295 134.567C179.213 134.804 180.961 133.442 181.198 131.523C181.436 129.605 180.073 127.857 178.154 127.62L164.43 125.922C162.512 125.684 160.764 127.047 160.527 128.965C160.289 130.884 161.652 132.631 163.57 132.869L177.295 134.567Z" fill="black"/>
<path d="M182.458 107.203C183.432 108.872 182.868 111.015 181.198 111.989L164.173 121.155C162.504 122.128 160.361 121.564 159.387 119.895C158.413 118.225 158.977 116.082 160.647 115.108L177.672 105.943C179.341 104.969 181.484 105.533 182.458 107.203Z" fill="black"/>
<path d="M163.485 102.674C164.409 100.976 163.782 98.8506 162.084 97.9263C160.386 97.002 158.261 97.629 157.337 99.3267L152.265 108.642C151.341 110.34 151.968 112.465 153.665 113.39C155.363 114.314 157.489 113.687 158.413 111.989L163.485 102.674Z" fill="black"/>
</g>
<path fill-rule="evenodd" clip-rule="evenodd" d="M27 35.5L17.5 26L8 35.5L17.5 45L27 35.5ZM17.5 39L14 35.5L17.5 32L21 35.5L17.5 39Z" fill="black"/>
<path d="M171 35.5L166.5 31L162 35.5L166.5 40L171 35.5Z" fill="black"/>
<path d="M90 54C88.8954 54 88 54.8954 88 56V90.4108L64.9149 105.32C63.9871 105.919 63.7207 107.157 64.3199 108.085C64.9192 109.013 66.1572 109.279 67.0851 108.68L92 92.5892V56C92 54.8954 91.1046 54 90 54Z" fill="black"/>
<path d="M127 111C128 111 129 112 129 113V131C129 132 128 133 127 133C126 133 125 132 125 131V113C125 112 126 111 127 111Z" fill="black"/>
<path d="M127 144C128.657 144 130 142.657 130 141C130 139.343 128.657 138 127 138C125.343 138 124 139.343 124 141C124 142.657 125.343 144 127 144Z" fill="black"/>
<path fill-rule="evenodd" clip-rule="evenodd" d="M136.578 101.885C138.152 96.8679 139 91.5312 139 86C139 56.7289 115.271 33 86 33C56.7289 33 33 56.7289 33 86C33 115.271 56.7289 139 86 139C89.3823 139 93.3661 138.603 96.993 137.946L96.4134 138.95C92.7831 145.238 97.321 153 104.582 153H149.809C157.069 153 161.607 145.238 157.977 138.95L136.578 101.885ZM86 37C113.062 37 135 58.938 135 86C135 89.9913 134.523 93.8692 133.624 97.5807C129.384 93.6083 122.168 94.3421 119.027 99.7818L99.6878 133.278C95.6126 134.311 90.2568 135 86 135C58.938 135 37 113.062 37 86C37 58.938 58.938 37 86 37ZM132.214 102.328L132.212 102.334L132.219 102.336L154.513 140.95C156.604 144.571 153.99 149 149.809 149H104.582C100.4 149 97.7868 144.571 99.8775 140.95L122.491 101.782C124.582 98.1606 129.809 98.1606 131.899 101.782L132.214 102.328Z" fill="black"/>
<path d="M46 161C46 159.895 45.1046 159 44 159C42.8954 159 42 159.895 42 161V165H38C36.8954 165 36 165.895 36 167C36 168.105 36.8954 169 38 169H42V173C42 174.105 42.8954 175 44 175C45.1046 175 46 174.105 46 173V169H50C51.1046 169 52 168.105 52 167C52 165.895 51.1046 165 50 165H46V161Z" fill="black"/>
</svg>
