<svg width="96" height="96" viewBox="0 0 96 96" fill="none" xmlns="http://www.w3.org/2000/svg">
<g opacity="0.2">
<path d="M71.0637 58.5763C72.3167 55.1194 73 51.3895 73 47.5C73 29.5507 58.4492 15 40.5 15C22.5507 15 8 29.5507 8 47.5C8 65.4492 22.5507 80 40.5 80C41.5975 80 42.6824 79.9456 43.752 79.8393C42.9416 78.4595 42.8195 76.6763 43.7339 75.0926L58.0827 50.2396C59.8978 47.0959 64.4355 47.0959 66.2505 50.2396L71.0637 58.5763Z" fill="black"/>
<path d="M60.9159 56.0737C62.731 52.9299 67.2686 52.9299 69.0837 56.0737L83.4325 80.9266C85.2476 84.0704 82.9788 88.0001 79.3486 88.0001H50.6509C47.0208 88.0001 44.752 84.0704 46.567 80.9266L60.9159 56.0737Z" fill="black"/>
<path d="M92.7073 74.5508C94.0775 74.7203 95.3258 73.747 95.4953 72.3767C95.6649 71.0064 94.6915 69.7582 93.3213 69.5886L86.3068 68.7206C84.9366 68.5511 83.6883 69.5244 83.5187 70.8947C83.3492 72.265 84.3225 73.5132 85.6928 73.6828L92.7073 74.5508Z" fill="black"/>
<path d="M94.4359 57.1694C95.1315 58.3621 94.7285 59.8928 93.5358 60.5884L83.7817 66.2772C82.589 66.9728 81.0582 66.5699 80.3626 65.3772C79.667 64.1845 80.07 62.6537 81.2627 61.9581L91.0169 56.2693C92.2096 55.5737 93.7403 55.9767 94.4359 57.1694Z" fill="black"/>
<path d="M82.6961 54.5572C83.3563 53.3445 82.9084 51.8263 81.6958 51.1661C80.4831 50.5059 78.9649 50.9538 78.3047 52.1664L75.7126 56.9275C75.0524 58.1401 75.5003 59.6584 76.7129 60.3186C77.9256 60.9788 79.4438 60.5309 80.104 59.3183L82.6961 54.5572Z" fill="black"/>
</g>
<path fill-rule="evenodd" clip-rule="evenodd" d="M36.9999 11.9171C19.8336 11.9171 5.9175 25.8332 5.9175 42.9996C5.9175 60.1659 19.8336 74.082 36.9999 74.082C39.8726 74.082 42.652 73.6927 45.2895 72.9648L46.0437 75.6977C43.1629 76.4928 40.1299 76.9171 36.9999 76.9171C18.2678 76.9171 3.0824 61.7317 3.0824 42.9996C3.0824 24.2674 18.2678 9.08203 36.9999 9.08203C55.7321 9.08203 70.9175 24.2674 70.9175 42.9996C70.9175 46.9613 70.2377 50.7672 68.9871 54.3053L66.3141 53.3605C67.4588 50.1217 68.0824 46.635 68.0824 42.9996C68.0824 25.8332 54.1663 11.9171 36.9999 11.9171Z" fill="black"/>
<path fill-rule="evenodd" clip-rule="evenodd" d="M38.5001 20.9996C37.6716 20.9996 37.0001 21.6712 37.0001 22.4996V45.174L22.6973 54.2323C21.9975 54.6756 21.7894 55.6023 22.2327 56.3021C22.6759 57.002 23.6026 57.21 24.3025 56.7668L39.3026 47.2668C39.7369 46.9918 40.0001 46.5136 40.0001 45.9996V22.4996C40.0001 21.6712 39.3285 20.9996 38.5001 20.9996Z" fill="black"/>
<path fill-rule="evenodd" clip-rule="evenodd" d="M57.117 50.8231C59.5094 46.6793 65.4905 46.6793 67.8829 50.8231L82.2317 75.676C84.6241 79.8198 81.6336 84.9996 76.8488 84.9996H48.1511C43.3663 84.9996 40.3757 79.8198 42.7682 75.676L57.117 50.8231ZM65.2848 52.3231C64.0471 50.1793 60.9528 50.1793 59.7151 52.3231L45.3662 77.176C44.1285 79.3198 45.6757 81.9996 48.1511 81.9996H76.8488C79.3242 81.9996 80.8714 79.3198 79.6337 77.176L65.2848 52.3231Z" fill="black"/>
<path fill-rule="evenodd" clip-rule="evenodd" d="M62.4998 58.3331C63.3283 58.3331 63.9998 59.0047 63.9998 59.8331V70.6668C63.9998 71.4953 63.3283 72.1668 62.4998 72.1668C61.6714 72.1668 60.9998 71.4953 60.9998 70.6668V59.8331C60.9998 59.0047 61.6714 58.3331 62.4998 58.3331Z" fill="black"/>
<path d="M64.25 76.4996C64.25 77.4661 63.4664 78.2496 62.5 78.2496C61.5335 78.2496 60.75 77.4661 60.75 76.4996C60.75 75.5331 61.5335 74.7496 62.5 74.7496C63.4664 74.7496 64.25 75.5331 64.25 76.4996Z" fill="black"/>
</svg>
