<svg width="196" height="196" viewBox="0 0 196 196" fill="none" xmlns="http://www.w3.org/2000/svg">
<path opacity="0.07" d="M21.5746 31.1536C47.6109 10.0203 96.2154 -3.509 139.054 10.4428C176.696 22.7025 203.769 109.277 173.01 146.204C142.252 183.131 94.2216 188.184 65.0636 182.184C35.9056 176.184 17.2358 122.369 13.3514 107.681C9.46696 92.9927 8.78347 41.536 21.5746 31.1536Z" fill="black"/>
<g opacity="0.2">
<path d="M127.588 107.611C129.34 104.577 132.701 103.401 135.7 104.083L133 100.5C130.139 95.5449 123.861 95.5449 121 100.5L99 138.5C97.5591 140.995 95.8966 143.242 97.1735 145.416C95.4879 145.584 93.7783 145.669 92.0486 145.669C63.7609 145.669 40.8291 122.738 40.8291 94.45C40.8291 66.1622 63.7609 43.2305 92.0486 43.2305C120.336 43.2305 143.268 66.1622 143.268 94.45C143.268 99.4665 142.547 104.315 141.203 108.896L163.074 146.779C165.935 151.733 162.359 157.927 156.638 157.927H111.411C105.69 157.927 102.114 151.733 104.975 146.779L127.588 107.611Z" fill="black"/>
<path d="M177.295 134.567C179.213 134.804 180.961 133.441 181.198 131.523C181.436 129.605 180.073 127.857 178.154 127.62L164.43 125.921C162.512 125.684 160.764 127.047 160.527 128.965C160.289 130.883 161.652 132.631 163.57 132.868L177.295 134.567Z" fill="black"/>
<path d="M184.518 105.237C185.492 106.907 184.928 109.05 183.258 110.023L164.173 121.154C162.504 122.128 160.361 121.564 159.387 119.894C158.413 118.224 158.977 116.081 160.647 115.107L179.732 103.977C181.402 103.003 183.545 103.567 184.518 105.237Z" fill="black"/>
<path d="M163.485 102.673C164.409 100.976 163.782 98.8501 162.084 97.9258C160.386 97.0015 158.261 97.6285 157.337 99.3262L152.265 108.642C151.341 110.339 151.968 112.465 153.665 113.389C155.363 114.314 157.489 113.687 158.413 111.989L163.485 102.673Z" fill="black"/>
</g>
<path fill-rule="evenodd" clip-rule="evenodd" d="M27 35.5L17.5 26L8 35.5L17.5 45L27 35.5ZM17.5 39L14 35.5L17.5 32L21 35.5L17.5 39Z" fill="black"/>
<path d="M171 35.5L166.5 31L162 35.5L166.5 40L171 35.5Z" fill="black"/>
<path d="M90 54C88.8954 54 88 54.8954 88 56V90.4108L64.9149 105.32C63.9871 105.919 63.7207 107.157 64.3199 108.085C64.9192 109.013 66.1572 109.279 67.0851 108.68L92 92.5892V56C92 54.8954 91.1046 54 90 54Z" fill="black"/>
<path d="M127 111C128 111 129 112 129 113V131C129 132 128 133 127 133C126 133 125 132 125 131V113C125 112 126 111 127 111Z" fill="black"/>
<path d="M127 144C128.657 144 130 142.657 130 141C130 139.343 128.657 138 127 138C125.343 138 124 139.343 124 141C124 142.657 125.343 144 127 144Z" fill="black"/>
<path fill-rule="evenodd" clip-rule="evenodd" d="M136.578 101.885C138.152 96.8679 139 91.5312 139 86C139 56.7289 115.271 33 86 33C56.7289 33 33 56.7289 33 86C33 115.271 56.7289 139 86 139C89.3823 139 93.3661 138.603 96.993 137.946L96.4134 138.95C92.7831 145.238 97.321 153 104.582 153H149.809C157.069 153 161.607 145.238 157.977 138.95L136.578 101.885ZM86 37C113.062 37 135 58.938 135 86C135 89.9913 134.523 93.8692 133.624 97.5807C129.384 93.6083 122.168 94.3421 119.027 99.7818L99.6878 133.278C95.6126 134.311 90.2568 135 86 135C58.938 135 37 113.062 37 86C37 58.938 58.938 37 86 37ZM132.214 102.328L132.212 102.334L132.219 102.336L154.513 140.95C156.604 144.571 153.99 149 149.809 149H104.582C100.4 149 97.7868 144.571 99.8775 140.95L122.491 101.782C124.582 98.1606 129.809 98.1606 131.899 101.782L132.214 102.328Z" fill="black"/>
<path d="M46 161C46 159.895 45.1046 159 44 159C42.8954 159 42 159.895 42 161V165H38C36.8954 165 36 165.895 36 167C36 168.105 36.8954 169 38 169H42V173C42 174.105 42.8954 175 44 175C45.1046 175 46 174.105 46 173V169H50C51.1046 169 52 168.105 52 167C52 165.895 51.1046 165 50 165H46V161Z" fill="black"/>
</svg>
