<svg width="48" height="48" viewBox="0 0 48 48" fill="none" xmlns="http://www.w3.org/2000/svg">
<path opacity="0.2" fill-rule="evenodd" clip-rule="evenodd" d="M26.178 46C18.527 46 12.3247 39.7977 12.3247 32.1468C12.3247 29.33 13.1509 26.4842 14.0291 23.4596C15.5361 18.2687 17.1962 12.5509 15.0954 5.54848C11.7706 -5.5341 26.178 11.644 29.5027 25.4971C30.8429 27.1172 33.0498 22.9716 34.8083 19.6685C35.909 17.601 36.8339 15.8635 37.2606 16.0769C38.3688 16.631 40.0312 30.3396 40.0312 32.1468C40.0312 39.7977 33.8289 46 26.178 46ZM23.2898 43.1056C19.9234 43.1056 17.1944 40.4498 17.1944 37.1737C17.1944 35.9676 17.5579 34.7491 17.9443 33.454C18.6074 31.2313 19.3379 28.783 18.4135 25.7846C16.9506 21.0391 23.2898 28.3946 24.7527 34.3264C25.3424 35.0201 26.3135 33.245 27.0872 31.8307C27.5715 30.9454 27.9785 30.2014 28.1662 30.2928C28.6538 30.53 29.3853 36.3999 29.3853 37.1737C29.3853 40.4498 26.6563 43.1056 23.2898 43.1056Z" fill="black"/>
<path fill-rule="evenodd" clip-rule="evenodd" d="M19.5255 25.3291C19.7236 25.5514 19.9314 25.801 20.1452 26.0738C21.4207 27.7014 22.9087 30.1567 23.8044 32.5814L23.813 32.6047C24.0137 33.1504 24.1844 33.6943 24.3157 34.2268C24.5632 34.518 24.878 34.3741 25.2172 34.0044C25.4743 33.7242 25.7455 33.3141 26.0121 32.8655C26.1122 32.6971 26.2117 32.5231 26.3095 32.3486C26.4056 32.1771 26.5001 32.0051 26.5921 31.837L26.6501 31.731C27.1344 30.8457 27.5414 30.1018 27.7291 30.1931C27.9017 30.2771 28.1049 31.0669 28.2953 32.0866C28.3318 32.2819 28.3678 32.4856 28.4031 32.6944C28.7036 34.4754 28.9482 36.6267 28.9482 37.0741C28.9482 40.3502 26.2192 43.0059 22.8528 43.0059C19.4864 43.0059 16.7573 40.3502 16.7573 37.0741C16.7573 35.868 17.1209 34.6495 17.5073 33.3543C18.0751 31.451 18.6923 29.3822 18.2775 26.9442C18.2339 26.688 18.1789 26.4278 18.1113 26.1632C18.0709 26.0053 18.0261 25.8459 17.9764 25.685C17.3423 23.6278 18.1743 23.8447 19.4397 25.2339C19.4681 25.265 19.4967 25.2968 19.5255 25.3291ZM22.7918 35.5221L22.4867 35.1631L22.3739 34.7057C21.9935 33.1635 21.2134 31.4584 20.3352 29.9419C20.2359 30.8387 20.0525 31.6721 19.8491 32.4417C19.7181 32.937 19.5764 33.4145 19.4454 33.8537L19.4264 33.9173C19.3001 34.3408 19.1857 34.7242 19.085 35.0989C18.8725 35.8897 18.7573 36.5159 18.7573 37.0741C18.7573 39.1947 20.5393 41.0059 22.8528 41.0059C25.1663 41.0059 26.9482 39.1947 26.9482 37.0741C26.9482 37.0744 26.9482 37.0737 26.9481 37.0718C26.9473 37.0555 26.9427 36.9571 26.9237 36.7436C26.9047 36.5303 26.8762 36.2543 26.8394 35.9343C26.8158 35.7294 26.7892 35.5093 26.76 35.2794C26.7186 35.3266 26.6767 35.3725 26.6344 35.417C26.401 35.6626 25.928 36.114 25.2348 36.2995C24.8404 36.4051 24.3645 36.4261 23.8722 36.2615C23.3891 36.0998 23.0348 35.808 22.7918 35.5221ZM23.7093 32.6859C23.7093 32.6867 23.7171 32.6801 23.7326 32.6639C23.7171 32.677 23.7094 32.6851 23.7093 32.6859Z" fill="black"/>
<path fill-rule="evenodd" clip-rule="evenodd" d="M36.7065 32.1468C36.7065 30.7277 35.6814 21.97 34.7045 18.0057C34.6925 17.9569 34.6805 17.9088 34.6685 17.8614C34.4137 16.8574 34.1631 16.1905 33.9358 16.0769C33.6684 15.9431 33.2052 16.5759 32.6257 17.5759C32.6006 17.6192 32.5753 17.6631 32.5498 17.7078C32.2244 18.277 31.8645 18.953 31.4836 19.6685C29.7251 22.9716 27.5182 27.1172 26.178 25.4971C22.8532 11.644 8.44587 -5.5341 11.7707 5.54848C13.8715 12.5509 12.2114 18.2687 10.7043 23.4596C9.82621 26.4842 9 29.33 9 32.1468C9 39.7977 15.2023 46 22.8532 46C30.5042 46 36.7065 39.7977 36.7065 32.1468ZM24.6369 26.7718C24.9514 27.152 25.3861 27.5128 25.9619 27.7107C26.5496 27.9127 27.1263 27.8906 27.6219 27.7543C28.5106 27.5098 29.1846 26.8892 29.6217 26.4168C30.5487 25.4147 31.4497 23.9022 32.2071 22.5377C32.5834 21.8599 32.9136 21.24 33.2197 20.6639C33.4047 21.6651 33.5873 22.7858 33.7585 23.9364C34.3167 27.6856 34.7065 31.4166 34.7065 32.1468C34.7065 38.6931 29.3996 44 22.8532 44C16.3069 44 11 38.6931 11 32.1468C11 30.4879 11.3312 28.7553 11.8354 26.8276C12.0739 25.9155 12.3435 24.987 12.6274 24.0091L12.6741 23.8483C12.9723 22.8206 13.2834 21.7432 13.5691 20.6328C14.6312 16.5046 15.3755 11.8024 14.0605 6.35606C14.3301 6.67682 14.6109 7.02466 14.9008 7.39814C18.3881 11.8914 22.6566 19.3945 24.2333 25.9638L24.3414 26.4146L24.6369 26.7718Z" fill="black"/>
</svg>
