<svg width="196" height="196" viewBox="0 0 196 196" fill="none" xmlns="http://www.w3.org/2000/svg">
<path opacity="0.07" fill-rule="evenodd" clip-rule="evenodd" d="M27.7588 27.6688C0.976986 63.8973 10.3832 114.158 22.1992 145.541C28.0041 160.959 38.845 172.83 76.1627 185.96C113.48 199.089 161.455 186.618 176.368 160.853C191.28 135.088 196.839 81.0716 171.533 40.2148C146.227 -0.641956 51.2925 -4.16587 27.7588 27.6688ZM124.396 72.6278C125.628 70.696 126.615 69.5976 127.241 69.9107C130.54 71.5605 135.49 112.375 135.49 117.755C135.49 140.534 117.024 159 94.2448 159C71.4659 159 52.9999 140.534 52.9999 117.755C52.9999 109.369 55.4598 100.896 58.0742 91.891C62.5612 76.4363 67.5036 59.4129 61.2491 38.5648C51.3502 5.56892 94.2448 56.7127 104.144 97.9572C108.134 102.781 114.704 90.4383 119.94 80.6041C121.601 77.484 123.127 74.616 124.395 72.6293L124.396 72.6278Z" fill="black"/>
<g opacity="0.2">
<path fill-rule="evenodd" clip-rule="evenodd" d="M62.8989 117.755C62.8989 140.534 81.3649 159 104.144 159C126.923 159 145.389 140.534 145.389 117.755C145.389 112.375 140.439 71.5605 137.14 69.9107C135.87 69.2755 133.116 74.4484 129.839 80.604C124.603 90.4382 118.033 102.781 114.043 97.9572C104.144 56.7127 61.2491 5.56892 71.1481 38.5648C77.4026 59.4129 72.4602 76.4363 67.9732 91.891C65.3588 100.896 62.8989 109.369 62.8989 117.755ZM77.3972 132.722C77.3972 129.131 78.4795 125.503 79.6299 121.647C81.6041 115.029 83.7788 107.74 81.0268 98.8129C76.6713 84.6843 95.5449 106.584 99.9004 124.244C101.656 126.31 104.547 121.025 106.851 116.814C108.293 114.178 109.504 111.963 110.063 112.235C111.515 112.941 113.693 130.418 113.693 132.722C113.693 142.475 105.568 150.382 95.5449 150.382C85.5222 150.382 77.3972 142.475 77.3972 132.722Z" fill="black"/>
<path d="M134.566 56.9419C136.34 56.1733 137.155 54.1124 136.386 52.3388C135.617 50.5652 133.557 49.7505 131.783 50.5192L119.094 56.0182C117.321 56.7868 116.506 58.8477 117.274 60.6213C118.043 62.3949 120.104 63.2096 121.878 62.441L134.566 56.9419Z" fill="black"/>
<path d="M123.864 30.8327C125.55 31.7776 126.151 33.9106 125.206 35.5969L114.406 54.871C113.462 56.5573 111.329 57.1583 109.642 56.2134C107.956 55.2685 107.355 53.1355 108.3 51.4492L119.1 32.1751C120.045 30.4888 122.178 29.8878 123.864 30.8327Z" fill="black"/>
<path d="M104.884 37.2653C104.819 35.3334 103.201 33.8198 101.269 33.8845C99.3368 33.9493 97.8232 35.5679 97.8879 37.4998L98.2433 48.1005C98.308 50.0324 99.9266 51.546 101.859 51.4813C103.79 51.4165 105.304 49.7979 105.239 47.866L104.884 37.2653Z" fill="black"/>
</g>
<path fill-rule="evenodd" clip-rule="evenodd" d="M82.9119 95.9594C83.0267 96.0707 83.1434 96.1861 83.2617 96.3057C88.1764 101.274 95.9919 113.371 98.6003 123.947C99.3373 124.814 100.275 124.386 101.284 123.285C101.6 122.942 101.922 122.532 102.248 122.076C103.363 120.515 104.516 118.408 105.551 116.517C105.696 116.251 105.839 115.989 105.98 115.734C106.098 115.519 106.214 115.308 106.328 115.103C107.421 113.143 108.308 111.717 108.763 111.938C109.161 112.132 109.613 113.584 110.06 115.638C110.111 115.871 110.161 116.112 110.212 116.36C111.341 121.895 112.393 130.824 112.393 132.425C112.393 142.178 104.268 150.085 94.2448 150.085C84.2221 150.085 76.0971 142.178 76.0971 132.425C76.0971 128.834 77.1794 125.206 78.3297 121.35C80.304 114.732 82.4787 107.443 79.7267 98.5159L79.7017 98.4344C79.6535 98.2765 79.6083 98.1232 79.566 97.9744C78.1662 93.0508 79.937 93.0784 82.9119 95.9594ZM95.5525 126.538L94.9423 125.82L94.7166 124.905C93.0333 118.08 88.8893 110.349 84.9432 104.72C85.3 109.709 84.4614 114.165 83.4123 118.133C83.0313 119.574 82.6175 120.969 82.2271 122.278L82.1678 122.477C81.7942 123.729 81.4466 124.894 81.1396 126.036C80.4912 128.449 80.0971 130.508 80.0971 132.425C80.0971 139.867 86.3279 146.085 94.2448 146.085C102.162 146.085 108.393 139.867 108.393 132.425C108.393 132.421 108.392 132.392 108.39 132.33C108.387 132.267 108.383 132.183 108.376 132.078C108.362 131.867 108.341 131.596 108.312 131.267C108.253 130.611 108.167 129.772 108.056 128.808C107.834 126.88 107.523 124.507 107.168 122.187L107.122 121.885C106.237 123.379 105.193 124.981 104.087 126.144C103.461 126.803 102.361 127.821 100.831 128.23C99.9709 128.461 98.9502 128.503 97.9 128.151C96.868 127.806 96.0971 127.179 95.5525 126.538Z" fill="black"/>
<path fill-rule="evenodd" clip-rule="evenodd" d="M127.241 69.9107C126.615 69.5976 125.628 70.696 124.396 72.6278L124.395 72.6293C123.127 74.6161 121.601 77.4839 119.94 80.6041C114.704 90.4383 108.134 102.781 104.144 97.9572C94.2448 56.7127 51.3502 5.56892 61.2491 38.5648C67.5036 59.4129 62.5612 76.4363 58.0743 91.891C55.4598 100.896 52.9999 109.369 52.9999 117.755C52.9999 140.534 71.4659 159 94.2448 159C117.024 159 135.49 140.534 135.49 117.755C135.49 112.375 130.54 71.5605 127.241 69.9107ZM101.061 100.507C101.823 101.428 102.835 102.252 104.136 102.699C105.46 103.155 106.77 103.11 107.924 102.793C110.027 102.215 111.724 100.705 112.962 99.368C115.542 96.5792 118.123 92.2722 120.385 88.1977C121.527 86.1408 122.559 84.1983 123.525 82.3819L123.526 82.3808C124.375 80.7826 125.173 79.2817 125.948 77.8868C125.971 77.99 125.995 78.0945 126.018 78.2002C126.915 82.2029 127.826 87.5168 128.646 93.0229C130.304 104.159 131.49 115.412 131.49 117.755C131.49 138.325 114.815 155 94.2448 155C73.675 155 56.9999 138.325 56.9999 117.755C56.9999 112.568 58.0347 107.221 59.5508 101.424C60.2677 98.6825 61.0769 95.8952 61.92 92.9911L62.0616 92.5036C62.9501 89.4423 63.8684 86.2612 64.7105 82.9879C68.0953 69.8309 70.3279 54.9068 65.0804 37.4154C64.6805 36.0826 64.3942 34.9649 64.1936 34.0383C64.4743 34.2878 64.7746 34.5644 65.0945 34.8708C67.1118 36.8025 69.506 39.5153 72.1123 42.8734C82.6069 56.3953 95.4762 78.983 100.254 98.8907L100.47 99.7923L101.061 100.507ZM63.8167 30.451C63.8165 30.4507 63.8145 30.458 63.8114 30.4741C63.8154 30.4594 63.8169 30.4514 63.8167 30.451Z" fill="black"/>
<path fill-rule="evenodd" clip-rule="evenodd" d="M25.5767 116.288L16.2883 107L7 116.288L16.2883 125.577L25.5767 116.288ZM16.2883 119.384L13.1922 116.288L16.2883 113.192L19.3844 116.288L16.2883 119.384Z" fill="black"/>
<path d="M21.371 141L25.742 145.371L21.371 149.742L17 145.371L21.371 141Z" fill="black"/>
<path d="M173 162C173 160.895 172.105 160 171 160C169.895 160 169 160.895 169 162V166H165C163.895 166 163 166.895 163 168C163 169.105 163.895 170 165 170H169V174C169 175.105 169.895 176 171 176C172.105 176 173 175.105 173 174V170H177C178.105 170 179 169.105 179 168C179 166.895 178.105 166 177 166H173V162Z" fill="black"/>
</svg>
