<svg width="48" height="48" viewBox="0 0 48 48" fill="none" xmlns="http://www.w3.org/2000/svg">
<path opacity="0.2" fill-rule="evenodd" clip-rule="evenodd" d="M26.178 46C18.527 46 12.3247 39.7977 12.3247 32.1468C12.3247 29.33 13.1509 26.4842 14.0291 23.4596C15.5361 18.2687 17.1962 12.5509 15.0954 5.54848C11.7706 -5.5341 26.178 11.644 29.5027 25.4971C30.8429 27.1172 33.0498 22.9716 34.8083 19.6685C35.909 17.601 36.8339 15.8635 37.2606 16.0769C38.3688 16.631 40.0312 30.3396 40.0312 32.1468C40.0312 39.7977 33.8289 46 26.178 46ZM23.2898 43.1056C26.6563 43.1056 29.3853 40.4498 29.3853 37.1737C29.3853 36.3999 28.6538 30.53 28.1662 30.2928C27.9785 30.2014 27.5715 30.9454 27.0872 31.8307C26.3135 33.245 25.3424 35.0201 24.7527 34.3264C23.2898 28.3946 16.9506 21.0391 18.4135 25.7846C19.3379 28.783 18.6074 31.2313 17.9443 33.454C17.5579 34.7491 17.1944 35.9676 17.1944 37.1737C17.1944 40.4498 19.9234 43.1056 23.2898 43.1056Z" fill="black"/>
<path fill-rule="evenodd" clip-rule="evenodd" d="M19.5256 25.3291C19.7237 25.5514 19.9315 25.801 20.1453 26.0738C21.4208 27.7014 22.9087 30.1567 23.8045 32.5814L23.8131 32.6047C24.0138 33.1504 24.1844 33.6943 24.3157 34.2268C24.5633 34.518 24.8781 34.3741 25.2173 34.0044C25.4744 33.7242 25.7456 33.3141 26.0121 32.8655C26.1123 32.6971 26.2117 32.5231 26.3095 32.3486C26.4057 32.1771 26.5002 32.0051 26.5922 31.837L26.6502 31.731C27.1345 30.8457 27.5415 30.1018 27.7292 30.1931C27.9018 30.2771 28.1049 31.0669 28.2954 32.0866C28.3319 32.2819 28.3679 32.4856 28.4031 32.6944C28.7037 34.4754 28.9483 36.6267 28.9483 37.0741C28.9483 40.3502 26.2192 43.0059 22.8528 43.0059C19.4864 43.0059 16.7574 40.3502 16.7574 37.0741C16.7574 35.868 17.1209 34.6495 17.5073 33.3543C18.0751 31.451 18.6923 29.3822 18.2775 26.9442C18.234 26.688 18.179 26.4278 18.1113 26.1632C18.071 26.0053 18.0261 25.8459 17.9765 25.685C17.3423 23.6278 18.1744 23.8447 19.4398 25.2339C19.4682 25.265 19.4968 25.2968 19.5256 25.3291ZM22.7918 35.5221L22.4867 35.1631L22.3739 34.7057C21.9936 33.1635 21.2134 31.4584 20.3352 29.9419C20.2359 30.8387 20.0526 31.6721 19.8491 32.4417C19.7182 32.937 19.5764 33.4145 19.4454 33.8537L19.4265 33.9173C19.3001 34.3408 19.1858 34.7242 19.0851 35.0989C18.8725 35.8897 18.7574 36.5159 18.7574 37.0741C18.7574 39.1947 20.5393 41.0059 22.8528 41.0059C25.1663 41.0059 26.9483 39.1947 26.9483 37.0741C26.9483 37.0744 26.9482 37.0737 26.9481 37.0718C26.9474 37.0555 26.9428 36.9571 26.9238 36.7436C26.9048 36.5303 26.8762 36.2543 26.8394 35.9343C26.8159 35.7294 26.7893 35.5093 26.7601 35.2794C26.7187 35.3266 26.6768 35.3725 26.6345 35.417C26.4011 35.6626 25.9281 36.114 25.2348 36.2995C24.8404 36.4051 24.3646 36.4261 23.8723 36.2615C23.3891 36.0998 23.0349 35.808 22.7918 35.5221ZM23.7094 32.6859C23.7094 32.6867 23.7171 32.6801 23.7327 32.6639C23.7172 32.677 23.7094 32.6851 23.7094 32.6859Z" fill="black"/>
<path fill-rule="evenodd" clip-rule="evenodd" d="M36.7066 32.1468C36.7066 30.7277 35.6815 21.97 34.7046 18.0057C34.6926 17.9569 34.6805 17.9088 34.6685 17.8614C34.4138 16.8574 34.1632 16.1905 33.9359 16.0769C33.6685 15.9431 33.2053 16.5759 32.6257 17.5759C32.6007 17.6192 32.5754 17.6631 32.5499 17.7078C32.2244 18.277 31.8645 18.953 31.4836 19.6685C29.7252 22.9716 27.5182 27.1172 26.1781 25.4971C22.8533 11.644 8.44593 -5.5341 11.7708 5.54848C13.8715 12.5509 12.2115 18.2687 10.7044 23.4596C9.82627 26.4842 9.00006 29.33 9.00006 32.1468C9.00006 39.7977 15.2024 46 22.8533 46C30.5042 46 36.7066 39.7977 36.7066 32.1468ZM24.637 26.7718C24.9515 27.152 25.3862 27.5128 25.962 27.7107C26.5496 27.9127 27.1263 27.8906 27.622 27.7543C28.5107 27.5098 29.1847 26.8892 29.6217 26.4168C30.5488 25.4147 31.4497 23.9022 32.2072 22.5377C32.5834 21.8599 32.9137 21.24 33.2197 20.6639C33.4047 21.6651 33.5873 22.7858 33.7586 23.9364C34.3167 27.6856 34.7066 31.4166 34.7066 32.1468C34.7066 38.6931 29.3997 44 22.8533 44C16.3069 44 11.0001 38.6931 11.0001 32.1468C11.0001 30.4879 11.3313 28.7553 11.8355 26.8276C12.074 25.9155 12.3436 24.987 12.6275 24.0091L12.6741 23.8483C12.9724 22.8206 13.2835 21.7432 13.5691 20.6328C14.6312 16.5046 15.3756 11.8024 14.0606 6.35606C14.3302 6.67682 14.611 7.02466 14.9008 7.39814C18.3882 11.8914 22.6567 19.3945 24.2333 25.9638L24.3415 26.4146L24.637 26.7718Z" fill="black"/>
</svg>
