<svg width="96" height="96" viewBox="0 0 96 96" fill="none" xmlns="http://www.w3.org/2000/svg">
<path opacity="0.2" fill-rule="evenodd" clip-rule="evenodd" d="M49.7463 92C34.2706 92 21.725 79.4544 21.725 63.9787C21.725 58.2811 23.3962 52.5249 25.1724 46.4068C28.2208 35.9071 31.5786 24.3416 27.3293 10.1776C20.6041 -12.2394 49.7463 22.5071 56.4714 50.5282C59.1822 53.8052 63.6462 45.4199 67.2031 38.7386C69.4295 34.5565 71.3004 31.0422 72.1634 31.4737C74.405 32.5945 77.7677 60.3234 77.7677 63.9787C77.7677 79.4544 65.2221 92 49.7463 92ZM43.9044 86.1452C50.7137 86.1452 56.2338 80.7733 56.2338 74.1467C56.2338 72.5815 54.7542 60.7083 53.7679 60.2283C53.3882 60.0436 52.565 61.5484 51.5854 63.3391C50.0204 66.2 48.0562 69.7905 46.8635 68.3873C43.9044 56.3889 31.0818 41.5107 34.0409 51.1095C35.9106 57.1744 34.4332 62.1267 33.0919 66.6226C32.3103 69.2423 31.575 71.707 31.575 74.1467C31.575 80.7733 37.0951 86.1452 43.9044 86.1452Z" fill="black"/>
<path fill-rule="evenodd" clip-rule="evenodd" d="M35.5375 49.3842C35.6772 49.5249 35.8204 49.6741 35.9666 49.8315C39.315 53.4334 44.2786 61.2857 45.9802 68.1856C46.481 68.7747 47.1177 68.4837 47.8038 67.7359C48.0857 67.4287 48.3759 67.0443 48.6685 66.6123C49.3598 65.5912 50.0642 64.3037 50.7022 63.1374L50.7899 62.977C50.8926 62.7895 50.9933 62.6057 51.0919 62.4272C51.8972 60.9691 52.5566 59.867 52.8847 60.0266C53.1726 60.1668 53.5026 61.2779 53.8256 62.8201C53.8683 63.0241 53.9109 63.2356 53.9532 63.4535C54.6875 67.2298 55.3506 72.8972 55.3506 73.945C55.3506 80.5716 49.8305 85.9435 43.0212 85.9435C36.2119 85.9435 30.6918 80.5716 30.6918 73.945C30.6918 71.5054 31.4271 69.0406 32.2087 66.4209C33.5143 62.0447 34.9488 57.236 33.2999 51.3897C33.2549 51.2299 33.2075 51.0693 33.1577 50.9079L33.1339 50.8299C31.993 47.0713 33.3294 47.1603 35.5375 49.3842ZM43.6944 70.1286L43.2367 69.5901L43.0675 68.904C42.0138 64.6312 39.5208 59.8172 37.0327 56.1052C37.114 59.1338 36.5813 61.8621 35.9348 64.3078C35.6747 65.2918 35.3923 66.2431 35.1271 67.1322L35.0872 67.2662C34.833 68.1182 34.5979 68.9063 34.3904 69.6783C33.9521 71.3092 33.6918 72.6796 33.6918 73.945C33.6918 78.8383 37.7912 82.9435 43.0212 82.9435C48.2507 82.9435 52.3499 78.839 52.3506 73.9462C52.3506 73.9462 52.3504 73.9299 52.3489 73.8928C52.3472 73.8522 52.3443 73.7977 52.3399 73.7277C52.3309 73.5871 52.3167 73.4053 52.2969 73.1837C52.2575 72.7409 52.1987 72.1734 52.1236 71.5201C51.9914 70.3696 51.812 68.9844 51.6067 67.5959C51.0947 68.4136 50.5191 69.2351 49.9128 69.8728C49.4772 70.331 48.6854 71.0695 47.569 71.3684C46.9391 71.537 46.1884 71.5685 45.4149 71.3098C44.655 71.0556 44.0903 70.5943 43.6944 70.1286Z" fill="black"/>
<path fill-rule="evenodd" clip-rule="evenodd" d="M71.0425 63.9787C71.0425 60.939 68.7171 41.252 66.6448 34.0622L66.637 34.0352C66.22 32.5943 65.8134 31.6613 65.4382 31.4737C64.986 31.2476 64.2571 32.1049 63.3453 33.5739L63.3261 33.6049C62.5019 34.9368 61.5295 36.7632 60.4779 38.7386C56.9211 45.4199 52.457 53.8052 49.7463 50.5282C43.0211 22.5071 13.8789 -12.2394 20.6042 10.1776C24.8534 24.3416 21.4956 35.9071 18.4472 46.4068C16.671 52.5249 14.9998 58.2811 14.9998 63.9787C14.9998 79.4544 27.5454 92 43.0211 92C58.4969 92 71.0425 79.4544 71.0425 63.9787ZM47.4346 52.4403C47.9775 53.0966 48.7055 53.6927 49.649 54.0171C50.6103 54.3475 51.5591 54.3143 52.3896 54.0859C53.8967 53.6713 55.0946 52.597 55.9444 51.6785C57.7233 49.7557 59.4917 46.8012 61.0274 44.0348C61.8101 42.6249 62.5124 41.3035 63.1674 40.0711C63.6117 39.2352 64.0344 38.44 64.4459 37.6852C65.0161 40.3272 65.5919 43.7126 66.1136 47.2175C67.2405 54.787 68.0425 62.4112 68.0425 63.9787C68.0425 77.7976 56.84 89 43.0211 89C29.2022 89 17.9998 77.7976 17.9998 63.9787C17.9998 60.4905 18.6958 56.8848 19.7236 52.9549C20.2097 51.0961 20.7585 49.2058 21.3316 47.2316L21.4274 46.9018C22.031 44.8222 22.656 42.6571 23.2293 40.4286C25.535 31.4665 27.0638 21.2692 23.4776 9.31556C23.3265 8.81166 23.1998 8.35476 23.0941 7.94183C24.4363 9.23704 26.0274 11.0439 27.7614 13.278C34.8751 22.4438 43.5951 37.7537 46.8291 51.2283L46.9914 51.9045L47.4346 52.4403Z" fill="black"/>
</svg>
