<svg width="48" height="48" viewBox="0 0 48 48" fill="none" xmlns="http://www.w3.org/2000/svg">
<circle opacity="0.2" cx="27" cy="26" r="9" fill="black"/>
<path d="M5 6C3.34315 6 2 7.34315 2 9V18.375C2 18.9273 2.44772 19.375 3 19.375C3.55228 19.375 4 18.9273 4 18.375V9C4 8.44772 4.44772 8 5 8H16.65C17.2023 8 17.65 7.55228 17.65 7C17.65 6.44772 17.2023 6 16.65 6H5Z" fill="black"/>
<path d="M32.4 6C31.8477 6 31.4 6.44772 31.4 7C31.4 7.55228 31.8477 8 32.4 8H43C43.5523 8 44 8.44771 44 9V18.375C44 18.9273 44.4477 19.375 45 19.375C45.5523 19.375 46 18.9273 46 18.375V9C46 7.34315 44.6569 6 43 6H32.4Z" fill="black"/>
<path d="M4 31.5C4 30.9477 3.55228 30.5 3 30.5C2.44772 30.5 2 30.9477 2 31.5V39C2 40.6569 3.34315 42 5 42H16.65C17.2023 42 17.65 41.5523 17.65 41C17.65 40.4477 17.2023 40 16.65 40H5C4.44772 40 4 39.5523 4 39V31.5Z" fill="black"/>
<path d="M46 31.5C46 30.9477 45.5523 30.5 45 30.5C44.4477 30.5 44 30.9477 44 31.5V39C44 39.5523 43.5523 40 43 40H32.4C31.8477 40 31.4 40.4477 31.4 41C31.4 41.5523 31.8477 42 32.4 42H43C44.6569 42 46 40.6569 46 39V31.5Z" fill="black"/>
<path fill-rule="evenodd" clip-rule="evenodd" d="M24 14C18.4772 14 14 18.4772 14 24C14 29.5228 18.4772 34 24 34C29.5228 34 34 29.5228 34 24C34 18.4772 29.5228 14 24 14ZM16 24C16 19.5817 19.5817 16 24 16C28.4183 16 32 19.5817 32 24C32 28.4183 28.4183 32 24 32C19.5817 32 16 28.4183 16 24Z" fill="black"/>
</svg>
