<svg width="196" height="196" viewBox="0 0 196 196" fill="none" xmlns="http://www.w3.org/2000/svg">
<path opacity="0.07" fill-rule="evenodd" clip-rule="evenodd" d="M109.306 183C152.803 182.983 176.996 168.083 180.91 156.742C181.024 156.412 181.136 156.087 181.248 155.766C187.045 138.995 189.172 132.84 184.279 84.1734C180.108 42.6812 167.929 36.1602 153.949 28.6749C151.217 27.2125 148.417 25.7133 145.595 23.9094C128.325 12.8717 59.0612 0.824673 27.6793 31.3732C-3.70264 61.9217 8.2445 121.451 23.6852 147.375C39.1258 173.3 65.8091 183.017 109.306 183ZM97.5 128C81.7599 128 69 115.24 69 99.5C69 83.7599 81.7599 71 97.5 71C113.24 71 126 83.7599 126 99.5C126 115.24 113.24 128 97.5 128Z" fill="black"/>
<circle opacity="0.2" cx="103.5" cy="106.5" r="26.5" fill="black"/>
<path d="M53 15C53 13.8954 52.1046 13 51 13C49.8954 13 49 13.8954 49 15V19H45C43.8954 19 43 19.8954 43 21C43 22.1046 43.8954 23 45 23H49V27C49 28.1046 49.8954 29 51 29C52.1046 29 53 28.1046 53 27V23H57C58.1046 23 59 22.1046 59 21C59 19.8954 58.1046 19 57 19H53V15Z" fill="black"/>
<path d="M190 87L185 82L180 87L185 92L190 87Z" fill="black"/>
<path fill-rule="evenodd" clip-rule="evenodd" d="M119.5 171L128 179.5L119.5 188L111 179.5L119.5 171ZM116.667 179.5L119.5 182.333L122.333 179.5L119.5 176.667L116.667 179.5Z" fill="black"/>
<path d="M32 51.2353C32 46.6871 35.6871 43 40.2353 43H74.625C75.7296 43 76.625 43.8954 76.625 45C76.625 46.1046 75.7296 47 74.625 47H40.2353C37.8962 47 36 48.8962 36 51.2353V79.45C36 80.5546 35.1046 81.45 34 81.45C32.8954 81.45 32 80.5546 32 79.45V51.2353Z" fill="black"/>
<path d="M119.5 45C119.5 43.8954 120.395 43 121.5 43H152.765C157.313 43 161 46.6871 161 51.2353V79.45C161 80.5546 160.105 81.45 159 81.45C157.895 81.45 157 80.5546 157 79.45V51.2353C157 48.8962 155.104 47 152.765 47H121.5C120.395 47 119.5 46.1046 119.5 45Z" fill="black"/>
<path d="M34 117.2C35.1046 117.2 36 118.095 36 119.2V144.765C36 147.104 37.8962 149 40.2353 149H74.625C75.7296 149 76.625 149.895 76.625 151C76.625 152.105 75.7296 153 74.625 153H40.2353C35.6871 153 32 149.313 32 144.765V119.2C32 118.095 32.8954 117.2 34 117.2Z" fill="black"/>
<path d="M159 117.2C160.105 117.2 161 118.095 161 119.2V144.765C161 149.313 157.313 153 152.765 153H121.5C120.395 153 119.5 152.105 119.5 151C119.5 149.895 120.395 149 121.5 149H152.765C155.104 149 157 147.104 157 144.765V119.2C157 118.095 157.895 117.2 159 117.2Z" fill="black"/>
<path fill-rule="evenodd" clip-rule="evenodd" d="M97.5 71C81.7599 71 69 83.7599 69 99.5C69 115.24 81.7599 128 97.5 128C113.24 128 126 115.24 126 99.5C126 83.7599 113.24 71 97.5 71ZM73 99.5C73 85.969 83.969 75 97.5 75C111.031 75 122 85.969 122 99.5C122 113.031 111.031 124 97.5 124C83.969 124 73 113.031 73 99.5Z" fill="black"/>
</svg>
