<svg width="96" height="96" viewBox="0 0 96 96" fill="none" xmlns="http://www.w3.org/2000/svg">
<circle opacity="0.2" cx="54" cy="51" r="18" fill="black"/>
<path d="M11.6 11C8.50721 11 6 13.5072 6 16.6V34.75C6 35.5784 6.67157 36.25 7.5 36.25C8.32843 36.25 9 35.5784 9 34.75V16.6C9 15.1641 10.1641 14 11.6 14H34.15C34.9784 14 35.65 13.3284 35.65 12.5C35.65 11.6716 34.9784 11 34.15 11H11.6Z" fill="black"/>
<path d="M64.9 11C64.0716 11 63.4 11.6716 63.4 12.5C63.4 13.3284 64.0716 14 64.9 14H85.4C86.8359 14 88 15.1641 88 16.6V34.75C88 35.5784 88.6716 36.25 89.5 36.25C90.3284 36.25 91 35.5784 91 34.75V16.6C91 13.5072 88.4928 11 85.4 11H64.9Z" fill="black"/>
<path d="M9 62C9 61.1716 8.32843 60.5 7.5 60.5C6.67157 60.5 6 61.1716 6 62V79.4C6 82.4928 8.5072 85 11.6 85H34.15C34.9784 85 35.65 84.3284 35.65 83.5C35.65 82.6716 34.9784 82 34.15 82H11.6C10.1641 82 9 80.8359 9 79.4V62Z" fill="black"/>
<path d="M91 62C91 61.1716 90.3284 60.5 89.5 60.5C88.6716 60.5 88 61.1716 88 62V79.4C88 80.8359 86.8359 82 85.4 82H64.9C64.0716 82 63.4 82.6716 63.4 83.5C63.4 84.3284 64.0716 85 64.9 85H85.4C88.4928 85 91 82.4928 91 79.4V62Z" fill="black"/>
<path fill-rule="evenodd" clip-rule="evenodd" d="M48.5 29.0498C37.7304 29.0498 29 37.7803 29 48.5498C29 59.3194 37.7304 68.0498 48.5 68.0498C59.2696 68.0498 68 59.3194 68 48.5498C68 37.7803 59.2696 29.0498 48.5 29.0498ZM32 48.5498C32 39.4371 39.3873 32.0498 48.5 32.0498C57.6127 32.0498 65 39.4371 65 48.5498C65 57.6625 57.6127 65.0498 48.5 65.0498C39.3873 65.0498 32 57.6625 32 48.5498Z" fill="black"/>
</svg>
