<svg width="96" height="96" viewBox="0 0 96 96" fill="none" xmlns="http://www.w3.org/2000/svg">
<path opacity="0.2" d="M57.8138 50.1291C62.5044 48.2379 65.8149 43.6433 65.8149 38.2756C65.8149 31.2198 60.0951 25.5 53.0393 25.5C45.9836 25.5 40.2638 31.2198 40.2638 38.2756C40.2638 43.5605 43.4729 48.096 48.0487 50.0396C33.5 51.9972 33.5 64.2713 33.5 78.7082L44.375 82.125H56.25L70.25 74.625L71.875 73.5C71.875 72.9795 71.8776 72.454 71.8802 71.9252C71.9263 62.5744 71.9775 52.1799 57.8138 50.1291Z" fill="black"/>
<path d="M47.5 4C46.6716 4 46 4.67157 46 5.5C46 6.32843 46.6716 7 47.5 7H47.9448C48.7733 7 49.4448 6.32843 49.4448 5.5C49.4448 4.67157 48.7733 4 47.9448 4H47.5Z" fill="black"/>
<path d="M84.2734 24.2217C84.9795 23.7884 85.9031 24.0096 86.3364 24.7157C90.4835 31.4739 92.7855 39.3072 92.7855 47.7417C92.7855 68.9972 77.7374 86.8851 57.82 91.2339C57.0106 91.4106 56.2113 90.8977 56.0345 90.0884C55.8578 89.279 56.3707 88.4796 57.18 88.3029C75.7487 84.2486 89.7855 67.5574 89.7855 47.7417C89.7855 39.8658 87.6393 32.5749 83.7794 26.2847C83.3461 25.5786 83.5673 24.655 84.2734 24.2217Z" fill="black"/>
<path d="M47 91.5C47 90.6716 47.6716 90 48.5 90H48.7957C49.6241 90 50.2966 90.6716 50.2966 91.5C50.2966 92.3284 49.625 93 48.7966 93H48.5009C47.6724 93 47 92.3284 47 91.5Z" fill="black"/>
<path d="M40.7502 5.17531C40.9297 5.98406 40.4196 6.78519 39.6109 6.96469C20.9179 11.1135 7 27.6853 7 47.5076C7 55.3836 9.14624 62.6745 13.0061 68.9646C13.4394 69.6707 13.2182 70.5943 12.5121 71.0276C11.806 71.4609 10.8824 71.2397 10.4491 70.5336C6.30205 63.7754 4 55.9421 4 47.5076C4 26.2408 18.9325 8.48116 38.9609 4.03595C39.7696 3.85646 40.5707 4.36656 40.7502 5.17531Z" fill="black"/>
<path fill-rule="evenodd" clip-rule="evenodd" d="M16 48.5C16 47.6716 15.3284 47 14.5 47C13.6716 47 13 47.6716 13 48.5C13 68.0771 28.8704 83.9475 48.4475 83.9475C68.0246 83.9475 83.895 68.0771 83.895 48.5C83.895 47.6716 83.2234 47 82.395 47C81.5666 47 80.895 47.6716 80.895 48.5C80.895 59.078 75.8333 68.4738 67.9997 74.3973L67.9973 63.8647L67.9829 63.7617C67.3293 59.0802 65.9088 54.883 62.6972 51.8453C60.2633 49.5433 56.9396 48.0365 52.4953 47.3786C58.0283 45.6063 62 40.2501 62 34C62 26.3263 56.013 20 48.5 20C40.987 20 35 26.3263 35 34C35 39.9891 38.6469 45.1574 43.8198 47.138C40.9114 47.4041 38.4576 48.053 36.3978 49.0675C33.4284 50.5299 31.3721 52.7064 29.9731 55.3783C27.5222 60.0597 27.0959 66.2906 27.017 72.864C20.2621 66.9177 16 58.2066 16 48.5ZM30.0012 75.1977C30.0012 69.1963 29.7627 62.2482 32.6309 56.7698C33.76 54.6133 35.3714 52.9171 37.7233 51.7588C40.1031 50.5867 43.333 49.921 47.7505 50.0075C54.2104 50.134 58.1521 51.6758 60.6357 54.0249C63.1116 56.3667 64.3792 59.7351 64.9974 64.0745C64.998 66.8666 64.9974 70.5625 64.9974 76.4696C60.1029 79.4307 54.5854 80.9475 48.4475 80.9475C41.5951 80.9475 35.2388 78.8234 30.0012 75.1977ZM48.5 23C54.2419 23 59 27.8666 59 34C59 40.1334 54.2419 45 48.5 45C42.7581 45 38 40.1334 38 34C38 27.8666 42.7581 23 48.5 23Z" fill="black"/>
</svg>
