<svg width="48" height="48" viewBox="0 0 48 48" fill="none" xmlns="http://www.w3.org/2000/svg">
<path opacity="0.2" d="M28.8774 25.0267C31.1663 24.1023 32.7814 21.8594 32.7814 19.2392C32.7814 15.7934 29.9881 13 26.5422 13C23.0964 13 20.303 15.7934 20.303 19.2392C20.303 21.8199 21.8699 24.0347 24.1042 24.9841C17 25.9405 17 31.9346 17 38.9849L24 40.4996L31 38.9849C32.5 37.9996 36.2325 35.4996 36.2325 35.4996C36.0572 30.0316 35.0196 25.9097 28.8774 25.0267Z" fill="black"/>
<path d="M22.8921 3C22.8921 2.44772 23.3398 2 23.8921 2H24.1085C24.6608 2 25.1094 2.44772 25.1094 3C25.1094 3.55228 24.6617 4 24.1094 4H23.893C23.3407 4 22.8921 3.55228 22.8921 3Z" fill="black"/>
<path d="M42.8108 12.6148C42.5219 12.1441 41.9061 11.9966 41.4354 12.2855C40.9647 12.5743 40.8173 13.1901 41.1061 13.6608C42.9655 16.691 43.9998 20.2033 43.9998 23.9999C43.9998 33.5489 37.2348 41.5937 28.2867 43.5475C27.7471 43.6653 27.4052 44.1982 27.523 44.7378C27.6408 45.2773 28.1737 45.6192 28.7133 45.5014C38.5606 43.3514 45.9998 34.5088 45.9998 23.9999C45.9998 19.8309 44.8617 15.957 42.8108 12.6148Z" fill="black"/>
<path d="M23.9177 44C23.3654 44 22.9177 44.4477 22.9177 45C22.9177 45.5523 23.3658 46 23.9181 46H24.0625C24.6148 46 25.0625 45.5523 25.0625 45C25.0625 44.4477 24.6144 44 24.0621 44H23.9177Z" fill="black"/>
<path d="M19.7167 4.46081C20.2558 4.34114 20.5959 3.80706 20.4762 3.26789C20.3566 2.72873 19.8225 2.38866 19.2833 2.50832C9.38305 4.70565 2 13.4848 2 23.9997C2 28.1686 3.13814 32.0425 5.18905 35.3848C5.47791 35.8555 6.09367 36.0029 6.56439 35.7141C7.03512 35.4252 7.18255 34.8094 6.8937 34.3387C5.03427 31.3085 4 27.7962 4 23.9997C4 14.4478 10.7067 6.46055 19.7167 4.46081Z" fill="black"/>
<path d="M7.42096 23C7.97324 23 8.42096 23.4477 8.42096 24C8.42096 32.604 15.3959 39.5789 23.9999 39.5789C32.6039 39.5789 39.5788 32.604 39.5788 24C39.5788 23.4477 40.0266 23 40.5788 23C41.1311 23 41.5788 23.4477 41.5788 24C41.5788 33.7086 33.7085 41.5789 23.9999 41.5789C14.2913 41.5789 6.42096 33.7086 6.42096 24C6.42096 23.4477 6.86867 23 7.42096 23Z" fill="black"/>
<path fill-rule="evenodd" clip-rule="evenodd" d="M24 9.99998C20.134 9.99998 17 13.134 17 17C17 20.866 20.134 24 24 24C27.866 24 31 20.866 31 17C31 13.134 27.866 9.99998 24 9.99998ZM19 17C19 14.2386 21.2386 12 24 12C26.7614 12 29 14.2386 29 17C29 19.7614 26.7614 22 24 22C21.2386 22 19 19.7614 19 17Z" fill="black"/>
<path d="M13.0013 37C13.0013 37.5523 13.449 38 14.0013 38C14.5536 38 15.0013 37.5523 15.0013 37H13.0013ZM23.641 24.0038L23.6221 25.0036L23.641 24.0038ZM32.0013 37.0002C32.0015 37.5525 32.4493 38.0001 33.0016 38C33.5538 37.9999 34.0015 37.552 34.0013 36.9998L32.0013 37.0002ZM33 31.4481L34 31.4479L34 31.3758L33.9896 31.3046L33 31.4481ZM23.6221 25.0036C26.8254 25.064 28.7313 25.8002 29.9111 26.8747C31.0923 27.9506 31.7089 29.5128 32.0103 31.5916L33.9896 31.3046C33.6578 29.0163 32.9302 26.9193 31.2578 25.3961C29.584 23.8717 27.1271 23.0693 23.6598 23.0039L23.6221 25.0036ZM34.0013 36.9998L34 31.4479L32 31.4483L32.0013 37.0002L34.0013 36.9998ZM15.0013 37C15.0013 36.9499 15.0013 36.915 15.0013 36.8918C15.0013 36.8803 15.0012 36.8711 15.0012 36.8641C15.0012 36.8604 15.0012 36.8491 15.001 36.839C15.0009 36.837 15.0009 36.8333 15.0007 36.8288C15.0007 36.8264 15.0004 36.8147 14.9995 36.7999C14.9992 36.7951 14.998 36.7734 14.995 36.7458C14.9929 36.7289 14.9856 36.6808 14.9795 36.6499C14.9606 36.5747 14.7553 36.1999 14.4818 35.9796C13.7584 35.8864 13.0903 36.4437 13.0379 36.5878C13.026 36.6346 13.0127 36.7044 13.0095 36.7272C13.0079 36.7405 13.0055 36.7626 13.0047 36.7713C13.0042 36.7775 13.0034 36.7883 13.0031 36.7929C13.0021 36.8094 13.0017 36.8224 13.0016 36.8247C13.0014 36.8295 13.0014 36.8333 13.0013 36.8354C13.0012 36.8396 13.0012 36.8431 13.0011 36.8448C13.0011 36.8511 13.001 36.8581 13.001 36.8624C13.0009 36.8728 13.0009 36.8869 13.0008 36.9002C13.0008 36.9137 13.0008 36.9274 13.0007 36.9373C13.0007 36.942 13.0007 36.947 13.0007 36.9508C13.0007 36.9518 13.0007 36.9533 13.0007 36.955C13.0007 36.9554 13.0008 36.9603 13.0009 36.9662C13.0009 36.9679 13.0009 36.9713 13.001 36.9757C13.0011 36.9773 13.0014 36.9899 13.0022 37.0058C13.0029 37.0166 13.0058 37.0516 13.0085 37.0757C13.0252 37.1714 13.908 37.9472 14.8761 37.4351C14.9472 37.2744 14.9934 37.0727 14.9967 37.0416C14.9978 37.0288 14.9991 37.0089 14.9995 37.0019C15.0001 36.9904 15.0003 36.9813 15.0004 36.9792C15.0005 36.9756 15.0005 36.9727 15.0006 36.9711C15.0006 36.9679 15.0007 36.9653 15.0007 36.9641C15.0008 36.956 15.0009 36.9395 15.0009 36.9209C15.001 36.8987 15.0012 36.865 15.0013 36.8159L13.0013 36.8091C13.0012 36.858 13.001 36.8911 13.001 36.9125C13.0008 36.9374 13.0008 36.9412 13.0008 36.9378C13.0009 36.9369 13.0009 36.9346 13.001 36.9315C13.001 36.93 13.001 36.9272 13.0011 36.9236C13.0012 36.9216 13.0014 36.9126 13.002 36.9011C13.0024 36.8941 13.0037 36.8742 13.0048 36.8615C13.0081 36.8303 13.0543 36.6286 13.1254 36.4679C14.0935 35.9558 14.9763 36.7316 14.993 36.8273C14.9957 36.8514 14.9986 36.8864 14.9993 36.8972C15.0001 36.9131 15.0004 36.9256 15.0005 36.9272C15.0006 36.9315 15.0006 36.9349 15.0006 36.9365C15.0007 36.94 15.0007 36.9426 15.0007 36.9435C15.0007 36.9447 15.0007 36.9457 15.0007 36.9461C15.0007 36.9466 15.0007 36.947 15.0007 36.9472C15.0007 36.9474 15.0007 36.9475 15.0007 36.9476C15.0007 36.9476 15.0007 36.9474 15.0007 36.947C15.0007 36.9466 15.0007 36.946 15.0007 36.9453C15.0007 36.944 15.0007 36.9422 15.0007 36.9401C15.0007 36.9316 15.0008 36.9192 15.0008 36.9066C15.0009 36.8938 15.0009 36.882 15.001 36.8745C15.001 36.8698 15.001 36.8698 15.001 36.8721C15.001 36.8727 15.0009 36.8754 15.0008 36.879C15.0008 36.8808 15.0007 36.8843 15.0006 36.8889C15.0005 36.891 15.0001 36.9038 14.9991 36.9202C14.9988 36.9248 14.998 36.9355 14.9975 36.9417C14.9967 36.9504 14.9944 36.9725 14.9927 36.9858C14.9895 37.0085 14.9762 37.0784 14.9643 37.1251C14.9119 37.2693 14.2438 37.8266 13.5204 37.7334C13.2469 37.5131 13.0416 37.1383 13.0227 37.0631C13.0167 37.0322 13.0093 36.9841 13.0073 36.9672C13.0042 36.9396 13.003 36.9179 13.0027 36.9132C13.0019 36.8985 13.0016 36.8871 13.0015 36.8849C13.0014 36.8806 13.0013 36.8772 13.0013 36.8755C13.0012 36.8682 13.0012 36.8637 13.0012 36.8718C13.0012 36.8765 13.0013 36.8839 13.0013 36.8948C13.0013 36.9166 13.0013 36.9502 13.0013 37H15.0013ZM15.0013 36.8159C15.0137 33.165 15.1582 30.1884 16.2803 28.1244C16.8173 27.1368 17.5819 26.3595 18.7096 25.8247C19.8569 25.2806 21.4344 24.9623 23.6221 25.0036L23.6598 23.0039C21.2762 22.959 19.3661 23.2998 17.8526 24.0176C16.3197 24.7446 15.2503 25.8319 14.5233 27.1691C13.1174 29.7549 13.0134 33.2688 13.0013 36.8091L15.0013 36.8159ZM15.0013 37L15.0013 36.8125L13.0013 36.8125L13.0013 37L15.0013 37Z" fill="black"/>
</svg>
