<svg width="196" height="196" viewBox="0 0 196 196" fill="none" xmlns="http://www.w3.org/2000/svg">
<path opacity="0.07" fill-rule="evenodd" clip-rule="evenodd" d="M109.49 182.913C153.053 182.895 177.006 168.302 180.926 156.898C181.027 156.604 181.127 156.313 181.226 156.026C187.06 139.074 189.203 132.848 184.292 83.804C180.093 41.8639 168.095 35.3353 154.099 27.72C151.451 26.279 148.731 24.7991 145.979 23.0331C128.683 11.9336 58.7761 -0.179773 27.3467 30.5398C-4.08278 61.2594 7.46775 121.732 22.9318 147.802C38.3959 173.872 65.9266 182.93 109.49 182.913ZM127.136 80.737C127.136 89.5487 121.681 97.0895 113.956 100.183C135.68 103.431 135.377 119.239 135.072 135.145C135.036 137.019 135 138.894 135 140.75L113.5 151.25L93.75 153L74.022 147.027C74.022 123.358 74.022 103.234 97.9341 100.024C90.4134 96.8375 85.1391 89.4016 85.1391 80.737C85.1391 69.1688 94.5404 59.791 106.137 59.791C117.735 59.791 127.136 69.1688 127.136 80.737Z" fill="black"/>
<path opacity="0.2" d="M113.956 100.183C121.681 97.0895 127.136 89.5487 127.136 80.737C127.136 69.1688 117.735 59.791 106.137 59.791C94.5404 59.791 85.1391 69.1688 85.1391 80.737C85.1391 89.4016 90.4134 96.8375 97.9341 100.024C74.022 103.234 74.022 123.358 74.022 147.027L93.75 153L113.5 151.25L135 140.75C135 138.894 135.036 137.019 135.072 135.145C135.377 119.239 135.68 103.431 113.956 100.183Z" fill="black"/>
<path fill-rule="evenodd" clip-rule="evenodd" d="M169 32L160 23L151 32L160 41L169 32ZM160 35L157 32L160 29L163 32L160 35Z" fill="black"/>
<path d="M179 46L184 51L179 56L174 51L179 46Z" fill="black"/>
<path d="M37 157C38.1046 157 39 157.895 39 159V163H43C44.1046 163 45 163.895 45 165C45 166.105 44.1046 167 43 167H39V171C39 172.105 38.1046 173 37 173C35.8954 173 35 172.105 35 171V167H31C29.8954 167 29 166.105 29 165C29 163.895 29.8954 163 31 163H35V159C35 157.895 35.8954 157 37 157Z" fill="black"/>
<path d="M99 165C97.8954 165 97 165.895 97 167C97 168.105 97.8954 169 99 169H99.4874C100.592 169 101.487 168.105 101.487 167C101.487 165.895 100.592 165 99.4874 165H99Z" fill="black"/>
<path d="M157.716 58.0878C158.657 57.5091 159.889 57.8026 160.468 58.7434C167.24 69.7522 171 82.5128 171 96.257C171 130.889 146.42 160.032 113.895 167.115C112.815 167.35 111.75 166.666 111.515 165.587C111.28 164.508 111.964 163.442 113.043 163.207C143.775 156.514 167 128.962 167 96.257C167 83.2596 163.449 71.2236 157.061 60.8392C156.482 59.8984 156.775 58.6666 157.716 58.0878Z" fill="black"/>
<path d="M97.0325 25C95.9279 25 95.0325 25.8954 95.0325 27C95.0325 28.1046 95.9279 29 97.0325 29H97.7636C98.8682 29 99.7636 28.1046 99.7636 27C99.7636 25.8954 98.8682 25 97.7636 25H97.0325Z" fill="black"/>
<path d="M85.4843 26.5681C85.7231 27.6466 85.0424 28.7144 83.9639 28.9531C53.0296 35.8018 30 63.156 30 95.8729C30 108.87 33.5512 120.906 39.9394 131.291C40.5181 132.231 40.2246 133.463 39.2838 134.042C38.343 134.621 37.1112 134.327 36.5324 133.386C29.7601 122.378 26 109.617 26 95.8729C26 61.2226 50.39 32.2893 83.0993 25.0477C84.1777 24.8089 85.2456 25.4897 85.4843 26.5681Z" fill="black"/>
<path fill-rule="evenodd" clip-rule="evenodd" d="M44.7928 97.5C44.7928 96.3954 43.8973 95.5 42.7928 95.5C41.6882 95.5 40.7928 96.3954 40.7928 97.5C40.7928 129.348 66.6742 155.158 98.59 155.158C130.506 155.158 156.387 129.348 156.387 97.5C156.387 96.3954 155.492 95.5 154.387 95.5C153.283 95.5 152.387 96.3954 152.387 97.5C152.387 115.324 143.674 131.12 130.261 140.879L130.257 122.723L130.238 122.585C129.169 114.953 126.858 108.193 121.689 103.317C117.356 99.2289 111.243 96.6759 102.787 95.8199C112.865 93.8259 120.399 84.6372 120.399 73.7266C120.399 61.3763 110.745 51.2324 98.6759 51.2324C86.6067 51.2324 76.9523 61.3763 76.9523 73.7266C76.9523 84.2223 83.925 93.1246 93.4268 95.5615C87.618 95.8258 82.8634 96.9396 78.9918 98.8416C74.2073 101.192 70.896 104.686 68.6379 108.988C64.5411 116.794 63.9216 127.298 63.8209 138.447C52.1802 128.604 44.7928 113.911 44.7928 97.5ZM67.8052 141.51L67.8052 141.132C67.8458 128.781 68.293 118.253 72.1797 110.847C74.0766 107.233 76.7937 104.378 80.7556 102.432C84.7548 100.467 90.1443 99.3696 97.4534 99.5124C108.137 99.7211 114.747 102.267 118.944 106.226C123.129 110.175 125.236 115.828 126.257 123.003L126.261 141.768C126.261 142.316 126.482 142.813 126.839 143.174C118.63 148.236 108.952 151.158 98.59 151.158C87.1401 151.158 76.5268 147.591 67.8052 141.51ZM98.6759 55.2324C108.393 55.2324 116.399 63.4396 116.399 73.7266C116.399 84.0136 108.393 92.2208 98.6759 92.2208C88.959 92.2208 80.9523 84.0136 80.9523 73.7266C80.9523 63.4396 88.959 55.2324 98.6759 55.2324Z" fill="black"/>
</svg>
