<svg width="36" height="36" viewBox="0 0 36 36" fill="none" xmlns="http://www.w3.org/2000/svg">
<path opacity="0.2" d="M22.4204 23.8064H25.9837C26.536 23.8064 26.9837 24.2541 26.9837 24.8064V28C26.9837 28.5523 26.536 29 25.9837 29H22.4204V35C22.4204 35.5523 21.9727 36 21.4204 36H17.1767C16.6245 36 16.1767 35.5523 16.1767 35V29H4.19532C3.67732 29 3.24507 28.6044 3.19924 28.0885L2.875 24.4375L15.3314 4.4707C15.514 4.17792 15.8347 4 16.1798 4H21.4204C21.9727 4 22.4204 4.44772 22.4204 5V23.8064ZM8.7343 23.8064H15.6895V12.5956L15.2784 13.3141L8.7343 23.8064ZM28.936 32.6626C28.936 30.6728 30.5082 29.2825 32.4588 29.2825C34.4031 29.2825 36 30.6704 36 32.6626C36 34.6702 34.404 36 32.4588 36C30.522 36 28.936 34.656 28.936 32.6626Z" fill="black"/>
<path fill-rule="evenodd" clip-rule="evenodd" d="M13.2649 1.46891C13.4478 1.17715 13.7679 1 14.1122 1H21C21.5523 1 22 1.44772 22 2V21H24.9837C25.536 21 25.9837 21.4477 25.9837 22V27C25.9837 27.5523 25.536 28 24.9837 28H22V34C22 34.5523 21.5523 35 21 35H14C13.4477 35 13 34.5523 13 34V28H1.2802C0.754504 28 0.318563 27.593 0.282549 27.0685L0.00235001 22.988C-0.0121202 22.7773 0.0405072 22.5674 0.152687 22.3884L13.2649 1.46891ZM14.6656 3L2.01992 23.1752L2.21389 26H14C14.5523 26 15 26.4477 15 27V33H20V27C20 26.4477 20.4477 26 21 26H23.9837V23H21C20.4477 23 20 22.5523 20 22V3H14.6656ZM14.2736 10.5382C14.7035 10.6604 15 11.0531 15 11.5V22C15 22.5523 14.5523 23 14 23H7.5C7.13724 23 6.80293 22.8035 6.6264 22.4866C6.44987 22.1697 6.4588 21.7821 6.64974 21.4736L13.1497 10.9736C13.385 10.5937 13.8438 10.4159 14.2736 10.5382ZM9.29515 21H13V15.0152L9.29515 21ZM31.4588 28.2825C29.9975 28.2825 28.936 29.286 28.936 30.6626C28.936 32.0233 29.9902 33 31.4588 33C32.9442 33 34 32.0297 34 30.6626C34 29.2918 32.9225 28.2825 31.4588 28.2825ZM26.936 30.6626C26.936 28.0596 29.0189 26.2825 31.4588 26.2825C33.8837 26.2825 36 28.0491 36 30.6626C36 33.3106 33.8638 35 31.4588 35C29.0537 35 26.936 33.2888 26.936 30.6626Z" fill="black"/>
</svg>
