<svg width="96" height="96" viewBox="0 0 96 96" fill="none" xmlns="http://www.w3.org/2000/svg">
<path opacity="0.2" d="M52 89C72.4345 89 89 72.4345 89 52C89 31.5655 72.4345 15 52 15C31.5655 15 15 31.5655 15 52C15 72.4345 31.5655 89 52 89Z" fill="black"/>
<path d="M46.651 30.3862C37.5126 30.3862 30 38.0003 30 47.381C30 49.5922 30.3759 51.5874 31.1199 53.4827C31.4227 54.2538 31.0429 55.1244 30.2718 55.4271C29.5007 55.7298 28.6301 55.3501 28.3274 54.5789C27.4399 52.3181 27 49.9494 27 47.381C27 36.3967 35.8029 27.3862 46.651 27.3862C50.2864 27.3862 53.8277 28.3948 56.7273 30.213C57.4292 30.6531 57.6414 31.5788 57.2013 32.2807C56.7612 32.9825 55.8355 33.1947 55.1336 32.7546C52.7307 31.2479 49.7457 30.3862 46.651 30.3862Z" fill="black"/>
<path d="M41.9955 37.323C43.4316 36.8204 45.0935 36.5908 46.8065 36.5908C48.7685 36.5908 50.7215 36.9662 52.3723 37.6265C53.1414 37.9341 54.0144 37.56 54.3221 36.7908C54.6297 36.0217 54.2556 35.1487 53.4864 34.841C51.4635 34.0319 49.1305 33.5908 46.8065 33.5908C44.8458 33.5908 42.834 33.8511 41.0045 34.4914C40.2226 34.7651 39.8105 35.6208 40.0842 36.4027C40.3579 37.1846 41.2136 37.5967 41.9955 37.323Z" fill="black"/>
<path d="M47.5 16.9302C48.3284 16.9302 49 17.6017 49 18.4302V21.0921C49 21.9205 48.3284 22.5921 47.5 22.5921C46.6716 22.5921 46 21.9205 46 21.0921V18.4302C46 17.6017 46.6716 16.9302 47.5 16.9302Z" fill="black"/>
<path d="M74.5 46.2109C73.6716 46.2109 73 46.8825 73 47.7109C73 48.5394 73.6716 49.2109 74.5 49.2109H77.1619C77.9903 49.2109 78.6619 48.5394 78.6619 47.7109C78.6619 46.8825 77.9903 46.2109 77.1619 46.2109H74.5Z" fill="black"/>
<path d="M17 47.7109C17 46.8825 17.6716 46.2109 18.5 46.2109H21.1619C21.9903 46.2109 22.6619 46.8825 22.6619 47.7109C22.6619 48.5394 21.9903 49.2109 21.1619 49.2109H18.5C17.6716 49.2109 17 48.5394 17 47.7109Z" fill="black"/>
<path d="M70.6966 28.08C71.2931 27.5051 71.3106 26.5555 70.7357 25.9591C70.1608 25.3626 69.2112 25.3451 68.6147 25.92L66.4591 27.9976C65.8626 28.5725 65.8451 29.5221 66.42 30.1186C66.9949 30.7151 67.9445 30.7326 68.5409 30.1577L70.6966 28.08Z" fill="black"/>
<path d="M26.4393 25.9393C27.0251 25.3536 27.9749 25.3536 28.5607 25.9393L30.6383 28.017C31.2241 28.6028 31.2241 29.5525 30.6383 30.1383C30.0525 30.7241 29.1028 30.7241 28.517 30.1383L26.4393 28.0607C25.8536 27.4749 25.8536 26.5251 26.4393 25.9393Z" fill="black"/>
<path d="M61.1726 21.7626C61.5431 21.0217 61.2427 20.1206 60.5018 19.7502C59.7608 19.3797 58.8598 19.68 58.4893 20.421L57.1584 23.0829C56.7879 23.8238 57.0882 24.7249 57.8292 25.0953C58.5701 25.4658 59.4712 25.1655 59.8416 24.4245L61.1726 21.7626Z" fill="black"/>
<path d="M71.1584 57.6881C71.5288 56.9471 72.4299 56.6468 73.1708 57.0172L75.8327 58.3482C76.5737 58.7187 76.874 59.6197 76.5035 60.3607C76.1331 61.1016 75.2321 61.402 74.4911 61.0315L71.8292 59.7005C71.0882 59.33 70.7879 58.429 71.1584 57.6881Z" fill="black"/>
<path d="M21.5708 35.6584C20.8299 35.2879 19.9289 35.5882 19.5584 36.3292C19.1879 37.0701 19.4882 37.9712 20.2292 38.3416L22.8911 39.6726C23.6321 40.0431 24.5331 39.7427 24.9036 39.0018C25.2741 38.2608 24.9737 37.3598 24.2327 36.9893L21.5708 35.6584Z" fill="black"/>
<path d="M75.5035 36.3927C75.874 37.1336 75.5737 38.0346 74.8327 38.4051L72.1708 39.7361C71.4299 40.1066 70.5288 39.8062 70.1584 39.0653C69.7879 38.3243 70.0882 37.4233 70.8292 37.0528L73.4911 35.7218C74.2321 35.3514 75.1331 35.6517 75.5035 36.3927Z" fill="black"/>
<path d="M24.8327 59.7005C25.5737 59.33 25.874 58.429 25.5035 57.6881C25.1331 56.9471 24.2321 56.6468 23.4911 57.0172L20.8292 58.3482C20.0882 58.7187 19.7879 59.6197 20.1584 60.3607C20.5288 61.1016 21.4299 61.402 22.1708 61.0315L24.8327 59.7005Z" fill="black"/>
<path d="M35.3292 19.6584C36.0701 19.2879 36.9712 19.5882 37.3416 20.3292L38.6726 22.9911C39.0431 23.7321 38.7427 24.6331 38.0018 25.0035C37.2608 25.374 36.3598 25.0737 35.9893 24.3327L34.6584 21.6708C34.2879 20.9299 34.5882 20.0288 35.3292 19.6584Z" fill="black"/>
<path fill-rule="evenodd" clip-rule="evenodd" d="M65.3469 36.2877C66.021 35.8062 66.1771 34.8694 65.6956 34.1953C65.2141 33.5212 64.2773 33.365 63.6031 33.8465L49.6281 43.8287C49.6092 43.8422 49.5907 43.8561 49.5726 43.8703C49.0899 43.6637 48.5583 43.5493 48 43.5493C45.7909 43.5493 44 45.3402 44 47.5493C44 47.7714 44.0181 47.9893 44.0529 48.2016L42.6679 49.1249C41.9787 49.5844 41.7924 50.5157 42.2519 51.205C42.7115 51.8943 43.6428 52.0805 44.3321 51.621L45.6185 50.7634C46.2838 51.2572 47.1078 51.5493 48 51.5493C50.2091 51.5493 52 49.7585 52 47.5493C52 47.0128 51.8944 46.501 51.7028 46.0335L65.3469 36.2877ZM47 47.5493C47 46.997 47.4477 46.5493 48 46.5493C48.5523 46.5493 49 46.997 49 47.5493C49 48.1016 48.5523 48.5493 48 48.5493C47.4477 48.5493 47 48.1016 47 47.5493Z" fill="black"/>
<path fill-rule="evenodd" clip-rule="evenodd" d="M30 59.5C30 58.6716 30.6716 58 31.5 58H63.5C64.3284 58 65 58.6716 65 59.5V66.5C65 67.3284 64.3284 68 63.5 68H31.5C30.6716 68 30 67.3284 30 66.5V59.5ZM33 61V65H62V61H33Z" fill="black"/>
<path d="M41 75.999C41.8284 75.999 42.5 75.3274 42.5 74.499C42.5 73.6706 41.8284 72.999 41 72.999C40.1716 72.999 39.5 73.6706 39.5 74.499C39.5 75.3274 40.1716 75.999 41 75.999Z" fill="black"/>
<path d="M49.5 74.499C49.5 75.3274 48.8284 75.999 48 75.999C47.1716 75.999 46.5 75.3274 46.5 74.499C46.5 73.6706 47.1716 72.999 48 72.999C48.8284 72.999 49.5 73.6706 49.5 74.499Z" fill="black"/>
<path d="M55 75.999C55.8284 75.999 56.5 75.3274 56.5 74.499C56.5 73.6706 55.8284 72.999 55 72.999C54.1716 72.999 53.5 73.6706 53.5 74.499C53.5 75.3274 54.1716 75.999 55 75.999Z" fill="black"/>
<path fill-rule="evenodd" clip-rule="evenodd" d="M48 10C27.0132 10 10 27.0132 10 48C10 68.9868 27.0132 86 48 86C68.9868 86 86 68.9868 86 48C86 27.0132 68.9868 10 48 10ZM13 48C13 28.67 28.67 13 48 13C67.33 13 83 28.67 83 48C83 67.33 67.33 83 48 83C28.67 83 13 67.33 13 48Z" fill="black"/>
<path fill-rule="evenodd" clip-rule="evenodd" d="M48 1C22.0426 1 1 22.0426 1 48C1 73.9574 22.0426 95 48 95C73.9574 95 95 73.9574 95 48C95 22.0426 73.9574 1 48 1ZM4 48C4 23.6995 23.6995 4 48 4C72.3005 4 92 23.6995 92 48C92 72.3005 72.3005 92 48 92C23.6995 92 4 72.3005 4 48Z" fill="black"/>
</svg>
