<svg width="196" height="196" viewBox="0 0 196 196" fill="none" xmlns="http://www.w3.org/2000/svg">
<path opacity="0.07" fill-rule="evenodd" clip-rule="evenodd" d="M12.9756 118.624C27.1767 160.964 33.9195 179.925 45.3751 183.597C45.7078 183.703 46.0361 183.809 46.3606 183.913C63.3012 189.35 69.5184 191.345 118.212 185.361C159.727 180.259 166.005 167.909 173.211 153.733C174.619 150.964 176.063 148.125 177.811 145.256C188.509 127.705 199.107 58.0263 167.805 27.2565C136.502 -3.51324 77.0682 9.78142 51.4037 25.8306C25.7391 41.8798 -1.22556 76.2828 12.9756 118.624ZM97 176C55.0264 176 21 141.974 21 100C21 58.0264 55.0264 24 97 24C138.974 24 173 58.0264 173 100C173 141.974 138.974 176 97 176Z" fill="black"/>
<path opacity="0.2" d="M103.529 166.257C136.516 166.257 163.258 139.516 163.258 106.529C163.258 73.5416 136.516 46.8003 103.529 46.8003C70.5421 46.8003 43.8008 73.5416 43.8008 106.529C43.8008 139.516 70.5421 166.257 103.529 166.257Z" fill="black"/>
<path fill-rule="evenodd" clip-rule="evenodd" d="M145.5 6L154 14.5L145.5 23L137 14.5L145.5 6ZM142.667 14.5L145.5 17.3333L148.333 14.5L145.5 11.6667L142.667 14.5Z" fill="black"/>
<path d="M69.7273 100.807C69.7273 85.3152 82.1346 72.7273 97.2476 72.7273C102.36 72.7273 107.296 74.1503 111.277 76.6464C112.213 77.2332 113.447 76.9502 114.034 76.0144C114.621 75.0786 114.338 73.8443 113.402 73.2575C108.759 70.3461 103.081 68.7273 97.2476 68.7273C79.8551 68.7273 65.7273 83.1771 65.7273 100.807C65.7273 104.932 66.4333 108.729 67.8557 112.353C68.2594 113.381 69.4201 113.887 70.4483 113.483C71.4764 113.08 71.9827 111.919 71.5791 110.891C70.348 107.755 69.7273 104.455 69.7273 100.807Z" fill="black"/>
<path d="M96.5393 82.8184C93.717 82.8184 90.9628 83.1962 88.5696 84.0338C87.5271 84.3987 86.3861 83.8494 86.0212 82.8068C85.6563 81.7642 86.2057 80.6233 87.2482 80.2584C90.166 79.2372 93.3867 78.8184 96.5393 78.8184C100.266 78.8184 104.005 79.526 107.24 80.8202C108.266 81.2305 108.765 82.3944 108.354 83.42C107.944 84.4455 106.78 84.9444 105.755 84.5342C103.015 83.4384 99.7832 82.8184 96.5393 82.8184Z" fill="black"/>
<path d="M100.343 53.7217C100.343 52.6171 99.4478 51.7217 98.3433 51.7217C97.2387 51.7217 96.3433 52.6171 96.3433 53.7217V58.0509C96.3433 59.1555 97.2387 60.0509 98.3433 60.0509C99.4478 60.0509 100.343 59.1555 100.343 58.0509V53.7217Z" fill="black"/>
<path d="M139.636 101.343C139.636 100.239 140.531 99.3433 141.636 99.3433H145.965C147.07 99.3433 147.965 100.239 147.965 101.343C147.965 102.448 147.07 103.343 145.965 103.343H141.636C140.531 103.343 139.636 102.448 139.636 101.343Z" fill="black"/>
<path d="M50.7218 99.3433C49.6172 99.3433 48.7218 100.239 48.7218 101.343C48.7218 102.448 49.6172 103.343 50.7218 103.343H55.0511C56.1556 103.343 57.0511 102.448 57.0511 101.343C57.0511 100.239 56.1556 99.3433 55.0511 99.3433H50.7218Z" fill="black"/>
<path d="M133.227 66.4596C134.008 67.2406 134.008 68.5069 133.227 69.288L130.062 72.4526C129.281 73.2337 128.015 73.2337 127.234 72.4526C126.453 71.6716 126.453 70.4052 127.234 69.6242L130.398 66.4596C131.18 65.6785 132.446 65.6785 133.227 66.4596Z" fill="black"/>
<path d="M66.288 66.4596C65.5069 65.6785 64.2406 65.6785 63.4596 66.4596C62.6785 67.2406 62.6785 68.5069 63.4596 69.288L66.6242 72.4526C67.4052 73.2337 68.6716 73.2337 69.4526 72.4526C70.2337 71.6716 70.2337 70.4052 69.4526 69.6242L66.288 66.4596Z" fill="black"/>
<path d="M118.719 56.2614C119.707 56.7554 120.108 57.9568 119.614 58.9447L117.449 63.274C116.955 64.2619 115.754 64.6624 114.766 64.1684C113.778 63.6744 113.378 62.4731 113.872 61.4851L116.036 57.1559C116.53 56.1679 117.731 55.7675 118.719 56.2614Z" fill="black"/>
<path d="M138.201 116.872C137.213 116.378 136.012 116.778 135.518 117.766C135.024 118.754 135.424 119.955 136.412 120.449L140.741 122.614C141.729 123.108 142.931 122.707 143.425 121.719C143.919 120.731 143.518 119.53 142.53 119.036L138.201 116.872Z" fill="black"/>
<path d="M53.2614 83.1317C53.7554 82.1437 54.9568 81.7433 55.9447 82.2373L60.274 84.4019C61.2619 84.8959 61.6624 86.0972 61.1684 87.0852C60.6744 88.0731 59.4731 88.4736 58.4851 87.9796L54.1559 85.815C53.1679 85.321 52.7675 84.1197 53.2614 83.1317Z" fill="black"/>
<path d="M142.53 85.815C143.518 85.321 143.919 84.1197 143.425 83.1317C142.931 82.1437 141.729 81.7433 140.741 82.2373L136.412 84.4019C135.424 84.8959 135.024 86.0972 135.518 87.0852C136.012 88.0731 137.213 88.4736 138.201 87.9796L142.53 85.815Z" fill="black"/>
<path d="M61.1684 117.766C61.6624 118.754 61.2619 119.955 60.274 120.449L55.9447 122.614C54.9568 123.108 53.7554 122.707 53.2614 121.719C52.7675 120.731 53.1679 119.53 54.1559 119.036L58.4851 116.872C59.4731 116.378 60.6744 116.778 61.1684 117.766Z" fill="black"/>
<path d="M82.815 57.1559C82.321 56.1679 81.1197 55.7675 80.1317 56.2614C79.1437 56.7554 78.7433 57.9568 79.2373 58.9447L81.4019 63.274C81.8959 64.2619 83.0972 64.6624 84.0852 64.1684C85.0731 63.6744 85.4736 62.4731 84.9796 61.4851L82.815 57.1559Z" fill="black"/>
<path fill-rule="evenodd" clip-rule="evenodd" d="M127.028 79.6171C127.67 80.5159 127.462 81.765 126.563 82.407L104.008 98.5176C104.434 99.3683 104.673 100.328 104.673 101.344C104.673 104.839 101.839 107.673 98.3435 107.673C96.6539 107.673 95.119 107.011 93.9839 105.932L91.8767 107.337C90.9577 107.949 89.7159 107.701 89.1032 106.782C88.4905 105.863 88.7389 104.621 89.6579 104.009L92.0989 102.381C92.0432 102.044 92.0143 101.697 92.0143 101.344C92.0143 97.8481 94.848 95.0144 98.3435 95.0144C99.3628 95.0144 100.326 95.2553 101.179 95.6834C101.276 95.5747 101.386 95.475 101.51 95.3868L124.238 79.1521C125.137 78.5101 126.386 78.7182 127.028 79.6171ZM98.3435 99.0144C97.0571 99.0144 96.0143 100.057 96.0143 101.344C96.0143 102.63 97.0571 103.673 98.3435 103.673C99.6299 103.673 100.673 102.63 100.673 101.344C100.673 100.057 99.6299 99.0144 98.3435 99.0144Z" fill="black"/>
<path fill-rule="evenodd" clip-rule="evenodd" d="M72 119C70.8954 119 70 119.895 70 121V132C70 133.105 70.8954 134 72 134H124C125.105 134 126 133.105 126 132V121C126 119.895 125.105 119 124 119H72ZM74 130V123H122V130H74Z" fill="black"/>
<path d="M89.3555 144.471C89.3555 145.576 88.46 146.471 87.3555 146.471C86.2509 146.471 85.3555 145.576 85.3555 144.471C85.3555 143.366 86.2509 142.471 87.3555 142.471C88.46 142.471 89.3555 143.366 89.3555 144.471Z" fill="black"/>
<path d="M98.1786 146.471C99.2832 146.471 100.179 145.576 100.179 144.471C100.179 143.366 99.2832 142.471 98.1786 142.471C97.074 142.471 96.1786 143.366 96.1786 144.471C96.1786 145.576 97.074 146.471 98.1786 146.471Z" fill="black"/>
<path d="M111.002 144.471C111.002 145.576 110.107 146.471 109.002 146.471C107.898 146.471 107.002 145.576 107.002 144.471C107.002 143.366 107.898 142.471 109.002 142.471C110.107 142.471 111.002 143.366 111.002 144.471Z" fill="black"/>
<path fill-rule="evenodd" clip-rule="evenodd" d="M35 100C35 65.7583 62.7583 38 97 38C131.242 38 159 65.7583 159 100C159 134.242 131.242 162 97 162C62.7583 162 35 134.242 35 100ZM97 42C64.9675 42 39 67.9675 39 100C39 132.033 64.9675 158 97 158C129.033 158 155 132.033 155 100C155 67.9675 129.033 42 97 42Z" fill="black"/>
<path fill-rule="evenodd" clip-rule="evenodd" d="M21 100C21 58.0264 55.0264 24 97 24C138.974 24 173 58.0264 173 100C173 141.974 138.974 176 97 176C55.0264 176 21 141.974 21 100ZM97 28C57.2355 28 25 60.2355 25 100C25 139.765 57.2355 172 97 172C136.765 172 169 139.765 169 100C169 60.2355 136.765 28 97 28Z" fill="black"/>
<path d="M24 139L19 134L14 139L19 144L24 139Z" fill="black"/>
<path d="M176 144C177.105 144 178 144.895 178 146V150H182C183.105 150 184 150.895 184 152C184 153.105 183.105 154 182 154H178V158C178 159.105 177.105 160 176 160C174.895 160 174 159.105 174 158V154H170C168.895 154 168 153.105 168 152C168 150.895 168.895 150 170 150H174V146C174 144.895 174.895 144 176 144Z" fill="black"/>
</svg>
