<svg width="48" height="48" viewBox="0 0 48 48" fill="none" xmlns="http://www.w3.org/2000/svg">
<path opacity="0.2" d="M26.5 45C36.7173 45 45 36.7173 45 26.5C45 16.2827 36.7173 8 26.5 8C16.2827 8 8 16.2827 8 26.5C8 36.7173 16.2827 45 26.5 45Z" fill="black"/>
<path d="M24 8.99438C24.5247 8.99438 24.95 9.41971 24.95 9.94438V11.2315C24.95 11.7561 24.5247 12.1815 24 12.1815C23.4754 12.1815 23.05 11.7561 23.05 11.2315V9.94438C23.05 9.41971 23.4754 8.99438 24 8.99438Z" fill="black"/>
<path d="M37.0551 23.1521C36.5304 23.1521 36.1051 23.5774 36.1051 24.1021C36.1051 24.6268 36.5304 25.0521 37.0551 25.0521H38.3422C38.8668 25.0521 39.2922 24.6268 39.2922 24.1021C39.2922 23.5774 38.8668 23.1521 38.3422 23.1521H37.0551Z" fill="black"/>
<path d="M9.02808 24.1021C9.02808 23.5774 9.45341 23.1521 9.97808 23.1521H11.2652C11.7898 23.1521 12.2152 23.5774 12.2152 24.1021C12.2152 24.6268 11.7898 25.0521 11.2652 25.0521H9.97808C9.45341 25.0521 9.02808 24.6268 9.02808 24.1021Z" fill="black"/>
<path d="M35.3719 14.772C35.7497 14.4078 35.7607 13.8064 35.3966 13.4287C35.0325 13.0509 34.4311 13.0398 34.0534 13.4039L33.0111 14.4085C32.6333 14.7726 32.6222 15.374 32.9863 15.7518C33.3504 16.1296 33.9518 16.1406 34.3296 15.7765L35.3719 14.772Z" fill="black"/>
<path d="M13.658 13.4162C14.029 13.0452 14.6305 13.0452 15.0015 13.4162L16.0061 14.4208C16.3771 14.7918 16.3771 15.3933 16.0061 15.7643C15.6351 16.1353 15.0336 16.1353 14.6626 15.7643L13.658 14.7597C13.287 14.3887 13.287 13.7872 13.658 13.4162Z" fill="black"/>
<path d="M30.8119 11.6561C31.0465 11.1868 30.8563 10.6161 30.387 10.3815C29.9177 10.1469 29.3471 10.3371 29.1124 10.8064L28.4689 12.0934C28.2343 12.5627 28.4245 13.1334 28.8938 13.368C29.363 13.6026 29.9337 13.4124 30.1683 12.9431L30.8119 11.6561Z" fill="black"/>
<path d="M35.2383 28.8256C35.473 28.3564 36.0436 28.1662 36.5129 28.4008L37.8 29.0443C38.2692 29.279 38.4594 29.8496 38.2248 30.3189C37.9902 30.7882 37.4195 30.9784 36.9502 30.7437L35.6632 30.1002C35.1939 29.8656 35.0037 29.2949 35.2383 28.8256Z" fill="black"/>
<path d="M11.5633 18.0734C11.094 17.8388 10.5234 18.029 10.2887 18.4983C10.0541 18.9675 10.2443 19.5382 10.7136 19.7728L12.0007 20.4164C12.4699 20.651 13.0406 20.4608 13.2752 19.9915C13.5099 19.5222 13.3196 18.9516 12.8504 18.7169L11.5633 18.0734Z" fill="black"/>
<path d="M37.7413 18.5288C37.9759 18.9981 37.7857 19.5687 37.3164 19.8033L36.0294 20.4469C35.5601 20.6815 34.9894 20.4913 34.7548 20.022C34.5202 19.5527 34.7104 18.9821 35.1797 18.7475L36.4667 18.1039C36.936 17.8693 37.5066 18.0595 37.7413 18.5288Z" fill="black"/>
<path d="M13.1404 30.1002C13.6097 29.8656 13.7999 29.2949 13.5653 28.8256C13.3306 28.3564 12.76 28.1662 12.2907 28.4008L11.0036 29.0443C10.5343 29.279 10.3441 29.8496 10.5788 30.3189C10.8134 30.7882 11.3841 30.9784 11.8533 30.7437L13.1404 30.1002Z" fill="black"/>
<path d="M18.0147 10.3371C18.484 10.1024 19.0547 10.2926 19.2893 10.7619L19.9328 12.049C20.1675 12.5183 19.9773 13.0889 19.508 13.3236C19.0387 13.5582 18.4681 13.368 18.2334 12.8987L17.5899 11.6116C17.3552 11.1424 17.5455 10.5717 18.0147 10.3371Z" fill="black"/>
<path fill-rule="evenodd" clip-rule="evenodd" d="M32.723 20.8138C33.1724 20.4928 33.2765 19.8683 32.9555 19.4188C32.6345 18.9694 32.0099 18.8653 31.5605 19.1863L24.896 23.9467C24.6703 23.8689 24.428 23.8267 24.1758 23.8267C22.956 23.8267 21.967 24.8156 21.967 26.0355C21.967 26.0962 21.9695 26.1564 21.9743 26.216L21.4453 26.5687C20.9858 26.875 20.8616 27.4959 21.1679 27.9554C21.4743 28.415 22.0952 28.5391 22.5547 28.2328L23.0235 27.9202C23.359 28.1258 23.7536 28.2442 24.1758 28.2442C25.3957 28.2442 26.3846 27.2553 26.3846 26.0355C26.3846 25.8168 26.3529 25.6056 26.2937 25.4062L32.723 20.8138ZM23.967 26.0355C23.967 25.9201 24.0605 25.8267 24.1758 25.8267C24.2911 25.8267 24.3846 25.9201 24.3846 26.0355C24.3846 26.1508 24.2911 26.2442 24.1758 26.2442C24.0605 26.2442 23.967 26.1508 23.967 26.0355Z" fill="black"/>
<path fill-rule="evenodd" clip-rule="evenodd" d="M15 31C15 30.4477 15.4477 30 16 30H33C33.5523 30 34 30.4477 34 31V35C34 35.5523 33.5523 36 33 36H16C15.4477 36 15 35.5523 15 35V31ZM17 32V34H32V32H17Z" fill="black"/>
<path d="M20 39C20.5523 39 21 38.5523 21 38C21 37.4477 20.5523 37 20 37C19.4477 37 19 37.4477 19 38C19 38.5523 19.4477 39 20 39Z" fill="black"/>
<path d="M25 38C25 38.5523 24.5523 39 24 39C23.4477 39 23 38.5523 23 38C23 37.4477 23.4477 37 24 37C24.5523 37 25 37.4477 25 38Z" fill="black"/>
<path d="M28 39C28.5523 39 29 38.5523 29 38C29 37.4477 28.5523 37 28 37C27.4477 37 27 37.4477 27 38C27 38.5523 27.4477 39 28 39Z" fill="black"/>
<path d="M24.6624 15.7159C20.3012 15.7159 16.7159 19.3496 16.7159 23.8265C16.7159 24.8817 16.8953 25.834 17.2504 26.7385C17.3948 27.1065 17.2136 27.5219 16.8456 27.6664C16.4776 27.8109 16.0621 27.6296 15.9177 27.2616C15.4941 26.1827 15.2842 25.0522 15.2842 23.8265C15.2842 18.5843 19.4853 14.2842 24.6624 14.2842C26.3974 14.2842 28.0874 14.7655 29.4712 15.6332C29.8062 15.8432 29.9075 16.285 29.6974 16.62C29.4874 16.955 29.0456 17.0562 28.7107 16.8462C27.5639 16.1271 26.1394 15.7159 24.6624 15.7159Z" fill="black"/>
<path d="M22.2365 20.0653C22.9218 19.8255 23.7149 19.7159 24.5325 19.7159C25.4688 19.7159 26.4008 19.895 27.1887 20.2102C27.5558 20.357 27.9724 20.1784 28.1192 19.8114C28.266 19.4443 28.0875 19.0277 27.7204 18.8808C26.755 18.4947 25.6416 18.2842 24.5325 18.2842C23.5967 18.2842 22.6366 18.4084 21.7635 18.714C21.3903 18.8446 21.1937 19.253 21.3243 19.6261C21.4549 19.9993 21.8633 20.1959 22.2365 20.0653Z" fill="black"/>
<path fill-rule="evenodd" clip-rule="evenodd" d="M24 5C13.5066 5 5 13.5066 5 24C5 34.4934 13.5066 43 24 43C34.4934 43 43 34.4934 43 24C43 13.5066 34.4934 5 24 5ZM7 24C7 14.6112 14.6112 7 24 7C33.3888 7 41 14.6112 41 24C41 33.3888 33.3888 41 24 41C14.6112 41 7 33.3888 7 24Z" fill="black"/>
<path fill-rule="evenodd" clip-rule="evenodd" d="M24 1C11.2975 1 1 11.2975 1 24C1 36.7025 11.2975 47 24 47C36.7025 47 47 36.7025 47 24C47 11.2975 36.7025 1 24 1ZM3 24C3 12.402 12.402 3 24 3C35.598 3 45 12.402 45 24C45 35.598 35.598 45 24 45C12.402 45 3 35.598 3 24Z" fill="black"/>
</svg>
