<svg width="96" height="96" viewBox="0 0 96 96" fill="none" xmlns="http://www.w3.org/2000/svg">
<g opacity="0.2">
<path fill-rule="evenodd" clip-rule="evenodd" d="M77.9097 34.1585C79.5355 36.7327 80.6194 39.5778 81.4323 42.5585L92 43.9133V57.4617L81.4323 58.8165C80.6194 61.7972 79.4 64.6423 77.9097 67.2165L84.4129 75.6165L74.929 85.1004L66.529 78.5972C63.9548 80.223 61.1097 81.3069 58.129 82.1198L56.7742 92.6875H43.2258L41.871 82.1198C38.8903 81.3069 36.2202 80.4256 33.646 78.9353L24.7257 85.1004L15.8053 75.6165L21.7522 67.0415C20.1264 64.4673 19.3806 61.7972 18.5677 58.8165L8 57.3778V43.9133L18.7788 42.5105C18.8206 42.3572 18.862 42.2048 18.9032 42.0533C19.6628 39.2602 20.3386 36.7753 21.7522 34.3335L15.8053 25.4132L24.7257 16.4928L33.646 22.4397C35.8532 21.0457 38.0956 20.4538 40.569 19.801C40.9803 19.6924 41.398 19.5822 41.823 19.4663L43.2258 8.6875H56.6903L58.177 19.2552C61.1576 20.0681 63.9548 21.2875 66.529 22.7778L74.929 16.2746L84.4129 25.7585L77.9097 34.1585ZM69 46.6875C69 33.9916 58.696 23.6875 46.0001 23.6875C33.3041 23.6875 23 33.9916 23 46.6875C23 59.3834 33.3041 69.6875 46.0001 69.6875C58.696 69.6875 69 59.3834 69 46.6875Z" fill="black"/>
<path d="M46 62.5C54.8366 62.5 62 55.3366 62 46.5C62 37.6634 54.8366 30.5 46 30.5C37.1634 30.5 30 37.6634 30 46.5C30 55.3366 37.1634 62.5 46 62.5Z" fill="black"/>
</g>
<path fill-rule="evenodd" clip-rule="evenodd" d="M46.5 29C36.835 29 29 36.835 29 46.5C29 56.165 36.835 64 46.5 64C56.165 64 64 56.165 64 46.5C64 36.835 56.165 29 46.5 29ZM32 46.5C32 38.4919 38.4919 32 46.5 32C54.5081 32 61 38.4919 61 46.5C61 54.5081 54.5081 61 46.5 61C38.4919 61 32 54.5081 32 46.5Z" fill="black"/>
<path fill-rule="evenodd" clip-rule="evenodd" d="M22 46.5C22 32.9756 32.9757 22 46.5001 22C60.0244 22 71 32.9757 71 46.5C71 60.0244 60.0244 71 46.5001 71C32.9757 71 22 60.0244 22 46.5ZM46.5001 25C34.6326 25 25 34.6325 25 46.5C25 58.3675 34.6326 68 46.5001 68C58.3676 68 68 58.3675 68 46.5C68 34.6325 58.3676 25 46.5001 25Z" fill="black"/>
<path fill-rule="evenodd" clip-rule="evenodd" d="M38.2383 4.30642C38.3356 3.55912 38.9722 3 39.7258 3H53.1903C53.938 3 54.5715 3.55063 54.6756 4.29103L56.0269 13.8961C58.4514 14.6336 60.748 15.624 62.8969 16.7956L70.5108 10.901C71.1079 10.4387 71.9557 10.4924 72.4897 11.0264L81.9736 20.5103C82.5076 21.0443 82.5613 21.8921 82.099 22.4892L76.2243 30.0773C77.484 32.272 78.3956 34.6122 79.1047 37.009L88.6908 38.238C89.4393 38.334 90 38.9711 90 39.7258V53.2742C90 54.0289 89.4393 54.666 88.6908 54.762L79.1005 55.9915C78.3644 58.4157 77.3758 60.7396 76.2039 62.8963L82.099 70.5108C82.5613 71.1079 82.5076 71.9557 81.9736 72.4897L72.4897 81.9736C71.9557 82.5076 71.1079 82.5613 70.5108 82.099L62.9227 76.2243C60.728 77.484 58.3878 78.3956 55.991 79.1047L54.762 88.6908C54.666 89.4393 54.0289 90 53.2742 90H39.7258C38.9711 90 38.334 89.4393 38.238 88.6908L37.0097 79.1098C34.6544 78.4366 32.4166 77.6639 30.2339 76.5104L22.0785 82.1469C21.4682 82.5687 20.6413 82.481 20.133 81.9406L11.2127 72.4567C10.7275 71.9409 10.6692 71.1561 11.0727 70.5742L16.4701 62.7915C15.2286 60.5753 14.5271 58.3034 13.8834 55.9816L4.29765 54.6766C3.55428 54.5753 3 53.9405 3 53.1903V39.7258C3 38.9722 3.55912 38.3356 4.30642 38.2383L14.0937 36.9646C14.7208 34.6639 15.3625 32.4259 16.5007 30.223L11.0572 22.0577C10.6606 21.4628 10.7391 20.6706 11.2446 20.165L20.165 11.2446C20.6706 10.7391 21.4628 10.6606 22.0577 11.0572L30.1959 16.4827C32.344 15.3042 34.5377 14.7272 36.7167 14.1542L36.9652 14.0888L38.2383 4.30642ZM41.0432 6L39.8105 15.4723C39.7324 16.0724 39.3014 16.5667 38.7177 16.7259C38.2711 16.8477 37.8404 16.9618 37.4232 17.0723C34.9452 17.7287 32.945 18.2586 30.947 19.5204C30.4464 19.8366 29.8066 19.8287 29.314 19.5003L21.4168 14.2355L14.2355 21.4168L19.5003 29.314C19.8171 29.7892 19.8365 30.4032 19.5504 30.8976C18.2374 33.1655 17.6087 35.475 16.8344 38.3192L16.7259 38.7177C16.5667 39.3014 16.0724 39.7324 15.4723 39.8105L6 41.0432V51.8806L15.2701 53.1427C15.8664 53.2239 16.3565 53.6537 16.5149 54.2344C17.3335 57.2358 18.0311 59.6949 19.5204 62.053C19.842 62.5621 19.8279 63.214 19.4848 63.7088L14.23 71.2859L21.4343 78.9453L29.2932 73.5138C29.7705 73.1839 30.3954 73.1589 30.8976 73.4496C33.3027 74.8421 35.8243 75.6829 38.7656 76.4851C39.3504 76.6446 39.7817 77.1403 39.8588 77.7415L41.0458 87H51.9542L53.1412 77.7415C53.2183 77.1403 53.6496 76.6446 54.2344 76.4851C57.1266 75.6963 59.8203 74.6622 62.228 73.1414C62.7614 72.8046 63.4485 72.8374 63.9473 73.2236L71.3026 78.918L78.918 71.3026L73.2236 63.9473C72.8503 63.4652 72.8061 62.8051 73.1115 62.2775C74.5406 59.8091 75.7081 57.0833 76.4851 54.2344C76.6446 53.6496 77.1403 53.2183 77.7415 53.1412L87 51.9542V41.0458L77.7415 39.8588C77.1403 39.7817 76.6446 39.3504 76.4851 38.7656C75.6963 35.8734 74.6622 33.1798 73.1414 30.772C72.8046 30.2386 72.8374 29.5515 73.2236 29.0527L78.918 21.6974L71.3026 14.082L63.9473 19.7764C63.4652 20.1497 62.8051 20.1939 62.2775 19.8885C59.8035 18.4561 57.1255 17.2903 54.2823 16.5149C53.704 16.3572 53.2751 15.8703 53.1916 15.2767L51.8865 6H41.0432Z" fill="black"/>
</svg>
