<svg width="50" height="48" viewBox="0 0 50 48" fill="none" xmlns="http://www.w3.org/2000/svg">
<g opacity="0.2">
<path fill-rule="evenodd" clip-rule="evenodd" d="M42.1738 17.248C43.028 18.6006 43.5975 20.0954 44.0246 21.6615L49.577 22.3734V29.4918L44.0246 30.2037C43.5975 31.7698 42.9568 33.2646 42.1738 34.6172L45.5907 39.0306L40.6077 44.0136L36.1942 40.5967C34.8417 41.4509 33.3469 42.0204 31.7808 42.4475L31.0689 47.9999H23.9504L23.2386 42.4475C21.6725 42.0204 20.2696 41.5574 18.9171 40.7743L14.2302 44.0136L11.9202 41.5221L9.54339 39.0306L12.668 34.5252C11.8137 33.1727 11.4219 31.7698 10.9948 30.2037L5.44238 29.4478V25.9326L5.63767 22.4175L11.1057 21.6363C11.1276 21.5557 11.1494 21.4757 11.1711 21.3961C11.5702 19.9286 11.9252 18.623 12.668 17.34L9.54339 12.6532L14.2302 7.9663L18.9171 11.0909C20.0768 10.3585 21.255 10.0475 22.5545 9.70445C22.7706 9.64741 22.9901 9.58948 23.2134 9.52859L23.9504 3.8653H31.0248L31.806 9.41772C33.372 9.84482 34.8417 10.4855 36.1942 11.2685L40.6077 7.85165L45.5907 12.8346L42.1738 17.248ZM35.754 24.0693C35.754 17.3858 30.3298 11.9615 23.6463 11.9615C16.9629 11.9615 11.5386 17.3858 11.5386 24.0693C11.5386 30.7527 16.9629 36.177 23.6463 36.177C30.3298 36.177 35.754 30.7527 35.754 24.0693Z" fill="black"/>
<path d="M24 32C28.4183 32 32 28.4183 32 24C32 19.5817 28.4183 16 24 16C19.5817 16 16 19.5817 16 24C16 28.4183 19.5817 32 24 32Z" fill="black"/>
</g>
<path fill-rule="evenodd" clip-rule="evenodd" d="M24 15C19.0294 15 15 19.0294 15 24C15 28.9706 19.0294 33 24 33C28.9706 33 33 28.9706 33 24C33 19.0294 28.9706 15 24 15ZM17 24C17 20.134 20.134 17 24 17C27.866 17 31 20.134 31 24C31 27.866 27.866 31 24 31C20.134 31 17 27.866 17 24Z" fill="black"/>
<path fill-rule="evenodd" clip-rule="evenodd" d="M11 24C11 16.8237 16.8238 11 24 11C31.1763 11 37 16.8238 37 24C37 31.1763 31.1763 37 24 37C16.8238 37 11 31.1763 11 24ZM24 13C17.9284 13 13 17.9283 13 24C13 30.0717 17.9284 35 24 35C30.0717 35 35 30.0717 35 24C35 17.9283 30.0717 13 24 13Z" fill="black"/>
<path fill-rule="evenodd" clip-rule="evenodd" d="M19.46 1.87094C19.5248 1.37275 19.9492 1 20.4516 1H27.5044C28.0029 1 28.4252 1.36709 28.4947 1.86069L29.1835 6.75711C30.3741 7.129 31.5051 7.61551 32.568 8.18567L36.4459 5.18347C36.844 4.87526 37.4092 4.91108 37.7652 5.26709L42.7329 10.2348C43.0889 10.5908 43.1247 11.156 42.8165 11.5541L39.8266 15.416C40.4371 16.5059 40.8886 17.6584 41.244 18.8337L46.1272 19.4597C46.6262 19.5237 47 19.9485 47 20.4516V27.5484C47 28.0515 46.6262 28.4763 46.1272 28.5403L41.2407 29.1667C40.8696 30.3571 40.3842 31.5001 39.8139 32.5675L42.8165 36.4459C43.1247 36.844 43.0889 37.4092 42.7329 37.7652L37.7652 42.7329C37.4092 43.0889 36.844 43.1247 36.4459 42.8165L32.584 39.8266C31.4941 40.4371 30.3416 40.8886 29.1663 41.244L28.5403 46.1272C28.4763 46.6262 28.0515 47 27.5484 47H20.4516C19.9485 47 19.5237 46.6262 19.4597 46.1272L18.8342 41.2483C17.6836 40.9145 16.5776 40.5283 15.4951 39.9696L11.3296 42.8485C10.9205 43.1312 10.3659 43.0704 10.0278 42.7057L7.72963 40.2271L5.36494 37.7483C5.03725 37.4048 4.99623 36.8783 5.26677 36.4882L8.01823 32.5208C7.41896 31.4179 7.0633 30.2925 6.74645 29.1599L1.8651 28.4953C1.36952 28.4278 1 28.0046 1 27.5044V24C1 23.9815 1.00051 23.963 1.00154 23.9445L1.19623 20.4401C1.22267 19.9642 1.58138 19.573 2.05327 19.5056L6.85375 18.8198C7.16104 17.6972 7.48753 16.5858 8.03825 15.4885L5.25645 11.3158C4.99203 10.9191 5.04432 10.391 5.38139 10.054L10.054 5.38139C10.391 5.04432 10.9191 4.99203 11.3158 5.25645L15.4715 8.02697C16.5824 7.43892 17.7135 7.14053 18.8117 6.852L19.46 1.87094ZM21.3299 3L20.7085 7.77507C20.6564 8.17508 20.3691 8.50464 19.9799 8.61078C19.7429 8.67542 19.5154 8.73574 19.2961 8.7939C17.9975 9.13823 16.9844 9.40685 15.9676 10.049C15.6339 10.2598 15.2074 10.2545 14.8789 10.0356L10.8885 7.37529L7.37529 10.8885L10.0356 14.8789C10.2468 15.1958 10.2598 15.6051 10.069 15.9347C9.39554 17.0979 9.07295 18.2826 8.66495 19.7811L8.61078 19.9799C8.50584 20.3647 8.18228 20.6504 7.78744 20.7068L3.14768 21.3696L3 24.0278V26.6313L7.67039 27.2672C8.06796 27.3213 8.39468 27.6079 8.50025 27.9949C8.92983 29.5701 9.28841 30.8281 10.049 32.0324C10.2634 32.3718 10.254 32.8064 10.0253 33.1363L7.37495 36.9578L9.18162 38.8517L9.19137 38.862L10.9053 40.7106L14.8651 37.9738C15.1833 37.7539 15.5999 37.7372 15.9347 37.931C17.1703 38.6464 18.4699 39.0811 20.0051 39.4998C20.3949 39.6061 20.6824 39.9366 20.7338 40.3374L21.3316 45H26.6684L27.2662 40.3374C27.3176 39.9366 27.6051 39.6061 27.9949 39.4998C29.4973 39.09 30.8866 38.5554 32.1241 37.7739C32.4796 37.5493 32.9377 37.5712 33.2702 37.8286L36.9738 40.6959L40.6959 36.9738L37.8286 33.2702C37.5798 32.9488 37.5503 32.5088 37.7539 32.157C38.4937 30.8792 39.0979 29.4685 39.4998 27.9949C39.6061 27.6051 39.9366 27.3176 40.3374 27.2662L45 26.6684V21.3316L40.3374 20.7338C39.9366 20.6824 39.6061 20.3949 39.4998 20.0051C39.09 18.5027 38.5554 17.1134 37.7739 15.8759C37.5493 15.5204 37.5712 15.0623 37.8286 14.7298L40.6959 11.0262L36.9738 7.30412L33.2702 10.1714C32.9488 10.4202 32.5088 10.4497 32.157 10.2461C30.8754 9.5041 29.4897 8.90107 28.0201 8.50025C27.6345 8.3951 27.3486 8.07052 27.2929 7.6748L26.6353 3H21.3299Z" fill="black"/>
</svg>
