<svg width="196" height="196" viewBox="0 0 196 196" fill="none" xmlns="http://www.w3.org/2000/svg">
<path opacity="0.07" fill-rule="evenodd" clip-rule="evenodd" d="M94 188.5C151.5 182.75 164.156 178.577 180.482 147.437C189.335 130.553 188.784 99.3338 188.784 99.3338C188.784 99.3338 191.374 38.5159 172.776 19.1694C139.071 -7.36077 83.183 8.52583 40.93 29.0309C3.48585 47.2022 4.81134 90.2755 5.59808 115.841C5.69912 119.125 5.79127 122.119 5.79127 124.735C5.79141 144.25 36.5 194.25 94 188.5ZM81.178 24.7419C81.3077 23.7455 82.1565 23 83.1613 23H107.686C108.683 23 109.527 23.7342 109.666 24.7214L112.193 42.6808C116.88 44.0681 121.309 45.9831 125.434 48.2685L139.682 37.2379C140.478 36.6215 141.609 36.6931 142.321 37.4051L159.595 54.6793C160.307 55.3914 160.379 56.5217 159.762 57.3179L148.76 71.5289C151.227 75.7229 152.975 80.2344 154.319 84.8781L172.254 87.1775C173.252 87.3055 174 88.155 174 89.1613V113.839C174 114.845 173.252 115.695 172.254 115.822L154.315 118.122C152.929 122.809 151.017 127.296 148.731 131.434L159.762 145.682C160.379 146.478 160.307 147.609 159.595 148.321L142.321 165.595C141.609 166.307 140.478 166.379 139.682 165.762L125.471 154.76C121.277 157.227 116.766 158.975 112.122 160.319L109.822 178.254C109.695 179.252 108.845 180 107.839 180H83.1613C82.155 180 81.3055 179.252 81.1775 178.254L78.8788 160.324C74.2971 159.032 70.0004 157.566 65.8238 155.306L50.6017 165.826C49.788 166.388 48.6854 166.271 48.0078 165.551L31.76 148.277C31.1131 147.589 31.0353 146.543 31.5734 145.767L41.6669 131.212C39.2255 126.987 37.9151 122.638 36.6684 118.11L18.7302 115.668C17.739 115.533 17 114.686 17 113.686V89.1613C17 88.1565 17.7455 87.3077 18.7419 87.178L37.0527 84.795C38.2756 80.2977 39.4702 76.0143 41.7085 71.8077L31.5527 56.574C31.0239 55.7808 31.1285 54.7245 31.8026 54.0504L48.0504 37.8026C48.7245 37.1285 49.7808 37.0239 50.574 37.5527L65.7694 47.683C69.713 45.4393 73.7459 44.3777 77.8522 43.2967L77.859 43.2949C78.1708 43.2129 78.483 43.1307 78.7956 43.0478L81.178 24.7419Z" fill="black"/>
<g opacity="0.2">
<path fill-rule="evenodd" clip-rule="evenodd" d="M152.335 78.3935C155.297 83.0823 157.271 88.2645 158.752 93.6936L178 96.1613V120.839L158.752 123.306C157.271 128.735 155.05 133.918 152.335 138.606L164.181 153.906L146.906 171.181L131.606 159.335C126.918 162.297 121.735 164.271 116.306 165.752L113.839 185H89.1613L86.6936 165.752C81.2645 164.271 76.4011 162.666 71.7124 159.951L55.4646 171.181L39.2168 153.906L50.0487 138.288C47.0874 133.599 45.729 128.735 44.2484 123.306L25 120.686V96.1613L44.6327 93.6062C44.7089 93.3269 44.7844 93.0493 44.8594 92.7734C46.2429 87.686 47.4738 83.1599 50.0487 78.7124L39.2168 62.4646L55.4646 46.2168L71.7124 57.0487C75.7326 54.5096 79.817 53.4315 84.3222 52.2424C85.0713 52.0447 85.8321 51.8439 86.6062 51.6327L89.1613 32H113.686L116.394 51.2484C121.823 52.729 126.918 54.95 131.606 57.6645L146.906 45.8194L164.181 63.0936L152.335 78.3935ZM139 102C139 78.8161 120.184 60 97.0001 60C73.8163 60 55 78.8161 55 102C55 125.184 73.8163 144 97.0001 144C120.184 144 139 125.184 139 102Z" fill="black"/>
<path d="M101.5 137C117.792 137 131 123.792 131 107.5C131 91.2076 117.792 78 101.5 78C85.2076 78 72 91.2076 72 107.5C72 123.792 85.2076 137 101.5 137Z" fill="black"/>
</g>
<path fill-rule="evenodd" clip-rule="evenodd" d="M96.5 71C79.103 71 65 85.103 65 102.5C65 119.897 79.103 134 96.5 134C113.897 134 128 119.897 128 102.5C128 85.103 113.897 71 96.5 71ZM69 102.5C69 87.3122 81.3122 75 96.5 75C111.688 75 124 87.3122 124 102.5C124 117.688 111.688 130 96.5 130C81.3122 130 69 117.688 69 102.5Z" fill="black"/>
<path fill-rule="evenodd" clip-rule="evenodd" d="M52 102C52 77.7116 71.7117 58 96.0001 58C120.289 58 140 77.7116 140 102C140 126.288 120.289 146 96.0001 146C71.7117 146 52 126.288 52 102ZM96.0001 62C73.9208 62 56 79.9207 56 102C56 124.079 73.9208 142 96.0001 142C118.079 142 136 124.079 136 102C136 79.9207 118.079 62 96.0001 62Z" fill="black"/>
<path fill-rule="evenodd" clip-rule="evenodd" d="M83.1613 23C82.1565 23 81.3077 23.7455 81.178 24.7419L78.7956 43.0478C78.483 43.1307 78.1708 43.2129 77.859 43.2949L77.8522 43.2967C73.7459 44.3777 69.713 45.4393 65.7694 47.683L50.574 37.5527C49.7808 37.0239 48.7245 37.1285 48.0504 37.8026L31.8026 54.0504C31.1285 54.7245 31.0239 55.7808 31.5527 56.574L41.7085 71.8077C39.4702 76.0143 38.2756 80.2976 37.0527 84.795L18.7419 87.178C17.7455 87.3077 17 88.1565 17 89.1613V113.686C17 114.686 17.739 115.533 18.7302 115.668L36.6684 118.11C37.9151 122.638 39.2256 126.987 41.6669 131.212L31.5734 145.767C31.0353 146.543 31.1131 147.589 31.76 148.277L48.0078 165.551C48.6854 166.271 49.788 166.388 50.6017 165.826L65.8238 155.306C70.0004 157.566 74.2971 159.032 78.8788 160.324L81.1775 178.254C81.3055 179.252 82.155 180 83.1613 180H107.839C108.845 180 109.695 179.252 109.822 178.254L112.122 160.319C116.766 158.975 121.277 157.227 125.471 154.76L139.682 165.762C140.478 166.379 141.609 166.307 142.321 165.595L159.595 148.321C160.307 147.609 160.379 146.478 159.762 145.682L148.731 131.434C151.017 127.296 152.929 122.809 154.315 118.122L172.254 115.822C173.252 115.695 174 114.845 174 113.839V89.1613C174 88.155 173.252 87.3055 172.254 87.1775L154.319 84.8781C152.975 80.2344 151.227 75.7229 148.76 71.5289L159.762 57.3179C160.379 56.5217 160.307 55.3914 159.595 54.6793L142.321 37.4051C141.609 36.6931 140.478 36.6215 139.682 37.2379L125.434 48.2685C121.309 45.9831 116.88 44.0681 112.193 42.6808L109.666 24.7214C109.527 23.7342 108.683 23 107.686 23H83.1613ZM82.5895 44.8909L84.9179 27H105.948L108.413 44.527C108.525 45.3185 109.096 45.9676 109.868 46.1779C115.113 47.6086 120.049 49.7582 124.604 52.3954C125.308 52.8027 126.188 52.7436 126.831 52.246L140.738 41.4792L155.521 56.2621L144.754 70.1692C144.239 70.8343 144.195 71.7504 144.645 72.4615C147.466 76.9284 149.374 81.9087 150.822 87.2198C151.035 87.9995 151.696 88.5746 152.497 88.6773L170 90.9213V112.079L152.497 114.323C151.696 114.425 151.035 115.001 150.822 115.78C149.389 121.034 147.237 126.057 144.605 130.604C144.197 131.308 144.256 132.188 144.754 132.831L155.521 146.738L140.738 161.521L126.831 150.754C126.166 150.239 125.25 150.195 124.538 150.645C120.072 153.466 115.091 155.374 109.78 156.822C109.001 157.035 108.425 157.696 108.323 158.497L106.079 176H84.9213L82.6773 158.497C82.5746 157.696 81.9995 157.035 81.2198 156.822C75.8431 155.356 71.1777 153.804 66.7145 151.22C66.0449 150.833 65.2118 150.866 64.5753 151.306L49.7427 161.557L35.783 146.716L45.6921 132.427C46.1496 131.768 46.1683 130.898 45.7397 130.22C42.9604 125.819 41.6661 121.237 40.1779 115.78C39.9668 115.006 39.3133 114.433 38.5182 114.325L21 111.94V90.9179L38.8909 88.5895C39.6909 88.4854 40.35 87.9108 40.5623 87.1324L40.7685 86.3753C42.1709 81.222 43.339 76.9299 45.7795 72.7145C46.1611 72.0553 46.1352 71.2367 45.7128 70.603L35.7904 55.7194L49.7194 41.7904L64.603 51.7128C65.2599 52.1507 66.1129 52.1612 66.7804 51.7397C70.5214 49.3769 74.2822 48.3816 78.7937 47.1877C79.551 46.9873 80.3294 46.7813 81.1324 46.5623C81.9108 46.35 82.4854 45.6909 82.5895 44.8909Z" fill="black"/>
<path d="M15 58C15 56.8954 14.1046 56 13 56C11.8954 56 11 56.8954 11 58V62H7C5.89543 62 5 62.8954 5 64C5 65.1046 5.89543 66 7 66H11V70C11 71.1046 11.8954 72 13 72C14.1046 72 15 71.1046 15 70V66H19C20.1046 66 21 65.1046 21 64C21 62.8954 20.1046 62 19 62H15V58Z" fill="black"/>
<path d="M166 172L161 167L156 172L161 177L166 172Z" fill="black"/>
</svg>
