<svg width="96" height="96" viewBox="0 0 96 96" fill="none" xmlns="http://www.w3.org/2000/svg">
<circle opacity="0.2" cx="51.5" cy="52.5" r="41.5" fill="black"/>
<path fill-rule="evenodd" clip-rule="evenodd" d="M52.58 91.7065C74.2109 89.1906 91 70.806 91 48.5C91 24.4756 71.5244 5 47.5 5C23.4756 5 4 24.4756 4 48.5C4 70.7852 20.758 89.1564 42.3597 91.6995C44.03 92.2246 45.749 92.5 47.5 92.5C49.2431 92.5 50.9409 92.227 52.58 91.7065ZM46 88.9727C44.9958 88.9362 44.0009 88.8631 43.0166 88.7547C38.5425 87.2644 34.2414 83.5674 30.7003 77.9162C29.1678 75.4705 27.8126 72.7055 26.6831 69.6876C32.3885 67.5392 38.9343 66.1865 46 66.0179V88.9727ZM49 88.9727V66.0183C55.787 66.1844 62.0974 67.4698 67.6429 69.5038C66.5652 72.6185 65.2576 75.4659 63.7641 77.9745C60.4064 83.6143 56.2945 87.2844 51.9186 88.7617C50.9554 88.8662 49.9822 88.937 49 88.9727ZM49 63.0175V50H70.9843C70.8593 55.9583 69.9928 61.5926 68.5468 66.64C62.6987 64.511 56.0827 63.1827 49 63.0175ZM60.5651 86.8464C64.6786 82.9869 68.0807 77.3591 70.4323 70.6167C73.2899 71.8522 75.9084 73.2888 78.2418 74.8676C73.5754 80.3031 67.4923 84.4869 60.5651 86.8464ZM71.35 67.7459C72.9279 62.3363 73.8575 56.3221 73.9849 50H87.9727C87.6665 58.4124 84.7944 66.1702 80.1158 72.514C77.5015 70.7258 74.5606 69.1135 71.35 67.7459ZM25.7111 66.848C24.1206 61.7439 23.155 56.0353 23.0171 50H46V63.0171C38.6171 63.1853 31.7413 64.5884 25.7111 66.848ZM20.0164 50C20.1566 56.4133 21.1917 62.5098 22.922 67.9796C19.9714 69.2718 17.2571 70.7733 14.8248 72.4333C10.1813 66.1044 7.33225 58.3768 7.02726 50H20.0164ZM34.0427 86.7105C27.2458 84.3168 21.2796 80.1608 16.6928 74.7912C18.8624 73.3266 21.2789 71.9897 23.9055 70.8247C26.3773 77.3965 29.8878 82.8956 34.0427 86.7105ZM23.0172 47C23.1559 40.9455 24.1305 35.2926 25.7325 30.2839C31.7033 32.5077 38.526 33.8283 46 33.9844V47H23.0172ZM23.9524 26.3185C21.3018 25.1378 18.8689 23.7633 16.675 22.2296C21.6064 16.4488 28.1354 12.0722 35.5786 9.78305C30.7798 13.4181 26.7224 19.1769 23.9524 26.3185ZM26.73 27.4539C27.8449 24.5699 29.1762 21.9406 30.6771 19.6202C34.972 12.9803 40.4254 9.16144 46 8.57847V30.9837C38.839 30.8277 32.358 29.5571 26.73 27.4539ZM49 30.9822V8.57906C54.5057 9.16095 59.719 12.9441 63.786 19.5616C65.2709 21.9778 66.5724 24.7319 67.6462 27.7629C61.9921 29.6477 55.6043 30.826 49 30.9822ZM49 33.983C55.8914 33.8272 62.5935 32.6061 68.5659 30.6187C69.9992 35.5405 70.8596 41.0754 70.9843 47H49V33.983ZM71.3935 29.5997C74.7439 28.2962 77.8144 26.7467 80.4966 25.011C84.95 31.2558 87.6749 38.8182 87.9727 47H73.9849C73.8586 40.7475 72.9449 34.8633 71.3935 29.5997ZM70.4669 26.7407C67.8415 19.339 63.8928 13.3852 59.0992 9.68543C66.846 11.9971 73.62 16.5647 78.6588 22.626C76.2465 24.1654 73.4856 25.5554 70.4669 26.7407ZM14.8106 24.5861C17.2645 26.3168 19.9852 27.8515 22.9447 29.1534C21.2009 34.5299 20.1574 40.5702 20.0164 47H7.02726C7.33194 38.6318 10.1755 30.9114 14.8106 24.5861Z" fill="black"/>
</svg>
