<svg width="48" height="48" viewBox="0 0 48 48" fill="none" xmlns="http://www.w3.org/2000/svg">
<circle opacity="0.2" cx="25.5" cy="25.5" r="20.5" fill="black"/>
<path fill-rule="evenodd" clip-rule="evenodd" d="M23.8028 44.9979C23.8684 44.9993 23.9342 45 24 45C24.3136 45 24.6248 44.9842 24.9333 44.953C36.1392 44.2154 45 34.8925 45 23.5C45 12.1075 36.1392 2.78459 24.9333 2.04702C24.6248 2.01584 24.3136 2 24 2C23.9342 2 23.8684 2.0007 23.8028 2.00209C23.702 2.0007 23.6011 2 23.5 2C11.6259 2 2 11.6259 2 23.5C2 35.3741 11.6259 45 23.5 45C23.6011 45 23.702 44.9993 23.8028 44.9979ZM32.1534 40.9796C33.6785 39.2989 34.9746 37.1592 35.9559 34.692C36.8294 35.115 37.6462 35.5801 38.3986 36.0817C36.6823 38.1119 34.5585 39.7867 32.1534 40.9796ZM42.9937 24C42.8959 27.8846 41.6622 31.487 39.6121 34.4874C38.6945 33.8674 37.6956 33.3014 36.6274 32.7959C37.463 30.1237 37.9496 27.1453 37.9963 24H42.9937ZM16.582 41.7372C13.4155 40.5354 10.6434 38.5327 8.51302 35.9764C9.522 35.3185 10.643 34.7255 11.8581 34.2104C13.0069 37.2753 14.6336 39.8642 16.582 41.7372ZM11.2247 32.307C9.80547 32.8984 8.49256 33.5918 7.31051 34.3733C5.30682 31.3958 4.10282 27.8355 4.00629 24H10.0037C10.0476 26.9548 10.4797 29.7623 11.2247 32.307ZM23 42.93C20.377 42.5626 17.8222 40.7531 15.7765 37.6115C14.9898 36.4033 14.2983 35.0229 13.7294 33.5043C16.4945 32.5822 19.6422 32.0399 23 32.0021V42.93ZM23 30.002C19.4524 30.0397 16.0896 30.61 13.1035 31.6047C12.4397 29.2901 12.0469 26.7225 12.0039 24H23V30.002ZM25 24H35.9961C35.9506 26.8816 35.5132 29.5896 34.7774 32.0078C31.8614 30.8948 28.5362 30.201 25 30.0374V24ZM25 42.93V32.0396C28.3357 32.2031 31.4346 32.8654 34.1193 33.8976C33.5806 35.2618 32.9418 36.5084 32.2235 37.6115C30.1778 40.7531 27.623 42.5626 25 42.93ZM37.9665 22C37.8283 18.9215 37.2682 16.0212 36.3742 13.4346C37.378 12.9863 38.3244 12.4857 39.2042 11.9381C41.3117 14.7959 42.6579 18.2497 42.9432 22H37.9665ZM33.7919 12.3157C31.1752 13.2501 28.1931 13.8393 25 13.9716V4.06998C27.623 4.4374 30.1778 6.24692 32.2235 9.38855C32.8013 10.2759 33.3277 11.2561 33.7919 12.3157ZM25 15.9732C28.4243 15.8392 31.6555 15.2084 34.5158 14.181C35.3155 16.5246 35.8292 19.1694 35.9643 22H25V15.9732ZM23 15.9945V22H12.0357C12.1663 19.2625 12.651 16.6989 13.4062 14.4134C16.3092 15.3739 19.5658 15.9338 23 15.9945ZM23 13.9942C19.7887 13.9341 16.7751 13.4125 14.1113 12.5399C14.5987 11.3941 15.1582 10.3381 15.7765 9.38855C17.8222 6.24692 20.377 4.4374 23 4.06998V13.9942ZM11.53 13.7168C10.6918 16.2314 10.1667 19.0329 10.0335 22H4.05683C4.34567 18.203 5.72191 14.71 7.87482 11.8317C8.98962 12.5402 10.2145 13.1722 11.53 13.7168ZM9.16528 10.2799C11.1969 8.07811 13.7294 6.34543 16.582 5.26277C14.8375 6.93979 13.3508 9.19075 12.2342 11.8434C11.1306 11.383 10.1031 10.8586 9.16528 10.2799ZM35.648 11.5681C34.7095 9.41185 33.5239 7.53075 32.1534 6.02038C34.3413 7.1056 36.2964 8.58951 37.9238 10.3771C37.2132 10.8063 36.4527 11.2047 35.648 11.5681Z" fill="black"/>
</svg>
