<svg width="196" height="196" viewBox="0 0 196 196" fill="none" xmlns="http://www.w3.org/2000/svg">
<path opacity="0.07" fill-rule="evenodd" clip-rule="evenodd" d="M162.323 20.377C123.928 -3.19375 74.6613 10.4952 44.4093 24.9633C29.5472 32.0712 18.651 43.8918 8.77545 82.1994C-1.10012 120.507 15.4466 167.233 42.397 179.877C69.3473 192.521 123.642 193.419 162.174 164.697C200.706 135.975 196.062 41.089 162.323 20.377ZM96.5 168C58.1162 168 27 136.884 27 98.5C27 60.1162 58.1162 29 96.5 29C134.884 29 166 60.1162 166 98.5C166 136.884 134.884 168 96.5 168Z" fill="black"/>
<circle opacity="0.2" cx="103" cy="105" r="66" fill="black"/>
<path d="M167 15C167 13.8954 166.105 13 165 13C163.895 13 163 13.8954 163 15V19H159C157.895 19 157 19.8954 157 21C157 22.1046 157.895 23 159 23H163V27C163 28.1046 163.895 29 165 29C166.105 29 167 28.1046 167 27V23H171C172.105 23 173 22.1046 173 21C173 19.8954 172.105 19 171 19H167V15Z" fill="black"/>
<path fill-rule="evenodd" clip-rule="evenodd" d="M95.1887 167.988C95.4585 167.996 95.729 168 96 168C96.0637 168 96.1274 168 96.1911 167.999C96.294 168 96.397 168 96.5 168C134.884 168 166 136.884 166 98.5C166 60.1162 134.884 29 96.5 29C96.397 29 96.294 29.0002 96.1911 29.0007C96.1274 29.0002 96.0637 29 96 29C95.729 29 95.4585 29.0041 95.1887 29.0121C57.41 29.7112 27 60.5543 27 98.5C27 136.446 57.41 167.289 95.1887 167.988ZM114 161.636C122.086 155.604 128.817 145.632 133.25 133.244C138.214 135.355 142.701 137.867 146.596 140.7C138.204 150.651 126.901 158.068 114 161.636ZM161.983 100C161.667 114.062 156.92 127.03 149.083 137.562C144.819 134.443 139.918 131.708 134.516 129.436C137.256 120.54 138.852 110.559 138.99 100H161.983ZM77.3832 161.166C64.8137 157.337 53.8475 149.829 45.7381 139.897C49.5484 137.262 53.8849 134.924 58.6469 132.953C62.9657 145.159 69.5087 155.044 77.3832 161.166ZM57.3943 129.142C52.2078 131.268 47.4707 133.817 43.301 136.72C35.8317 126.342 31.3244 113.689 31.0168 100H53.0098C53.1466 110.443 54.7087 120.32 57.3943 129.142ZM94 163.912C84.739 163.099 75.8717 156.652 68.996 145.539C66.4381 141.405 64.2048 136.69 62.381 131.514C71.7302 128.168 82.4926 126.181 94 126.012V163.912ZM94 122.011C82.1266 122.18 70.9373 124.218 61.1399 127.709C58.6272 119.361 57.1455 109.976 57.0102 100H94V122.011ZM98 100H134.99C134.853 110.08 133.342 119.556 130.782 127.969C121.031 124.399 109.866 122.278 98 122.025V100ZM98 163.912V126.026C109.498 126.28 120.232 128.349 129.528 131.77C127.721 136.846 125.52 141.473 123.004 145.539C116.128 156.652 107.261 163.099 98 163.912ZM138.973 96C138.752 85.926 137.205 76.3977 134.606 67.8575C140.068 65.6191 145.032 62.9107 149.36 59.8135C156.847 70.0266 161.446 82.4899 161.953 96H138.973ZM129.619 65.4861C120.27 68.8315 109.507 70.819 98 70.9882V33.0878C107.261 33.9015 116.128 40.3476 123.004 51.4607C125.562 55.5949 127.795 60.31 129.619 65.4861ZM98 74.9886C109.873 74.8201 121.063 72.7818 130.86 69.2905C133.289 77.3593 134.754 86.3965 134.972 96H98V74.9886ZM94 74.9745V96H57.0283C57.2482 86.2934 58.7429 77.1653 61.2184 69.031C70.9686 72.6011 82.1335 74.7219 94 74.9745ZM94 70.9736C82.5016 70.72 71.7683 68.6507 62.4718 65.2298C64.2787 60.1543 66.4804 55.5266 68.996 51.4607C75.8717 40.3476 84.739 33.9015 94 33.0878V70.9736ZM133.353 64.0471C128.922 51.5241 122.15 41.4436 114 35.3639C127.056 38.9747 138.474 46.5263 146.896 56.6581C142.935 59.4753 138.381 61.9655 133.353 64.0471ZM43.5703 59.9087C47.6786 62.8326 52.3556 65.4072 57.4842 67.564C54.8302 76.1792 53.2502 85.8104 53.0273 96H31.0468C31.5522 82.5318 36.1241 70.104 43.5703 59.9087ZM46.0291 56.7487C54.1089 46.9924 64.9634 39.6176 77.3832 35.8337C69.5714 41.9073 63.07 51.6843 58.7504 63.7561C54.0499 61.7575 49.7763 59.3988 46.0291 56.7487Z" fill="black"/>
<path fill-rule="evenodd" clip-rule="evenodd" d="M24 146.5L15.5 138L7 146.5L15.5 155L24 146.5ZM15.5 149.333L12.6667 146.5L15.5 143.667L18.3333 146.5L15.5 149.333Z" fill="black"/>
<path d="M24 162L28 166L24 170L20 166L24 162Z" fill="black"/>
</svg>
