<svg width="96" height="96" viewBox="0 0 96 96" fill="none" xmlns="http://www.w3.org/2000/svg">
<g opacity="0.2">
<path d="M67.3689 12.906C67.3119 12.8619 67.2507 12.8281 67.1865 12.7953C66.3153 12.35 59.4737 9 50.8079 9C42.1249 9 35.353 12.3633 34.5142 12.7979C34.4548 12.8287 34.3974 12.8607 34.3442 12.9012C33.9615 13.1934 33.8979 13.6433 34.1536 14.0933L38.886 21.589C39.1324 21.9359 39.6752 22.2046 40.1801 22.183C40.2886 22.1784 40.3928 22.1507 40.4973 22.121C41.5108 21.8325 47.2581 20.2436 50.8989 20.2436C54.6059 20.2436 60.4965 21.8907 61.3511 22.1354C61.4236 22.1561 61.4925 22.1752 61.5675 22.1831C62.0098 22.2293 62.5696 22.0313 62.8209 21.589L67.5533 14.0933C67.8076 13.6458 67.7461 13.1983 67.3689 12.906Z" fill="black"/>
<path d="M19 77.4927C19 81.8439 22.4904 85.3793 26.7863 85.3793C28.9342 85.3793 30.7241 83.5663 30.7241 81.4813V62.9886C30.7241 60.813 28.9342 59 26.7863 59C22.4904 59 19 62.5354 19 66.8866V77.4927Z" fill="black"/>
<path d="M76.9379 84.3793C81.2337 84.3793 84.7241 80.8439 84.7241 76.4927V65.8866C84.7241 61.5354 81.2337 58 76.9379 58C74.7899 58 73 59.813 73 61.9886V80.4813C73 82.5663 74.7899 84.3793 76.9379 84.3793Z" fill="black"/>
<path d="M49 92H55C56.6552 92 58 90.6552 58 89C58 87.3448 56.6552 86 55 86H49C47.3448 86 46 87.3448 46 89C46 90.6552 47.3448 92 49 92Z" fill="black"/>
</g>
<path d="M54.5 12C55.3284 12 56 11.3284 56 10.5C56 9.67157 55.3284 9 54.5 9C53.6716 9 53 9.67157 53 10.5C53 11.3284 53.6716 12 54.5 12Z" fill="black"/>
<path d="M50 10.5C50 11.3284 49.3284 12 48.5 12C47.6716 12 47 11.3284 47 10.5C47 9.67157 47.6716 9 48.5 9C49.3284 9 50 9.67157 50 10.5Z" fill="black"/>
<path d="M42.5 12C43.3284 12 44 11.3284 44 10.5C44 9.67157 43.3284 9 42.5 9C41.6716 9 41 9.67157 41 10.5C41 11.3284 41.6716 12 42.5 12Z" fill="black"/>
<path fill-rule="evenodd" clip-rule="evenodd" d="M11 43.689C11 29.6775 18.7738 17.4937 30.2945 11.1525L32.2895 14.0826C20.7059 19.8129 13.9463 30.5928 13.9463 44.569C13.9463 45.3974 14.6179 46.069 15.4463 46.069C16.2747 46.069 16.9463 45.3974 16.9463 44.569C16.9463 31.5614 23.2213 21.7771 33.9506 16.6101C33.9656 16.6029 33.9804 16.5954 33.9951 16.5877L35.6606 19.0339C36.0439 19.5968 36.7582 19.8309 37.4003 19.604C40.952 18.349 44.8694 17.6318 48.8741 17.6318C52.9026 17.6318 56.8051 18.2631 60.3166 19.5926C60.9763 19.8423 61.721 19.5986 62.1054 19.0071L63.4392 16.9548C73.7889 22.3014 80.0258 31.8725 80.0258 44.569C80.0258 45.3974 80.6974 46.069 81.5258 46.069C82.3542 46.069 83.0258 45.3974 83.0258 44.569C83.0258 30.8312 76.246 20.3051 65.0815 14.4279L67.0677 11.3717C69.9744 13.0237 72.6417 15.056 75.011 17.4064C81.8397 24.1806 86 33.4061 86 43.689V64H83V62.7732C83 57.5119 78.3062 53.5 72.8664 53.5C69.8083 53.5 67 55.8143 67 58.9313V77.1581C67 80.2066 69.8317 82.5 72.8664 82.5C73.064 82.5 73.2606 82.4947 73.4561 82.4843C73.3886 82.8673 73.2468 83.2452 73.0558 83.5393C72.7784 83.9662 72.5611 84 72.5 84H54.7435C54.1252 82.2529 52.4578 81 50.5 81H44.5C42.0164 81 40 83.0164 40 85.5C40 87.9836 42.0164 90 44.5 90H50.5C52.4578 90 54.1252 88.7471 54.7435 87H72.5C73.942 87 74.9747 86.0923 75.5715 85.1736C76.1737 84.2467 76.5 83.0855 76.5 82L76.4997 81.9722C76.4995 81.9613 76.4992 81.9504 76.4988 81.9395C76.498 81.9203 76.4969 81.9012 76.4954 81.8822C80.2377 80.5638 83 77.2629 83 73.2268V73H87.3333C89.7942 73 91.5 70.8126 91.5 68.5C91.5 66.757 90.531 65.0851 89 64.3672V43.689C89 32.5695 84.4936 22.5877 77.1238 15.2766C69.7541 7.96568 59.6976 3.5 48.5 3.5C26.1084 3.5 8 21.4469 8 43.689V64.1738C6.18302 64.735 5 66.5741 5 68.5C5 70.8126 6.70577 73 9.16667 73H13V73.2268C13 78.4881 17.6938 82.5 23.1336 82.5C26.1683 82.5 29 80.2066 29 77.1581V58.9313C29 55.8143 26.1917 53.5 23.1336 53.5C17.6938 53.5 13 57.5119 13 62.7732V64H11V43.689ZM37.5007 16.406L33.0037 9.80101C37.7236 7.68035 42.9693 6.5 48.5 6.5C54.1965 6.5 59.5701 7.74519 64.3883 9.98918L60.2349 16.38C56.65 15.185 52.7882 14.6318 48.8741 14.6318C44.9263 14.6318 41.0629 15.2715 37.5007 16.406ZM51.7495 84.6713C51.5919 84.9087 51.5 85.1936 51.5 85.5C51.5 85.8064 51.5919 86.0913 51.7495 86.3287C51.4804 86.733 51.0207 87 50.5 87H44.5C43.6733 87 43 86.3267 43 85.5C43 84.6733 43.6733 84 44.5 84H50.5C51.0207 84 51.4804 84.267 51.7495 84.6713ZM23.1336 56.5C24.8388 56.5 26 57.7596 26 58.9313V77.1581C26 78.2195 24.8622 79.5 23.1336 79.5C19.0467 79.5 16 76.5428 16 73.2268V62.7732C16 59.4572 19.0467 56.5 23.1336 56.5ZM9.16667 67H13V70H9.16667C8.68504 70 8 69.4977 8 68.5C8 67.5023 8.68504 67 9.16667 67ZM70 58.9313C70 57.7596 71.1612 56.5 72.8664 56.5C76.9534 56.5 80 59.4572 80 62.7732V73.2268C80 76.5428 76.9534 79.5 72.8664 79.5C71.1378 79.5 70 78.2195 70 77.1581V58.9313ZM83.5 70V67H87.3333C87.815 67 88.5 67.5023 88.5 68.5C88.5 69.4977 87.815 70 87.3333 70H83.5Z" fill="black"/>
</svg>
