<svg width="196" height="196" viewBox="0 0 196 196" fill="none" xmlns="http://www.w3.org/2000/svg">
<path opacity="0.07" fill-rule="evenodd" clip-rule="evenodd" d="M15.4016 79.5017C15.4016 79.5017 9.4999 138.5 27.4999 156.5C28.7111 157.711 29.8269 158.87 30.8936 159.979C41.4051 170.898 47.1575 176.874 92.5 179C142.444 181.342 157.332 178.906 172.967 151.615C188.603 124.325 184.176 81.6 158.5 46.0001C132.824 10.4001 116.089 5.55092 78.0001 16.0001C21.4999 31.5001 15.4016 79.5017 15.4016 79.5017ZM85.6096 59.7613L80.2094 51.8297C85.8043 49.3662 91.9906 48 98.5 48C105.515 48 112.127 49.5767 118.042 52.4149L113.29 59.7271C108.919 58.2864 104.218 57.6197 99.4582 57.6197C94.6536 57.6197 89.9512 58.3913 85.6096 59.7613ZM50.9944 122L51 122L51.0056 122H55V125H50.3333C49.6897 125 49 124.42 49 123.5C49 122.58 49.6897 122 50.3333 122H50.9944ZM59 129.433V116.567C59 112.469 62.4932 109 66.9618 109C68.6824 109 70 110.379 70 111.838V134.271C70 135.592 68.7127 137 66.9618 137C62.4932 137 59 133.531 59 129.433ZM128.038 109C132.507 109 136 112.469 136 116.567V129.433C136 133.531 132.507 137 128.038 137C126.287 137 125 135.592 125 134.271V111.838C125 110.379 126.318 109 128.038 109ZM145.333 126H140V122H145.333C146.092 122 147 122.73 147 124C147 125.27 146.092 126 145.333 126ZM93 144.5C93 143.531 93.6985 143 94.25 143H100.75C101.302 143 102 143.531 102 144.5C102 145.469 101.302 146 100.75 146H94.25C93.6985 146 93 145.469 93 144.5Z" fill="black"/>
<g opacity="0.2">
<path d="M121.828 55.7792C121.758 55.7252 121.683 55.6838 121.605 55.6436C120.539 55.0988 112.168 51 101.565 51C90.9411 51 82.6554 55.1151 81.6291 55.6469C81.5565 55.6845 81.4862 55.7237 81.4212 55.7733C80.9528 56.1307 80.8751 56.6812 81.1879 57.2318L86.9781 66.4031C87.2796 66.8275 87.9438 67.1562 88.5616 67.1298C88.6943 67.1242 88.8218 67.0903 88.9496 67.0539C90.1896 66.701 97.2217 64.7569 101.676 64.7569C106.212 64.7569 113.419 66.7722 114.465 67.0715C114.554 67.0969 114.638 67.1203 114.73 67.1299C115.271 67.1865 115.956 66.9442 116.263 66.4031L122.053 57.2318C122.365 56.6842 122.289 56.1367 121.828 55.7792Z" fill="black"/>
<path d="M62 133.433C62 138.711 66.4656 143 71.9618 143C74.7099 143 77 140.801 77 138.271V115.838C77 113.199 74.7099 111 71.9618 111C66.4656 111 62 115.289 62 120.567V133.433Z" fill="black"/>
<path d="M134.038 143C139.534 143 144 138.711 144 133.433V120.567C144 115.289 139.534 111 134.038 111C131.29 111 129 113.199 129 115.838V138.271C129 140.801 131.29 143 134.038 143Z" fill="black"/>
<path d="M98.75 152H106.25C108.319 152 110 150.431 110 148.5C110 146.569 108.319 145 106.25 145H98.75C96.681 145 95 146.569 95 148.5C95 150.431 96.681 152 98.75 152Z" fill="black"/>
</g>
<path fill-rule="evenodd" clip-rule="evenodd" d="M152 26.5L143.5 18L135 26.5L143.5 35L152 26.5ZM143.5 29.3333L140.667 26.5L143.5 23.6667L146.333 26.5L143.5 29.3333Z" fill="black"/>
<path d="M94 53C94 54.1046 93.1046 55 92 55C90.8954 55 90 54.1046 90 53C90 51.8954 90.8954 51 92 51C93.1046 51 94 51.8954 94 53Z" fill="black"/>
<path d="M99 55C100.105 55 101 54.1046 101 53C101 51.8954 100.105 51 99 51C97.8954 51 97 51.8954 97 53C97 54.1046 97.8954 55 99 55Z" fill="black"/>
<path d="M108 53C108 54.1046 107.105 55 106 55C104.895 55 104 54.1046 104 53C104 51.8954 104.895 51 106 51C107.105 51 108 51.8954 108 53Z" fill="black"/>
<path fill-rule="evenodd" clip-rule="evenodd" d="M76.5898 53.6208C62.5188 61.384 53 76.4072 53 93.7165V118H55V116.567C55 110.109 60.4381 105 66.9618 105C70.7375 105 74 108.019 74 111.838V134.271C74 138.01 70.7071 141 66.9618 141C60.4381 141 55 135.891 55 129.433V129H50.3333C47.2989 129 45 126.443 45 123.5C45 121.007 46.6503 118.79 49 118.171V93.7165C49 66.2241 71.1103 44 98.5 44C112.194 44 124.488 49.5307 133.493 58.5768C142.498 67.6227 148 79.9688 148 93.7165V118.698C149.831 119.734 151 121.796 151 124C151 127.144 148.621 130 145.333 130H139.986C139.771 134.325 137.112 137.979 133.369 139.786C133.454 140.008 133.5 140.248 133.5 140.5C133.5 141.947 132.969 143.504 132.012 144.725C131.03 145.979 129.49 147 127.5 147H105.422C104.573 148.74 102.86 150 100.75 150H94.25C91.2153 150 89 147.393 89 144.5C89 141.607 91.2153 139 94.25 139H100.75C103.246 139 105.188 140.764 105.799 143H127.5C128.01 143 128.47 142.761 128.863 142.259C129.178 141.856 129.38 141.364 129.46 140.918C128.993 140.972 128.519 141 128.038 141C124.293 141 121 138.01 121 134.271V111.838C121 108.019 124.263 105 128.038 105C134.562 105 140 110.109 140 116.567V118H144V93.7165C144 81.0678 138.946 69.7248 130.658 61.3988C127.936 58.6638 124.889 56.2798 121.58 54.3113L119.248 57.8989C132.879 65.1343 140 78.504 140 95C140 96.1045 139.105 97 138 97C136.895 97 136 96.1045 136 95C136 79.6408 129.411 67.6797 117.059 61.2674L115.785 63.2276C115.273 64.0163 114.28 64.3412 113.4 64.0082C109.125 62.3896 104.37 61.6197 99.4582 61.6197C94.5777 61.6197 89.8031 62.4939 85.4745 64.0234C84.6184 64.326 83.6659 64.0138 83.1549 63.2633L81.5763 60.9447C69.1234 67.1049 62 78.6409 62 94C62 95.1045 61.1046 96 60 96C58.8954 96 58 95.1045 58 94C58 77.4183 65.713 64.5477 79.3054 57.6093L76.5898 53.6208ZM80.2094 51.8297L85.6097 59.7613C89.9512 58.3913 94.6536 57.6197 99.4582 57.6197C104.218 57.6197 108.919 58.2864 113.29 59.7271L118.042 52.4149C112.127 49.5767 105.515 48 98.5 48C91.9907 48 85.8043 49.3662 80.2094 51.8297ZM51 122L50.9944 122H50.3333C49.6897 122 49 122.58 49 123.5C49 124.42 49.6897 125 50.3333 125H55V122H51.0056L51 122ZM59 116.567V129.433C59 133.531 62.4932 137 66.9618 137C68.7127 137 70 135.592 70 134.271V111.838C70 110.379 68.6824 109 66.9618 109C62.4932 109 59 112.469 59 116.567ZM136 116.567C136 112.469 132.507 109 128.038 109C126.318 109 125 110.379 125 111.838V134.271C125 135.592 126.287 137 128.038 137C132.507 137 136 133.531 136 129.433V116.567ZM140 126H145.333C146.091 126 147 125.27 147 124C147 122.73 146.091 122 145.333 122H140V126ZM94.25 143C93.6985 143 93 143.531 93 144.5C93 145.469 93.6985 146 94.25 146H100.75C101.302 146 102 145.469 102 144.5C102 143.531 101.302 143 100.75 143H94.25Z" fill="black"/>
<path d="M39 160C40.1046 160 41 160.895 41 162V166H45C46.1046 166 47 166.895 47 168C47 169.105 46.1046 170 45 170H41V174C41 175.105 40.1046 176 39 176C37.8954 176 37 175.105 37 174V170H33C31.8954 170 31 169.105 31 168C31 166.895 31.8954 166 33 166H37V162C37 160.895 37.8954 160 39 160Z" fill="black"/>
<path d="M177 137L181 141L177 145L173 141L177 137Z" fill="black"/>
</svg>
