<svg width="48" height="48" viewBox="0 0 48 48" fill="none" xmlns="http://www.w3.org/2000/svg">
<g opacity="0.2">
<path d="M33.7935 7.05574C33.7653 7.03171 33.7346 7.01288 33.7023 6.99451C33.2648 6.74508 29.8252 4.86201 25.3691 4.6588C20.9041 4.45517 17.3429 6.02585 16.9014 6.22967C16.8702 6.24409 16.8399 6.2592 16.8116 6.27882C16.6079 6.42006 16.5647 6.64994 16.6856 6.88731L18.9433 10.8528C19.0619 11.0369 19.3347 11.1878 19.5949 11.1886C19.6508 11.1888 19.705 11.1769 19.7594 11.1641C20.2873 11.0395 23.28 10.3573 25.1522 10.4427C27.0584 10.5296 30.0489 11.5147 30.4826 11.6606C30.5194 11.6729 30.5544 11.6844 30.5928 11.6902C30.8191 11.7243 31.1116 11.6356 31.2512 11.4141L33.8605 7.67056C34.0018 7.44641 33.9806 7.21486 33.7935 7.05574Z" fill="black"/>
<path d="M8 39.5192C8 41.7591 9.7967 43.5789 12.008 43.5789C13.1137 43.5789 14.0351 42.6457 14.0351 41.5724V32.0532C14.0351 30.9333 13.1137 30 12.008 30C9.7967 30 8 31.8198 8 34.0597V39.5192Z" fill="black"/>
<path d="M40.0271 43.5789C42.2384 43.5789 44.0351 41.7591 44.0351 39.5192V34.0597C44.0351 31.8198 42.2384 30 40.0271 30C38.9214 30 38 30.9333 38 32.0532V41.5724C38 42.6457 38.9214 43.5789 40.0271 43.5789Z" fill="black"/>
<path d="M23 48H27C28.1034 48 29 47.1034 29 46C29 44.8965 28.1034 44 27 44H23C21.8966 44 21 44.8965 21 46C21 47.1034 21.8966 48 23 48Z" fill="black"/>
</g>
<path fill-rule="evenodd" clip-rule="evenodd" d="M13.6571 5.53797C8.04184 8.61381 4 14.2343 4 21V33H5V31.8866C5 29.1666 7.25763 27 9.98473 27C11.6126 27 13 28.3178 13 29.9656V39.079C13 40.6968 11.5975 42 9.98473 42C7.56157 42 5.50907 40.2894 5.08166 38H3.33333C1.93794 38 1 36.7659 1 35.5C1 34.7011 1.3736 33.9148 2 33.4434V21C2 9.33663 12.5658 1 23.5 1C34.4342 1 45 9.33663 45 21V32.4434C45.6264 32.9148 46 33.7011 46 34.5C46 35.7659 45.0621 37 43.6667 37H42V37.1134C42 39.1598 40.722 40.893 38.9277 41.6259C38.9743 41.7415 39 41.8677 39 42C39 42.5921 38.8268 43.3244 38.3475 43.9317C37.8382 44.577 37.0444 45 36 45H27.829C27.4168 46.1647 26.3052 47 25 47H21C19.3443 47 18 45.6557 18 44C18 42.3443 19.3443 41 21 41H25C26.3052 41 27.4168 41.8353 27.829 43H36C36.4556 43 36.6618 42.8392 36.7775 42.6926C36.9232 42.5081 37 42.2403 37 42C35.3936 41.9918 34 40.6917 34 39.079V29.9656C34 28.3178 35.3874 27 37.0153 27C39.7424 27 42 29.1666 42 31.8866V32H43V21C43 14.4859 39.2533 9.03354 33.9629 5.89171C33.952 5.9099 33.9404 5.92786 33.9282 5.94556L32.7675 7.62617C35.1927 9.20438 37.2122 10.7353 38.6351 12.7932C40.223 15.0896 41.0001 17.9338 41.0001 22.0001C41.0001 22.5524 40.5524 23.0001 40.0001 23.0001C39.4478 23.0001 39.0001 22.5524 39.0001 22.0001C39.0001 18.198 38.2773 15.7922 36.9901 13.9307C35.7873 12.1912 34.0336 10.8351 31.6304 9.27264L30.9173 10.3052C30.6579 10.6808 30.1771 10.8331 29.7488 10.6752C27.9243 10.0031 26.0529 9.73691 23.9288 9.73691C21.8215 9.73691 19.9384 10.0464 18.0883 10.6826C17.6638 10.8285 17.1942 10.6738 16.9396 10.3042L15.965 8.88948C13.2534 10.6184 11.3099 12.0506 10.0099 13.9307C8.72272 15.7922 7.99987 18.198 7.99987 22.0001C7.99987 22.5524 7.55216 23.0001 6.99987 23.0001C6.44759 23.0001 5.99987 22.5524 5.99987 22.0001C5.99987 17.9338 6.77703 15.0896 8.36485 12.7932C9.90308 10.5686 12.1384 8.95981 14.8297 7.24141L13.6766 5.56738C13.6699 5.55765 13.6634 5.54785 13.6571 5.53797ZM15.4762 4.65435L18.1646 8.557C20.0026 8.00395 21.8829 7.73691 23.9288 7.73691C25.9584 7.73691 27.8449 7.9623 29.7014 8.54639L32.185 4.95025C29.5078 3.69557 26.5325 3 23.5 3C20.7149 3 17.9782 3.58669 15.4762 4.65435ZM25 43H21C20.4488 43 20 43.4488 20 44C20 44.5512 20.4488 45 21 45H25C25.5512 45 26 44.5512 26 44C26 43.4488 25.5512 43 25 43ZM7 31.8866V37.1134C7 38.6821 8.31489 40 9.98473 40C10.5704 40 11 39.5163 11 39.079V29.9656C11 29.4691 10.5553 29 9.98473 29C8.31489 29 7 30.3179 7 31.8866ZM5 35H3.33333C3.28318 35 3.21219 35.0208 3.13821 35.104C3.0627 35.189 3 35.3263 3 35.5C3 35.6737 3.0627 35.811 3.13821 35.896C3.21219 35.9792 3.28318 36 3.33333 36H5V35ZM40 31.8866C40 30.3179 38.6851 29 37.0153 29C36.4447 29 36 29.4691 36 29.9656V39.079C36 39.5163 36.4296 40 37.0153 40C38.6851 40 40 38.6821 40 37.1134V31.8866ZM42 35H43.6667C43.7168 35 43.7878 34.9792 43.8618 34.896C43.9373 34.811 44 34.6737 44 34.5C44 34.3263 43.9373 34.189 43.8618 34.104C43.7878 34.0208 43.7168 34 43.6667 34H42V35Z" fill="black"/>
</svg>
