<svg width="196" height="196" viewBox="0 0 196 196" fill="none" xmlns="http://www.w3.org/2000/svg">
<path opacity="0.07" fill-rule="evenodd" clip-rule="evenodd" d="M6.24785 97.7377C7.26768 109.262 9.10877 130.067 19.1029 143.597C20.0062 144.82 20.9939 146.237 22.0841 147.801C32.1969 162.309 51.1286 189.47 93.3124 191.709C140.044 194.19 157.13 178.625 171.566 153.864C186.001 129.102 201.438 79.1671 178.275 39.7415C155.112 0.315901 48.9759 -0.512848 26.3341 30.0658C3.69223 60.6445 4.98747 84.3423 6.00016 95.0004C6.07978 95.8384 6.16082 96.7542 6.24785 97.7377ZM105.093 74.4166C108.185 57.9733 122.237 45.8047 139.033 45.0263C172.553 45.0263 178 68.3718 178 86.7147C178 119.88 134.967 151.175 116.175 164.842C115.125 165.605 114.151 166.314 113.264 166.965C108.26 171.012 101.089 171.012 96.0846 166.965C95.7581 166.733 95.4225 166.495 95.0783 166.252C76.2065 152.883 31.3483 121.106 31.3483 86.7147C29.8535 75.9677 33.2166 65.1135 40.5337 57.0693C47.8508 49.025 58.3715 44.6157 69.2683 45.0263C86.4659 45.766 101.086 57.7604 105.093 74.4166Z" fill="black"/>
<path fill-rule="evenodd" clip-rule="evenodd" d="M66.5 3L75 11.5L66.5 20L58 11.5L66.5 3ZM63.6667 11.5L66.5 14.3333L69.3333 11.5L66.5 8.66667L63.6667 11.5Z" fill="black"/>
<path d="M122.554 70.7216C122.562 70.6733 122.572 70.6541 122.573 70.6525C122.577 70.6492 122.605 70.63 122.657 70.6254C122.71 70.6208 122.739 70.6342 122.744 70.6368C122.745 70.6381 122.759 70.6557 122.775 70.702L132.25 98.2244C132.821 99.8849 134.384 101 136.14 101H152V96.9995H136.14C136.091 96.9995 136.048 96.9686 136.032 96.9224L126.557 69.4001C125.161 65.3435 119.266 65.8646 118.602 70.1032L114.409 96.9029C114.4 96.9585 114.352 96.9995 114.296 96.9995H98.2225C96.2024 96.9995 94.4811 98.4661 94.1604 100.461L90.1009 125.703C90.0931 125.752 90.0823 125.772 90.081 125.774C90.0755 125.778 90.0479 125.796 89.9959 125.799C89.9439 125.803 89.9143 125.789 89.9083 125.786C89.9066 125.784 89.8933 125.766 89.8788 125.719L73.4638 72.1626C72.325 68.4471 67.1446 68.2362 65.7075 71.8468L55.7247 96.9275C55.7074 96.971 55.6654 96.9995 55.6186 96.9995H42V101H55.6186C57.3035 101 58.8181 99.9722 59.4412 98.4068L69.424 73.326C69.4379 73.2911 69.4494 73.2771 69.4517 73.2744C69.4544 73.2711 69.4561 73.2699 69.4585 73.2684C69.4655 73.2641 69.4917 73.2524 69.5348 73.2541C69.5779 73.2559 69.603 73.2697 69.6097 73.2746C69.6119 73.2762 69.6135 73.2776 69.616 73.2811C69.618 73.284 69.6284 73.2988 69.6394 73.3348L86.0544 126.891C87.3311 131.056 93.3584 130.64 94.0502 126.338L98.1096 101.096C98.1186 101.04 98.1664 101 98.2225 101H114.296C116.323 101 118.048 99.5236 118.361 97.5213L122.554 70.7216Z" fill="black"/>
<path fill-rule="evenodd" clip-rule="evenodd" d="M30.4374 45.8599C37.3388 37.6537 47.4947 32.5475 60.3439 33.0317L60.3545 33.0321C69.54 33.4271 78.5759 38.1009 85.4491 43.976C89.8538 47.7411 93.5521 52.1587 95.8411 56.494C96.1402 56.4173 96.4561 56.3729 96.7554 56.3834C98.9189 52.1487 102.23 47.8004 106.248 44.0489C112.558 38.1582 120.918 33.4505 129.94 33.0324C129.955 33.0317 129.969 33.0312 129.984 33.0308C130 33.0304 130.016 33.0302 130.033 33.0302C147.318 33.0302 157.743 39.0893 163.738 47.8674C169.633 56.4991 171 67.4166 171 76.7173C171 95.0777 158.48 112.567 144.334 126.772C131.616 139.544 117.212 150.017 108.348 156.462C107.314 157.214 106.355 157.911 105.483 158.551C102.548 160.906 98.5739 162 94.7369 162C90.9056 162 86.9377 160.91 84.0035 158.561C74.8727 152.086 59.3323 140.818 45.873 126.683C32.4419 112.577 20.768 95.2935 20.0017 76.8001C20.0006 76.7725 20 76.7449 20 76.7173C19.9995 65.1523 23.574 54.0209 30.4374 45.8599ZM94.2319 63.7984C93.5265 59.0104 89.2864 52.5183 82.85 47.0166C76.4084 41.5104 68.1984 37.3748 60.1879 37.0286C48.5974 36.5934 39.6203 41.1555 33.4987 48.4345C27.3461 55.7504 24.0081 65.9063 24 76.6757C24.7201 93.6577 35.531 110.021 48.7698 123.925C61.9667 137.784 77.264 148.879 86.3666 155.333C86.401 155.358 86.4347 155.383 86.4675 155.41C88.5324 157.08 91.5655 158 94.7369 158C97.9083 158 100.941 157.08 103.006 155.41C103.031 155.39 103.056 155.371 103.081 155.352C103.968 154.701 104.939 153.995 105.984 153.235L105.998 153.225L106.002 153.222C114.88 146.765 129.022 136.479 141.5 123.95C155.532 109.859 167 93.3739 167 76.7173C167 67.6756 165.643 57.7496 160.435 50.1234C155.331 42.6508 146.286 37.0411 130.08 37.0303C122.322 37.4044 114.838 41.5014 108.978 46.9728C103.08 52.4791 99.1331 59.0888 98.2004 64.0491C98.1945 64.0799 98.1849 64.1278 98.1699 64.1854C98.1572 64.2344 98.1283 64.3393 98.0747 64.4659C98.0476 64.5271 97.9757 64.6673 97.9293 64.7455C97.8574 64.8528 97.6532 65.0944 97.5149 65.2215C97.2932 65.3823 96.7114 65.6286 96.3555 65.683C95.9769 65.6705 95.3248 65.4693 95.0632 65.3099C94.8953 65.1747 94.6493 64.9099 94.564 64.7908C94.5095 64.7038 94.4266 64.5482 94.3959 64.4808C94.3744 64.4294 94.34 64.337 94.3264 64.2961L94.3195 64.2734C94.3146 64.2571 94.3092 64.2385 94.3044 64.2212C94.2994 64.2037 94.2949 64.1875 94.2921 64.1767C94.2765 64.1153 94.2666 64.0646 94.2609 64.0325C94.2548 63.9984 94.2504 63.9693 94.2475 63.9478C94.2388 63.8843 94.2342 63.8291 94.2319 63.7984Z" fill="black"/>
<path d="M52 172C52 170.895 51.1046 170 50 170C48.8954 170 48 170.895 48 172V176H44C42.8954 176 42 176.895 42 178C42 179.105 42.8954 180 44 180H48V184C48 185.105 48.8954 186 50 186C51.1046 186 52 185.105 52 184V180H56C57.1046 180 58 179.105 58 178C58 176.895 57.1046 176 56 176H52V172Z" fill="black"/>
<path d="M165 162L161 166L165 170L169 166L165 162Z" fill="black"/>
<path opacity="0.2" fill-rule="evenodd" clip-rule="evenodd" d="M139.033 45.0263C122.237 45.8047 108.185 57.9733 105.093 74.4166C105.093 75.6673 105.093 75.6673 105.093 74.4166C101.086 57.7604 86.4659 45.766 69.2683 45.0263C58.3715 44.6157 47.8508 49.025 40.5337 57.0693C33.2166 65.1135 29.8535 75.9677 31.3483 86.7147C31.3483 121.733 77.8579 154.041 96.0846 166.965C101.089 171.012 108.26 171.012 113.264 166.965C130.024 154.667 178 121.733 178 86.7147C178 68.3718 172.553 45.0263 139.033 45.0263V45.0263Z" fill="black"/>
</svg>
