<svg width="96" height="96" viewBox="0 0 96 96" fill="none" xmlns="http://www.w3.org/2000/svg">
<path opacity="0.2" fill-rule="evenodd" clip-rule="evenodd" d="M71.3223 20.7101C61.979 21.1481 54.1619 27.9943 52.4419 37.2456C52.4419 37.9492 52.4419 37.9492 52.4419 37.2456C50.213 27.8745 42.0796 21.1263 32.5126 20.7101C26.4507 20.4791 20.5981 22.9598 16.5276 27.4857C12.4571 32.0115 10.5863 38.1182 11.4178 44.1647C11.4178 63.8665 37.291 82.0438 47.4304 89.3147C50.2142 91.5916 54.2034 91.5916 56.9872 89.3147C66.3108 82.3956 92.9998 63.8665 92.9998 44.1647C92.9998 33.8447 89.9696 20.7101 71.3223 20.7101V20.7101Z" fill="black"/>
<path fill-rule="evenodd" clip-rule="evenodd" d="M9.79667 20.417C13.6819 15.6907 19.4512 12.7367 26.8459 13.0185L26.854 13.0188C35.5411 13.3967 43.2442 19.3509 46.7138 26.6032C50.0223 19.4155 56.9644 13.4205 65.5283 13.0191C65.5517 13.018 65.5751 13.0174 65.5985 13.0174C75.3218 13.0174 81.3042 16.4723 84.778 21.5249C88.1791 26.4718 89 32.7037 89 37.972C89 48.4599 81.8796 58.3938 73.9431 66.3968C66.8829 73.5162 58.9041 79.3712 53.9521 83.005C53.3089 83.477 52.7168 83.9115 52.1844 84.3064C48.8624 87.0015 44.1204 87.0042 40.7955 84.3144C40.5602 84.1457 40.316 83.9709 40.0636 83.7902C34.8889 80.0859 26.236 73.8917 18.7315 66.2603C10.8939 58.2902 4.00002 48.4482 4 37.972M9.79667 20.417C5.94363 25.1042 3.99981 31.4563 4 37.972ZM12.1142 22.3221C8.78194 26.3757 6.99982 32.0146 7 37.972C7 47.1976 13.1397 56.2952 20.8705 64.1569C28.1871 71.5972 36.6527 77.6584 41.8359 81.3695C42.0924 81.5531 42.3409 81.731 42.5808 81.903C42.6066 81.9215 42.6318 81.9408 42.6563 81.9609C44.8876 83.786 48.0825 83.786 50.3137 81.9609C50.3319 81.946 50.3506 81.9315 50.3695 81.9175C50.9205 81.5085 51.5299 81.0612 52.189 80.5774C57.1522 76.934 64.9321 71.2229 71.813 64.2843C79.6639 56.3675 86 47.1859 86 37.972C86 32.9203 85.1938 27.425 82.3059 23.2245C79.4945 19.1354 74.5357 16.0257 65.6341 16.0175C57.1106 16.4353 50.1686 23.5477 48.1721 31.4216C48.0024 32.091 47.3976 32.558 46.707 32.5529C46.0164 32.5477 45.4186 32.0718 45.2588 31.4C43.4118 23.6344 35.5768 16.4032 26.7276 16.0162C20.2875 15.7719 15.4135 18.3084 12.1142 22.3221Z" fill="black"/>
<path fill-rule="evenodd" clip-rule="evenodd" d="M61.5089 34.0649L59.1213 47.9244C58.9146 49.1237 57.8745 50 56.6575 50H47.7909L45.5479 64.883C45.1516 67.5127 41.4682 67.7873 40.6863 65.2455L31.47 35.2823L26.1433 48.4382C25.7611 49.3822 24.8445 50 23.826 50H16V47H23.489L29.2171 32.8527C30.1001 30.6719 33.2322 30.8072 33.9239 33.0559L42.9085 62.2657L44.8885 49.1274C45.0728 47.9044 46.1238 47 47.3606 47H56.2363L58.8861 31.6188C59.326 29.0649 62.8827 28.7851 63.7168 31.2386L69.0744 47H78V50H68.7163C67.6456 50 66.6939 49.3183 66.3493 48.3046L61.5089 34.0649Z" fill="black"/>
</svg>
