<svg width="196" height="196" viewBox="0 0 196 196" fill="none" xmlns="http://www.w3.org/2000/svg">
<path opacity="0.07" fill-rule="evenodd" clip-rule="evenodd" d="M6.24785 97.7372C7.26768 109.262 9.10877 130.067 19.1029 143.597C20.0062 144.82 20.9939 146.237 22.0841 147.801C32.1969 162.309 51.1286 189.469 93.3124 191.709C140.044 194.19 157.13 178.625 171.566 153.863C186.001 129.102 201.438 79.1666 178.275 39.741C155.112 0.315416 48.9759 -0.513338 26.3341 30.0653C3.69223 60.644 4.98747 84.3418 6.00016 94.9999C6.07978 95.8379 6.16082 96.7537 6.24785 97.7372ZM73.1083 55.022L73.1189 55.0224C79.5549 55.2991 85.8334 58.5631 90.5778 62.617C93.4343 65.0576 95.8961 67.9258 97.5177 70.8044C99.0308 67.9859 101.243 65.1422 103.876 62.6852C108.238 58.6142 114.062 55.3163 120.399 55.0227C120.43 55.0213 120.461 55.0206 120.492 55.0206C132.417 55.0206 139.728 59.2118 143.948 65.3886C148.068 71.4191 149 79.0018 149 85.3677C149 98.1258 140.315 110.179 130.673 119.857C121.983 128.58 112.142 135.732 106.115 140.113C105.416 140.621 104.769 141.091 104.18 141.523C102.045 143.23 99.1948 144 96.4809 144C93.7726 144 90.9283 143.233 88.7948 141.533C82.5778 137.126 71.9718 129.438 62.7773 119.786C53.6115 110.164 45.5329 98.2658 45.0017 85.4506C45.0006 85.423 45 85.3954 45 85.3678C44.9997 77.3786 47.4691 69.6557 52.2506 63.9725C57.0701 58.2441 64.1669 54.6852 73.1083 55.022Z" fill="black"/>
<g opacity="0.2">
<path d="M142.529 31.7877C143.372 30.0461 142.648 27.9492 140.912 27.1043C139.175 26.2593 137.084 26.9862 136.241 28.7278L131.544 38.4318C130.701 40.1735 131.425 42.2703 133.162 43.1152C134.898 43.9602 136.989 43.2333 137.832 41.4917L142.529 31.7877Z" fill="black"/>
<path d="M53.3142 30.8782C51.649 31.8598 51.0948 34.0055 52.0764 35.6707L57.4627 44.8079C58.4443 46.4731 60.59 47.0273 62.2552 46.0457C63.9204 45.0641 64.4745 42.9184 63.4929 41.2532L58.1067 32.116C57.1251 30.4508 54.9794 29.8966 53.3142 30.8782Z" fill="black"/>
<path d="M25.6009 45.5328C24.2055 44.1951 24.1588 41.9795 25.4965 40.5841C26.8342 39.1888 29.0498 39.142 30.4452 40.4797L46.4243 55.7987C47.8196 57.1364 47.8663 59.352 46.5286 60.7473C45.1909 62.1427 42.9753 62.1894 41.58 60.8517L25.6009 45.5328Z" fill="black"/>
<path d="M127.491 64.0177C116.066 64.547 106.507 72.8217 104.403 84.0031C101.678 72.6769 91.7317 64.5207 80.0326 64.0177C72.6198 63.7385 65.4629 66.7368 60.4853 72.2069C55.5076 77.677 53.2199 85.0578 54.2367 92.3658C54.2367 115.752 84.7524 137.36 97.5904 146.451L98.275 146.936C101.679 149.688 106.557 149.688 109.962 146.936C110.564 146.494 111.225 146.013 111.938 145.495L111.942 145.492C124.726 136.199 154 114.918 154 92.3658C154 79.8926 150.294 64.0177 127.491 64.0177Z" fill="black"/>
<path d="M17.3898 70.4902C16.512 72.2124 17.1964 74.3201 18.9185 75.198L31.2392 81.4786C32.9613 82.3564 35.0691 81.672 35.947 79.9499C36.8249 78.2277 36.1404 76.12 34.4183 75.2421L22.0976 68.9615C20.3755 68.0837 18.2677 68.7681 17.3898 70.4902Z" fill="black"/>
<path d="M177.065 70.658C178.752 69.7138 179.357 67.5795 178.416 65.8909C177.475 64.2024 175.345 63.5989 173.659 64.5431L162.875 70.5793C161.188 71.5235 160.583 73.6578 161.523 75.3463C162.464 77.0349 164.594 77.6384 166.281 76.6942L177.065 70.658Z" fill="black"/>
<path d="M169.091 36.835C170.474 38.1842 170.501 40.4019 169.152 41.7884L153.708 57.6658C152.36 59.0523 150.146 59.0825 148.763 57.7332C147.381 56.384 147.353 54.1662 148.702 52.7798L164.146 36.9024C165.495 35.5159 167.709 35.4857 169.091 36.835Z" fill="black"/>
<path d="M26.3898 121.509C25.512 119.787 26.1964 117.68 27.9185 116.802L40.2392 110.521C41.9613 109.643 44.0691 110.328 44.947 112.05C45.8249 113.772 45.1404 115.88 43.4183 116.758L31.0976 123.038C29.3755 123.916 27.2677 123.232 26.3898 121.509Z" fill="black"/>
<path d="M34.6009 145.467C33.2055 146.805 33.1588 149.02 34.4965 150.416C35.8342 151.811 38.0498 151.858 39.4452 150.52L55.4243 135.201C56.8196 133.863 56.8663 131.648 55.5286 130.252C54.1909 128.857 51.9753 128.81 50.58 130.148L34.6009 145.467Z" fill="black"/>
<path d="M62.4763 160.413C60.8541 159.361 60.3913 157.194 61.4425 155.572L67.1202 146.81C68.1714 145.188 70.3386 144.725 71.9608 145.777C73.5829 146.828 74.0458 148.995 72.9946 150.617L67.3169 159.379C66.2657 161.001 64.0985 161.464 62.4763 160.413Z" fill="black"/>
<path d="M171.977 117.28C173.668 118.216 174.281 120.346 173.344 122.037C172.408 123.728 170.279 124.34 168.587 123.404L156.488 116.707C154.797 115.771 154.184 113.641 155.121 111.95C156.057 110.259 158.186 109.647 159.878 110.583L171.977 117.28Z" fill="black"/>
<path d="M164.544 151.183C165.928 149.834 165.957 147.618 164.608 146.234L149.16 130.379C147.811 128.995 145.596 128.966 144.211 130.315C142.827 131.664 142.798 133.88 144.147 135.264L159.594 151.119C160.943 152.503 163.159 152.532 164.544 151.183Z" fill="black"/>
<path d="M137.395 154.929C138.39 156.586 137.854 158.737 136.197 159.732C134.54 160.727 132.39 160.191 131.394 158.534L126.019 149.584C125.023 147.926 125.56 145.776 127.217 144.781C128.874 143.786 131.024 144.322 132.019 145.979L137.395 154.929Z" fill="black"/>
</g>
<path fill-rule="evenodd" clip-rule="evenodd" d="M66.5 3L75 11.5L66.5 20L58 11.5L66.5 3ZM63.6667 11.5L66.5 14.3333L69.3333 11.5L66.5 8.66667L63.6667 11.5Z" fill="black"/>
<path d="M120.159 71.0279C121.984 70.8824 124.742 71.2694 126.983 72.8283C129.107 74.3059 131 76.9937 131 81.9998C131 83.1044 131.896 83.9998 133 83.9998C134.105 83.9998 135 83.1044 135 81.9998C135 75.8036 132.56 71.8358 129.267 69.5448C126.091 67.3351 122.35 66.8404 119.841 67.0406C118.74 67.1285 117.919 68.0923 118.006 69.1933C118.094 70.2944 119.058 71.1158 120.159 71.0279Z" fill="black"/>
<path fill-rule="evenodd" clip-rule="evenodd" d="M52.2506 63.9725C57.0701 58.2441 64.1669 54.6852 73.1083 55.022L73.1189 55.0224C79.5549 55.2991 85.8334 58.5631 90.5778 62.617C93.4343 65.0576 95.8961 67.9258 97.5177 70.8044C99.0308 67.9859 101.243 65.1422 103.876 62.6852C108.238 58.6142 114.062 55.3163 120.399 55.0227C120.43 55.0213 120.461 55.0206 120.492 55.0206C132.417 55.0206 139.728 59.2118 143.948 65.3886C148.068 71.4191 149 79.0018 149 85.3677C149 98.1258 140.315 110.179 130.673 119.857C121.983 128.58 112.142 135.732 106.115 140.113C105.416 140.621 104.769 141.091 104.18 141.523C102.045 143.23 99.1948 144 96.4809 144C93.7726 144 90.9283 143.233 88.7948 141.533C82.5778 137.126 71.9718 129.438 62.7773 119.786C53.6115 110.164 45.5329 98.2658 45.0017 85.4506C45.0006 85.423 45 85.3954 45 85.3678C44.9997 77.3786 47.4691 69.6557 52.2506 63.9725ZM95.5017 76.6555C95.0454 73.625 92.2994 69.3492 87.9794 65.658C83.6666 61.973 78.2139 59.2468 72.9524 59.0189C65.269 58.731 59.3508 61.7464 55.3114 66.5477C51.2409 71.3858 49.0083 78.1331 49 85.3261C49.485 96.6296 56.7002 107.607 65.6736 117.027C74.6051 126.403 84.9675 133.918 91.1564 138.304C91.1908 138.329 91.2244 138.354 91.2572 138.381C92.5222 139.403 94.4324 140 96.4809 140C98.5294 140 100.44 139.403 101.705 138.381L101.731 138.359L101.749 138.346C101.759 138.338 101.769 138.331 101.779 138.323C102.382 137.881 103.041 137.402 103.749 136.887L103.752 136.885L103.768 136.873L103.769 136.872C109.811 132.479 119.39 125.515 127.84 117.034C137.367 107.471 145 96.4213 145 85.3677C145 79.261 144.079 72.6701 140.646 67.6451C137.317 62.7736 131.386 59.0314 120.539 59.0206C115.466 59.2702 110.518 61.958 106.605 65.6096C102.654 69.2963 100.066 73.6763 99.4654 76.8718C99.4597 76.9022 99.45 76.9497 99.4352 77.007C99.4225 77.0557 99.3937 77.1604 99.3402 77.2868C99.313 77.3479 99.2412 77.4881 99.1948 77.5662C99.1229 77.6734 98.9187 77.915 98.7804 78.042C98.5587 78.2027 97.9771 78.4489 97.6214 78.5033C97.243 78.4907 96.5911 78.2897 96.3296 78.1303C96.1617 77.9953 95.9156 77.7305 95.8303 77.6115C95.7759 77.5246 95.693 77.369 95.6623 77.3017C95.6408 77.2503 95.6065 77.1581 95.5929 77.1172C95.5827 77.0845 95.5657 77.0251 95.5586 76.9982C95.5431 76.9371 95.5333 76.8867 95.5276 76.855C95.5254 76.8426 95.5234 76.831 95.5217 76.8201C95.5187 76.8013 95.5163 76.785 95.5145 76.7717C95.5129 76.7602 95.5114 76.7489 95.5101 76.7381C95.5085 76.7249 95.5071 76.7123 95.5059 76.7005C95.5051 76.6929 95.5044 76.6857 95.5037 76.6788C95.503 76.6704 95.5023 76.6626 95.5017 76.6555Z" fill="black"/>
<path d="M52 172C52 170.895 51.1046 170 50 170C48.8954 170 48 170.895 48 172V176H44C42.8954 176 42 176.895 42 178C42 179.105 42.8954 180 44 180H48V184C48 185.105 48.8954 186 50 186C51.1046 186 52 185.105 52 184V180H56C57.1046 180 58 179.105 58 178C58 176.895 57.1046 176 56 176H52V172Z" fill="black"/>
<path d="M169 166L165 162L161 166L165 170L169 166Z" fill="black"/>
</svg>
