<svg width="96" height="96" viewBox="0 0 96 96" fill="none" xmlns="http://www.w3.org/2000/svg">
<g opacity="0.2">
<path d="M70.4267 12.4678C70.9037 11.4603 70.4961 10.2486 69.5162 9.76127C68.5363 9.27394 67.3552 9.69556 66.8782 10.703L64.5524 15.6145C64.0754 16.6219 64.4831 17.8337 65.463 18.321C66.4429 18.8083 67.6239 18.3867 68.101 17.3793L70.4267 12.4678Z" fill="black"/>
<path d="M24.4732 12.2008C23.4795 12.6831 23.0649 13.8796 23.5472 14.8734L25.8985 19.7181C26.3807 20.7119 27.5773 21.1265 28.571 20.6442C29.5647 20.1619 29.9793 18.9654 29.497 17.9717L27.1457 13.1269C26.6635 12.1332 25.4669 11.7186 24.4732 12.2008Z" fill="black"/>
<path d="M10.6026 18.7211C9.87951 17.886 9.97031 16.623 10.8054 15.8999C11.6404 15.1769 12.9035 15.2677 13.6265 16.1027L20.6766 24.245C21.3997 25.08 21.3089 26.3431 20.4738 27.0661C19.6388 27.7892 18.3757 27.6984 17.6527 26.8633L10.6026 18.7211Z" fill="black"/>
<path d="M5.09928 29.8556C4.56438 30.822 4.91418 32.0391 5.8806 32.574L11.9399 35.9277C12.9063 36.4626 14.1233 36.1128 14.6582 35.1464C15.1931 34.18 14.8433 32.9629 13.8769 32.428L7.81765 29.0743C6.85123 28.5394 5.63418 28.8892 5.09928 29.8556Z" fill="black"/>
<path d="M62.7458 33.1968C57.033 33.4645 52.2534 37.6506 51.2017 43.307C49.8389 37.5773 44.866 33.4512 39.0164 33.1968C35.31 33.0555 31.7316 34.5723 29.2427 37.3395C26.7539 40.1068 25.61 43.8406 26.1185 47.5376C26.1185 59.7116 39.3363 68.8361 48.1376 75.1436C49.8396 76.5358 52.2788 76.5358 53.9809 75.1436C59.6815 70.9131 76 59.5838 76 47.5376C76 41.2276 74.1472 33.1968 62.7458 33.1968Z" fill="black"/>
<path d="M87.9764 31.5724C88.9378 31.0273 89.2908 29.7986 88.7648 28.828C88.2389 27.8574 87.0331 27.5125 86.0717 28.0576L80.1379 31.4218C79.1765 31.9669 78.8234 33.1956 79.3494 34.1662C79.8754 35.1368 81.0812 35.4818 82.0426 34.9367L87.9764 31.5724Z" fill="black"/>
<path d="M83.1476 14.7951C83.9721 15.519 84.0553 16.7914 83.3334 17.637L76.2943 25.8825C75.5724 26.7281 74.3188 26.8268 73.4943 26.1028C72.6698 25.3789 72.5866 24.1065 73.3085 23.2609L80.3476 15.0154C81.0695 14.1698 82.3231 14.0711 83.1476 14.7951Z" fill="black"/>
<path d="M7.09928 64.1448C6.56438 63.1784 6.91418 61.9614 7.8806 61.4265L13.9399 58.0727C14.9063 57.5378 16.1233 57.8876 16.6582 58.854C17.1931 59.8204 16.8433 61.0375 15.8769 61.5724L9.81765 64.9262C8.85123 65.4611 7.63418 65.1112 7.09928 64.1448Z" fill="black"/>
<path d="M12.6026 76.2794C11.8795 77.1144 11.9703 78.3775 12.8054 79.1005C13.6404 79.8235 14.9035 79.7327 15.6265 78.8977L22.6766 70.7555C23.3997 69.9204 23.3089 68.6574 22.4738 67.9343C21.6388 67.2113 20.3757 67.3021 19.6527 68.1371L12.6026 76.2794Z" fill="black"/>
<path d="M26.4293 84.1653C25.4355 83.6831 25.0209 82.4865 25.5032 81.4928L27.8545 76.648C28.3368 75.6543 29.5333 75.2397 30.527 75.722C31.5208 76.2042 31.9354 77.4008 31.4531 78.3945L29.1018 83.2393C28.6195 84.233 27.423 84.6476 26.4293 84.1653Z" fill="black"/>
<path d="M88.1194 60.4265C89.0858 60.9614 89.4356 62.1784 88.9007 63.1448C88.3658 64.1112 87.1487 64.4611 86.1823 63.9262L80.123 60.5724C79.1566 60.0375 78.8068 58.8204 79.3417 57.854C79.8766 56.8876 81.0937 56.5378 82.0601 57.0727L88.1194 60.4265Z" fill="black"/>
<path d="M83.9241 77.4042C84.6995 76.6175 84.6903 75.3512 83.9036 74.5758L76.2393 67.0218C75.4526 66.2464 74.1863 66.2556 73.411 67.0422C72.6356 67.8289 72.6448 69.0952 73.4315 69.8706L81.0957 77.4247C81.8824 78.2 83.1487 78.1909 83.9241 77.4042Z" fill="black"/>
<path d="M70.4967 80.4928C70.979 81.4865 70.5644 82.6831 69.5707 83.1653C68.577 83.6476 67.3804 83.233 66.8982 82.2393L64.5469 77.3945C64.0646 76.4008 64.4792 75.2042 65.4729 74.722C66.4666 74.2397 67.6632 74.6543 68.1455 75.648L70.4967 80.4928Z" fill="black"/>
</g>
<path fill-rule="evenodd" clip-rule="evenodd" d="M59.2818 31.0107C54.3883 31.2583 50.3275 35.3692 49.1559 39.9896C48.9862 40.659 48.3814 41.126 47.6908 41.1209C47.0003 41.1158 46.4024 40.6398 46.2426 39.968C45.1694 35.4558 40.5871 31.2347 35.4554 31.0094C31.7036 30.8676 28.8977 32.3373 26.9943 34.6528C25.0581 37.0082 23.9999 40.3174 24 43.8514C24 49.2493 27.6074 54.6672 32.3136 59.453C35.0135 62.1985 38.0182 64.4738 41.0355 66.7587C42.5622 67.9147 44.0922 69.0733 45.5875 70.2964C46.737 71.2367 48.3818 71.2367 49.5313 70.2964C50.9212 69.1597 52.3377 68.0699 53.7517 66.9819C56.7956 64.64 59.8283 62.3068 62.5596 59.5329C67.3072 54.7113 71.0002 49.2422 71.0002 43.8514C71.0002 40.7916 70.5403 37.5753 68.9055 35.1543C67.3502 32.8511 64.5588 31.019 59.2818 31.0107ZM21 43.8514C20.9999 39.7584 22.2201 35.7363 24.6769 32.7477C27.1653 29.7206 30.8647 27.8337 35.5687 28.0116L35.587 28.0123C40.7134 28.2374 45.2842 31.4899 47.6877 35.6328C49.94 31.5478 54.0755 28.2703 59.1302 28.0145C59.1823 28.0119 59.2344 28.0106 59.2865 28.0107C65.3677 28.0202 69.1806 30.201 71.3917 33.4754C73.5338 36.6475 74.0002 40.6018 74.0002 43.8514C74.0002 50.507 69.5338 56.7258 64.6972 61.6378C61.819 64.5609 58.5041 67.113 55.3798 69.5184C54.0091 70.5737 52.6751 71.6008 51.4307 72.6186C49.1761 74.4626 45.9426 74.4626 43.6881 72.6185L43.688 72.6185C42.2349 71.4299 40.7829 70.3306 39.2838 69.1955C38.5278 68.6232 37.7599 68.0418 36.9738 67.4353C34.6845 65.6691 32.3515 63.7702 30.1745 61.5564C25.3617 56.6622 21 50.4998 21 43.8515" fill="black"/>
</svg>
