<svg width="48" height="48" viewBox="0 0 48 48" fill="none" xmlns="http://www.w3.org/2000/svg">
<path opacity="0.2" fill-rule="evenodd" clip-rule="evenodd" d="M34.9268 11.0067C30.5851 11.206 26.9526 14.3212 26.1533 18.5307C26.1533 18.8508 26.1533 18.8508 26.1533 18.5307C25.1176 14.2667 21.3381 11.1961 16.8925 11.0067C14.0756 10.9016 11.356 12.0304 9.46449 14.0897C7.57299 16.1491 6.70363 18.9277 7.09005 21.679C7.09005 30.6436 19.1129 38.9146 23.8246 42.223C25.1181 43.259 26.9719 43.259 28.2655 42.223C32.598 39.0747 45 30.6436 45 21.679C45 16.9832 43.5919 11.0067 34.9268 11.0067Z" fill="black"/>
<path fill-rule="evenodd" clip-rule="evenodd" d="M5.92202 10.3593C7.82364 8.12093 10.5982 6.73929 14.0946 6.87095L14.1006 6.87118C17.9304 7.03577 21.3163 9.15507 23.1639 12.3399C24.8603 9.18316 28.1311 7.04458 31.8711 6.87136C31.8886 6.87055 31.9062 6.87015 31.9237 6.87015C36.5152 6.87015 39.3993 8.4907 41.0737 10.9407C42.6912 13.3076 43.043 16.2575 43.043 18.6791C43.043 23.6459 39.6712 28.2804 36.0296 31.9346C32.7336 35.2421 29.0027 37.9528 26.7343 39.6009C26.4742 39.7898 26.2333 39.9648 26.0146 40.1252C24.327 41.4721 21.9268 41.4742 20.237 40.1313C20.0857 40.0242 19.9262 39.9115 19.7591 39.7935C17.3603 38.0999 13.4034 35.3062 9.95521 31.8784C6.295 28.2398 2.95697 23.6459 2.95697 18.6791C2.95697 18.6666 2.95718 18.654 2.95759 18.6415C3.0596 15.5592 4.04405 12.5698 5.92202 10.3593ZM22.099 15.6954C21.1578 11.9819 17.8724 9.31021 14.006 9.14273C11.2215 9.03871 9.11332 10.1143 7.65466 11.8313C6.17531 13.5726 5.32242 16.03 5.23049 18.6977C5.23898 22.6894 7.97725 26.7064 11.558 30.266C14.8644 33.5529 18.6763 36.2453 21.0829 37.9451C21.2556 38.0671 21.4211 38.184 21.5787 38.2956C21.5982 38.3095 21.6173 38.3239 21.636 38.339C22.5011 39.0382 23.7427 39.0382 24.6078 38.339C24.6217 38.3278 24.6358 38.3169 24.6502 38.3064C24.8804 38.1376 25.1319 37.9548 25.4017 37.7586C27.6783 36.1036 31.2604 33.4997 34.4192 30.3298C37.9961 26.7404 40.7695 22.6769 40.7695 18.6791C40.7695 16.4049 40.4235 14.0188 39.1966 12.2235C38.0291 10.5151 35.9287 9.14976 31.9504 9.14367C28.2034 9.32892 25.0751 12.0304 24.3587 15.6771C24.3579 15.6844 24.3569 15.6926 24.3558 15.7015C24.3537 15.7176 24.3502 15.7414 24.3447 15.7698C24.3423 15.7821 24.3366 15.8086 24.3332 15.823C24.3289 15.8403 24.3182 15.8787 24.3118 15.8997C24.3031 15.926 24.2809 15.9851 24.2669 16.0178C24.2468 16.0607 24.1924 16.1581 24.1568 16.2118C24.1016 16.2836 23.9472 16.4366 23.8444 16.5114C23.6947 16.5928 23.3427 16.6872 23.1474 16.6902C22.9684 16.663 22.6702 16.5468 22.5529 16.4709C22.4749 16.4079 22.3556 16.2852 22.3118 16.2293C22.2821 16.187 22.2351 16.1101 22.2169 16.0761C22.2036 16.0495 22.1817 16.0011 22.1727 15.9795C22.1658 15.9618 22.154 15.9294 22.149 15.9146C22.1449 15.9022 22.1378 15.8792 22.1347 15.8686C22.1275 15.8435 22.1224 15.8224 22.119 15.8077C22.1124 15.779 22.1083 15.7556 22.106 15.7424C22.1036 15.7279 22.1017 15.7156 22.1005 15.7067L22.099 15.6954Z" fill="black"/>
</svg>
