<svg width="96" height="96" viewBox="0 0 96 96" fill="none" xmlns="http://www.w3.org/2000/svg">
<g opacity="0.2">
<path d="M70.4267 12.4675C70.9038 11.4601 70.4961 10.2484 69.5162 9.76103C68.5363 9.2737 67.3552 9.69531 66.8782 10.7027L64.5525 15.6143C64.0754 16.6217 64.4831 17.8334 65.463 18.3208C66.4429 18.8081 67.624 18.3865 68.101 17.3791L70.4267 12.4675Z" fill="black"/>
<path d="M24.4732 12.2006C23.4795 12.6829 23.0649 13.8794 23.5472 14.8731L25.8985 19.7179C26.3808 20.7116 27.5773 21.1262 28.571 20.644C29.5647 20.1617 29.9793 18.9651 29.4971 17.9714L27.1458 13.1266C26.6635 12.1329 25.467 11.7183 24.4732 12.2006Z" fill="black"/>
<path d="M10.6026 18.7208C9.87955 17.8858 9.97034 16.6227 10.8054 15.8997C11.6404 15.1767 12.9035 15.2675 13.6265 16.1025L20.6767 24.2447C21.3997 25.0798 21.3089 26.3428 20.4739 27.0659C19.6388 27.7889 18.3757 27.6981 17.6527 26.8631L10.6026 18.7208Z" fill="black"/>
<path d="M5.09931 29.8554C4.56441 30.8218 4.91422 32.0388 5.88063 32.5737L11.9399 35.9275C12.9063 36.4624 14.1234 36.1126 14.6583 35.1462C15.1932 34.1797 14.8434 32.9627 13.8769 32.4278L7.81768 29.074C6.85126 28.5391 5.63421 28.8889 5.09931 29.8554Z" fill="black"/>
<path d="M62.7458 33.1965C57.033 33.4643 52.2534 37.6503 51.2018 43.3068C49.8389 37.5771 44.866 33.451 39.0164 33.1965C35.31 33.0553 31.7316 34.5721 29.2428 37.3393C26.754 40.1065 25.6101 43.8403 26.1185 47.5373C26.1185 59.7114 39.3363 68.8359 48.1376 75.1433C49.8397 76.5355 52.2788 76.5355 53.9809 75.1433C59.6816 70.9129 76 59.5836 76 47.5373C76 41.2274 74.1473 33.1965 62.7458 33.1965Z" fill="black"/>
<path d="M87.9764 31.5722C88.9378 31.0271 89.2908 29.7984 88.7649 28.8278C88.2389 27.8572 87.0331 27.5122 86.0717 28.0573L80.1379 31.4216C79.1765 31.9667 78.8235 33.1954 79.3494 34.166C79.8754 35.1366 81.0812 35.4815 82.0426 34.9364L87.9764 31.5722Z" fill="black"/>
<path d="M83.1476 14.7948C83.9722 15.5188 84.0553 16.7912 83.3334 17.6368L76.2943 25.8822C75.5724 26.7279 74.3188 26.8265 73.4943 26.1026C72.6698 25.3786 72.5866 24.1062 73.3085 23.2606L80.3476 15.0151C81.0695 14.1695 82.3231 14.0709 83.1476 14.7948Z" fill="black"/>
<path d="M7.09931 64.1446C6.56441 63.1782 6.91422 61.9611 7.88063 61.4262L13.9399 58.0725C14.9063 57.5376 16.1234 57.8874 16.6583 58.8538C17.1932 59.8202 16.8434 61.0373 15.8769 61.5722L9.81768 64.9259C8.85126 65.4608 7.63421 65.111 7.09931 64.1446Z" fill="black"/>
<path d="M12.6026 76.2791C11.8795 77.1142 11.9703 78.3772 12.8054 79.1003C13.6404 79.8233 14.9035 79.7325 15.6265 78.8975L22.6767 70.7552C23.3997 69.9202 23.3089 68.6571 22.4739 67.9341C21.6388 67.211 20.3757 67.3018 19.6527 68.1369L12.6026 76.2791Z" fill="black"/>
<path d="M26.4293 84.1651C25.4356 83.6828 25.021 82.4863 25.5032 81.4926L27.8545 76.6478C28.3368 75.6541 29.5333 75.2394 30.5271 75.7217C31.5208 76.204 31.9354 77.4005 31.4531 78.3943L29.1018 83.239C28.6196 84.2328 27.423 84.6474 26.4293 84.1651Z" fill="black"/>
<path d="M88.1194 60.4262C89.0858 60.9611 89.4356 62.1782 88.9007 63.1446C88.3658 64.111 87.1488 64.4608 86.1824 63.9259L80.1231 60.5722C79.1567 60.0373 78.8069 58.8202 79.3418 57.8538C79.8767 56.8874 81.0937 56.5376 82.0601 57.0725L88.1194 60.4262Z" fill="black"/>
<path d="M83.9241 77.4039C84.6995 76.6172 84.6903 75.351 83.9036 74.5756L76.2394 67.0215C75.4527 66.2461 74.1864 66.2553 73.411 67.042C72.6356 67.8287 72.6448 69.095 73.4315 69.8703L81.0958 77.4244C81.8825 78.1998 83.1488 78.1906 83.9241 77.4039Z" fill="black"/>
<path d="M70.4968 80.4926C70.979 81.4863 70.5644 82.6828 69.5707 83.1651C68.577 83.6474 67.3805 83.2328 66.8982 82.239L64.5469 77.3943C64.0646 76.4005 64.4792 75.204 65.473 74.7217C66.4667 74.2394 67.6632 74.6541 68.1455 75.6478L70.4968 80.4926Z" fill="black"/>
</g>
<path fill-rule="evenodd" clip-rule="evenodd" d="M59.2818 31.0107C54.3883 31.2583 50.3275 35.3692 49.1559 39.9896C48.9862 40.659 48.3814 41.126 47.6908 41.1209C47.0003 41.1158 46.4024 40.6398 46.2426 39.968C45.1694 35.4558 40.5871 31.2347 35.4554 31.0094C31.7036 30.8676 28.8977 32.3373 26.9943 34.6528C25.0581 37.0082 23.9999 40.3174 24 43.8514C24 49.2493 27.6074 54.6672 32.3136 59.453C35.0135 62.1985 38.0182 64.4738 41.0355 66.7587C42.5622 67.9147 44.0922 69.0733 45.5875 70.2964C46.737 71.2367 48.3818 71.2367 49.5313 70.2964C50.9212 69.1597 52.3377 68.0699 53.7517 66.9819C56.7956 64.64 59.8283 62.3068 62.5596 59.5329C67.3072 54.7113 71.0002 49.2422 71.0002 43.8514C71.0002 40.7916 70.5403 37.5753 68.9055 35.1543C67.3502 32.8511 64.5588 31.019 59.2818 31.0107ZM21 43.8514C20.9999 39.7584 22.2201 35.7363 24.6769 32.7477C27.1653 29.7206 30.8647 27.8337 35.5687 28.0116L35.587 28.0123C40.7134 28.2374 45.2842 31.4899 47.6877 35.6328C49.94 31.5478 54.0755 28.2703 59.1302 28.0145C59.1823 28.0119 59.2344 28.0106 59.2865 28.0107C65.3677 28.0202 69.1806 30.201 71.3917 33.4754C73.5338 36.6475 74.0002 40.6018 74.0002 43.8514C74.0002 50.507 69.5338 56.7258 64.6972 61.6378C61.819 64.5609 58.5041 67.113 55.3798 69.5184C54.0091 70.5737 52.6751 71.6008 51.4307 72.6186C49.1761 74.4626 45.9426 74.4626 43.6881 72.6185L43.688 72.6185C42.2349 71.4299 40.7829 70.3306 39.2838 69.1955C38.5278 68.6232 37.7599 68.0418 36.9738 67.4353C34.6845 65.6691 32.3515 63.7702 30.1745 61.5564C25.3617 56.6622 21 50.4998 21 43.8515" fill="black"/>
</svg>
