<svg width="48" height="48" viewBox="0 0 48 48" fill="none" xmlns="http://www.w3.org/2000/svg">
<path opacity="0.2" fill-rule="evenodd" clip-rule="evenodd" d="M34.9268 11.0067C30.5851 11.206 26.9526 14.3212 26.1533 18.5306C26.1533 18.8508 26.1533 18.8508 26.1533 18.5306C25.1176 14.2667 21.3381 11.1961 16.8925 11.0067C14.0756 10.9016 11.356 12.0304 9.46449 14.0897C7.57299 16.1491 6.70363 18.9277 7.09005 21.679C7.09005 30.6436 19.1129 38.9146 23.8246 42.223C25.1181 43.259 26.9719 43.259 28.2655 42.223C32.598 39.0747 45 30.6436 45 21.679C45 16.9832 43.5919 11.0067 34.9268 11.0067V11.0067Z" fill="black"/>
<path fill-rule="evenodd" clip-rule="evenodd" d="M5.92208 10.3593C7.82371 8.12093 10.5983 6.73929 14.0946 6.87095L14.1006 6.87118L14.1006 6.87119C17.9304 7.03579 21.3164 9.15507 23.1639 12.3399C24.8603 9.18316 28.1311 7.04458 31.8712 6.87136C31.8887 6.87055 31.9062 6.87015 31.9238 6.87015C36.5152 6.87015 39.3993 8.4907 41.0737 10.9407C42.6913 13.3076 43.043 16.2575 43.043 18.6791C43.043 23.6459 39.6712 28.2804 36.0296 31.9346C32.7337 35.2421 29.0028 37.9528 26.7343 39.6009C26.4743 39.7898 26.2334 39.9648 26.0146 40.1252C24.327 41.4721 21.9269 41.4742 20.2371 40.1313C20.0858 40.0242 19.9262 39.9115 19.7591 39.7935C17.3604 38.0999 13.4035 35.3062 9.95527 31.8784C6.29506 28.2398 2.95703 23.6459 2.95703 18.6791C2.95703 18.6666 2.95724 18.654 2.95765 18.6415C3.05966 15.5592 4.04412 12.5698 5.92208 10.3593ZM22.0991 15.6954C21.1579 11.9819 17.8724 9.31021 14.006 9.14273C11.2216 9.03871 9.11338 10.1143 7.65472 11.8313C6.17537 13.5726 5.32248 16.03 5.23055 18.6977C5.23904 22.6894 7.97731 26.7064 11.5581 30.266C14.8645 33.5529 18.6764 36.2453 21.083 37.9451C21.2557 38.0671 21.4212 38.184 21.5787 38.2956C21.5983 38.3095 21.6174 38.3239 21.6361 38.339C22.5012 39.0382 23.7428 39.0382 24.6079 38.339C24.6217 38.3278 24.6359 38.3169 24.6502 38.3064C24.8805 38.1376 25.132 37.9548 25.4018 37.7586C27.6784 36.1036 31.2604 33.4997 34.4192 30.3298C37.9962 26.7404 40.7695 22.6769 40.7695 18.6791C40.7695 16.4049 40.4236 14.0188 39.1967 12.2235C38.0292 10.5151 35.9288 9.14976 31.9505 9.14367C28.2035 9.32892 25.0752 12.0304 24.3588 15.6771C24.358 15.6844 24.357 15.6926 24.3558 15.7015C24.3537 15.7176 24.3503 15.7414 24.3448 15.7698C24.3424 15.7821 24.3367 15.8086 24.3333 15.823C24.3289 15.8403 24.3183 15.8787 24.3119 15.8997C24.3032 15.926 24.2809 15.9851 24.267 16.0178C24.2469 16.0607 24.1925 16.1581 24.1568 16.2118C24.1017 16.2836 23.9472 16.4366 23.8444 16.5114C23.6948 16.5928 23.3428 16.6872 23.1475 16.6902C22.9685 16.663 22.6703 16.5468 22.5529 16.4709C22.475 16.4079 22.3557 16.2852 22.3119 16.2293C22.2822 16.187 22.2352 16.1101 22.217 16.0761C22.2037 16.0495 22.1818 16.0011 22.1728 15.9795C22.1659 15.9618 22.154 15.9294 22.149 15.9146C22.145 15.9022 22.1379 15.8792 22.1348 15.8686C22.1276 15.8435 22.1224 15.8224 22.1191 15.8077C22.1125 15.779 22.1083 15.7556 22.1061 15.7424C22.1036 15.7279 22.1018 15.7156 22.1005 15.7067L22.0991 15.6954Z" fill="black"/>
</svg>
