<svg width="96" height="96" viewBox="0 0 96 96" fill="none" xmlns="http://www.w3.org/2000/svg">
<path opacity="0.2" d="M77 73H23C21.8954 73 21 73.8954 21 75V91C21 92.6569 22.3431 94 24 94H75C77.7614 94 80 91.7614 80 89V76C80 74.3431 78.6569 73 77 73Z" fill="black"/>
<path d="M32.5 81C31.6716 81 31 81.6716 31 82.5C31 83.3284 31.6716 84 32.5 84H60C60.8284 84 61.5 83.3284 61.5 82.5C61.5 81.6716 60.8284 81 60 81H32.5Z" fill="black"/>
<path d="M38 76.5C38 75.6716 38.6716 75 39.5 75H53.5C54.3284 75 55 75.6716 55 76.5C55 77.3284 54.3284 78 53.5 78H39.5C38.6716 78 38 77.3284 38 76.5Z" fill="black"/>
<path fill-rule="evenodd" clip-rule="evenodd" d="M33.5712 1.32223C34.2217 0.809256 35.1649 0.92074 35.6779 1.57124L39.1904 6.02539H53.3939L56.2459 1.67746C56.7003 0.984753 57.6302 0.791548 58.3229 1.24592C59.0156 1.70029 59.2088 2.63018 58.7544 3.32288L56.9817 6.02539H72.5C74.9853 6.02539 77 8.04011 77 10.5254V86.4999C77 88.9852 74.9853 90.9999 72.5 90.9999H19.5C17.0147 90.9999 15 88.9852 15 86.4999V10.5254C15 8.04011 17.0147 6.02539 19.5 6.02539H35.3698L33.3222 3.42889C32.8093 2.77839 32.9207 1.83521 33.5712 1.32223ZM54.1689 9.02539H41.5562L43.7887 11.8565C44.4838 11.6252 45.2273 11.5 46 11.5C49.866 11.5 53 14.634 53 18.5C53 22.366 49.866 25.5 46 25.5C42.134 25.5 39 22.366 39 18.5C39 16.495 39.843 14.6869 41.1938 13.4107L37.7356 9.02539H19.5C18.6716 9.02539 18 9.69696 18 10.5254V67H25.0244C25.1442 63.8207 26.9474 61.5777 28.8509 60.0694C30.3192 58.9061 31.9939 58.0641 33.6954 57.3017C35.6033 56.4472 37.5648 55.6967 39.4572 54.811C39.6599 54.7162 39.919 54.5838 40.1684 54.4274C41.012 53.8981 40.7303 53.0006 40.7346 52.078C39.469 50.9531 38.4646 49.5665 37.8112 48.2666C37.4307 47.5096 37.1938 46.639 37.0569 45.7403C37.0098 45.6572 36.9701 45.5684 36.9388 45.4744C36.8049 45.0727 36.6141 44.6958 36.3551 44.2304C36.3064 44.1428 36.2539 44.0498 36.1992 43.9529C35.9784 43.5619 35.7172 43.0991 35.4787 42.5935C34.846 41.2522 34.3477 39.5761 34.3477 37.0143C34.3477 33.632 35.7109 31.0447 37.8282 29.3491C39.9048 27.6862 42.6037 26.9584 45.221 27.0197C50.3729 27.1404 56.024 30.4594 56.024 37.0143C56.024 39.46 55.7448 40.8177 55.199 41.9377C54.9932 42.36 54.7499 42.7408 54.5484 43.0561C54.5068 43.1211 54.4671 43.1833 54.4297 43.2426C54.1991 43.609 53.9747 43.99 53.7484 44.5196C53.727 44.5698 53.7032 44.6181 53.6772 44.6646C53.6193 45.2299 53.5207 45.7909 53.3911 46.335C53.0915 47.5933 52.6072 48.8464 51.9887 49.9743C52.1675 51.6778 51.7881 54.0461 53.3057 55.1263C55.0606 56.3755 57.2431 56.8348 59.2238 57.5981C61.3885 58.3469 63.3514 59.3194 64.7741 60.8164C66.3094 62.4319 67.1645 64.7663 67.0304 67H74V10.5254C74 9.69696 73.3284 9.02539 72.5 9.02539H54.2359C54.2136 9.02589 54.1912 9.02589 54.1689 9.02539ZM37.4471 38.7076C37.6119 37.9877 37.8091 37.3064 38.0317 36.6962C38.2274 36.1598 38.452 35.6528 38.7068 35.2128C38.9519 34.7896 39.2738 34.342 39.6974 34.0099C39.9213 33.8344 40.3435 33.5196 40.8858 33.4402C41.216 33.3918 41.5725 33.4315 41.9103 33.5943C42.2224 33.7446 42.4277 33.9566 42.5497 34.1066C42.7262 34.3235 42.8738 34.6088 42.9391 34.735L42.9598 34.7749C43.0458 34.9371 43.1234 35.0753 43.2261 35.2172C43.5504 35.6653 44.5139 36.7066 48.1941 37.0411C50.364 37.2384 51.9048 38.2548 52.7998 39.7606C52.9309 39.1884 53.024 38.3512 53.024 37.0143C53.024 32.68 49.3369 30.1169 45.1507 30.0189C43.0989 29.9708 41.1287 30.5494 39.7035 31.6908C38.3189 32.7996 37.3477 34.5145 37.3477 37.0143C37.3477 37.6534 37.3841 38.2125 37.4471 38.7076ZM64.0358 67C63.9429 65.453 63.7094 64.0509 62.5994 62.883C61.6595 61.894 60.2203 61.1151 58.22 60.4253C58.2031 60.4195 58.1864 60.4133 58.1697 60.4069L55.0853 59.2183C54.9111 59.8303 54.6358 60.3854 54.267 60.8796C53.6034 61.7686 52.7061 62.3686 51.7711 62.7757C49.9411 63.5726 47.7085 63.7398 45.9039 63.7398C44.0235 63.7398 41.9976 63.1486 40.3432 62.0977C39.1438 61.3358 38.0559 60.2742 37.4085 58.9355C36.5725 59.2965 35.7427 59.6706 34.9124 60.0444C33.7577 60.5642 32.1355 61.2946 30.714 62.4208C29.2313 63.5956 28.1416 65.0643 28.0279 67H64.0358ZM52.2754 58.0333C51.2028 57.3913 50.1045 56.5511 49.6047 55.3722C49.5467 55.2355 49.5094 55.0909 49.4939 54.9433L49.3162 53.2513C48.4344 53.9324 47.4036 54.4014 46.2625 54.4014C45.368 54.4014 44.5213 54.2267 43.7346 53.9329V54.1436C43.7346 54.979 43.3041 55.6144 42.9504 56.0053C42.5824 56.4121 42.1371 56.7338 41.7627 56.9687C41.3775 57.2103 41.0021 57.4003 40.7289 57.5282C40.5483 57.6127 40.3647 57.6896 40.1804 57.7655C40.5402 58.4347 41.143 59.0517 41.9518 59.5654C43.1369 60.3182 44.6069 60.7398 45.9039 60.7398C47.613 60.7398 49.3312 60.566 50.5735 60.0251C51.1747 59.7634 51.5939 59.4454 51.8629 59.0851C52.058 58.8237 52.2129 58.4891 52.2754 58.0333ZM18 70V86.4999C18 87.3284 18.6716 87.9999 19.5 87.9999H72.5C73.3284 87.9999 74 87.3284 74 86.4999V70H18ZM42 18.5C42 20.7091 43.7909 22.5 46 22.5C48.2091 22.5 50 20.7091 50 18.5C50 17.4406 49.5881 16.4773 48.9158 15.7617C48.901 15.7841 48.8856 15.8063 48.8695 15.8282L47.963 17.0607C47.5144 17.6705 46.8165 18.0763 46.0181 18.0763C45.2304 18.0763 44.5404 17.6813 44.0913 17.085L43.0645 15.7829C42.4038 16.4963 42 17.451 42 18.5ZM46 14.5C46.0405 14.5 46.0808 14.5006 46.121 14.5018L46.0022 14.6633L45.8749 14.5019C45.9164 14.5006 45.9581 14.5 46 14.5ZM40.85 37.7244C40.541 38.5712 40.2718 39.6606 40.0988 40.8356C39.926 42.0092 39.8557 43.2241 39.9222 44.3205C39.9899 45.4373 40.1936 46.3265 40.4916 46.9192C41.0286 47.9875 41.8891 49.1448 42.9397 50.018C43.9925 50.8931 45.1325 51.4014 46.2625 51.4014C46.7722 51.4014 47.5946 50.9978 48.5082 49.8323C49.3747 48.7268 50.1013 47.1999 50.4727 45.6401C50.8497 44.0569 50.8154 42.6394 50.406 41.6627C50.049 40.8113 49.3636 40.1598 47.9225 40.0288C44.0078 39.673 42.0812 38.5349 41.0278 37.2743C40.9689 37.4114 40.9094 37.5615 40.85 37.7244Z" fill="black"/>
</svg>
