<svg width="48" height="48" viewBox="0 0 48 48" fill="none" xmlns="http://www.w3.org/2000/svg">
<path opacity="0.2" d="M41 37H12C10.8954 37 10 37.8954 10 39V46C10 47.1046 10.8954 48 12 48H41C42.1046 48 43 47.1046 43 46V39C43 37.8954 42.1046 37 41 37Z" fill="black"/>
<path d="M16 40C15.4477 40 15 40.4477 15 41C15 41.5523 15.4477 42 16 42H31C31.5523 42 32 41.5523 32 41C32 40.4477 31.5523 40 31 40H16Z" fill="black"/>
<path d="M19 38C19 37.4477 19.4477 37 20 37H27C27.5523 37 28 37.4477 28 38C28 38.5523 27.5523 39 27 39H20C19.4477 39 19 38.5523 19 38Z" fill="black"/>
<path fill-rule="evenodd" clip-rule="evenodd" d="M29.8001 1.60006C30.1314 1.15823 30.0419 0.53143 29.6001 0.200059C29.1582 -0.131312 28.5314 -0.0417689 28.2001 0.400059L27.0001 2H20.1504L18.7647 0.355627C18.4088 -0.0667009 17.778 -0.12056 17.3556 0.235329C16.9333 0.591219 16.8794 1.22209 17.2353 1.64442L17.535 2H9C7.34315 2 6 3.34315 6 5V43C6 44.6569 7.34315 46 9 46H38C39.6569 46 41 44.6569 41 43V5C41 3.34315 39.6569 2 38 2H29.5001L29.8001 1.60006ZM8 43V35H39V43C39 43.5523 38.5523 44 38 44H9C8.44772 44 8 43.5523 8 43ZM8 5C8 4.44772 8.44772 4 9 4H19.2203L20.9723 6.07906C20.3701 6.70772 20 7.56065 20 8.5C20 10.433 21.567 12 23.5 12C25.433 12 27 10.433 27 8.5C27 6.567 25.433 5 23.5 5C23.2415 5 22.9895 5.02803 22.7469 5.08122L21.8358 4H27.4839C27.4942 4.00016 27.5044 4.00016 27.5147 4H38C38.5523 4 39 4.44772 39 5V33H34.5834C34.5231 31.8073 34.1145 30.837 33.3825 30.0668C32.6226 29.2672 31.585 28.7594 30.4739 28.3756L27.702 27.3741C27.6373 27.3409 27.4951 27.2616 27.3724 27.1697C27.2716 27.0942 27.2343 27.0533 27.2048 26.9376L26.8014 25.3544C27.2259 24.8408 27.5818 24.2503 27.8304 23.6405C28.1153 22.9418 28.2911 22.1357 28.1962 21.3499C28.2021 21.3388 28.208 21.3276 28.2141 21.3163C28.3649 21.0334 28.5495 20.687 28.6673 20.3243C28.8436 19.7814 28.9065 19.1657 28.8677 18.2803C28.8034 16.5865 28.1043 15.2565 27.0501 14.3684C26.0124 13.4943 24.6807 13.089 23.3903 13.1217C22.0993 13.1543 20.7895 13.6275 19.8133 14.5884C18.8208 15.5654 18.2444 16.9773 18.3219 18.732C18.3286 18.8839 18.3689 19.0263 18.4352 19.1525C18.4372 19.3153 18.4429 19.4791 18.4519 19.6423C18.5236 20.9531 18.8133 22.4518 19.2158 23.4505C19.519 24.2029 20.0344 25.0232 20.7255 25.6937C20.7904 25.7566 20.8573 25.8187 20.9261 25.8796L20.7237 26.5821C20.6918 26.6927 20.6104 26.7358 20.5115 26.7978C20.3964 26.8701 20.2747 26.9324 20.1779 26.9777C19.3071 27.3852 18.4155 27.7533 17.5358 28.1411C16.2084 28.5319 14.9252 29.1382 13.9501 29.994C13.0687 30.7677 12.4125 31.7743 12.2641 33H8V5ZM26.8627 19.1809C26.479 18.9322 26.02 18.7503 25.4929 18.6444C23.6577 18.2757 22.7294 17.5837 22.1411 17.0572C21.7969 16.7492 21.485 16.3909 21.0838 16.1536C21.1269 16.1049 21.1711 16.0583 21.2164 16.0137C21.7848 15.4542 22.5885 15.1426 23.4408 15.121C24.2938 15.0995 25.1353 15.3705 25.7616 15.8981C26.3706 16.4111 26.8261 17.2068 26.8692 18.3585L26.8695 18.3653C26.8848 18.7134 26.8799 18.9761 26.8627 19.1809ZM23.4469 27.0621C24.0318 27.1293 24.591 26.9921 25.0929 26.7491L25.2437 27.3411C25.2821 27.7173 25.4522 28.017 25.6065 28.2206C25.7844 28.4554 25.9981 28.6392 26.1732 28.7703C26.3009 28.866 26.4257 28.9468 26.5325 29.0108C26.5022 29.0923 26.464 29.1579 26.4229 29.213C26.3187 29.3526 26.1452 29.4907 25.8681 29.6113C25.2873 29.8642 24.46 29.9525 23.6035 29.9525C22.6803 29.9525 21.6112 29.5449 21.0501 28.7776C21.1916 28.7105 21.3801 28.6139 21.5744 28.492C21.7729 28.3675 22.0187 28.1912 22.2256 27.9624C22.3991 27.7706 22.622 27.4564 22.6736 27.0384L22.7112 26.9079C22.9462 26.98 23.1916 27.0328 23.4469 27.0621ZM28.3912 29.7497C29.5841 30.1807 31.0344 30.4993 31.9328 31.4446C32.2854 31.8156 32.5257 32.2922 32.5797 33H14.2927C14.4197 32.455 14.747 31.9557 15.2694 31.4972C16.3869 30.5164 17.8678 30.1804 19.199 29.5936C19.5559 30.2221 20.0902 30.7212 20.6624 31.0846C21.5367 31.64 22.6057 31.9525 23.6035 31.9525C24.5236 31.9525 25.6939 31.8685 26.6665 31.445C27.4313 31.112 28.085 30.5361 28.3912 29.7497ZM22 8.5C22 8.17528 22.1032 7.87465 22.2786 7.62913L22.3807 7.75034C22.6487 8.09557 23.0598 8.32949 23.5339 8.32949C24.0228 8.32949 24.4447 8.08067 24.7118 7.71753L24.7483 7.66798C24.9073 7.90607 25 8.19221 25 8.5C25 9.32843 24.3284 10 23.5 10C22.6716 10 22 9.32843 22 8.5ZM20.8074 18.5476C21.607 19.2632 22.8489 20.1531 25.0989 20.6052C25.833 20.7527 26.0633 21.0687 26.1552 21.3397C26.2745 21.6917 26.2435 22.2352 25.9784 22.8854C25.7199 23.5196 25.2877 24.1274 24.809 24.5476C24.3073 24.9879 23.9022 25.1013 23.6751 25.0752C23.126 25.0122 22.5934 24.7193 22.1181 24.2582C21.6423 23.7967 21.2777 23.2162 21.0708 22.7029C20.7719 21.9612 20.5123 20.6908 20.4489 19.533C20.4211 19.0257 20.4338 18.5837 20.4822 18.2466C20.5782 18.3376 20.6895 18.4421 20.8074 18.5476Z" fill="black"/>
</svg>
