<svg width="196" height="196" viewBox="0 0 196 196" fill="none" xmlns="http://www.w3.org/2000/svg">
<path opacity="0.07" fill-rule="evenodd" clip-rule="evenodd" d="M180 116C180 116 178.358 31.9341 167.684 26.3868C164.254 24.6043 161.369 22.7454 158.502 20.8979C147.58 13.8604 136.915 6.98843 97.3562 5.13327C47.4121 2.79109 38.0699 16.5962 22.4342 43.8868C6.79842 71.1775 -7.79614 125.787 17.8799 161.387C38.4824 189.952 69.0336 188.214 100.708 186.411C108.508 185.967 116.376 185.52 124.18 185.52C176.598 185.52 180 116 180 116ZM53 33H137C140.866 33 144 36.134 144 40V160C144 163.866 140.866 167 137 167H53C49.134 167 46 163.866 46 160V40C46 36.134 49.134 33 53 33Z" fill="black"/>
<path opacity="0.2" d="M144 137H58C55.7909 137 54 138.791 54 141V167C54 169.209 55.7909 171 58 171H139C143.971 171 148 166.971 148 162V141C148 138.791 146.209 137 144 137Z" fill="black"/>
<path d="M85 142C83.8954 142 83 142.895 83 144C83 145.105 83.8954 146 85 146H105C106.105 146 107 145.105 107 144C107 142.895 106.105 142 105 142H85Z" fill="black"/>
<path d="M73 152C71.8954 152 71 152.895 71 154C71 155.105 71.8954 156 73 156H117C118.105 156 119 155.105 119 154C119 152.895 118.105 152 117 152H73Z" fill="black"/>
<path fill-rule="evenodd" clip-rule="evenodd" d="M76.8219 25.384C77.7145 24.7333 78.9656 24.9294 79.6163 25.8219L84.8492 33H105.114C105.188 32.7898 105.299 32.5885 105.448 32.4055L110.864 25.7389C111.561 24.8816 112.82 24.7513 113.678 25.4478C114.535 26.1443 114.665 27.404 113.969 28.2612L110.119 33H137C140.866 33 144 36.134 144 40V160C144 163.866 140.866 167 137 167H53C49.134 167 46 163.866 46 160V40C46 36.134 49.134 33 53 33H79.8991L76.384 28.1783C75.7333 27.2858 75.9294 26.0347 76.8219 25.384ZM88.3232 44.5554L82.8152 37H53C51.3431 37 50 38.3431 50 40V129H59.9114C60.3291 125.437 62.2299 122.481 64.87 120.164C67.8104 117.583 71.7349 115.721 75.8622 114.514L83.7332 111.045C83.7518 111.037 83.7705 111.029 83.7893 111.021L83.8128 111.012L83.8151 111.011L83.8359 111.002L83.8811 110.984L83.9362 110.961C84.0273 110.922 84.1628 110.863 84.3274 110.786C84.6616 110.63 85.0923 110.41 85.5101 110.148C85.9421 109.877 86.2797 109.61 86.4876 109.381C86.5482 109.314 86.5848 109.264 86.6061 109.233V105.081C84.8415 103.261 83.4729 101.107 82.6009 99.1059C81.9627 97.6413 81.6644 95.9167 81.5786 94.1618C81.3974 93.8578 81.1825 93.5536 80.9032 93.1583L80.7713 92.9714C80.3589 92.386 79.8687 91.6701 79.4209 90.7514C78.5058 88.8739 77.875 86.3783 77.875 82.4096C77.875 77.3289 79.9712 73.4039 83.1691 70.7876C86.3188 68.2107 90.4367 66.9775 94.4688 66.9775C98.5008 66.9775 102.619 68.2107 105.768 70.7876C108.966 73.4039 111.062 77.3289 111.062 82.4096C111.062 85.1348 110.83 86.7989 110.29 88.3611C110.032 89.109 109.716 89.7944 109.389 90.4889L109.248 90.7872L109.246 90.7905C108.953 91.4109 108.637 92.0794 108.281 92.911C108.143 93.2338 107.931 93.5016 107.672 93.7029C107.556 94.962 107.296 96.2226 106.937 97.4308C106.226 99.8272 105.077 102.186 103.663 104.163L104.789 108.752C104.824 108.895 104.843 109.04 104.846 109.186C104.857 109.213 104.889 109.28 104.973 109.391C105.137 109.608 105.404 109.86 105.748 110.117C107.811 111.663 110.324 112.613 112.789 113.545C113.832 113.939 114.866 114.33 115.853 114.761C119.331 115.969 122.446 117.637 124.705 120.08C126.873 122.424 128.151 125.372 128.315 129H140V40C140 38.3431 138.657 37 137 37H87.7653L91.7933 42.5252C92.7999 42.1847 93.8784 42 95 42C100.523 42 105 46.4772 105 52C105 57.5229 100.523 62 95 62C89.4771 62 85 57.5229 85 52C85 49.0432 86.2833 46.3862 88.3232 44.5554ZM124.31 129C124.155 126.362 123.231 124.377 121.769 122.796C120.113 121.006 117.653 119.612 114.473 118.516C114.423 118.498 114.373 118.479 114.325 118.458L109.247 116.241C109.046 117.636 108.538 118.86 107.761 119.902C106.751 121.255 105.377 122.178 103.924 122.811C101.071 124.053 97.5638 124.322 94.6855 124.322C91.7514 124.322 88.5805 123.398 85.9932 121.754C84.0106 120.495 82.246 118.727 81.276 116.499L77.3543 118.228C77.2726 118.264 77.1884 118.294 77.1026 118.319C73.2854 119.422 69.9005 121.071 67.5087 123.17C65.5729 124.869 64.3372 126.809 63.9533 129H124.31ZM50 160C50 161.657 51.3431 163 53 163H137C138.657 163 140 161.657 140 160V133H50V160ZM90.6999 47.8156C89.6479 48.8964 89 50.3725 89 52C89 55.3137 91.6863 58 95 58C98.3137 58 101 55.3137 101 52C101 50.2982 100.291 48.7618 99.1533 47.6699C99.1396 47.6899 99.1256 47.7098 99.1111 47.7294L97.6588 49.7039C97.0075 50.5895 96.0046 51.1668 94.8677 51.1668C93.7309 51.1668 92.728 50.5895 92.0766 49.7039L92.0716 49.6971L90.6999 47.8156ZM95.4077 46.0136C95.2729 46.0046 95.137 46 95 46C94.781 46 94.5647 46.0117 94.3517 46.0346L94.8697 46.7451L95.4077 46.0136ZM85.702 73.8835C83.4273 75.7445 81.875 78.5356 81.875 82.4096C81.875 84.2117 82.0203 85.5792 82.2405 86.6458C82.6676 84.5671 83.2694 82.5743 83.9709 80.9363C84.3247 80.1103 84.718 79.3413 85.1479 78.6848C85.5635 78.0501 86.0846 77.4097 86.7319 76.9572C87.1018 76.6986 87.7287 76.2904 88.4884 76.2213C88.9476 76.1795 89.4328 76.2613 89.8827 76.5094C90.2992 76.739 90.5676 77.0465 90.729 77.2689C90.9644 77.5931 91.1551 78.0154 91.2526 78.2314L91.2644 78.2576L91.2865 78.306C91.4119 78.5778 91.5333 78.8261 91.7005 79.0861C92.2632 79.9608 93.8381 81.7519 99.768 82.6209C103.029 83.0988 105.267 84.7248 106.521 87.0202C106.853 86.0456 107.062 84.8704 107.062 82.4096C107.062 78.5356 105.51 75.7445 103.236 73.8835C100.913 71.983 97.7336 70.9775 94.4688 70.9775C91.2039 70.9775 88.0249 71.983 85.702 73.8835ZM87.6478 82.5113C87.0665 83.8685 86.5328 85.6144 86.1485 87.5004C85.7646 89.3843 85.5416 91.3498 85.5518 93.1422C85.5622 94.962 85.8127 96.4634 86.2679 97.5079C87.0529 99.3093 88.3582 101.284 90.007 102.814C91.6586 104.348 93.5226 105.32 95.4531 105.426C96.4552 105.481 97.9165 104.793 99.5084 102.977C101.033 101.237 102.356 98.8054 103.102 96.2923C103.858 93.7484 103.947 91.3832 103.338 89.6741C102.79 88.1355 101.624 86.9357 99.188 86.5787C92.5413 85.6046 89.7251 83.4088 88.3365 81.2501L88.2995 81.1922C88.0893 81.5533 87.8692 81.9945 87.6478 82.5113ZM100.391 107.614C98.8769 108.76 97.1206 109.524 95.2338 109.42C93.5573 109.328 92.0059 108.843 90.6061 108.117V109.352C90.6061 110.547 89.9894 111.472 89.4539 112.064C88.8993 112.677 88.2204 113.17 87.6358 113.536C87.037 113.912 86.4513 114.209 86.023 114.409C85.8064 114.51 85.6242 114.59 85.493 114.645C85.4622 114.658 85.4342 114.67 85.4091 114.681L85.3627 114.7L85.3352 114.711L85.3136 114.719L84.938 114.885C85.5126 116.214 86.6231 117.416 88.1379 118.378C90.0996 119.624 92.5293 120.322 94.6855 120.322C97.4365 120.322 100.258 120.045 102.327 119.144C103.335 118.705 104.071 118.157 104.555 117.509C105.022 116.884 105.344 116.047 105.344 114.842C105.344 114.741 105.352 114.642 105.366 114.545C105.153 114.447 104.947 114.333 104.742 114.219C104.372 114.012 103.867 113.706 103.349 113.319C102.842 112.939 102.258 112.431 101.784 111.806C101.359 111.244 100.932 110.465 100.858 109.516L100.391 107.614ZM86.6319 109.188C86.632 109.188 86.6318 109.189 86.6313 109.19L86.6319 109.188Z" fill="black"/>
<path fill-rule="evenodd" clip-rule="evenodd" d="M26.5 38L35 46.5L26.5 55L18 46.5L26.5 38ZM23.6667 46.5L26.5 49.3333L29.3333 46.5L26.5 43.6667L23.6667 46.5Z" fill="black"/>
<path d="M174 35L170 31L166 35L170 39L174 35Z" fill="black"/>
<path d="M174 141C175.105 141 176 141.895 176 143V147H180C181.105 147 182 147.895 182 149C182 150.105 181.105 151 180 151H176V155C176 156.105 175.105 157 174 157C172.895 157 172 156.105 172 155V151H168C166.895 151 166 150.105 166 149C166 147.895 166.895 147 168 147H172V143C172 141.895 172.895 141 174 141Z" fill="black"/>
</svg>
