<svg width="48" height="48" viewBox="0 0 48 48" fill="none" xmlns="http://www.w3.org/2000/svg">
<g opacity="0.2">
<path d="M38.4082 39C39.1452 39 39.629 38.2299 39.3091 37.5659L32.0771 22.5563C31.7434 21.8637 30.7856 21.791 30.3512 22.4253L25.0083 30.2268C24.7037 30.6716 24.1014 30.7949 23.6465 30.5055L18.8728 27.4688C18.4507 27.2003 17.895 27.2851 17.5722 27.6673L9.3897 37.3547C8.84061 38.0048 9.3027 39 10.1537 39H38.4082Z" fill="black"/>
<path d="M18 19C18 20.6569 16.6569 22 15 22C13.3431 22 12 20.6569 12 19C12 17.3431 13.3431 16 15 16C16.6569 16 18 17.3431 18 19Z" fill="black"/>
</g>
<path fill-rule="evenodd" clip-rule="evenodd" d="M1 12C1 10.8954 1.89543 10 3 10H41C42.1046 10 43 10.8954 43 12V41C43 42.1046 42.1046 43 41 43H3C1.89543 43 1 42.1046 1 41V12ZM3 12V41H41V12L3 12Z" fill="black"/>
<path fill-rule="evenodd" clip-rule="evenodd" d="M3 7C3 6.44772 3.44772 6 4 6H45C46.1046 6 47 6.89543 47 8V40C47 40.5523 46.5523 41 46 41C45.4477 41 45 40.5523 45 40V8H4C3.44772 8 3 7.55228 3 7Z" fill="black"/>
<path fill-rule="evenodd" clip-rule="evenodd" d="M26.5261 19.8602C27.3949 18.5917 29.3106 18.737 29.978 20.1222L37.2099 35.1319C37.8498 36.4598 36.8822 38 35.4082 38H7.15365C5.45175 38 4.52756 36.0096 5.62575 34.7095L13.8082 25.0221C14.4539 24.2576 15.5653 24.088 16.4096 24.6251L21.1833 27.6618L26.5261 19.8602ZM28.1763 20.9903L22.8334 28.7918C22.2242 29.6814 21.0195 29.928 20.1098 29.3493L15.3361 26.3126L7.15366 36L35.4082 36L28.1763 20.9903Z" fill="black"/>
<path fill-rule="evenodd" clip-rule="evenodd" d="M13 16C11.8954 16 11 16.8954 11 18C11 19.1046 11.8954 20 13 20C14.1046 20 15 19.1046 15 18C15 16.8954 14.1046 16 13 16ZM9 18C9 15.7909 10.7909 14 13 14C15.2091 14 17 15.7909 17 18C17 20.2091 15.2091 22 13 22C10.7909 22 9 20.2091 9 18Z" fill="black"/>
</svg>
