<svg width="96" height="96" viewBox="0 0 96 96" fill="none" xmlns="http://www.w3.org/2000/svg">
<g opacity="0.2">
<path d="M76.9015 77.4983C77.6401 77.4983 78.1239 76.725 77.8007 76.0608L61.2579 42.0578C60.9211 41.3655 59.9612 41.2975 59.5301 41.9354L47.1094 60.3171C46.807 60.7648 46.2037 60.8912 45.7469 60.6028L35.2233 53.9568C34.8069 53.6938 34.261 53.7731 33.9367 54.1437L14.9514 75.8397C14.3856 76.4863 14.8447 77.4982 15.7039 77.4982L76.9015 77.4983Z" fill="black"/>
<path d="M36 38C36 41.3137 33.3137 44 30 44C26.6863 44 24 41.3137 24 38C24 34.6863 26.6863 32 30 32C33.3137 32 36 34.6863 36 38Z" fill="black"/>
</g>
<path fill-rule="evenodd" clip-rule="evenodd" d="M3 23.5C3 22.1193 4.11929 21 5.5 21H82.5C83.8807 21 85 22.1193 85 23.5V82.5C85 83.8807 83.8807 85 82.5 85H5.5C4.11929 85 3 83.8807 3 82.5V23.5ZM6 24V82H82V24H6Z" fill="black"/>
<path fill-rule="evenodd" clip-rule="evenodd" d="M7 14.5C7 13.6716 7.67157 13 8.5 13H90.5C91.8807 13 93 14.1193 93 15.5V77.5C93 78.3284 92.3284 79 91.5 79C90.6716 79 90 78.3284 90 77.5V16H8.5C7.67157 16 7 15.3284 7 14.5Z" fill="black"/>
<path fill-rule="evenodd" clip-rule="evenodd" d="M54.2872 38.0957C55.3648 36.5009 57.7648 36.6709 58.6068 38.4017L75.1496 72.4063C75.9574 74.0669 74.7481 76 72.9015 76L11.635 76C9.51543 76 8.35755 73.5279 9.71448 71.8995L27.7865 50.2131C28.5894 49.2497 29.9818 49.0302 31.0421 49.6998L41.8391 56.519L54.2872 38.0957ZM56.288 40.493L44.0534 58.6002C43.2972 59.7194 41.7889 60.0355 40.647 59.3143L29.8106 52.4703L12.7026 73L72.1022 73L56.288 40.493Z" fill="black"/>
<path fill-rule="evenodd" clip-rule="evenodd" d="M26.5 32C24.0147 32 22 34.0147 22 36.5C22 38.9853 24.0147 41 26.5 41C28.9853 41 31 38.9853 31 36.5C31 34.0147 28.9853 32 26.5 32ZM19 36.5C19 32.3579 22.3579 29 26.5 29C30.6421 29 34 32.3579 34 36.5C34 40.6421 30.6421 44 26.5 44C22.3579 44 19 40.6421 19 36.5Z" fill="black"/>
</svg>
