<svg width="196" height="196" viewBox="0 0 196 196" fill="none" xmlns="http://www.w3.org/2000/svg">
<path opacity="0.07" fill-rule="evenodd" clip-rule="evenodd" d="M12.9714 115.179C27.1725 157.52 33.9153 176.481 45.3709 180.152C45.7035 180.259 46.0319 180.364 46.3563 180.468C63.297 185.905 69.5141 187.9 118.207 181.916C159.722 176.815 166.001 164.465 173.207 150.289C174.615 147.519 176.058 144.68 177.807 141.811C188.505 124.26 199.103 54.5817 167.801 23.8119C136.498 -6.95786 79.1604 11.0062 53.4958 27.0554C27.8312 43.1046 -1.22979 72.8382 12.9714 115.179ZM150 57V145H36V57H150Z" fill="black"/>
<g opacity="0.2">
<path d="M72.5 88C77.1944 88 81 84.1944 81 79.5C81 74.8056 77.1944 71 72.5 71C67.8056 71 64 74.8056 64 79.5C64 84.1944 67.8056 88 72.5 88Z" fill="black"/>
<path d="M142.295 134.56C142.62 135.224 142.137 136 141.397 136L51.2284 136C50.3653 136 49.9076 134.98 50.4813 134.335L78.6947 102.629C79.0181 102.265 79.5561 102.187 79.9693 102.444L95.9239 112.352C96.3793 112.635 96.9768 112.509 97.2783 112.065L116.079 84.423C116.51 83.7885 117.466 83.8564 117.804 84.5456L142.295 134.56Z" fill="black"/>
</g>
<path fill-rule="evenodd" clip-rule="evenodd" d="M90 18.5L81.5 10L73 18.5L81.5 27L90 18.5ZM81.5 21.3333L78.6667 18.5L81.5 15.6667L84.3333 18.5L81.5 21.3333Z" fill="black"/>
<path d="M17 112L12 107L7 112L12 117L17 112Z" fill="black"/>
<path d="M178 143C178 141.895 177.105 141 176 141C174.895 141 174 141.895 174 143V147H170C168.895 147 168 147.895 168 149C168 150.105 168.895 151 170 151H174V155C174 156.105 174.895 157 176 157C177.105 157 178 156.105 178 155V151H182C183.105 151 184 150.105 184 149C184 147.895 183.105 147 182 147H178V143Z" fill="black"/>
<path fill-rule="evenodd" clip-rule="evenodd" d="M34 58C34 56.3431 35.3431 55 37 55H149C150.657 55 152 56.3431 152 58V144C152 145.657 150.657 147 149 147H37C35.3432 147 34 145.657 34 144V58ZM38 59V143H148V59H38Z" fill="black"/>
<path fill-rule="evenodd" clip-rule="evenodd" d="M40 46C40 44.8954 40.8954 44 42 44H160C161.657 44 163 45.3431 163 47V136C163 137.105 162.105 138 161 138C159.895 138 159 137.105 159 136V48H42C40.8954 48 40 47.1046 40 46Z" fill="black"/>
<path fill-rule="evenodd" clip-rule="evenodd" d="M108.425 79.2985C109.719 77.3949 112.587 77.5987 113.6 79.6663L138.091 129.681C139.067 131.674 137.616 134 135.397 134H45.1656C42.6068 134 41.2226 131.002 42.882 129.055L69.8865 97.3564C70.847 96.2288 72.4867 95.9711 73.7469 96.7496L89.8075 106.672L108.425 79.2985ZM110.764 82.9713L92.5768 109.713C91.6738 111.04 89.8855 111.422 88.5194 110.578L72.3747 100.604L47.3312 130H133.794L110.764 82.9713Z" fill="black"/>
<path fill-rule="evenodd" clip-rule="evenodd" d="M66.5 70C62.9101 70 60 72.9101 60 76.5C60 80.0899 62.9101 83 66.5 83C70.0899 83 73 80.0899 73 76.5C73 72.9101 70.0899 70 66.5 70ZM56 76.5C56 70.701 60.701 66 66.5 66C72.299 66 77 70.701 77 76.5C77 82.299 72.299 87 66.5 87C60.701 87 56 82.299 56 76.5Z" fill="black"/>
</svg>
