<svg width="48" height="48" viewBox="0 0 48 48" fill="none" xmlns="http://www.w3.org/2000/svg">
<circle opacity="0.2" cx="34.5" cy="36.5" r="5.5" fill="black"/>
<path d="M8 3C6.89543 3 6 3.89543 6 5V38C6 39.1046 6.89543 40 8 40H24.5C25.0523 40 25.5 39.5523 25.5 39C25.5 38.4477 25.0523 38 24.5 38H8V5H34V26C34 26.5523 34.4477 27 35 27C35.5523 27 36 26.5523 36 26V5C36 3.89543 35.1046 3 34 3H8Z" fill="black"/>
<path fill-rule="evenodd" clip-rule="evenodd" d="M36.0943 39.9167C35.0648 40.6012 33.829 41 32.5 41C28.9101 41 26 38.0899 26 34.5C26 30.9101 28.9101 28 32.5 28C36.0899 28 39 30.9101 39 34.5C39 36.0371 38.4664 37.4496 37.5744 38.5624L43.6827 44.2693C44.0863 44.6463 44.1077 45.2791 43.7307 45.6827C43.3537 46.0863 42.7209 46.1077 42.3173 45.7307L36.0943 39.9167ZM37 34.5C37 32.0147 34.9853 30 32.5 30C30.0147 30 28 32.0147 28 34.5C28 36.9853 30.0147 39 32.5 39C34.9853 39 37 36.9853 37 34.5Z" fill="black"/>
<path d="M11 10C10.4477 10 10 10.4477 10 11C10 11.5523 10.4477 12 11 12H31C31.5523 12 32 11.5523 32 11C32 10.4477 31.5523 10 31 10H11Z" fill="black"/>
<path d="M10 17C10 16.4477 10.4477 16 11 16H31C31.5523 16 32 16.4477 32 17C32 17.5523 31.5523 18 31 18H11C10.4477 18 10 17.5523 10 17Z" fill="black"/>
<path d="M11 22C10.4477 22 10 22.4477 10 23C10 23.5523 10.4477 24 11 24H31C31.5523 24 32 23.5523 32 23C32 22.4477 31.5523 22 31 22H11Z" fill="black"/>
<path d="M10 29C10 28.4477 10.4477 28 11 28H22.0769C22.6292 28 23.0769 28.4477 23.0769 29C23.0769 29.5523 22.6292 30 22.0769 30H11C10.4477 30 10 29.5523 10 29Z" fill="black"/>
</svg>
