<svg width="196" height="196" viewBox="0 0 196 196" fill="none" xmlns="http://www.w3.org/2000/svg">
<path opacity="0.07" d="M34.3682 163.426C15.4459 135.741 -5.61283 89.1453 11.812 47.5984C27.1235 11.0904 120.185 -8.00297 154.459 25.6859C188.733 59.3747 196.145 113.168 187.769 141.735C179.393 170.301 163.055 195.999 108.254 185.79C53.4533 175.582 43.6643 177.027 34.3682 163.426Z" fill="black"/>
<circle opacity="0.2" cx="137" cy="146" r="19" fill="black"/>
<path d="M43 40C43 37.2386 45.2386 35 48 35H140C142.761 35 145 37.2386 145 40V113C145 114.105 144.105 115 143 115C141.895 115 141 114.105 141 113V40C141 39.4477 140.552 39 140 39H48C47.4477 39 47 39.4477 47 40V155C47 155.552 47.4477 156 48 156H106C107.105 156 108 156.895 108 158C108 159.105 107.105 160 106 160H48C45.2386 160 43 157.761 43 155V40Z" fill="black"/>
<path fill-rule="evenodd" clip-rule="evenodd" d="M131 163C136.556 163 141.608 160.842 145.364 157.319L166.59 178.418C167.373 179.197 168.64 179.193 169.418 178.41C170.197 177.627 170.193 176.36 169.41 175.582L148.014 154.312C150.521 150.853 152 146.599 152 142C152 130.402 142.598 121 131 121C119.402 121 110 130.402 110 142C110 153.598 119.402 163 131 163ZM131 159C121.611 159 114 151.389 114 142C114 132.611 121.611 125 131 125C140.389 125 148 132.611 148 142C148 151.389 140.389 159 131 159Z" fill="black"/>
<path d="M191.742 142.371L187.371 138L183 142.371L187.371 146.742L191.742 142.371Z" fill="black"/>
<path d="M174 44C175.105 44 176 44.8954 176 46V50H180C181.105 50 182 50.8954 182 52C182 53.1046 181.105 54 180 54H176V58C176 59.1046 175.105 60 174 60C172.895 60 172 59.1046 172 58V54H168C166.895 54 166 53.1046 166 52C166 50.8954 166.895 50 168 50H172V46C172 44.8954 172.895 44 174 44Z" fill="black"/>
<path d="M58.5 61C58.5 59.8954 59.3954 59 60.5 59H126C127.105 59 128 59.8954 128 61C128 62.1046 127.105 63 126 63H60.5C59.3954 63 58.5 62.1046 58.5 61Z" fill="black"/>
<path d="M60 79C58.8954 79 58 79.8954 58 81C58 82.1046 58.8954 83 60 83H126C127.105 83 128 82.1046 128 81C128 79.8954 127.105 79 126 79H60Z" fill="black"/>
<path d="M58 101C58 99.8954 58.8954 99 60 99H125.693C126.798 99 127.693 99.8954 127.693 101C127.693 102.105 126.798 103 125.693 103H60C58.8954 103 58 102.105 58 101Z" fill="black"/>
<path d="M60 120C58.8954 120 58 120.895 58 122C58 123.105 58.8954 124 60 124H97.5389C98.6434 124 99.5389 123.105 99.5389 122C99.5389 120.895 98.6434 120 97.5389 120H60Z" fill="black"/>
<path fill-rule="evenodd" clip-rule="evenodd" d="M12.5 114L21 122.5L12.5 131L4 122.5L12.5 114ZM9.66667 122.5L12.5 125.333L15.3333 122.5L12.5 119.667L9.66667 122.5Z" fill="black"/>
</svg>
