<svg width="96" height="96" viewBox="0 0 96 96" fill="none" xmlns="http://www.w3.org/2000/svg">
<circle opacity="0.2" cx="67" cy="72" r="12" fill="black"/>
<path d="M9.5 2C7.567 2 6 3.56701 6 5.5V77.5C6 79.433 7.567 81 9.5 81H47C47.8284 81 48.5 80.3284 48.5 79.5C48.5 78.6716 47.8284 78 47 78H9.5C9.22386 78 9 77.7761 9 77.5V5.5C9 5.22386 9.22386 5 9.5 5H67.547C67.8232 5 68.047 5.22386 68.047 5.5V52.0427C68.047 52.8712 68.7186 53.5427 69.547 53.5427C70.3754 53.5427 71.047 52.8712 71.047 52.0427V5.5C71.047 3.567 69.48 2 67.547 2H9.5Z" fill="black"/>
<path fill-rule="evenodd" clip-rule="evenodd" d="M71.5145 79.8239C69.2336 81.8025 66.2566 83 63 83C55.8203 83 50 77.1797 50 70C50 62.8203 55.8203 57 63 57C70.1797 57 76 62.8203 76 70C76 72.8413 75.0885 75.4697 73.542 77.6087L87.0607 91.1274C87.6464 91.7132 87.6464 92.6629 87.0607 93.2487C86.4749 93.8345 85.5251 93.8345 84.9393 93.2487L71.5145 79.8239ZM73 70C73 64.4772 68.5229 60 63 60C57.4772 60 53 64.4772 53 70C53 75.5229 57.4772 80 63 80C68.5229 80 73 75.5229 73 70Z" fill="black"/>
<path d="M16 17C15.1716 17 14.5 17.6716 14.5 18.5C14.5 19.3284 15.1716 20 16 20H59C59.8284 20 60.5 19.3284 60.5 18.5C60.5 17.6716 59.8284 17 59 17H16Z" fill="black"/>
<path d="M14.5 31.5C14.5 30.6716 15.1716 30 16 30H59C59.8284 30 60.5 30.6716 60.5 31.5C60.5 32.3284 59.8284 33 59 33H16C15.1716 33 14.5 32.3284 14.5 31.5Z" fill="black"/>
<path d="M16 42C15.1716 42 14.5 42.6716 14.5 43.5C14.5 44.3284 15.1716 45 16 45H59C59.8284 45 60.5 44.3284 60.5 43.5C60.5 42.6716 59.8284 42 59 42H16Z" fill="black"/>
<path d="M14.5 55.5C14.5 54.6716 15.1716 54 16 54H42C42.8284 54 43.5 54.6716 43.5 55.5C43.5 56.3284 42.8284 57 42 57H16C15.1716 57 14.5 56.3284 14.5 55.5Z" fill="black"/>
</svg>
