<svg width="96" height="96" viewBox="0 0 96 96" fill="none" xmlns="http://www.w3.org/2000/svg">
<path opacity="0.2" d="M87.0081 27H10.9919C9.89179 27 9 27.9141 9 29.0417V41.9583C9 43.0859 9.89179 44 10.9919 44H87.0081C88.1082 44 89 43.0859 89 41.9583V29.0417C89 27.9141 88.1082 27 87.0081 27Z" fill="black"/>
<path d="M76 34C77.1046 34 78 33.1046 78 32C78 30.8954 77.1046 30 76 30C74.8954 30 74 30.8954 74 32C74 33.1046 74.8954 34 76 34Z" fill="black"/>
<path d="M76 58C77.1046 58 78 57.1046 78 56C78 54.8954 77.1046 54 76 54C74.8954 54 74 54.8954 74 56C74 57.1046 74.8954 58 76 58Z" fill="black"/>
<path d="M76 81C77.1046 81 78 80.1046 78 79C78 77.8954 77.1046 77 76 77C74.8954 77 74 77.8954 74 79C74 80.1046 74.8954 81 76 81Z" fill="black"/>
<path fill-rule="evenodd" clip-rule="evenodd" d="M17.6053 8C15.6141 8 14 9.61413 14 11.6053V22H4.5C3.67157 22 3 22.6716 3 23.5V39.5C3 40.3284 3.67157 41 4.5 41H14V46.5C14 46.6753 14.0301 46.8436 14.0854 47H4.5C3.67157 47 3 47.6716 3 48.5V64.5C3 65.3284 3.67157 66 4.5 66H14V70H4.5C3.67157 70 3 70.6716 3 71.5V87.5C3 88.3284 3.67157 89 4.5 89H84.5C85.3284 89 86 88.3284 86 87.5V82H90.3947C92.3859 82 94 80.3859 94 78.3947V11.6053C94 9.61413 92.3859 8 90.3947 8H17.6053ZM86 79V71.5C86 70.6716 85.3284 70 84.5 70H17V66H84.5C85.3284 66 86 65.3284 86 64.5V48.5C86 47.6716 85.3284 47 84.5 47H16.9146C16.9699 46.8436 17 46.6753 17 46.5V41H84.5C85.3284 41 86 40.3284 86 39.5V23.5C86 22.6716 85.3284 22 84.5 22H17V18.9146C17.1564 18.9699 17.3247 19 17.5 19H91V78.3947C91 78.729 90.729 79 90.3947 79H86ZM17.5 16C17.3247 16 17.1564 16.0301 17 16.0854V11.6053C17 11.271 17.271 11 17.6053 11H35V16H17.5ZM91 16H38V11H90.3947C90.729 11 91 11.271 91 11.6053V16ZM6 38V25H83V38H6ZM6 50H83V63H6V50ZM6 86V73H83V86H6Z" fill="black"/>
</svg>
