<svg width="48" height="48" viewBox="0 0 48 48" fill="none" xmlns="http://www.w3.org/2000/svg">
<path opacity="0.2" d="M4 15.7619C4 15.3048 4.3578 15 4.7156 15H42.2844C42.6422 15 43 15.3048 43 15.7619V22.2381C43 22.6952 42.6422 23 42.2844 23H4.7156C4.3578 23 4 22.6952 4 22.2381V15.7619Z" fill="black"/>
<path d="M37 18C37.5523 18 38 17.5523 38 17C38 16.4477 37.5523 16 37 16C36.4477 16 36 16.4477 36 17C36 17.5523 36.4477 18 37 18Z" fill="black"/>
<path d="M37 30C37.5523 30 38 29.5523 38 29C38 28.4477 37.5523 28 37 28C36.4477 28 36 28.4477 36 29C36 29.5523 36.4477 30 37 30Z" fill="black"/>
<path d="M37 41C37.5523 41 38 40.5523 38 40C38 39.4477 37.5523 39 37 39C36.4477 39 36 39.4477 36 40C36 40.5523 36.4477 41 37 41Z" fill="black"/>
<path fill-rule="evenodd" clip-rule="evenodd" d="M7 7C7 5.89543 7.89543 5 9 5H44C45.1046 5 46 5.89543 46 7V40C46 41.1046 45.1046 42 44 42H42V44C42 44.5523 41.5523 45 41 45H2C1.44772 45 1 44.5523 1 44V36C1 35.4477 1.44772 35 2 35H7V34H2C1.44772 34 1 33.5523 1 33V25C1 24.4477 1.44772 24 2 24H7V22H2C1.44772 22 1 21.5523 1 21V13C1 12.4477 1.44772 12 2 12H7V7ZM44 40V11H9V12H41C41.5523 12 42 12.4477 42 13V21C42 21.5523 41.5523 22 41 22H9V24H41C41.5523 24 42 24.4477 42 25V33C42 33.5523 41.5523 34 41 34H9V35H41C41.5523 35 42 35.4477 42 36V40H44ZM9 9H17V7L9 7V9ZM19 9H44V7H19V9ZM3 14V20H40V14H3ZM3 26V32H40V26H3ZM3 37V43H40V37H3Z" fill="black"/>
</svg>
