<svg width="196" height="196" viewBox="0 0 196 196" fill="none" xmlns="http://www.w3.org/2000/svg">
<path opacity="0.07" fill-rule="evenodd" clip-rule="evenodd" d="M169.499 160.59C192.856 128.889 184.565 84.9744 174.194 57.5621C169.099 44.095 148.04 16.2359 104.587 14.2002C61.1342 12.1645 45.5208 26.3695 32.5233 48.9085C19.5258 71.4476 6.01689 116.837 28.1912 152.511C50.3655 188.185 148.975 188.446 169.499 160.59ZM36 66H139V87H36V66ZM36 98H139V119H36V98ZM139 127V148H36V127H139Z" fill="black"/>
<path opacity="0.2" d="M143 70H44C42.8954 70 42 70.8954 42 72V91C42 92.1046 42.8954 93 44 93H143C144.105 93 145 92.1046 145 91V72C145 70.8954 144.105 70 143 70Z" fill="black"/>
<path fill-rule="evenodd" clip-rule="evenodd" d="M164.706 29.3623L156.206 20.8623L147.706 29.3623L156.206 37.8623L164.706 29.3623ZM156.206 32.1956L153.373 29.3623L156.206 26.529L159.039 29.3623L156.206 32.1956Z" fill="black"/>
<path d="M20 140C21.1046 140 22 140.895 22 142V146H26C27.1046 146 28 146.895 28 148C28 149.105 27.1046 150 26 150H22V154C22 155.105 21.1046 156 20 156C18.8954 156 18 155.105 18 154V150H14C12.8954 150 12 149.105 12 148C12 146.895 12.8954 146 14 146H18V142C18 140.895 18.8954 140 20 140Z" fill="black"/>
<path d="M39.7061 161.862L43.7061 165.862L39.7061 169.862L35.7061 165.862L39.7061 161.862Z" fill="black"/>
<path d="M129 141C130.657 141 132 139.657 132 138C132 136.343 130.657 135 129 135C127.343 135 126 136.343 126 138C126 139.657 127.343 141 129 141Z" fill="black"/>
<path d="M129 80C130.657 80 132 78.6569 132 77C132 75.3431 130.657 74 129 74C127.343 74 126 75.3431 126 77C126 78.6569 127.343 80 129 80Z" fill="black"/>
<path d="M129 111C130.657 111 132 109.657 132 108C132 106.343 130.657 105 129 105C127.343 105 126 106.343 126 108C126 109.657 127.343 111 129 111Z" fill="black"/>
<path fill-rule="evenodd" clip-rule="evenodd" d="M48 50.1053C48 47.838 49.838 46 52.1053 46H146.895C149.162 46 151 47.838 151 50.1053V136.895C151 139.162 149.162 141 146.895 141H141V148C141 149.105 140.105 150 139 150H36C34.8954 150 34 149.105 34 148V127C34 125.895 34.8954 125 36 125H48V121H36C34.8954 121 34 120.105 34 119V98C34 96.8954 34.8954 96 36 96H48.0846C48.0296 95.8172 48 95.6233 48 95.4225V89H36C34.8954 89 34 88.1046 34 87V66C34 64.8954 34.8954 64 36 64H48V50.1053ZM137 129H38V146H137C137 140.3 137 134.764 137 129ZM146.895 137C146.953 137 147 136.953 147 136.895V60C125.618 60 52 60 52 60V64H139C140.105 64 141 64.8954 141 66V87C141 88.1046 140.105 89 139 89H52V95.4225C52 95.6233 51.9704 95.8172 51.9154 96H139C140.105 96 141 96.8954 141 98V119C141 120.105 140.105 121 139 121H52V125H139C140.105 125 141 125.895 141 127V137H146.895ZM79 56H147V50C147 50 85.1403 50 79 50V56ZM75 50C73.0165 50 52 50 52 50C52 52.0598 52 56 52 56H75V50ZM38 85H137V68H38V85ZM38 100V117H137V100H38Z" fill="black"/>
</svg>
