<svg width="196" height="196" viewBox="0 0 196 196" fill="none" xmlns="http://www.w3.org/2000/svg">
<path opacity="0.07" fill-rule="evenodd" clip-rule="evenodd" d="M11.812 47.5981C-5.61283 89.1451 15.4459 135.74 34.3682 163.425C41.7457 174.219 49.4337 175.537 79.6845 180.724C87.5514 182.073 96.9442 183.683 108.254 185.79C163.055 195.998 179.393 170.301 187.769 141.735C196.145 113.168 188.733 59.3744 154.459 25.6856C120.185 -8.00327 27.1235 11.0901 11.812 47.5981ZM85.2549 141.51C53.6339 141.51 28 115.876 28 84.2546C28 52.6336 53.6339 26.9997 85.2549 26.9997C116.876 26.9997 142.51 52.6336 142.51 84.2546C142.51 115.876 116.876 141.51 85.2549 141.51Z" fill="black"/>
<path opacity="0.2" fill-rule="evenodd" clip-rule="evenodd" d="M90.9805 148.381C122.602 148.381 148.235 122.747 148.235 91.126C148.235 59.505 122.602 33.8711 90.9805 33.8711C59.3595 33.8711 33.7256 59.505 33.7256 91.126C33.7256 122.747 59.3595 148.381 90.9805 148.381ZM66 75H115C117.209 75 119 76.7909 119 79V108C119 111.314 116.314 114 113 114H66C63.7909 114 62 112.209 62 110V79C62 76.7909 63.7909 75 66 75Z" fill="black"/>
<path d="M107.88 44.763C106.921 44.2139 105.699 44.5458 105.15 45.5042C104.601 46.4626 104.933 47.6847 105.891 48.2338C111.027 51.176 115.474 55.1824 118.935 59.9843C122.395 64.7861 124.789 70.2724 125.955 76.0752C126.172 77.1581 127.227 77.8596 128.31 77.6419C129.393 77.4243 130.094 76.37 129.876 75.2871C128.598 68.9252 125.974 62.9102 122.18 57.6457C118.386 52.3811 113.51 47.9887 107.88 44.763Z" fill="black"/>
<path d="M83.473 40.7322C83.4785 39.6276 84.3784 38.7367 85.483 38.7422C88.3508 38.7566 91.2108 39.042 94.0249 39.5946C95.1088 39.8074 95.8149 40.8586 95.6021 41.9425C95.3892 43.0263 94.338 43.7324 93.2542 43.5196C90.6874 43.0156 88.0787 42.7553 85.4629 42.7422C84.3584 42.7366 83.4675 41.8367 83.473 40.7322Z" fill="black"/>
<path fill-rule="evenodd" clip-rule="evenodd" d="M69 61.9512C69 59.769 70.769 58 72.9512 58H98.0488C100.231 58 102 59.769 102 61.9512V67H111.049C113.231 67 115 68.769 115 70.9512V106.049C115 108.231 113.231 110 111.049 110H57.9512C55.769 110 54 108.231 54 106.049V70.9512C54 68.769 55.769 67 57.9512 67H69V61.9512ZM58 71V106H69V71H58ZM98 106V71H73V106H98ZM102 106H111V71H102V106ZM98 67V62H73V67H98Z" fill="black"/>
<path fill-rule="evenodd" clip-rule="evenodd" d="M132.225 120.384C139.929 110.384 144.51 97.8542 144.51 84.2549C144.51 51.5293 117.981 25 85.2549 25C52.5293 25 26 51.5293 26 84.2549C26 116.981 52.5293 143.51 85.2549 143.51C98.8541 143.51 111.383 138.929 121.383 131.225C121.561 133.546 122.537 135.816 124.311 137.591L155.372 168.652C159.315 172.595 165.708 172.595 169.651 168.652C173.595 164.709 173.595 158.316 169.651 154.372L138.591 123.312C136.816 121.537 134.545 120.561 132.225 120.384ZM85.2549 29C115.771 29 140.51 53.7385 140.51 84.2549C140.51 99.2975 134.499 112.936 124.748 122.9C124.599 123.032 124.454 123.169 124.311 123.312C124.169 123.454 124.032 123.599 123.9 123.748C113.936 133.499 100.297 139.51 85.2549 139.51C54.7385 139.51 30 114.771 30 84.2549C30 53.7385 54.7385 29 85.2549 29ZM126.812 126.494C127.041 126.269 127.268 126.041 127.494 125.812C129.889 123.764 133.496 123.874 135.762 126.14L166.823 157.201C169.204 159.582 169.204 163.442 166.823 165.823C164.442 168.204 160.582 168.204 158.201 165.823L127.14 134.762C124.873 132.496 124.764 128.89 126.812 126.494Z" fill="black"/>
<path d="M176 46C176 44.8954 175.105 44 174 44C172.895 44 172 44.8954 172 46V50H168C166.895 50 166 50.8954 166 52C166 53.1046 166.895 54 168 54H172V58C172 59.1046 172.895 60 174 60C175.105 60 176 59.1046 176 58V54H180C181.105 54 182 53.1046 182 52C182 50.8954 181.105 50 180 50H176V46Z" fill="black"/>
<path d="M191.742 142.371L187.371 138L183 142.371L187.371 146.742L191.742 142.371Z" fill="black"/>
<path fill-rule="evenodd" clip-rule="evenodd" d="M12.5 114L21 122.5L12.5 131L4 122.5L12.5 114ZM9.66667 122.5L12.5 125.333L15.3333 122.5L12.5 119.667L9.66667 122.5Z" fill="black"/>
</svg>
