<svg width="48" height="48" viewBox="0 0 48 48" fill="none" xmlns="http://www.w3.org/2000/svg">
<path opacity="0.2" fill-rule="evenodd" clip-rule="evenodd" d="M38 21.5C38 30.6127 30.6127 38 21.5 38C12.3873 38 5 30.6127 5 21.5C5 12.3873 12.3873 5 21.5 5C30.6127 5 38 12.3873 38 21.5ZM15 18C13.8954 18 13 18.8954 13 20V28C13 29.1046 13.8954 30 15 30H27C28.6569 30 30 28.6569 30 27V20C30 18.8954 29.1046 18 28 18H15Z" fill="black"/>
<path d="M24.846 8.1564C25.1205 7.67718 25.7315 7.51126 26.2108 7.78579C27.8809 8.74258 29.3271 10.0454 30.4524 11.607C31.5777 13.1685 32.3561 14.9526 32.7353 16.8397C32.8442 17.3811 32.4934 17.9083 31.952 18.0171C31.4105 18.1259 30.8834 17.7752 30.7745 17.2337C30.4515 15.6263 29.7884 14.1065 28.8298 12.7763C27.8712 11.4461 26.6393 10.3362 25.2166 9.52119C24.7374 9.24665 24.5714 8.63561 24.846 8.1564Z" fill="black"/>
<path d="M19.5676 6.00001C19.0154 5.99725 18.5654 6.44271 18.5626 6.99499C18.5599 7.54727 19.0053 7.99722 19.5576 7.99999C20.2822 8.00362 21.0049 8.07573 21.7159 8.21535C22.2578 8.32177 22.7834 7.96872 22.8899 7.42678C22.9963 6.88485 22.6432 6.35925 22.1013 6.25283C21.2666 6.08892 20.4183 6.00427 19.5676 6.00001Z" fill="black"/>
<path fill-rule="evenodd" clip-rule="evenodd" d="M14 14C14 12.8954 14.8954 12 16 12H22C23.1046 12 24 12.8954 24 14V15H26C27.1046 15 28 15.8954 28 17V26C28 27.1046 27.1046 28 26 28H12C10.8954 28 10 27.1046 10 26V17C10 15.8954 10.8954 15 12 15H14V14ZM22 14H16V15H22V14ZM14 17H12V26H14V17ZM16 26H22V17H16V26ZM26 26V17H24V26H26Z" fill="black"/>
<path fill-rule="evenodd" clip-rule="evenodd" d="M2 19.5C2 9.83502 9.83502 2 19.5 2C29.165 2 37 9.83502 37 19.5C37 23.2244 35.8365 26.6771 33.8532 29.5144C34.6403 29.5857 35.4079 29.9226 36.0104 30.5251L44.4957 39.0104C45.8626 40.3772 45.8626 42.5933 44.4957 43.9602C43.1289 45.327 40.9128 45.327 39.546 43.9602L31.0607 35.4749C30.4926 34.9068 30.1606 34.192 30.0648 33.4524C27.1289 35.6789 23.4687 37 19.5 37C9.83502 37 2 29.165 2 19.5ZM19.5 4C10.9396 4 4 10.9396 4 19.5C4 28.0604 10.9396 35 19.5 35C28.0604 35 35 28.0604 35 19.5C35 10.9396 28.0604 4 19.5 4ZM32.4749 31.9393C31.8891 32.5251 31.8891 33.4749 32.4749 34.0607L40.9602 42.5459C41.546 43.1317 42.4957 43.1317 43.0815 42.5459C43.6673 41.9602 43.6673 41.0104 43.0815 40.4246L34.5962 31.9393C34.0104 31.3536 33.0607 31.3536 32.4749 31.9393Z" fill="black"/>
</svg>
