<svg width="96" height="96" viewBox="0 0 96 96" fill="none" xmlns="http://www.w3.org/2000/svg">
<path opacity="0.2" fill-rule="evenodd" clip-rule="evenodd" d="M42 76C59.1208 76 73 62.1208 73 45C73 27.8792 59.1208 14 42 14C24.8792 14 11 27.8792 11 45C11 62.1208 24.8792 76 42 76ZM30 37H56C57.6569 37 59 38.3431 59 40V54C59 56.7614 56.7614 59 54 59H30C28.3431 59 27 57.6569 27 56V40C27 38.3431 28.3431 37 30 37Z" fill="black"/>
<path d="M50.9274 18.8071C50.2085 18.3953 49.292 18.6442 48.8802 19.363C48.4684 20.0818 48.7172 20.9984 49.4361 21.4102C52.1577 22.9694 54.5145 25.0926 56.3483 27.6373C58.1822 30.182 59.4506 33.0895 60.0687 36.1646C60.2319 36.9768 61.0227 37.5029 61.8349 37.3397C62.647 37.1764 63.1731 36.3857 63.0099 35.5735C62.3076 32.079 60.8661 28.7751 58.7822 25.8834C56.6983 22.9916 54.0201 20.5789 50.9274 18.8071Z" fill="black"/>
<path d="M37.5986 17.428C37.6028 16.5996 38.2777 15.9314 39.1061 15.9356C40.6842 15.9435 42.258 16.1005 43.8065 16.4046C44.6194 16.5642 45.149 17.3526 44.9894 18.1655C44.8298 18.9784 44.0414 19.508 43.2285 19.3484C41.8654 19.0807 40.4801 18.9425 39.0911 18.9355C38.2627 18.9314 37.5945 18.2564 37.5986 17.428Z" fill="black"/>
<path fill-rule="evenodd" clip-rule="evenodd" d="M30 30.4512C30 28.5452 31.5452 27 33.4512 27H44.5488C46.4548 27 48 28.5452 48 30.4512V32H52.5488C54.4548 32 56 33.5452 56 35.4512V52.5488C56 54.4548 54.4548 56 52.5488 56H25.4512C23.5452 56 22 54.4548 22 52.5488V35.4512C22 33.5452 23.5452 32 25.4512 32H30V30.4512ZM48 53H52.5488C52.798 53 53 52.798 53 52.5488V35.4512C53 35.202 52.798 35 52.5488 35H48V53ZM45 35H33V53H45V35ZM25.4512 35C25.202 35 25 35.202 25 35.4512V52.5488C25 52.798 25.202 53 25.4512 53H30V35H25.4512ZM33 32H45V30.4512C45 30.202 44.798 30 44.5488 30H33.4512C33.202 30 33 30.202 33 30.4512V32Z" fill="black"/>
<path fill-rule="evenodd" clip-rule="evenodd" d="M39 8.5C21.0507 8.5 6.5 23.0507 6.5 41C6.5 58.9493 21.0507 73.5 39 73.5C46.2957 73.5 53.0299 71.0961 58.4538 67.037C58.6587 68.2111 59.2146 69.3359 60.1213 70.2426L77.0919 87.2132C79.435 89.5564 83.234 89.5564 85.5772 87.2132C87.9203 84.8701 87.9203 81.0711 85.5772 78.7279L68.6066 61.7574C67.678 60.8287 66.5206 60.2681 65.3159 60.0756C69.2059 54.7183 71.5 48.127 71.5 41C71.5 23.0507 56.9493 8.5 39 8.5ZM9.5 41C9.5 24.7076 22.7076 11.5 39 11.5C55.2924 11.5 68.5 24.7076 68.5 41C68.5 57.2924 55.2924 70.5 39 70.5C22.7076 70.5 9.5 57.2924 9.5 41ZM62.2427 68.1213C61.0711 66.9497 61.0711 65.0503 62.2427 63.8787C63.4142 62.7071 65.3137 62.7071 66.4853 63.8787L83.4559 80.8492C84.6274 82.0208 84.6274 83.9203 83.4559 85.0919C82.2843 86.2635 80.3848 86.2635 79.2132 85.0919L62.2427 68.1213Z" fill="black"/>
</svg>
