<svg width="48" height="48" viewBox="0 0 48 48" fill="none" xmlns="http://www.w3.org/2000/svg">
<path opacity="0.2" d="M43.0453 15.1791L20.7649 24.5317C18.365 21.2038 13.8545 19.8618 9.89359 21.5245C5.29999 23.4528 3.14538 28.7249 5.07365 33.3185C7.01346 37.9396 12.2856 40.0942 16.8792 38.166C20.8952 36.4802 23.0502 32.2108 22.2385 28.1191L34.524 22.8973L36.025 26.4732C36.2213 26.9408 36.729 27.1483 37.1966 26.952L38.847 26.2592C39.3146 26.0629 39.5221 25.5552 39.3258 25.0876L37.8248 21.5117L39.7502 20.7035L41.8286 25.6546C42.0249 26.1223 42.5326 26.3297 43.0002 26.1335L44.6506 25.4407C45.1182 25.2444 45.3257 24.7367 45.1294 24.2691L43.0741 19.3729L44.5188 18.7665C44.9864 18.5702 45.1939 18.0625 44.9976 17.5949L44.1894 15.6694C44.0206 15.1902 43.4854 14.9943 43.0453 15.1791ZM15.3605 34.8564C12.6374 35.9995 9.51313 34.7227 8.37002 31.9995C7.22692 29.2764 8.50373 26.1521 11.2269 25.009C13.95 23.8659 17.0743 25.1427 18.2174 27.8659C19.3605 30.589 18.0837 33.7133 15.3605 34.8564Z" fill="black"/>
<path fill-rule="evenodd" clip-rule="evenodd" d="M6.81969 30.5362C7.9954 33.337 11.219 34.6544 14.0198 33.4787C16.8206 32.303 18.138 29.0794 16.9623 26.2786C15.7866 23.4778 12.563 22.1603 9.76221 23.336C6.9614 24.5117 5.64399 27.7353 6.81969 30.5362ZM10.5363 25.1802C12.3187 24.432 14.37 25.2703 15.1182 27.0527C15.8664 28.835 15.028 30.8864 13.2457 31.6346C11.4634 32.3827 9.41198 31.5444 8.66381 29.762C7.91563 27.9797 8.75398 25.9283 10.5363 25.1802Z" fill="black"/>
<path fill-rule="evenodd" clip-rule="evenodd" d="M19.2778 21.7988C16.467 18.8896 11.9942 17.8805 8.02284 19.5476C2.88058 21.7061 0.418947 27.5815 2.56144 32.6854C4.70393 37.7893 10.6217 40.1473 15.7639 37.9887C20.0871 36.1739 22.3619 31.6321 21.7976 27.2807L31.4624 23.3026L32.6262 26.0751C33.0537 27.0936 34.2259 27.5727 35.2444 27.1451L37.0885 26.371C38.107 25.9435 38.586 24.7713 38.1585 23.7528L36.9549 20.8856L37.5943 20.6172L39.0132 23.9974C39.4407 25.0158 40.613 25.4949 41.6314 25.0674L43.4756 24.2933C44.494 23.8657 44.9731 22.6935 44.5456 21.675L43.0804 18.1847C43.9795 17.4355 44.3268 16.1605 43.8502 15.0251L43.6611 14.5747C43.0676 13.1608 41.4402 12.4957 40.0262 13.0892L19.2778 21.7988ZM18.1561 23.5367C18.4126 23.9411 18.9307 24.1136 19.387 23.922L40.8003 14.9333C41.1958 14.7673 41.651 14.9533 41.817 15.3488L42.0061 15.7992C42.1599 16.1656 41.9944 16.5861 41.6363 16.751C41.5637 16.7637 41.4914 16.7846 41.4206 16.8144C40.9114 17.0281 40.6719 17.6142 40.8856 18.1235L42.7014 22.4491L40.8573 23.2233L39.084 18.9987C38.9852 18.7633 38.8068 18.5855 38.5932 18.4835C38.3277 18.3197 37.9898 18.2822 37.6802 18.4121L35.268 19.4247C34.7701 19.6337 34.53 20.1987 34.7193 20.6997C34.7314 20.7464 34.7469 20.7929 34.7662 20.8387L36.3144 24.5269L34.4703 25.301L32.9221 21.6128C32.7083 21.1036 32.1222 20.864 31.613 21.0778L31.6064 21.0806L20.3069 25.7315C19.845 25.9216 19.6016 26.4177 19.7147 26.8885C19.7171 26.9356 19.7228 26.9831 19.7321 27.0307C20.4484 30.7118 18.5806 34.6373 14.9898 36.1446C10.8428 37.8854 6.11081 35.9737 4.40555 31.9113C2.70029 27.849 4.64991 23.1325 8.79695 21.3917C12.1604 19.9798 15.9487 20.9551 18.1561 23.5367Z" fill="black"/>
</svg>
