<svg width="96" height="96" viewBox="0 0 96 96" fill="none" xmlns="http://www.w3.org/2000/svg">
<path opacity="0.2" d="M85.9117 23.3451L41.1529 47.6284C35.4226 41.1532 25.6833 39.2849 17.7261 43.602C8.49808 48.6085 5.08549 60.1155 10.0921 69.3436C15.1286 78.6269 26.6356 82.0395 35.8637 77.0329C43.9313 72.6559 47.5549 63.2516 44.9949 54.8419L71.514 40.3113L75.4113 47.4948C75.921 48.4342 77.029 48.7628 77.9684 48.2531L81.2839 46.4544C82.2233 45.9447 82.5519 44.8367 82.0422 43.8973L78.1449 36.7138L82.013 34.6152L87.4092 44.5616C87.9189 45.501 89.027 45.8296 89.9664 45.32L93.2818 43.5212C94.2212 43.0115 94.5498 41.9035 94.0402 40.9641L88.7038 31.1282L89.7537 30.5586C90.6931 30.0489 91.0218 28.9408 90.5121 28.0015L88.4135 24.1334C87.9592 23.1641 86.7958 22.8654 85.9117 23.3451ZM31.9851 70.4114C26.5146 73.3793 19.6957 71.3571 16.7277 65.8866C13.7597 60.416 15.782 53.5971 21.2525 50.6291C26.723 47.6611 33.542 49.6834 36.51 55.1539C39.4779 60.6245 37.4557 67.4434 31.9851 70.4114Z" fill="black"/>
<path fill-rule="evenodd" clip-rule="evenodd" d="M12.1656 65.8236C8.74177 59.5128 11.0821 51.6214 17.3928 48.1976C23.7036 44.7738 31.595 47.1141 35.0188 53.4249C38.4427 59.7356 36.1023 67.627 29.7916 71.0509C23.4808 74.4747 15.5894 72.1343 12.1656 65.8236ZM18.8235 50.8345C13.969 53.4682 12.1688 59.5386 14.8025 64.393C17.4362 69.2474 23.5065 71.0476 28.361 68.4139C33.2154 65.7802 35.0156 59.7099 32.3819 54.8555C29.7482 50.0011 23.6779 48.2008 18.8235 50.8345Z" fill="black"/>
<path fill-rule="evenodd" clip-rule="evenodd" d="M38.6986 44.9141C32.4063 38.6539 22.3958 37.058 14.1578 41.5274C4.12368 46.9712 0.336131 59.4516 5.74215 69.4159C11.1482 79.3802 23.6755 83.0091 33.7096 77.5652C42.1304 72.9966 46.1488 63.4783 44.0329 54.6445L67.9694 41.6079L71.6039 48.0139C72.485 49.5668 74.4471 50.1284 76.0164 49.277L79.9532 47.1412C81.5446 46.2778 82.1341 44.2873 81.2696 42.6965L77.8303 36.3679L78.4035 36.046L83.0337 44.5803C83.8967 46.1709 85.8857 46.7608 87.4763 45.8978L91.3848 43.7773C92.9755 42.9144 93.5653 40.9253 92.7024 39.3347L88.0422 30.7451C89.3021 29.7808 89.7062 28.0184 88.9273 26.5827L86.7512 22.5717C85.8882 20.981 83.8991 20.3912 82.3085 21.2541L38.6986 44.9141ZM39.138 48.086C39.164 48.0738 39.1898 48.0607 39.2153 48.0469L83.7391 23.891C83.8735 23.8182 84.0414 23.868 84.1143 24.0023L86.2904 28.0134C86.3627 28.1467 86.3142 28.3134 86.1817 28.3871L85.3623 28.8427C85.3469 28.8503 85.3317 28.8583 85.3165 28.8665C84.9425 29.0694 84.6894 29.4083 84.5851 29.7886C84.4843 30.1543 84.5214 30.5582 84.7203 30.9159C84.7285 30.9307 84.7369 30.9453 84.7456 30.9598L90.0655 40.7653C90.1383 40.8996 90.0885 41.0676 89.9542 41.1404L86.0457 43.2609C85.9114 43.3338 85.7435 43.284 85.6706 43.1497L80.3185 33.2847C80.053 32.7954 79.5547 32.5129 79.0354 32.5002C78.7699 32.4909 78.4985 32.552 78.2499 32.6916L75.078 34.4729C74.3557 34.8785 74.099 35.7929 74.5046 36.5152L74.5198 36.5416C74.5399 36.5901 74.5627 36.6381 74.5884 36.6853L78.6337 44.129C78.7067 44.2633 78.6569 44.4314 78.5225 44.5043L74.5858 46.6401C74.4533 46.712 74.2876 46.6646 74.2132 46.5335L69.8828 38.901L69.868 38.8756L69.8639 38.868C69.4677 38.1405 68.5567 37.8719 67.8292 38.2682L41.5876 52.5602C41.1409 52.8035 40.8672 53.2408 40.8142 53.7106C40.7774 53.9304 40.7892 54.1618 40.8578 54.3897C43.2014 62.1728 39.8004 70.8477 32.279 74.9283C23.6756 79.596 12.9811 76.4678 8.37906 67.9853C3.77699 59.5028 6.98499 48.832 15.5884 44.1643C22.9785 40.1549 31.9977 41.8508 37.2803 47.7778C37.7588 48.3147 38.5366 48.4265 39.138 48.086Z" fill="black"/>
</svg>
