<svg width="196" height="196" viewBox="0 0 196 196" fill="none" xmlns="http://www.w3.org/2000/svg">
<path opacity="0.07" fill-rule="evenodd" clip-rule="evenodd" d="M48.891 184.837C90.6499 201.748 136.982 180.115 164.431 160.853C175.133 153.342 176.356 145.639 181.169 115.326C182.421 107.443 183.915 98.0314 185.882 86.6962C195.413 31.7734 169.516 15.7537 140.848 7.73102C112.181 -0.29165 58.4823 7.78387 25.2192 42.4714C-8.04398 77.159 12.1967 169.977 48.891 184.837ZM46.7416 86.5917C59.9641 80.5546 75.2962 84.1677 84.5214 94.5632L156.853 61.5387C159.365 60.3918 162.331 61.4984 163.478 64.0104L166.459 70.5396C167.556 72.944 166.593 75.7873 164.26 77.0296L163.611 77.3754L170.182 91.5392C171.349 94.055 170.246 97.04 167.723 98.1918L162.282 100.676C159.77 101.823 156.804 100.716 155.657 98.2045L149.029 83.6892L146.519 84.9009L151.135 95.0109C152.282 97.5228 151.175 100.489 148.663 101.636L143.205 104.128C140.693 105.275 137.727 104.168 136.58 101.656L132.01 91.6471L91.7418 109.958C94.3878 124.214 87.5416 139.418 73.7382 145.72C57.4949 153.136 38.2983 145.893 30.8483 129.575C23.3983 113.258 30.4984 94.0079 46.7416 86.5917Z" fill="black"/>
<g opacity="0.2">
<path d="M157.225 41.0369C158.825 41.4046 159.843 43.0293 159.5 44.6657L158.446 49.6933C158.103 51.3297 156.528 52.3582 154.928 51.9905C153.329 51.6228 152.31 49.9981 152.653 48.3617L153.707 43.3341C154.05 41.6977 155.625 40.6692 157.225 41.0369Z" fill="black"/>
<path d="M174.241 47.795C175.217 46.4478 174.94 44.5522 173.621 43.561C172.301 42.5697 170.441 42.8582 169.464 44.2053L163.948 51.8171C162.972 53.1643 163.25 55.0599 164.569 56.0511C165.888 57.0424 167.748 56.7539 168.725 55.4068L174.241 47.795Z" fill="black"/>
<path d="M172.597 59.3705C170.97 59.6106 169.831 61.1459 170.053 62.7997C170.276 64.4535 171.775 65.5995 173.403 65.3595L178.11 64.665C179.738 64.4249 180.877 62.8897 180.654 61.2359C180.432 59.5821 178.932 58.436 177.305 58.6761L172.597 59.3705Z" fill="black"/>
<path fill-rule="evenodd" clip-rule="evenodd" d="M88.9831 98.7231L162.254 65.2695C163.701 64.6087 165.512 65.2229 166.133 66.8234L169.065 73.2437C169.777 74.8029 169.145 76.5322 167.607 77.2343L165.889 78.019L173.343 94.3449C174.055 95.9042 173.423 97.6334 171.885 98.3355L166.458 100.814C164.92 101.516 163.2 100.86 162.488 99.301L154.95 82.7916L148.618 85.6827L154.062 97.6061C154.774 99.1653 154.142 100.895 152.604 101.597L147.177 104.075C145.639 104.777 143.919 104.121 143.207 102.562L137.763 90.6388L94.3366 110.688C97.5408 124.41 90.8601 138.987 77.6533 145.017C62.5468 151.914 44.6817 145.108 37.6465 129.699C30.6531 114.382 37.2116 96.4244 52.3181 89.5272C65.344 83.5799 80.5675 87.7131 88.9831 98.7231ZM48.4947 124.968C52.6405 134.048 63.2272 138.081 72.1825 133.993C81.1379 129.904 85.0244 119.262 80.8786 110.182C76.7328 101.102 66.1461 97.0684 57.1908 101.157C48.2355 105.246 44.349 115.888 48.4947 124.968Z" fill="black"/>
</g>
<path d="M37.371 25L41.742 29.371L37.371 33.742L33 29.371L37.371 25Z" fill="black"/>
<path fill-rule="evenodd" clip-rule="evenodd" d="M19.5 39L28 47.5L19.5 56L11 47.5L19.5 39ZM16.6667 47.5L19.5 50.3333L22.3333 47.5L19.5 44.6667L16.6667 47.5Z" fill="black"/>
<path d="M170 156C170 154.895 169.105 154 168 154C166.895 154 166 154.895 166 156V160H162C160.895 160 160 160.895 160 162C160 163.105 160.895 164 162 164H166V168C166 169.105 166.895 170 168 170C169.105 170 170 169.105 170 168V164H174C175.105 164 176 163.105 176 162C176 160.895 175.105 160 174 160H170V156Z" fill="black"/>
<path fill-rule="evenodd" clip-rule="evenodd" d="M41.6566 124.205C37.069 114.157 41.4955 102.292 51.5434 97.7046C61.5913 93.117 73.4558 97.5434 78.0434 107.591C82.6311 117.639 78.2046 129.504 68.1567 134.091C58.1087 138.679 46.2443 134.253 41.6566 124.205ZM53.2047 101.343C45.1664 105.013 41.6252 114.505 45.2953 122.543C48.9654 130.582 58.457 134.123 66.4953 130.453C74.5337 126.783 78.0749 117.291 74.4048 109.253C70.7347 101.214 61.2431 97.6732 53.2047 101.343Z" fill="black"/>
<path fill-rule="evenodd" clip-rule="evenodd" d="M84.5214 94.5634C75.2962 84.1679 59.9641 80.5548 46.7416 86.5918C30.4984 94.008 23.3983 113.258 30.8483 129.576C38.2983 145.893 57.4949 153.137 73.7382 145.72C87.5416 139.418 94.3878 124.214 91.7417 109.958L132.01 91.6472L136.58 101.656C137.727 104.168 140.693 105.275 143.205 104.128L148.663 101.636C151.175 100.489 152.282 97.523 151.135 95.011L146.519 84.901L149.029 83.6893L155.657 98.2046C156.804 100.717 159.77 101.823 162.282 100.676L167.723 98.1919C170.246 97.0401 171.349 94.0551 170.182 91.5393L163.611 77.3756L164.26 77.0297C166.593 75.7875 167.556 72.9441 166.459 70.5398L163.478 64.0105C162.331 61.4985 159.365 60.3919 156.853 61.5388L84.5214 94.5634ZM83.9548 99C84.2476 99.0068 84.5464 98.9491 84.8307 98.8194L158.514 65.1775C159.016 64.9481 159.61 65.1694 159.839 65.6718L162.82 72.2011C163.04 72.682 162.847 73.2506 162.38 73.4991L160.08 74.7241C159.827 74.8546 159.614 75.0324 159.445 75.2414C159.111 75.6548 158.952 76.1903 159.012 76.7246C159.036 76.9391 159.096 77.1528 159.193 77.3575L166.554 93.2227C166.787 93.7259 166.566 94.3229 166.062 94.5532L160.62 97.0376C160.118 97.267 159.525 97.0457 159.295 96.5433L151.819 80.1692C151.412 79.2766 150.43 78.8277 149.511 79.0602C149.426 79.0818 149.342 79.1092 149.258 79.1426C149.246 79.1476 149.233 79.1528 149.221 79.1581C149.203 79.1653 149.186 79.1728 149.169 79.1806L149.144 79.1925L149.129 79.1995L149.112 79.2081L143.11 82.1046C142.714 82.2959 142.409 82.6008 142.216 82.9614C141.876 83.5108 141.808 84.2146 142.097 84.8466L147.496 96.6723C147.725 97.1747 147.504 97.7679 147.002 97.9973L141.544 100.489C141.041 100.719 140.448 100.497 140.219 99.995L134.821 88.1722L134.819 88.1692C134.361 87.1645 133.174 86.7218 132.169 87.1806L132.154 87.1876L88.5715 107.005C87.566 107.462 87.1215 108.648 87.5787 109.654C87.59 109.678 87.6017 109.703 87.6139 109.727C90.4592 122.618 84.3642 136.472 72.0768 142.082C57.8646 148.571 41.0292 142.243 34.487 127.914C27.9447 113.585 34.1907 96.7194 48.4029 90.2305C60.4196 84.744 74.4428 88.3541 82.4041 98.2533C82.7972 98.7421 83.373 98.9974 83.9548 99Z" fill="black"/>
</svg>
