<svg width="48" height="48" viewBox="0 0 48 48" fill="none" xmlns="http://www.w3.org/2000/svg">
<path opacity="0.2" fill-rule="evenodd" clip-rule="evenodd" d="M33.042 35.3127C38.9227 33.0788 43.1053 27.3601 43.1053 20.6579C43.1053 12.0103 36.1422 5 27.5527 5C18.9632 5 12 12.0103 12 20.6579C12 27.3602 16.1828 33.079 22.0636 35.3127V38C22.0636 39.1046 22.959 40 24.0636 40H31.042C32.1465 40 33.042 39.1046 33.042 38V35.3127Z" fill="black"/>
<path fill-rule="evenodd" clip-rule="evenodd" d="M20 38H28C29.1046 38 30 37.1046 30 36V33.9109C36.4281 31.4856 41 25.2767 41 18C41 8.61116 33.3888 1 24 1C14.6112 1 7 8.61116 7 18C7 25.2767 11.5719 31.4856 18 33.9109V36C18 37.1046 18.8954 38 20 38ZM28 33.9109V36H24.9999V27.0542L28.5299 24.848C28.9983 24.5553 29.1406 23.9383 28.8479 23.47C28.5552 23.0017 27.9383 22.8593 27.4699 23.152L23.97 25.3394L19.9856 23.1258C19.5028 22.8576 18.894 23.0316 18.6258 23.5144C18.3576 23.9971 18.5315 24.6059 19.0143 24.8742L22.9999 27.0884V36H20V33.9109C20 33.0787 19.4846 32.3334 18.706 32.0396C13.031 29.8985 9 24.4175 9 18C9 9.71573 15.7157 3 24 3C32.2843 3 39 9.71573 39 18C39 24.4175 34.969 29.8985 29.294 32.0396C28.5154 32.3334 28 33.0787 28 33.9109Z" fill="black"/>
<path d="M19 41C19 40.4477 19.4477 40 20 40H28C28.5523 40 29 40.4477 29 41C29 41.5523 28.5523 42 28 42H20C19.4477 42 19 41.5523 19 41Z" fill="black"/>
<path d="M21 45C21 44.4477 21.4477 44 22 44H26C26.5523 44 27 44.4477 27 45C27 45.5523 26.5523 46 26 46H22C21.4477 46 21 45.5523 21 45Z" fill="black"/>
</svg>
