<svg width="96" height="96" viewBox="0 0 96 96" fill="none" xmlns="http://www.w3.org/2000/svg">
<g opacity="0.2">
<path d="M16.889 8.95805C16.0837 7.92268 16.2702 6.43053 17.3056 5.62523C18.341 4.81993 19.8331 5.00643 20.6384 6.0418L24.1884 10.606C24.9937 11.6414 24.8072 13.1336 23.7719 13.9389C22.7365 14.7442 21.2443 14.5576 20.439 13.5223L16.889 8.95805Z" fill="black"/>
<path d="M78.8973 6.12523C79.9327 6.93053 80.1192 8.42268 79.3139 9.45805L75.7639 14.0223C74.9585 15.0576 73.4664 15.2442 72.431 14.4389C71.3957 13.6336 71.2092 12.1414 72.0145 11.106L75.5645 6.5418C76.3698 5.50643 77.8619 5.31993 78.8973 6.12523Z" fill="black"/>
<path d="M92.4302 14.3534C93.4795 13.5664 93.6922 12.0778 92.9052 11.0284C92.1182 9.97908 90.6295 9.7664 89.5802 10.5534L79.9445 17.78C78.8951 18.567 78.6825 20.0557 79.4695 21.105C80.2565 22.1544 81.7451 22.367 82.7945 21.58L92.4302 14.3534Z" fill="black"/>
<path d="M94.8898 24.8478C95.331 26.0831 94.6872 27.4421 93.452 27.8833L86.3521 30.4189C85.1169 30.8601 83.7579 30.2163 83.3167 28.9811C82.8755 27.7458 83.5193 26.3868 84.7545 25.9456L91.8544 23.41C93.0896 22.9688 94.4487 23.6126 94.8898 24.8478Z" fill="black"/>
<path d="M57.75 85C58.375 85 59 85.625 59 86.25V88.5C59 91 57.375 93 55.5 93H47.5C45.625 93 44 91 44 88.5V86.25C44 85.625 44.625 85 45.25 85H57.75Z" fill="black"/>
<path d="M2.75092 27.3833C1.51566 26.9421 0.871919 25.5831 1.31308 24.3478C1.75424 23.1126 3.11325 22.4688 4.34851 22.91L11.4484 25.4456C12.6836 25.8868 13.3274 27.2458 12.8862 28.4811C12.445 29.7163 11.086 30.3601 9.85077 29.9189L2.75092 27.3833Z" fill="black"/>
<path d="M3.29771 10.5284C2.51071 11.5778 2.72339 13.0664 3.77274 13.8534L13.4084 21.08C14.4578 21.867 15.9464 21.6544 16.7334 20.605C17.5204 19.5557 17.3078 18.067 16.2584 17.28L6.6227 10.0534C5.57336 9.2664 4.08471 9.47908 3.29771 10.5284Z" fill="black"/>
</g>
<path d="M53.3408 18.5393C52.5341 18.3511 51.7275 18.8525 51.5392 19.6592C51.351 20.466 51.8524 21.2726 52.6591 21.4609C53.1824 21.583 53.7847 21.7675 54.4405 22.0235C55.2123 22.3246 56.082 21.9432 56.3832 21.1714C56.6844 20.3997 56.3029 19.5299 55.5312 19.2287C54.754 18.9255 54.0152 18.6967 53.3408 18.5393Z" fill="black"/>
<path d="M59.8887 21.5656C59.2079 21.0936 58.2733 21.2628 57.8013 21.9436C57.3293 22.6245 57.4986 23.559 58.1794 24.031C62.3031 26.8899 66.5 32.1712 66.5 41.0001C66.5 41.8285 67.1715 42.5001 68 42.5001C68.8284 42.5001 69.5 41.8285 69.5 41.0001C69.5 31.0544 64.7049 24.9046 59.8887 21.5656Z" fill="black"/>
<path fill-rule="evenodd" clip-rule="evenodd" d="M44.1612 10.1326C62.8979 8.23189 78.0001 22.6217 78.0001 40.4999C78.0001 50.2152 73.908 58.9616 66.6223 64.5751L66.6139 64.5816C63.1611 67.2029 61.0313 71.3507 61.0313 75.69V76.7756C61.0313 79.844 58.8915 82.3121 56 82.8778V85.5C56 88.3765 53.8674 91 51 91H44C41.1326 91 39 88.3765 39 85.5V82.8644C36.1436 82.2756 34.0001 79.8317 34.0001 76.7756V75.4488C34.0001 71.1793 31.6578 67.1191 28.121 64.3222C20.062 57.949 15.9109 47.6793 17.1978 36.7003L17.1984 36.6954C18.8823 22.7233 30.0585 11.7818 44.1384 10.1351L44.1612 10.1326ZM44.4754 13.1161C31.7466 14.61 21.6919 24.4928 20.1771 37.052C19.0048 47.0597 22.7889 56.2807 29.9819 61.969C34.0714 65.2031 37.0001 70.0686 37.0001 75.4488V76.7756C37.0001 78.565 38.4244 79.9999 40.3383 79.9999H54.7288C56.5485 79.9999 57.913 78.6958 58.024 77H43.5C42.6716 77 42 76.3284 42 75.5C42 74.6716 42.6716 74 43.5 74H58.1189C58.2249 72.9787 58.4257 71.9748 58.7138 71H51.5C50.6716 71 50 70.3284 50 69.5C50 68.6716 50.6716 68 51.5 68H59.921C61.0876 65.7437 62.752 63.7479 64.7951 62.1957C71.2836 57.1946 75.0001 49.3583 75.0001 40.4999C75.0001 24.3671 61.4048 11.4052 44.4754 13.1161ZM42 83V85.5C42 87.0679 43.1174 88 44 88H51C51.8826 88 53 87.0679 53 85.5V83H42Z" fill="black"/>
</svg>
