<svg width="196" height="196" viewBox="0 0 196 196" fill="none" xmlns="http://www.w3.org/2000/svg">
<path opacity="0.07" fill-rule="evenodd" clip-rule="evenodd" d="M8.9071 119.286C10.9909 136.228 11.6198 141.341 20 153C21.1444 154.592 22.3002 156.35 23.5277 158.217C32.856 172.404 46.3301 192.897 90.5001 195C140.483 197.38 158.876 180.215 174.5 153C190.123 125.785 207 71.0001 182.5 28.0001C158 -14.9999 42.2501 0.250099 20 18.5001C0.821609 34.2306 -0.596896 55.6724 5.49999 94.5001C7.15398 105.034 8.13136 112.98 8.9071 119.286ZM124 161.351C124 167.506 119.09 172.502 113 172.965V179C113 184.245 109.252 189 104.25 189H90.75C85.7476 189 82 184.245 82 179V172.963C75.9244 172.485 71.0312 167.496 71.0312 161.351V158.697C71.0312 149.768 66.3065 141.387 59.0092 135.664C43.1125 123.199 33.8571 103.471 36.4249 81.7484L36.4257 81.7419C39.769 54.234 62.6238 32.5726 90.5285 29.3365L90.5587 29.3332C127.656 25.6016 159 53.7267 159 88.9791C159 108.219 149.744 125.195 135.39 136.162L135.378 136.171C128.2 141.575 124 150.145 124 159.179V161.351Z" fill="black"/>
<g opacity="0.2">
<path d="M150.315 20.0734C151.841 21.2601 152.116 23.4591 150.929 24.9849L144.557 33.1772C143.371 34.703 141.172 34.9778 139.646 33.7911C138.12 32.6043 137.845 30.4053 139.032 28.8795L145.404 20.6873C146.591 19.1615 148.79 18.8866 150.315 20.0734Z" fill="black"/>
<path d="M174.615 32.4631C176.162 31.3033 176.475 29.1095 175.316 27.5631C174.156 26.0167 171.962 25.7032 170.416 26.863L153.121 39.8339C151.574 40.9937 151.261 43.1875 152.421 44.7339C153.58 46.2803 155.774 46.5938 157.321 45.434L174.615 32.4631Z" fill="black"/>
<path d="M178.77 54.4276C179.42 56.248 178.471 58.2507 176.651 58.9009L163.907 63.4521C162.087 64.1022 160.084 63.1535 159.434 61.3331C158.784 59.5127 159.732 57.51 161.553 56.8599L174.296 52.3087C176.117 51.6585 178.119 52.6072 178.77 54.4276Z" fill="black"/>
<path d="M114.51 177C115.736 177 116.962 178.144 116.962 179.288L116.962 184.781C116.962 189.357 113.775 193.018 110.097 193.018H96.875C93.1976 193.018 90.0105 189.357 90.0105 184.781L90.0105 179.288C90.0105 178.144 91.2363 177 92.4621 177H114.51Z" fill="black"/>
<path d="M16.5003 59.6733C14.6799 59.0232 13.7312 57.0204 14.3813 55.2001C15.0315 53.3797 17.0342 52.431 18.8546 53.0811L31.598 57.6323C33.4184 58.2824 34.3671 60.2852 33.7169 62.1056C33.0668 63.926 31.064 64.8746 29.2437 64.2245L16.5003 59.6733Z" fill="black"/>
<path d="M17.8356 28.3358C16.6758 29.8822 16.9893 32.076 18.5357 33.2358L35.8306 46.2067C37.377 47.3665 39.5708 47.0531 40.7306 45.5066C41.8904 43.9602 41.577 41.7664 40.0305 40.6067L22.7356 27.6357C21.1892 26.4759 18.9954 26.7894 17.8356 28.3358Z" fill="black"/>
<path d="M42.2223 25.7574C41.0356 24.2316 41.3104 22.0326 42.8362 20.8458C44.362 19.6591 46.561 19.9339 47.7478 21.4597L54.1196 29.652C55.3064 31.1778 55.0315 33.3768 53.5057 34.5635C51.9799 35.7503 49.781 35.4754 48.5942 33.9496L42.2223 25.7574Z" fill="black"/>
</g>
<path d="M73 2L77 6L73 10L69 6L73 2Z" fill="black"/>
<path d="M110.048 48.5661C110.287 47.4879 111.356 46.808 112.434 47.0476C113.62 47.3112 114.918 47.6863 116.289 48.179C117.329 48.5526 117.869 49.6982 117.495 50.7376C117.121 51.7771 115.976 52.3169 114.936 51.9433C113.711 51.5029 112.574 51.1764 111.566 50.9524C110.488 50.7128 109.808 49.6444 110.048 48.5661Z" fill="black"/>
<path d="M123.094 51.3721C122.14 50.816 120.915 51.1388 120.359 52.0932C119.803 53.0476 120.126 54.272 121.08 54.8282C130.146 60.1105 140 70.6559 140 89C140 90.1046 140.895 91 142 91C143.105 91 144 90.1046 144 89C144 68.9359 133.109 57.208 123.094 51.3721Z" fill="black"/>
<path fill-rule="evenodd" clip-rule="evenodd" d="M113 172.965C119.09 172.502 124 167.506 124 161.35V159.179C124 150.145 128.2 141.575 135.378 136.171L135.39 136.162C149.744 125.195 159 108.219 159 88.979C159 53.7266 127.656 25.6015 90.5588 29.3331L90.5285 29.3364C62.6238 32.5725 39.769 54.2339 36.4257 81.7418L36.4249 81.7483C33.8572 103.471 43.1125 123.199 59.0092 135.664C66.3065 141.387 71.0312 149.768 71.0312 158.697V161.35C71.0312 167.496 75.9245 172.485 82 172.963V179C82 184.244 85.7476 189 90.75 189H104.25C109.252 189 113 184.244 113 179V172.965ZM90.9742 33.3115C125.818 29.8151 155 56.2069 155 88.979C155 106.887 146.395 122.718 132.966 132.98C127.272 137.269 123.234 143.286 121.297 150H106C104.895 150 104 150.895 104 152C104 153.105 104.895 154 106 154H120.407C120.147 155.644 120.009 157.315 120 159H91C89.8954 159 89 159.895 89 161C89 162.105 89.8954 163 91 163H119.812C119.027 166.388 115.884 169 112.076 169H82.955C78.5483 169 75.0312 165.501 75.0312 161.35V158.697C75.0312 148.327 69.5621 138.856 61.4775 132.517C46.6114 120.859 38.0041 102.473 40.3969 82.2212C43.5048 56.6631 64.8025 36.3535 90.9742 33.3115ZM109 173V179C109 182.644 106.48 185 104.25 185H90.75C88.5202 185 86 182.644 86 179V173H109Z" fill="black"/>
<path d="M13 137C14.1046 137 15 137.895 15 139V143H19C20.1046 143 21 143.895 21 145C21 146.105 20.1046 147 19 147H15V151C15 152.105 14.1046 153 13 153C11.8954 153 11 152.105 11 151V147H7C5.89543 147 5 146.105 5 145C5 143.895 5.89543 143 7 143H11V139C11 137.895 11.8954 137 13 137Z" fill="black"/>
<path fill-rule="evenodd" clip-rule="evenodd" d="M167.5 151L176 159.5L167.5 168L159 159.5L167.5 151ZM164.667 159.5L167.5 162.333L170.333 159.5L167.5 156.667L164.667 159.5Z" fill="black"/>
</svg>
