<svg width="96" height="96" viewBox="0 0 96 96" fill="none" xmlns="http://www.w3.org/2000/svg">
<g opacity="0.2">
<path d="M16.889 8.95823C16.0837 7.92287 16.2702 6.43071 17.3056 5.62541C18.341 4.82011 19.8331 5.00662 20.6384 6.04198L24.1884 10.6062C24.9937 11.6416 24.8072 13.1337 23.7719 13.939C22.7365 14.7443 21.2443 14.5578 20.439 13.5225L16.889 8.95823Z" fill="black"/>
<path d="M78.8973 6.12541C79.9327 6.93071 80.1192 8.42287 79.3139 9.45823L75.7639 14.0225C74.9585 15.0578 73.4664 15.2443 72.431 14.439C71.3957 13.6337 71.2092 12.1416 72.0145 11.1062L75.5645 6.54198C76.3698 5.50662 77.8619 5.32011 78.8973 6.12541Z" fill="black"/>
<path d="M92.4302 14.3536C93.4795 13.5666 93.6922 12.078 92.9052 11.0286C92.1182 9.97926 90.6295 9.76658 89.5802 10.5536L79.9445 17.7802C78.8951 18.5672 78.6825 20.0559 79.4695 21.1052C80.2565 22.1545 81.7451 22.3672 82.7945 21.5802L92.4302 14.3536Z" fill="black"/>
<path d="M94.8898 24.848C95.331 26.0833 94.6872 27.4423 93.452 27.8835L86.3521 30.4191C85.1169 30.8603 83.7579 30.2165 83.3167 28.9813C82.8755 27.746 83.5193 26.387 84.7545 25.9458L91.8544 23.4102C93.0896 22.969 94.4487 23.6128 94.8898 24.848Z" fill="black"/>
<path d="M57.75 85.0002C58.375 85.0002 59 85.6252 59 86.2502V88.5002C59 91.0002 57.375 93.0002 55.5 93.0002H47.5C45.625 93.0002 44 91.0002 44 88.5002V86.2502C44 85.6252 44.625 85.0002 45.25 85.0002H57.75Z" fill="black"/>
<path d="M2.75092 27.3835C1.51566 26.9423 0.871919 25.5833 1.31308 24.348C1.75424 23.1128 3.11325 22.469 4.34851 22.9102L11.4484 25.4458C12.6836 25.887 13.3274 27.246 12.8862 28.4813C12.445 29.7165 11.086 30.3603 9.85077 29.9191L2.75092 27.3835Z" fill="black"/>
<path d="M3.29771 10.5286C2.51071 11.578 2.72339 13.0666 3.77274 13.8536L13.4084 21.0802C14.4578 21.8672 15.9464 21.6545 16.7334 20.6052C17.5204 19.5559 17.3078 18.0672 16.2584 17.2802L6.6227 10.0536C5.57336 9.26658 4.08471 9.47926 3.29771 10.5286Z" fill="black"/>
</g>
<path d="M53.3408 18.5396C52.5341 18.3513 51.7275 18.8527 51.5392 19.6595C51.351 20.4662 51.8524 21.2729 52.6591 21.4611C53.1824 21.5832 53.7847 21.7678 54.4405 22.0237C55.2123 22.3249 56.082 21.9434 56.3832 21.1717C56.6844 20.3999 56.3029 19.5302 55.5312 19.229C54.754 18.9257 54.0152 18.6969 53.3408 18.5396Z" fill="black"/>
<path d="M59.8887 21.5658C59.2079 21.0938 58.2733 21.2631 57.8013 21.9439C57.3293 22.6247 57.4986 23.5592 58.1794 24.0312C62.3031 26.8902 66.5 32.1715 66.5 41.0003C66.5 41.8288 67.1715 42.5003 68 42.5003C68.8284 42.5003 69.5 41.8288 69.5 41.0003C69.5 31.0547 64.7049 24.9049 59.8887 21.5658Z" fill="black"/>
<path fill-rule="evenodd" clip-rule="evenodd" d="M44.1612 10.1328C62.8979 8.23214 78.0001 22.622 78.0001 40.5002C78.0001 50.2154 73.908 58.9618 66.6223 64.5753L66.6139 64.5818C63.1611 67.2031 61.0313 71.3509 61.0313 75.6902V76.7758C61.0313 79.8442 58.8915 82.3124 56 82.878V85.5002C56 88.3768 53.8674 91.0002 51 91.0002H44C41.1326 91.0002 39 88.3768 39 85.5002V82.8646C36.1436 82.2758 34.0001 79.832 34.0001 76.7758V75.449C34.0001 71.1796 31.6578 67.1193 28.121 64.3224C20.062 57.9492 15.9109 47.6796 17.1978 36.7005L17.1984 36.6957C18.8823 22.7236 30.0585 11.782 44.1384 10.1353L44.1612 10.1328ZM44.4754 13.1163C31.7466 14.6102 21.6919 24.493 20.1771 37.0522C19.0048 47.06 22.7889 56.281 29.9819 61.9693C34.0714 65.2033 37.0001 70.0689 37.0001 75.449V76.7758C37.0001 78.5652 38.4244 80.0002 40.3383 80.0002H54.7288C56.5485 80.0002 57.913 78.6961 58.024 77.0002H43.5C42.6716 77.0002 42 76.3287 42 75.5002C42 74.6718 42.6716 74.0002 43.5 74.0002H58.1189C58.2249 72.9789 58.4257 71.9751 58.7138 71.0002H51.5C50.6716 71.0002 50 70.3287 50 69.5002C50 68.6718 50.6716 68.0002 51.5 68.0002H59.921C61.0876 65.7439 62.752 63.7481 64.7951 62.196C71.2836 57.1948 75.0001 49.3586 75.0001 40.5002C75.0001 24.3674 61.4048 11.4055 44.4754 13.1163ZM42 83.0002V85.5002C42 87.0681 43.1174 88.0002 44 88.0002H51C51.8826 88.0002 53 87.0681 53 85.5002V83.0002H42Z" fill="black"/>
</svg>
