<svg width="196" height="196" viewBox="0 0 196 196" fill="none" xmlns="http://www.w3.org/2000/svg">
<path opacity="0.07" d="M51.6629 172.688C47.8719 171.853 2.32349 164.334 5.67624 108.877C9.029 53.419 18.2914 30.1017 36 24C53.7086 17.8983 116.721 -3.4533 150.5 24C184.279 51.4533 195.708 75.1944 181.244 119.029C168.746 156.906 167.327 155.751 137 165C100.839 176.028 69.6893 176.658 51.6629 172.688Z" fill="black"/>
<g opacity="0.2">
<path d="M48.5967 40.1489C47.41 38.623 47.6848 36.4241 49.2106 35.2373C50.7364 34.0506 52.9354 34.3254 54.1221 35.8512L59.5488 42.8283C60.7356 44.3541 60.4607 46.553 58.9349 47.7398C57.4091 48.9266 55.2102 48.6517 54.0234 47.1259L48.5967 40.1489Z" fill="black"/>
<path d="M143.939 35.4311C145.465 36.6179 145.74 38.8168 144.553 40.3426L139.127 47.3197C137.94 48.8455 135.741 49.1203 134.215 47.9336C132.689 46.7468 132.414 44.5479 133.601 43.0221L139.028 36.045C140.215 34.5192 142.414 34.2444 143.939 35.4311Z" fill="black"/>
<path d="M164.628 46.8081C166.174 45.6484 166.488 43.4546 165.328 41.9082C164.168 40.3617 161.974 40.0483 160.428 41.2081L145.698 52.255C144.152 53.4148 143.839 55.6086 144.998 57.155C146.158 58.7014 148.352 59.0148 149.898 57.855L164.628 46.8081Z" fill="black"/>
<path d="M116 145.44C136.329 138.729 151 119.578 151 97C151 68.8335 128.167 46 100 46C71.8335 46 49 68.8335 49 97C49 119.946 64.154 139.353 85 145.758V156C85 159.314 87.6863 162 91 162H110C113.314 162 116 159.314 116 156V145.44Z" fill="black"/>
<path d="M168.343 64.9247C168.993 66.7451 168.045 68.7478 166.224 69.398L155.371 73.274C153.551 73.9242 151.548 72.9755 150.898 71.1551C150.248 69.3347 151.196 67.332 153.017 66.6818L163.87 62.8058C165.69 62.1556 167.693 63.1043 168.343 64.9247Z" fill="black"/>
<path d="M26.9256 69.2041C25.1052 68.554 24.1565 66.5512 24.8067 64.7308C25.4568 62.9105 27.4595 61.9618 29.2799 62.6119L40.133 66.488C41.9534 67.1381 42.9021 69.1409 42.2519 70.9613C41.6018 72.7816 39.5991 73.7303 37.7787 73.0802L26.9256 69.2041Z" fill="black"/>
<path d="M27.8221 41.7144C26.6623 43.2608 26.9757 45.4546 28.5221 46.6144L43.2516 57.6612C44.798 58.821 46.9918 58.5076 48.1516 56.9612C49.3114 55.4148 48.9979 53.221 47.4515 52.0612L32.7221 41.0143C31.1756 39.8545 28.9818 40.168 27.8221 41.7144Z" fill="black"/>
<path d="M168.343 120.575C168.993 118.755 168.045 116.752 166.224 116.102L155.371 112.226C153.551 111.576 151.548 112.525 150.898 114.345C150.248 116.165 151.196 118.168 153.017 118.818L163.87 122.694C165.69 123.344 167.693 122.396 168.343 120.575Z" fill="black"/>
<path d="M164.628 137.792C166.174 138.951 166.488 141.145 165.328 142.692C164.168 144.238 161.974 144.551 160.428 143.392L145.698 132.345C144.152 131.185 143.839 128.991 144.998 127.445C146.158 125.898 148.352 125.585 149.898 126.745L164.628 137.792Z" fill="black"/>
<path d="M143.939 150.069C145.465 148.882 145.74 146.683 144.553 145.157L139.127 138.18C137.94 136.655 135.741 136.38 134.215 137.566C132.689 138.753 132.414 140.952 133.601 142.478L139.028 149.455C140.215 150.981 142.414 151.256 143.939 150.069Z" fill="black"/>
<path d="M26.9256 116.296C25.1052 116.946 24.1565 118.949 24.8067 120.769C25.4568 122.59 27.4595 123.538 29.2799 122.888L40.133 119.012C41.9534 118.362 42.9021 116.359 42.2519 114.539C41.6018 112.718 39.5991 111.77 37.7787 112.42L26.9256 116.296Z" fill="black"/>
<path d="M27.8221 143.786C26.6623 142.239 26.9757 140.046 28.5221 138.886L43.2516 127.839C44.798 126.679 46.9918 126.993 48.1516 128.539C49.3114 130.085 48.9979 132.279 47.4515 133.439L32.7221 144.486C31.1756 145.646 28.9818 145.332 27.8221 143.786Z" fill="black"/>
<path d="M48.5967 145.351C47.41 146.877 47.6848 149.076 49.2106 150.263C50.7364 151.45 52.9354 151.175 54.1221 149.649L59.5488 142.672C60.7356 141.146 60.4607 138.947 58.9349 137.76C57.4091 136.574 55.2102 136.848 54.0234 138.374L48.5967 145.351Z" fill="black"/>
</g>
<path d="M74 10C74 8.89543 73.1046 8 72 8C70.8954 8 70 8.89543 70 10V14H66C64.8954 14 64 14.8954 64 16C64 17.1046 64.8954 18 66 18H70V22C70 23.1046 70.8954 24 72 24C73.1046 24 74 23.1046 74 22V18H78C79.1046 18 80 17.1046 80 16C80 14.8954 79.1046 14 78 14H74V10Z" fill="black"/>
<path fill-rule="evenodd" clip-rule="evenodd" d="M19.875 94.2334L11.3897 85.7481L2.90442 94.2334L11.3897 102.719L19.875 94.2334ZM11.3897 97.0618L8.56127 94.2334L11.3897 91.4049L14.2181 94.2334L11.3897 97.0618Z" fill="black"/>
<path d="M187.707 86.801L191.95 91.0436L187.707 95.2862L183.465 91.0436L187.707 86.801Z" fill="black"/>
<path fill-rule="evenodd" clip-rule="evenodd" d="M95 39C65.7289 39 42 62.7289 42 92C42 115.327 57.0693 135.13 78 142.214V151C78 155.418 81.5817 159 86 159H105C109.418 159 113 155.418 113 151V141.865C133.409 134.496 148 114.955 148 92C148 62.7289 124.271 39 95 39ZM46 92C46 64.938 67.938 43 95 43C122.062 43 144 64.938 144 92C144 113.689 129.907 132.092 110.373 138.541C109.554 138.811 109 139.577 109 140.44V151C109 153.209 107.209 155 105 155H98V127.012L114.185 115.111C115.075 114.457 115.266 113.205 114.611 112.315C113.957 111.425 112.705 111.234 111.815 111.889L95.9668 123.542L79.1408 111.857C78.2336 111.227 76.9874 111.452 76.3573 112.359C75.7273 113.266 75.952 114.513 76.8593 115.143L94 127.046V155H86C83.7909 155 82 153.209 82 151V140.758C82 139.88 81.427 139.105 80.5874 138.847C60.5573 132.692 46 114.043 46 92Z" fill="black"/>
<path d="M84 164C82.8954 164 82 164.895 82 166C82 167.105 82.8954 168 84 168H108C109.105 168 110 167.105 110 166C110 164.895 109.105 164 108 164H84Z" fill="black"/>
<path d="M86 175C86 173.895 86.8954 173 88 173H104C105.105 173 106 173.895 106 175C106 176.105 105.105 177 104 177H88C86.8954 177 86 176.105 86 175Z" fill="black"/>
</svg>
