<svg width="196" height="196" viewBox="0 0 196 196" fill="none" xmlns="http://www.w3.org/2000/svg">
<path opacity="0.07" d="M20 153C8.49997 137 11.5969 133.328 5.49999 94.5C-0.596896 55.6722 0.821609 34.2304 20 18.5C42.2501 0.249977 158 -15 182.5 28C207 71 190.123 125.785 174.5 153C158.876 180.215 140.483 197.38 90.5001 195C40.5175 192.62 29.8413 166.692 20 153Z" fill="black"/>
<g opacity="0.2">
<path d="M150.315 20.0735C151.841 21.2603 152.116 23.4592 150.929 24.985L144.557 33.1773C143.371 34.7031 141.172 34.9779 139.646 33.7912C138.12 32.6044 137.845 30.4055 139.032 28.8797L145.404 20.6874C146.591 19.1616 148.79 18.8867 150.315 20.0735Z" fill="black"/>
<path d="M174.615 32.4632C176.162 31.3034 176.475 29.1096 175.316 27.5632C174.156 26.0168 171.962 25.7034 170.416 26.8631L153.121 39.8341C151.574 40.9939 151.261 43.1877 152.421 44.7341C153.58 46.2805 155.774 46.5939 157.321 45.4341L174.615 32.4632Z" fill="black"/>
<path d="M178.77 54.4277C179.42 56.2481 178.471 58.2509 176.651 58.901L163.907 63.4522C162.087 64.1023 160.084 63.1536 159.434 61.3332C158.784 59.5129 159.733 57.5101 161.553 56.86L174.296 52.3088C176.117 51.6587 178.119 52.6073 178.77 54.4277Z" fill="black"/>
<path d="M114.51 177C115.736 177 116.962 178.144 116.962 179.288L116.962 184.781C116.962 189.358 113.775 193.019 110.098 193.019H96.875C93.1976 193.019 90.0106 189.358 90.0106 184.781L90.0105 179.288C90.0105 178.144 91.2363 177 92.4621 177H114.51Z" fill="black"/>
<path d="M16.5003 59.6735C14.6799 59.0233 13.7312 57.0206 14.3814 55.2002C15.0315 53.3798 17.0343 52.4311 18.8546 53.0813L31.598 57.6324C33.4184 58.2826 34.3671 60.2853 33.717 62.1057C33.0668 63.9261 31.0641 64.8748 29.2437 64.2246L16.5003 59.6735Z" fill="black"/>
<path d="M17.8356 28.3359C16.6759 29.8823 16.9893 32.0761 18.5357 33.2359L35.8306 46.2068C37.377 47.3666 39.5708 47.0532 40.7306 45.5068C41.8904 43.9604 41.577 41.7666 40.0306 40.6068L22.7356 27.6358C21.1892 26.4761 18.9954 26.7895 17.8356 28.3359Z" fill="black"/>
<path d="M42.2224 25.7575C41.0356 24.2317 41.3105 22.0327 42.8363 20.846C44.3621 19.6592 46.561 19.9341 47.7478 21.4599L54.1197 29.6521C55.3064 31.1779 55.0316 33.3769 53.5058 34.5637C51.98 35.7504 49.781 35.4756 48.5942 33.9498L42.2224 25.7575Z" fill="black"/>
</g>
<path d="M73 2L77 6L73 10L69 6L73 2Z" fill="black"/>
<path d="M110.048 48.5661C110.287 47.4879 111.356 46.808 112.434 47.0476C113.62 47.3112 114.918 47.6863 116.289 48.179C117.329 48.5526 117.869 49.6982 117.495 50.7376C117.121 51.7771 115.976 52.3169 114.936 51.9433C113.711 51.5029 112.574 51.1764 111.566 50.9524C110.488 50.7128 109.808 49.6444 110.048 48.5661Z" fill="black"/>
<path d="M123.094 51.3721C122.14 50.816 120.915 51.1388 120.359 52.0932C119.803 53.0476 120.126 54.272 121.08 54.8282C130.146 60.1105 140 70.6559 140 89C140 90.1046 140.895 91 142 91C143.105 91 144 90.1046 144 89C144 68.9359 133.109 57.208 123.094 51.3721Z" fill="black"/>
<path fill-rule="evenodd" clip-rule="evenodd" d="M113 172.965C119.09 172.502 124 167.506 124 161.35V159.179C124 150.145 128.2 141.575 135.378 136.171L135.39 136.162C149.744 125.195 159 108.219 159 88.979C159 53.7266 127.656 25.6015 90.5588 29.3331L90.5285 29.3364C62.6238 32.5725 39.769 54.2339 36.4257 81.7418L36.4249 81.7483C33.8572 103.471 43.1125 123.199 59.0092 135.664C66.3065 141.387 71.0312 149.768 71.0312 158.697V161.35C71.0312 167.496 75.9245 172.485 82 172.963V179C82 184.244 85.7476 189 90.75 189H104.25C109.252 189 113 184.244 113 179V172.965ZM90.9742 33.3115C125.818 29.8151 155 56.2069 155 88.979C155 106.887 146.395 122.718 132.966 132.98C127.272 137.269 123.234 143.286 121.297 150H106C104.895 150 104 150.895 104 152C104 153.105 104.895 154 106 154H120.407C120.147 155.644 120.009 157.315 120 159H91C89.8954 159 89 159.895 89 161C89 162.105 89.8954 163 91 163H119.812C119.027 166.388 115.884 169 112.076 169H82.955C78.5483 169 75.0312 165.501 75.0312 161.35V158.697C75.0312 148.327 69.5621 138.856 61.4775 132.517C46.6114 120.859 38.0041 102.473 40.3969 82.2212C43.5048 56.6631 64.8025 36.3535 90.9742 33.3115ZM109 173V179C109 182.644 106.48 185 104.25 185H90.75C88.5202 185 86 182.644 86 179V173H109Z" fill="black"/>
<path d="M13 137C14.1046 137 15 137.895 15 139V143H19C20.1046 143 21 143.895 21 145C21 146.105 20.1046 147 19 147H15V151C15 152.105 14.1046 153 13 153C11.8954 153 11 152.105 11 151V147H7C5.89543 147 5 146.105 5 145C5 143.895 5.89543 143 7 143H11V139C11 137.895 11.8954 137 13 137Z" fill="black"/>
<path fill-rule="evenodd" clip-rule="evenodd" d="M167.5 151L176 159.5L167.5 168L159 159.5L167.5 151ZM164.667 159.5L167.5 162.333L170.333 159.5L167.5 156.667L164.667 159.5Z" fill="black"/>
</svg>
