<svg width="96" height="96" viewBox="0 0 96 96" fill="none" xmlns="http://www.w3.org/2000/svg">
<path fill-rule="evenodd" clip-rule="evenodd" d="M49 3C30.2223 3 15 18.2223 15 37C15 51.5556 24.1457 63.9714 37 68.8214V77.5C37 79.9853 39.0147 82 41.5 82H57.5C59.9853 82 62 79.9853 62 77.5V68.4258C74.3255 63.3214 83 51.1755 83 37C83 18.2223 67.7777 3 49 3ZM18 37C18 19.8792 31.8792 6 49 6C66.1208 6 80 19.8792 80 37C80 50.2569 71.6779 61.5738 59.9678 66.0044L58.9668 66.3831L58.9993 67.4528C58.9996 67.4637 58.9998 67.4746 58.9999 67.4855L59 67.5V77.5C59 78.3284 58.3284 79 57.5 79H51V59.681L61.6788 52.03C62.3522 51.5475 62.507 50.6105 62.0245 49.937C61.542 49.2636 60.605 49.1088 59.9316 49.5913L49.3413 57.1789L37.8278 49.5597C37.137 49.1026 36.2063 49.292 35.7491 49.9828C35.292 50.6737 35.4814 51.6044 36.1722 52.0616L48 59.8887V79H41.5C40.6716 79 40 78.3284 40 77.5V66.6933L38.9844 66.3468C26.7764 62.1816 18 50.6138 18 37Z" fill="black"/>
<path d="M41.5 85C40.6716 85 40 85.6716 40 86.5C40 87.3284 40.6716 88 41.5 88H58.5C59.3284 88 60 87.3284 60 86.5C60 85.6716 59.3284 85 58.5 85H41.5Z" fill="black"/>
<path d="M42 92.5C42 91.6716 42.6716 91 43.5 91H56.5C57.3284 91 58 91.6716 58 92.5C58 93.3284 57.3284 94 56.5 94H43.5C42.6716 94 42 93.3284 42 92.5Z" fill="black"/>
<g opacity="0.2">
<path d="M17.7992 3.83305C16.9939 2.79768 17.1804 1.30553 18.2157 0.500227C19.2511 -0.305073 20.7433 -0.118566 21.5486 0.916801L25.0487 5.41684C25.854 6.45221 25.6675 7.94436 24.6321 8.74966C23.5967 9.55496 22.1046 9.36846 21.2993 8.33309L17.7992 3.83305Z" fill="black"/>
<path d="M79.4582 0.625227C80.4936 1.43053 80.6801 2.92268 79.8748 3.95805L76.3747 8.45809C75.5694 9.49346 74.0772 9.67996 73.0419 8.87466C72.0065 8.06936 71.82 6.57721 72.6253 5.54184L76.1254 1.0418C76.9307 0.00643349 78.4228 -0.180073 79.4582 0.625227Z" fill="black"/>
<path d="M92.8001 8.14997C93.8494 7.36298 94.0621 5.87433 93.2751 4.82498C92.4881 3.77563 90.9995 3.56295 89.9501 4.34995L80.4499 11.4749C79.4006 12.2619 79.1879 13.7506 79.9749 14.7999C80.7619 15.8493 82.2505 16.062 83.2999 15.275L92.8001 8.14997Z" fill="black"/>
<path d="M63.2624 71.1222C76.0795 66.592 85.2624 54.3684 85.2624 40C85.2624 21.7746 71.4878 7 53.2624 7C35.037 7 20.2624 21.7746 20.2624 40C20.2624 54.3684 29.4453 66.592 42.2624 71.1222V81C42.2624 82.6569 43.6055 84 45.2624 84H60.2624C61.9193 84 63.2624 82.6569 63.2624 81V71.1222Z" fill="black"/>
<path d="M95.2366 19.7012C95.6777 20.9364 95.034 22.2954 93.7987 22.7366L86.7988 25.2366C85.5635 25.6777 84.2045 25.034 83.7633 23.7987C83.3222 22.5635 83.9659 21.2045 85.2012 20.7633L92.2012 18.2633C93.4364 17.8222 94.7954 18.4659 95.2366 19.7012Z" fill="black"/>
<path d="M3.87519 22.6116C2.63993 22.1704 1.99619 20.8114 2.43735 19.5762C2.87851 18.3409 4.23752 17.6972 5.47278 18.1383L12.4728 20.6383C13.708 21.0795 14.3518 22.4385 13.9106 23.6737C13.4695 24.909 12.1104 25.5527 10.8752 25.1116L3.87519 22.6116Z" fill="black"/>
<path d="M4.39883 4.69998C3.61183 5.74933 3.82451 7.23798 4.87386 8.02497L14.374 15.15C15.4234 15.937 16.912 15.7243 17.699 14.6749C18.486 13.6256 18.2733 12.1369 17.224 11.3499L7.72382 4.22495C6.67448 3.43795 5.18582 3.65063 4.39883 4.69998Z" fill="black"/>
<path d="M95.2366 55.6737C95.6777 54.4384 95.034 53.0794 93.7987 52.6383L86.7988 50.1383C85.5635 49.6971 84.2045 50.3409 83.7633 51.5761C83.3222 52.8114 83.9659 54.1704 85.2012 54.6116L92.2012 57.1115C93.4364 57.5527 94.7954 56.909 95.2366 55.6737Z" fill="black"/>
<path d="M92.8001 67.2249C93.8494 68.0119 94.0621 69.5005 93.2751 70.5499C92.4881 71.5992 90.9995 71.8119 89.9501 71.0249L80.4499 63.8999C79.4006 63.1129 79.1879 61.6243 79.9749 60.5749C80.7619 59.5256 82.2505 59.3129 83.2999 60.0999L92.8001 67.2249Z" fill="black"/>
<path d="M79.4582 74.7496C80.4936 73.9443 80.6801 72.4522 79.8748 71.4168L76.3747 66.9168C75.5694 65.8814 74.0772 65.6949 73.0419 66.5002C72.0065 67.3055 71.82 68.7977 72.6253 69.833L76.1254 74.3331C76.9307 75.3684 78.4228 75.5549 79.4582 74.7496Z" fill="black"/>
<path d="M3.87519 52.7633C2.63993 53.2044 1.99619 54.5634 2.43735 55.7987C2.87851 57.034 4.23752 57.6777 5.47278 57.2365L12.4728 54.7366C13.708 54.2954 14.3518 52.9364 13.9106 51.7011C13.4695 50.4659 12.1104 49.8221 10.8752 50.2633L3.87519 52.7633Z" fill="black"/>
<path d="M4.39883 70.6749C3.61183 69.6255 3.82451 68.1369 4.87386 67.3499L14.374 60.2249C15.4234 59.4379 16.912 59.6506 17.699 60.6999C18.486 61.7493 18.2733 63.2379 17.224 64.0249L7.72382 71.1499C6.67448 71.9369 5.18582 71.7242 4.39883 70.6749Z" fill="black"/>
<path d="M17.7992 71.5418C16.9939 72.5772 17.1804 74.0693 18.2157 74.8746C19.2511 75.6799 20.7433 75.4934 21.5486 74.4581L25.0487 69.958C25.854 68.9227 25.6675 67.4305 24.6321 66.6252C23.5967 65.8199 22.1046 66.0064 21.2993 67.0418L17.7992 71.5418Z" fill="black"/>
</g>
</svg>
