<svg width="48" height="48" viewBox="0 0 48 48" fill="none" xmlns="http://www.w3.org/2000/svg">
<path opacity="0.2" d="M30.8689 42C31.2057 42 31.5424 42.3143 31.5424 42.6285V44.7373C31.5424 45.9944 30.6669 47 29.6568 47H23.8856C22.8755 47 22 45.9944 22 44.7373V42.6285C22 42.3143 22.3367 42 22.6734 42H30.8689Z" fill="black"/>
<path d="M27.2095 7.02216C26.6695 6.90644 26.1379 7.25041 26.0222 7.79043C25.9064 8.33046 26.2504 8.86205 26.7904 8.97777C28.8645 9.4222 33 11.6509 33 17C33 17.5522 33.4477 18 34 18C34.5522 18 35 17.5522 35 17C35 10.349 29.8021 7.57772 27.2095 7.02216Z" fill="black"/>
<path fill-rule="evenodd" clip-rule="evenodd" d="M19 40.8664C17.4649 40.4413 16.3171 39.0494 16.3171 37.3808V36.6606C16.3171 34.3727 15.2101 32.2296 13.3607 30.7658C8.96743 27.2884 6.40766 21.7815 7.11731 15.7219L7.11769 15.7187C8.04278 8.03601 14.3618 1.99689 22.071 1.09447L22.0862 1.0928C32.3319 0.0525237 41 7.89538 41 17.7372C41 23.1076 38.4394 27.8458 34.4729 30.9046L34.4673 30.9089C32.6697 32.2748 31.66 34.4566 31.66 36.7915V37.3808C31.66 39.0411 30.5236 40.4274 29 40.86V43C29 44.5473 27.8491 46 26.25 46H21.75C20.1509 46 19 44.5473 19 43V40.8664ZM9.10354 15.9562C8.47954 21.2893 10.7231 26.1274 14.602 29.1976C16.8889 31.0078 18.3171 33.7102 18.3171 36.6606V37.3808C18.3171 38.2515 19.0525 39 19.9857 39H27.9914C28.9245 39 29.66 38.2515 29.66 37.3808V37H22C21.4477 37 21 36.5523 21 36C21 35.4477 21.4477 35 22 35H29.8221C30.2308 32.7695 31.4043 30.7256 33.2543 29.3187C36.7583 26.6153 39 22.4492 39 17.7372C39 9.11627 31.394 2.16237 22.2959 3.08179C15.4654 3.88484 9.91342 9.23678 9.10354 15.9562ZM21 41V43C21 43.6749 21.4741 44 21.75 44H26.25C26.5259 44 27 43.6749 27 43V41H21Z" fill="black"/>
</svg>
