<svg width="48" height="48" viewBox="0 0 48 48" fill="none" xmlns="http://www.w3.org/2000/svg">
<path opacity="0.2" fill-rule="evenodd" clip-rule="evenodd" d="M32.042 34.3127C37.9227 32.0788 42.1053 26.3601 42.1053 19.6579C42.1053 11.0103 35.1422 4 26.5527 4C17.9632 4 11 11.0103 11 19.6579C11 26.3602 15.1828 32.079 21.0636 34.3127V37C21.0636 38.1046 21.959 39 23.0636 39H30.042C31.1465 39 32.042 38.1046 32.042 37V34.3127Z" fill="black"/>
<path fill-rule="evenodd" clip-rule="evenodd" d="M20 38H28C29.1046 38 30 37.1046 30 36V33.9109C36.4281 31.4856 41 25.2767 41 18C41 8.61116 33.3888 1 24 1C14.6112 1 7 8.61116 7 18C7 25.2767 11.5719 31.4856 18 33.9109V36C18 37.1046 18.8954 38 20 38ZM28 33.9109C28 33.0787 28.5154 32.3334 29.294 32.0396C34.969 29.8985 39 24.4175 39 18C39 9.71573 32.2843 3 24 3C15.7157 3 9 9.71573 9 18C9 24.4175 13.031 29.8985 18.706 32.0396C19.4846 32.3334 20 33.0787 20 33.9109V36H22.9999V27.0884L19.0143 24.8742C18.5315 24.6059 18.3576 23.9971 18.6258 23.5144C18.894 23.0316 19.5028 22.8576 19.9856 23.1258L23.97 25.3394L27.4699 23.152C27.9383 22.8593 28.5552 23.0017 28.8479 23.47C29.1406 23.9383 28.9983 24.5553 28.5299 24.848L24.9999 27.0542V36H28V33.9109Z" fill="black"/>
<path d="M19 41C19 40.4477 19.4477 40 20 40H28C28.5523 40 29 40.4477 29 41C29 41.5523 28.5523 42 28 42H20C19.4477 42 19 41.5523 19 41Z" fill="black"/>
<path d="M21 45C21 44.4477 21.4477 44 22 44H26C26.5523 44 27 44.4477 27 45C27 45.5523 26.5523 46 26 46H22C21.4477 46 21 45.5523 21 45Z" fill="black"/>
</svg>
