<svg width="48" height="48" viewBox="0 0 48 48" fill="none" xmlns="http://www.w3.org/2000/svg">
<path fill-rule="evenodd" clip-rule="evenodd" d="M20.2567 37.6072C20.82 38.309 21.3434 38.9442 21.8135 39.502C22.0865 39.8258 22.2853 40.0572 22.3981 40.1864C23.2946 41.2812 24.8448 41.2704 25.7315 40.1585C25.8123 40.0678 26.0157 39.8313 26.2988 39.4954C26.7688 38.9379 27.292 38.3029 27.8551 37.6014C29.4637 35.5977 31.0723 33.4605 32.5754 31.2766C33.9857 29.2274 35.2318 27.2383 36.2696 25.3441C38.3814 21.4896 39.5536 18.1847 39.5536 15.5372C39.5536 6.83415 32.9733 1 24.0536 1C15.1339 1 8.55359 6.83415 8.55359 15.5372C8.55359 18.1856 9.72697 21.4924 11.8409 25.3494C12.8787 27.2431 14.1246 29.2315 15.5345 31.28C17.0382 33.4647 18.6474 35.6027 20.2567 37.6072ZM23.9426 38.9157L23.9153 38.8831C23.813 38.7663 23.6177 38.5392 23.3428 38.213C22.8826 37.6671 22.3693 37.0441 21.8163 36.3552C20.2358 34.3865 18.6554 32.2868 17.182 30.1461C15.8081 28.1499 14.5973 26.2175 13.5947 24.3882C11.6287 20.801 10.5536 17.7711 10.5536 15.5372C10.5536 7.99591 16.1885 3 24.0536 3C31.9187 3 37.5536 7.99591 37.5536 15.5372C37.5536 17.7704 36.4796 20.7984 34.5156 24.3831C33.5131 26.2129 32.3022 28.1459 30.9279 30.1427C29.4551 32.2827 27.8753 34.3815 26.2955 36.3494C25.7427 37.038 25.2296 37.6607 24.7696 38.2064C24.4948 38.5325 24.2996 38.7594 24.1974 38.8762C24.0743 39.0287 24.0335 39.0289 23.9426 38.9157ZM24.0536 22.6539C20.113 22.6539 16.919 19.4568 16.919 15.5135C16.919 11.5702 20.113 8.37319 24.0536 8.37319C27.9941 8.37319 31.1882 11.5702 31.1882 15.5135C31.1882 19.4568 27.9941 22.6539 24.0536 22.6539ZM29.1882 15.5135C29.1882 18.3527 26.8892 20.6539 24.0536 20.6539C21.218 20.6539 18.919 18.3527 18.919 15.5135C18.919 12.6744 21.218 10.3732 24.0536 10.3732C26.8892 10.3732 29.1882 12.6744 29.1882 15.5135Z" fill="black"/>
<path opacity="0.5" d="M35.5536 33C35.0014 33 34.5536 32.5523 34.5536 32C34.5536 31.4477 35.0014 31 35.5536 31H37.3176C38.4539 31 39.4927 31.642 39.9639 32.5911L46.0009 42.6584C46.7418 44.1403 46.1411 45.9423 44.6592 46.6833C44.2426 46.8916 43.7833 47 43.3176 47H4C2.34315 47 1 45.6569 1 44C1 43.4779 1.13625 42.9649 1.43329 42.4503L8.10956 32.5116C8.64368 31.5769 9.63772 31 10.7143 31H12.5536C13.1059 31 13.5536 31.4477 13.5536 32C13.5536 32.5523 13.1059 33 12.5536 33H10.7143C10.3554 33 10.0241 33.1923 9.80802 33.5652L3.13176 43.5039C3.04542 43.655 3 43.826 3 44C3 44.5523 3.44772 45 4 45H43.3176C43.4728 45 43.6259 44.9639 43.7648 44.8944C44.2588 44.6474 44.459 44.0468 44.2489 43.6201L38.212 33.5528C38.0426 33.214 37.6963 33 37.3176 33H35.5536Z" fill="black"/>
</svg>
