<svg width="196" height="196" viewBox="0 0 196 196" fill="none" xmlns="http://www.w3.org/2000/svg">
<path opacity="0.07" fill-rule="evenodd" clip-rule="evenodd" d="M39.8212 30.5149C52.909 17.5119 75.4286 10.9468 86.5 7.99995C97.5713 5.05313 121.331 2.37947 156.057 19.9939C190.783 37.6083 207.48 142.611 171.357 171.634C135.234 200.657 82.0841 193.173 54.6082 182.763C27.1324 172.352 8.53725 157.89 3.33032 111.329C-1.36991 69.2979 23.0236 46.365 36.0539 34.1148C37.4586 32.7942 38.7313 31.5977 39.8212 30.5149ZM63.5 69.5L34 88V162.5L63.5 146L99 162.5L129 146L165 162.5L164.5 89L129 69.5L107.519 78.2678C108.101 77.1651 108.69 76.0338 109.28 74.8841C111.918 69.739 114.574 64.1953 116.576 59.1868C118.541 54.2695 120 49.5745 120 46.25C120 33.1905 109.963 23 97 23C84.4186 23 74 33.5769 74 46.25C74 49.5745 75.4588 54.2695 77.4241 59.1868C79.4257 64.1953 82.0821 69.739 84.7203 74.8841C85.7019 76.7984 86.6831 78.6617 87.6302 80.4269L63.5 69.5Z" fill="black"/>
<g opacity="0.2">
<path d="M105.193 94.2342C110.576 84.8505 124 60.5173 124 51.25C124 39.6591 114.836 30 103 30C91.5455 30 82 39.6591 82 51.25C82 60.5173 95.4242 84.8505 100.807 94.2342C101.791 95.9501 104.209 95.9501 105.193 94.2342Z" fill="black"/>
<path d="M66.4737 146.715L94.2452 160.18C95.9814 161.021 98 159.757 98 157.827V106.442C98 105.988 97.8822 105.543 97.658 105.149L91.6 94.5L82.4117 79.1178C82.1434 78.6687 81.7465 78.3104 81.2724 78.0892L68.7192 72.2346C66.9861 71.4263 65 72.6915 65 74.6039V144.362C65 145.364 65.5724 146.278 66.4737 146.715Z" fill="black"/>
<path d="M169.631 98.7584L138.859 82.0905C137.118 81.147 135 82.4082 135 84.3892V154.364C135 155.365 135.571 156.278 136.471 156.715L167.243 171.674C168.979 172.518 171 171.253 171 169.322V101.057C171 100.098 170.474 99.2153 169.631 98.7584Z" fill="black"/>
<path d="M58 133C58 135.761 55.7614 138 53 138C50.2386 138 48 135.761 48 133C48 130.239 50.2386 128 53 128C55.7614 128 58 130.239 58 133Z" fill="black"/>
<path d="M53 117C55.7614 117 58 114.761 58 112C58 109.239 55.7614 107 53 107C50.2386 107 48 109.239 48 112C48 114.761 50.2386 117 53 117Z" fill="black"/>
</g>
<path fill-rule="evenodd" clip-rule="evenodd" d="M97 37C91.4772 37 87 41.4771 87 47C87 52.5229 91.4772 57 97 57C102.523 57 107 52.5229 107 47C107 41.4771 102.523 37 97 37ZM91 47C91 43.6863 93.6863 41 97 41C100.314 41 103 43.6863 103 47C103 50.3137 100.314 53 97 53C93.6863 53 91 50.3137 91 47Z" fill="black"/>
<path fill-rule="evenodd" clip-rule="evenodd" d="M98.7174 94.0249L98.7334 93.9981L98.7797 93.9203C98.8202 93.8521 98.88 93.7513 98.9578 93.6196C99.1133 93.3564 99.3407 92.9699 99.6297 92.4746C100.208 91.4841 101.032 90.0578 102.022 88.3107C103.999 84.8178 106.638 80.0354 109.28 74.8841C111.918 69.739 114.574 64.1953 116.576 59.1868C118.541 54.2695 120 49.5745 120 46.25C120 33.1905 109.963 23 97 23C84.4186 23 74 33.5769 74 46.25C74 49.5745 75.4588 54.2695 77.4241 59.1868C79.4257 64.1953 82.0821 69.739 84.7203 74.8841C87.3617 80.0354 90.0008 84.8178 91.9783 88.3107C92.9675 90.0578 93.7922 91.4841 94.3703 92.4746C94.6593 92.9699 94.8867 93.3564 95.0422 93.6196C95.12 93.7513 95.1798 93.8521 95.2203 93.9203L95.2666 93.9981L95.2826 94.0249C95.6435 94.6293 96.2961 95 97 95C97.7039 95 98.3565 94.6293 98.7174 94.0249ZM97 27C107.71 27 116 35.3549 116 46.25C116 48.721 114.834 52.7674 112.862 57.7024C110.926 62.5462 108.332 67.9655 105.72 73.059C103.112 78.1465 100.501 82.8782 98.5408 86.3399C97.9652 87.3567 97.446 88.2632 97 89.0364C96.554 88.2632 96.0348 87.3567 95.4592 86.3399C93.4992 82.8782 90.8883 78.1465 88.2797 73.059C85.6679 67.9655 83.0743 62.5462 81.1384 57.7024C79.1662 52.7674 78 48.721 78 46.25C78 35.7413 86.6723 27 97 27ZM95.2826 94.0249C95.2826 94.0249 95.283 94.0256 97 93L95.2826 94.0249ZM97 93L98.7174 94.0249C98.7174 94.0249 98.717 94.0256 97 93Z" fill="black"/>
<path d="M30 26C31.1046 26 32 26.8954 32 28V32H36C37.1046 32 38 32.8954 38 34C38 35.1046 37.1046 36 36 36H32V40C32 41.1046 31.1046 42 30 42C28.8954 42 28 41.1046 28 40V36H24C22.8954 36 22 35.1046 22 34C22 32.8954 22.8954 32 24 32H28V28C28 26.8954 28.8954 26 30 26Z" fill="black"/>
<path d="M181 45L177 41L173 45L177 49L181 45Z" fill="black"/>
<path fill-rule="evenodd" clip-rule="evenodd" d="M158 179.5L149.5 171L141 179.5L149.5 188L158 179.5ZM149.5 182.333L146.667 179.5L149.5 176.667L152.333 179.5L149.5 182.333Z" fill="black"/>
<path fill-rule="evenodd" clip-rule="evenodd" d="M42 130C42 126.134 45.134 123 49 123C52.866 123 56 126.134 56 130C56 133.866 52.866 137 49 137C45.134 137 42 133.866 42 130ZM49 127C47.3431 127 46 128.343 46 130C46 131.657 47.3431 133 49 133C50.6569 133 52 131.657 52 130C52 128.343 50.6569 127 49 127Z" fill="black"/>
<path fill-rule="evenodd" clip-rule="evenodd" d="M49 102C45.134 102 42 105.134 42 109C42 112.866 45.134 116 49 116C52.866 116 56 112.866 56 109C56 105.134 52.866 102 49 102ZM46 109C46 107.343 47.3431 106 49 106C50.6569 106 52 107.343 52 109C52 110.657 50.6569 112 49 112C47.3431 112 46 110.657 46 109Z" fill="black"/>
<path fill-rule="evenodd" clip-rule="evenodd" d="M62.6977 67.3167C63.29 66.9367 64.0385 66.8959 64.6685 67.2093L82.3711 76.0156C83.3601 76.5076 83.763 77.7081 83.271 78.6971C82.779 79.686 81.5785 80.0889 80.5896 79.597L65.9997 72.3391L65.9995 145.025L97 159.674V105.5C97 104.395 97.8954 103.5 99 103.5C100.105 103.5 101 104.395 101 105.5V159.775L127 145.095V72.1421L112.745 78.5018C111.736 78.9518 110.554 78.4989 110.104 77.4902C109.654 76.4814 110.107 75.2989 111.116 74.8488L128.319 67.1735C128.895 66.9165 129.559 66.9463 130.109 67.2539L165.975 87.2872C166.608 87.6406 167 88.3086 167 89.0332V163C167 163.684 166.65 164.321 166.073 164.688C165.495 165.055 164.771 165.101 164.151 164.811L129.306 148.477C129.242 148.486 129.177 148.493 129.111 148.497L100.34 164.742C99.9823 164.943 99.5769 165.028 99.1788 164.992C99.1199 164.997 99.0603 165 99 165C98.4126 165 97.8844 164.747 97.5185 164.344L63.8594 148.438L34.9833 164.742C34.3641 165.091 33.6058 165.086 32.9917 164.727C32.3776 164.369 32 163.711 32 163V88.1057C32 87.4245 32.3467 86.7902 32.92 86.4224L62.6977 67.3167ZM163 159.854V90.207L131 72.3331V144.853L163 159.854ZM61.9995 144.894L61.9997 72.5171L36 89.1987V159.574L61.9995 144.894Z" fill="black"/>
</svg>
