<svg width="96" height="96" viewBox="0 0 96 96" fill="none" xmlns="http://www.w3.org/2000/svg">
<g opacity="0.2">
<path d="M48.8894 45.6542C52.3356 39.7465 61 24.3094 61 18.4375C61 11.108 55.1091 5 47.5 5C40.1364 5 34 11.108 34 18.4375C34 24.3094 42.6644 39.7465 46.1106 45.6542C46.7391 46.7315 48.2609 46.7315 48.8894 45.6542Z" fill="black"/>
<path d="M24.9084 79.2837L41.5836 87.7702C42.6896 88.3331 44 87.5296 44 86.2886V53.8097C44 53.5247 43.9267 53.2445 43.7872 52.9959L40 46.25L34.2852 36.5552C34.1002 36.2414 33.8173 35.997 33.4799 35.8597L26.2893 32.9321C25.196 32.4869 24 33.2913 24 34.4718V77.8022C24 78.4276 24.351 79.0001 24.9084 79.2837Z" fill="black"/>
<path d="M91.1137 48.6749L71.4386 38.2874C70.3315 37.7029 69 38.5056 69 39.7576V83.9523C69 84.5925 69.3676 85.1758 69.9452 85.452L89.6203 94.8619C90.7237 95.3896 92 94.5853 92 93.3622V50.1451C92 49.5286 91.6589 48.9628 91.1137 48.6749Z" fill="black"/>
<path d="M20 72.5C20 74.433 18.433 76 16.5 76C14.567 76 13 74.433 13 72.5C13 70.567 14.567 69 16.5 69C18.433 69 20 70.567 20 72.5Z" fill="black"/>
<path d="M16.5 62C18.433 62 20 60.433 20 58.5C20 56.567 18.433 55 16.5 55C14.567 55 13 56.567 13 58.5C13 60.433 14.567 62 16.5 62Z" fill="black"/>
</g>
<path fill-rule="evenodd" clip-rule="evenodd" d="M44 10.5C40.4101 10.5 37.5 13.4101 37.5 17C37.5 20.5899 40.4101 23.5 44 23.5C47.5899 23.5 50.5 20.5899 50.5 17C50.5 13.4101 47.5899 10.5 44 10.5ZM40.5 17C40.5 15.067 42.067 13.5 44 13.5C45.933 13.5 47.5 15.067 47.5 17C47.5 18.933 45.933 20.5 44 20.5C42.067 20.5 40.5 18.933 40.5 17Z" fill="black"/>
<path fill-rule="evenodd" clip-rule="evenodd" d="M45.2824 45.2781L45.283 45.2771L45.3227 45.2115L45.354 45.1597L45.4375 45.0208C45.5377 44.854 45.6841 44.6093 45.8702 44.2957C46.2422 43.6685 46.7729 42.7657 47.4094 41.6599C48.6818 39.4493 50.3801 36.422 52.0801 33.1607C53.7778 29.904 55.4894 26.3908 56.7803 23.2134C58.043 20.1057 59 17.0951 59 14.9375C59 6.52865 52.4309 0 44 0C35.8145 0 29 6.77297 29 14.9375C29 17.0951 29.957 20.1057 31.2197 23.2134C32.5106 26.3908 34.2222 29.904 35.9199 33.1607C37.6199 36.422 39.3182 39.4493 40.5906 41.6599C41.2271 42.7657 41.7578 43.6685 42.1298 44.2957C42.3159 44.6093 42.4623 44.854 42.5625 45.0208L42.6334 45.1387L42.6773 45.2115L42.717 45.2771L42.7176 45.2781C42.9896 45.726 43.4759 46 44 46C44.5241 46 45.0104 45.726 45.2824 45.2781ZM44 3C50.7872 3 56 8.19862 56 14.9375C56 16.4447 55.2695 18.9618 54.0009 22.0842C52.7606 25.1369 51.0972 28.5562 49.4199 31.774C47.7449 34.9871 46.0682 37.9761 44.8093 40.1633C44.5147 40.6752 44.2431 41.1429 44 41.5589C43.7569 41.1429 43.4853 40.6752 43.1907 40.1633C41.9318 37.9761 40.2551 34.9871 38.5801 31.774C36.9028 28.5562 35.2394 25.1369 33.9991 22.0842C32.7305 18.9618 32 16.4447 32 14.9375C32 8.44294 37.4582 3 44 3ZM42.7176 45.2781C42.7176 45.2781 42.7179 45.2785 44 44.5L42.7176 45.2781ZM44 44.5L45.2824 45.2781C45.2824 45.2781 45.2821 45.2785 44 44.5Z" fill="black"/>
<path fill-rule="evenodd" clip-rule="evenodd" d="M9 69C9 66.2386 11.2386 64 14 64C16.7614 64 19 66.2386 19 69C19 71.7614 16.7614 74 14 74C11.2386 74 9 71.7614 9 69ZM14 67C12.8954 67 12 67.8954 12 69C12 70.1046 12.8954 71 14 71C15.1046 71 16 70.1046 16 69C16 67.8954 15.1046 67 14 67Z" fill="black"/>
<path fill-rule="evenodd" clip-rule="evenodd" d="M14 50C11.2386 50 9 52.2386 9 55C9 57.7614 11.2386 60 14 60C16.7614 60 19 57.7614 19 55C19 52.2386 16.7614 50 14 50ZM12 55C12 53.8954 12.8954 53 14 53C15.1046 53 16 53.8954 16 55C16 56.1046 15.1046 57 14 57C12.8954 57 12 56.1046 12 55Z" fill="black"/>
<path fill-rule="evenodd" clip-rule="evenodd" d="M24.1966 28.9328C23.7206 28.6832 23.1475 28.7073 22.6942 28.9961L2.69418 41.7346C2.2618 42.01 2 42.4872 2 42.9998V90.1086C2 90.6297 2.27048 91.1135 2.71443 91.3864C3.15838 91.6593 3.71217 91.6823 4.17718 91.447L24.6351 81.0965L43.7878 91.4287C44.2308 91.6677 44.7642 91.6686 45.2079 91.431L64.5435 81.0805L86.8672 91.4685C87.3317 91.6847 87.8744 91.6488 88.3064 91.3733C88.7385 91.0979 89 90.6209 89 90.1086V41.9998C89 41.4361 88.6839 40.92 88.1818 40.6637L65.1784 28.9251C64.7744 28.719 64.2989 28.7067 63.8848 28.8917L52.9448 33.7783C52.1884 34.1162 51.8491 35.0033 52.187 35.7597C52.5248 36.5161 53.4119 36.8553 54.1683 36.5175L62.9796 32.5817L62.9797 78.5147L45.9745 87.6178C45.9759 87.5918 45.9766 87.5655 45.9766 87.5391V53.5391C45.9766 52.7106 45.305 52.0391 44.4766 52.0391C43.6481 52.0391 42.9766 52.7106 42.9766 53.5391V87.5391L42.9766 87.5471C42.9766 87.559 42.9768 87.5709 42.9772 87.5827L25.3695 78.084C25.2518 78.0205 25.1276 77.9738 25.0003 77.9439L25 32.7414L33.4966 37.1964C34.2303 37.5811 35.1369 37.2982 35.5216 36.5645C35.9063 35.8308 35.6234 34.9242 34.8897 34.5395L24.1966 28.9328ZM65.9797 78.4399L65.9796 32.702L86 42.9184V87.7561L65.9797 78.4399ZM22 32.995L22.0003 79.0674L5 87.6686V43.8228L22 32.995Z" fill="black"/>
</svg>
