<svg width="48" height="48" viewBox="0 0 48 48" fill="none" xmlns="http://www.w3.org/2000/svg">
<g opacity="0.2">
<path d="M25.1719 23.9203C26.8376 21.005 30.9811 13.4649 30.9811 10.592C30.9811 6.99636 28.1489 4 24.4906 4C20.9503 4 18 6.99636 18 10.592C18 13.4649 22.1435 21.0051 23.8093 23.9203C24.1144 24.4543 24.8667 24.4543 25.1719 23.9203Z" fill="black"/>
<path d="M13.3939 39.2363L21.7713 44.2628C22.312 44.5872 23 44.1977 23 43.5671V28.2348C23 28.0814 22.9565 27.9312 22.8746 27.8015L17.1208 18.6913C17.0418 18.5661 16.93 18.465 16.7977 18.3988L14.1742 17.0871C13.6347 16.8174 13 17.2096 13 17.8127V38.5406C13 38.8256 13.1495 39.0897 13.3939 39.2363Z" fill="black"/>
<path d="M46.6105 26.7629L36.7332 20.7506C36.1925 20.4215 35.5 20.8107 35.5 21.4437V39.5908C35.5 39.8482 35.6221 40.0903 35.8291 40.2432L45.7064 47.5439C46.242 47.9397 47 47.5574 47 46.8914V27.456C47 27.1728 46.8524 26.9101 46.6105 26.7629Z" fill="black"/>
<path d="M11 30C11 31.1046 10.1046 32 9 32C7.89543 32 7 31.1046 7 30C7 28.8954 7.89543 28 9 28C10.1046 28 11 28.8954 11 30Z" fill="black"/>
<path d="M9 38C10.1046 38 11 37.1046 11 36C11 34.8954 10.1046 34 9 34C7.89543 34 7 34.8954 7 36C7 37.1046 7.89543 38 9 38Z" fill="black"/>
</g>
<path fill-rule="evenodd" clip-rule="evenodd" d="M22.5 5C20.567 5 19 6.567 19 8.5C19 10.433 20.567 12 22.5 12C24.433 12 26 10.433 26 8.5C26 6.567 24.433 5 22.5 5ZM21 8.5C21 7.67157 21.6716 7 22.5 7C23.3284 7 24 7.67157 24 8.5C24 9.32843 23.3284 10 22.5 10C21.6716 10 21 9.32843 21 8.5Z" fill="black"/>
<path fill-rule="evenodd" clip-rule="evenodd" d="M23.339 23.5442L23.344 23.5364L23.3588 23.5135L23.415 23.426C23.4639 23.3497 23.5351 23.2381 23.6253 23.0948C23.8058 22.8084 24.0629 22.3955 24.371 21.8866C24.9868 20.8697 25.809 19.4654 26.6326 17.9191C27.4546 16.3757 28.2866 14.6747 28.9156 13.0672C29.5336 11.4879 30 9.89053 30 8.59198C30 6.16385 29.2104 4.23299 27.8066 2.91415C26.4137 1.60563 24.5233 1 22.5 1C18.4451 1 15 3.91072 15 8.59198C15 9.89053 15.4664 11.4879 16.0844 13.0672C16.7134 14.6747 17.5454 16.3757 18.3674 17.9191C19.191 19.4654 20.0132 20.8697 20.629 21.8866C20.9371 22.3955 21.1942 22.8084 21.3747 23.0948C21.4649 23.2381 21.5361 23.3497 21.585 23.426L21.6412 23.5135L21.656 23.5364L21.6614 23.5447C21.8458 23.8285 22.1615 24 22.5 24C22.8385 24 23.1545 23.828 23.339 23.5442ZM22.5 3C24.1351 3 25.4946 3.48635 26.4372 4.37181C27.3687 5.24696 28 6.6121 28 8.59198C28 9.49744 27.6539 10.8031 27.0531 12.3385C26.4634 13.8458 25.6704 15.4712 24.8674 16.9789C24.066 18.4836 23.2632 19.8548 22.6602 20.8507C22.6051 20.9417 22.5516 21.0297 22.5 21.1142C22.4484 21.0297 22.3949 20.9417 22.3398 20.8507C21.7368 19.8548 20.934 18.4836 20.1326 16.9789C19.3296 15.4712 18.5366 13.8458 17.9469 12.3385C17.3461 10.8031 17 9.49744 17 8.59198C17 5.08928 19.4742 3 22.5 3ZM21.6614 23.5447C21.6614 23.5447 21.6616 23.545 22.5 23L21.6614 23.5447ZM22.5 23L23.339 23.5442C23.339 23.5442 23.3384 23.545 22.5 23Z" fill="black"/>
<path d="M10 29C10 30.1046 9.10457 31 8 31C6.89543 31 6 30.1046 6 29C6 27.8954 6.89543 27 8 27C9.10457 27 10 27.8954 10 29Z" fill="black"/>
<path d="M8 37C9.10457 37 10 36.1046 10 35C10 33.8954 9.10457 33 8 33C6.89543 33 6 33.8954 6 35C6 36.1046 6.89543 37 8 37Z" fill="black"/>
<path fill-rule="evenodd" clip-rule="evenodd" d="M33.5369 14.1563C33.1803 13.9294 32.7197 13.9512 32.3861 14.2106L27.8861 17.7106C27.4501 18.0497 27.3716 18.678 27.7106 19.1139C28.0497 19.5499 28.678 19.6284 29.1139 19.2894L31.9996 17.0449L31.9996 37.0003L24 43V28C24 27.4477 23.5523 27 23 27C22.4477 27 22 27.4477 22 28V43.2338L14.0449 38.4608L14.0449 17.7127L15.8492 19.2593C16.2685 19.6187 16.8998 19.5701 17.2593 19.1508C17.6187 18.7315 17.5701 18.1002 17.1508 17.7407L13.6508 14.7407C13.3139 14.452 12.827 14.4197 12.455 14.6616L2.45501 21.1616C2.17122 21.346 2 21.6615 2 22V45.0001C2 45.3604 2.19379 45.6928 2.5073 45.8703C2.82081 46.0478 3.20557 46.0429 3.5145 45.8576L13 40.1662L22.4855 45.8575C22.8341 46.0667 23.2747 46.0439 23.6 45.8L33.0091 38.7431L43.4118 46.3087C43.716 46.53 44.1186 46.5618 44.4538 46.3911C44.7889 46.2204 45 45.8761 45 45.5V22C45 21.6581 44.8253 21.3399 44.5369 21.1563L33.5369 14.1563ZM33.9996 36.9904L33.9996 16.8214L43 22.5489V43.5362L33.9996 36.9904ZM12.0449 17.3135L12.0449 38.4069L4 43.2339V22.5427L12.0449 17.3135Z" fill="black"/>
</svg>
