<svg width="96" height="96" viewBox="0 0 96 96" fill="none" xmlns="http://www.w3.org/2000/svg">
<path opacity="0.2" fill-rule="evenodd" clip-rule="evenodd" d="M24 45C22.3431 45 21 46.3431 21 48V90C21 91.6569 22.3431 93 24 93H79C81.7614 93 84 90.7614 84 88V48C84 46.3431 82.6569 45 81 45H24ZM52.2976 66.616C52.7086 69.1816 53.4616 72.3019 54.0155 74.4482C54.347 75.7331 53.3815 77 52.0546 77H42.9454C41.6185 77 40.653 75.7331 40.9845 74.4482C41.5384 72.3019 42.2914 69.1816 42.7024 66.616C40.1772 65.022 38.5 62.2069 38.5 59C38.5 54.0294 42.5294 50 47.5 50C52.4706 50 56.5 54.0294 56.5 59C56.5 62.2069 54.8228 65.022 52.2976 66.616Z" fill="black"/>
<path fill-rule="evenodd" clip-rule="evenodd" d="M54.0155 74.4482C53.4616 72.3019 52.7086 69.1816 52.2976 66.616C54.8228 65.022 56.5 62.2069 56.5 59C56.5 54.0294 52.4706 50 47.5 50C42.5294 50 38.5 54.0294 38.5 59C38.5 62.2069 40.1772 65.022 42.7024 66.616C42.2914 69.1816 41.5384 72.3019 40.9845 74.4482C40.653 75.7331 41.6185 77 42.9454 77H52.0546C53.3815 77 54.347 75.7331 54.0155 74.4482ZM50.6962 64.0792C49.6808 64.7202 49.1455 65.9048 49.3354 67.0905C49.6953 69.3372 50.2945 71.9423 50.8069 74H44.1931C44.7055 71.9423 45.3047 69.3372 45.6646 67.0905C45.8545 65.9048 45.3192 64.7202 44.3038 64.0792C42.6126 63.0116 41.5 61.1347 41.5 59C41.5 55.6863 44.1863 53 47.5 53C50.8137 53 53.5 55.6863 53.5 59C53.5 61.1347 52.3874 63.0116 50.6962 64.0792Z" fill="black"/>
<path fill-rule="evenodd" clip-rule="evenodd" d="M24 26.4961V38H18.5C16.0147 38 14 40.0147 14 42.5V84.5C14 86.9853 16.0147 89 18.5 89H75.5C77.9853 89 80 86.9853 80 84.5V42.5C80 40.0147 77.9853 38 75.5 38H70V26.4961C70 13.8712 59.9323 3 47 3C34.0677 3 24 13.8712 24 26.4961ZM47 6C58.1696 6 67 15.4201 67 26.4961V38H27V26.4961C27 15.4201 35.8304 6 47 6ZM18.5 41H75.5C76.3284 41 77 41.6716 77 42.5V84.5C77 85.3284 76.3284 86 75.5 86H18.5C17.6716 86 17 85.3284 17 84.5V42.5C17 41.6716 17.6716 41 18.5 41Z" fill="black"/>
</svg>
