<svg width="48" height="48" viewBox="0 0 48 48" fill="none" xmlns="http://www.w3.org/2000/svg">
<path opacity="0.2" fill-rule="evenodd" clip-rule="evenodd" d="M12 22C10.8954 22 10 22.8954 10 24V43C10 45.2091 11.7909 47 14 47H38C40.2091 47 42 45.2091 42 43V26C42 23.7909 40.2091 22 38 22H12ZM18 29C18 26.2386 20.2386 24 23 24C25.7614 24 28 26.2386 28 29C28 30.7365 27.1076 32.3207 25.6654 33.2311L25.724 33.5808C25.87 34.4164 26.0795 35.3868 26.3342 36.4406C26.6485 37.7409 25.6709 39 24.3546 39H21.6454C20.3292 39 19.3515 37.7409 19.6658 36.4407C19.957 35.2361 20.1889 34.1408 20.3346 33.2311L20.1414 33.1028C18.8131 32.1764 18 30.6576 18 29Z" fill="black"/>
<path fill-rule="evenodd" clip-rule="evenodd" d="M23 24C20.2386 24 18 26.2386 18 29C18 30.6576 18.8131 32.1764 20.1414 33.1028L20.3346 33.2311C20.1889 34.1408 19.957 35.2361 19.6658 36.4407C19.3515 37.7409 20.3292 39 21.6454 39H24.3546C25.6709 39 26.6485 37.7409 26.3342 36.4406C26.0795 35.3868 25.87 34.4164 25.724 33.5808L25.6654 33.2311C27.1076 32.3207 28 30.7365 28 29C28 26.2386 25.7614 24 23 24ZM23 26C24.6569 26 26 27.3431 26 29C26 29.9779 25.5301 30.8732 24.7565 31.4326L24.5977 31.5399C23.9208 31.9672 23.5639 32.757 23.6905 33.5474C23.8459 34.5173 24.0878 35.6598 24.3902 36.9105C24.4018 36.9586 24.3697 37 24.3546 37H21.6454C21.6303 37 21.5982 36.9586 21.6098 36.9106C21.9122 35.6595 22.1541 34.5172 22.3095 33.5474C22.4276 32.8097 22.1246 32.0725 21.5333 31.6301L21.4023 31.5399C20.5347 30.9922 20 30.0431 20 29C20 27.3431 21.3431 26 23 26Z" fill="black"/>
<path fill-rule="evenodd" clip-rule="evenodd" d="M12 12.4409V18H9C7.34315 18 6 19.3431 6 21V42C6 43.6569 7.34315 45 9 45H37C38.6569 45 40 43.6569 40 42V21C40 19.3431 38.6569 18 37 18H34V12.4409C34 6.1899 29.3593 1 23 1C16.6407 1 12 6.1899 12 12.4409ZM23 3C28.1438 3 32 7.18017 32 12.4409V18H14V12.4409C14 7.18017 17.8562 3 23 3ZM9 20H37C37.5523 20 38 20.4477 38 21V42C38 42.5523 37.5523 43 37 43H9C8.44772 43 8 42.5523 8 42V21C8 20.4477 8.44771 20 9 20Z" fill="black"/>
</svg>
