<svg width="196" height="196" viewBox="0 0 196 196" fill="none" xmlns="http://www.w3.org/2000/svg">
<path opacity="0.07" fill-rule="evenodd" clip-rule="evenodd" d="M194 96.0001C187.129 51.8731 174.674 33.5474 164 28.0001C160.57 26.2176 157.685 24.3587 154.818 22.5112C143.896 15.4736 133.231 8.60172 93.672 6.74655C43.7279 4.40437 34.3857 18.2095 18.75 45.5001C3.11422 72.7908 -11.4804 127.4 14.1957 163C34.7982 191.566 65.3493 189.827 97.0234 188.025C104.824 187.581 112.692 187.133 120.496 187.133C172.914 187.133 200.871 140.127 194 96.0001ZM43 81H145C148.866 81 152 84.134 152 88V159C152 162.866 148.866 166 145 166H43C39.134 166 36 162.866 36 159V88C36 84.134 39.134 81 43 81Z" fill="black"/>
<path opacity="0.2" fill-rule="evenodd" clip-rule="evenodd" d="M49 90C46.7909 90 45 91.7909 45 94V166C45 169.866 48.134 173 52 173H149C154.523 173 159 168.523 159 163V97C159 93.134 155.866 90 152 90H49ZM101.463 127.847C102.2 132.45 103.646 138.202 104.507 141.452C104.847 142.735 103.882 144 102.555 144H85.4455C84.1185 144 83.1534 142.735 83.4932 141.452C84.3543 138.202 85.7998 132.45 86.5371 127.847C82.6091 125.368 80 120.988 80 116C80 108.268 86.268 102 94 102C101.732 102 108 108.268 108 116C108 120.988 105.391 125.368 101.463 127.847Z" fill="black"/>
<path d="M131 9L135 13L131 17L127 13L131 9Z" fill="black"/>
<path d="M13 44C14.1046 44 15 44.8954 15 46V50H19C20.1046 50 21 50.8954 21 52C21 53.1046 20.1046 54 19 54H15V58C15 59.1046 14.1046 60 13 60C11.8954 60 11 59.1046 11 58V54H7C5.89543 54 5 53.1046 5 52C5 50.8954 5.89543 50 7 50H11V46C11 44.8954 11.8954 44 13 44Z" fill="black"/>
<path fill-rule="evenodd" clip-rule="evenodd" d="M195 150.5L186.5 142L178 150.5L186.5 159L195 150.5ZM186.5 153.333L183.667 150.5L186.5 147.667L189.333 150.5L186.5 153.333Z" fill="black"/>
<path fill-rule="evenodd" clip-rule="evenodd" d="M104.507 141.452C103.646 138.202 102.2 132.45 101.463 127.847C105.391 125.368 108 120.988 108 116C108 108.268 101.732 102 94 102C86.268 102 80 108.268 80 116C80 120.988 82.6091 125.368 86.5371 127.847C85.7998 132.45 84.3543 138.202 83.4932 141.452C83.1534 142.735 84.1185 144 85.4455 144H102.555C103.882 144 104.847 142.735 104.507 141.452ZM99.3278 124.465C97.974 125.319 97.2602 126.899 97.5134 128.48C98.1165 132.245 99.1594 136.683 99.9988 140H88.0013C88.8408 136.683 89.8836 132.245 90.4867 128.48C90.74 126.899 90.0261 125.319 88.6723 124.465C85.8562 122.687 84 119.559 84 116C84 110.477 88.4772 106 94 106C99.5229 106 104 110.477 104 116C104 119.559 102.144 122.687 99.3278 124.465Z" fill="black"/>
<path fill-rule="evenodd" clip-rule="evenodd" d="M54 55.6929V81H43C39.134 81 36 84.134 36 88V159C36 162.866 39.134 166 43 166H145C148.866 166 152 162.866 152 159V88C152 84.134 148.866 81 145 81H137V55.6929C137 33.2162 118.254 15 95.5 15C72.7456 15 54 33.2162 54 55.6929ZM95.5 19C116.129 19 133 35.5082 133 55.6929V81H58V55.6929C58 35.5082 74.8709 19 95.5 19ZM40 88C40 86.3431 41.3431 85 43 85H145C146.657 85 148 86.3431 148 88V159C148 160.657 146.657 162 145 162H43C41.3431 162 40 160.657 40 159V88Z" fill="black"/>
</svg>
