<svg width="196" height="196" viewBox="0 0 196 196" fill="none" xmlns="http://www.w3.org/2000/svg">
<path opacity="0.07" fill-rule="evenodd" clip-rule="evenodd" d="M163.535 20.8526C125.139 -2.71816 75.8727 10.9707 45.6208 25.4389C30.7586 32.5468 19.8625 44.3673 9.98688 82.6749C0.111301 120.983 16.6581 167.709 43.6084 180.353C70.5587 192.997 124.853 193.895 163.385 165.173C201.917 136.451 197.273 41.5646 163.535 20.8526ZM141 127V153H86.2817C54.2396 153 30 127.425 30 95.5C30 63.5746 54.2078 38 86.2817 38L141 38V63H87.9526C70.2402 63 56 78.1116 56 95.8282C56 104.687 58.8416 111.958 64.6614 117.747C70.4495 123.569 79.0964 127 87.9526 127L141 127Z" fill="black"/>
<g opacity="0.2">
<path d="M146 46L146 65C146 66.6569 144.657 68 143 68H128C126.343 68 125 66.6569 125 65L125 46C125 44.3431 126.343 43 128 43H143C144.657 43 146 44.3431 146 46Z" fill="black"/>
<path d="M146 135L146 155C146 156.657 144.657 158 143 158H128C126.343 158 125 156.657 125 155L125 135C125 133.343 126.343 132 128 132H143C144.657 132 146 133.343 146 135Z" fill="black"/>
<path d="M174.627 57.0196C173.985 57.9184 172.736 58.1266 171.838 57.4846L164 51.8864V59C164 59.7492 163.581 60.4355 162.915 60.7783C162.249 61.1211 161.447 61.0629 160.838 60.6275L149.838 52.7703C148.939 52.1283 148.731 50.8792 149.373 49.9804C150.015 49.0816 151.264 48.8734 152.162 49.5154L160 55.1136V48C160 47.2508 160.419 46.5645 161.085 46.2217C161.751 45.8789 162.553 45.9371 163.162 46.3725L174.162 54.2297C175.061 54.8717 175.269 56.1208 174.627 57.0196Z" fill="black"/>
<path d="M172.042 144.756C173.012 145.285 174.227 144.927 174.756 143.958C175.285 142.988 174.927 141.773 173.958 141.244L162.958 135.244C162.338 134.906 161.586 134.92 160.979 135.28C160.372 135.641 160 136.294 160 137V142.216L152.127 136.848C151.214 136.225 149.97 136.461 149.348 137.373C148.725 138.286 148.961 139.53 149.873 140.152L160.873 147.652C161.486 148.07 162.279 148.115 162.935 147.768C163.59 147.422 164 146.741 164 146V140.369L172.042 144.756Z" fill="black"/>
</g>
<path d="M174 22C174 20.8954 173.105 20 172 20C170.895 20 170 20.8954 170 22V26H166C164.895 26 164 26.8954 164 28C164 29.1046 164.895 30 166 30H170V34C170 35.1046 170.895 36 172 36C173.105 36 174 35.1046 174 34V30H178C179.105 30 180 29.1046 180 28C180 26.8954 179.105 26 178 26H174V22Z" fill="black"/>
<path fill-rule="evenodd" clip-rule="evenodd" d="M23.2883 153L32.5767 162.288L23.2883 171.577L14 162.288L23.2883 153ZM20.1922 162.288L23.2883 165.384L26.3844 162.288L23.2883 159.192L20.1922 162.288Z" fill="black"/>
<path d="M41.371 175L45.742 179.371L41.371 183.742L37 179.371L41.371 175Z" fill="black"/>
<path d="M68.715 49.9708C69.2833 50.918 68.9762 52.1465 68.029 52.7148L63.029 55.7148C62.0818 56.2831 60.8533 55.976 60.285 55.0288C59.7167 54.0816 60.0238 52.8531 60.971 52.2848L65.971 49.2848C66.9182 48.7165 68.1467 49.0237 68.715 49.9708Z" fill="black"/>
<path d="M58.2629 60.5509C59.1194 59.8534 59.2483 58.5936 58.5508 57.7371C57.8533 56.8806 56.5936 56.7518 55.7371 57.4492C49.6767 62.3845 44.3772 67.7525 41.1634 75.2084C40.7261 76.2227 41.194 77.3995 42.2083 77.8367C43.2227 78.2739 44.3994 77.8061 44.8366 76.7917C47.6769 70.2025 52.4005 65.325 58.2629 60.5509Z" fill="black"/>
<path fill-rule="evenodd" clip-rule="evenodd" d="M142.918 127.568C142.971 127.747 143 127.938 143 128.135V153C143 153.53 142.789 154.039 142.414 154.414C142.039 154.789 141.53 155 141 155H86.2817C53.0766 155 28 128.471 28 95.5C28 62.5301 53.0441 36 86.2817 36L141 36C141.53 36 142.039 36.2107 142.414 36.5858C142.789 36.9609 143 37.4696 143 38V62.8649C143 62.8875 143 62.91 142.999 62.9325C143 62.9549 143 62.9774 143 63C143 64.1046 142.105 65 141 65H87.9526C71.4141 65 58 79.1455 58 95.8282C58 104.209 60.6667 110.952 66.0719 116.329L66.0796 116.337C71.4603 121.749 79.5815 125 87.9526 125H141C142.105 125 143 125.895 143 127C143 127.197 142.971 127.388 142.918 127.568ZM139 129H122V151H139V129ZM139 61V40H122V61H139ZM118 61V40L86.2817 40C55.8737 40 32.7614 63.8257 32.0184 94H54.0478C54.9882 76.0445 69.6831 61 87.9526 61H118ZM54.0559 98H32.0514C33.2758 127.698 56.2406 151 86.2817 151H118V129H87.9526C78.6132 129 69.4424 125.39 63.2468 119.161C57.5048 113.447 54.4937 106.377 54.0559 98Z" fill="black"/>
</svg>
