<svg width="48" height="48" viewBox="0 0 48 48" fill="none" xmlns="http://www.w3.org/2000/svg">
<g opacity="0.2">
<path d="M44 7L44 14C44 14.5523 43.5523 15 43 15H38C37.4477 15 37 14.5523 37 14V7C37 6.44772 37.4477 6 38 6H43C43.5523 6 44 6.44772 44 7Z" fill="black"/>
<path d="M44 38L44 45C44 45.5523 43.5523 46 43 46H38C37.4477 46 37 45.5523 37 45V38C37 37.4477 37.4477 37 38 37H43C43.5523 37 44 37.4477 44 38Z" fill="black"/>
</g>
<path d="M19.9681 7.74967C20.1065 8.28434 19.7852 8.82995 19.2506 8.96834C19.0363 9.02381 18.7131 9.15076 18.3789 9.31785C18.0395 9.48758 17.7728 9.65669 17.6445 9.76483C17.2223 10.1208 16.5914 10.067 16.2354 9.64477C15.8795 9.2225 15.9332 8.59162 16.3555 8.23566C16.6586 7.98016 17.0852 7.72866 17.4845 7.529C17.8891 7.3267 18.3503 7.13546 18.7494 7.03215C19.2841 6.89376 19.8297 7.21501 19.9681 7.74967Z" fill="black"/>
<path d="M14.5936 11.8048C15.0381 11.4769 15.1326 10.8508 14.8047 10.4064C14.4769 9.96198 13.8508 9.86748 13.4063 10.1953C11.1055 11.8927 9.27393 14.097 8.09701 16.5704C7.85971 17.0691 8.07162 17.6658 8.57033 17.9031C9.06904 18.1404 9.66569 17.9284 9.90298 17.4297C10.9333 15.2645 12.5476 13.3142 14.5936 11.8048Z" fill="black"/>
<path fill-rule="evenodd" clip-rule="evenodd" d="M42 33C42.5523 33 43 33.4477 43 34C43 34.0009 43 34.0019 43 34.0028V44C43 44.2652 42.8946 44.5196 42.7071 44.7071C42.5196 44.8946 42.2652 45 42 45H23.7293C12.2734 45 3 35.5826 3 24.0055C3 12.4294 12.2615 3 23.7293 3H42C42.5523 3 43 3.44772 43 4V12C43 12.5523 42.5523 13 42 13H35.0009C35.0012 13 35.0006 13 35.0009 13C35.0006 13 34.9994 13 34.9991 13L23.8777 13C18.439 13 14 17.4727 14 23C14 23.0006 14 23.0013 14 23.0019C14.0005 25.7628 15.1114 28.2637 16.9028 30.0654L16.9066 30.0692C18.6885 31.881 21.1571 33 23.8777 33H42ZM41 5L36 5V11H41V5ZM34 11V5L23.7293 5C14.0602 5 6.09112 12.4443 5.10308 22H12.0408C12.5445 15.8543 17.6477 11 23.8777 11L34 11ZM12.0409 24H5L5 24.0055C5 34.5033 13.403 43 23.7293 43L34 43V35L23.8777 35C20.5976 35 17.6229 33.6488 15.4825 31.4735C13.5506 29.5296 12.2797 26.9091 12.0409 24ZM36 35V43H41V35H36Z" fill="black"/>
</svg>
