<svg width="196" height="196" viewBox="0 0 196 196" fill="none" xmlns="http://www.w3.org/2000/svg">
<path opacity="0.07" fill-rule="evenodd" clip-rule="evenodd" d="M163.535 20.8526C125.139 -2.71816 75.8727 10.9707 45.6208 25.4389C30.7586 32.5468 19.8625 44.3673 9.98688 82.6749C0.111301 120.983 16.6581 167.709 43.6084 180.353C70.5587 192.997 124.853 193.895 163.385 165.173C201.917 136.451 197.273 41.5646 163.535 20.8526ZM141 127V153H86.2817C54.2396 153 30 127.425 30 95.5C30 63.5746 54.2078 38 86.2817 38L141 38V63H87.9526C70.2402 63 56 78.1116 56 95.8282C56 104.687 58.8416 111.958 64.6614 117.747C70.4495 123.569 79.0964 127 87.9526 127L141 127Z" fill="black"/>
<g opacity="0.2">
<path d="M146 65L146 46C146 44.3431 144.657 43 143 43H128C126.343 43 125 44.3431 125 46L125 65C125 66.6569 126.343 68 128 68H143C144.657 68 146 66.6569 146 65Z" fill="black"/>
<path d="M146 155L146 135C146 133.343 144.657 132 143 132H128C126.343 132 125 133.343 125 135L125 155C125 156.657 126.343 158 128 158H143C144.657 158 146 156.657 146 155Z" fill="black"/>
<path d="M160.627 45.3325C161.626 44.8183 162.829 44.9056 163.744 45.5588L174.744 53.416C176.092 54.379 176.404 56.2526 175.441 57.6009C174.478 58.9491 172.605 59.2614 171.256 58.2984L165 53.8296V59C165 60.1238 164.372 61.1533 163.373 61.6675C162.374 62.1817 161.171 62.0944 160.256 61.4412L149.256 53.5841C147.908 52.621 147.596 50.7474 148.559 49.3992C149.522 48.0509 151.395 47.7386 152.744 48.7017L159 53.1704V48C159 46.8762 159.628 45.8467 160.627 45.3325Z" fill="black"/>
<path d="M160.469 134.42C161.379 133.88 162.507 133.859 163.437 134.366L174.437 140.366C175.891 141.16 176.427 142.982 175.634 144.437C174.84 145.891 173.018 146.427 171.563 145.634L165 142.054V146C165 147.112 164.385 148.133 163.402 148.652C162.419 149.172 161.229 149.105 160.31 148.479L149.31 140.979C147.941 140.045 147.588 138.179 148.521 136.81C149.455 135.441 151.321 135.088 152.69 136.021L159 140.324V137C159 135.941 159.558 134.961 160.469 134.42Z" fill="black"/>
</g>
<path d="M174 22C174 20.8954 173.105 20 172 20C170.895 20 170 20.8954 170 22V26H166C164.895 26 164 26.8954 164 28C164 29.1046 164.895 30 166 30H170V34C170 35.1046 170.895 36 172 36C173.105 36 174 35.1046 174 34V30H178C179.105 30 180 29.1046 180 28C180 26.8954 179.105 26 178 26H174V22Z" fill="black"/>
<path fill-rule="evenodd" clip-rule="evenodd" d="M23.2883 153L32.5767 162.288L23.2883 171.577L14 162.288L23.2883 153ZM20.1922 162.288L23.2883 165.384L26.3844 162.288L23.2883 159.192L20.1922 162.288Z" fill="black"/>
<path d="M41.371 175L45.742 179.371L41.371 183.742L37 179.371L41.371 175Z" fill="black"/>
<path d="M68.715 49.9708C69.2833 50.918 68.9762 52.1465 68.029 52.7148L63.029 55.7148C62.0818 56.2831 60.8533 55.976 60.285 55.0288C59.7167 54.0816 60.0238 52.8531 60.971 52.2848L65.971 49.2848C66.9182 48.7165 68.1467 49.0237 68.715 49.9708Z" fill="black"/>
<path d="M58.2629 60.5509C59.1194 59.8534 59.2483 58.5936 58.5508 57.7371C57.8533 56.8806 56.5936 56.7518 55.7371 57.4492C49.6767 62.3845 44.3772 67.7525 41.1634 75.2084C40.7261 76.2227 41.194 77.3995 42.2083 77.8367C43.2227 78.2739 44.3994 77.8061 44.8366 76.7917C47.6769 70.2025 52.4005 65.325 58.2629 60.5509Z" fill="black"/>
<path fill-rule="evenodd" clip-rule="evenodd" d="M142.918 127.568C142.971 127.747 143 127.938 143 128.135V153C143 153.53 142.789 154.039 142.414 154.414C142.039 154.789 141.53 155 141 155H86.2817C53.0766 155 28 128.471 28 95.5C28 62.5301 53.0441 36 86.2817 36L141 36C141.53 36 142.039 36.2107 142.414 36.5858C142.789 36.9609 143 37.4696 143 38V62.8649C143 62.8875 143 62.91 142.999 62.9325C143 62.9549 143 62.9774 143 63C143 64.1046 142.105 65 141 65H87.9526C71.4141 65 58 79.1455 58 95.8282C58 104.209 60.6667 110.952 66.0719 116.329L66.0796 116.337C71.4603 121.749 79.5815 125 87.9526 125H141C142.105 125 143 125.895 143 127C143 127.197 142.971 127.388 142.918 127.568ZM139 129H122V151H139V129ZM139 61V40H122V61H139ZM118 61V40L86.2817 40C55.8737 40 32.7614 63.8257 32.0184 94H54.0478C54.9882 76.0445 69.6831 61 87.9526 61H118ZM54.0559 98H32.0514C33.2758 127.698 56.2406 151 86.2817 151H118V129H87.9526C78.6132 129 69.4424 125.39 63.2468 119.161C57.5048 113.447 54.4937 106.377 54.0559 98Z" fill="black"/>
</svg>
