<svg width="96" height="96" viewBox="0 0 96 96" fill="none" xmlns="http://www.w3.org/2000/svg">
<g opacity="0.2">
<path d="M77 16L77 28C77 29.1046 76.1046 30 75 30H66C64.8954 30 64 29.1046 64 28V16C64 14.8954 64.8954 14 66 14H75C76.1046 14 77 14.8954 77 16Z" fill="black"/>
<path d="M77 73L77 86C77 87.1046 76.1046 88 75 88H66C64.8954 88 64 87.1046 64 86V73C64 71.8954 64.8954 71 66 71H75C76.1046 71 77 71.8954 77 73Z" fill="black"/>
<path d="M95.2793 22.0689C94.8467 22.7755 93.9233 22.9976 93.2168 22.565L89 19.9936V23.3164C89 23.8592 88.7067 24.3597 88.2332 24.625C87.7596 24.8903 87.1797 24.8791 86.7168 24.5957L79.2168 19.9936C78.5102 19.561 78.2882 18.6376 78.7207 17.9311C79.1533 17.2245 80.0767 17.0024 80.7832 17.435L86 20.6392V17.3164C86 16.7736 86.2933 16.2731 86.7668 16.0078C87.2404 15.7425 87.8203 15.7537 88.2832 16.0371L94.7832 20.0064C95.4898 20.439 95.7118 21.3624 95.2793 22.0689Z" fill="black"/>
<path d="M93.2168 81.565C93.9233 81.9976 94.8467 81.7755 95.2793 81.0689C95.7118 80.3624 95.4898 79.439 94.7832 79.0064L88.2832 74.8979C87.8203 74.6145 87.2404 74.6032 86.7668 74.8686C86.2933 75.1339 86 75.6344 86 76.1772V79.5L80.7832 76.435C80.0767 76.0024 79.1533 76.2245 78.7207 76.9311C78.2882 77.6376 78.5102 78.561 79.2168 78.9936L86.7168 83.4564C87.1797 83.7399 87.7596 83.7511 88.2332 83.4858C88.7067 83.2204 89 82.72 89 82.1772V78.8543L93.2168 81.565Z" fill="black"/>
</g>
<path d="M27.7481 17.6681C28.2076 18.3574 28.0213 19.2887 27.332 19.7482L24.332 21.7482C23.6428 22.2078 22.7114 22.0215 22.2519 21.3322C21.7924 20.6429 21.9787 19.7116 22.6679 19.2521L25.6679 17.2521C26.3572 16.7926 27.2885 16.9788 27.7481 17.6681Z" fill="black"/>
<path d="M20.4509 24.6601C21.0916 24.135 21.1852 23.1898 20.6601 22.5491C20.1349 21.9085 19.1898 21.8148 18.5491 22.34C14.6422 25.5424 11.2059 29.0413 9.12111 33.9095C8.79498 34.6711 9.14795 35.5528 9.90949 35.8789C10.671 36.205 11.5527 35.8521 11.8789 35.0905C13.6859 30.8708 16.6931 27.7403 20.4509 24.6601Z" fill="black"/>
<path fill-rule="evenodd" clip-rule="evenodd" d="M74.9146 68C74.9699 68.1564 75 68.3247 75 68.5V84.5C75 84.8978 74.842 85.2794 74.5607 85.5607C74.2794 85.842 73.8978 86 73.5 86H38.5C17.1241 86 0.999997 68.8186 1 47.5C1 26.182 17.1032 9 38.5 9H73.5C73.8978 9 74.2794 9.15804 74.5607 9.43934C74.842 9.72064 75 10.1022 75 10.5V26.5C75 27.3284 74.3284 28 73.5 28H39.5C29.0325 28 20.529 36.948 20.5204 47.5146C20.5205 47.52 20.5205 47.5254 20.5205 47.5308C20.5205 47.5362 20.5205 47.5416 20.5204 47.547C20.5239 52.8561 22.2139 57.1127 25.6294 60.5089L25.6352 60.5146C29.0394 63.9366 34.1873 66 39.5 66H73.5C74.3284 66 75 66.6716 75 67.5C75 67.6753 74.9699 67.8436 74.9146 68ZM72 69H62V83H72V69ZM59 69H39.5C33.4617 69 27.5269 66.6681 23.5114 62.6335C19.8116 58.9534 17.8633 54.4045 17.5619 49.0308H4.0299C4.77582 68.0739 19.3942 83 38.5 83H59V69ZM17.5702 46.0308C18.3335 34.5592 27.7752 25 39.5 25H59V12L38.5 12C19.3543 12 4.74336 26.9577 4.0275 46.0308H17.5702ZM62 25H72V12L62 12V25Z" fill="black"/>
</svg>
