<svg width="196" height="196" viewBox="0 0 196 196" fill="none" xmlns="http://www.w3.org/2000/svg">
<path opacity="0.07" fill-rule="evenodd" clip-rule="evenodd" d="M52.6883 172.589C52.8854 172.63 53.0445 172.662 53.1629 172.688C58.3213 173.824 62.6645 175.135 67.1211 176.48C78.2383 179.835 90.0605 183.403 117 185C154.739 187.237 170.536 164.835 185 121C199.464 77.1651 177.279 45.4535 143.5 18.0001C114.711 -5.39809 73.4026 11.7404 50.8641 21.0914C46.958 22.7121 43.6157 24.0988 41 25C23.2914 31.1017 10.529 53.4191 7.17624 108.877C3.92819 162.602 46.5749 171.337 52.6883 172.589ZM48 36C48 32.134 51.134 29 55 29H138C141.866 29 145 32.134 145 36V50H151C154.866 50 158 53.134 158 57V142C158 145.866 154.866 149 151 149H42C38.134 149 35 145.866 35 142V57C35 53.134 38.134 50 42 50H48V36Z" fill="black"/>
<path opacity="0.2" d="M44 77.1307L92.2476 108.27C94.8015 109.771 97.9567 109.746 100.487 108.204L150.712 75.1864C156.12 71.8927 163 75.8469 163 82.2487V147.764C163 152.313 159.367 156 154.886 156H52.1136C47.6326 156 44 152.313 44 147.764V77.1307Z" fill="black"/>
<path d="M55.0002 29C51.134 29 48.0001 32.1343 48.0001 36.0003L48.0002 60C48.0002 61.1046 48.8956 62 50.0002 62C51.1047 62 52.0002 61.1046 52.0002 60L52.0001 36.0002C52.0001 34.3433 53.3433 33 55.0002 33H138C139.657 33 141 34.3431 141 36V60C141 61.1046 141.895 62 143 62C144.105 62 145 61.1046 145 60V36C145 32.134 141.866 29 138 29H55.0002Z" fill="black"/>
<path d="M93 46C91.8954 46 91 46.8954 91 48C91 49.1046 91.8954 50 93 50H116C117.105 50 118 49.1046 118 48C118 46.8954 117.105 46 116 46H93Z" fill="black"/>
<path fill-rule="evenodd" clip-rule="evenodd" d="M43.7614 54L41.9999 54.0001C40.3431 54.0001 39 55.3433 39 57.0001V62.9196L96.5 100.609L154 62.9196V57C154 55.3431 152.657 54 151 54H149.239C148.134 54 147.239 53.1046 147.239 52C147.239 50.8954 148.134 50 149.239 50H151C154.866 50 158 53.134 158 57V142C158 145.866 154.866 149 151 149H42C38.134 149 35 145.866 35 142V57.0001C35 53.1342 38.1338 50.0002 41.9997 50.0001L43.7613 50C44.8659 50 45.7613 50.8953 45.7614 51.9999C45.7614 53.1045 44.866 54 43.7614 54ZM39 142C39 143.657 40.3431 145 42 145H151C152.657 145 154 143.657 154 142V67.7023L112.048 95.2004L145.393 127.565C146.186 128.334 146.204 129.6 145.435 130.393C144.666 131.186 143.4 131.204 142.607 130.435L108.62 97.4474L98.6928 103.954C97.3612 104.827 95.6388 104.827 94.3072 103.954L84.3808 97.4476L51.4142 130.414C50.6332 131.195 49.3668 131.195 48.5858 130.414C47.8047 129.633 47.8047 128.367 48.5858 127.586L80.9637 95.2079L39 67.7023V142Z" fill="black"/>
<path d="M91 59C91 57.8954 91.8954 57 93 57H129C130.105 57 131 57.8954 131 59C131 60.1046 130.105 61 129 61H93C91.8954 61 91 60.1046 91 59Z" fill="black"/>
<path d="M91 70C91 68.8954 91.8954 68 93 68H116C117.105 68 118 68.8954 118 70C118 71.1046 117.105 72 116 72H93C91.8954 72 91 71.1046 91 70Z" fill="black"/>
<path d="M166 30C167.105 30 168 30.8954 168 32V36H172C173.105 36 174 36.8954 174 38C174 39.1046 173.105 40 172 40H168V44C168 45.1046 167.105 46 166 46C164.895 46 164 45.1046 164 44V40H160C158.895 40 158 39.1046 158 38C158 36.8954 158.895 36 160 36H164V32C164 30.8954 164.895 30 166 30Z" fill="black"/>
<path d="M44.4761 166.789L48.7187 171.031L44.4761 175.274L40.2334 171.031L44.4761 166.789Z" fill="black"/>
<path fill-rule="evenodd" clip-rule="evenodd" d="M19.1716 40.3431L27.6568 48.8284L19.1716 57.3137L10.6863 48.8284L19.1716 40.3431ZM16.3431 48.8284L19.1716 51.6568L22 48.8284L19.1716 46L16.3431 48.8284Z" fill="black"/>
<path d="M77.2285 42.0034C75.1719 42.103 73.4512 43.6606 73.0726 45.7653C72.582 43.6333 70.7917 42.098 68.6859 42.0034C67.3516 41.9508 66.0634 42.5152 65.1674 43.5449C64.2714 44.5745 63.8596 45.9639 64.0427 47.3395C64.0427 51.7415 69.5355 55.809 71.8463 57.5202L71.9695 57.6115C72.5823 58.1295 73.4604 58.1295 74.0731 57.6115C74.1817 57.5282 74.301 57.4375 74.4296 57.3398C76.7306 55.5905 82 51.5846 82 47.3395C82 44.9916 81.333 42.0034 77.2285 42.0034Z" fill="black"/>
</svg>
