<svg width="96" height="96" viewBox="0 0 96 96" fill="none" xmlns="http://www.w3.org/2000/svg">
<path opacity="0.2" d="M8 37.9068L42.7483 59.4121C44.5725 60.4682 46.8262 60.4506 48.6337 59.3661L85.2228 36.8349C89.0856 34.5171 94 37.2997 94 41.8047V88.2043C94 91.4052 91.4053 94 88.2045 94H13.7955C10.5947 94 8 91.4052 8 88.2043V37.9068Z" fill="black"/>
<path d="M11.0001 7.50079C11 5.01591 13.0143 3 15.5001 3H75.5C77.9853 3 80 5.01472 80 7.5V25.5C80 26.3284 79.3284 27 78.5 27C77.6716 27 77 26.3284 77 25.5V7.5C77 6.67157 76.3284 6 75.5 6H15.5001C14.6721 6 14.0001 6.67183 14.0001 7.50073L14 25.5C14 26.3284 13.3284 27 12.5 27C11.6716 27 11 26.3284 11 25.5L11.0001 7.50079Z" fill="black"/>
<path d="M31.5539 13.0023C30.0686 13.0708 28.8259 14.1417 28.5525 15.5887C28.1981 14.1229 26.9052 13.0674 25.3843 13.0023C24.4206 12.9662 23.4902 13.3542 22.8431 14.0621C22.196 14.77 21.8986 15.7252 22.0308 16.6709C22.0308 19.6973 25.9979 22.4937 27.6668 23.6701L27.7558 23.7329C28.1983 24.089 28.8325 24.089 29.275 23.7329C29.3535 23.6756 29.4396 23.6133 29.5325 23.5461C31.1944 22.3434 35 19.5894 35 16.6709C35 15.0567 34.5183 13.0023 31.5539 13.0023Z" fill="black"/>
<path fill-rule="evenodd" clip-rule="evenodd" d="M1 23.5C1 21.0147 3.01472 19 5.5 19H7.5C8.32843 19 9 19.6716 9 20.5C9 21.3284 8.32843 22 7.5 22H5.5C4.67157 22 4 22.6716 4 23.5V27.8582L45.2319 54.0526C45.3955 54.1565 45.6045 54.1565 45.7681 54.0526L87 27.8582V23.5C87 22.6716 86.3284 22 85.5 22H83.5C82.6716 22 82 21.3284 82 20.5C82 19.6716 82.6716 19 83.5 19H85.5C87.9853 19 90 21.0147 90 23.5V85.5C90 87.9853 87.9853 90 85.5 90H5.5C3.01472 90 1 87.9853 1 85.5V23.5ZM87 31.4124L56.7508 50.6295L79.5607 73.4393C80.1464 74.0251 80.1464 74.9749 79.5607 75.5607C78.9749 76.1464 78.0251 76.1464 77.4393 75.5607L54.1564 52.2777L47.3768 56.5848C46.2314 57.3124 44.7686 57.3124 43.6232 56.5848L36.8436 52.2777L13.5607 75.5607C12.9749 76.1464 12.0251 76.1464 11.4393 75.5607C10.8536 74.9749 10.8536 74.0251 11.4393 73.4393L34.2492 50.6295L4 31.4124V85.5C4 86.3284 4.67157 87 5.5 87H85.5C86.3284 87 87 86.3284 87 85.5V31.4124Z" fill="black"/>
<path d="M42.5 24C41.6716 24 41 24.6716 41 25.5C41 26.3284 41.6716 27 42.5 27H68.5C69.3284 27 70 26.3284 70 25.5C70 24.6716 69.3284 24 68.5 24H42.5Z" fill="black"/>
<path d="M41 16.5C41 15.6716 41.6716 15 42.5 15H59.5C60.3284 15 61 15.6716 61 16.5C61 17.3284 60.3284 18 59.5 18H42.5C41.6716 18 41 17.3284 41 16.5Z" fill="black"/>
<path d="M42.5 33C41.6716 33 41 33.6716 41 34.5C41 35.3284 41.6716 36 42.5 36H58.5C59.3284 36 60 35.3284 60 34.5C60 33.6716 59.3284 33 58.5 33H42.5Z" fill="black"/>
</svg>
