<svg width="48" height="48" viewBox="0 0 48 48" fill="none" xmlns="http://www.w3.org/2000/svg">
<path opacity="0.2" d="M4 20.5L21.4697 30.614C22.414 31.1607 23.5806 31.1516 24.5163 30.5902L42.4565 19.2261C44.4561 18.0264 47 19.4667 47 21.7986V44C47 45.6569 45.6569 47 44 47H7C5.34315 47 4 45.6569 4 44V20.5Z" fill="black"/>
<path d="M8 13C8 13.5523 7.55228 14 7 14C6.44772 14 6 13.5523 6 13V4C6 2.34315 7.34315 1 9 1H37C38.6569 1 40 2.34315 40 4V13C40 13.5523 39.5523 14 39 14C38.4477 14 38 13.5523 38 13V4C38 3.44772 37.5523 3 37 3H9C8.44772 3 8 3.44772 8 4V13Z" fill="black"/>
<path d="M16.1566 6.00126C15.3549 6.03861 14.6842 6.6224 14.5366 7.41126C14.3454 6.61218 13.6475 6.03675 12.8266 6.00126C12.3065 5.98156 11.8043 6.1931 11.4551 6.57902C11.1058 6.96495 10.9453 7.48568 11.0166 8.00126C11.0166 9.65117 13.1578 11.1757 14.0586 11.8171L14.1066 11.8513C14.3455 12.0454 14.6878 12.0454 14.9266 11.8513C14.969 11.82 15.0155 11.7861 15.0656 11.7494C15.9626 11.0938 18.0166 9.59237 18.0166 8.00126C18.0166 7.12126 17.7566 6.00126 16.1566 6.00126Z" fill="black"/>
<path fill-rule="evenodd" clip-rule="evenodd" d="M41 10C41 10.5523 41.4477 11 42 11C42.5523 11 43 11.4477 43 12V14.0011L23.965 26.1963C23.3262 26.5851 22.5239 26.5851 21.8852 26.1963L3 14.0923V12C3 11.4477 3.44772 11 4 11C4.55228 11 5 10.5523 5 10C5 9.44772 4.55228 9 4 9C2.34315 9 1 10.3431 1 12V42C1 43.6569 2.34315 45 4 45H42C43.6569 45 45 43.6569 45 42V12C45 10.3431 43.6569 9 42 9C41.4477 9 41 9.44772 41 10ZM4 43C3.44772 43 3 42.5523 3 42V16.4337L17.0135 25.5723L6.29289 37.2929C5.90237 37.6834 5.90237 38.3166 6.29289 38.7071C6.68342 39.0976 7.31658 39.0976 7.70711 38.7071L18.7071 26.7071C18.7286 26.6856 18.749 26.6633 18.7681 26.6404L20.8453 27.9047C22.1228 28.6823 23.7274 28.6823 25.0049 27.9047L27.184 26.5783C27.2161 26.6235 27.2524 26.6666 27.2929 26.7071L39.2929 38.7071C39.6834 39.0976 40.3166 39.0976 40.7071 38.7071C41.0976 38.3166 41.0976 37.6834 40.7071 37.2929L28.9298 25.5156L43 16.3425V42C43 42.5523 42.5523 43 42 43H4Z" fill="black"/>
<path d="M21 8C21 8.55228 21.4477 9 22 9H30C30.5523 9 31 8.55228 31 8C31 7.44772 30.5523 7 30 7H22C21.4477 7 21 7.44772 21 8Z" fill="black"/>
<path d="M22 14C21.4477 14 21 13.5523 21 13C21 12.4477 21.4477 12 22 12H35C35.5523 12 36 12.4477 36 13C36 13.5523 35.5523 14 35 14H22Z" fill="black"/>
<path d="M21 18C21 18.5523 21.4477 19 22 19H30C30.5523 19 31 18.5523 31 18C31 17.4477 30.5523 17 30 17H22C21.4477 17 21 17.4477 21 18Z" fill="black"/>
</svg>
