<svg width="48" height="48" viewBox="0 0 48 48" fill="none" xmlns="http://www.w3.org/2000/svg">
<path d="M15.5366 7.41126C15.6842 6.6224 16.3549 6.03861 17.1566 6.00126C18.7566 6.00126 19.0166 7.12126 19.0166 8.00126C19.0166 9.59237 16.9626 11.0938 16.0656 11.7494C16.0155 11.7861 15.969 11.82 15.9266 11.8513C15.6878 12.0454 15.3455 12.0454 15.1066 11.8513C15.091 11.8402 15.075 11.8288 15.0586 11.8171C14.1578 11.1757 12.0166 9.65117 12.0166 8.00126C11.9453 7.48568 12.1058 6.96495 12.4551 6.57902C12.8043 6.1931 13.3065 5.98156 13.8266 6.00126C14.6475 6.03675 15.3454 6.61218 15.5366 7.41126Z" fill="black"/>
<path fill-rule="evenodd" clip-rule="evenodd" d="M44 12C43.4477 12 43 11.5523 43 11C43 10.4477 43.4477 10 44 10C45.6569 10 47 11.3431 47 13V44C47 45.6569 45.6569 47 44 47H4C2.34315 47 1 45.6569 1 44V13C1 11.3431 2.34315 10 4 10C4.55228 10 5 10.4477 5 11C5 11.5523 4.55228 12 4 12C3.44772 12 3 12.4477 3 13V15.0923L22.8852 27.1963C23.5239 27.5851 24.3262 27.5851 24.965 27.1963L45 15.0011V13C45 12.4477 44.5523 12 44 12ZM3 44C3 44.5523 3.44772 45 4 45H44C44.5523 45 45 44.5523 45 44V17.3425L26.0049 28.9047C24.7274 29.6823 23.1228 29.6823 21.8453 28.9047L3 17.4337V44Z" fill="black"/>
<g opacity="0.5">
<path d="M7 15C7.55228 15 8 14.5523 8 14V4C8 3.44772 8.44772 3 9 3H39C39.5523 3 40 3.44772 40 4V14C40 14.5523 40.4477 15 41 15C41.5523 15 42 14.5523 42 14V4C42 2.34315 40.6569 1 39 1H9C7.34315 1 6 2.34315 6 4V14C6 14.5523 6.44772 15 7 15Z" fill="black"/>
<path d="M22 8C22 8.55228 22.4477 9 23 9H31C31.5523 9 32 8.55228 32 8C32 7.44772 31.5523 7 31 7H23C22.4477 7 22 7.44772 22 8Z" fill="black"/>
<path d="M23 14C22.4477 14 22 13.5523 22 13C22 12.4477 22.4477 12 23 12H36C36.5523 12 37 12.4477 37 13C37 13.5523 36.5523 14 36 14H23Z" fill="black"/>
<path d="M6.29289 38.2929C5.90237 38.6834 5.90237 39.3166 6.29289 39.7071C6.68342 40.0976 7.31658 40.0976 7.70711 39.7071L19.7071 27.7071C20.0976 27.3166 20.0976 26.6834 19.7071 26.2929C19.3166 25.9024 18.6834 25.9024 18.2929 26.2929L6.29289 38.2929Z" fill="black"/>
<path d="M41.7071 38.2929C42.0976 38.6834 42.0976 39.3166 41.7071 39.7071C41.3166 40.0976 40.6834 40.0976 40.2929 39.7071L28.2929 27.7071C27.9024 27.3166 27.9024 26.6834 28.2929 26.2929C28.6834 25.9024 29.3166 25.9024 29.7071 26.2929L41.7071 38.2929Z" fill="black"/>
<path d="M23 19C22.4477 19 22 18.5523 22 18C22 17.4477 22.4477 17 23 17H31C31.5523 17 32 17.4477 32 18C32 18.5523 31.5523 19 31 19H23Z" fill="black"/>
</g>
</svg>
