<svg width="96" height="96" viewBox="0 0 96 96" fill="none" xmlns="http://www.w3.org/2000/svg">
<circle opacity="0.2" cx="50.6974" cy="49.566" r="39.4342" fill="black"/>
<path fill-rule="evenodd" clip-rule="evenodd" d="M49.507 6.53933C22.3276 3.68266 7.20924 23.5547 6.05801 41.7816C4.91603 59.8621 15.5437 81.6629 39.6195 85.7248C52.2966 87.8636 60.8999 83.8685 65.7535 81.3572C66.4893 80.9765 66.7772 80.0714 66.3965 79.3356C66.0158 78.5999 65.1107 78.312 64.375 78.6927C59.7587 81.0812 51.8587 84.7473 40.1185 82.7666C17.9525 79.0269 7.97937 58.9539 9.05204 41.9707C10.1155 25.1338 24.0065 6.87565 49.1934 9.5229C74.3881 12.171 84.1207 33.667 82.5836 48.2913C81.9581 54.2423 80.0887 58.5033 77.8164 61.1643C75.5456 63.8236 72.9284 64.8458 70.6375 64.5855C67.0812 64.1815 64.9217 62.6193 63.597 60.4399C62.2224 58.1784 61.6578 55.0995 61.6869 51.5798C61.7452 44.5437 64.162 36.447 65.8955 31.5978C66.1743 30.8177 65.768 29.9593 64.9879 29.6804C64.2079 29.4016 63.3494 29.8079 63.0706 30.5879C62.1394 33.1928 60.9821 36.8001 60.0904 40.7409C58.2599 33.08 52.3489 29.8177 47.7056 29.3294C41.5358 28.6805 29.7379 31.0306 28.5277 46.4326C27.3175 61.8347 37.1892 66.1673 43.7306 67.1495C49.2024 67.971 55.8416 65.24 58.9791 55.9808C59.3123 58.1647 59.9548 60.2235 61.0334 61.9981C62.8713 65.0219 65.8827 67.0647 70.2989 67.5664C73.7998 67.9641 77.3374 66.3451 80.0978 63.1124C82.8568 59.8814 84.8951 54.9994 85.5672 48.6049C87.2407 32.6822 76.6785 9.39517 49.507 6.53933ZM57.4089 49.3842C56.5266 56.0011 54.2426 59.8312 51.8363 61.9085C49.4416 63.976 46.6503 64.5542 44.176 64.1827C41.2618 63.7452 37.8583 62.5893 35.3426 60.0761C32.9307 57.6666 30.9701 53.6468 31.5185 46.6676C32.0566 39.8198 34.8595 36.282 37.8523 34.4025C41.0062 32.4218 44.7756 32.0378 47.3918 32.3129C49.789 32.5651 52.6671 33.7855 54.7406 36.3422C56.7629 38.8356 58.2716 42.9147 57.4089 49.3842Z" fill="black"/>
</svg>
