<svg width="196" height="196" viewBox="0 0 196 196" fill="none" xmlns="http://www.w3.org/2000/svg">
<path opacity="0.07" d="M174.488 61.6996C184.859 89.1118 193.15 133.026 169.793 164.727C149.269 192.584 50.6594 192.322 28.4851 156.649C6.31081 120.975 19.8197 75.585 32.8172 53.046C45.8147 30.5069 61.4282 16.3019 104.881 18.3377C148.334 20.3734 169.393 48.2325 174.488 61.6996Z" fill="black"/>
<circle opacity="0.2" cx="106.231" cy="105" r="59.7692" fill="black"/>
<path fill-rule="evenodd" clip-rule="evenodd" d="M165 33.5L156.5 25L148 33.5L156.5 42L165 33.5ZM156.5 36.3333L153.667 33.5L156.5 30.6667L159.333 33.5L156.5 36.3333Z" fill="black"/>
<path d="M22 144C23.1046 144 24 144.895 24 146V150H28C29.1046 150 30 150.895 30 152C30 153.105 29.1046 154 28 154H24V158C24 159.105 23.1046 160 22 160C20.8954 160 20 159.105 20 158V154H16C14.8954 154 14 153.105 14 152C14 150.895 14.8954 150 16 150H20V146C20 144.895 20.8954 144 22 144Z" fill="black"/>
<path d="M40 166L44 170L40 174L36 170L40 166Z" fill="black"/>
<path fill-rule="evenodd" clip-rule="evenodd" d="M38.1596 93.3268C39.9015 65.748 62.777 35.6797 103.902 40.0021C145.014 44.3232 160.996 79.5585 158.464 103.651C157.447 113.326 154.363 120.714 150.188 125.603C146.011 130.495 140.657 132.945 135.359 132.343C128.676 131.584 124.119 128.492 121.337 123.916C119.706 121.233 118.734 118.12 118.229 114.818C113.481 128.821 103.438 132.951 95.161 131.709C85.264 130.223 70.3284 123.668 72.1594 100.365C73.9904 77.0615 91.8404 73.5057 101.175 74.4876C108.199 75.2263 117.14 80.16 119.911 91.745C121.26 85.785 123.011 80.3295 124.419 76.3899C124.842 75.2075 126.143 74.5917 127.325 75.0144C128.507 75.437 129.123 76.7382 128.701 77.9205C126.078 85.2571 122.421 97.5068 122.333 108.152C122.289 113.476 123.143 118.134 125.223 121.555C127.226 124.851 130.492 127.214 135.872 127.825C139.336 128.219 143.295 126.673 146.73 122.65C150.167 118.625 152.995 112.179 153.942 103.176C156.267 81.051 141.543 48.5304 103.426 44.5242C65.3216 40.5192 44.3064 68.1413 42.6976 93.6134C41.0748 119.307 56.163 149.675 89.6973 155.333C107.459 158.329 119.41 152.783 126.394 149.169C127.51 148.592 128.881 149.029 129.458 150.144C130.035 151.259 129.599 152.631 128.484 153.208C121.14 157.008 108.122 163.052 88.9409 159.816C52.5121 153.67 36.4317 120.684 38.1596 93.3268ZM107.42 123.773C111.058 120.632 114.513 114.839 115.848 104.829C117.153 95.0426 114.871 88.8733 111.813 85.1029C108.677 81.2366 104.325 79.3909 100.7 79.0096C96.7426 78.5934 91.0414 79.1743 86.2716 82.1698C81.7459 85.0121 77.5063 90.3623 76.6924 100.721C75.8629 111.278 78.8286 117.358 82.4758 121.001C86.2804 124.802 91.428 126.55 95.8362 127.212C99.5776 127.774 103.798 126.9 107.42 123.773Z" fill="black"/>
</svg>
