<svg width="48" height="48" viewBox="0 0 48 48" fill="none" xmlns="http://www.w3.org/2000/svg">
<circle opacity="0.2" cx="25.5" cy="25.5" r="18.5" fill="black"/>
<path fill-rule="evenodd" clip-rule="evenodd" d="M24.8104 5.08696C11.8846 3.7284 4.68285 13.1947 4.13502 21.8682C3.59335 30.4443 8.63525 40.825 20.0995 42.7592C26.1291 43.7765 30.2278 41.8729 32.5244 40.6847C33.0149 40.4309 33.2068 39.8275 32.953 39.337C32.6992 38.8465 32.0958 38.6546 31.6053 38.9084C29.4671 40.0147 25.8372 41.6989 20.4322 40.7871C10.2411 39.0677 5.63558 29.8388 6.13104 21.9943C6.62035 14.2474 13.0038 5.85706 24.6014 7.076C36.2041 8.2955 40.6796 18.1845 39.9733 24.9044C39.6851 27.6473 38.8263 29.5812 37.8105 30.7708C36.7956 31.9593 35.6613 32.3788 34.7084 32.2705C33.1283 32.091 32.2015 31.4071 31.632 30.4702C31.0293 29.4786 30.7673 28.1006 30.7808 26.478C30.8076 23.235 31.9249 19.4822 32.7343 17.218C32.9202 16.698 32.6493 16.1257 32.1293 15.9398C31.6092 15.7539 31.0369 16.0247 30.851 16.5448C30.4555 17.6511 29.9707 19.1486 29.5697 20.8037C28.563 17.6413 25.9853 16.271 23.9353 16.0554C21.0459 15.7515 15.5209 16.8521 14.9542 24.0649C14.3874 31.2778 19.0104 33.3068 22.0737 33.7667C24.5236 34.1345 27.4731 32.9817 29.0116 29.0906C29.1887 29.957 29.4793 30.7792 29.9229 31.509C30.8346 33.0088 32.3293 34.0131 34.4827 34.2578C36.2422 34.4576 37.9902 33.6403 39.3314 32.0695C40.6718 30.4999 41.643 28.152 41.9624 25.1135C42.7597 17.528 37.731 6.44497 24.8104 5.08696ZM27.8895 25.3685C27.4898 28.3659 26.4685 30.0092 25.4808 30.8619C24.5008 31.708 23.3714 31.9391 22.3707 31.7889C21.0767 31.5946 19.6216 31.0876 18.5662 30.0333C17.58 29.048 16.7025 27.3468 16.948 24.2216C17.1867 21.184 18.4103 19.7058 19.6374 18.9351C20.9719 18.097 22.5938 17.9254 23.7261 18.0444C24.7122 18.1482 25.9081 18.6546 26.7676 19.7144C27.593 20.732 28.2761 22.4694 27.8895 25.3685Z" fill="black"/>
</svg>
