<svg width="96" height="96" viewBox="0 0 96 96" fill="none" xmlns="http://www.w3.org/2000/svg">
<g opacity="0.2">
<path d="M51 17C54.3137 17 57 14.3137 57 11C57 7.68629 54.3137 5 51 5C47.6863 5 45 7.68629 45 11C45 14.3137 47.6863 17 51 17Z" fill="black"/>
<path d="M51 95C54.3137 95 57 92.3137 57 89C57 85.6863 54.3137 83 51 83C47.6863 83 45 85.6863 45 89C45 92.3137 47.6863 95 51 95Z" fill="black"/>
<path d="M92 30C92 33.3137 89.3137 36 86 36C82.6863 36 80 33.3137 80 30C80 26.6863 82.6863 24 86 24C89.3137 24 92 26.6863 92 30Z" fill="black"/>
<path d="M17 36C20.3137 36 23 33.3137 23 30C23 26.6863 20.3137 24 17 24C13.6863 24 11 26.6863 11 30C11 33.3137 13.6863 36 17 36Z" fill="black"/>
<path d="M23 70C23 73.3137 20.3137 76 17 76C13.6863 76 11 73.3137 11 70C11 66.6863 13.6863 64 17 64C20.3137 64 23 66.6863 23 70Z" fill="black"/>
<path d="M51 56C54.3137 56 57 53.3137 57 50C57 46.6863 54.3137 44 51 44C47.6863 44 45 46.6863 45 50C45 53.3137 47.6863 56 51 56Z" fill="black"/>
<path d="M92 70C92 73.3137 89.3137 76 86 76C82.6863 76 80 73.3137 80 70C80 66.6863 82.6863 64 86 64C89.3137 64 92 66.6863 92 70Z" fill="black"/>
</g>
<path fill-rule="evenodd" clip-rule="evenodd" d="M39.5 9.5C39.5 5.08172 43.0817 1.5 47.5 1.5C51.7954 1.5 55.3002 4.8853 55.4918 9.13343L78.2876 22.431C79.6876 21.2274 81.5089 20.5 83.5 20.5C87.9183 20.5 91.5 24.0817 91.5 28.5C91.5 32.4056 88.7013 35.6575 85 36.3596V59.6404C88.7013 60.3425 91.5 63.5944 91.5 67.5C91.5 71.9183 87.9183 75.5 83.5 75.5C81.0115 75.5 78.7883 74.3638 77.3211 72.5818L55.4223 85.3808C55.4735 85.7465 55.5 86.1202 55.5 86.5C55.5 90.9183 51.9183 94.5 47.5 94.5C43.0817 94.5 39.5 90.9183 39.5 86.5C39.5 85.8712 39.5726 85.2593 39.7098 84.6722L20.1833 72.8985C18.7525 75.0682 16.2935 76.5 13.5 76.5C9.08172 76.5 5.5 72.9183 5.5 68.5C5.5 64.5944 8.29871 61.3425 12 60.6404V35.3596C8.29871 34.6575 5.5 31.4056 5.5 27.5C5.5 23.0817 9.08172 19.5 13.5 19.5C15.8162 19.5 17.9026 20.4844 19.3635 22.0576L39.5495 10.3945C39.5168 10.1009 39.5 9.80239 39.5 9.5ZM47.5 4.5C44.7386 4.5 42.5 6.73858 42.5 9.5C42.5 12.2614 44.7386 14.5 47.5 14.5C50.2614 14.5 52.5 12.2614 52.5 9.5C52.5 6.73858 50.2614 4.5 47.5 4.5ZM21.1016 66H46V56.3596C43.9852 55.9774 42.2379 54.8397 41.0638 53.2522L20.6035 64.8167C20.7998 65.1945 20.9668 65.59 21.1016 66ZM46 69H21.4846C21.4617 69.372 21.4133 69.7371 21.3413 70.0936L40.9444 81.9136C42.1177 80.2397 43.9157 79.0358 46 78.6404V69ZM49 69V78.6404C51.3163 79.0798 53.2791 80.5178 54.4237 82.4896L75.8816 69.9483C75.7826 69.6399 75.7017 69.3234 75.6404 69H49ZM75.6404 66C75.7308 65.5232 75.8636 65.0615 76.0346 64.6187L54.421 52.5151C53.276 54.4845 51.3144 55.9206 49 56.3596V66H75.6404ZM77.6244 62.0706C77.6313 62.0632 77.6383 62.0557 77.6452 62.0482C77.6551 62.0376 77.665 62.0271 77.6749 62.0165L64.2883 39.3979L54.6054 44.8203C55.177 45.9219 55.5 47.1732 55.5 48.5C55.5 48.8857 55.4727 49.265 55.4199 49.6362L77.6244 62.0706ZM80.115 60.2493C80.7074 59.9723 81.3393 59.7657 82 59.6404V36.3596C79.6855 35.9206 77.724 34.4845 76.579 32.5151L66.9066 37.9316L80.115 60.2493ZM75.5801 29.6361C75.5273 29.265 75.5 28.8857 75.5 28.5C75.5 27.1669 75.8261 25.91 76.4028 24.8046L54.9909 12.3144C54.6149 13.3148 54.0442 14.2199 53.3251 14.9835L65.3782 35.3492L75.5801 29.6361ZM62.7599 36.8154L50.8849 16.7507C50.2926 17.0277 49.6607 17.2343 49 17.3596V40.6404C50.4046 40.9068 51.6792 41.5405 52.7202 42.4377L62.7599 36.8154ZM46 17.3596C45.8941 17.3395 45.7889 17.3173 45.6844 17.2931L34.1923 36.7887L43.1334 41.7957C43.9894 41.237 44.959 40.8379 46 40.6404V17.3596ZM42.9263 16.0645C41.9113 15.356 41.0683 14.4181 40.4725 13.326L20.9585 24.6007C21.3081 25.4997 21.5 26.4774 21.5 27.5C21.5 28.2031 21.4093 28.8851 21.2389 29.5348L31.5742 35.3225L42.9263 16.0645ZM30.0503 37.9075L19.9407 32.2461C18.7666 33.8368 17.0174 34.9769 15 35.3596V60.6404C15.4874 60.7328 15.9591 60.8695 16.4108 61.046L30.0503 37.9075ZM19.2513 62.135L39.7628 50.5415C39.5913 49.8898 39.5 49.2056 39.5 48.5C39.5 46.8235 40.0157 45.2674 40.8972 43.9818L32.6685 39.3737L19.2513 62.135ZM42.5 86.5C42.5 89.2614 44.7386 91.5 47.5 91.5C50.2614 91.5 52.5 89.2614 52.5 86.5C52.5 83.7386 50.2614 81.5 47.5 81.5C44.7386 81.5 42.5 83.7386 42.5 86.5ZM83.5 62.5C80.7386 62.5 78.5 64.7386 78.5 67.5C78.5 70.2614 80.7386 72.5 83.5 72.5C86.2614 72.5 88.5 70.2614 88.5 67.5C88.5 64.7386 86.2614 62.5 83.5 62.5ZM78.5 28.5C78.5 31.2614 80.7386 33.5 83.5 33.5C86.2614 33.5 88.5 31.2614 88.5 28.5C88.5 25.7386 86.2614 23.5 83.5 23.5C80.7386 23.5 78.5 25.7386 78.5 28.5ZM13.5 22.5C10.7386 22.5 8.5 24.7386 8.5 27.5C8.5 30.2614 10.7386 32.5 13.5 32.5C16.2614 32.5 18.5 30.2614 18.5 27.5C18.5 24.7386 16.2614 22.5 13.5 22.5ZM8.5 68.5C8.5 71.2614 10.7386 73.5 13.5 73.5C16.2614 73.5 18.5 71.2614 18.5 68.5C18.5 65.7386 16.2614 63.5 13.5 63.5C10.7386 63.5 8.5 65.7386 8.5 68.5ZM47.5 43.5C44.7386 43.5 42.5 45.7386 42.5 48.5C42.5 51.2614 44.7386 53.5 47.5 53.5C50.2614 53.5 52.5 51.2614 52.5 48.5C52.5 45.7386 50.2614 43.5 47.5 43.5Z" fill="black"/>
</svg>
