<svg width="48" height="48" viewBox="0 0 48 48" fill="none" xmlns="http://www.w3.org/2000/svg">
<g opacity="0.2">
<path d="M26 11C27.6569 11 29 9.65685 29 8C29 6.34315 27.6569 5 26 5C24.3431 5 23 6.34315 23 8C23 9.65685 24.3431 11 26 11Z" fill="black"/>
<path d="M26 47C27.6569 47 29 45.6569 29 44C29 42.3431 27.6569 41 26 41C24.3431 41 23 42.3431 23 44C23 45.6569 24.3431 47 26 47Z" fill="black"/>
<path d="M45 35C45 36.6569 43.6569 38 42 38C40.3431 38 39 36.6569 39 35C39 33.3431 40.3431 32 42 32C43.6569 32 45 33.3431 45 35Z" fill="black"/>
<path d="M42 20C43.6569 20 45 18.6569 45 17C45 15.3431 43.6569 14 42 14C40.3431 14 39 15.3431 39 17C39 18.6569 40.3431 20 42 20Z" fill="black"/>
<path d="M13 17C13 18.6569 11.6569 20 10 20C8.34315 20 7 18.6569 7 17C7 15.3431 8.34315 14 10 14C11.6569 14 13 15.3431 13 17Z" fill="black"/>
<path d="M10 38C11.6569 38 13 36.6569 13 35C13 33.3431 11.6569 32 10 32C8.34315 32 7 33.3431 7 35C7 36.6569 8.34315 38 10 38Z" fill="black"/>
<path d="M29 26C29 27.6569 27.6569 29 26 29C24.3431 29 23 27.6569 23 26C23 24.3431 24.3431 23 26 23C27.6569 23 29 24.3431 29 26Z" fill="black"/>
</g>
<path fill-rule="evenodd" clip-rule="evenodd" d="M10.9768 35.6719L20.2127 40.7097C20.0748 41.1145 20 41.5485 20 42C20 44.2091 21.7909 46 24 46C26.2091 46 28 44.2091 28 42C28 41.3779 27.858 40.7889 27.6046 40.2638L36.7208 35.2912C37.4441 36.3244 38.6431 37 40 37C42.2091 37 44 35.2091 44 33C44 31.1362 42.7252 29.5701 41 29.126V18.874C42.7252 18.4299 44 16.8638 44 15C44 12.7909 42.2091 11 40 11C39.1778 11 38.4135 11.2481 37.778 11.6735L27.959 5.42501C27.6802 3.48829 26.0139 2 24 2C21.9862 2 20.32 3.48813 20.0411 5.42468L10.2218 11.6733C9.58629 11.248 8.82211 11 8 11C5.79086 11 4 12.7909 4 15C4 16.8638 5.27477 18.4299 7 18.874V29.126C5.27477 29.5701 4 31.1362 4 33C4 35.2091 5.79086 37 8 37C9.18213 37 10.2445 36.4872 10.9768 35.6719ZM24 4C25.1046 4 26 4.89543 26 6C26 7.10457 25.1046 8 24 8C22.8954 8 22 7.10457 22 6C22 4.89543 22.8954 4 24 4ZM20.7559 21.6594L16.8374 19.1658L22.2464 9.59613C22.4852 9.71281 22.7374 9.80639 23 9.87398V20.126C22.0838 20.3618 21.2946 20.9141 20.7559 21.6594ZM15.1478 18.0906L11.8724 16.0063C11.9557 15.6848 12 15.3476 12 15C12 14.3477 11.8439 13.7319 11.567 13.1879L20.3361 7.60753C20.4377 7.83863 20.5604 8.05829 20.702 8.26405L15.1478 18.0906ZM14.1623 19.8341L9 28.9675V18.874C9.73606 18.6845 10.3901 18.2908 10.8982 17.7569L14.1623 19.8341ZM10.6909 30.0404L15.852 20.9094L20.0235 23.564C20.008 23.7072 20 23.8527 20 24C20 24.1473 20.008 24.2927 20.0235 24.4359L10.8981 30.243C10.8315 30.173 10.7624 30.1054 10.6909 30.0404ZM26.8981 21.243C26.39 20.7091 25.736 20.3155 25 20.126V10.0322L30.1624 19.1657L26.8981 21.243ZM27.8723 22.9936L31.1478 20.9092L36.6043 30.563L27.8724 25.0063C27.9557 24.6848 28 24.3476 28 24C28 23.6524 27.9557 23.3151 27.8723 22.9936ZM32.8375 19.834L36.7558 17.3405C37.2945 18.0858 38.0837 18.6381 39 18.874V29.126C38.7374 29.1936 38.4853 29.2872 38.2465 29.4038L32.8375 19.834ZM26.691 8.95949C27.1031 8.58459 27.4365 8.1248 27.6638 7.60776L36.4329 13.1881C36.1561 13.7321 36 14.3478 36 15C36 15.1473 36.008 15.2927 36.0235 15.4359L31.852 18.0904L26.691 8.95949ZM25 27.874C25.7361 27.6845 26.3901 27.2908 26.8982 26.7569L35.1373 32H25V27.874ZM23 32H11.874C11.8734 31.9979 11.8729 31.9957 11.8723 31.9936L20.7558 26.3405C21.2945 27.0858 22.0837 27.6381 23 27.874V32ZM12.0882 34H23V38.126C22.3638 38.2898 21.7889 38.6061 21.3166 39.0336L12.0882 34ZM10 33C10 34.1046 9.10457 35 8 35C6.89543 35 6 34.1046 6 33C6 31.8954 6.89543 31 8 31C9.10457 31 10 31.8954 10 33ZM25 34H34.9114L26.276 38.7102C25.8938 38.4453 25.4631 38.2452 25 38.126V34ZM26 24C26 25.1046 25.1046 26 24 26C22.8954 26 22 25.1046 22 24C22 22.8954 22.8954 22 24 22C25.1046 22 26 22.8954 26 24ZM10 15C10 16.1046 9.10457 17 8 17C6.89543 17 6 16.1046 6 15C6 13.8954 6.89543 13 8 13C9.10457 13 10 13.8954 10 15ZM40 17C38.8954 17 38 16.1046 38 15C38 13.8954 38.8954 13 40 13C41.1046 13 42 13.8954 42 15C42 16.1046 41.1046 17 40 17ZM22 42C22 40.8954 22.8954 40 24 40C25.1046 40 26 40.8954 26 42C26 43.1046 25.1046 44 24 44C22.8954 44 22 43.1046 22 42ZM40 31C41.1046 31 42 31.8954 42 33C42 34.1046 41.1046 35 40 35C38.8954 35 38 34.1046 38 33C38 31.8954 38.8954 31 40 31Z" fill="black"/>
</svg>
