<svg width="196" height="196" viewBox="0 0 196 196" fill="none" xmlns="http://www.w3.org/2000/svg">
<path opacity="0.07" fill-rule="evenodd" clip-rule="evenodd" d="M4.9998 92.4998C4.5176 99.2725 8.53987 127.852 19.3074 142.833C20.2041 144.081 21.184 145.527 22.2657 147.123C32.299 161.928 51.0818 189.644 93.3267 191.655C140.126 193.884 157.348 177.812 171.976 152.33C186.605 126.849 202.406 75.5532 179.467 35.292C156.528 -4.96918 50.2058 -5.1034 27.3169 26.3971C6.50007 55.046 5.4874 80.6585 5.1119 90.1557C5.07452 91.101 5.04346 91.8867 4.9998 92.4998ZM108 40C108 44.9706 103.971 49 99 49C94.0294 49 90 44.9706 90 40C90 35.0294 94.0294 31 99 31C103.971 31 108 35.0294 108 40ZM159 68C159 72.9706 154.971 77 150 77C145.029 77 141 72.9706 141 68C141 63.0294 145.029 59 150 59C154.971 59 159 63.0294 159 68ZM159 128C159 132.971 154.971 137 150 137C145.029 137 141 132.971 141 128C141 123.029 145.029 119 150 119C154.971 119 159 123.029 159 128ZM109 98C109 102.971 104.971 107 100 107C95.0294 107 91 102.971 91 98C91 93.0294 95.0294 89 100 89C104.971 89 109 93.0294 109 98ZM109 156C109 160.971 104.971 165 100 165C95.0294 165 91 160.971 91 156C91 151.029 95.0294 147 100 147C104.971 147 109 151.029 109 156ZM57 128C57 132.971 52.9706 137 48 137C43.0294 137 39 132.971 39 128C39 123.029 43.0294 119 48 119C52.9706 119 57 123.029 57 128ZM56 68C56 72.9706 51.9706 77 47 77C42.0294 77 38 72.9706 38 68C38 63.0294 42.0294 59 47 59C51.9706 59 56 63.0294 56 68Z" fill="black"/>
<g opacity="0.2">
<path d="M105.5 51C110.194 51 114 46.9706 114 42C114 37.0294 110.194 33 105.5 33C100.806 33 97 37.0294 97 42C97 46.9706 100.806 51 105.5 51Z" fill="black"/>
<path d="M105.5 169C110.194 169 114 164.971 114 160C114 155.029 110.194 151 105.5 151C100.806 151 97 155.029 97 160C97 164.971 100.806 169 105.5 169Z" fill="black"/>
<path d="M164 131C164 135.971 160.194 140 155.5 140C150.806 140 147 135.971 147 131C147 126.029 150.806 122 155.5 122C160.194 122 164 126.029 164 131Z" fill="black"/>
<path d="M155.5 80C160.194 80 164 75.9706 164 71C164 66.0294 160.194 62 155.5 62C150.806 62 147 66.0294 147 71C147 75.9706 150.806 80 155.5 80Z" fill="black"/>
<path d="M61 71C61 75.9706 57.1944 80 52.5 80C47.8056 80 44 75.9706 44 71C44 66.0294 47.8056 62 52.5 62C57.1944 62 61 66.0294 61 71Z" fill="black"/>
<path d="M52.5 140C57.1944 140 61 135.971 61 131C61 126.029 57.1944 122 52.5 122C47.8056 122 44 126.029 44 131C44 135.971 47.8056 140 52.5 140Z" fill="black"/>
<path d="M114 101C114 105.971 109.971 110 105 110C100.029 110 96 105.971 96 101C96 96.0294 100.029 92 105 92C109.971 92 114 96.0294 114 101Z" fill="black"/>
</g>
<path d="M169 20L173 24L169 28L165 24L169 20Z" fill="black"/>
<path fill-rule="evenodd" clip-rule="evenodd" d="M99.5 29C93.5948 29 89 34.0341 89 40C89 40.2801 89.0101 40.5581 89.03 40.8337L55.2271 60.5521C53.3251 58.3804 50.5922 57 47.5 57C41.5948 57 37 62.0341 37 68C37 73.4501 40.8347 78.1226 46 78.8898V117.11C40.8347 117.877 37 122.55 37 128C37 133.966 41.5948 139 47.5 139C50.9037 139 53.872 137.328 55.7761 134.768L89.1367 154.229C89.0467 154.807 89 155.399 89 156C89 161.966 93.5948 167 99.5 167C105.405 167 110 161.966 110 156C110 155.214 109.92 154.445 109.768 153.701L142.224 134.768C144.128 137.328 147.096 139 150.5 139C156.405 139 161 133.966 161 128C161 122.908 157.653 118.495 153 117.311V78.6889C157.653 77.5054 161 73.0921 161 68C161 62.0341 156.405 57 150.5 57C147.408 57 144.675 58.3804 142.773 60.5521L109.917 41.386C109.972 40.9311 110 40.4684 110 40C110 34.0341 105.405 29 99.5 29ZM93 40C93 36.0248 96.0163 33 99.5 33C102.984 33 106 36.0248 106 40C106 43.9752 102.984 47 99.5 47C96.0163 47 93 43.9752 93 40ZM98 125H57.6021C57.5104 124.662 57.4036 124.329 57.2824 124.004L91.2812 104.708C92.9055 106.816 95.2774 108.319 98 108.819V125ZM57.9567 129H98V145.11C94.765 145.591 92.0519 147.603 90.4759 150.379L57.5534 131.174C57.7552 130.474 57.8919 129.747 57.9567 129ZM140.043 129C140.108 129.746 140.245 130.474 140.447 131.174L108.265 149.946C106.838 147.678 104.627 145.979 102 145.311V129H140.043ZM102 125V108.819C104.552 108.35 106.796 107 108.405 105.097L140.902 123.541C140.702 124.012 140.534 124.499 140.398 125H102ZM110.389 101.624C110.785 100.489 111 99.2697 111 98C111 96.4197 110.667 94.9173 110.067 93.5592L124.334 85.4614L144.203 119.193C143.814 119.499 143.447 119.833 143.103 120.192L110.389 101.624ZM127.813 83.4867L142.515 75.1425C144.122 77.119 146.392 78.5024 149 78.8898V117.11C148.582 117.172 148.172 117.26 147.773 117.372L127.813 83.4867ZM125.783 80.0397L106.835 47.8722C107.57 47.118 108.198 46.2527 108.697 45.3053L140.724 63.9877C140.256 65.2374 140 66.5928 140 68C140 69.267 140.207 70.492 140.59 71.6356L125.783 80.0397ZM103.541 50.1605L122.304 82.0144L107.802 90.2454C106.255 88.6899 104.247 87.5942 102 87.1814V50.6889C102.532 50.5537 103.046 50.3763 103.541 50.1605ZM98 87.1814C95.5791 87.6261 93.4354 88.8634 91.8481 90.6143L76.6962 82.0146L95.4595 50.1606C96.2582 50.5091 97.1093 50.7575 98 50.8898V87.1814ZM73.217 80.0399L57.5595 71.1532C57.8465 70.1499 58 69.0905 58 68C58 66.5928 57.7443 65.2374 57.2761 63.9876L90.0782 44.8531C90.607 45.9784 91.3145 46.9997 92.165 47.8724L73.217 80.0399ZM55.7906 74.7486L71.1866 83.4869L51.0653 117.646C50.7188 117.516 50.3634 117.404 50 117.311V78.6889C52.3515 78.0907 54.3696 76.6675 55.7906 74.7486ZM55.2385 120.565C54.993 120.284 54.7335 120.016 54.4613 119.762L74.6658 85.4615L89.7426 94.0186C89.2631 95.2532 89 96.5959 89 98C89 99.0926 89.1593 100.148 89.456 101.144L55.2385 120.565ZM47.5 75C44.0163 75 41 71.9752 41 68C41 64.0248 44.0163 61 47.5 61C50.9837 61 54 64.0248 54 68C54 71.9752 50.9837 75 47.5 75ZM157 68C157 71.9752 153.984 75 150.5 75C147.016 75 144 71.9752 144 68C144 64.0248 147.016 61 150.5 61C153.984 61 157 64.0248 157 68ZM99.5 149C102.984 149 106 152.025 106 156C106 159.975 102.984 163 99.5 163C96.0163 163 93 159.975 93 156C93 152.025 96.0163 149 99.5 149ZM144 128C144 124.025 147.016 121 150.5 121C153.984 121 157 124.025 157 128C157 131.975 153.984 135 150.5 135C147.016 135 144 131.975 144 128ZM47.5 121C50.9837 121 54 124.025 54 128C54 131.975 50.9837 135 47.5 135C44.0163 135 41 131.975 41 128C41 124.025 44.0163 121 47.5 121ZM93 98C93 94.134 96.134 91 100 91C103.866 91 107 94.134 107 98C107 101.866 103.866 105 100 105C96.134 105 93 101.866 93 98Z" fill="black"/>
<path d="M45 169C45 167.895 44.1046 167 43 167C41.8954 167 41 167.895 41 169V173H37C35.8954 173 35 173.895 35 175C35 176.105 35.8954 177 37 177H41V181C41 182.105 41.8954 183 43 183C44.1046 183 45 182.105 45 181V177H49C50.1046 177 51 176.105 51 175C51 173.895 50.1046 173 49 173H45V169Z" fill="black"/>
<path fill-rule="evenodd" clip-rule="evenodd" d="M17.5 40L26 48.5L17.5 57L9 48.5L17.5 40ZM14.6667 48.5L17.5 51.3333L20.3333 48.5L17.5 45.6667L14.6667 48.5Z" fill="black"/>
</svg>
