<svg width="36" height="36" viewBox="0 0 36 36" fill="none" xmlns="http://www.w3.org/2000/svg">
<path opacity="0.2" d="M13 36C12.4477 36 12 35.5523 12 35V11.7314L5.30705 13.8908C4.66133 14.0991 4 13.6176 4 12.9391V9.40713C4 8.98488 4.26522 8.60813 4.66273 8.46572L16.6627 4.16659C17.3141 3.93322 18 4.41605 18 5.108V35C18 35.5523 17.5523 36 17 36H13ZM25.8424 32.6669C25.8424 30.6582 27.4579 29.291 29.4119 29.291C31.3596 29.291 33 30.6558 33 32.6669C33 34.6932 31.3603 36 29.4119 36C27.4718 36 25.8424 34.6791 25.8424 32.6669Z" fill="black"/>
<path fill-rule="evenodd" clip-rule="evenodd" d="M14.8626 1.05802C14.9703 1.01962 15.0838 1 15.1982 1H16C16.5523 1 17 1.44772 17 2V34.0854C17 34.6377 16.5523 35.0854 16 35.0854H10C9.44772 35.0854 9 34.6377 9 34.0854V11.5436L2.3162 13.7714C2.01126 13.873 1.67604 13.8219 1.41528 13.6339C1.15452 13.446 1 13.1441 1 12.8227V6.70315C1 6.28028 1.26599 5.90312 1.66433 5.76117L14.8626 1.05802ZM15 3.13223L3 7.4084V11.4353L9.68379 9.20756C9.98874 9.10592 10.324 9.15706 10.5847 9.34501C10.8455 9.53297 11 9.83481 11 10.1562V33.0854H15V3.13223ZM27.4119 28.291C25.9245 28.291 24.8424 29.2925 24.8424 30.6669C24.8424 32.0255 25.9171 33 27.4119 33C28.9235 33 30 32.0321 30 30.6669C30 29.298 28.9017 28.291 27.4119 28.291ZM22.8424 30.6669C22.8424 28.0239 24.9914 26.291 27.4119 26.291C29.8174 26.291 32 28.0136 32 30.6669C32 33.3543 29.7971 35 27.4119 35C25.0264 35 22.8424 33.3326 22.8424 30.6669Z" fill="black"/>
</svg>
