<svg width="96" height="96" viewBox="0 0 96 96" fill="none" xmlns="http://www.w3.org/2000/svg">
<g opacity="0.2">
<path d="M9 16C7.89543 16 7 16.8954 7 18V27C7 28.1046 7.89543 29 9 29H93C94.1046 29 95 28.1046 95 27V18C95 16.8954 94.1046 16 93 16H9Z" fill="black"/>
<path d="M21 43C19.8954 43 19 43.8954 19 45V54C19 55.1046 19.8954 56 21 56H81C82.1046 56 83 55.1046 83 54V45C83 43.8954 82.1046 43 81 43H21Z" fill="black"/>
</g>
<path d="M19 18.5C19 19.3284 18.3284 20 17.5 20C16.6716 20 16 19.3284 16 18.5C16 17.6716 16.6716 17 17.5 17C18.3284 17 19 17.6716 19 18.5Z" fill="black"/>
<path d="M10.5 20C11.3284 20 12 19.3284 12 18.5C12 17.6716 11.3284 17 10.5 17C9.67157 17 9 17.6716 9 18.5C9 19.3284 9.67157 20 10.5 20Z" fill="black"/>
<path fill-rule="evenodd" clip-rule="evenodd" d="M14 39.5C14 38.6716 14.6716 38 15.5 38H78.5C79.3284 38 80 38.6716 80 39.5V51.5C80 52.3284 79.3284 53 78.5 53H15.5C14.6716 53 14 52.3284 14 51.5V39.5ZM67 41H17V50H67.0854C67.0301 49.8436 67 49.6753 67 49.5V41ZM69.9146 50H77V41H70V49.5C70 49.6753 69.9699 49.8436 69.9146 50Z" fill="black"/>
<path d="M14 60.5C14 59.6716 14.6716 59 15.5 59H56.5C57.3284 59 58 59.6716 58 60.5C58 61.3284 57.3284 62 56.5 62H15.5C14.6716 62 14 61.3284 14 60.5Z" fill="black"/>
<path d="M15.5 67C14.6716 67 14 67.6716 14 68.5C14 69.3284 14.6716 70 15.5 70H41.5C42.3284 70 43 69.3284 43 68.5C43 67.6716 42.3284 67 41.5 67H15.5Z" fill="black"/>
<path fill-rule="evenodd" clip-rule="evenodd" d="M2 14.5882C2 12.6065 3.60651 11 5.58823 11H88.4118C90.3935 11 92 12.6065 92 14.5882V80.4118C92 82.3935 90.3935 84 88.4118 84H5.58823C3.6065 84 2 82.3935 2 80.4118V14.5882ZM5 14.5882V23H89V14.5882C89 14.2634 88.7366 14 88.4118 14H5.58823C5.26336 14 5 14.2634 5 14.5882ZM89 26H5V80.4118C5 80.7366 5.26336 81 5.58823 81H88.4118C88.7366 81 89 80.7366 89 80.4118V26Z" fill="black"/>
</svg>
