<svg width="196" height="196" viewBox="0 0 196 196" fill="none" xmlns="http://www.w3.org/2000/svg">
<path d="M24 142C24 140.895 23.1046 140 22 140C20.8954 140 20 140.895 20 142V146H16C14.8954 146 14 146.895 14 148C14 149.105 14.8954 150 16 150H20V154C20 155.105 20.8954 156 22 156C23.1046 156 24 155.105 24 154V150H28C29.1046 150 30 149.105 30 148C30 146.895 29.1046 146 28 146H24V142Z" fill="black"/>
<path d="M43.5 166.5L39.5 162.5L35.5 166.5L39.5 170.5L43.5 166.5Z" fill="black"/>
<path fill-rule="evenodd" clip-rule="evenodd" d="M164.706 29.3623L156.206 20.8623L147.706 29.3623L156.206 37.8623L164.706 29.3623ZM156.206 32.1956L153.373 29.3623L156.206 26.529L159.039 29.3623L156.206 32.1956Z" fill="black"/>
<path opacity="0.07" fill-rule="evenodd" clip-rule="evenodd" d="M169.499 160.59C192.856 128.888 184.565 84.9739 174.194 57.5616C169.099 44.0945 148.04 16.2355 104.587 14.1997C61.1342 12.164 45.5208 26.369 32.5233 48.908C19.5257 71.4471 6.01686 116.837 28.1912 152.511C50.3655 188.184 148.975 188.446 169.499 160.59ZM36 145.912V51.0882C36 49.9349 36.9349 49 38.0882 49H156.912C158.065 49 159 49.9349 159 51.0882V145.912C159 147.065 158.065 148 156.912 148H38.0882C36.9349 148 36 147.065 36 145.912Z" fill="black"/>
<path opacity="0.2" d="M59 96C59 94.3431 60.3431 93 62 93H145C146.657 93 148 94.3431 148 96V107C148 108.657 146.657 110 145 110H62C60.3431 110 59 108.657 59 107V96Z" fill="black"/>
<path opacity="0.2" d="M41 57C41 55.3431 42.3431 54 44 54H162C163.657 54 165 55.3431 165 57V69C165 70.6569 163.657 72 162 72H44C42.3431 72 41 70.6569 41 69V57Z" fill="black"/>
<path d="M59 58C59 59.6569 57.6569 61 56 61C54.3431 61 53 59.6569 53 58C53 56.3431 54.3431 55 56 55C57.6569 55 59 56.3431 59 58Z" fill="black"/>
<path d="M46 61C47.6569 61 49 59.6569 49 58C49 56.3431 47.6569 55 46 55C44.3431 55 43 56.3431 43 58C43 59.6569 44.3431 61 46 61Z" fill="black"/>
<path fill-rule="evenodd" clip-rule="evenodd" d="M51 87C51 85.8954 51.8954 85 53 85H142C143.105 85 144 85.8954 144 87V104C144 105.105 143.105 106 142 106H53C51.8954 106 51 105.105 51 104V87ZM126 89H55V102H126.203C126.073 101.735 126 101.436 126 101.121V89ZM129.797 102H140V89H130V101.121C130 101.436 129.927 101.735 129.797 102Z" fill="black"/>
<path d="M51 117C51 115.895 51.8954 115 53 115H110.896C112 115 112.896 115.895 112.896 117C112.896 118.105 112 119 110.896 119H53C51.8954 119 51 118.105 51 117Z" fill="black"/>
<path d="M53 126C51.8954 126 51 126.895 51 128C51 129.105 51.8954 130 53 130H89.7143C90.8189 130 91.7143 129.105 91.7143 128C91.7143 126.895 90.8189 126 89.7143 126H53Z" fill="black"/>
<path fill-rule="evenodd" clip-rule="evenodd" d="M34 51.0882C34 48.8304 35.8304 47 38.0882 47H156.912C159.17 47 161 48.8304 161 51.0882V145.912C161 148.17 159.17 150 156.912 150H38.0882C35.8304 150 34 148.17 34 145.912V51.0882ZM38 51.0882V64H157V51.0882C157 51.0395 156.96 51 156.912 51H38.0882C38.0395 51 38 51.0395 38 51.0882ZM38 68V145.912C38 145.96 38.0395 146 38.0882 146H156.912C156.96 146 157 145.96 157 145.912V68H38Z" fill="black"/>
</svg>
