<svg width="48" height="48" viewBox="0 0 48 48" fill="none" xmlns="http://www.w3.org/2000/svg">
<g opacity="0.2">
<path d="M41 27.1549C41 27.662 40.6828 28 40.2071 28H10.7928C10.3171 28 9.99994 27.662 9.99994 27.1549V22.8451C9.99994 22.4225 10.3171 22 10.7928 22H40.2071C40.6828 22 41 22.4225 41 22.8451V27.1549Z" fill="black"/>
<path d="M47 14.1549C47 14.5775 46.6098 15 46.2196 15H4.7804C4.31216 15 4 14.5775 4 14.1549V9.84507C4 9.42254 4.31216 9 4.7804 9H46.1416C46.5318 9 46.922 9.42254 46.922 9.84507V14.1549H47Z" fill="black"/>
</g>
<path d="M7.00012 10C7.00012 10.5523 6.55241 11 6.00012 11C5.44784 11 5.00012 10.5523 5.00012 10C5.00012 9.44772 5.44784 9 6.00012 9C6.55241 9 7.00012 9.44772 7.00012 10Z" fill="black"/>
<path d="M9 11C9.55229 11 10 10.5523 10 10C10 9.44772 9.55229 9 9 9C8.44772 9 8 9.44772 8 10C8 10.5523 8.44772 11 9 11Z" fill="black"/>
<path fill-rule="evenodd" clip-rule="evenodd" d="M8 19C7.44772 19 7 19.4477 7 20V26C7 26.5523 7.44772 27 8 27H39C39.5523 27 40 26.5523 40 26V20C40 19.4477 39.5523 19 39 19H8ZM32.9998 21V25H9V21H32.9998ZM34.9998 25V21H38V25H34.9998Z" fill="black"/>
<path d="M8 29C7.44772 29 7 29.4477 7 30C7 30.5523 7.44772 31 8 31H28C28.5523 31 29 30.5523 29 30C29 29.4477 28.5523 29 28 29H8Z" fill="black"/>
<path d="M8 33.001C7.44772 33.001 7 33.4487 7 34.001C7 34.5533 7.44772 35.001 8 35.001H21C21.5523 35.001 22 34.5533 22 34.001C22 33.4487 21.5523 33.001 21 33.001H8Z" fill="black"/>
<path fill-rule="evenodd" clip-rule="evenodd" d="M1 40V8C1 6.89543 1.89543 6 3 6H44C45.1046 6 46 6.89543 46 8V40C46 41.1046 45.1046 42 44 42H3C1.89543 42 1 41.1046 1 40ZM3 12H44V8L3 8V12ZM44 14H3V40H44V14Z" fill="black"/>
</svg>
