<svg width="48" height="48" viewBox="0 0 48 48" fill="none" xmlns="http://www.w3.org/2000/svg">
<path opacity="0.2" d="M31.5248 5.19232C31.3716 5.08611 31.1614 5.12414 31.0552 5.27728L7.01117 39.9422C6.97879 39.9889 6.95872 40.043 6.95282 40.0995L6.40876 45.3103C6.38135 45.5729 6.65235 45.7638 6.89033 45.6496L11.6559 43.3637C11.7086 43.3384 11.7539 43.2998 11.7872 43.2517L35.8297 8.58896C35.9359 8.43583 35.8979 8.22558 35.7448 8.11936L31.5248 5.19232Z" fill="black"/>
<path fill-rule="evenodd" clip-rule="evenodd" d="M28.5324 2.81917C28.936 2.23725 29.7349 2.09271 30.3168 2.49634L34.5368 5.42338C35.1188 5.827 35.2633 6.62594 34.8597 7.20786L10.8172 41.8706C10.6905 42.0533 10.5185 42.1999 10.3181 42.296L5.55254 44.582C4.64823 45.0157 3.61842 44.2902 3.72257 43.2926L4.26664 38.0818C4.28906 37.8671 4.36531 37.6615 4.48835 37.4841L28.5324 2.81917ZM32.9607 6.62995L29.7389 4.39528L28.2088 6.60135L31.4306 8.83603L32.9607 6.62995ZM30.3536 10.3888L27.1318 8.15411L6.80757 37.4561L10.0294 39.6908L30.3536 10.3888ZM5.7149 42.4082L8.62141 41.014L6.04691 39.2283L5.7149 42.4082Z" fill="black"/>
<path d="M40.822 42.707C41.316 42.46 41.5162 41.8594 41.2692 41.3654C41.0222 40.8714 40.4215 40.6712 39.9276 40.9182C37.3338 42.2151 34.7343 43.3577 31.9756 43.9757C30.0542 44.4061 28.1889 44.2869 26.2675 43.9424C25.304 43.7696 24.3393 43.5428 23.3451 43.3038L23.0507 43.2329C22.1568 43.0174 21.2373 42.7959 20.307 42.6098C17.4144 42.0313 13.716 42.1241 10.8784 43.2591C10.3656 43.4642 10.1162 44.0462 10.3213 44.559C10.5264 45.0718 11.1084 45.3212 11.6212 45.1161C14.0134 44.1592 17.3014 44.0483 19.9148 44.571C20.8044 44.7489 21.6852 44.9611 22.5847 45.1778L22.8775 45.2483C23.871 45.4872 24.887 45.7267 25.9145 45.911C27.975 46.2804 30.1328 46.438 32.4128 45.9273C35.4119 45.2555 38.1846 44.0257 40.822 42.707Z" fill="black"/>
</svg>
