<svg width="196" height="196" viewBox="0 0 196 196" fill="none" xmlns="http://www.w3.org/2000/svg">
<path opacity="0.07" fill-rule="evenodd" clip-rule="evenodd" d="M33.5001 53.5005C16.086 74.4695 14.4998 123 23.5 142.001C32.5002 161.001 45.9994 174.501 68.4997 178C91 181.5 125.346 181.394 149.5 159.5C173.654 137.606 180.5 114 180.5 66.0004C180.5 22.0015 147.363 20.172 113.131 18.2822C110.019 18.1103 106.896 17.9379 103.79 17.7333C66.5167 15.2786 50.9142 32.5315 33.5001 53.5005ZM115.14 32.6575C116.075 31.3096 117.926 30.9749 119.273 31.9098L131.406 40.325C132.754 41.2599 133.089 43.1105 132.154 44.4583L63.0316 144.114C62.7381 144.537 62.3398 144.876 61.8756 145.099L48.1746 151.671C46.0799 152.676 43.6946 150.995 43.9359 148.685L45.5001 133.704C45.552 133.206 45.7286 132.73 46.0136 132.319L115.14 32.6575Z" fill="black"/>
<path opacity="0.2" d="M124.001 39.6594C123.093 39.0299 121.847 39.2553 121.218 40.1629L52.8286 138.761C52.6367 139.038 52.5177 139.359 52.4828 139.693L51.1373 152.58C50.9749 154.135 52.5811 155.267 53.9915 154.591L65.786 148.933C66.0986 148.783 66.3668 148.554 66.5644 148.269L134.944 49.684C135.574 48.7764 135.348 47.5303 134.441 46.9008L124.001 39.6594Z" fill="black"/>
<path fill-rule="evenodd" clip-rule="evenodd" d="M52.7602 26L61.5204 34.7602L52.7602 43.5204L44 34.7602L52.7602 26ZM49.8401 34.7602L52.7602 37.6802L55.6802 34.7602L52.7602 31.8401L49.8401 34.7602Z" fill="black"/>
<path d="M35.1224 44L39.2449 48.1224L35.1224 52.2449L31 48.1224L35.1224 44Z" fill="black"/>
<path d="M176 115C176 113.895 175.105 113 174 113C172.895 113 172 113.895 172 115V119H168C166.895 119 166 119.895 166 121C166 122.105 166.895 123 168 123H172V127C172 128.105 172.895 129 174 129C175.105 129 176 128.105 176 127V123H180C181.105 123 182 122.105 182 121C182 119.895 181.105 119 180 119H176V115Z" fill="black"/>
<path fill-rule="evenodd" clip-rule="evenodd" d="M119.273 31.9098C117.926 30.9749 116.075 31.3096 115.14 32.6575L46.0136 132.319C45.7286 132.73 45.552 133.206 45.5 133.704L43.9359 148.685C43.6946 150.995 46.0799 152.676 48.1746 151.671L61.8756 145.099C62.3398 144.876 62.7381 144.537 63.0315 144.114L132.154 44.4583C133.089 43.1105 132.754 41.2599 131.406 40.325L119.273 31.9098ZM117.84 35.7835L128.28 43.0248L123.064 50.5454L112.624 43.304L117.84 35.7835ZM110.344 46.5908L120.784 53.8322L61.5351 139.253L51.095 132.012L110.344 46.5908ZM49.3188 135.648L58.7267 142.173L48.1055 147.268L49.3188 135.648Z" fill="black"/>
<path d="M150.388 143.461C150.882 144.449 150.482 145.65 149.494 146.144C141.931 149.926 134.035 153.423 125.518 155.331C119.119 156.764 113.044 156.328 107.181 155.277C104.255 154.752 101.356 154.069 98.4995 153.382L97.657 153.179C95.0735 152.557 92.5241 151.942 89.9486 151.427C82.3132 149.9 72.6806 150.211 65.608 153.04C64.5824 153.45 63.4185 152.952 63.0082 151.926C62.598 150.9 63.0968 149.736 64.1224 149.326C72.0857 146.141 82.5391 145.866 90.7331 147.505C93.3898 148.036 96.0162 148.669 98.5884 149.289L99.4347 149.493C102.293 150.18 105.089 150.838 107.887 151.339C113.472 152.341 118.962 152.7 124.643 151.428C132.68 149.628 140.229 146.304 147.705 142.566C148.693 142.072 149.894 142.473 150.388 143.461Z" fill="black"/>
</svg>
