<svg width="96" height="96" viewBox="0 0 96 96" fill="none" xmlns="http://www.w3.org/2000/svg">
<path opacity="0.2" d="M63.0495 10.3846C62.7432 10.1722 62.3227 10.2483 62.1103 10.5546L14.0223 79.8845C13.9575 79.9778 13.9174 80.086 13.9056 80.199L12.8175 90.6207C12.7626 91.1457 13.3046 91.5276 13.7806 91.2993L23.3117 86.7274C23.4172 86.6768 23.5077 86.5996 23.5744 86.5035L71.6594 17.1779C71.8718 16.8717 71.7958 16.4512 71.4895 16.2387L63.0495 10.3846Z" fill="black"/>
<path fill-rule="evenodd" clip-rule="evenodd" d="M57.3845 5.86035C58.0691 4.87337 59.4241 4.62822 60.4111 5.3128L68.8511 11.1669C69.8381 11.8515 70.0833 13.2065 69.3987 14.1935L21.3137 83.5191C21.0988 83.8288 20.8071 84.0775 20.4672 84.2405L10.9361 88.8124C9.40229 89.5482 7.65564 88.3175 7.8323 86.6256L8.92043 76.204C8.95845 75.8398 9.08779 75.4911 9.29648 75.1903L57.3845 5.86035ZM66.4633 13.1617L59.3793 8.24813L55.8745 13.3011L62.9586 18.2146L66.4633 13.1617ZM61.2488 20.6797L54.1647 15.7661L13.0724 75.0102L20.1564 79.9238L61.2488 20.6797ZM10.9694 85.4692L18.015 82.0895L11.7742 77.7608L10.9694 85.4692Z" fill="black"/>
<path d="M81.4207 84.967C82.1617 84.5965 82.4621 83.6955 82.0916 82.9545C81.7211 82.2136 80.8201 81.9132 80.0791 82.2837C74.8806 84.8829 69.6384 87.19 64.0609 88.4394C60.1284 89.3203 56.3248 89.0723 52.4471 88.377C50.5041 88.0286 48.5619 87.5719 46.5737 87.0938L45.9852 86.9521C44.196 86.5209 42.3667 86.0801 40.5163 85.71C34.801 84.567 27.5067 84.7571 21.9428 86.9826C21.1737 87.2903 20.7995 88.1633 21.1072 88.9324C21.4149 89.7016 22.2878 90.0757 23.057 89.7681C27.9529 87.8097 34.6315 87.5925 39.928 88.6518C41.7172 89.0096 43.4885 89.4364 45.2859 89.8695L45.8723 90.0107C47.8594 90.4885 49.8787 90.9643 51.9176 91.3299C56.0039 92.0626 60.2463 92.3682 64.7167 91.3669C70.6547 90.0367 76.1569 87.5989 81.4207 84.967Z" fill="black"/>
</svg>
