<svg width="48" height="48" viewBox="0 0 48 48" fill="none" xmlns="http://www.w3.org/2000/svg">
<path opacity="0.2" d="M31.5248 5.19232C31.3717 5.08611 31.1615 5.12414 31.0552 5.27728L7.01123 39.9422C6.97885 39.9889 6.95878 40.043 6.95288 40.0995L6.40882 45.3103C6.38141 45.5729 6.65241 45.7638 6.89039 45.6496L11.656 43.3637C11.7087 43.3384 11.754 43.2998 11.7873 43.2517L35.8298 8.58896C35.936 8.43583 35.898 8.22558 35.7448 8.11936L31.5248 5.19232Z" fill="black"/>
<path fill-rule="evenodd" clip-rule="evenodd" d="M28.5323 2.81917C28.9359 2.23725 29.7349 2.09271 30.3168 2.49634L34.5368 5.42338C35.1187 5.827 35.2632 6.62594 34.8596 7.20786L10.8171 41.8706C10.6904 42.0533 10.5185 42.1999 10.318 42.296L5.55248 44.582C4.64817 45.0157 3.61836 44.2902 3.72251 43.2926L4.26658 38.0818C4.28899 37.8671 4.36525 37.6615 4.48829 37.4841L28.5323 2.81917ZM32.9607 6.62995L29.7389 4.39528L28.2087 6.60135L31.4305 8.83603L32.9607 6.62995ZM30.3535 10.3888L27.1317 8.15411L6.80751 37.4561L10.0293 39.6908L30.3535 10.3888ZM5.71484 42.4082L8.62135 41.014L6.04685 39.2283L5.71484 42.4082Z" fill="black"/>
<path d="M40.8219 42.707C41.3159 42.46 41.5161 41.8594 41.2691 41.3654C41.0222 40.8714 40.4215 40.6712 39.9275 40.9182C37.3337 42.2151 34.7343 43.3577 31.9756 43.9757C30.0541 44.4061 28.1889 44.2869 26.2674 43.9424C25.3039 43.7696 24.3393 43.5428 23.3451 43.3038L23.0506 43.2329C22.1567 43.0174 21.2372 42.7959 20.3069 42.6098C17.4144 42.0313 13.716 42.1241 10.8783 43.2591C10.3655 43.4642 10.1161 44.0462 10.3212 44.559C10.5264 45.0718 11.1083 45.3212 11.6211 45.1161C14.0134 44.1592 17.3014 44.0483 19.9147 44.571C20.8043 44.7489 21.6851 44.9611 22.5846 45.1778L22.8775 45.2483C23.8709 45.4872 24.887 45.7267 25.9145 45.911C27.975 46.2804 30.1327 46.438 32.4127 45.9273C35.4118 45.2555 38.1846 44.0257 40.8219 42.707Z" fill="black"/>
</svg>
