<svg width="230" height="235" viewBox="0 0 230 235" fill="none" xmlns="http://www.w3.org/2000/svg">
<path opacity="0.07" d="M37.5 165C28.4998 146 30.0861 97.4695 47.5001 76.5005C64.9142 55.5315 80.5167 38.2786 117.79 40.7333C155.062 43.188 194.5 41.0003 194.5 89.0003C194.5 137 187.654 160.606 163.5 182.5C139.346 204.394 82.4997 201 82.4997 201C82.4997 201 46.5002 184.001 37.5 165Z" fill="black"/>
<path opacity="0.2" d="M138.001 62.6594C137.093 62.0299 135.847 62.2553 135.218 63.1629L66.8286 161.761C66.6367 162.038 66.5177 162.359 66.4828 162.693L65.1373 175.58C64.9749 177.135 66.5811 178.267 67.9915 177.591L79.786 171.933C80.0986 171.783 80.3668 171.554 80.5644 171.269L148.944 72.684C149.574 71.7764 149.348 70.5303 148.441 69.9008L138.001 62.6594Z" fill="black"/>
<path fill-rule="evenodd" clip-rule="evenodd" d="M66.7602 49L75.5204 57.7602L66.7602 66.5204L58 57.7602L66.7602 49ZM63.8401 57.7602L66.7602 60.6802L69.6802 57.7602L66.7602 54.8401L63.8401 57.7602Z" fill="black"/>
<path d="M49.1224 67L53.2449 71.1224L49.1224 75.2449L45 71.1224L49.1224 67Z" fill="black"/>
<path d="M190 138C190 136.895 189.105 136 188 136C186.895 136 186 136.895 186 138V142H182C180.895 142 180 142.895 180 144C180 145.105 180.895 146 182 146H186V150C186 151.105 186.895 152 188 152C189.105 152 190 151.105 190 150V146H194C195.105 146 196 145.105 196 144C196 142.895 195.105 142 194 142H190V138Z" fill="black"/>
<path fill-rule="evenodd" clip-rule="evenodd" d="M133.273 54.9098C131.926 53.9749 130.075 54.3096 129.14 55.6575L60.0136 155.319C59.7286 155.73 59.552 156.206 59.5 156.704L57.9359 171.685C57.6946 173.995 60.0799 175.676 62.1746 174.671L75.8756 168.099C76.3398 167.876 76.7381 167.537 77.0315 167.114L146.154 67.4583C147.089 66.1105 146.754 64.2599 145.406 63.325L133.273 54.9098ZM131.84 58.7835L142.28 66.0248L137.064 73.5454L126.624 66.304L131.84 58.7835ZM124.344 69.5908L134.784 76.8322L75.5351 162.253L65.095 155.012L124.344 69.5908ZM63.3188 158.648L72.7267 165.173L62.1055 170.268L63.3188 158.648Z" fill="black"/>
<path d="M164.388 166.461C164.882 167.449 164.482 168.65 163.494 169.144C155.931 172.926 148.035 176.423 139.518 178.331C133.119 179.764 127.044 179.328 121.181 178.277C118.255 177.752 115.356 177.069 112.5 176.382L111.657 176.179C109.073 175.557 106.524 174.942 103.949 174.427C96.3132 172.9 86.6806 173.211 79.608 176.04C78.5824 176.45 77.4185 175.952 77.0082 174.926C76.598 173.9 77.0968 172.736 78.1224 172.326C86.0857 169.141 96.5391 168.866 104.733 170.505C107.39 171.036 110.016 171.669 112.588 172.289L113.435 172.493C116.293 173.18 119.089 173.838 121.887 174.339C127.472 175.341 132.962 175.7 138.643 174.428C146.68 172.628 154.229 169.304 161.705 165.566C162.693 165.072 163.894 165.473 164.388 166.461Z" fill="black"/>
</svg>
