<svg width="196" height="196" viewBox="0 0 196 196" fill="none" xmlns="http://www.w3.org/2000/svg">
<g opacity="0.2">
<path d="M53.5 108C62.6127 108 70 100.613 70 91.5C70 82.3873 62.6127 75 53.5 75C44.3873 75 37 82.3873 37 91.5C37 100.613 44.3873 108 53.5 108Z" fill="black"/>
<path d="M151.636 106C155.523 102.79 158 97.9344 158 92.5C158 82.835 150.165 75 140.5 75C130.835 75 123 82.835 123 92.5C123 97.9344 125.477 102.79 129.364 106H124.808C119.413 106 115 110.413 115 115.808V126.42C114.11 126.147 113.167 126 112.192 126H108.747C111.989 122.824 114 118.397 114 113.5C114 103.835 106.165 96 96.5 96C86.835 96 79 103.835 79 113.5C79 114.086 79.0288 114.666 79.0852 115.238C77.5203 112.152 74.1157 110 70.1923 110H43C35 110 29 118.029 29 123V154C29 155.657 30.3431 157 32 157H71V175C71 176.657 72.3431 178 74 178H119C120.657 178 122 176.657 122 175V157H163C164.657 157 166 155.657 166 154V120.5C166 111.5 157.894 106 152.5 106H151.636Z" fill="black"/>
</g>
<g opacity="0.35">
<path d="M28 28C28 26.8954 28.8954 26 30 26H56C57.1046 26 58 26.8954 58 28C58 29.1046 57.1046 30 56 30H30C28.8954 30 28 29.1046 28 28Z" fill="black"/>
<path d="M30 35C28.8954 35 28 35.8954 28 37C28 38.1046 28.8954 39 30 39H49C50.1046 39 51 38.1046 51 37C51 35.8954 50.1046 35 49 35H30Z" fill="black"/>
<path fill-rule="evenodd" clip-rule="evenodd" d="M20 16C18.8954 16 18 16.8954 18 18V46C18 47.1046 18.8954 48 20 48H37.694L55.7445 62.5568C56.344 63.0403 57.168 63.1366 57.8628 62.8043C58.5577 62.472 59 61.7702 59 61V48H66C67.1046 48 68 47.1046 68 46V18C68 16.8954 67.1046 16 66 16H20ZM22 44V20H64V44H55V56.8178L39.6555 44.4432C39.2999 44.1564 38.8568 44 38.4 44H22Z" fill="black"/>
<path d="M135 26C133.895 26 133 26.8954 133 28C133 29.1046 133.895 30 135 30H161C162.105 30 163 29.1046 163 28C163 26.8954 162.105 26 161 26H135Z" fill="black"/>
<path d="M133 37C133 35.8954 133.895 35 135 35H151C152.105 35 153 35.8954 153 37C153 38.1046 152.105 39 151 39H135C133.895 39 133 38.1046 133 37Z" fill="black"/>
<path fill-rule="evenodd" clip-rule="evenodd" d="M171 18C171 16.8954 170.105 16 169 16H126C124.895 16 124 16.8954 124 18V48C124 49.1046 124.895 50 126 50H131V57C131 57.7259 131.393 58.3949 132.028 58.7478C132.662 59.1007 133.438 59.0821 134.055 58.6993L148.07 50H169C170.105 50 171 49.1046 171 48V18ZM167 20V46H147.5C147.127 46 146.762 46.1042 146.445 46.3007L135 53.4047V46H128V20H167Z" fill="black"/>
<path d="M84 58C84 56.8954 84.8954 56 86 56H105C106.105 56 107 56.8954 107 58C107 59.1046 106.105 60 105 60H86C84.8954 60 84 59.1046 84 58Z" fill="black"/>
<path fill-rule="evenodd" clip-rule="evenodd" d="M115 47C115 45.8954 114.105 45 113 45H78C76.8954 45 76 45.8954 76 47V69C76 70.1046 76.8954 71 78 71H83V80C83 80.8021 83.4792 81.5266 84.2173 81.8405C84.9554 82.1544 85.8097 81.9969 86.3874 81.4405L97.2276 71H113C114.105 71 115 70.1046 115 69V47ZM111 67H95.6145L87 75.297V67H80V49H111V67Z" fill="black"/>
</g>
<path opacity="0.07" fill-rule="evenodd" clip-rule="evenodd" d="M40.3959 50.2075L55.5363 62.5502C56.1348 63.038 56.9606 63.1378 57.6581 62.8066C58.3555 62.4753 59 61.7721 59 61V48H66C67.1046 48 68 47.1046 68 46V38.9292C87.1058 33.4714 106.195 33.237 124 41.1732V48C124 49.1046 124.895 50 126 50H131V57C131 57.7314 131.877 58.4044 132.519 58.7551C133.161 59.1058 133.943 59.0782 134.559 58.6831L142.95 53.2968C144.325 54.4748 145.689 55.7156 147.039 57.0207C177.847 86.7893 173.822 123.07 171.312 139.815C171.106 141.189 170.942 142.644 170.772 144.156C168.868 161.069 166.167 185.065 94.7598 181.677C16.9693 177.986 16.1974 144.327 14.4737 135.163C12.75 126 12.5001 105.75 16.5001 89C20.5001 72.25 17.2501 53.2968 40.3959 50.2075ZM78 45C76.8954 45 76 45.8954 76 47V69C76 70.1046 76.8954 71 78 71H83V80C83 80.8081 83.8547 81.5367 84.6008 81.8468C85.347 82.157 86.2065 81.9876 86.7792 81.4176L97.2467 71H113C114.105 71 115 70.1046 115 69V47C115 45.8954 114.105 45 113 45H78Z" fill="black"/>
<path d="M100 11C101.105 11 102 11.8954 102 13V17H106C107.105 17 108 17.8954 108 19C108 20.1046 107.105 21 106 21H102V25C102 26.1046 101.105 27 100 27C98.8954 27 98 26.1046 98 25V21H94C92.8954 21 92 20.1046 92 19C92 17.8954 92.8954 17 94 17H98V13C98 11.8954 98.8954 11 100 11Z" fill="black"/>
<path d="M181 76L177 72L173 76L177 80L181 76Z" fill="black"/>
<path fill-rule="evenodd" clip-rule="evenodd" d="M40 173.5L31.5 165L23 173.5L31.5 182L40 173.5ZM31.5 176.333L28.6667 173.5L31.5 170.667L34.3333 173.5L31.5 176.333Z" fill="black"/>
<path fill-rule="evenodd" clip-rule="evenodd" d="M65 146C65 135.714 72.0585 127.077 81.5958 124.669C76.4097 121.164 73 115.23 73 108.5C73 97.7304 81.7304 89 92.5 89C103.27 89 112 97.7304 112 108.5C112 115.23 108.59 121.164 103.404 124.669C112.942 127.077 120 135.714 120 146V173C120 174.105 119.105 175 118 175H67C65.8954 175 65 174.105 65 173V146ZM79 143C80.1046 143 81 143.895 81 145V171H104V145C104 143.895 104.895 143 106 143C107.105 143 108 143.895 108 145V171H116V146C116 136.059 107.941 128 98 128H87C77.0589 128 69 136.059 69 146V171H77V145C77 143.895 77.8954 143 79 143ZM77 108.5C77 117.06 83.9396 124 92.5 124C101.06 124 108 117.06 108 108.5C108 99.9396 101.06 93 92.5 93C83.9396 93 77 99.9396 77 108.5Z" fill="black"/>
<path fill-rule="evenodd" clip-rule="evenodd" d="M36 120C37.1046 120 38 120.895 38 122L38 150H57C58.1046 150 59 150.895 59 152C59 153.105 58.1046 154 57 154H24C22.8954 154 22 153.105 22 152V124C22 114.267 28.953 106.157 38.1631 104.368C33.2208 100.83 30 95.0413 30 88.5C30 77.7304 38.7304 69 49.5 69C60.2696 69 69 77.7304 69 88.5C69 94.8194 65.994 100.437 61.3338 104H64C65.1046 104 66 104.895 66 106C66 107.105 65.1046 108 64 108H42C33.1634 108 26 115.163 26 124V150H34L34 122C34 120.895 34.8954 120 36 120ZM34 88.5C34 97.0604 40.9396 104 49.5 104C58.0604 104 65 97.0604 65 88.5C65 79.9396 58.0604 73 49.5 73C40.9396 73 34 79.9396 34 88.5Z" fill="black"/>
<path fill-rule="evenodd" clip-rule="evenodd" d="M151 122C151 120.895 150.105 120 149 120C147.895 120 147 120.895 147 122V150H128C126.895 150 126 150.895 126 152C126 153.105 126.895 154 128 154H161C162.105 154 163 153.105 163 152V124C163 114.267 156.047 106.157 146.837 104.368C151.779 100.83 155 95.0413 155 88.5C155 77.7304 146.27 69 135.5 69C124.73 69 116 77.7304 116 88.5C116 94.8194 119.006 100.437 123.666 104H121C119.895 104 119 104.895 119 106C119 107.105 119.895 108 121 108H143C151.837 108 159 115.163 159 124V150H151V122ZM135.5 104C126.94 104 120 97.0604 120 88.5C120 79.9396 126.94 73 135.5 73C144.06 73 151 79.9396 151 88.5C151 97.0604 144.06 104 135.5 104Z" fill="black"/>
</svg>
