<svg width="96" height="96" viewBox="0 0 96 96" fill="none" xmlns="http://www.w3.org/2000/svg">
<path opacity="0.2" d="M36 47.5C36 50.5485 34.5641 53.2617 32.3317 55H38.091C38.3531 55 38.6048 55.1029 38.7918 55.2867L40.1799 56.6505C41.0405 52.2891 44.8862 49 49.5 49C53.1186 49 56.2646 51.0231 57.8687 54H65.5718C63.9769 52.3007 63 50.0144 63 47.5C63 42.2533 67.2533 38 72.5 38C77.7467 38 82 42.2533 82 47.5C82 50.0144 81.0231 52.3007 79.4282 54H83C85.2091 54 87 55.7909 87 58V81C87 82.1046 86.1046 83 85 83H64V93C64 93.5523 63.5523 94 63 94H36C35.4477 94 35 93.5523 35 93V83H16C15.4477 83 15 82.5523 15 82V59C15 56.7909 16.7909 55 19 55H20.6683C18.4359 53.2617 17 50.5485 17 47.5C17 42.2533 21.2533 38 26.5 38C31.7467 38 36 42.2533 36 47.5Z" fill="black"/>
<path fill-rule="evenodd" clip-rule="evenodd" d="M13 44.5C13 38.4249 17.9249 33.5 24 33.5C30.0751 33.5 35 38.4249 35 44.5C35 47.924 33.4356 50.9826 30.9826 53H31.5C32.3284 53 33 53.6716 33 54.5C33 55.3284 32.3284 56 31.5 56H15.535C13.4993 56 12 57.5411 12 59.213V78H16.3819C16.1444 77.7346 16 77.3842 16 77V63C16 62.1716 16.6716 61.5 17.5 61.5C18.3284 61.5 19 62.1716 19 63V77C19 77.3842 18.8556 77.7346 18.6181 78H27.6818C28.5102 78 29.1818 78.6716 29.1818 79.5C29.1818 80.3284 28.5102 81 27.6818 81H10.5C9.67157 81 9 80.3284 9 79.5V59.213C9 55.7006 12.0322 53 15.535 53H17.0174C14.5644 50.9826 13 47.924 13 44.5ZM24 36.5C19.5817 36.5 16 40.0817 16 44.5C16 48.9183 19.5817 52.5 24 52.5C28.4183 52.5 32 48.9183 32 44.5C32 40.0817 28.4183 36.5 24 36.5Z" fill="black"/>
<path fill-rule="evenodd" clip-rule="evenodd" d="M47 44.5C40.9249 44.5 36 49.4249 36 55.5C36 58.924 37.5644 61.9826 40.0174 64H38.6923C35.1189 64 32 66.7284 32 70.3077V90.5C32 91.3284 32.6716 92 33.5 92H60.5C61.3284 92 62 91.3284 62 90.5V70.3077C62 66.7284 58.8811 64 55.3077 64H53.9826C56.4356 61.9826 58 58.924 58 55.5C58 49.4249 53.0751 44.5 47 44.5ZM39 55.5C39 51.0817 42.5817 47.5 47 47.5C51.4183 47.5 55 51.0817 55 55.5C55 59.9183 51.4183 63.5 47 63.5C42.5817 63.5 39 59.9183 39 55.5ZM35 70.3077C35 68.5985 36.5542 67 38.6923 67H55.3077C57.4458 67 59 68.5985 59 70.3077V89H55V75C55 74.1716 54.3284 73.5 53.5 73.5C52.6716 73.5 52 74.1716 52 75V89H42V75C42 74.1716 41.3284 73.5 40.5 73.5C39.6716 73.5 39 74.1716 39 75V89H35V70.3077Z" fill="black"/>
<path fill-rule="evenodd" clip-rule="evenodd" d="M70 33.5C76.0751 33.5 81 38.4249 81 44.5C81 47.924 79.4356 50.9826 76.9826 53H78.6839C82.1305 53 85 55.762 85 59.213V79.5C85 80.3284 84.3284 81 83.5 81H66.3182C65.4898 81 64.8182 80.3284 64.8182 79.5C64.8182 78.6716 65.4898 78 66.3182 78H74.3819C74.1444 77.7346 74 77.3842 74 77V63C74 62.1716 74.6716 61.5 75.5 61.5C76.3284 61.5 77 62.1716 77 63V77C77 77.3842 76.8556 77.7346 76.6181 78H82V59.213C82 57.4797 80.5351 56 78.6839 56H62.5C61.6716 56 61 55.3284 61 54.5C61 53.6716 61.6716 53 62.5 53H63.0174C60.5644 50.9826 59 47.924 59 44.5C59 38.4249 63.9249 33.5 70 33.5ZM78 44.5C78 40.0817 74.4183 36.5 70 36.5C65.5817 36.5 62 40.0817 62 44.5C62 48.9183 65.5817 52.5 70 52.5C74.4183 52.5 78 48.9183 78 44.5Z" fill="black"/>
<g opacity="0.35">
<path d="M12.5 11C11.6716 11 11 11.6716 11 12.5C11 13.3284 11.6716 14 12.5 14H25.5C26.3284 14 27 13.3284 27 12.5C27 11.6716 26.3284 11 25.5 11H12.5Z" fill="black"/>
<path d="M11 17.5C11 16.6716 11.6716 16 12.5 16H21.5C22.3284 16 23 16.6716 23 17.5C23 18.3284 22.3284 19 21.5 19H12.5C11.6716 19 11 18.3284 11 17.5Z" fill="black"/>
<path fill-rule="evenodd" clip-rule="evenodd" d="M6 7.5C6 6.67157 6.67157 6 7.5 6H32.5C33.3284 6 34 6.67157 34 7.5V22.5C34 23.3284 33.3284 24 32.5 24H29V30C29 30.5682 28.679 31.0876 28.1708 31.3416C27.6626 31.5957 27.0545 31.5409 26.6 31.2L17 24H7.5C6.67157 24 6 23.3284 6 22.5V7.5ZM9 9V21H17.5C17.8246 21 18.1404 21.1053 18.4 21.3L26 27V21H31V9H9Z" fill="black"/>
<path d="M69.5 12C68.6716 12 68 12.6716 68 13.5C68 14.3284 68.6716 15 69.5 15H82.5C83.3284 15 84 14.3284 84 13.5C84 12.6716 83.3284 12 82.5 12H69.5Z" fill="black"/>
<path d="M68 18.5C68 17.6716 68.6716 17 69.5 17H77.5C78.3284 17 79 17.6716 79 18.5C79 19.3284 78.3284 20 77.5 20H69.5C68.6716 20 68 19.3284 68 18.5Z" fill="black"/>
<path fill-rule="evenodd" clip-rule="evenodd" d="M87.5 7C88.3284 7 89 7.67157 89 8.5V24.5C89 25.3284 88.3284 26 87.5 26H76.4155L69.2717 30.2862C68.8083 30.5643 68.2312 30.5716 67.761 30.3053C67.2907 30.039 67 29.5404 67 29V26H64.5C63.6716 26 63 25.3284 63 24.5V8.5C63 7.67157 63.6716 7 64.5 7H87.5ZM86 23V10H66V23H70V26.3507L75.2283 23.2138C75.4614 23.0739 75.7281 23 76 23H86Z" fill="black"/>
<path d="M43.5 27C42.6716 27 42 27.6716 42 28.5C42 29.3284 42.6716 30 43.5 30H52.5C53.3284 30 54 29.3284 54 28.5C54 27.6716 53.3284 27 52.5 27H43.5Z" fill="black"/>
<path fill-rule="evenodd" clip-rule="evenodd" d="M59 22.5C59 21.6716 58.3284 21 57.5 21H38.5C37.6716 21 37 21.6716 37 22.5V34.5C37 35.3284 37.6716 36 38.5 36H41V40.5C41 41.1067 41.3655 41.6536 41.926 41.8858C42.4865 42.118 43.1317 41.9897 43.5607 41.5607L49.1213 36H57.5C58.3284 36 59 35.3284 59 34.5V22.5ZM40 24H56V33H47.8787L44 36.8787V33H40V24Z" fill="black"/>
</g>
</svg>
