<svg width="48" height="48" viewBox="0 0 48 48" fill="none" xmlns="http://www.w3.org/2000/svg">
<g opacity="0.2">
<path d="M13.5 28C15.9853 28 18 25.9853 18 23.5C18 21.0147 15.9853 19 13.5 19C11.0147 19 9 21.0147 9 23.5C9 25.9853 11.0147 28 13.5 28Z" fill="black"/>
<path d="M7 30C7 29.4477 7.44772 29 8 29H19C19.5523 29 20 29.4477 20 30V35H31V30C31 29.4477 31.4477 29 32 29H44C44.5523 29 45 29.4477 45 30V40C45 41.1046 44.1046 42 43 42H33V47C33 47.5523 32.5523 48 32 48H20C19.4477 48 19 47.5523 19 47V42H8C7.44772 42 7 41.5523 7 41V30Z" fill="black"/>
<path d="M32 23.5C32 25.9853 34.0147 28 36.5 28C38.9853 28 41 25.9853 41 23.5C41 21.0147 38.9853 19 36.5 19C34.0147 19 32 21.0147 32 23.5Z" fill="black"/>
<path d="M24.5 34C26.9853 34 29 31.9853 29 29.5C29 27.0147 26.9853 25 24.5 25C22.0147 25 20 27.0147 20 29.5C20 31.9853 22.0147 34 24.5 34Z" fill="black"/>
</g>
<path fill-rule="evenodd" clip-rule="evenodd" d="M16.3974 26.0821C17.3919 25.0113 18 23.5766 18 22C18 18.6863 15.3137 16 12 16C8.68629 16 6 18.6863 6 22C6 23.5375 6.57827 24.9399 7.52918 26.0016C5.64172 26.0556 4 27.5195 4 29.4508V40C4 40.5523 4.44772 41 5 41H14C14.5523 41 15 40.5523 15 40C15 39.4477 14.5523 39 14 39H10V32C10 31.4477 9.55228 31 9 31C8.44772 31 8 31.4477 8 32V39H6V29.4508C6 28.723 6.66873 28 7.63736 28H16C16.5523 28 17 27.5523 17 27C17 26.5889 16.752 26.2358 16.3974 26.0821ZM12 18C14.2091 18 16 19.7909 16 22C16 24.2091 14.2091 26 12 26C9.79086 26 8 24.2091 8 22C8 19.7909 9.79086 18 12 18Z" fill="black"/>
<path fill-rule="evenodd" clip-rule="evenodd" d="M28.4692 32.0034C29.4211 30.9415 30 29.5384 30 28C30 24.6863 27.3137 22 24 22C20.6863 22 18 24.6863 18 28C18 29.5384 18.5789 30.9415 19.5308 32.0034C17.6364 32.0832 16 33.5592 16 35.5V46C16 46.5523 16.4477 47 17 47H31C31.5523 47 32 46.5523 32 46V35.5C32 33.5592 30.3636 32.0832 28.4692 32.0034ZM20 28C20 25.7909 21.7909 24 24 24C26.2091 24 28 25.7909 28 28C28 30.2091 26.2091 32 24 32C21.7909 32 20 30.2091 20 28ZM19.6923 34H28.3077C29.3073 34 30 34.7458 30 35.5V45H28V38C28 37.4477 27.5523 37 27 37C26.4477 37 26 37.4477 26 38V45H22V38C22 37.4477 21.5523 37 21 37C20.4477 37 20 37.4477 20 38V45H18V35.5C18 34.7458 18.6927 34 19.6923 34Z" fill="black"/>
<path fill-rule="evenodd" clip-rule="evenodd" d="M42 22C42 23.5367 41.4223 24.9385 40.4722 26H40.4773C42.3896 26 44 27.5235 44 29.4508V40C44 40.5523 43.5523 41 43 41H34C33.4477 41 33 40.5523 33 40C33 39.4477 33.4477 39 34 39H38V32C38 31.4477 38.4477 31 39 31C39.5523 31 40 31.4477 40 32V39H42V29.4508C42 28.6822 41.34 28 40.4773 28H32C31.4477 28 31 27.5523 31 27C31 26.5889 31.248 26.2358 31.6026 26.0821C30.6081 25.0113 30 23.5766 30 22C30 18.6863 32.6863 16 36 16C39.3137 16 42 18.6863 42 22ZM40 22C40 19.7909 38.2091 18 36 18C33.7909 18 32 19.7909 32 22C32 24.2091 33.7909 26 36 26C38.2091 26 40 24.2091 40 22Z" fill="black"/>
<g opacity="0.35">
<path d="M17 10C17 9.44772 17.4477 9 18 9L30 9C30.5523 9 31 9.44771 31 10C31 10.5523 30.5523 11 30 11L18 11C17.4477 11 17 10.5523 17 10Z" fill="black"/>
<path d="M18 5C17.4477 5 17 5.44772 17 6C17 6.55228 17.4477 7 18 7L30 7C30.5523 7 31 6.55229 31 6C31 5.44772 30.5523 5 30 5L18 5Z" fill="black"/>
<path fill-rule="evenodd" clip-rule="evenodd" d="M14 1C13.4477 1 13 1.44772 13 2V14C13 14.5523 13.4477 15 14 15H19.0858L23.2929 19.2071C23.4876 19.4019 23.7541 19.5077 24.0294 19.4996C24.3047 19.4915 24.5644 19.3702 24.7474 19.1644L28.4491 15H34C34.5523 15 35 14.5523 35 14V2C35 1.44772 34.5523 1 34 1H14ZM15 13V3H33V13H28C27.7144 13 27.4424 13.1221 27.2526 13.3356L23.9572 17.043L20.2071 13.2929C20.0196 13.1054 19.7652 13 19.5 13H15Z" fill="black"/>
</g>
</svg>
