<svg width="196" height="196" viewBox="0 0 196 196" fill="none" xmlns="http://www.w3.org/2000/svg">
<path opacity="0.07" d="M174.542 30.8806C140.002 1.76982 84.1501 -2.83923 57.7716 18.0057C47.6092 26.0363 40.0651 32.1448 13.8923 81.5242C-12.2806 130.904 7.32547 154.023 32.1529 170.589C56.9804 187.155 110.791 196.027 153.287 173.317C155.478 172.147 157.581 170.786 159.593 169.254L150 161.1L144.387 156.5L136.588 162L124.046 172.153C123.717 172.419 123.24 172.109 123.35 171.7L125.962 162H55C55 126.545 55.4095 96.3637 90.6844 91.6269C79.7075 87.0102 72 76.1552 72 63.5C72 46.6553 85.6553 33 102.5 33C119.345 33 133 46.6553 133 63.5C133 76.3449 125.06 87.3352 113.82 91.8303C129.276 94.0492 138.13 100.498 143.202 109.915L143.576 109.019C143.728 108.653 144.248 108.663 144.387 109.033L152.894 131.717C152.958 131.887 153.121 132 153.303 132H175.69C176.11 132 176.288 132.534 175.952 132.786L157.236 146.823C157.094 146.93 157.03 147.113 157.077 147.286L162.379 166.978C196.939 136.72 202.59 54.5204 174.542 30.8806Z" fill="black"/>
<path opacity="0.2" d="M133 63.5C133 76.3449 125.06 87.3352 113.82 91.8303C129.276 94.0492 138.13 100.498 143.202 109.915L134.112 131.731C134.044 131.894 133.885 132 133.709 132H111.31C110.89 132 110.712 132.534 111.048 132.786L129.764 146.823C129.906 146.93 129.97 147.113 129.923 147.286L125.962 162H55C55 126.545 55.4095 96.3637 90.6844 91.6269C79.7075 87.0102 72 76.1552 72 63.5C72 46.6553 85.6553 33 102.5 33C119.345 33 133 46.6553 133 63.5Z" fill="black"/>
<path fill-rule="evenodd" clip-rule="evenodd" d="M92.5 21C74.5508 21 60 35.5507 60 53.5C60 66.4129 67.5307 77.5668 78.4399 82.8096C72.78 83.6854 67.973 85.2447 63.9005 87.4341C56.8565 91.221 52.167 96.8089 49.0708 103.636C45.9954 110.418 44.4947 118.412 43.7482 127.076C43.0015 135.743 43 145.226 43 155V157H109C110.105 157 111 156.105 111 155C111 153.896 110.105 153 109 153H47.0003C47.004 143.921 47.054 135.306 47.7335 127.419C48.4629 118.953 49.9084 111.474 52.7137 105.288C55.4983 99.1479 59.6242 94.2745 65.7946 90.9573C72.0037 87.6192 80.4387 85.7739 91.9608 86C103.51 86.2267 111.954 88.0324 118.17 91.2017C124.329 94.3418 128.419 98.8799 131.186 104.842C131.651 105.844 132.84 106.28 133.842 105.815C134.844 105.35 135.279 104.16 134.814 103.158C131.699 96.4467 127.002 91.2147 119.987 87.6382C115.991 85.6006 111.283 84.1207 105.748 83.1859C117.094 78.1149 125 66.7307 125 53.5C125 35.5507 110.449 21 92.5 21ZM64 53.5C64 37.7599 76.7599 25 92.5 25C108.24 25 121 37.7599 121 53.5C121 69.2401 108.24 82 92.5 82C76.7599 82 64 69.2401 64 53.5Z" fill="black"/>
<path d="M160 24L165 29L160 34L155 29L160 24Z" fill="black"/>
<path d="M15 108C16.1046 108 17 108.895 17 110V114H21C22.1046 114 23 114.895 23 116C23 117.105 22.1046 118 21 118H17V122C17 123.105 16.1046 124 15 124C13.8954 124 13 123.105 13 122V118H9C7.89543 118 7 117.105 7 116C7 114.895 7.89543 114 9 114H13V110C13 108.895 13.8954 108 15 108Z" fill="black"/>
<path fill-rule="evenodd" clip-rule="evenodd" d="M185 50L176 41L167 50L176 59L185 50ZM176 53L173 50L176 47L179 50L176 53Z" fill="black"/>
<path fill-rule="evenodd" clip-rule="evenodd" d="M146.26 108.331C145.485 106.263 142.579 106.211 141.729 108.249L132.667 130H111.31C108.968 130 107.975 132.981 109.848 134.386L127.717 147.788L121.419 171.18C120.805 173.461 123.469 175.194 125.305 173.708L143.969 158.599L161.636 173.615C163.458 175.164 166.188 173.435 165.566 171.125L159.283 147.788L177.152 134.386C179.025 132.981 178.032 130 175.69 130H154.386L146.26 108.331ZM135.958 132.501L143.902 113.435L151.021 132.419C151.378 133.37 152.287 134 153.303 134H171L156.036 145.223C155.239 145.821 154.887 146.843 155.146 147.806L160.398 167.313L145.571 154.711C144.678 153.952 143.371 153.936 142.46 154.674L126.534 167.566L131.854 147.806C132.113 146.843 131.761 145.821 130.964 145.223L116 134H133.709C134.693 134 135.58 133.409 135.958 132.501Z" fill="black"/>
</svg>
