<svg width="48" height="48" viewBox="0 0 48 48" fill="none" xmlns="http://www.w3.org/2000/svg">
<g opacity="0.2">
<path d="M34 15C34 18.7432 31.7149 21.9526 28.4635 23.3094C32.7076 24.0372 35.2422 25.9868 36.7558 28.745C36.69 28.789 36.6346 28.8528 36.5987 28.9365L34.1134 34.7355C34.0446 34.896 33.8868 35.0001 33.7121 35.0001H28.3098C27.8902 35.0001 27.7122 35.5343 28.0478 35.786L32.7641 39.3232C32.9066 39.4301 32.9699 39.6129 32.924 39.785L31.5334 45H11C11 34.5242 11 24.7969 21.3252 23.218C18.1866 21.8124 16 18.6616 16 15C16 10.0294 20.0294 6 25 6C29.9706 6 34 10.0294 34 15Z" fill="black"/>
<path d="M33.4001 45H39C39 44.553 39 44.1083 38.9992 43.6661L37.2795 42.233C37.1176 42.0981 36.8824 42.0981 36.7205 42.233L33.4001 45Z" fill="black"/>
</g>
<path fill-rule="evenodd" clip-rule="evenodd" d="M12 12C12 15.5746 13.8756 18.7111 16.6963 20.4792C15.4977 20.7556 14.4325 21.1485 13.4882 21.6537C11.3086 22.8198 9.85106 24.5429 8.8894 26.6312C7.93799 28.6972 7.47397 31.1144 7.24069 33.6987C7.00726 36.2847 7 39.1091 7 41.9998V42.9998H27C27.5523 42.9998 28 42.552 28 41.9998C28 41.4475 27.5523 40.9998 27 40.9998H9.00066C9.00487 38.465 9.03451 36.073 9.23259 33.8785C9.4567 31.3957 9.89154 29.2364 10.706 27.4677C11.5103 25.7213 12.6857 24.3513 14.4317 23.4172C16.1457 22.5002 18.4818 21.9649 21.6927 21.9954C21.7948 21.9984 21.8972 22 22 22H22.0019C25.3641 22.0682 27.7509 22.6158 29.4762 23.5282C31.1785 24.4285 32.3047 25.7195 33.0927 27.4202C33.3249 27.9213 33.9193 28.1393 34.4204 27.9071C34.9215 27.6749 35.1395 27.0805 34.9073 26.5794C33.9574 24.5293 32.5442 22.8883 30.4113 21.7603C29.4581 21.2562 28.3756 20.8621 27.1473 20.5753C30.0549 18.8262 32 15.6403 32 12C32 6.47715 27.5228 2 22 2C16.4772 2 12 6.47715 12 12ZM22 4C26.4183 4 30 7.58172 30 12C30 16.4114 26.4285 19.9889 22.0197 20C21.9242 19.9981 21.8293 19.9967 21.7349 19.9957C17.4393 19.8558 14 16.3296 14 12C14 7.58172 17.5817 4 22 4Z" fill="black"/>
<path fill-rule="evenodd" clip-rule="evenodd" d="M38.3205 28.5426C37.8229 27.3816 36.1771 27.3816 35.6796 28.5426L33.3406 34.0001H28.3098C26.9292 34.0001 26.3434 35.7577 27.4478 36.586L31.8598 39.895L30.3877 45.4151C30.0267 46.7689 31.6191 47.7859 32.6955 46.8889L37 43.3018L41.3045 46.8889C42.3809 47.7859 43.9733 46.7689 43.6123 45.4151L42.1402 39.895L46.5522 36.586C47.6566 35.7577 47.0708 34.0001 45.6902 34.0001H40.6594L38.3205 28.5426ZM35.0326 35.1294L37 30.5387L38.9675 35.1294C39.1938 35.6576 39.7132 36.0001 40.2879 36.0001H44L40.6359 38.5232C40.1669 38.8749 39.9587 39.4763 40.1097 40.0427L41.2231 44.2176L37.9197 41.4648C37.3869 41.0209 36.6131 41.0209 36.0803 41.4648L32.777 44.2176L33.8903 40.0427C34.0413 39.4763 33.8331 38.8749 33.3641 38.5232L30 36.0001H33.7121C34.2868 36.0001 34.8062 35.6576 35.0326 35.1294Z" fill="black"/>
</svg>
