<svg width="96" height="96" viewBox="0 0 96 96" fill="none" xmlns="http://www.w3.org/2000/svg">
<path opacity="0.2" d="M65.125 31C65.125 38.4558 60.5919 44.8529 54.1315 47.5854C62.8211 48.9703 67.9139 52.6958 70.8987 58.0805C70.8167 58.1587 70.7475 58.2562 70.6974 58.373L65.7268 69.971C65.5892 70.2921 65.2735 70.5003 64.9242 70.5003H54.1196C53.2805 70.5003 52.9244 71.5685 53.5957 72.072L63.0283 79.1465C63.3133 79.3602 63.4399 79.7257 63.3481 80.07L60.9667 89H19.125C19.125 68.0838 19.125 50.2785 39.6871 47.3962C33.4572 44.5656 29.125 38.2887 29.125 31C29.125 21.0589 37.1839 13 47.125 13C57.0661 13 65.125 21.0589 65.125 31Z" fill="black"/>
<path fill-rule="evenodd" clip-rule="evenodd" d="M22 24.5C22 31.9303 26.1558 38.39 32.2698 41.6814C29.3849 42.2272 26.8805 43.0901 24.7118 44.2512C20.4611 46.5271 17.6167 49.887 15.7328 53.9797C13.8644 58.0391 12.9436 62.8104 12.4794 67.9545C12.0149 73.1011 12 78.7269 12 84.5108V86.0108H51.5C52.3284 86.0108 53 85.3392 53 84.5108C53 83.6823 52.3284 83.0108 51.5 83.0108H15.0006C15.0062 77.7568 15.0559 72.7817 15.4672 68.2241C15.9177 63.2324 16.7947 58.8477 18.458 55.2341C20.106 51.6538 22.5275 48.8237 26.1279 46.896C29.6529 45.0086 34.4164 43.9289 40.8953 43.9908C41.0961 43.9969 41.2977 44 41.5 44L41.5095 44C48.2791 44.1369 53.1398 45.2425 56.6854 47.1206C60.1979 48.9812 62.5224 51.6538 64.1391 55.142C64.4874 55.8936 65.3791 56.2205 66.1308 55.8722C66.8824 55.5238 67.2093 54.6321 66.8609 53.8805C65.0018 49.8692 62.2475 46.672 58.0896 44.4695C55.9006 43.31 53.3523 42.442 50.3859 41.8623C56.6877 38.6307 61 32.0689 61 24.5C61 13.7304 52.2696 5 41.5 5C30.7304 5 22 13.7304 22 24.5ZM41.5 8C50.6127 8 58 15.3873 58 24.5C58 33.6002 50.633 40.9797 41.5376 41L41.5295 40.9998C41.3379 40.996 41.1476 40.9932 40.9584 40.9913C32.0964 40.7055 25 33.4315 25 24.5C25 15.3873 32.3873 8 41.5 8Z" fill="black"/>
<path fill-rule="evenodd" clip-rule="evenodd" d="M73.6813 57.7821C72.8594 55.8643 70.1406 55.8643 69.3187 57.7821L64.5109 69.0003H54.1196C51.8389 69.0003 50.8711 71.9036 52.6957 73.272L61.7896 80.0925L58.7586 91.4591C58.1622 93.6955 60.7928 95.3755 62.5709 93.8937L71.5 86.4528L80.4291 93.8937C82.2072 95.3755 84.8378 93.6955 84.2414 91.4591L81.2103 80.0925L90.3043 73.272C92.1288 71.9036 91.1611 69.0003 88.8804 69.0003H78.4891L73.6813 57.7821ZM67.1055 70.5619L71.5 60.3081L75.8945 70.5619C76.2684 71.4345 77.1264 72.0003 78.0758 72.0003H87L79.0717 77.9465C78.2971 78.5275 77.9531 79.5209 78.2026 80.4565L80.8346 90.3265L73.0193 83.8138C72.1392 83.0804 70.8608 83.0804 69.9807 83.8138L62.1654 90.3265L64.7974 80.4565C65.0469 79.5209 64.7029 78.5275 63.9283 77.9465L56 72.0003H64.9242C65.8736 72.0003 66.7316 71.4345 67.1055 70.5619Z" fill="black"/>
</svg>
