<svg width="48" height="48" viewBox="0 0 48 48" fill="none" xmlns="http://www.w3.org/2000/svg">
<path opacity="0.2" d="M20 37.2352V19.7174C20 18.9509 20.827 18.4694 21.4936 18.8477L36.5088 27.3699C37.1749 27.7479 37.1862 28.7038 36.5292 29.0974L21.5139 38.093C20.8474 38.4923 20 38.0122 20 37.2352Z" fill="black"/>
<path fill-rule="evenodd" clip-rule="evenodd" d="M18.9619 14.9192C17.6228 14.1992 16 15.1692 16 16.6896V34.2652C16 35.8059 17.6622 36.7737 19.0021 36.0132L34.9039 26.9879C36.2789 26.2075 36.2562 24.2183 34.8636 23.4695L18.9619 14.9192ZM18 16.6896L18.0002 16.6845C18.0002 16.6845 18.0026 16.6823 18.0049 16.681C18.0071 16.6796 18.0101 16.6785 18.0101 16.6785L18.0147 16.6807L33.9165 25.231L33.9211 25.2338L33.9216 25.2376L33.9217 25.2397C33.9218 25.2424 33.9212 25.2457 33.9212 25.2457L33.9167 25.2485L18.0149 34.2739L18.0103 34.2762C18.0103 34.2762 18.0072 34.2751 18.005 34.2738C18.0027 34.2725 18.0002 34.2703 18.0002 34.2703L18 34.2652V16.6896Z" fill="black"/>
<path fill-rule="evenodd" clip-rule="evenodd" d="M23.5 2C11.0736 2 1 12.0736 1 24.5C1 36.9264 11.0736 47 23.5 47C35.9264 47 46 36.9264 46 24.5C46 12.0736 35.9264 2 23.5 2ZM3 24.5C3 13.1782 12.1782 4 23.5 4C34.8218 4 44 13.1782 44 24.5C44 35.8218 34.8218 45 23.5 45C12.1782 45 3 35.8218 3 24.5Z" fill="black"/>
</svg>
