<svg width="196" height="196" viewBox="0 0 196 196" fill="none" xmlns="http://www.w3.org/2000/svg">
<path opacity="0.07" fill-rule="evenodd" clip-rule="evenodd" d="M169.793 164.728C193.15 133.027 184.859 89.1121 174.488 61.6998C169.393 48.2327 148.334 20.3736 104.881 18.3379C61.4282 16.3022 45.8148 30.5072 32.8172 53.0462C19.8197 75.5852 6.31081 120.975 28.4851 156.649C50.6594 192.322 149.269 192.584 169.793 164.728ZM86 89.5393C86 88.3845 87.2345 87.6494 88.2497 88.1996L130.638 111.17C131.687 111.739 131.705 113.239 130.67 113.832L88.2815 138.129C87.2657 138.711 86 137.978 86 136.807V89.5393Z" fill="black"/>
<path fill-rule="evenodd" clip-rule="evenodd" d="M156.5 25L165 33.5L156.5 42L148 33.5L156.5 25ZM153.667 33.5L156.5 36.3333L159.333 33.5L156.5 30.6667L153.667 33.5Z" fill="black"/>
<path d="M24 146C24 144.895 23.1046 144 22 144C20.8954 144 20 144.895 20 146V150H16C14.8954 150 14 150.895 14 152C14 153.105 14.8954 154 16 154H20V158C20 159.105 20.8954 160 22 160C23.1046 160 24 159.105 24 158V154H28C29.1046 154 30 153.105 30 152C30 150.895 29.1046 150 28 150H24V146Z" fill="black"/>
<path d="M44 170L40 166L36 170L40 174L44 170Z" fill="black"/>
<path fill-rule="evenodd" clip-rule="evenodd" d="M79 80.9075C79 78.2539 81.822 76.5525 84.1687 77.7912L129.638 101.792C132.111 103.098 132.151 106.626 129.708 107.987L84.2388 133.321C81.8901 134.63 79 132.932 79 130.243V80.9075ZM83 81.6974V129.433L126.995 104.92L83 81.6974Z" fill="black"/>
<path fill-rule="evenodd" clip-rule="evenodd" d="M97.4 44C64.5943 44 38 70.5943 38 103.4C38 136.206 64.5943 162.8 97.4 162.8C130.206 162.8 156.8 136.206 156.8 103.4C156.8 70.5943 130.206 44 97.4 44ZM42 103.4C42 72.8034 66.8034 48 97.4 48C127.997 48 152.8 72.8034 152.8 103.4C152.8 133.997 127.997 158.8 97.4 158.8C66.8034 158.8 42 133.997 42 103.4Z" fill="black"/>
<path opacity="0.2" fill-rule="evenodd" clip-rule="evenodd" d="M101.6 166.4C133.301 166.4 159 140.701 159 109C159 77.2985 133.301 51.5996 101.6 51.5996C69.8991 51.5996 44.2002 77.2985 44.2002 109C44.2002 140.701 69.8991 166.4 101.6 166.4ZM86 89.5393C86 88.3845 87.2345 87.6494 88.2497 88.1996L130.638 111.17C131.687 111.739 131.705 113.239 130.67 113.832L88.2815 138.129C87.2657 138.711 86 137.978 86 136.807V89.5393Z" fill="black"/>
</svg>
