<svg width="96" height="96" viewBox="0 0 96 96" fill="none" xmlns="http://www.w3.org/2000/svg">
<path opacity="0.2" d="M39 74.2623V34.692C39 33.9312 39.8158 33.4491 40.4823 33.816L73.9028 52.2139C75.2652 52.9639 75.2878 54.9138 73.9431 55.6952L40.5024 75.127C39.8358 75.5144 39 75.0334 39 74.2623Z" fill="black"/>
<path fill-rule="evenodd" clip-rule="evenodd" d="M36.8658 27.5252C35.1418 26.6087 33.0625 27.8582 33.0625 29.8107V68.1408C33.0625 70.1193 35.1921 71.3663 36.9175 70.3981L71.9964 50.7151C73.7818 49.7133 73.7525 47.1332 71.9447 46.1723L36.8658 27.5252ZM36.0625 67.4379V30.4957L69.8712 48.4676L36.0625 67.4379Z" fill="black"/>
<path fill-rule="evenodd" clip-rule="evenodd" d="M48 2C22.5949 2 2 22.5949 2 48C2 73.4051 22.5949 94 48 94C73.4051 94 94 73.4051 94 48C94 22.5949 73.4051 2 48 2ZM5 48C5 24.2518 24.2518 5 48 5C71.7482 5 91 24.2518 91 48C91 71.7482 71.7482 91 48 91C24.2518 91 5 71.7482 5 48Z" fill="black"/>
</svg>
