<svg width="196" height="196" viewBox="0 0 196 196" fill="none" xmlns="http://www.w3.org/2000/svg">
<path opacity="0.07" fill-rule="evenodd" clip-rule="evenodd" d="M57.1629 173.688C57.0445 173.662 56.8854 173.63 56.6883 173.589C50.5749 172.337 7.92819 163.602 11.1762 109.877C14.529 54.4191 27.2914 32.1017 45 26C47.6157 25.0988 50.958 23.7121 54.8641 22.0914C77.4026 12.7404 118.711 -4.39809 147.5 19.0001C181.279 46.4535 203.464 78.1651 189 122C174.536 165.835 158.739 188.237 121 186C94.0605 184.403 82.2383 180.835 71.1211 177.48C66.6645 176.135 62.3213 174.824 57.1629 173.688ZM80.2012 161.04C88.2178 168.987 101.235 168.987 109.251 161.04L109.259 161.032L170.825 98.6229L149.428 77.4114L149.341 77.3426C148.9 76.993 148.698 76.4479 148.825 75.7242C148.958 74.963 149.432 74.2629 150.011 73.9115C157.109 69.8776 161.09 61.3741 159.098 52.4731C157.571 45.424 151.54 39.4547 144.451 37.9454C135.428 35.9603 127.383 39.9697 122.9 46.8828L122.884 46.9088L122.867 46.9354C122.477 47.5804 121.832 48.0133 121.171 48.1325C120.562 48.2422 119.865 48.1046 119.202 47.4474L94.711 23.1687L72.512 45.6538L72.5037 45.6621C69.1293 49.0181 70.644 54.1842 74.3888 56.0403L74.4539 56.0726L74.5211 56.1001C81.3361 58.8819 85.7318 66.4219 83.7489 74.3526C82.1054 80.0144 77.6481 84.7406 71.7218 85.9156L71.6755 85.9248L71.6297 85.9361C63.5814 87.9308 55.9539 83.5438 53.1517 76.7973L53.1235 76.7295L53.0904 76.6638C51.2095 72.9347 46.0203 71.4675 42.6597 74.799L18.1646 99.0818L80.196 161.034L80.2012 161.04Z" fill="black"/>
<path opacity="0.2" d="M24.542 114.638C22.5876 112.679 22.5965 109.504 24.5619 107.556L44.0677 88.2193C46.3292 85.9774 49.9477 86.8742 51.3046 89.5645C54.4708 97.1871 63.0646 102.119 72.1108 99.8774C78.8954 98.5322 83.8708 93.1516 85.68 86.8742C87.9415 77.9064 82.9662 69.3871 75.2769 66.2484C72.5631 64.9032 71.6585 61.3161 73.92 59.0742L91.2061 41.5653C93.149 39.5974 96.3204 39.5803 98.2843 41.5273L117.794 60.8677C120.055 63.1096 123.222 62.2129 124.578 59.9709C128.649 53.6935 135.886 50.1063 144.028 51.8999C150.36 53.2451 155.788 58.6258 157.145 64.9032C158.954 72.9742 155.335 80.5967 149.003 84.1838C146.742 85.529 145.837 89.1161 148.098 90.9096L164.458 107.127C166.415 109.068 166.451 112.209 164.516 114.171C150.624 128.258 127.499 151.73 111.705 167.763C102.345 177.265 87.0457 177.3 77.6263 167.857L24.542 114.638Z" fill="black"/>
<path fill-rule="evenodd" clip-rule="evenodd" d="M80.2012 161.04C88.2178 168.987 101.235 168.987 109.251 161.04L109.259 161.032L170.825 98.6229L149.428 77.4114L149.341 77.3426C148.9 76.993 148.698 76.4479 148.825 75.7242C148.958 74.9629 149.432 74.2629 150.011 73.9115C157.109 69.8776 161.09 61.3741 159.098 52.4731C157.571 45.424 151.54 39.4547 144.451 37.9454C135.428 35.9603 127.383 39.9697 122.9 46.8828L122.884 46.9088L122.867 46.9354C122.477 47.5804 121.832 48.0133 121.171 48.1325C120.562 48.2422 119.865 48.1046 119.202 47.4474L94.7109 23.1687L72.512 45.6538L72.5037 45.6621C69.1293 49.0181 70.644 54.1842 74.3887 56.0403L74.4538 56.0726L74.5211 56.1001C81.3361 58.8819 85.7317 66.4219 83.7489 74.3526C82.1054 80.0144 77.648 84.7406 71.7218 85.9156L71.6755 85.9248L71.6297 85.9361C63.5813 87.9308 55.9539 83.5438 53.1516 76.7973L53.1235 76.7295L53.0904 76.6638C51.2095 72.9347 46.0203 71.4675 42.6597 74.799L18.1645 99.0818L80.1959 161.034L80.2012 161.04ZM165.175 98.6544L106.427 158.207C99.9702 164.599 89.475 164.598 83.02 158.202L83.0173 158.199L23.8355 99.0924L45.4758 77.6397C46.6251 76.5003 48.64 76.8066 49.4903 78.4099C53.041 86.851 62.5497 92.2837 72.5461 89.83C80.1537 88.3017 85.6233 82.2929 87.6018 75.4281L87.6111 75.3958L87.6193 75.3632C90.1318 65.4005 84.6203 55.9456 76.11 52.4284C74.479 51.5797 74.2028 49.6101 75.3281 48.4945L75.3357 48.487L94.7414 28.8313L116.386 50.2881C119.722 53.5957 124.36 52.1557 126.271 49.0364C129.931 43.4105 136.35 40.2566 143.597 41.8531L143.605 41.8548L143.612 41.8563C149.182 43.0395 154.001 47.826 155.19 53.3258L155.191 53.3332L155.193 53.3407C156.814 60.5697 153.568 67.2994 148.017 70.4437L147.999 70.4541L147.981 70.4649C146.305 71.4616 145.202 73.2224 144.885 75.033C144.565 76.8549 145.019 78.9573 146.761 80.3997L165.175 98.6544Z" fill="black"/>
<path d="M172 31C172 29.8954 171.105 29 170 29C168.895 29 168 29.8954 168 31V35H164C162.895 35 162 35.8954 162 37C162 38.1046 162.895 39 164 39H168V43C168 44.1046 168.895 45 170 45C171.105 45 172 44.1046 172 43V39H176C177.105 39 178 38.1046 178 37C178 35.8954 177.105 35 176 35H172V31Z" fill="black"/>
<path d="M52.7187 170.031L48.4761 165.789L44.2334 170.031L48.4761 174.274L52.7187 170.031Z" fill="black"/>
<path fill-rule="evenodd" clip-rule="evenodd" d="M23.1716 39.3431L31.6568 47.8284L23.1716 56.3137L14.6863 47.8284L23.1716 39.3431ZM20.3431 47.8284L23.1716 50.6568L26 47.8284L23.1716 45L20.3431 47.8284Z" fill="black"/>
</svg>
