<svg width="96" height="96" viewBox="0 0 96 96" fill="none" xmlns="http://www.w3.org/2000/svg">
<path opacity="0.2" d="M71.4406 29.4344L63.95 36.925C63.2156 37.6594 62.0406 37.3656 61.6 36.4844C60.5719 33.9875 57.7813 32.3719 54.8438 33.1063C52.6406 33.5469 51.025 35.3094 50.4375 37.3656C49.7031 40.3031 51.3188 43.0938 53.8156 44.1219C54.6969 44.5625 54.9906 45.7375 54.2563 46.4719L47.5 53.375L40.0094 45.8844C39.275 45.15 38.2469 45.4438 37.8063 46.1781C36.4844 48.2344 34.1344 49.4094 31.4906 48.8219C29.4344 48.3813 27.6719 46.6188 27.2313 44.5625C26.6438 41.9188 27.8188 39.4219 29.875 38.2469C30.6094 37.8063 30.9031 36.6313 30.1688 36.0438L23.7063 29.5812L43.2406 9.60625C45.5906 7.25625 49.4094 7.25625 51.7594 9.60625L71.4406 29.4344Z" fill="black"/>
<path fill-rule="evenodd" clip-rule="evenodd" d="M42.18 2.67059C45.1158 -0.265197 49.8843 -0.265197 52.82 2.67059L92.3294 42.18C95.241 45.0915 95.2891 49.8603 92.4763 52.6732L52.82 92.3294C49.8843 95.2652 45.1158 95.2652 42.18 92.3294L2.67059 52.82C-0.265197 49.8843 -0.265197 45.1158 2.67059 42.18L2.67454 42.176L22.4898 22.5076L22.4987 22.4987L22.5076 22.4898L42.176 2.67454L42.18 2.67059ZM23.5554 25.6768L4.79191 44.3013L4.78993 44.3033C3.0277 46.0676 3.02836 48.9352 4.79191 50.6987L23.1969 69.1037L29.3611 62.9394C30.0669 62.2336 30.9915 61.9739 31.8648 62.1327C32.6875 62.2823 33.4 62.7891 33.829 63.4886C34.8051 64.9954 36.4697 65.8028 38.3554 65.3838L38.3664 65.3813C39.7446 65.086 41.0477 63.8533 41.4951 62.2199C41.9103 60.2923 41.0443 58.5549 39.6453 57.7554L39.6229 57.7424L39.6178 57.7393C38.8527 57.2803 38.3738 56.4919 38.2353 55.6955C38.0956 54.8924 38.2847 53.9037 39.0914 53.2091L45.0896 47.2109L39.0412 41.1625C37.5054 43.7325 34.3844 45.1265 31.1652 44.4111C31.1447 44.4066 31.1243 44.4016 31.1041 44.3962C28.4153 43.6792 26.1914 41.5211 25.6188 38.8605C24.8894 35.5675 26.3669 32.6265 28.8714 30.9927L23.5554 25.6768ZM47.2109 45.0896L53.0414 39.2591C50.0673 37.9443 48.1676 34.5854 49.0384 31.0517C49.6043 28.4628 51.7701 26.3672 54.3851 25.6699L54.4078 25.664C57.9504 24.7784 61.3217 26.68 62.6396 29.6609L69.1037 23.1968L50.6987 4.79191C48.9352 3.02836 46.0676 3.0277 44.3033 4.78993L44.3013 4.79191L25.6768 23.5554L31.0825 28.9612C31.7996 29.6782 32.0626 30.6163 31.9015 31.5019C31.7497 32.337 31.235 33.0607 30.5243 33.4964C28.9549 34.5128 28.1117 36.249 28.5486 38.2152L28.551 38.2263C28.8598 39.6671 30.1462 41.0239 31.8468 41.4893C33.855 41.9223 35.6686 41.0206 36.5038 39.5589C36.5091 39.5496 36.5145 39.5405 36.52 39.5313C36.9857 38.7551 37.7864 38.2683 38.5957 38.1276C39.4117 37.9857 40.4139 38.1781 41.1175 38.9962L47.2109 45.0896ZM47.2109 49.3322L41.2964 55.2467C43.7733 56.7565 45.11 59.7827 44.4169 62.9015C44.4139 62.9154 44.4106 62.9292 44.4071 62.9429L44.402 62.9626C43.7029 65.5842 41.5986 67.7543 39.0008 68.3135C35.8086 69.0206 32.9551 67.6015 31.3556 65.1875L25.3182 71.225L44.3013 90.2081C46.0655 91.9723 48.9345 91.9723 50.6987 90.2081L69.3927 71.5141L63.965 66.0863C63.1468 65.3827 62.9544 64.3804 63.0963 63.5644C63.2371 62.7552 63.7238 61.9545 64.5001 61.4887C64.5092 61.4832 64.5184 61.4779 64.5276 61.4726C65.9893 60.6373 66.8911 58.8238 66.458 56.8156C65.9927 55.115 64.6358 53.8285 63.195 53.5198L63.1839 53.5174C61.2178 53.0805 59.4815 53.9236 58.4651 55.493C58.0294 56.2037 57.3057 56.7185 56.4706 56.8703C55.585 57.0313 54.647 56.7683 53.9299 56.0512L47.2109 49.3322ZM71.5141 69.3927L90.355 50.5518C91.9484 48.9585 91.9965 46.0897 90.2081 44.3013L71.225 25.3182L64.6609 31.8822C63.119 33.4241 60.7961 32.697 59.9802 31.0652C59.9639 31.0325 59.9488 30.9993 59.9349 30.9655C59.2083 29.2009 57.232 28.0563 55.1468 28.5716C53.504 29.0142 52.2629 30.322 51.9664 31.7055C51.9629 31.722 51.959 31.7385 51.9549 31.755C51.4326 33.8443 52.5782 35.8265 54.346 36.5544C54.3797 36.5683 54.413 36.5835 54.4457 36.5998C56.0774 37.4157 56.8046 39.7386 55.2627 41.2804L49.3322 47.2109L55.9614 53.8401C57.5953 51.3357 60.5361 49.8582 63.829 50.5875C66.4897 51.1601 68.6479 53.384 69.3649 56.0728C69.3703 56.0931 69.3753 56.1135 69.3799 56.1339C70.0952 59.3531 68.7012 62.4742 66.1313 64.01L71.5141 69.3927Z" fill="black"/>
<path d="M18.6724 15.161C19.5999 16.0884 19.5999 17.5922 18.6724 18.5197C17.7449 19.4472 16.2412 19.4472 15.3137 18.5197C14.3862 17.5922 14.3862 16.0884 15.3137 15.161C16.2412 14.2335 17.7449 14.2335 18.6724 15.161Z" fill="black"/>
<path d="M79.6828 79.5358C80.6103 78.6083 80.6103 77.1046 79.6828 76.1771C78.7553 75.2496 77.2515 75.2496 76.324 76.1771C75.3965 77.1046 75.3965 78.6083 76.324 79.5358C77.2515 80.4633 78.7553 80.4633 79.6828 79.5358Z" fill="black"/>
<path d="M15.3078 76.1622C16.2353 75.2347 17.7391 75.2347 18.6666 76.1622C19.594 77.0897 19.594 78.5934 18.6666 79.5209C17.7391 80.4484 16.2353 80.4484 15.3078 79.5209C14.3803 78.5934 14.3803 77.0897 15.3078 76.1622Z" fill="black"/>
<path d="M79.6919 15.1929C78.7645 14.2654 77.2607 14.2654 76.3332 15.1929C75.4057 16.1204 75.4057 17.6242 76.3332 18.5517C77.2607 19.4792 78.7645 19.4792 79.6919 18.5517C80.6194 17.6242 80.6194 16.1204 79.6919 15.1929Z" fill="black"/>
</svg>
