<svg width="48" height="48" viewBox="0 0 48 48" fill="none" xmlns="http://www.w3.org/2000/svg">
<path opacity="0.2" d="M36.1129 15.9065L32.329 19.6903C31.9581 20.0613 31.3645 19.9129 31.1419 19.4677C30.6226 18.2065 29.2129 17.3903 27.729 17.7613C26.6161 17.9839 25.8 18.8742 25.5032 19.9129C25.1323 21.3968 25.9484 22.8065 27.2097 23.3258C27.6548 23.5484 27.8032 24.1419 27.4323 24.5129L24.0194 28L20.2355 24.2161C19.8645 23.8452 19.3452 23.9935 19.1226 24.3645C18.4548 25.4032 17.2677 25.9968 15.9323 25.7C14.8935 25.4774 14.0032 24.5871 13.7806 23.5484C13.4839 22.2129 14.0774 20.9516 15.1161 20.3581C15.4871 20.1355 15.6355 19.5419 15.2645 19.2452L12 15.9806L21.8677 5.89032C23.0548 4.70323 24.9839 4.70323 26.171 5.89032L36.1129 15.9065Z" fill="black"/>
<path fill-rule="evenodd" clip-rule="evenodd" d="M21.1371 1.18322C22.7144 -0.394405 25.2761 -0.394405 26.8534 1.18322L46.8075 21.1413C48.3686 22.7027 48.4007 25.2651 46.8817 26.7845L26.8534 46.8168C25.2761 48.3944 22.7144 48.3944 21.1371 46.8168L1.18298 26.8587C-0.394327 25.2811 -0.394327 22.7189 1.18298 21.1413L1.18561 21.1387L11.1945 11.202L11.1998 11.1967L21.1345 1.18585L21.1371 1.18322ZM22.5523 2.59615L22.551 2.59743L13.3167 11.9026L15.878 14.4639C16.2967 14.8826 16.4543 15.4368 16.3588 15.962C16.2695 16.4531 15.9682 16.8761 15.554 17.1311C14.8395 17.595 14.4667 18.3732 14.6632 19.2573L14.6648 19.2647C14.7996 19.8934 15.3727 20.513 16.1503 20.7283C17.0619 20.9221 17.8678 20.5109 18.2349 19.8684L18.2457 19.8501C18.5206 19.3919 18.9891 19.1089 19.4604 19.0269C19.9361 18.9442 20.5321 19.0547 20.9535 19.5394L23.854 22.4399L26.3903 19.9036C24.9686 19.1095 24.1046 17.4141 24.5412 15.6364C24.8493 14.2326 26.0172 13.1115 27.4156 12.7385L27.4308 12.7346C29.2143 12.2887 30.9176 13.1537 31.7141 14.5797L34.567 11.7268L25.4394 2.59743C24.6435 1.80128 23.3488 1.80086 22.5523 2.59615ZM35.9811 13.1412L32.8402 16.2821C31.9272 17.195 30.5626 16.7563 30.0877 15.8064C29.6724 14.9758 28.887 14.4362 27.9234 14.6731C27.1733 14.8761 26.6218 15.4719 26.4931 16.0723C26.4908 16.0833 26.4882 16.0943 26.4855 16.1053C26.2441 17.071 26.7838 17.8606 27.617 18.2772C28.5668 18.7521 29.0056 20.1167 28.0927 21.0296L25.2682 23.8541L28.2418 26.8277C29.1431 25.6348 30.6392 24.9553 32.3005 25.3231C33.742 25.6337 34.896 26.8316 35.2791 28.2682L35.2843 28.2888L35.289 28.3089C35.648 29.9245 35.0164 31.5029 33.7933 32.3792L36.127 34.7129L45.4677 25.3703C46.174 24.6639 46.2061 23.3682 45.3935 22.5555L35.9811 13.1412ZM22.4398 23.8541L19.7662 21.1805C18.8898 22.4036 17.3115 23.0352 15.6959 22.6762C15.6822 22.6732 15.6687 22.6699 15.6552 22.6663C14.2185 22.2832 13.0206 21.1291 12.71 19.6875C12.3423 18.0263 13.0219 16.5303 14.2147 15.629L11.9026 13.3169L2.59691 22.5555L2.59564 22.5568C1.8005 23.3535 1.80092 24.6484 2.59691 25.4445L11.7222 34.5716L14.6659 31.6279C15.079 31.2149 15.6264 31.059 16.1453 31.1534C16.6302 31.2415 17.0474 31.5388 17.299 31.9472C17.7425 32.6302 18.4846 32.9849 19.3281 32.7975L19.3355 32.7959C19.9325 32.6679 20.5249 32.122 20.7312 31.3784C20.8964 30.6003 20.589 29.7874 19.8937 29.3802C19.4412 29.1087 19.1622 28.6463 19.0813 28.1815C18.9997 27.7123 19.1085 27.1233 19.5874 26.7064L22.4398 23.8541ZM13.1363 35.986L22.551 45.4026C23.3474 46.1991 24.643 46.1991 25.4394 45.4026L34.7129 36.1273L32.1522 33.5665C31.6675 33.1451 31.557 32.5492 31.6397 32.0735C31.7217 31.6022 32.0047 31.1336 32.4628 30.8587L32.4812 30.8479C33.1237 30.4808 33.5349 29.6749 33.3411 28.7633C33.1258 27.9857 32.5062 27.4126 31.8775 27.2778L31.8701 27.2763C30.986 27.0798 30.2078 27.4525 29.7438 28.167C29.4889 28.5812 29.0659 28.8825 28.5748 28.9718C28.0496 29.0673 27.4954 28.9098 27.0767 28.491L23.854 25.2683L21.2461 27.8761C22.423 28.737 23.027 30.2675 22.6792 31.8327C22.6761 31.8463 22.6728 31.8599 22.6692 31.8734C22.2951 33.2762 21.1682 34.4469 19.7583 34.7507C18.148 35.1071 16.6964 34.4561 15.8139 33.3083L13.1363 35.986Z" fill="black"/>
<path d="M8.47256 6.52842C9.00915 7.06501 9.00915 7.93499 8.47256 8.47158C7.93597 9.00817 7.06598 9.00817 6.5294 8.47158C5.99281 7.93499 5.99281 7.06501 6.5294 6.52842C7.06598 5.99183 7.93597 5.99183 8.47256 6.52842Z" fill="black"/>
<path d="M41.4723 39.5277C42.0092 40.0647 42.0092 40.9353 41.4723 41.4723C40.9353 42.0092 40.0647 42.0092 39.5277 41.4723C38.9908 40.9353 38.9908 40.0647 39.5277 39.5277C40.0647 38.9908 40.9353 38.9908 41.4723 39.5277Z" fill="black"/>
<path d="M6.52773 39.5277C7.0647 38.9908 7.9353 38.9908 8.47227 39.5277C9.00924 40.0647 9.00924 40.9353 8.47227 41.4723C7.9353 42.0092 7.0647 42.0092 6.52773 41.4723C5.99076 40.9353 5.99076 40.0647 6.52773 39.5277Z" fill="black"/>
<path d="M39.5277 6.52919C40.0647 5.99222 40.9353 5.99222 41.4723 6.52919C42.0092 7.06616 42.0092 7.93677 41.4723 8.47374C40.9353 9.01071 40.0647 9.01071 39.5277 8.47374C38.9908 7.93677 38.9908 7.06616 39.5277 6.52919Z" fill="black"/>
</svg>
