<svg width="196" height="196" viewBox="0 0 196 196" fill="none" xmlns="http://www.w3.org/2000/svg">
<path opacity="0.07" fill-rule="evenodd" clip-rule="evenodd" d="M52.6883 172.589C52.8854 172.63 53.0445 172.662 53.1629 172.688C58.3213 173.824 62.6645 175.135 67.1211 176.48C78.2383 179.835 90.0605 183.403 117 185C154.739 187.237 170.536 164.835 185 121C199.464 77.1651 177.279 45.4535 143.5 18.0001C114.711 -5.39809 73.4026 11.7404 50.8641 21.0914C46.958 22.7121 43.6157 24.0988 41 25C23.2914 31.1017 10.529 53.4191 7.17624 108.877C3.92819 162.602 46.5749 171.337 52.6883 172.589ZM88.8316 22.1102C93.6113 17.3305 101.376 17.3305 106.155 22.1102L173.383 89.3382C178.131 94.0856 178.195 101.85 173.633 106.412L106.155 173.89C101.376 178.67 93.6113 178.67 88.8316 173.89L21.6036 106.662C16.8239 101.882 16.8239 94.1179 21.6036 89.3382L21.6089 89.3329C38.9704 73.9621 52.7738 59.5266 67.3092 44.3254C74.1683 37.1521 81.1904 29.8084 88.8263 22.1155L88.8316 22.1102Z" fill="black"/>
<path opacity="0.2" d="M138.23 67.2602L125.484 80.006C124.235 81.2556 122.235 80.7557 121.486 79.2562C119.736 75.0076 114.988 72.2585 109.989 73.5081C106.241 74.2579 103.491 77.2569 102.492 80.7557C101.242 85.7541 103.991 90.5026 108.24 92.252C109.739 93.0017 110.239 95.0011 108.99 96.2507L97.4934 107.997L84.7476 95.251C83.498 94.0014 81.7486 94.5012 80.9988 95.7508C78.7496 99.2497 74.7509 101.249 70.2524 100.249C66.7535 99.4996 63.7545 96.5006 63.0047 93.0017C62.0051 88.5032 64.0044 84.2546 67.5033 82.2553C68.7529 81.5055 69.2527 79.5062 68.0031 78.5065L57.0067 67.5101L90.2458 33.5212C94.2445 29.5225 100.742 29.5225 104.741 33.5212L138.23 67.2602Z" fill="black"/>
<path fill-rule="evenodd" clip-rule="evenodd" d="M106.155 22.1102C101.376 17.3305 93.6113 17.3305 88.8316 22.1102L88.8263 22.1155L55.3574 55.8342C55.3524 55.8391 55.3475 55.844 55.3425 55.849C55.3375 55.8539 55.3326 55.8589 55.3277 55.8639L21.6089 89.3329L21.6036 89.3382C16.8239 94.1179 16.8239 101.882 21.6036 106.662L88.8316 173.89C93.6113 178.67 101.376 178.67 106.155 173.89L173.633 106.412C178.195 101.85 178.131 94.0856 173.383 89.3382L106.155 22.1102ZM56.7516 60.0865L66.3389 69.6738C66.4343 69.7692 66.4601 69.8353 66.4682 69.8612C66.4771 69.8899 66.4803 69.9218 66.4726 69.9636C66.4545 70.0633 66.3742 70.2034 66.2243 70.2934C66.2129 70.3002 66.2016 70.3071 66.1904 70.3142C66.1842 70.3181 66.1779 70.322 66.1718 70.326C62.0384 72.9831 59.606 77.7907 60.8008 83.1814C61.7265 87.4861 65.3407 91.0125 69.737 92.1848C69.7515 92.1887 69.766 92.1924 69.7806 92.1959C69.7932 92.199 69.8058 92.2019 69.8184 92.2047C75.1359 93.3864 80.2653 91.0384 82.7186 86.7752C82.7386 86.7449 82.7822 86.6946 82.8598 86.6434C82.9447 86.5876 83.0394 86.5515 83.1221 86.5372C83.161 86.5304 83.1894 86.5296 83.2078 86.5304C83.2475 86.5783 83.2894 86.6243 83.3333 86.6682L94.1731 97.508L83.5609 108.12C82.3519 109.152 82.0606 110.629 82.273 111.85C82.4839 113.063 83.2142 114.258 84.3654 114.949C84.3775 114.956 84.3898 114.964 84.4021 114.971C87.0014 116.456 88.5757 119.664 87.8124 123.178C87.006 126.143 84.639 128.415 82.0677 128.966L82.0529 128.97C78.5955 129.738 75.5374 128.242 73.7638 125.5C73.1132 124.436 72.0319 123.668 70.7902 123.442C69.4816 123.204 68.0915 123.59 67.0193 124.662L56.3581 135.323C56.2839 135.397 56.2167 135.476 56.1566 135.558L24.432 103.833C21.2153 100.617 21.2144 95.3872 24.4293 92.1693L24.432 92.1666L56.7516 60.0865ZM97.0015 100.336L108.825 112.16C109.916 113.251 111.329 113.642 112.659 113.401C113.921 113.171 115.022 112.39 115.684 111.306C117.526 108.457 120.706 106.901 124.301 107.7L124.315 107.703C126.993 108.277 129.452 110.641 130.289 113.72C131.082 117.371 129.447 120.709 126.741 122.255C126.729 122.262 126.717 122.269 126.704 122.276C125.534 122.978 124.791 124.195 124.576 125.429C124.36 126.673 124.657 128.173 125.885 129.22L135.527 138.862L103.327 171.061C100.109 174.279 94.8776 174.279 91.66 171.061L58.9515 138.353C59.0337 138.293 59.1123 138.226 59.1866 138.151L69.8477 127.49C69.9336 127.404 69.9892 127.385 70.0044 127.38C70.0224 127.374 70.0433 127.372 70.0747 127.377C70.1534 127.392 70.2745 127.459 70.353 127.59L70.3695 127.617L70.3856 127.642C72.9743 131.669 77.6601 134.04 82.9139 132.876C87.1116 131.973 90.5464 128.45 91.6882 124.168C91.6932 124.15 91.6979 124.131 91.7023 124.112L91.7081 124.087C92.8592 118.907 90.5726 113.907 86.4168 111.515C86.3947 111.5 86.3524 111.464 86.3078 111.396C86.2581 111.321 86.2264 111.237 86.2139 111.165C86.2108 111.147 86.2092 111.133 86.2085 111.121C86.2484 111.087 86.2869 111.051 86.324 111.014L97.0015 100.336ZM138.355 136.033L128.648 126.326C128.604 126.282 128.558 126.24 128.51 126.2C128.509 126.182 128.51 126.154 128.517 126.115C128.531 126.032 128.567 125.937 128.623 125.852C128.674 125.775 128.724 125.731 128.755 125.711C133.018 123.258 135.366 118.128 134.184 112.811C134.178 112.784 134.172 112.757 134.164 112.729C132.992 108.333 129.466 104.719 125.161 103.793C119.77 102.599 114.963 105.031 112.306 109.164C112.294 109.182 112.284 109.199 112.273 109.217C112.183 109.367 112.043 109.447 111.943 109.465C111.901 109.473 111.87 109.47 111.841 109.461C111.815 109.453 111.749 109.427 111.653 109.331L99.8299 97.508L110.312 87.0263C112.63 84.7083 111.555 81.1917 109.065 79.9465C109.021 79.9247 108.977 79.9045 108.932 79.886C105.683 78.5484 103.579 74.9092 104.538 71.0747C104.543 71.0528 104.548 71.0308 104.553 71.0087C105.106 68.4301 107.39 66.057 110.367 65.2572C114.196 64.3078 117.827 66.4108 119.163 69.655C119.181 69.7 119.202 69.7444 119.223 69.7879C120.469 72.2783 123.985 73.3526 126.303 71.0346L137.863 59.4748L170.555 92.1666C173.805 95.4165 173.74 100.648 170.805 103.583L138.355 136.033ZM97.0015 94.6795L86.2274 83.9054C85.1806 82.677 83.6804 82.38 82.4367 82.5963C81.2022 82.811 79.9859 83.5547 79.2838 84.7249C79.2765 84.737 79.2693 84.7493 79.2623 84.7616C77.716 87.4675 74.3787 89.1028 70.7272 88.309C67.6482 87.4721 65.2842 85.0137 64.7104 82.3358L64.7071 82.321C63.9083 78.7264 65.4646 75.5465 68.3137 73.7043C69.3971 73.0423 70.1785 71.9419 70.4081 70.6792C70.6499 69.3496 70.2586 67.9367 69.1673 66.8454L59.58 57.258L91.66 24.9386L91.6617 24.9369C94.8795 21.721 100.11 21.7216 103.327 24.9386L135.035 56.6464L123.475 68.2062C123.414 68.2675 123.366 68.2879 123.333 68.2971C123.295 68.3077 123.243 68.3123 123.177 68.2985C123.046 68.2712 122.909 68.1821 122.822 68.0378C120.737 63.1018 115.202 59.9253 109.381 61.3804L109.351 61.3882C105.078 62.5277 101.561 65.9509 100.649 70.1371C99.214 75.9456 102.388 81.4637 107.315 83.5454C107.459 83.6316 107.548 83.769 107.575 83.8999C107.589 83.9661 107.585 84.0183 107.574 84.056C107.565 84.0886 107.544 84.1367 107.483 84.1979L97.0015 94.6795Z" fill="black"/>
<path d="M168 32C168 30.8954 167.105 30 166 30C164.895 30 164 30.8954 164 32V36H160C158.895 36 158 36.8954 158 38C158 39.1046 158.895 40 160 40H164V44C164 45.1046 164.895 46 166 46C167.105 46 168 45.1046 168 44V40H172C173.105 40 174 39.1046 174 38C174 36.8954 173.105 36 172 36H168V32Z" fill="black"/>
<path d="M48.7187 171.031L44.4761 166.789L40.2334 171.031L44.4761 175.274L48.7187 171.031Z" fill="black"/>
<path fill-rule="evenodd" clip-rule="evenodd" d="M19.1716 40.3431L27.6568 48.8284L19.1716 57.3137L10.6863 48.8284L19.1716 40.3431ZM16.3431 48.8284L19.1716 51.6568L22 48.8284L19.1716 46L16.3431 48.8284Z" fill="black"/>
</svg>
