<svg width="97" height="96" viewBox="0 0 97 96" fill="none" xmlns="http://www.w3.org/2000/svg">
<path opacity="0.2" d="M5.11194 56.8134C3.94469 55.6417 3.94589 53.7464 5.11462 52.5762L16.9662 40.7096C18.3354 39.3386 20.5262 39.887 21.3477 41.5322C23.2646 46.1935 28.4677 49.2096 33.9446 47.8386C38.0523 47.016 41.0646 43.7257 42.16 39.887C43.5292 34.4031 40.5169 29.1935 35.8615 27.2741C34.2185 26.4516 33.6708 24.258 35.04 22.8871L45.5145 12.1712C46.6825 10.9763 48.6017 10.966 49.7825 12.1483L61.6031 23.9838C62.9723 25.3548 64.8892 24.8064 65.7108 23.4354C68.1754 19.5967 72.5569 17.4032 77.4861 18.4999C81.32 19.3225 84.6061 22.6129 85.4277 26.4516C86.5231 31.387 84.3323 36.0483 80.4985 38.2418C79.1292 39.0644 78.5815 41.258 79.9508 42.3547L89.9062 52.3228C91.0667 53.4848 91.0924 55.3473 89.942 56.5193C83.7267 62.8515 67.973 78.8517 57.543 89.4425C52.0815 94.9881 43.1561 95.0022 37.6628 89.488L5.11194 56.8134Z" fill="black"/>
<path fill-rule="evenodd" clip-rule="evenodd" d="M38.6341 85.9038C43.6016 90.8776 51.6724 90.8776 56.6399 85.9038L56.6458 85.8979L94.1083 47.5418L80.9535 34.3702L80.8886 34.3183C80.7187 34.1822 80.6113 33.9571 80.6756 33.5864C80.7446 33.1893 80.9895 32.836 81.2611 32.6679C85.6696 30.1352 88.1224 24.8144 86.8933 19.2661C85.9467 14.8549 82.214 11.1166 77.8058 10.1686C72.2066 8.92541 67.2186 11.445 64.4486 15.7592L64.4361 15.7787L64.4242 15.7986C64.2268 16.1281 63.9055 16.3396 63.5937 16.3963C63.3231 16.4456 62.9994 16.3933 62.6645 16.058L47.6255 1L33.9788 14.9613L33.9725 14.9675C31.7834 17.1677 32.7717 20.5389 35.1901 21.7497L35.2392 21.7742L35.2899 21.7951C39.2849 23.4422 41.8761 27.9158 40.7108 32.6337C39.7369 36.0164 37.1084 38.8096 33.6502 39.5021L33.6151 39.5091L33.5805 39.5178C28.8636 40.6985 24.3837 38.1049 22.735 34.0959L22.7142 34.0453L22.6898 33.9963C21.4801 31.574 18.1048 30.5811 15.9049 32.7839L0.884033 47.8238L38.6302 85.8999L38.6341 85.9038ZM89.8918 47.5653L54.5116 83.7895C50.7161 87.5836 44.5526 87.5824 40.7587 83.7858L40.7568 83.7839L5.11613 47.8316L18.0276 34.9038C18.5579 34.3728 19.5417 34.4655 19.9855 35.2973C22.1866 40.5668 28.0737 43.9707 34.2744 42.4366C39.005 41.474 42.3831 37.7062 43.6025 33.4329L43.6094 33.4088L43.6154 33.3846C45.1677 27.1674 41.7684 21.2556 36.4939 19.0467C35.6646 18.6029 35.5685 17.6148 36.1014 17.0812L36.1071 17.0755L47.6485 5.26831L60.5418 18.178C61.5762 19.2137 62.8955 19.5727 64.131 19.3478C65.3167 19.1319 66.3581 18.3931 66.9838 17.3634C69.1438 14.0123 72.9107 12.1528 77.1604 13.0983L77.1716 13.1008C80.427 13.7993 83.2629 16.6376 83.9609 19.8997L83.9634 19.9108C84.9207 24.2242 83.0003 28.2165 79.7536 30.0741L79.7398 30.0821L79.7261 30.0903C78.6324 30.7473 77.9239 31.8983 77.7199 33.073C77.5147 34.2544 77.8016 35.6413 78.941 36.6005L89.8918 47.5653Z" fill="black"/>
<path d="M19.6725 18.6539C20.6 17.7264 20.6 16.2226 19.6725 15.2951C18.745 14.3676 17.2412 14.3676 16.3137 15.2951C15.3862 16.2226 15.3862 17.7264 16.3137 18.6539C17.2412 19.5814 18.745 19.5814 19.6725 18.6539Z" fill="black"/>
<path d="M80.6828 76.1769C81.6103 77.1044 81.6103 78.6082 80.6828 79.5357C79.7553 80.4632 78.2516 80.4632 77.3241 79.5357C76.3966 78.6082 76.3966 77.1044 77.3241 76.1769C78.2516 75.2495 79.7553 75.2495 80.6828 76.1769Z" fill="black"/>
<path d="M19.6666 76.1621C18.7391 75.2346 17.2353 75.2346 16.3078 76.1621C15.3804 77.0895 15.3804 78.5933 16.3078 79.5208C17.2353 80.4483 18.7391 80.4483 19.6666 79.5208C20.5941 78.5933 20.5941 77.0895 19.6666 76.1621Z" fill="black"/>
</svg>
