<svg width="48" height="48" viewBox="0 0 48 48" fill="none" xmlns="http://www.w3.org/2000/svg">
<path opacity="0.2" d="M3.82563 30.2745C3.04816 29.4953 3.0778 28.2449 3.87419 27.4851L10.2914 21.3629C10.9222 20.7177 11.9314 20.9758 12.3099 21.75C13.1929 23.9435 15.5899 25.3629 18.1129 24.7177C20.0052 24.3306 21.3929 22.7823 21.8975 20.9758C22.5283 18.3952 21.1406 15.9435 18.996 15.0403C18.2391 14.6532 17.9868 13.6209 18.6175 12.9758L22.6428 8.7658C23.4142 7.95895 24.6968 7.9398 25.492 8.72326L30.1704 13.3326C30.8012 13.9778 31.6843 13.7197 32.0627 13.0746C33.1981 11.2681 35.2166 10.2359 37.4873 10.752C39.2535 11.1391 40.7673 12.6875 41.1458 14.4939C41.6504 16.8165 40.6412 19.0101 38.875 20.0423C38.2443 20.4294 37.9919 21.4617 38.6227 21.9778L43.8739 27.3037C44.6385 28.0791 44.6422 29.3237 43.8822 30.1036L28.9922 45.3861C26.252 48.1931 21.7438 48.2041 18.996 45.4046C14.2591 40.5785 7.03524 33.491 3.82563 30.2745Z" fill="black"/>
<path fill-rule="evenodd" clip-rule="evenodd" d="M45.7061 23.2919L45.7043 23.2901L40.0384 17.6242C40.0134 17.5992 39.9872 17.5756 39.9597 17.5534C39.9581 17.5434 39.9563 17.5218 39.9622 17.4881C39.9704 17.4411 39.9906 17.3883 40.0216 17.3411C40.0505 17.2973 40.0797 17.2716 40.0992 17.2589C42.2853 16.0014 43.4905 13.3706 42.8842 10.642C42.8811 10.6283 42.8778 10.6147 42.8742 10.6012C42.2725 8.34496 40.4628 6.49135 38.2562 6.01686C35.4911 5.40399 33.0253 6.65121 31.6619 8.77213C31.6563 8.7808 31.6509 8.78955 31.6456 8.79839C31.5948 8.88303 31.515 8.92998 31.4546 8.94098C31.4283 8.94575 31.4068 8.94394 31.387 8.93778C31.3686 8.93206 31.3302 8.91601 31.2777 8.86344L24.7071 2.29289C24.3893 1.97509 23.9108 1.91591 23.5332 2.11536C23.4467 2.161 23.3656 2.22017 23.2929 2.29289L17.068 8.51784C16.4595 9.03665 16.3127 9.77995 16.4197 10.3953C16.5259 11.006 16.8938 11.608 17.4732 11.9556L17.4916 11.9664C18.8129 12.7215 19.6125 14.3517 19.2246 16.1368C18.8152 17.6424 17.6131 18.7972 16.3058 19.0774L16.2984 19.079C14.5418 19.4694 12.988 18.7093 12.0872 17.3163C11.7596 16.7803 11.215 16.3936 10.5899 16.2799C9.93136 16.1602 9.23167 16.3541 8.69167 16.8941L2.29289 23.2929C2.08941 23.4964 1.99195 23.7657 2.00052 24.0323C1.992 24.2976 2.08844 24.5657 2.29013 24.769L19.539 42.1533C21.982 44.6156 25.9538 44.6156 28.3969 42.1533L45.7071 24.7071L45.7092 24.7051C45.7571 24.6568 45.7992 24.6049 45.8353 24.5502C46.0915 24.1621 46.0488 23.6346 45.7071 23.2929L45.7061 23.2919ZM18.4494 9.96477L24 4.41421L29.8634 10.2777C30.4188 10.833 31.1369 11.0315 31.8123 10.9087C32.4544 10.792 33.0143 10.3945 33.3511 9.84306C34.3071 8.36428 35.959 7.55519 37.826 7.97008L37.8334 7.97167C39.2266 8.27021 40.5023 9.4987 40.9363 11.0963C41.3487 12.9919 40.5 14.7264 39.0928 15.5305L39.0745 15.5413C38.4797 15.8982 38.1011 16.517 37.9918 17.1454C37.8817 17.7783 38.0331 18.5402 38.6571 19.0713L43.5886 24.0028L26.9772 40.7446C25.3164 42.4184 22.6195 42.4184 20.9587 40.7446L4.37927 24.0349L10.1059 18.3083C10.1508 18.2634 10.1807 18.2524 10.1905 18.2493C10.2017 18.2459 10.2143 18.2444 10.2322 18.2477C10.2758 18.2556 10.3402 18.2918 10.3818 18.3611L10.3882 18.3717L10.3981 18.3874C11.7063 20.4224 14.0739 21.6206 16.7286 21.0322C18.8493 20.5761 20.5854 18.7962 21.1626 16.6319C21.1662 16.6184 21.1695 16.6048 21.1725 16.5912C21.7543 13.9732 20.5985 11.447 18.4987 10.2384C18.486 10.2299 18.4632 10.2104 18.4396 10.1745C18.4135 10.1349 18.3968 10.0907 18.3901 10.0526C18.3879 10.0398 18.3871 10.0297 18.387 10.0222C18.4086 10.0039 18.4294 9.98478 18.4494 9.96477Z" fill="black"/>
<path d="M8.47256 6.52842C9.00915 7.06501 9.00915 7.93499 8.47256 8.47158C7.93597 9.00817 7.06598 9.00817 6.5294 8.47158C5.99281 7.93499 5.99281 7.06501 6.5294 6.52842C7.06598 5.99183 7.93597 5.99183 8.47256 6.52842Z" fill="black"/>
<path d="M41.4723 39.5277C42.0092 40.0647 42.0092 40.9353 41.4723 41.4723C40.9353 42.0092 40.0647 42.0092 39.5277 41.4723C38.9908 40.9353 38.9908 40.0647 39.5277 39.5277C40.0647 38.9908 40.9353 38.9908 41.4723 39.5277Z" fill="black"/>
<path d="M8.47227 39.5277C7.9353 38.9908 7.0647 38.9908 6.52773 39.5277C5.99076 40.0647 5.99076 40.9353 6.52773 41.4723C7.0647 42.0092 7.9353 42.0092 8.47227 41.4723C9.00924 40.9353 9.00924 40.0647 8.47227 39.5277Z" fill="black"/>
</svg>
