<svg width="48" height="48" viewBox="0 0 48 48" fill="none" xmlns="http://www.w3.org/2000/svg">
<path opacity="0.2" d="M39.9981 5H10C7.35513 5 5 7.98919 5 10.6378V45L11 39H40.5C42.9443 39 44.9981 36.1512 44.9981 33.8919V10.6378C45.0873 7.69076 43.0878 5 39.9981 5ZM35.1718 34.1027C33.4272 33.5567 31.1249 32.6231 29.8064 31.3027C25.4617 33.0202 20.0489 32.2397 16.6576 28.9568C10.0214 21.8277 14.2287 7.39421 24.9701 7.91892C28.0339 7.76551 31.0817 8.96894 33.2448 11.1351C35.3229 13.2919 36.3053 16.2811 36.3053 20.027C36.3053 21.9946 36.003 23.773 35.474 25.2865C35.0962 26.2324 34.605 27.1784 33.9249 28.0487C35.0317 28.754 36.2516 29.1918 37.4766 29.6378L35.1718 34.1027Z" fill="black"/>
<path fill-rule="evenodd" clip-rule="evenodd" d="M9.96746 35H36.8125C37.5695 35 38.2818 34.9888 38.9098 34.8816C39.5602 34.7706 39.8393 34.5997 39.9383 34.5008C40.6181 33.8209 41 32.8989 41 31.9375V6.625C41 5.66359 40.6181 4.74156 39.9383 4.06174C39.2584 3.38192 38.3364 3 37.375 3H8.625C6.63582 3 5 4.63582 5 6.625V40.6771L9.96746 35ZM3 46V6.625C3 3.53125 5.53125 1 8.625 1H37.375C38.8668 1 40.2976 1.59263 41.3525 2.64752C42.4074 3.70242 43 5.13316 43 6.625V31.9375C43 33.4293 42.4074 34.8601 41.3525 35.915C40.2976 36.9699 38.3043 37 36.8125 37H10.875L3 46ZM33.2031 23.1625C33.7094 21.7281 33.9906 20.0406 33.9906 18.1281C33.9906 14.5 33.0063 11.6875 31.0938 9.69063C30.0743 8.66889 28.8514 7.87297 27.5044 7.35452C26.1574 6.83607 24.7164 6.60668 23.275 6.68125C21.8251 6.60574 20.3754 6.83448 19.0191 7.35276C17.6629 7.87104 16.4301 8.6674 15.4 9.69063C13.3553 12.0086 12.3134 15.043 12.5031 18.1281C12.5031 21.7563 13.4875 24.5688 15.4 26.5656C16.4524 27.5983 17.7092 28.3995 19.0896 28.9178C20.47 29.4361 21.9436 29.6599 23.4156 29.575C25.1594 29.575 26.7906 29.2656 28.225 28.6187C28.4476 28.7694 28.6577 28.9118 28.8554 29.0457C30.2808 30.0115 31.0581 30.5381 31.2063 30.5875C31.8531 30.9531 32.5 31.2344 33.175 31.4313L34.8344 28.2531C34.2019 28.0314 33.5863 27.7668 32.9915 27.4614C32.9827 27.4569 32.9738 27.4523 32.9649 27.4477C32.3652 27.1382 31.7869 26.7872 31.2344 26.3969C31.6924 25.8673 32.0849 25.3304 32.4155 24.7825C32.7345 24.2538 32.996 23.715 33.2031 23.1625ZM23.2469 10.5063C22.4174 10.4751 21.5914 10.6279 20.8279 10.9537C20.0645 11.2795 19.3826 11.7702 18.8313 12.3906C17.7063 13.6844 17.1438 15.5969 17.1438 18.1281C17.1438 20.7156 17.7063 22.6562 18.8313 23.95C19.0893 24.2403 19.3637 24.4981 19.654 24.723C20.2442 25.1802 20.9002 25.5013 21.6193 25.6837C22.0884 25.8026 22.5843 25.8625 23.1063 25.8625C23.7531 25.8625 24.3719 25.75 24.9344 25.5531C24.6244 25.3497 24.3111 25.1596 23.9956 24.9841C23.7008 24.82 23.404 24.6685 23.1063 24.5307C22.7976 24.3878 22.4878 24.2595 22.1781 24.1469L23.4438 21.6156C24.96 22.1382 26.3839 22.8976 27.6625 23.8656C27.7797 23.725 27.8907 23.5783 27.9957 23.4255C28.2646 23.0341 28.4934 22.6026 28.6822 22.1311C28.7736 21.903 28.8555 21.6656 28.9281 21.4188C29.2375 20.4625 29.3781 19.3656 29.3781 18.1281C29.3781 15.5688 28.8156 13.6563 27.6906 12.3906C27.1362 11.7664 26.4498 11.2735 25.6811 10.9476C24.9125 10.6216 24.081 10.4709 23.2469 10.5063ZM26.9597 21.0156C26.0477 20.4996 25.0891 20.0672 24.0954 19.7248L22.4386 19.1538L20.5754 22.8802C20.4931 22.8016 20.4125 22.7181 20.3336 22.6297C19.6555 21.8446 19.1438 20.4627 19.1438 18.1281C19.1438 15.863 19.6497 14.5027 20.3334 13.7111C20.6875 13.3151 21.1243 13.0017 21.6129 12.7932C22.1049 12.5832 22.6373 12.4848 23.1718 12.5048L23.2517 12.5078L23.3316 12.5045C23.8691 12.4817 24.405 12.5788 24.9003 12.7889C25.3957 12.9989 25.8385 13.3171 26.1958 13.7194C26.8639 14.471 27.3781 15.816 27.3781 18.1281C27.3781 19.2221 27.2528 20.0997 27.0252 20.8031L27.017 20.8287L27.0094 20.8544C26.9933 20.9091 26.9767 20.9628 26.9597 21.0156ZM23.2754 4.67899C24.9622 4.60601 26.6464 4.88125 28.2228 5.488C29.8315 6.10718 31.292 7.05775 32.5095 8.278L32.524 8.29248L32.5382 8.30726C34.8998 10.7731 35.9906 14.1361 35.9906 18.1281C35.9906 20.2339 35.6812 22.1505 35.0891 23.8281L35.0826 23.8465L35.0758 23.8647C34.8254 24.5324 34.5126 25.176 34.1381 25.7989C34.5788 26.0138 35.0322 26.2031 35.496 26.3657L37.6769 27.1302L34.189 33.8103L32.615 33.3512C31.8061 33.1153 31.0453 32.7862 30.3083 32.3769C30.2212 32.3354 30.1566 32.299 30.1288 32.2833L30.1235 32.2803C30.038 32.2321 29.9489 32.1779 29.8649 32.1253C29.695 32.0189 29.4794 31.8775 29.2285 31.7102C28.8988 31.4904 28.4789 31.2064 27.9736 30.8641C26.5511 31.346 25.0299 31.5696 23.4726 31.5749C21.7415 31.6667 20.0099 31.3996 18.3867 30.7902C16.7452 30.1739 15.2507 29.2212 13.9992 27.9932L13.9771 27.9714L13.9556 27.949C11.6058 25.4956 10.5142 22.1541 10.5032 18.1886C10.2988 14.5963 11.5188 11.0671 13.9002 8.36757L13.9438 8.31815L13.9905 8.27171C15.2185 7.05182 16.6883 6.10242 18.3052 5.48452C19.8898 4.87898 21.5814 4.60497 23.2754 4.67899Z" fill="black"/>
</svg>
