<svg width="96" height="96" viewBox="0 0 96 96" fill="none" xmlns="http://www.w3.org/2000/svg">
<path opacity="0.2" d="M92.9972 19.9897C92.9972 14.4669 88.5201 10 82.9972 10H15.9997C12.1338 10 8.99981 13.1339 8.99973 16.9998C8.99921 41.3332 8.99978 65.6665 8.99978 89.9999L20.9667 77.4432L21.4095 76.9999H22C42.6234 76.9999 62.5641 76.9999 82.9967 76.9999C88.5196 76.9999 92.9972 72.5341 92.9972 67.0113C92.9972 52.3321 92.9972 31.9886 92.9972 19.9897ZM67.3915 68.7243C63.6547 67.5555 59.7307 66.0801 56.9107 63.2576C54.106 64.3657 51.0799 64.8828 47.8323 64.8828C34.3941 65.5389 25.1732 54.2975 25.1732 41.2432C24.4252 28.3662 34.211 16.9566 47.4633 17.6036C53.4475 17.3041 59.4011 19.6529 63.6273 23.8829C67.6867 28.0937 69.6058 33.9297 69.6058 41.2432C69.6058 45.0847 69.0153 48.5567 67.982 51.5117C67.2439 53.3585 66.2844 55.2054 64.9558 56.9045C67.1181 58.2817 69.5011 59.1363 71.8938 60.0072L67.3915 68.7243Z" fill="black"/>
<path fill-rule="evenodd" clip-rule="evenodd" d="M17.136 71H78.25C79.5552 71 80.8732 70.894 82.0282 70.6054C83.1946 70.314 84.0021 69.8848 84.506 69.381C86.0104 67.8765 87 65.5504 87 63.5V14.5C87 12.6476 86.1754 10.9759 84.506 9.30653C83.0291 7.82969 81.0261 7 78.9375 7H13.6875C9.29293 7 6 10.2449 6 14.5V82.9025L17.136 71ZM3 90.5V14.5C3 8.51875 7.70625 4 13.6875 4H78.9375C81.8217 4 84.5878 5.14576 86.6273 7.18521C88.6667 9.22467 90 11.6158 90 14.5V63.5C90 66.3842 88.6667 69.4628 86.6273 71.5023C84.5878 73.5417 81.1342 74 78.25 74H18.4375L3 90.5ZM65.0719 46.8475C66.0506 44.0744 66.5944 40.8119 66.5944 37.1144C66.5944 30.1 64.6913 24.6625 60.9938 20.8019C59.0228 18.8265 56.6585 17.2877 54.0543 16.2854C51.4501 15.2831 48.6642 14.8396 45.8775 14.9837C43.0743 14.8378 40.2715 15.28 37.6494 16.282C35.0274 17.284 32.644 18.8236 30.6525 20.8019C26.6993 25.2833 24.6852 31.1498 25.0519 37.1144C25.0519 44.1288 26.955 49.5663 30.6525 53.4269C32.6872 55.4235 35.117 56.9725 37.7858 57.9744C40.4546 58.9764 43.3034 59.4092 46.1494 59.245C49.5206 59.245 52.6744 58.6469 55.4475 57.3962C55.8779 57.6876 56.2841 57.9628 56.6662 58.2217C59.422 60.0888 60.9247 61.107 61.2113 61.2025C62.4619 61.9094 63.7125 62.4531 65.0175 62.8338L68.2256 56.6894C67.2763 56.3566 66.3464 55.9738 65.4399 55.5429C64.8951 55.2839 64.3587 55.0075 63.8316 54.7142C62.9491 54.2232 62.0924 53.6847 61.2656 53.1006C61.9459 52.3141 62.5514 51.5192 63.0853 50.7127C63.917 49.4565 64.5751 48.1722 65.0719 46.8475ZM45.8781 11.9802C49.0329 11.8385 52.1836 12.3508 55.1319 13.4856C58.1287 14.6391 60.8494 16.4098 63.1175 18.6829L63.1391 18.7047L63.1604 18.7268C67.5316 23.291 69.5944 29.5541 69.5944 37.1144C69.5944 41.1017 69.0084 44.7079 67.9008 47.846L67.8911 47.8735L67.8809 47.9009C67.3107 49.4213 66.5648 50.8786 65.6421 52.2849C66.7903 52.9001 67.9858 53.4263 69.218 53.8583L72.4894 55.005L66.5385 66.4024L64.1775 65.7138C62.674 65.2752 61.2548 64.661 59.8719 63.891C59.7199 63.8197 59.604 63.7544 59.5503 63.7241L59.5431 63.72C59.3946 63.6364 59.2352 63.5395 59.078 63.441C58.7604 63.2422 58.3521 62.9744 57.8683 62.6519C57.1564 62.1773 56.2261 61.5472 55.087 60.7755C52.3171 61.7723 49.323 62.2365 46.2351 62.2449C43.0005 62.4194 39.7645 61.9218 36.7313 60.783C33.6709 59.634 30.8846 57.8577 28.5513 55.5682L28.5181 55.5356L28.4859 55.5019C24.1322 50.9561 22.0685 44.7249 22.052 37.2054C21.6631 30.4799 23.9446 23.8712 28.4027 18.8173L28.4681 18.7432L28.5383 18.6735C30.8267 16.4003 33.5655 14.6311 36.5785 13.4796C39.5432 12.3467 42.7087 11.8366 45.8781 11.9802ZM54.4144 26.0219C53.3425 24.8151 52.0154 23.8621 50.5294 23.232C49.0434 22.6018 47.4358 22.3104 45.8231 22.3788C44.2195 22.3185 42.6225 22.6139 41.1465 23.2438C39.6705 23.8737 38.3523 24.8224 37.2863 26.0219C35.1113 28.5231 34.0238 32.2206 34.0238 37.1144C34.0238 42.1169 35.1113 45.8687 37.2863 48.37C37.9923 49.1643 38.7614 49.8326 39.5916 50.3729C39.6593 50.4169 39.7274 50.4601 39.7958 50.5024C40.9539 51.2184 42.2279 51.6911 43.613 51.9156C44.2367 52.0167 44.8829 52.0675 45.5513 52.0675C46.8019 52.0675 47.9981 51.85 49.0856 51.4694C48.2367 50.9123 47.3749 50.407 46.5064 49.9597C46.1888 49.7962 45.8703 49.6404 45.5513 49.4927C45.1709 49.3166 44.7898 49.152 44.4084 48.9994C44.1913 48.9126 43.9741 48.8296 43.7569 48.7506L46.2038 43.8569C49.1351 44.8671 51.888 46.3353 54.36 48.2069C54.5865 47.9351 54.8012 47.6514 55.0042 47.356C55.3651 46.8306 55.6887 46.2679 55.975 45.6679C56.3005 44.9856 56.5778 44.2551 56.8069 43.4763C57.405 41.6275 57.6769 39.5069 57.6769 37.1144C57.6769 32.1663 56.5894 28.4688 54.4144 26.0219ZM40.9454 47.6654C40.448 47.3089 39.9805 46.8837 39.5396 46.3894C38.0357 44.6518 37.0238 41.7386 37.0238 37.1144C37.0238 32.6186 38.0269 29.75 39.5396 28.0025C40.3096 27.1397 41.2602 26.457 42.324 26.0031C43.3928 25.5469 44.5493 25.333 45.7105 25.3766L45.8304 25.3811L45.9502 25.3761C47.118 25.3265 48.2821 25.5376 49.3582 25.9939C50.4342 26.4502 51.3952 27.1403 52.1714 28.0142L52.1721 28.015C53.6619 29.6909 54.6769 32.5371 54.6769 37.1144C54.6769 39.2916 54.428 41.0833 53.9525 42.5528L53.9401 42.5911L53.9288 42.6298C53.7889 43.1054 53.6296 43.5503 53.4523 43.9663C51.4761 42.7645 49.374 41.7763 47.1812 41.0206L44.696 40.1641L40.9454 47.6654Z" fill="black"/>
</svg>
