<svg width="196" height="196" viewBox="0 0 196 196" fill="none" xmlns="http://www.w3.org/2000/svg">
<path opacity="0.07" fill-rule="evenodd" clip-rule="evenodd" d="M100.827 185.713C113.452 185.927 133.589 176.881 146.882 165.875C147.989 164.958 149.276 163.951 150.696 162.84C163.872 152.529 188.538 133.228 187.701 93.6813C186.774 49.8713 170.664 34.831 145.937 22.8138C121.209 10.7966 72.3091 -0.661782 36.1993 23.3215C0.0893669 47.3049 6.79682 146.52 37.6736 165.86C68.4938 185.164 88.1294 185.497 100.757 185.711L100.827 185.713ZM39 162V58.75C39 50.6375 45.6375 44 53.75 44H142.25C150.284 44 157 50.7162 157 58.75V125.125C157 133.734 150.424 139 142.25 139H61.125L39 162Z" fill="black"/>
<path opacity="0.2" d="M55.9942 52C51.0237 52 47.0001 56.0292 46.9999 60.9997C46.9991 93.9998 47 127 47 160L62.732 143.6L63.3331 143H64.1344C86.6796 143 124.97 143 146.024 143C154.308 143 161 136.284 161 128V67C161 58.7157 154.291 52 146.007 52C117.54 52 83.6246 52 55.9942 52ZM128.641 132.2C124.017 130.757 117.916 128.293 114.417 124.8C110.611 126.3 106.503 127 102.096 127C94.0513 127.392 85.3478 124.188 79.5574 118.6C74.048 112.7 71.3434 104.8 71.3434 95C70.8425 86.4 73.7475 78 79.4572 71.5C85.2331 65.734 93.45 62.6033 101.595 63C109.712 62.5949 117.792 65.7693 123.533 71.5C129.042 77.2 131.646 85.1 131.646 95C131.646 100.2 130.845 104.9 129.443 108.9C128.441 111.4 127.139 113.9 125.336 116.2C128.271 118.065 131.505 119.221 134.752 120.4L128.641 132.2Z" fill="black"/>
<path d="M169 29L165 25L161 29L165 33L169 29Z" fill="black"/>
<path d="M183 40C184.105 40 185 40.8954 185 42V46H189C190.105 46 191 46.8954 191 48C191 49.1046 190.105 50 189 50H185V54C185 55.1046 184.105 56 183 56C181.895 56 181 55.1046 181 54V50H177C175.895 50 175 49.1046 175 48C175 46.8954 175.895 46 177 46H181V42C181 40.8954 181.895 40 183 40Z" fill="black"/>
<path fill-rule="evenodd" clip-rule="evenodd" d="M71.5 173L80 181.5L71.5 190L63 181.5L71.5 173ZM68.6667 181.5L71.5 184.333L74.3333 181.5L71.5 178.667L68.6667 181.5Z" fill="black"/>
<path fill-rule="evenodd" clip-rule="evenodd" d="M103.719 70.0847C105.735 70.9394 107.535 72.232 108.989 73.8688C111.939 77.1875 113.414 82.2025 113.414 88.9138C113.414 92.1588 113.045 95.035 112.234 97.5425C111.916 98.623 111.53 99.6349 111.075 100.578C110.694 101.369 110.265 102.111 109.789 102.805C109.513 103.205 109.222 103.59 108.915 103.959C105.562 101.42 101.828 99.429 97.8525 98.0587L94.5337 104.696C94.9075 104.832 95.2813 104.977 95.6548 105.13C96.0929 105.309 96.5306 105.5 96.9675 105.703C97.3797 105.894 97.7912 106.094 98.2017 106.305C99.4004 106.919 100.59 107.615 101.761 108.384C100.286 108.9 98.6637 109.195 96.9675 109.195C96.1586 109.195 95.3736 109.14 94.6129 109.031C91.1424 108.533 88.1771 106.902 85.7575 104.18C82.8075 100.787 81.3325 95.6988 81.3325 88.9138C81.3325 82.2763 82.8075 77.2612 85.7575 73.8688C87.2034 72.2419 88.9914 70.9551 90.9932 70.1008C92.9951 69.2465 95.1612 68.8458 97.3362 68.9275C99.5235 68.8348 101.704 69.2301 103.719 70.0847ZM95.8422 93.135L99.1558 94.277C102.15 95.3091 105.02 96.6612 107.716 98.3074C107.97 97.7197 108.198 97.0895 108.396 96.4138L108.411 96.3623L108.428 96.3112C109.076 94.3094 109.414 91.8717 109.414 88.9138C109.414 82.6969 108.035 78.817 105.999 76.5262L105.998 76.5252C104.939 75.3323 103.627 74.3902 102.158 73.7673C100.689 73.1444 99.0998 72.8563 97.5057 72.9239L97.3459 72.9307L97.1861 72.9247C95.601 72.8652 94.0223 73.1572 92.5633 73.7798C91.1109 74.3996 89.8131 75.3317 88.7619 76.5097C86.6951 78.8971 85.3325 82.8069 85.3325 88.9138C85.3325 95.1945 86.7068 99.165 88.762 101.539C89.3829 102.235 90.0427 102.831 90.7461 103.327L95.8422 93.135Z" fill="black"/>
<path fill-rule="evenodd" clip-rule="evenodd" d="M109.937 56.9299C105.946 55.3938 101.681 54.7006 97.4108 54.8928C93.1205 54.6979 88.8353 55.3883 84.8222 56.9219C80.7445 58.4801 77.038 60.8745 73.941 63.9509L73.8475 64.0438L73.7603 64.1426C67.7252 70.9842 64.6369 79.9307 65.1639 89.0351C65.1859 99.2223 67.9812 107.656 73.8712 113.805L73.9141 113.85L73.9585 113.894C77.1163 116.992 80.8872 119.396 85.0291 120.951C89.1347 122.493 93.5149 123.166 97.893 122.93C102.087 122.919 106.153 122.286 109.911 120.929C111.469 121.985 112.74 122.846 113.712 123.494C114.368 123.931 114.921 124.294 115.351 124.563C115.564 124.696 115.779 124.827 115.979 124.939L115.988 124.945C116.061 124.986 116.218 125.074 116.422 125.17C118.295 126.213 120.215 127.044 122.25 127.637L125.398 128.556L133.406 113.218L129.044 111.689C127.346 111.094 125.699 110.366 124.118 109.515C125.386 107.592 126.409 105.599 127.189 103.519L127.203 103.483L127.216 103.446C128.715 99.1985 129.509 94.3152 129.509 88.9138C129.509 78.6722 126.715 70.1963 120.801 64.022L120.773 63.9925L120.744 63.9635C117.675 60.8873 113.993 58.4909 109.937 56.9299ZM120.711 107.415C119.996 108.489 119.188 109.548 118.281 110.596C119.384 111.375 120.525 112.094 121.7 112.751C122.455 113.172 123.224 113.568 124.005 113.938C125.215 114.511 126.455 115.02 127.721 115.464L123.37 123.798C121.6 123.281 119.904 122.544 118.207 121.585C117.819 121.455 115.78 120.074 112.043 117.542C111.525 117.191 110.974 116.818 110.39 116.422C106.629 118.119 102.351 118.93 97.7788 118.93C93.9187 119.153 90.0548 118.566 86.435 117.207C82.8153 115.848 79.5197 113.747 76.76 111.039C71.745 105.802 69.1638 98.4275 69.1638 88.9138C68.6664 80.8239 71.3982 72.867 76.76 66.7887C79.4611 64.1056 82.6937 62.0174 86.2501 60.6583C89.8065 59.2993 93.6079 58.6995 97.41 58.8975C101.19 58.702 104.968 59.3035 108.5 60.663C112.033 62.0224 115.239 64.1095 117.912 66.7887C122.927 72.025 125.509 79.4 125.509 88.9138C125.509 93.9288 124.771 98.3537 123.444 102.115C122.762 103.932 121.857 105.693 120.711 107.415Z" fill="black"/>
<path fill-rule="evenodd" clip-rule="evenodd" d="M39 58.75V162L61.125 139H142.25C150.424 139 157 133.734 157 125.125V58.75C157 50.7162 150.284 44 142.25 44H53.75C45.6375 44 39 50.6375 39 58.75ZM142.25 135H59.4225L43 152.072V58.75C43 52.8466 47.8466 48 53.75 48H142.25C148.075 48 153 52.9253 153 58.75V125.125C153 128.341 151.805 130.711 150.018 132.314C148.185 133.959 145.492 135 142.25 135Z" fill="black"/>
</svg>
