<svg width="96" height="96" viewBox="0 0 96 96" fill="none" xmlns="http://www.w3.org/2000/svg">
<path opacity="0.2" d="M92.9972 20.9897C92.9972 15.4669 88.5201 11 82.9972 11H15.9997C12.1338 11 8.99981 14.1339 8.99973 17.9998C8.99921 42.3332 8.99978 66.6665 8.99978 90.9999L20.9667 78.4432L21.4095 77.9999H22C42.6234 77.9999 62.5641 77.9999 82.9967 77.9999C88.5196 77.9999 92.9972 73.5341 92.9972 68.0113C92.9972 53.3321 92.9972 32.9886 92.9972 20.9897ZM67.3915 69.7243C63.6547 68.5555 59.7307 67.0801 56.9107 64.2576C54.106 65.3657 51.0799 65.8828 47.8323 65.8828C34.3941 66.5389 25.1732 55.2975 25.1732 42.2432C24.4252 29.3662 34.211 17.9566 47.4633 18.6036C53.4475 18.3041 59.4011 20.6529 63.6273 24.8829C67.6867 29.0937 69.6058 34.9297 69.6058 42.2432C69.6058 46.0847 69.0153 49.5567 67.982 52.5117C67.2439 54.3585 66.2844 56.2054 64.9558 57.9045C67.1181 59.2817 69.5011 60.1363 71.8938 61.0072L67.3915 69.7243Z" fill="black"/>
<path fill-rule="evenodd" clip-rule="evenodd" d="M17.136 72H78.25C79.5552 72 80.8732 71.894 82.0282 71.6054C83.1946 71.314 84.0021 70.8848 84.506 70.381C86.0104 68.8765 87 66.5504 87 64.5V15.5C87 13.6476 86.1754 11.9759 84.506 10.3065C83.0291 8.82969 81.0261 8 78.9375 8H13.6875C9.29293 8 6 11.2449 6 15.5V83.9025L17.136 72ZM3 91.5V15.5C3 9.51875 7.70625 5 13.6875 5H78.9375C81.8217 5 84.5878 6.14576 86.6273 8.18521C88.6667 10.2247 90 12.6158 90 15.5V64.5C90 67.3842 88.6667 70.4628 86.6273 72.5023C84.5878 74.5417 81.1342 75 78.25 75H18.4375L3 91.5ZM65.0719 47.8475C66.0506 45.0744 66.5944 41.8119 66.5944 38.1144C66.5944 31.1 64.6913 25.6625 60.9938 21.8019C59.0228 19.8265 56.6585 18.2877 54.0543 17.2854C51.4501 16.2831 48.6642 15.8396 45.8775 15.9837C43.0743 15.8378 40.2715 16.28 37.6494 17.282C35.0274 18.284 32.644 19.8236 30.6525 21.8019C26.6993 26.2833 24.6852 32.1498 25.0519 38.1144C25.0519 45.1288 26.955 50.5663 30.6525 54.4269C32.6872 56.4235 35.117 57.9725 37.7858 58.9744C40.4546 59.9764 43.3034 60.4092 46.1494 60.245C49.5206 60.245 52.6744 59.6469 55.4475 58.3962C55.8779 58.6876 56.2841 58.9628 56.6662 59.2217C59.422 61.0888 60.9247 62.107 61.2113 62.2025C62.4619 62.9094 63.7125 63.4531 65.0175 63.8338L68.2256 57.6894C67.2763 57.3566 66.3464 56.9738 65.4399 56.5429C64.8951 56.2839 64.3587 56.0075 63.8316 55.7142C62.9491 55.2232 62.0924 54.6847 61.2656 54.1006C61.9459 53.3141 62.5514 52.5192 63.0853 51.7127C63.917 50.4565 64.5751 49.1722 65.0719 47.8475ZM45.8781 12.9802C49.0329 12.8385 52.1836 13.3508 55.1319 14.4856C58.1287 15.6391 60.8494 17.4098 63.1175 19.6829L63.1391 19.7047L63.1604 19.7268C67.5316 24.291 69.5944 30.5541 69.5944 38.1144C69.5944 42.1017 69.0084 45.7079 67.9008 48.846L67.8911 48.8735L67.8809 48.9009C67.3107 50.4213 66.5648 51.8786 65.6421 53.2849C66.7903 53.9001 67.9858 54.4263 69.218 54.8583L72.4894 56.005L66.5385 67.4024L64.1775 66.7138C62.674 66.2752 61.2548 65.661 59.8719 64.891C59.7199 64.8197 59.604 64.7544 59.5503 64.7241L59.5431 64.72C59.3946 64.6364 59.2352 64.5395 59.078 64.441C58.7604 64.2422 58.3521 63.9744 57.8683 63.6519C57.1564 63.1773 56.2261 62.5472 55.087 61.7755C52.3171 62.7723 49.323 63.2365 46.2351 63.2449C43.0005 63.4194 39.7645 62.9218 36.7313 61.783C33.6709 60.634 30.8846 58.8577 28.5513 56.5682L28.5181 56.5356L28.4859 56.5019C24.1322 51.9561 22.0685 45.7249 22.052 38.2054C21.6631 31.4799 23.9446 24.8712 28.4027 19.8173L28.4681 19.7432L28.5383 19.6735C30.8267 17.4003 33.5655 15.6311 36.5785 14.4796C39.5432 13.3467 42.7087 12.8366 45.8781 12.9802ZM54.4144 27.0219C53.3425 25.8151 52.0154 24.8621 50.5294 24.232C49.0434 23.6018 47.4358 23.3104 45.8231 23.3788C44.2195 23.3185 42.6225 23.6139 41.1465 24.2438C39.6705 24.8737 38.3523 25.8224 37.2863 27.0219C35.1113 29.5231 34.0238 33.2206 34.0238 38.1144C34.0238 43.1169 35.1113 46.8687 37.2863 49.37C37.9923 50.1643 38.7614 50.8326 39.5916 51.3729C39.6593 51.4169 39.7274 51.4601 39.7958 51.5024C40.9539 52.2184 42.2279 52.6911 43.613 52.9156C44.2367 53.0167 44.8829 53.0675 45.5513 53.0675C46.8019 53.0675 47.9981 52.85 49.0856 52.4694C48.2367 51.9123 47.3749 51.407 46.5064 50.9597C46.1888 50.7962 45.8703 50.6404 45.5513 50.4927C45.1709 50.3166 44.7898 50.152 44.4084 49.9994C44.1913 49.9126 43.9741 49.8296 43.7569 49.7506L46.2038 44.8569C49.1351 45.8671 51.888 47.3353 54.36 49.2069C54.5865 48.9351 54.8012 48.6514 55.0042 48.356C55.3651 47.8306 55.6887 47.2679 55.975 46.6679C56.3005 45.9856 56.5778 45.2551 56.8069 44.4763C57.405 42.6275 57.6769 40.5069 57.6769 38.1144C57.6769 33.1663 56.5894 29.4688 54.4144 27.0219ZM40.9454 48.6654C40.448 48.3089 39.9805 47.8837 39.5396 47.3894C38.0357 45.6518 37.0238 42.7386 37.0238 38.1144C37.0238 33.6186 38.0269 30.75 39.5396 29.0025C40.3096 28.1397 41.2602 27.457 42.324 27.0031C43.3928 26.5469 44.5493 26.333 45.7105 26.3766L45.8304 26.3811L45.9502 26.3761C47.118 26.3265 48.2821 26.5376 49.3582 26.9939C50.4342 27.4502 51.3952 28.1403 52.1714 29.0142L52.1721 29.015C53.6619 30.6909 54.6769 33.5371 54.6769 38.1144C54.6769 40.2916 54.428 42.0833 53.9525 43.5528L53.9401 43.5911L53.9288 43.6298C53.7889 44.1054 53.6296 44.5503 53.4523 44.9663C51.4761 43.7645 49.374 42.7763 47.1812 42.0206L44.696 41.1641L40.9454 48.6654Z" fill="black"/>
</svg>
