<svg width="48" height="48" viewBox="0 0 48 48" fill="none" xmlns="http://www.w3.org/2000/svg">
<g opacity="0.2">
<path d="M5.01074 14.7143C5.01074 11.5899 7.52818 9.05713 10.6336 9.05713H19.3771C22.4826 9.05713 25 11.5899 25 14.7143V34.5143L20.0637 42.5246C19.8816 42.8201 19.5594 43 19.2124 43H15.1808C14.4101 43 13.9291 42.1651 14.3157 41.4984L18.365 34.5143H10.6336C7.52818 34.5143 5.01074 31.9815 5.01074 28.8571V14.7143Z" fill="black"/>
<path d="M28 14.7143C28 11.5899 30.4862 9.05713 33.5916 9.05713H41.323C44.4285 9.05713 46.9459 11.5899 46.9459 14.7143V34.5143L43.0046 42.4451C42.8356 42.785 42.4887 43 42.1091 43H38.0766C37.3201 43 36.8376 42.1924 37.196 41.5262L40.9688 34.5143H33.5916C30.4862 34.5143 28 31.9815 28 28.8571V14.7143Z" fill="black"/>
</g>
<path fill-rule="evenodd" clip-rule="evenodd" d="M1 11.6571C1 7.98625 3.95943 5 7.62286 5H16.4084C20.0718 5 23.0312 7.98625 23.0312 11.6571V30.9455C23.0312 31.4655 22.8866 31.9752 22.6136 32.4177L18.1396 39.6686C17.6289 40.4961 16.7259 41 15.7535 41H13.6611C11.4681 41 10.124 38.5956 11.2729 36.7275L12.8121 34.2248C13.1414 33.6893 12.7561 33 12.1275 33H7.62286C5.72722 33 4.06306 32.0619 2.89529 30.7313C1.72966 29.4031 1 27.6225 1 25.8V11.6571ZM7.62286 7C5.07545 7 3 9.07934 3 11.6571V25.8C3 27.1019 3.52906 28.4213 4.3985 29.412C5.26581 30.4003 6.41309 31 7.62286 31H12.1275C14.3205 31 15.6646 33.4044 14.5157 35.2725L12.9765 37.7752C12.6472 38.3107 13.0325 39 13.6611 39H15.7535C16.0323 39 16.2911 38.8556 16.4375 38.6183L20.9115 31.3675C20.9898 31.2407 21.0312 31.0945 21.0312 30.9455V11.6571C21.0312 9.07934 18.9558 7 16.4084 7H7.62286ZM24.0021 11.6571C24.0021 7.98625 26.9616 5 30.625 5H38.3771C42.0406 5 45 7.98625 45 11.6571V31.505C45 32.0086 44.8643 32.503 44.6073 32.9361L40.6355 39.6274C40.1304 40.4783 39.2141 41 38.2246 41H36.1526C33.9595 41 32.6155 38.5956 33.7644 36.7275L35.3035 34.2248C35.6329 33.6893 35.2476 33 34.6189 33H30.625C28.7294 33 27.0652 32.0619 25.8974 30.7313C24.7318 29.4031 24.0021 27.6225 24.0021 25.8V11.6571ZM30.625 7C28.0776 7 26.0021 9.07934 26.0021 11.6571V25.8C26.0021 27.1019 26.5312 28.4213 27.4006 29.412C28.2679 30.4003 29.4152 31 30.625 31H34.6189C36.812 31 38.156 33.4044 37.0071 35.2725L35.468 37.7752C35.1386 38.3107 35.5239 39 36.1526 39H38.2246C38.5082 39 38.7709 38.8505 38.9157 38.6065L42.8874 31.9152C42.9611 31.7911 43 31.6494 43 31.505V11.6571C43 9.07934 40.9245 7 38.3771 7H30.625Z" fill="black"/>
</svg>
