<svg width="196" height="196" viewBox="0 0 196 196" fill="none" xmlns="http://www.w3.org/2000/svg">
<path opacity="0.07" fill-rule="evenodd" clip-rule="evenodd" d="M162.323 20.377C123.928 -3.19375 74.6613 10.4952 44.4094 24.9633C29.5472 32.0712 18.6511 43.8918 8.77552 82.1994C-1.10007 120.507 15.4467 167.233 42.397 179.877C69.3474 192.521 123.642 193.419 162.174 164.697C200.706 135.975 196.062 41.0891 162.323 20.377ZM22 63.0143C22 51.4199 31.3454 42 42.899 42H71.1635C82.7171 42 92.0625 51.4199 92.0625 63.0143V128.067C92.0625 129.032 91.807 129.979 91.3221 130.812L75.9161 157.288C74.9388 158.967 73.1424 160 71.1994 160H57.9527C53.7383 160 51.1144 155.426 53.2419 151.788L64.1164 133.193C64.6845 132.221 63.9839 131 62.8586 131H42.899C31.3454 131 22 121.58 22 109.986V63.0143ZM97.0625 63.0143C97.0625 51.4199 106.408 42 117.962 42H147.163C158.717 42 168.062 51.4199 168.062 63.0143V128.048C168.062 129.032 167.797 129.997 167.293 130.841L151.507 157.336C150.523 158.988 148.742 160 146.819 160H133.549C129.334 160 126.711 155.426 128.838 151.788L139.713 133.193C140.281 132.221 139.58 131 138.455 131H117.962C106.408 131 97.0625 121.58 97.0625 109.986V63.0143Z" fill="black"/>
<g opacity="0.2">
<path d="M30.7591 69.9286C30.7591 59.4273 39.2204 50.9143 49.6581 50.9143H78.0067C88.4443 50.9143 96.9057 59.4273 96.9057 69.9286V136.031L81.5204 162.983C80.8085 164.23 79.4826 165 78.0466 165H65.9968C62.9263 165 61.0008 161.684 62.523 159.017L75.6443 136.031H49.6581C39.2205 136.031 30.7591 127.518 30.7591 117.017V69.9286Z" fill="black"/>
<path d="M106.015 69.9286C106.015 59.4273 114.477 50.9143 124.914 50.9143H154.101C164.538 50.9143 173 59.4273 173 69.9286V136.479L157.129 163.051C156.407 164.26 155.103 165 153.695 165H141.593C138.522 165 136.597 161.684 138.119 159.017L151.24 136.031H124.914C114.477 136.031 106.015 127.518 106.015 117.017V69.9286Z" fill="black"/>
</g>
<path d="M167 15C167 13.8954 166.105 13 165 13C163.895 13 163 13.8954 163 15V19H159C157.895 19 157 19.8954 157 21C157 22.1046 157.895 23 159 23H163V27C163 28.1046 163.895 29 165 29C166.105 29 167 28.1046 167 27V23H171C172.105 23 173 22.1046 173 21C173 19.8954 172.105 19 171 19H167V15Z" fill="black"/>
<path d="M55 16L59 20L55 24L51 20L55 16Z" fill="black"/>
<path fill-rule="evenodd" clip-rule="evenodd" d="M107.5 176L116 184.5L107.5 193L99 184.5L107.5 176ZM104.667 184.5L107.5 187.333L110.333 184.5L107.5 181.667L104.667 184.5Z" fill="black"/>
<path fill-rule="evenodd" clip-rule="evenodd" d="M42.899 42C31.3454 42 22 51.4199 22 63.0143L22 109.986C22 121.58 31.3454 131 42.899 131H62.8586C63.9839 131 64.6845 132.221 64.1164 133.193L53.2419 151.788C51.1144 155.426 53.7383 160 57.9527 160H71.1994C73.1424 160 74.9388 158.967 75.9161 157.288L91.3221 130.812C91.807 129.979 92.0625 129.032 92.0625 128.067V63.0143C92.0625 51.4199 82.7171 42 71.1635 42H42.899ZM26 63.0143C26 53.6061 33.5774 46 42.899 46H71.1635C80.4851 46 88.0625 53.6061 88.0625 63.0143V128.067C88.0625 128.325 87.9943 128.578 87.8648 128.8L72.4588 155.276C72.1979 155.724 71.7182 156 71.1994 156H57.9527C56.8274 156 56.1268 154.779 56.6949 153.807L67.5693 135.212C69.6968 131.574 67.073 127 62.8586 127H42.899C33.5774 127 26 119.394 26 109.986L26 63.0143Z" fill="black"/>
<path fill-rule="evenodd" clip-rule="evenodd" d="M117.962 42C106.408 42 97.0625 51.4199 97.0625 63.0143V109.986C97.0625 121.58 106.408 131 117.962 131H138.455C139.58 131 140.281 132.221 139.713 133.193L128.838 151.788C126.711 155.426 129.334 160 133.549 160H146.819C148.742 160 150.523 158.988 151.507 157.336L167.293 130.841C167.797 129.997 168.062 129.032 168.062 128.048V63.0143C168.062 51.4199 158.717 42 147.163 42H117.962ZM101.062 63.0143C101.062 53.6061 108.64 46 117.962 46H147.163C156.485 46 164.062 53.6061 164.062 63.0143V128.048C164.062 128.311 163.992 128.568 163.857 128.794L148.071 155.289C147.808 155.73 147.333 156 146.819 156H133.549C132.424 156 131.723 154.779 132.291 153.807L143.165 135.212C145.293 131.574 142.669 127 138.455 127H117.962C108.64 127 101.062 119.394 101.062 109.986V63.0143Z" fill="black"/>
</svg>
