<svg width="96" height="96" viewBox="0 0 96 96" fill="none" xmlns="http://www.w3.org/2000/svg">
<g opacity="0.2">
<path d="M10 31.7862C10 25.7979 14.6796 20.9434 20.6316 20.9434H36.7973C42.7494 20.9434 47 25.7979 47 31.7862V69.7362L38.9968 84.435C38.4715 85.3999 37.4607 86.0005 36.362 86.0005H31.2243C28.9132 86.0005 27.47 83.497 28.6283 81.497L35.25 70.063H20.5C14.548 70.063 10 64.8817 10 58.8933V31.7862Z" fill="black"/>
<path d="M52.963 31.7862C52.963 25.7979 57.7881 20.9434 63.7402 20.9434H79.9059C85.8579 20.9434 91 25.7979 91 31.7862V69.7362L82.1267 84.5426C81.5847 85.447 80.6078 86.0005 79.5534 86.0005H74.3552C72.0391 86.0005 70.5966 83.4874 71.7647 81.4874L78.4375 70.063H63.7402C57.7881 70.063 52.963 64.8817 52.963 58.8933V31.7862Z" fill="black"/>
</g>
<path fill-rule="evenodd" clip-rule="evenodd" d="M4.00004 27.3428C4.00004 20.5347 9.48812 15 16.2772 15H31.7229C38.512 15 44.0001 20.5347 44.0001 27.3428L44 64.6635C44 65.4909 43.7929 66.3051 43.3976 67.032L36.0897 80.4684C35.2219 82.0639 33.5511 83.0571 31.7349 83.0571H27.7135C23.8785 83.0571 21.496 78.8892 23.4419 75.5846L26.7345 69.993C27.5027 68.6883 26.5621 67.0428 25.048 67.0428H16.2771C9.48808 67.0428 4 61.5081 4 54.7L4.00004 27.3428ZM16.2772 18C11.1621 18 7.00004 22.1743 7.00004 27.3428L7 54.7C7 59.8685 11.1621 64.0428 16.2771 64.0428H25.048C28.8829 64.0428 31.2655 68.2107 29.3196 71.5153L26.027 77.1069C25.2587 78.4116 26.1994 80.0571 27.7135 80.0571H31.7349C32.452 80.0571 33.1116 79.665 33.4542 79.0351L40.7622 65.5986C40.9182 65.3116 41 64.9902 41 64.6635L41.0001 27.3428C41.0001 22.1743 36.838 18 31.7229 18H16.2772ZM47.0149 27.3428C47.0149 20.5347 52.5029 15 59.292 15H59.2977L75.7077 15.0625C75.7087 15.0625 75.7097 15.0625 75.7107 15.0625C82.4984 15.0641 87.9848 20.5982 87.9848 27.4053V64.6168C87.9848 65.515 87.7408 66.3963 87.2788 67.1665L79.1919 80.6497C78.2962 82.1432 76.6824 83.0571 74.9408 83.0571H70.7983C66.9708 83.0571 64.5873 78.9038 66.5182 75.5991L69.8479 69.9004C70.613 68.5909 69.6624 66.9464 68.1458 66.9559L59.3014 67.0115L59.292 67.0116C52.5029 67.0116 47.0149 61.4769 47.0149 54.6687V27.3428ZM59.2892 18C54.1755 18.0015 50.0149 22.1753 50.0149 27.3428V54.6687C50.0149 59.8358 54.1746 64.0092 59.2876 64.0116C59.2891 64.0116 59.2905 64.0116 59.292 64.0116L68.1269 63.956C71.9682 63.9319 74.3761 68.0972 72.4382 71.4139L69.1085 77.1126C68.3461 78.4173 69.2872 80.0571 70.7983 80.0571H74.9408C75.6284 80.0571 76.2656 79.6963 76.6192 79.1066L84.7061 65.6235C84.8885 65.3194 84.9848 64.9714 84.9848 64.6168V27.4053C84.9848 22.2368 80.8227 18.0625 75.7077 18.0625L75.702 18.0625L59.292 18C59.2911 18 59.2902 18 59.2892 18Z" fill="black"/>
</svg>
