<svg width="96" height="96" viewBox="0 0 96 96" fill="none" xmlns="http://www.w3.org/2000/svg">
<g opacity="0.2">
<path d="M10 31.7857C10 25.7974 14.6796 20.9429 20.6316 20.9429H36.7973C42.7494 20.9429 47 25.7974 47 31.7857V69.7357L38.9968 84.4345C38.4715 85.3994 37.4607 86 36.362 86H31.2243C28.9132 86 27.47 83.4965 28.6283 81.4965L35.25 70.0625H20.5C14.548 70.0625 10 64.8812 10 58.8928V31.7857Z" fill="black"/>
<path d="M52.963 31.7857C52.963 25.7974 57.7881 20.9429 63.7402 20.9429H79.9059C85.8579 20.9429 91 25.7974 91 31.7857V69.7357L82.1267 84.5421C81.5847 85.4465 80.6078 86 79.5534 86H74.3552C72.0391 86 70.5966 83.4869 71.7647 81.4869L78.4375 70.0625H63.7402C57.7881 70.0625 52.963 64.8812 52.963 58.8928V31.7857Z" fill="black"/>
</g>
<path fill-rule="evenodd" clip-rule="evenodd" d="M4 27.3428C4 20.5347 9.48809 15 16.2771 15H31.7229C38.512 15 44 20.5347 44 27.3428L44 64.6635C44 65.4909 43.7929 66.3051 43.3975 67.032L36.0896 80.4684C35.2219 82.0639 33.5511 83.0571 31.7349 83.0571H27.7134C23.8785 83.0571 21.496 78.8892 23.4418 75.5846L26.7344 69.993C27.5027 68.6883 26.562 67.0428 25.048 67.0428H16.2771C9.48805 67.0428 3.99997 61.5081 3.99997 54.7L4 27.3428ZM16.2771 18C11.1621 18 7 22.1743 7 27.3428L6.99997 54.7C6.99997 59.8685 11.1621 64.0428 16.2771 64.0428H25.048C28.8829 64.0428 31.2654 68.2107 29.3196 71.5153L26.027 77.1069C25.2587 78.4116 26.1994 80.0571 27.7134 80.0571H31.7349C32.452 80.0571 33.1116 79.665 33.4542 79.0351L40.7621 65.5986C40.9182 65.3116 41 64.9902 41 64.6635L41 27.3428C41 22.1743 36.8379 18 31.7229 18H16.2771ZM47.0148 27.3428C47.0148 20.5347 52.5029 15 59.292 15H59.2977L75.7077 15.0625C75.7087 15.0625 75.7096 15.0625 75.7106 15.0625C82.4983 15.0641 87.9848 20.5982 87.9848 27.4053V64.6168C87.9848 65.515 87.7408 66.3963 87.2788 67.1665L79.1919 80.6497C78.2961 82.1432 76.6823 83.0571 74.9408 83.0571H70.7983C66.9708 83.0571 64.5873 78.9038 66.5182 75.5991L69.8479 69.9004C70.613 68.5909 69.6623 66.9464 68.1457 66.9559L59.3014 67.0115L59.292 67.0116C52.5029 67.0116 47.0148 61.4769 47.0148 54.6687V27.3428ZM59.2892 18C54.1754 18.0015 50.0148 22.1753 50.0148 27.3428V54.6687C50.0148 59.8358 54.1745 64.0092 59.2876 64.0116C59.289 64.0116 59.2905 64.0116 59.292 64.0116L68.1269 63.956C71.9681 63.9319 74.376 68.0972 72.4381 71.4139L69.1084 77.1126C68.3461 78.4173 69.2871 80.0571 70.7983 80.0571H74.9408C75.6284 80.0571 76.2655 79.6963 76.6192 79.1066L84.7061 65.6235C84.8885 65.3194 84.9848 64.9714 84.9848 64.6168V27.4053C84.9848 22.2368 80.8227 18.0625 75.7077 18.0625L75.702 18.0625L59.292 18C59.291 18 59.2901 18 59.2892 18Z" fill="black"/>
</svg>
