<svg width="196" height="196" viewBox="0 0 196 196" fill="none" xmlns="http://www.w3.org/2000/svg">
<path opacity="0.07" fill-rule="evenodd" clip-rule="evenodd" d="M189.918 93.1987C182.736 47.0715 179.124 26.3472 167.966 20.5485C167.642 20.3801 167.323 20.2137 167.007 20.0494C150.507 11.4663 144.452 8.31628 93.2254 5.91394C49.5501 3.86575 40.908 15.4863 30.9878 28.8254C29.0498 31.4314 27.0629 34.1029 24.7566 36.751C10.6447 52.9536 -12.5366 122.886 14.3033 160.1C41.1431 197.313 104.724 194.073 133.993 182.051C163.262 170.03 197.101 139.326 189.918 93.1987ZM94 159C58.1015 159 29 129.899 29 94C29 58.1015 58.1015 29 94 29C129.899 29 159 58.1015 159 94C159 129.899 129.899 159 94 159Z" fill="black"/>
<circle opacity="0.2" cx="100.348" cy="100.348" r="63.0929" fill="black"/>
<path d="M159.568 45.7833L151.937 44.1826C150.861 43.9569 149.804 44.6544 149.576 45.7404C149.348 46.8264 150.035 47.8898 151.111 48.1155L164.045 50.8286C165.154 51.0612 166.251 50.2802 166.425 49.1675L168.37 36.7337C168.541 35.6374 167.8 34.6119 166.713 34.4433C165.627 34.2748 164.607 35.0269 164.436 36.1232L163.19 44.0883L163.14 43.9816C162.883 43.4376 162.501 42.663 161.991 41.7178C160.972 39.8296 159.435 37.2497 157.356 34.4645C153.215 28.9181 146.817 22.4196 137.935 19.0742C136.901 18.6849 135.748 19.2072 135.359 20.2409C134.97 21.2745 135.493 22.4281 136.527 22.8175C144.42 25.7904 150.254 31.6372 154.151 36.8565C156.091 39.4541 157.524 41.8622 158.471 43.6162C158.944 44.4922 159.294 45.2022 159.523 45.6876L159.568 45.7833Z" fill="black"/>
<path d="M21.9906 139.831C22.1646 138.719 23.2623 137.938 24.3707 138.17L37.3044 140.883C38.3804 141.109 39.0678 142.172 38.8397 143.259C38.6116 144.345 37.5545 145.042 36.4785 144.816L28.8481 143.216L28.8932 143.311C29.1223 143.797 29.4721 144.507 29.9448 145.383C30.8914 147.137 32.3253 149.545 34.2647 152.143C38.1615 157.362 43.9955 163.209 51.8891 166.182C52.923 166.571 53.4459 167.725 53.0571 168.758C52.6683 169.792 51.515 170.314 50.4811 169.925C41.5987 166.58 35.201 160.081 31.06 154.535C28.9805 151.749 27.4441 149.17 26.425 147.281C25.915 146.336 25.533 145.562 25.2762 145.018L25.226 144.911L23.9803 152.876C23.8089 153.972 22.7891 154.724 21.7027 154.556C20.6163 154.387 19.8745 153.362 20.046 152.265L21.9906 139.831Z" fill="black"/>
<path d="M25 34C25 32.8954 24.1046 32 23 32C21.8954 32 21 32.8954 21 34V38H17C15.8954 38 15 38.8954 15 40C15 41.1046 15.8954 42 17 42H21V46C21 47.1046 21.8954 48 23 48C24.1046 48 25 47.1046 25 46V42H29C30.1046 42 31 41.1046 31 40C31 38.8954 30.1046 38 29 38H25V34Z" fill="black"/>
<path d="M184.374 137.716L179.148 132.489L173.921 137.716L179.148 142.942L184.374 137.716Z" fill="black"/>
<path fill-rule="evenodd" clip-rule="evenodd" d="M152.771 179.885L143.885 171L135 179.885L143.885 188.771L152.771 179.885ZM143.885 182.847L140.924 179.885L143.885 176.924L146.847 179.885L143.885 182.847Z" fill="black"/>
<path d="M95.9999 54.5C95.9999 53.3954 95.1044 52.5 93.9999 52.5C92.8953 52.5 91.9999 53.3954 91.9999 54.5V98.1067L123.103 117.605C124.039 118.191 125.273 117.908 125.86 116.972C126.446 116.036 126.163 114.802 125.227 114.215L95.9999 95.8933V54.5Z" fill="black"/>
<path fill-rule="evenodd" clip-rule="evenodd" d="M159 94C159 129.899 129.899 159 94 159C58.1015 159 29 129.899 29 94C29 58.1015 58.1015 29 94 29C129.899 29 159 58.1015 159 94ZM155 94C155 60.3106 127.689 33 94 33C60.3106 33 33 60.3106 33 94C33 127.689 60.3106 155 94 155C127.689 155 155 127.689 155 94Z" fill="black"/>
</svg>
