<svg width="48" height="48" viewBox="0 0 48 48" fill="none" xmlns="http://www.w3.org/2000/svg">
<circle opacity="0.2" cx="25.5" cy="27.5" r="17.5" fill="black"/>
<path d="M41.2753 10.0133L39.651 9.56675C39.1131 9.41885 38.5587 9.72602 38.4127 10.2528C38.2667 10.7796 38.5844 11.3266 39.1222 11.4745L43.005 12.5421C43.2932 12.6213 43.6012 12.5715 43.8462 12.406C44.0913 12.2405 44.2481 11.9763 44.2746 11.6846L44.6145 7.94071C44.6639 7.39613 44.2539 6.91151 43.6988 6.85828C43.1436 6.80505 42.6535 7.20336 42.6041 7.74793L42.5504 8.33871C42.3488 8.0583 42.1238 7.7627 41.8753 7.45895C40.5221 5.80534 38.4263 3.8595 35.5151 2.85476C34.9932 2.67464 34.4236 2.95184 34.2428 3.47391C34.0621 3.99598 34.3387 4.56522 34.8605 4.74534C37.3017 5.58784 39.1119 7.24198 40.3268 8.72654C40.704 9.1875 41.0198 9.62723 41.2753 10.0133Z" fill="black"/>
<path d="M24 14C24 13.4477 23.5523 13 23 13C22.4477 13 22 13.4477 22 14V26.6226L30.4749 31.8511C30.945 32.141 31.5611 31.9951 31.8511 31.5251C32.141 31.055 31.9951 30.4389 31.5251 30.1489L24 25.5065V14Z" fill="black"/>
<path fill-rule="evenodd" clip-rule="evenodd" d="M23.5 6C13.2827 6 5 14.2827 5 24.5C5 34.7173 13.2827 43 23.5 43C33.7173 43 42 34.7173 42 24.5C42 14.2827 33.7173 6 23.5 6ZM7 24.5C7 15.3873 14.3873 8 23.5 8C32.6127 8 40 15.3873 40 24.5C40 33.6127 32.6127 41 23.5 41C14.3873 41 7 33.6127 7 24.5Z" fill="black"/>
<path d="M4.15375 36.5941C3.90873 36.7596 3.75188 37.0237 3.72539 37.3155L3.38551 41.0594C3.33607 41.6039 3.74604 42.0886 4.30119 42.1418C4.85635 42.195 5.34647 41.7967 5.39591 41.2521L5.44954 40.6614C5.65123 40.9418 5.87615 41.2374 6.12471 41.5411C7.47788 43.1947 9.5737 45.1406 12.4849 46.1453C13.0068 46.3254 13.5764 46.0482 13.7571 45.5262C13.9379 45.0041 13.6613 44.4349 13.1394 44.2547C10.6983 43.4122 8.88803 41.7581 7.6732 40.2735C7.29599 39.8126 6.98023 39.3728 6.7247 38.9867L8.34897 39.4333C8.88686 39.5812 9.44127 39.2741 9.58728 38.7473C9.7333 38.2204 9.41562 37.6735 8.87774 37.5256L4.99497 36.458C4.70679 36.3788 4.39876 36.4286 4.15375 36.5941Z" fill="black"/>
</svg>
