<svg width="96" height="96" viewBox="0 0 96 96" fill="none" xmlns="http://www.w3.org/2000/svg">
<path fill-rule="evenodd" clip-rule="evenodd" d="M70.6713 13.1901C70.9917 12.4666 71.7087 12 72.5 12H85C86.1046 12 87 12.8954 87 14C87 15.1046 86.1046 16 85 16H73.8016L63.2573 39.8099C62.9368 40.5334 62.2199 41 61.4286 41H45.5279L39.6499 52.8865C39.3127 53.5684 38.6179 54 37.8571 54H23.778L11.8149 79.8402C11.3509 80.8426 10.1621 81.279 9.15975 80.8149C8.15739 80.3509 7.721 79.1621 8.18506 78.1598L20.6851 51.1598C21.0124 50.4526 21.7207 50 22.5 50H36.615L42.4929 38.1135C42.8301 37.4316 43.525 37 44.2857 37H60.1269L70.6713 13.1901Z" fill="black"/>
<g opacity="0.2">
<path d="M75.6694 20.1945C75.9888 19.4686 76.7069 19 77.5 19H83.5C84.6046 19 85.5 19.8954 85.5 21C85.5 22.1046 84.6046 23 83.5 23H78.805L68.3306 46.8055C68.0112 47.5314 67.2931 48 66.5 48H50.3255L45.3419 59.7793C45.0289 60.5192 44.3034 61 43.5 61H28.2775L19.3146 80.3409C18.8502 81.3431 17.6613 81.779 16.6591 81.3146C15.6569 80.8502 15.2209 79.6613 15.6854 78.6591L25.1854 58.1591C25.5129 57.4523 26.221 57 27 57H42.1745L47.1581 45.2207C47.4711 44.4808 48.1966 44 49 44H65.195L75.6694 20.1945Z" fill="black"/>
<path d="M56 25C56 26.1046 55.1046 27 54 27H13C11.8954 27 11 26.1046 11 25C11 23.8954 11.8954 23 13 23H54C55.1046 23 56 23.8954 56 25Z" fill="black"/>
<path d="M33 37C34.1046 37 35 36.1046 35 35C35 33.8954 34.1046 33 33 33H13C11.8954 33 11 33.8954 11 35C11 36.1046 11.8954 37 13 37H33Z" fill="black"/>
<path d="M35 69C35 67.8954 35.8954 67 37 67L81 67C82.1046 67 83 67.8954 83 69C83 70.1046 82.1046 71 81 71L37 71C35.8954 71 35 70.1046 35 69Z" fill="black"/>
<path d="M58 57C56.8954 57 56 57.8954 56 59C56 60.1046 56.8954 61 58 61L81 61C82.1046 61 83 60.1046 83 59C83 57.8954 82.1046 57 81 57L58 57Z" fill="black"/>
<path d="M73 49C73 47.8954 73.8954 47 75 47H81C82.1046 47 83 47.8954 83 49C83 50.1046 82.1046 51 81 51H75C73.8954 51 73 50.1046 73 49Z" fill="black"/>
<path d="M13 43C11.8954 43 11 43.8954 11 45C11 46.1046 11.8954 47 13 47H19C20.1046 47 21 46.1046 21 45C21 43.8954 20.1046 43 19 43H13Z" fill="black"/>
</g>
</svg>
