<svg width="48" height="48" viewBox="0 0 48 48" fill="none" xmlns="http://www.w3.org/2000/svg">
<g opacity="0.2">
<path d="M32 9C32 9.55228 31.5523 10 31 10H6C5.44772 10 5 9.55228 5 9C5 8.44772 5.44772 8 6 8H31C31.5523 8 32 8.44772 32 9Z" fill="black"/>
<path d="M36.2482 10.6045C36.4061 10.2377 36.7673 10 37.1667 10H41C41.5523 10 42 10.4477 42 11C42 11.5523 41.5523 12 41 12H37.8249L32.9185 23.3955C32.7605 23.7623 32.3994 24 32 24H24.618L21.8944 29.4472C21.725 29.786 21.3788 30 21 30H14.4899L10.4176 39.3976C10.198 39.9044 9.60915 40.1371 9.1024 39.9176C8.59565 39.698 8.36286 39.1091 8.58245 38.6024L12.9158 28.6024C13.0743 28.2367 13.4348 28 13.8333 28H20.382L23.1056 22.5528C23.275 22.214 23.6212 22 24 22H31.3418L36.2482 10.6045Z" fill="black"/>
<path d="M42 16C42.5523 16 43 15.5523 43 15C43 14.4477 42.5523 14 42 14H40C39.4477 14 39 14.4477 39 15C39 15.5523 39.4477 16 40 16H42Z" fill="black"/>
<path d="M18 21C18 21.5523 17.5523 22 17 22H6C5.44771 22 5 21.5523 5 21C5 20.4477 5.44771 20 6 20H17C17.5523 20 18 20.4477 18 21Z" fill="black"/>
<path d="M42 22C42.5523 22 43 21.5523 43 21C43 20.4477 42.5523 20 42 20H38C37.4477 20 37 20.4477 37 21C37 21.5523 37.4477 22 38 22H42Z" fill="black"/>
<path d="M43 33C43 33.5523 42.5523 34 42 34H17C16.4477 34 16 33.5523 16 33C16 32.4477 16.4477 32 17 32H42C42.5523 32 43 32.4477 43 33Z" fill="black"/>
<path d="M8 28C8.55228 28 9 27.5523 9 27C9 26.4477 8.55228 26 8 26H6C5.44772 26 5 26.4477 5 27C5 27.5523 5.44772 28 6 28H8Z" fill="black"/>
</g>
<path d="M36.1667 8C35.7672 8 35.4061 8.23768 35.2482 8.60454L30.3418 20H23C22.6212 20 22.275 20.214 22.1056 20.5528L19.382 26H12.8333C12.4448 26 12.0914 26.225 11.9271 26.5771L6.09381 39.0771C5.86026 39.5776 6.07664 40.1726 6.57711 40.4062C7.07758 40.6397 7.67262 40.4234 7.90618 39.9229L13.4702 28H20C20.3788 28 20.725 27.786 20.8944 27.4472L23.618 22H31C31.3994 22 31.7605 21.7623 31.9185 21.3955L36.8249 10H42C42.5523 10 43 9.55228 43 9C43 8.44772 42.5523 8 42 8H36.1667Z" fill="black"/>
<path d="M27 16C27.5523 16 28 15.5523 28 15C28 14.4477 27.5523 14 27 14H6C5.44772 14 5 14.4477 5 15C5 15.5523 5.44772 16 6 16H27Z" fill="black"/>
<path d="M43 27C43 27.5523 42.5523 28 42 28H28C27.4477 28 27 27.5523 27 27C27 26.4477 27.4477 26 28 26H42C42.5523 26 43 26.4477 43 27Z" fill="black"/>
<path d="M42 40C42.5523 40 43 39.5523 43 39C43 38.4477 42.5523 38 42 38H14C13.4477 38 13 38.4477 13 39C13 39.5523 13.4477 40 14 40H42Z" fill="black"/>
</svg>
