<svg width="196" height="196" viewBox="0 0 196 196" fill="none" xmlns="http://www.w3.org/2000/svg">
<path opacity="0.07" d="M36.9998 155C-13.1522 113.333 14.3979 73.6864 36.9997 42C62.1888 6.68634 114.5 7.00006 152.5 38.5001C189.337 75.3371 200.908 91.5732 160.932 150C134.54 188.573 75.9998 187.402 36.9998 155Z" fill="black"/>
<g opacity="0.2">
<path d="M125 38C125 39.1046 124.105 40 123 40H75C73.8954 40 73 39.1046 73 38C73 36.8954 73.8954 36 75 36H123C124.105 36 125 36.8954 125 38Z" fill="black"/>
<path d="M156.781 50.6586C157.797 51.0897 158.272 52.2636 157.841 53.2806L151.182 68.99C150.751 70.007 149.577 70.4819 148.56 70.0508C147.543 69.6198 147.068 68.4459 147.5 67.4289L154.159 51.7195C154.59 50.7025 155.764 50.2275 156.781 50.6586Z" fill="black"/>
<path d="M101.713 87.102C102.052 86.4264 102.744 86 103.5 86H122.091C123.196 86 124.091 86.8955 124.091 88C124.091 89.1046 123.196 90 122.091 90H104.733L98.537 102.331C98.0411 103.318 96.8389 103.716 95.852 103.22C94.865 102.724 94.467 101.522 94.9629 100.535L101.713 87.102Z" fill="black"/>
<path d="M54.4499 115.129C54.784 114.438 55.4833 114 56.25 114H73.125C74.2296 114 75.125 114.895 75.125 116C75.125 117.105 74.2296 118 73.125 118H57.5038L42.8001 148.372C42.3188 149.366 41.1227 149.781 40.1285 149.3C39.1343 148.819 38.7185 147.623 39.1998 146.629L54.4499 115.129Z" fill="black"/>
<path d="M71 79C72.1046 79 73 78.1046 73 77C73 75.8954 72.1046 75 71 75H41C39.8954 75 39 75.8954 39 77C39 78.1046 39.8954 79 41 79H71Z" fill="black"/>
<path d="M80 56C80 57.1046 79.1046 58 78 58H56C54.8954 58 54 57.1046 54 56C54 54.8954 54.8954 54 56 54H78C79.1046 54 80 54.8954 80 56Z" fill="black"/>
<path d="M93 54C91.8954 54 91 54.8954 91 56C91 57.1046 91.8954 58 93 58L105 58C106.105 58 107 57.1046 107 56C107 54.8954 106.105 54 105 54L93 54Z" fill="black"/>
<path d="M73 151C73 149.895 73.8954 149 75 149L123 149C124.105 149 125 149.895 125 151C125 152.105 124.105 153 123 153L75 153C73.8954 153 73 152.105 73 151Z" fill="black"/>
<path d="M127 110C125.895 110 125 110.895 125 112C125 113.105 125.895 114 127 114H157C158.105 114 159 113.105 159 112C159 110.895 158.105 110 157 110H127Z" fill="black"/>
<path d="M118 130C118 128.895 118.895 128 120 128H142C143.105 128 144 128.895 144 130C144 131.105 143.105 132 142 132H120C118.895 132 118 131.105 118 130Z" fill="black"/>
<path d="M105 132C106.105 132 107 131.105 107 130C107 128.895 106.105 128 105 128H93C91.8954 128 91 128.895 91 130C91 131.105 91.8954 132 93 132H105Z" fill="black"/>
</g>
<path d="M156 37.5C156 40.4043 153.749 42.7828 150.896 42.9859L137.563 73.7927C138.456 74.7704 139 76.0716 139 77.5C139 80.5376 136.538 83 133.5 83C131.363 83 129.51 81.7808 128.6 80H100.4C99.4899 81.7808 97.6373 83 95.5 83C95.3498 83 95.201 82.994 95.0539 82.9822L85.7491 101.008C86.5307 101.957 87 103.174 87 104.5C87 107.538 84.5376 110 81.5 110C79.3627 110 77.5101 108.781 76.5997 107H54.4003C53.4899 108.781 51.6373 110 49.5 110C49.3602 110 49.2217 109.995 49.0845 109.985L33.5214 142.748C34.4387 143.731 35 145.05 35 146.5C35 149.538 32.5376 152 29.5 152C26.4624 152 24 149.538 24 146.5C24 143.462 26.4624 141 29.5 141C29.64 141 29.7787 141.005 29.916 141.015L45.4789 108.252C44.5615 107.27 44 105.95 44 104.5C44 101.462 46.4624 99 49.5 99C52.0176 99 54.1401 100.692 54.793 103H76.207C76.8599 100.692 78.9824 99 81.5 99C81.7569 99 82.0097 99.0176 82.2573 99.0517L91.4573 81.2292C90.5527 80.249 90 78.939 90 77.5C90 74.4624 92.4624 72 95.5 72C98.0176 72 100.14 73.6915 100.793 76H128.207C128.86 73.6915 130.982 72 133.5 72C133.659 72 133.816 72.0067 133.971 72.0199L147.056 41.7885C145.802 40.7804 145 39.2339 145 37.5C145 34.4624 147.462 32 150.5 32C153.538 32 156 34.4624 156 37.5Z" fill="black"/>
<path d="M40.2426 35L44.4853 39.2426L40.2426 43.4853L36 39.2426L40.2426 35Z" fill="black"/>
<path d="M71.4853 137.243L67.2426 133L63 137.243L67.2426 141.485L71.4853 137.243Z" fill="black"/>
<path d="M167.243 83L171.485 87.2426L167.243 91.4853L163 87.2426L167.243 83Z" fill="black"/>
</svg>
