<svg width="96" height="96" viewBox="0 0 96 96" fill="none" xmlns="http://www.w3.org/2000/svg">
<g opacity="0.2">
<path d="M78.1936 14.3616C78.0814 13.5132 78.6505 12.7479 79.4712 12.5057C82.0075 11.7571 84.5871 11.2023 87.1296 11.0055C88.2156 10.9214 89.1062 11.8117 89.0218 12.8977C88.8195 15.5005 88.2398 18.0896 87.475 20.6952C87.2542 21.4473 86.5932 22.007 85.8099 21.9775C81.5432 21.8164 78.7306 18.4239 78.1936 14.3616Z" fill="black"/>
<path d="M34.5457 77.7732L38.0998 74.9299L28.0998 63.9299L24.7403 66.6176C23.8515 67.3286 23.7473 68.6422 24.513 69.4844L31.8543 77.5598C32.5545 78.3301 33.7328 78.4235 34.5457 77.7732Z" fill="black"/>
<path d="M70.0998 37.9299C73.9658 37.9299 77.0998 34.7959 77.0998 30.9299C77.0998 27.0639 73.9658 23.9299 70.0998 23.9299C66.2338 23.9299 63.0998 27.0639 63.0998 30.9299C63.0998 34.7959 66.2338 37.9299 70.0998 37.9299Z" fill="black"/>
<path d="M63.0998 44.9299C63.0998 48.7959 59.9658 51.9299 56.0998 51.9299C52.2338 51.9299 49.0998 48.7959 49.0998 44.9299C49.0998 41.0639 52.2338 37.9299 56.0998 37.9299C59.9658 37.9299 63.0998 41.0639 63.0998 44.9299Z" fill="black"/>
</g>
<path fill-rule="evenodd" clip-rule="evenodd" d="M61.8435 53.04C62.65 53.2297 63.1499 54.0372 62.9601 54.8437L59.0993 71.2521C58.9396 71.9307 58.5795 72.5454 58.0656 73.0164L49.8186 80.5762C47.5915 82.6178 44 81.0379 44 78.0166V67.5001C44 66.6717 44.6716 66.0001 45.5 66.0001C46.3284 66.0001 47 66.6717 47 67.5001V78.0166C47 78.4276 47.4885 78.6425 47.7914 78.3648L56.0385 70.805C56.1083 70.7409 56.1573 70.6573 56.179 70.565L60.0399 54.1565C60.2296 53.3501 61.0371 52.8502 61.8435 53.04Z" fill="black"/>
<path fill-rule="evenodd" clip-rule="evenodd" d="M41.9506 34.1184C42.1614 34.9195 41.6829 35.7399 40.8817 35.9507L22.5615 40.7718C22.4562 40.7995 22.3637 40.8628 22.2997 40.9508L16.9912 48.25C16.7641 48.5622 16.9871 49.0001 17.3731 49.0001H28.5C29.3284 49.0001 30 49.6717 30 50.5001C30 51.3285 29.3284 52.0001 28.5 52.0001H17.3731C14.5353 52.0001 12.8958 48.7806 14.5649 46.4855L19.8735 39.1863C20.3442 38.539 21.024 38.0743 21.798 37.8706L40.1183 33.0495C40.9194 32.8387 41.7398 33.3172 41.9506 34.1184Z" fill="black"/>
<path fill-rule="evenodd" clip-rule="evenodd" d="M68.5 31.5001C70.7091 31.5001 72.5 29.7092 72.5 27.5001C72.5 25.291 70.7091 23.5001 68.5 23.5001C66.2909 23.5001 64.5 25.291 64.5 27.5001C64.5 29.7092 66.2909 31.5001 68.5 31.5001ZM75.5 27.5001C75.5 31.3661 72.366 34.5001 68.5 34.5001C64.634 34.5001 61.5 31.3661 61.5 27.5001C61.5 23.6341 64.634 20.5001 68.5 20.5001C72.366 20.5001 75.5 23.6341 75.5 27.5001Z" fill="black"/>
<path fill-rule="evenodd" clip-rule="evenodd" d="M54.5 45.5001C56.7091 45.5001 58.5 43.7092 58.5 41.5001C58.5 39.291 56.7091 37.5001 54.5 37.5001C52.2909 37.5001 50.5 39.291 50.5 41.5001C50.5 43.7092 52.2909 45.5001 54.5 45.5001ZM61.5 41.5001C61.5 45.3661 58.366 48.5001 54.5 48.5001C50.634 48.5001 47.5 45.3661 47.5 41.5001C47.5 37.6341 50.634 34.5001 54.5 34.5001C58.366 34.5001 61.5 37.6341 61.5 41.5001Z" fill="black"/>
<path fill-rule="evenodd" clip-rule="evenodd" d="M27.5607 58.4394C28.1464 59.0252 28.1464 59.975 27.5607 60.5608L24.8904 63.231C24.7122 63.4092 24.7054 63.6961 24.8749 63.8826L32.3644 72.121C32.532 72.3054 32.8142 72.3278 33.0089 72.1721L36.563 69.3288C37.2099 68.8113 38.1538 68.9162 38.6713 69.563C39.1888 70.2099 39.0839 71.1539 38.437 71.6714L34.8829 74.5147C33.4518 75.6596 31.3774 75.4951 30.1445 74.139L22.6551 65.9006C21.4083 64.5292 21.4585 62.4203 22.7691 61.1096L25.4393 58.4394C26.0251 57.8536 26.9749 57.8536 27.5607 58.4394Z" fill="black"/>
<path fill-rule="evenodd" clip-rule="evenodd" d="M76.5 7.99765C77.3284 7.99765 78 8.66922 78 9.49765C78 11.457 78.9933 13.3196 80.619 14.7295C82.248 16.1423 84.4054 17.0001 86.5 17.0001C87.3284 17.0001 88 17.6717 88 18.5001C88 19.3285 87.3284 20.0001 86.5 20.0001C83.6244 20.0001 80.7818 18.8418 78.6534 16.9959C76.5217 15.1471 75 12.5084 75 9.49765C75 8.66922 75.6716 7.99765 76.5 7.99765Z" fill="black"/>
<path fill-rule="evenodd" clip-rule="evenodd" d="M14.0607 81.9394C14.6464 82.5252 14.6464 83.475 14.0607 84.0608L7.06066 91.0608C6.47487 91.6465 5.52513 91.6465 4.93934 91.0608C4.35355 90.475 4.35355 89.5252 4.93934 88.9394L11.9393 81.9394C12.5251 81.3537 13.4749 81.3537 14.0607 81.9394Z" fill="black"/>
<path fill-rule="evenodd" clip-rule="evenodd" d="M23.0607 72.9394C23.6464 73.5252 23.6464 74.475 23.0607 75.0608L18.0607 80.0608C17.4749 80.6465 16.5251 80.6465 15.9393 80.0608C15.3536 79.475 15.3536 78.5252 15.9393 77.9394L20.9393 72.9394C21.5251 72.3537 22.4749 72.3537 23.0607 72.9394Z" fill="black"/>
<path fill-rule="evenodd" clip-rule="evenodd" d="M16.0607 70.9394C16.6464 71.5252 16.6464 72.475 16.0607 73.0608L9.06066 80.0608C8.47487 80.6465 7.52513 80.6465 6.93934 80.0608C6.35355 79.475 6.35355 78.5252 6.93934 77.9394L13.9393 70.9394C14.5251 70.3537 15.4749 70.3537 16.0607 70.9394Z" fill="black"/>
<path fill-rule="evenodd" clip-rule="evenodd" d="M25.0607 80.9394C25.6464 81.5252 25.6464 82.475 25.0607 83.0608L20.0607 88.0608C19.4749 88.6465 18.5251 88.6465 17.9393 88.0608C17.3536 87.475 17.3536 86.5252 17.9393 85.9394L22.9393 80.9394C23.5251 80.3537 24.4749 80.3537 25.0607 80.9394Z" fill="black"/>
<path fill-rule="evenodd" clip-rule="evenodd" d="M87.9469 8.38958C87.9578 8.19555 87.8049 8.04162 87.6093 8.05239C73.0391 8.85488 59.0563 18.7837 47.9615 29.7384C36.9187 40.6418 29.0027 52.2944 26.5616 56.0545C26.4649 56.2034 26.4715 56.4141 26.6207 56.5739L38.5084 69.3107C38.6703 69.4842 38.887 69.4939 39.038 69.3979C42.9411 66.9165 54.8162 59.0082 65.9091 47.9829C77.0557 36.9043 87.1327 22.9517 87.9469 8.38958ZM87.4443 5.05693C89.424 4.9479 91.053 6.57597 90.9423 8.55706C90.0628 24.2852 79.2829 38.9204 68.0239 50.1107C56.7113 61.3544 44.6323 69.3962 40.6476 71.9296C39.2286 72.8316 37.4227 72.5442 36.3152 71.3577L24.4276 58.6209C23.3665 57.484 23.1762 55.7596 24.0454 54.4209C26.5396 50.5789 34.591 38.7242 45.8537 27.6036C57.0646 16.5343 71.7258 5.92267 87.4443 5.05693Z" fill="black"/>
<path fill-rule="evenodd" clip-rule="evenodd" d="M44.5607 51.4394C45.1464 52.0252 45.1464 52.975 44.5607 53.5608L26.5607 71.5608C25.9749 72.1465 25.0251 72.1465 24.4393 71.5608C23.8536 70.975 23.8536 70.0252 24.4393 69.4394L42.4393 51.4394C43.0251 50.8536 43.9749 50.8536 44.5607 51.4394Z" fill="black"/>
</svg>
