<svg width="48" height="48" viewBox="0 0 48 48" fill="none" xmlns="http://www.w3.org/2000/svg">
<g opacity="0.2">
<path d="M40 5.72433C40 5.29 40.2797 4.90309 40.6973 4.7837C42.1186 4.37734 43.5748 4.1151 45.0006 4.03001C45.552 3.99712 46.0028 4.44789 45.9703 4.99921C45.8849 6.44877 45.6176 7.89832 45.203 9.34788C45.0938 9.7297 44.7588 10.0122 44.362 9.99629C42.1296 9.90691 40.2451 8.12217 40 5.81016V5.72433Z" fill="black"/>
<path d="M18.78 38.3279L20 37.1079L15 32.4998L13.8164 33.7426C13.4283 34.1501 13.4528 34.7974 13.8705 35.1745L17.4028 38.3631C17.798 38.7199 18.4035 38.7044 18.78 38.3279Z" fill="black"/>
<path d="M36 16.8567C37.6568 16.8567 39 15.5136 39 13.8567C39 12.1999 37.6568 10.8567 36 10.8567C34.3431 10.8567 33 12.1999 33 13.8567C33 15.5136 34.3431 16.8567 36 16.8567Z" fill="black"/>
<path d="M32 20.9998C32 22.6567 30.6568 23.9998 29 23.9998C27.3431 23.9998 26 22.6567 26 20.9998C26 19.343 27.3431 17.9998 29 17.9998C30.6568 17.9998 32 19.343 32 20.9998Z" fill="black"/>
</g>
<path fill-rule="evenodd" clip-rule="evenodd" d="M38 13C38 14.6569 36.6569 16 35 16C33.3431 16 32 14.6569 32 13C32 11.3431 33.3431 10 35 10C36.6569 10 38 11.3431 38 13ZM35 14C35.5523 14 36 13.5523 36 13C36 12.4477 35.5523 12 35 12C34.4477 12 34 12.4477 34 13C34 13.5523 34.4477 14 35 14Z" fill="black"/>
<path fill-rule="evenodd" clip-rule="evenodd" d="M28 23C29.6569 23 31 21.6569 31 20C31 18.3431 29.6569 17 28 17C26.3431 17 25 18.3431 25 20C25 21.6569 26.3431 23 28 23ZM29 20C29 20.5523 28.5523 21 28 21C27.4477 21 27 20.5523 27 20C27 19.4477 27.4477 19 28 19C28.5523 19 29 19.4477 29 20Z" fill="black"/>
<path fill-rule="evenodd" clip-rule="evenodd" d="M14.0198 36.524L15.1312 37.5793C15.9029 38.312 17.1179 38.2963 17.8704 37.5438L19.8266 35.5876C20.3996 35.8337 21.0761 35.7992 21.6363 35.4388C21.9754 35.2206 22.4377 34.9178 22.9999 34.5365L23 38.0751C23 39.6959 24.9524 40.6082 26.2453 39.6306L29.9646 36.8184C30.3004 36.5646 30.5456 36.2095 30.6642 35.8056L33.4597 26.2814C33.4687 26.2506 33.4762 26.2196 33.4822 26.1887C34.1179 25.5944 34.7551 24.9783 35.3876 24.342C41.0596 18.6359 46.5428 11.1221 46.9729 3.01618C47.0326 1.89211 46.1082 0.967175 44.9835 1.02718C36.8967 1.45864 29.3854 6.94551 23.6767 12.6205C23.045 13.2484 22.4332 13.881 21.8428 14.5121C21.7918 14.5203 21.7407 14.5325 21.6901 14.549L12.1785 17.6499C11.8121 17.7694 11.4889 17.9941 11.2494 18.296L8.45535 21.8172C7.43466 23.1035 8.35071 24.9998 9.99279 24.9998H13.48C13.0922 25.5702 12.7847 26.039 12.5635 26.3821C12.0637 27.1577 12.1892 28.1561 12.8185 28.7945L10.895 30.9076C10.1762 31.6972 10.2206 32.9167 10.995 33.652L12.4129 34.9982L12.1787 35.2571C11.7682 35.7107 11.8033 36.4112 12.2569 36.8216C12.7105 37.232 13.4109 37.197 13.8214 36.7434L14.0198 36.524ZM44.9689 3.03123C43.6213 3.11258 42.2826 3.35061 40.9602 3.71992C40.9861 3.80879 41 3.90277 41 4C41 5.69772 42.3023 7 44 7C44.0984 7 44.1935 7.01423 44.2834 7.04073C44.651 5.71853 44.888 4.37964 44.9689 3.03123ZM25.0868 14.0389C29.1372 10.0124 33.9234 6.2833 39.0122 4.36066C39.1836 6.87162 41.1336 8.81974 43.6455 8.98817C41.7257 14.0896 37.996 18.8811 33.9692 22.932C28.4508 28.4835 22.552 32.4687 20.5985 33.7283L18.4698 31.6056L23.3214 26.2434C23.7318 25.7897 23.6968 25.0893 23.2431 24.6789C22.7895 24.2685 22.0891 24.3035 21.6787 24.7571L16.8993 30.0395L14.2734 27.4209C15.5375 25.4639 19.5319 19.561 25.0868 14.0389ZM15.5559 31.5243L14.2362 30.2083L12.3987 32.2268L13.7551 33.5147L15.5559 31.5243ZM15.362 35.0405L17.1264 33.0904L18.3126 34.2732L16.4819 36.1039L15.362 35.0405ZM24.9999 33.1367C26.6084 31.9767 28.5762 30.4766 30.6658 28.6986L28.7486 35.2305L25 38L24.9999 33.1367ZM19.2208 17.4576C17.4881 19.5001 16.0223 21.4217 14.8824 22.9998H10.0701L12.8091 19.548L19.2208 17.4576Z" fill="black"/>
<path d="M6.70711 42.2929C7.09763 42.6834 7.09763 43.3166 6.70711 43.7071L2.70711 47.7071C2.31658 48.0976 1.68342 48.0976 1.29289 47.7071C0.902369 47.3166 0.902369 46.6834 1.29289 46.2929L5.29289 42.2929C5.68342 41.9024 6.31658 41.9024 6.70711 42.2929Z" fill="black"/>
<path d="M11.7071 38.7071C12.0976 38.3166 12.0976 37.6834 11.7071 37.2929C11.3166 36.9024 10.6834 36.9024 10.2929 37.2929L8.29289 39.2929C7.90237 39.6834 7.90237 40.3166 8.29289 40.7071C8.68342 41.0976 9.31658 41.0976 9.70711 40.7071L11.7071 38.7071Z" fill="black"/>
<path d="M6.70711 36.2929C7.09763 36.6834 7.09763 37.3166 6.70711 37.7071L2.70711 41.7071C2.31658 42.0976 1.68342 42.0976 1.29289 41.7071C0.902369 41.3166 0.902369 40.6834 1.29289 40.2929L5.29289 36.2929C5.68342 35.9024 6.31658 35.9024 6.70711 36.2929Z" fill="black"/>
<path d="M12.7071 43.7071C13.0976 43.3166 13.0976 42.6834 12.7071 42.2929C12.3166 41.9024 11.6834 41.9024 11.2929 42.2929L8.29289 45.2929C7.90237 45.6834 7.90237 46.3166 8.29289 46.7071C8.68342 47.0976 9.31658 47.0976 9.70711 46.7071L12.7071 43.7071Z" fill="black"/>
</svg>
