<svg width="196" height="196" viewBox="0 0 196 196" fill="none" xmlns="http://www.w3.org/2000/svg">
<path opacity="0.07" fill-rule="evenodd" clip-rule="evenodd" d="M12.9714 115.179C27.1725 157.52 33.9153 176.481 45.3709 180.152C45.7035 180.259 46.0319 180.364 46.3563 180.468C63.297 185.905 69.5141 187.9 118.207 181.916C159.722 176.815 166.001 164.465 173.207 150.289C174.615 147.519 176.058 144.68 177.807 141.811C188.505 124.26 199.103 54.5817 167.801 23.8119C136.498 -6.95786 79.1604 11.0062 53.4958 27.0554C27.8312 43.1046 -1.22979 72.8382 12.9714 115.179ZM89.2562 133.395C88.0548 134.171 86.4969 133.978 85.4856 132.967L83.4483 130.93L79.8341 134.544C78.6318 135.746 76.6852 135.756 75.4716 134.564L64.2214 123.523C63.0128 122.336 62.9801 120.4 64.1481 119.173L67.8279 115.309L65.788 113.27C64.7781 112.26 64.5853 110.703 65.3581 109.502C67.0358 106.894 70.3003 101.979 74.8627 95.8371L70.5 100.991H53.8127C51.2011 100.991 49.7603 97.9589 51.4099 95.9342L60.2916 85.0324C60.687 84.5471 61.22 84.1929 61.8206 84.0164L91.7963 75.2072C110.187 55.0034 135.92 33.6096 163.368 32.0867C165.077 31.9919 166.477 33.3921 166.383 35.1013C164.816 63.7389 141.914 90.4514 121.144 108.987L114.425 137.051C114.267 137.711 113.897 138.3 113.372 138.729L103.116 147.107C101.092 148.76 98.0564 147.32 98.0564 144.707L98.0564 129L107.403 120.429C99.1997 126.814 92.4733 131.317 89.2562 133.395Z" fill="black"/>
<g opacity="0.2">
<path d="M149.491 43.1488C149.491 41.8041 150.356 40.6053 151.649 40.2372C155.647 39.0992 159.739 38.3576 163.75 38.1007C165.458 37.9913 166.856 39.3891 166.75 41.0974C166.493 45.2026 165.738 49.3078 164.577 53.413C164.242 54.5983 163.203 55.4777 161.973 55.4149C155.575 55.0884 150.195 49.9292 149.491 43.2596V43.1488Z" fill="black"/>
<path d="M80.7916 140.255L84.4058 136.641L68.7854 121.021L65.1055 124.885C63.9376 126.111 63.9703 128.048 65.1789 129.234L76.4291 140.276C77.6427 141.467 79.5893 141.458 80.7916 140.255Z" fill="black"/>
<path d="M134.749 79.5814C140.685 79.5814 145.497 74.7696 145.497 68.834C145.497 62.8984 140.685 58.0866 134.749 58.0866C128.814 58.0866 124.002 62.8984 124.002 68.834C124.002 74.7696 128.814 79.5814 134.749 79.5814Z" fill="black"/>
<path d="M123.497 90.834C123.497 96.7696 118.685 101.581 112.749 101.581C106.814 101.581 102.002 96.7696 102.002 90.834C102.002 84.8984 106.814 80.0866 112.749 80.0866C118.685 80.0866 123.497 84.8984 123.497 90.834Z" fill="black"/>
</g>
<path fill-rule="evenodd" clip-rule="evenodd" d="M81.5 10L90 18.5L81.5 27L73 18.5L81.5 10ZM78.6667 18.5L81.5 21.3333L84.3333 18.5L81.5 15.6667L78.6667 18.5Z" fill="black"/>
<path fill-rule="evenodd" clip-rule="evenodd" d="M133.176 75.4948C139.112 75.4948 143.923 70.683 143.923 64.7474C143.923 58.8118 139.112 54 133.176 54C127.24 54 122.429 58.8118 122.429 64.7474C122.429 70.683 127.24 75.4948 133.176 75.4948ZM139.923 64.7474C139.923 68.4739 136.902 71.4948 133.176 71.4948C129.45 71.4948 126.429 68.4739 126.429 64.7474C126.429 61.0209 129.45 58 133.176 58C136.902 58 139.923 61.0209 139.923 64.7474Z" fill="black"/>
<path fill-rule="evenodd" clip-rule="evenodd" d="M121.923 86.7474C121.923 92.683 117.112 97.4948 111.176 97.4948C105.24 97.4948 100.429 92.683 100.429 86.7474C100.429 80.8118 105.24 76 111.176 76C117.112 76 121.923 80.8118 121.923 86.7474ZM111.176 93.4948C114.902 93.4948 117.923 90.4739 117.923 86.7474C117.923 83.0209 114.902 80 111.176 80C107.45 80 104.429 83.0209 104.429 86.7474C104.429 90.4739 107.45 93.4948 111.176 93.4948Z" fill="black"/>
<path fill-rule="evenodd" clip-rule="evenodd" d="M91.059 73.0492C91.0123 73.0598 90.9657 73.0721 90.9192 73.0862L61.223 82.0985C60.2522 82.3932 59.3913 82.9707 58.7505 83.7573L49.8594 94.6707C47.1453 98.002 49.5158 102.991 53.8127 102.991H67.2913C65.7239 105.275 64.5074 107.127 63.676 108.419C62.3766 110.439 62.7217 113.031 64.3739 114.683L65.0337 115.343L62.6998 117.794C60.7782 119.811 60.8319 122.998 62.8205 124.95L67.2796 129.326L66.431 130.205C65.664 131 65.6865 132.266 66.4813 133.033C67.2762 133.8 68.5423 133.778 69.3093 132.983L70.1344 132.128L74.0707 135.992C76.0674 137.951 79.2701 137.936 81.2484 135.958L83.4485 133.758L84.0714 134.381C85.7251 136.034 88.32 136.38 90.3413 135.074C91.6875 134.205 93.6411 132.916 96.0564 131.246L96.0564 144.706C96.0564 149.007 101.052 151.376 104.382 148.656L114.619 140.293C115.501 139.572 116.117 138.576 116.368 137.464L122.434 110.516C125.872 107.449 129.368 104.16 132.819 100.676C150.33 82.9953 167.027 59.9334 168.38 35.21C168.539 32.3123 166.157 29.9283 163.257 30.0892C138.65 31.4545 115.654 48.2232 98.0155 65.7978C95.5999 68.2047 93.2779 70.6335 91.059 73.0492ZM76.8726 133.137L72.9122 129.25L75.8727 126.182L80.6201 130.929L78.42 133.13C77.9935 133.556 77.303 133.559 76.8726 133.137ZM70.0574 126.448L65.6224 122.095C65.1937 121.674 65.1821 120.987 65.5964 120.552L67.8629 118.172L73.0438 123.353L70.0574 126.448ZM95.9391 105.389C96.7062 104.594 96.6837 103.328 95.8888 102.561C95.094 101.794 93.8279 101.816 93.0609 102.611L75.8219 120.474L67.2023 111.855C66.8345 111.487 66.7941 110.966 67.0401 110.583C70.9256 104.543 83.4211 85.9856 100.839 68.6314C113.609 55.9079 128.832 44.0269 145.096 38.0441C145.37 46.5306 151.982 53.1263 160.477 53.3737C154.53 69.7424 142.674 85.0411 129.977 97.8609C112.689 115.316 94.1987 127.821 88.1711 131.714C87.7896 131.961 87.2688 131.921 86.8998 131.552L78.6508 123.303L95.9391 105.389ZM148.942 36.7474C153.721 35.2846 158.578 34.355 163.479 34.0831C163.997 34.0544 164.415 34.4708 164.386 34.9914C164.118 39.8984 163.199 44.759 161.754 49.5394C161.514 49.4374 161.249 49.381 160.972 49.381C154.266 49.381 149.087 44.2018 149.087 37.4961C149.087 37.2314 149.036 36.9786 148.942 36.7474ZM117.337 114.943L112.465 136.585C112.411 136.825 112.278 137.04 112.088 137.195L101.851 145.558C101.133 146.144 100.056 145.633 100.056 144.706L100.056 129C100.056 128.818 100.032 128.642 99.9866 128.474C104.867 124.968 110.897 120.392 117.337 114.943ZM70.0916 98.9908H53.8127C52.8864 98.9908 52.3754 97.9153 52.9605 97.1972L61.8517 86.2837C61.9898 86.1142 62.1754 85.9897 62.3847 85.9262L85.9652 78.7698C79.4617 86.2995 74.0708 93.4147 70.0916 98.9908Z" fill="black"/>
<path d="M17 112L12 107L7 112L12 117L17 112Z" fill="black"/>
<path d="M178 143C178 141.895 177.105 141 176 141C174.895 141 174 141.895 174 143V147H170C168.895 147 168 147.895 168 149C168 150.105 168.895 151 170 151H174V155C174 156.105 174.895 157 176 157C177.105 157 178 156.105 178 155V151H182C183.105 151 184 150.105 184 149C184 147.895 183.105 147 182 147H178V143Z" fill="black"/>
<path d="M49.0392 150.961C49.8202 151.742 49.8202 153.009 49.0392 153.79L37.4143 165.415C36.6333 166.196 35.3669 166.196 34.5859 165.415C33.8048 164.634 33.8048 163.367 34.5859 162.586L46.2108 150.961C46.9918 150.18 48.2581 150.18 49.0392 150.961Z" fill="black"/>
<path d="M62.7046 140.013C63.4856 139.232 63.4856 137.965 62.7046 137.184C61.9235 136.403 60.6572 136.403 59.8762 137.184L52.3552 144.705C51.5741 145.486 51.5741 146.753 52.3552 147.534C53.1362 148.315 54.4026 148.315 55.1836 147.534L62.7046 140.013Z" fill="black"/>
<path d="M53.0165 135.16C53.7975 135.941 53.7975 137.207 53.0165 137.988L41.4458 149.559C40.6647 150.34 39.3984 150.34 38.6173 149.559C37.8363 148.778 37.8363 147.512 38.6173 146.731L50.1881 135.16C50.9691 134.379 52.2354 134.379 53.0165 135.16Z" fill="black"/>
<path d="M63.5039 150.903C64.2849 150.122 64.2849 148.856 63.5039 148.075C62.7228 147.294 61.4565 147.294 60.6754 148.075L53.1545 155.596C52.3734 156.377 52.3734 157.643 53.1545 158.424C53.9355 159.205 55.2019 159.205 55.9829 158.424L63.5039 150.903Z" fill="black"/>
</svg>
