<svg width="96" height="96" viewBox="0 0 96 96" fill="none" xmlns="http://www.w3.org/2000/svg">
<g opacity="0.2">
<path d="M78.1936 14.3616C78.0814 13.5132 78.6505 12.7479 79.4712 12.5057C82.0075 11.7571 84.5871 11.2023 87.1296 11.0055C88.2156 10.9214 89.1062 11.8117 89.0218 12.8977C88.8195 15.5005 88.2398 18.0896 87.475 20.6952C87.2542 21.4473 86.5932 22.007 85.8099 21.9775C81.5432 21.8164 78.7306 18.4239 78.1936 14.3616Z" fill="black"/>
<path d="M34.5457 77.7732L38.0998 74.9299L28.0998 63.9299L24.7403 66.6176C23.8515 67.3286 23.7473 68.6422 24.513 69.4844L31.8543 77.5598C32.5545 78.3301 33.7328 78.4235 34.5457 77.7732Z" fill="black"/>
<path d="M70.0998 37.9299C73.9658 37.9299 77.0998 34.7959 77.0998 30.9299C77.0998 27.0639 73.9658 23.9299 70.0998 23.9299C66.2338 23.9299 63.0998 27.0639 63.0998 30.9299C63.0998 34.7959 66.2338 37.9299 70.0998 37.9299Z" fill="black"/>
<path d="M63.0998 44.9299C63.0998 48.7959 59.9658 51.9299 56.0998 51.9299C52.2338 51.9299 49.0998 48.7959 49.0998 44.9299C49.0998 41.0639 52.2338 37.9299 56.0998 37.9299C59.9658 37.9299 63.0998 41.0639 63.0998 44.9299Z" fill="black"/>
</g>
<path fill-rule="evenodd" clip-rule="evenodd" d="M75.5 27C75.5 30.866 72.366 34 68.5 34C64.634 34 61.5 30.866 61.5 27C61.5 23.134 64.634 20 68.5 20C72.366 20 75.5 23.134 75.5 27ZM68.5 31C70.7091 31 72.5 29.2091 72.5 27C72.5 24.7909 70.7091 23 68.5 23C66.2909 23 64.5 24.7909 64.5 27C64.5 29.2091 66.2909 31 68.5 31Z" fill="black"/>
<path fill-rule="evenodd" clip-rule="evenodd" d="M54.5 48C58.366 48 61.5 44.866 61.5 41C61.5 37.134 58.366 34 54.5 34C50.634 34 47.5 37.134 47.5 41C47.5 44.866 50.634 48 54.5 48ZM58.5 41C58.5 43.2091 56.7091 45 54.5 45C52.2909 45 50.5 43.2091 50.5 41C50.5 38.7909 52.2909 37 54.5 37C56.7091 37 58.5 38.7909 58.5 41Z" fill="black"/>
<path fill-rule="evenodd" clip-rule="evenodd" d="M27.2102 70.4111L30.1446 73.6389C31.3774 74.995 33.4519 75.1595 34.883 74.0146L37.6967 71.7636C38.6459 72.0992 39.728 72.0142 40.6476 71.4296C41.4563 70.9154 42.5985 70.1743 44 69.2256V77.5164C44 80.5376 47.5915 82.1175 49.8186 80.076L58.0656 72.5162C58.5795 72.0452 58.9397 71.4304 59.0993 70.7519L62.9425 54.4185C64.6337 52.8922 66.3374 51.287 68.0239 49.6107C79.2829 38.4204 90.0628 23.7852 90.9423 8.05706C91.0531 6.07597 89.424 4.4479 87.4444 4.55693C71.7258 5.42267 57.0647 16.0343 45.8538 27.1036C44.0361 28.8983 42.3022 30.7121 40.6617 32.5082C40.4845 32.489 40.3009 32.5012 40.1182 32.5493L21.7741 37.3767C21.0258 37.5736 20.3647 38.0148 19.8958 38.6303L14.7202 45.4232C12.9788 47.7089 14.6087 50.9999 17.4822 50.9999H26.0001C25.1662 52.2135 24.5095 53.2059 24.0454 53.9209C23.1762 55.2596 23.3666 56.984 24.4276 58.1209L24.8284 58.5503L22.7691 60.6096C21.4585 61.9202 21.4084 64.0291 22.6551 65.4005L25.1899 68.1888L24.4393 68.9393C23.8536 69.5251 23.8536 70.4749 24.4393 71.0607C25.0251 71.6465 25.9749 71.6465 26.5607 71.0607L27.2102 70.4111ZM87.947 7.88958C87.7848 10.7897 87.2552 13.6657 86.423 16.4996C84.3526 16.4789 82.2281 15.6249 80.619 14.2294C79.091 12.9042 78.1217 11.1792 78.0107 9.34974C81.1644 8.3594 84.3724 7.73068 87.6093 7.55239C87.8049 7.54162 87.9578 7.69555 87.947 7.88958ZM47.9616 29.2384C55.8305 21.4688 65.1523 14.2152 75.1061 10.3677C75.4858 12.8065 76.8517 14.9333 78.6534 16.4958C80.5208 18.1152 82.9378 19.2055 85.4446 19.4486C81.6419 29.7401 74.0615 39.3802 65.9091 47.4829C54.8162 58.5082 42.9411 66.4165 39.0381 68.8979C38.887 68.9939 38.6704 68.9842 38.5084 68.8107L33.8267 63.7946L44.5607 53.0607C45.1464 52.4749 45.1464 51.5251 44.5607 50.9393C43.9749 50.3536 43.0251 50.3536 42.4393 50.9393L31.7786 61.6001L26.6208 56.0739C26.4716 55.9141 26.4649 55.7034 26.5616 55.5545C29.0028 51.7944 36.9187 40.1418 47.9616 29.2384ZM29.656 63.7227L27.3136 66.0651L24.875 63.3825C24.7054 63.196 24.7122 62.9091 24.8905 62.7309L26.8766 60.7448L29.656 63.7227ZM29.3339 68.2874L31.7041 65.9172L35.337 69.8095L33.0089 71.672C32.8142 71.8277 32.5321 71.8053 32.3644 71.6209L29.3339 68.2874ZM47 67.1471C50.3803 64.752 54.5942 61.5885 59.0632 57.8071L56.1791 70.0648C56.1573 70.1571 56.1084 70.2407 56.0385 70.3047L47.7914 77.8645C47.4885 78.1422 47 77.9273 47 77.5164V67.1471ZM37.2066 36.4176C33.5136 40.7331 30.4327 44.7775 28.1118 47.9999H17.4822C17.0913 47.9999 16.8697 47.5523 17.1065 47.2414L22.2821 40.4484C22.3459 40.3647 22.4358 40.3047 22.5376 40.2779L37.2066 36.4176Z" fill="black"/>
<path d="M14.0607 81.4393C14.6464 82.0251 14.6464 82.9749 14.0607 83.5607L7.06066 90.5607C6.47487 91.1464 5.52513 91.1464 4.93934 90.5607C4.35355 89.9749 4.35355 89.0251 4.93934 88.4393L11.9393 81.4393C12.5251 80.8536 13.4749 80.8536 14.0607 81.4393Z" fill="black"/>
<path d="M23.0607 74.5607C23.6464 73.9749 23.6464 73.0251 23.0607 72.4393C22.4749 71.8536 21.5251 71.8536 20.9393 72.4393L15.9393 77.4393C15.3536 78.0251 15.3536 78.9749 15.9393 79.5607C16.5251 80.1464 17.4749 80.1464 18.0607 79.5607L23.0607 74.5607Z" fill="black"/>
<path d="M16.0607 70.4393C16.6464 71.0251 16.6464 71.9749 16.0607 72.5607L9.06066 79.5607C8.47487 80.1464 7.52513 80.1464 6.93934 79.5607C6.35355 78.9749 6.35355 78.0251 6.93934 77.4393L13.9393 70.4393C14.5251 69.8536 15.4749 69.8536 16.0607 70.4393Z" fill="black"/>
<path d="M25.0607 82.5607C25.6464 81.9749 25.6464 81.0251 25.0607 80.4393C24.4749 79.8536 23.5251 79.8536 22.9393 80.4393L17.9393 85.4393C17.3536 86.0251 17.3536 86.9749 17.9393 87.5607C18.5251 88.1464 19.4749 88.1464 20.0607 87.5607L25.0607 82.5607Z" fill="black"/>
</svg>
