<svg width="48" height="48" viewBox="0 0 48 48" fill="none" xmlns="http://www.w3.org/2000/svg">
<g opacity="0.2">
<path d="M23.1581 9.55085L5.27941 16.6887C4.987 16.8055 4.97775 17.216 5.26461 17.3458L23.1373 25.4327C23.2316 25.4753 23.3398 25.475 23.4338 25.4317L38.5001 18.4999L41.7272 16.9904C42.0142 16.8561 41.9972 16.4423 41.7001 16.332L23.4147 9.54769C23.3317 9.5169 23.2403 9.51803 23.1581 9.55085Z" fill="black"/>
<path d="M21.6175 40.912L5.69197 32.6C5.57403 32.5385 5.50008 32.4164 5.50008 32.2834V24.0732C5.50008 23.8088 5.77737 23.6361 6.01468 23.7526L21.6255 31.4211C21.7264 31.4707 21.8448 31.4698 21.945 31.4188L36.9809 23.7642C37.2185 23.6432 37.5001 23.8158 37.5001 24.0824V32.287C37.5001 32.4181 37.4282 32.5387 37.3129 32.6011L21.9527 40.9096C21.8483 40.966 21.7227 40.967 21.6175 40.912Z" fill="black"/>
<path d="M42.138 34.4529L41.0634 37.5353C40.8115 38.2577 41.4311 38.9838 42.1841 38.8488L44.1893 38.4892C44.7923 38.3811 45.1572 37.7612 44.9591 37.1815L44.0285 34.4587C43.7212 33.5595 42.4508 33.5556 42.138 34.4529Z" fill="black"/>
</g>
<path d="M21.0142 9.0735L5.02019 15.5576L20.9968 22.8982L35.5772 16.094C36.0777 15.8604 36.6727 16.0768 36.9063 16.5773C37.1398 17.0778 36.9234 17.6728 36.423 17.9064L21.5728 24.8364C21.2116 25.005 20.7945 25.0062 20.4323 24.8398L2.83352 16.7539C1.75286 16.2574 1.7881 14.7098 2.89024 14.263L20.4953 7.12579C20.8108 6.99787 21.1629 6.99323 21.4817 7.11278L41.1195 14.477C41.6492 14.6756 42.0001 15.182 42.0001 15.7477V27.0002C42.0001 27.5525 41.5524 28.0002 41.0001 28.0002C40.4478 28.0002 40.0001 27.5525 40.0001 27.0002V16.1932L21.0142 9.0735Z" fill="black"/>
<path fill-rule="evenodd" clip-rule="evenodd" d="M4 21.0732C4 20.0685 5.05374 19.4121 5.95551 19.8551L21.2777 27.3818L36.0271 19.873C36.9301 19.4134 38 20.0693 38 21.0824V29.287C38 29.7854 37.7269 30.2436 37.2885 30.4807L21.9284 38.7892C21.5318 39.0037 21.0545 39.0072 20.6548 38.7986L4.72919 30.4865C4.28101 30.2526 4 29.789 4 29.2834V21.0732ZM6 22.1052V28.8938L21.2773 36.8675L36 28.9039V22.1311L21.8986 29.31C21.5178 29.5038 21.068 29.5071 20.6845 29.3187L6 22.1052Z" fill="black"/>
<path fill-rule="evenodd" clip-rule="evenodd" d="M42.4387 30.4422C41.9996 29.1576 40.1848 29.152 39.7379 30.4339L37.7966 36.0025C37.4368 37.0345 38.3219 38.0718 39.3977 37.8789L43.0202 37.2294C43.8816 37.0749 44.4029 36.1893 44.1199 35.3612L42.4387 30.4422ZM40.0069 35.7378L41.0815 32.6554L42.0121 35.3783L40.0069 35.7378Z" fill="black"/>
</svg>
