<svg width="96" height="96" viewBox="0 0 96 96" fill="none" xmlns="http://www.w3.org/2000/svg">
<g opacity="0.2">
<path d="M44.8359 17.2958L6.84375 32.4638C6.22237 32.7118 6.20271 33.5842 6.81229 33.86L44.7918 51.0447C44.9922 51.1354 45.2221 51.1346 45.4219 51.0427L77.4377 36.3124L84.2953 33.1048C84.9053 32.8194 84.8691 31.94 84.2377 31.7058L45.3813 17.2891C45.2049 17.2237 45.0106 17.2261 44.8359 17.2958Z" fill="black"/>
<path d="M42.6887 81.8166L11.4117 65.7118C11.159 65.5817 11.0002 65.3213 11.0002 65.0371V47.7271C11.0002 47.1632 11.5935 46.7962 12.0981 47.0482L42.6955 62.3255C42.9147 62.435 43.1733 62.4319 43.3898 62.3172L75.3235 45.4026C75.8289 45.1349 76.4377 45.5013 76.4377 46.0732V63.4851C76.4377 63.7638 76.2849 64.0201 76.0398 64.1526L43.3972 81.8093C43.1767 81.9286 42.9115 81.9313 42.6887 81.8166Z" fill="black"/>
<path d="M86.3264 66.8907L82.2011 78.724C81.9717 79.3819 82.536 80.0432 83.2218 79.9202L90.9196 78.5399C91.4688 78.4414 91.8011 77.8769 91.6207 77.3489L88.0482 66.8959C87.7683 66.077 86.6113 66.0735 86.3264 66.8907Z" fill="black"/>
</g>
<path d="M42.4393 15.6072L6.32956 30.0237L42.4146 46.3511L74.1232 31.7622C74.8758 31.4159 75.7666 31.7453 76.1129 32.4979C76.4591 33.2505 76.1297 34.1413 75.3771 34.4876L43.3614 49.2178C42.7666 49.4915 42.0824 49.4936 41.486 49.2238L3.50645 32.0391C1.69206 31.2181 1.75057 28.6215 3.60009 27.8831L41.5921 12.7152C42.1123 12.5075 42.6911 12.5005 43.2161 12.6955L85.5277 28.41C86.4129 28.7388 87.0002 29.5834 87.0002 30.5276V54.4999C87.0002 55.3283 86.3286 55.9999 85.5002 55.9999C84.6717 55.9999 84.0002 55.3283 84.0002 54.4999V31.0429L42.4393 15.6072Z" fill="black"/>
<path fill-rule="evenodd" clip-rule="evenodd" d="M6 41.7808C6 40.1085 7.75391 39.016 9.2549 39.7533L42.0952 55.8854L73.7162 39.7874C75.2191 39.0223 77 40.114 77 41.8005V59.2351C77 60.0646 76.5454 60.8274 75.8158 61.222L43.1755 78.8775C42.5154 79.2345 41.7209 79.2404 41.0556 78.8932L7.21373 61.2301C6.46774 60.8407 6 60.069 6 59.2275V41.7808ZM9 42.9705V58.7784L42.0946 76.0514L74 58.7935V43.0093L43.1259 58.727C42.4921 59.0497 41.7434 59.055 41.1051 58.7415L9 42.9705Z" fill="black"/>
<path fill-rule="evenodd" clip-rule="evenodd" d="M87.7794 61.4736C87.0385 59.3058 83.976 59.2965 83.2218 61.4596L79.0965 73.293C78.4894 75.0345 79.983 76.7849 81.7983 76.4594L89.4962 75.0791C90.9498 74.8185 91.8294 73.324 91.3519 71.9266L87.7794 61.4736ZM82.2612 73.3286L85.4927 64.0592L88.2911 72.2474L82.2612 73.3286Z" fill="black"/>
</svg>
