<svg width="96" height="96" viewBox="0 0 96 96" fill="none" xmlns="http://www.w3.org/2000/svg">
<path opacity="0.2" d="M60.3828 76.1484C57.9622 73.7279 57.9622 69.8034 60.3828 67.3828C62.8034 64.9622 66.7279 64.9622 69.1484 67.3828L86.9337 85.168C89.3542 87.5886 89.3542 91.5131 86.9337 93.9337C84.5131 96.3542 80.5886 96.3542 78.168 93.9337L60.3828 76.1484Z" fill="black"/>
<path d="M52.1672 13.2707C51.4483 12.8589 50.5318 13.1078 50.12 13.8266C49.7082 14.5454 49.9571 15.462 50.6759 15.8738C53.8305 17.681 56.5623 20.142 58.6878 23.0915C60.8134 26.0411 62.2837 29.4111 63.0001 32.9755C63.1633 33.7877 63.954 34.3138 64.7662 34.1505C65.5784 33.9873 66.1045 33.1966 65.9413 32.3844C65.1406 28.4006 63.4973 24.6342 61.1217 21.3376C58.7461 18.041 55.6929 15.2906 52.1672 13.2707Z" fill="black"/>
<path d="M36.6353 10.9929C36.6394 10.1644 37.3144 9.49623 38.1428 9.50039C39.9385 9.50938 41.7295 9.68809 43.4916 10.0341C44.3045 10.1937 44.8341 10.9821 44.6745 11.795C44.5148 12.6079 43.7264 13.1375 42.9135 12.9779C41.3369 12.6683 39.7345 12.5084 38.1277 12.5003C37.2993 12.4962 36.6311 11.8213 36.6353 10.9929Z" fill="black"/>
<path fill-rule="evenodd" clip-rule="evenodd" d="M38 1.5C17.8416 1.5 1.5 17.8416 1.5 38C1.5 58.1584 17.8416 74.5 38 74.5C46.3992 74.5 54.1357 71.663 60.3037 66.895C60.3289 68.5225 60.9624 70.1423 62.2042 71.3841L81.3513 90.5313C83.8864 93.0663 87.9964 93.0663 90.5314 90.5313C93.0665 87.9963 93.0665 83.8862 90.5314 81.3512L71.3843 62.204C70.1425 60.9622 68.5227 60.3287 66.8952 60.3035C71.6631 54.1356 74.5 46.3991 74.5 38C74.5 17.8416 58.1584 1.5 38 1.5ZM4.5 38C4.5 19.4985 19.4985 4.5 38 4.5C56.5015 4.5 71.5 19.4985 71.5 38C71.5 56.5015 56.5015 71.5 38 71.5C19.4985 71.5 4.5 56.5015 4.5 38ZM64.3255 69.2628C62.9621 67.8994 62.9621 65.6888 64.3255 64.3253C65.6889 62.9619 67.8995 62.9619 69.263 64.3253L88.4101 83.4725C89.7736 84.8359 89.7736 87.0465 88.4101 88.41C87.0467 89.7734 84.8361 89.7734 83.4727 88.4099L64.3255 69.2628Z" fill="black"/>
</svg>
