<svg width="48" height="48" viewBox="0 0 48 48" fill="none" xmlns="http://www.w3.org/2000/svg">
<path opacity="0.2" d="M29.2187 38.0939C27.8898 36.7649 27.8898 34.6103 29.2187 33.2814C30.5477 31.9524 32.7023 31.9524 34.0312 33.2814L42.8411 42.0912C44.17 43.4201 44.17 45.5747 42.8411 46.9037C41.5121 48.2326 39.3575 48.2326 38.0286 46.9037L29.2187 38.0939Z" fill="black"/>
<path d="M18.5 5C17.9477 5 17.5 5.44772 17.5 6C17.5 6.55228 17.9477 7 18.5 7C19.1274 7 19.7423 7.05014 20.3412 7.14645C20.8865 7.23414 21.3996 6.86319 21.4873 6.31791C21.575 5.77263 21.2041 5.25951 20.6588 5.17182C19.9553 5.05869 19.2341 5 18.5 5Z" fill="black"/>
<path d="M25.5207 6.96709C25.0492 6.67949 24.4339 6.82857 24.1463 7.30007C23.8587 7.77156 24.0078 8.38693 24.4793 8.67452C27.4202 10.4684 29.4904 13.5431 29.918 17.1187C29.9836 17.6671 30.4813 18.0585 31.0297 17.9929C31.578 17.9273 31.9694 17.4296 31.9039 16.8813C31.4011 12.6772 28.9681 9.06984 25.5207 6.96709Z" fill="black"/>
<path fill-rule="evenodd" clip-rule="evenodd" d="M18.5 0C8.28273 0 0 8.28273 0 18.5C0 28.7173 8.28273 37 18.5 37C22.5141 37 26.2297 35.7215 29.2616 33.5496C29.4151 34.124 29.7172 34.667 30.1679 35.1177L39.9917 44.9415C41.3585 46.3084 43.5746 46.3084 44.9415 44.9415C46.3083 43.5747 46.3083 41.3586 44.9415 39.9918L35.1176 30.1679C34.6669 29.7173 34.124 29.4152 33.5495 29.2617C35.7215 26.2297 37 22.5142 37 18.5C37 8.28273 28.7173 0 18.5 0ZM2 18.5C2 9.3873 9.3873 2 18.5 2C27.6127 2 35 9.3873 35 18.5C35 27.6127 27.6127 35 18.5 35C9.3873 35 2 27.6127 2 18.5ZM31.5821 33.7035C30.9963 33.1177 30.9963 32.1679 31.5821 31.5822C32.1679 30.9964 33.1176 30.9964 33.7034 31.5822L43.5272 41.406C44.113 41.9918 44.113 42.9415 43.5272 43.5273C42.9415 44.1131 41.9917 44.1131 41.4059 43.5273L31.5821 33.7035Z" fill="black"/>
</svg>
