<svg width="96" height="96" viewBox="0 0 96 96" fill="none" xmlns="http://www.w3.org/2000/svg">
<circle opacity="0.2" cx="41.5" cy="43.5" r="35.5" fill="black"/>
<path d="M52.1672 14.2707C51.4483 13.8589 50.5318 14.1078 50.12 14.8266C49.7082 15.5454 49.9571 16.462 50.6759 16.8738C53.8305 18.681 56.5623 21.142 58.6878 24.0915C60.8134 27.0411 62.2837 30.4111 63.0001 33.9755C63.1633 34.7877 63.954 35.3138 64.7662 35.1505C65.5784 34.9873 66.1045 34.1966 65.9413 33.3844C65.1406 29.4006 63.4973 25.6342 61.1217 22.3376C58.7461 19.041 55.6929 16.2906 52.1672 14.2707Z" fill="black"/>
<path d="M36.6353 11.9929C36.6394 11.1644 37.3144 10.4962 38.1428 10.5004C39.9385 10.5094 41.7295 10.6881 43.4916 11.0341C44.3045 11.1937 44.8341 11.9821 44.6745 12.795C44.5148 13.6079 43.7264 14.1375 42.9135 13.9779C41.3369 13.6683 39.7345 13.5084 38.1277 13.5003C37.2993 13.4962 36.6311 12.8213 36.6353 11.9929Z" fill="black"/>
<path fill-rule="evenodd" clip-rule="evenodd" d="M38 2.5C17.8416 2.5 1.5 18.8416 1.5 39C1.5 59.1584 17.8416 75.5 38 75.5C46.3992 75.5 54.1357 72.663 60.3037 67.895C60.3289 69.5225 60.9624 71.1423 62.2042 72.3841L81.3513 91.5313C83.8864 94.0663 87.9964 94.0663 90.5314 91.5313C93.0665 88.9963 93.0665 84.8862 90.5314 82.3512L71.3843 63.204C70.1425 61.9622 68.5227 61.3287 66.8952 61.3035C71.6631 55.1356 74.5 47.3991 74.5 39C74.5 18.8416 58.1584 2.5 38 2.5ZM4.5 39C4.5 20.4985 19.4985 5.5 38 5.5C56.5015 5.5 71.5 20.4985 71.5 39C71.5 57.5015 56.5015 72.5 38 72.5C19.4985 72.5 4.5 57.5015 4.5 39ZM64.3255 70.2628C62.9621 68.8994 62.9621 66.6888 64.3255 65.3253C65.6889 63.9619 67.8995 63.9619 69.263 65.3253L88.4101 84.4725C89.7736 85.8359 89.7736 88.0465 88.4101 89.41C87.0467 90.7734 84.8361 90.7734 83.4727 89.4099L64.3255 70.2628Z" fill="black"/>
</svg>
