<svg width="48" height="48" viewBox="0 0 48 48" fill="none" xmlns="http://www.w3.org/2000/svg">
<path opacity="0.2" fill-rule="evenodd" clip-rule="evenodd" d="M21.5 40C31.165 40 39 32.165 39 22.5C39 12.835 31.165 5 21.5 5C11.835 5 4 12.835 4 22.5C4 32.165 11.835 40 21.5 40Z" fill="black"/>
<path d="M27.5 23C28.3284 23 29 22.3284 29 21.5C29 20.6716 28.3284 20 27.5 20C26.6716 20 26 20.6716 26 21.5C26 22.3284 26.6716 23 27.5 23Z" fill="black"/>
<path d="M29 27.5C29 28.3284 28.3284 29 27.5 29C26.6716 29 26 28.3284 26 27.5C26 26.6716 26.6716 26 27.5 26C28.3284 26 29 26.6716 29 27.5Z" fill="black"/>
<path d="M21.5 29C22.3284 29 23 28.3284 23 27.5C23 26.6716 22.3284 26 21.5 26C20.6716 26 20 26.6716 20 27.5C20 28.3284 20.6716 29 21.5 29Z" fill="black"/>
<path fill-rule="evenodd" clip-rule="evenodd" d="M1 19.5C1 9.28273 9.28273 1 19.5 1C29.7173 1 38 9.28273 38 19.5C38 23.5142 36.7215 27.2297 34.5495 30.2617C35.124 30.4152 35.6669 30.7173 36.1176 31.1679L45.9415 40.9918C47.3083 42.3586 47.3083 44.5747 45.9415 45.9415C44.5746 47.3084 42.3585 47.3084 40.9917 45.9415L31.1679 36.1177C30.7172 35.667 30.4151 35.124 30.2616 34.5496C27.2297 36.7215 23.5141 38 19.5 38C9.28273 38 1 29.7173 1 19.5ZM19.5 3C10.3873 3 3 10.3873 3 19.5C3 28.6127 10.3873 36 19.5 36C28.6127 36 36 28.6127 36 19.5C36 10.3873 28.6127 3 19.5 3ZM32.5821 32.5822C31.9963 33.1679 31.9963 34.1177 32.5821 34.7035L42.4059 44.5273C42.9917 45.1131 43.9415 45.1131 44.5272 44.5273C45.113 43.9415 45.113 42.9918 44.5272 42.406L34.7034 32.5822C34.1176 31.9964 33.1679 31.9964 32.5821 32.5822Z" fill="black"/>
</svg>
