<svg width="48" height="48" viewBox="0 0 48 48" fill="none" xmlns="http://www.w3.org/2000/svg">
<path opacity="0.2" fill-rule="evenodd" clip-rule="evenodd" d="M22.5 40C32.165 40 40 32.165 40 22.5C40 12.835 32.165 5 22.5 5C12.835 5 5 12.835 5 22.5C5 32.165 12.835 40 22.5 40Z" fill="black"/>
<path d="M19.5 6C18.9477 6 18.5 6.44772 18.5 7C18.5 7.55228 18.9477 8 19.5 8C20.1274 8 20.7423 8.05014 21.3412 8.14645C21.8865 8.23414 22.3996 7.86319 22.4873 7.31791C22.575 6.77263 22.2041 6.25951 21.6588 6.17182C20.9553 6.05869 20.2341 6 19.5 6Z" fill="black"/>
<path d="M26.5207 7.96709C26.0492 7.67949 25.4339 7.82857 25.1463 8.30007C24.8587 8.77156 25.0078 9.38693 25.4793 9.67452C28.4202 11.4684 30.4904 14.5431 30.918 18.1187C30.9836 18.6671 31.4813 19.0585 32.0297 18.9929C32.578 18.9273 32.9694 18.4296 32.9039 17.8813C32.4011 13.6772 29.9681 10.0698 26.5207 7.96709Z" fill="black"/>
<path fill-rule="evenodd" clip-rule="evenodd" d="M19.5 1C9.28273 1 1 9.28273 1 19.5C1 29.7173 9.28273 38 19.5 38C23.5141 38 27.2297 36.7215 30.2616 34.5496C30.4151 35.124 30.7172 35.667 31.1679 36.1177L40.9917 45.9415C42.3585 47.3084 44.5746 47.3084 45.9415 45.9415C47.3083 44.5747 47.3083 42.3586 45.9415 40.9918L36.1176 31.1679C35.6669 30.7173 35.124 30.4152 34.5495 30.2617C36.7215 27.2297 38 23.5142 38 19.5C38 9.28273 29.7173 1 19.5 1ZM3 19.5C3 10.3873 10.3873 3 19.5 3C28.6127 3 36 10.3873 36 19.5C36 28.6127 28.6127 36 19.5 36C10.3873 36 3 28.6127 3 19.5ZM32.5821 34.7035C31.9963 34.1177 31.9963 33.1679 32.5821 32.5822C33.1679 31.9964 34.1176 31.9964 34.7034 32.5822L44.5272 42.406C45.113 42.9918 45.113 43.9415 44.5272 44.5273C43.9415 45.1131 42.9917 45.1131 42.4059 44.5273L32.5821 34.7035Z" fill="black"/>
</svg>
