<svg width="196" height="196" viewBox="0 0 196 196" fill="none" xmlns="http://www.w3.org/2000/svg">
<path opacity="0.07" d="M55.8734 170.271C52.1884 169.451 7.91222 162.069 11.1713 107.626C14.4304 53.183 18.5214 36.8101 35.7354 30.82C52.9494 24.83 94.7934 -3.51465 127.629 23.4365C160.464 50.3876 195.895 74.5601 181.835 117.593C167.775 160.626 165.473 174.981 128.788 172.785C92.1032 170.588 73.3963 174.167 55.8734 170.271Z" fill="black"/>
<circle opacity="0.2" cx="92" cy="92" r="50" fill="black"/>
<path d="M39 18C40.1046 18 41 18.8954 41 20V24H45C46.1046 24 47 24.8954 47 26C47 27.1046 46.1046 28 45 28H41V32C41 33.1046 40.1046 34 39 34C37.8954 34 37 33.1046 37 32V28H33C31.8954 28 31 27.1046 31 26C31 24.8954 31.8954 24 33 24H37V20C37 18.8954 37.8954 18 39 18Z" fill="black"/>
<path fill-rule="evenodd" clip-rule="evenodd" d="M33.3897 149.748L41.875 158.233L33.3897 166.719L24.9044 158.233L33.3897 149.748ZM30.5613 158.233L33.3897 161.062L36.2181 158.233L33.3897 155.405L30.5613 158.233Z" fill="black"/>
<path d="M168.95 97.0436L164.707 92.801L160.465 97.0436L164.707 101.286L168.95 97.0436Z" fill="black"/>
<path d="M106.884 51.2921C105.925 50.743 104.703 51.0749 104.154 52.0333C103.605 52.9917 103.937 54.2138 104.895 54.7629C109.349 57.3143 113.206 60.7886 116.206 64.9527C119.207 69.1168 121.283 73.8744 122.294 78.9065C122.512 79.9894 123.566 80.6909 124.649 80.4732C125.732 80.2556 126.434 79.2013 126.216 78.1184C125.092 72.5272 122.786 67.2409 119.452 62.6141C116.117 57.9873 111.832 54.127 106.884 51.2921Z" fill="black"/>
<path d="M85.1905 47.9905C85.196 46.8859 86.0959 45.995 87.2005 46.0005C89.7208 46.0131 92.2344 46.264 94.7076 46.7496C95.7914 46.9624 96.4976 48.0136 96.2847 49.0975C96.0719 50.1814 95.0207 50.8875 93.9368 50.6747C91.711 50.2376 89.4488 50.0118 87.1804 50.0005C86.0759 49.9949 85.1849 49.095 85.1905 47.9905Z" fill="black"/>
<path fill-rule="evenodd" clip-rule="evenodd" d="M35 86C35 57.2812 58.2812 34 87 34C115.719 34 139 57.2812 139 86C139 97.7829 135.081 108.651 128.475 117.37C130.418 117.606 132.298 118.47 133.789 119.961L160.914 147.086C164.457 150.628 164.457 156.372 160.914 159.914C157.372 163.457 151.628 163.457 148.086 159.914L120.961 132.789C119.47 131.298 118.607 129.418 118.371 127.475C109.651 134.081 98.783 138 87 138C58.2812 138 35 114.719 35 86ZM87 38C60.4903 38 39 59.4903 39 86C39 112.51 60.4903 134 87 134C113.51 134 135 112.51 135 86C135 59.4903 113.51 38 87 38ZM123.789 129.961L150.914 157.086C152.895 159.066 156.105 159.066 158.086 157.086C160.066 155.105 160.066 151.895 158.086 149.914L130.961 122.789C128.98 120.809 125.77 120.809 123.789 122.789C121.809 124.769 121.809 127.98 123.789 129.961Z" fill="black"/>
</svg>
