<svg width="48" height="48" viewBox="0 0 48 48" fill="none" xmlns="http://www.w3.org/2000/svg">
<path opacity="0.5" d="M19.5 7C20.1807 7 20.8488 7.05442 21.5 7.15914M31.9109 18C31.4457 14.1101 29.1941 10.7691 26 8.82081" stroke="black" stroke-width="2" stroke-linecap="round" stroke-linejoin="round"/>
<path fill-rule="evenodd" clip-rule="evenodd" d="M19.5 1C9.28273 1 1 9.28273 1 19.5C1 29.7173 9.28273 38 19.5 38C23.4864 38 27.1784 36.7391 30.1988 34.5944C30.3627 35.1124 30.65 35.5997 31.0607 36.0104L40.8845 45.8342C42.2513 47.2011 44.4674 47.2011 45.8343 45.8342C47.2011 44.4674 47.2011 42.2513 45.8343 40.8845L36.0104 31.0606C35.5997 30.65 35.1124 30.3627 34.5944 30.1988C36.7391 27.1784 38 23.4864 38 19.5C38 9.28273 29.7173 1 19.5 1ZM32.1259 33.0219C32.4346 32.7334 32.7334 32.4346 33.0219 32.1258C33.5526 31.9328 34.1705 32.0492 34.5962 32.4749L44.42 42.2987C45.0058 42.8845 45.0058 43.8342 44.42 44.42C43.8343 45.0058 42.8845 45.0058 42.2987 44.42L32.4749 34.5962C32.0492 34.1705 31.9328 33.5526 32.1259 33.0219ZM31.806 30.4917C34.4143 27.5735 36 23.7219 36 19.5C36 10.3873 28.6127 3 19.5 3C10.3873 3 3 10.3873 3 19.5C3 28.6127 10.3873 36 19.5 36C23.7219 36 27.5735 34.4143 30.4917 31.806C30.6435 31.5392 30.8331 31.2882 31.0607 31.0606C31.2882 30.8331 31.5393 30.6435 31.806 30.4917Z" fill="black"/>
</svg>
