<svg width="48" height="48" viewBox="0 0 48 48" fill="none" xmlns="http://www.w3.org/2000/svg">
<path opacity="0.2" fill-rule="evenodd" clip-rule="evenodd" d="M21.5 40C31.165 40 39 32.165 39 22.5C39 12.835 31.165 5 21.5 5C11.835 5 4 12.835 4 22.5C4 32.165 11.835 40 21.5 40ZM28 27C28.5523 27 29 26.5523 29 26C29 25.4477 28.5523 25 28 25C27.4477 25 27 25.4477 27 26C27 26.5523 27.4477 27 28 27ZM29 22C29 22.5523 28.5523 23 28 23C27.4477 23 27 22.5523 27 22C27 21.4477 27.4477 21 28 21C28.5523 21 29 21.4477 29 22ZM24 27C24.5523 27 25 26.5523 25 26C25 25.4477 24.5523 25 24 25C23.4477 25 23 25.4477 23 26C23 26.5523 23.4477 27 24 27Z" fill="black"/>
<path fill-rule="evenodd" clip-rule="evenodd" d="M19.5 1C9.28273 1 1 9.28273 1 19.5C1 29.7173 9.28273 38 19.5 38C23.5141 38 27.2297 36.7215 30.2616 34.5496C30.4151 35.124 30.7172 35.667 31.1679 36.1177L40.9917 45.9415C42.3585 47.3084 44.5746 47.3084 45.9415 45.9415C47.3083 44.5747 47.3083 42.3586 45.9415 40.9918L36.1176 31.1679C35.6669 30.7173 35.124 30.4152 34.5495 30.2617C36.7215 27.2297 38 23.5142 38 19.5C38 9.28273 29.7173 1 19.5 1ZM3 19.5C3 10.3873 10.3873 3 19.5 3C28.6127 3 36 10.3873 36 19.5C36 28.6127 28.6127 36 19.5 36C10.3873 36 3 28.6127 3 19.5ZM32.5821 34.7035C31.9963 34.1177 31.9963 33.1679 32.5821 32.5822C33.1679 31.9964 34.1176 31.9964 34.7034 32.5822L44.5272 42.406C45.113 42.9918 45.113 43.9415 44.5272 44.5273C43.9415 45.1131 42.9917 45.1131 42.4059 44.5273L32.5821 34.7035Z" fill="black"/>
</svg>
