<svg width="48" height="48" viewBox="0 0 48 48" fill="none" xmlns="http://www.w3.org/2000/svg">
<path d="M7.20801 9.76182C6.47486 10.078 6 10.7999 6 11.5983V21.7842C6 22.3365 5.55228 22.7842 5 22.7842C4.44772 22.7842 4 22.3365 4 21.7842V11.5983C4 10.0015 4.94973 8.55766 6.44209 7.91451L23.6301 1.07094C23.8676 0.976355 24.1324 0.976355 24.3699 1.07094L41.584 7.92532C43.0503 8.55766 44 10.0015 44 11.5983V13.2751C44 13.8274 43.5523 14.2751 43 14.2751C42.4477 14.2751 42 13.8274 42 13.2751V11.5983C42 10.7999 41.5251 10.078 40.8181 9.77264L24 3.07635L7.20801 9.76182Z" fill="black"/>
<path d="M4.38168 27.8403C4.2721 27.299 4.62207 26.7714 5.16337 26.6618C5.70468 26.5522 6.23233 26.9022 6.34191 27.4435C7.35105 32.4281 10.3446 36.8979 14.5457 40.3637C17.9539 43.1754 21.8837 45 24 45C26.3788 45 30.9636 42.6976 34.6344 39.327C39.2391 35.0988 42 29.8161 42 24.0575V19.1733C42 18.6211 42.4477 18.1733 43 18.1733C43.5523 18.1733 44 18.6211 44 19.1733V24.0575C44 30.4318 40.9748 36.2204 35.9871 40.8002C31.981 44.4786 26.9602 47 24 47C21.3428 47 17.0067 44.9867 13.273 41.9064C8.74072 38.1675 5.48965 33.3131 4.38168 27.8403Z" fill="black"/>
<path d="M22.0374 35L23.1774 32.2C23.2235 31.9706 23.1243 31.7364 22.9274 31.61C22.3674 31.25 22.0374 30.66 22.0374 30C22.0374 28.91 22.9274 28 24.0174 28C25.0974 28 26.0374 28.91 26.0374 30C26.0374 30.66 25.7074 31.25 25.1474 31.61C24.9574 31.74 24.8474 31.97 24.8974 32.2L26.0374 35H22.0374Z" fill="black"/>
<path fill-rule="evenodd" clip-rule="evenodd" d="M27.0374 23.0044V24H21.0374V20C21.0374 18.3431 22.3805 17 24.0374 17C24.921 17 25.7403 17.3829 26.3075 18.0387C26.6688 18.4564 27.3004 18.5022 27.7181 18.1409C28.1358 17.7796 28.1815 17.1481 27.8202 16.7303C26.877 15.6399 25.5079 15 24.0374 15C21.2759 15 19.0374 17.2386 19.0374 20V24.126C17.3121 24.5701 16.0374 26.1362 16.0374 28V35C16.0374 37.2091 17.8282 39 20.0374 39H28.0374C30.2465 39 32.0374 37.2091 32.0374 35V28C32.0374 26.1362 30.7626 24.5701 29.0374 24.126V23.0044C29.0374 22.4521 28.5896 22.0044 28.0374 22.0044C27.4851 22.0044 27.0374 22.4521 27.0374 23.0044ZM18.0374 28C18.0374 26.8954 18.9328 26 20.0374 26H28.0374C29.1419 26 30.0374 26.8954 30.0374 28V35C30.0374 36.1046 29.1419 37 28.0374 37H20.0374C18.9328 37 18.0374 36.1046 18.0374 35V28Z" fill="black"/>
<path opacity="0.5" fill-rule="evenodd" clip-rule="evenodd" d="M22.0534 21.7448C22.1627 22.2861 22.6901 22.6364 23.2315 22.5271C32.6399 20.6277 43.1288 17.7981 45.3838 16.727C48.1708 15.4033 48.6094 13.2831 46.4242 11.2653C46.0184 10.8906 45.3857 10.9158 45.0111 11.3216C44.6364 11.7274 44.6616 12.36 45.0674 12.7347C46.1699 13.7527 46.0812 14.1817 44.5257 14.9204C42.4643 15.8995 32.0885 18.6986 22.8357 20.5667C22.2944 20.676 21.9441 21.2034 22.0534 21.7448ZM2.8056 19.9108C2.38713 19.5503 1.75572 19.5974 1.3953 20.0159C-0.680111 22.4255 -0.466755 24.5756 2.21328 25.4965C3.55758 25.9584 8.27168 25.3777 17.2055 23.67C17.748 23.5663 18.1037 23.0425 18 22.5C17.8963 21.9575 17.3725 21.6018 16.83 21.7055C8.63634 23.2718 3.68047 23.8859 2.86323 23.6051C1.70668 23.2076 1.6632 22.7695 2.9107 21.3211C3.27112 20.9026 3.22407 20.2712 2.8056 19.9108Z" fill="black"/>
</svg>
