<svg width="96" height="96" viewBox="0 0 96 96" fill="none" xmlns="http://www.w3.org/2000/svg">
<path opacity="0.2" fill-rule="evenodd" clip-rule="evenodd" d="M13 15C11.3431 15 10 16.3431 10 18V76C10 77.6569 11.3431 79 13 79H66.3772C66.786 79 67.1884 79.1015 67.5484 79.2953L87.1036 89.825C89.7685 91.26 93 89.3298 93 86.3031V18C93 16.3431 91.6569 15 90 15H13ZM50.1393 23.7332L54.7361 38.2899C54.8931 38.787 55.3543 39.125 55.8756 39.125H71.4151C72.5634 39.125 73.0507 40.5868 72.1321 41.2758L59.6757 50.6181C59.2706 50.9219 59.101 51.448 59.2523 51.9312L63.8395 66.5793C64.1865 67.6874 62.9087 68.5893 61.9808 67.8912L49.7171 58.6646C49.2922 58.3449 48.7072 58.3445 48.2818 58.6636L35.9768 67.8923C35.0474 68.5893 33.7706 67.6844 34.1204 66.5765L38.7448 51.9326C38.8976 51.4488 38.7282 50.9213 38.3223 50.6169L25.8676 41.2758C24.949 40.5868 25.4362 39.125 26.5846 39.125H42.1241C42.6454 39.125 43.1066 38.787 43.2636 38.2899L47.8604 23.7332C48.212 22.6198 49.7877 22.6198 50.1393 23.7332Z" fill="black"/>
<path fill-rule="evenodd" clip-rule="evenodd" d="M48.0566 19.4267C47.2376 16.9698 43.7624 16.9697 42.9434 19.4267L38.4189 33.0003H23.0847C20.4949 33.0003 19.3959 36.2972 21.4678 37.8511L33.7495 47.0624L29.1902 61.5001C28.4012 63.9986 31.2809 66.0396 33.3769 64.4676L45.5 55.3753L57.623 64.4676C59.7191 66.0396 62.5988 63.9986 61.8098 61.5001L57.2505 47.0624L69.5322 37.8511C71.6041 36.2972 70.5051 33.0003 67.9153 33.0003H52.5811L48.0566 19.4267ZM41.1954 34.1576L45.5 21.2437L49.8046 34.1576C50.1714 35.258 51.2013 36.0003 52.3612 36.0003H67L55.2775 44.7921C54.3621 45.4787 53.9801 46.6684 54.3247 47.7596L58.6629 61.4975L47.1169 52.838C46.1588 52.1193 44.8412 52.1193 43.8831 52.838L32.3371 61.4975L36.6753 47.7596C37.0199 46.6684 36.6379 45.4787 35.7225 44.7921L24 36.0003H38.6388C39.7987 36.0003 40.8286 35.258 41.1954 34.1576Z" fill="black"/>
<path fill-rule="evenodd" clip-rule="evenodd" d="M7.97997 9.02832C5.79757 9.02832 4.02838 10.7975 4.02838 12.9799V72.02C4.02838 74.2024 5.79756 75.9716 7.97997 75.9716H66.8898C67.0528 75.9716 67.2133 76.0111 67.3577 76.0867L84.9126 85.2821C87.2135 86.4873 89.9716 84.8184 89.9716 82.2211V12.9799C89.9716 10.7975 88.2024 9.02832 86.02 9.02832H7.97997ZM6.97163 12.9799C6.97163 12.423 7.42308 11.9716 7.97997 11.9716H86.02C86.5769 11.9716 87.0284 12.423 87.0284 12.9799V82.2211C87.0284 82.6062 86.6194 82.8536 86.2783 82.6749L68.7234 73.4795C68.1576 73.1831 67.5285 73.0283 66.8898 73.0283H7.97997C7.42308 73.0283 6.97163 72.5769 6.97163 72.02V12.9799Z" fill="black"/>
</svg>
