<svg width="196" height="196" viewBox="0 0 196 196" fill="none" xmlns="http://www.w3.org/2000/svg">
<path opacity="0.07" fill-rule="evenodd" clip-rule="evenodd" d="M169.793 160.728C193.15 129.027 184.859 85.1121 174.488 57.6998C169.393 44.2327 148.334 16.3736 104.881 14.3379C61.4282 12.3022 45.8148 26.5072 32.8172 49.0462C19.8197 71.5852 6.31082 116.975 28.4851 152.649C50.6594 188.322 149.269 188.584 169.793 160.728ZM34 54.0003C34 50.6866 36.6863 48.0003 40 48.0003H153C156.314 48.0003 159 50.6866 159 54.0003V57.0003H160C162.209 57.0003 164 58.7912 164 61.0003V156.59C164 163.478 156.578 167.813 150.578 164.429L125.565 150.319C125.195 150.11 124.777 150 124.351 150H47C44.7909 150 43 148.209 43 146V145.014H40C36.6863 145.014 34 142.327 34 139.014V54.0003Z" fill="black"/>
<path opacity="0.2" fill-rule="evenodd" clip-rule="evenodd" d="M47 57C44.7909 57 43 58.7909 43 61V146C43 148.209 44.7909 150 47 150H124.351C124.777 150 125.195 150.11 125.565 150.319L151.5 164.429C157.5 167.813 164 163.478 164 156.59V61C164 58.7909 162.209 57 160 57H47ZM100.264 67.8541L107.63 91.1553C107.787 91.6522 108.249 91.99 108.77 91.99H133.537C134.686 91.99 135.173 93.4525 134.254 94.1412L114.417 109.003C114.012 109.307 113.842 109.833 113.993 110.317L121.326 133.706C121.673 134.814 120.396 135.716 119.467 135.019L99.8418 120.269C99.4171 119.95 98.8326 119.949 98.4074 120.268L78.7174 135.02C77.7878 135.716 76.5115 134.811 76.8616 133.703L84.2541 110.318C84.4072 109.834 84.2376 109.306 83.8312 109.002L63.9963 94.1412C63.077 93.4525 63.5641 91.99 64.7127 91.99H89.4803C90.0015 91.99 90.4626 91.6522 90.6196 91.1553L97.9857 67.8541C98.3375 66.7411 99.9125 66.7411 100.264 67.8541Z" fill="black"/>
<path fill-rule="evenodd" clip-rule="evenodd" d="M156.5 21L165 29.5L156.5 38L148 29.5L156.5 21ZM153.667 29.5L156.5 32.3333L159.333 29.5L156.5 26.6667L153.667 29.5Z" fill="black"/>
<path d="M24 142C24 140.895 23.1046 140 22 140C20.8954 140 20 140.895 20 142V146H16C14.8954 146 14 146.895 14 148C14 149.105 14.8954 150 16 150H20V154C20 155.105 20.8954 156 22 156C23.1046 156 24 155.105 24 154V150H28C29.1046 150 30 149.105 30 148C30 146.895 29.1046 146 28 146H24V142Z" fill="black"/>
<path d="M44 166L40 162L36 166L40 170L44 166Z" fill="black"/>
<path fill-rule="evenodd" clip-rule="evenodd" d="M97.6576 61.291C96.6897 58.3717 92.5603 58.3717 91.5924 61.291L84.4118 82.9486H60.1944C57.1282 82.9486 55.8227 86.8484 58.2709 88.6944L77.6786 103.328L70.4494 126.344C69.5181 129.309 72.9395 131.723 75.421 129.852L94.625 115.372L113.829 129.852C116.311 131.723 119.732 129.309 118.801 126.344L111.571 103.328L130.979 88.6944C133.427 86.8484 132.122 82.9486 129.056 82.9486H104.838L97.6576 61.291ZM88.0256 84.7591L94.625 64.8547L101.224 84.7591C101.658 86.0662 102.88 86.9486 104.257 86.9486H126.651L108.71 100.477C107.63 101.29 107.18 102.695 107.585 103.985L114.232 125.146L96.5485 111.812C95.4099 110.954 93.8401 110.954 92.7015 111.812L75.0183 125.146L81.665 103.985C82.0701 102.695 81.6197 101.29 80.5405 100.477L62.5994 86.9486H84.9931C86.3701 86.9486 87.5923 86.0662 88.0256 84.7591Z" fill="black"/>
<path fill-rule="evenodd" clip-rule="evenodd" d="M34 54C34 50.6863 36.6863 48 40 48H153C156.314 48 159 50.6863 159 54V154.049C159 157.804 155.014 160.219 151.686 158.481L125.999 145.068C125.931 145.032 125.854 145.013 125.777 145.013H40C36.6863 145.013 34 142.327 34 139.013V54ZM40 52C38.8954 52 38 52.8954 38 54V139.013C38 140.118 38.8954 141.013 40 141.013H125.777C126.499 141.013 127.211 141.188 127.851 141.522L153.537 154.935C154.203 155.283 155 154.8 155 154.049V54C155 52.8954 154.105 52 153 52H40Z" fill="black"/>
</svg>
