<svg width="48" height="48" viewBox="0 0 48 48" fill="none" xmlns="http://www.w3.org/2000/svg">
<path opacity="0.2" d="M24.8348 7.09812C25.1607 6.08839 26.5893 6.08839 26.9152 7.09812L31.1781 20.3064C31.3238 20.7578 31.744 21.0637 32.2183 21.0637H46.0291C47.0862 21.0637 47.5276 22.4149 46.6744 23.039L35.4887 31.2205C35.1081 31.4988 34.949 31.9898 35.0938 32.4384L39.3634 45.6672C39.6888 46.6755 38.5331 47.5106 37.6779 46.8851L26.5202 38.7242C26.136 38.4431 25.614 38.4431 25.2297 38.7242L14.072 46.8851C13.2169 47.5106 12.0611 46.6755 12.3866 45.6672L16.6562 32.4384C16.801 31.9898 16.6418 31.4988 16.2613 31.2205L5.07552 23.039C4.22232 22.4149 4.66373 21.0637 5.72079 21.0637H19.5316C20.0059 21.0637 20.4261 20.7578 20.5718 20.3064L24.8348 7.09812Z" fill="black"/>
<path fill-rule="evenodd" clip-rule="evenodd" d="M21.5102 3.87388C22.1384 1.94895 24.8616 1.94893 25.4897 3.87388L29.7522 16.9358C29.7647 16.974 29.8004 16.9999 29.8406 16.9999H43.7012C45.7164 16.9999 46.5675 19.5685 44.951 20.7719L33.7013 29.1461C33.6693 29.1699 33.6561 29.2114 33.6683 29.2493L37.94 42.4847C38.5632 44.4155 36.3501 46.0147 34.7125 44.8169L23.5549 36.656C23.5222 36.632 23.4778 36.632 23.4451 36.656L12.2874 44.8169C10.6498 46.0147 8.43676 44.4155 9.05992 42.4847L13.3317 29.2493C13.3439 29.2114 13.3306 29.1699 13.2987 29.1461L2.049 20.7719C0.432482 19.5685 1.28356 16.9999 3.29879 16.9999H17.1593C17.1996 16.9999 17.2353 16.974 17.2478 16.9358L21.5102 3.87388ZM23.4299 4.45556C23.4267 4.45989 23.4191 4.4711 23.4115 4.49434L19.1491 17.5562C18.8681 18.4173 18.0651 18.9999 17.1593 18.9999H3.29879C3.27463 18.9999 3.26172 19.0036 3.25656 19.0053C3.25109 19.0072 3.24714 19.0094 3.24334 19.0123C3.23459 19.019 3.21983 19.0355 3.21049 19.0637C3.20115 19.0919 3.20317 19.1139 3.20618 19.1245C3.20748 19.1291 3.20932 19.1332 3.2126 19.138C3.21568 19.1425 3.22387 19.1531 3.24325 19.1676L14.4929 27.5418C15.2119 28.077 15.5103 29.0106 15.235 29.8636L10.9632 43.099C10.9557 43.1224 10.9552 43.1359 10.9553 43.1413C10.9554 43.1471 10.9563 43.1514 10.9579 43.1559C10.9617 43.1661 10.9729 43.1854 10.9973 43.203C11.0217 43.2206 11.0435 43.2253 11.0544 43.2255C11.0591 43.2257 11.0635 43.2252 11.069 43.2235C11.0741 43.2219 11.0869 43.2172 11.1067 43.2027L22.2643 35.0417C23.0002 34.5035 23.9998 34.5035 24.7356 35.0417L35.8933 43.2027C35.9131 43.2172 35.9258 43.2219 35.931 43.2235C35.9364 43.2252 35.9409 43.2257 35.9456 43.2255C35.9565 43.2253 35.9783 43.2206 36.0027 43.203C36.0271 43.1854 36.0383 43.1661 36.042 43.1559C36.0436 43.1514 36.0445 43.1471 36.0446 43.1413C36.0447 43.1359 36.0443 43.1224 36.0367 43.099L31.765 29.8636C31.4897 29.0106 31.7881 28.077 32.507 27.5418L43.7567 19.1676C43.7761 19.1531 43.7843 19.1425 43.7874 19.138C43.7906 19.1332 43.7925 19.1291 43.7938 19.1245C43.7968 19.1139 43.7988 19.0919 43.7895 19.0637C43.7801 19.0355 43.7654 19.019 43.7566 19.0123C43.7528 19.0094 43.7489 19.0072 43.7434 19.0053C43.7382 19.0036 43.7253 18.9999 43.7012 18.9999H29.8406C28.9349 18.9999 28.1319 18.4173 27.8509 17.5562L23.5884 4.49434C23.5808 4.4711 23.5733 4.45989 23.57 4.45556C23.5666 4.45097 23.5633 4.44796 23.5594 4.44529C23.5503 4.43913 23.5299 4.43018 23.5 4.43018C23.47 4.43018 23.4497 4.43913 23.4406 4.44529C23.4367 4.44796 23.4334 4.45097 23.4299 4.45556Z" fill="black"/>
</svg>
