<svg width="196" height="196" viewBox="0 0 196 196" fill="none" xmlns="http://www.w3.org/2000/svg">
<path opacity="0.07" fill-rule="evenodd" clip-rule="evenodd" d="M99.9797 187.514C111.422 185.801 132.078 182.708 144.98 171.916C146.147 170.941 147.501 169.869 148.997 168.687C162.869 157.717 188.837 137.181 188.528 94.9393C188.186 48.1433 171.618 32.0269 146.031 19.1115C120.444 6.19609 69.6683 -6.20065 31.7118 19.2988C-6.24471 44.7982 -0.669382 150.791 31.2195 171.547C63.1083 192.303 86.6848 189.58 97.2624 187.926C98.094 187.796 99.0033 187.66 99.9797 187.514ZM96.7946 42.1301L106.134 73.9998H140.551C144.12 73.9998 145.44 78.6872 142.396 80.5499L114.201 97.8013L125.648 131.723C126.755 135.002 122.976 137.754 120.195 135.693L93.4326 115.867L64.9152 134.646C62.107 136.495 58.5467 133.749 59.6218 130.564L70.4384 98.5113L43.9794 80.4544C41.1069 78.4941 42.4943 73.9998 45.972 73.9998H79.3334L90.0505 42.0016C91.1495 38.7202 95.8214 38.8092 96.7946 42.1301Z" fill="black"/>
<g opacity="0.2">
<path d="M52.025 37.1813C51.1481 35.4495 51.8223 33.3273 53.531 32.4411C55.2397 31.555 57.3357 32.2405 58.2126 33.9723L62.0887 41.627C62.9656 43.3588 62.2914 45.4811 60.5827 46.3672C58.874 47.2534 56.778 46.5678 55.901 44.836L52.025 37.1813Z" fill="black"/>
<path d="M32.6136 36.8588C31.1216 38.0774 30.899 40.2893 32.1164 41.7992L43.1157 55.441C44.3331 56.951 46.5295 57.1871 48.0215 55.9685C49.5135 54.75 49.736 52.5381 48.5186 51.0282L37.5194 37.3863C36.302 35.8764 34.1055 35.6402 32.6136 36.8588Z" fill="black"/>
<path d="M25.0133 60.0427C24.0407 61.712 24.5995 63.867 26.2615 64.856L34.0116 69.468C35.6736 70.457 37.8093 69.9055 38.7819 68.2362C39.7546 66.5668 39.1957 64.4118 37.5337 63.4228L29.7836 58.8109C28.1217 57.8219 25.9859 58.3734 25.0133 60.0427Z" fill="black"/>
<path d="M159.857 59.5518C160.84 61.2149 160.295 63.3749 158.64 64.3763L149.688 69.7934C148.033 70.7948 145.894 70.2584 144.912 68.5952C143.929 66.9321 144.474 64.7721 146.129 63.7707L155.082 58.3536C156.736 57.3522 158.875 57.8887 159.857 59.5518Z" fill="black"/>
<path d="M151.654 45.0415C153.008 43.6537 152.997 41.4282 151.629 40.0708C150.262 38.7133 148.055 38.738 146.701 40.1258L134.248 52.8879C132.894 54.2758 132.905 56.5012 134.273 57.8587C135.641 59.2161 137.847 59.1914 139.201 57.8036L151.654 45.0415Z" fill="black"/>
<path d="M130.131 33.7104C131.92 34.4108 132.809 36.4514 132.117 38.2681L128.911 46.6742C128.218 48.4909 126.206 49.3958 124.417 48.6954C122.627 47.9949 121.738 45.9544 122.431 44.1377L125.637 35.7316C126.329 33.9149 128.342 33.01 130.131 33.7104Z" fill="black"/>
<path d="M39.5518 125.137C41.2806 124.273 41.9873 122.168 41.1303 120.435C40.2732 118.702 38.177 117.998 36.4482 118.863L26.9567 123.608C25.2279 124.473 24.5212 126.578 25.3782 128.311C26.2353 130.044 28.3315 130.748 30.0603 129.883L39.5518 125.137Z" fill="black"/>
<path d="M33.48 150C32.0369 148.718 31.9056 146.502 33.1866 145.051L45.1889 131.453C46.4699 130.001 48.6782 129.864 50.1212 131.146C51.5642 132.428 51.6956 134.643 50.4146 136.095L38.4122 149.693C37.1313 151.144 34.923 151.282 33.48 150Z" fill="black"/>
<path d="M53.5181 153.647C52.9238 155.492 53.9282 157.471 55.7615 158.068C57.5948 158.664 59.5628 157.653 60.1571 155.808L62.6358 148.115C63.2301 146.27 62.2256 144.291 60.3923 143.694C58.559 143.097 56.5911 144.109 55.9968 145.953L53.5181 153.647Z" fill="black"/>
<path d="M161.896 128.098C162.963 126.487 162.524 124.309 160.917 123.234L153.387 118.194C151.78 117.118 149.613 117.551 148.546 119.162C147.48 120.773 147.918 122.951 149.526 124.027L157.055 129.067C158.662 130.143 160.83 129.709 161.896 128.098Z" fill="black"/>
<path d="M154.494 144.307C155.89 145.648 155.944 147.868 154.613 149.266C153.283 150.665 151.072 150.712 149.675 149.371L136.873 137.084C135.477 135.743 135.423 133.523 136.754 132.124C138.084 130.726 140.295 130.679 141.692 132.019L154.494 144.307Z" fill="black"/>
<path d="M132.154 159.684C133.951 158.985 134.844 156.952 134.149 155.142L130.934 146.768C130.24 144.958 128.22 144.057 126.424 144.755C124.628 145.454 123.735 147.487 124.429 149.297L127.644 157.671C128.339 159.481 130.358 160.382 132.154 159.684Z" fill="black"/>
<path d="M100.356 52.8943C99.4645 50.1173 95.5355 50.1173 94.6437 52.8943L86.2842 78.9251C85.8857 80.1661 84.7314 81.0078 83.4279 81.0078H55.0449C52.1573 81.0078 50.9368 84.6875 53.2521 86.4131L75.9719 103.347C77.0008 104.114 77.428 105.451 77.0346 106.672L67.7809 135.411C66.8966 138.158 70.0202 140.447 72.3731 138.777L96.5127 121.641C97.5736 120.888 98.999 120.905 100.042 121.682L122.46 138.391C124.801 140.137 128.003 137.846 127.108 135.066L117.965 106.672C117.572 105.451 117.999 104.114 119.028 103.347L141.748 86.4131C144.063 84.6875 142.843 81.0078 139.955 81.0078H111.572C110.269 81.0078 109.114 80.1661 108.716 78.9251L100.356 52.8943Z" fill="black"/>
</g>
<path fill-rule="evenodd" clip-rule="evenodd" d="M66 10.5L57.5 2L49 10.5L57.5 19L66 10.5ZM57.5 13.3333L54.6667 10.5L57.5 7.66667L60.3333 10.5L57.5 13.3333Z" fill="black"/>
<path d="M83 6L79 2L75 6L79 10L83 6Z" fill="black"/>
<path fill-rule="evenodd" clip-rule="evenodd" d="M90.0505 42.0018C91.1495 38.7205 95.8213 38.8095 96.7946 42.1303L106.134 74H140.551C144.12 74 145.44 78.6874 142.396 80.5501L114.201 97.8015L125.648 131.723C126.755 135.003 122.976 137.754 120.195 135.693L93.4326 115.868L64.9151 134.646C62.107 136.496 58.5467 133.75 59.6217 130.564L70.4383 98.5115L43.9794 80.4547C41.1069 78.4943 42.4943 74 45.972 74H79.3334L90.0505 42.0018ZM93.3728 44.6773L83.02 75.5878C82.5374 77.0287 81.1878 78 79.6681 78H47.4786L72.9844 95.4063C74.2933 96.2996 74.8478 97.9549 74.3411 99.4564L63.8438 130.563L91.5042 112.348C92.7433 111.532 94.3602 111.577 95.5525 112.46L121.384 131.596L110.292 98.7288C109.764 97.1652 110.389 95.4445 111.797 94.5832L138.899 78H105.786C104.217 78 102.835 76.9653 102.394 75.4593L93.3728 44.6773Z" fill="black"/>
<path d="M119 177C119 175.895 118.105 175 117 175C115.895 175 115 175.895 115 177V181H111C109.895 181 109 181.895 109 183C109 184.105 109.895 185 111 185H115V189C115 190.105 115.895 191 117 191C118.105 191 119 190.105 119 189V185H123C124.105 185 125 184.105 125 183C125 181.895 124.105 181 123 181H119V177Z" fill="black"/>
</svg>
