<svg width="48" height="48" viewBox="0 0 48 48" fill="none" xmlns="http://www.w3.org/2000/svg">
<path opacity="0.2" fill-rule="evenodd" clip-rule="evenodd" d="M6.25 7C5.55964 7 5 7.55964 5 8.25V37.75C5 38.4404 5.55964 39 6.25 39H32.6502C32.879 39 33.1034 39.0628 33.299 39.1815L45.481 46.5778C46.1474 46.9824 47 46.5026 47 45.723V8.25C47 7.55964 46.4404 7 45.75 7H6.25ZM25.0754 11.2829L27.4337 18.5896C27.5143 18.8393 27.7467 19.0085 28.0091 19.0085H35.6491C36.2339 19.0085 36.4781 19.756 36.0061 20.1012L29.8182 24.6272C29.6077 24.7811 29.5197 25.0527 29.5998 25.3009L31.9617 32.6189C32.1417 33.1767 31.5024 33.6387 31.0293 33.2927L24.857 28.7781C24.6444 28.6226 24.3556 28.6226 24.143 28.7781L17.9707 33.2927C17.4976 33.6387 16.8583 33.1767 17.0383 32.6189L19.4002 25.3009C19.4803 25.0527 19.3923 24.7811 19.1818 24.6272L12.9939 20.1012C12.5219 19.756 12.7661 19.0085 13.3509 19.0085H20.9909C21.2533 19.0085 21.4857 18.8393 21.5663 18.5896L23.9246 11.2829C24.1049 10.7243 24.8951 10.7243 25.0754 11.2829Z" fill="black"/>
<path fill-rule="evenodd" clip-rule="evenodd" d="M1 5.25C1 4.00736 2.00736 3 3.25 3H42.75C43.9926 3 45 4.00736 45 5.25V40.3155C45 41.8336 43.375 42.7982 42.0423 42.0713L32.801 37.0305C32.7642 37.0105 32.7231 37 32.6813 37H3.25C2.00736 37 1 35.9926 1 34.75V5.25ZM3.25 5C3.11193 5 3 5.11193 3 5.25V34.75C3 34.8881 3.11193 35 3.25 35H32.6813C33.0577 35 33.4282 35.0945 33.7587 35.2747L43 40.3155V5.25C43 5.11193 42.8881 5 42.75 5H3.25Z" fill="black"/>
<path fill-rule="evenodd" clip-rule="evenodd" d="M20.4729 7.97572C20.9514 6.49335 23.0486 6.49334 23.5271 7.97572L25.7969 15.0085H33.1491C34.701 15.0085 35.349 16.9922 34.0964 17.9083L28.1392 22.2656L30.4133 29.3118C30.8911 30.7921 29.1944 32.0181 27.9389 31.0998L22 26.756L16.0611 31.0998C14.8056 32.0181 13.1089 30.7921 13.5867 29.3118L15.8608 22.2656L9.90356 17.9083C8.65099 16.9922 9.29902 15.0085 10.8509 15.0085H18.2031L20.4729 7.97572ZM22 9.75574L20.018 15.8967C19.8041 16.5594 19.1872 17.0085 18.4909 17.0085H12.0611L17.2721 20.82C17.8308 21.2286 18.0645 21.9494 17.8519 22.6081L15.8645 28.7657L21.0527 24.971C21.6168 24.5584 22.3832 24.5584 22.9473 24.971L28.1355 28.7657L26.1481 22.6081C25.9355 21.9494 26.1692 21.2286 26.7279 20.82L31.9389 17.0085H25.5091C24.8128 17.0085 24.1959 16.5594 23.982 15.8967L22 9.75574Z" fill="black"/>
</svg>
