<svg width="96" height="96" viewBox="0 0 96 96" fill="none" xmlns="http://www.w3.org/2000/svg">
<g opacity="0.2">
<path d="M68.2517 5.633C69.2589 6.05701 69.7388 7.2407 69.3236 8.27684L67.3236 13.2679C66.9084 14.3041 65.7554 14.8003 64.7482 14.3763C63.741 13.9523 63.2611 12.7686 63.6763 11.7324L65.6763 6.74133C66.0915 5.7052 67.2445 5.20898 68.2517 5.633Z" fill="black"/>
<path d="M22.3452 10.406C21.8627 9.39928 22.2612 8.18193 23.2353 7.68699C24.2094 7.19206 25.3902 7.60698 25.8727 8.61373L28.2639 13.6033C28.7463 14.6101 28.3478 15.8274 27.3737 16.3224C26.3996 16.8173 25.2188 16.4024 24.7363 15.3956L22.3452 10.406Z" fill="black"/>
<path d="M10.2508 10.9164C9.4015 11.6078 9.27234 12.8772 9.96231 13.7517L16.6242 22.1951C17.3142 23.0696 18.562 23.218 19.4113 22.5266C20.2606 21.8351 20.3897 20.5657 19.6997 19.6912L13.0379 11.2478C12.3479 10.3733 11.1001 10.2249 10.2508 10.9164Z" fill="black"/>
<path d="M4.78305 25.4696C4.23707 26.4283 4.56321 27.6667 5.5115 28.2357L10.5115 31.2357C11.4598 31.8046 12.6712 31.4887 13.2171 30.53C13.7631 29.5714 13.437 28.3329 12.4887 27.764L7.48866 24.764C6.54037 24.195 5.32903 24.5109 4.78305 25.4696Z" fill="black"/>
<path d="M87.0674 23.2459C87.739 24.1178 87.5816 25.386 86.716 26.0785L81.716 30.0785C80.8503 30.7711 79.6041 30.6257 78.9326 29.7538C78.261 28.8819 78.4183 27.6137 79.284 26.9212L84.284 22.9212C85.1496 22.2286 86.3958 22.374 87.0674 23.2459Z" fill="black"/>
<path d="M81.9757 13.83C82.7079 12.9933 82.6407 11.7195 81.8257 10.9849C81.0106 10.2503 79.7563 10.3332 79.0242 11.17L72.0241 19.17C71.292 20.0068 71.3591 21.2806 72.1742 22.0151C72.9892 22.7497 74.2435 22.6668 74.9757 21.83L81.9757 13.83Z" fill="black"/>
<path d="M14.3869 70.2926C15.3748 69.7987 15.7786 68.5956 15.2889 67.6054C14.7992 66.6153 13.6013 66.2131 12.6134 66.707L6.61341 69.7071C5.62552 70.201 5.22169 71.4041 5.71143 72.3942C6.20117 73.3844 7.39903 73.7866 8.38692 73.2927L14.3869 70.2926Z" fill="black"/>
<path d="M11.2116 86.3646C10.3694 85.6525 10.2635 84.3887 10.9752 83.5417L17.9752 75.2105C18.6868 74.3635 19.9465 74.2542 20.7887 74.9662C21.6309 75.6782 21.7368 76.9421 21.0251 77.7891L14.0251 86.1202C13.3135 86.9672 12.0538 87.0766 11.2116 86.3646Z" fill="black"/>
<path d="M23.6428 88.771C23.2421 89.8031 23.7488 90.9661 24.7746 91.3687C25.8004 91.7712 26.9568 91.2607 27.3575 90.2286L29.1921 85.5031C29.5928 84.4709 29.086 83.3079 28.0602 82.9054C27.0345 82.5029 25.8781 83.0133 25.4774 84.0454L23.6428 88.771Z" fill="black"/>
<path d="M90.2154 71.5291C90.7794 70.5798 90.4687 69.3494 89.5213 68.7809L84.5212 65.781C83.5738 65.2125 82.3485 65.5213 81.7845 66.4707C81.2204 67.42 81.5312 68.6504 82.4786 69.2188L87.4786 72.2188C88.426 72.7872 89.6513 72.4785 90.2154 71.5291Z" fill="black"/>
<path d="M85.9073 82.0828C86.6894 82.8648 86.6932 84.1333 85.9159 84.9162C85.1385 85.699 83.8745 85.6996 83.0924 84.9176L75.0924 76.9176C74.3104 76.1356 74.3066 74.867 75.0839 74.0842C75.8612 73.3014 77.1253 73.3007 77.9073 74.0828L85.9073 82.0828Z" fill="black"/>
<path d="M71.2444 91.3613C72.2661 90.9482 72.7609 89.78 72.3497 88.752L70.3497 83.7521C69.9385 82.7241 68.777 82.2256 67.7553 82.6387C66.7337 83.0518 66.2389 84.22 66.6501 85.2479L68.6501 90.2479C69.0613 91.2759 70.2228 91.7744 71.2444 91.3613Z" fill="black"/>
<path d="M51.465 23.6877C51.0162 22.2516 48.9837 22.2516 48.535 23.6877L42.8366 41.9226C42.6363 42.5634 42.0429 42.9997 41.3715 42.9997H22.232C20.7443 42.9997 20.1266 44.904 21.3311 45.7772L36.6004 56.8475C37.1372 57.2367 37.3634 57.9265 37.1613 58.5579L30.9096 78.0946C30.4594 79.5014 32.0616 80.6699 33.2636 79.8114L49.5857 68.1527C50.1301 67.7639 50.8636 67.7724 51.3988 68.1738L66.6507 79.6128C67.847 80.5099 69.4893 79.3412 69.0335 77.9171L62.8386 58.5579C62.6366 57.9265 62.8628 57.2367 63.3996 56.8475L78.6689 45.7772C79.8733 44.904 79.2556 42.9997 77.768 42.9997H58.6284C57.9571 42.9997 57.3636 42.5634 57.1634 41.9226L51.465 23.6877Z" fill="black"/>
</g>
<path fill-rule="evenodd" clip-rule="evenodd" d="M43.5232 18.687C44.464 15.8644 48.4827 15.9407 49.3158 18.797L54.6177 36.9748C54.622 36.9897 54.6357 36.9999 54.6512 36.9999H74.1692C77.215 36.9999 78.3625 40.9854 75.783 42.605L59.8189 52.629C59.8053 52.6376 59.7993 52.6543 59.8044 52.6696L66.3692 72.3642C67.3101 75.1868 64.0494 77.537 61.6692 75.7518L46.4688 64.3515C46.4569 64.3426 46.4408 64.3422 46.4285 64.3504L30.0542 75.2666C27.6499 76.8695 24.5778 74.5231 25.4916 71.7817L31.7149 53.1118C31.7198 53.0972 31.7145 53.081 31.7018 53.0722L16.6288 42.5211C14.198 40.8195 15.402 36.9999 18.3692 36.9999H37.3937C37.4087 36.9999 37.4221 36.9903 37.4268 36.9761L43.5232 18.687ZM46.3776 19.6146C46.3754 19.6191 46.3725 19.6259 46.3692 19.6357L40.2729 37.9248C39.8598 39.164 38.7 39.9999 37.3937 39.9999H18.3692C18.3589 39.9999 18.3516 40.0006 18.3466 40.0012C18.3432 40.0065 18.3391 40.0143 18.336 40.0243C18.3328 40.0343 18.3316 40.0431 18.3315 40.0494C18.3351 40.0527 18.3408 40.0575 18.3492 40.0634L33.4222 50.6145C34.5225 51.3847 34.9857 52.7864 34.561 54.0605L28.3377 72.7304C28.3345 72.74 28.3328 72.747 28.332 72.7515C28.3348 72.7555 28.3402 72.762 28.3496 72.7691C28.3589 72.7763 28.3666 72.7798 28.3712 72.7814C28.3754 72.7795 28.3816 72.7761 28.3901 72.7704L44.7644 61.8542C45.835 61.1405 47.2394 61.1795 48.2688 61.9515L63.4692 73.3518C63.4774 73.358 63.4837 73.3619 63.488 73.3643C63.494 73.3622 63.502 73.3583 63.5105 73.3522C63.519 73.3461 63.5252 73.3397 63.5291 73.3347C63.5282 73.3298 63.5264 73.3226 63.5232 73.3128L56.9583 53.6183C56.5158 52.2906 57.0384 50.8325 58.2236 50.0883L74.1877 40.0644C74.1965 40.0588 74.2027 40.0543 74.2068 40.0509C74.2067 40.0443 74.2056 40.0353 74.2027 40.0252C74.1998 40.015 74.1959 40.0068 74.1925 40.0012C74.1872 40.0005 74.1796 39.9999 74.1692 39.9999H54.6512C53.3023 39.9999 52.1154 39.1097 51.7377 37.8148L46.4358 19.637C46.4329 19.6271 46.4302 19.6201 46.4282 19.6156C46.4222 19.6137 46.4135 19.612 46.403 19.6118C46.3925 19.6116 46.3837 19.613 46.3776 19.6146Z" fill="black"/>
</svg>
