<svg width="48" height="48" viewBox="0 0 48 48" fill="none" xmlns="http://www.w3.org/2000/svg">
<g opacity="0.2">
<path d="M28.875 2.5C28.875 1.74061 28.2594 1.125 27.5 1.125C26.7406 1.125 26.125 1.74061 26.125 2.5V10.5C26.125 11.2594 26.7406 11.875 27.5 11.875C28.2594 11.875 28.875 11.2594 28.875 10.5V2.5Z" fill="black"/>
<path d="M19.9926 26.2685C10.6076 15.7712 12.5542 10.9744 12.5542 10.9744C12.5542 10.9744 20.1313 12.3647 28.126 21.0546C36.1206 29.7444 37.625 36.375 37.625 36.375C37.625 36.375 29.3776 36.7658 19.9926 26.2685Z" fill="black"/>
<path d="M14.7092 32.1082C10.2511 27.7375 8.1049 23.2793 8.1049 23.2793L4.55945 34.0547C4.55945 34.0547 5.8803 36.905 8.52201 39.4771C11.1637 42.0493 14.7092 43.5092 14.7092 43.5092L25.8322 40.2419C25.8322 40.2419 19.1672 36.4788 14.7092 32.1082Z" fill="black"/>
<path d="M45.5 21.875L37.5 21.8751C36.7406 21.8751 36.125 21.2595 36.125 20.5001C36.125 19.7407 36.7406 19.1251 37.5 19.1251L45.5 19.125C46.2594 19.125 46.875 19.7406 46.875 20.5C46.875 21.2594 46.2594 21.875 45.5 21.875Z" fill="black"/>
<path d="M42.9723 6.97227C43.5092 6.4353 43.5092 5.5647 42.9723 5.02773C42.4353 4.49076 41.5647 4.49076 41.0277 5.02773L32.0277 14.0277C31.4908 14.5647 31.4908 15.4353 32.0277 15.9723C32.5647 16.5092 33.4353 16.5092 33.9723 15.9723L42.9723 6.97227Z" fill="black"/>
</g>
<path d="M34.875 6.53125C34.875 7.29064 34.2594 7.90625 33.5 7.90625C32.7406 7.90625 32.125 7.29064 32.125 6.53125C32.125 5.77186 32.7406 5.15625 33.5 5.15625C34.2594 5.15625 34.875 5.77186 34.875 6.53125Z" fill="black"/>
<path fill-rule="evenodd" clip-rule="evenodd" d="M30.0735 17.5065C25.7631 13.196 21.7426 10.4077 18.723 8.82346C17.2192 8.03448 15.9338 7.52839 14.9651 7.29128C14.4905 7.17511 14.0287 7.10739 13.6298 7.13595C13.3233 7.1579 12.562 7.28199 12.3083 8.04301L1.23389 41.4409C0.692321 42.9661 1.11164 44.7378 2.28054 45.858C3.4391 46.9683 5.20578 47.3156 6.69827 46.7317L40.0609 37.0446L40.1291 37.0132C40.5577 36.8154 40.7277 36.4362 40.7937 36.2192C40.8639 35.9882 40.878 35.7497 40.8746 35.5474C40.8676 35.1341 40.7808 34.6306 40.6402 34.0797C40.3553 32.9631 39.802 31.4707 38.9621 29.7482C37.279 26.2969 34.4032 21.8362 30.0735 17.5065ZM13.2594 11.5291C13.5429 12.1988 13.8876 12.9577 14.3013 13.7851C15.8676 16.9177 18.4289 21.044 22.4138 25.0289C26.3791 28.9943 30.6196 31.9612 33.8629 33.9354C35.1359 34.7102 36.258 35.3338 37.1533 35.8063L29.1729 38.1235L29.1252 38.1003C28.9557 38.0176 28.7041 37.8918 28.3835 37.7231C27.742 37.3854 26.8252 36.8763 25.7365 36.1958C23.5562 34.8331 20.7013 32.7929 17.9885 30.08C15.2662 27.3577 13.3632 24.7741 12.1439 22.8774C11.5345 21.9293 11.0965 21.1539 10.8129 20.6201C10.6711 20.3532 10.568 20.1469 10.5014 20.0096L10.4694 19.9432L13.2594 11.5291ZM7.09002 30.1346L9.60277 22.5567C9.84333 22.9706 10.1288 23.4412 10.4616 23.9589C11.7449 25.9553 13.7351 28.655 16.5743 31.4942C19.4229 34.3429 22.4076 36.4737 24.6765 37.8918C25.3173 38.2923 25.9022 38.6367 26.4123 38.925L18.399 41.2517L18.3979 41.2512C18.3737 41.2408 18.3358 41.2243 18.285 41.2014C18.1834 41.1557 18.0306 41.085 17.8344 40.9884C17.4418 40.7952 16.8768 40.4992 16.2019 40.0943C14.8499 39.2831 13.0702 38.0426 11.3544 36.3269C9.63896 34.6114 8.55302 33.0037 7.8998 31.8378C7.57313 31.2547 7.35474 30.7822 7.22014 30.4622C7.16152 30.3228 7.11882 30.2125 7.09002 30.1346ZM6.184 32.8669C6.91855 34.1684 8.10481 35.9057 9.94022 37.7411C11.7997 39.6005 13.7194 40.9372 15.1729 41.8093C15.3218 41.8987 15.466 41.9832 15.6048 42.063L6.04385 44.8391L5.99545 44.8588C5.22312 45.1736 4.2665 44.9911 3.66436 44.414C3.06221 43.837 2.83914 42.889 3.12078 42.104L3.12489 42.0925L6.184 32.8669ZM38.6348 34.3225C37.7054 33.8463 36.4154 33.1477 34.9028 32.227C31.7504 30.3081 27.6487 27.4354 23.828 23.6147C20.0268 19.8135 17.5827 15.8757 16.0902 12.8906C15.3443 11.3989 14.8375 10.148 14.5187 9.27541L14.5049 9.2377C15.2626 9.42523 16.3849 9.85529 17.7938 10.5945C20.6187 12.0766 24.4782 14.7397 28.6593 18.9207C32.8212 23.0826 35.5714 27.3581 37.1644 30.6248C37.8946 32.1221 38.3729 33.3897 38.6348 34.3225Z" fill="black"/>
<path d="M42.875 26.5312C42.875 27.2906 42.2594 27.9062 41.5 27.9062C40.7406 27.9062 40.125 27.2906 40.125 26.5312C40.125 25.7719 40.7406 25.1562 41.5 25.1562C42.2594 25.1562 42.875 25.7719 42.875 26.5312Z" fill="black"/>
<path d="M41.5 15.9062C42.2594 15.9062 42.875 15.2906 42.875 14.5312C42.875 13.7719 42.2594 13.1562 41.5 13.1562C40.7406 13.1562 40.125 13.7719 40.125 14.5312C40.125 15.2906 40.7406 15.9062 41.5 15.9062Z" fill="black"/>
<path d="M21.5 7.90625C22.2594 7.90625 22.875 7.29064 22.875 6.53125C22.875 5.77186 22.2594 5.15625 21.5 5.15625C20.7406 5.15625 20.125 5.77186 20.125 6.53125C20.125 7.29064 20.7406 7.90625 21.5 7.90625Z" fill="black"/>
</svg>
