<svg width="97" height="96" viewBox="0 0 97 96" fill="none" xmlns="http://www.w3.org/2000/svg">
<path opacity="0.2" fill-rule="evenodd" clip-rule="evenodd" d="M57.375 2.375C57.375 1.06332 56.3117 0 55 0C53.6883 0 52.625 1.06332 52.625 2.375V19.625C52.625 20.9367 53.6883 22 55 22C56.3117 22 57.375 20.9367 57.375 19.625V2.375ZM36.875 50.375C15.625 25.625 25.2501 18.5 25.2501 18.5C25.2501 18.5 39.6882 21.9763 56.5 40.25C73.3118 58.5237 78.25 73.75 78.25 73.75C67.625 77.625 44.0441 58.3938 36.875 50.375ZM28.7259 64.7624C19.3511 55.5714 14.8379 46.1963 14.8379 46.1963L7.3822 68.8557C7.3822 68.8557 10.0698 75.091 15.625 80.5C21.1802 85.909 28.7259 88.7375 28.7259 88.7375L52.1162 81.8665C52.1162 81.8665 38.1006 73.9533 28.7259 64.7624ZM74.0312 40.0312C74.0312 38.7196 75.0946 37.6562 76.4062 37.6562H93.6562C94.9679 37.6562 96.0312 38.7196 96.0312 40.0312C96.0312 41.3429 94.9679 42.4062 93.6562 42.4062H76.4062C75.0946 42.4062 74.0312 41.3429 74.0312 40.0312ZM87.7946 11.5395C88.7221 10.612 88.7221 9.10822 87.7946 8.18073C86.8671 7.25323 85.3634 7.25323 84.4359 8.18073L65.51 27.1067C64.5825 28.0342 64.5825 29.5379 65.51 30.4654C66.4374 31.3929 67.9412 31.3929 68.8687 30.4654L87.7946 11.5395Z" fill="black"/>
<path d="M44.875 10.5C44.875 11.8117 43.8117 12.875 42.5 12.875C41.1883 12.875 40.125 11.8117 40.125 10.5C40.125 9.18832 41.1883 8.125 42.5 8.125C43.8117 8.125 44.875 9.18832 44.875 10.5Z" fill="black"/>
<path d="M67.5 12.875C68.8117 12.875 69.875 11.8117 69.875 10.5C69.875 9.18832 68.8117 8.125 67.5 8.125C66.1883 8.125 65.125 9.18832 65.125 10.5C65.125 11.8117 66.1883 12.875 67.5 12.875Z" fill="black"/>
<path d="M86.875 27.2839C86.875 28.5956 85.8117 29.6589 84.5 29.6589C83.1883 29.6589 82.125 28.5956 82.125 27.2839C82.125 25.9723 83.1883 24.9089 84.5 24.9089C85.8117 24.9089 86.875 25.9723 86.875 27.2839Z" fill="black"/>
<path d="M86.875 52.5183C86.875 53.83 85.8117 54.8933 84.5 54.8933C83.1883 54.8933 82.125 53.83 82.125 52.5183C82.125 51.2066 83.1883 50.1433 84.5 50.1433C85.8117 50.1433 86.875 51.2066 86.875 52.5183Z" fill="black"/>
<path fill-rule="evenodd" clip-rule="evenodd" d="M36.8864 16.3312C33.7498 14.6856 31.0942 13.644 29.1208 13.161C28.1487 12.923 27.2475 12.7965 26.4991 12.8501C25.8893 12.8937 24.6559 13.1263 24.249 14.3468L0.867752 84.8564C-0.0523232 87.7786 0.788157 91.115 3.00708 93.2414C5.28007 95.4197 8.75991 96.0988 11.6851 94.9427L81.8261 74.5769L81.9283 74.5297C82.6054 74.2171 82.8861 73.6124 83.0017 73.2322C83.1236 72.8308 83.1525 72.3995 83.1458 72.0049C83.1322 71.2027 82.962 70.1953 82.6716 69.0572C82.0853 66.7592 80.9387 63.6601 79.185 60.0639C75.6729 52.8617 69.6632 43.5373 60.609 34.4831C51.5836 25.4577 43.1776 19.632 36.8864 16.3312ZM3.7894 85.5787L10.6642 64.8419C10.8447 65.1916 11.0439 65.5633 11.2633 65.9549C12.7792 68.6607 15.2562 72.3141 19.1236 76.1815C22.9905 80.0484 26.9852 82.8303 30.0112 84.6459L30.4002 84.8772C31.0392 85.2536 31.6312 85.5853 32.1652 85.8733L10.7021 92.1042L10.4062 92.2183C8.60522 92.8495 6.46331 92.3984 5.08279 91.0754C3.64476 89.6973 3.11678 87.4535 3.7894 85.5787ZM12.0654 60.6189L17.842 43.2C18.3515 44.1194 19.0017 45.2373 19.8023 46.5146L20.3008 47.2998C22.9802 51.4679 27.1389 57.1102 33.0742 63.0454C39.0236 68.9948 45.2609 73.4485 50.0054 76.4138L50.4408 76.6844C51.734 77.4834 52.9095 78.1685 53.9292 78.7398L54.8957 79.2731L36.4647 84.6237C36.2495 84.5378 36.0468 84.4563 35.9981 84.4344L35.368 84.1411L34.6191 83.7716C33.8172 83.3655 32.769 82.802 31.5547 82.0734L31.1908 81.8531C28.3658 80.1276 24.7442 77.5595 21.2449 74.0602C17.594 70.4093 15.278 66.9829 13.8806 64.4886L13.7106 64.1817C13.2149 63.2757 12.8461 62.5052 12.5822 61.9074L12.4216 61.5349C12.3245 61.3042 12.2473 61.1093 12.1879 60.9536L12.0654 60.6189ZM19.162 39.2198L25.6815 19.5573C26.3546 21.3367 27.3046 23.6076 28.5981 26.2201L28.8083 26.6415C32.005 33.0056 37.2113 41.3069 45.3541 49.4496C53.2238 57.3193 61.6159 63.3128 68.2565 67.4376L69.3176 68.0901C72.5547 70.0606 75.3251 71.5633 77.3431 72.5987L77.537 72.6969L59.0886 78.0557L58.4734 77.7559C58.2503 77.645 57.9856 77.5114 57.6828 77.3551L56.6636 76.8182C55.5369 76.2133 54.0991 75.4048 52.4419 74.3928L51.5954 73.8698C46.9838 70.9876 40.9413 66.6699 35.1955 60.9241C29.7847 55.5133 25.9023 50.36 23.31 46.4239L22.8243 45.6775C21.6943 43.9198 20.8415 42.4406 20.2417 41.3372L19.8906 40.6806C19.7851 40.4797 19.691 40.297 19.608 40.1335L19.3349 39.5842L19.162 39.2198ZM27.801 16.5778L27.5809 15.9052C27.817 15.9427 28.0919 15.9976 28.4075 16.0749C30.0646 16.4806 32.484 17.4093 35.4926 18.9878C41.4917 22.1353 49.6564 27.7731 58.4877 36.6044C67.2901 45.4069 73.1114 54.4535 76.4885 61.3788C78.1794 64.8462 79.2419 67.7499 79.7647 69.7989L79.83 70.0619L79.9413 70.5492C79.6535 70.4067 79.3396 70.2493 79.0012 70.077L78.4127 69.775C76.4789 68.775 73.8864 67.359 70.8774 65.5275L70.3333 65.1946C63.7528 61.1462 55.3352 55.188 47.4754 47.3282C39.4259 39.2787 34.3488 31.0736 31.2866 24.8889L31.0608 24.429C29.6543 21.5409 28.6983 19.1237 28.0897 17.412L27.9865 17.1191C27.92 16.9287 27.8582 16.7481 27.801 16.5778Z" fill="black"/>
</svg>
