<svg width="196" height="196" viewBox="0 0 196 196" fill="none" xmlns="http://www.w3.org/2000/svg">
<path opacity="0.07" fill-rule="evenodd" clip-rule="evenodd" d="M56.6883 173.589C56.8854 173.63 57.0445 173.662 57.1629 173.688C67.1429 175.886 77.4964 175.75 91.1548 175.57C102.167 175.424 115.327 175.251 132.173 176.25C169.911 178.487 174.536 165.835 189 122C203.464 78.1651 181.279 46.4535 147.5 19.0001C118.711 -4.39808 77.4026 12.7404 54.8641 22.0914C50.958 23.7121 47.6157 25.0988 45 26C27.2914 32.1017 14.529 54.4191 11.1762 109.877C7.92818 163.602 50.5749 172.337 56.6883 173.589ZM123.788 70.1718C137.383 83.7673 146.405 97.7669 151.676 108.575C154.308 113.972 156.025 118.616 156.901 122.051C157.336 123.754 157.587 125.247 157.606 126.425C157.616 127.006 157.573 127.625 157.401 128.192C157.237 128.732 156.847 129.56 155.924 129.986L155.788 130.049L50.3075 160.676C45.9988 162.384 40.8654 161.384 37.5163 158.174C34.1471 154.946 32.9356 149.817 34.5014 145.422L69.5284 39.7883C70.0866 38.1139 71.7857 37.7762 72.6879 37.7116C73.775 37.6337 75.1007 37.8173 76.5516 38.1724C79.4926 38.8923 83.4663 40.4491 88.1725 42.9183C97.6091 47.8694 110.231 56.6148 123.788 70.1718Z" fill="black"/>
<g opacity="0.2">
<path d="M117 24C117 21.9289 115.571 20 113.5 20C111.429 20 110 21.9289 110 24V47C110 49.0711 111.429 51 113.5 51C115.571 51 117 49.0711 117 47V24Z" fill="black"/>
<path d="M89.6121 89.5751C57.4203 48.0037 72.8868 44.0906 72.8868 44.0906C72.8868 44.0906 94.6008 49.3187 119.885 76.8011C145.168 104.283 152.595 127.183 152.595 127.183C136.616 133.01 100.394 101.635 89.6121 89.5751Z" fill="black"/>
<path d="M78.8128 115C64.7138 101.177 57.9262 87.0779 57.9262 87.0779L46.7134 119.356C46.7134 119.356 50.7553 128.734 59.11 136.869C67.4646 145.003 78.8128 149.257 78.8128 149.257L113.99 140.723C113.99 140.723 92.9118 128.823 78.8128 115Z" fill="black"/>
<path d="M144 79.5C144 77.4289 145.929 76 148 76H171C173.071 76 175 77.4289 175 79.5C175 81.5711 173.071 83 171 83H148C145.929 83 144 81.5711 144 79.5Z" fill="black"/>
<path d="M160.475 40.115C161.94 38.6506 161.94 36.2762 160.475 34.8117C159.011 33.3473 156.636 33.3473 155.172 34.8117L130.612 59.372C129.147 60.8365 129.147 63.2108 130.612 64.6753C132.076 66.1398 134.45 66.1398 135.915 64.6753L160.475 40.115Z" fill="black"/>
</g>
<path d="M137.43 32.4119C137.43 34.4829 135.751 36.1619 133.68 36.1619C131.609 36.1619 129.93 34.4829 129.93 32.4119C129.93 30.3408 131.609 28.6619 133.68 28.6619C135.751 28.6619 137.43 30.3408 137.43 32.4119Z" fill="black"/>
<path d="M30 38C30 36.8954 29.1046 36 28 36C26.8954 36 26 36.8954 26 38V42H22C20.8954 42 20 42.8954 20 44C20 45.1046 20.8954 46 22 46H26V50C26 51.1046 26.8954 52 28 52C29.1046 52 30 51.1046 30 50V46H34C35.1046 46 36 45.1046 36 44C36 42.8954 35.1046 42 34 42H30V38Z" fill="black"/>
<path d="M92.7188 174.031L88.4761 169.789L84.2335 174.031L88.4761 178.274L92.7188 174.031Z" fill="black"/>
<path fill-rule="evenodd" clip-rule="evenodd" d="M173.875 167.233L165.39 158.748L156.904 167.233L165.39 175.719L173.875 167.233ZM165.39 170.062L162.561 167.233L165.39 164.405L168.218 167.233L165.39 170.062Z" fill="black"/>
<path fill-rule="evenodd" clip-rule="evenodd" d="M88.1725 42.9183C97.6091 47.8693 110.231 56.6148 123.788 70.1718C137.383 83.7672 146.405 97.7668 151.676 108.575C154.308 113.972 156.025 118.616 156.901 122.051C157.336 123.754 157.587 125.247 157.606 126.425C157.616 127.006 157.573 127.625 157.401 128.192C157.237 128.732 156.847 129.56 155.924 129.986L155.788 130.049L50.3075 160.676C45.9988 162.384 40.8654 161.384 37.5163 158.174C34.1471 154.946 32.9356 149.817 34.5014 145.422L69.5275 39.7912L69.5284 39.7882C70.0866 38.1138 71.7857 37.7761 72.6879 37.7115C73.775 37.6337 75.1007 37.8172 76.5516 38.1724C79.4926 38.8923 83.4663 40.4491 88.1725 42.9183ZM75.6006 42.0577C74.9317 41.894 74.3771 41.7945 73.9305 41.7418C74.1427 42.4243 74.4356 43.32 74.8206 44.4029C75.7871 47.121 77.3334 51.0159 79.6404 55.6755C84.2555 64.9965 91.9063 77.3607 104.036 89.49C116.203 101.657 129.256 110.797 139.278 116.898C144.286 119.946 148.529 122.23 151.513 123.75C152.211 124.105 152.84 124.418 153.393 124.69C153.303 124.204 153.182 123.654 153.025 123.04C152.234 119.937 150.629 115.554 148.08 110.328C142.99 99.8892 134.219 86.26 120.959 73.0002C107.661 59.702 95.3612 51.2071 86.3141 46.4604C81.7785 44.0807 78.1198 42.6743 75.6006 42.0577ZM76.0558 57.4503C73.946 53.1892 72.4455 49.5342 71.4259 46.7749L61.3606 77.1294L61.3707 77.1517L61.38 77.1721L61.3893 77.1924L61.4264 77.2727C61.4775 77.3828 61.5567 77.5511 61.665 77.7742C61.8816 78.2205 62.2141 78.8858 62.6694 79.7428C63.5801 81.457 64.9814 83.9373 66.9277 86.9649C70.8211 93.0213 76.89 101.26 85.5675 109.937C94.2261 118.596 103.33 125.101 110.277 129.443C113.748 131.612 116.672 133.236 118.723 134.316C119.748 134.855 120.555 135.258 121.101 135.525C121.336 135.64 121.523 135.729 121.659 135.793L150.121 127.529L149.926 127.43L149.698 127.314C146.636 125.756 142.304 123.423 137.199 120.315C126.994 114.103 113.664 104.775 101.207 92.3185C88.7123 79.8236 80.8239 67.0805 76.0558 57.4503ZM116.046 137.423C113.993 136.321 111.289 134.792 108.157 132.835C101.033 128.382 91.6691 121.696 82.739 112.766C73.8278 103.854 67.5845 95.3836 63.563 89.1279C61.8474 86.4592 60.5352 84.1921 59.5918 82.4639L50.6931 109.3C50.714 109.362 50.7466 109.456 50.7919 109.581C50.8881 109.846 51.0416 110.249 51.2622 110.774C51.7035 111.823 52.4131 113.357 53.4691 115.242C55.5808 119.011 59.0776 124.184 64.5868 129.693C70.0966 135.203 75.8065 139.182 80.1414 141.783C82.3065 143.082 84.1221 144.033 85.3889 144.656C86.0221 144.968 86.5177 145.198 86.8505 145.347C87.017 145.422 87.1427 145.477 87.2245 145.512C87.2654 145.53 87.2954 145.543 87.314 145.55L87.3353 145.559C87.4239 145.596 87.5084 145.638 87.5886 145.685L116.046 137.423ZM49.9794 117.197C49.5349 116.404 49.1457 115.665 48.8069 114.989L38.2832 146.726L38.275 146.749C37.2293 149.663 38.0483 153.144 40.284 155.286C42.5196 157.429 46.032 158.099 48.8994 156.93L48.9962 156.891L81.8647 147.347C80.7758 146.772 79.4989 146.062 78.0834 145.213C73.5454 142.49 67.5556 138.318 61.7584 132.521C55.9606 126.723 52.2491 121.248 49.9794 117.197Z" fill="black"/>
<path d="M164.88 100.26C164.88 102.331 163.201 104.01 161.13 104.01C159.059 104.01 157.38 102.331 157.38 100.26C157.38 98.1889 159.059 96.51 161.13 96.51C163.201 96.51 164.88 98.1889 164.88 100.26Z" fill="black"/>
<path d="M161.13 63.2632C163.201 63.2632 164.88 61.5843 164.88 59.5132C164.88 57.4421 163.201 55.7632 161.13 55.7632C159.059 55.7632 157.38 57.4421 157.38 59.5132C157.38 61.5843 159.059 63.2632 161.13 63.2632Z" fill="black"/>
<path d="M93.3115 36.1619C95.3826 36.1619 97.0615 34.4829 97.0615 32.4119C97.0615 30.3408 95.3826 28.6619 93.3115 28.6619C91.2405 28.6619 89.5615 30.3408 89.5615 32.4119C89.5615 34.4829 91.2405 36.1619 93.3115 36.1619Z" fill="black"/>
</svg>
