<svg width="48" height="48" viewBox="0 0 48 48" fill="none" xmlns="http://www.w3.org/2000/svg">
<path opacity="0.2" fill-rule="evenodd" clip-rule="evenodd" d="M28.8894 5.5499C28.4725 5.48755 28.0523 5.63951 27.7717 5.95407L6.02179 30.3369C5.56224 30.852 5.60734 31.6422 6.12252 32.1018L20.1707 44.633C20.6859 45.0925 21.476 45.0474 21.9356 44.5322L43.6855 20.1495C43.9661 19.8349 44.0692 19.4001 43.9598 18.993L41.0401 8.12623C40.911 7.64598 40.5096 7.2879 40.0178 7.21434L28.8894 5.5499ZM31.6851 17.3676C30.4262 16.2448 30.316 14.314 31.4389 13.0552C32.5618 11.7963 34.4926 11.6861 35.7514 12.809C37.0103 13.9319 37.1204 15.8627 35.9975 17.1215C34.8747 18.3803 32.9439 18.4905 31.6851 17.3676Z" fill="black"/>
<path fill-rule="evenodd" clip-rule="evenodd" d="M38.8599 5.14843C38.8341 5.05238 38.7538 4.98076 38.6554 4.96605L27.527 3.30161C27.4437 3.28914 27.3596 3.31953 27.3035 3.38245L5.55361 27.7652C5.4617 27.8683 5.47072 28.0263 5.57376 28.1182L19.6219 40.6494C19.725 40.7413 19.883 40.7323 19.9749 40.6293L41.7248 16.2465C41.7809 16.1836 41.8015 16.0966 41.7797 16.0152L38.8599 5.14843ZM38.9513 2.98805C39.8366 3.12046 40.5591 3.76501 40.7914 4.62946L43.7112 15.4962C43.908 16.229 43.7224 17.0116 43.2173 17.5778L21.4674 41.9606C20.6402 42.8879 19.2179 42.9691 18.2906 42.1419L4.24242 29.6107C3.3151 28.7835 3.23393 27.3612 4.06112 26.4339L25.811 2.05111C26.3161 1.4849 27.0725 1.21138 27.8229 1.32361L38.9513 2.98805Z" fill="black"/>
<path fill-rule="evenodd" clip-rule="evenodd" d="M44.5725 20.452C44.9822 20.8224 45.014 21.4548 44.6436 21.8645L21.6934 47.2444C20.858 48.1682 19.4311 48.2376 18.51 47.3992L3.30266 33.5576C2.89422 33.1858 2.86449 32.5534 3.23624 32.1449C3.608 31.7365 4.24046 31.7068 4.64889 32.0785L19.8563 45.9202C19.9586 46.0133 20.1171 46.0056 20.21 45.903L43.1601 20.523C43.5305 20.1134 44.1629 20.0816 44.5725 20.452Z" fill="black"/>
<path fill-rule="evenodd" clip-rule="evenodd" d="M33.9792 10.4141C33.073 9.60577 31.6831 9.6851 30.8748 10.5913C30.0664 11.4975 30.1458 12.8874 31.052 13.6958C31.9582 14.5041 33.3481 14.4248 34.1564 13.5186C34.9648 12.6124 34.8854 11.2225 33.9792 10.4141ZM29.3823 9.25997C30.9259 7.52948 33.5801 7.378 35.3106 8.92162C37.0411 10.4652 37.1925 13.1194 35.6489 14.8499C34.1053 16.5804 31.4511 16.7319 29.7206 15.1883C27.9901 13.6446 27.8387 10.9904 29.3823 9.25997Z" fill="black"/>
</svg>
