<svg width="196" height="196" viewBox="0 0 196 196" fill="none" xmlns="http://www.w3.org/2000/svg">
<path opacity="0.07" fill-rule="evenodd" clip-rule="evenodd" d="M48.6327 184.905C90.5014 201.811 136.955 180.185 164.476 160.928C175.207 153.42 176.433 145.719 181.258 115.415C182.513 107.535 184.012 98.1256 185.984 86.7938C195.54 31.8875 169.574 15.8725 140.832 7.85224C112.089 -0.168036 58.2493 7.90508 24.8987 42.5823C-8.45185 77.2595 11.8421 170.05 48.6327 184.905ZM104.008 17.8783C105.069 16.6795 106.665 16.1013 108.248 16.3433L151.059 22.8894C152.953 23.179 154.482 24.5868 154.928 26.4501L164.765 67.6099C164.835 67.9029 164.876 68.1989 164.889 68.4943L166.401 74.472C166.778 75.9618 166.4 77.5414 165.389 78.7021L84.6382 171.377C82.9035 173.368 79.8655 173.55 77.9053 171.781L25.1979 124.21C23.2834 122.482 23.1211 119.541 24.8337 117.612L24.8467 117.598L23.2697 116.168C21.3588 114.437 21.1961 111.49 22.9049 109.558L104.008 17.8783Z" fill="black"/>
<path opacity="0.2" fill-rule="evenodd" clip-rule="evenodd" d="M109.823 25.1888C108.234 24.9424 106.628 25.5194 105.562 26.7197L24.8337 117.612C23.1211 119.541 23.2834 122.482 25.1979 124.209L77.9053 171.781C79.8655 173.55 82.9035 173.368 84.6382 171.377L165.389 78.7021C166.4 77.5414 166.778 75.9618 166.401 74.472L156.498 35.322C156.036 33.4935 154.521 32.1179 152.65 31.8279L109.823 25.1888ZM120.253 68.7707C115.504 64.5523 115.09 57.2973 119.328 52.5661C123.565 47.8349 130.849 47.4192 135.597 51.6376C140.345 55.8559 140.759 63.111 136.522 67.8421C132.285 72.5733 125.001 72.989 120.253 68.7707Z" fill="black"/>
<path fill-rule="evenodd" clip-rule="evenodd" d="M28 47.5L19.5 39L11 47.5L19.5 56L28 47.5ZM19.5 50.3334L16.6667 47.5L19.5 44.6667L22.3333 47.5L19.5 50.3334Z" fill="black"/>
<path d="M42 29.5L37.5 25L33 29.5L37.5 34L42 29.5Z" fill="black"/>
<path d="M170 156C170 154.895 169.105 154 168 154C166.895 154 166 154.895 166 156V160H162C160.895 160 160 160.895 160 162C160 163.105 160.895 164 162 164H166V168C166 169.105 166.895 170 168 170C169.105 170 170 169.105 170 168V164H174C175.105 164 176 163.105 176 162C176 160.895 175.105 160 174 160H170V156Z" fill="black"/>
<path fill-rule="evenodd" clip-rule="evenodd" d="M153.473 26.9151C153.216 25.843 152.336 25.033 151.247 24.8664L108.435 18.3203C107.525 18.1811 106.607 18.5137 105.996 19.2034L24.8931 110.883C23.9099 111.995 24.0035 113.69 25.1029 114.687L77.7476 162.397C78.8659 163.411 80.5967 163.315 81.5967 162.185L162.704 70.5C163.289 69.8386 163.515 68.9337 163.31 68.0748L153.473 26.9151ZM151.851 20.9124C154.549 21.3249 156.729 23.3307 157.363 25.9853L167.2 67.145C167.709 69.2717 167.149 71.5126 165.7 73.1503L84.5926 164.835C82.1165 167.634 77.8306 167.871 75.0615 165.361L22.4168 117.65C19.6943 115.183 19.4626 110.985 21.8971 108.233L103 16.5531C104.511 14.8453 106.786 14.0216 109.04 14.3663L151.851 20.9124Z" fill="black"/>
<path fill-rule="evenodd" clip-rule="evenodd" d="M171.6 85.0334C172.419 85.774 172.482 87.0373 171.739 87.8551L85.5015 182.844C83.0103 185.588 78.7615 185.797 76.0124 183.312L19.4288 132.158C18.6095 131.417 18.5473 130.154 19.2899 129.336C20.0326 128.519 21.2988 128.456 22.1182 129.197L78.7017 180.351C79.812 181.355 81.5278 181.27 82.5338 180.162L168.771 85.1733C169.514 84.3554 170.78 84.2928 171.6 85.0334Z" fill="black"/>
<path fill-rule="evenodd" clip-rule="evenodd" d="M126.956 42C121.564 42 117 46.7269 117 52.5338C117 58.3038 121.631 63 127.058 63C132.489 63 137 58.4355 137 52.6686C137 46.853 132.34 42 126.956 42ZM113 52.5338C113 44.7198 119.158 38 126.956 38C134.762 38 141 44.8634 141 52.6686C141 60.5226 134.818 67 127.058 67C119.295 67 113 60.3847 113 52.5338Z" fill="black"/>
</svg>
