<svg width="96" height="96" viewBox="0 0 96 96" fill="none" xmlns="http://www.w3.org/2000/svg">
<path opacity="0.2" fill-rule="evenodd" clip-rule="evenodd" d="M55.8614 8.83406C55.0129 8.70355 54.1563 9.01329 53.5875 9.65625L10.1523 58.7561C9.23668 59.7912 9.32384 61.3702 10.3478 62.2982L38.5896 87.8923C39.6381 88.8425 41.2627 88.7451 42.1902 87.6766L85.6392 37.6157C86.1788 36.994 86.3813 36.1482 86.1816 35.3495L80.907 14.2513C80.6605 13.2654 79.8468 12.5236 78.8424 12.3691L55.8614 8.83406ZM61.7221 32.4771C59.1807 30.2101 58.9582 26.312 61.2252 23.7706C63.4923 21.2291 67.3903 21.0067 69.9317 23.2737C72.4732 25.5407 72.6957 29.4387 70.4286 31.9802C68.1616 34.5216 64.2636 34.7441 61.7221 32.4771Z" fill="black"/>
<path fill-rule="evenodd" clip-rule="evenodd" d="M64.4998 13.9996C68.943 13.9996 72.5237 17.8021 72.5237 22.1774C72.5237 26.5888 68.963 30.1774 64.5553 30.1774C60.1453 30.1774 56.5238 26.5154 56.5238 22.1063C56.5238 17.7246 60.0629 13.9996 64.4998 13.9996ZM59.5238 22.1063C59.5238 24.8769 61.8204 27.1774 64.5553 27.1774C67.2924 27.1774 69.5237 24.9457 69.5237 22.1774C69.5237 19.373 67.2015 16.9996 64.4998 16.9996C61.7919 16.9996 59.5238 19.3084 59.5238 22.1063Z" fill="black"/>
<path fill-rule="evenodd" clip-rule="evenodd" d="M78.0532 4.75979C79.6682 5.00827 80.9725 6.20873 81.3538 7.79758L86.652 29.8721C86.9583 31.1484 86.6228 32.494 85.7531 33.4771L42.3157 82.5803C40.8308 84.2588 38.2607 84.4007 36.6001 82.8958L8.34034 57.2853C6.70768 55.8057 6.56872 53.2882 8.02861 51.6379L51.4639 2.53742C52.3708 1.51225 53.7366 1.0184 55.0895 1.22655L78.0532 4.75979ZM78.4367 8.49773C78.3397 8.09352 78.0078 7.78811 77.597 7.7249L54.6332 4.19166C54.2891 4.1387 53.9416 4.26434 53.7109 4.52515L10.2756 53.6256C9.90418 54.0455 9.93954 54.686 10.3549 55.0624L38.6147 80.6728C39.0371 81.0557 39.691 81.0196 40.0687 80.5925L83.5062 31.4894C83.7274 31.2393 83.8128 30.8969 83.7348 30.5722L78.4367 8.49773Z" fill="black"/>
<path d="M88.5068 39.3876C89.1209 39.9438 89.1678 40.8923 88.6117 41.5064L42.3063 92.6353C40.8143 94.2828 38.269 94.4083 36.622 92.9157L6.4927 65.6108C5.87885 65.0545 5.8322 64.1059 6.3885 63.4921C6.94481 62.8782 7.89341 62.8316 8.50726 63.3879L38.6366 90.6928C39.0556 91.0725 39.7031 91.0406 40.0827 90.6214L86.3881 39.4925C86.9442 38.8785 87.8928 38.8315 88.5068 39.3876Z" fill="black"/>
</svg>
