<svg width="196" height="196" viewBox="0 0 196 196" fill="none" xmlns="http://www.w3.org/2000/svg">
<path opacity="0.07" fill-rule="evenodd" clip-rule="evenodd" d="M5.1623 108.412C6.54012 116.686 17.5066 142.469 30.4181 155.623C31.4933 156.719 32.6809 157.997 33.9918 159.409C46.1514 172.5 68.9149 197.009 110.941 192.578C157.498 187.67 172.063 169.188 182.636 141.811C193.208 114.433 201.015 61.3941 172.24 25.1321C143.464 -11.1298 38.4415 4.88649 20.6259 39.4604C2.81033 74.0343 3.78447 100.137 5.1623 108.412ZM155 100.5C155 133.913 127.913 161 94.5 161C61.0868 161 34 133.913 34 100.5C34 67.0865 61.0868 39.9998 94.5 39.9998C127.913 39.9998 155 67.0865 155 100.5Z" fill="black"/>
<g opacity="0.2">
<path d="M147.231 53.7692L145 42.6154L158.908 28.7071C159.538 28.0771 160.615 28.5233 160.615 29.4142V40.3846H171.586C172.477 40.3846 172.923 41.4618 172.293 42.0917L158.385 56L147.231 53.7692Z" fill="black"/>
<path fill-rule="evenodd" clip-rule="evenodd" d="M96.5 148C119.972 148 139 128.972 139 105.5C139 82.0279 119.972 63 96.5 63C73.0279 63 54 82.0279 54 105.5C54 128.972 73.0279 148 96.5 148ZM96 125C84.9543 125 76 116.046 76 105C76 93.9543 84.9543 85 96 85C107.046 85 116 93.9543 116 105C116 116.046 107.046 125 96 125Z" fill="black"/>
</g>
<path fill-rule="evenodd" clip-rule="evenodd" d="M163 21.0001C163 20.1956 162.518 19.4694 161.777 19.157C161.035 18.8446 160.179 19.0068 159.603 19.5687L143.603 35.1841C143.118 35.6572 142.906 36.3435 143.039 37.0077L145.058 47.1036L137.176 54.838C126.006 44.3934 110.999 38 94.5 38C59.9822 38 32 65.9822 32 100.5C32 135.018 59.9822 163 94.5 163C129.018 163 157 135.018 157 100.5C157 83.9206 150.544 68.849 140.01 57.6616L147.88 49.9387L157.992 51.9612C158.657 52.094 159.343 51.8817 159.816 51.397L175.431 35.397C175.993 34.8212 176.155 33.9648 175.843 33.2235C175.531 32.4821 174.805 32.0001 174 32.0001H163V21.0001ZM148.93 46.0696L147.174 37.2882L159 25.7466V34.0001C159 35.1046 159.895 36.0001 161 36.0001H169.253L157.712 47.8259L148.93 46.0696ZM36 100.5C36 68.1913 62.1913 42 94.5 42C109.881 42 123.876 47.9361 134.318 57.6424L123.777 67.9866C115.952 61.1453 105.71 57 94.5 57C69.9233 57 50 76.9233 50 101.5C50 126.077 69.9233 146 94.5 146C119.077 146 139 126.077 139 101.5C139 89.5734 134.308 78.7426 126.669 70.7528L137.154 60.4639C146.981 70.9291 153 85.0116 153 100.5C153 132.809 126.809 159 94.5 159C62.1913 159 36 132.809 36 100.5ZM94.5 61C104.592 61 113.822 64.6912 120.913 70.7973L108.242 83.2314C104.404 79.9687 99.432 78 94 78C81.8497 78 72 87.8497 72 100C72 112.15 81.8497 122 94 122C106.15 122 116 112.15 116 100C116 94.722 114.141 89.8781 111.043 86.0871L123.814 73.5547C130.745 80.8226 135 90.6644 135 101.5C135 123.868 116.868 142 94.5 142C72.1325 142 54 123.868 54 101.5C54 79.1325 72.1325 61 94.5 61ZM94 82C98.3134 82 102.273 83.5172 105.373 86.0471L92.0992 99.0725C91.3108 99.8462 91.2989 101.112 92.0725 101.901C92.8462 102.689 94.1124 102.701 94.9008 101.927L108.173 88.903C110.571 91.9606 112 95.8134 112 100C112 109.941 103.941 118 94 118C84.0589 118 76 109.941 76 100C76 90.0589 84.0589 82 94 82Z" fill="black"/>
<path d="M24 29C24 27.8954 23.1046 27 22 27C20.8954 27 20 27.8954 20 29V33H16C14.8954 33 14 33.8954 14 35C14 36.1046 14.8954 37 16 37H20V41C20 42.1046 20.8954 43 22 43C23.1046 43 24 42.1046 24 41V37H28C29.1046 37 30 36.1046 30 35C30 33.8954 29.1046 33 28 33H24V29Z" fill="black"/>
<path d="M173 157L177 161L173 165L169 161L173 157Z" fill="black"/>
<path fill-rule="evenodd" clip-rule="evenodd" d="M152.5 170L161 178.5L152.5 187L144 178.5L152.5 170ZM149.667 178.5L152.5 181.333L155.333 178.5L152.5 175.667L149.667 178.5Z" fill="black"/>
</svg>
