<svg width="96" height="96" viewBox="0 0 96 96" fill="none" xmlns="http://www.w3.org/2000/svg">
<g opacity="0.2">
<path d="M75.4615 24.5385L74 17.2308L82.2849 8.75471C82.9115 8.11366 84 8.55729 84 9.4537V16H90.5463C91.4427 16 91.8863 17.0885 91.2453 17.7151L82.7692 26L75.4615 24.5385Z" fill="black"/>
<path fill-rule="evenodd" clip-rule="evenodd" d="M44 83.5C59.1878 83.5 71.5 71.1878 71.5 56C71.5 40.8122 59.1878 28.5 44 28.5C28.8122 28.5 16.5 40.8122 16.5 56C16.5 71.1878 28.8122 83.5 44 83.5ZM43.5 68.5C36.3203 68.5 30.5 62.6797 30.5 55.5C30.5 48.3203 36.3203 42.5 43.5 42.5C50.6797 42.5 56.5 48.3203 56.5 55.5C56.5 62.6797 50.6797 68.5 43.5 68.5Z" fill="black"/>
</g>
<path fill-rule="evenodd" clip-rule="evenodd" d="M86 3.50004C86 2.89335 85.6346 2.3464 85.074 2.11422C84.5135 1.88205 83.8684 2.01039 83.4394 2.43938L73.4394 12.4394C73.1055 12.7732 72.9483 13.2448 73.0151 13.7122L74.0151 20.7122C74.0202 20.7481 74.0266 20.7837 74.0343 20.8189L70.9711 23.6964C63.6556 16.4648 53.5992 12 42.5 12C20.1325 12 2 30.1325 2 52.5C2 74.8675 20.1325 93 42.5 93C64.8675 93 83 74.8675 83 52.5C83 42.3108 79.2373 33.0004 73.0255 25.8825L76.527 22.5933C76.5905 22.5336 76.6477 22.4697 76.6984 22.4025L82.0879 23.9423C82.6117 24.092 83.1755 23.9459 83.5607 23.5607L94.5607 12.5607C94.9897 12.1317 95.118 11.4865 94.8858 10.926C94.6537 10.3655 94.1067 10 93.5 10H86V3.50004ZM76.8474 19.325L76.091 14.0304L83 7.12136V11.5C83 12.3285 83.6716 13 84.5 13H89.8787L82.0635 20.8153L76.8474 19.325ZM42.5 15C52.737 15 62.016 19.102 68.7829 25.7519L62.5581 31.5995C57.2422 26.8545 50.1457 24 42.5 24C26.4837 24 14 36.4837 14 52.5C14 68.4443 26.4136 82 42.5 82C58.5163 82 72 68.5163 72 52.5C72 45.2123 69.2179 38.6785 64.6919 33.7111L70.8374 27.9381C76.5455 34.5179 80 43.1055 80 52.5C80 73.2107 63.2107 90 42.5 90C21.7893 90 5 73.2107 5 52.5C5 31.7893 21.7893 15 42.5 15ZM42.5 27C49.3249 27 55.6213 29.5073 60.3627 33.6618L51.9848 41.532C49.4422 39.3314 46.1266 38 42.5 38C34.4919 38 28 44.4919 28 52.5C28 60.5081 34.4919 67 42.5 67C50.5081 67 57 60.5081 57 52.5C57 49.1989 55.8969 46.1555 54.0392 43.7182L62.5038 35.7666C66.5362 40.2158 69 46.0437 69 52.5C69 66.8594 56.8594 79 42.5 79C28.2107 79 17 66.9313 17 52.5C17 38.1406 28.1406 27 42.5 27ZM42.5 41C45.2639 41 47.8001 41.9751 49.7834 43.6L41.473 51.4067C40.8692 51.9739 40.8395 52.9232 41.4067 53.527C41.9739 54.1308 42.9232 54.1605 43.527 53.5933L51.8378 45.7862C53.1985 47.6753 54 49.9941 54 52.5C54 58.8513 48.8513 64 42.5 64C36.1487 64 31 58.8513 31 52.5C31 46.1487 36.1487 41 42.5 41Z" fill="black"/>
</svg>
