<svg width="48" height="48" viewBox="0 0 48 48" fill="none" xmlns="http://www.w3.org/2000/svg">
<g opacity="0.2">
<path d="M37.6923 13.3077L37 9.84615L41.8462 5V9.15385H46L41.1538 14L37.6923 13.3077Z" fill="black"/>
<path fill-rule="evenodd" clip-rule="evenodd" d="M23.5 40C30.4036 40 36 34.4036 36 27.5C36 20.5964 30.4036 15 23.5 15C16.5964 15 11 20.5964 11 27.5C11 34.4036 16.5964 40 23.5 40ZM23.5 33.2692C20.3137 33.2692 17.7308 30.6863 17.7308 27.5C17.7308 24.3137 20.3137 21.7308 23.5 21.7308C26.6863 21.7308 29.2692 24.3137 29.2692 27.5C29.2692 30.6863 26.6863 33.2692 23.5 33.2692Z" fill="black"/>
</g>
<path fill-rule="evenodd" clip-rule="evenodd" d="M41.8462 3.00003C41.8462 2.59557 41.6025 2.23093 41.2289 2.07615C40.8552 1.92137 40.4251 2.00692 40.1391 2.29292L35.2929 7.13908C35.0565 7.3755 34.9539 7.71444 35.0194 8.0423L35.6068 10.979L34.5634 12.0223C31.106 8.90068 26.525 7 21.5 7C10.7304 7 2 15.7304 2 26.5C2 37.2696 10.7304 46 21.5 46C32.2696 46 41 37.2696 41 26.5C41 21.475 39.0993 16.894 35.9777 13.4366L37.021 12.3933L39.9577 12.9806C40.2856 13.0462 40.6245 12.9436 40.861 12.7071L45.7071 7.86098C45.9931 7.57498 46.0787 7.14487 45.9239 6.77119C45.7691 6.39752 45.4045 6.15388 45 6.15388H41.8462V3.00003ZM37.8806 10.5256C37.8355 10.442 37.7777 10.3635 37.7071 10.2929C37.6365 10.2223 37.558 10.1645 37.4745 10.1194L37.0856 8.17486L39.8462 5.41424V7.15388C39.8462 7.70616 40.2939 8.15388 40.8462 8.15388H42.5858L39.8252 10.9145L37.8806 10.5256ZM21.5 9C25.9727 9 30.0534 10.6779 33.1472 13.4386L30.3128 16.273C27.9479 14.2333 24.868 13 21.5 13C14.0442 13 8 19.0442 8 26.5C8 33.9558 14.0442 40 21.5 40C28.9558 40 35 33.9558 35 26.5C35 23.132 33.7667 20.0521 31.727 17.6872L34.5614 14.8528C37.3221 17.9466 39 22.0273 39 26.5C39 36.165 31.165 44 21.5 44C11.835 44 4 36.165 4 26.5C4 16.835 11.835 9 21.5 9ZM21.5 15C24.3156 15 26.8949 16.0119 28.894 17.6918L25.3347 21.2511C24.2597 20.4644 22.9341 20 21.5 20C17.9101 20 15 22.9101 15 26.5C15 30.0899 17.9101 33 21.5 33C25.0899 33 28 30.0899 28 26.5C28 25.0659 27.5356 23.7403 26.7489 22.6653L30.3082 19.106C31.9881 21.1051 33 23.6844 33 26.5C33 32.8513 27.8513 38 21.5 38C15.1487 38 10 32.8513 10 26.5C10 20.1487 15.1487 15 21.5 15ZM21.5 22C22.3805 22 23.202 22.2529 23.8957 22.69L20.2929 26.2929C19.9024 26.6834 19.9024 27.3166 20.2929 27.7071C20.6834 28.0976 21.3166 28.0976 21.7071 27.7071L25.31 24.1043C25.7471 24.798 26 25.6195 26 26.5C26 28.9853 23.9853 31 21.5 31C19.0147 31 17 28.9853 17 26.5C17 24.0147 19.0147 22 21.5 22Z" fill="black"/>
</svg>
