<svg width="96" height="96" viewBox="0 0 96 96" fill="none" xmlns="http://www.w3.org/2000/svg">
<g opacity="0.2">
<path d="M33.293 60.2137C32.8636 59.8272 32.85 59.1584 33.2634 58.7548L74.3526 18.6439C74.4499 18.549 74.5654 18.4749 74.6922 18.4261L85.5223 14.2607C86.311 13.9573 87.0972 14.7085 86.8299 15.5103L83.5707 25.288C83.5241 25.4276 83.4473 25.5553 83.3457 25.6618L43.1705 67.7968C42.7971 68.1884 42.18 68.212 41.7778 67.85L33.293 60.2137Z" fill="black"/>
<path d="M24.112 79.2315C24.0433 79.6027 24.1894 79.9809 24.4898 80.2094L26.6074 81.8208C27.0829 82.1827 27.1371 82.8781 26.7232 83.3092L17.6204 92.7912C16.4564 94.0038 14.5235 94.0235 13.3349 92.835L8.23193 87.7319C7.01804 86.5181 7.06843 84.535 8.34239 83.3843L20.84 72.0961C21.2164 71.7562 21.7876 71.7518 22.1691 72.0859L24.5514 74.172C24.8169 74.4045 24.9402 74.7595 24.8759 75.1065L24.112 79.2315Z" fill="black"/>
</g>
<path fill-rule="evenodd" clip-rule="evenodd" d="M91.3927 5.55714C91.6096 5.01484 91.492 4.39595 91.0914 3.971C90.6907 3.54605 90.0797 3.39233 89.5257 3.57702L74.5257 8.57702C74.2945 8.65407 74.0856 8.78628 73.917 8.96219L64.7212 18.5578L64.9849 16.7122C65.0791 16.0527 64.7271 15.4101 64.1207 15.1345L53.1207 10.1345C52.4091 9.81105 51.5684 10.0883 51.1887 10.7716L46.6763 18.894C44.525 18.6795 42.4059 18.6964 40.3262 18.8984L35.8112 10.7715C35.4316 10.0882 34.5909 9.811 33.8793 10.1345L22.8793 15.1345C22.2203 15.434 21.8692 16.1615 22.0448 16.8638L23.808 23.9167C22.9193 24.6805 22.2158 25.5364 21.5944 26.3829C21.2719 26.8222 20.9588 27.2772 20.6577 27.7149L20.6541 27.7201C20.585 27.8205 20.5165 27.92 20.4487 28.0182C20.2809 28.2612 20.1147 28.4998 19.9467 28.7344L11.9743 26.077C11.2287 25.8284 10.4177 26.1976 10.1154 26.9231L5.11537 38.9231C4.80201 39.6751 5.14627 40.5398 5.89078 40.8707L13.8883 44.4252C13.6817 46.7015 13.6978 49.3603 13.8931 51.5727L5.89078 55.1293C5.14627 55.4602 4.80202 56.3249 5.11538 57.0769L10.1154 69.0769C10.4177 69.8024 11.2287 70.1716 11.9743 69.923L14.5531 69.0634L4.98258 77.8978C4.68261 78.1747 4.50846 78.5619 4.5003 78.97C4.49214 79.3782 4.65068 79.772 4.93934 80.0607L13.9393 89.0607C14.5251 89.6465 15.4749 89.6465 16.0607 89.0607L23.8256 81.2957L33.8793 85.8656C34.6138 86.1994 35.4808 85.8925 35.8416 85.1708L39.3717 78.1108C41.5553 78.3251 43.7058 78.3012 45.8156 78.0875L51.3 85.4C51.7069 85.9426 52.4273 86.1446 53.0571 85.8927L63.0571 81.8927C63.6833 81.6423 64.0653 81.0047 63.9908 80.3344L63.0872 72.202C64.7585 70.9401 65.8261 69.7517 67.0756 68.1901L74.1362 69.9552C74.8385 70.1308 75.566 69.7798 75.8655 69.1207L80.8655 58.1207C81.1623 57.4678 80.9554 56.6962 80.3718 56.2794L74.0939 51.7952C74.3253 49.5623 74.3067 47.3638 74.0898 45.2078L80.3718 40.7206C80.9399 40.3148 81.153 39.5708 80.8857 38.9258L77.3041 30.2829C77.1806 29.985 76.9722 29.748 76.7186 29.5883L85.0723 21.049C85.2104 20.9077 85.3193 20.7406 85.3927 20.5571L91.3927 5.55714ZM20.0174 68.1022C20.1153 68.0119 20.1984 67.9116 20.2666 67.8043C21.2757 69.2601 22.3648 70.7397 23.8177 72.0445L22.1455 78.7331L21.5 79.3787L15.5607 73.4393C15.3181 73.1968 15.0131 73.0546 14.6974 73.013L20.0174 68.1022ZM13.002 74.578C13.0205 74.9355 13.1663 75.2876 13.4393 75.5607L19.3787 81.5L15 85.8787L8.1646 79.0433L13.002 74.578ZM25.3399 78.3249L26.9552 71.8638C27.0987 71.2899 26.8914 70.6852 26.426 70.3199C24.7265 68.9864 23.6256 67.3889 22.2962 65.4601L22.2956 65.4592C22.1124 65.1934 21.9249 64.9213 21.7308 64.6427C21.3507 64.0969 20.6566 63.8667 20.0256 64.077L12.3484 66.6361L8.44816 57.2756L16.1092 53.8707C16.714 53.6019 17.0711 52.9685 16.9881 52.3119C16.6723 49.8124 16.6429 46.2726 16.9868 43.6987C17.075 43.0388 16.7176 42.3997 16.1092 42.1293L8.44816 38.7244L12.3484 29.3639L20.0257 31.923C20.6267 32.1234 21.2889 31.9245 21.6801 31.426C22.1323 30.8497 22.5391 30.2705 22.9172 29.723C22.9929 29.6135 23.0675 29.5051 23.1405 29.3991C23.4394 28.9646 23.7201 28.5568 24.0127 28.1582C24.7324 27.1778 25.4454 26.366 26.3573 25.7309C26.8683 25.3749 27.1062 24.7403 26.9552 24.1362L25.2583 17.3485L33.8608 13.4382L38.1888 21.2285C38.4864 21.7642 39.08 22.065 39.6881 21.9882C42.1886 21.6722 44.7283 21.643 47.3013 21.9868C47.9127 22.0685 48.5117 21.7676 48.8112 21.2285L53.1391 13.4383L61.8561 17.4005L61.1599 22.2739L54.927 28.7778C53.6424 27.6148 51.8317 26.7534 50.066 26.1598C47.8718 25.4223 45.4497 25 43.5 25C31.4871 25 23 34.6896 23 46.5C23 58.2604 31.5332 68.6021 43.5918 68.6021C55.4766 68.6021 66 58.4418 66 46.5C66 45.1163 65.7059 43.9445 65.4141 43.1197C65.2675 42.7054 65.1193 42.3722 65.0037 42.1359C64.9458 42.0175 64.8957 41.9228 64.8577 41.8536L64.8425 41.8261C64.83 41.8037 64.8192 41.7846 64.8102 41.769L64.8074 41.7642L74.6465 31.7064L77.6577 38.9726L71.6281 43.2794C71.1794 43.6 70.9427 44.141 71.0118 44.6881C71.3278 47.1886 71.357 49.7284 71.0132 52.3014C70.9396 52.8518 71.1762 53.3979 71.6281 53.7206L77.6236 58.0031L73.6515 66.7417L66.8638 65.0448C66.2898 64.9013 65.6851 65.1086 65.3199 65.574C63.6564 67.694 62.6711 68.8563 60.6427 70.2692C60.1915 70.5834 59.9484 71.1193 60.0092 71.6657L60.8831 79.5312L53.0102 82.6804L47.7 75.6C47.3766 75.1688 46.8467 74.9443 46.3119 75.0119C43.8114 75.3279 41.2716 75.357 38.6986 75.0132C38.0636 74.9284 37.4448 75.2562 37.1583 75.8292L33.8048 82.5363L25.4795 78.7521C25.455 78.605 25.4084 78.4608 25.3399 78.3249ZM62.7174 24.9846C63.3584 24.891 63.8886 24.386 63.9849 23.7121L63.9933 23.6532L74.5335 12.6548L81.8903 20.0116L38.1604 64.7133C34.9691 63.6268 32.23 61.6011 30.1639 58.9534L62.7174 24.9846ZM49.1101 29.0035C50.7254 29.5464 52.0378 30.2336 52.8504 30.9448L28.475 56.38C26.8915 53.4826 26 50.0936 26 46.5C26 36.1403 33.3429 28 43.5 28C45.0775 28 47.1758 28.3533 49.1101 29.0035ZM43.5918 65.6021C42.9155 65.6021 42.251 65.5632 41.5998 65.4875L62.5635 44.0579L62.5783 44.099L62.5859 44.1203C62.7941 44.7087 63 45.5369 63 46.5C63 56.7283 53.877 65.6021 43.5918 65.6021ZM83.4521 17.3308L77.0269 10.9056L87.4061 7.44581L83.4521 17.3308Z" fill="black"/>
</svg>
