<svg width="48" height="48" viewBox="0 0 48 48" fill="none" xmlns="http://www.w3.org/2000/svg">
<g opacity="0.2">
<path d="M16 30.3333L21.1405 35L34.0077 22.0662L37.3531 18.7181L41.9183 13.6961L44 7L37.3531 9.64431L32.1534 14.2593L16 30.3333Z" fill="black"/>
<path d="M8.07608 47.7046L15 40.5714L10.4286 36L3.28789 43.1238C2.90404 43.4389 2.90404 44.069 3.28789 44.4628L6.70635 47.7046C7.01343 48.0984 7.69223 48.0984 8.07608 47.7046Z" fill="black"/>
</g>
<path fill-rule="evenodd" clip-rule="evenodd" d="M46.9191 2.39396C47.0728 2.03541 47.004 1.62024 46.7428 1.33049C46.4816 1.04075 46.0758 0.929324 45.7033 1.04508L38.2315 3.36683C38.0775 3.41467 37.9374 3.49905 37.8231 3.61277L32.4628 8.94399L32.6638 8.24867C32.8046 7.76173 32.5588 7.24647 32.0918 7.04951L26.627 4.74496C26.1678 4.55127 25.636 4.72539 25.3802 5.15322L23.298 8.63593C22.3127 8.54714 21.3361 8.55337 20.382 8.63691L18.4088 5.13326C18.1617 4.69457 17.627 4.50797 17.1607 4.69766L11.6883 6.92356C11.2219 7.11326 10.9693 7.62009 11.0986 8.10668L12.1264 11.9747C11.3481 12.5914 10.661 13.2942 10.0358 14.0392L6.14664 12.9563C5.66196 12.8213 5.15248 13.0675 4.95698 13.5311L2.63805 19.0298C2.44255 19.4934 2.62192 20.0301 3.05688 20.2829L6.55042 22.3139C6.46099 23.2987 6.46297 24.2828 6.54503 25.2405L3.04072 27.214C2.60203 27.4611 2.41543 27.9958 2.60512 28.4621L4.83102 33.9345C5.02072 34.4009 5.52755 34.6535 6.01414 34.5242L6.9415 34.2778L2.29053 38.9599C2.10176 39.15 1.99712 39.4078 2.00006 39.6757C2.003 39.9435 2.11328 40.199 2.30619 40.3848L6.80617 44.7202C7.19346 45.0933 7.80649 45.0933 8.19378 44.7202L12.1088 40.9485L16.9373 42.9848C17.4009 43.1803 17.9375 43.0009 18.1904 42.5659L20.2169 39.0801C21.1567 39.1867 22.0879 39.2429 23.0536 39.176L25.2894 42.6876C25.5565 43.107 26.0912 43.2665 26.5445 43.0619L29.134 41.8928L31.7751 40.7453C32.2105 40.5561 32.4529 40.0869 32.3552 39.6223L31.5398 35.7445C32.3131 35.1128 32.9277 34.3988 33.507 33.6742L37.4055 34.7271C37.8884 34.8575 38.3933 34.6111 38.5877 34.1502L39.7328 31.4349C39.74 31.4179 39.7467 31.4006 39.7529 31.3832L40.7471 28.6043C40.9077 28.1554 40.7292 27.6557 40.3206 27.4102L36.9146 25.364C37.0338 24.4553 37.1331 23.5357 37.0783 22.5604L40.5205 20.2869C40.9183 20.0242 41.0753 19.5173 40.8957 19.0757L39.8489 16.5021C39.835 16.4679 39.8191 16.4345 39.8015 16.402L38.879 14.7016C38.8595 14.6658 38.8382 14.6316 38.8152 14.5991L43.7071 9.70714C43.7971 9.61718 43.869 9.51089 43.9191 9.39396L46.9191 2.39396ZM30.4957 8.54699L29.5131 11.9456L27.717 13.7644C27.6293 13.6062 27.4977 13.4699 27.3279 13.3756C25.7483 12.499 23.9307 12 22 12C15.9277 12 11 16.9278 11 23C11 29.0723 15.9277 34 22 34C28.0722 34 33 29.0723 33 23C33 22.3937 32.9696 22.0118 32.8314 21.6201C32.785 21.4885 32.7245 21.3538 32.6769 21.2476L32.6483 21.1836C32.6105 21.0981 32.5684 21.0001 32.5206 20.8769L35.7052 17.709L35.7071 17.7071L37.3454 16.0689L38.0172 17.307L38.7342 19.0699L35.4778 21.2206C35.1601 21.4305 34.9891 21.8026 35.0369 22.1804C35.1759 23.2807 35.0413 24.2851 34.8669 25.5865L34.845 25.7503C34.7922 26.1456 34.9793 26.5345 35.3212 26.7399L38.5879 28.7024L37.8791 30.6833L37.0841 32.5686L33.3917 31.5714C33.0043 31.4668 32.5919 31.6039 32.3442 31.9195C31.4953 33.0014 30.8198 33.8403 29.8592 34.5094C29.5298 34.7388 29.3695 35.143 29.4521 35.5358L30.2302 39.2359L28.3305 40.0613L28.3175 40.067L26.5112 40.8825L24.4113 37.5844C24.2035 37.2581 23.8262 37.0809 23.4424 37.1294C22.2718 37.2773 21.1389 37.1916 19.8169 37.015C19.4164 36.9615 19.0231 37.1543 18.82 37.5036L16.9036 40.8L13.0265 39.1649L14.0493 35.4917C14.1577 35.1025 14.0212 34.6862 13.7033 34.4368C12.6808 33.6344 11.7917 32.7773 11.1002 31.7845C10.8599 31.4394 10.4293 31.2816 10.0228 31.3896L6.35177 32.3651L4.7896 28.5245L8.09929 26.6605C8.45345 26.4611 8.65165 26.0671 8.60069 25.6638C8.44663 24.4448 8.43963 23.1682 8.60781 21.9095C8.66133 21.509 8.46855 21.1156 8.11922 20.9125L4.82283 18.9962L6.45787 15.119L10.1311 16.1419C10.5203 16.2503 10.9366 16.1137 11.186 15.7958C11.9884 14.7733 12.8455 13.8843 13.8383 13.1928C14.1834 12.9524 14.3412 12.5218 14.2332 12.1154L13.2577 8.44431L17.0983 6.88213L18.9623 10.1918C19.1617 10.546 19.5557 10.7442 19.959 10.6932C21.1823 10.5386 22.4391 10.5245 23.6939 10.6921C24.09 10.7451 24.4795 10.5571 24.6846 10.2141L26.6508 6.92553L30.4957 8.54699ZM30.9752 22.4141C30.9886 22.5108 31 22.68 31 23C31 27.9677 26.9677 32 22 32C21.7852 32 21.5721 31.9925 21.3611 31.9776L30.9752 22.4141ZM19.0514 31.5052C17.5994 31.0013 16.3159 30.136 15.3089 29.0169C15.4564 28.9692 15.595 28.8862 15.7115 28.7683L30.9897 13.2967L30.9914 13.2949L33.8716 10.3637L37.9215 6.33569L41.0858 9.50002L34.2948 16.2911L34.2929 16.2929L19.2154 31.2911C19.1498 31.3564 19.0951 31.4285 19.0514 31.5052ZM14.1918 27.4765C13.4337 26.1577 13 24.6292 13 23C13 18.0323 17.0323 14 22 14C23.5822 14 25.0669 14.4082 26.3574 15.1244C26.361 15.1264 26.3646 15.1284 26.3682 15.1303L14.2885 27.363C14.253 27.3989 14.2208 27.4369 14.1918 27.4765ZM7.73306 36.3188L10.179 33.8565C10.7207 34.4891 11.3187 35.06 11.9467 35.587L10.9039 39.3321L10.8139 39.4188C10.7823 39.3746 10.7467 39.3325 10.7071 39.2929L7.73306 36.3188ZM42.3627 7.94848L39.4857 5.07145L44.2271 3.59809L42.3627 7.94848ZM9.29289 40.7071C9.32348 40.7377 9.35555 40.7659 9.38887 40.7917L7.49998 42.6114L4.42507 39.649L6.32357 37.7378L9.29289 40.7071Z" fill="black"/>
</svg>
