<svg width="196" height="196" viewBox="0 0 196 196" fill="none" xmlns="http://www.w3.org/2000/svg">
<g opacity="0.07">
<path d="M117.756 87.4996L85.9507 120L73 109.639L107.884 73.2634C106.235 72.0599 104.421 71.0294 102.455 70.2087C88.9558 64.5735 73.4264 70.9556 67.7911 84.4545C62.1558 97.9534 68.5381 113.483 82.037 119.118C95.5359 124.753 111.065 118.371 116.7 104.872C119.092 99.1432 119.319 93.0485 117.756 87.4996Z" fill="black"/>
<path fill-rule="evenodd" clip-rule="evenodd" d="M30.8444 54.4927C13.4303 75.4617 11.844 123.993 20.8442 142.993C29.8444 161.993 65.8439 178.993 65.8439 178.993C65.8439 178.993 122.69 182.387 146.844 160.493C170.998 138.599 177.844 114.993 177.844 66.9925C177.845 22.9937 144.707 21.1642 110.476 19.2744C107.363 19.1025 104.241 18.9301 101.134 18.7255C63.8609 16.2708 48.2584 33.5237 30.8444 54.4927ZM134.553 70.3355L139.834 83.1843L129.167 89.2426C129.754 92.709 129.644 96.2231 129.184 99.761L139.843 105.906L133.815 120.344L121.951 117.086C119.759 119.901 117.194 122.39 114.461 124.47L117.654 136.315L103.329 142.202L97.2704 131.535C93.804 132.123 90.2899 132.012 86.752 131.552L80.6071 142.211L66.1695 136.184L66.5182 134.913L55.5 146L44 134.429L60.6111 119L67 125.455V133.159L69.4269 124.32C66.6122 122.127 64.1589 120 62.0787 117.267L49.8303 119.869L47.2546 112.86L44.5435 105.794L54.6954 99.3016C54.108 95.8352 54.5012 92.6581 54.9609 89.1202L44.3396 82.8858L47.3158 75.7564L50.6881 68.7924L62.4397 71.8378L62.7757 71.4059C64.8276 68.7674 66.6532 66.42 69.2459 64.4469L66.877 52.2955L80.3511 46.758L87.2114 57.0636C90.1836 56.5599 92.8365 56.9268 95.7627 57.3314L95.7642 57.3316L95.7656 57.3318C96.2513 57.399 96.7444 57.4672 97.2478 57.5326L103.538 46.6704L117.886 52.6602L114.769 64.5829C115.044 64.7971 115.315 65.0146 115.583 65.2353L133.574 46.4754L153 40L145.23 59.4261L134.553 70.3355Z" fill="black"/>
</g>
<g opacity="0.2">
<path d="M76.4367 111.587C75.9648 112.047 76.0593 112.83 76.6271 113.164L90.3729 121.265C90.7734 121.501 91.2836 121.429 91.6044 121.093L143.98 66.1621C144.082 66.0556 144.159 65.928 144.205 65.7883L148.643 52.4756C148.91 51.6739 148.124 50.9226 147.335 51.226L132.675 56.8645C132.549 56.9132 132.433 56.9871 132.336 57.0818L76.4367 111.587Z" fill="black"/>
<path d="M67.9335 137.172C67.0523 136.487 66.6247 135.368 66.8237 134.27L67.5881 130.049C67.6995 129.434 67.616 128.799 67.3493 128.234L66.2166 125.834C65.3334 123.962 62.8651 123.526 61.3938 124.981L46.0724 140.137C44.9183 141.278 44.8816 143.131 45.9895 144.317L53.8184 152.701C54.9875 153.952 56.9657 153.973 58.1605 152.746L68.6614 141.96C69.9089 140.678 69.7654 138.597 68.354 137.499L67.9335 137.172Z" fill="black"/>
</g>
<path fill-rule="evenodd" clip-rule="evenodd" d="M50.1044 26.9927L58.8646 35.7529L50.1044 44.5131L41.3442 35.7529L50.1044 26.9927ZM47.1844 35.7529L50.1044 38.6729L53.0245 35.7529L50.1044 32.8328L47.1844 35.7529Z" fill="black"/>
<path d="M32.4667 44.9927L36.5891 49.1151L32.4667 53.2376L28.3442 49.1151L32.4667 44.9927Z" fill="black"/>
<path d="M172 116C172 114.895 171.105 114 170 114C168.895 114 168 114.895 168 116V120H164C162.895 120 162 120.895 162 122C162 123.105 162.895 124 164 124H168V128C168 129.105 168.895 130 170 130C171.105 130 172 129.105 172 128V124H176C177.105 124 178 123.105 178 122C178 120.895 177.105 120 176 120H172V116Z" fill="black"/>
<path fill-rule="evenodd" clip-rule="evenodd" d="M155.857 39.7428C156.146 39.0198 155.989 38.1946 155.455 37.628C154.921 37.0614 154.106 36.8564 153.368 37.1027L133.941 43.5781C133.633 43.6807 133.355 43.8568 133.13 44.0911L118.59 59.2536L119.301 54.2817C119.427 53.4024 118.957 52.5454 118.149 52.1778L103.939 45.7184C102.99 45.2871 101.869 45.6568 101.363 46.568L95.5492 57.0342C92.7937 56.7629 90.0791 56.7849 87.4146 57.0421L81.6044 46.5747C81.0983 45.6629 79.9766 45.293 79.0274 45.7249L64.814 52.192C63.9359 52.5915 63.4682 53.5608 63.7018 54.4968L65.9685 63.5772C64.8283 64.5631 63.9242 65.6646 63.1263 66.7519C62.7091 67.3205 62.3039 67.9095 61.9147 68.4753L61.9131 68.4777C61.8227 68.6091 61.7332 68.7392 61.6446 68.8675C61.4365 69.169 61.2304 69.4649 61.0225 69.7561L50.7672 66.3383C49.773 66.007 48.6917 66.4992 48.2887 67.4665L41.8246 82.98C41.4068 83.9827 41.8658 85.1356 42.8585 85.5768L53.1488 90.1505C52.8862 93.0725 52.9057 96.4736 53.1528 99.3141L42.8519 103.897C41.8599 104.338 41.4012 105.49 41.8184 106.493L48.2741 122.003C48.677 122.971 49.7591 123.463 50.7537 123.131L54.7295 121.804L41.6389 133.963C41.2417 134.332 41.0112 134.847 41.0004 135.389C40.9896 135.931 41.1992 136.454 41.5814 136.838L53.0814 148.41C53.4568 148.788 53.9674 149 54.5 149C55.0326 149 55.5432 148.788 55.9186 148.41L66.3061 137.958L79.0026 143.729C79.982 144.175 81.1381 143.765 81.6192 142.803L86.1637 133.713C88.9626 133.984 91.7191 133.952 94.4237 133.68L101.485 143.102C102.044 143.848 103.044 144.109 103.897 143.731L117.818 137.557C118.684 137.172 119.161 136.234 118.962 135.307L116.947 125.944C119.021 124.355 120.376 122.845 121.947 120.883L131.03 123.153C131.966 123.387 132.936 122.919 133.335 122.04L139.799 107.819C140.195 106.949 139.919 105.92 139.141 105.364L131.061 99.5909C131.356 96.7241 131.333 93.9015 131.058 91.1333L139.148 85.3509C139.904 84.8099 140.188 83.8185 139.832 82.9589L135.429 72.322L147.659 59.8251C147.843 59.6367 147.989 59.4137 148.086 59.169L155.857 39.7428ZM60.9722 121.465C61.2468 121.21 61.4336 120.896 61.5312 120.561C62.7911 122.371 64.1609 124.205 65.9643 125.832L63.6929 134.913L63.2185 135.39L55.4142 127.586C55.2382 127.41 55.0375 127.273 54.8232 127.177L60.9722 121.465ZM132.387 75.4307L135.529 83.0207L127.776 88.5624C127.178 88.9898 126.863 89.7105 126.955 90.4396C127.362 93.6672 127.398 96.945 126.954 100.265C126.856 100.999 127.171 101.727 127.774 102.158L135.477 107.662L130.383 118.868L121.664 116.689C120.899 116.498 120.093 116.775 119.606 117.395C117.457 120.135 116.188 121.632 113.574 123.454C112.913 123.915 112.593 124.728 112.763 125.516L114.709 134.559L103.731 139.428L96.9371 130.364C96.5058 129.788 95.7987 129.489 95.0853 129.579C91.8594 129.988 88.5836 130.026 85.2654 129.584C84.4188 129.471 83.594 129.908 83.212 130.672L78.9033 139.29L67.9649 134.318L70.1473 125.593C70.3387 124.827 70.0625 124.021 69.442 123.534C67.2549 121.817 65.8387 119.761 64.1214 117.267C63.8845 116.924 63.642 116.571 63.3908 116.211C62.884 115.482 61.9578 115.175 61.1162 115.456L51.2521 118.748L46.2615 106.758L56.107 102.378C56.9127 102.019 57.3886 101.175 57.2783 100.3C56.8716 97.0742 56.835 92.5036 57.2795 89.1819C57.3972 88.3019 56.9207 87.4497 56.1094 87.0891L46.2684 82.7151L51.266 70.7208L61.1292 74.0079C61.9307 74.275 62.8137 74.0097 63.3352 73.3449C63.9208 72.5982 64.4475 71.8482 64.9363 71.1401C65.0315 71.0022 65.1248 70.8667 65.2167 70.7331L65.2248 70.7214C65.6113 70.1596 65.9735 69.6331 66.3512 69.1184C67.2797 67.8531 68.1966 66.8095 69.3671 65.9936C70.0478 65.5191 70.3649 64.6736 70.1639 63.8685L67.9859 55.1433L79.0032 50.1305L84.5637 60.1481C84.9606 60.863 85.7526 61.2643 86.5638 61.1616C89.7897 60.7528 93.0655 60.7143 96.3837 61.1571C97.1987 61.2658 97.9973 60.8646 98.3965 60.1458L103.963 50.1235L115.129 55.199L114.047 62.7642C113.993 63.1435 114.049 63.5132 114.19 63.8409L106.484 71.8766C104.832 69.8701 101.998 68.443 99.254 67.5169C96.3968 66.5525 93.2419 66 90.7 66C75.0449 66 64 78.6781 64 94.1071C64 109.469 75.1034 123 90.8193 123C106.304 123 120 109.712 120 94.1071C120 92.2962 119.617 90.7626 119.236 89.683C119.162 89.4707 119.086 89.2747 119.014 89.0962L132.387 75.4307ZM103.436 74.4677C103.522 74.5762 103.618 74.6733 103.72 74.7589L72.5565 107.255C72.2537 107.571 72.075 107.96 72.0191 108.363C69.4628 104.304 68 99.3759 68 94.1071C68 80.5963 77.5341 70 90.7 70C92.7435 70 95.4651 70.4598 97.9748 71.3069C100.553 72.1772 102.529 73.3293 103.436 74.4677ZM85.0975 118.247C80.5017 117.001 76.5521 114.28 73.6105 110.601C74.2572 110.729 74.9534 110.535 75.4435 110.024L133.087 49.9154L142.524 59.3528L85.5213 117.601C85.3338 117.793 85.1925 118.013 85.0975 118.247ZM90.8193 119C90.468 119 90.1192 118.992 89.7729 118.976L115.828 92.3515C115.931 92.8794 116 93.4706 116 94.1071C116 107.442 104.156 119 90.8193 119ZM144.984 56.1554L135.952 47.1241L150.542 42.2611L144.984 56.1554ZM52.121 129.687C52.2178 129.952 52.3728 130.201 52.5858 130.414L60.3989 138.227L54.5 144.163L45.8769 135.486L52.121 129.687Z" fill="black"/>
</svg>
