<svg width="96" height="96" viewBox="0 0 96 96" fill="none" xmlns="http://www.w3.org/2000/svg">
<path d="M65.6491 20.8062C64.868 20.0252 63.6017 20.0252 62.8206 20.8062L33 50.6269V90.748L82.8812 40.8668C83.6622 40.0857 83.6622 38.8194 82.8812 38.0384L65.6491 20.8062Z" fill="black" fill-opacity="0.2"/>
<path fill-rule="evenodd" clip-rule="evenodd" d="M17.5 87C22.1944 87 26 83.1944 26 78.5C26 73.8056 22.1944 70 17.5 70C12.8056 70 9 73.8056 9 78.5C9 83.1944 12.8056 87 17.5 87ZM23 78.5C23 81.5376 20.5376 84 17.5 84C14.4624 84 12 81.5376 12 78.5C12 75.4624 14.4624 73 17.5 73C20.5376 73 23 75.4624 23 78.5Z" fill="black"/>
<path fill-rule="evenodd" clip-rule="evenodd" d="M6.5 2C4.01472 2 2 4.01472 2 6.5V89.5C2 91.9853 4.01472 94 6.5 94H89.5C91.9853 94 94 91.9853 94 89.5V67.5C94 65.0147 91.9853 63 89.5 63H55.6193L82.4848 36.1345C84.2421 34.3772 84.2421 31.5279 82.4847 29.7706L66.6668 13.9527C64.9095 12.1953 62.0602 12.1953 60.3029 13.9527L33 41.2555V6.5C33 4.01472 30.9853 2 28.5 2H6.5ZM33 85.6193L52.6193 66H89.5C90.3285 66 91 66.6716 91 67.5V89.5C91 90.3284 90.3285 91 89.5 91H32.7439C32.9098 90.5308 33 90.026 33 89.5V85.6193ZM80.3634 34.0132L33 81.3766V45.4982L62.4242 16.074C63.01 15.4882 63.9597 15.4882 64.5455 16.074L80.3634 31.8919C80.9492 32.4777 80.9492 33.4274 80.3634 34.0132ZM5 6.5C5 5.67157 5.67157 5 6.5 5H28.5C29.3284 5 30 5.67157 30 6.5V89.5C30 90.3284 29.3284 91 28.5 91H6.5C5.67157 91 5 90.3284 5 89.5V6.5Z" fill="black"/>
</svg>
