<svg width="196" height="196" viewBox="0 0 196 196" fill="none" xmlns="http://www.w3.org/2000/svg">
<path opacity="0.07" d="M56.6883 173.589C56.8854 173.63 57.0445 173.662 57.1629 173.688C67.1429 175.886 77.4964 175.75 91.1548 175.57C102.167 175.424 115.327 175.251 132.173 176.25C169.911 178.487 174.536 165.835 189 122C203.464 78.1651 176.779 52.4535 143 25.0001C113.952 1.39135 69.1602 18.7854 45.9226 28.0006C45.9484 28.0003 45.9742 28.0001 46 28.0001H78C81.3137 28.0001 84 30.6864 84 34.0001V83.6291L123.293 44.336C125.636 41.9928 129.435 41.9928 131.778 44.336L154.789 67.3468C157.132 69.6899 157.132 73.4889 154.789 75.832L115.621 115H165C168.314 115 171 117.686 171 121V153C171 156.314 168.314 159 165 159H46C42.6863 159 40 156.314 40 153V34.0001C40 32.2467 40.7521 30.6689 41.9514 29.5719C39.8535 30.3955 38.0051 31.1023 36.4462 31.6394C18.7376 37.7411 14.529 54.4191 11.1762 109.877C7.92819 163.602 50.5748 172.337 56.6883 173.589Z" fill="black"/>
<path opacity="0.2" d="M130.022 53.6246C129.241 52.8436 127.974 52.8436 127.193 53.6246L84 96.8179V154.153L155.861 82.2922C156.642 81.5112 156.642 80.2449 155.861 79.4638L130.022 53.6246Z" fill="black"/>
<path fill-rule="evenodd" clip-rule="evenodd" d="M120.875 18.2333L112.39 9.74805L103.904 18.2333L112.39 26.7186L120.875 18.2333ZM112.39 21.0618L109.561 18.2333L112.39 15.4049L115.218 18.2333L112.39 21.0618Z" fill="black"/>
<path d="M157 168C157 166.895 156.105 166 155 166C153.895 166 153 166.895 153 168V172H149C147.895 172 147 172.895 147 174C147 175.105 147.895 176 149 176H153V180C153 181.105 153.895 182 155 182C156.105 182 157 181.105 157 180V176H161C162.105 176 163 175.105 163 174C163 172.895 162.105 172 161 172H157V168Z" fill="black"/>
<path d="M15 56C16.1046 56 17 56.8954 17 58V62H21C22.1046 62 23 62.8954 23 64C23 65.1046 22.1046 66 21 66H17V70C17 71.1046 16.1046 72 15 72C13.8954 72 13 71.1046 13 70V66H9C7.89543 66 7 65.1046 7 64C7 62.8954 7.89543 62 9 62H13V58C13 56.8954 13.8954 56 15 56Z" fill="black"/>
<path fill-rule="evenodd" clip-rule="evenodd" d="M62.5 148C68.299 148 73 143.299 73 137.5C73 131.701 68.299 127 62.5 127C56.701 127 52 131.701 52 137.5C52 143.299 56.701 148 62.5 148ZM62.5 144C58.9101 144 56 141.09 56 137.5C56 133.91 58.9101 131 62.5 131C66.0899 131 69 133.91 69 137.5C69 141.09 66.0899 144 62.5 144Z" fill="black"/>
<path fill-rule="evenodd" clip-rule="evenodd" d="M40 34C40 30.6863 42.6863 28 46 28H78C81.3137 28 84 30.6863 84 34V83.629L123.293 44.3359C125.636 41.9927 129.435 41.9927 131.778 44.3358L154.789 67.3466C157.132 69.6898 157.132 73.4888 154.789 75.8319L115.621 115H165C168.314 115 171 117.686 171 121V153C171 156.314 168.314 159 165 159H46C42.6863 159 40 156.314 40 153V34ZM84 146.621V153C84 153.701 83.8797 154.374 83.6586 155H165C166.105 155 167 154.105 167 153V121C167 119.895 166.105 119 165 119H111.621L84 146.621ZM84 140.964L151.961 73.0035C152.742 72.2224 152.742 70.9561 151.961 70.1751L128.95 47.1643C128.169 46.3832 126.903 46.3832 126.122 47.1643L84 89.2858V140.964ZM46 32C44.8954 32 44 32.8954 44 34V153C44 154.105 44.8954 155 46 155H78C79.1046 155 80 154.105 80 153V34C80 32.8954 79.1046 32 78 32H46Z" fill="black"/>
</svg>
