<svg width="96" height="96" viewBox="0 0 96 96" fill="none" xmlns="http://www.w3.org/2000/svg">
<path opacity="0.2" d="M65.6491 20.8062C64.868 20.0252 63.6017 20.0252 62.8206 20.8062L33 50.6269V90.748L82.8812 40.8668C83.6622 40.0857 83.6622 38.8194 82.8812 38.0384L65.6491 20.8062Z" fill="black"/>
<path fill-rule="evenodd" clip-rule="evenodd" d="M25 78.5C25 82.6421 21.6421 86 17.5 86C13.3579 86 10 82.6421 10 78.5C10 74.3579 13.3579 71 17.5 71C21.6421 71 25 74.3579 25 78.5ZM22 78.5C22 76.0147 19.9853 74 17.5 74C15.0147 74 13 76.0147 13 78.5C13 80.9853 15.0147 83 17.5 83C19.9853 83 22 80.9853 22 78.5Z" fill="black"/>
<path fill-rule="evenodd" clip-rule="evenodd" d="M2 6.5C2 4.01472 4.01472 2 6.5 2H28.5C30.9853 2 33 4.01472 33 6.5V41.2555L60.3029 13.9527C62.0602 12.1953 64.9095 12.1953 66.6668 13.9527L82.4847 29.7706C84.2421 31.5279 84.2421 34.3772 82.4848 36.1345L55.6193 63H89.5C91.9853 63 94 65.0147 94 67.5V89.5C94 91.9853 91.9853 94 89.5 94H6.5C4.01472 94 2 91.9853 2 89.5V6.5ZM52.6193 66L33 85.6193V89.5C33 90.026 32.9098 90.5308 32.7439 91H89.5C90.3285 91 91 90.3284 91 89.5V67.5C91 66.6716 90.3285 66 89.5 66H52.6193ZM33 81.3766L80.3634 34.0132C80.9492 33.4274 80.9492 32.4777 80.3634 31.8919L64.5455 16.074C63.9597 15.4882 63.01 15.4882 62.4242 16.074L33 45.4982V81.3766ZM6.5 5C5.67157 5 5 5.67157 5 6.5V89.5C5 90.3284 5.67157 91 6.5 91H28.5C29.3284 91 30 90.3284 30 89.5V6.5C30 5.67157 29.3284 5 28.5 5H6.5Z" fill="black"/>
</svg>
