<svg width="48" height="48" viewBox="0 0 48 48" fill="none" xmlns="http://www.w3.org/2000/svg">
<path opacity="0.2" d="M16.8293 45H17.5L42.7193 19.4351C43.8909 18.2635 43.8909 16.364 42.7193 15.1924L37.6482 10.1214C36.4767 8.94978 34.5772 8.94978 33.4056 10.1214L17.0001 26.5269V44C17.0001 44.3506 16.9399 44.6872 16.8293 45Z" fill="black"/>
<path fill-rule="evenodd" clip-rule="evenodd" d="M9 43C6.79086 43 5 41.2091 5 39C5 36.7909 6.79086 35 9 35C11.2091 35 13 36.7909 13 39C13 41.2091 11.2091 43 9 43ZM9 41C10.1046 41 11 40.1046 11 39C11 37.8954 10.1046 37 9 37C7.89543 37 7 37.8954 7 39C7 40.1046 7.89543 41 9 41Z" fill="black"/>
<path fill-rule="evenodd" clip-rule="evenodd" d="M14 1H4C2.34315 1 1 2.34315 1 4V44C1 45.6569 2.34315 47 4 47H44C45.6569 47 47 45.6569 47 44V34C47 32.3431 45.6569 31 44 31H28.1543L40.7192 18.4351C41.8908 17.2635 41.8908 15.364 40.7192 14.1924L33.6482 7.12136C32.4766 5.94978 30.5771 5.94978 29.4055 7.12136L17 19.5269V4C17 2.34315 15.6569 1 14 1ZM44 45H16.8293C16.9398 44.6872 17 44.3506 17 44V42.1543L26.1543 33H44C44.5523 33 45 33.4477 45 34V44C45 44.5523 44.5523 45 44 45ZM39.305 17.0209L17 39.3259V22.3553L30.8197 8.53557C31.2103 8.14504 31.8434 8.14504 32.234 8.53557L39.305 15.6066C39.6956 15.9972 39.6956 16.6303 39.305 17.0209ZM3 4C3 3.44772 3.44772 3 4 3H14C14.5523 3 15 3.44772 15 4V44C15 44.5523 14.5523 45 14 45H4C3.44772 45 3 44.5523 3 44V4Z" fill="black"/>
</svg>
