<svg width="36" height="36" viewBox="0 0 36 36" fill="none" xmlns="http://www.w3.org/2000/svg">
<path opacity="0.2" d="M9.14853 18.2629C9.14853 17.7106 9.59624 17.2629 10.1485 17.2629H12.4948C14.0891 17.2629 15.2682 16.8705 16.0357 16.0856C16.8032 15.3007 17.1869 14.2602 17.1869 12.9642C17.1869 10.3858 15.3759 8.985 12.9082 8.985C11.159 8.985 9.3255 10.2424 8.81255 12.013C8.65887 12.5435 8.22437 13 7.67208 13H3.39117C2.83888 13 2.38435 12.5503 2.45149 12.0021C3.05786 7.05164 8.12772 4 12.7543 4C16.0987 4 18.7219 4.7922 20.6184 6.37477C22.5149 7.94456 23.4641 10.1112 23.4641 12.8766C23.4641 14.304 23.0229 15.6146 22.1386 16.8139C21.2463 18.0181 20.0474 18.9694 18.6626 19.572C20.4442 20.1999 21.7697 21.1418 22.6391 22.3958C23.5216 23.6516 23.9647 25.1338 23.9647 26.8459C23.9647 29.6113 22.9358 31.8291 20.8798 33.4975C18.8369 35.1658 16.1284 36 12.7543 36C9.59716 36 7.01101 35.1804 4.99771 33.5413C3.25225 32.108 2.26903 30.2738 2.04805 28.0361C1.99377 27.4865 2.44772 27.0376 3 27.0376H7.27906C7.83135 27.0376 8.26322 27.4938 8.40787 28.0268C8.92379 29.9279 10.9096 31.0168 12.9045 31.0168C15.4784 31.0168 17.6838 29.4998 17.6838 26.7601C17.6838 23.6516 15.9467 22.0964 12.4707 22.0964H10.1485C9.59624 22.0964 9.14853 21.6487 9.14853 21.0964V18.2629ZM28.8978 32.5355C28.8978 30.5474 30.5159 29.2207 32.4387 29.2207C34.3554 29.2207 36 30.5452 36 32.5355C36 34.5408 34.356 35.8083 32.4387 35.8083C30.5296 35.8083 28.8978 34.5268 28.8978 32.5355Z" fill="black"/>
<path fill-rule="evenodd" clip-rule="evenodd" d="M2.46148 10H6.78341C7.01851 8.95898 7.60572 8.06461 8.34968 7.39657C9.31609 6.52877 10.6077 5.985 11.9082 5.985C13.3149 5.985 14.6354 6.41266 15.6183 7.28472C16.6151 8.16919 17.1869 9.44396 17.1869 10.9642C17.1869 12.6231 16.5773 13.9856 15.4958 14.9197C14.4334 15.8373 13.0086 16.2629 11.4948 16.2629H9.14853V19.0964H11.4707C13.3371 19.0964 14.9234 19.5115 16.0475 20.5173C17.1928 21.5421 17.6838 23.0212 17.6838 24.7601C17.6838 26.425 17.0018 27.7729 15.8965 28.6866C14.8119 29.5831 13.3785 30.0168 11.9045 30.0168C9.5537 30.0168 6.91779 28.6559 6.37851 26.0376H2.06035C2.32136 28.1491 3.41039 29.7735 4.9628 30.9297C6.77835 32.2818 9.24683 33 11.7543 33C14.3605 33 16.9464 32.2929 18.8522 30.9218C20.7272 29.5727 21.9647 27.5743 21.9647 24.8459C21.9647 21.8361 20.1976 19.5257 17.3302 18.5151C16.9425 18.3785 16.6779 18.0185 16.6632 17.6077C16.6485 17.1969 16.8867 16.819 17.2636 16.655C19.654 15.6149 21.4641 13.3689 21.4641 10.8766C21.4641 8.17765 20.3204 6.25362 18.5779 4.97357C16.8009 3.66819 14.3476 3 11.7543 3C9.48024 3 7.11022 3.80949 5.32421 5.23197C3.80573 6.44137 2.73736 8.06631 2.46148 10ZM4.07821 3.66753C6.22608 1.95684 9.03763 1 11.7543 1C14.6562 1 17.5578 1.74258 19.7619 3.36173C22.0005 5.00622 23.4641 7.5205 23.4641 10.8766C23.4641 13.628 21.9171 15.9893 19.8254 17.487C22.3755 19.0225 23.9647 21.6293 23.9647 24.8459C23.9647 28.279 22.3659 30.8576 20.0202 32.5452C17.7053 34.2108 14.686 35 11.7543 35C8.89734 35 5.98866 34.1875 3.76817 32.5337C1.52126 30.8602 0 28.3334 0 25.0376C0 24.4853 0.447715 24.0376 1 24.0376H7.27906C7.83135 24.0376 8.27906 24.4853 8.27906 25.0376C8.27906 26.7826 9.90058 28.0168 11.9045 28.0168C13.0044 28.0168 13.9606 27.692 14.6222 27.1451C15.2631 26.6153 15.6838 25.8349 15.6838 24.7601C15.6838 23.3905 15.3062 22.5378 14.7139 22.0078C14.1004 21.4589 13.0802 21.0964 11.4707 21.0964H8.14853C7.59624 21.0964 7.14853 20.6487 7.14853 20.0964V15.2629C7.14853 14.7106 7.59624 14.2629 8.14853 14.2629H11.4948C12.651 14.2629 13.5723 13.9383 14.1885 13.4061C14.7855 12.8905 15.1869 12.1036 15.1869 10.9642C15.1869 9.9728 14.8287 9.25796 14.2909 8.78073C13.7391 8.2911 12.9203 7.985 11.9082 7.985C11.1491 7.985 10.3227 8.31288 9.68593 8.88466C9.05558 9.4507 8.67208 10.1977 8.67208 11C8.67208 11.5523 8.22437 12 7.67208 12H1.39117C0.838882 12 0.391167 11.5523 0.391167 11C0.391167 7.90877 1.91786 5.38815 4.07821 3.66753ZM31.4387 28.2207C29.9654 28.2207 28.896 29.1971 28.896 30.5355C28.896 31.8581 29.9577 32.8083 31.4387 32.8083C32.9364 32.8083 34 31.8645 34 30.5355C34 29.2027 32.9145 28.2207 31.4387 28.2207ZM26.896 30.5355C26.896 27.8977 29.0663 26.2207 31.4387 26.2207C33.7962 26.2207 36 27.8877 36 30.5355C36 33.217 33.7755 34.8083 31.4387 34.8083C29.1015 34.8083 26.896 33.1956 26.896 30.5355Z" fill="black"/>
</svg>
