<svg width="48" height="48" viewBox="0 0 48 48" fill="none" xmlns="http://www.w3.org/2000/svg">
<path fill-rule="evenodd" clip-rule="evenodd" d="M41 44V14C43.2091 14 45 12.2091 45 10C45 7.79086 43.2091 6 41 6H7C4.79086 6 3 7.79086 3 10C3 12.2091 4.79086 14 7 14V44C7 45.6569 8.34315 47 10 47H38C39.6569 47 41 45.6569 41 44ZM7 12C5.89543 12 5 11.1046 5 10C5 8.89543 5.89543 8 7 8H41C42.1046 8 43 8.89543 43 10C43 11.1046 42.1046 12 41 12H7ZM39 14V44C39 44.5523 38.5523 45 38 45H10C9.44772 45 9 44.5523 9 44V14H39Z" fill="black"/>
<g opacity="0.5">
<path d="M11.056 4.7929C11.5289 5.0782 12.1435 4.92612 12.4288 4.45323C12.9689 3.5579 13.9356 3 15 3H33C34.0643 3 35.031 3.5579 35.5712 4.45323C35.8565 4.92612 36.4711 5.0782 36.944 4.7929C37.4169 4.50761 37.569 3.89298 37.2837 3.42009C36.3852 1.93074 34.7724 1 33 1H15C13.2275 1 11.6148 1.93074 10.7163 3.42009C10.431 3.89298 10.5831 4.50761 11.056 4.7929Z" fill="black"/>
<path d="M18 38.9985C18 39.5508 17.5523 39.9985 17 39.9985C16.4477 39.9985 16 39.5508 16 38.9985V20C16 19.4477 16.4477 19 17 19C17.5523 19 18 19.4477 18 20V38.9985Z" fill="black"/>
<path d="M25 38.9985C25 39.5508 24.5523 39.9985 24 39.9985C23.4477 39.9985 23 39.5508 23 38.9985V20C23 19.4477 23.4477 19 24 19C24.5523 19 25 19.4477 25 20V38.9985Z" fill="black"/>
<path d="M32 38.9985C32 39.5508 31.5523 39.9985 31 39.9985C30.4477 39.9985 30 39.5508 30 38.9985V20C30 19.4477 30.4477 19 31 19C31.5523 19 32 19.4477 32 20V38.9985Z" fill="black"/>
</g>
</svg>
