<svg width="36" height="36" viewBox="0 0 36 36" fill="none" xmlns="http://www.w3.org/2000/svg">
<path opacity="0.2" d="M25 35.0004C25 35.5527 24.5523 36.0004 24 36.0004L4.09375 36.0004C3.54146 36.0004 3.09375 35.5527 3.09375 35.0004V32.1396C3.09375 31.8831 3.19232 31.6364 3.36909 31.4505L13.3669 20.9369C15.1393 19.0265 17.5096 16.5281 17.5096 13.7274C17.5096 11.2024 16.0233 9.25228 13.3892 9.25228C10.7735 9.25228 9.20922 10.7602 8.86106 13.0036C8.77636 13.5494 8.33907 14 7.78678 14H3.46098C2.9087 14 2.45541 13.5502 2.50884 13.0005C3.03936 7.54312 7.90802 4.23725 13.4972 4.23725C19.0357 4.23725 23.8354 7.13899 23.8354 13.1251C23.8354 17.2052 21.0542 20.6362 18.4253 23.4765L11.208 30.9872L24 30.9872C24.5523 30.9872 25 31.4349 25 31.9872V35.0004ZM28.8702 32.7078C28.8702 30.7108 30.4911 29.373 32.4249 29.373C34.3522 29.373 36 30.7086 36 32.7078C36 34.7221 34.3529 36.0004 32.4249 36.0004C30.5051 36.0004 28.8702 34.708 28.8702 32.7078Z" fill="black"/>
<path fill-rule="evenodd" clip-rule="evenodd" d="M2.05373 11H6.38947C6.54563 9.79932 6.99126 8.68802 7.75079 7.81005C8.73349 6.6741 10.1691 6.01504 11.9282 6.01504C13.5111 6.01504 14.8243 6.61067 15.7297 7.64824C16.6207 8.66933 17.0487 10.038 17.0487 11.4902C17.0487 13.1726 16.3388 14.6945 15.4724 15.9859C14.6444 17.22 13.6085 18.3357 12.7562 19.2536C12.7186 19.294 12.6815 19.334 12.6447 19.3737L3 30.1226V33H22V29.9868H10.1143C9.72098 29.9868 9.36419 29.7562 9.20259 29.3977C9.041 29.0391 9.1046 28.6191 9.36512 28.3244L16.2151 20.5769L16.2304 20.56C18.8788 17.6986 21.3745 14.5322 21.3745 10.8879C21.3745 8.1947 20.3102 6.26718 18.6678 4.98809C16.9947 3.68507 14.6452 3 12.0362 3C6.87316 3 2.578 6.18756 2.05373 11ZM0 12C0 5.26459 5.7038 1 12.0362 1C14.9657 1 17.7853 1.76579 19.8967 3.41018C22.0389 5.07849 23.3745 7.5949 23.3745 10.8879C23.3745 15.3991 20.3137 19.0919 17.706 21.9102L12.3333 27.9868H23C23.5523 27.9868 24 28.4345 24 28.9868V34C24 34.5523 23.5523 35 23 35H2C1.44772 35 1 34.5523 1 34V29.7397C1 29.4932 1.09106 29.2553 1.2557 29.0719L11.1616 18.0318L11.1728 18.0195C11.2013 17.9888 11.2298 17.9581 11.2584 17.9273C12.1338 16.9841 13.0737 15.9714 13.8115 14.8716C14.5733 13.7361 15.0487 12.6085 15.0487 11.4902C15.0487 10.4173 14.7334 9.54845 14.2228 8.96321C13.7265 8.39446 12.9795 8.01504 11.9282 8.01504C10.7008 8.01504 9.83523 8.45749 9.26334 9.11855C8.67555 9.798 8.3258 10.7949 8.3258 12C8.3258 12.5523 7.87808 13 7.3258 13H1C0.447715 13 0 12.5523 0 12ZM31.4249 28.3727C29.944 28.3727 28.8684 29.3571 28.8684 30.7075C28.8684 32.0419 29.9366 33 31.4249 33C32.9299 33 34 32.0484 34 30.7075C34 29.3627 32.908 28.3727 31.4249 28.3727ZM26.8684 30.7075C26.8684 28.0638 29.0381 26.3727 31.4249 26.3727C33.7965 26.3727 36 28.0537 36 30.7075C36 33.395 33.7758 35 31.4249 35C29.0735 35 26.8684 33.3734 26.8684 30.7075Z" fill="black"/>
</svg>
