<svg width="48" height="48" viewBox="0 0 48 48" fill="none" xmlns="http://www.w3.org/2000/svg">
<path opacity="0.2" fill-rule="evenodd" clip-rule="evenodd" d="M12 22C10.8954 22 10 22.8954 10 24V43C10 45.2091 11.7909 47 14 47H38C40.2091 47 42 45.2091 42 43V26C42 23.7909 40.2091 22 38 22H12ZM23 24C25.7614 24 28 26.2386 28 29C28 30.7365 27.1076 32.3207 25.6654 33.2311L25.724 33.5808C25.87 34.4164 26.0795 35.3868 26.3342 36.4406C26.6485 37.7409 25.6709 39 24.3546 39H21.6454C20.3292 39 19.3515 37.7409 19.6658 36.4407C19.957 35.2361 20.1889 34.1408 20.3346 33.2311L20.1414 33.1028C18.8131 32.1764 18 30.6576 18 29C18 26.2386 20.2386 24 23 24Z" fill="black"/>
<path fill-rule="evenodd" clip-rule="evenodd" d="M18 29C18 26.2386 20.2386 24 23 24C25.7614 24 28 26.2386 28 29C28 30.7365 27.1076 32.3207 25.6654 33.2311L25.724 33.5808C25.87 34.4164 26.0795 35.3868 26.3342 36.4406C26.6485 37.7409 25.6709 39 24.3546 39H21.6454C20.3292 39 19.3515 37.7409 19.6658 36.4407C19.957 35.2361 20.1889 34.1408 20.3346 33.2311L20.1414 33.1028C18.8131 32.1764 18 30.6576 18 29ZM26 29C26 27.3431 24.6569 26 23 26C21.3431 26 20 27.3431 20 29C20 30.0431 20.5347 30.9922 21.4023 31.5399L21.5333 31.6301C22.1246 32.0725 22.4276 32.8097 22.3095 33.5474C22.1541 34.5172 21.9122 35.6595 21.6098 36.9106C21.5982 36.9586 21.6303 37 21.6454 37H24.3546C24.3697 37 24.4018 36.9586 24.3902 36.9105C24.0878 35.6598 23.8459 34.5173 23.6905 33.5474C23.5639 32.757 23.9208 31.9672 24.5977 31.5399L24.7565 31.4326C25.5301 30.8732 26 29.9779 26 29Z" fill="black"/>
<path fill-rule="evenodd" clip-rule="evenodd" d="M22.9299 5C17.4675 5 13 9.50215 13 15.0551V18H37C38.6569 18 40 19.3431 40 21V42C40 43.6569 38.6569 45 37 45H9C7.34315 45 6 43.6569 6 42V21C6 19.3431 7.34315 18 9 18H11V15.0551C11 8.41911 16.3415 3 22.9299 3C28.1758 3 32.6298 6.43681 34.2276 11.1808C34.4039 11.7042 34.1225 12.2714 33.5991 12.4477C33.0757 12.624 32.5085 12.3426 32.3322 11.8192C30.9954 7.85009 27.2771 5 22.9299 5ZM9 20C8.44771 20 8 20.4477 8 21V42C8 42.5523 8.44772 43 9 43H37C37.5523 43 38 42.5523 38 42V21C38 20.4477 37.5523 20 37 20H9Z" fill="black"/>
</svg>
