<svg width="196" height="196" viewBox="0 0 196 196" fill="none" xmlns="http://www.w3.org/2000/svg">
<path opacity="0.07" fill-rule="evenodd" clip-rule="evenodd" d="M194.298 96.0001C187.427 51.8731 174.973 33.5474 164.298 28.0001C160.868 26.2176 157.984 24.3587 155.116 22.5112C144.194 15.4736 133.53 8.60172 93.9704 6.74655C44.0263 4.40437 34.6842 18.2095 19.0484 45.5001C3.41268 72.7908 -11.1819 127.4 14.4942 163C35.0966 191.566 65.6478 189.827 97.3219 188.025C105.122 187.581 112.99 187.133 120.795 187.133C173.212 187.133 201.169 140.127 194.298 96.0001ZM33 81H135C138.866 81 142 84.134 142 88V159C142 162.866 138.866 166 135 166H33C29.134 166 26 162.866 26 159V88C26 84.134 29.134 81 33 81Z" fill="black"/>
<g opacity="0.2">
<path d="M143.114 48.787C144.88 49.5725 145.675 51.641 144.889 53.4072L139.362 65.8352C138.577 67.6014 136.508 68.3965 134.742 67.611C132.976 66.8255 132.181 64.757 132.966 62.9908L138.493 50.5628C139.279 48.7966 141.347 48.0015 143.114 48.787Z" fill="black"/>
<path d="M171.141 62.7691C172.67 61.5869 172.951 59.3888 171.769 57.8594C170.587 56.3301 168.389 56.0486 166.859 57.2308L148.16 71.6853C146.63 72.8675 146.349 75.0656 147.531 76.595C148.713 78.1243 150.911 78.4058 152.441 77.2236L171.141 62.7691Z" fill="black"/>
<path d="M174.378 91.2963C176.278 90.9374 177.526 89.1067 177.168 87.2073C176.809 85.3079 174.978 84.0591 173.079 84.418L155.364 87.765C153.465 88.1239 152.216 89.9546 152.575 91.854C152.934 93.7534 154.765 95.0022 156.664 94.6433L174.378 91.2963Z" fill="black"/>
<path fill-rule="evenodd" clip-rule="evenodd" d="M35 94C35 91.7908 36.7909 90 39 90H142C145.866 90 149 93.134 149 97V166C149 169.866 145.866 173 142 173H42C38.134 173 35 169.866 35 166V94ZM94.5069 141.452C93.6458 138.202 92.2004 132.45 91.4631 127.847C95.391 125.368 98 120.988 98 116C98 108.268 91.732 102 84 102C76.268 102 70 108.268 70 116C70 120.988 72.6091 125.368 76.5371 127.847C75.7998 132.45 74.3543 138.202 73.4932 141.452C73.1534 142.735 74.1185 144 75.4455 144H92.5547C93.8816 144 94.8467 142.735 94.5069 141.452Z" fill="black"/>
</g>
<path d="M131 9L135 13L131 17L127 13L131 9Z" fill="black"/>
<path d="M13 44C14.1046 44 15 44.8954 15 46V50H19C20.1046 50 21 50.8954 21 52C21 53.1046 20.1046 54 19 54H15V58C15 59.1046 14.1046 60 13 60C11.8954 60 11 59.1046 11 58V54H7C5.89543 54 5 53.1046 5 52C5 50.8954 5.89543 50 7 50H11V46C11 44.8954 11.8954 44 13 44Z" fill="black"/>
<path fill-rule="evenodd" clip-rule="evenodd" d="M195 150.5L186.5 142L178 150.5L186.5 159L195 150.5ZM186.5 153.333L183.667 150.5L186.5 147.667L189.333 150.5L186.5 153.333Z" fill="black"/>
<path fill-rule="evenodd" clip-rule="evenodd" d="M91.4631 127.847C92.2004 132.45 93.6458 138.202 94.5069 141.452C94.8467 142.735 93.8816 144 92.5547 144H75.4455C74.1185 144 73.1534 142.735 73.4932 141.452C74.3543 138.202 75.7998 132.45 76.5371 127.847C72.6091 125.368 70 120.988 70 116C70 108.268 76.268 102 84 102C91.732 102 98 108.268 98 116C98 120.988 95.391 125.368 91.4631 127.847ZM87.5134 128.48C87.2602 126.899 87.974 125.319 89.3278 124.465C92.1438 122.687 94 119.559 94 116C94 110.477 89.5229 106 84 106C78.4772 106 74 110.477 74 116C74 119.559 75.8562 122.687 78.6723 124.465C80.0261 125.319 80.74 126.899 80.4867 128.48C79.8836 132.245 78.8408 136.683 78.0013 140H89.9988C89.1594 136.683 88.1165 132.245 87.5134 128.48Z" fill="black"/>
<path fill-rule="evenodd" clip-rule="evenodd" d="M47 58.3071C47 37.7395 63.7189 21 84.2484 21C104.778 21 121.497 37.7395 121.497 58.3071C121.497 59.4117 122.392 60.3071 123.497 60.3071C124.601 60.3071 125.497 59.4117 125.497 58.3071C125.497 35.536 106.993 17 84.2484 17C61.5041 17 43 35.536 43 58.3071V81H33C29.134 81 26 84.134 26 88V159C26 162.866 29.134 166 33 166H135C138.866 166 142 162.866 142 159V88C142 84.134 138.866 81 135 81H47V58.3071ZM33 85H135C136.657 85 138 86.3431 138 88V159C138 160.657 136.657 162 135 162H33C31.3431 162 30 160.657 30 159V88C30 86.3431 31.3431 85 33 85Z" fill="black"/>
</svg>
