<svg width="96" height="96" viewBox="0 0 96 96" fill="none" xmlns="http://www.w3.org/2000/svg">
<g opacity="0.2">
<path d="M73.1315 16.9788C74.3859 17.362 75.0921 18.6897 74.7089 19.9441L72.6466 26.6941C72.2633 27.9485 70.9357 28.6548 69.6813 28.2715C68.4268 27.8882 67.7206 26.5606 68.1039 25.3062L70.1662 18.5562C70.5494 17.3018 71.877 16.5955 73.1315 16.9788Z" fill="black"/>
<path d="M87.4698 25.7406C88.5001 24.9289 88.6773 23.4356 87.8655 22.4053C87.0538 21.375 85.5605 21.1978 84.5302 22.0095L76.2802 28.5095C75.2499 29.3213 75.0727 30.8146 75.8845 31.8449C76.6962 32.8752 78.1895 33.0524 79.2198 32.2406L87.4698 25.7406Z" fill="black"/>
<path d="M87.6249 41.1219C88.9348 41.1908 90.0525 40.1849 90.1215 38.875C90.1904 37.5651 89.1845 36.4474 87.8746 36.3785L80.7497 36.0034C79.4399 35.9345 78.3221 36.9405 78.2532 38.2503C78.1842 39.5602 79.1902 40.6779 80.5 40.7469L87.6249 41.1219Z" fill="black"/>
<path fill-rule="evenodd" clip-rule="evenodd" d="M15 45.0001C15 43.3433 16.3431 42.0001 18 42.0001H73C75.7614 42.0001 78 44.2387 78 47.0001V85.0001C78 87.7615 75.7614 90.0001 73 90.0001H20C17.2386 90.0001 15 87.7615 15 85.0001V45.0001ZM47.5155 71.4482C46.9616 69.3019 46.2086 66.1816 45.7976 63.616C48.3228 62.022 50 59.2069 50 56C50 51.0294 45.9706 47 41 47C36.0294 47 32 51.0294 32 56C32 59.2069 33.6772 62.022 36.2024 63.616C35.7914 66.1816 35.0384 69.3019 34.4845 71.4482C34.153 72.7331 35.1185 74 36.4454 74H45.5546C46.8815 74 47.847 72.7331 47.5155 71.4482Z" fill="black"/>
</g>
<path fill-rule="evenodd" clip-rule="evenodd" d="M45.7976 63.616C46.2086 66.1816 46.9616 69.3019 47.5155 71.4482C47.847 72.7331 46.8815 74 45.5546 74H36.4454C35.1185 74 34.153 72.7331 34.4845 71.4482C35.0384 69.3019 35.7914 66.1816 36.2024 63.616C33.6772 62.022 32 59.2069 32 56C32 51.0294 36.0294 47 41 47C45.9706 47 50 51.0294 50 56C50 59.2069 48.3228 62.022 45.7976 63.616ZM42.8354 64.0905C42.6455 62.9048 43.1808 61.7202 44.1962 61.0792C45.8874 60.0116 47 58.1347 47 56C47 52.6863 44.3137 50 41 50C37.6863 50 35 52.6863 35 56C35 58.1347 36.1126 60.0116 37.8038 61.0792C38.8192 61.7202 39.3545 62.9048 39.1646 64.0905C38.8047 66.3372 38.2055 68.9423 37.6931 71H44.3069C43.7945 68.9423 43.1953 66.3372 42.8354 64.0905Z" fill="black"/>
<path fill-rule="evenodd" clip-rule="evenodd" d="M40.8631 7.5C29.9232 7.5 21 16.4653 21 27.4961V35H69.5C71.9853 35 74 37.0147 74 39.5V81.5C74 83.9853 71.9853 86 69.5 86H12.5C10.0147 86 8 83.9853 8 81.5V39.5C8 37.0147 10.0147 35 12.5 35H18V27.4961C18 14.826 28.2488 4.5 40.8631 4.5C51.8227 4.5 61.2198 12.2999 63.4826 22.6805C63.659 23.49 63.1459 24.2891 62.3365 24.4656C61.5271 24.642 60.7279 24.1289 60.5514 23.3195C58.5852 14.2992 50.3938 7.5 40.8631 7.5ZM11 39.5V81.5C11 82.3284 11.6716 83 12.5 83H69.5C70.3284 83 71 82.3284 71 81.5V39.5C71 38.6716 70.3284 38 69.5 38H12.5C11.6716 38 11 38.6716 11 39.5Z" fill="black"/>
</svg>
