<svg width="96" height="96" viewBox="0 0 96 96" fill="none" xmlns="http://www.w3.org/2000/svg">
<path opacity="0.2" d="M55.9871 46.7122C63.0481 43.8604 68.0304 36.9414 68.0304 28.8587C68.0304 18.2289 59.4133 9.61182 48.7835 9.61182C38.1537 9.61182 29.5366 18.2289 29.5366 28.8587C29.5366 36.8198 34.3701 43.6519 41.2625 46.5807C19.3474 49.5312 19.3474 68.0218 19.3474 89.7706H78.7862C78.7862 67.7332 78.7862 49.9899 55.9871 46.7122Z" fill="black"/>
<path fill-rule="evenodd" clip-rule="evenodd" d="M53.8679 43.5418C60.4917 40.0093 65 33.0311 65 25C65 13.402 55.598 4 44 4C32.402 4 23 13.402 23 25C23 32.8998 27.362 39.7808 33.8089 43.3658C30.9761 43.9281 28.5029 44.7756 26.3479 45.8921C21.8436 48.2257 18.8384 51.6785 16.8569 55.9038C14.8922 60.0932 13.9414 65.023 13.4702 70.3451C13 75.6563 13 81.4708 13 87.4579V89.0003H55.5C56.3284 89.0003 57 88.3288 57 87.5003C57 86.6719 56.3284 86.0003 55.5 86.0003H16.0003C16.0033 80.522 16.0392 75.346 16.4585 70.6096C16.9161 65.4414 17.8228 60.9098 19.573 57.1776C21.3064 53.4814 23.8737 50.5526 27.7279 48.5558C30.8325 46.9474 34.8405 45.9086 40.0366 45.6265C41.3201 45.8717 42.6451 46 44 46C45.1931 46 46.363 45.9005 47.5018 45.7093C55.6833 46.3061 61.0404 48.5205 64.6078 51.8031C68.6404 55.5136 70.6309 60.8115 71.5848 67.4576C71.7025 68.2776 72.4627 68.847 73.2827 68.7293C74.1027 68.6116 74.6721 67.8514 74.5544 67.0314C73.5562 60.077 71.403 53.9789 66.6391 49.5954C63.5012 46.7081 59.3363 44.6611 53.8679 43.5418ZM44 7C53.9411 7 62 15.0589 62 25C62 33.8002 55.6848 41.1254 47.339 42.6909C46.3425 42.6246 45.3125 42.5811 44.248 42.5609C42.8619 42.5345 41.534 42.5516 40.2619 42.6113C32.1147 40.8906 26 33.6594 26 25C26 15.0589 34.0589 7 44 7Z" fill="black"/>
<path d="M72 75.5C72 74.6716 71.3284 74 70.5 74C69.6716 74 69 74.6716 69 75.5V82.0126L62.5002 82.0126C61.6718 82.0126 61.0002 82.6842 61.0002 83.5126C61.0002 84.341 61.6718 85.0126 62.5002 85.0126L69 85.0126V91.5C69 92.3284 69.6716 93 70.5 93C71.3284 93 72 92.3284 72 91.5V85.0126L78.5003 85.0125C79.3287 85.0125 80.0002 84.341 80.0002 83.5125C80.0002 82.6841 79.3287 82.0125 78.5002 82.0125L72 82.0126V75.5Z" fill="black"/>
</svg>
