<svg width="196" height="196" viewBox="0 0 196 196" fill="none" xmlns="http://www.w3.org/2000/svg">
<path opacity="0.07" d="M176.782 56.0109C187.902 85.404 196.792 132.492 171.748 166.484C149.74 196.353 44.0051 196.073 20.2284 157.821C-3.54833 119.57 10.9367 70.8997 24.8735 46.7319C38.8103 22.5641 55.552 7.3326 102.145 9.51545C148.738 11.6983 171.319 41.5706 176.782 56.0109Z" fill="black"/>
<g opacity="0.2">
<path d="M123.34 61.972C123.34 74.9786 115.323 86.1126 103.961 90.7017C140.649 95.9762 140.649 126.529 140.649 161.991H45C45 126.993 45 95.2382 80.2656 90.4901C69.1744 85.7771 61.3964 74.7829 61.3964 61.972C61.3964 44.8666 75.2631 31 92.3684 31C109.474 31 123.34 44.8666 123.34 61.972Z" fill="black"/>
<path d="M170.295 160.565C172.213 160.802 173.961 159.439 174.198 157.521C174.436 155.603 173.073 153.855 171.154 153.618L157.43 151.919C155.512 151.682 153.764 153.045 153.527 154.963C153.289 156.881 154.652 158.629 156.57 158.866L170.295 160.565Z" fill="black"/>
<path d="M177.518 131.236C178.492 132.906 177.928 135.049 176.258 136.023L157.173 147.153C155.504 148.127 153.361 147.563 152.387 145.893C151.413 144.223 151.977 142.08 153.647 141.106L172.732 129.976C174.402 129.002 176.545 129.566 177.518 131.236Z" fill="black"/>
<path d="M156.485 128.672C157.409 126.974 156.782 124.849 155.084 123.924C153.386 123 151.261 123.627 150.337 125.325L145.265 134.64C144.341 136.338 144.968 138.464 146.665 139.388C148.363 140.312 150.489 139.685 151.413 137.987L156.485 128.672Z" fill="black"/>
</g>
<path fill-rule="evenodd" clip-rule="evenodd" d="M85 22C66.7746 22 52 36.7746 52 55C52 68.8248 60.5012 80.6641 72.5612 85.5753C66.5744 86.4223 61.5157 87.9866 57.2512 90.2102C50.0923 93.9429 45.3186 99.4578 42.1658 106.212C39.035 112.92 37.5113 120.826 36.755 129.392C36 137.942 36 147.298 36 156.942V158.998H104.107C105.212 158.998 106.107 158.103 106.107 156.998C106.107 155.894 105.212 154.998 104.107 154.998H40.0003C40.0037 146.029 40.0524 137.525 40.7395 129.743C41.4777 121.383 42.943 114.004 45.7903 107.904C48.6155 101.852 52.8089 97.0376 59.1006 93.757C65.4339 90.4546 74.0383 88.6316 85.7863 88.8553C102.062 89.1654 112.33 92.9525 118.913 99.0104C125.503 105.074 128.729 113.71 130.27 124.447C130.427 125.541 131.441 126.3 132.534 126.143C133.627 125.986 134.387 124.972 134.23 123.879C132.63 112.731 129.187 103.028 121.622 96.0669C115.877 90.7809 107.943 87.2467 97.1048 85.7092C109.342 80.8819 118 68.9521 118 55C118 36.7746 103.225 22 85 22ZM56 55C56 38.9837 68.9837 26 85 26C101.016 26 114 38.9837 114 55C114 71.0163 101.016 84 85 84C68.9837 84 56 71.0163 56 55Z" fill="black"/>
<path d="M24 46C24 44.8954 23.1046 44 22 44C20.8954 44 20 44.8954 20 46V50H16C14.8954 50 14 50.8954 14 52C14 53.1046 14.8954 54 16 54H20V58C20 59.1046 20.8954 60 22 60C23.1046 60 24 59.1046 24 58V54H28C29.1046 54 30 53.1046 30 52C30 50.8954 29.1046 50 28 50H24V46Z" fill="black"/>
<path d="M183 72L187 76L183 80L179 76L183 72Z" fill="black"/>
<path d="M132 137C132 135.895 131.105 135 130 135C128.895 135 128 135.895 128 137V149H116C114.895 149 114 149.895 114 151C114 152.105 114.895 153 116 153H128V164C128 165.105 128.895 166 130 166C131.105 166 132 165.105 132 164V153H144C145.105 153 146 152.105 146 151C146 149.895 145.105 149 144 149H132V137Z" fill="black"/>
<path fill-rule="evenodd" clip-rule="evenodd" d="M51.5 171L60 179.5L51.5 188L43 179.5L51.5 171ZM48.6667 179.5L51.5 182.333L54.3333 179.5L51.5 176.667L48.6667 179.5Z" fill="black"/>
</svg>
