<svg width="222" height="220" viewBox="0 0 222 220" fill="none" xmlns="http://www.w3.org/2000/svg">
<path opacity="0.07" d="M186.782 66.011C197.902 95.4042 206.792 142.492 181.748 176.484C159.74 206.353 54.0051 206.073 30.2284 167.821C6.45166 129.57 20.9367 80.8998 34.8735 56.732C48.8103 32.5643 65.552 17.3327 112.145 19.5156C158.738 21.6984 181.319 51.5707 186.782 66.011Z" fill="black"/>
<g opacity="0.2">
<path d="M133.34 71.972C133.34 84.9786 125.323 96.1126 113.961 100.702C150.649 105.976 150.649 136.529 150.649 171.991H55C55 136.993 55 105.238 90.2656 100.49C79.1744 95.7771 71.3964 84.7829 71.3964 71.972C71.3964 54.8666 85.2631 41 102.368 41C119.474 41 133.34 54.8666 133.34 71.972Z" fill="black"/>
<path d="M180.295 170.565C182.213 170.802 183.961 169.439 184.198 167.521C184.436 165.603 183.073 163.855 181.154 163.618L167.43 161.919C165.512 161.682 163.764 163.045 163.527 164.963C163.289 166.881 164.652 168.629 166.57 168.866L180.295 170.565Z" fill="black"/>
<path d="M187.518 141.236C188.492 142.906 187.928 145.049 186.258 146.023L167.173 157.153C165.504 158.127 163.361 157.563 162.387 155.893C161.413 154.223 161.977 152.08 163.647 151.106L182.732 139.976C184.402 139.002 186.545 139.566 187.518 141.236Z" fill="black"/>
<path d="M166.485 138.672C167.409 136.974 166.782 134.849 165.084 133.924C163.386 133 161.261 133.627 160.337 135.325L155.265 144.64C154.341 146.338 154.968 148.464 156.665 149.388C158.363 150.312 160.489 149.685 161.413 147.987L166.485 138.672Z" fill="black"/>
</g>
<path fill-rule="evenodd" clip-rule="evenodd" d="M95 32C76.7746 32 62 46.7746 62 65C62 78.8248 70.5012 90.6641 82.5612 95.5753C76.5744 96.4223 71.5157 97.9866 67.2512 100.21C60.0923 103.943 55.3186 109.458 52.1658 116.212C49.035 122.92 47.5113 130.826 46.755 139.392C46 147.942 46 157.298 46 166.942V168.998H114.107C115.212 168.998 116.107 168.103 116.107 166.998C116.107 165.894 115.212 164.998 114.107 164.998H50.0003C50.0037 156.029 50.0524 147.525 50.7395 139.743C51.4777 131.383 52.943 124.004 55.7903 117.904C58.6155 111.852 62.8089 107.038 69.1006 103.757C75.4339 100.455 84.0383 98.6316 95.7863 98.8553C112.062 99.1654 122.33 102.952 128.913 109.01C135.503 115.074 138.729 123.71 140.27 134.447C140.427 135.541 141.441 136.3 142.534 136.143C143.627 135.986 144.387 134.972 144.23 133.879C142.63 122.731 139.187 113.028 131.622 106.067C125.877 100.781 117.943 97.2467 107.105 95.7092C119.342 90.8819 128 78.9521 128 65C128 46.7746 113.225 32 95 32ZM66 65C66 48.9837 78.9837 36 95 36C111.016 36 124 48.9837 124 65C124 81.0163 111.016 94 95 94C78.9837 94 66 81.0163 66 65Z" fill="black"/>
<path d="M34 56C34 54.8954 33.1046 54 32 54C30.8954 54 30 54.8954 30 56V60H26C24.8954 60 24 60.8954 24 62C24 63.1046 24.8954 64 26 64H30V68C30 69.1046 30.8954 70 32 70C33.1046 70 34 69.1046 34 68V64H38C39.1046 64 40 63.1046 40 62C40 60.8954 39.1046 60 38 60H34V56Z" fill="black"/>
<path d="M193 82L197 86L193 90L189 86L193 82Z" fill="black"/>
<path d="M142 147C142 145.895 141.105 145 140 145C138.895 145 138 145.895 138 147V159H126C124.895 159 124 159.895 124 161C124 162.105 124.895 163 126 163H138V174C138 175.105 138.895 176 140 176C141.105 176 142 175.105 142 174V163H154C155.105 163 156 162.105 156 161C156 159.895 155.105 159 154 159H142V147Z" fill="black"/>
<path fill-rule="evenodd" clip-rule="evenodd" d="M61.5 181L70 189.5L61.5 198L53 189.5L61.5 181ZM58.6667 189.5L61.5 192.333L64.3333 189.5L61.5 186.667L58.6667 189.5Z" fill="black"/>
</svg>
