<svg width="48" height="48" viewBox="0 0 48 48" fill="none" xmlns="http://www.w3.org/2000/svg">
<path opacity="0.2" d="M28.267 25.4841C31.5946 24.1402 33.9426 20.8795 33.9426 17.0704C33.9426 12.0609 29.8817 8 24.8722 8C19.8628 8 15.8019 12.0609 15.8019 17.0704C15.8019 20.8221 18.0797 24.0419 21.3279 25.4221C11 26.8126 11 35.5265 11 45.776H39.0114C39.0114 35.3906 39.0114 27.0288 28.267 25.4841Z" fill="black"/>
<path fill-rule="evenodd" clip-rule="evenodd" d="M12.0078 14.0704C12.0078 8.5518 16.4815 4.07812 22.0001 4.07812C27.5186 4.07812 31.9923 8.5518 31.9923 14.0704C31.9923 17.8921 29.8468 21.2128 26.6945 22.8935C29.2719 23.4329 31.2595 24.4109 32.7698 25.8005C35.0863 27.932 36.1169 30.8841 36.5916 34.1915C36.6701 34.7382 36.2905 35.245 35.7438 35.3234C35.1971 35.4019 34.6904 35.0223 34.6119 34.4757C34.1667 31.3737 33.2445 28.9552 31.4155 27.2723C29.5897 25.5923 26.6977 24.4974 21.9867 24.4077C18.5893 24.343 16.1446 24.8715 14.371 25.7963C12.6182 26.7102 11.4503 28.0475 10.6569 29.7473C9.85237 31.4708 9.42929 33.5769 9.21496 36.0042C9.02601 38.1442 9.00314 40.4756 9.00038 42.9496H27.36C27.9123 42.9496 28.36 43.3973 28.36 43.9496C28.36 44.5018 27.9123 44.9496 27.36 44.9496H7V43.9217C7 41.1059 7 38.3507 7.22271 35.8283C7.44607 33.2988 7.89835 30.9285 8.84457 28.9014C9.80185 26.8505 11.26 25.1629 13.4463 24.0229C14.5062 23.4703 15.7197 23.0553 17.1053 22.7837C14.0628 21.0709 12.0078 17.8106 12.0078 14.0704ZM22.0001 6.06261C17.5775 6.06261 13.9923 9.64781 13.9923 14.0704C13.9923 18.4929 17.5775 22.0781 22.0001 22.0781C26.4226 22.0781 30.0078 18.4929 30.0078 14.0704C30.0078 9.64781 26.4226 6.06261 22.0001 6.06261Z" fill="black"/>
<path d="M37 39C37 38.4477 36.5523 38 36 38C35.4477 38 35 38.4477 35 39V42H32C31.4477 42 31 42.4477 31 43C31 43.5523 31.4477 44 32 44H35V47C35 47.5523 35.4477 48 36 48C36.5523 48 37 47.5523 37 47V44H40C40.5523 44 41 43.5523 41 43C41 42.4477 40.5523 42 40 42H37V39Z" fill="black"/>
</svg>
