<svg width="196" height="196" viewBox="0 0 196 196" fill="none" xmlns="http://www.w3.org/2000/svg">
<path opacity="0.07" d="M57.1629 173.688C53.3719 172.853 7.82349 165.334 11.1762 109.877C14.529 54.4189 18.7376 37.741 36.4462 31.6393C54.1548 25.5376 97.2013 -3.33517 130.98 24.1181C164.759 51.5714 201.208 76.1944 186.744 120.029C172.28 163.864 169.911 178.487 132.173 176.249C94.4338 174.012 75.1893 177.658 57.1629 173.688Z" fill="black"/>
<g opacity="0.2">
<path d="M134.786 40.3238C136.583 39.418 138.774 40.1407 139.68 41.9379L154.028 70.4075C154.934 72.2047 154.212 74.396 152.414 75.3018C150.617 76.2076 148.426 75.4849 147.52 73.6877L133.171 45.2181C132.266 43.4209 132.988 41.2296 134.786 40.3238Z" fill="black"/>
<path d="M126.276 55.9702C128.111 55.1443 130.268 55.9626 131.094 57.7979L137.244 71.4633C138.069 73.2987 137.251 75.456 135.416 76.2819C133.58 77.1078 131.423 76.2895 130.597 74.4542L124.448 60.7888C123.622 58.9534 124.44 56.7961 126.276 55.9702Z" fill="black"/>
<path d="M51.1389 129.788C52.5208 128.325 54.8272 128.259 56.2904 129.641L68.5893 141.257C70.0524 142.638 70.1183 144.945 68.7364 146.408C67.3546 147.871 65.0482 147.937 63.585 146.555L51.2861 134.94C49.8229 133.558 49.757 131.251 51.1389 129.788Z" fill="black"/>
<path d="M35.8709 137.085C37.2479 135.617 39.554 135.544 41.0218 136.921L63.1142 157.647C64.582 159.024 64.6556 161.33 63.2786 162.798C61.9016 164.265 59.5955 164.339 58.1277 162.962L36.0353 142.236C34.5675 140.859 34.4939 138.553 35.8709 137.085Z" fill="black"/>
<path d="M77.5883 134.068C86.118 144.933 97.8009 159.814 114.519 159.814C119.392 159.814 124.43 158.502 129.488 155.917C144.638 148.174 147.959 137.463 152.162 123.905L152.903 121.53C156.778 109.15 159.367 99.2436 160.067 96.4997C161.547 91.7481 158.643 86.848 153.621 85.4761C151.228 84.8222 148.624 85.0809 146.444 86.1941C144.238 87.3234 142.64 89.1767 141.942 91.4131L137.128 108.035C137.051 108.306 136.768 108.52 136.471 108.538C136.121 108.462 135.863 108.376 135.749 108.119L108.878 47.5811C106.474 43.5696 101.912 42.1636 98.1381 44.0891C94.0999 46.153 93.2364 49.5388 95.5004 54.4388C97.7923 59.4031 108.796 89.6801 110.629 95.0075C110.766 95.4106 110.62 95.7396 110.291 95.908C109.819 96.1146 109.512 95.9341 109.331 95.6433L81.5964 50.9207C80.2518 48.6241 77.7107 47.186 74.9785 47.186C73.752 47.186 72.5255 47.4808 71.43 48.0425C69.6751 48.939 68.4357 50.4093 67.9417 52.1804C67.4541 53.9294 67.7355 55.8308 68.7364 57.5378L94.4543 101.408C94.6412 101.725 94.5402 102.102 94.2159 102.3C93.7132 102.569 93.4576 102.415 93.2407 102.16L66.9772 69.9133C65.5209 68.2044 63.1345 66.1926 59.949 66.1926C58.701 66.1926 57.4423 66.5115 56.2072 67.1434C54.6456 67.9397 53.6275 69.1572 53.2623 70.6595C52.807 72.5369 53.4342 74.7653 54.9829 76.7751C57.1309 79.557 77.9212 108.528 82.0647 114.309L82.1914 114.477C82.3933 114.76 82.3439 115.139 82.0754 115.362C81.8091 115.585 81.3773 115.587 81.1174 115.382L55.4962 95.3183C54.0335 94.1731 51.7416 92.8091 49.1382 92.8091C48.0019 92.8091 46.9107 93.0719 45.8947 93.5914C44.9646 94.0647 44.2386 95.1459 43.9529 96.4817C43.6501 97.8958 43.8842 99.358 44.6124 100.6C46.1289 103.187 51.1723 107.712 56.5144 112.502L56.5315 112.517C62.4643 117.839 69.1729 123.856 74.042 129.641C75.0687 130.861 76.1599 132.246 77.5883 134.068Z" fill="black"/>
</g>
<path fill-rule="evenodd" clip-rule="evenodd" d="M128.875 16.2334L120.39 7.74808L111.904 16.2334L120.39 24.7186L128.875 16.2334ZM120.39 19.0618L117.561 16.2334L120.39 13.4049L123.218 16.2334L120.39 19.0618Z" fill="black"/>
<path d="M15 52C15 50.8954 14.1046 50 13 50C11.8954 50 11 50.8954 11 52V56H7C5.89543 56 5 56.8954 5 58C5 59.1046 5.89543 60 7 60H11V64C11 65.1046 11.8954 66 13 66C14.1046 66 15 65.1046 15 64V60H19C20.1046 60 21 59.1046 21 58C21 56.8954 20.1046 56 19 56H15V52Z" fill="black"/>
<path d="M184.95 68.0436L180.707 63.801L176.465 68.0436L180.707 72.2862L184.95 68.0436Z" fill="black"/>
<path d="M91.4845 39.0047C86.508 41.5482 85.2965 45.9977 87.7999 51.6645L87.998 52.1018L88.2492 52.6792C89.8257 56.3976 94.25 68.2011 97.9745 78.376L98.967 81.096L77.5514 46.5637C75.8705 43.6913 72.6688 41.8831 69.2339 41.8831C67.6884 41.8831 66.1494 42.2542 64.773 42.9597C62.5322 44.1046 60.9178 46.0196 60.2706 48.3401L60.1932 48.6391C59.6669 50.8384 60.0531 53.1773 61.2665 55.2465L78.503 84.649L62.7833 65.3474C60.4601 62.6204 57.6177 60.8897 54.2044 60.8897C52.6295 60.8897 51.0604 61.2881 49.5517 62.0598C47.4913 63.1105 46.0825 64.7933 45.5742 66.8842C44.9857 69.3105 45.7024 72.0253 47.448 74.4182L48.526 75.8612C49.1738 76.7407 50.1121 78.0278 51.3113 79.681L60.8174 92.8522L69.512 104.949L50.9846 90.4408C48.6983 88.6507 46.1423 87.5062 43.3936 87.5062C41.9399 87.5062 40.5367 87.8445 39.2395 88.5078C37.7289 89.2765 36.656 90.8736 36.2525 92.7605C35.8451 94.6621 36.161 96.6348 37.1424 98.3083L37.3598 98.6646C38.725 100.818 41.2401 103.304 47.5746 109.016L52.875 113.783C53.5759 114.417 54.1841 114.971 54.8511 115.583L56.0186 116.659C58.68 119.126 60.9108 121.29 62.9056 123.362C64.3407 124.853 65.626 126.27 66.7671 127.626L67.6211 128.659C67.8826 128.98 68.1665 129.334 68.4971 129.75L71.861 134.016C77.7416 141.429 81.217 145.287 85.9557 149.247C93.1379 155.249 100.599 158.511 108.774 158.511C113.977 158.511 119.323 157.119 124.653 154.395C132.103 150.587 137.195 145.907 140.894 139.829L141.204 139.312C143.698 135.109 145.174 131.267 147.827 122.802L149.337 117.96C152.193 108.784 154.515 100.482 156.112 94.2676L156.248 93.734L156.231 93.7916C158.052 87.9472 154.508 81.9117 148.403 80.2438C145.53 79.4588 142.415 79.77 139.79 81.11L139.485 81.2721C136.963 82.6564 135.117 84.8619 134.288 87.5136L130.428 100.84L104.911 43.3551L104.849 43.2504C101.938 38.3919 96.2524 36.572 91.4845 39.0047ZM101.275 45.0775L101.357 45.209L128.177 105.627C128.426 106.188 128.843 106.604 129.359 106.87C129.663 107.027 129.936 107.11 130.302 107.189L130.571 107.248L130.847 107.231C131.972 107.163 132.988 106.388 133.306 105.285L138.118 88.6665C138.642 86.9903 139.877 85.5594 141.611 84.6715C143.342 83.7876 145.433 83.5788 147.349 84.1024C151.239 85.1651 153.451 88.8196 152.477 92.3797L152.384 92.7024L151.774 95.0577C150.166 101.183 147.938 109.041 145.25 117.63L143.868 122.058C141.297 130.227 139.896 133.773 137.477 137.749C134.167 143.189 129.629 147.359 122.833 150.833C118.045 153.28 113.317 154.511 108.774 154.511C101.641 154.511 95.0381 151.624 88.5208 146.178L87.943 145.69C83.653 142.025 80.2971 138.235 74.5905 131.02L71.6992 127.35C70.9765 126.44 70.4662 125.812 69.9404 125.185L69.8274 125.05C68.6255 123.622 67.2811 122.14 65.7874 120.588C63.7349 118.456 61.454 116.243 58.7433 113.731L56.3031 111.492L49.6418 105.492C43.8904 100.287 41.5719 97.9553 40.5931 96.2853C40.118 95.4751 39.9656 94.5234 40.1639 93.5977C40.332 92.8117 40.7114 92.2469 41.0571 92.071C41.7943 91.694 42.5734 91.5062 43.3936 91.5062C45.0972 91.5062 46.8718 92.3008 48.5186 93.5902L74.1397 113.654C75.1414 114.444 76.6261 114.42 77.6148 113.592C78.6822 112.706 78.8859 111.149 78.0749 110.012L77.9169 109.802L57.3353 81.1816C53.9129 76.4449 51.6818 73.3808 50.92 72.3789L50.8212 72.2498C49.6191 70.6899 49.1616 69.0637 49.4613 67.8281C49.6837 66.9132 50.3127 66.1618 51.3711 65.6221C52.3323 65.1305 53.2805 64.8897 54.2044 64.8897C56.2444 64.8897 58.1028 66.0213 59.7103 67.9076L85.9453 100.12C86.8258 101.155 88.105 101.461 89.4143 100.761L89.5158 100.703C90.7584 99.9421 91.1816 98.3592 90.4324 97.0889L64.7171 53.2233C63.9843 51.9738 63.785 50.629 64.1236 49.4145C64.4643 48.193 65.3287 47.1676 66.5953 46.5205C67.4091 46.1033 68.3226 45.8831 69.2339 45.8831C71.1738 45.8831 72.9841 46.8599 73.9981 48.4213L101.887 93.3945C102.604 94.5516 103.98 95.0352 105.347 94.4379L105.461 94.3841C106.689 93.7529 107.229 92.3812 106.776 91.0569L106.039 88.9426C102.497 78.8881 93.9416 55.7445 91.7691 50.7406L91.5716 50.2976C89.7302 46.3121 90.2925 44.1061 93.3037 42.5671C96.0768 41.1522 99.3914 42.1556 101.275 45.0775Z" fill="black"/>
</svg>
