<svg width="48" height="48" viewBox="0 0 48 48" fill="none" xmlns="http://www.w3.org/2000/svg">
<g opacity="0.2">
<path d="M37.957 1.56732C38.635 1.22561 39.4616 1.49823 39.8033 2.17622L45.2162 12.9162C45.558 13.5942 45.2853 14.4208 44.6074 14.7625C43.9294 15.1042 43.1027 14.8316 42.761 14.1536L37.3481 3.41365C37.0064 2.73566 37.279 1.90903 37.957 1.56732Z" fill="black"/>
<path d="M34.7467 7.4698C35.439 7.15824 36.2529 7.46693 36.5644 8.1593L38.8843 13.3145C39.1958 14.0068 38.8871 14.8207 38.1948 15.1322C37.5024 15.4438 36.6886 15.1351 36.377 14.4427L34.0572 9.28756C33.7456 8.5952 34.0543 7.78136 34.7467 7.4698Z" fill="black"/>
<path d="M6.86732 35.2997C7.38862 34.7477 8.25869 34.7228 8.81066 35.2441L13.4503 39.626C14.0023 40.1474 14.0272 41.0174 13.5058 41.5694C12.9845 42.1214 12.1145 42.1462 11.5625 41.6249L6.92284 37.243C6.37087 36.7217 6.34601 35.8516 6.86732 35.2997Z" fill="black"/>
<path d="M1.65876 37.6829C2.17822 37.1292 3.0482 37.1014 3.60191 37.6209L11.9361 45.4396C12.4898 45.959 12.5176 46.829 11.9981 47.3827C11.4787 47.9364 10.6087 47.9642 10.055 47.4447L1.72077 39.626C1.16706 39.1066 1.1393 38.2366 1.65876 37.6829Z" fill="black"/>
<path d="M16.3798 36.9316C19.5976 41.0304 24.0049 46.644 30.3116 46.644C32.1502 46.644 34.0503 46.1492 35.9586 45.1739C41.6738 42.2531 42.9265 38.2126 44.5123 33.0976L44.7919 32.2017C46.2537 27.5316 47.2301 23.7944 47.4942 22.7593C48.0526 20.9668 46.957 19.1183 45.0625 18.6007C44.1598 18.354 43.1777 18.4516 42.3552 18.8716C41.5231 19.2976 40.9202 19.9967 40.6568 20.8404L38.8409 27.1109C38.8117 27.213 38.7048 27.294 38.593 27.3008C38.4609 27.272 38.3636 27.2395 38.3207 27.1426L28.1837 4.30512C27.2769 2.7918 25.5558 2.26138 24.1321 2.98777C22.6087 3.76637 22.283 5.04362 23.137 6.89214C24.0017 8.76487 28.1529 20.1867 28.8441 22.1964C28.8959 22.3484 28.8408 22.4725 28.7169 22.5361C28.5386 22.614 28.4227 22.5459 28.3547 22.4362L17.8919 5.56496C17.3846 4.69858 16.426 4.15605 15.3953 4.15605C14.9326 4.15605 14.4699 4.26728 14.0567 4.47915C13.3947 4.81738 12.9271 5.37201 12.7407 6.04014C12.5568 6.69995 12.6629 7.41726 13.0405 8.06118L22.7424 24.6109C22.8129 24.7304 22.7748 24.8727 22.6525 24.9476C22.4629 25.049 22.3664 24.9907 22.2846 24.8946L12.3769 12.7298C11.8275 12.0851 10.9273 11.3262 9.72556 11.3262C9.25477 11.3262 8.77992 11.4465 8.31399 11.6848C7.72489 11.9852 7.34081 12.4445 7.20305 13.0112C7.03127 13.7195 7.26788 14.5601 7.85211 15.3183C8.66243 16.3678 16.5054 27.297 18.0685 29.4777L18.1163 29.5412C18.1925 29.6479 18.1739 29.7909 18.0726 29.8749C17.9721 29.9589 17.8092 29.9597 17.7112 29.8825L8.04578 22.3136C7.49395 21.8816 6.62935 21.367 5.64725 21.367C5.2186 21.367 4.80696 21.4662 4.42368 21.6621C4.07281 21.8407 3.79893 22.2486 3.69116 22.7525C3.5769 23.2859 3.66523 23.8375 3.93992 24.3059C4.512 25.282 6.41462 26.989 8.42987 28.7959L8.43633 28.8017C10.6744 30.8092 13.2052 33.0792 15.042 35.2616C15.4293 35.7217 15.841 36.2445 16.3798 36.9316Z" fill="black"/>
</g>
<path d="M11.7608 34.6156L12.2501 35.2041L14.3115 37.7564L14.9256 38.504C19.4773 43.9736 22.8602 46.3542 27.7955 46.3542C29.7988 46.3542 31.8533 45.8193 33.8976 44.7744C38.5576 42.393 40.4812 39.6737 42.3658 33.9566L42.9514 32.1038L43.3846 30.7063C44.4344 27.2951 45.2421 24.4793 45.9471 21.7166C46.662 19.4261 45.244 17.0112 42.81 16.3461L42.5967 16.2932C40.3165 15.7836 37.8809 17.0267 37.1861 19.2526L35.9157 23.6369L26.5816 2.60955L26.5254 2.50125C25.3624 0.560415 23.0782 -0.170748 21.1615 0.807145C19.1895 1.81504 18.6802 3.59623 19.6148 5.79991L19.7556 6.1159C20.158 7.02651 21.3197 10.088 22.5088 13.2966L23.0417 14.7389L16.2257 3.74806C15.18 1.96148 13.0111 1.49413 11.1954 2.36594L11.0211 2.45446C9.25347 3.40237 8.5428 5.36894 9.66179 7.27716L14.5457 15.6089L10.6362 10.8084C9.71411 9.72597 8.58141 9.03629 7.20947 9.03629C4.13858 9.03629 2.73599 12.0892 4.43376 14.4896L6.13872 16.8174L9.64381 21.6759L11.7817 24.6489L6.14623 20.2365C5.24456 19.5304 4.23232 19.0772 3.13116 19.0772C0.766266 19.0772 -0.636319 21.48 0.561225 23.522L0.673536 23.704C1.17053 24.4709 2.04695 25.364 3.92221 27.0722L7.41562 30.2267L8.11968 30.8784C8.79653 31.5108 9.39505 32.0893 9.94541 32.6456C10.6401 33.3478 11.2438 34.0014 11.7608 34.6156ZM15.8647 36.4964L13.9721 34.1501C13.7274 33.8506 13.5081 33.5856 13.2909 33.3276C12.7365 32.669 12.0972 31.977 11.3673 31.2391L10.7811 30.6556C10.2779 30.162 9.73529 29.647 9.13505 29.0914L7.25478 27.3821L5.51009 25.8121C3.52302 24.0076 2.63712 23.1086 2.28657 22.5105C1.87544 21.8094 2.30287 21.0772 3.13116 21.0772C3.70975 21.0772 4.33126 21.3555 4.91317 21.8111L14.5786 29.3799C15.1346 29.8177 15.8931 29.7337 16.3258 29.2083C16.7031 28.7503 16.7245 28.0824 16.3515 27.5866L7.09008 14.7236L6.12754 13.4173C5.24541 12.2725 5.78798 11.0363 7.20947 11.0363C7.89478 11.0363 8.53546 11.4264 9.09968 12.0885L18.9931 24.2362C19.4339 24.754 20.1203 24.8193 20.6363 24.5189C21.2129 24.1832 21.4641 23.4514 21.0877 22.8131L11.3871 6.26558C10.862 5.37019 11.1632 4.60002 12.0611 4.16888C12.9975 3.71927 14.0207 3.93973 14.5128 4.78036L24.9888 21.6734C25.7957 22.9746 27.7595 22.0059 27.2745 20.5837L26.6959 18.9392C25.1726 14.6701 22.1627 6.55601 21.5288 5.18307C20.8861 3.79185 21.0613 3.10447 22.0711 2.58834L22.2157 2.52166C23.0909 2.15978 24.0943 2.48371 24.7107 3.3754L24.7807 3.48289L34.8906 26.2585C35.3614 27.32 36.9623 27.2309 37.2864 26.0954L39.1012 19.8288C39.4778 18.6232 40.9435 17.9095 42.2828 18.2754C43.65 18.6489 44.4075 19.939 44.0234 21.172L43.7346 22.2833C43.1459 24.5135 42.4854 26.8057 41.6769 29.4531L40.7151 32.5578L40.4726 33.3122C38.7404 38.5793 37.0965 40.8936 32.9874 42.9935C31.2145 43.8996 29.4688 44.3542 27.7955 44.3542C23.4356 44.3542 20.3786 42.0606 15.8647 36.4964Z" fill="black"/>
</svg>
