<svg width="96" height="96" viewBox="0 0 96 96" fill="none" xmlns="http://www.w3.org/2000/svg">
<g opacity="0.2">
<path d="M73.753 8.34563C74.9716 7.73144 76.4574 8.22144 77.0716 9.44008L86.801 28.7444C87.4152 29.963 86.9252 31.4488 85.7065 32.063C84.4879 32.6772 83.0021 32.1872 82.3879 30.9686L72.6585 11.6643C72.0443 10.4456 72.5343 8.95983 73.753 8.34563Z" fill="black"/>
<path d="M67.9826 18.9549C69.2271 18.3949 70.6899 18.9498 71.2499 20.1942L75.4197 29.4603C75.9797 30.7048 75.4248 32.1676 74.1804 32.7276C72.9359 33.2876 71.4731 32.7328 70.913 31.4883L66.7433 22.2222C66.1833 20.9777 66.7382 19.5149 67.9826 18.9549Z" fill="black"/>
<path d="M18.007 69.0085C18.944 68.0163 20.5079 67.9717 21.5 68.9087L29.8395 76.7848C30.8316 77.7218 30.8763 79.2857 29.9393 80.2779C29.0022 81.27 27.4384 81.3147 26.4462 80.3777L18.1068 72.5015C17.1146 71.5645 17.07 70.0006 18.007 69.0085Z" fill="black"/>
<path d="M8.50946 73.2608C9.44316 72.2656 11.0069 72.2157 12.0021 73.1494L26.9823 87.2029C27.9775 88.1366 28.0274 89.7003 27.0937 90.6956C26.1601 91.6908 24.5963 91.7407 23.6011 90.807L8.62093 76.7535C7.62568 75.8198 7.57577 74.2561 8.50946 73.2608Z" fill="black"/>
<path d="M34.9695 71.9103C40.7532 79.2776 48.675 89.3678 60.0108 89.3678C63.3155 89.3678 66.731 88.4783 70.161 86.7252C80.4336 81.4755 82.6853 74.2128 85.5356 65.0189L86.0381 63.4086C88.6656 55.0145 90.4206 48.2972 90.8955 46.4367C91.899 43.2147 89.9298 39.8921 86.5246 38.9619C84.902 38.5185 83.1368 38.6939 81.6585 39.4488C80.1627 40.2145 79.079 41.4711 78.6057 42.9876L75.3417 54.2583C75.2893 54.4419 75.097 54.5874 74.896 54.5996C74.6586 54.548 74.4838 54.4895 74.4066 54.3154L56.1861 13.2666C54.5563 10.5465 51.4627 9.59308 48.9037 10.8987C46.1655 12.2982 45.58 14.594 47.1151 17.9165C48.6692 21.2827 56.1307 41.8125 57.3731 45.4248C57.4663 45.6982 57.3673 45.9212 57.1444 46.0354C56.824 46.1755 56.6157 46.0531 56.4934 45.8559L37.6873 15.531C36.7756 13.9738 35.0525 12.9986 33.1999 12.9986C32.3682 12.9986 31.5366 13.1986 30.7938 13.5794C29.6038 14.1873 28.7635 15.1842 28.4285 16.3851C28.0978 17.5711 28.2886 18.8604 28.9674 20.0178L46.4058 49.7647C46.5325 49.9796 46.4641 50.2353 46.2441 50.3699C45.9033 50.5522 45.73 50.4474 45.5829 50.2747L27.7745 28.4093C26.787 27.2505 25.1689 25.8864 23.0089 25.8864C22.1627 25.8864 21.3092 26.1027 20.4717 26.5311C19.4128 27.071 18.7225 27.8965 18.4749 28.9152C18.1661 30.1882 18.5914 31.6992 19.6415 33.062C21.098 34.9484 35.1953 54.5928 38.0048 58.5125L38.0908 58.6267C38.2277 58.8185 38.1942 59.0756 38.0121 59.2265C37.8315 59.3775 37.5387 59.3788 37.3625 59.2401L19.9896 45.6356C18.9977 44.859 17.4437 43.9342 15.6784 43.9342C14.908 43.9342 14.1681 44.1124 13.4791 44.4646C12.8485 44.7856 12.3562 45.5186 12.1625 46.4244C11.9571 47.3833 12.1159 48.3747 12.6096 49.2166C13.6379 50.971 17.0577 54.0393 20.68 57.2871L20.6917 57.2976C24.7145 60.9059 29.2633 64.986 32.5649 68.9087C33.2611 69.7356 34.001 70.6754 34.9695 71.9103Z" fill="black"/>
</g>
<path d="M43.7375 7.32297C40.3057 9.07697 39.4543 12.1569 41.1494 16.0401L41.4264 16.6617C42.223 18.5161 44.2652 23.9039 46.3451 29.5177L48.2629 34.73L34.4776 12.5009C33.3137 10.5119 31.0953 9.25901 28.7154 9.25901C27.6448 9.25901 26.5787 9.51611 25.625 10.005C24.0708 10.799 22.9491 12.1295 22.4992 13.7425L22.4283 14.0239C22.0885 15.5306 22.3613 17.1255 23.189 18.537L33.9289 36.858L24.4531 25.2225C22.851 23.3419 20.8883 22.1468 18.5244 22.1468C17.4333 22.1468 16.347 22.4227 15.3041 22.9561C13.8711 23.6868 12.8878 24.8614 12.5329 26.3213C12.1275 27.9924 12.6091 29.8522 13.787 31.4935L14.663 32.6699C15.8089 34.2292 18.1236 37.4277 21.311 41.8522L27.3111 50.194L28.1989 51.431L16.43 42.215C14.8569 40.9833 13.0955 40.1946 11.194 40.1946C10.1856 40.1946 9.21176 40.4294 8.31193 40.8894C7.24568 41.4321 6.49327 42.5521 6.21121 43.8711C5.92748 45.1957 6.14755 46.57 6.83121 47.7358L6.95339 47.9376C7.8619 49.3908 9.50459 51.0305 13.6456 54.7712L18.3897 59.0469L18.8657 59.4825C21.0221 61.4604 22.7734 63.144 24.3157 64.7458C25.1266 65.5881 25.8667 66.3952 26.5382 67.1723L27.226 67.9863C27.3905 68.1854 27.5612 68.3949 27.754 68.6347L30.3713 71.9485C34.3725 76.993 36.7355 79.6169 39.9618 82.3132C44.8557 86.4031 49.9455 88.6282 55.5263 88.6282C59.0782 88.6282 62.7252 87.6787 66.3592 85.8213C71.4339 83.2279 74.907 80.0356 77.4286 75.8912L77.7057 75.4283C79.3768 72.5879 80.3798 69.9514 82.184 64.1863L82.9855 61.616C85.0674 54.965 86.7441 48.9581 87.8645 44.568C89.1023 40.6005 86.6517 36.4271 82.4354 35.2753C80.453 34.7336 78.3034 34.9482 76.4919 35.8733L76.2181 36.02C74.5081 36.9785 73.2551 38.4889 72.6894 40.301L70.1809 48.961L53.0726 10.4185L52.9884 10.2561C50.9766 6.89843 47.0396 5.63824 43.7375 7.32297ZM50.2896 11.5987L50.3729 11.731L68.5512 52.6844C68.7339 53.0962 69.0411 53.4018 69.4187 53.5967C69.5837 53.6819 69.7343 53.7364 69.9086 53.7821L70.2956 53.87L70.5032 53.8573C71.3255 53.807 72.0686 53.2398 72.2997 52.4304L75.562 41.1653C75.9046 40.069 76.7153 39.1292 77.8576 38.5444C78.9991 37.9615 80.3799 37.8236 81.6447 38.1693C84.2607 38.8839 85.7205 41.3699 84.9789 43.7511L84.7192 44.7576C83.6011 49.0539 82.0339 54.6133 80.1221 60.721L79.0548 64.1361C77.3972 69.3725 76.4571 71.7166 74.8658 74.3318C72.6355 77.9973 69.5789 80.8069 64.994 83.1499C61.767 84.7992 58.5832 85.6282 55.5263 85.6282C50.7271 85.6282 46.2808 83.6844 41.8855 80.0112C38.9425 77.5517 36.7186 75.1038 33.0308 70.473L30.2033 66.8935C29.8709 66.4784 29.6025 66.1501 29.3303 65.825L29.2279 65.703C28.4094 64.7306 27.4939 63.7215 26.4768 62.6651C25.0076 61.1391 23.3666 59.5528 21.3937 57.7319L19.7711 56.2479L15.9828 52.839C11.7662 49.035 10.0974 47.3756 9.41926 46.2185C9.11528 45.7002 9.01783 45.0916 9.14477 44.499C9.25027 44.0056 9.48259 43.6598 9.67513 43.5618C10.1549 43.3166 10.6607 43.1946 11.194 43.1946C12.3117 43.1946 13.4869 43.7209 14.5804 44.577L31.9532 58.1815C32.6867 58.7586 33.7676 58.7415 34.4898 58.1377C35.272 57.4895 35.4214 56.3481 34.8272 55.5157L34.7186 55.3706L18.788 33.2358C17.9053 32.0195 17.2352 31.1015 16.8001 30.5134L16.3443 29.9057C15.5542 28.8803 15.2561 27.8209 15.4482 27.0292C15.5886 26.4513 15.9872 25.9753 16.6686 25.6278C17.3009 25.3044 17.9215 25.1468 18.5244 25.1468C19.8584 25.1468 21.083 25.8925 22.1484 27.1426L39.9354 48.9824C40.5767 49.7359 41.5169 49.9612 42.4671 49.4531C43.4518 48.8533 43.7617 47.6932 43.2135 46.7633L25.777 17.0196C25.2994 16.2052 25.1701 15.3333 25.389 14.5483C25.609 13.7596 26.1681 13.0964 26.9918 12.6756C27.5235 12.403 28.1205 12.259 28.7154 12.259C29.9639 12.259 31.1299 12.8784 31.7961 13.8704L50.7342 44.4069C51.2579 45.2507 52.2659 45.6049 53.2605 45.1705C54.2426 44.6699 54.6372 43.6657 54.3084 42.7012L53.5031 40.4044C50.9342 33.1713 45.4973 18.4877 44.109 15.3085L43.9925 15.0483C42.7743 12.4116 43.134 11.0006 45.1019 9.99477C46.8992 9.07777 49.046 9.71517 50.2896 11.5987Z" fill="black"/>
</svg>
