<svg width="48" height="48" viewBox="0 0 48 48" fill="none" xmlns="http://www.w3.org/2000/svg">
<path fill-rule="evenodd" clip-rule="evenodd" d="M37.0867 18.8556L36.0854 23.1429L25.9274 3.14286L25.8657 3.0377C24.6249 1.19249 22.3448 0.591916 20.5135 1.65099C18.5668 2.77866 18.1952 4.63931 19.3581 6.84606C19.7931 7.67212 21.4258 11.3958 22.9639 14.9809L15.8768 4.78163C15.1546 3.68313 13.8519 3.03451 12.4946 3.10564C11.8839 3.13765 11.2839 3.31609 10.7546 3.62353C9.88978 4.12432 9.28629 4.92173 9.07648 5.86191C8.8702 6.78697 9.06643 7.75758 9.61345 8.5879L14.6464 16.2297L10.7811 11.9591C9.82127 10.9447 8.67475 10.3261 7.32786 10.3967C6.70529 10.4293 6.09502 10.6188 5.51933 10.9526C4.71723 11.4162 4.18315 12.1269 4.02174 12.9848C3.82939 14.0098 4.20356 15.1146 4.99681 16.04C5.36097 16.464 7.20528 18.7494 10.0266 22.2666C10.8072 23.2397 11.6526 24.2946 12.4748 25.3215L6.87767 21.3912C5.95763 20.7453 4.942 20.3528 3.8613 20.4094C3.28448 20.4396 2.73394 20.6033 2.23316 20.8935C1.61769 21.2486 1.21168 21.9276 1.0879 22.7033C0.96433 23.4761 1.1329 24.2629 1.56265 24.9151C2.1593 25.8212 3.21896 26.7464 6.38172 29.2977C7.44623 30.1568 7.92659 30.5468 8.52669 31.0428C9.95668 32.2248 11.0883 33.2166 12.061 34.1598C12.422 34.5098 12.756 34.8486 13.0634 35.1773C13.3999 35.5372 13.7117 35.8888 14.4314 36.7139C17.1442 39.8214 18.5808 41.3009 20.5798 42.8018C23.3855 44.9082 26.2531 45.9874 29.3315 45.8261C31.2906 45.7234 33.2719 45.0949 35.2167 43.9684C40.1081 41.1352 41.5609 38.4379 43.4151 31.1196L43.6416 30.2323C44.5835 26.5568 45.3236 23.2432 45.8076 20.8231C46.391 18.5387 44.8755 16.2412 42.4537 15.7138C41.317 15.4661 40.1089 15.6511 39.1116 16.2283C38.0916 16.82 37.3681 17.7538 37.0867 18.8556ZM21.1276 5.9139C20.4342 4.59813 20.5674 3.93109 21.5154 3.38197C22.3975 2.87184 23.5025 3.15121 24.174 4.1072L35.2065 25.829C35.4376 26.2845 35.7592 26.4298 36.2105 26.5036C36.3012 26.5184 36.3935 26.5207 36.4848 26.5103C37.0061 26.451 37.4585 26.0665 37.5788 25.5423L39.0294 19.3305C39.1709 18.7775 39.5528 18.2845 40.1143 17.9588C40.6774 17.6329 41.3762 17.5259 42.028 17.6679C43.3692 17.96 44.1666 19.1688 43.858 20.3801C43.3689 22.8183 42.6365 26.0981 41.704 29.7367L41.4768 30.6266C39.7429 37.4702 38.5175 39.7452 34.2142 42.2377C32.5333 43.2114 30.8562 43.7434 29.2268 43.8288C24.6274 44.0698 21.379 41.631 15.9383 35.3989C15.2034 34.5563 14.882 34.1939 14.5242 33.8114C14.1936 33.4578 13.8369 33.0959 13.4533 32.7239C12.4364 31.738 11.2681 30.714 9.80087 29.5012C9.19277 28.9986 8.7083 28.6053 7.6376 27.7412C4.75292 25.4142 3.65438 24.4551 3.23289 23.815C3.07835 23.5804 3.01805 23.299 3.06286 23.0187C3.09796 22.7988 3.18491 22.6534 3.2343 22.6249C3.46283 22.4925 3.70559 22.4203 3.96597 22.4067C4.52463 22.3774 5.14086 22.6155 5.7284 23.028L15.549 29.924C16.0345 30.2668 16.7179 30.2201 17.1568 29.8122C17.6334 29.3728 17.6905 28.6397 17.2841 28.129L17.2184 28.0501C15.838 26.3217 13.5148 23.4188 11.5867 21.0151C8.72959 17.4534 6.9015 15.188 6.51462 14.7376C6.09036 14.2427 5.91678 13.7301 5.98734 13.3541C6.03687 13.0909 6.20609 12.8657 6.52131 12.6835C6.83089 12.504 7.13515 12.4095 7.43254 12.3939C8.09348 12.3593 8.73296 12.7043 9.31343 13.3176L19.5906 24.6725C20.0202 25.127 20.6318 25.2401 21.211 24.8902C21.8193 24.4743 21.9784 23.7232 21.598 23.1488L11.2837 7.48773C11.0279 7.0995 10.9431 6.68021 11.0285 6.29735C11.1141 5.91385 11.3665 5.58033 11.758 5.35361C12.0139 5.205 12.3054 5.1183 12.5992 5.1029C13.2519 5.06869 13.8768 5.37979 14.2202 5.90182L25.3093 21.8611C25.6684 22.3777 26.3248 22.5705 26.9372 22.2635C27.5458 21.9122 27.7639 21.2582 27.5242 20.6596C26.2523 17.5069 21.9218 7.42206 21.1276 5.9139Z" fill="black"/>
<path opacity="0.5" fill-rule="evenodd" clip-rule="evenodd" d="M33.1364 1.81358C32.9806 2.34343 33.2838 2.89928 33.8136 3.05512C39.1706 4.6307 42.7591 8.06322 44.6528 13.4286C44.8366 13.9494 45.4078 14.2226 45.9286 14.0387C46.4494 13.8549 46.7226 13.2837 46.5388 12.7629C44.4324 6.79495 40.3543 2.89414 34.3779 1.13639C33.8481 0.980549 33.2923 1.28374 33.1364 1.81358ZM33.22 6.61298C32.9534 7.09664 33.1293 7.70487 33.613 7.9715C36.4123 9.51466 38.0714 11.1738 38.6465 12.9102C38.8201 13.4344 39.3859 13.7187 39.9102 13.545C40.4345 13.3714 40.7187 12.8056 40.5451 12.2813C39.7868 9.99204 37.7793 7.98446 34.5786 6.22001C34.0949 5.95338 33.4867 6.12932 33.22 6.61298ZM14.5786 40.2201C15.0623 40.4867 15.2382 41.0949 14.9716 41.5786C14.705 42.0623 14.0968 42.2382 13.6131 41.9716C10.4124 40.2071 8.40481 38.1995 7.64658 35.9102C7.47294 35.386 7.75718 34.8202 8.28146 34.6465C8.80574 34.4729 9.37151 34.7572 9.54515 35.2814C10.1203 37.0178 11.7793 38.6769 14.5786 40.2201ZM15.0552 46.3779C15.211 45.8481 14.9078 45.2922 14.378 45.1364C9.02098 43.5608 5.43244 40.1283 3.53878 34.7629C3.35497 34.2421 2.78377 33.969 2.26297 34.1528C1.74217 34.3366 1.46899 34.9078 1.6528 35.4286C3.75915 41.3966 7.83727 45.2974 13.8136 47.0551C14.3435 47.211 14.8993 46.9078 15.0552 46.3779Z" fill="black"/>
</svg>
