<svg width="96" height="96" viewBox="0 0 96 96" fill="none" xmlns="http://www.w3.org/2000/svg">
<g opacity="0.2">
<path d="M73.753 8.34551C74.9716 7.73131 76.4574 8.22131 77.0716 9.43995L86.801 28.7443C87.4152 29.9629 86.9252 31.4487 85.7065 32.0629C84.4879 32.6771 83.0021 32.1871 82.3879 30.9685L72.6585 11.6642C72.0443 10.4455 72.5343 8.9597 73.753 8.34551Z" fill="black"/>
<path d="M67.9826 18.9548C69.2271 18.3948 70.6899 18.9496 71.2499 20.1941L75.4197 29.4602C75.9797 30.7047 75.4248 32.1675 74.1804 32.7275C72.9359 33.2875 71.4731 32.7326 70.913 31.4882L66.7433 22.2221C66.1833 20.9776 66.7382 19.5148 67.9826 18.9548Z" fill="black"/>
<path d="M18.007 69.0083C18.944 68.0162 20.5079 67.9715 21.5 68.9085L29.8395 76.7847C30.8316 77.7217 30.8763 79.2856 29.9393 80.2777C29.0022 81.2699 27.4384 81.3145 26.4462 80.3775L18.1068 72.5014C17.1146 71.5644 17.07 70.0005 18.007 69.0083Z" fill="black"/>
<path d="M8.50946 73.2607C9.44316 72.2654 11.0069 72.2155 12.0021 73.1492L26.9823 87.2028C27.9775 88.1365 28.0274 89.7002 27.0937 90.6954C26.1601 91.6907 24.5963 91.7406 23.6011 90.8069L8.62093 76.7534C7.62568 75.8197 7.57577 74.256 8.50946 73.2607Z" fill="black"/>
<path d="M34.9695 71.9102C40.7532 79.2775 48.675 89.3677 60.0108 89.3677C63.3155 89.3677 66.731 88.4782 70.161 86.7251C80.4336 81.4753 82.6853 74.2127 85.5356 65.0188L86.0381 63.4085C88.6656 55.0143 90.4206 48.2971 90.8955 46.4365C91.899 43.2146 89.9298 39.892 86.5246 38.9617C84.902 38.5184 83.1368 38.6938 81.6585 39.4486C80.1627 40.2143 79.079 41.471 78.6057 42.9875L75.3417 54.2582C75.2893 54.4418 75.097 54.5873 74.896 54.5995C74.6586 54.5478 74.4838 54.4894 74.4066 54.3153L56.1861 13.2664C54.5563 10.5464 51.4627 9.59296 48.9037 10.8986C46.1655 12.2981 45.58 14.5938 47.1151 17.9164C48.6692 21.2825 56.1307 41.8124 57.3731 45.4247C57.4663 45.698 57.3673 45.9211 57.1444 46.0353C56.824 46.1754 56.6157 46.053 56.4934 45.8558L37.6873 15.5309C36.7756 13.9737 35.0525 12.9985 33.1999 12.9985C32.3682 12.9985 31.5366 13.1984 30.7938 13.5792C29.6038 14.1872 28.7635 15.1841 28.4285 16.385C28.0978 17.571 28.2886 18.8603 28.9674 20.0177L46.4058 49.7646C46.5325 49.9795 46.4641 50.2351 46.2441 50.3698C45.9033 50.552 45.73 50.4473 45.5829 50.2746L27.7745 28.4092C26.787 27.2504 25.1689 25.8863 23.0089 25.8863C22.1627 25.8863 21.3092 26.1025 20.4717 26.5309C19.4128 27.0709 18.7225 27.8964 18.4749 28.9151C18.1661 30.1881 18.5914 31.6991 19.6415 33.0619C21.098 34.9483 35.1953 54.5927 38.0048 58.5124L38.0908 58.6266C38.2277 58.8184 38.1942 59.0754 38.0121 59.2264C37.8315 59.3774 37.5387 59.3787 37.3625 59.24L19.9896 45.6355C18.9977 44.8589 17.4437 43.9341 15.6784 43.9341C14.908 43.9341 14.1681 44.1122 13.4791 44.4645C12.8485 44.7854 12.3562 45.5185 12.1625 46.4243C11.9571 47.3831 12.1159 48.3746 12.6096 49.2165C13.6379 50.9709 17.0577 54.0392 20.68 57.287L20.6917 57.2975C24.7145 60.9058 29.2633 64.9859 32.5649 68.9085C33.2611 69.7354 34.001 70.6752 34.9695 71.9102Z" fill="black"/>
</g>
<path d="M43.7375 7.32312C40.3057 9.07712 39.4543 12.1571 41.1494 16.0403L41.4264 16.6618C42.223 18.5163 44.2652 23.904 46.3451 29.5178L48.2629 34.7302L34.4776 12.501C33.3137 10.5121 31.0953 9.25917 28.7154 9.25917C27.6448 9.25917 26.5787 9.51627 25.625 10.0051C24.0708 10.7992 22.9491 12.1297 22.4992 13.7426L22.4283 14.024C22.0885 15.5307 22.3613 17.1256 23.189 18.5371L33.9289 36.8582L24.4531 25.2226C22.851 23.342 20.8883 22.147 18.5244 22.147C17.4333 22.147 16.347 22.4228 15.3041 22.9562C13.8711 23.687 12.8878 24.8615 12.5329 26.3215C12.1275 27.9926 12.6091 29.8523 13.787 31.4936L14.663 32.6701C15.8089 34.2294 18.1236 37.4278 21.311 41.8524L27.3111 50.1941L28.1989 51.4312L16.43 42.2152C14.8569 40.9834 13.0955 40.1948 11.194 40.1948C10.1856 40.1948 9.21176 40.4296 8.31193 40.8896C7.24568 41.4323 6.49327 42.5523 6.21121 43.8713C5.92748 45.1958 6.14755 46.5701 6.83121 47.7359L6.95339 47.9377C7.8619 49.391 9.50459 51.0307 13.6456 54.7714L18.3897 59.047L18.8657 59.4827C21.0221 61.4605 22.7734 63.1441 24.3157 64.746C25.1266 65.5882 25.8667 66.3954 26.5382 67.1725L27.226 67.9865C27.3905 68.1855 27.5612 68.395 27.754 68.6349L30.3713 71.9486C34.3725 76.9932 36.7355 79.6171 39.9618 82.3133C44.8557 86.4032 49.9455 88.6284 55.5263 88.6284C59.0782 88.6284 62.7252 87.6788 66.3592 85.8214C71.4339 83.228 74.907 80.0357 77.4286 75.8914L77.7057 75.4285C79.3768 72.5881 80.3798 69.9516 82.184 64.1865L82.9855 61.6161C85.0674 54.9652 86.7441 48.9583 87.8645 44.5682C89.1023 40.6007 86.6517 36.4272 82.4354 35.2755C80.453 34.7337 78.3034 34.9484 76.4919 35.8735L76.2181 36.0202C74.5081 36.9786 73.2551 38.4891 72.6894 40.3012L70.1809 48.9612L53.0726 10.4186L52.9884 10.2562C50.9766 6.89858 47.0396 5.63839 43.7375 7.32312ZM50.2896 11.5988L50.3729 11.7312L68.5512 52.6845C68.7339 53.0964 69.0411 53.4019 69.4187 53.5969C69.5837 53.682 69.7343 53.7365 69.9086 53.7823L70.2956 53.8702L70.5032 53.8575C71.3255 53.8071 72.0686 53.24 72.2997 52.4305L75.562 41.1654C75.9046 40.0691 76.7153 39.1293 77.8576 38.5446C78.9991 37.9617 80.3799 37.8238 81.6447 38.1694C84.2607 38.884 85.7205 41.3701 84.9789 43.7512L84.7192 44.7577C83.6011 49.0541 82.0339 54.6135 80.1221 60.7212L79.0548 64.1363C77.3972 69.3726 76.4571 71.7167 74.8658 74.332C72.6355 77.9975 69.5789 80.807 64.994 83.1501C61.767 84.7994 58.5832 85.6284 55.5263 85.6284C50.7271 85.6284 46.2808 83.6846 41.8855 80.0114C38.9425 77.5518 36.7186 75.1039 33.0308 70.4732L30.2033 66.8937C29.8709 66.4785 29.6025 66.1503 29.3303 65.8251L29.2279 65.7032C28.4094 64.7307 27.4939 63.7217 26.4768 62.6653C25.0076 61.1392 23.3666 59.553 21.3937 57.732L19.7711 56.248L15.9828 52.8392C11.7662 49.0352 10.0974 47.3757 9.41926 46.2187C9.11528 45.7003 9.01783 45.0918 9.14477 44.4991C9.25027 44.0058 9.48259 43.66 9.67513 43.562C10.1549 43.3167 10.6607 43.1948 11.194 43.1948C12.3117 43.1948 13.4869 43.721 14.5804 44.5772L31.9532 58.1816C32.6867 58.7587 33.7676 58.7416 34.4898 58.1378C35.272 57.4897 35.4214 56.3483 34.8272 55.5158L34.7186 55.3707L18.788 33.236C17.9053 32.0196 17.2352 31.1016 16.8001 30.5136L16.3443 29.9059C15.5542 28.8804 15.2561 27.8211 15.4482 27.0294C15.5886 26.4515 15.9872 25.9755 16.6686 25.628C17.3009 25.3046 17.9215 25.147 18.5244 25.147C19.8584 25.147 21.083 25.8927 22.1484 27.1428L39.9354 48.9825C40.5767 49.736 41.5169 49.9613 42.4671 49.4532C43.4518 48.8535 43.7617 47.6933 43.2135 46.7634L25.777 17.0198C25.2994 16.2053 25.1701 15.3335 25.389 14.5484C25.609 13.7598 26.1681 13.0965 26.9918 12.6757C27.5235 12.4031 28.1205 12.2592 28.7154 12.2592C29.9639 12.2592 31.1299 12.8786 31.7961 13.8706L50.7342 44.407C51.2579 45.2508 52.2659 45.6051 53.2605 45.1706C54.2426 44.6701 54.6372 43.6659 54.3084 42.7014L53.5031 40.4046C50.9342 33.1715 45.4973 18.4878 44.109 15.3086L43.9925 15.0484C42.7743 12.4118 43.134 11.0007 45.1019 9.99492C46.8992 9.07792 49.046 9.71533 50.2896 11.5988Z" fill="black"/>
</svg>
