<svg width="48" height="48" viewBox="0 0 48 48" fill="none" xmlns="http://www.w3.org/2000/svg">
<g opacity="0.2">
<path d="M37.957 1.56757C38.635 1.22586 39.4616 1.49847 39.8033 2.17646L45.2162 12.9164C45.558 13.5944 45.2853 14.421 44.6074 14.7627C43.9294 15.1044 43.1027 14.8318 42.761 14.1538L37.3481 3.41389C37.0064 2.7359 37.279 1.90927 37.957 1.56757Z" fill="black"/>
<path d="M34.7467 7.47004C35.439 7.15848 36.2529 7.46718 36.5644 8.15954L38.8843 13.3147C39.1958 14.0071 38.8871 14.8209 38.1948 15.1325C37.5024 15.444 36.6886 15.1353 36.377 14.443L34.0572 9.28781C33.7456 8.59545 34.0543 7.78161 34.7467 7.47004Z" fill="black"/>
<path d="M6.86732 35.2999C7.38862 34.7479 8.25869 34.7231 8.81066 35.2444L13.4503 39.6263C14.0023 40.1476 14.0272 41.0177 13.5058 41.5696C12.9845 42.1216 12.1145 42.1465 11.5625 41.6252L6.92284 37.2433C6.37087 36.722 6.34601 35.8519 6.86732 35.2999Z" fill="black"/>
<path d="M1.65876 37.6831C2.17822 37.1294 3.0482 37.1017 3.60191 37.6211L11.9361 45.4398C12.4898 45.9593 12.5176 46.8292 11.9981 47.383C11.4787 47.9367 10.6087 47.9644 10.055 47.445L1.72077 39.6263C1.16706 39.1068 1.1393 38.2369 1.65876 37.6831Z" fill="black"/>
<path d="M16.3798 36.9318C19.5976 41.0306 24.0049 46.6443 30.3116 46.6443C32.1502 46.6443 34.0503 46.1494 35.9586 45.1741C41.6738 42.2534 42.9265 38.2128 44.5123 33.0978L44.7919 32.2019C46.2537 27.5318 47.2301 23.7947 47.4942 22.7595C48.0526 20.967 46.957 19.1185 45.0625 18.6009C44.1598 18.3543 43.1777 18.4519 42.3552 18.8718C41.5231 19.2978 40.9202 19.997 40.6568 20.8407L38.8409 27.1111C38.8117 27.2133 38.7048 27.2942 38.593 27.301C38.4609 27.2723 38.3636 27.2397 38.3207 27.1429L28.1837 4.30536C27.2769 2.79204 25.5558 2.26162 24.1321 2.98802C22.6087 3.76662 22.283 5.04386 23.137 6.89238C24.0017 8.76512 28.1529 20.1869 28.8441 22.1966C28.8959 22.3487 28.8408 22.4728 28.7169 22.5363C28.5386 22.6143 28.4227 22.5462 28.3547 22.4365L17.8919 5.5652C17.3846 4.69882 16.426 4.1563 15.3953 4.1563C14.9326 4.1563 14.4699 4.26753 14.0567 4.47939C13.3947 4.81762 12.9271 5.37225 12.7407 6.04038C12.5568 6.70019 12.6629 7.4175 13.0405 8.06142L22.7424 24.6111C22.8129 24.7306 22.7748 24.8729 22.6525 24.9478C22.4629 25.0492 22.3664 24.9909 22.2846 24.8948L12.3769 12.73C11.8275 12.0853 10.9273 11.3264 9.72556 11.3264C9.25477 11.3264 8.77992 11.4467 8.31399 11.6851C7.72489 11.9855 7.34081 12.4448 7.20305 13.0115C7.03127 13.7197 7.26788 14.5604 7.85211 15.3186C8.66243 16.368 16.5054 27.2972 18.0685 29.4779L18.1163 29.5415C18.1925 29.6482 18.1739 29.7912 18.0726 29.8752C17.9721 29.9592 17.8092 29.9599 17.7112 29.8827L8.04578 22.3139C7.49395 21.8818 6.62935 21.3673 5.64725 21.3673C5.2186 21.3673 4.80696 21.4664 4.42368 21.6624C4.07281 21.841 3.79893 22.2488 3.69116 22.7527C3.5769 23.2862 3.66523 23.8378 3.93992 24.3062C4.512 25.2823 6.41462 26.9893 8.42987 28.7962L8.43633 28.802C10.6744 30.8095 13.2052 33.0795 15.042 35.2618C15.4293 35.7219 15.841 36.2447 16.3798 36.9318Z" fill="black"/>
</g>
<path d="M11.7608 34.6156L12.2501 35.2041L14.3115 37.7564L14.9256 38.504C19.4773 43.9736 22.8602 46.3542 27.7955 46.3542C29.7988 46.3542 31.8533 45.8193 33.8976 44.7744C38.5576 42.393 40.4812 39.6737 42.3658 33.9566L42.9514 32.1038L43.3846 30.7063C44.4344 27.2951 45.2421 24.4793 45.9471 21.7166C46.662 19.4261 45.244 17.0112 42.81 16.3461L42.5967 16.2932C40.3165 15.7836 37.8809 17.0267 37.1861 19.2526L35.9157 23.6369L26.5816 2.60955L26.5254 2.50125C25.3624 0.560415 23.0782 -0.170748 21.1615 0.807145C19.1895 1.81504 18.6802 3.59623 19.6148 5.79991L19.7556 6.1159C20.158 7.02651 21.3197 10.088 22.5088 13.2966L23.0417 14.7389L16.2257 3.74806C15.18 1.96148 13.0111 1.49413 11.1954 2.36594L11.0211 2.45446C9.25347 3.40237 8.5428 5.36894 9.66179 7.27716L14.5457 15.6089L10.6362 10.8084C9.71411 9.72597 8.58141 9.03629 7.20947 9.03629C4.13858 9.03629 2.73599 12.0892 4.43376 14.4896L6.13872 16.8174L9.64381 21.6759L11.7817 24.6489L6.14623 20.2365C5.24456 19.5304 4.23232 19.0772 3.13116 19.0772C0.766266 19.0772 -0.636319 21.48 0.561225 23.522L0.673536 23.704C1.17053 24.4709 2.04695 25.364 3.92221 27.0722L7.41562 30.2267L8.11968 30.8784C8.79653 31.5108 9.39505 32.0893 9.94541 32.6456C10.6401 33.3478 11.2438 34.0014 11.7608 34.6156ZM15.8647 36.4964L13.9721 34.1501C13.7274 33.8506 13.5081 33.5856 13.2909 33.3276C12.7365 32.669 12.0972 31.977 11.3673 31.2391L10.7811 30.6556C10.2779 30.162 9.73529 29.647 9.13505 29.0914L7.25478 27.3821L5.51009 25.8121C3.52302 24.0076 2.63712 23.1086 2.28657 22.5105C1.87544 21.8094 2.30287 21.0772 3.13116 21.0772C3.70975 21.0772 4.33126 21.3555 4.91317 21.8111L14.5786 29.3799C15.1346 29.8177 15.8931 29.7337 16.3258 29.2083C16.7031 28.7503 16.7245 28.0824 16.3515 27.5866L7.09008 14.7236L6.12754 13.4173C5.24541 12.2725 5.78798 11.0363 7.20947 11.0363C7.89478 11.0363 8.53546 11.4264 9.09968 12.0885L18.9931 24.2362C19.4339 24.754 20.1203 24.8193 20.6363 24.5189C21.2129 24.1832 21.4641 23.4514 21.0877 22.8131L11.3871 6.26558C10.862 5.37019 11.1632 4.60002 12.0611 4.16888C12.9975 3.71927 14.0207 3.93973 14.5128 4.78036L24.9888 21.6734C25.7957 22.9746 27.7595 22.0059 27.2745 20.5837L26.6959 18.9392C25.1726 14.6701 22.1627 6.55601 21.5288 5.18307C20.8861 3.79185 21.0613 3.10447 22.0711 2.58834L22.2157 2.52166C23.0909 2.15978 24.0943 2.48371 24.7107 3.3754L24.7807 3.48289L34.8906 26.2585C35.3614 27.32 36.9623 27.2309 37.2864 26.0954L39.1012 19.8288C39.4778 18.6232 40.9435 17.9095 42.2828 18.2754C43.65 18.6489 44.4075 19.939 44.0234 21.172L43.7346 22.2833C43.1459 24.5135 42.4854 26.8057 41.6769 29.4531L40.7151 32.5578L40.4726 33.3122C38.7404 38.5793 37.0965 40.8936 32.9874 42.9935C31.2145 43.8996 29.4688 44.3542 27.7955 44.3542C23.4356 44.3542 20.3786 42.0606 15.8647 36.4964Z" fill="black"/>
</svg>
