<?xml version="1.0" encoding="UTF-8"?>
<svg width="48px" height="48px" viewBox="0 0 48 48" version="1.1" xmlns="http://www.w3.org/2000/svg" xmlns:xlink="http://www.w3.org/1999/xlink">
    <!-- Generator: Sketch 53 (72520) - https://sketchapp.com -->
    <title>svg-spots/Bell</title>
    <desc>Created with Sketch.</desc>
    <g id="svg-spots/Bell" stroke="none" stroke-width="1" fill="none" fill-rule="evenodd">
        <path d="M32.2063352,40.3604985 C32.7584304,40.3461831 33.1943901,39.8870148 33.180079,39.3349224 C33.1663309,38.8047055 33.0678418,38.2336149 32.8817382,37.6212442 C32.3015036,35.7119935 32.6792429,33.6531454 34.0716985,29.1093347 C34.1502899,28.8528781 34.4384895,27.9174157 34.4267898,27.9554493 C34.5711777,27.4860713 34.6806764,27.1272276 34.7869796,26.7737616 C35.0592647,25.8683939 35.2815436,25.0923433 35.4804018,24.3420615 C36.5137202,20.4174735 36.3452095,16.7454936 35.2767115,13.3771958 C34.7699256,11.7796208 34.0927626,10.3563613 33.3278829,9.12804119 C33.0621351,8.70127675 32.8055713,8.33062294 32.5687436,8.01868754 C32.4314152,7.83780671 32.3348068,7.72055165 32.289542,7.66948578 C32.0252355,7.37130612 31.9631718,6.94467056 32.1315676,6.58354466 C32.5464883,5.69374419 32.2327804,4.82067999 31.4333716,4.44790957 C30.6353011,4.07576319 29.7630724,4.39695675 29.3485886,5.28582024 C29.1813892,5.64438043 28.8185179,5.87065751 28.4229643,5.8630154 C28.3561992,5.86172549 28.2066526,5.86431511 27.9829551,5.87722167 C27.5967527,5.89950419 27.1533289,5.94492173 26.6612967,6.01983035 C25.2444636,6.23553375 23.733884,6.64501322 22.1970888,7.29803508 C18.9800739,8.66502334 16.0903513,10.9046883 13.7534398,14.2098453 C13.306759,14.8428522 12.8561344,15.5095149 12.3392653,16.296656 C12.1369389,16.6047795 11.932129,16.9194901 11.6668361,17.3292174 C11.661653,17.3372223 11.1551562,18.1202994 11.0120104,18.3409141 C8.42838901,22.322763 7.09532218,23.9361256 5.26044865,24.7327194 C4.68516387,24.9824741 4.18504731,25.266383 3.75883769,25.5830613 C3.62559296,25.6820636 3.51908996,25.8126788 3.44893583,25.9631249 C3.21553206,26.4636609 3.43208552,27.0586366 3.93262176,27.2920405 L31.7578004,40.2671431 C31.8980727,40.3325532 32.0516136,40.3645103 32.2063352,40.3604985 Z M35.0256293,8.07084797 C35.8748223,9.43456683 36.6232351,11.0075791 37.183091,12.7724504 C38.3621111,16.4891543 38.5482478,20.5452181 37.4140687,24.8528743 C37.2084801,25.6285547 36.9803915,26.4248888 36.7022389,27.3497667 C36.5945213,27.7079357 36.4839041,28.0704447 36.3383891,28.5434867 C36.3496873,28.5067585 36.0619983,29.4405635 35.9839224,29.6953377 C34.7252017,33.8027498 34.3812774,35.6772912 34.7953208,37.0396932 C35.0318226,37.817898 35.1608092,38.5658295 35.1794072,39.283089 C35.2223409,40.9393796 33.9144658,42.3168803 32.2581761,42.3598265 C31.7940089,42.371862 31.3333835,42.2759901 30.9125637,42.0797586 L3.087385,29.104656 C1.58576906,28.4044409 0.936105241,26.6195043 1.63632026,25.1178883 C1.84678376,24.6665479 2.16629444,24.2747001 2.56603074,23.9776917 C3.11972327,23.5662922 3.75279562,23.2069062 4.46398651,22.8981491 C5.78121906,22.3262845 6.99566182,20.8564884 9.33424187,17.2522945 C9.47645762,17.0331131 9.98214415,16.2512888 9.98802342,16.2422086 C10.2554449,15.8291939 10.4623966,15.5111921 10.6674693,15.1988864 C11.1956661,14.3944943 11.6582616,13.7101215 12.1198637,13.0559699 C14.6799173,9.43521627 17.8674584,6.96472857 21.4149253,5.45732318 C23.1136322,4.73550109 24.7849772,4.28244222 26.3602786,4.04261309 C26.953529,3.95229469 27.4568364,3.90194357 27.85418,3.8786619 C28.8501722,2.41067896 30.6675958,1.8840666 32.2786082,2.63529399 C33.8893514,3.38639588 34.6533541,5.11318081 34.1717727,6.81822455 C34.4143385,7.13828051 34.7057814,7.55720434 35.0256293,8.07084797 Z" id="Shape" fill="#000000" fill-rule="nonzero"></path>
        <path d="M18.5521531,38.8627203 C18.8020194,38.3701908 19.40385,38.1734733 19.8963795,38.4233396 C20.388909,38.6732058 20.5856265,39.2750365 20.3357602,39.767566 C20.1641394,40.1058603 20.0735596,40.4802751 20.0735596,40.8697908 C20.0735596,42.2178914 21.1664111,43.3107429 22.5145117,43.3107429 C23.5122661,43.3107429 24.3980448,42.7067701 24.7722221,41.8000584 C24.9829017,41.2895366 25.567551,41.0464664 26.0780729,41.257146 C26.5885947,41.4678257 26.8316648,42.052475 26.6209852,42.5629968 C25.9404596,44.212056 24.3291396,45.3107429 22.5145117,45.3107429 C20.0618416,45.3107429 18.0735596,43.3224609 18.0735596,40.8697908 C18.0735596,40.1640264 18.2390801,39.4798413 18.5521531,38.8627203 Z" id="Path" fill="#000000" fill-rule="nonzero"></path>
        <path d="M9.35492861,4.26422678 C8.97254204,3.86573091 8.9856012,3.23270062 9.38409706,2.85031405 C9.78259292,2.46792747 10.4156232,2.48098663 10.7980098,2.8794825 L14.2411512,6.4676775 C14.6235377,6.86617337 14.6104786,7.49920366 14.2119827,7.88159023 C13.8134869,8.26397681 13.1804566,8.25091765 12.79807,7.85242179 L9.35492861,4.26422678 Z" id="Path" fill="#000000" fill-rule="nonzero" opacity="0.5" transform="translate(11.798040, 5.365952) rotate(19.000000) translate(-11.798040, -5.365952) "></path>
        <path d="M9.99876992,8.7281147 C10.5146255,8.92537461 10.7728983,9.50346892 10.5756384,10.0193245 C10.3783785,10.5351801 9.80028418,10.7934529 9.28442861,10.596193 L4.03594431,8.58920581 C3.52008873,8.3919459 3.26181591,7.81385158 3.45907582,7.29799601 C3.65633573,6.78214043 4.23443004,6.52386761 4.75028562,6.72112752 L9.99876992,8.7281147 Z" id="Path" fill="#000000" fill-rule="nonzero" opacity="0.5" transform="translate(7.017357, 8.658660) rotate(19.000000) translate(-7.017357, -8.658660) "></path>
        <path d="M7.10506321,12.3190719 C7.631251,12.1513076 8.1938103,12.4418673 8.36157458,12.9680551 C8.52933885,13.4942429 8.23877919,14.0568022 7.71259139,14.2245665 L2.88044286,15.7651988 C2.35425507,15.932963 1.79169576,15.6424034 1.62393149,15.1162156 C1.45616721,14.5900278 1.74672688,14.0274685 2.27291468,13.8597042 L7.10506321,12.3190719 Z" id="Path" fill="#000000" fill-rule="nonzero" opacity="0.5" transform="translate(4.992753, 14.042135) rotate(19.000000) translate(-4.992753, -14.042135) "></path>
        <path d="M41.3300449,35.2906499 L37.644991,31.9513769 C36.6569674,31.0560629 37.9999384,29.5740276 38.987962,30.4693416 L42.6730159,33.8086145 C43.6610395,34.7039285 42.3180684,36.1859639 41.3300449,35.2906499 Z" id="Path" fill="#000000" fill-rule="nonzero" opacity="0.5"></path>
        <path d="M39.9673923,26.1894451 L45.3624118,27.7534099 C46.6430215,28.1246465 46.0861666,30.045561 44.8055569,29.6743245 L39.4105374,28.1103596 C38.1299277,27.739123 38.6867826,25.8182085 39.9673923,26.1894451 Z" id="Path" fill="#000000" fill-rule="nonzero" opacity="0.5"></path>
        <path d="M40.200709,21.8769839 L44.904769,20.2456315 C46.1644999,19.808761 46.8198057,21.6983574 45.5600747,22.1352279 L40.8560147,23.7665803 C39.5962838,24.2034508 38.940978,22.3138544 40.200709,21.8769839 Z" id="Path" fill="#000000" fill-rule="nonzero" opacity="0.5"></path>
        <path d="M15.0806728,21.2946078 C14.8293788,21.7864103 14.2269799,21.9813809 13.7351774,21.7300869 C13.2433749,21.4787928 13.0484042,20.876394 13.2996983,20.3845915 C16.9156748,13.3078367 21.324348,9.58087554 26.644441,9.12018345 C27.1946666,9.0725368 27.6793379,9.47995756 27.7269845,10.0301832 C27.7746312,10.5804088 27.3672104,11.0650801 26.8169848,11.1127267 C22.2803257,11.5055775 18.411271,14.7763613 15.0806728,21.2946078 Z" id="Path" fill="#000000" fill-rule="nonzero" opacity="0.5"></path>
    </g>
</svg>