<?xml version="1.0" encoding="UTF-8"?>
<svg width="48px" height="48px" viewBox="0 0 48 48" version="1.1" xmlns="http://www.w3.org/2000/svg" xmlns:xlink="http://www.w3.org/1999/xlink">
    <!-- Generator: Sketch 53 (72520) - https://sketchapp.com -->
    <title>svg-spots/Brand</title>
    <desc>Created with Sketch.</desc>
    <g id="svg-spots/Brand" stroke="none" stroke-width="1" fill="none" fill-rule="evenodd">
        <path d="M26.5023193,40.5616455 C26.5023193,41.1139303 26.0546041,41.5616455 25.5023193,41.5616455 C24.9500346,41.5616455 24.5023193,41.1139303 24.5023193,40.5616455 L24.5023193,27.5023193 C24.5023193,25.8454651 25.8454651,24.5023193 27.5023193,24.5023193 L37.5023193,24.5023193 C39.1591736,24.5023193 40.5023193,25.8454651 40.5023193,27.5023193 L40.5023193,52.4976807 C40.5023193,53.0499654 40.0546041,53.4976807 39.5023193,53.4976807 C38.9500346,53.4976807 38.5023193,53.0499654 38.5023193,52.4976807 L38.5023193,27.5023193 C38.5023193,26.9500346 38.0546041,26.5023193 37.5023193,26.5023193 L27.5023193,26.5023193 C26.9500346,26.5023193 26.5023193,26.9500346 26.5023193,27.5023193 L26.5023193,40.5616455 Z" id="Path" fill="#000000" fill-rule="nonzero" opacity="0.5" transform="translate(32.502319, 39.000000) rotate(90.000000) translate(-32.502319, -39.000000) "></path>
        <path d="M9,43 C6.790861,43 5,41.209139 5,39 C5,36.790861 6.790861,35 9,35 C11.209139,35 13,36.790861 13,39 C13,41.209139 11.209139,43 9,43 Z M9,41 C10.1045695,41 11,40.1045695 11,39 C11,37.8954305 10.1045695,37 9,37 C7.8954305,37 7,37.8954305 7,39 C7,40.1045695 7.8954305,41 9,41 Z" id="Oval" fill="#000000" fill-rule="nonzero"></path>
        <path d="M19.3189461,24.6735562 C19.3189461,25.225841 18.8712308,25.6735562 18.3189461,25.6735562 C17.7666613,25.6735562 17.3189461,25.225841 17.3189461,24.6735562 L17.3189461,8.78896604 C17.3189461,7.13211179 18.6620918,5.78896604 20.3189461,5.78896604 L30.3189461,5.78896604 C31.9758003,5.78896604 33.3189461,7.13211179 33.3189461,8.78896604 L33.3189461,38.5731418 C33.3189461,39.1254266 32.8712308,39.5731418 32.3189461,39.5731418 C31.7666613,39.5731418 31.3189461,39.1254266 31.3189461,38.5731418 L31.3189461,8.78896604 C31.3189461,8.23668129 30.8712308,7.78896604 30.3189461,7.78896604 L20.3189461,7.78896604 C19.7666613,7.78896604 19.3189461,8.23668129 19.3189461,8.78896604 L19.3189461,24.6735562 Z" id="Path" fill="#000000" fill-rule="nonzero" opacity="0.5" transform="translate(25.318946, 22.681054) rotate(45.000000) translate(-25.318946, -22.681054) "></path>
        <path d="M4,3 C3.44771525,3 3,3.44771525 3,4 L3,44 C3,44.5522847 3.44771525,45 4,45 L14,45 C14.5522847,45 15,44.5522847 15,44 L15,4 C15,3.44771525 14.5522847,3 14,3 L4,3 Z M4,1 L14,1 C15.6568542,1 17,2.34314575 17,4 L17,44 C17,45.6568542 15.6568542,47 14,47 L4,47 C2.34314575,47 1,45.6568542 1,44 L1,4 C1,2.34314575 2.34314575,1 4,1 Z" id="Rectangle" fill="#000000" fill-rule="nonzero"></path>
    </g>
</svg>