<?xml version="1.0" encoding="UTF-8"?>
<svg width="48px" height="48px" viewBox="0 0 48 48" version="1.1" xmlns="http://www.w3.org/2000/svg" xmlns:xlink="http://www.w3.org/1999/xlink">
    <!-- Generator: Sketch 53 (72520) - https://sketchapp.com -->
    <title>svg-spots/Content</title>
    <desc>Created with Sketch.</desc>
    <g id="svg-spots/Content" stroke="none" stroke-width="1" fill="none" fill-rule="evenodd">
        <path d="M4,3 C3.44771525,3 3,3.44771525 3,4 L3,44 C3,44.5522847 3.44771525,45 4,45 L44,45 C44.5522847,45 45,44.5522847 45,44 L45,4 C45,3.44771525 44.5522847,3 44,3 L4,3 Z M4,1 L44,1 C45.6568542,1 47,2.34314575 47,4 L47,44 C47,45.6568542 45.6568542,47 44,47 L4,47 C2.34314575,47 1,45.6568542 1,44 L1,4 C1,2.34314575 2.34314575,1 4,1 Z" id="Rectangle" fill="#000000" fill-rule="nonzero" transform="translate(24.000000, 24.000000) scale(-1, 1) translate(-24.000000, -24.000000) "></path>
        <path d="M38,7 L38,7 C38.5522847,7 39,7.44771525 39,8 L39,40 C39,40.5522847 38.5522847,41 38,41 L38,41 C37.4477153,41 37,40.5522847 37,40 L37,8 C37,7.44771525 37.4477153,7 38,7 Z" id="Rectangle" fill="#000000"></path>
        <path d="M20.7319336,30.1743164 L19.8774414,27.9282227 L12.6020508,27.9282227 L11.7475586,30.2231445 C11.4138981,31.1183313 11.1290702,31.7225733 10.8930664,32.0358887 C10.6570626,32.349204 10.2705105,32.5058594 9.73339844,32.5058594 C9.27766699,32.5058594 8.87483899,32.3390316 8.52490234,32.0053711 C8.1749657,31.6717106 8,31.2932964 8,30.8701172 C8,30.6259753 8.0406897,30.3736992 8.12207031,30.1132812 C8.20345093,29.8528633 8.33772693,29.490725 8.52490234,29.0268555 L13.1025391,17.4057617 C13.232748,17.0721012 13.3894034,16.6713077 13.5725098,16.2033691 C13.7556161,15.7354306 13.9509267,15.346844 14.1584473,15.0375977 C14.3659678,14.7283513 14.6385888,14.4781097 14.9763184,14.2868652 C15.3140479,14.0956208 15.7311173,14 16.2275391,14 C16.7320989,14 17.1532372,14.0956208 17.4909668,14.2868652 C17.8286964,14.4781097 18.1013173,14.7242823 18.3088379,15.0253906 C18.5163585,15.3264989 18.6913242,15.649982 18.8337402,15.9958496 C18.9761563,16.3417172 19.1572255,16.8035453 19.3769531,17.3813477 L24.0522461,28.9291992 C24.4184589,29.8081099 24.6015625,30.4469381 24.6015625,30.8457031 C24.6015625,31.2607443 24.4286313,31.6411929 24.0827637,31.9870605 C23.7368961,32.3329282 23.3198267,32.5058594 22.831543,32.5058594 C22.5467108,32.5058594 22.3025726,32.4549973 22.0991211,32.3532715 C21.8956696,32.2515457 21.7247728,32.1132007 21.5864258,31.9382324 C21.4480787,31.7632641 21.2995613,31.4947121 21.1408691,31.1325684 C20.9821769,30.7704246 20.8458665,30.4510105 20.7319336,30.1743164 Z M13.5541992,25.2060547 L18.9008789,25.2060547 L16.203125,17.8208008 L13.5541992,25.2060547 Z M35.4536133,30.6259766 C34.6479452,31.2526073 33.8687375,31.7225733 33.1159668,32.0358887 C32.3631961,32.349204 31.5188849,32.5058594 30.5830078,32.5058594 C29.7285114,32.5058594 28.9777864,32.3369971 28.3308105,31.9992676 C27.6838347,31.661538 27.1853859,31.2037789 26.8354492,30.6259766 C26.4855126,30.0481742 26.3105469,29.4215529 26.3105469,28.7460938 C26.3105469,27.8346309 26.5994437,27.0574576 27.1772461,26.4145508 C27.7550485,25.7716439 28.5484976,25.3403331 29.5576172,25.1206055 C29.7692068,25.0717771 30.2941039,24.9619149 31.1323242,24.7910156 C31.9705446,24.6201163 32.6887177,24.463461 33.2868652,24.3210449 C33.8850128,24.1786288 34.5340134,24.0056976 35.2338867,23.8022461 C35.1931964,22.9233354 35.0161962,22.2784037 34.7028809,21.8674316 C34.3895655,21.4564595 33.7405648,21.2509766 32.7558594,21.2509766 C31.909501,21.2509766 31.2727072,21.3689767 30.845459,21.6049805 C30.4182108,21.8409843 30.0520035,22.1949846 29.7468262,22.6669922 C29.4416489,23.1389998 29.2259935,23.4502759 29.0998535,23.6008301 C28.9737136,23.7513842 28.7031271,23.8266602 28.2880859,23.8266602 C27.9137351,23.8266602 27.590252,23.7066255 27.317627,23.4665527 C27.0450019,23.2264799 26.9086914,22.9192727 26.9086914,22.5449219 C26.9086914,21.9589814 27.1162089,21.3893257 27.53125,20.8359375 C27.9462911,20.2825493 28.5932573,19.8268247 29.472168,19.46875 C30.3510786,19.1106753 31.4456315,18.9316406 32.7558594,18.9316406 C34.2207104,18.9316406 35.3722289,19.1045718 36.2104492,19.4504395 C37.0486696,19.7963071 37.6407047,20.3435835 37.9865723,21.0922852 C38.3324399,21.8409868 38.5053711,22.8338154 38.5053711,24.0708008 C38.5053711,24.8520547 38.5033366,25.5152968 38.4992676,26.0605469 C38.4951985,26.605797 38.4890951,27.2120735 38.480957,27.8793945 C38.480957,28.5060253 38.5847158,29.1590949 38.7922363,29.838623 C38.9997569,30.5181512 39.1035156,30.9555654 39.1035156,31.1508789 C39.1035156,31.4926775 38.9427913,31.8039537 38.6213379,32.0847168 C38.2998845,32.3654799 37.9357117,32.5058594 37.5288086,32.5058594 C37.18701,32.5058594 36.8492855,32.3451351 36.515625,32.0236816 C36.1819645,31.7022282 35.8279641,31.2363312 35.4536133,30.6259766 Z M35.2338867,25.8041992 C34.745603,25.9832366 34.0355678,26.1724437 33.1037598,26.3718262 C32.1719517,26.5712087 31.52702,26.7176916 31.1689453,26.8112793 C30.8108706,26.904867 30.4690771,27.0879706 30.1435547,27.3605957 C29.8180322,27.6332208 29.6552734,28.0136694 29.6552734,28.5019531 C29.6552734,29.0065129 29.846515,29.4357892 30.2290039,29.7897949 C30.6114928,30.1438006 31.1119761,30.3208008 31.7304688,30.3208008 C32.3896517,30.3208008 32.9979627,30.1763524 33.5554199,29.8874512 C34.1128771,29.59855 34.5218086,29.2262393 34.7822266,28.7705078 C35.0833348,28.265948 35.2338867,27.4358782 35.2338867,26.2802734 L35.2338867,25.8041992 Z" id="Aa" fill="#000000" opacity="0.5"></path>
    </g>
</svg>