<?xml version="1.0" encoding="UTF-8"?>
<svg width="48px" height="48px" viewBox="0 0 48 48" version="1.1" xmlns="http://www.w3.org/2000/svg" xmlns:xlink="http://www.w3.org/1999/xlink">
    <!-- Generator: Sketch 53 (72520) - https://sketchapp.com -->
    <title>svg-spots/Email</title>
    <desc>Created with Sketch.</desc>
    <g id="svg-spots/Email" stroke="none" stroke-width="1" fill="none" fill-rule="evenodd">
        <path d="M17.156627,6.00126324 C16.3549442,6.03860681 15.6842066,6.62239694 15.536627,7.41126324 C15.536627,7.47126324 15.536627,7.47126324 15.536627,7.41126324 C15.3453778,6.61218229 14.6475091,6.03674674 13.826627,6.00126324 C13.3064984,5.98156271 12.804326,6.19309908 12.4550641,6.57902385 C12.1058022,6.96494862 11.9452765,7.48567529 12.016627,8.00126324 C12.016627,9.68126324 14.236627,11.2312632 15.106627,11.8512632 C15.3454807,12.0454222 15.6877732,12.0454222 15.926627,11.8512632 C16.726627,11.2612632 19.016627,9.68126324 19.016627,8.00126324 C19.016627,7.12126324 18.756627,6.00126324 17.156627,6.00126324 L17.156627,6.00126324 Z" id="Path" fill="#000000"></path>
        <path d="M1.55512646,16.5085911 C1.08336563,16.2214323 0.933716085,15.6062064 1.22087485,15.1344456 C1.50803362,14.6626847 2.12325952,14.5130352 2.59502036,14.800194 L22.9601061,27.1963331 C23.5988553,27.585137 24.4011447,27.585137 25.0398939,27.1963331 L45.5465765,14.7140046 C46.0183373,14.4268458 46.6335632,14.5764953 46.920722,15.0482562 C47.2078808,15.520017 47.0582312,16.1352429 46.5864704,16.4224017 L26.0797878,28.9047302 C24.8022894,29.6823379 23.1977106,29.6823379 21.9202122,28.9047302 L1.55512646,16.5085911 Z" id="Combined-Shape" fill="#000000" fill-rule="nonzero"></path>
        <path d="M7.70710678,39.7071068 C7.31658249,40.0976311 6.68341751,40.0976311 6.29289322,39.7071068 C5.90236893,39.3165825 5.90236893,38.6834175 6.29289322,38.2928932 L18.2928932,26.2928932 C18.6834175,25.9023689 19.3165825,25.9023689 19.7071068,26.2928932 C20.0976311,26.6834175 20.0976311,27.3165825 19.7071068,27.7071068 L7.70710678,39.7071068 Z" id="Path-2" fill="#000000" fill-rule="nonzero" opacity="0.5"></path>
        <path d="M29.7071068,39.7071068 C29.3165825,40.0976311 28.6834175,40.0976311 28.2928932,39.7071068 C27.9023689,39.3165825 27.9023689,38.6834175 28.2928932,38.2928932 L40.2928932,26.2928932 C40.6834175,25.9023689 41.3165825,25.9023689 41.7071068,26.2928932 C42.0976311,26.6834175 42.0976311,27.3165825 41.7071068,27.7071068 L29.7071068,39.7071068 Z" id="Path-2" fill="#000000" fill-rule="nonzero" opacity="0.5" transform="translate(35.000000, 33.000000) scale(-1, 1) translate(-35.000000, -33.000000) "></path>
        <path d="M23,14 C22.4477153,14 22,13.5522847 22,13 C22,12.4477153 22.4477153,12 23,12 L36,12 C36.5522847,12 37,12.4477153 37,13 C37,13.5522847 36.5522847,14 36,14 L23,14 Z" id="Path-10" fill="#000000" fill-rule="nonzero" opacity="0.5"></path>
        <path d="M23,9 C22.4477153,9 22,8.55228475 22,8 C22,7.44771525 22.4477153,7 23,7 L31,7 C31.5522847,7 32,7.44771525 32,8 C32,8.55228475 31.5522847,9 31,9 L23,9 Z" id="Path-10" fill="#000000" fill-rule="nonzero" opacity="0.5"></path>
        <path d="M23,19 C22.4477153,19 22,18.5522847 22,18 C22,17.4477153 22.4477153,17 23,17 L31,17 C31.5522847,17 32,17.4477153 32,18 C32,18.5522847 31.5522847,19 31,19 L23,19 Z" id="Path-10" fill="#000000" fill-rule="nonzero" opacity="0.5"></path>
        <path d="M44,12 C43.4477153,12 43,11.5522847 43,11 C43,10.4477153 43.4477153,10 44,10 C45.6568542,10 47,11.3431458 47,13 L47,44 C47,45.6568542 45.6568542,47 44,47 L4,47 C2.34314575,47 1,45.6568542 1,44 L1,13 C1,11.3431458 2.34314575,10 4,10 C4.55228475,10 5,10.4477153 5,11 C5,11.5522847 4.55228475,12 4,12 C3.44771525,12 3,12.4477153 3,13 L3,44 C3,44.5522847 3.44771525,45 4,45 L44,45 C44.5522847,45 45,44.5522847 45,44 L45,13 C45,12.4477153 44.5522847,12 44,12 Z" id="Path" fill="#000000" fill-rule="nonzero"></path>
        <path d="M8,14 C8,14.5522847 7.55228475,15 7,15 C6.44771525,15 6,14.5522847 6,14 L6,4 C6,2.34314575 7.34314575,1 9,1 L39,1 C40.6568542,1 42,2.34314575 42,4 L42,14 C42,14.5522847 41.5522847,15 41,15 C40.4477153,15 40,14.5522847 40,14 L40,4 C40,3.44771525 39.5522847,3 39,3 L9,3 C8.44771525,3 8,3.44771525 8,4 L8,14 Z" id="Path" fill="#000000" fill-rule="nonzero" opacity="0.5"></path>
    </g>
</svg>