<?xml version="1.0" encoding="UTF-8"?>
<svg width="48px" height="48px" viewBox="0 0 48 48" version="1.1" xmlns="http://www.w3.org/2000/svg" xmlns:xlink="http://www.w3.org/1999/xlink">
    <!-- Generator: Sketch 53 (72520) - https://sketchapp.com -->
    <title>svg-spots/Location</title>
    <desc>Created with Sketch.</desc>
    <g id="svg-spots/Location" stroke="none" stroke-width="1" fill="none" fill-rule="evenodd">
        <path d="M23.915324,38.8830635 L23.9426876,38.9156888 C24.0335743,39.028861 24.0743975,39.028737 24.1974207,38.8761689 C24.2996664,38.7594094 24.4948539,38.5324676 24.7696679,38.2064326 C25.2296589,37.6607065 25.7427287,37.0379788 26.2955475,36.3493706 C27.8753411,34.3815308 29.4551243,32.2826686 30.9279298,30.1426911 C32.3022056,28.1458768 33.5131659,26.2128888 34.5156872,24.3830833 C36.4796834,20.7983904 37.5536406,17.7703657 37.5536406,15.5371649 C37.5536406,7.99590631 31.918767,3 24.0536406,3 C16.1885143,3 10.5536406,7.99590631 10.5536406,15.5371649 C10.5536406,17.7710918 11.6287666,20.8009638 13.5947936,24.3882095 C14.5973537,26.2174974 15.8081298,28.1498996 17.1820623,30.1461103 C18.6554688,32.2868484 20.2358959,34.3865241 21.8163335,36.3551767 C22.369378,37.0440697 22.8826575,37.6670619 23.3428369,38.2130256 C23.6177646,38.5392038 23.8130338,38.7662483 23.915324,38.8830635 Z M21.8135951,39.5019861 C21.3434477,38.9441963 20.8200773,38.3089564 20.2567296,37.6072293 C18.6474753,35.6026816 17.0382105,33.4646935 15.5345712,31.2800296 C14.1246621,29.231548 12.8787748,27.2431081 11.8409272,25.3494341 C9.72702407,21.4923712 8.55364064,18.1855943 8.55364064,15.5371649 C8.55364064,6.834148 15.1339656,1 24.0536406,1 C32.9733157,1 39.5536406,6.834148 39.5536406,15.5371649 C39.5536406,18.1846951 38.3814722,21.4896264 36.2696839,25.3440702 C35.2318437,27.2383399 33.9857383,29.2274279 32.5754488,31.2765699 C31.0724007,33.4604896 29.4637693,35.597679 27.8551481,37.6014273 C27.2920218,38.3028748 26.7688568,38.9378554 26.2988935,39.4954125 C26.0157349,39.8313474 25.8123706,40.0677962 25.7315703,40.1584585 C24.8448683,41.2703507 23.2946252,41.2812003 22.3982003,40.1863858 C22.285341,40.0571987 22.0865193,39.8257875 21.8135951,39.5019861 Z M24.0536406,22.6538691 C20.1130925,22.6538691 16.9190253,19.4568216 16.9190253,15.5135297 C16.9190253,11.5702377 20.1130925,8.37319018 24.0536406,8.37319018 C27.9941888,8.37319018 31.188256,11.5702377 31.188256,15.5135297 C31.188256,19.4568216 27.9941888,22.6538691 24.0536406,22.6538691 Z M24.0536406,20.6538691 C26.8892015,20.6538691 29.188256,18.3526694 29.188256,15.5135297 C29.188256,12.6743899 26.8892015,10.3731902 24.0536406,10.3731902 C21.2180798,10.3731902 18.9190253,12.6743899 18.9190253,15.5135297 C18.9190253,18.3526694 21.2180798,20.6538691 24.0536406,20.6538691 Z" id="Combined-Shape" fill="#000000" fill-rule="nonzero"></path>
        <path d="M35.5536406,33 C35.0013559,33 34.5536406,32.5522847 34.5536406,32 C34.5536406,31.4477153 35.0013559,31 35.5536406,31 L37.3175727,31 C38.4538888,31 39.4926782,31.6420071 39.96392,32.5910771 L46.0008542,42.6583592 C46.741822,44.1402947 46.1411489,45.9423138 44.6592135,46.6832816 C44.2426471,46.8915647 43.783308,47 43.3175727,47 L4,47 C2.34314575,47 1,45.6568542 1,44 C1,43.4779192 1.13624595,42.9648763 1.43329258,42.4502879 L8.10955629,32.5115832 C8.64368485,31.5768582 9.63771517,31 10.7142857,31 L12.5536406,31 C13.1059254,31 13.5536406,31.4477153 13.5536406,32 C13.5536406,32.5522847 13.1059254,33 12.5536406,33 L10.7142857,33 C10.3554289,33 10.0240854,33.1922861 9.80802056,33.5651563 L3.13175686,43.5038611 C3.04541532,43.6549588 3,43.8259731 3,44 C3,44.5522847 3.44771525,45 4,45 L43.3175727,45 C43.4728178,45 43.6259308,44.9638549 43.7647863,44.8944272 C44.2587648,44.6474379 44.4589891,44.0467649 44.2489341,43.6200686 L38.2119999,33.5527864 C38.0426078,33.2140024 37.6963447,33 37.3175727,33 L35.5536406,33 Z" id="Path" fill="#000000" fill-rule="nonzero" opacity="0.5"></path>
    </g>
</svg>