<?xml version="1.0" encoding="UTF-8"?>
<svg width="48px" height="48px" viewBox="0 0 48 48" version="1.1" xmlns="http://www.w3.org/2000/svg" xmlns:xlink="http://www.w3.org/1999/xlink">
    <!-- Generator: Sketch 53 (72520) - https://sketchapp.com -->
    <title>svg-spots/Location</title>
    <desc>Created with Sketch.</desc>
    <g id="svg-spots/Location" stroke="none" stroke-width="1" fill="none" fill-rule="evenodd">
        <path d="M35.5536406,33 C35.0013559,33 34.5536406,32.5522847 34.5536406,32 C34.5536406,31.4477153 35.0013559,31 35.5536406,31 L37.3175727,31 C38.4538888,31 39.4926782,31.6420071 39.96392,32.5910771 L46.0008542,42.6583592 C46.741822,44.1402947 46.1411489,45.9423138 44.6592135,46.6832816 C44.2426471,46.8915647 43.783308,47 43.3175727,47 L4,47 C2.34314575,47 1,45.6568542 1,44 C1,43.4779192 1.13624595,42.9648763 1.43329258,42.4502879 L8.10955629,32.5115832 C8.64368485,31.5768582 9.63771517,31 10.7142857,31 L12.5536406,31 C13.1059254,31 13.5536406,31.4477153 13.5536406,32 C13.5536406,32.5522847 13.1059254,33 12.5536406,33 L10.7142857,33 C10.3554289,33 10.0240854,33.1922861 9.80802056,33.5651563 L3.13175686,43.5038611 C3.04541532,43.6549588 3,43.8259731 3,44 C3,44.5522847 3.44771525,45 4,45 L43.3175727,45 C43.4728178,45 43.6259308,44.9638549 43.7647863,44.8944272 C44.2587648,44.6474379 44.4589891,44.0467649 44.2489341,43.6200686 L38.2119999,33.5527864 C38.0426078,33.2140024 37.6963447,33 37.3175727,33 L35.5536406,33 Z" id="Path" fill="#000000" fill-rule="nonzero" opacity="0.5"></path>
        <path d="M23.9306252,39.9174088 L23.9379494,39.9269826 C24.0120194,40.0250225 23.988399,40.0250988 24.0746411,39.9103428 C24.1742093,39.7818066 24.363522,39.5337292 24.629728,39.1789659 C25.0748825,38.5857241 25.5712922,37.9114294 26.1060933,37.1689643 C27.6342331,35.047446 29.1623271,32.8069666 30.5871563,30.5514213 C31.6071347,28.9367662 32.5364443,27.3726711 33.3543094,25.8805075 C35.6935925,21.6125744 37,18.1504934 37,15.8934061 C37,8.77429269 31.1814054,3 24,3 C16.8185946,3 11,8.77429269 11,15.8934061 C11,18.1509261 12.3074789,21.6146819 14.648576,25.8850426 C15.46644,27.3768962 16.3956514,28.9406405 17.4154599,30.5549279 C18.840868,32.811252 20.3695823,35.0525648 21.8983425,37.174916 C22.433361,37.9176728 22.9299726,38.5922384 23.3753084,39.1857235 C23.6416236,39.5406333 23.8310147,39.7888158 23.9306252,39.9174088 Z M21.7755958,40.3861065 C21.322685,39.7825266 20.8183933,39.0975288 20.2755158,38.3438615 C18.7245735,36.1907152 17.1735852,33.9167457 15.7246043,31.6231075 C14.6838755,29.9757045 13.7338642,28.3769567 12.8948277,26.8464826 C10.4010718,22.2976592 9,18.5859584 9,15.8934061 C9,7.66628693 15.7174324,1 24,1 C32.2825676,1 39,7.66628693 39,15.8934061 C39,18.5853978 37.6000153,22.2954657 35.1081414,26.8417948 C34.2690862,28.3726191 33.3189589,29.9717518 32.2780412,31.6195542 C30.8296324,33.9124269 29.279257,36.185575 27.7289274,38.3378995 C27.1862643,39.0912794 26.6821715,39.7760104 26.2294391,40.379351 C25.9569129,40.742537 25.761417,40.9987169 25.6651094,41.1228495 C24.7920312,42.286598 23.2234318,42.293271 22.3458197,41.1374084 C22.239326,40.9998534 22.0451169,40.7452889 21.7755958,40.3861065 Z" id="Shape" fill="#000000" fill-rule="nonzero"></path>
        <path d="M24,23 C20.1340068,23 17,19.8659932 17,16 C17,12.1340068 20.1340068,9 24,9 C27.8659932,9 31,12.1340068 31,16 C31,19.8659932 27.8659932,23 24,23 Z M24,21 C26.7614237,21 29,18.7614237 29,16 C29,13.2385763 26.7614237,11 24,11 C21.2385763,11 19,13.2385763 19,16 C19,18.7614237 21.2385763,21 24,21 Z" id="Oval" fill="#000000" fill-rule="nonzero"></path>
    </g>
</svg>