<?xml version="1.0" encoding="UTF-8"?>
<svg width="48px" height="48px" viewBox="0 0 48 48" version="1.1" xmlns="http://www.w3.org/2000/svg" xmlns:xlink="http://www.w3.org/1999/xlink">
    <!-- Generator: Sketch 53 (72520) - https://sketchapp.com -->
    <title>svg-spots/Product</title>
    <desc>Created with Sketch.</desc>
    <g id="svg-spots/Product" stroke="none" stroke-width="1" fill="none" fill-rule="evenodd">
        <path d="M7,8 C6.44771525,8 6,7.55228475 6,7 C6,6.44771525 6.44771525,6 7,6 L26,6 C26.5522847,6 27,6.44771525 27,7 C27,7.55228475 26.5522847,8 26,8 L7,8 Z" id="Path-10" fill="#000000" opacity="0.5"></path>
        <polygon id="Rectangle" fill="#000000" points="6 22 9 25 15 19 15 22 9 28 6 25"></polygon>
        <path d="M19,23 C18.4477153,23 18,22.5522847 18,22 C18,21.4477153 18.4477153,21 19,21 L38,21 C38.5522847,21 39,21.4477153 39,22 C39,22.5522847 38.5522847,23 38,23 L19,23 Z" id="Path-10" fill="#000000" opacity="0.5"></path>
        <path d="M19,27 C18.4477153,27 18,26.5522847 18,26 C18,25.4477153 18.4477153,25 19,25 L28.5,25 C29.0522847,25 29.5,25.4477153 29.5,26 C29.5,26.5522847 29.0522847,27 28.5,27 L19,27 Z" id="Path-10" fill="#000000" opacity="0.5"></path>
        <path d="M4,17 C3.44771525,17 3,17.4477153 3,18 L3,30 C3,30.5522847 3.44771525,31 4,31 L44,31 C44.5522847,31 45,30.5522847 45,30 L45,18 C45,17.4477153 44.5522847,17 44,17 L4,17 Z M4,15 L44,15 C45.6568542,15 47,16.3431458 47,18 L47,30 C47,31.6568542 45.6568542,33 44,33 L4,33 C2.34314575,33 1,31.6568542 1,30 L1,18 C1,16.3431458 2.34314575,15 4,15 Z" id="Rectangle" fill="#000000" fill-rule="nonzero"></path>
        <path d="M4,3 C3.44771525,3 3,3.44771525 3,4 L3,10 C3,10.5522847 3.44771525,11 4,11 L44,11 C44.5522847,11 45,10.5522847 45,10 L45,4 C45,3.44771525 44.5522847,3 44,3 L4,3 Z M4,1 L44,1 C45.6568542,1 47,2.34314575 47,4 L47,10 C47,11.6568542 45.6568542,13 44,13 L4,13 C2.34314575,13 1,11.6568542 1,10 L1,4 C1,2.34314575 2.34314575,1 4,1 Z" id="Rectangle" fill="#000000" fill-rule="nonzero" opacity="0.5"></path>
        <path d="M7,42 C6.44771525,42 6,41.5522847 6,41 C6,40.4477153 6.44771525,40 7,40 L26,40 C26.5522847,40 27,40.4477153 27,41 C27,41.5522847 26.5522847,42 26,42 L7,42 Z" id="Path-10" fill="#000000" opacity="0.5"></path>
        <path d="M4,37 C3.44771525,37 3,37.4477153 3,38 L3,44 C3,44.5522847 3.44771525,45 4,45 L44,45 C44.5522847,45 45,44.5522847 45,44 L45,38 C45,37.4477153 44.5522847,37 44,37 L4,37 Z M4,35 L44,35 C45.6568542,35 47,36.3431458 47,38 L47,44 C47,45.6568542 45.6568542,47 44,47 L4,47 C2.34314575,47 1,45.6568542 1,44 L1,38 C1,36.3431458 2.34314575,35 4,35 Z" id="Rectangle" fill="#000000" fill-rule="nonzero" opacity="0.5"></path>
    </g>
</svg>