<?xml version="1.0" encoding="UTF-8"?>
<svg width="48px" height="48px" viewBox="0 0 48 48" version="1.1" xmlns="http://www.w3.org/2000/svg" xmlns:xlink="http://www.w3.org/1999/xlink">
    <!-- Generator: Sketch 53 (72520) - https://sketchapp.com -->
    <title>svg-spots/Shield</title>
    <desc>Created with Sketch.</desc>
    <g id="svg-spots/Shield" stroke="none" stroke-width="1" fill="none" fill-rule="evenodd">
        <path d="M21.0373057,24 L27.0373057,24 L27.0373057,23.0043945 C27.0373057,22.4521098 27.4850209,22.0043945 28.0373057,22.0043945 C28.5895904,22.0043945 29.0373057,22.4521098 29.0373057,23.0043945 L29.0373057,24.1260175 C30.7625329,24.5700603 32.0373057,26.1361606 32.0373057,28 L32.0373057,35 C32.0373057,37.209139 30.2464447,39 28.0373057,39 L20.0373057,39 C17.8281667,39 16.0373057,37.209139 16.0373057,35 L16.0373057,28 C16.0373057,26.1361606 17.3120785,24.5700603 19.0373057,24.1260175 L19.0373057,20 C19.0373057,17.2385763 21.2758819,15 24.0373057,15 C25.5078918,15 26.8769431,15.639852 27.8201606,16.7303431 C28.1814585,17.1480538 28.1357268,17.7795651 27.718016,18.140863 C27.3003053,18.5021609 26.668794,18.4564292 26.3074961,18.0387184 C25.7402614,17.382916 24.9209601,17 24.0373057,17 C22.3804514,17 21.0373057,18.3431458 21.0373057,20 L21.0373057,24 Z M20.0373057,26 C18.9327362,26 18.0373057,26.8954305 18.0373057,28 L18.0373057,35 C18.0373057,36.1045695 18.9327362,37 20.0373057,37 L28.0373057,37 C29.1418752,37 30.0373057,36.1045695 30.0373057,35 L30.0373057,28 C30.0373057,26.8954305 29.1418752,26 28.0373057,26 L20.0373057,26 Z M22.0373057,35 L23.1773057,32.2 C23.223449,31.9706133 23.1242068,31.7364018 22.9273057,31.61 C22.3673057,31.25 22.0373057,30.66 22.0373057,30 C22.0373057,28.91 22.9273057,28 24.0173057,28 C25.0973057,28 26.0373057,28.91 26.0373057,30 C26.0373057,30.66 25.7073057,31.25 25.1473057,31.61 C24.9573057,31.74 24.8473057,31.97 24.8973057,32.2 L26.0373057,35 L22.0373057,35 Z" id="Shape" fill="#000000" fill-rule="nonzero"></path>
        <path d="M7.20800753,9.76182226 C6.47486247,10.0779911 6,10.7999129 6,11.5983265 L6,21.0578613 C6,21.6101461 5.55228475,22.0578613 5,22.0578613 C4.44771525,22.0578613 4,21.6101461 4,21.0578613 L4,11.5983265 C4,10.0014992 4.94972494,8.55765561 6.44209476,7.91450514 L23.6300835,1.07093501 C23.8676262,0.976354996 24.1323738,0.976354996 24.3699165,1.07093501 L41.5839849,7.92531799 C43.0502751,8.55765561 44,10.0014992 44,11.5983265 L44,13.2751465 C44,13.8274312 43.5522847,14.2751465 43,14.2751465 C42.4477153,14.2751465 42,13.8274312 42,13.2751465 L42,11.5983265 C42,10.7999129 41.5251375,10.0779911 40.8180722,9.77263511 L23.9999884,3.07634635 L7.20800753,9.76182226 Z M4.38168228,27.8403467 C4.27209539,27.2990435 4.62207061,26.7713928 5.16337381,26.6618059 C5.70467701,26.552219 6.23232769,26.9021943 6.34191458,27.4434975 C7.35104632,32.4280921 10.3445605,36.8978505 14.5456949,40.3636812 C17.9538827,43.1753507 21.8836561,45 24,45 C26.3788054,45 30.9636288,42.6975651 34.6343672,39.3270107 C39.239104,35.0988381 42,29.816106 42,24.0575 L42,20.0244141 C42,19.4721293 42.4477153,19.0244141 43,19.0244141 C43.5522847,19.0244141 44,19.4721293 44,20.0244141 L44,24.0575 C44,30.431823 40.974754,36.2203655 35.9870614,40.8001768 C31.9810473,44.4785889 26.960178,47 24,47 C21.3427607,47 17.0067292,44.9867194 13.272952,41.9064467 C8.74072185,38.1674704 5.48964993,33.3131402 4.38168228,27.8403467 Z" id="Shape" fill="#000000" fill-rule="nonzero"></path>
        <path d="M1.39529922,20.0158614 C1.7557206,19.5973941 2.38713462,19.5503385 2.80560192,19.9107599 C3.22406921,20.2711813 3.27112473,20.9025953 2.91070335,21.3210626 C1.66319688,22.7694802 1.70667664,23.2076394 2.8632318,23.6050641 C3.68047218,23.8858909 8.63634086,23.2717563 16.8300327,21.7055338 C17.3724961,21.601842 17.8963082,21.9575367 18,22.5 C18.1036918,23.0424633 17.7479971,23.5662755 17.2055338,23.6699673 C8.2716755,25.3776725 3.55757661,25.9584467 2.21327858,25.4965083 C-0.466754796,24.5755737 -0.680110972,22.4255167 1.39529922,20.0158614 Z M23.2315108,22.5271033 C22.6901483,22.6363973 22.1626871,22.2861366 22.0533931,21.7447742 C21.9440992,21.2034118 22.2943599,20.6759505 22.8357223,20.5666566 C32.0884652,18.6986492 42.4643139,15.8995401 44.5257299,14.9204448 C46.0811607,14.1816735 46.1698964,13.7527291 45.0673798,12.7347024 C44.6616176,12.3600353 44.6364101,11.7273723 45.0110773,11.3216101 C45.3857444,10.9158478 46.0184074,10.8906403 46.4241696,11.2653075 C48.6094134,13.283088 48.1708054,15.4032974 45.3837883,16.727026 C43.1287776,17.7980716 32.6398946,20.6276741 23.2315108,22.5271033 Z" id="Shape" fill="#000000" fill-rule="nonzero" opacity="0.5"></path>
    </g>
</svg>