<?xml version="1.0" encoding="UTF-8"?>
<svg width="48px" height="48px" viewBox="0 0 48 48" version="1.1" xmlns="http://www.w3.org/2000/svg" xmlns:xlink="http://www.w3.org/1999/xlink">
    <!-- Generator: Sketch 53 (72520) - https://sketchapp.com -->
    <title>svg-spots/Trash</title>
    <desc>Created with Sketch.</desc>
    <g id="svg-spots/Trash" stroke="none" stroke-width="1" fill="none" fill-rule="evenodd">
        <path d="M39,14 L9,14 L9,44 C9,44.5522847 9.44771525,45 10,45 L38,45 C38.5522847,45 39,44.5522847 39,44 L39,14 Z M7,12 L41,12 C42.1045695,12 43,11.1045695 43,10 C43,8.8954305 42.1045695,8 41,8 L7,8 C5.8954305,8 5,8.8954305 5,10 C5,11.1045695 5.8954305,12 7,12 Z M41,14 L41,44 C41,45.6568542 39.6568542,47 38,47 L10,47 C8.34314575,47 7,45.6568542 7,44 L7,14 C4.790861,14 3,12.209139 3,10 C3,7.790861 4.790861,6 7,6 L41,6 C43.209139,6 45,7.790861 45,10 C45,12.209139 43.209139,14 41,14 Z" id="Shape" fill="#000000" fill-rule="nonzero"></path>
        <path d="M18,38.9985352 C18,39.5508199 17.5522847,39.9985352 17,39.9985352 C16.4477153,39.9985352 16,39.5508199 16,38.9985352 L16,20 C16,19.4477153 16.4477153,19 17,19 C17.5522847,19 18,19.4477153 18,20 L18,38.9985352 Z" id="Path-14" fill="#000000" fill-rule="nonzero" opacity="0.5"></path>
        <path d="M25,38.9985352 C25,39.5508199 24.5522847,39.9985352 24,39.9985352 C23.4477153,39.9985352 23,39.5508199 23,38.9985352 L23,20 C23,19.4477153 23.4477153,19 24,19 C24.5522847,19 25,19.4477153 25,20 L25,38.9985352 Z" id="Path-14" fill="#000000" fill-rule="nonzero" opacity="0.5"></path>
        <path d="M32,38.9985352 C32,39.5508199 31.5522847,39.9985352 31,39.9985352 C30.4477153,39.9985352 30,39.5508199 30,38.9985352 L30,20 C30,19.4477153 30.4477153,19 31,19 C31.5522847,19 32,19.4477153 32,20 L32,38.9985352 Z" id="Path-14" fill="#000000" fill-rule="nonzero" opacity="0.5"></path>
        <path d="M12.4287966,4.4532293 C12.143502,4.92611982 11.5288715,5.07819638 11.055981,4.7929018 C10.5830905,4.50760721 10.4310139,3.89297675 10.7163085,3.42008622 C11.6148321,1.93073684 13.2275548,1 15,1 L33,1 C34.7724452,1 36.3851679,1.93073684 37.2836915,3.42008622 C37.5689861,3.89297675 37.4169095,4.50760721 36.944019,4.7929018 C36.4711285,5.07819638 35.856498,4.92611982 35.5712034,4.4532293 C35.0310527,3.55790154 34.0643558,3 33,3 L15,3 C13.9356442,3 12.9689473,3.55790154 12.4287966,4.4532293 Z" id="Path" fill="#000000" fill-rule="nonzero" opacity="0.5"></path>
    </g>
</svg>