<?xml version="1.0" encoding="UTF-8"?>
<svg width="48px" height="48px" viewBox="0 0 48 48" version="1.1" xmlns="http://www.w3.org/2000/svg" xmlns:xlink="http://www.w3.org/1999/xlink">
    <!-- Generator: Sketch 53 (72520) - https://sketchapp.com -->
    <title>svg-spots/Wave</title>
    <desc>Created with Sketch.</desc>
    <g id="svg-spots/Wave" stroke="none" stroke-width="1" fill="none" fill-rule="evenodd">
        <path d="M21.5153569,3.38195192 C20.567376,3.93107584 20.434158,4.59811254 21.1275514,5.91388213 C21.9217826,7.42205025 26.2522843,17.5069083 27.5242371,20.6595543 C27.7639264,21.2581874 27.5457443,21.9121666 26.9372319,22.2634682 C26.3247685,22.5704801 25.668345,22.377692 25.3092741,21.8611259 L14.2201742,5.90180952 C13.8767695,5.37977202 13.2519406,5.06868059 12.599235,5.10288744 C12.3053941,5.118287 12.0138526,5.20498765 11.7580366,5.35359443 C11.3664848,5.58031931 11.1140773,5.91383349 11.0284962,6.29734149 C10.9431222,6.68019831 11.0278882,7.09949115 11.2836517,7.48771411 L21.598033,23.1487579 C21.9784332,23.7231363 21.8193278,24.4743 21.2109567,24.8901563 C20.6318337,25.2401322 20.020224,25.1270251 19.5905815,24.6724575 L9.31342326,13.3176008 C8.73294942,12.7043064 8.09347491,12.3592924 7.43252753,12.3939311 C7.1351399,12.4095166 6.83088252,12.5040061 6.52130237,12.6834801 C6.20608658,12.8656778 6.03686136,13.0908678 5.98733153,13.3541108 C5.9167754,13.7300964 6.09035279,14.2426603 6.51461331,14.7375672 C6.90149403,15.1879998 8.72958406,17.4533843 11.5866776,21.0151145 C13.5148023,23.4187672 15.8379493,26.3216542 17.2184324,28.0501129 L17.2840753,28.1289978 C17.690494,28.6397074 17.633399,29.372739 17.1567494,29.8122306 C16.7179332,30.2200668 16.0345086,30.2667772 15.5489698,29.9240002 L5.72839766,23.028031 C5.14085493,22.6155328 4.52462105,22.3773704 3.96596332,22.4066484 C3.70558457,22.4202942 3.4628263,22.4924796 3.23429301,22.6249085 C3.18490309,22.6534053 3.09794776,22.7988149 3.06285632,23.0187274 C3.01804442,23.2990031 3.07834461,23.5804246 3.23288338,23.8149718 C3.6543764,24.455093 4.75291078,25.4141811 7.63758758,27.7412004 C8.70829493,28.6052615 9.19275952,28.9985999 9.80086672,29.5012297 C11.2681208,30.7139857 12.4364063,31.7379431 13.4532558,32.7238968 C13.8368689,33.0958543 14.1936407,33.4577885 14.524189,33.8113456 C14.8819564,34.1938975 15.2034194,34.5563358 15.9382972,35.3988867 C21.3789561,41.6309982 24.6273564,44.0698274 29.2268272,43.8287793 C30.8562111,43.7433869 32.5333416,43.211369 34.2142022,42.2377105 C38.5175148,39.7452262 39.7428537,37.4702318 41.4767904,30.6266019 L41.7040095,29.7366893 C42.6364467,26.0981207 43.3689381,22.8183329 43.8579787,20.3801223 C44.1665693,19.1688256 43.369205,17.9600062 42.0280025,17.6679184 C41.3761594,17.5259113 40.6773678,17.6329202 40.1142638,17.958799 C39.5528206,18.2844951 39.1708624,18.7774968 39.0293943,19.3304866 L37.578796,25.5423351 C37.4584482,26.0664835 37.0060525,26.4510165 36.484843,26.5102764 C36.3935224,26.5206593 36.3012063,26.5184031 36.2105019,26.5035716 C35.7591694,26.4297719 35.4375944,26.2845354 35.2064608,25.8290284 L24.1740108,4.10718843 C23.502541,3.15119871 22.3974445,2.87183017 21.5153569,3.38195192 Z M36.0853739,23.1429263 L37.0867003,18.8556047 C37.3681216,17.7538296 38.0916348,16.8199756 39.1115889,16.2282956 C40.108928,15.6511157 41.3170161,15.4661162 42.4536572,15.7137388 C44.8754656,16.2411615 46.3909804,18.5387106 45.8076054,20.8231201 C45.3235685,23.2432184 44.5835232,26.5568297 43.6416231,30.2323229 L43.4150765,31.1195965 C41.5608695,38.4379255 40.1080699,41.1352289 35.2166431,43.9683498 C33.2719264,45.09485 31.2905942,45.7233666 29.3314991,45.8260384 C26.253091,45.9873709 23.3855339,44.9082266 20.5797976,42.80174 C18.580769,41.3009123 17.1442355,39.821372 14.4313566,36.7138505 C13.7117248,35.8887796 13.3998971,35.5372048 13.0633426,35.1773353 C12.755955,34.8485511 12.4220008,34.5097645 12.0610239,34.1597555 C11.0883191,33.2166052 9.95667361,32.2247614 8.52668137,31.0428041 C7.92658337,30.5467943 7.44622078,30.1567863 6.38171499,29.2977299 C3.21895608,26.7463865 2.15928772,25.8212309 1.56264392,24.9151082 C1.13289609,24.2628699 0.964322021,23.4761334 1.08789117,22.7032713 C1.21166889,21.927575 1.61768105,21.2486279 2.23315344,20.8935172 C2.73393001,20.6033261 3.28447439,20.439619 3.86129141,20.4093893 C4.94199455,20.352752 5.95762411,20.7452732 6.87766637,21.3912104 L12.4748294,25.3215197 C11.652544,24.294636 10.8071589,23.2396428 10.0265885,22.2665626 C7.20526903,18.7494292 5.36096056,16.4639466 4.99680446,16.0399709 C4.20355044,15.1146283 3.82938711,14.0097458 4.02173129,12.9847661 C4.18313875,12.1269097 4.71722729,11.4161921 5.51932677,10.9525719 C6.09501486,10.6188244 6.70528707,10.4292995 7.32785562,10.3966721 C8.67473973,10.3260849 9.82126006,10.9446641 10.7811004,11.9591357 L14.6463432,16.2296974 L9.61343812,8.58788975 C9.06641841,7.75756953 8.87019439,6.78695335 9.07647433,5.86189866 C9.28627886,4.92171747 9.88977067,4.12430406 10.7546276,3.62351684 C11.2838568,3.31607846 11.8839064,3.13763154 12.4945631,3.10562837 C13.8518527,3.03449584 15.1546087,3.68311543 15.8768314,4.78161271 L22.9639208,14.9809157 C21.4258122,11.3957641 19.7930888,7.67210787 19.3580707,6.84605055 C18.1951422,4.63930049 18.5667452,2.77864435 20.5134961,1.65097698 C22.3448161,0.591902176 24.6248922,1.19247803 25.8656493,3.03768708 L25.9274027,3.14285153 L36.0853739,23.1429263 Z" id="Path" fill="#000000" fill-rule="nonzero"></path>
        <path d="M33.6129848,7.97150344 C33.129324,7.70487513 32.9533844,7.09664561 33.2200127,6.61298479 C33.486641,6.12932397 34.0948705,5.95338436 34.5785313,6.22001267 C37.7792396,7.98447119 39.7868188,9.99205036 40.5450458,12.2813493 C40.7186889,12.8056265 40.4344439,13.3714026 39.9101668,13.5450458 C39.3858896,13.7186889 38.8201135,13.4344439 38.6464703,12.9101668 C38.071364,11.17376 36.4122765,9.5146725 33.6129848,7.97150344 Z M33.8135917,3.05512356 C33.2837488,2.8992874 32.9805564,2.34343467 33.1363926,1.81359173 C33.2922287,1.2837488 33.8480814,0.980556397 34.3779244,1.13639255 C40.3542796,2.89414409 44.4324022,6.79495698 46.5387484,12.7629379 C46.7225599,13.2837371 46.4493774,13.8549369 45.9285782,14.0387484 C45.407779,14.2225599 44.8365792,13.9493774 44.6527677,13.4285782 C42.7591139,8.0632258 39.1705698,4.63070535 33.8135917,3.05512356 Z M14.5786172,40.2200985 C15.062278,40.4867269 15.2382176,41.0949564 14.9715893,41.5786172 C14.704961,42.062278 14.0967315,42.2382176 13.6130707,41.9715893 C10.4123623,40.2071308 8.40478318,38.1995516 7.64655622,35.9102526 C7.47291308,35.3859755 7.7571581,34.8201994 8.28143522,34.6465562 C8.80571235,34.4729131 9.37148851,34.7571581 9.54513165,35.2814352 C10.120238,37.017842 11.7793255,38.6769295 14.5786172,40.2200985 Z M14.3779358,45.136404 C14.9077788,45.2922402 15.2109712,45.8480929 15.055135,46.3779358 C14.8992989,46.9077788 14.3434461,47.2109712 13.8136032,47.055135 C7.83724797,45.2973835 3.75912541,41.3965706 1.65277919,35.4285896 C1.46896771,34.9077905 1.74215022,34.3365907 2.2629494,34.1527792 C2.78374858,33.9689677 3.35494838,34.2421502 3.53875985,34.7629494 C5.43241363,40.1283018 9.02095774,43.5608222 14.3779358,45.136404 Z" id="Shape" fill="#000000" fill-rule="nonzero" opacity="0.5"></path>
    </g>
</svg>