<?xml version="1.0" encoding="UTF-8"?>
<svg width="107px" height="15px" viewBox="0 0 107 15" version="1.1" xmlns="http://www.w3.org/2000/svg" xmlns:xlink="http://www.w3.org/1999/xlink">
    <!-- Generator: Sketch 53 (72520) - https://sketchapp.com -->
    <title>svg-icons/LogoSEAlternativeSm</title>
    <desc>Created with Sketch.</desc>
    <g id="svg-icons/LogoSEAlternativeSm" stroke="none" stroke-width="1" fill="none" fill-rule="evenodd">
        <g id="Group" transform="translate(20.000000, 1.097975)">
            <path d="M28.4139881,10.8332369 L26.4451862,7.62864896 L25.4053594,8.79246471 L25.4053594,10.8332369 L23.9912896,10.8332369 L23.9912896,1.08189295 L25.4053594,1.08189295 L25.4053594,7.09447298 L28.1368589,3.88965107 L29.8557708,3.88965107 L27.4158491,6.61504828 L30.1608498,10.8332369 L28.4139881,10.8332369 Z M21.3453213,10.9155978 C19.764974,10.9155978 18.2121028,9.95674841 18.2121028,7.35465857 C18.2121028,4.75256873 19.764974,3.80752414 21.3453213,3.80752414 C22.3159842,3.80752414 22.9953062,4.08151454 23.6606532,4.77994437 L22.6902272,5.71095017 C22.2465835,5.23199343 21.9000535,5.05370079 21.3453213,5.05370079 C20.8048009,5.05370079 20.3471823,5.27270592 20.0421033,5.67023767 C19.7370243,6.05349666 19.6261726,6.54672617 19.6261726,7.35465857 C19.6261726,8.16259097 19.7370243,8.66939131 20.0421033,9.05288427 C20.3471823,9.44994807 20.8048009,9.6689532 21.3453213,9.6689532 C21.9000535,9.6689532 22.2465835,9.49112852 22.6902272,9.01170382 L23.6606532,9.92937276 C22.9953062,10.6278026 22.3159842,10.9155978 21.3453213,10.9155978 L21.3453213,10.9155978 Z M15.6925954,7.76552717 L14.0426105,7.76552717 C13.210749,7.76552717 12.7810803,8.13521533 12.7810803,8.76508906 C12.7810803,9.39519678 13.1830361,9.7513141 14.0705603,9.7513141 C14.6110807,9.7513141 15.0132734,9.71013365 15.3875163,9.35425031 C15.5954817,9.14881601 15.6925954,8.82007433 15.6925954,8.32684482 L15.6925954,7.76552717 Z M15.7203083,10.8332369 L15.7203083,10.2033632 C15.2072639,10.7101635 14.7221693,10.9155978 13.84862,10.9155978 C12.9750708,10.9155978 12.3928625,10.7101635 11.9631937,10.2852561 C11.6026888,9.91556795 11.4084615,9.38162595 11.4084615,8.79246471 C11.4084615,7.62864896 12.2263481,6.79287296 13.8346451,6.79287296 L15.6925954,6.79287296 L15.6925954,6.30011141 C15.6925954,5.42362292 15.2489517,4.9989495 14.1536991,4.9989495 C13.3772634,4.9989495 13.0027837,5.17700816 12.6148027,5.67023767 L11.6858276,4.80732001 C12.3511747,4.04033409 13.0444715,3.80752414 14.2091249,3.80752414 C16.136239,3.80752414 17.1066651,4.61545654 17.1066651,6.19037487 L17.1066651,10.8332369 L15.7203083,10.8332369 Z M9.81341975,10.8332369 C8.49622683,10.8332369 7.88606877,9.90199712 7.88606877,8.90220125 L7.88606877,5.08107643 L7.08215711,5.08107643 L7.08215711,4.01295844 L7.88606877,4.01295844 L7.88606877,1.90386414 L9.30037536,1.90386414 L9.30037536,4.01295844 L10.6590192,4.01295844 L10.6590192,5.08107643 L9.30037536,5.08107643 L9.30037536,8.83364516 C9.30037536,9.3404455 9.54979168,9.64157756 10.076811,9.64157756 L10.6590192,9.64157756 L10.6590192,10.8332369 L9.81341975,10.8332369 Z M3.49396021,10.9155978 C2.01025289,10.9155978 0.942950011,10.5730513 0,9.62824071 L0.998138997,8.6555865 C1.71914875,9.36782114 2.50955925,9.58706025 3.52143627,9.58706025 C4.81091627,9.58706025 5.55963895,9.03907946 5.55963895,8.09403487 C5.55963895,7.66959544 5.43481236,7.31347812 5.17142115,7.08066817 C4.92176797,6.84785823 4.67235165,6.75216047 4.08990651,6.66979957 L2.92548997,6.50554572 C2.12134145,6.39580917 1.48347046,6.12205275 1.05380171,5.72475498 C0.56847024,5.27270592 0.332791953,4.65663699 0.332791953,3.86227542 C0.332791953,2.16404972 1.58058413,1 3.63252483,1 C4.93574286,1 5.85074308,1.32874168 6.69657943,2.10929844 L5.73965452,3.04053821 C5.12973333,2.46518178 4.42269847,2.2873571 3.59083702,2.2873571 C2.42618361,2.2873571 1.78854949,2.94460648 1.78854949,3.80752414 C1.78854949,4.16340748 1.89940119,4.47857833 2.1627924,4.71138828 C2.41244558,4.93039341 2.81440141,5.09488124 3.27201996,5.16343733 L4.39498554,5.32769118 C5.30998577,5.46456939 5.82303016,5.68380851 6.23896088,6.05349666 C6.7797182,6.51935053 7.04310941,7.21754638 7.04310941,8.0530884 C7.04310941,9.84701186 5.55963895,10.9155978 3.49396021,10.9155978 L3.49396021,10.9155978 Z" id="stack" fill="#FFFFFF"></path>
            <path d="M84.1545087,5.98721746 C83.9637765,5.56720249 83.568339,5.25531707 82.968662,5.25531707 C82.3689851,5.25531707 81.9735476,5.56720249 81.7825825,5.98721746 C81.6738256,6.24469079 81.632838,6.43455423 81.6190978,6.74597657 L84.3182263,6.74597657 C84.304719,6.43455423 84.2637314,6.24469079 84.1545087,5.98721746 L84.1545087,5.98721746 Z M81.6190978,7.95230399 C81.6190978,8.8604069 82.1782529,9.52423429 83.1731344,9.52423429 C83.9500363,9.52423429 84.3319665,9.30774367 84.781666,8.8604069 L85.8585228,9.90396116 C85.1361158,10.6222006 84.4407234,11.0153569 83.1596271,11.0153569 C81.4828605,11.0153569 79.8743289,10.2561347 79.8743289,7.39660614 C79.8743289,5.09277545 81.1284107,3.79174785 82.968662,3.79174785 C84.9453836,3.79174785 86.0629951,5.2282268 86.0629951,7.16622307 L86.0629951,7.95230399 L81.6190978,7.95230399 Z M76.1439658,5.37733906 C75.0943564,5.37733906 74.9853666,6.27178106 74.9853666,7.20697424 C74.9853666,8.14216742 75.0943564,9.05027033 76.1439658,9.05027033 C77.193808,9.05027033 77.3163051,8.14216742 77.3163051,7.20697424 C77.3163051,6.27178106 77.193808,5.37733906 76.1439658,5.37733906 L76.1439658,5.37733906 Z M75.9667408,13.6039827 C74.8763768,13.6039827 74.1267223,13.387029 73.3905752,12.6822189 L74.4946795,11.5708232 C74.889884,11.9503185 75.2853215,12.1130917 75.8852313,12.1130917 C76.948348,12.1130917 77.3163051,11.3675304 77.3163051,10.6492909 L77.3163051,9.93105143 C76.8528654,10.4459981 76.3214236,10.63563 75.6260312,10.63563 C74.9308717,10.63563 74.3311947,10.4052469 73.9357573,10.0123222 C73.2678452,9.3482633 73.2133503,8.44039194 73.2133503,7.20697424 C73.2133503,5.97355655 73.2678452,5.07911455 73.9357573,4.41505561 C74.3311947,4.02213092 74.9446118,3.79174785 75.6397713,3.79174785 C76.3894258,3.79174785 76.8801129,3.99504065 77.3710329,4.5370776 L77.3710329,3.87301866 L79.0885543,3.87301866 L79.0885543,10.6763812 C79.0885543,12.3703335 77.8752273,13.6039827 75.9667408,13.6039827 L75.9667408,13.6039827 Z M70.2134447,10.9338545 L70.2134447,6.6649373 C70.2134447,5.70265385 69.6002604,5.37733906 69.0413382,5.37733906 C68.482416,5.37733906 67.8552587,5.70265385 67.8552587,6.6649373 L67.8552587,10.9338545 L66.0832424,10.9338545 L66.0832424,3.87301866 L67.8147368,3.87301866 L67.8147368,4.52364823 C68.2779436,4.03556029 68.9323484,3.79174785 69.5865202,3.79174785 C70.2954199,3.79174785 70.8680823,4.02213092 71.2632869,4.41505561 C71.8357164,4.98418283 71.9856938,5.64824176 71.9856938,6.42089332 L71.9856938,10.9338545 L70.2134447,10.9338545 Z M63.1097259,7.95230399 L61.7056668,7.95230399 C61.0650022,7.95230399 60.7107852,8.25029696 60.7107852,8.75181428 C60.7107852,9.23990222 61.0377547,9.56498547 61.7329142,9.56498547 C62.2238342,9.56498547 62.5372964,9.52423429 62.8507586,9.22624132 C63.0414908,9.05027033 63.1097259,8.76547518 63.1097259,8.33179931 L63.1097259,7.95230399 Z M63.1507136,10.9338545 L63.1507136,10.3239761 C62.6735337,10.7984032 62.2238342,11.001696 61.4059447,11.001696 C60.6015625,11.001696 60.0153928,10.7984032 59.5929408,10.3783882 C59.2112435,9.98523197 59.0067711,9.41610475 59.0067711,8.79256545 C59.0067711,7.66774038 59.783673,6.74597657 61.4331922,6.74597657 L63.1097259,6.74597657 L63.1097259,6.39380305 C63.1097259,5.62115149 62.7282615,5.28240734 61.787642,5.28240734 C61.1059898,5.28240734 60.7925276,5.44494897 60.4243376,5.86519547 L59.2929859,4.76722913 C59.9881454,4.00847002 60.6697976,3.79174785 61.8558771,3.79174785 C63.8458731,3.79174785 64.8819751,4.63177778 64.8819751,6.28521043 L64.8819751,10.9338545 L63.1507136,10.9338545 Z M56.2250077,10.9338545 L56.2250077,6.62418612 C56.2250077,5.68899294 55.6253307,5.37733906 55.0664085,5.37733906 C54.5074863,5.37733906 53.9213166,5.70265385 53.9213166,6.62418612 L53.9213166,10.9338545 L52.1493004,10.9338545 L52.1493004,1.28416129 L53.9213166,1.28416129 L53.9213166,4.52364823 C54.3984965,4.03556029 54.9981734,3.79174785 55.6253307,3.79174785 C57.1791345,3.79174785 57.9972569,4.87582175 57.9972569,6.36671278 L57.9972569,10.9338545 L56.2250077,10.9338545 Z M49.2584575,11.0153569 C47.840891,11.0153569 46.082382,10.2561347 46.082382,7.39660614 C46.082382,4.5370776 47.840891,3.79174785 49.2584575,3.79174785 C50.2400646,3.79174785 50.9759789,4.08997237 51.6029033,4.7403704 L50.4035494,5.93303691 C50.0353594,5.53988068 49.7218972,5.37733906 49.2584575,5.37733906 C48.8360055,5.37733906 48.5088031,5.52645132 48.2496029,5.8381052 C47.9771283,6.17684935 47.8543983,6.65127639 47.8543983,7.39660614 C47.8543983,8.14216742 47.9771283,8.63002383 48.2496029,8.96876798 C48.5088031,9.2806534 48.8360055,9.42953412 49.2584575,9.42953412 C49.7218972,9.42953412 50.0353594,9.26699249 50.4035494,8.8740678 L51.6029033,10.0530734 C50.9759789,10.7034714 50.2400646,11.0153569 49.2584575,11.0153569 L49.2584575,11.0153569 Z M43.7303822,10.9338545 L42.4218056,8.81965572 L41.1267363,10.9338545 L39.0002701,10.9338545 L41.4539386,7.32899623 L39.0957527,3.87301866 L41.2222188,3.87301866 L42.4218056,5.89228574 L43.6348997,3.87301866 L45.7613658,3.87301866 L43.4031799,7.32899623 L45.8568484,10.9338545 L43.7303822,10.9338545 Z M31.9759894,10.9338545 L31.9759894,0.960764428 L38.5833856,0.960764428 L38.5833856,2.69784718 L33.9342356,2.69784718 L33.9342356,5.03701014 L37.8930894,5.03701014 L37.8930894,6.7738536 L33.9342356,6.7738536 L33.9342356,9.19701106 L38.5833856,9.19701106 L38.5833856,10.9338545 L31.9759894,10.9338545 Z" id="exchange" fill="#2F96E8"></path>
        </g>
        <path d="M2,1 L10,1 C11.1045695,1 12,1.8954305 12,3 L12,3 L0,3 L0,3 C-1.3527075e-16,1.8954305 0.8954305,1 2,1 Z" id="Rectangle-32" fill="#8FD8F7"></path>
        <path d="M10,12 L7,15 L7,12 L2,12 C0.8954305,12 1.3527075e-16,11.1045695 0,10 L12,10 C12,11.1045695 11.1045695,12 10,12 Z" id="Combined-Shape" fill="#155397"></path>
        <rect id="Rectangle-33" fill="#46A2D9" x="0" y="4" width="12" height="2"></rect>
        <rect id="Rectangle" fill="#2D6DB5" x="0" y="7" width="12" height="2"></rect>
    </g>
</svg>