<?xml version="1.0" encoding="UTF-8"?>
<svg width="85px" height="8px" viewBox="0 0 85 8" version="1.1" xmlns="http://www.w3.org/2000/svg" xmlns:xlink="http://www.w3.org/1999/xlink">
    <!-- Generator: Sketch 53 (72520) - https://sketchapp.com -->
    <title>svg-icons/LogoEnterpriseWordmarkSm</title>
    <desc>Created with Sketch.</desc>
    <g id="svg-icons/LogoEnterpriseWordmarkSm" stroke="none" stroke-width="1" fill="none" fill-rule="evenodd">
        <path d="M0.0805878906,7.85702515 L0.0805878906,0.00302514648 L5.07458789,0.00302514648 L5.07458789,1.58702515 L2.03858789,1.58702515 L2.03858789,3.16002515 L4.55758789,3.16002515 L4.55758789,4.74402515 L2.03858789,4.74402515 L2.03858789,7.85702515 L0.0805878906,7.85702515 Z M5.91058789,4.8793812 L5.91058789,3.1024418 C5.91058789,1.9105922 6.08394783,1.28216242 6.56068767,0.772917588 C7.09160249,0.220332775 7.76337226,-0.00720214844 8.91188188,-0.00720214844 C10.1362365,-0.00720214844 10.8621812,0.26367276 11.382261,0.91377254 C11.7614859,1.39051238 11.9131759,1.99727217 11.9131759,3.1024418 L11.9131759,4.8793812 C11.9131759,6.0712308 11.7398159,6.69966058 11.2630761,7.20890541 C10.7321613,7.76149022 10.0603915,7.98902515 8.91188188,7.98902515 C7.68752729,7.98902515 6.96158254,7.71815024 6.44150271,7.06805046 C6.06227784,6.59131062 5.91058789,5.98455082 5.91058789,4.8793812 Z M9.98454651,4.72769125 L9.98454651,3.25413175 C9.98454651,1.9105922 9.75701159,1.54220233 8.91188188,1.54220233 C8.06675216,1.54220233 7.83921724,1.9105922 7.83921724,3.25413175 L7.83921724,4.72769125 C7.83921724,6.0712308 8.06675216,6.43962067 8.91188188,6.43962067 C9.75701159,6.43962067 9.98454651,6.0712308 9.98454651,4.72769125 Z M14.9846152,4.82102515 L14.9846152,7.85702515 L13.0266152,7.85702515 L13.0266152,0.00302514648 L16.1066152,0.00302514648 C17.2066152,0.00302514648 17.7786152,0.157025146 18.1966152,0.575025146 C18.6036152,0.982025146 18.7686152,1.51002515 18.7686152,2.37902515 C18.7686152,3.73202515 18.3946152,4.37002515 17.4156152,4.66702515 L19.1096152,7.85702515 L16.9426152,7.85702515 L15.5126152,4.82102515 L14.9846152,4.82102515 Z M14.9516152,3.33602515 L15.9086152,3.33602515 C16.6016152,3.33602515 16.8326152,3.11602515 16.8326152,2.44502515 C16.8326152,1.77402515 16.6016152,1.55402515 15.9086152,1.55402515 L14.9516152,1.55402515 L14.9516152,3.33602515 Z M22.9839004,7.85702515 L22.9839004,0.00302514648 L28.0659004,0.00302514648 L28.0659004,1.58702515 L24.9199004,1.58702515 L24.9199004,3.10502515 L27.5709004,3.10502515 L27.5709004,4.68902515 L24.9199004,4.68902515 L24.9199004,6.27302515 L28.1319004,6.27302515 L28.1319004,7.85702515 L22.9839004,7.85702515 Z M29.0311641,7.85702515 L29.0311641,0.00302514648 L30.9341641,0.00302514648 L33.3431641,4.59002515 L33.3431641,0.00302514648 L35.2351641,0.00302514648 L35.2351641,7.85702515 L33.3321641,7.85702515 L30.9231641,3.27002515 L30.9231641,7.85702515 L29.0311641,7.85702515 Z M38.1405879,7.85702515 L38.1405879,1.58702515 L36.1165879,1.58702515 L36.1165879,0.00302514648 L42.1225879,0.00302514648 L42.1225879,1.58702515 L40.0985879,1.58702515 L40.0985879,7.85702515 L38.1405879,7.85702515 Z M42.9805879,7.85702515 L42.9805879,0.00302514648 L48.0625879,0.00302514648 L48.0625879,1.58702515 L44.9165879,1.58702515 L44.9165879,3.10502515 L47.5675879,3.10502515 L47.5675879,4.68902515 L44.9165879,4.68902515 L44.9165879,6.27302515 L48.1285879,6.27302515 L48.1285879,7.85702515 L42.9805879,7.85702515 Z M50.9844004,4.82102515 L50.9844004,7.85702515 L49.0264004,7.85702515 L49.0264004,0.00302514648 L52.1064004,0.00302514648 C53.2064004,0.00302514648 53.7784004,0.157025146 54.1964004,0.575025146 C54.6034004,0.982025146 54.7684004,1.51002515 54.7684004,2.37902515 C54.7684004,3.73202515 54.3944004,4.37002515 53.4154004,4.66702515 L55.1094004,7.85702515 L52.9424004,7.85702515 L51.5124004,4.82102515 L50.9844004,4.82102515 Z M50.9514004,3.33602515 L51.9084004,3.33602515 C52.6014004,3.33602515 52.8324004,3.11602515 52.8324004,2.44502515 C52.8324004,1.77402515 52.6014004,1.55402515 51.9084004,1.55402515 L50.9514004,1.55402515 L50.9514004,3.33602515 Z M57.9396699,5.22802515 L57.9396699,7.85702515 L55.9816699,7.85702515 L55.9816699,0.00302514648 L58.7206699,0.00302514648 C59.9196699,0.00302514648 60.5356699,0.179025146 60.9866699,0.641025146 C61.4266699,1.09202515 61.5916699,1.64202515 61.5916699,2.64302515 C61.5916699,3.63302515 61.3716699,4.26002515 60.8766699,4.68902515 C60.4256699,5.08502515 59.8316699,5.22802515 58.7206699,5.22802515 L57.9396699,5.22802515 Z M57.9066699,3.66602515 L58.7316699,3.66602515 C59.4246699,3.66602515 59.6556699,3.40202515 59.6556699,2.61002515 C59.6556699,1.81802515 59.4246699,1.55402515 58.7316699,1.55402515 L57.9066699,1.55402515 L57.9066699,3.66602515 Z M64.0135879,4.82102515 L64.0135879,7.85702515 L62.0555879,7.85702515 L62.0555879,0.00302514648 L65.1355879,0.00302514648 C66.2355879,0.00302514648 66.8075879,0.157025146 67.2255879,0.575025146 C67.6325879,0.982025146 67.7975879,1.51002515 67.7975879,2.37902515 C67.7975879,3.73202515 67.4235879,4.37002515 66.4445879,4.66702515 L68.1385879,7.85702515 L65.9715879,7.85702515 L64.5415879,4.82102515 L64.0135879,4.82102515 Z M63.9805879,3.33602515 L64.9375879,3.33602515 C65.6305879,3.33602515 65.8615879,3.11602515 65.8615879,2.44502515 C65.8615879,1.77402515 65.6305879,1.55402515 64.9375879,1.55402515 L63.9805879,1.55402515 L63.9805879,3.33602515 Z M69.0845879,7.85702515 L69.0845879,0.00302514648 L71.0425879,0.00302514648 L71.0425879,7.85702515 L69.0845879,7.85702515 Z M71.8235879,6.55866689 L73.2866207,5.62666079 C73.6334137,6.2227112 74.0885794,6.45029408 74.9122127,6.45029408 C75.5949614,6.45029408 75.9200798,6.20103664 75.9200798,5.68084719 C75.9200798,5.26903055 75.7033342,5.05228494 75.1397956,4.9114003 C73.7851356,4.57544462 73.5033663,4.47790909 73.0915497,4.21781437 C72.4738247,3.816835 72.1920554,3.24245916 72.1920554,2.36463946 C72.1920554,0.814908399 73.1348988,-0.00872489278 74.9013755,-0.00872489278 C76.2343609,-0.00872489278 77.0796688,0.424766314 77.6106955,1.35677241 L76.1910118,2.25626666 C75.811707,1.72523993 75.4540767,1.53016889 74.8688636,1.53016889 C74.3269996,1.53016889 74.034393,1.77942633 74.034393,2.2345921 C74.034393,2.75478155 74.3269996,2.97152715 75.3673785,3.23162188 C76.353571,3.48087932 76.5919912,3.56757756 76.9821332,3.816835 C77.51316,4.16362797 77.7624174,4.72716654 77.7624174,5.59414895 C77.7624174,6.4394568 77.5565091,6.99215809 77.1121806,7.3714629 C76.624503,7.78327954 75.8550561,8.00002515 74.8905382,8.00002515 C74.0018812,8.00002515 73.1782479,7.8049541 72.6363839,7.44732386 C72.2787537,7.21974097 72.0620081,6.99215809 71.8235879,6.55866689 Z M79.0162578,7.85702515 L79.0162578,0.00302514648 L84.0982578,0.00302514648 L84.0982578,1.58702515 L80.9522578,1.58702515 L80.9522578,3.10502515 L83.6032578,3.10502515 L83.6032578,4.68902515 L80.9522578,4.68902515 L80.9522578,6.27302515 L84.1642578,6.27302515 L84.1642578,7.85702515 L79.0162578,7.85702515 Z" id="FOR-ENTERPRISE" fill="#F48024"></path>
    </g>
</svg>