<?xml version="1.0" encoding="UTF-8"?>
<svg width="146px" height="36px" viewBox="0 0 146 36" version="1.1" xmlns="http://www.w3.org/2000/svg" xmlns:xlink="http://www.w3.org/1999/xlink">
    <!-- Generator: Sketch 53 (72520) - https://sketchapp.com -->
    <title>svg-icons/LogoEnterprise</title>
    <desc>Created with Sketch.</desc>
    <g id="svg-icons/LogoEnterprise" stroke="none" stroke-width="1" fill="none" fill-rule="evenodd">
        <path d="M33.9091869,18.8974834 L32.2784061,18.7056268 C31.0313385,18.6096985 30.4557688,18.1300571 30.4557688,17.1707743 C30.4557688,16.1155632 31.223195,15.4440653 32.7580475,15.4440653 C33.8132586,15.4440653 34.7725414,15.7318501 35.4440394,16.2114915 L36.4033222,15.2522087 C35.4440394,14.4847825 34.1969717,14.1969976 32.7580475,14.1969976 C30.5516971,14.1969976 29.0168446,15.348137 29.0168446,17.1707743 C29.0168446,18.8974834 30.0720557,19.7608379 32.0865496,19.9526945 L33.8132586,20.144551 C34.964398,20.2404793 35.5399677,20.7201207 35.5399677,21.6794035 C35.5399677,22.9264712 34.4847566,23.5020409 32.8539758,23.5020409 C31.6069081,23.5020409 30.4557688,23.214256 29.6883425,22.3509015 L28.7290597,23.3101843 C29.8801991,24.3653954 31.223195,24.7491085 32.9499041,24.7491085 C35.4440394,24.7491085 37.0748202,23.5979691 37.0748202,21.6794035 C36.8829636,19.7608379 35.6358959,19.0893399 33.9091869,18.8974834 L33.9091869,18.8974834 Z M46.6676482,14.2929259 C45.0368675,14.2929259 43.9816564,14.5807107 43.1183018,15.7318501 L44.0775846,16.6911329 C44.6531543,15.8277784 45.3246523,15.5399936 46.6676482,15.5399936 C48.4902856,15.5399936 49.2577118,16.3074198 49.2577118,17.746344 L49.2577118,18.7056268 L46.1880068,18.7056268 C43.8857281,18.7056268 42.6386604,19.8567662 42.6386604,21.6794035 C42.6386604,22.4468298 42.9264453,23.214256 43.4060867,23.7898257 C44.0775846,24.4613237 44.8450109,24.7491085 46.2839351,24.7491085 C47.626931,24.7491085 48.3943573,24.4613237 49.2577118,23.6938974 L49.2577118,24.6531802 L50.7925643,24.6531802 L50.7925643,17.746344 C50.696636,15.4440653 49.3536401,14.2929259 46.6676482,14.2929259 L46.6676482,14.2929259 Z M49.2577118,21.0079056 C49.2577118,21.8712601 49.0658553,22.4468298 48.7780704,22.7346146 C48.1065724,23.3101843 47.3391462,23.4061126 46.4757917,23.4061126 C44.8450109,23.4061126 44.1735129,22.8305429 44.1735129,21.6794035 C44.1735129,20.5282642 44.9409392,19.8567662 46.4757917,19.8567662 L49.3536401,19.8567662 L49.2577118,21.0079056 L49.2577118,21.0079056 Z M56.5482612,15.6359218 C57.507544,15.6359218 58.0831136,15.9237067 58.8505399,16.7870612 L59.8098227,15.8277784 C58.7546116,14.676639 57.8912571,14.2929259 56.4523329,14.2929259 C53.8622693,14.2929259 51.9437037,16.019635 51.9437037,19.5689813 C51.9437037,23.0223995 53.8622693,24.8450368 56.4523329,24.8450368 C57.8912571,24.8450368 58.7546116,24.4613237 59.8098227,23.3101843 L58.7546116,22.3509015 C57.9871854,23.214256 57.4116157,23.5020409 56.4523329,23.5020409 C55.4930501,23.5020409 54.6296955,23.1183277 54.0541259,22.3509015 C53.5744844,21.6794035 53.3826279,20.9119773 53.3826279,19.5689813 C53.3826279,18.3219137 53.5744844,17.4585592 54.0541259,16.7870612 C54.7256238,16.019635 55.5889783,15.6359218 56.5482612,15.6359218 Z M69.4026508,14.3888542 L67.5800134,14.3888542 L62.975456,18.8974834 L62.975456,9.7842967 L61.4406035,9.7842967 L61.4406035,24.5572519 L62.975456,24.5572519 L62.975456,20.816049 L64.7980933,18.9934117 L68.2515114,24.5572519 L70.0741487,24.5572519 L65.8533044,17.9382006 L69.4026508,14.3888542 Z M76.4054153,14.1010693 C74.8705628,14.1010693 73.8153517,14.676639 73.1438537,15.4440653 C72.1845709,16.4033481 71.8967861,17.6504157 71.8967861,19.5689813 C71.8967861,21.487547 72.1845709,22.7346146 73.1438537,23.6938974 C73.8153517,24.3653954 74.8705628,25.0368933 76.4054153,25.0368933 C77.9402678,25.0368933 79.0914071,24.4613237 79.6669768,23.6938974 C80.6262596,22.7346146 80.9140445,21.487547 80.9140445,19.5689813 C80.9140445,17.6504157 80.6262596,16.4033481 79.6669768,15.4440653 C79.0914071,14.676639 78.036196,14.1010693 76.4054153,14.1010693 Z M77.6524829,22.0631166 C77.3646981,22.3509015 76.980985,22.542758 76.4054153,22.542758 C75.8298456,22.542758 75.4461325,22.3509015 75.1583476,22.0631166 C74.5827779,21.487547 74.5827779,20.5282642 74.5827779,19.4730531 C74.5827779,18.3219137 74.6787062,17.4585592 75.1583476,16.8829895 C75.4461325,16.5952046 75.8298456,16.4033481 76.4054153,16.4033481 C76.980985,16.4033481 77.3646981,16.5952046 77.6524829,16.8829895 C78.2280526,17.4585592 78.2280526,18.3219137 78.2280526,19.4730531 C78.3239809,20.6241924 78.2280526,21.5834752 77.6524829,22.0631166 Z M88.0127372,14.1969976 L85.9023151,20.816049 L83.6959646,14.1969976 L80.9140445,14.1969976 L84.847104,24.8450368 L86.9575262,24.8450368 L90.8905857,14.1969976 L88.0127372,14.1969976 L88.0127372,14.1969976 Z M95.3032866,14.1010693 C92.5213664,14.1010693 90.6987291,16.019635 90.6987291,19.5689813 C90.6987291,23.885754 93.0969361,25.0368933 95.5910714,25.0368933 C97.509637,25.0368933 98.5648481,24.4613237 99.6200592,23.4061126 L97.9892784,21.8712601 C97.3177805,22.542758 96.7422108,22.8305429 95.5910714,22.8305429 C94.0562189,22.8305429 93.2887927,21.8712601 93.2887927,20.4323359 L99.9078441,20.4323359 L99.9078441,19.2811965 C99.9078441,16.2114915 98.2770633,14.1010693 95.3032866,14.1010693 Z M93.2887927,18.5137703 C93.2887927,18.0341289 93.384721,17.746344 93.5765775,17.3626309 C93.8643624,16.6911329 94.4399321,16.2114915 95.3992149,16.2114915 C96.2625694,16.2114915 96.9340674,16.6911329 97.2218522,17.3626309 C97.4137088,17.746344 97.4137088,18.0341289 97.509637,18.5137703 L93.2887927,18.5137703 Z M103.840904,15.2522087 L103.840904,14.1969976 L101.25084,14.1969976 L101.25084,24.8450368 L103.936832,24.8450368 L103.936832,18.417842 C103.936832,17.074846 104.800186,16.4992764 105.663541,16.4992764 C106.335039,16.4992764 106.622824,16.6911329 107.102465,17.1707743 L109.116959,15.1562804 C108.349533,14.3888542 107.678035,14.1969976 106.622824,14.1969976 C105.375756,14.1010693 104.416473,14.5807107 103.840904,15.2522087 L103.840904,15.2522087 Z M109.23046,13.0458583 L109.23046,24.8450368 L111.916452,24.8450368 L111.916452,16.4033481 L113.835017,16.4033481 L113.835017,14.3888542 L111.916452,14.3888542 L111.916452,13.2377148 C111.916452,12.6621451 112.204236,12.278432 112.875734,12.278432 L113.930946,12.278432 L113.930946,10.0720815 L112.396093,10.0720815 C110.189743,10.0720815 109.23046,11.606934 109.23046,13.0458583 L109.23046,13.0458583 Z M125.424767,14.1010693 C123.889914,14.1010693 122.834703,14.676639 122.163205,15.4440653 C121.203922,16.4033481 120.916138,17.6504157 120.916138,19.5689813 C120.916138,21.487547 121.203922,22.7346146 122.163205,23.6938974 C122.834703,24.3653954 123.889914,25.0368933 125.424767,25.0368933 C126.959619,25.0368933 128.110759,24.4613237 128.686328,23.6938974 C129.645611,22.7346146 129.933396,21.487547 129.933396,19.5689813 C129.933396,17.6504157 129.645611,16.4033481 128.686328,15.4440653 C128.110759,14.676639 126.959619,14.1010693 125.424767,14.1010693 Z M126.671834,22.0631166 C126.38405,22.3509015 126.000336,22.542758 125.424767,22.542758 C124.849197,22.542758 124.465484,22.3509015 124.177699,22.0631166 C123.602129,21.487547 123.602129,20.5282642 123.602129,19.4730531 C123.602129,18.3219137 123.698058,17.4585592 124.177699,16.8829895 C124.465484,16.5952046 124.849197,16.4033481 125.424767,16.4033481 C126.000336,16.4033481 126.38405,16.5952046 126.671834,16.8829895 C127.247404,17.4585592 127.247404,18.3219137 127.247404,19.4730531 C127.247404,20.6241924 127.247404,21.5834752 126.671834,22.0631166 Z M142.500001,14.1969976 L140.773292,20.816049 L138.566941,14.1969976 L136.648376,14.1969976 L134.442025,20.816049 L132.715316,14.1969976 L129.933396,14.1969976 L133.194957,24.8450368 L135.401308,24.8450368 L137.607658,18.1300571 L139.814009,24.8450368 L142.020359,24.8450368 L145.281921,14.1969976 L142.500001,14.1969976 L142.500001,14.1969976 Z M117.932782,21.5834752 L117.932782,9.97615327 L115.24679,9.97615327 L115.24679,21.7753318 C115.24679,23.3101843 116.206073,24.8450368 118.316495,24.8450368 L119.851347,24.8450368 L119.851347,22.6386863 L118.892065,22.6386863 C118.220567,22.6386863 117.932782,22.2549732 117.932782,21.5834752 Z M41.0078797,16.019635 L42.3508756,14.676639 L39.4730272,14.676639 L39.4730272,11.3191492 L37.9381747,11.3191492 L37.9381747,21.9671884 C37.9381747,23.5020409 38.8015292,24.7491085 40.5282383,24.7491085 L41.5834493,24.7491085 L41.5834493,23.5020409 L40.8160231,23.5020409 C39.8567403,23.5020409 39.3770989,22.9264712 39.3770989,21.9671884 L39.3770989,16.1155632 L41.0078797,16.019635 L41.0078797,16.019635 L41.0078797,16.019635 Z" id="Shape" fill="#222426" fill-rule="nonzero"></path>
        <polygon id="Shape_1_" fill="#BCBBBB" fill-rule="nonzero" points="21 27 21 19 24 19 24 30 0 30 0 19 3 19 3 27"></polygon>
        <path d="M5.4,19.1 L19,21.1 L19.2,18.7 L5.9,16.1 L5.4,19.1 Z M7.2,12.3 L19.2,17.9 L20.3,15.5 L8.3,9.9 L7.2,12.3 L7.2,12.3 Z M10.6,6.4 L20.8,14.9 L22.5,12.9 L12.3,4.4 L10.6,6.4 L10.6,6.4 Z M17.1,0.2 L15,1.8 L22.9,12.4 L25,10.8 L17.1,0.2 L17.1,0.2 Z M5,25 L19,25 L19,22 L5,22 L5,25 Z" id="Shape_2_" fill="#F48024" fill-rule="nonzero"></path>
        <path d="M29.0805879,35.86575 L29.0805879,28.01175 L34.0745879,28.01175 L34.0745879,29.59575 L31.0385879,29.59575 L31.0385879,31.16875 L33.5575879,31.16875 L33.5575879,32.75275 L31.0385879,32.75275 L31.0385879,35.86575 L29.0805879,35.86575 Z M34.9105879,32.8881061 L34.9105879,31.1111667 C34.9105879,29.9193171 35.0839478,29.2908873 35.5606877,28.7816425 C36.0916025,28.2290577 36.7633723,28.0015227 37.9118819,28.0015227 C39.1362365,28.0015227 39.8621812,28.2723977 40.382261,28.9224974 C40.7614859,29.3992373 40.9131759,30.0059971 40.9131759,31.1111667 L40.9131759,32.8881061 C40.9131759,34.0799557 40.7398159,34.7083855 40.2630761,35.2176303 C39.7321613,35.7702151 39.0603915,35.99775 37.9118819,35.99775 C36.6875273,35.99775 35.9615825,35.7268751 35.4415027,35.0767754 C35.0622778,34.6000355 34.9105879,33.9932757 34.9105879,32.8881061 Z M38.9845465,32.7364161 L38.9845465,31.2628566 C38.9845465,29.9193171 38.7570116,29.5509272 37.9118819,29.5509272 C37.0667522,29.5509272 36.8392172,29.9193171 36.8392172,31.2628566 L36.8392172,32.7364161 C36.8392172,34.0799557 37.0667522,34.4483456 37.9118819,34.4483456 C38.7570116,34.4483456 38.9845465,34.0799557 38.9845465,32.7364161 Z M43.9846152,32.82975 L43.9846152,35.86575 L42.0266152,35.86575 L42.0266152,28.01175 L45.1066152,28.01175 C46.2066152,28.01175 46.7786152,28.16575 47.1966152,28.58375 C47.6036152,28.99075 47.7686152,29.51875 47.7686152,30.38775 C47.7686152,31.74075 47.3946152,32.37875 46.4156152,32.67575 L48.1096152,35.86575 L45.9426152,35.86575 L44.5126152,32.82975 L43.9846152,32.82975 Z M43.9516152,31.34475 L44.9086152,31.34475 C45.6016152,31.34475 45.8326152,31.12475 45.8326152,30.45375 C45.8326152,29.78275 45.6016152,29.56275 44.9086152,29.56275 L43.9516152,29.56275 L43.9516152,31.34475 Z M51.9839004,35.86575 L51.9839004,28.01175 L57.0659004,28.01175 L57.0659004,29.59575 L53.9199004,29.59575 L53.9199004,31.11375 L56.5709004,31.11375 L56.5709004,32.69775 L53.9199004,32.69775 L53.9199004,34.28175 L57.1319004,34.28175 L57.1319004,35.86575 L51.9839004,35.86575 Z M58.0311641,35.86575 L58.0311641,28.01175 L59.9341641,28.01175 L62.3431641,32.59875 L62.3431641,28.01175 L64.2351641,28.01175 L64.2351641,35.86575 L62.3321641,35.86575 L59.9231641,31.27875 L59.9231641,35.86575 L58.0311641,35.86575 Z M67.1405879,35.86575 L67.1405879,29.59575 L65.1165879,29.59575 L65.1165879,28.01175 L71.1225879,28.01175 L71.1225879,29.59575 L69.0985879,29.59575 L69.0985879,35.86575 L67.1405879,35.86575 Z M71.9805879,35.86575 L71.9805879,28.01175 L77.0625879,28.01175 L77.0625879,29.59575 L73.9165879,29.59575 L73.9165879,31.11375 L76.5675879,31.11375 L76.5675879,32.69775 L73.9165879,32.69775 L73.9165879,34.28175 L77.1285879,34.28175 L77.1285879,35.86575 L71.9805879,35.86575 Z M79.9844004,32.82975 L79.9844004,35.86575 L78.0264004,35.86575 L78.0264004,28.01175 L81.1064004,28.01175 C82.2064004,28.01175 82.7784004,28.16575 83.1964004,28.58375 C83.6034004,28.99075 83.7684004,29.51875 83.7684004,30.38775 C83.7684004,31.74075 83.3944004,32.37875 82.4154004,32.67575 L84.1094004,35.86575 L81.9424004,35.86575 L80.5124004,32.82975 L79.9844004,32.82975 Z M79.9514004,31.34475 L80.9084004,31.34475 C81.6014004,31.34475 81.8324004,31.12475 81.8324004,30.45375 C81.8324004,29.78275 81.6014004,29.56275 80.9084004,29.56275 L79.9514004,29.56275 L79.9514004,31.34475 Z M86.9396699,33.23675 L86.9396699,35.86575 L84.9816699,35.86575 L84.9816699,28.01175 L87.7206699,28.01175 C88.9196699,28.01175 89.5356699,28.18775 89.9866699,28.64975 C90.4266699,29.10075 90.5916699,29.65075 90.5916699,30.65175 C90.5916699,31.64175 90.3716699,32.26875 89.8766699,32.69775 C89.4256699,33.09375 88.8316699,33.23675 87.7206699,33.23675 L86.9396699,33.23675 Z M86.9066699,31.67475 L87.7316699,31.67475 C88.4246699,31.67475 88.6556699,31.41075 88.6556699,30.61875 C88.6556699,29.82675 88.4246699,29.56275 87.7316699,29.56275 L86.9066699,29.56275 L86.9066699,31.67475 Z M93.0135879,32.82975 L93.0135879,35.86575 L91.0555879,35.86575 L91.0555879,28.01175 L94.1355879,28.01175 C95.2355879,28.01175 95.8075879,28.16575 96.2255879,28.58375 C96.6325879,28.99075 96.7975879,29.51875 96.7975879,30.38775 C96.7975879,31.74075 96.4235879,32.37875 95.4445879,32.67575 L97.1385879,35.86575 L94.9715879,35.86575 L93.5415879,32.82975 L93.0135879,32.82975 Z M92.9805879,31.34475 L93.9375879,31.34475 C94.6305879,31.34475 94.8615879,31.12475 94.8615879,30.45375 C94.8615879,29.78275 94.6305879,29.56275 93.9375879,29.56275 L92.9805879,29.56275 L92.9805879,31.34475 Z M98.0845879,35.86575 L98.0845879,28.01175 L100.042588,28.01175 L100.042588,35.86575 L98.0845879,35.86575 Z M100.823588,34.5673918 L102.286621,33.6353857 C102.633414,34.2314361 103.088579,34.459019 103.912213,34.459019 C104.594961,34.459019 104.92008,34.2097615 104.92008,33.6895721 C104.92008,33.2777554 104.703334,33.0610098 104.139796,32.9201252 C102.785136,32.5841695 102.503366,32.486634 102.09155,32.2265393 C101.473825,31.8255599 101.192055,31.251184 101.192055,30.3733644 C101.192055,28.8236333 102.134899,28 103.901375,28 C105.234361,28 106.079669,28.4334912 106.610695,29.3654973 L105.191012,30.2649916 C104.811707,29.7339648 104.454077,29.5388938 103.868864,29.5388938 C103.327,29.5388938 103.034393,29.7881512 103.034393,30.243317 C103.034393,30.7635064 103.327,30.980252 104.367379,31.2403468 C105.353571,31.4896042 105.591991,31.5763025 105.982133,31.8255599 C106.51316,32.1723529 106.762417,32.7358914 106.762417,33.6028738 C106.762417,34.4481817 106.556509,35.000883 106.112181,35.3801878 C105.624503,35.7920044 104.855056,36.00875 103.890538,36.00875 C103.001881,36.00875 102.178248,35.813679 101.636384,35.4560488 C101.278754,35.2284659 101.062008,35.000883 100.823588,34.5673918 Z M108.016258,35.86575 L108.016258,28.01175 L113.098258,28.01175 L113.098258,29.59575 L109.952258,29.59575 L109.952258,31.11375 L112.603258,31.11375 L112.603258,32.69775 L109.952258,32.69775 L109.952258,34.28175 L113.164258,34.28175 L113.164258,35.86575 L108.016258,35.86575 Z" id="FOR-ENTERPRISE" fill="#F48024"></path>
    </g>
</svg>