<svg width="14" height="14" viewBox="0 0 14 14" fill="none" xmlns="http://www.w3.org/2000/svg">
<g id="Icon/AchievementsSm">
<path id="AchievementsSm" fill-rule="evenodd" clip-rule="evenodd" d="M11 1V2H14V5C14 6.6 12.6 7.8 11 8C11 8 10.5 10 8 10V11H10C10 11 11 12.6 11 13H3C3 12.5 4 11 4 11H6V10C3.5 10 3 8 3 8C1.4 8 0 6.6 0 5V2H3V1H11ZM2 5C2 5.5 2.5 6 3 6V4H2V5ZM12 5C12 5.5 11.5 6 11 6V4H12V5ZM9 5C9 6.10457 8.10457 7 7 7C5.89543 7 5 6.10457 5 5C5 3.89543 5.89543 3 7 3C8.10457 3 9 3.89543 9 5Z" fill="black"/>
</g>
</svg>
