<svg width="14" height="14" viewBox="0 0 14 14" fill="none" xmlns="http://www.w3.org/2000/svg">
<path d="M11 2V1H3V2H0V5C0 6.6 1.4 8 3 8C3 8 3.5 10 6 10V11H4C4 11 3 12.5 3 13H11C11 12.6 10 11 10 11H8V10C10.5 10 11 8 11 8C12.6 7.8 14 6.6 14 5V2H11ZM3 6C2.5 6 2 5.5 2 5V4H3V6ZM12 5C12 5.5 11.5 6 11 6V4H12V5ZM7 7C6.46957 7 5.96086 6.78929 5.58579 6.41421C5.21071 6.03914 5 5.53043 5 5C5 4.46957 5.21071 3.96086 5.58579 3.58579C5.96086 3.21071 6.46957 3 7 3C7.53043 3 8.03914 3.21071 8.41421 3.58579C8.78929 3.96086 9 4.46957 9 5C9 5.53043 8.78929 6.03914 8.41421 6.41421C8.03914 6.78929 7.53043 7 7 7Z" fill="black"/>
</svg>
