<svg width="18" height="18" viewBox="0 0 18 18" fill="none" xmlns="http://www.w3.org/2000/svg">
<g id="Icon/Achievements">
<path id="Achievements" fill-rule="evenodd" clip-rule="evenodd" d="M15 1V2H18V6C18 7.6 16.6 8.8 15 9V10C14.6 11.5 12 12.6 10 13V15H13C13 15 14 16.6 14 17H4C4 16.5 5 15 5 15H8V13C6 12.6 3.4 11.5 3 10V9C1.4 9 0 7.6 0 6V2H3V1H15ZM2 6C2 6.5 2.5 7 3 7V4H2V6ZM11.4 9.5L9 8L6.6 9.4L7.6 6.7L5 5H8L9 2.3L10 5H12.8L10.5 6.8L11.5 9.5H11.4ZM15 7C15.5 7 16 6.5 16 6V4H15V7Z" fill="black"/>
</g>
</svg>
