<svg width="36" height="36" viewBox="0 0 36 36" fill="none" xmlns="http://www.w3.org/2000/svg">
<path fill-rule="evenodd" clip-rule="evenodd" d="M29 4H7V6H3C2.44775 6 2 6.44769 2 7V13C2 15.7614 4.23853 18 7 18C7 22.4183 10.5817 26 15 26H16V29H13C11.3431 29 9 30.3431 9 32V33H27V32C27 30.3431 24.6569 29 23 29H20V26H21C25.4182 26 29 22.4183 29 18C31.7615 18 34 15.7614 34 13V7C34 6.44769 33.5522 6 33 6H29V4ZM32 13C32 14.6569 30.6569 16 29 16V8H32V13ZM7 16C5.34314 16 4 14.6569 4 13V8H7V16ZM18.3805 7.67084L19.7064 11.7515C19.7599 11.9163 19.9135 12.0279 20.0868 12.0279H24.3774C24.7649 12.0279 24.926 12.5237 24.6125 12.7515L21.1414 15.2734C21.0011 15.3753 20.9425 15.5558 20.996 15.7206L22.3219 19.8013C22.4417 20.1699 22.0199 20.4763 21.7064 20.2485L18.2351 17.7266C18.095 17.6247 17.9052 17.6247 17.7649 17.7266L14.2937 20.2485C13.9802 20.4763 13.5585 20.1699 13.6782 19.8013L15.004 15.7206C15.0576 15.5558 14.999 15.3753 14.8588 15.2734L11.3876 12.7515C11.0741 12.5237 11.2352 12.0279 11.6227 12.0279H15.9133C16.0867 12.0279 16.2402 11.9163 16.2937 11.7515L17.6196 7.67084C17.7394 7.30231 18.2607 7.30231 18.3805 7.67084Z" fill="black"/>
</svg>
