<svg width="18" height="18" viewBox="0 0 18 18" fill="none" xmlns="http://www.w3.org/2000/svg">
<path d="M9.78028 4.89666C9.47865 4.45893 9.04828 4.24006 8.48917 4.24006C7.93373 4.24006 7.5052 4.45709 7.20357 4.89114C6.90194 5.32151 6.74929 5.95419 6.74561 6.78918V7.18093C6.74561 8.00121 6.89643 8.63757 7.19805 9.09002C7.49968 9.54246 7.93373 9.76868 8.5002 9.76868C9.05564 9.76868 9.48233 9.55165 9.78028 9.1176C10.0782 8.67988 10.229 8.04351 10.2327 7.20852V6.81677C10.2327 5.97442 10.0819 5.33438 9.78028 4.89666Z" fill="black"/>
<path fill-rule="evenodd" clip-rule="evenodd" d="M3 14H14L17 17V3C17 1.91067 16.0893 1 15 1H3C1.9 1 1 1.9 1 3V12C1 13.0893 1.91067 14 3 14ZM11.4907 9.26106C11.2112 9.85696 10.8102 10.3168 10.2879 10.6405C9.76925 10.9642 9.17335 11.126 8.5002 11.126C7.83441 11.126 7.24035 10.966 6.71802 10.646C6.19569 10.326 5.79107 9.86983 5.50416 9.27761C5.21724 8.68171 5.07195 7.99753 5.06827 7.22507V6.82781C5.06827 6.03695 5.20989 5.34174 5.49312 4.74216C5.78004 4.13891 6.18282 3.67727 6.70147 3.35725C7.2238 3.03355 7.8197 2.8717 8.48917 2.8717C9.15863 2.8717 9.75269 3.03355 10.2713 3.35725C10.7937 3.67727 11.1965 4.13891 11.4797 4.74216C11.7666 5.34174 11.9101 6.03512 11.9101 6.82229V7.18093C11.9101 7.97179 11.7703 8.66516 11.4907 9.26106Z" fill="black"/>
</svg>
