<svg width="18" height="18" viewBox="0 0 18 18" fill="none" xmlns="http://www.w3.org/2000/svg">
<path d="M9.78028 5.89666C9.47865 5.45893 9.04828 5.24006 8.48917 5.24006C7.93373 5.24006 7.5052 5.45709 7.20357 5.89114C6.90194 6.32151 6.74929 6.95419 6.74561 7.78918V8.18093C6.74561 9.00121 6.89643 9.63757 7.19805 10.09C7.49968 10.5425 7.93373 10.7687 8.5002 10.7687C9.05564 10.7687 9.48233 10.5517 9.78028 10.1176C10.0782 9.67988 10.229 9.04351 10.2327 8.20852V7.81677C10.2327 6.97442 10.0819 6.33438 9.78028 5.89666Z" fill="black"/>
<path fill-rule="evenodd" clip-rule="evenodd" d="M3 15H14L17 18V4C17 2.91067 16.0893 2 15 2H3C1.9 2 1 2.9 1 4V13C1 14.0893 1.91067 15 3 15ZM11.4907 10.2611C11.2112 10.857 10.8102 11.3168 10.2879 11.6405C9.76925 11.9642 9.17335 12.126 8.5002 12.126C7.83441 12.126 7.24035 11.966 6.71802 11.646C6.19569 11.326 5.79107 10.8698 5.50416 10.2776C5.21724 9.68171 5.07195 8.99753 5.06827 8.22507V7.82781C5.06827 7.03695 5.20989 6.34174 5.49312 5.74216C5.78004 5.13891 6.18282 4.67727 6.70147 4.35725C7.2238 4.03355 7.8197 3.8717 8.48917 3.8717C9.15863 3.8717 9.75269 4.03355 10.2713 4.35725C10.7937 4.67727 11.1965 5.13891 11.4797 5.74216C11.7666 6.34174 11.9101 7.03512 11.9101 7.82229V8.18093C11.9101 8.97179 11.7703 9.66516 11.4907 10.2611Z" fill="black"/>
</svg>
