<svg width="18" height="18" viewBox="0 0 18 18" fill="none" xmlns="http://www.w3.org/2000/svg">
<path d="M9.02031 6.73401C9.43597 6.73401 9.75783 6.62917 9.98589 6.41951C10.2139 6.20616 10.328 5.91373 10.328 5.54221C10.328 5.16334 10.2195 4.86539 10.0024 4.64836C9.78909 4.43134 9.45988 4.32283 9.0148 4.32283H7.68506V6.73401H9.02031Z" fill="black"/>
<path fill-rule="evenodd" clip-rule="evenodd" d="M3 14H14L17 17V3C17 1.91067 16.0893 1 15 1H3C1.9 1 1 1.9 1 3V12C1 13.0893 1.91067 14 3 14ZM7.68506 8.07478V11.0156H6.02979V2.98206H9.0148C9.96382 2.98206 10.6958 3.19356 11.2108 3.61658C11.7258 4.03959 11.9833 4.63733 11.9833 5.40979C11.9833 5.95787 11.8637 6.41583 11.6246 6.78367C11.3892 7.14783 11.0306 7.43842 10.5487 7.65544L12.2867 10.9384V11.0156H10.5101L9.00376 8.07478H7.68506Z" fill="black"/>
</svg>
