<svg width="18" height="18" viewBox="0 0 18 18" fill="none" xmlns="http://www.w3.org/2000/svg">
<path d="M9.02031 7.73401C9.43597 7.73401 9.75783 7.62917 9.98589 7.41951C10.2139 7.20616 10.328 6.91373 10.328 6.54221C10.328 6.16334 10.2195 5.86539 10.0024 5.64836C9.78909 5.43134 9.45988 5.32283 9.0148 5.32283H7.68506V7.73401H9.02031Z" fill="black"/>
<path fill-rule="evenodd" clip-rule="evenodd" d="M3 15H14L17 18V4C17 2.91067 16.0893 2 15 2H3C1.9 2 1 2.9 1 4V13C1 14.0893 1.91067 15 3 15ZM7.68506 9.07478V12.0156H6.02979V3.98206H9.0148C9.96382 3.98206 10.6958 4.19356 11.2108 4.61658C11.7258 5.03959 11.9833 5.63733 11.9833 6.40979C11.9833 6.95787 11.8637 7.41583 11.6246 7.78367C11.3892 8.14783 11.0306 8.43842 10.5487 8.65544L12.2867 11.9384V12.0156H10.5101L9.00376 9.07478H7.68506Z" fill="black"/>
</svg>
