<svg width="18" height="18" viewBox="0 0 18 18" fill="none" xmlns="http://www.w3.org/2000/svg">
<path fill-rule="evenodd" clip-rule="evenodd" d="M9 17C13.4183 17 17 13.4183 17 9C17 4.58172 13.4183 1 9 1C4.58172 1 1 4.58172 1 9C1 13.4183 4.58172 17 9 17ZM9.24997 13.55C9.17481 13.6838 9.06987 13.7984 8.94328 13.8851C8.8167 13.9718 8.67186 14.0282 8.51997 14.05H8.37997C8.24837 14.0508 8.1179 14.0255 7.99607 13.9758C7.87423 13.926 7.76341 13.8527 7.66997 13.76L4.66997 10.76C4.50934 10.5653 4.42826 10.3171 4.44299 10.0652C4.45772 9.81324 4.56717 9.57618 4.74938 9.40156C4.93159 9.22693 5.1731 9.12767 5.42545 9.12367C5.67779 9.11967 5.92232 9.21124 6.10997 9.38L8.15997 11.38L11.72 5.1C11.8502 4.86956 12.0665 4.70016 12.3214 4.62893C12.5764 4.5577 12.8491 4.59045 13.08 4.72C13.3104 4.85024 13.4798 5.06653 13.551 5.32147C13.6223 5.5764 13.5895 5.84917 13.46 6.08L9.24997 13.55Z" fill="#5FBA7D"/>
</svg>
