<svg width="18" height="18" viewBox="0 0 18 18" fill="none" xmlns="http://www.w3.org/2000/svg">
<path fill-rule="evenodd" clip-rule="evenodd" d="M9 17C13.4183 17 17 13.4183 17 9C17 4.58172 13.4183 1 9 1C4.58172 1 1 4.58172 1 9C1 13.4183 4.58172 17 9 17ZM9.24997 13.55C9.09965 13.8176 8.82376 14.0064 8.51997 14.05C8.20031 14.05 7.90414 13.9923 7.66997 13.76L4.66997 10.76C4.34121 10.3615 4.37638 9.75902 4.74938 9.40156C5.12235 9.0441 5.72586 9.03456 6.10997 9.38L8.15997 11.38L11.72 5.1C11.9874 4.62672 12.606 4.45406 13.08 4.72C13.5532 4.98747 13.7259 5.60602 13.46 6.08L9.24997 13.55Z" fill="#5FBA7D"/>
</svg>
