<svg width="14" height="14" viewBox="0 0 14 14" fill="none" xmlns="http://www.w3.org/2000/svg">
<path d="M1.5184 9.0303L4.95451 7L1.5184 4.9697C1.21682 4.81789 1.1103 4.46851 1.28235 4.19539L1.78043 3.40459C1.95245 3.13147 2.33578 3.04133 2.62999 3.20483L5.97726 5.3762L5.88841 1.57455C5.88104 1.25924 6.15785 1 6.50193 1H7.49808C7.84213 1 8.11896 1.25924 8.11157 1.57455L8.02275 5.3762L11.37 3.20485C11.6642 3.04135 12.0476 3.13149 12.2196 3.40461L12.7177 4.19541C12.8897 4.46853 12.7832 4.81791 12.4816 4.96972L9.04549 7L12.4816 9.0303C12.7832 9.18211 12.8897 9.53149 12.7177 9.80461L12.2196 10.5954C12.0476 10.8685 11.6642 10.9587 11.37 10.7952L8.02275 8.6238L8.1116 12.4255C8.11896 12.7408 7.84213 13 7.49808 13H6.5019C6.15785 13 5.88102 12.7408 5.88838 12.4255L5.97726 8.6238L2.62999 10.7951C2.3358 10.9586 1.95245 10.8685 1.78043 10.5954L1.28235 9.80459C1.11032 9.53147 1.21682 9.18211 1.5184 9.0303Z" fill="black"/>
</svg>
