<svg width="18" height="18" viewBox="0 0 18 18" fill="none" xmlns="http://www.w3.org/2000/svg">
<path d="M2.31839 11.8303L6.95451 9L2.31839 6.1697C2.01681 6.01789 1.91029 5.66851 2.08235 5.39539L2.58042 4.60459C2.75245 4.33147 3.13577 4.24133 3.42999 4.40483L7.97725 7.3762L7.8884 1.57455C7.88104 1.25924 8.15785 1 8.50192 1H9.49808C9.84213 1 10.119 1.25924 10.1116 1.57455L10.0227 7.3762L14.57 4.40485C14.8642 4.24135 15.2476 4.33149 15.4196 4.60461L15.9177 5.39541C16.0897 5.66853 15.9832 6.01791 15.6816 6.16972L11.0455 9L15.6816 11.8303C15.9832 11.9821 16.0897 12.3315 15.9177 12.6046L15.4196 13.3954C15.2476 13.6685 14.8642 13.7587 14.57 13.5952L10.0227 10.6238L10.1116 16.4255C10.119 16.7408 9.84213 17 9.49808 17H8.5019C8.15785 17 7.88101 16.7408 7.88838 16.4255L7.97725 10.6238L3.42999 13.5951C3.1358 13.7586 2.75245 13.6685 2.58042 13.3954L2.08235 12.6046C1.91032 12.3315 2.01681 11.9821 2.31839 11.8303Z" fill="black"/>
</svg>
