<svg width="18" height="18" viewBox="0 0 18 18" fill="none" xmlns="http://www.w3.org/2000/svg">
<path d="M10.26 17H10.06C9.10252 17 8.1843 16.6197 7.5073 15.9427C6.83029 15.2657 6.44995 14.3475 6.44995 13.39C6.44995 13.2574 6.50263 13.1302 6.5964 13.0365C6.69017 12.9427 6.81734 12.89 6.94995 12.89C7.08256 12.89 7.20974 12.9427 7.3035 13.0365C7.39727 13.1302 7.44995 13.2574 7.44995 13.39C7.44995 14.0822 7.72493 14.7461 8.2144 15.2356C8.70387 15.725 9.36774 16 10.06 16H10.26C10.6027 16 10.9421 15.9325 11.2588 15.8014C11.5754 15.6702 11.8631 15.4779 12.1055 15.2356C12.3479 14.9932 12.5401 14.7055 12.6713 14.3888C12.8024 14.0722 12.87 13.7328 12.87 13.39C12.8557 13.3208 12.8557 13.2493 12.87 13.18C12.9259 12.2603 13.3306 11.3965 14.0013 10.7648C14.6721 10.1331 15.5585 9.78087 16.48 9.78003C16.6126 9.78003 16.7397 9.83271 16.8335 9.92648C16.9273 10.0202 16.98 10.1474 16.98 10.28C16.9774 10.4118 16.9239 10.5375 16.8307 10.6308C16.7375 10.724 16.6118 10.7775 16.48 10.78C15.7877 10.78 15.1239 11.055 14.6344 11.5445C14.1449 12.034 13.87 12.6978 13.87 13.39C13.8686 13.4596 13.8515 13.528 13.82 13.59C13.7693 14.5038 13.3735 15.3642 12.7126 15.9973C12.0517 16.6303 11.1751 16.9888 10.26 17V17Z" fill="black" fill-opacity="0.4"/>
<path d="M11.8101 6.71998C11.8101 4.02998 9.63006 1.22998 6.94006 1.22998C4.25006 1.22998 2.06006 3.99998 2.06006 6.71998C2.06006 9.20998 3.93006 12.72 6.34006 13.21C6.33678 13.2332 6.33678 13.2568 6.34006 13.28C6.34006 13.4471 6.40643 13.6073 6.52458 13.7255C6.64273 13.8436 6.80297 13.91 6.97006 13.91C7.13714 13.91 7.29739 13.8436 7.41554 13.7255C7.53368 13.6073 7.60006 13.4471 7.60006 13.28C7.60006 13.28 7.60006 13.28 7.60006 13.2C10.0001 12.67 11.8101 9.19998 11.8101 6.71998ZM6.51006 4.29998L4.82006 5.99998C4.77537 6.04452 4.72234 6.0798 4.664 6.10383C4.60566 6.12785 4.54315 6.14014 4.48006 6.13998C4.35588 6.13874 4.23724 6.08841 4.15006 5.99998C4.10531 5.95539 4.0698 5.9024 4.04558 5.84405C4.02135 5.78571 4.00888 5.72316 4.00888 5.65998C4.00888 5.59681 4.02135 5.53425 4.04558 5.47591C4.0698 5.41756 4.10531 5.36457 4.15006 5.31998L5.84006 3.61998C5.8838 3.57553 5.93594 3.54024 5.99345 3.51614C6.05097 3.49205 6.1127 3.47964 6.17506 3.47964C6.23742 3.47964 6.29915 3.49205 6.35666 3.51614C6.41418 3.54024 6.46632 3.57553 6.51006 3.61998C6.55481 3.66457 6.59031 3.71756 6.61454 3.77591C6.63877 3.83425 6.65124 3.89681 6.65124 3.95998C6.65124 4.02316 6.63877 4.08571 6.61454 4.14405C6.59031 4.2024 6.55481 4.25539 6.51006 4.29998V4.29998Z" fill="#F75D37"/>
</svg>
