<svg width="18" height="18" viewBox="0 0 18 18" fill="none" xmlns="http://www.w3.org/2000/svg">
<path d="M10.26 17H10.06C9.10258 17 8.18436 16.6197 7.50736 15.9427C6.83035 15.2657 6.45001 14.3475 6.45001 13.39C6.45001 13.2574 6.50269 13.1302 6.59646 13.0365C6.69023 12.9427 6.8174 12.89 6.95001 12.89C7.08262 12.89 7.2098 12.9427 7.30357 13.0365C7.39733 13.1302 7.45001 13.2574 7.45001 13.39C7.45001 14.0822 7.72499 14.7461 8.21446 15.2356C8.70393 15.725 9.3678 16 10.06 16H10.26C10.6028 16 10.9422 15.9325 11.2588 15.8014C11.5755 15.6702 11.8632 15.4779 12.1056 15.2356C12.3479 14.9932 12.5402 14.7055 12.6713 14.3888C12.8025 14.0722 12.87 13.7328 12.87 13.39C12.8557 13.3208 12.8557 13.2493 12.87 13.18C12.926 12.2603 13.3306 11.3965 14.0014 10.7648C14.6722 10.1331 15.5586 9.78087 16.48 9.78003C16.6126 9.78003 16.7398 9.83271 16.8336 9.92648C16.9273 10.0202 16.98 10.1474 16.98 10.28C16.9775 10.4118 16.924 10.5375 16.8307 10.6308C16.7375 10.724 16.6118 10.7775 16.48 10.78C15.7878 10.78 15.1239 11.055 14.6345 11.5445C14.145 12.034 13.87 12.6978 13.87 13.39C13.8687 13.4596 13.8516 13.528 13.82 13.59C13.7694 14.5038 13.3736 15.3642 12.7127 15.9973C12.0518 16.6303 11.1751 16.9888 10.26 17V17Z" fill="black" fill-opacity="0.4"/>
<path d="M11.81 6.71998C11.81 4.02998 9.63 1.22998 6.94 1.22998C4.25 1.22998 2.06 3.99998 2.06 6.71998C2.06 9.20998 3.93 12.72 6.34 13.21C6.33671 13.2332 6.33671 13.2568 6.34 13.28C6.34 13.4471 6.40637 13.6073 6.52452 13.7255C6.64267 13.8436 6.80291 13.91 6.97 13.91C7.13708 13.91 7.29733 13.8436 7.41547 13.7255C7.53362 13.6073 7.6 13.4471 7.6 13.28C7.6 13.28 7.6 13.28 7.6 13.2C10 12.67 11.81 9.19998 11.81 6.71998ZM6.51 4.29998L4.82 5.99998C4.77531 6.04452 4.72228 6.0798 4.66393 6.10383C4.60559 6.12785 4.54309 6.14014 4.48 6.13998C4.35582 6.13874 4.23718 6.08841 4.15 5.99998C4.10525 5.95539 4.06974 5.9024 4.04552 5.84405C4.02129 5.78571 4.00882 5.72316 4.00882 5.65998C4.00882 5.59681 4.02129 5.53425 4.04552 5.47591C4.06974 5.41756 4.10525 5.36457 4.15 5.31998L5.84 3.61998C5.88374 3.57553 5.93588 3.54024 5.99339 3.51614C6.05091 3.49205 6.11264 3.47964 6.175 3.47964C6.23735 3.47964 6.29909 3.49205 6.3566 3.51614C6.41412 3.54024 6.46626 3.57553 6.51 3.61998C6.55475 3.66457 6.59025 3.71756 6.61448 3.77591C6.63871 3.83425 6.65118 3.89681 6.65118 3.95998C6.65118 4.02316 6.63871 4.08571 6.61448 4.14405C6.59025 4.2024 6.55475 4.25539 6.51 4.29998V4.29998Z" fill="#F75D37"/>
</svg>
