<svg width="14" height="14" viewBox="0 0 14 14" fill="none" xmlns="http://www.w3.org/2000/svg">
<path fill-rule="evenodd" clip-rule="evenodd" d="M12 1C11.4477 1 11 1.44772 11 2V2.47368L4.0483 4.66896C3.42426 4.86602 3 5.44491 3 6.09933V7.90067C3 8.53806 3.40247 9.1038 4 9.31489V10.5C4 11.8807 5.11929 13 6.5 13C7.74964 13 8.78514 12.0831 8.97047 10.8854L11 11.5263V12C11 12.5523 11.4477 13 12 13C12.5523 13 13 12.5523 13 12V2C13 1.44772 12.5523 1 12 1ZM5 9.63158L7.99799 10.5783C7.95725 11.3703 7.30216 12 6.5 12C5.67157 12 5 11.3284 5 10.5V9.63158Z" fill="black"/>
<path d="M1 5.5C1 5.22386 1.22386 5 1.5 5C1.77614 5 2 5.22386 2 5.5V8.5C2 8.77614 1.77614 9 1.5 9C1.22386 9 1 8.77614 1 8.5V5.5Z" fill="black"/>
</svg>
