<svg width="18" height="18" viewBox="0 0 18 18" fill="none" xmlns="http://www.w3.org/2000/svg">
<path fill-rule="evenodd" clip-rule="evenodd" d="M16 1C15.4477 1 15 1.44772 15 2V2.375L5.29775 6.01334C4.51715 6.30607 4 7.05231 4 7.886V10.114C4 10.8365 4.38836 11.4933 5 11.8462V13.5C5 15.433 6.567 17 8.5 17C10.1034 17 11.4549 15.9218 11.8693 14.451L15 15.625V16C15 16.5523 15.4477 17 16 17C16.5523 17 17 16.5523 17 16V2C17 1.44772 16.5523 1 16 1ZM6.6 12.475L10.3609 13.8853C10.1828 14.7499 9.41732 15.4 8.5 15.4C7.45066 15.4 6.6 14.5493 6.6 13.5V12.475Z" fill="black"/>
<path d="M2 6C1.44772 6 1 6.44772 1 7V11C1 11.5523 1.44772 12 2 12C2.55228 12 3 11.5523 3 11V7C3 6.44772 2.55228 6 2 6Z" fill="black"/>
</svg>
