<svg width="18" height="18" viewBox="0 0 18 18" fill="none" xmlns="http://www.w3.org/2000/svg">
<path d="M9 4.5C9.8325 4.5 10.5 3.825 10.5 3C10.5 2.715 10.425 2.4525 10.2825 2.2275L9 0L7.7175 2.2275C7.575 2.4525 7.5 2.715 7.5 3C7.5 3.825 8.175 4.5 9 4.5Z" fill="black"/>
<path d="M12.45 11.9925L11.6475 11.19L10.8375 11.9925C9.8625 12.9675 8.1525 12.975 7.17 11.9925L6.3675 11.19L5.55 11.9925C5.0625 12.48 4.41 12.75 3.72 12.75C3.1725 12.75 2.42 12.5775 2 12.2925V15C2 16.1046 2.89543 17 4 17H14C15.1046 17 16 16.1046 16 15V12.2925C15.58 12.5775 14.8275 12.75 14.28 12.75C13.59 12.75 12.9375 12.48 12.45 11.9925Z" fill="black"/>
<path d="M13.75 7H10V5H8V7H4.25C3.005 7 2 8.005 2 9.25V10.155C2 10.965 2.91 11.625 3.72 11.625C4.11 11.625 4.485 11.475 4.755 11.1975L6.36 9.6L7.9575 11.1975C8.5125 11.7525 9.48 11.7525 10.035 11.1975L11.64 9.6L13.2375 11.1975C13.515 11.475 13.8825 11.625 14.2725 11.625C15.0825 11.625 16 10.965 16 10.155V9.25C16.0075 8.005 14.995 7 13.75 7Z" fill="black"/>
</svg>
