<svg width="18" height="18" viewBox="0 0 18 18" fill="none" xmlns="http://www.w3.org/2000/svg">
<g id="Icon/Calendar">
<g id="Calendar">
<path d="M7 8V10H5V8H7Z" fill="black"/>
<path d="M7 13V11H5V13H7Z" fill="black"/>
<path d="M8 11H10V13H8V11Z" fill="black"/>
<path d="M13 13V11H11V13H13Z" fill="black"/>
<path d="M13 8V10H11V8H13Z" fill="black"/>
<path d="M10 8H8V10H10V8Z" fill="black"/>
<path fill-rule="evenodd" clip-rule="evenodd" d="M4 0H6V2H12V0H14V2H15C16.1046 2 17 2.89543 17 4V15C17 16.1046 16.1046 17 15 17H3C1.89543 17 1 16.1046 1 15V4C1 2.89543 1.89543 2 3 2H4V0ZM15 6H3V15H15V6Z" fill="black"/>
</g>
</g>
</svg>
