<svg width="18" height="18" viewBox="0 0 18 18" fill="none" xmlns="http://www.w3.org/2000/svg">
<path d="M14 2H15C15.5304 2 16.0391 2.21071 16.4142 2.58579C16.7893 2.96086 17 3.46957 17 4V15C17 15.5304 16.7893 16.0391 16.4142 16.4142C16.0391 16.7893 15.5304 17 15 17H3C2.46957 17 1.96086 16.7893 1.58579 16.4142C1.21071 16.0391 1 15.5304 1 15V4C1 2.9 1.9 2 3 2H4V0H6V2H12V0H14V2ZM3 6V15H15V6H3ZM5 8H7V10H5V8ZM5 11H7V13H5V11ZM8 11H10V13H8V11ZM11 11H13V13H11V11ZM11 8H13V10H11V8ZM8 8H10V10H8V8Z" fill="black"/>
</svg>
