<svg width="18" height="18" viewBox="0 0 18 18" fill="none" xmlns="http://www.w3.org/2000/svg">
<path fill-rule="evenodd" clip-rule="evenodd" d="M10 8H12.8668C13.5298 8 14.0369 7.52885 13.9979 6.95673L13.6859 1.90865C13.6079 1.40385 13.1398 1 12.5157 1H5.44525C4.86019 1 4.35314 1.40385 4.31414 1.90865L4.00211 6.95673C3.9631 7.52885 4.47015 8 5.13322 8H8V9H4.56134C3.71375 9 3 9.45714 3 10C3 10.5429 3.71375 11 4.56134 11H8V13.102C7.04369 13.2956 6.12371 13.765 5.34899 14.5101L5.34716 14.5116C4.86742 14.5852 4.5 14.9997 4.5 15.5C4.5 16.0523 4.94772 16.5 5.5 16.5C6.05228 16.5 6.5 16.0523 6.5 15.5C6.5 15.3286 6.45689 15.1673 6.38092 15.0263C7.98681 13.9602 10.011 13.9629 11.6147 15.0345C11.5415 15.1735 11.5 15.3319 11.5 15.5C11.5 16.0523 11.9477 16.5 12.5 16.5C13.0523 16.5 13.5 16.0523 13.5 15.5C13.5 15.0041 13.139 14.5925 12.6655 14.5136L12.6624 14.5101C11.8897 13.7569 10.9648 13.2855 10 13.0958V11H13.4387C14.2862 11 15 10.5714 15 10C15 9.45714 14.2862 9 13.4387 9H10V8Z" fill="black"/>
</svg>
