<svg width="18" height="18" viewBox="0 0 18 18" fill="none" xmlns="http://www.w3.org/2000/svg">
<path fill-rule="evenodd" clip-rule="evenodd" d="M9.85129 0.901258C9.39921 0.383012 8.59367 0.383012 8.14159 0.901258L7.63729 1.47937C7.33425 1.82676 6.85111 1.95622 6.41498 1.80689L5.68918 1.55838C5.03855 1.3356 4.34093 1.73837 4.20854 2.41323L4.06086 3.16604C3.97212 3.61841 3.61844 3.97209 3.16607 4.06083L2.41326 4.20851C1.7384 4.3409 1.33563 5.03852 1.55841 5.68915L1.80692 6.41495C1.95625 6.85108 1.82679 7.33422 1.4794 7.63726L0.901289 8.14156C0.383042 8.59364 0.383042 9.39918 0.901289 9.85125L1.4794 10.3556C1.82679 10.6586 1.95625 11.1417 1.80692 11.5779L1.55841 12.3037C1.33563 12.9543 1.7384 13.6519 2.41326 13.7843L3.16607 13.932C3.61844 14.0207 3.97212 14.3744 4.06086 14.8268L4.20854 15.5796C4.34093 16.2544 5.03855 16.6572 5.68918 16.4344L6.41498 16.1859C6.85111 16.0366 7.33425 16.166 7.63729 16.5134L8.14159 17.0916C8.59367 17.6098 9.39921 17.6098 9.85128 17.0916L10.3556 16.5134C10.6586 16.166 11.1418 16.0366 11.5779 16.1859L12.3037 16.4344C12.9543 16.6572 13.6519 16.2544 13.7843 15.5796L13.932 14.8268C14.0208 14.3744 14.3744 14.0207 14.8268 13.932L15.5796 13.7843C16.2545 13.6519 16.6572 12.9543 16.4345 12.3037L16.186 11.5779C16.0366 11.1417 16.1661 10.6586 16.5135 10.3556L17.0916 9.85125C17.6098 9.39918 17.6098 8.59364 17.0916 8.14156L16.5135 7.63726C16.1661 7.33422 16.0366 6.85108 16.186 6.41495L16.4345 5.68915C16.6572 5.03852 16.2545 4.3409 15.5796 4.20851L14.8268 4.06083C14.3744 3.97209 14.0208 3.61841 13.932 3.16604L13.7843 2.41323C13.6519 1.73837 12.9543 1.3356 12.3037 1.55838L11.5779 1.80689C11.1418 1.95622 10.6586 1.82676 10.3556 1.47937L9.85129 0.901258ZM12.59 5L14 6.41L7 13.41L4 10.41L5.41 9L7 10.59L12.59 5Z" fill="black"/>
</svg>
