<svg width="14" height="14" viewBox="0 0 14 14" fill="none" xmlns="http://www.w3.org/2000/svg">
<path fill-rule="evenodd" clip-rule="evenodd" d="M7.81526 0.835435C7.36272 0.388188 6.6346 0.388188 6.18205 0.835435L5.28666 1.72035C5.07089 1.9336 4.78026 2.05398 4.47689 2.05576L3.21803 2.06318C2.58178 2.06692 2.06692 2.58178 2.06318 3.21803L2.05576 4.47689C2.05398 4.78026 1.9336 5.07089 1.72035 5.28666L0.835435 6.18205C0.388188 6.6346 0.388188 7.36272 0.835435 7.81526L1.72035 8.71066C1.9336 8.92643 2.05398 9.21706 2.05576 9.52042L2.06318 10.7793C2.06692 11.4155 2.58178 11.9304 3.21803 11.9341L4.4769 11.9416C4.78026 11.9433 5.07089 12.0637 5.28666 12.277L6.18205 13.1619C6.6346 13.6091 7.36272 13.6091 7.81526 13.1619L8.71066 12.277C8.92643 12.0637 9.21706 11.9433 9.52042 11.9416L10.7793 11.9341C11.4155 11.9304 11.9304 11.4155 11.9341 10.7793L11.9416 9.52042C11.9433 9.21706 12.0637 8.92643 12.277 8.71066L13.1619 7.81526C13.6091 7.36272 13.6091 6.6346 13.1619 6.18205L12.277 5.28666C12.0637 5.07089 11.9433 4.78026 11.9416 4.4769L11.9341 3.21803C11.9304 2.58178 11.4155 2.06692 10.7793 2.06318L9.52042 2.05576C9.21706 2.05398 8.92643 1.9336 8.71066 1.72035L7.81526 0.835435ZM5.91406 10.2806L3.28548 7.65206L4.55827 6.37927L5.91406 7.73506L9.72298 3.92615L10.9958 5.19894L5.91406 10.2806Z" fill="black"/>
</svg>
