<svg width="18" height="18" viewBox="0 0 18 18" fill="none" xmlns="http://www.w3.org/2000/svg">
<g opacity="0.4">
<path d="M12.5 3C12.2239 3 12 2.77614 12 2.5V0.5C12 0.223858 12.2239 0 12.5 0C12.7761 0 13 0.223858 13 0.5V2.5C13 2.77614 12.7761 3 12.5 3Z" fill="black"/>
<path d="M14 4.5C14 4.22386 14.2239 4 14.5 4H16.5C16.7761 4 17 4.22386 17 4.5C17 4.77614 16.7761 5 16.5 5H14.5C14.2239 5 14 4.77614 14 4.5Z" fill="black"/>
<path d="M13.6464 2.64645C13.4512 2.84171 13.4512 3.15829 13.6464 3.35355C13.8417 3.54882 14.1583 3.54882 14.3536 3.35355L15.8536 1.85355C16.0488 1.65829 16.0488 1.34171 15.8536 1.14645C15.6583 0.951184 15.3417 0.951184 15.1464 1.14645L13.6464 2.64645Z" fill="black"/>
</g>
<path d="M2.57809 8.68748C2.91301 9.13925 3.30514 9.4871 3.73048 9.7507L5.80155 6.00315C5.97484 5.71392 6.19481 5.44467 6.48073 5.26042C6.92036 4.97711 7.46748 4.99787 7.88855 5.2446C7.89267 5.24375 7.89598 5.24297 7.89835 5.24222C8.22453 5.19918 9.50703 5.17842 10.6314 5.16023C11.4459 5.14705 12.1775 5.13521 12.4023 5.11721C12.8905 5.07812 13.0801 4.81987 13.0546 4.36718C13.0292 3.91449 12.614 3.71905 12.1572 3.76402L5.39493 4.12902C5.33544 4.14236 5.28326 4.06448 5.32097 4.01536L6.35019 2.66421C6.64194 2.26431 6.51254 1.69253 6.13566 1.39633C5.73393 1.08055 5.17781 1.138 4.88966 1.53244C4.30059 2.25646 3.74099 3.00376 3.1909 3.75762C2.11198 5.23048 1.36086 7.04557 2.57809 8.68748Z" fill="#FFC166"/>
<path d="M12.6796 9.10154C12.4303 9.09666 12.1804 9.09476 11.9302 9.09499C12.0421 8.87086 12.1086 8.62858 12.0985 8.36858C12.0913 8.1841 12.037 8.00123 11.9471 7.83573L12.6796 7.85151C13.0928 7.87958 13.3593 8.20104 13.3593 8.4453C13.3593 8.68957 13.1279 9.10988 12.6796 9.10154Z" fill="#FFC166"/>
<path d="M10.896 7.15292L13.5019 7.12967C13.8905 7.08771 14.1565 6.74143 14.0931 6.36225C14.024 5.94546 13.6341 5.71877 13.2304 5.71877L10.569 5.76362C10.921 6.1304 11.0458 6.66316 10.896 7.15292Z" fill="#FFC166"/>
<path d="M5.52066 17.0032C3.47676 17.0032 2.36651 15.2225 1.82586 13.4786C1.54787 12.5878 1.28081 11.6932 1.05001 10.7888C0.904748 10.3224 1.18979 9.84146 1.68271 9.7068C2.14511 9.58044 2.68149 9.81701 2.82899 10.2895L3.30146 11.921C3.31847 11.9805 3.4121 11.985 3.43682 11.9293L6.45311 6.37504C6.68902 5.9813 7.05143 5.65476 7.42186 5.84376C7.81822 6.04634 7.89407 6.37846 7.67186 6.85942C7.58902 7.03884 7.33522 7.5184 7.03861 8.07885C6.52973 9.04039 5.89485 10.24 5.78123 10.5704C5.76774 10.6099 5.75047 10.7845 5.85936 10.8594C5.96824 10.9344 6.13852 10.802 6.15623 10.7735L8.87498 6.63284C9.07464 6.29183 9.50213 5.97313 9.8487 6.15081C10.191 6.32571 10.3108 6.7456 10.1131 7.08279L7.37109 11.1992C7.35275 11.2304 7.23436 11.5157 7.42186 11.6329C7.60936 11.75 7.82029 11.586 7.84159 11.561L10.1911 8.30471C10.4597 7.98953 10.7041 7.78906 11.0859 7.9844C11.4307 8.16022 11.4221 8.5902 11.1484 8.94534C10.703 9.55239 10.3408 10.0774 9.9889 10.5877C9.58443 11.1741 9.19345 11.7409 8.70503 12.3902C8.68522 12.418 8.58196 12.625 8.70503 12.7578C8.82811 12.8907 8.98436 12.7578 8.98436 12.7578L10.8828 10.4532C11.1106 10.169 11.3637 10.0444 11.6806 10.2064C11.9641 10.3507 11.8982 10.7923 11.7673 11.0154C11.2362 11.9216 10.5721 12.7283 9.90758 13.5354C8.75479 14.9357 7.55077 17.0032 5.52066 17.0032Z" fill="#FFC166"/>
</svg>
