<svg width="18" height="18" viewBox="0 0 18 18" fill="none" xmlns="http://www.w3.org/2000/svg">
<path fill-rule="evenodd" clip-rule="evenodd" d="M4 3C4 1.89545 4.89542 1 6 1H15C16.1046 1 17 1.89545 17 3V12C17 13.1046 16.1046 14 15 14H6C4.89542 14 4 13.1046 4 12V3ZM10.0587 4.90997L8.64874 3.64062L4.79688 7.5L8.76562 11.4531L10.0587 10.09L7.46875 7.5L10.0587 4.90997ZM12.2344 3.67188L10.9569 4.90997L13.5469 7.5L10.9569 10.09L12.2344 11.3594L16.0938 7.5L12.2344 3.67188Z" fill="black"/>
<path opacity="0.4" d="M3 3C1.89543 3 1 3.89543 1 5V14C1 15.6569 2.34315 17 4 17H13C14.1046 17 15 16.1046 15 15H5C3.89543 15 3 14.1046 3 13V3Z" fill="black"/>
</svg>
