<svg width="18" height="18" viewBox="0 0 18 18" fill="none" xmlns="http://www.w3.org/2000/svg">
<path fill-rule="evenodd" clip-rule="evenodd" d="M3 2C3 0.895447 3.89542 0 5 0H16C17.1046 0 18 0.895447 18 2V13C18 14.1046 17.1046 15 16 15H5C3.89542 15 3 14.1046 3 13V2ZM10.0587 4.90997L8.64874 3.64062L4.79688 7.5L8.76562 11.4531L10.0587 10.09L7.46875 7.5L10.0587 4.90997ZM12.2344 3.67188L10.9569 4.90997L13.5469 7.5L10.9569 10.09L12.2344 11.3594L16.0938 7.5L12.2344 3.67188Z" fill="black"/>
<path opacity="0.4" d="M2 3C0.895431 3 0 3.89543 0 5V15C0 16.6569 1.34315 18 3 18H13C14.1046 18 15 17.1046 15 16H4C2.89543 16 2 15.1046 2 14V3Z" fill="black"/>
</svg>
