<svg width="18" height="18" viewBox="0 0 18 18" fill="none" xmlns="http://www.w3.org/2000/svg">
<path d="M17 6.29002C17 6.00002 16.8 5.88002 16.64 6.00002C14.776 7.15248 12.2277 7.1565 10.36 6.01002C10.2 5.89002 10 6.04002 10 6.30002V7.37002C10 8.14002 11.5 9.00002 13.5 9.00002C15.5 9.00002 17 8.14002 17 7.37002V6.29002Z" fill="#FFC166"/>
<path d="M17.03 10.29C17.03 10 16.83 9.88001 16.67 10C14.7979 11.1336 12.2257 11.1226 10.36 9.98001C10.2 9.86001 10 10.02 10 10.27V11.34C10 12.11 11.53 13 13.53 13C15.53 13 17.03 12.13 17.03 11.36V10.29Z" fill="#FFC166"/>
<path d="M16.67 14C16.83 13.89 17.03 14 17.03 14.29V15.36C17.03 16.13 15.53 17 13.53 17C11.53 17 10 16.15 10 15.38V14.31C10 14.06 10.2 13.91 10.36 14.02C12.23 15.1844 14.8082 15.1793 16.67 14Z" fill="#FFC166"/>
<path d="M8 14.29C8 14 7.8 13.89 7.64 14C5.78394 15.1751 3.22354 15.1831 1.36 14.02C1.2 13.91 1 14.06 1 14.31V15.38C1 16.15 2.5 17 4.5 17C6.5 17 8 16.15 8 15.36V14.29Z" fill="#FFC166"/>
<path d="M13.49 1.15002C11.49 1.15002 10 2.13002 10 3.00002C10 3.84002 11.5 4.84002 13.5 4.84002C15.5 4.84002 17 3.84002 17 3.00002C17 2.13002 15.49 1.15002 13.49 1.15002Z" fill="#FFA836"/>
<path d="M4.49 9.16C2.49 9.16 1 10.13 1 11C1 11.87 2.47 12.87 4.47 12.87C6.47 12.87 8 11.87 8 11C8 10.13 6.49 9.16 4.49 9.16Z" fill="#FFA836"/>
</svg>
