<svg width="18" height="18" viewBox="0 0 18 18" fill="none" xmlns="http://www.w3.org/2000/svg">
<path d="M17 6.29002C17 6.00002 16.8 5.88002 16.64 6.00002C15.6981 6.58234 14.607 6.87771 13.5 6.85002C12.394 6.88071 11.303 6.58884 10.36 6.01002C10.2 5.89002 10 6.04002 10 6.30002V7.37002C10 8.14002 11.5 9.00002 13.5 9.00002C15.5 9.00002 17 8.14002 17 7.37002V6.29002Z" fill="#FFC166"/>
<path d="M17.03 10.29C17.03 10 16.83 9.88001 16.67 10C15.7163 10.5775 14.6141 10.8626 13.5 10.82C12.3941 10.8495 11.3034 10.5578 10.36 9.98001C10.2 9.86001 10 10.02 10 10.27V11.34C10 12.11 11.53 13 13.53 13C15.53 13 17.03 12.13 17.03 11.36V10.29Z" fill="#FFC166"/>
<path d="M16.67 14C16.83 13.89 17.03 14 17.03 14.29V15.36C17.03 16.13 15.53 17 13.53 17C11.53 17 10 16.15 10 15.38V14.31C10 14.06 10.2 13.91 10.36 14.02C11.3005 14.6056 12.3926 14.9012 13.5 14.87C14.6198 14.9024 15.7237 14.5995 16.67 14Z" fill="#FFC166"/>
<path d="M8 14.29C8 14 7.8 13.89 7.64 14C6.70221 14.5937 5.60961 14.8965 4.5 14.87C3.39243 14.9024 2.29999 14.6067 1.36 14.02C1.2 13.91 1 14.06 1 14.31V15.38C1 16.15 2.5 17 4.5 17C6.5 17 8 16.15 8 15.36V14.29Z" fill="#FFC166"/>
<path d="M13.49 1C11.49 1 10 1.98 10 2.85C10 3.69 11.5 4.69 13.5 4.69C15.5 4.69 17 3.69 17 2.85C17 1.98 15.49 1 13.49 1Z" fill="#FFA836"/>
<path d="M4.49 8.97998C2.49 8.97998 1 9.94998 1 10.82C1 11.69 2.47 12.69 4.47 12.69C6.47 12.69 8 11.69 8 10.82C8 9.94998 6.49 8.97998 4.49 8.97998Z" fill="#FFA836"/>
</svg>
