<svg width="18" height="18" viewBox="0 0 18 18" fill="none" xmlns="http://www.w3.org/2000/svg">
<path fill-rule="evenodd" clip-rule="evenodd" d="M5 3C3.89543 3 3 3.89543 3 5V12C3 13.1046 3.89543 14 5 14H15C16.1046 14 17 13.1046 17 12V5C17 3.89543 16.1046 3 15 3H5ZM5 5.5C5 5.22386 5.22386 5 5.5 5H14.5C14.7761 5 15 5.22386 15 5.5C15 5.77614 14.7761 6 14.5 6H5.5C5.22386 6 5 5.77614 5 5.5ZM5.5 8H14.5C14.7761 8 15 8.22386 15 8.5C15 8.77614 14.7761 9 14.5 9H5.5C5.22386 9 5 8.77614 5 8.5C5 8.22386 5.22386 8 5.5 8ZM5 11.5C5 11.2239 5.22386 11 5.5 11H11.5C11.7761 11 12 11.2239 12 11.5C12 11.7761 11.7761 12 11.5 12H5.5C5.22386 12 5 11.7761 5 11.5Z" fill="black"/>
<path opacity="0.4" d="M15.0869 14.9927H4.7417C3.22292 14.9927 1.9917 13.7615 1.9917 12.2427V4.89746C1.37536 5.48893 0.991699 6.321 0.991699 7.24268V12.7427C0.991699 14.5376 2.44678 15.9927 4.2417 15.9927H12.7417C13.6634 15.9927 14.4954 15.609 15.0869 14.9927Z" fill="black"/>
</svg>
