<svg width="18" height="18" viewBox="0 0 18 18" fill="none" xmlns="http://www.w3.org/2000/svg">
<path d="M6 6C6 4.91067 6.91067 4 8 4H12.5L16 7.5V15C16 16.0893 15.0893 17 14 17H8C6.91067 17 6 16.0893 6 15V6ZM12 4.75V8H15.25L12 4.75Z" fill="black"/>
<path opacity="0.4" d="M11 1C11.5304 1 12.0391 1.21071 12.4142 1.58579C12.7893 1.96086 13 2.46957 13 3H7C6.46957 3 5.96086 3.21071 5.58579 3.58579C5.21071 3.96086 5 4.46957 5 5V14C4.46957 14 3.96086 13.7893 3.58579 13.4142C3.21071 13.0391 3 12.5304 3 12V4C3 3.20435 3.31607 2.44129 3.87868 1.87868C4.44129 1.31607 5.20435 1 6 1H11Z" fill="black"/>
</svg>
