<svg width="17" height="18" viewBox="0 0 17 18" fill="none" xmlns="http://www.w3.org/2000/svg">
<path d="M5 6C5 4.91067 5.91067 4 7 4H11.5L15 7.5V15C15 16.0893 14.0893 17 13 17H7C5.91067 17 5 16.0893 5 15V6ZM11 4.75V8H14.25L11 4.75Z" fill="black"/>
<path opacity="0.4" d="M10 1C10.5304 1 11.0391 1.21071 11.4142 1.58579C11.7893 1.96086 12 2.46957 12 3H6C5.46957 3 4.96086 3.21071 4.58579 3.58579C4.21071 3.96086 4 4.46957 4 5V14C3.46957 14 2.96086 13.7893 2.58579 13.4142C2.21071 13.0391 2 12.5304 2 12V4C2 3.20435 2.31607 2.44129 2.87868 1.87868C3.44129 1.31607 4.20435 1 5 1H10Z" fill="black"/>
</svg>
