<svg width="18" height="18" viewBox="0 0 18 18" fill="none" xmlns="http://www.w3.org/2000/svg">
<g id="Icon/Copy">
<g id="Copy">
<path d="M13 3C13 1.89543 12.1046 1 11 1H6C4.34315 1 3 2.34315 3 4V12C3 13.1046 3.89543 14 5 14V5C5 3.89543 5.89543 3 7 3H13Z" fill="black"/>
<path fill-rule="evenodd" clip-rule="evenodd" d="M6 5.99406C6 4.89277 6.88671 4 7.9981 4H12.5L16 7.5V14.9915C16 16.1007 15.098 17 13.9915 17H8.00853C6.89925 17 6 16.1055 6 15.0059V5.99406ZM12 8V4.75L15.25 8H12Z" fill="black"/>
</g>
</g>
</svg>
