<svg width="18" height="18" viewBox="0 0 18 18" fill="none" xmlns="http://www.w3.org/2000/svg">
<path d="M9 12C10.6569 12 12 10.6569 12 9C12 7.34315 10.6569 6 9 6C7.34315 6 6 7.34315 6 9C6 10.6569 7.34315 12 9 12Z" fill="black"/>
<path fill-rule="evenodd" clip-rule="evenodd" d="M9 0C8.44771 0 8 0.447715 8 1V2.07089C4.93431 2.5094 2.5094 4.93431 2.07089 8H1C0.447715 8 0 8.44771 0 9C0 9.55229 0.447715 10 1 10H2.07089C2.5094 13.0657 4.93431 15.4906 8 15.9291V17C8 17.5523 8.44771 18 9 18C9.55229 18 10 17.5523 10 17V15.9291C13.0657 15.4906 15.4906 13.0657 15.9291 10H17C17.5523 10 18 9.55229 18 9C18 8.44771 17.5523 8 17 8H15.9291C15.4906 4.93431 13.0657 2.5094 10 2.07089V1C10 0.447715 9.55229 0 9 0ZM14 9C14 11.7614 11.7614 14 9 14C6.23858 14 4 11.7614 4 9C4 6.23858 6.23858 4 9 4C11.7614 4 14 6.23858 14 9Z" fill="black"/>
</svg>
