<svg width="18" height="18" viewBox="0 0 18 18" fill="none" xmlns="http://www.w3.org/2000/svg">
<path d="M8.99998 13.9C10.0493 13.9 10.9 13.0493 10.9 12C10.9 10.9506 10.0493 10.1 8.99998 10.1C7.95063 10.1 7.09998 10.9506 7.09998 12C7.09998 13.0493 7.95063 13.9 8.99998 13.9Z" fill="#367D4D"/>
<path d="M13.92 3.00004H4C4.06731 2.39931 4.61775 1.94813 5.22 2.00004H12.7C13.3023 1.94813 13.8527 2.39931 13.92 3.00004Z" fill="#5FBA7D"/>
<path d="M15.71 5.00004C15.6427 4.39931 15.0923 3.94813 14.49 4.00004H3.49004C2.89505 3.95929 2.35726 4.40746 2.29004 5.00004H15.71Z" fill="#5FBA7D"/>
<path d="M1 7.00004H17C16.9327 6.39931 16.3823 5.94813 15.78 6.00004H2.22C1.61775 5.94813 1.06731 6.39931 1 7.00004Z" fill="#5FBA7D"/>
<path fill-rule="evenodd" clip-rule="evenodd" d="M1 9.5C1 8.67157 1.67157 8 2.5 8H15.5C16.3284 8 17 8.67157 17 9.5V14.5C17 15.3284 16.3284 16 15.5 16H2.5C1.67157 16 1 15.3284 1 14.5V9.5ZM2 12C2 10.3431 3.34315 9 5 9H13C14.6569 9 16 10.3431 16 12C16 13.6569 14.6569 15 13 15H5C3.34315 15 2 13.6569 2 12Z" fill="#5FBA7D"/>
</svg>
