<svg width="18" height="18" viewBox="0 0 18 18" fill="none" xmlns="http://www.w3.org/2000/svg">
<path d="M8.99998 13.9C10.0493 13.9 10.9 13.0493 10.9 12C10.9 10.9506 10.0493 10.1 8.99998 10.1C7.95063 10.1 7.09998 10.9506 7.09998 12C7.09998 13.0493 7.95063 13.9 8.99998 13.9Z" fill="#367D4D"/>
<path d="M13.5134 2.25192C13.7413 2.43873 13.8872 2.70717 13.92 3.00003H4C4.03281 2.70717 4.17873 2.43873 4.40663 2.25192C4.63454 2.06511 4.9264 1.97472 5.22 2.00003H12.7C12.9936 1.97472 13.2855 2.06511 13.5134 2.25192Z" fill="#5FBA7D"/>
<path d="M15.71 5.00003C15.6772 4.70717 15.5313 4.43873 15.3034 4.25192C15.0755 4.06511 14.7836 3.97472 14.49 4.00003H3.49004C3.19974 3.98015 2.91297 4.07302 2.68943 4.2593C2.4659 4.44557 2.32283 4.7109 2.29004 5.00003H15.71Z" fill="#5FBA7D"/>
<path d="M16.5934 6.25192C16.8213 6.43873 16.9672 6.70717 17 7.00003H1C1.03281 6.70717 1.17873 6.43873 1.40663 6.25192C1.63454 6.06511 1.9264 5.97472 2.22 6.00003H15.78C16.0736 5.97472 16.3655 6.06511 16.5934 6.25192Z" fill="#5FBA7D"/>
<path fill-rule="evenodd" clip-rule="evenodd" d="M2.22 8.00003H15.78C15.935 7.99469 16.0895 8.01994 16.2347 8.07436C16.3799 8.12877 16.513 8.21128 16.6263 8.31715C16.7396 8.42303 16.8309 8.5502 16.895 8.6914C16.9592 8.83259 16.9948 8.98504 17 9.14003V14.86C16.9948 15.015 16.9592 15.1675 16.895 15.3087C16.8309 15.4499 16.7396 15.577 16.6263 15.6829C16.513 15.7888 16.3799 15.8713 16.2347 15.9257C16.0895 15.9801 15.935 16.0054 15.78 16H2.22C2.06502 16.0054 1.9105 15.9801 1.76529 15.9257C1.62008 15.8713 1.48701 15.7888 1.37371 15.6829C1.2604 15.577 1.16908 15.4499 1.10495 15.3087C1.04083 15.1675 1.00516 15.015 1 14.86V9.14003C1.00516 8.98504 1.04083 8.83259 1.10495 8.6914C1.16908 8.5502 1.2604 8.42303 1.37371 8.31715C1.48701 8.21128 1.62008 8.12877 1.76529 8.07436C1.9105 8.01994 2.06502 7.99469 2.22 8.00003ZM5.34 15.11H12.66C13.44 15.0654 14.1734 14.7241 14.7099 14.156C15.2463 13.588 15.5451 12.8363 15.5451 12.055C15.5451 11.2737 15.2463 10.522 14.7099 9.95401C14.1734 9.38599 13.44 9.04467 12.66 9.00003H5.34C4.55998 9.04467 3.82659 9.38599 3.29015 9.95401C2.75371 10.522 2.45486 11.2737 2.45486 12.055C2.45486 12.8363 2.75371 13.588 3.29015 14.156C3.82659 14.7241 4.55998 15.0654 5.34 15.11Z" fill="#5FBA7D"/>
</svg>
