<svg width="18" height="18" viewBox="0 0 18 18" fill="none" xmlns="http://www.w3.org/2000/svg">
<path d="M15 1C16.1046 1 17 1.89543 17 3V15C17 16.1046 16.1046 17 15 17H3C1.89543 17 1 16.1046 1 15V3C1 1.89543 1.89543 1 3 1H15ZM11.9952 6.02065H10.8163L12.2109 11.2617C12.5782 12.116 13.3798 12.3551 13.8664 11.3939L13.928 11.2617L15.3201 6.02065H14.1408L13.0706 10.1367L11.9952 6.02065ZM10.0386 6.02065H7.75149C7.38155 6.02994 7.08217 6.31235 7.04237 6.6702L7.03809 6.76952V11.2979C7.04738 11.6681 7.33039 11.9672 7.68863 12.0064L7.78805 12.0105H10.0386V10.9403H8.10982V9.25781H9.28869V8.18753H8.10982V7.08912H10.0383L10.0386 6.02065ZM4.71876 6.01956H3.00385V12.0084H4.68329C6.01345 12.0105 6.43367 10.979 6.43367 10.2982L6.43331 7.73086C6.43295 7.04967 6.00151 6.01956 4.71876 6.01956ZM4.77848 7.14016C4.91892 7.14016 5.05972 7.19264 5.20015 7.2976C5.34023 7.40257 5.4108 7.56038 5.41117 7.77031V10.2913C5.41117 10.5016 5.34095 10.659 5.20051 10.764C5.06008 10.869 4.91928 10.9214 4.77884 10.9214H4.14724V7.14016H4.77848Z" fill="#010101"/>
</svg>
