<svg width="18" height="18" viewBox="0 0 18 18" fill="none" xmlns="http://www.w3.org/2000/svg">
<path fill-rule="evenodd" clip-rule="evenodd" d="M3 1C1.89543 1 1 1.89543 1 3V15C1 16.1046 1.89543 17 3 17H15C16.1046 17 17 16.1046 17 15V3C17 1.89543 16.1046 1 15 1H3ZM4.77848 7.14016C4.91892 7.14016 5.05972 7.19264 5.20015 7.2976C5.34023 7.40257 5.4108 7.56038 5.41117 7.77031V10.2913C5.41117 10.5016 5.34095 10.659 5.20051 10.764C5.06008 10.869 4.91928 10.9214 4.77884 10.9214H4.14724V7.14016H4.77848ZM4.68329 12.0084C6.01345 12.0105 6.43367 10.979 6.43367 10.2982L6.43331 7.73086C6.43295 7.04967 6.00151 6.01956 4.71876 6.01956H3.00385V12.0084H4.68329ZM8.10982 7.08912H10.0383L10.0386 6.02065H7.75149C7.34792 6.03078 7.02832 6.36595 7.03809 6.76952V11.2979C7.04822 11.7018 7.38411 12.021 7.78805 12.0105H10.0386V10.9403H8.10982V9.25781H9.28869V8.18753H8.10982V7.08912ZM12.2109 11.2617C12.5942 12.1531 13.4503 12.3747 13.928 11.2617L15.3201 6.02065H14.1408L13.0706 10.1367L11.9952 6.02065H10.8163L12.2109 11.2617Z" fill="#010101"/>
</svg>
