<svg width="18" height="18" viewBox="0 0 18 18" fill="none" xmlns="http://www.w3.org/2000/svg">
<path d="M1.41644 4.09863C1.31233 4.14794 1.17534 4.26301 1.11507 4.3452C1 4.49863 1 4.53698 1 8.9315C1 13.326 1 13.3644 1.11507 13.5178C1.17534 13.6 1.31233 13.7151 1.41644 13.7644C1.59178 13.8575 2.06301 13.863 9 13.863C15.937 13.863 16.4082 13.8575 16.5836 13.7644C16.6877 13.7151 16.8247 13.6 16.8849 13.5178C17 13.3644 17 13.326 17 8.9315C17 4.53698 17 4.49863 16.8849 4.3452C16.8247 4.26301 16.6877 4.14794 16.5836 4.09863C16.4082 4.00547 15.937 4 9 4C2.06301 4 1.59178 4.00547 1.41644 4.09863ZM5.87671 6.33972C6.15068 6.48219 6.52329 6.87671 6.65479 7.16164C6.74247 7.34794 6.75342 7.55068 6.75342 9.06849C6.75342 10.6794 6.74795 10.7781 6.63836 11.0192C6.46849 11.3808 6.21096 11.6438 5.86027 11.8192C5.55342 11.9671 5.52603 11.9726 4.4411 11.989L3.32877 12.011V9.09588V6.1863L4.49589 6.20273C5.56438 6.21917 5.67397 6.23013 5.87671 6.33972ZM10.2329 6.79452V7.39725H9.32877H8.42466V7.9452V8.49314H8.9726H9.52055V9.09588V9.69862H8.9726H8.42466V10.2466V10.7945H9.32877H10.2329V11.3973V12H9C7.6411 12 7.57534 11.989 7.30685 11.6712L7.16438 11.4959V9.1178C7.16438 6.48767 7.1589 6.50958 7.50959 6.30136C7.66849 6.20273 7.79452 6.19178 8.96164 6.19178H10.2329V6.79452ZM12.3205 7.85753C12.5562 8.75616 12.7589 9.5178 12.7644 9.5452C12.7753 9.5726 12.9781 8.83835 13.2192 7.9178C13.4548 6.99178 13.6795 6.22465 13.7123 6.21369C13.7452 6.19726 14.0575 6.19726 14.4027 6.20273L15.0384 6.21917L14.3644 8.75068C13.9973 10.137 13.663 11.337 13.6301 11.4082C13.3726 11.9014 12.8356 12.1315 12.4301 11.9233C12.2384 11.8192 11.9753 11.5233 11.8877 11.3096C11.8548 11.2219 11.537 10.0657 11.1863 8.7452C10.8356 7.41917 10.5397 6.30136 10.5233 6.26301C10.5014 6.20273 10.6219 6.19178 11.1973 6.20273L11.8986 6.21917L12.3205 7.85753Z" fill="black"/>
<path d="M4.58899 9.0959V10.7945H4.83556C5.1205 10.7945 5.37803 10.6795 5.4657 10.526C5.49858 10.4603 5.5205 9.89042 5.5205 9.0685V7.71507L5.36159 7.55617C5.21913 7.41918 5.15885 7.39727 4.89584 7.39727H4.58899V9.0959Z" fill="black"/>
</svg>
