<svg width="18" height="18" viewBox="0 0 18 18" fill="none" xmlns="http://www.w3.org/2000/svg">
<path d="M15.2378 3.13731C14.0905 2.6109 12.8602 2.22306 11.5739 2.00093C11.5505 1.99664 11.5271 2.00736 11.515 2.02879C11.3568 2.3102 11.1815 2.67732 11.0588 2.96588C9.6753 2.75875 8.29889 2.75875 6.94374 2.96588C6.82099 2.67091 6.63936 2.3102 6.48043 2.02879C6.46836 2.00807 6.44496 1.99736 6.42154 2.00093C5.13593 2.22235 3.90567 2.61019 2.7577 3.13731C2.74776 3.14159 2.73925 3.14874 2.73359 3.15802C0.400044 6.64429 -0.239213 10.0449 0.0743851 13.4033C0.075804 13.4197 0.0850274 13.4354 0.0977985 13.4454C1.63741 14.5761 3.12878 15.2625 4.59246 15.7175C4.61588 15.7246 4.6407 15.716 4.65561 15.6967C5.00184 15.2239 5.31048 14.7254 5.57511 14.2011C5.59072 14.1704 5.57582 14.134 5.5439 14.1218C5.05435 13.9361 4.5882 13.7097 4.1398 13.4526C4.10433 13.4319 4.10149 13.3811 4.13412 13.3568C4.22848 13.2861 4.32286 13.2126 4.41297 13.1383C4.42927 13.1247 4.45198 13.1219 4.47115 13.1304C7.41696 14.4754 10.6062 14.4754 13.5172 13.1304C13.5364 13.1211 13.5591 13.124 13.5761 13.1376C13.6662 13.2119 13.7606 13.2861 13.8557 13.3568C13.8883 13.3811 13.8862 13.4319 13.8507 13.4526C13.4023 13.7147 12.9361 13.9361 12.4459 14.1211C12.414 14.1333 12.3998 14.1704 12.4154 14.2011C12.6857 14.7246 12.9943 15.2232 13.3342 15.696C13.3484 15.716 13.3739 15.7246 13.3973 15.7175C14.8681 15.2625 16.3595 14.5761 17.8991 13.4454C17.9126 13.4354 17.9211 13.4204 17.9225 13.404C18.2978 9.5213 17.2939 6.14861 15.2612 3.15873C15.2562 3.14874 15.2477 3.14159 15.2378 3.13731ZM6.01502 11.3584C5.12812 11.3584 4.39735 10.5441 4.39735 9.54417C4.39735 8.54421 5.11395 7.72997 6.01502 7.72997C6.92315 7.72997 7.64686 8.55135 7.63266 9.54417C7.63266 10.5441 6.91606 11.3584 6.01502 11.3584ZM11.9961 11.3584C11.1092 11.3584 10.3784 10.5441 10.3784 9.54417C10.3784 8.54421 11.095 7.72997 11.9961 7.72997C12.9042 7.72997 13.6279 8.55135 13.6137 9.54417C13.6137 10.5441 12.9042 11.3584 11.9961 11.3584Z" fill="#5865F2"/>
</svg>
