<svg width="18" height="18" viewBox="0 0 18 18" fill="none" xmlns="http://www.w3.org/2000/svg">
<path fill-rule="evenodd" clip-rule="evenodd" d="M7.04777 12.4921L8.56473 10.9531C8.70472 10.9838 8.85036 11 9 11C10.11 11 11 10.11 11 9C11 8.8403 10.9816 8.68516 10.9467 8.53657L12.4636 6.99771C12.805 7.58748 13 8.27183 13 9C13 11.22 11.22 13 9 13C8.29234 13 7.62606 12.8158 7.04777 12.4921ZM5.55998 14.0014C5.14108 13.756 4.74834 13.4777 4.38292 13.1811L5.95104 11.5902C6.25916 11.9523 6.63057 12.2585 7.04777 12.4921L5.55998 14.0014ZM5.55998 14.0014C6.57765 14.5977 7.74976 15 9.06 15C14 15 17 9 17 9C17 9 15.9853 6.97056 14.1644 5.27226L16 3.41L14.59 2L2 14.41L3.59 16L5.55998 14.0014ZM14.1644 5.27226L12.4636 6.99771C12.2242 6.58414 11.9127 6.21707 11.5461 5.91403L13.0648 4.37332C13.4583 4.65133 13.8253 4.95606 14.1644 5.27226ZM5.0242 9.44334L2.80465 11.6312C1.63183 10.2637 1 9 1 9C1 9 4 3 9.06 3C9.81294 3 10.5208 3.13939 11.1799 3.37567L9.50063 5.03091C9.33672 5.01051 9.16964 5 9 5C6.8 5 5 6.8 5 9C5 9.14992 5.00821 9.29784 5.0242 9.44334Z" fill="black"/>
</svg>
