<svg width="18" height="18" viewBox="0 0 18 18" fill="none" xmlns="http://www.w3.org/2000/svg">
<path d="M5.0242 9.44334L2.80465 11.6312C1.63183 10.2637 1 9 1 9C1 9 4 3 9.06 3C9.81294 3 10.5208 3.13939 11.1799 3.37567L9.50063 5.03091C9.33672 5.01051 9.16964 5 9 5C6.8 5 5 6.8 5 9C5 9.14992 5.00821 9.29784 5.0242 9.44334ZM7.04777 12.4921C7.62606 12.8158 8.29234 13 9 13C11.22 13 13 11.22 13 9C13 8.27183 12.805 7.58748 12.4636 6.99771L10.9467 8.53657C10.9816 8.68516 11 8.8403 11 9C11 10.11 10.11 11 9 11C8.85036 11 8.70472 10.9838 8.56472 10.9531L7.04777 12.4921ZM14.1644 5.27226C15.9853 6.97056 17 9 17 9C17 9 14 15 9.06 15C7.74976 15 6.57765 14.5977 5.55998 14.0014L3.59 16L2 14.41L14.59 2L16 3.41L14.1644 5.27226Z" fill="black"/>
</svg>
