<svg width="14" height="14" viewBox="0 0 14 14" fill="none" xmlns="http://www.w3.org/2000/svg">
<path d="M3.52117 7.38L1.57907 9.25527C0.552856 8.08315 0 7 0 7C0 7 2.625 1.85714 7.0525 1.85714C7.71133 1.85714 8.33072 1.97662 8.90739 2.17915L7.43805 3.59792C7.29463 3.58044 7.14844 3.57143 7 3.57143C5.075 3.57143 3.5 5.11429 3.5 7C3.5 7.12851 3.50718 7.25529 3.52117 7.38ZM5.2918 9.99321C5.7978 10.2707 6.3808 10.4286 7 10.4286C8.9425 10.4286 10.5 8.90286 10.5 7C10.5 6.37585 10.3294 5.78927 10.0306 5.28375L8.70339 6.60277C8.73388 6.73014 8.75 6.86312 8.75 7C8.75 7.95143 7.97125 8.71429 7 8.71429C6.86907 8.71429 6.74163 8.70042 6.61913 8.6741L5.2918 9.99321ZM11.5188 3.8048C13.1121 5.26048 14 7 14 7C14 7 11.375 12.1429 7.0525 12.1429C5.90604 12.1429 4.88045 11.798 3.98998 11.287L2.26625 13L0.875 11.6371L11.8913 1L13.125 2.20857L11.5188 3.8048Z" fill="black"/>
</svg>
