<svg width="14" height="14" viewBox="0 0 14 14" fill="none" xmlns="http://www.w3.org/2000/svg">
<path fill-rule="evenodd" clip-rule="evenodd" d="M7.0525 1C2.625 1 0 6.5 0 6.5C0 6.5 2.625 12 7.0525 12C11.375 12 14 6.5 14 6.5C14 6.5 11.375 1 7.0525 1ZM7 10.1667C5.075 10.1667 3.5 8.535 3.5 6.5C3.5 4.48333 5.075 2.83333 7 2.83333C8.9425 2.83333 10.5 4.48333 10.5 6.5C10.5 8.535 8.9425 10.1667 7 10.1667ZM7 8.33333C7.97125 8.33333 8.75 7.5175 8.75 6.5C8.75 5.4825 7.97125 4.66667 7 4.66667C6.02875 4.66667 5.25 5.4825 5.25 6.5C5.25 7.5175 6.02875 8.33333 7 8.33333Z" fill="black"/>
</svg>
