<svg width="18" height="18" viewBox="0 0 18 18" fill="none" xmlns="http://www.w3.org/2000/svg">
<path opacity="0.4" fill-rule="evenodd" clip-rule="evenodd" d="M9.5 3.4364C8.75189 1.98922 7.24147 1 5.5 1C3.01472 1 1 3.01472 1 5.5V13.5C1 15.9853 3.01472 18 5.5 18C7.24147 18 8.75189 17.0108 9.5 15.5636C10.2481 17.0108 11.7585 18 13.5 18C15.9853 18 18 15.9853 18 13.5V5.5C18 3.01472 15.9853 1 13.5 1C11.7585 1 10.2481 1.98922 9.5 3.4364ZM9 5.5V13.5C9 15.433 7.433 17 5.5 17C3.567 17 2 15.433 2 13.5V5.5C2 3.567 3.567 2 5.5 2C7.433 2 9 3.567 9 5.5ZM10 13.5V5.5C10 3.567 11.567 2 13.5 2C15.433 2 17 3.567 17 5.5V13.5C17 15.433 15.433 17 13.5 17C11.567 17 10 15.433 10 13.5Z" fill="#888888"/>
<g opacity="0.1">
<path d="M5.5 2C7.433 2 9 3.567 9 5.5V13.5C9 15.433 7.433 17 5.5 17C3.567 17 2 15.433 2 13.5V5.5C2 3.567 3.567 2 5.5 2Z" fill="#8E8E8E"/>
<path d="M13.5 2C15.433 2 17 3.567 17 5.5V13.5C17 15.433 15.433 17 13.5 17C11.567 17 10 15.433 10 13.5V5.5C10 3.567 11.567 2 13.5 2Z" fill="#8E8E8E"/>
</g>
<path d="M5.43934 10.4393C5.72064 10.158 6.10218 10 6.5 10C6.89782 10 7.27936 10.158 7.56066 10.4393C7.84196 10.7206 8 11.1022 8 11.5V13.5C8 13.8978 7.84196 14.2794 7.56066 14.5607C7.27936 14.842 6.89782 15 6.5 15C6.10218 15 5.72064 14.842 5.43934 14.5607C5.15804 14.2794 5 13.8978 5 13.5V11.5C5 11.1022 5.15804 10.7206 5.43934 10.4393Z" fill="#1A1104"/>
<path d="M13.4393 10.4393C13.7206 10.158 14.1022 10 14.5 10C14.8978 10 15.2794 10.158 15.5607 10.4393C15.842 10.7206 16 11.1022 16 11.5V13.5C16 13.8978 15.842 14.2794 15.5607 14.5607C15.2794 14.842 14.8978 15 14.5 15C14.1022 15 13.7206 14.842 13.4393 14.5607C13.158 14.2794 13 13.8978 13 13.5V11.5C13 11.1022 13.158 10.7206 13.4393 10.4393Z" fill="#1A1104"/>
</svg>
