<svg width="14" height="14" viewBox="0 0 14 14" fill="none" xmlns="http://www.w3.org/2000/svg">
<path fill-rule="evenodd" clip-rule="evenodd" d="M7.0525 2C2.625 2 0 7.5 0 7.5C0 7.5 2.625 13 7.0525 13C11.375 13 14 7.5 14 7.5C14 7.5 11.375 2 7.0525 2ZM7 11.1667C5.075 11.1667 3.5 9.535 3.5 7.5C3.5 5.48333 5.075 3.83333 7 3.83333C8.9425 3.83333 10.5 5.48333 10.5 7.5C10.5 9.535 8.9425 11.1667 7 11.1667ZM7 9.33333C7.97125 9.33333 8.75 8.5175 8.75 7.5C8.75 6.4825 7.97125 5.66667 7 5.66667C6.02875 5.66667 5.25 6.4825 5.25 7.5C5.25 8.5175 6.02875 9.33333 7 9.33333Z" fill="black"/>
</svg>
