<svg width="18" height="18" viewBox="0 0 18 18" fill="none" xmlns="http://www.w3.org/2000/svg">
<path d="M9 17C7.41775 17 5.87103 16.5308 4.55544 15.6518C3.23984 14.7727 2.21446 13.5233 1.60896 12.0615C1.00346 10.5997 0.845036 8.99113 1.15372 7.43928C1.4624 5.88743 2.22433 4.46197 3.34315 3.34315C4.46197 2.22433 5.88743 1.4624 7.43928 1.15372C8.99113 0.84504 10.5997 1.00347 12.0615 1.60897C13.5233 2.21447 14.7727 3.23985 15.6518 4.55544C16.5308 5.87103 17 7.41775 17 9C17 11.1217 16.1571 13.1566 14.6569 14.6569C13.1566 16.1571 11.1217 17 9 17ZM9 15C10.1867 15 11.3467 14.6481 12.3334 13.9888C13.3201 13.3295 14.0892 12.3925 14.5433 11.2961C14.9974 10.1997 15.1162 8.99335 14.8847 7.82946C14.6532 6.66558 14.0818 5.59648 13.2426 4.75736C12.4035 3.91825 11.3344 3.3468 10.1705 3.11529C9.00666 2.88378 7.80026 3.0026 6.7039 3.45673C5.60754 3.91085 4.67047 4.67989 4.01118 5.66658C3.35189 6.65328 3 7.81332 3 9C3 10.5913 3.63214 12.1174 4.75736 13.2426C5.88258 14.3679 7.4087 15 9 15Z" fill="black"/>
<path d="M11.93 11.24C11.6017 10.776 11.1601 10.4037 10.6472 10.1586C10.1343 9.91356 9.56727 9.80387 9 9.83998C8.43273 9.80387 7.86566 9.91356 7.35278 10.1586C6.8399 10.4037 6.39829 10.776 6.07 11.24C5.99127 11.3604 5.94933 11.5011 5.94933 11.645C5.94933 11.7888 5.99127 11.9296 6.07 12.05C6.13847 12.1606 6.23419 12.2518 6.348 12.3148C6.46181 12.3779 6.5899 12.4106 6.72 12.41H6.8C8.24038 12.2795 9.68961 12.2795 11.13 12.41C11.2728 12.4281 11.4178 12.4059 11.5486 12.3458C11.6794 12.2857 11.7908 12.1902 11.87 12.07C11.9596 11.9525 12.013 11.8113 12.0237 11.6639C12.0343 11.5165 12.0018 11.3692 11.93 11.24Z" fill="black"/>
<path fill-rule="evenodd" clip-rule="evenodd" d="M6.29 5.99997C6.21908 5.99865 6.1486 6.01131 6.08258 6.03723C6.01655 6.06315 5.95628 6.10182 5.90521 6.15104C5.85413 6.20025 5.81325 6.25905 5.78491 6.32407C5.75656 6.38909 5.7413 6.45905 5.74 6.52997V6.93997C5.73723 7.27966 5.86752 7.60694 6.10301 7.85177C6.3385 8.0966 6.66046 8.23953 7 8.24997C7.16935 8.24872 7.33675 8.21361 7.49233 8.14671C7.64792 8.0798 7.78855 7.98246 7.90595 7.86039C8.02336 7.73833 8.11516 7.59402 8.17596 7.43595C8.23677 7.27788 8.26534 7.10925 8.26 6.93997V6.52997C8.2587 6.45905 8.24344 6.38909 8.21509 6.32407C8.18675 6.25905 8.14587 6.20025 8.09479 6.15104C8.04372 6.10182 7.98345 6.06315 7.91742 6.03723C7.8514 6.01131 7.78092 5.99865 7.71 5.99997H6.29Z" fill="black"/>
<path fill-rule="evenodd" clip-rule="evenodd" d="M10.29 5.99997C10.2191 5.99865 10.1486 6.01131 10.0826 6.03723C10.0166 6.06315 9.95628 6.10182 9.90521 6.15104C9.85413 6.20025 9.81325 6.25905 9.78491 6.32407C9.75656 6.38909 9.7413 6.45905 9.74 6.52997V6.93997C9.73723 7.27966 9.86752 7.60694 10.103 7.85177C10.3385 8.0966 10.6605 8.23953 11 8.24997C11.1685 8.2474 11.3348 8.21132 11.4892 8.14383C11.6437 8.07634 11.7831 7.97878 11.8995 7.85686C12.0158 7.73493 12.1067 7.59107 12.1669 7.43365C12.2271 7.27624 12.2553 7.10842 12.25 6.93997V6.52997C12.2474 6.3885 12.1893 6.2537 12.0883 6.15458C11.9874 6.05547 11.8515 5.99995 11.71 5.99997H10.29Z" fill="black"/>
</svg>
