<svg width="18" height="18" viewBox="0 0 18 18" fill="none" xmlns="http://www.w3.org/2000/svg">
<circle opacity="0.4" cx="9" cy="9" r="8" fill="#FFAA3B"/>
<path opacity="0.3" d="M8.41007 17C7.23692 16.0361 6.29867 14.8177 5.66649 13.4372C5.0343 12.0567 4.72478 10.5503 4.76141 9.03239C4.79803 7.51446 5.17983 6.0248 5.87786 4.67639C6.57588 3.32798 7.5718 2.15623 8.79007 1.25C8.89042 1.17487 8.9841 1.09123 9.07007 1C7.48094 0.984773 5.92328 1.44319 4.59573 2.31679C3.26818 3.19039 2.2309 4.43959 1.61617 5.90508C1.00143 7.37057 0.837103 8.98595 1.14413 10.5452C1.45116 12.1045 2.21564 13.537 3.34007 14.66C4.69048 16.0289 6.49226 16.8605 8.41007 17Z" fill="#FF9700"/>
<path d="M9.10006 13.22C7.70192 13.1782 6.37202 12.6062 5.38006 11.62C5.23801 11.4514 5.16439 11.2357 5.17377 11.0155C5.18315 10.7952 5.27485 10.5865 5.43072 10.4307C5.58659 10.2748 5.79529 10.1831 6.01552 10.1737C6.23576 10.1643 6.4515 10.2379 6.62006 10.38C6.92343 10.7084 7.2915 10.9705 7.7011 11.1498C8.11069 11.329 8.55296 11.4215 9.00006 11.4215C9.44716 11.4215 9.88942 11.329 10.299 11.1498C10.7086 10.9705 11.0767 10.7084 11.3801 10.38C11.5486 10.2379 11.7644 10.1643 11.9846 10.1737C12.2048 10.1831 12.4135 10.2748 12.5694 10.4307C12.7253 10.5865 12.817 10.7952 12.8263 11.0155C12.8357 11.2357 12.7621 11.4514 12.6201 11.62C12.1725 12.1115 11.6297 12.5068 11.0246 12.7819C10.4194 13.0569 9.76463 13.206 9.10006 13.22Z" fill="#735424"/>
<path d="M7.00006 8.25C7.69041 8.25 8.25006 7.69036 8.25006 7C8.25006 6.30964 7.69041 5.75 7.00006 5.75C6.3097 5.75 5.75006 6.30964 5.75006 7C5.75006 7.69036 6.3097 8.25 7.00006 8.25Z" fill="#735424"/>
<path d="M11.0001 8.25C11.6904 8.25 12.2501 7.69036 12.2501 7C12.2501 6.30964 11.6904 5.75 11.0001 5.75C10.3097 5.75 9.75006 6.30964 9.75006 7C9.75006 7.69036 10.3097 8.25 11.0001 8.25Z" fill="#735424"/>
</svg>
