<svg width="18" height="18" viewBox="0 0 18 18" fill="none" xmlns="http://www.w3.org/2000/svg">
<circle opacity="0.4" cx="9" cy="9" r="8" fill="#FFAA3B"/>
<path opacity="0.3" d="M8.41007 17C7.23692 16.0361 6.29867 14.8177 5.66649 13.4372C5.0343 12.0567 4.72478 10.5503 4.76141 9.03239C4.79803 7.51446 5.17983 6.0248 5.87786 4.67639C6.57588 3.32798 7.5718 2.15623 8.79007 1.25C8.89042 1.17487 8.9841 1.09123 9.07007 1C7.48094 0.984773 5.92328 1.44319 4.59573 2.31679C3.26818 3.19039 2.2309 4.43959 1.61617 5.90508C1.00143 7.37057 0.837103 8.98595 1.14413 10.5452C1.45116 12.1045 2.21564 13.537 3.34007 14.66C4.69048 16.0289 6.49226 16.8605 8.41007 17Z" fill="#FF9700"/>
<path d="M11.25 12H6.75C6.5166 12 6.29277 11.8946 6.12774 11.7071C5.96271 11.5196 5.87 11.2652 5.87 11C5.87 10.7348 5.96271 10.4804 6.12774 10.2929C6.29277 10.1054 6.5166 10 6.75 10H11.25C11.4834 10 11.7072 10.1054 11.8722 10.2929C12.0373 10.4804 12.13 10.7348 12.13 11C12.13 11.2652 12.0373 11.5196 11.8722 11.7071C11.7072 11.8946 11.4834 12 11.25 12Z" fill="#735424"/>
<path d="M7 8.25C7.69036 8.25 8.25 7.69036 8.25 7C8.25 6.30964 7.69036 5.75 7 5.75C6.30964 5.75 5.75 6.30964 5.75 7C5.75 7.69036 6.30964 8.25 7 8.25Z" fill="#735424"/>
<path d="M11 8.25C11.6904 8.25 12.25 7.69036 12.25 7C12.25 6.30964 11.6904 5.75 11 5.75C10.3096 5.75 9.75 6.30964 9.75 7C9.75 7.69036 10.3096 8.25 11 8.25Z" fill="#735424"/>
</svg>
