<svg width="18" height="18" viewBox="0 0 18 18" fill="none" xmlns="http://www.w3.org/2000/svg">
<circle opacity="0.4" cx="9" cy="9" r="8" fill="#FFAA3B"/>
<path opacity="0.3" d="M8.41007 17C7.23692 16.0361 6.29867 14.8177 5.66649 13.4372C5.0343 12.0567 4.72478 10.5503 4.76141 9.03239C4.79803 7.51446 5.17983 6.0248 5.87786 4.67639C6.57588 3.32798 7.5718 2.15623 8.79007 1.25C8.89042 1.17487 8.9841 1.09123 9.07007 1C7.48094 0.984773 5.92328 1.44319 4.59573 2.31679C3.26818 3.19039 2.2309 4.43959 1.61617 5.90508C1.00143 7.37057 0.837103 8.98595 1.14413 10.5452C1.45116 12.1045 2.21564 13.537 3.34007 14.66C4.69048 16.0289 6.49226 16.8605 8.41007 17Z" fill="#FF9700"/>
<path d="M6.5 8C7.32843 8 8 7.32843 8 6.5C8 5.67157 7.32843 5 6.5 5C5.67157 5 5 5.67157 5 6.5C5 7.32843 5.67157 8 6.5 8Z" fill="#1A1104"/>
<path d="M9.10417 14C7.125 14 5.25 12.8685 4.3125 11.9427C3.89583 11.5312 3.89583 10.8111 4.3125 10.3997C4.72917 9.88535 5.45833 9.88535 5.97917 10.2968C6.29167 10.6054 9.20833 13.1771 12.125 10.2968C12.5417 9.88535 13.2708 9.88535 13.6875 10.3997C14.1042 10.8111 14.1042 11.5312 13.6875 11.9427C12.125 13.3828 10.5625 14 9.10417 14Z" fill="#1A1104"/>
<path d="M13 6.5C13 7.32843 12.3284 8 11.5 8C10.6716 8 10 7.32843 10 6.5C10 5.67157 10.6716 5 11.5 5C12.3284 5 13 5.67157 13 6.5Z" fill="#1A1104"/>
</svg>
