<svg width="18" height="18" viewBox="0 0 18 18" fill="none" xmlns="http://www.w3.org/2000/svg">
<path d="M9 17C7.41775 17 5.87103 16.5308 4.55544 15.6518C3.23985 14.7727 2.21447 13.5233 1.60897 12.0615C1.00347 10.5997 0.84504 8.99113 1.15372 7.43928C1.4624 5.88743 2.22433 4.46197 3.34315 3.34315C4.46197 2.22433 5.88743 1.4624 7.43928 1.15372C8.99113 0.84504 10.5997 1.00347 12.0615 1.60897C13.5233 2.21447 14.7727 3.23985 15.6518 4.55544C16.5308 5.87103 17 7.41775 17 9C17 11.1217 16.1571 13.1566 14.6569 14.6569C13.1566 16.1571 11.1217 17 9 17ZM9 15C10.1867 15 11.3467 14.6481 12.3334 13.9888C13.3201 13.3295 14.0892 12.3925 14.5433 11.2961C14.9974 10.1997 15.1162 8.99335 14.8847 7.82946C14.6532 6.66558 14.0818 5.59648 13.2426 4.75736C12.4035 3.91825 11.3344 3.3468 10.1705 3.11529C9.00666 2.88378 7.80026 3.0026 6.7039 3.45673C5.60755 3.91085 4.67047 4.67989 4.01119 5.66658C3.3519 6.65328 3 7.81332 3 9C3 10.5913 3.63214 12.1174 4.75736 13.2426C5.88258 14.3679 7.4087 15 9 15Z" fill="black"/>
<path d="M12.29 11C11.2966 10.4182 10.1662 10.1115 9.01501 10.1115C7.8638 10.1115 6.73337 10.4182 5.74 11C5.578 11.0993 5.45251 11.2484 5.38227 11.425C5.31204 11.6016 5.30085 11.7961 5.35037 11.9796C5.39989 12.163 5.50747 12.3255 5.65701 12.4428C5.80655 12.56 5.99003 12.6257 6.18 12.63C6.3348 12.6303 6.48681 12.5889 6.62 12.51C7.33872 12.0939 8.15451 11.8748 8.985 11.8748C9.8155 11.8748 10.6313 12.0939 11.35 12.51C11.4492 12.5717 11.5595 12.6133 11.6747 12.6324C11.7899 12.6515 11.9078 12.6477 12.0215 12.6212C12.1353 12.5948 12.2427 12.5462 12.3377 12.4782C12.4326 12.4102 12.5133 12.3242 12.575 12.225C12.6367 12.1259 12.6783 12.0155 12.6974 11.9003C12.7165 11.7851 12.7127 11.6672 12.6862 11.5535C12.6597 11.4397 12.6111 11.3323 12.5432 11.2374C12.4752 11.1424 12.3892 11.0617 12.29 11Z" fill="black"/>
<path d="M7.00001 8.25C7.69588 8.25 8.26001 7.69036 8.26001 7C8.26001 6.30964 7.69588 5.75 7.00001 5.75C6.30413 5.75 5.74001 6.30964 5.74001 7C5.74001 7.69036 6.30413 8.25 7.00001 8.25Z" fill="black"/>
<path d="M11 8.25C11.6959 8.25 12.26 7.69036 12.26 7C12.26 6.30964 11.6959 5.75 11 5.75C10.3041 5.75 9.74001 6.30964 9.74001 7C9.74001 7.69036 10.3041 8.25 11 8.25Z" fill="black"/>
</svg>
