<svg width="18" height="18" viewBox="0 0 18 18" fill="none" xmlns="http://www.w3.org/2000/svg">
<path fill-rule="evenodd" clip-rule="evenodd" d="M13.2426 13.2426C12.1174 14.3679 10.5913 15 9 15C7.4087 15 5.88258 14.3679 4.75736 13.2426C3.63214 12.1174 3 10.5913 3 9C3 7.4087 3.63214 5.88258 4.75736 4.75736C5.88258 3.63214 7.4087 3 9 3C10.5913 3 12.1174 3.63214 13.2426 4.75736C14.3679 5.88258 15 7.4087 15 9C15 10.5913 14.3679 12.1174 13.2426 13.2426ZM3.34315 14.6569C4.84344 16.1571 6.87827 17 9 17C11.1217 17 13.1566 16.1571 14.6569 14.6569C16.1571 13.1566 17 11.1217 17 9C17 6.87827 16.1571 4.84344 14.6569 3.34315C13.1566 1.84285 11.1217 1 9 1C6.87827 1 4.84344 1.84285 3.34315 3.34315C1.84285 4.84344 1 6.87827 1 9C1 11.1217 1.84285 13.1566 3.34315 14.6569ZM8.25 8C8.25 8.69036 7.69036 9.25 7 9.25C6.30964 9.25 5.75 8.69036 5.75 8C5.75 7.30964 6.30964 6.75 7 6.75C7.69036 6.75 8.25 7.30964 8.25 8ZM11 9.25C11.6904 9.25 12.25 8.69036 12.25 8C12.25 7.30964 11.6904 6.75 11 6.75C10.3096 6.75 9.75 7.30964 9.75 8C9.75 8.69036 10.3096 9.25 11 9.25ZM6 10H12C12.5523 10 13 10.4477 13 11C13 11.5523 12.5523 12 12 12H6C5.44772 12 5 11.5523 5 11C5 10.4477 5.44772 10 6 10Z" fill="black"/>
</svg>
