<svg width="18" height="18" viewBox="0 0 18 18" fill="none" xmlns="http://www.w3.org/2000/svg">
<circle opacity="0.4" cx="9" cy="9" r="8" fill="#FFAA3B"/>
<path opacity="0.3" d="M8.41007 17C7.23692 16.0361 6.29867 14.8177 5.66649 13.4372C5.0343 12.0567 4.72478 10.5503 4.76141 9.03239C4.79803 7.51446 5.17983 6.0248 5.87786 4.67639C6.57588 3.32798 7.5718 2.15623 8.79007 1.25C8.89042 1.17487 8.9841 1.09123 9.07007 1C7.48094 0.984773 5.92328 1.44319 4.59573 2.31679C3.26818 3.19039 2.2309 4.43959 1.61617 5.90508C1.00143 7.37057 0.837103 8.98595 1.14413 10.5452C1.45116 12.1045 2.21564 13.537 3.34007 14.66C4.69048 16.0289 6.49226 16.8605 8.41007 17Z" fill="#FF9700"/>
<path d="M11.9407 11.4353C11.6124 10.9713 11.1708 10.599 10.6579 10.354C10.145 10.1089 9.57794 9.99921 9.01067 10.0353C8.4434 9.99921 7.87633 10.1089 7.36345 10.354C6.85057 10.599 6.40896 10.9713 6.08067 11.4353C6.00194 11.5557 5.96 11.6965 5.96 11.8403C5.96 11.9842 6.00194 12.5352 6.08067 12.6556C6.14914 12.7662 6.24486 12.8574 6.35868 12.9205C6.47249 12.9835 6.60057 13.0163 6.73067 13.0156H6.81067C8.25105 12.8852 9.70028 12.8852 11.1407 13.0156C11.2835 13.0338 11.4285 13.0116 11.5593 12.9515C11.6901 12.8914 11.8014 12.7958 11.8807 12.6756C11.9703 12.5581 12.0237 12.0067 12.0344 11.8593C12.045 11.7118 12.0125 11.5645 11.9407 11.4353Z" fill="#735424"/>
<path fill-rule="evenodd" clip-rule="evenodd" d="M6.29553 7.00003C6.2252 6.99871 6.15529 7.01137 6.08981 7.03729C6.02433 7.06321 5.96455 7.10188 5.91389 7.1511C5.86324 7.20031 5.8227 7.25911 5.79458 7.32413C5.76647 7.38915 5.75133 7.45912 5.75004 7.53003V7.94003C5.74729 8.27972 5.87652 8.607 6.11008 8.85183C6.34363 9.09666 6.66295 9.23959 6.99971 9.25003C7.16767 9.24878 7.3337 9.21367 7.48801 9.14677C7.64231 9.07987 7.78179 8.98252 7.89823 8.86046C8.01467 8.73839 8.10572 8.59408 8.16603 8.43601C8.22633 8.27794 8.25467 8.10931 8.24937 7.94003V7.53003C8.24808 7.45912 8.23295 7.38915 8.20483 7.32413C8.17672 7.25911 8.13618 7.20031 8.08552 7.1511C8.03487 7.10188 7.97509 7.06321 7.90961 7.03729C7.84413 7.01137 7.77422 6.99871 7.70389 7.00003H6.29553Z" fill="#735424"/>
<path fill-rule="evenodd" clip-rule="evenodd" d="M10.2977 7.00003C10.2271 6.99871 10.1569 7.01137 10.0912 7.03729C10.0254 7.06321 9.9654 7.10188 9.91455 7.1511C9.86369 7.20031 9.82299 7.25911 9.79476 7.32413C9.76653 7.38915 9.75134 7.45912 9.75004 7.53003V7.94003C9.74728 8.27972 9.87703 8.607 10.1115 8.85183C10.346 9.09666 10.6666 9.23959 11.0047 9.25003C11.1725 9.24746 11.3381 9.21138 11.4918 9.14389C11.6456 9.0764 11.7845 8.97885 11.9003 8.85692C12.0162 8.73499 12.1067 8.59113 12.1666 8.43371C12.2265 8.2763 12.2547 8.10848 12.2494 7.94003V7.53003C12.2468 7.38856 12.189 7.25376 12.0884 7.15464C11.9878 7.05553 11.8526 7.00001 11.7117 7.00003H10.2977Z" fill="#735424"/>
</svg>
