<svg width="18" height="18" viewBox="0 0 18 18" fill="none" xmlns="http://www.w3.org/2000/svg">
<circle opacity="0.4" cx="9" cy="9" r="8" fill="#FFAA3B"/>
<path opacity="0.3" d="M8.41007 17C7.23692 16.0361 6.29867 14.8177 5.66649 13.4372C5.0343 12.0567 4.72478 10.5503 4.76141 9.03239C4.79803 7.51446 5.17983 6.0248 5.87786 4.67639C6.57588 3.32798 7.5718 2.15623 8.79007 1.25C8.89042 1.17487 8.9841 1.09123 9.07007 1C7.48094 0.984773 5.92328 1.44319 4.59573 2.31679C3.26818 3.19039 2.2309 4.43959 1.61617 5.90508C1.00143 7.37057 0.837103 8.98595 1.14413 10.5452C1.45116 12.1045 2.21564 13.537 3.34007 14.66C4.69048 16.0289 6.49226 16.8605 8.41007 17Z" fill="#FF9700"/>
<path d="M12.3136 10.8906C11.3169 10.3088 10.1826 10.0021 9.02751 10.0021C7.8724 10.0021 6.73814 10.3088 5.74141 10.8906C5.57886 10.99 5.45294 11.1391 5.38247 11.3156C5.312 11.4922 5.30077 11.6868 5.35046 11.8702C5.40015 12.0537 5.50809 12.2162 5.65814 12.3334C5.80819 12.4506 5.99228 12.5163 6.1829 12.5206C6.33822 12.521 6.49075 12.4795 6.62439 12.4006C7.34555 11.9845 8.1641 11.7654 8.9974 11.7654C9.83071 11.7654 10.6493 11.9845 11.3704 12.4006C11.4699 12.4624 11.5806 12.504 11.6962 12.523C11.8118 12.5421 11.9301 12.5383 12.0442 12.5119C12.1584 12.4854 12.2661 12.4368 12.3614 12.3688C12.4567 12.3008 12.5376 12.2148 12.5996 12.1156C12.6615 12.0165 12.7032 11.9062 12.7224 11.7909C12.7415 11.6757 12.7377 11.5579 12.7111 11.4441C12.6846 11.3304 12.6358 11.2229 12.5676 11.128C12.4994 11.033 12.4131 10.9524 12.3136 10.8906Z" fill="#735424"/>
<path d="M6.99998 8.25C7.69034 8.25 8.24998 7.69036 8.24998 7C8.24998 6.30964 7.69034 5.75 6.99998 5.75C6.30963 5.75 5.74998 6.30964 5.74998 7C5.74998 7.69036 6.30963 8.25 6.99998 8.25Z" fill="#735424"/>
<path d="M11 8.25C11.6903 8.25 12.25 7.69036 12.25 7C12.25 6.30964 11.6903 5.75 11 5.75C10.3096 5.75 9.74998 6.30964 9.74998 7C9.74998 7.69036 10.3096 8.25 11 8.25Z" fill="#735424"/>
</svg>
