<svg width="18" height="18" viewBox="0 0 18 18" fill="none" xmlns="http://www.w3.org/2000/svg">
<path d="M11.25 12.38H6.75C6.5166 12.38 6.29277 12.2873 6.12774 12.1222C5.96271 11.9572 5.87 11.7334 5.87 11.5C5.87 11.2666 5.96271 11.0428 6.12774 10.8777C6.29277 10.7127 6.5166 10.62 6.75 10.62H11.25C11.4834 10.62 11.7072 10.7127 11.8722 10.8777C12.0373 11.0428 12.13 11.2666 12.13 11.5C12.13 11.7334 12.0373 11.9572 11.8722 12.1222C11.7072 12.2873 11.4834 12.38 11.25 12.38Z" fill="black"/>
<path d="M9 17C7.41775 17 5.87103 16.5308 4.55544 15.6518C3.23985 14.7727 2.21447 13.5233 1.60897 12.0615C1.00347 10.5997 0.84504 8.99113 1.15372 7.43928C1.4624 5.88743 2.22433 4.46197 3.34315 3.34315C4.46197 2.22433 5.88743 1.4624 7.43928 1.15372C8.99113 0.84504 10.5997 1.00347 12.0615 1.60897C13.5233 2.21447 14.7727 3.23985 15.6518 4.55544C16.5308 5.87103 17 7.41775 17 9C17 11.1217 16.1571 13.1566 14.6569 14.6569C13.1566 16.1571 11.1217 17 9 17ZM9 15C10.1867 15 11.3467 14.6481 12.3334 13.9888C13.3201 13.3295 14.0892 12.3925 14.5433 11.2961C14.9974 10.1997 15.1162 8.99335 14.8847 7.82946C14.6532 6.66558 14.0818 5.59648 13.2426 4.75736C12.4035 3.91825 11.3344 3.3468 10.1705 3.11529C9.00666 2.88378 7.80026 3.0026 6.7039 3.45673C5.60755 3.91085 4.67047 4.67989 4.01119 5.66658C3.3519 6.65328 3 7.81332 3 9C3 10.5913 3.63214 12.1174 4.75736 13.2426C5.88258 14.3679 7.4087 15 9 15Z" fill="black"/>
<path d="M7.00001 8.25C7.69588 8.25 8.26001 7.69036 8.26001 7C8.26001 6.30964 7.69588 5.75 7.00001 5.75C6.30413 5.75 5.74001 6.30964 5.74001 7C5.74001 7.69036 6.30413 8.25 7.00001 8.25Z" fill="black"/>
<path d="M11 8.25C11.6959 8.25 12.26 7.69036 12.26 7C12.26 6.30964 11.6959 5.75 11 5.75C10.3041 5.75 9.74001 6.30964 9.74001 7C9.74001 7.69036 10.3041 8.25 11 8.25Z" fill="black"/>
</svg>
