<svg width="18" height="18" viewBox="0 0 18 18" fill="none" xmlns="http://www.w3.org/2000/svg">
<circle opacity="0.4" cx="9" cy="9" r="8" fill="#FFAA3B"/>
<path opacity="0.3" d="M8.41007 17C7.23692 16.0361 6.29867 14.8177 5.66649 13.4372C5.0343 12.0567 4.72478 10.5503 4.76141 9.03239C4.79803 7.51446 5.17983 6.0248 5.87786 4.67639C6.57588 3.32798 7.5718 2.15623 8.79007 1.25C8.89042 1.17487 8.9841 1.09123 9.07007 1C7.48094 0.984773 5.92328 1.44319 4.59573 2.31679C3.26818 3.19039 2.2309 4.43959 1.61617 5.90508C1.00143 7.37057 0.837103 8.98595 1.14413 10.5452C1.45116 12.1045 2.21564 13.537 3.34007 14.66C4.69048 16.0289 6.49226 16.8605 8.41007 17Z" fill="#FF9700"/>
<path d="M6.5 8C7.32843 8 8 7.32843 8 6.5C8 5.67157 7.32843 5 6.5 5C5.67157 5 5 5.67157 5 6.5C5 7.32843 5.67157 8 6.5 8Z" fill="#1A1104"/>
<path d="M12.546 11.0524C11.4706 10.3632 10.2467 10 9.00038 10C7.75404 10 6.5302 10.3632 5.45475 11.0524C5.10398 11.2877 4.92569 11.778 5.03292 12.2126C5.17833 12.8019 5.85262 13.2003 6.40747 12.8409C7.18558 12.348 8.06878 12.0885 8.9679 12.0885C9.86702 12.0885 10.7502 12.348 11.5283 12.8409C11.9753 13.1453 12.5891 12.9699 12.8546 12.5033C13.1239 12.0299 13.0021 11.363 12.546 11.0524Z" fill="#1A1104"/>
<path d="M13 6.5C13 7.32843 12.3284 8 11.5 8C10.6716 8 10 7.32843 10 6.5C10 5.67157 10.6716 5 11.5 5C12.3284 5 13 5.67157 13 6.5Z" fill="#1A1104"/>
</svg>
