<svg width="18" height="18" viewBox="0 0 18 18" fill="none" xmlns="http://www.w3.org/2000/svg">
<path d="M9 17C7.41775 17 5.87103 16.5308 4.55544 15.6518C3.23985 14.7727 2.21447 13.5233 1.60897 12.0615C1.00347 10.5997 0.84504 8.99113 1.15372 7.43928C1.4624 5.88743 2.22433 4.46197 3.34315 3.34315C4.46197 2.22433 5.88743 1.4624 7.43928 1.15372C8.99113 0.84504 10.5997 1.00347 12.0615 1.60897C13.5233 2.21447 14.7727 3.23985 15.6518 4.55544C16.5308 5.87103 17 7.41775 17 9C17 11.1217 16.1571 13.1566 14.6569 14.6569C13.1566 16.1571 11.1217 17 9 17ZM9 15C10.1867 15 11.3467 14.6481 12.3334 13.9888C13.3201 13.3295 14.0892 12.3925 14.5433 11.2961C14.9974 10.1997 15.1162 8.99335 14.8847 7.82946C14.6532 6.66558 14.0818 5.59648 13.2426 4.75736C12.4035 3.91825 11.3344 3.3468 10.1705 3.11529C9.00666 2.88378 7.80026 3.0026 6.7039 3.45673C5.60755 3.91085 4.67047 4.67989 4.01119 5.66658C3.3519 6.65328 3 7.81332 3 9C3 10.5913 3.63214 12.1174 4.75736 13.2426C5.88258 14.3679 7.4087 15 9 15Z" fill="black"/>
<path d="M12.3136 10.8906C11.3169 10.3088 10.1826 10.0021 9.02752 10.0021C7.87242 10.0021 6.73816 10.3088 5.74143 10.8906C5.57888 10.99 5.45296 11.1391 5.38249 11.3156C5.31202 11.4922 5.30079 11.6868 5.35048 11.8702C5.40017 12.0537 5.50811 12.2162 5.65816 12.3334C5.80821 12.4507 5.9923 12.5163 6.18292 12.5206C6.33824 12.521 6.49077 12.4795 6.62441 12.4006C7.34556 11.9845 8.16412 11.7654 8.99742 11.7654C9.83073 11.7654 10.6493 11.9845 11.3704 12.4006C11.4699 12.4624 11.5806 12.504 11.6962 12.523C11.8118 12.5421 11.9301 12.5383 12.0442 12.5119C12.1584 12.4854 12.2662 12.4368 12.3614 12.3688C12.4567 12.3008 12.5377 12.2148 12.5996 12.1156C12.6615 12.0165 12.7032 11.9062 12.7224 11.7909C12.7415 11.6757 12.7377 11.5579 12.7112 11.4441C12.6846 11.3304 12.6358 11.2229 12.5676 11.128C12.4994 11.033 12.4131 10.9524 12.3136 10.8906Z" fill="black"/>
<path d="M7 8.25C7.69036 8.25 8.25 7.69036 8.25 7C8.25 6.30965 7.69036 5.75 7 5.75C6.30965 5.75 5.75 6.30965 5.75 7C5.75 7.69036 6.30965 8.25 7 8.25Z" fill="black"/>
<path d="M11 8.25C11.6904 8.25 12.25 7.69036 12.25 7C12.25 6.30965 11.6904 5.75 11 5.75C10.3096 5.75 9.75 6.30965 9.75 7C9.75 7.69036 10.3096 8.25 11 8.25Z" fill="black"/>
</svg>
