<svg width="18" height="18" viewBox="0 0 18 18" fill="none" xmlns="http://www.w3.org/2000/svg">
<circle opacity="0.4" cx="9" cy="9" r="8" fill="#FFAA3B"/>
<path opacity="0.3" d="M8.41001 17C7.23686 16.0361 6.29861 14.8177 5.66642 13.4372C5.03424 12.0567 4.72472 10.5503 4.76135 9.03239C4.79797 7.51446 5.17977 6.0248 5.8778 4.67639C6.57582 3.32798 7.57174 2.15623 8.79001 1.25C8.89036 1.17487 8.98404 1.09123 9.07001 1C7.48088 0.984773 5.92322 1.44319 4.59567 2.31679C3.26812 3.19039 2.23084 4.43959 1.61611 5.90508C1.00137 7.37057 0.837042 8.98595 1.14407 10.5452C1.4511 12.1045 2.21558 13.537 3.34001 14.66C4.69041 16.0289 6.4922 16.8605 8.41001 17Z" fill="#FF9700"/>
<path d="M13.42 10.44C13.3082 10.2836 13.1564 10.1602 12.9804 10.0827C12.8044 10.0053 12.6108 9.97673 12.42 9.99999C10.1538 10.2554 7.86616 10.2554 5.6 9.99999C5.40822 9.97781 5.21402 10.0079 5.03797 10.0871C4.86192 10.1664 4.71058 10.2917 4.6 10.45C4.48846 10.6087 4.42131 10.7944 4.40549 10.9878C4.38966 11.1811 4.42574 11.3752 4.51 11.55C4.96188 12.3307 5.61972 12.9722 6.4116 13.4043C7.20347 13.8364 8.09891 14.0425 9 14C9.90707 14.0471 10.8095 13.8422 11.6073 13.4081C12.4051 12.9739 13.0671 12.3273 13.52 11.54C13.6039 11.3646 13.6389 11.1698 13.6213 10.9762C13.6037 10.7826 13.5341 10.5974 13.42 10.44V10.44Z" fill="#735424"/>
<path fill-rule="evenodd" clip-rule="evenodd" d="M7.34999 7.99998C7.53127 7.98963 7.70118 7.90825 7.82285 7.77347C7.94453 7.63868 8.00818 7.46137 7.99999 7.27998V6.37998C8.0279 5.94386 7.88478 5.51403 7.60099 5.1817C7.31721 4.84937 6.91509 4.6407 6.47999 4.59998C6.04821 4.64553 5.65147 4.85843 5.37481 5.19304C5.09814 5.52765 4.96359 5.95733 4.99999 6.38998V7.27998C4.9918 7.46137 5.05544 7.63868 5.17712 7.77347C5.2988 7.90825 5.4687 7.98963 5.64999 7.99998H7.34999Z" fill="#735424"/>
<path fill-rule="evenodd" clip-rule="evenodd" d="M12.35 7.99998C12.5313 7.98963 12.7012 7.90825 12.8229 7.77347C12.9445 7.63868 13.0082 7.46137 13 7.27998V6.37998C13.0279 5.94386 12.8848 5.51403 12.601 5.1817C12.3172 4.84937 11.9151 4.6407 11.48 4.59998C11.0482 4.64553 10.6515 4.85843 10.3748 5.19304C10.0981 5.52765 9.96359 5.95733 9.99999 6.38998V7.27998C9.9918 7.46137 10.0554 7.63868 10.1771 7.77347C10.2988 7.90825 10.4687 7.98963 10.65 7.99998H12.35Z" fill="#735424"/>
</svg>
