<svg width="18" height="18" viewBox="0 0 18 18" fill="none" xmlns="http://www.w3.org/2000/svg">
<circle opacity="0.4" cx="9" cy="9" r="8" fill="#FFAA3B"/>
<path opacity="0.3" d="M8.41007 17C7.23692 16.0361 6.29867 14.8177 5.66649 13.4372C5.0343 12.0567 4.72478 10.5503 4.76141 9.03239C4.79803 7.51446 5.17983 6.0248 5.87786 4.67639C6.57588 3.32798 7.5718 2.15623 8.79007 1.25C8.89042 1.17487 8.9841 1.09123 9.07007 1C7.48094 0.984773 5.92328 1.44319 4.59573 2.31679C3.26818 3.19039 2.2309 4.43959 1.61617 5.90508C1.00143 7.37057 0.837103 8.98595 1.14413 10.5452C1.45116 12.1045 2.21564 13.537 3.34007 14.66C4.69048 16.0289 6.49226 16.8605 8.41007 17Z" fill="#FF9700"/>
<path d="M6.49994 7.55001C7.36151 7.55001 8.05994 6.85605 8.05994 6.00001C8.05994 5.14397 7.36151 4.45001 6.49994 4.45001C5.63838 4.45001 4.93994 5.14397 4.93994 6.00001C4.93994 6.85605 5.63838 7.55001 6.49994 7.55001Z" fill="#1A1104"/>
<path d="M8.99996 14.62C9.50628 14.62 10.0012 14.4699 10.4222 14.1886C10.8432 13.9073 11.1713 13.5075 11.3651 13.0397C11.5589 12.5719 11.6095 12.0572 11.5108 11.5606C11.412 11.064 11.1682 10.6078 10.8102 10.2498C10.4521 9.89179 9.99598 9.64797 9.49939 9.54919C9.0028 9.45041 8.48807 9.50111 8.02029 9.69487C7.55251 9.88863 7.1527 10.2168 6.8714 10.6377C6.5901 11.0587 6.43996 11.5537 6.43996 12.06C6.43864 12.3966 6.50395 12.73 6.63214 13.0412C6.76032 13.3524 6.94884 13.6352 7.18682 13.8731C7.4248 14.1111 7.70754 14.2996 8.01873 14.4278C8.32992 14.556 8.66341 14.6213 8.99996 14.62Z" fill="#1A1104"/>
<path d="M13.0599 6.00001C13.0599 6.85605 12.3615 7.55001 11.4999 7.55001C10.6384 7.55001 9.93994 6.85605 9.93994 6.00001C9.93994 5.14397 10.6384 4.45001 11.4999 4.45001C12.3615 4.45001 13.0599 5.14397 13.0599 6.00001Z" fill="#1A1104"/>
</svg>
