<svg width="18" height="18" viewBox="0 0 18 18" fill="none" xmlns="http://www.w3.org/2000/svg">
<path d="M12.58 10.49C12.4896 10.3605 12.3652 10.2584 12.2206 10.1949C12.0759 10.1314 11.9166 10.1089 11.76 10.13C9.92265 10.3401 8.06735 10.3401 6.23 10.13C6.07375 10.1099 5.91498 10.1327 5.77064 10.1958C5.6263 10.2589 5.5018 10.36 5.41043 10.4883C5.31905 10.6167 5.26424 10.7674 5.25184 10.9244C5.23944 11.0815 5.26991 11.2389 5.34 11.38C5.70707 12.0178 6.24296 12.5419 6.8887 12.8948C7.53443 13.2477 8.265 13.4156 9 13.38C9.735 13.4156 10.4656 13.2477 11.1113 12.8948C11.757 12.5419 12.2929 12.0178 12.66 11.38C12.7284 11.2383 12.7571 11.0807 12.743 10.924C12.7289 10.7672 12.6726 10.6173 12.58 10.49Z" fill="black"/>
<path d="M9 17C7.41775 17 5.87103 16.5308 4.55544 15.6518C3.23985 14.7727 2.21447 13.5233 1.60897 12.0615C1.00347 10.5997 0.84504 8.99113 1.15372 7.43928C1.4624 5.88743 2.22433 4.46197 3.34315 3.34315C4.46197 2.22433 5.88743 1.4624 7.43928 1.15372C8.99113 0.84504 10.5997 1.00347 12.0615 1.60897C13.5233 2.21447 14.7727 3.23985 15.6518 4.55544C16.5308 5.87103 17 7.41775 17 9C17 11.1217 16.1571 13.1566 14.6569 14.6569C13.1566 16.1571 11.1217 17 9 17ZM9 15C10.1867 15 11.3467 14.6481 12.3334 13.9888C13.3201 13.3295 14.0892 12.3925 14.5433 11.2961C14.9974 10.1997 15.1162 8.99335 14.8847 7.82946C14.6532 6.66558 14.0818 5.59648 13.2426 4.75736C12.4035 3.91825 11.3344 3.3468 10.1705 3.11529C9.00666 2.88378 7.80026 3.0026 6.7039 3.45673C5.60755 3.91085 4.67047 4.67989 4.01119 5.66658C3.3519 6.65328 3 7.81332 3 9C3 10.5913 3.63214 12.1174 4.75736 13.2426C5.88258 14.3679 7.4087 15 9 15Z" fill="black"/>
<path fill-rule="evenodd" clip-rule="evenodd" d="M7.56739 7.99219C7.6268 7.98981 7.6852 7.97362 7.73918 7.94457C7.79316 7.91551 7.84164 7.87418 7.88177 7.82299C7.9219 7.77179 7.95288 7.71176 7.9729 7.64641C7.99292 7.58107 8.00157 7.51171 7.99836 7.44241V6.77151C8.01392 6.44036 7.91851 6.11514 7.73231 5.8647C7.54611 5.61425 7.28374 5.45824 7.00075 5.42969C6.85948 5.4403 6.72142 5.48356 6.59457 5.55695C6.46773 5.63034 6.35463 5.73241 6.26183 5.85723C6.16903 5.98205 6.09838 6.12714 6.05397 6.28408C6.00957 6.44103 5.99229 6.60671 6.00315 6.77151V7.44241C5.99993 7.51171 6.00858 7.58107 6.0286 7.64641C6.04862 7.71176 6.0796 7.77179 6.11973 7.82299C6.15987 7.87418 6.20834 7.91551 6.26232 7.94457C6.3163 7.97362 6.37471 7.98981 6.43411 7.99219H7.56739Z" fill="black"/>
<path fill-rule="evenodd" clip-rule="evenodd" d="M11.5674 7.99219C11.6268 7.98981 11.6852 7.97362 11.7392 7.94457C11.7932 7.91551 11.8416 7.87418 11.8818 7.82299C11.9219 7.77179 11.9529 7.71176 11.9729 7.64641C11.9929 7.58107 12.0016 7.51171 11.9984 7.44241V6.77151C12.0139 6.44036 11.9185 6.11514 11.7323 5.8647C11.5461 5.61425 11.2837 5.45824 11.0008 5.42969C10.8595 5.4403 10.7214 5.48356 10.5946 5.55695C10.4677 5.63034 10.3546 5.73241 10.2618 5.85723C10.169 5.98205 10.0984 6.12714 10.054 6.28408C10.0096 6.44103 9.99229 6.60671 10.0031 6.77151V7.44241C9.99993 7.51171 10.0086 7.58107 10.0286 7.64641C10.0486 7.71176 10.0796 7.77179 10.1197 7.82299C10.1599 7.87418 10.2083 7.91551 10.2623 7.94457C10.3163 7.97362 10.3747 7.98981 10.4341 7.99219H11.5674Z" fill="black"/>
</svg>
