<svg width="18" height="18" viewBox="0 0 18 18" fill="none" xmlns="http://www.w3.org/2000/svg">
<path opacity="0.4" fill-rule="evenodd" clip-rule="evenodd" d="M1.06189 8C1.02104 8.32759 1 8.66134 1 9C1 13.4183 4.58172 17 9 17C13.4183 17 17 13.4183 17 9C17 8.66134 16.979 8.32759 16.9381 8H16L15 8.5L14 8H12.5L11 8.5L9 8L8.5 8.5L7.5 8H6L5 8.5L4.5 8H3.5L3 8.5L2 8H1.06189Z" fill="#FFAA3B"/>
<path opacity="0.3" d="M3.5 8H3.91377C5.63978 12.0553 9.62786 14.9161 14.2937 14.9982C12.8832 16.244 11.0299 17 9 17C4.58172 17 1 13.4183 1 9C1 8.66134 1.02104 8.32759 1.06189 8H2L3 8.5L3.5 8Z" fill="#FF9700"/>
<path d="M6.0659 14.6796C6.14103 14.7835 6.2439 14.8649 6.36312 14.9149C6.48234 14.9649 6.61328 14.9814 6.74144 14.9626C8.24063 14.8 9.75345 14.8004 11.2525 14.9638C11.3801 14.9804 11.5098 14.9623 11.6277 14.9114C11.7455 14.8606 11.8469 14.7789 11.9209 14.6752C11.9956 14.5725 12.0409 14.4518 12.052 14.3259C12.0631 14.1999 12.0396 14.0734 11.9839 13.9595C11.6846 13.446 11.2466 13.0243 10.7184 12.7412C10.1903 12.4581 9.59271 12.3248 8.99221 12.356C8.3917 12.3248 7.79416 12.4581 7.26601 12.7412C6.73786 13.0243 6.29979 13.446 6.00049 13.9595C5.94442 14.0742 5.9209 14.2016 5.93241 14.3284C5.94393 14.4552 5.99005 14.5765 6.0659 14.6796Z" fill="#1A1104"/>
<path fill-rule="evenodd" clip-rule="evenodd" d="M7.35877 4.3689C7.53509 4.59817 7.76817 4.78797 8.0401 4.92305C8.33902 5.07153 8.67502 5.149 9.01641 5.14814C9.3578 5.14728 9.69332 5.06813 9.99131 4.91815C10.25 4.78793 10.473 4.60805 10.6449 4.39185C10.7925 5.31855 11 6.67791 11 6.99998C11 7.49998 7 7.49998 7 6.99998C7 6.67524 7.21091 5.29594 7.35877 4.3689Z" fill="#F75D37"/>
<path opacity="0.67" d="M15.3319 2.43096C14.877 2.08266 14.2375 1.8886 13.5961 1.90419C13.5421 1.50926 13.3188 1.13941 12.9613 0.853006C12.6143 0.588479 12.1689 0.413612 11.6869 0.352655C11.2048 0.291698 10.7101 0.347673 10.2713 0.512817C9.76441 0.170817 9.06848 0.00938583 8.4004 0.0788295C8.01235 0.126828 7.64679 0.250633 7.33867 0.438405C6.9162 0.318102 6.45785 0.293208 6.0176 0.366656C5.21974 0.499766 4.54234 0.968734 4.29931 1.56839C4.19037 1.83716 4.16558 2.12195 4.22696 2.39951C3.46006 2.4659 2.763 2.84869 2.43205 3.38519C1.82204 4.37406 2.69113 5.78434 4.03906 5.98485C4.99603 6.12721 6.16089 5.83704 6.66183 5.20169C6.87656 4.92935 6.99344 4.61801 7.00052 4.29951C7.21257 4.55998 7.50737 4.77459 7.85709 4.92307C8.20681 5.07155 8.59993 5.14902 8.99934 5.14816C9.39876 5.1473 9.79131 5.06815 10.1399 4.91817C10.4886 4.76818 10.7818 4.55232 10.992 4.29094C11.0263 4.71863 11.2559 5.12322 11.6404 5.4332C12.0249 5.74317 12.5394 5.93857 13.0929 5.98485C13.6465 6.03114 14.2035 5.92532 14.6655 5.68611C15.48 5.26436 16.0851 4.26191 15.9902 3.51549C15.9382 3.10672 15.7059 2.72397 15.3319 2.43096Z" fill="#FFC166"/>
<path opacity="0.78" fill-rule="evenodd" clip-rule="evenodd" d="M7.39518 2C8.588 2 9.70501 1.79825 10.6627 1.44666C11.557 2.6587 13.5419 3.58457 15.9839 3.89095C15.8856 4.56855 15.3494 5.33203 14.6655 5.68614C14.2035 5.92535 13.6465 6.03116 13.0929 5.98488C12.5394 5.9386 12.0249 5.7432 11.6404 5.43323C11.2559 5.12325 11.0263 4.71866 10.992 4.29097C10.7818 4.55235 10.4886 4.76821 10.1399 4.9182C9.79131 5.06818 9.39876 5.14733 8.99934 5.14819C8.59993 5.14905 8.20681 5.07158 7.85709 4.9231C7.50737 4.77462 7.21257 4.56001 7.00052 4.29954C6.99344 4.61804 6.87656 4.92938 6.66183 5.20172C6.16089 5.83707 4.99603 6.12724 4.03906 5.98488C2.69113 5.78436 1.82204 4.37409 2.43205 3.38522C2.763 2.84872 3.46006 2.46593 4.22696 2.39954C4.16558 2.12198 4.19038 1.83719 4.29931 1.56842C4.30654 1.55058 4.31415 1.53286 4.32214 1.51526C5.23528 1.82437 6.28223 2 7.39518 2Z" fill="#FFC166"/>
<path opacity="0.52" fill-rule="evenodd" clip-rule="evenodd" d="M11.0885 3.47125C10.2595 3.80869 9.31247 4 8.3068 4C7.35275 4 6.45151 3.82783 5.65373 3.52206C4.65658 3.78952 3.49066 3.95772 2.23695 3.99304C2.17531 4.87331 2.95125 5.82302 4.03906 5.98484C4.99603 6.1272 6.16089 5.83704 6.66183 5.20168C6.87656 4.92934 6.99344 4.618 7.00052 4.2995C7.21257 4.55997 7.50737 4.77458 7.85709 4.92306C8.20681 5.07154 8.59993 5.14901 8.99934 5.14815C9.39876 5.14729 9.79131 5.06814 10.1399 4.91816C10.4886 4.76817 10.7818 4.55231 10.992 4.29093C11.0263 4.71862 11.2559 5.12321 11.6404 5.43319C12.0249 5.74316 12.5394 5.93856 13.0929 5.98484C13.6465 6.03113 14.2035 5.92531 14.6655 5.6861C15.0167 5.50425 15.329 5.21444 15.563 4.88375C13.7991 4.66809 12.2449 4.16418 11.0885 3.47125Z" fill="#F75D37"/>
<circle cx="11" cy="10.5" r="1.35" fill="#1A1104"/>
<circle cx="7.00314" cy="10.5016" r="1.35" fill="#1A1104"/>
<circle opacity="0.6" cx="3.5" cy="6.5" r="0.5" fill="black"/>
<circle opacity="0.6" cx="14.5" cy="0.5" r="0.5" fill="black"/>
<circle opacity="0.6" cx="14.5" cy="6.5" r="0.5" fill="black"/>
<circle opacity="0.6" cx="16.5" cy="4.5" r="0.5" fill="black"/>
<circle opacity="0.6" cx="3.5" cy="0.5" r="0.5" fill="black"/>
<circle opacity="0.6" cx="1.5" cy="3.5" r="0.5" fill="black"/>
</svg>
