<svg width="18" height="18" viewBox="0 0 18 18" fill="none" xmlns="http://www.w3.org/2000/svg">
<path fill-rule="evenodd" clip-rule="evenodd" d="M9 17C4.58172 17 1 13.4183 1 9C1 4.58172 4.58172 1 9 1C13.4183 1 17 4.58172 17 9C17 13.4183 13.4183 17 9 17ZM9 15C12.3137 15 15 12.3137 15 9C15 5.68629 12.3137 3 9 3C5.68629 3 3 5.68629 3 9C3 12.3137 5.68629 15 9 15ZM12.25 8C12.25 8.69036 11.6904 9.25 11 9.25C10.3096 9.25 9.75 8.69036 9.75 8C9.75 7.30964 10.3096 6.75 11 6.75C11.6904 6.75 12.25 7.30964 12.25 8ZM13.4472 11.1056C11.9788 10.3714 10.4933 10 9 10C7.50668 10 6.02118 10.3714 4.55279 11.1056L5.80273 12.6976C7.001 12.0985 7.82665 12 9 12C10.1733 12 10.9973 12.1033 12.1956 12.7025L13.4472 11.1056ZM8.25 8C8.25 8.69036 7.69036 9.25 7 9.25C6.30964 9.25 5.75 8.69036 5.75 8C5.75 7.30964 6.30964 6.75 7 6.75C7.69036 6.75 8.25 7.30964 8.25 8Z" fill="black"/>
</svg>
