<svg width="18" height="18" viewBox="0 0 18 18" fill="none" xmlns="http://www.w3.org/2000/svg">
<path fill-rule="evenodd" clip-rule="evenodd" d="M1.883 1C1.395 1 1 1.395 1 1.883V16.117C1 16.605 1.395 17 1.883 17H9.546V10.804H7.46V8.39H9.546V6.607C9.546 4.541 10.808 3.417 12.652 3.417C13.535 3.417 14.294 3.481 14.515 3.511V5.671H13.235C12.235 5.671 12.04 6.151 12.04 6.851V8.391H14.43L14.12 10.811H12.04V17H16.117C16.605 17 17 16.605 17 16.117V1.883C17 1.395 16.605 1 16.117 1H1.883Z" fill="#3C5A96"/>
</svg>
