<svg width="18" height="18" viewBox="0 0 18 18" fill="none" xmlns="http://www.w3.org/2000/svg">
<path d="M9 17C7.41775 17 5.87103 16.5308 4.55544 15.6518C3.23985 14.7727 2.21447 13.5233 1.60897 12.0615C1.00347 10.5997 0.84504 8.99113 1.15372 7.43928C1.4624 5.88743 2.22433 4.46197 3.34315 3.34315C4.46197 2.22433 5.88743 1.4624 7.43928 1.15372C8.99113 0.84504 10.5997 1.00347 12.0615 1.60897C13.5233 2.21447 14.7727 3.23985 15.6518 4.55544C16.5308 5.87103 17 7.41775 17 9C17 11.1217 16.1571 13.1566 14.6569 14.6569C13.1566 16.1571 11.1217 17 9 17ZM9 15C10.1867 15 11.3467 14.6481 12.3334 13.9888C13.3201 13.3295 14.0892 12.3925 14.5433 11.2961C14.9974 10.1997 15.1162 8.99335 14.8847 7.82946C14.6532 6.66558 14.0818 5.59648 13.2426 4.75736C12.4035 3.91825 11.3344 3.3468 10.1705 3.11529C9.00666 2.88378 7.80026 3.0026 6.7039 3.45673C5.60755 3.91085 4.67047 4.67989 4.01119 5.66658C3.3519 6.65328 3 7.81332 3 9C3 10.5913 3.63214 12.1174 4.75736 13.2426C5.88258 14.3679 7.4087 15 9 15Z" fill="black"/>
<path d="M11.9407 11.4353C11.6124 10.9713 11.1708 10.599 10.6579 10.3539C10.145 10.1089 9.57794 9.99918 9.01067 10.0353C8.4434 9.99918 7.87633 10.1089 7.36345 10.3539C6.85057 10.599 6.40896 10.9713 6.08067 11.4353C6.00194 11.5557 5.96 11.6964 5.96 11.8403C5.96 11.9842 6.00194 12.1249 6.08067 12.2453C6.14914 12.3559 6.24487 12.4471 6.35868 12.5101C6.47249 12.5732 6.60057 12.6059 6.73067 12.6053H6.81067C8.25105 12.4748 9.70028 12.4748 11.1407 12.6053C11.2835 12.6235 11.4285 12.6012 11.5593 12.5411C11.6901 12.481 11.8014 12.3855 11.8807 12.2653C11.9703 12.1478 12.0237 12.0067 12.0344 11.8592C12.045 11.7118 12.0125 11.5645 11.9407 11.4353Z" fill="black"/>
<path fill-rule="evenodd" clip-rule="evenodd" d="M6.29553 6C6.2252 5.99868 6.15529 6.01134 6.08981 6.03726C6.02433 6.06318 5.96455 6.10185 5.9139 6.15107C5.86324 6.20028 5.8227 6.25908 5.79458 6.3241C5.76647 6.38912 5.75133 6.45909 5.75004 6.53V6.94C5.74729 7.27969 5.87652 7.60697 6.11008 7.8518C6.34363 8.09663 6.66295 8.23956 6.99971 8.25C7.16768 8.24875 7.3337 8.21364 7.48801 8.14674C7.64231 8.07984 7.78179 7.98249 7.89823 7.86043C8.01467 7.73836 8.10572 7.59405 8.16603 7.43598C8.22633 7.27791 8.25467 7.10928 8.24937 6.94V6.53C8.24808 6.45909 8.23295 6.38912 8.20484 6.3241C8.17672 6.25908 8.13618 6.20028 8.08552 6.15107C8.03487 6.10185 7.97509 6.06318 7.90961 6.03726C7.84413 6.01134 7.77422 5.99868 7.70389 6H6.29553Z" fill="black"/>
<path fill-rule="evenodd" clip-rule="evenodd" d="M10.2977 6C10.2271 5.99868 10.1569 6.01134 10.0912 6.03726C10.0254 6.06318 9.9654 6.10185 9.91455 6.15107C9.86369 6.20028 9.82299 6.25908 9.79476 6.3241C9.76653 6.38912 9.75134 6.45909 9.75004 6.53V6.94C9.74728 7.27969 9.87703 7.60697 10.1115 7.8518C10.346 8.09663 10.6666 8.23956 11.0047 8.25C11.1725 8.24743 11.3381 8.21135 11.4918 8.14386C11.6456 8.07637 11.7845 7.97882 11.9003 7.85689C12.0162 7.73496 12.1067 7.5911 12.1666 7.43368C12.2265 7.27627 12.2547 7.10845 12.2494 6.94V6.53C12.2468 6.38853 12.189 6.25373 12.0884 6.15461C11.9878 6.0555 11.8526 5.99998 11.7117 6H10.2977Z" fill="black"/>
</svg>
