<svg width="18" height="18" viewBox="0 0 18 18" fill="none" xmlns="http://www.w3.org/2000/svg">
<path d="M9 17C7.41775 17 5.87103 16.5308 4.55544 15.6518C3.23985 14.7727 2.21447 13.5233 1.60897 12.0615C1.00347 10.5997 0.84504 8.99113 1.15372 7.43928C1.4624 5.88743 2.22433 4.46197 3.34315 3.34315C4.46197 2.22433 5.88743 1.4624 7.43928 1.15372C8.99113 0.84504 10.5997 1.00347 12.0615 1.60897C13.5233 2.21447 14.7727 3.23985 15.6518 4.55544C16.5308 5.87103 17 7.41775 17 9C17 11.1217 16.1571 13.1566 14.6569 14.6569C13.1566 16.1571 11.1217 17 9 17ZM9 15C10.1867 15 11.3467 14.6481 12.3334 13.9888C13.3201 13.3295 14.0892 12.3925 14.5433 11.2961C14.9974 10.1997 15.1162 8.99335 14.8847 7.82946C14.6532 6.66558 14.0818 5.59648 13.2426 4.75736C12.4035 3.91825 11.3344 3.3468 10.1705 3.11529C9.00666 2.88378 7.80026 3.0026 6.7039 3.45673C5.60755 3.91085 4.67047 4.67989 4.01119 5.66658C3.3519 6.65328 3 7.81332 3 9C3 10.5913 3.63214 12.1174 4.75736 13.2426C5.88258 14.3679 7.4087 15 9 15Z" fill="black"/>
<path d="M9.1 13.22C7.70187 13.1782 6.37197 12.6062 5.38 11.62C5.23795 11.4514 5.16433 11.2357 5.17372 11.0155C5.1831 10.7952 5.27479 10.5865 5.43067 10.4307C5.58654 10.2748 5.79523 10.1831 6.01547 10.1737C6.2357 10.1643 6.45144 10.238 6.62 10.38C6.92338 10.7084 7.29144 10.9705 7.70104 11.1498C8.11064 11.329 8.5529 11.4215 9 11.4215C9.44711 11.4215 9.88937 11.329 10.299 11.1498C10.7086 10.9705 11.0766 10.7084 11.38 10.38C11.5486 10.238 11.7643 10.1643 11.9845 10.1737C12.2048 10.1831 12.4135 10.2748 12.5693 10.4307C12.7252 10.5865 12.8169 10.7952 12.8263 11.0155C12.8357 11.2357 12.7621 11.4514 12.62 11.62C12.1725 12.1115 11.6296 12.5068 11.0245 12.7819C10.4194 13.0569 9.76458 13.206 9.1 13.22Z" fill="black"/>
<path d="M7 8.25C7.69036 8.25 8.25 7.69036 8.25 7C8.25 6.30965 7.69036 5.75 7 5.75C6.30965 5.75 5.75 6.30965 5.75 7C5.75 7.69036 6.30965 8.25 7 8.25Z" fill="black"/>
<path d="M11 8.25C11.6904 8.25 12.25 7.69036 12.25 7C12.25 6.30965 11.6904 5.75 11 5.75C10.3096 5.75 9.75 6.30965 9.75 7C9.75 7.69036 10.3096 8.25 11 8.25Z" fill="black"/>
</svg>
