<svg width="18" height="18" viewBox="0 0 18 18" fill="none" xmlns="http://www.w3.org/2000/svg">
<path d="M12.58 10.49C12.4896 10.3605 12.3652 10.2584 12.2206 10.1949C12.0759 10.1314 11.9166 10.1089 11.76 10.13C9.92265 10.3401 8.06735 10.3401 6.23 10.13C6.07375 10.1099 5.91498 10.1327 5.77064 10.1958C5.6263 10.2589 5.5018 10.36 5.41043 10.4883C5.31905 10.6167 5.26424 10.7674 5.25184 10.9244C5.23944 11.0815 5.26991 11.2389 5.34 11.38C5.70707 12.0178 6.24296 12.5419 6.8887 12.8948C7.53443 13.2477 8.265 13.4156 9 13.38C9.735 13.4156 10.4656 13.2477 11.1113 12.8948C11.757 12.5419 12.2929 12.0178 12.66 11.38C12.7284 11.2383 12.7571 11.0807 12.743 10.924C12.7289 10.7672 12.6726 10.6173 12.58 10.49Z" fill="black"/>
<path d="M9 17C7.41775 17 5.87103 16.5308 4.55544 15.6518C3.23985 14.7727 2.21447 13.5233 1.60897 12.0615C1.00347 10.5997 0.84504 8.99113 1.15372 7.43928C1.4624 5.88743 2.22433 4.46197 3.34315 3.34315C4.46197 2.22433 5.88743 1.4624 7.43928 1.15372C8.99113 0.84504 10.5997 1.00347 12.0615 1.60897C13.5233 2.21447 14.7727 3.23985 15.6518 4.55544C16.5308 5.87103 17 7.41775 17 9C17 11.1217 16.1571 13.1566 14.6569 14.6569C13.1566 16.1571 11.1217 17 9 17ZM9 15C10.1867 15 11.3467 14.6481 12.3334 13.9888C13.3201 13.3295 14.0892 12.3925 14.5433 11.2961C14.9974 10.1997 15.1162 8.99335 14.8847 7.82946C14.6532 6.66558 14.0818 5.59648 13.2426 4.75736C12.4035 3.91825 11.3344 3.3468 10.1705 3.11529C9.00666 2.88378 7.80026 3.0026 6.7039 3.45673C5.60755 3.91085 4.67047 4.67989 4.01119 5.66658C3.3519 6.65328 3 7.81332 3 9C3 10.5913 3.63214 12.1174 4.75736 13.2426C5.88258 14.3679 7.4087 15 9 15Z" fill="black"/>
<path fill-rule="evenodd" clip-rule="evenodd" d="M7.71 8.25C7.78444 8.24745 7.85762 8.23008 7.92526 8.1989C7.9929 8.16772 8.05364 8.12336 8.10392 8.06842C8.15421 8.01348 8.19303 7.94905 8.21811 7.87893C8.24319 7.8088 8.25404 7.73437 8.25 7.66V6.94C8.26951 6.58463 8.14995 6.23561 7.91664 5.96684C7.68334 5.69807 7.35459 5.53064 7 5.5C6.82299 5.51139 6.65 5.55781 6.49106 5.63658C6.33212 5.71534 6.19041 5.82487 6.07413 5.95882C5.95785 6.09278 5.86932 6.24848 5.81368 6.41691C5.75804 6.58534 5.7364 6.76314 5.75 6.94V7.66C5.74597 7.73437 5.75681 7.8088 5.78189 7.87893C5.80698 7.94905 5.8458 8.01348 5.89608 8.06842C5.94637 8.12336 6.00711 8.16772 6.07475 8.1989C6.14239 8.23008 6.21557 8.24745 6.29 8.25H7.71Z" fill="black"/>
<path fill-rule="evenodd" clip-rule="evenodd" d="M11.71 8.25C11.7844 8.24745 11.8576 8.23008 11.9253 8.1989C11.9929 8.16772 12.0536 8.12336 12.1039 8.06842C12.1542 8.01348 12.193 7.94905 12.2181 7.87893C12.2432 7.8088 12.254 7.73437 12.25 7.66V6.94C12.2695 6.58463 12.15 6.23561 11.9166 5.96684C11.6833 5.69807 11.3546 5.53064 11 5.5C10.823 5.51139 10.65 5.55781 10.4911 5.63658C10.3321 5.71534 10.1904 5.82487 10.0741 5.95882C9.95785 6.09278 9.86932 6.24848 9.81368 6.41691C9.75804 6.58534 9.7364 6.76314 9.75 6.94V7.66C9.74597 7.73437 9.75681 7.8088 9.78189 7.87893C9.80698 7.94905 9.8458 8.01348 9.89608 8.06842C9.94637 8.12336 10.0071 8.16772 10.0747 8.1989C10.1424 8.23008 10.2156 8.24745 10.29 8.25H11.71Z" fill="black"/>
</svg>
