<svg width="18" height="18" viewBox="0 0 18 18" fill="none" xmlns="http://www.w3.org/2000/svg">
<circle opacity="0.4" cx="9" cy="9" r="8" fill="#FFAA3B"/>
<path opacity="0.3" d="M8.41001 17C7.23686 16.0361 6.29861 14.8177 5.66642 13.4372C5.03424 12.0567 4.72472 10.5503 4.76135 9.03239C4.79797 7.51446 5.17977 6.0248 5.8778 4.67639C6.57582 3.32798 7.57174 2.15623 8.79001 1.25C8.89036 1.17487 8.98404 1.09123 9.07001 1C7.48088 0.984773 5.92322 1.44319 4.59567 2.31679C3.26812 3.19039 2.23084 4.43959 1.61611 5.90508C1.00137 7.37057 0.837042 8.98595 1.14407 10.5452C1.4511 12.1045 2.21558 13.537 3.34001 14.66C4.69041 16.0289 6.4922 16.8605 8.41001 17Z" fill="#FF9700"/>
<path d="M7.34998 7.99998C7.71255 7.97929 8.01636 7.64277 7.99998 7.27998V6.37998C7.99998 5.5 7.34998 4.59998 6.47998 4.59998C5.5625 4.59998 5 5.5 4.99998 6.38998V7.27998C4.9836 7.64277 5.2874 7.97929 5.64998 7.99998H7.34998Z" fill="#1A1104"/>
<path d="M12.42 9.99999C10.1538 10.2554 7.86615 10.2554 5.59999 9.99999C4.7685 9.90381 4.14956 10.8024 4.50999 11.55C5.42206 13.1259 7.11718 14 8.99999 14C10.9219 14 12.6056 13.1294 13.52 11.54C13.8782 10.791 13.2474 9.89913 12.42 9.99999Z" fill="#1A1104"/>
<path d="M12.35 7.99998H10.65C10.2874 7.97929 9.9836 7.64277 9.99998 7.27998V6.38998C9.99998 5.5 10.5781 4.59998 11.48 4.59998C12.35 4.59998 13 5.5 13 6.37998V7.27998C13.0164 7.64277 12.7126 7.97929 12.35 7.99998Z" fill="#1A1104"/>
</svg>
