<svg width="18" height="18" viewBox="0 0 18 18" fill="none" xmlns="http://www.w3.org/2000/svg">
<circle opacity="0.4" cx="9" cy="9" r="8" fill="#FFAA3B"/>
<path opacity="0.3" d="M8.41007 17C7.23692 16.0361 6.29867 14.8177 5.66649 13.4372C5.0343 12.0567 4.72478 10.5503 4.76141 9.03239C4.79803 7.51446 5.17983 6.0248 5.87786 4.67639C6.57588 3.32798 7.5718 2.15623 8.79007 1.25C8.89042 1.17487 8.9841 1.09123 9.07007 1C7.48094 0.984773 5.92328 1.44319 4.59573 2.31679C3.26818 3.19039 2.2309 4.43959 1.61617 5.90508C1.00143 7.37057 0.837103 8.98595 1.14413 10.5452C1.45116 12.1045 2.21564 13.537 3.34007 14.66C4.69048 16.0289 6.49226 16.8605 8.41007 17Z" fill="#FF9700"/>
<path d="M5.65466 5.00013C5.27544 4.99219 5.00588 5.35247 5.00007 5.70677V6.25341C4.99388 7.1034 5.5981 7.96895 6.49967 8.00001C7.41022 7.99248 8.02319 7.10295 7.99927 6.25341V5.70677C7.99342 5.34942 7.72525 4.99216 7.34469 5.00013H5.65466Z" fill="#1A1104"/>
<path d="M12.8741 11.641C11.9262 10.4486 10.4921 9.98863 9.01648 10.0005C7.53973 9.98899 6.10799 10.447 5.15889 11.641C4.91389 11.9745 4.92277 12.7496 5.15889 13.0709C5.38081 13.39 5.74843 13.4928 6.11999 13.4928C8.01638 13.3399 9.92441 13.3399 11.8208 13.4928C12.1968 13.5354 12.5864 13.376 12.7951 13.0944C13.0495 12.7974 13.0883 11.9842 12.8741 11.641Z" fill="#1A1104"/>
<path d="M10.6573 5.00013H12.354C12.6922 5.00007 12.993 5.32951 12.9993 5.70677V6.25341C13.0233 7.1016 12.4119 7.98458 11.5056 8.00001C10.603 7.96904 9.99384 7.10613 10.0001 6.25341V5.70677C10.0059 5.35137 10.2776 4.99221 10.6573 5.00013Z" fill="#1A1104"/>
</svg>
