<svg width="18" height="18" viewBox="0 0 18 18" fill="none" xmlns="http://www.w3.org/2000/svg">
<path fill-rule="evenodd" clip-rule="evenodd" d="M3 1C1.89543 1 1 1.89543 1 3V15C1 16.1046 1.89543 17 3 17H15C16.1046 17 17 16.1046 17 15V3C17 1.89543 16.1046 1 15 1H3ZM9.54602 17V10.804H7.46002V8.38999H9.54602V6.60699C9.54602 4.54099 10.808 3.41699 12.652 3.41699C13.535 3.41699 14.294 3.48099 14.515 3.51099V5.67099H13.235C12.235 5.67099 12.04 6.15099 12.04 6.85099V8.39099H14.43L14.12 10.811H12.04V17H9.54602Z" fill="#4167B2"/>
</svg>
