<svg width="18" height="18" viewBox="0 0 18 18" fill="none" xmlns="http://www.w3.org/2000/svg">
<path d="M6.00134 18C7.65733 18 9.00133 16.656 9.00133 15V12H6.00134C4.34534 12 3.00134 13.344 3.00134 15C3.00134 16.656 4.34534 18 6.00134 18Z" fill="#0ACF83"/>
<path d="M3.00134 8.99999C3.00134 7.344 4.34534 6 6.00134 6H9.00133V12H6.00134C4.34534 12 3.00134 10.656 3.00134 8.99999Z" fill="#A259FF"/>
<path d="M3.0014 2.99999C3.0014 1.344 4.3454 0 6.0014 0H9.00139V5.99999H6.0014C4.3454 5.99999 3.0014 4.65599 3.0014 2.99999Z" fill="#F24E1E"/>
<path d="M9.00128 0H12.0013C13.6573 0 15.0013 1.344 15.0013 2.99999C15.0013 4.65599 13.6573 5.99999 12.0013 5.99999H9.00128V0Z" fill="#FF7262"/>
<path d="M15.0013 8.99999C15.0013 10.656 13.6573 12 12.0013 12C10.3453 12 9.00128 10.656 9.00128 8.99999C9.00128 7.344 10.3453 6 12.0013 6C13.6573 6 15.0013 7.344 15.0013 8.99999Z" fill="#1ABCFE"/>
</svg>
