<svg width="18" height="18" viewBox="0 0 18 18" fill="none" xmlns="http://www.w3.org/2000/svg">
<path d="M7.47541 0.0110533C8.35364 2.40962 7.91994 3.74707 6.91161 4.77503C5.84906 5.93563 4.14681 6.79779 2.97583 8.48895C1.40369 10.7549 1.13263 15.7068 6.80318 17C4.41787 15.7178 3.90828 12.0039 6.47791 9.69376C5.81653 11.9376 7.05256 13.3745 8.58133 12.855C10.0884 12.3355 11.0751 13.4408 11.0425 14.7009C11.0209 15.5631 10.7064 16.2926 9.81736 16.7016C13.5254 16.0494 15 12.9213 15 10.5559C15 7.41677 12.2569 6.99675 13.6447 4.35501C11.9967 4.4987 11.4437 5.60403 11.5955 7.39467C11.6931 8.58843 10.4896 9.38426 9.57882 8.86476C8.85239 8.41157 8.86323 7.54941 9.51377 6.89727C10.8691 5.53771 11.4112 2.37646 7.47541 0.0221066L7.45372 0L7.47541 0.0110533Z" fill="black"/>
</svg>
