<svg width="18" height="18" viewBox="0 0 18 18" fill="none" xmlns="http://www.w3.org/2000/svg">
<path opacity="0.6" d="M13.1797 9.00781C12.3788 9.32817 11.7161 9.59771 11.2109 10.2969C10.6519 11.0706 10.1666 12.6412 10 13.89C10.46 13.6577 10.9013 13.3903 11.32 13.09C11.5361 13.5793 11.5916 14.1246 11.4784 14.6475C11.3652 15.1703 11.0892 15.6438 10.69 16H11.47C12.06 15.9987 12.6365 15.8234 13.1274 15.4961C13.6184 15.1689 14.1625 14.4341 14.3906 13.89C14.7825 12.9332 14.8614 12.1909 14.94 11.16C14.99 9.91637 14.8346 8.67302 14.48 7.47998C14.4251 7.81423 14.2861 8.12905 14.0762 8.39491C13.8664 8.66077 13.5703 8.85156 13.1797 9.00781Z" fill="#FF6700"/>
<path d="M10.3945 12.1099C10.6625 11.3381 10.8193 10.889 11.1758 10.3476C11.4832 9.88075 11.9922 9.54292 12.5469 9.26948C12.5469 9.26948 12.5 5.99994 11 3.99994C9.49999 1.99994 7.6293 1.25087 6.04995 1.38994C6.04995 1.38994 10.24 4.3325 7.22995 7.0625C5.08615 8.97661 3.59374 10.8749 4.125 12.9999C4.65626 15.1249 6.63637 15.9427 7.22995 15.9999C7.05403 15.3137 7.06119 14.5934 7.2507 13.9108C7.44021 13.2282 7.80545 12.6073 8.30995 12.1099C9.41995 10.9199 7.99995 9.78994 7.99995 9.78994C8.6686 9.81243 9.30856 10.067 9.80995 10.5099C10.0188 10.7156 10.1799 10.9646 10.2818 11.2393C10.3838 11.5141 10.4187 11.8179 10.3945 12.1099Z" fill="#EF2E2E"/>
</svg>
