<svg width="14" height="14" viewBox="0 0 14 14" fill="none" xmlns="http://www.w3.org/2000/svg">
<path d="M6.21185 0.00845254C6.88741 1.84265 6.5538 2.86541 5.77816 3.6515C4.96081 4.53901 3.65139 5.19831 2.75064 6.49155C1.5413 8.22432 1.3328 12.0111 5.69476 13C3.8599 12.0195 3.4679 9.17945 5.44455 7.41287C4.93579 9.12874 5.88658 10.2276 7.06256 9.8303C8.22186 9.43303 8.98082 10.2783 8.9558 11.2419C8.93912 11.9012 8.69725 12.459 8.01335 12.7718C10.8657 12.2731 12 9.88101 12 8.07217C12 5.67165 9.88991 5.35046 10.9575 3.3303C9.68974 3.44018 9.26439 4.28544 9.38116 5.65475C9.45622 6.56762 8.53045 7.1762 7.82986 6.77893C7.27107 6.43238 7.27941 5.77308 7.77982 5.27438C8.82236 4.23472 9.23937 1.8173 6.21185 0.0169051L6.19517 0L6.21185 0.00845254Z" fill="black"/>
</svg>
