<svg width="18" height="18" viewBox="0 0 18 18" fill="none" xmlns="http://www.w3.org/2000/svg">
<path opacity="0.6" d="M13.1797 9.00781C12.3788 9.32817 11.7161 9.59771 11.2109 10.2969C10.6519 11.0706 10.1666 12.6412 10 13.89C10.46 13.6577 10.9013 13.3903 11.32 13.09C11.5361 13.5793 11.5916 14.1246 11.4784 14.6475C11.3652 15.1703 11.0892 15.6438 10.69 16H11.47C12.06 15.9987 12.6365 15.8234 13.1274 15.4961C13.6184 15.1689 14.1625 14.4341 14.3906 13.89C14.7825 12.9332 14.8614 12.1909 14.94 11.16C14.99 9.91637 14.8346 8.67302 14.48 7.47998C14.4251 7.81423 14.2861 8.12905 14.0762 8.39491C13.8664 8.66077 13.5703 8.85156 13.1797 9.00781Z" fill="#FF6700"/>
<path d="M10.3945 12.11C10.6625 11.3381 10.8193 10.889 11.1758 10.3477C11.4832 9.8808 11.9922 9.54297 12.5469 9.26953C12.5469 9.26953 11.6328 4.23438 10.35 2.89999C9.73403 2.25931 9.10464 1.94092 8.36307 1.68051C7.62151 1.4201 6.83289 1.32105 6.04996 1.38999C6.04996 1.38999 9.77996 3.80999 6.76996 6.53999C4.52996 8.53999 3.44642 10.7884 4.46095 13.7422C4.70079 14.4405 5.10444 15.0672 5.5772 15.3948C6.04996 15.7224 6.63639 15.9428 7.22996 16C7.05405 15.3138 7.0612 14.5934 7.25071 13.9108C7.44022 13.2282 7.80546 12.6073 8.30997 12.11C9.41997 10.92 7.99996 9.78999 7.99996 9.78999C8.66861 9.81247 9.30857 10.067 9.80997 10.51C10.0188 10.7156 10.1799 10.9646 10.2818 11.2394C10.3838 11.5141 10.4187 11.8179 10.3945 12.11Z" fill="#EF2E2E"/>
</svg>
