<svg width="18" height="18" viewBox="0 0 18 18" fill="none" xmlns="http://www.w3.org/2000/svg">
<path opacity="0.6" d="M13.28 8.99998C12.4313 9.15422 11.6752 9.63082 11.17 10.33C10.5633 11.4341 10.1666 12.6412 10 13.89C10.46 13.6577 10.9013 13.3903 11.32 13.09C11.5361 13.5793 11.5916 14.1246 11.4784 14.6475C11.3652 15.1703 11.0892 15.6438 10.69 16H11.47C12.06 15.9987 12.6365 15.8234 13.1274 15.4961C13.6184 15.1689 14.0019 14.7041 14.23 14.16C14.6219 13.2032 14.8614 12.1909 14.94 11.16C14.99 9.91637 14.8346 8.67302 14.48 7.47998C14.4251 7.81423 14.2861 8.12905 14.0762 8.39491C13.8664 8.66077 13.5924 8.86897 13.28 8.99998Z" fill="#FF6700"/>
<path d="M10.4 12.1C10.553 11.4701 10.8135 10.8714 11.17 10.33C11.4913 9.83386 11.9704 9.46045 12.53 9.26999C12.53 9.26999 11.78 4.18999 10.35 2.89999C9.78202 2.35668 9.10462 1.94092 8.36306 1.68051C7.6215 1.4201 6.83288 1.32105 6.04995 1.38999C6.04995 1.38999 9.77995 3.80999 6.76995 6.53999C4.52995 8.53999 3.29995 10.77 4.42995 14.06C4.69204 14.5956 5.08702 15.0552 5.57719 15.3948C6.06736 15.7344 6.63637 15.9428 7.22995 16C7.05403 15.3138 7.06119 14.5934 7.2507 13.9108C7.44021 13.2282 7.80545 12.6073 8.30995 12.11C9.41995 10.92 7.99995 9.78999 7.99995 9.78999C8.6686 9.81247 9.30856 10.067 9.80995 10.51C10.0188 10.7156 10.1799 10.9646 10.2818 11.2394C10.3838 11.5141 10.4241 11.8079 10.4 12.1V12.1Z" fill="#EF2E2E"/>
</svg>
