<svg width="18" height="18" viewBox="0 0 18 18" fill="none" xmlns="http://www.w3.org/2000/svg">
<rect x="1" y="3" width="16" height="12" rx="2" fill="#3F51B5"/>
<path d="M7 5.27765L4.0816 3H3C2.68036 3 2.37823 3.07495 2.11029 3.20831L7 7H5.38611L1.34314 3.87946L1.35657 3.85986C1.24396 4.02191 1.15466 4.20135 1.09363 4.39343C1.08112 4.4328 1.06976 4.47272 1.05969 4.51306L4.31006 7H1V8H8V3H7V5.27765Z" fill="#FEFEFE"/>
<path d="M1 11V10H8V15H7V11.856L2.89435 14.9973C2.61041 14.9825 2.3421 14.9084 2.10162 14.7874L7.00848 11H5.37183L1.33826 14.1133C1.12463 13.795 1 13.4121 1 13V12.674L3.1449 11H1Z" fill="#FEFEFE"/>
<path d="M10 15H11V12.6976L13.9501 15H15C15.3252 15 15.6322 14.9224 15.9036 14.7847L11 11H12.6369L16.6647 14.1088C16.7917 13.9185 16.887 13.7053 16.9429 13.4766L13.7061 11H17V10H10V15Z" fill="#FEFEFE"/>
<path d="M11 3V6.15002L15.1129 3.00311C15.396 3.01886 15.6635 3.09357 15.9031 3.21503L10.9993 7H12.6359L16.6644 3.89062C16.8764 4.20807 17 4.5896 17 5V5.33209L14.8629 7H17V8H10V3H11Z" fill="#FEFEFE"/>
<path d="M10 3H8V8H1V10H8V15H10V10H17V8H10V3Z" fill="#E53935"/>
<path d="M2.11029 3.20831C1.80664 3.35938 1.54681 3.58545 1.35504 3.86212L1.34314 3.87946L5.38611 7H7V6.98242L2.11029 3.20831Z" fill="#E53935"/>
<path d="M1.33826 14.1133C1.52972 14.3986 1.79279 14.6318 2.10162 14.7874L7.00848 11H5.37183L1.33826 14.1133Z" fill="#E53935"/>
<path d="M16.6647 14.1088C16.4741 14.3945 16.2118 14.6284 15.9036 14.7847L11 11H12.6369L16.6647 14.1088Z" fill="#E53935"/>
<path d="M12.6359 7L16.6644 3.89062C16.4736 3.60498 16.2113 3.37128 15.9031 3.21503L10.9993 7H12.6359Z" fill="#E53935"/>
</svg>
