<svg width="18" height="18" viewBox="0 0 18 18" fill="none" xmlns="http://www.w3.org/2000/svg">
<rect x="1" y="3" width="16" height="12" rx="2" fill="#FEFEFE"/>
<path d="M1 5C1 3.89543 1.89543 3 3 3H9V8H1V5Z" fill="#0B327C"/>
<path d="M17 5.00181L17 5.00015L9 5V6H17V5.00181Z" fill="#FF0000"/>
<path d="M14.9907 3H9V4H16.7323C16.3865 3.40228 15.7402 3.00015 15 3.00015L14.9907 3Z" fill="#FF0000"/>
<path d="M17 7H9V8H17V7Z" fill="#FF0000"/>
<path d="M17 9V10H1V9H17Z" fill="#FF0000"/>
<path d="M17 11V12H1V11H17Z" fill="#FF0000"/>
<path d="M16.7325 14C16.9008 13.709 16.9979 13.3717 17 13.0119V13H1.00004C1.00004 13.3643 1.09742 13.7058 1.26756 14H16.7325Z" fill="#FF0000"/>
</svg>
