<svg width="18" height="18" viewBox="0 0 18 18" fill="none" xmlns="http://www.w3.org/2000/svg">
<g opacity="0.4">
<path d="M11 6.00002V1.08002C9.7055 0.923114 8.29448 0.923114 6.99999 1.08002V6.00002C8.32656 5.81007 9.67342 5.81007 11 6.00002Z" fill="#AFAFAF"/>
<path d="M1.07999 7.00002H5.99999C5.81004 8.32659 5.81004 9.67345 5.99999 11H1.07999C0.923084 9.70553 0.923084 8.29451 1.07999 7.00002Z" fill="#AFAFAF"/>
<path d="M16.92 7.00002H12C12.1899 8.32659 12.1899 9.67345 12 11H16.92C17.0822 9.66221 17.08 8.33 16.92 7.00002Z" fill="#AFAFAF"/>
<path d="M6.99999 16.92V12C8.32656 12.19 9.67342 12.19 11 12V16.92C9.66218 17.0822 8.3 17.08 6.99999 16.92Z" fill="#AFAFAF"/>
</g>
<path d="M7.00001 5.51001C6.69133 5.68742 6.40582 5.90239 6.15001 6.15001C5.90239 6.40582 5.68742 6.69133 5.51001 7.00001H1.26001C1.96785 4.20561 4.20561 1.96785 7.00001 1.26001V5.51001Z" fill="#F75D37"/>
<path d="M12.45 7.00001C12.1089 6.39623 11.6038 5.89113 11 5.55001V1.26001C13.7944 1.96785 16.0322 4.20561 16.74 7.00001H12.45Z" fill="#F75D37"/>
<path d="M12.45 11C12.1089 11.6038 11.6038 12.1089 11 12.45V16.74C13.7944 16.0322 16.0322 13.7944 16.74 11H12.45Z" fill="#F75D37"/>
<path d="M5.55001 11C5.89113 11.6038 6.39623 12.1089 7.00001 12.45V16.74C4.20561 16.0322 1.96785 13.7944 1.26001 11H5.55001Z" fill="#F75D37"/>
</svg>
