<svg width="18" height="18" viewBox="0 0 18 18" fill="none" xmlns="http://www.w3.org/2000/svg">
<g opacity="0.4">
<path d="M11 6V1.08C10.34 1 9.68 1 9 1C8.32 1 7.66 1 7 1.08V6C8.32657 5.81005 9.67343 5.81005 11 6Z" fill="#AFAFAF"/>
<path d="M1.08 7H6C5.81005 8.32657 5.81005 9.67343 6 11H1.08C1 10.34 1 9.68 1 9C1 8.32 1 7.66 1.08 7Z" fill="#AFAFAF"/>
<path d="M16.92 7H12C12.1899 8.32657 12.1899 9.67343 12 11H16.92C17 10.34 17 9.68 17 9C17 8.65748 16.9797 8.32004 16.9596 7.98511C16.9397 7.65513 16.92 7.32754 16.92 7Z" fill="#AFAFAF"/>
<path d="M7 16.92V12C8.32657 12.1899 9.67343 12.1899 11 12V16.92C10.34 17 9.68 17 9 17C8.65746 17 8.32 16.9797 7.98506 16.9596C7.65507 16.9397 7.32754 16.92 7 16.92Z" fill="#AFAFAF"/>
</g>
<path d="M7.00001 5.51001C6.69133 5.68742 6.40582 5.90239 6.15001 6.15001C5.90239 6.40582 5.68742 6.69133 5.51001 7.00001H1.26001C1.61088 5.61486 2.32948 4.35025 3.33987 3.33987C4.35025 2.32948 5.61486 1.61088 7.00001 1.26001V5.51001Z" fill="#F75D37"/>
<path d="M12.45 7.00001C12.2794 6.69812 12.0711 6.41921 11.83 6.17001C11.5808 5.92891 11.3019 5.72057 11 5.55001V1.26001C12.3851 1.61088 13.6498 2.32948 14.6601 3.33987C15.6705 4.35025 16.3891 5.61486 16.74 7.00001H12.45Z" fill="#F75D37"/>
<path d="M12.45 11C12.2794 11.3019 12.0711 11.5808 11.83 11.83C11.5808 12.0711 11.3019 12.2794 11 12.45V16.74C12.3851 16.3891 13.6498 15.6705 14.6601 14.6601C15.6705 13.6498 16.3891 12.3851 16.74 11H12.45Z" fill="#F75D37"/>
<path d="M5.55001 11C5.72057 11.3019 5.92891 11.5808 6.17001 11.83C6.41921 12.0711 6.69812 12.2794 7.00001 12.45V16.74C5.61486 16.3891 4.35025 15.6705 3.33987 14.6601C2.32948 13.6498 1.61088 12.3851 1.26001 11H5.55001Z" fill="#F75D37"/>
</svg>
