<svg width="18" height="18" viewBox="0 0 18 18" fill="none" xmlns="http://www.w3.org/2000/svg">
<g opacity="0.2">
<path d="M11.0312 11.9844H12.3203V13.8281H11.0312V16H9V13.8281H4.10938L4.00781 12.1172L8.75 4.625H11.0312V11.9844ZM6.25781 11.9844H9V7.70312L8.625 7.96094L6.25781 11.9844Z" fill="black"/>
<path d="M16.25 15C16.25 15.6904 15.6904 16.25 15 16.25C14.3096 16.25 13.75 15.6904 13.75 15C13.75 14.3096 14.3096 13.75 15 13.75C15.6904 13.75 16.25 14.3096 16.25 15Z" fill="black"/>
</g>
<path d="M9.03125 10.9844H10.3203V12.8281H9.03125V15H7V12.8281H2.10938L2.00781 11.1172L6.75 3.09375H9.03125V10.9844ZM4.25781 10.9844H7V6.59375L6.625 6.85156L4.25781 10.9844Z" fill="black"/>
<path d="M14.25 14C14.25 14.6904 13.6904 15.25 13 15.25C12.3096 15.25 11.75 14.6904 11.75 14C11.75 13.3096 12.3096 12.75 13 12.75C13.6904 12.75 14.25 13.3096 14.25 14Z" fill="black"/>
</svg>
