<svg width="36" height="36" viewBox="0 0 36 36" fill="none" xmlns="http://www.w3.org/2000/svg">
<g opacity="0.2">
<path d="M22 24.0078H24.9766V28H22V31.9688H18.0846V28H8.08271L7.875 24.1178L17.5733 8.96875H22V24.0078ZM12.4765 23.8492H18.0846V15.1927L17.3177 15.7139L12.4765 23.8492Z" fill="black"/>
<path d="M31 30C31 31.1046 30.1046 32 29 32C27.8954 32 27 31.1046 27 30C27 28.8954 27.8954 28 29 28C30.1046 28 31 28.8954 31 30Z" fill="black"/>
</g>
<path d="M19 22.0618H22V26H19V30.1562H14.9596V26H4.95771L4.75 22.3295L14.4483 6.15625H19V22.0618ZM9.3515 22.0618H14.9596V13.2114L14.1927 13.7311L9.3515 22.0618Z" fill="black"/>
<path d="M29 28C29 29.1046 28.1046 30 27 30C25.8954 30 25 29.1046 25 28C25 26.8954 25.8954 26 27 26C28.1046 26 29 26.8954 29 28Z" fill="black"/>
</svg>
