<svg width="14" height="14" viewBox="0 0 14 14" fill="none" xmlns="http://www.w3.org/2000/svg">
<path fill-rule="evenodd" clip-rule="evenodd" d="M8.17447 11.4218L7.78131 12.9496C7.52558 12.9828 7.26479 13 7 13C6.73022 13 6.46459 12.9822 6.20423 12.9477L5.81053 11.4178C5.42258 11.3137 5.055 11.1597 4.71504 10.9633L3.35522 11.7665C2.93598 11.4454 2.56033 11.0703 2.23868 10.6515L3.04122 9.29277C2.84342 8.95197 2.68836 8.58329 2.58339 8.19405L1.05289 7.80018C1.01801 7.53841 1 7.27131 1 7C1 6.73779 1.01682 6.4795 1.04944 6.22616L2.57611 5.83328C2.67984 5.43887 2.83493 5.06528 3.03378 4.7201L2.23019 3.35958C2.54893 2.94259 2.92111 2.56863 3.3365 2.24792L4.69332 3.04933C5.04137 2.84567 5.41874 2.6867 5.81757 2.58027L6.21101 1.05141C6.4692 1.0175 6.73256 1 7 1C7.26245 1 7.52097 1.01685 7.77453 1.04953L8.16744 2.5763C8.56912 2.68202 8.94919 2.84099 9.29965 3.04522L10.6574 2.24325C11.0718 2.56236 11.4434 2.93441 11.7619 3.34928L10.9593 4.70814C11.1621 5.05778 11.32 5.43675 11.4249 5.83713L12.951 6.22988C12.9833 6.48203 13 6.73907 13 7C13 7.27002 12.9822 7.53588 12.9476 7.79646L11.4177 8.19019C11.3114 8.58539 11.1536 8.95944 10.9518 9.30468L11.7534 10.6618C11.432 11.0784 11.0569 11.4517 10.6387 11.7711L9.27789 10.9674C8.93552 11.1644 8.56526 11.3183 8.17447 11.4218ZM7 9C8.10457 9 9 8.10457 9 7C9 5.89543 8.10457 5 7 5C5.89543 5 5 5.89543 5 7C5 8.10457 5.89543 9 7 9Z" fill="black"/>
</svg>
