<svg width="18" height="18" viewBox="0 0 18 18" fill="none" xmlns="http://www.w3.org/2000/svg">
<path fill-rule="evenodd" clip-rule="evenodd" d="M14.5344 6.3088L14.8064 6.968C17 7.7664 17 7.8592 17 8.1232V9.8C17 10.0624 17 10.1536 14.816 11.024L14.5456 11.6816C15.5264 13.792 15.4624 13.8576 15.2784 14.0464L13.9856 15.3376H13.8256C13.632 15.3376 12.9168 15.0656 11.6928 14.5376L11.0256 14.8128C10.224 17 10.1328 17 9.8752 17H8.2C7.9392 17 7.8512 17 6.9888 14.8224L6.3232 14.5456C4.5088 15.3856 4.2944 15.3856 4.2224 15.3856H4.0832L3.9648 15.2816L2.7728 14.0912C2.592 13.9072 2.5296 13.8432 3.4624 11.6912L3.1904 11.0352C1 10.2336 1 10.1408 1 9.8768V8.2C1 7.9296 1 7.8464 3.1824 6.9856L3.4544 6.328C2.46856 4.21253 2.53581 4.14419 2.73199 3.94483L2.7328 3.944L4.0128 2.664H4.1728C4.3664 2.664 5.0848 2.936 6.3088 3.464L6.9728 3.1888C7.7712 1 7.8688 1 8.1216 1H9.8C10.056 1 10.144 1 11.0064 3.1808L11.6736 3.456C13.4864 2.6176 13.7024 2.6176 13.776 2.6176H13.9136L14.032 2.72L15.224 3.9088C15.4064 4.0928 15.4672 4.1568 14.5344 6.3088ZM6.13793 10.1908C6.61987 11.3492 7.75251 12.1029 9.00713 12.1C10.7149 12.0941 12.0971 10.7096 12.1 9.00181C12.1007 7.74719 11.3451 6.61584 10.1859 6.13589C9.02674 5.65594 7.69255 5.92202 6.80616 6.80993C5.91978 7.69784 5.65598 9.03249 6.13793 10.1908Z" fill="black"/>
</svg>
