<svg width="18" height="18" viewBox="0 0 18 18" fill="none" xmlns="http://www.w3.org/2000/svg">
<path d="M9 1C4.58 1 1 4.58 1 9C1 12.54 3.29 15.53 6.47 16.59C6.87 16.66 7.02 16.42 7.02 16.21C7.02 16.02 7.01 15.39 7.01 14.72C5 15.09 4.48 14.23 4.32 13.78C4.23 13.55 3.84 12.84 3.5 12.65C3.22 12.5 2.82 12.13 3.49 12.12C4.12 12.11 4.57 12.7 4.72 12.94C5.44 14.15 6.59 13.81 7.05 13.6C7.12 13.08 7.33 12.73 7.56 12.53C5.78 12.33 3.92 11.64 3.92 8.58C3.92 7.71 4.23 6.99 4.74 6.43C4.66 6.23 4.38 5.41 4.82 4.31C4.82 4.31 5.49 4.1 7.02 5.13C7.66 4.95 8.34 4.86 9.02 4.86C9.7 4.86 10.38 4.95 11.02 5.13C12.55 4.09 13.22 4.31 13.22 4.31C13.66 5.41 13.38 6.23 13.3 6.43C13.81 6.99 14.12 7.7 14.12 8.58C14.12 11.65 12.25 12.33 10.47 12.53C10.76 12.78 11.01 13.26 11.01 14.01C11.01 15.08 11 15.94 11 16.21C11 16.42 11.15 16.67 11.55 16.59C14.8064 15.4907 16.9991 12.437 17 9C17 4.58 13.42 1 9 1V1Z" fill="#010101"/>
</svg>
