<svg width="18" height="18" viewBox="0 0 18 18" fill="none" xmlns="http://www.w3.org/2000/svg">
<g id="Icon/Globe">
<path id="Globe" fill-rule="evenodd" clip-rule="evenodd" d="M9 1C4.584 1 1 4.584 1 9C1 13.416 4.584 17 9 17C13.416 17 17 13.416 17 9C17 4.584 13.416 1 9 1ZM8.00041 15.3161C4.93784 14.838 2.6 12.1949 2.6 9C2.6 8.504 2.664 8.032 2.768 7.568L7 11.683V12.483C7 13.363 7.12 13.8 8 13.8C8 13.8 8 15.3214 8.00041 15.3161ZM12 12C12.72 12 13.512 12.664 13.72 13.312C14.76 12.176 15.4 10.664 15.4 9C15.4 6.32 13.744 4.024 11.4 3.072V3.4C11.4 4.28 10.88 5 10 5H8V6C8 6.44 7.44 7 7 7H6V9H10C10.44 9 11 9.56 11 10V12H12Z" fill="black"/>
</g>
</svg>
