<svg width="18" height="18" viewBox="0 0 18 18" fill="none" xmlns="http://www.w3.org/2000/svg">
<path fill-rule="evenodd" clip-rule="evenodd" d="M16.5129 7.9978H8.97998V11.0105H13.2845C13.0991 12.0103 12.5356 12.4865 11.6885 13.0536V15.0605H14.2734C15.7857 13.6681 16.6583 11.6176 16.6583 9.18178C16.6583 8.61463 16.6074 8.52132 16.5129 7.9978Z" fill="#4285F4"/>
<path fill-rule="evenodd" clip-rule="evenodd" d="M8.97997 16.9982C11.1395 16.9982 12.95 16.282 14.2733 15.0605L11.6885 13.0536C10.9723 13.5335 10.0561 13.8171 8.97997 13.8171C6.89679 13.8171 5.13355 12.4101 4.50459 10.5197H1.83246V12.5919C3.14853 15.2059 5.85339 16.9982 8.97997 16.9982Z" fill="#34A853"/>
<path fill-rule="evenodd" clip-rule="evenodd" d="M4.50461 10.5197C4.34464 10.0398 4.25375 9.52717 4.25375 9.00001C4.25375 8.47286 4.34464 7.96024 4.50461 7.48035V5.40808H1.83247C1.29077 6.48784 0.98175 7.70939 0.98175 9.00001C0.98175 10.2906 1.29077 11.5122 1.83247 12.5919L4.50461 10.5197Z" fill="#FBBC05"/>
<path fill-rule="evenodd" clip-rule="evenodd" d="M8.97997 4.18288C10.1543 4.18288 11.2086 4.58643 12.0375 5.37898L14.3315 3.08495C12.9464 1.79432 11.1359 1.00177 8.97997 1.00177C5.85339 1.00177 3.14853 2.7941 1.83246 5.40807L4.50459 7.48034C5.13355 5.58985 6.89679 4.18288 8.97997 4.18288Z" fill="#EA4335"/>
</svg>
