<svg width="18" height="18" viewBox="0 0 18 18" fill="none" xmlns="http://www.w3.org/2000/svg">
<path opacity="0.7" d="M3.46 14H5V7.00003H3.46C3.26874 6.99872 3.07912 7.03525 2.90204 7.10753C2.72496 7.1798 2.56393 7.2864 2.42822 7.42118C2.29252 7.55595 2.18482 7.71625 2.11132 7.89282C2.03783 8.0694 2 8.25877 2 8.45003V12.54C2 12.7318 2.03776 12.9216 2.11114 13.0988C2.18451 13.2759 2.29205 13.4368 2.42762 13.5724C2.5632 13.708 2.72415 13.8155 2.90128 13.8889C3.07842 13.9623 3.26827 14 3.46 14V14Z" fill="#0077CC"/>
<path d="M6 7.41125L7.78 6.41125C9.26485 5.52285 10.9597 5.04648 12.69 5.03125H15.5C15.8978 5.03125 16.2794 5.18929 16.5607 5.47059C16.842 5.75189 17 6.13343 17 6.53125V6.53125C17 6.92907 16.842 7.31061 16.5607 7.59191C16.2794 7.87321 15.8978 8.03125 15.5 8.03125H12.22C12.6971 8.90077 12.914 9.88917 12.8448 10.8785C12.7757 11.8679 12.4234 12.8165 11.83 13.6112C10.94 14.7112 8.83 14.9213 7.47 14.6713L6 14.4113V7.41125Z" fill="#FFC166"/>
<g opacity="0.4">
<path d="M15.1693 2.05057L15.9052 2.82261C16.0152 2.93619 16.1643 3 16.3198 3C16.4754 3 16.6245 2.93619 16.7345 2.82261C16.8445 2.70904 16.9062 2.55499 16.9062 2.39437C16.9062 2.23375 16.8445 2.0797 16.7345 1.96612L15.987 1.20614C15.8785 1.09416 15.7315 1.03125 15.5781 1.03125C15.4248 1.03125 15.2778 1.09416 15.1693 1.20614C15.0609 1.31812 15 1.46999 15 1.62835C15 1.78671 15.0609 1.93859 15.1693 2.05057Z" fill="black"/>
<path d="M16.7369 11.0506L16.0011 11.8226C15.8911 11.9362 15.7419 12 15.5864 12C15.4309 12 15.2817 11.9362 15.1718 11.8226C15.0618 11.709 15 11.555 15 11.3944C15 11.2337 15.0618 11.0797 15.1718 10.9661L15.9193 10.2061C16.0277 10.0942 16.1748 10.0312 16.3281 10.0312C16.4814 10.0312 16.6285 10.0942 16.7369 10.2061C16.8453 10.3181 16.9062 10.47 16.9062 10.6284C16.9062 10.7867 16.8453 10.9386 16.7369 11.0506Z" fill="black"/>
</g>
</svg>
