<svg width="18" height="18" viewBox="0 0 18 18" fill="none" xmlns="http://www.w3.org/2000/svg">
<path d="M14.1438 7.85887C13.6306 8.15158 13.1654 8.52141 12.7645 8.95542C12.4933 9.20597 12.4106 9.66298 12.0938 9.43751C11.8325 9.25178 11.7428 8.23023 11.8053 7.58818C11.8678 6.94613 12.002 5.13968 12.0276 4.5229C12.0532 3.90611 12.4075 2.40974 11.3188 2.26173C10.2302 2.11374 10.084 3.89734 9.95312 4.76486C9.82226 5.63239 9.46083 7.29942 9.46083 7.29942C9.32162 6.99865 8.98049 6.81343 8.65242 6.86049C8.09064 6.94108 8.00001 7.43569 8.00001 7.89808C7.9691 7.53265 7.63086 7.23098 7.26429 7.24189C6.88895 7.2291 6.53823 7.52581 6.48866 7.89808L5.09254 4.76487C4.70912 3.61265 3.00538 4.51998 3.51966 5.64762C4.00932 6.82699 4.4093 8.04162 4.7162 9.28117C4.89857 10.1985 4.93848 10.8158 5.09254 11.7335C5.31565 12.4458 5.50403 13.4422 6.00001 14H11C11.7553 13.3426 12.4113 12.5792 12.9475 11.7335C13.5448 10.8295 14.2671 9.97459 14.8295 9.0651C15.2814 8.33445 15.1432 7.38847 14.1438 7.85887Z" fill="#FFC166"/>
<path opacity="0.7" d="M5.99997 15.7708L5.99997 15H11L11 15.7708C11.0048 16.4367 10.4521 16.9974 9.78624 17.0023H7.21369C6.54779 16.9974 5.99517 16.4367 5.99997 15.7708Z" fill="#0077CC"/>
<g opacity="0.4">
<path d="M7.5 0C7.77614 0 8 0.223858 8 0.5V1.5C8 1.77614 7.77614 2 7.5 2C7.22386 2 7 1.77614 7 1.5V0.5C7 0.223858 7.22386 0 7.5 0Z" fill="black"/>
<path d="M0 8.5C0 8.22386 0.223858 8 0.5 8H1.5C1.77614 8 2 8.22386 2 8.5C2 8.77614 1.77614 9 1.5 9H0.5C0.223858 9 0 8.77614 0 8.5Z" fill="black"/>
<path d="M16.5 8C16.2239 8 16 8.22386 16 8.5C16 8.77614 16.2239 9 16.5 9H17.5C17.7761 9 18 8.77614 18 8.5C18 8.22386 17.7761 8 17.5 8H16.5Z" fill="black"/>
<path d="M1.14645 2.14645C1.34171 1.95118 1.65829 1.95118 1.85355 2.14645L2.85355 3.14645C3.04882 3.34171 3.04882 3.65829 2.85355 3.85355C2.65829 4.04882 2.34171 4.04882 2.14645 3.85355L1.14645 2.85355C0.951184 2.65829 0.951184 2.34171 1.14645 2.14645Z" fill="black"/>
<path d="M14.8536 2.85355C15.0488 2.65829 15.0488 2.34171 14.8536 2.14645C14.6583 1.95118 14.3417 1.95118 14.1464 2.14645L13.1464 3.14645C12.9512 3.34171 12.9512 3.65829 13.1464 3.85355C13.3417 4.04882 13.6583 4.04882 13.8536 3.85355L14.8536 2.85355Z" fill="black"/>
</g>
</svg>
