<svg width="18" height="18" viewBox="0 0 18 18" fill="none" xmlns="http://www.w3.org/2000/svg">
<path opacity="0.7" d="M9 15.7685V15H14V15.7685C14 16.0951 13.8703 16.4084 13.6393 16.6393C13.4084 16.8703 13.0951 17 12.7685 17H10.2315C9.90488 17 9.59165 16.8703 9.3607 16.6393C9.12975 16.4084 9 16.0951 9 15.7685Z" fill="#0077CC"/>
<g opacity="0.4">
<path d="M6.5 2C6.77614 2 7 2.22386 7 2.5V3.5C7 3.77614 6.77614 4 6.5 4C6.22386 4 6 3.77614 6 3.5V2.5C6 2.22386 6.22386 2 6.5 2Z" fill="black"/>
<path d="M2 6.5C2 6.22386 2.22386 6 2.5 6H3.5C3.77614 6 4 6.22386 4 6.5C4 6.77614 3.77614 7 3.5 7H2.5C2.22386 7 2 6.77614 2 6.5Z" fill="black"/>
<path d="M3.85355 3.14645C3.65829 2.95118 3.34171 2.95118 3.14645 3.14645C2.95118 3.34171 2.95118 3.65829 3.14645 3.85355L4.14645 4.85355C4.34171 5.04882 4.65829 5.04882 4.85355 4.85355C5.04882 4.65829 5.04882 4.34171 4.85355 4.14645L3.85355 3.14645Z" fill="black"/>
</g>
<path d="M14.9063 7.55693V1.85172C14.8888 1.38883 14.4855 0.986183 14.0226 0.969403C13.5667 0.969779 13.1859 1.39585 13.1863 1.85172V5.40625L10.5561 1.35991C10.3323 0.954431 9.79108 0.776235 9.37012 0.969403C8.96314 1.1748 8.79461 1.68674 9 2.09373L10.5076 4.23866C10.0609 4.09717 9.5542 4.18482 9.181 4.46815L7.96875 5.40625C7.11292 6.07178 8.2251 7.37988 9.05847 6.77925L9.58911 6.4573C9.87466 6.30278 10.2344 6.4573 10.4214 6.7003L11.2378 7.55693C11.4636 7.78284 11.6027 8.08102 11.6308 8.39921C11.6588 8.7174 11.5786 9.17272 11.3672 9.40675C11.1558 9.64078 11.0185 9.85372 10.6888 9.98744C10.4181 10.0973 10.1176 10.1099 9.83862 10.0232L7.80027 9.67188C8.522 7.42035 6.71812 7.26355 6.33933 7.68982C5.88516 8.53957 5.7159 9.22887 5.74792 10.1918C5.814 10.9024 9.00002 14 9.00002 14H14C14 14 15.4747 10.6918 15.5 9.5C15.5254 8.30815 15.0779 7.89074 14.9063 7.55693Z" fill="#FFC166"/>
</svg>
