<svg width="18" height="18" viewBox="0 0 18 18" fill="none" xmlns="http://www.w3.org/2000/svg">
<g opacity="0.7">
<path d="M4 17H2.46C2.07278 17 1.70143 16.8462 1.42762 16.5724C1.15382 16.2986 1 15.9272 1 15.54V12.46C1 12.0728 1.15382 11.7014 1.42762 11.4276C1.70143 11.1538 2.07278 11 2.46 11H4V17Z" fill="#0077CC"/>
<path d="M16.54 17H15V11H16.54C16.9272 11 17.2986 11.1538 17.5724 11.4276C17.8462 11.7014 18 12.0728 18 12.46V15.54C18 15.9272 17.8462 16.2986 17.5724 16.5724C17.2986 16.8462 16.9272 17 16.54 17Z" fill="#0077CC"/>
</g>
<g opacity="0.4">
<path d="M5.30001 4C5.39802 4.08156 5.52258 4.12426 5.65001 4.12C5.71339 4.12415 5.77696 4.11568 5.83704 4.09508C5.89712 4.07448 5.95251 4.04216 6.00001 4C6.05299 3.954 6.09547 3.89716 6.12458 3.83333C6.1537 3.7695 6.16876 3.70016 6.16876 3.63C6.16876 3.55984 6.1537 3.4905 6.12458 3.42667C6.09547 3.36283 6.05299 3.30599 6.00001 3.26L3.80001 1.16C3.70268 1.07968 3.57858 1.03914 3.4526 1.04651C3.32663 1.05387 3.2081 1.10859 3.12079 1.1997C3.03348 1.29081 2.98384 1.41156 2.98184 1.53773C2.97984 1.66391 3.02563 1.78617 3.11001 1.88L5.30001 4Z" fill="black"/>
<path d="M3.5 7H5.5C5.63261 7 5.75979 6.94732 5.85355 6.85355C5.94732 6.75979 6 6.63261 6 6.5C6 6.36739 5.94732 6.24021 5.85355 6.14645C5.75979 6.05268 5.63261 6 5.5 6H3.5C3.36739 6 3.24021 6.05268 3.14645 6.14645C3.05268 6.24021 3 6.36739 3 6.5C3 6.63261 3.05268 6.75979 3.14645 6.85355C3.24021 6.94732 3.36739 7 3.5 7Z" fill="black"/>
<path d="M15.5 7H13.5C13.3674 7 13.2402 6.94732 13.1464 6.85355C13.0527 6.75979 13 6.63261 13 6.5C13 6.36739 13.0527 6.24021 13.1464 6.14645C13.2402 6.05268 13.3674 6 13.5 6H15.5C15.6326 6 15.7598 6.05268 15.8536 6.14645C15.9473 6.24021 16 6.36739 16 6.5C16 6.63261 15.9473 6.75979 15.8536 6.85355C15.7598 6.94732 15.6326 7 15.5 7Z" fill="black"/>
<path d="M13.1912 4.10706C13.2622 4.12784 13.337 4.13227 13.41 4.12002C13.5342 4.12276 13.6551 4.08009 13.75 4.00002L15.9 1.90002C15.9466 1.8544 15.9836 1.79994 16.0088 1.73985C16.0341 1.67975 16.0471 1.61521 16.0471 1.55002C16.0471 1.48483 16.0341 1.4203 16.0088 1.3602C15.9836 1.3001 15.9466 1.24565 15.9 1.20002C15.8535 1.15316 15.7982 1.11596 15.7373 1.09058C15.6764 1.06519 15.611 1.05212 15.545 1.05212C15.479 1.05212 15.4136 1.06519 15.3527 1.09058C15.2918 1.11596 15.2365 1.15316 15.19 1.20002L13 3.30002C12.9534 3.34565 12.9165 3.4001 12.8912 3.4602C12.8659 3.5203 12.8529 3.58483 12.8529 3.65002C12.8529 3.71521 12.8659 3.77975 12.8912 3.83985C12.9165 3.89994 12.9534 3.9544 13 4.00002C13.0549 4.04968 13.1202 4.08627 13.1912 4.10706Z" fill="black"/>
</g>
<path d="M8.21235 16.4868C7.76573 16.8605 7.19064 17.0447 6.61 17H5V11H7.05L8 3.37C8 3.17 8.23 3 8.5 3C8.77 3 9 3.17 9 3.37V15C8.94166 15.5794 8.65896 16.113 8.21235 16.4868Z" fill="#FFC166"/>
<path d="M10.7877 16.4868C11.2343 16.8605 11.8094 17.0447 12.39 17H14V11H12L11 3.37C11 3.17 10.77 3 10.5 3C10.23 3 10 3.17 10 3.37V15C10.0583 15.5794 10.341 16.113 10.7877 16.4868Z" fill="#FFC166"/>
</svg>
