<svg width="18" height="18" viewBox="0 0 18 18" fill="none" xmlns="http://www.w3.org/2000/svg">
<path d="M6 7C6 7 7.6875 6.32812 8.25 6.14062C8.8125 5.95312 10.9975 5 12.5 5C14.0025 5 15.5 5 15.5 5C16.255 5 17 5.5 17 6.5C17 7.5 16.25 8 15.5 8H12.22C12.6971 8.86952 12.914 9.88917 12.8448 10.8785C12.7757 11.8679 12.4234 12.8165 11.83 13.6112C10.94 14.7113 8.36951 14.5533 7.70312 14.4375C7.03674 14.3217 6.66472 14.189 6 14V7Z" fill="#FFC166"/>
<g opacity="0.4">
<path d="M15.8536 1.14645C15.6583 0.951184 15.3417 0.951184 15.1464 1.14645C14.9512 1.34171 14.9512 1.65829 15.1464 1.85355L16.1464 2.85355C16.3417 3.04882 16.6583 3.04882 16.8536 2.85355C17.0488 2.65829 17.0488 2.34171 16.8536 2.14645L15.8536 1.14645Z" fill="black"/>
<path d="M16.8536 10.8536C17.0488 10.6583 17.0488 10.3417 16.8536 10.1464C16.6583 9.95118 16.3417 9.95118 16.1464 10.1464L15.1464 11.1464C14.9512 11.3417 14.9512 11.6583 15.1464 11.8536C15.3417 12.0488 15.6583 12.0488 15.8536 11.8536L16.8536 10.8536Z" fill="black"/>
</g>
<path opacity="0.7" d="M2 8.5C2 7.67157 2.67157 7 3.5 7H5V14H3.5C2.67157 14 2 13.3284 2 12.5V8.5Z" fill="#0077CC"/>
</svg>
