<svg width="18" height="18" viewBox="0 0 18 18" fill="none" xmlns="http://www.w3.org/2000/svg">
<g opacity="0.4">
<path d="M3.85355 1.14645C3.65829 0.951184 3.34171 0.951184 3.14645 1.14645C2.95118 1.34171 2.95118 1.65829 3.14645 1.85355L5.14645 3.85355C5.34171 4.04882 5.65829 4.04882 5.85355 3.85355C6.04882 3.65829 6.04882 3.34171 5.85355 3.14645L3.85355 1.14645Z" fill="black"/>
<path d="M5.5 6H3.5C3.22386 6 3 6.22386 3 6.5C3 6.77614 3.22386 7 3.5 7H5.5C5.77614 7 6 6.77614 6 6.5C6 6.22386 5.77614 6 5.5 6Z" fill="black"/>
<path d="M15.5 7H13.5C13.2239 7 13 6.77614 13 6.5C13 6.22386 13.2239 6 13.5 6H15.5C15.7761 6 16 6.22386 16 6.5C16 6.77614 15.7761 7 15.5 7Z" fill="black"/>
<path d="M15.8536 1.85355C16.0488 1.65829 16.0488 1.34171 15.8536 1.14645C15.6583 0.951184 15.3417 0.951184 15.1464 1.14645L13.1464 3.14645C12.9512 3.34171 12.9512 3.65829 13.1464 3.85355C13.3417 4.04882 13.6583 4.04882 13.8536 3.85355L15.8536 1.85355Z" fill="black"/>
</g>
<path d="M8.21235 16.4868C7.76573 16.8605 7.19064 17.0447 6.61 17H5V11H7L8 3.37C8 3.17 8.23 3 8.5 3C8.77 3 9 3.17 9 3.37V15C8.94166 15.5794 8.65896 16.113 8.21235 16.4868Z" fill="#FFC166"/>
<path d="M10.7877 16.4868C11.2343 16.8605 11.8094 17.0447 12.39 17H14V11H12L11 3.37C11 3.17 10.77 3 10.5 3C10.23 3 10 3.17 10 3.37V15C10.0583 15.5794 10.341 16.113 10.7877 16.4868Z" fill="#FFC166"/>
<g opacity="0.7">
<path d="M2.5 11C1.67157 11 1 11.6716 1 12.5V15.5C1 16.3284 1.67157 17 2.5 17H4V11H2.5Z" fill="#0077CC"/>
<path d="M16.5 11H15V17H16.5C17.3284 17 18 16.3284 18 15.5V12.5C18 11.6716 17.3284 11 16.5 11Z" fill="#0077CC"/>
</g>
</svg>
