<svg width="18" height="18" viewBox="0 0 18 18" fill="none" xmlns="http://www.w3.org/2000/svg">
<path fill-rule="evenodd" clip-rule="evenodd" d="M2.57665 3.36079C3.44989 2.46128 4.61421 2 5.77853 2C6.92046 2 8.06239 2.85338 9.0028 3.72982C9.0028 3.75288 9.02519 3.75288 9.02519 3.75288L9.04758 3.72982C10.0104 2.76112 11.309 2 12.5853 2C13.6377 2 14.6453 2.55275 15.4289 3.36C17.1478 5.13051 17.1875 8.09375 15.4289 9.98023L9.38344 15.8386C9.27149 15.9539 9.13714 16 9.0028 16C8.86845 16 8.73411 15.9308 8.62216 15.8386L2.57665 9.98023C0.807783 8.15815 0.807783 5.18287 2.57665 3.36079ZM12.5673 8.83455C12.6941 8.83178 12.8154 8.78187 12.9073 8.69455L14.6473 7.00455C14.692 6.9599 14.7274 6.90689 14.7516 6.84856C14.7757 6.79022 14.7882 6.72769 14.7882 6.66455C14.7882 6.6014 14.7757 6.53888 14.7516 6.48054C14.7274 6.4222 14.692 6.3692 14.6473 6.32455C14.6027 6.2799 14.5497 6.24448 14.4914 6.22032C14.433 6.19615 14.3705 6.18372 14.3073 6.18372C14.2442 6.18372 14.1817 6.19615 14.1233 6.22032C14.065 6.24448 14.012 6.2799 13.9673 6.32455L12.2773 8.01455C12.2326 8.05914 12.1971 8.11213 12.1729 8.17048C12.1486 8.22882 12.1362 8.29137 12.1362 8.35455C12.1362 8.41772 12.1486 8.48028 12.1729 8.53862C12.1971 8.59697 12.2326 8.64995 12.2773 8.69455C12.3555 8.77255 12.4577 8.82189 12.5673 8.83455Z" fill="#F75D37"/>
</svg>
