<svg width="18" height="18" viewBox="0 0 18 18" fill="none" xmlns="http://www.w3.org/2000/svg">
<path d="M5.77853 2C4.61421 2 3.44989 2.46128 2.57665 3.36079C0.807783 5.18287 0.807783 8.15815 2.57665 9.98023L8.62216 15.8386C8.73411 15.9308 8.86845 16 9.0028 16C9.13714 16 9.27149 15.9539 9.38344 15.8386L15.4289 9.98023C16.3022 9.08073 16.75 7.88138 16.75 6.68204C16.75 5.4827 16.3022 4.28336 15.4289 3.38385C14.6453 2.57661 13.6377 2.20758 12.5853 2.20758C11.309 2.20758 10.0104 2.76112 9.04758 3.72982L9.02519 3.75288C9.02519 3.75288 9.0028 3.75288 9.0028 3.72982C8.06239 2.85338 6.92046 2 5.77853 2Z" fill="black"/>
</svg>
