<svg width="18" height="18" viewBox="0 0 18 18" fill="none" xmlns="http://www.w3.org/2000/svg">
<path fill-rule="evenodd" clip-rule="evenodd" d="M5.24998 2C3.75003 2 2.89998 2.5 2.1 3.36079C0.50003 5 0.500028 8.2 2.10002 10L8.09998 15.8711C8.29998 16.0711 8.69998 16.0711 8.89998 15.8711L14.9 10C16.5 8.2 16.5 5 14.9 3.36C14.1 2.5 13.25 2 11.75 2C10.204 2 9.00003 3 8.50003 3.89844C8.00003 3 6.49998 2 5.24998 2ZM13.8536 6.85355L11.8536 8.85355C11.6583 9.04882 11.3417 9.04882 11.1464 8.85355C10.9512 8.65829 10.9512 8.34171 11.1464 8.14645L13.1464 6.14645C13.3417 5.95118 13.6583 5.95118 13.8536 6.14645C14.0488 6.34171 14.0488 6.65829 13.8536 6.85355Z" fill="#F75D37"/>
</svg>
