<svg width="18" height="18" viewBox="0 0 18 18" fill="none" xmlns="http://www.w3.org/2000/svg">
<g id="Icon/Help">
<path id="Help" fill-rule="evenodd" clip-rule="evenodd" d="M9.00006 1C4.5815 1.00025 0.999755 4.58239 1 9.00094C1.00025 13.4195 4.58239 17.0012 9.00094 17.001C13.4195 17.0008 17.0012 13.4186 17.001 9.00006C17.0008 4.5815 13.4186 0.999755 9.00006 1ZM9.812 13.126C9.792 13.842 9.262 14.283 8.574 14.263C7.915 14.243 7.397 13.773 7.417 13.054C7.437 12.339 7.983 11.884 8.642 11.904C9.333 11.925 9.836 12.411 9.812 13.126ZM10.748 8.924C11.222 8.554 11.6 8.249 11.768 8.012C12.054 7.622 12.254 7.14 12.254 6.565C12.254 5.633 11.913 4.942 11.266 4.452C10.567 3.921 9.775 3.737 8.779 3.737C8.02 3.737 7.368 3.889 6.858 4.239C6.103 4.753 5.746 5.625 5.746 6.991H7.702C7.702 6.94564 7.70143 6.89972 7.70086 6.85345C7.69689 6.53043 7.69269 6.18964 7.879 5.894C8.092 5.557 8.39 5.3 8.9 5.3C9.418 5.3 9.687 5.448 9.936 5.758C10.149 6.023 10.229 6.34 10.229 6.673C10.229 6.963 10.085 7.233 9.908 7.473C9.812 7.613 9.687 7.743 9.526 7.863C9.526 7.863 8.474 8.49 8.1 9.084C7.823 9.526 7.726 10.077 7.703 10.744C7.698 10.792 7.718 10.888 7.883 10.888H9.454C9.603 10.888 9.631 10.78 9.635 10.732C9.643 10.487 9.675 10.121 9.719 9.98C9.804 9.715 9.964 9.482 10.221 9.285L10.748 8.924Z" fill="black"/>
</g>
</svg>
