<svg width="18" height="18" viewBox="0 0 18 18" fill="none" xmlns="http://www.w3.org/2000/svg">
<path d="M9 1C6.87827 1 4.84344 1.84285 3.34315 3.34315C1.84285 4.84344 1 6.87827 1 9C1 11.1217 1.84285 13.1566 3.34315 14.6569C4.84344 16.1571 6.87827 17 9 17C11.1217 17 13.1566 16.1571 14.6569 14.6569C16.1571 13.1566 17 11.1217 17 9C17 6.87827 16.1571 4.84344 14.6569 3.34315C13.1566 1.84285 11.1217 1 9 1ZM9.81 13.13C9.79 13.84 9.26 14.28 8.57 14.26C7.91 14.24 7.4 13.77 7.42 13.06C7.44 12.34 7.98 11.88 8.64 11.9C9.34 11.93 9.84 12.41 9.81 13.13ZM11.77 8C11.4671 8.34248 11.1247 8.64793 10.75 8.91L10.22 9.28C9.96 9.48 9.8 9.71 9.72 9.97C9.66641 10.2166 9.63627 10.4677 9.63 10.72C9.63 10.77 9.6 10.88 9.45 10.88H7.88C7.72 10.88 7.7 10.78 7.7 10.73C7.73 10.07 7.82 9.52 8.1 9.07C8.50001 8.58123 8.98432 8.16804 9.53 7.85C9.69 7.73 9.81 7.6 9.91 7.46C10.112 7.22195 10.2246 6.92081 10.2282 6.60861C10.2319 6.2964 10.1264 5.99271 9.93 5.75C9.69 5.44 9.42 5.29 8.9 5.29C8.39 5.29 8.1 5.55 7.88 5.89C7.67 6.22 7.7 6.62 7.7 6.99H5.75C5.75 5.61 6.1 4.74 6.85 4.23C7.37 3.88 8.02 3.73 8.78 3.73C9.78 3.73 10.57 3.91 11.27 4.44C11.91 4.94 12.25 5.62 12.25 6.56C12.25 7.13 12.05 7.61 11.77 8Z" fill="black"/>
</svg>
