<svg width="18" height="18" viewBox="0 0 18 18" fill="none" xmlns="http://www.w3.org/2000/svg">
<path d="M9 1C4.64267 1 1 4.64267 1 9C1 13.3573 4.64266 17 9 17C13.3573 17 17 13.3573 17 9C17 4.64266 13.3573 1 9 1ZM9.81 13.13C9.79 13.84 9.26 14.28 8.57 14.26C7.91 14.24 7.4 13.77 7.42 13.06C7.44 12.34 7.98 11.88 8.64 11.9C9.34 11.93 9.84 12.41 9.81 13.13ZM11.77 8C11.1836 8.6629 9.99229 9.08507 9.72 9.97C9.66641 10.2166 9.63627 10.4677 9.63 10.72C9.63 10.77 9.6 10.88 9.45 10.88H7.88C7.72 10.88 7.7 10.78 7.7 10.73C7.76152 9.37659 8.36087 8.53141 9.53 7.85C9.91723 7.55958 10.2225 7.10274 10.2282 6.60861C10.2427 5.36872 8.5915 4.79041 7.88 5.89C7.67 6.22 7.7 6.62 7.7 6.99H5.75C5.75 5.01906 6.77665 3.73 8.78 3.73C10.5347 3.73 12.25 4.60389 12.25 6.56C12.25 7.13 12.05 7.61 11.77 8Z" fill="black"/>
</svg>
