<svg width="14" height="14" viewBox="0 0 14 14" fill="none" xmlns="http://www.w3.org/2000/svg">
<path d="M7 1C6.21207 1 5.43185 1.15519 4.7039 1.45672C3.97595 1.75825 3.31451 2.20021 2.75736 2.75736C2.20021 3.31451 1.75825 3.97595 1.45672 4.7039C1.15519 5.43185 1 6.21207 1 7C1 7.78793 1.15519 8.56815 1.45672 9.2961C1.75825 10.0241 2.20021 10.6855 2.75736 11.2426C3.31451 11.7998 3.97595 12.2417 4.7039 12.5433C5.43185 12.8448 6.21207 13 7 13C8.5913 13 10.1174 12.3679 11.2426 11.2426C12.3679 10.1174 13 8.5913 13 7C13 5.4087 12.3679 3.88258 11.2426 2.75736C10.1174 1.63214 8.5913 1 7 1ZM8.06 10.06C8.04 10.69 7.58 11.08 6.96 11.06C6.39 11.04 5.93 10.63 5.95 10C5.97 9.37 6.45 8.96 7.03 8.98C7.63 9 8.08 9.43 8.06 10.06ZM8.79 6.99L8.32 7.29C8.11347 7.43833 7.95939 7.64843 7.88 7.89C7.83364 8.10379 7.80686 8.32135 7.8 8.54C7.8 8.58 7.77 8.68 7.64 8.68H6.24C6.1 8.68 6.08 8.59 6.08 8.55C6.06685 8.05254 6.19143 7.56111 6.44 7.13C6.7939 6.70483 7.22053 6.34592 7.7 6.07C7.85 5.97 7.91 5.86 8 5.74C8.1789 5.53604 8.27919 5.27496 8.28285 5.00369C8.28652 4.73241 8.19332 4.46872 8.02 4.26C7.8 4 7.56 3.86 7.1 3.86C6.65 3.86 6.27 4.09 6.08 4.38C5.89 4.68 5.92 5.01 5.92 5.32H4.2C4.2 4.15 4.51 3.4 5.18 2.96C5.73838 2.64899 6.37127 2.49682 7.01 2.52C7.89 2.52 8.59 2.68 9.21 3.14C9.79 3.56 10.09 4.16 10.09 4.96C10.09 5.46 9.92 5.86 9.66 6.2C9.51 6.4 9.22 6.67 8.8 6.99H8.79Z" fill="black"/>
</svg>
