<svg width="14" height="14" viewBox="0 0 14 14" fill="none" xmlns="http://www.w3.org/2000/svg">
<path d="M7 1C3.73723 1 1 3.76902 1 7C1 10.2628 3.76902 13 7 13C10.268 13 13 10.268 13 7C13 3.732 10.268 1 7 1ZM8.06 10.06C8.04 10.69 7.58 11.08 6.96 11.06C6.39 11.04 5.93 10.63 5.95 10C5.97 9.37 6.45 8.96 7.03 8.98C7.63 9 8.08 9.43 8.06 10.06ZM8.79 6.99L8.32 7.29C8.11347 7.43833 7.95939 7.64843 7.88 7.89C7.83364 8.10379 7.80686 8.32135 7.8 8.54C7.8 8.58 7.77 8.68 7.64 8.68H6.24C6.1 8.68 6.08 8.59 6.08 8.55C6.06685 8.05254 6.19143 7.56111 6.44 7.13C6.7939 6.70483 7.22053 6.34592 7.7 6.07C7.85 5.97 7.91 5.86 8 5.74C8.1789 5.53604 8.27919 5.27496 8.28285 5.00369C8.29192 4.33274 7.7483 3.86 7.1 3.86C6.19751 3.86 5.92 4.55447 5.92 5.32H4.2C4.2 4.15 4.51 3.4 5.18 2.96C5.73838 2.64899 6.37127 2.49682 7.01 2.52C7.89 2.52 8.59 2.68 9.21 3.14C9.79 3.56 10.09 4.16 10.09 4.96C10.09 5.46 9.92 5.86 9.66 6.2C9.51 6.4 9.22 6.67 8.8 6.99H8.79Z" fill="black"/>
</svg>
