<svg width="14" height="14" viewBox="0 0 14 14" fill="none" xmlns="http://www.w3.org/2000/svg">
<g id="Icon/HelpSm">
<path id="HelpSm" fill-rule="evenodd" clip-rule="evenodd" d="M6.99967 1C3.68596 1.00018 0.999816 3.68662 1 7.00033C1.00018 10.314 3.68662 13.0002 7.00033 13C10.314 12.9998 13.0002 10.3134 13 6.99967C12.9998 3.68596 10.3134 0.999816 6.99967 1ZM8.06045 10.0591C8.04281 10.6904 7.57546 11.0793 6.96879 11.0617C6.38769 11.044 5.93092 10.6296 5.94855 9.99559C5.96619 9.3651 6.44765 8.96389 7.02875 8.98152C7.63807 9.00004 8.08161 9.42859 8.06045 10.0591ZM8.32129 7.29812L8.78962 6.98752C9.21084 6.66918 9.50226 6.40676 9.65156 6.20285C9.90571 5.8673 10.0834 5.4526 10.0834 4.95788C10.0834 4.156 9.78041 3.56148 9.20544 3.13989C8.58427 2.68303 7.88044 2.52472 6.99533 2.52472C6.32083 2.52472 5.62774 2.6555 5.17452 2.95663C4.50357 3.39887 4.18632 4.14912 4.18632 5.3244H5.92455C5.92455 5.28537 5.92405 5.24587 5.92354 5.20605C5.92001 4.92813 5.91628 4.63493 6.08185 4.38056C6.27113 4.09061 6.64964 3.8695 7.10286 3.8695C7.56319 3.8695 7.80224 3.99683 8.02352 4.26355C8.2128 4.49155 8.2839 4.76429 8.2839 5.0508C8.2839 5.30031 8.15593 5.53261 7.99863 5.7391C7.9872 5.75524 7.97611 5.77123 7.96512 5.78706C7.89411 5.88938 7.82757 5.98524 7.70367 6.07465C7.70367 6.07465 6.76879 6.61411 6.43643 7.12518C6.19026 7.50547 6.10406 7.97954 6.08362 8.55341C6.07918 8.59471 6.09695 8.67731 6.24358 8.67731H7.63968C7.77209 8.67731 7.79698 8.58439 7.80053 8.54309C7.80764 8.33229 7.83608 8.01739 7.87518 7.89608C7.95071 7.66808 8.0929 7.46761 8.32129 7.29812Z" fill="black"/>
</g>
</svg>
