<svg width="19" height="18" viewBox="0 0 19 18" fill="none" xmlns="http://www.w3.org/2000/svg">
<path d="M2.99999 9C3.00107 7.22563 3.59201 5.50197 4.67985 4.10018C5.76769 2.6984 7.29069 1.69805 9.00924 1.25651C10.7278 0.814966 12.5444 0.957294 14.1732 1.6611C15.802 2.3649 17.1506 3.59024 18.0069 5.14434C18.8631 6.69844 19.1784 8.49311 18.9031 10.246C18.6278 11.9989 17.7776 13.6105 16.4862 14.8273C15.1948 16.0442 13.5355 16.7971 11.7694 16.9678C10.0032 17.1384 8.23048 16.7171 6.72999 15.77L8.19999 14.3C9.35976 14.9119 10.6881 15.1271 11.9817 14.9125C13.2753 14.698 14.4631 14.0655 15.3632 13.1119C16.2633 12.1584 16.8262 10.9362 16.9659 9.6323C17.1055 8.32844 16.8142 7.01475 16.1364 5.89218C15.4586 4.76961 14.4317 3.9 13.2129 3.41637C11.994 2.93274 10.6503 2.86174 9.3872 3.21422C8.12415 3.56669 7.01135 4.32324 6.21905 5.36813C5.42674 6.41301 4.99855 7.68869 4.99999 9L8.00999 8.99L4.00999 12.99L0.00999451 8.99H3.00999L2.99999 9ZM9.99999 5H11.01L11 9.36L14.22 11.46L13.62 12.39L9.99999 10V5Z" fill="black"/>
</svg>
