<svg width="19" height="18" viewBox="0 0 19 18" fill="none" xmlns="http://www.w3.org/2000/svg">
<g id="Icon/History">
<g id="History">
<path d="M8 9H5C5 5.68629 7.68629 3 11 3C14.3137 3 17 5.68629 17 9C17 12.3137 14.3137 15 11 15C9.98663 15 9.03193 14.7488 8.19479 14.3052L6.73223 15.7678C7.96734 16.5483 9.43092 17 11 17C15.4183 17 19 13.4183 19 9C19 4.58172 15.4183 1 11 1C6.58172 1 3 4.58172 3 9H0L4 13L8 9Z" fill="black"/>
<path d="M10 10V5L11.0134 5.00726L11 9.35126L14.2245 11.4567L13.6179 12.3824L10 10Z" fill="black"/>
</g>
</g>
</svg>
