<svg width="18" height="18" viewBox="0 0 18 18" fill="none" xmlns="http://www.w3.org/2000/svg">
<path fill-rule="evenodd" clip-rule="evenodd" d="M14 8.00002C13.433 7.99004 12.8804 7.81954 12.4063 7.50829C11.9322 7.19704 11.5561 6.7578 11.3215 6.24148C11.0869 5.72517 11.0035 5.15293 11.0809 4.59112C11.1582 4.02932 11.3933 3.50095 11.7587 3.06729C12.1242 2.63362 12.6051 2.31243 13.1456 2.14094C13.6862 1.96945 14.2643 1.95469 14.8129 2.09838C15.3615 2.24206 15.8581 2.5383 16.2452 2.95276C16.6323 3.36721 16.894 3.8829 17 4.44002C17.0805 4.83676 17.08 5.2457 16.9983 5.64221C16.9167 6.03872 16.7556 6.4146 16.5248 6.74722C16.294 7.07983 15.9983 7.3623 15.6555 7.5776C15.3127 7.79291 14.9298 7.9366 14.53 8.00002C14.3536 8.01454 14.1763 8.01454 14 8.00002ZM14 3.00002C13.6835 3.00421 13.3725 3.08344 13.0927 3.23121C12.8128 3.37897 12.5719 3.59106 12.39 3.85002C12.2407 4.05911 12.1354 4.29629 12.0804 4.54724C12.0254 4.79818 12.0218 5.05767 12.07 5.31002C12.1529 5.68152 12.3401 6.02164 12.6097 6.29043C12.8792 6.55921 13.2198 6.7455 13.5916 6.8274C13.9633 6.90931 14.3507 6.88344 14.7082 6.75282C15.0658 6.6222 15.3786 6.39227 15.61 6.09002C15.7593 5.88094 15.8646 5.64376 15.9196 5.39281C15.9746 5.14187 15.9781 4.88237 15.93 4.63002C15.8449 4.17776 15.6065 3.76867 15.2549 3.47173C14.9033 3.1748 14.4601 3.0082 14 3.00002Z" fill="#F75D37"/>
<path d="M3.49998 14.08C3.36737 14.08 3.24019 14.0273 3.14643 13.9336C3.05266 13.8398 2.99998 13.7126 2.99998 13.58V9.24L2.22998 10C2.13651 10.0916 2.01086 10.1429 1.87998 10.1429C1.7491 10.1429 1.62344 10.0916 1.52998 10C1.48311 9.95352 1.44592 9.89822 1.42053 9.83729C1.39515 9.77636 1.38208 9.71101 1.38208 9.645C1.38208 9.579 1.39515 9.51364 1.42053 9.45271C1.44592 9.39178 1.48311 9.33648 1.52998 9.29L3.14998 7.68C3.22 7.61187 3.30811 7.56529 3.40384 7.54579C3.49957 7.52629 3.59889 7.53469 3.68998 7.57C3.77676 7.60542 3.85184 7.66451 3.90665 7.74054C3.96147 7.81657 3.9938 7.90648 3.99998 8V13.54C4.00551 13.6089 3.99668 13.6783 3.97404 13.7436C3.95141 13.809 3.91546 13.869 3.86846 13.9197C3.82147 13.9705 3.76446 14.0109 3.70103 14.0385C3.63761 14.0661 3.56915 14.0802 3.49998 14.08Z" fill="#F75D37"/>
<path fill-rule="evenodd" clip-rule="evenodd" d="M6.40631 10.5083C6.88037 10.8195 7.43295 10.99 7.99998 11C8.17635 11.0145 8.35361 11.0145 8.52998 11C8.92981 10.9366 9.31267 10.7929 9.65551 10.5776C9.99834 10.3623 10.294 10.0798 10.5248 9.74722C10.7556 9.4146 10.9167 9.03872 10.9983 8.64221C11.08 8.2457 11.0805 7.83676 11 7.44002C10.894 6.8829 10.6323 6.36721 10.2452 5.95276C9.85814 5.5383 9.3615 5.24206 8.81289 5.09838C8.26428 4.95469 7.68618 4.96945 7.14562 5.14094C6.60506 5.31243 6.12418 5.63362 5.75873 6.06729C5.39328 6.50095 5.15824 7.02932 5.08086 7.59112C5.00347 8.15293 5.08691 8.72517 5.32151 9.24148C5.5561 9.7578 5.93224 10.197 6.40631 10.5083ZM7.09265 6.2312C7.37254 6.08344 7.6835 6.00421 7.99998 6.00002C8.4601 6.0082 8.90332 6.1748 9.25491 6.47173C9.60649 6.76867 9.84492 7.17776 9.92998 7.63002C9.97812 7.88238 9.97458 8.14187 9.91957 8.39281C9.86457 8.64376 9.75925 8.88094 9.60998 9.09002C9.37859 9.39227 9.06575 9.6222 8.70822 9.75282C8.35069 9.88344 7.9633 9.90931 7.59157 9.8274C7.21984 9.7455 6.87921 9.55921 6.60968 9.29043C6.34015 9.02164 6.15292 8.68153 6.06998 8.31002C6.02184 8.05767 6.02538 7.79818 6.08038 7.54724C6.13539 7.29629 6.24071 7.05911 6.38998 6.85002C6.57194 6.59106 6.81276 6.37897 7.09265 6.2312Z" fill="#F75D37"/>
<path d="M6.81 15C6.72027 14.9992 6.63234 14.9747 6.55508 14.9291C6.47783 14.8834 6.41398 14.8182 6.37 14.74C6.3387 14.6816 6.3193 14.6176 6.31293 14.5517C6.30656 14.4858 6.31333 14.4193 6.33287 14.3561C6.35241 14.2928 6.38431 14.2341 6.42673 14.1832C6.46916 14.1324 6.52125 14.0905 6.58 14.06L15.72 9.18996C15.8384 9.12943 15.9757 9.11752 16.1027 9.15674C16.2297 9.19597 16.3364 9.28324 16.4 9.39996C16.4313 9.4583 16.4507 9.52228 16.4571 9.58818C16.4634 9.65408 16.4567 9.72059 16.4371 9.78385C16.4176 9.84711 16.3857 9.90586 16.3433 9.95669C16.3008 10.0075 16.2487 10.0494 16.19 10.08L7.05 15C6.97105 15.0183 6.88895 15.0183 6.81 15Z" fill="#F75D37"/>
<path d="M10.2545 15.7458C10.3456 15.8127 10.4571 15.846 10.57 15.84C10.6536 15.8392 10.7359 15.8187 10.81 15.78L15.62 13.14C15.6778 13.1079 15.7287 13.0646 15.7697 13.0128C15.8108 12.9609 15.8413 12.9015 15.8594 12.8379C15.8775 12.7743 15.8829 12.7077 15.8753 12.6421C15.8677 12.5764 15.8472 12.5128 15.815 12.455C15.7828 12.3972 15.7396 12.3464 15.6878 12.3053C15.6359 12.2642 15.5765 12.2338 15.5129 12.2157C15.4493 12.1975 15.3827 12.1921 15.317 12.1998C15.2513 12.2074 15.1878 12.2278 15.13 12.26L10.33 14.91C10.2283 14.9595 10.1469 15.0425 10.0995 15.1452C10.052 15.2478 10.0416 15.3637 10.0698 15.4731C10.0981 15.5826 10.1633 15.6789 10.2545 15.7458Z" fill="#F75D37"/>
</svg>
