<svg width="18" height="18" viewBox="0 0 18 18" fill="none" xmlns="http://www.w3.org/2000/svg">
<path d="M1 3C1 1.9 1.9 1 3 1H15C16.0893 1 17 1.91067 17 3V15C17 16.0893 16.0893 17 15 17H3C1.91067 17 1 16.0893 1 15V3ZM5.5 10.5L2 15H16L11.5 9L8 13.51L5.5 10.5ZM5.5 6C5.89782 6 6.27936 5.84196 6.56066 5.56066C6.84196 5.27936 7 4.89782 7 4.5C7 4.10218 6.84196 3.72064 6.56066 3.43934C6.27936 3.15804 5.89782 3 5.5 3C5.10218 3 4.72064 3.15804 4.43934 3.43934C4.15804 3.72064 4 4.10218 4 4.5C4 4.89782 4.15804 5.27936 4.43934 5.56066C4.72064 5.84196 5.10218 6 5.5 6Z" fill="black"/>
</svg>
