<svg width="20" height="18" viewBox="0 0 20 18" fill="none" xmlns="http://www.w3.org/2000/svg">
<path fill-rule="evenodd" clip-rule="evenodd" d="M4.63 0.99998H15.19C16.0618 0.978888 16.8468 1.52514 17.13 2.34998L20 10.79V15C20 16.1045 19.1046 17 18 17H2C0.89543 17 0 16.1045 0 15V10.79L2.78 2.34998C3.03141 1.5412 3.78307 0.992684 4.63 0.99998ZM12.91 13L14.91 11H17.86L15.42 3.67998C15.2824 3.27267 14.8999 2.99887 14.47 2.99998H5.35C4.92008 2.99887 4.53757 3.27267 4.4 3.67998L1.96 11H4.91L6.91 13H12.91Z" fill="black"/>
</svg>
