<svg width="20" height="18" viewBox="0 0 20 18" fill="none" xmlns="http://www.w3.org/2000/svg">
<path fill-rule="evenodd" clip-rule="evenodd" d="M4.63 1.00001H15.19C16.0618 0.978918 16.8468 1.52517 17.13 2.35001L20 10.79V15C20 16.1046 19.1046 17 18 17H2C0.89543 17 0 16.1046 0 15V10.79L2.78 2.35001C3.03141 1.54123 3.78307 0.992715 4.63 1.00001ZM12.91 13L14.91 11H17.86L15.42 3.68001C15.2824 3.2727 14.8999 2.9989 14.47 3.00001H5.35C4.92008 2.9989 4.53757 3.2727 4.4 3.68001L1.96 11H4.91L6.91 13H12.91Z" fill="black"/>
</svg>
