<svg width="15" height="14" viewBox="0 0 15 14" fill="none" xmlns="http://www.w3.org/2000/svg">
<path fill-rule="evenodd" clip-rule="evenodd" d="M4 1.00055H11C11.875 1.00059 12.6513 1.60933 13 2.35055L15 7.99996V11.0005C15 12.1051 14.1046 13.0005 13 13.0005H2C0.89543 13.0005 0 12.1051 0 11.0005V7.99996L2 2.35055C2.29813 1.65621 3.15307 0.993252 4 1.00055ZM10 10.0005L12 7.99996L13 8.00055L11.5437 3.3675C11.3875 3.01504 11.0237 2.68639 10.5938 2.6875H4.5C4.07008 2.68639 3.7 2.99941 3.5 3.3675L1.96 8.00055L3 7.99996L5 10.0005H10Z" fill="black"/>
</svg>
