<svg width="18" height="18" viewBox="0 0 18 18" fill="none" xmlns="http://www.w3.org/2000/svg">
<path d="M9 1C6.82667 1 6.55533 1.01 5.702 1.048C4.85 1.088 4.27 1.222 3.76 1.42C3.234 1.624 2.78733 1.898 2.34267 2.34267C1.898 2.78733 1.62333 3.23333 1.42 3.76C1.222 4.27 1.08733 4.85 1.048 5.702C1.008 6.55533 1 6.82667 1 9C1 11.1733 1.01 11.4447 1.048 12.298C1.088 13.1493 1.222 13.73 1.42 14.24C1.624 14.7653 1.898 15.2127 2.34267 15.6573C2.78733 16.1013 3.23333 16.3767 3.76 16.58C4.27067 16.7773 4.85067 16.9127 5.702 16.952C6.55533 16.992 6.82667 17 9 17C11.1733 17 11.4447 16.99 12.298 16.952C13.1493 16.912 13.73 16.7773 14.24 16.58C14.7653 16.376 15.2127 16.1013 15.6573 15.6573C16.1013 15.2127 16.3767 14.7673 16.58 14.24C16.7773 13.73 16.9127 13.1493 16.952 12.298C16.992 11.4447 17 11.1733 17 9C17 6.82667 16.99 6.55533 16.952 5.702C16.912 4.85067 16.7773 4.26933 16.58 3.76C16.376 3.234 16.1013 2.78733 15.6573 2.34267C15.2127 1.898 14.7673 1.62333 14.24 1.42C13.73 1.222 13.1493 1.08733 12.298 1.048C11.4447 1.008 11.1733 1 9 1ZM9 2.42C11.1353 2.42 11.39 2.45067 12.2333 2.48733C13.0133 2.524 13.4367 2.65333 13.718 2.764C14.0927 2.90867 14.358 3.082 14.6393 3.36133C14.9187 3.64133 15.092 3.90733 15.2367 4.282C15.346 4.56333 15.4767 4.98667 15.512 5.76667C15.55 6.61067 15.5587 6.864 15.5587 9C15.5587 11.136 15.5487 11.39 15.5093 12.2333C15.4687 13.0133 15.3387 13.4367 15.2287 13.718C15.0793 14.0927 14.9093 14.358 14.6293 14.6393C14.35 14.9187 14.08 15.092 13.7093 15.2367C13.4293 15.346 12.9993 15.4767 12.2193 15.512C11.37 15.55 11.12 15.5587 8.98 15.5587C6.83933 15.5587 6.58933 15.5487 5.74067 15.5093C4.96 15.4687 4.53 15.3387 4.25 15.2287C3.87067 15.0793 3.61 14.9093 3.33067 14.6293C3.05 14.35 2.87067 14.08 2.73067 13.7093C2.62067 13.4293 2.49133 12.9993 2.45067 12.2193C2.42067 11.3793 2.41 11.12 2.41 8.99C2.41 6.85933 2.42067 6.59933 2.45067 5.74933C2.49133 4.96933 2.62067 4.54 2.73067 4.26C2.87067 3.88 3.05 3.62 3.33067 3.33933C3.61 3.06 3.87067 2.88 4.25 2.74067C4.53 2.63 4.95067 2.5 5.73067 2.46C6.58067 2.43 6.86067 2.42 9 2.42ZM9 4.892C6.73 4.892 4.892 6.732 4.892 9C4.892 11.27 6.732 13.108 9 13.108C11.27 13.108 13.108 11.268 13.108 9C13.108 6.73 11.268 4.892 9 4.892ZM9 11.6667C7.52667 11.6667 6.33333 10.4733 6.33333 9C6.33333 7.52667 7.52667 6.33333 9 6.33333C10.4733 6.33333 11.6667 7.52667 11.6667 9C11.6667 10.4733 10.4733 11.6667 9 11.6667ZM14.2307 4.73C14.2307 5.26 13.8 5.69 13.2707 5.69C12.7407 5.69 12.3107 5.25933 12.3107 4.73C12.3107 4.20067 12.7413 3.77067 13.2707 3.77067C13.7993 3.77 14.2307 4.20067 14.2307 4.73Z" fill="url(#paint0_linear)"/>
<defs>
<linearGradient id="paint0_linear" x1="1.5" y1="1" x2="17" y2="17" gradientUnits="userSpaceOnUse">
<stop stop-color="#EC0D2B"/>
<stop offset="1" stop-color="#BF179F"/>
</linearGradient>
</defs>
</svg>
