<svg width="18" height="18" viewBox="0 0 18 18" fill="none" xmlns="http://www.w3.org/2000/svg">
<path fill-rule="evenodd" clip-rule="evenodd" d="M5.79707 11C5.73231 10.3643 5.7 9.69336 5.7 9C5.7 8.30664 5.73231 7.6357 5.79707 7H3.34141C3.12031 7.62556 3 8.29873 3 9C3 9.70127 3.12031 10.3744 3.34141 11H5.79707ZM5.9309 12H3.80269C4.45843 13.1336 5.47437 14.0327 6.69401 14.5409C6.35031 13.8478 6.09615 12.9816 5.9309 12ZM12.2029 11H14.6586C14.8797 10.3744 15 9.70127 15 9C15 8.29873 14.8797 7.62556 14.6586 7H12.2029C12.2677 7.6357 12.3 8.30664 12.3 9C12.3 9.69336 12.2677 10.3643 12.2029 11ZM12.0691 12C11.9038 12.9816 11.6497 13.8478 11.306 14.5409C12.5256 14.0327 13.5416 13.1336 14.1973 12H12.0691ZM7.1138 11H10.8862C10.9599 10.3744 11 9.70127 11 9C11 8.29873 10.9599 7.62556 10.8862 7H7.1138C7.0401 7.62556 7 8.29873 7 9C7 9.70127 7.0401 10.3744 7.1138 11ZM7.26756 12C7.61337 13.7934 8.25972 15 9 15C9.74028 15 10.3866 13.7934 10.7324 12H7.26756ZM5.9309 6C6.09615 5.01844 6.35031 4.15217 6.69401 3.45913C5.47437 3.9673 4.45843 4.86643 3.80269 6H5.9309ZM12.0691 6H14.1973C13.5416 4.86643 12.5256 3.9673 11.306 3.45913C11.6497 4.15217 11.9038 5.01844 12.0691 6ZM7.26756 6H10.7324C10.3866 4.2066 9.74028 3 9 3C8.25972 3 7.61337 4.2066 7.26756 6ZM9 17C4.58172 17 1 13.4183 1 9C1 4.58172 4.58172 1 9 1C13.4183 1 17 4.58172 17 9C17 13.4183 13.4183 17 9 17Z" fill="black"/>
</svg>
