<svg width="18" height="18" viewBox="0 0 18 18" fill="none" xmlns="http://www.w3.org/2000/svg">
<g id="Icon/International">
<g id="International">
<path fill-rule="evenodd" clip-rule="evenodd" d="M9 17C13.4183 17 17 13.4183 17 9C17 4.58172 13.4183 1 9 1C4.58172 1 1 4.58172 1 9C1 13.4183 4.58172 17 9 17ZM11.306 14.5409C13.4752 13.6371 15 11.4966 15 9C15 6.50339 13.4752 4.36293 11.306 3.45913C11.9702 4.79849 12.3 6.78485 12.3 9C12.3 11.2152 11.9702 13.2015 11.306 14.5409ZM6.69401 14.5409C6.02977 13.2015 5.7 11.2152 5.7 9C5.7 6.78485 6.02977 4.79849 6.69401 3.45913C4.52484 4.36293 3 6.50339 3 9C3 11.4966 4.52484 13.6371 6.69401 14.5409ZM9 15C10.1046 15 11 12.3137 11 9C11 5.68629 10.1046 3 9 3C7.89543 3 7 5.68629 7 9C7 12.3137 7.89543 15 9 15Z" fill="black"/>
<path d="M2 6H16V7H2V6Z" fill="black"/>
<path d="M2 11H16V12H2V11Z" fill="black"/>
</g>
</g>
</svg>
