<svg width="18" height="18" viewBox="0 0 18 18" fill="none" xmlns="http://www.w3.org/2000/svg">
<path fill-rule="evenodd" clip-rule="evenodd" d="M5.93145 12C6.09745 12.9812 6.35317 13.8463 6.7 14.54C5.60564 14.0849 4.67058 13.3158 4.01281 12.3299C3.94079 12.2219 3.87245 12.1119 3.80784 12H5.93145ZM7.26888 12C7.61579 13.7925 8.26301 15 9 15C9.73699 15 10.3842 13.7925 10.7311 12H7.26888ZM10.8855 11H7.11446C7.04037 10.3743 7 9.70103 7 9C7 8.29897 7.04037 7.62575 7.11446 7H10.8855C10.9596 7.62575 11 8.29897 11 9C11 9.70103 10.9596 10.3743 10.8855 11ZM12.0686 12C11.9026 12.9812 11.6468 13.8463 11.3 14.54C12.3944 14.0849 13.3294 13.3158 13.9872 12.3299C14.0592 12.2219 14.1276 12.1119 14.1922 12H12.0686ZM14.6529 11H12.2029C12.2677 10.365 12.3 9.69421 12.3 9C12.3 8.30579 12.2677 7.63504 12.2029 7H14.6529C14.8788 7.63899 14.996 8.31506 14.996 9C14.996 9.68494 14.8788 10.361 14.6529 11ZM14.1922 6C14.1276 5.8881 14.0592 5.77808 13.9872 5.67013C13.3294 4.68418 12.3944 3.91513 11.3 3.46C11.6468 4.15366 11.9026 5.01882 12.0686 6H14.1922ZM10.7311 6C10.3842 4.20752 9.73699 3 9 3C8.26301 3 7.61579 4.20752 7.26888 6H10.7311ZM5.93145 6C6.09745 5.01882 6.35317 4.15366 6.7 3.46C5.60564 3.91513 4.67058 4.68418 4.01281 5.67013C3.94079 5.77808 3.87245 5.8881 3.80784 6H5.93145ZM3.34714 7C3.12123 7.63899 3.004 8.31506 3.004 9C3.004 9.68494 3.12123 10.361 3.34714 11H5.79711C5.73227 10.365 5.7 9.69421 5.7 9C5.7 8.30579 5.73227 7.63504 5.79711 7H3.34714ZM3.34315 14.6569C4.84344 16.1571 6.87827 17 9 17C11.1217 17 13.1566 16.1571 14.6569 14.6569C16.1571 13.1566 17 11.1217 17 9C17 6.87827 16.1571 4.84344 14.6569 3.34315C13.1566 1.84285 11.1217 1 9 1C6.87827 1 4.84344 1.84285 3.34315 3.34315C1.84285 4.84344 1 6.87827 1 9C1 11.1217 1.84285 13.1566 3.34315 14.6569Z" fill="black"/>
</svg>
