<svg width="14" height="14" viewBox="0 0 14 14" fill="none" xmlns="http://www.w3.org/2000/svg">
<path fill-rule="evenodd" clip-rule="evenodd" d="M13 7C13 10.3137 10.3137 13 7 13C3.68629 13 1 10.3137 1 7C1 3.68629 3.68629 1 7 1C10.3137 1 13 3.68629 13 7ZM7.01058 11.6C7.14571 11.437 7.31193 11.1418 7.47084 10.6899C7.63416 10.2255 7.7702 9.65185 7.86344 9H6.13656C6.2298 9.65185 6.36584 10.2255 6.52916 10.6899C6.68807 11.1418 6.85429 11.437 6.98942 11.6L7 11.6L7.01058 11.6ZM7.96712 8C7.98858 7.67833 8 7.34408 8 7C8 6.65592 7.98858 6.32167 7.96712 6H6.03288C6.01142 6.32167 6 6.65592 6 7C6 7.34408 6.01142 7.67833 6.03288 8H7.96712ZM8.87284 9C8.7462 9.9586 8.53115 10.7942 8.25595 11.4264C9.52881 11.066 10.5772 10.1713 11.1436 9H8.87284ZM11.491 8C11.5624 7.67806 11.6 7.34342 11.6 7C11.6 6.65658 11.5624 6.32194 11.491 6H8.96919C8.98944 6.32465 9 6.65882 9 7C9 7.34118 8.98944 7.67535 8.96919 8H11.491ZM5.03081 8C5.01056 7.67535 5 7.34118 5 7C5 6.65882 5.01056 6.32465 5.03081 6H2.509C2.43763 6.32194 2.4 6.65658 2.4 7C2.4 7.34342 2.43763 7.67806 2.509 8H5.03081ZM2.85637 9C3.42276 10.1713 4.47119 11.066 5.74405 11.4264C5.46885 10.7942 5.2538 9.9586 5.12716 9H2.85637ZM6.52916 3.31007C6.36584 3.77449 6.2298 4.34815 6.13656 5H7.86344C7.7702 4.34815 7.63416 3.77449 7.47084 3.31007C7.31193 2.85816 7.14571 2.56304 7.01058 2.40001L7 2.4L6.98942 2.40001C6.85429 2.56304 6.68807 2.85816 6.52916 3.31007ZM8.87284 5H11.1436C10.5772 3.82868 9.52881 2.934 8.25595 2.57355C8.53115 3.20581 8.7462 4.0414 8.87284 5ZM2.85637 5H5.12716C5.2538 4.0414 5.46885 3.20581 5.74405 2.57355C4.47119 2.934 3.42276 3.82868 2.85637 5Z" fill="black"/>
</svg>
