<svg width="18" height="18" viewBox="0 0 18 18" fill="none" xmlns="http://www.w3.org/2000/svg">
<path d="M16.3598 1.00012H8.77509C8.77509 1.90776 9.13564 2.77822 9.77744 3.42002C10.0952 3.7378 10.4725 3.98988 10.8877 4.16187C11.3029 4.33385 11.7479 4.42237 12.1973 4.42237H13.5946V5.77237C13.5952 6.67806 13.9548 7.54659 14.5945 8.18764C15.2343 8.82869 16.1021 9.18999 17.0078 9.19237V1.65937C17.0084 1.48628 16.9407 1.31995 16.8194 1.19651C16.6981 1.07306 16.5329 1.00249 16.3598 1.00012Z" fill="#2684FF"/>
<path d="M12.3256 5.00446H4.74084C4.74084 5.91209 5.1014 6.78256 5.7432 7.42435C6.385 8.06615 7.25546 8.42671 8.16309 8.42671H9.56035V9.77671C9.56094 10.6842 9.92169 11.5543 10.5634 12.1959C11.205 12.8376 12.0751 13.1984 12.9826 13.199V5.66146C12.9826 5.57518 12.9656 5.48974 12.9326 5.41003C12.8996 5.33032 12.8512 5.25789 12.7902 5.19689C12.7292 5.13588 12.6567 5.08748 12.577 5.05447C12.4973 5.02145 12.4119 5.00446 12.3256 5.00446Z" fill="url(#paint0_linear)"/>
<path d="M8.35938 9.00092H0.765625C0.765919 9.4512 0.855012 9.897 1.0278 10.3128C1.2006 10.7286 1.4537 11.1063 1.77261 11.4241C2.09153 11.742 2.47001 11.9939 2.88638 12.1653C3.30275 12.3367 3.74885 12.4243 4.19913 12.4232H5.59637V13.7732C5.59637 14.6808 5.95693 15.5513 6.59873 16.1931C7.24053 16.8349 8.11099 17.1954 9.01863 17.1954V9.66017C9.01863 9.48532 8.94917 9.31764 8.82554 9.19401C8.7019 9.07037 8.53422 9.00092 8.35938 9.00092Z" fill="url(#paint1_linear)"/>
<defs>
<linearGradient id="paint0_linear" x1="12.8228" y1="5.01796" x2="9.59635" y2="8.34346" gradientUnits="userSpaceOnUse">
<stop offset="0.18" stop-color="#0052CC"/>
<stop offset="1" stop-color="#2684FF"/>
</linearGradient>
<linearGradient id="paint1_linear" x1="346.649" y1="327.029" x2="210.843" y2="460.172" gradientUnits="userSpaceOnUse">
<stop offset="0.18" stop-color="#0052CC"/>
<stop offset="1" stop-color="#2684FF"/>
</linearGradient>
</defs>
</svg>
