<svg width="18" height="18" viewBox="0 0 18 18" fill="none" xmlns="http://www.w3.org/2000/svg">
<path fill-rule="evenodd" clip-rule="evenodd" d="M17 5.5C17 7.98528 14.9853 10 12.5 10C12.0454 10 11.6065 9.93258 11.1928 9.8072L10 11H8V13H6V15H4V17H1V13.5L8.09171 6.40829C8.03158 6.11492 8 5.81115 8 5.5C8 3.01472 10.0147 1 12.5 1C14.9853 1 17 3.01472 17 5.5ZM13 6.5C13.8284 6.5 14.5 5.82843 14.5 5C14.5 4.17157 13.8284 3.5 13 3.5C12.1716 3.5 11.5 4.17157 11.5 5C11.5 5.82843 12.1716 6.5 13 6.5Z" fill="black"/>
</svg>
