<svg width="18" height="18" viewBox="0 0 18 18" fill="none" xmlns="http://www.w3.org/2000/svg">
<path fill-rule="evenodd" clip-rule="evenodd" d="M8.82929 10C8.41746 11.1652 7.30622 12 6 12C4.34315 12 3 10.6569 3 9C3 7.34315 4.34315 6 6 6C7.30622 6 8.41746 6.83481 8.82929 8H15V10H13V12H11V10H8.82929ZM6 10.3086C6.72272 10.3086 7.30859 9.72272 7.30859 9C7.30859 8.27728 6.72272 7.69141 6 7.69141C5.27728 7.69141 4.69141 8.27728 4.69141 9C4.69141 9.72272 5.27728 10.3086 6 10.3086Z" fill="black"/>
</svg>
