<svg width="14" height="14" viewBox="0 0 14 14" fill="none" xmlns="http://www.w3.org/2000/svg">
<path fill-rule="evenodd" clip-rule="evenodd" d="M13 4.5C13 6.433 11.433 8 9.5 8C9.15304 8 8.81788 7.94952 8.50145 7.85549L7.5 9H6V11H4V13H1V10.5L6.053 5.11014C6.01817 4.912 6 4.70812 6 4.5C6 2.567 7.567 1 9.5 1C11.433 1 13 2.567 13 4.5ZM10.0049 5.37988C10.7643 5.37988 11.3799 4.76427 11.3799 4.00488C11.3799 3.24549 10.7643 2.62988 10.0049 2.62988C9.24549 2.62988 8.62988 3.24549 8.62988 4.00488C8.62988 4.76427 9.24549 5.37988 10.0049 5.37988Z" fill="black"/>
</svg>
