<svg width="18" height="18" viewBox="0 0 18 18" fill="none" xmlns="http://www.w3.org/2000/svg">
<path d="M15.2488 13.7544L12.5037 11.9948L9.02692 14.004L9 17.75L15.2488 13.7544Z" fill="#9E2831"/>
<path fill-rule="evenodd" clip-rule="evenodd" d="M8 17.75L8.00519 14.0018L4.52698 11.9941L1.74585 13.7485L8 17.75Z" fill="#BB3A84"/>
<path fill-rule="evenodd" clip-rule="evenodd" d="M12 11V7L8.5 5L5 7V11L8.5 13L12 11Z" fill="#F8C300"/>
<path fill-rule="evenodd" clip-rule="evenodd" d="M1.02549 12.8693L4 11V7L1 5L1.02549 12.8693Z" fill="#3941BF"/>
<path fill-rule="evenodd" clip-rule="evenodd" d="M13.0178 6.99303V11.007L16 13V5L13.0178 6.99303Z" fill="#D08935"/>
<path fill-rule="evenodd" clip-rule="evenodd" d="M1.7511 4.24951L4.51938 6.00736L7.99468 3.99967L8 0.25L1.7511 4.24951Z" fill="#3292BB"/>
<path fill-rule="evenodd" clip-rule="evenodd" d="M12.5 6L15.25 4.2489L9 0.25V4L12.5 6Z" fill="#90B636"/>
</svg>
