<svg width="18" height="18" viewBox="0 0 18 18" fill="none" xmlns="http://www.w3.org/2000/svg">
<g id="Icon/Lightbulb">
<path id="Lightbulb" fill-rule="evenodd" clip-rule="evenodd" d="M6 15C6 15 6.00305 14.0013 6 13.33C3.61955 12.2125 2 9.80371 2 7C2 3.13401 5.13401 0 9 0C12.866 0 16 3.13401 16 7C16 9.80371 14.3813 12.2175 12.0008 13.335C11.9993 14.0041 12 15 12 15H6ZM10 13C10.1996 12.1109 11.133 11.6125 11.4454 11.4457C11.4818 11.4263 11.5099 11.4113 11.5272 11.4008C13.0067 10.5047 14 8.83944 14 7C14 4.23858 11.7614 2 9 2C6.23858 2 4 4.23858 4 7C4 8.86506 5.02115 10.5511 6.53485 11.4377C6.68152 11.5237 7.73651 12.197 8 13H10ZM10 18C11.1046 18 12 17.1046 12 16H6C6 17.1046 6.89543 18 8 18H10Z" fill="black"/>
</g>
</svg>
