<svg width="18" height="18" viewBox="0 0 18 18" fill="none" xmlns="http://www.w3.org/2000/svg">
<path d="M9.5 0.5C9.5 0.223858 9.27614 0 9 0C8.72386 0 8.5 0.223858 8.5 0.5V0.75C8.5 1.02614 8.72386 1.25 9 1.25C9.27614 1.25 9.5 1.02614 9.5 0.75V0.5Z" fill="black" fill-opacity="0.4"/>
<path d="M15.1036 2.60355C15.2988 2.40829 15.2988 2.09171 15.1036 1.89645C14.9083 1.70118 14.5917 1.70118 14.3964 1.89645L14.1464 2.14645C13.9512 2.34171 13.9512 2.65829 14.1464 2.85355C14.3417 3.04882 14.6583 3.04882 14.8536 2.85355L15.1036 2.60355Z" fill="black" fill-opacity="0.4"/>
<path d="M1 7.5C1 7.22386 1.22386 7 1.5 7H2C2.27614 7 2.5 7.22386 2.5 7.5C2.5 7.77614 2.27614 8 2 8H1.5C1.22386 8 1 7.77614 1 7.5Z" fill="black" fill-opacity="0.4"/>
<path d="M15.5 7.5C15.5 7.22386 15.7239 7 16 7H16.5C16.7761 7 17 7.22386 17 7.5C17 7.77614 16.7761 8 16.5 8H16C15.7239 8 15.5 7.77614 15.5 7.5Z" fill="black" fill-opacity="0.4"/>
<path d="M2.89645 1.89645C3.09171 1.70118 3.40829 1.70118 3.60355 1.89645L3.85355 2.14645C4.04882 2.34171 4.04882 2.65829 3.85355 2.85355C3.65829 3.04882 3.34171 3.04882 3.14645 2.85355L2.89645 2.60355C2.70118 2.40829 2.70118 2.09171 2.89645 1.89645Z" fill="black" fill-opacity="0.4"/>
<path opacity="0.4" d="M7 16H11V17C11 17.5523 10.5523 18 10 18H8C7.44772 18 7 17.5523 7 17V16Z" fill="#3F3F3F"/>
<path fill-rule="evenodd" clip-rule="evenodd" d="M15 8C15 10.4215 13.5655 12.5079 11.5 13.456V14C11.5 14.5523 11.0523 15 10.5 15H7.5C6.94772 15 6.5 14.5523 6.5 14V13.456C4.43447 12.5079 3 10.4215 3 8C3 4.68629 5.68629 2 9 2C12.3137 2 15 4.68629 15 8ZM10.8536 4.14645C10.6583 3.95118 10.3417 3.95118 10.1464 4.14645C9.95118 4.34171 9.95118 4.65829 10.1464 4.85355L12.1464 6.85355C12.3417 7.04882 12.6583 7.04882 12.8536 6.85355C13.0488 6.65829 13.0488 6.34171 12.8536 6.14645L10.8536 4.14645Z" fill="#FFC166"/>
</svg>
