<svg width="14" height="14" viewBox="0 0 14 14" fill="none" xmlns="http://www.w3.org/2000/svg">
<path fill-rule="evenodd" clip-rule="evenodd" d="M12 4.72724C12 1.87647 9.38063 -0.256413 6.45107 0.0253777L6.4366 0.0268763C4.21702 0.27302 2.31766 1.93233 2.03561 4.15141L2.03519 4.15482C1.82029 5.89327 2.60272 7.45797 3.89543 8.42732C4.19328 8.65067 4.32928 8.94227 4.32928 9.2091V9.37969C4.32928 10.3404 5.14698 11 5.99643 11H7.99786C8.8473 11 9.665 10.3404 9.665 9.37969V9.24012C9.665 8.92582 9.80625 8.64522 10.0498 8.46989L10.0555 8.46575C11.2203 7.61477 12 6.27249 12 4.72724ZM4.01987 4.4019C4.17201 3.2119 5.23774 2.1752 6.64985 2.0155C8.55349 1.83623 10 3.20663 10 4.72724C10 5.56931 9.5798 6.33536 8.878 6.8491C8.15808 7.36887 7.74147 8.16182 7.67456 9.00002H6.32159C6.25614 8.11321 5.77833 7.3394 5.09528 6.82721C4.3203 6.24608 3.90191 5.3612 4.01987 4.4019Z" fill="black"/>
<path d="M6 12C5.44772 12 5 12.4477 5 13C5 13.5523 5.44772 14 6 14H8C8.55228 14 9 13.5523 9 13C9 12.4477 8.55228 12 8 12H6Z" fill="black"/>
</svg>
