<svg width="18" height="18" viewBox="0 0 18 18" fill="none" xmlns="http://www.w3.org/2000/svg">
<path fill-rule="evenodd" clip-rule="evenodd" d="M15 6.38373C15 2.61102 11.6684 -0.358251 7.77634 0.0350276L7.76116 0.0366787C4.82724 0.378473 2.40181 2.66689 2.04524 5.61399L2.04486 5.61724C1.77255 7.93126 2.7582 10.0355 4.43731 11.3582C4.92935 11.7458 5.20276 12.2947 5.20276 12.8575V13.1039C5.20276 14.171 6.08555 15 7.12009 15H9.87205C10.9066 15 11.7894 14.171 11.7894 13.1039V12.9023C11.7894 12.2924 12.0533 11.7479 12.4933 11.4151L12.499 11.4108C14.0138 10.2482 15 8.43912 15 6.38373ZM4.03096 5.85261C4.27106 3.87471 5.92362 2.26773 7.98504 2.02413C10.7401 1.75001 13 3.84178 13 6.38373C13 7.77697 12.336 9.01358 11.2837 9.8223C10.3041 10.5649 9.78937 11.7215 9.78937 12.9023V13H7.20276V12.8575C7.20276 11.6283 6.60473 10.5196 5.67491 9.78711C4.51072 8.87004 3.84525 7.43566 4.03096 5.85261Z" fill="black"/>
<path d="M9.99995 18C10.5522 18 10.9999 17.5523 10.9999 17C10.9999 16.4477 10.5522 16 9.99995 16L6.99993 16C6.44765 16 5.99993 16.4477 5.99993 17C5.99993 17.5523 6.44765 18 6.99993 18H9.99995Z" fill="black"/>
</svg>
