<svg width="14" height="14" viewBox="0 0 14 14" fill="none" xmlns="http://www.w3.org/2000/svg">
<path d="M6.01409 6.76664C6.28158 7.29161 6.70839 7.71843 7.23336 7.98591L6.45704 9.50953L6.45585 9.50893C5.83508 9.1924 5.29946 8.73772 4.88789 8.18379C4.73844 7.98265 4.60534 7.76842 4.49047 7.54296C4.05904 6.69623 3.90674 5.73466 4.0554 4.79605C4.20406 3.85744 4.64605 2.98999 5.31802 2.31802C5.98998 1.64606 6.85743 1.20407 7.79604 1.05541C8.73465 0.906746 9.69622 1.05905 10.543 1.49048C11.3897 1.92191 12.0781 2.61032 12.5095 3.45705C12.941 4.30378 13.0933 5.26535 12.9446 6.20396C12.905 6.45388 12.8446 6.69875 12.7647 6.93623C12.5443 7.59065 12.175 8.18894 11.682 8.68199L10.4728 7.47283C10.8894 7.05621 11.1635 6.51839 11.2556 5.93646C11.3478 5.35452 11.2534 4.75834 10.9859 4.23337C10.7184 3.7084 10.2916 3.28158 9.76663 3.0141C9.24166 2.74661 8.64548 2.65218 8.06354 2.74435C7.48161 2.83652 6.94379 3.11056 6.52717 3.52718C6.11055 3.9438 5.83652 4.48162 5.74435 5.06355C5.65218 5.64549 5.7466 6.24167 6.01409 6.76664Z" fill="black"/>
<path d="M6.76663 6.0141L7.54295 4.49047L7.54389 4.49095C8.16476 4.80749 8.70048 5.26221 9.11211 5.81622C9.26156 6.01736 9.39465 6.23159 9.50953 6.45705C9.94096 7.30378 10.0933 8.26535 9.94459 9.20396C9.79593 10.1426 9.35395 11.01 8.68198 11.682C8.01001 12.354 7.14256 12.7959 6.20395 12.9446C5.26535 13.0933 4.30377 12.941 3.45704 12.5095C2.61031 12.0781 1.9219 11.3897 1.49047 10.543C1.05904 9.69623 0.906739 8.73466 1.0554 7.79605C1.09498 7.54613 1.15536 7.30126 1.23534 7.06378C1.45574 6.40936 1.82497 5.81107 2.31802 5.31802L3.52717 6.52718C3.11055 6.9438 2.83652 7.48162 2.74435 8.06355C2.65218 8.64549 2.7466 9.24167 3.01409 9.76664C3.28158 10.2916 3.70839 10.7184 4.23336 10.9859C4.75834 11.2534 5.35451 11.3478 5.93645 11.2557C6.51839 11.1635 7.05621 10.8895 7.47283 10.4728C7.88945 10.0562 8.16348 9.51839 8.25565 8.93646C8.34782 8.35452 8.25339 7.75834 7.98591 7.23337C7.71856 6.70868 7.29121 6.28161 6.76663 6.0141Z" fill="black"/>
</svg>
