<svg width="14" height="14" viewBox="0 0 14 14" fill="none" xmlns="http://www.w3.org/2000/svg">
<path d="M6.0141 6.76664C6.28158 7.29161 6.7084 7.71843 7.23337 7.98591L6.45705 9.50953L6.45586 9.50893C5.83509 9.1924 5.29947 8.73772 4.8879 8.18379C4.73845 7.98265 4.60535 7.76842 4.49048 7.54296C4.05905 6.69623 3.90675 5.73466 4.05541 4.79605C4.20407 3.85744 4.64606 2.98999 5.31802 2.31802C5.98999 1.64606 6.85744 1.20407 7.79605 1.05541C8.73466 0.906746 9.69623 1.05905 10.543 1.49048C11.3897 1.92191 12.0781 2.61032 12.5095 3.45705C12.941 4.30378 13.0933 5.26535 12.9446 6.20396C12.905 6.45388 12.8446 6.69875 12.7647 6.93623C12.5443 7.59065 12.175 8.18894 11.682 8.68199L10.4728 7.47283C10.8895 7.05621 11.1635 6.51839 11.2557 5.93646C11.3478 5.35452 11.2534 4.75834 10.9859 4.23337C10.7184 3.7084 10.2916 3.28158 9.76664 3.0141C9.24167 2.74661 8.64549 2.65218 8.06355 2.74435C7.48162 2.83652 6.9438 3.11056 6.52718 3.52718C6.11056 3.9438 5.83652 4.48162 5.74435 5.06355C5.65218 5.64549 5.74661 6.24167 6.0141 6.76664Z" fill="black"/>
<path d="M6.76664 6.0141L7.54296 4.49047L7.54389 4.49095C8.16477 4.80749 8.70048 5.26221 9.11211 5.81622C9.26157 6.01736 9.39466 6.23159 9.50953 6.45705C9.94096 7.30378 10.0933 8.26535 9.9446 9.20396C9.79594 10.1426 9.35395 11.01 8.68199 11.682C8.01002 12.354 7.14257 12.7959 6.20396 12.9446C5.26535 13.0933 4.30378 12.941 3.45705 12.5095C2.61032 12.0781 1.92191 11.3897 1.49048 10.543C1.05905 9.69623 0.906747 8.73466 1.05541 7.79605C1.09499 7.54613 1.15537 7.30126 1.23535 7.06378C1.45574 6.40936 1.82498 5.81107 2.31802 5.31802L3.52718 6.52718C3.11056 6.9438 2.83652 7.48162 2.74435 8.06355C2.65218 8.64549 2.74661 9.24167 3.0141 9.76664C3.28158 10.2916 3.7084 10.7184 4.23337 10.9859C4.75834 11.2534 5.35452 11.3478 5.93646 11.2557C6.51839 11.1635 7.05621 10.8895 7.47283 10.4728C7.88945 10.0562 8.16349 9.51839 8.25566 8.93646C8.34783 8.35452 8.2534 7.75834 7.98591 7.23337C7.71857 6.70868 7.29122 6.28161 6.76664 6.0141Z" fill="black"/>
</svg>
