<svg width="18" height="18" viewBox="0 0 18 18" fill="none" xmlns="http://www.w3.org/2000/svg">
<path fill-rule="evenodd" clip-rule="evenodd" d="M14.632 14.635H12.262V10.922C12.262 10.036 12.244 8.897 11.028 8.897C9.793 8.897 9.604 9.861 9.604 10.857V14.635H7.234V7H9.51V8.04H9.54C9.858 7.44 10.632 6.807 11.787 6.807C14.187 6.807 14.632 8.387 14.632 10.444V14.635ZM4.558 5.955C3.796 5.955 3.182 5.338 3.182 4.578C3.182 3.82 3.796 3.203 4.558 3.203C5.318 3.203 5.934 3.82 5.934 4.578C5.934 5.338 5.317 5.955 4.558 5.955ZM5.746 14.635H3.37V7H5.746V14.635ZM15.816 1H2.18C1.528 1 1 1.516 1 2.153V15.847C1 16.484 1.528 17 2.18 17H15.815C16.467 17 17 16.484 17 15.847V2.153C17 1.516 16.467 1 15.815 1H15.816Z" fill="#1178B3"/>
</svg>
