<svg width="18" height="18" viewBox="0 0 18 18" fill="none" xmlns="http://www.w3.org/2000/svg">
<path fill-rule="evenodd" clip-rule="evenodd" d="M3 1C1.89543 1 1 1.89543 1 3V15C1 16.1046 1.89543 17 3 17H15C16.1046 17 17 16.1046 17 15V3C17 1.89543 16.1046 1 15 1H3ZM12.262 14.635H14.632V10.444C14.632 8.387 14.187 6.807 11.787 6.807C10.632 6.807 9.85801 7.44 9.54001 8.04H9.51001V7H7.23401V14.635H9.60401V10.857C9.60401 9.861 9.79301 8.897 11.028 8.897C12.244 8.897 12.262 10.036 12.262 10.922V14.635ZM3.18201 4.578C3.18201 5.338 3.79601 5.955 4.55801 5.955C5.31701 5.955 5.93401 5.338 5.93401 4.578C5.93401 3.82 5.31801 3.203 4.55801 3.203C3.79601 3.203 3.18201 3.82 3.18201 4.578ZM3.37001 14.635H5.74601V7H3.37001V14.635Z" fill="#1178B3"/>
</svg>
