<svg width="18" height="18" viewBox="0 0 18 18" fill="none" xmlns="http://www.w3.org/2000/svg">
<path d="M7.2233 11.8311C7.7117 12.1908 8.25504 12.4768 8.83653 12.676L9.45259 10.8781C8.59978 10.5859 7.86707 10.0207 7.36788 9.27009C6.86868 8.51944 6.63083 7.62517 6.69115 6.72571C6.75147 5.82624 7.10659 4.97174 7.70155 4.29447C8.2965 3.61719 9.09811 3.15491 9.9823 2.97918C10.8665 2.80345 11.784 2.92407 12.5927 3.32236C13.4014 3.72066 14.0563 4.37442 14.456 5.18246C14.8557 5.9905 14.9778 6.90775 14.8036 7.79224C14.6294 8.67673 14.1685 9.47913 13.4923 10.0752L14.749 11.5009C15.2101 11.0945 15.6028 10.6225 15.9165 10.1034C16.2762 9.50815 16.5321 8.85098 16.6683 8.15952C16.9233 6.86498 16.7445 5.52249 16.1595 4.33984C15.5745 3.15719 14.616 2.20034 13.4324 1.61739C12.2487 1.03445 10.9059 0.857909 9.61182 1.11511C8.31772 1.37231 7.14448 2.04891 6.2737 3.04017C5.40292 4.03143 4.88317 5.28208 4.79488 6.59854C4.7066 7.915 5.05471 9.22385 5.78534 10.3225C6.17558 10.9093 6.66334 11.4187 7.2233 11.8311Z" fill="black"/>
<path d="M10.6461 6.23494C10.1644 5.86633 9.62642 5.57045 9.04869 5.36057L8.39975 7.14688C9.24706 7.45469 9.96928 8.03321 10.4546 8.79289C10.94 9.55257 11.1614 10.4511 11.0846 11.3493C11.0077 12.2475 10.637 13.0953 10.0297 13.7616C9.42245 14.4278 8.6125 14.8753 7.72523 15.0348C6.83797 15.1943 5.92288 15.0568 5.1216 14.6438C4.32031 14.2307 3.67753 13.565 3.29274 12.7498C2.90794 11.9346 2.8026 11.0152 2.99301 10.1341C3.18342 9.25295 3.65896 8.45914 4.34603 7.87552L3.11565 6.42702C2.64717 6.82495 2.24588 7.28966 1.92268 7.80296C1.55212 8.39146 1.28421 9.04383 1.13536 9.73267C0.856672 11.0223 1.01086 12.3679 1.57404 13.561C2.13723 14.7542 3.07801 15.7285 4.25077 16.3331C5.42352 16.9376 6.76286 17.1388 8.06146 16.9053C9.36006 16.6719 10.5455 16.017 11.4343 15.0418C12.3231 14.0667 12.8658 12.8258 12.9782 11.5112C13.0906 10.1966 12.7665 8.88155 12.0562 7.76968C11.6768 7.1758 11.1984 6.65756 10.6461 6.23494Z" fill="black"/>
</svg>
