<svg width="18" height="18" viewBox="0 0 18 18" fill="none" xmlns="http://www.w3.org/2000/svg">
<path fill-rule="evenodd" clip-rule="evenodd" d="M15 1C16.0544 1 16.9182 1.81588 16.9945 2.85074L17 3V15C17 16.0544 16.1841 16.9182 15.1493 16.9945L15 17H3C1.94564 17 1.08183 16.1841 1.00549 15.1493L1 15V3C1 1.94564 1.81588 1.08183 2.85074 1.00549L3 1H15ZM11.787 6.807C10.7042 6.807 9.95625 7.36335 9.60496 7.92728L9.54001 8.04H9.51001V7H7.23401V14.635H9.60401V10.857C9.60401 9.861 9.79301 8.897 11.028 8.897C12.1911 8.897 12.2582 9.93911 12.2618 10.8051L12.262 10.922V14.635H14.632V10.444C14.632 8.387 14.187 6.807 11.787 6.807ZM5.74601 7H3.37001V14.635H5.74601V7ZM4.55801 3.203C3.79601 3.203 3.18201 3.82 3.18201 4.578C3.18201 5.338 3.79601 5.955 4.55801 5.955C5.31701 5.955 5.93401 5.338 5.93401 4.578C5.93401 3.82 5.31801 3.203 4.55801 3.203Z" fill="#1178B3"/>
</svg>
