<svg width="17" height="18" viewBox="0 0 17 18" fill="none" xmlns="http://www.w3.org/2000/svg">
<path fill-rule="evenodd" clip-rule="evenodd" d="M2 6.38182C2 9.9064 8.10074 17.6983 8.10074 17.6983C8.32125 17.9871 8.68063 17.9866 8.9017 17.6951C8.9017 17.6951 15 9.9064 15 6.38182C15 2.85724 12.0899 0 8.5 0C4.91015 0 2 2.85724 2 6.38182ZM11.25 6.5C11.25 8.01878 10.0188 9.25 8.5 9.25C6.98122 9.25 5.75 8.01878 5.75 6.5C5.75 4.98122 6.98122 3.75 8.5 3.75C10.0188 3.75 11.25 4.98122 11.25 6.5Z" fill="black"/>
</svg>
