<svg width="18" height="18" viewBox="0 0 18 18" fill="none" xmlns="http://www.w3.org/2000/svg">
<path d="M16 9C16 8.46957 15.7893 7.96086 15.4142 7.58579C15.0391 7.21071 14.5304 7 14 7V6C14 4.67392 13.4732 3.40215 12.5355 2.46447C11.5979 1.52678 10.3261 1 9 1C7.67392 1 6.40215 1.52678 5.46447 2.46447C4.52678 3.40215 4 4.67392 4 6V7C3.46957 7 2.96086 7.21071 2.58579 7.58579C2.21071 7.96086 2 8.46957 2 9V15C2 16.1 2.9 17 4 17H14C14.5304 17 15.0391 16.7893 15.4142 16.4142C15.7893 16.0391 16 15.5304 16 15V9ZM9 14C8.46957 14 7.96086 13.7893 7.58579 13.4142C7.21071 13.0391 7 12.5304 7 12C7 10.9 7.9 10 9 10C9.53043 10 10.0391 10.2107 10.4142 10.5858C10.7893 10.9609 11 11.4696 11 12C11 12.5304 10.7893 13.0391 10.4142 13.4142C10.0391 13.7893 9.53043 14 9 14ZM12.1 7H5.9V6C5.9 5.17783 6.22661 4.38933 6.80797 3.80797C7.38933 3.22661 8.17783 2.9 9 2.9C9.82217 2.9 10.6107 3.22661 11.192 3.80797C11.7734 4.38933 12.1 5.17783 12.1 6V7Z" fill="black"/>
</svg>
