<svg width="14" height="14" viewBox="0 0 14 14" fill="none" xmlns="http://www.w3.org/2000/svg">
<path fill-rule="evenodd" clip-rule="evenodd" d="M3.5 5C2.67157 5 2 5.67157 2 6.5V11.5C2 12.3284 2.67157 13 3.5 13H10.5C11.3284 13 12 12.3284 12 11.5V6.5C12 5.67157 11.3284 5 10.5 5V4.5C10.5 2.567 8.933 1 7 1C5.067 1 3.5 2.567 3.5 4.5L3.5 5ZM4.9 5V4.5C4.9 3.3402 5.8402 2.4 7 2.4C8.1598 2.4 9.1 3.3402 9.1 4.5V5H4.9ZM8.5 9C8.5 9.82843 7.82843 10.5 7 10.5C6.17157 10.5 5.5 9.82843 5.5 9C5.5 8.17157 6.17157 7.5 7 7.5C7.82843 7.5 8.5 8.17157 8.5 9Z" fill="black"/>
</svg>
