<svg width="18" height="18" viewBox="0 0 18 18" fill="none" xmlns="http://www.w3.org/2000/svg">
<g id="Icon/Lock">
<path id="Lock" fill-rule="evenodd" clip-rule="evenodd" d="M16 9C16 7.89543 15.1046 7 14 7V6C14 3.24 11.76 1 9 1C6.24 1 4 3.24 4 6V7C2.89543 7 2 7.89543 2 9V15C2 16.1046 2.89543 17 4 17H14C15.1046 17 16 16.1046 16 15V9ZM9 14C7.9 14 7 13.1 7 12C7 10.9 7.9 10 9 10C10.1 10 11 10.9 11 12C11 13.1 10.1 14 9 14ZM5.9 7H12.1V6C12.1 4.29 10.71 2.9 9 2.9C7.29 2.9 5.9 4.29 5.9 6V7Z" fill="black"/>
</g>
</svg>
