<svg width="147" height="35" viewBox="0 0 147 35" fill="none" xmlns="http://www.w3.org/2000/svg">
<path fill-rule="evenodd" clip-rule="evenodd" d="M43.4577 30.8754L40.6041 26.0276L39.097 27.7882V30.8754H37.0474V16.1239H39.097V25.2195L43.056 20.3714H45.5474L42.011 24.4943L45.9896 30.8754H43.4577ZM32.3875 31C30.0969 31 27.8462 29.5495 27.8462 25.6131C27.8462 21.6768 30.0969 20.2471 32.3875 20.2471C33.7944 20.2471 34.779 20.6616 35.7434 21.7182L34.3368 23.1266C33.6938 22.402 33.1915 22.1323 32.3875 22.1323C31.6041 22.1323 30.9408 22.4636 30.4986 23.065C30.0564 23.6448 29.8958 24.3909 29.8958 25.6131C29.8958 26.8353 30.0564 27.602 30.4986 28.1821C30.9408 28.7828 31.6041 29.1141 32.3875 29.1141C33.1915 29.1141 33.6938 28.8451 34.3368 28.1199L35.7434 29.5081C34.779 30.5646 33.7944 31 32.3875 31ZM23.9446 26.2347H21.5531C20.3474 26.2347 19.7247 26.7939 19.7247 27.7468C19.7247 28.7 20.3073 29.2387 21.5937 29.2387C22.3771 29.2387 22.96 29.1764 23.5025 28.638C23.8039 28.3273 23.9446 27.83 23.9446 27.0838V26.2347ZM23.9848 30.8754V29.9226C23.2412 30.6892 22.5381 31 21.272 31C20.0058 31 19.162 30.6892 18.5392 30.0464C18.0167 29.4872 17.7352 28.6795 17.7352 27.7882C17.7352 26.0276 18.9206 24.7633 21.2517 24.7633H23.9446V24.0178C23.9446 22.6919 23.3016 22.0495 21.7142 22.0495C20.5888 22.0495 20.046 22.3188 19.4837 23.065L18.1372 21.7596C19.1016 20.5993 20.1064 20.2471 21.7945 20.2471C24.5877 20.2471 25.9942 21.4693 25.9942 23.8518V30.8754H23.9848ZM14.971 30.8754C13.0619 30.8754 12.1775 29.4667 12.1775 27.9542V22.1737H11.0123V20.5579H12.1775V17.3673H14.2274V20.5579H16.1966V22.1737H14.2274V27.8505C14.2274 28.6172 14.5889 29.0727 15.3528 29.0727H16.1966V30.8754H14.971ZM5.06418 31C2.91368 31 1.36672 30.4818 0 29.0525L1.44671 27.5811C2.49175 28.6586 3.63738 28.9902 5.104 28.9902C6.97299 28.9902 8.05819 28.1613 8.05819 26.7316C8.05819 26.0896 7.87727 25.5508 7.4955 25.1986C7.13366 24.8465 6.77215 24.7017 5.92795 24.5771L4.24023 24.3286C3.07469 24.1626 2.15016 23.7485 1.52739 23.1475C0.823946 22.4636 0.482352 21.5316 0.482352 20.33C0.482352 17.7609 2.29091 16 5.26501 16C7.15391 16 8.48012 16.4973 9.70608 17.6781L8.31911 19.0869C7.43508 18.2165 6.4103 17.9475 5.20459 17.9475C3.51653 17.9475 2.59234 18.9417 2.59234 20.2471C2.59234 20.7855 2.75301 21.2623 3.13477 21.6145C3.49662 21.9458 4.07922 22.1946 4.7425 22.2983L6.37013 22.5468C7.69634 22.7539 8.43995 23.0855 9.04281 23.6448C9.82658 24.3495 10.2083 25.4057 10.2083 26.6697C10.2083 29.3835 8.05819 31 5.06418 31Z" fill="#222426"/>
<path fill-rule="evenodd" clip-rule="evenodd" d="M129.55 23.3774C129.26 22.7376 128.657 22.2625 127.744 22.2625C126.831 22.2625 126.228 22.7376 125.938 23.3774C125.772 23.7696 125.71 24.0588 125.689 24.5332H129.799C129.779 24.0588 129.716 23.7696 129.55 23.3774ZM125.689 26.3707C125.689 27.754 126.54 28.7652 128.055 28.7652C129.239 28.7652 129.82 28.4354 130.505 27.754L132.145 29.3436C131.045 30.4377 129.986 31.0366 128.035 31.0366C125.481 31.0366 123.031 29.8801 123.031 25.5242C123.031 22.0149 124.941 20.0331 127.744 20.0331C130.755 20.0331 132.457 22.2212 132.457 25.1733V26.3707H125.689ZM116.522 22.4484C114.923 22.4484 114.757 23.8108 114.757 25.2354C114.757 26.6599 114.923 28.0432 116.522 28.0432C118.12 28.0432 118.307 26.6599 118.307 25.2354C118.307 23.8108 118.12 22.4484 116.522 22.4484ZM116.252 34.9797C114.591 34.9797 113.449 34.6492 112.328 33.5756L114.01 31.8827C114.612 32.4608 115.214 32.7087 116.128 32.7087C117.747 32.7087 118.307 31.573 118.307 30.4789V29.3849C117.601 30.1693 116.792 30.4581 115.733 30.4581C114.674 30.4581 113.761 30.1072 113.159 29.5087C112.141 28.4971 112.058 27.1142 112.058 25.2354C112.058 23.3566 112.141 21.9941 113.159 20.9826C113.761 20.384 114.695 20.0331 115.754 20.0331C116.895 20.0331 117.643 20.3428 118.39 21.1684V20.1569H121.006V30.5202C121.006 33.1005 119.158 34.9797 116.252 34.9797ZM107.283 30.9124V24.4097C107.283 22.9439 106.349 22.4484 105.497 22.4484C104.646 22.4484 103.691 22.9439 103.691 24.4097V30.9124H100.992V20.1569H103.629V21.148C104.335 20.4045 105.331 20.0331 106.328 20.0331C107.407 20.0331 108.28 20.384 108.881 20.9826C109.753 21.8495 109.982 22.861 109.982 24.038V30.9124H107.283ZM96.1365 26.3707H93.9981C93.0224 26.3707 92.4829 26.8246 92.4829 27.5886C92.4829 28.3321 92.9809 28.8273 94.0396 28.8273C94.7873 28.8273 95.2647 28.7652 95.7421 28.3113C96.0326 28.0432 96.1365 27.6094 96.1365 26.9488V26.3707ZM96.1989 30.9124V29.9834C95.4722 30.7061 94.7873 31.0157 93.5417 31.0157C92.3166 31.0157 91.4239 30.7061 90.7805 30.0663C90.1992 29.4674 89.8878 28.6005 89.8878 27.6507C89.8878 25.9373 91.071 24.5332 93.5832 24.5332H96.1365V23.9967C96.1365 22.8198 95.5555 22.3038 94.123 22.3038C93.0848 22.3038 92.6074 22.5514 92.0467 23.1915L90.3237 21.519C91.3824 20.3632 92.4205 20.0331 94.2269 20.0331C97.2576 20.0331 98.8356 21.3127 98.8356 23.8313V30.9124H96.1989ZM85.1985 30.9124V24.3476C85.1985 22.9231 84.2852 22.4484 83.4339 22.4484C82.5827 22.4484 81.69 22.9439 81.69 24.3476V30.9124H78.9912V16.2134H81.69V21.148C82.4167 20.4045 83.33 20.0331 84.2852 20.0331C86.6516 20.0331 87.8976 21.6844 87.8976 23.9555V30.9124H85.1985ZM74.1767 31.0366C72.0178 31.0366 69.3396 29.8801 69.3396 25.5242C69.3396 21.1684 72.0178 20.0331 74.1767 20.0331C75.6717 20.0331 76.7925 20.4874 77.7473 21.4781L75.9207 23.2948C75.3599 22.696 74.8825 22.4484 74.1767 22.4484C73.5333 22.4484 73.035 22.6755 72.6402 23.1502C72.2253 23.6662 72.0383 24.3889 72.0383 25.5242C72.0383 26.6599 72.2253 27.4031 72.6402 27.9191C73.035 28.3941 73.5333 28.6209 74.1767 28.6209C74.8825 28.6209 75.3599 28.3733 75.9207 27.7748L77.7473 29.5707C76.7925 30.5615 75.6717 31.0366 74.1767 31.0366ZM65.5883 30.9124L63.5953 27.6919L61.623 30.9124H58.3844L62.1213 25.4213L58.5298 20.1569H61.7684L63.5953 23.2328L65.4428 20.1569H68.6814L65.0899 25.4213L68.8268 30.9124H65.5883ZM48.0023 30.9124V16.2134H57.7389V18.7736H50.8879V22.2212H56.7217V24.7811H50.8879V28.3525H57.7389V30.9124H48.0023Z" fill="#205196"/>
<path fill-rule="evenodd" clip-rule="evenodd" d="M147 3H132V2.5C132 1.19367 133.21 0 134.5 0H144.5C145.791 0 147 1.19367 147 2.5V3Z" fill="#8FD8F7"/>
<path fill-rule="evenodd" clip-rule="evenodd" d="M132 12V12.5C132 13.8063 133.21 15 134.5 15H141V18L144 15H144.5C145.791 15 147 13.8063 147 12.5V12L132 12Z" fill="#155397"/>
<path fill-rule="evenodd" clip-rule="evenodd" d="M132 8V11H147V8L132 8Z" fill="#2D6DB5"/>
<path fill-rule="evenodd" clip-rule="evenodd" d="M132 4V7H147V4H132Z" fill="#46A2D9"/>
</svg>
