<svg width="115" height="30" viewBox="0 0 115 30" fill="none" xmlns="http://www.w3.org/2000/svg">
<path d="M21 27V19H24V30H0V19H3V27H21Z" fill="#BCBBBB"/>
<path d="M5.4021 19.1011L18.9631 21.061L19.127 18.6804L5.87134 16.134L5.4021 19.1011ZM7.2 12.3L19.2 17.9L20.3 15.5L8.3 9.9L7.2 12.3ZM10.6 6.4L20.8 14.9L22.5 12.9L12.3 4.4L10.6 6.4ZM17.1 0.200001L15 1.8L22.9 12.4L25 10.8L17.1 0.200001ZM5 25H19V22H5V25Z" fill="#F48024"/>
<rect x="38" y="11" width="1" height="13" fill="#D6D9DC"/>
<path d="M60.5388 13.0861V11.4313C60.5388 11.1555 60.3393 10.9585 60.0599 10.9585H51.4792C51.1999 10.9585 51.0003 11.1555 51.0003 11.4313V13.0861C51.0003 13.3619 51.1999 13.5589 51.4792 13.5589H54.3528V23.4878C54.3528 23.7636 54.5523 23.9606 54.8317 23.9606H56.6675C56.9469 23.9606 57.1465 23.7636 57.1465 23.4878V13.5589H60.02C60.3393 13.5589 60.5388 13.3619 60.5388 13.0861ZM66.5253 11.3131C66.4455 11.1161 66.2859 10.9979 66.0863 10.9979H64.6097C64.4101 10.9979 64.2505 11.1161 64.1706 11.3131L59.7007 23.3696C59.6608 23.5272 59.6608 23.6848 59.7406 23.803C59.8204 23.9212 59.9801 24 60.1397 24H62.0953C62.2949 24 62.4944 23.8818 62.5343 23.6848L63.2527 21.5966H67.4034L68.1217 23.6848C68.2016 23.8818 68.3612 24 68.5608 24H70.5163C70.676 24 70.8356 23.9212 70.9154 23.803C70.9953 23.6848 71.0352 23.5272 70.9554 23.3696L66.5253 11.3131ZM64.1307 19.075L65.3679 15.6471L66.5652 19.075H64.1307ZM80.5737 21.3996H75.1459V11.4707C75.1459 11.1949 74.9464 10.9979 74.667 10.9979H72.8311C72.5518 10.9979 72.3522 11.1949 72.3522 11.4707V23.5272C72.3522 23.803 72.5518 24 72.8311 24H80.5737C80.8531 24 81.0526 23.803 81.0526 23.5272V21.8724C81.0526 21.636 80.8531 21.3996 80.5737 21.3996ZM90.3427 10.9979H82.5203C82.2409 10.9979 82.0414 11.1949 82.0414 11.4707V23.5272C82.0414 23.803 82.2409 24 82.5203 24H90.3427C90.6221 24 90.8216 23.803 90.8216 23.5272V21.8724C90.8216 21.5966 90.6221 21.3996 90.3427 21.3996H84.875V18.7204H89.4647C89.744 18.7204 89.9436 18.5233 89.9436 18.2475V16.6321C89.9436 16.3563 89.744 16.1593 89.4647 16.1593H84.875V13.5589H90.3427C90.6221 13.5589 90.8216 13.3619 90.8216 13.0861V11.4313C90.8216 11.1949 90.6221 10.9979 90.3427 10.9979ZM102.592 10.9979H100.756C100.477 10.9979 100.277 11.1949 100.277 11.4707V18.3657L95.4879 11.1949C95.4081 11.0767 95.2485 10.9979 95.0888 10.9979H93.3727C93.0933 10.9979 92.8938 11.1949 92.8938 11.4707V23.5272C92.8938 23.803 93.0933 24 93.3727 24H95.2086C95.488 24 95.6875 23.803 95.6875 23.5272V16.6321L100.477 23.803C100.557 23.9212 100.716 24 100.876 24H102.592C102.871 24 103.071 23.803 103.071 23.5272V11.4707C103.071 11.1949 102.871 10.9979 102.592 10.9979ZM114.301 10.9979H105.72C105.44 10.9979 105.241 11.1949 105.241 11.4707V13.1255C105.241 13.4013 105.44 13.5983 105.72 13.5983H108.593V23.5272C108.593 23.803 108.793 24 109.072 24H110.908C111.188 24 111.387 23.803 111.387 23.5272V13.5983H114.261C114.54 13.5983 114.74 13.4013 114.74 13.1255V11.4707C114.779 11.1949 114.58 10.9979 114.301 10.9979Z" fill="#222426"/>
</svg>
