<svg width="85" height="8" viewBox="0 0 85 8" fill="none" xmlns="http://www.w3.org/2000/svg">
<path fill-rule="evenodd" clip-rule="evenodd" d="M0.0805969 7.85716V0.0117372H5.0746V1.59401H2.0386V3.16529H4.5576V4.74756H2.0386V7.85716H0.0805969ZM5.9106 4.88277V3.10777C5.9106 1.91722 6.08396 1.28948 6.5607 0.780788C7.09161 0.228807 7.76338 0.00152108 8.91189 0.00152108C10.1362 0.00152108 10.8622 0.2721 11.3823 0.92149C11.7615 1.39771 11.9132 2.00381 11.9132 3.10777V4.88277C11.9132 6.07331 11.7398 6.70106 11.2631 7.20974C10.7322 7.76173 10.0604 7.98901 8.91189 7.98901C7.68754 7.98901 6.96159 7.71843 6.44151 7.06904C6.06229 6.59282 5.9106 5.98673 5.9106 4.88277ZM9.98456 4.73124V3.25929C9.98456 1.91722 9.75702 1.54923 8.91189 1.54923C8.06676 1.54923 7.83923 1.91722 7.83923 3.25929V4.73124C7.83923 6.07331 8.06676 6.4413 8.91189 6.4413C9.75702 6.4413 9.98456 6.07331 9.98456 4.73124ZM14.9846 4.82447V7.85716H13.0266V0.0117372H16.1066C17.2066 0.0117372 17.7786 0.165569 18.1966 0.583112C18.6036 0.989668 18.7686 1.51709 18.7686 2.38514C18.7686 3.73666 18.3946 4.37397 17.4156 4.67064L19.1096 7.85716H16.9426L15.5126 4.82447H14.9846ZM14.9516 3.3411H15.9086C16.6016 3.3411 16.8326 3.12134 16.8326 2.45107C16.8326 1.7808 16.6016 1.56104 15.9086 1.56104H14.9516V3.3411ZM22.9839 7.85716V0.0117372H28.0659V1.59401H24.9199V3.11035H27.5709V4.69262H24.9199V6.27489H28.1319V7.85716H22.9839ZM29.0312 7.85716V0.0117372H30.9342L33.3432 4.59373V0.0117372H35.2352V7.85716H33.3322L30.9232 3.27517V7.85716H29.0312ZM38.1406 7.85716V1.59401H36.1166V0.0117372H42.1226V1.59401H40.0986V7.85716H38.1406ZM42.9806 7.85716V0.0117372H48.0626V1.59401H44.9166V3.11035H47.5676V4.69262H44.9166V6.27489H48.1286V7.85716H42.9806ZM50.9844 4.82447V7.85716H49.0264V0.0117372H52.1064C53.2064 0.0117372 53.7784 0.165569 54.1964 0.583112C54.6034 0.989668 54.7684 1.51709 54.7684 2.38514C54.7684 3.73666 54.3944 4.37397 53.4154 4.67064L55.1094 7.85716H52.9424L51.5124 4.82447H50.9844ZM50.9514 3.3411H51.9084C52.6014 3.3411 52.8324 3.12134 52.8324 2.45107C52.8324 1.7808 52.6014 1.56104 51.9084 1.56104H50.9514V3.3411ZM57.9397 5.23103V7.85716H55.9817V0.0117372H58.7207C59.9197 0.0117372 60.5357 0.187545 60.9867 0.64904C61.4267 1.09955 61.5917 1.64895 61.5917 2.64885C61.5917 3.63777 61.3717 4.26409 60.8767 4.69262C60.4257 5.08818 59.8317 5.23103 58.7207 5.23103H57.9397ZM57.9067 3.67073H58.7317C59.4247 3.67073 59.6557 3.40702 59.6557 2.61589C59.6557 1.82475 59.4247 1.56104 58.7317 1.56104H57.9067V3.67073ZM64.0136 4.82447V7.85716H62.0556V0.0117372H65.1356C66.2356 0.0117372 66.8076 0.165569 67.2256 0.583112C67.6326 0.989668 67.7976 1.51709 67.7976 2.38514C67.7976 3.73666 67.4236 4.37397 66.4446 4.67064L68.1386 7.85716H65.9716L64.5416 4.82447H64.0136ZM63.9806 3.3411H64.9376C65.6306 3.3411 65.8616 3.12134 65.8616 2.45107C65.8616 1.7808 65.6306 1.56104 64.9376 1.56104H63.9806V3.3411ZM69.0846 7.85716V0.0117372H71.0426V7.85716H69.0846ZM71.8236 6.56022L73.2866 5.62923C73.6334 6.22463 74.0886 6.45196 74.9122 6.45196C75.595 6.45196 75.9201 6.20298 75.9201 5.68336C75.9201 5.27199 75.7033 5.05548 75.1398 4.91475C73.7851 4.57916 73.5034 4.48173 73.0916 4.22192C72.4738 3.82138 72.1921 3.24763 72.1921 2.37077C72.1921 0.822734 73.1349 0 74.9014 0C76.2344 0 77.0797 0.433018 77.6107 1.36401L76.191 2.26252C75.8117 1.73207 75.4541 1.53721 74.8689 1.53721C74.327 1.53721 74.0344 1.7862 74.0344 2.24087C74.0344 2.76049 74.327 2.977 75.3674 3.23681C76.3536 3.48579 76.592 3.5724 76.9821 3.82138C77.5132 4.16779 77.7624 4.73072 77.7624 5.59675C77.7624 6.44114 77.5565 6.99323 77.1122 7.37212C76.6245 7.78349 75.8551 8 74.8905 8C74.0019 8 73.1783 7.80514 72.6364 7.4479C72.2788 7.22057 72.062 6.99323 71.8236 6.56022ZM79.0163 7.85716V0.0117372H84.0983V1.59401H80.9523V3.11035H83.6033V4.69262H80.9523V6.27489H84.1643V7.85716H79.0163Z" fill="#F48024"/>
</svg>
