<svg width="152" height="21" viewBox="0 0 152 21" fill="none" xmlns="http://www.w3.org/2000/svg">
<path d="M7 12L4.8 11.8C3.1 11.7 2.5 11 2.5 9.8C2.5 8.4 3.5 7.6 5.5 7.6C6.8 7.5 8.1 7.9 9.1 8.7L10.4 7.4C9 6.4 7.3 5.9 5.6 6C2.7 6 0.7 7.5 0.7 9.9C0.7 12.1 2.1 13.3 4.7 13.5L6.9 13.7C8.5 13.8 9.1 14.5 9.1 15.7C9.1 17.3 7.7 18.1 5.5 18.1C3.9 18.2 2.4 17.6 1.3 16.5L0 17.8C1.5 19.2 3.5 19.8 5.5 19.7C8.7 19.7 11 18.2 11 15.6C11 13 9.4 12.2 7 12ZM22.8 5.9C20.6 5.9 19.3 6.3 18.1 7.8L19.4 9.1C20.2 8 21.5 7.4 22.8 7.6C25.3 7.6 26.2 8.6 26.2 10.5V11.8H22.2C19.2 11.8 17.6 13.3 17.6 15.7C17.6 16.7 17.9 17.7 18.6 18.4C19.4 19.3 20.5 19.6 22.4 19.6C23.8 19.7 25.3 19.2 26.3 18.2V19.5H28.3V10.4C28.2 7.5 26.4 5.9 22.8 5.9ZM26.2 14.8C26.3 15.6 26.1 16.5 25.5 17.1C25.0862 17.4441 24.6072 17.7012 24.0918 17.8558C23.5763 18.0105 23.0349 18.0595 22.5 18C20.4 18 19.4 17.3 19.4 15.7C19.4 14.1 20.4 13.3 22.4 13.3H26.2V14.8ZM35.9 7.7C37.1 7.7 38.3 8.2 39 9.2L40.3 7.9C39.7724 7.24775 39.1 6.72741 38.3363 6.38025C37.5725 6.03309 36.7384 5.86866 35.9 5.9C32.5 5.9 30 8.2 30 12.8C30 17.4 32.6 19.7 35.9 19.7C37.6 19.8 39.2 19 40.3 17.7L39 16.4C38.3 17.4 37.1 17.9 35.9 17.9C34.7 18 33.5 17.4 32.8 16.4C32.1 15.3 31.8 14.1 31.9 12.8C31.8 11.5 32.1 10.3 32.8 9.2C33.5 8.2 34.7 7.6 35.9 7.7ZM52.7 6.1H50.3L44.2 12V0.0999985H42.2V19.5H44.2V14.6L46.6 12.2L51.1 19.5H53.5L47.9 10.9L52.7 6.1ZM61.9 5.94C60.3 5.84 58.7 6.44 57.6 7.64C56.3 8.94 56 10.54 56 13.04C56 15.54 56.3 17.14 57.6 18.44C58.7 19.54 60.3 20.14 61.9 20.14C63.5 20.24 65.1 19.64 66.2 18.44C67.5 17.14 67.8 15.54 67.8 13.04C67.8 10.54 67.5 8.94 66.2 7.64C65.6547 7.05481 64.9858 6.59857 64.2419 6.30449C63.4981 6.01041 62.698 5.88589 61.9 5.94ZM63.6 16.44C62.7 17.24 61.3 17.24 60.4 16.44C59.7 15.74 59.6 14.44 59.6 13.04C59.6 11.64 59.7 10.34 60.4 9.64C61.3 8.84 62.7 8.84 63.6 9.64C64.3 10.34 64.4 11.54 64.4 13.04C64.4 14.54 64.3 15.74 63.6 16.44ZM77.2 6.04L74.4 14.64L71.6 6.04H67.9L73.1 20.04H75.8L80.9 6.04H77.2ZM86.8 5.94C83.2 5.94 80.7 8.54 80.7 13.04C80.7 18.74 83.9 20.24 87.2 20.24C89.2 20.34 91.2 19.54 92.5 18.04L90.4 15.94C89.6 16.84 88.4 17.34 87.2 17.24C85.6 17.34 84.2 16.14 84.1 14.54V14.14H92.8V12.54C92.9 8.74 90.7 5.94 86.8 5.94ZM84.1 11.74C84.1 11.24 84.2 10.74 84.4 10.24C84.8 9.34 85.7 8.84 86.7 8.84C87.7 8.74 88.6 9.34 89 10.24C89.2 10.74 89.3 11.24 89.3 11.74H84.1ZM97.43 7.44V6.14H94.03V20.14H97.53V11.74C97.43 10.44 98.33 9.34 99.63 9.14H99.83C100.53 9.14 101.23 9.44 101.63 9.94L104.23 7.34C103.812 6.89008 103.299 6.53969 102.728 6.31469C102.157 6.08969 101.542 5.99581 100.93 6.04C99.63 5.94 98.33 6.44 97.43 7.44ZM105.03 4.64V20.04H108.53V9.04H111.13V6.34H108.53V4.84C108.43 4.24 108.83 3.64 109.43 3.54H111.03V0.539999H109.03C108.518 0.526697 108.008 0.614453 107.53 0.798252C107.051 0.982051 106.614 1.25829 106.243 1.61119C105.871 1.96408 105.573 2.38672 105.365 2.85494C105.157 3.32316 105.043 3.82779 105.03 4.34V4.64ZM125.3 5.94C123.7 5.84 122.1 6.44 121 7.64C119.7 8.94 119.4 10.54 119.4 13.04C119.4 15.54 119.7 17.14 121 18.44C122.1 19.54 123.7 20.14 125.3 20.14C126.9 20.24 128.5 19.64 129.6 18.44C130.9 17.14 131.2 15.54 131.2 13.04C131.2 10.54 130.9 8.94 129.6 7.64C129.055 7.05481 128.386 6.59857 127.642 6.30449C126.898 6.01041 126.098 5.88589 125.3 5.94ZM127 16.44C126.1 17.24 124.7 17.24 123.8 16.44C123.1 15.74 123 14.44 123 13.04C123 11.64 123.1 10.34 123.8 9.64C124.7 8.84 126.1 8.84 127 9.64C127.7 10.34 127.8 11.54 127.8 13.04C127.8 14.54 127.7 15.74 127 16.44ZM147.7 6.04L145.4 14.64L142.5 6.04H140L137.2 14.74L134.9 6.14H131.2L135.5 20.14H138.4L141.3 11.34L144.2 20.14H147.2L151.5 6.14L147.7 6.04ZM116.48 15.84V0.639998H112.98V16.04C112.953 16.5392 113.025 17.0388 113.191 17.5102C113.358 17.9816 113.616 18.4155 113.95 18.787C114.284 19.1586 114.689 19.4606 115.14 19.6756C115.591 19.8906 116.081 20.0144 116.58 20.04H119.08V17.04H117.78C117.18 17.14 116.68 16.84 116.48 16.24V15.84ZM17.7 6.4H14V2H12V15.9C12 17.9 13.1 19.5 15.4 19.5H16.8V17.8H15.8C14.5 17.8 14 17.1 14 15.8V8.1H15.9L17.7 6.4Z" fill="#222426"/>
</svg>
