<svg width="61" height="8" viewBox="0 0 61 8" fill="none" xmlns="http://www.w3.org/2000/svg">
<path fill-rule="evenodd" clip-rule="evenodd" d="M0 7.85716V0.0117372H5.082V1.59401H1.936V3.11035H4.587V4.69262H1.936V6.27489H5.148V7.85716H0ZM6.04726 7.85716V0.0117372H7.95026L10.3593 4.59373V0.0117372H12.2513V7.85716H10.3483L7.93926 3.27517V7.85716H6.04726ZM15.1567 7.85716V1.59401H13.1327V0.0117372H19.1387V1.59401H17.1147V7.85716H15.1567ZM19.9967 7.85716V0.0117372H25.0787V1.59401H21.9327V3.11035H24.5837V4.69262H21.9327V6.27489H25.1447V7.85716H19.9967ZM28.0005 4.82447V7.85716H26.0425V0.0117372H29.1225C30.2225 0.0117372 30.7945 0.165569 31.2125 0.583112C31.6195 0.989668 31.7845 1.51709 31.7845 2.38514C31.7845 3.73666 31.4105 4.37397 30.4315 4.67064L32.1255 7.85716H29.9585L28.5285 4.82447H28.0005ZM27.9675 3.3411H28.9245C29.6175 3.3411 29.8485 3.12134 29.8485 2.45107C29.8485 1.7808 29.6175 1.56104 28.9245 1.56104H27.9675V3.3411ZM34.9558 5.23103V7.85716H32.9978V0.0117372H35.7368C36.9358 0.0117372 37.5518 0.187545 38.0028 0.64904C38.4428 1.09955 38.6078 1.64895 38.6078 2.64885C38.6078 3.63777 38.3878 4.26409 37.8928 4.69262C37.4418 5.08818 36.8478 5.23103 35.7368 5.23103H34.9558ZM34.9228 3.67073H35.7478C36.4408 3.67073 36.6718 3.40702 36.6718 2.61589C36.6718 1.82475 36.4408 1.56104 35.7478 1.56104H34.9228V3.67073ZM41.0297 4.82447V7.85716H39.0717V0.0117372H42.1517C43.2517 0.0117372 43.8237 0.165569 44.2417 0.583112C44.6487 0.989668 44.8137 1.51709 44.8137 2.38514C44.8137 3.73666 44.4397 4.37397 43.4607 4.67064L45.1547 7.85716H42.9877L41.5577 4.82447H41.0297ZM40.9967 3.3411H41.9537C42.6467 3.3411 42.8777 3.12134 42.8777 2.45107C42.8777 1.7808 42.6467 1.56104 41.9537 1.56104H40.9967V3.3411ZM46.1007 7.85716V0.0117372H48.0587V7.85716H46.1007ZM48.8397 6.56022L50.3027 5.62923C50.6495 6.22463 51.1047 6.45196 51.9283 6.45196C52.6111 6.45196 52.9362 6.20298 52.9362 5.68336C52.9362 5.27199 52.7194 5.05548 52.1559 4.91475C50.8012 4.57916 50.5195 4.48173 50.1076 4.22192C49.4899 3.82138 49.2082 3.24763 49.2082 2.37077C49.2082 0.822734 50.151 0 51.9175 0C53.2505 0 54.0958 0.433018 54.6268 1.36401L53.2071 2.26252C52.8278 1.73207 52.4702 1.53721 51.885 1.53721C51.3431 1.53721 51.0505 1.7862 51.0505 2.24087C51.0505 2.76049 51.3431 2.977 52.3835 3.23681C53.3697 3.48579 53.6081 3.5724 53.9982 3.82138C54.5293 4.16779 54.7785 4.73072 54.7785 5.59675C54.7785 6.44114 54.5726 6.99323 54.1283 7.37212C53.6406 7.78349 52.8712 8 51.9066 8C51.018 8 50.1943 7.80514 49.6525 7.4479C49.2948 7.22057 49.0781 6.99323 48.8397 6.56022ZM55.8281 7.85716V0.0117372H60.9101V1.59401H57.7641V3.11035H60.4151V4.69262H57.7641V6.27489H60.9761V7.85716H55.8281Z" fill="#F48024"/>
</svg>
