<svg width="85" height="9" viewBox="0 0 85 9" fill="none" xmlns="http://www.w3.org/2000/svg">
<g id="Icon/LogoEnterpriseWordmarkSm">
<path id="Enterprise" fill-rule="evenodd" clip-rule="evenodd" d="M0.0805969 8.85702V1.00302H5.0746V2.58702H2.0386V4.16002H4.5576V5.74402H2.0386V8.85702H0.0805969ZM5.9106 5.87938V4.10244C5.9106 2.91059 6.08396 2.28216 6.5607 1.77291C7.09161 1.22033 7.76338 0.992795 8.91189 0.992795C10.1362 0.992795 10.8622 1.26367 11.3823 1.91377C11.7615 2.39051 11.9132 2.99727 11.9132 4.10244V5.87938C11.9132 7.07123 11.7398 7.69966 11.2631 8.2089C10.7322 8.76149 10.0604 8.98902 8.91189 8.98902C7.68754 8.98902 6.96159 8.71815 6.44151 8.06805C6.06229 7.59131 5.9106 6.98455 5.9106 5.87938ZM9.98456 5.72769V4.25413C9.98456 2.91059 9.75702 2.5422 8.91189 2.5422C8.06676 2.5422 7.83923 2.91059 7.83923 4.25413V5.72769C7.83923 7.07123 8.06676 7.43962 8.91189 7.43962C9.75702 7.43962 9.98456 7.07123 9.98456 5.72769ZM14.9846 5.82102V8.85702H13.0266V1.00302H16.1066C17.2066 1.00302 17.7786 1.15702 18.1966 1.57502C18.6036 1.98202 18.7686 2.51002 18.7686 3.37902C18.7686 4.73202 18.3946 5.37002 17.4156 5.66702L19.1096 8.85702H16.9426L15.5126 5.82102H14.9846ZM14.9516 4.33602H15.9086C16.6016 4.33602 16.8326 4.11602 16.8326 3.44502C16.8326 2.77402 16.6016 2.55402 15.9086 2.55402H14.9516V4.33602ZM22.9839 8.85702V1.00302H28.0659V2.58702H24.9199V4.10502H27.5709V5.68902H24.9199V7.27302H28.1319V8.85702H22.9839ZM29.0312 8.85702V1.00302H30.9342L33.3432 5.59002V1.00302H35.2352V8.85702H33.3322L30.9232 4.27002V8.85702H29.0312ZM38.1406 8.85702V2.58702H36.1166V1.00302H42.1226V2.58702H40.0986V8.85702H38.1406ZM42.9806 8.85702V1.00302H48.0626V2.58702H44.9166V4.10502H47.5676V5.68902H44.9166V7.27302H48.1286V8.85702H42.9806ZM50.9844 5.82102V8.85702H49.0264V1.00302H52.1064C53.2064 1.00302 53.7784 1.15702 54.1964 1.57502C54.6034 1.98202 54.7684 2.51002 54.7684 3.37902C54.7684 4.73202 54.3944 5.37002 53.4154 5.66702L55.1094 8.85702H52.9424L51.5124 5.82102H50.9844ZM50.9514 4.33602H51.9084C52.6014 4.33602 52.8324 4.11602 52.8324 3.44502C52.8324 2.77402 52.6014 2.55402 51.9084 2.55402H50.9514V4.33602ZM57.9397 6.22802V8.85702H55.9817V1.00302H58.7207C59.9197 1.00302 60.5357 1.17902 60.9867 1.64102C61.4267 2.09202 61.5917 2.64202 61.5917 3.64302C61.5917 4.63302 61.3717 5.26002 60.8767 5.68902C60.4257 6.08502 59.8317 6.22802 58.7207 6.22802H57.9397ZM57.9067 4.66602H58.7317C59.4247 4.66602 59.6557 4.40202 59.6557 3.61002C59.6557 2.81802 59.4247 2.55402 58.7317 2.55402H57.9067V4.66602ZM64.0136 5.82102V8.85702H62.0556V1.00302H65.1356C66.2356 1.00302 66.8076 1.15702 67.2256 1.57502C67.6326 1.98202 67.7976 2.51002 67.7976 3.37902C67.7976 4.73202 67.4236 5.37002 66.4446 5.66702L68.1386 8.85702H65.9716L64.5416 5.82102H64.0136ZM63.9806 4.33602H64.9376C65.6306 4.33602 65.8616 4.11602 65.8616 3.44502C65.8616 2.77402 65.6306 2.55402 64.9376 2.55402H63.9806V4.33602ZM69.0846 8.85702V1.00302H71.0426V8.85702H69.0846ZM71.8236 7.55866L73.2866 6.62666C73.6334 7.22271 74.0886 7.45029 74.9122 7.45029C75.595 7.45029 75.9201 7.20103 75.9201 6.68084C75.9201 6.26903 75.7033 6.05228 75.1398 5.9114C73.7851 5.57544 73.5034 5.47791 73.0916 5.21781C72.4738 4.81683 72.1921 4.24246 72.1921 3.36464C72.1921 1.81491 73.1349 0.991272 74.9014 0.991272C76.2344 0.991272 77.0797 1.42476 77.6107 2.35677L76.191 3.25626C75.8117 2.72524 75.4541 2.53017 74.8689 2.53017C74.327 2.53017 74.0344 2.77942 74.0344 3.23459C74.0344 3.75478 74.327 3.97152 75.3674 4.23162C76.3536 4.48088 76.592 4.56757 76.9821 4.81683C77.5132 5.16362 77.7624 5.72716 77.7624 6.59415C77.7624 7.43945 77.5565 7.99216 77.1122 8.37146C76.6245 8.78328 75.8551 9.00002 74.8905 9.00002C74.0019 9.00002 73.1783 8.80495 72.6364 8.44732C72.2788 8.21974 72.062 7.99216 71.8236 7.55866ZM79.0163 8.85702V1.00302H84.0983V2.58702H80.9523V4.10502H83.6033V5.68902H80.9523V7.27302H84.1643V8.85702H79.0163Z" fill="#F48024"/>
</g>
</svg>
