<svg width="187" height="37" viewBox="0 0 187 37" fill="none" xmlns="http://www.w3.org/2000/svg">
<g id="Icon/LogoMd">
<path id="Wordmark" fill-rule="evenodd" clip-rule="evenodd" d="M85.3 17.1042H87.7L82.9 21.9042L88.5 30.5042H86.1L81.6 23.2042L79.2 25.6042V30.5042H77.2V11.1042H79.2V23.0042L85.3 17.1042ZM70.9 18.7042C72.1 18.7042 73.3 19.2042 74 20.2042L75.3 18.9042C74.2 17.6042 72.6 16.8042 70.9 16.9042C67.5 16.9042 65 19.2042 65 23.8042C65 28.4042 67.6 30.7042 70.9 30.7042C72.6 30.8042 74.2 30.0042 75.3 28.7042L74 27.4042C73.3 28.4042 72.1 28.9042 70.9 28.9042C69.7 29.0042 68.5 28.4042 67.8 27.4042C67.1 26.3042 66.8 25.1042 66.9 23.8042C66.8 22.5042 67.1 21.3042 67.8 20.2042C68.5 19.2042 69.7 18.6042 70.9 18.7042ZM57.8 16.9042C55.6 16.9042 54.3 17.3042 53.1 18.8042L54.4 20.1042C55.2 19.0042 56.5 18.4042 57.8 18.6042C60.3 18.6042 61.2 19.6042 61.2 21.5042V22.8042H57.2C54.2 22.8042 52.6 24.3042 52.6 26.7042C52.6 27.7042 52.9 28.7042 53.6 29.4042C54.4 30.3042 55.5 30.6042 57.4 30.6042C58.8 30.7042 60.3 30.2042 61.3 29.2042V30.5042H63.3V21.4042C63.2 18.5042 61.4 16.9042 57.8 16.9042ZM42 23.0042L39.8 22.8042C38.1 22.7042 37.5 22.0042 37.5 20.8042C37.5 19.4042 38.5 18.6042 40.5 18.6042C41.8 18.5042 43.1 18.9042 44.1 19.7042L45.4 18.4042C44 17.4042 42.3 16.9042 40.6 17.0042C37.7 17.0042 35.7 18.5042 35.7 20.9042C35.7 23.1042 37.1 24.3042 39.7 24.5042L41.9 24.7042C43.5 24.8042 44.1 25.5042 44.1 26.7042C44.1 28.3042 42.7 29.1042 40.5 29.1042C38.9 29.2042 37.4 28.6042 36.3 27.5042L35 28.8042C36.5 30.2042 38.5 30.8042 40.5 30.7042C43.7 30.7042 46 29.2042 46 26.6042C46 24.0042 44.4 23.2042 42 23.0042ZM60.5 28.1042C61.1 27.5042 61.3 26.6042 61.2 25.8042V24.3042H57.4C55.4 24.3042 54.4 25.1042 54.4 26.7042C54.4 28.3042 55.4 29.0042 57.5 29.0042C58.6 29.1042 59.7 28.8042 60.5 28.1042ZM96.9 16.9418C95.3 16.8418 93.7 17.4418 92.6 18.6418C91.3 19.9418 91 21.5418 91 24.0418C91 26.5418 91.3 28.1418 92.6 29.4418C93.7 30.5418 95.3 31.1418 96.9 31.1418C98.5 31.2418 100.1 30.6418 101.2 29.4418C102.5 28.1418 102.8 26.5418 102.8 24.0418C102.8 21.5418 102.5 19.9418 101.2 18.6418C100.1 17.4418 98.5 16.8418 96.9 16.9418ZM95.4 27.4418C96.3 28.2418 97.7 28.2418 98.6 27.4418C99.3 26.7418 99.4 25.5418 99.4 24.0418C99.4 22.5418 99.3 21.3418 98.6 20.6418C97.7 19.8418 96.3 19.8418 95.4 20.6418C94.7 21.3418 94.6 22.6418 94.6 24.0418C94.6 25.4418 94.7 26.7418 95.4 27.4418ZM112.2 17.0418L109.4 25.6418L106.6 17.0418H102.9L108.1 31.0418H110.8L115.9 17.0418H112.2ZM115.7 24.0418C115.7 19.5418 118.2 16.9418 121.8 16.9418C125.7 16.9418 127.9 19.7418 127.8 23.5418V25.1418H119.1V25.5418C119.2 27.1418 120.6 28.3418 122.2 28.2418C123.4 28.3418 124.6 27.8418 125.4 26.9418L127.5 29.0418C126.2 30.5418 124.2 31.3418 122.2 31.2418C118.9 31.2418 115.7 29.7418 115.7 24.0418ZM119.1 22.7418C119.1 22.2418 119.2 21.7418 119.4 21.2418C119.8 20.3418 120.7 19.8418 121.7 19.8418C122.7 19.7418 123.6 20.3418 124 21.2418C124.2 21.7418 124.3 22.2418 124.3 22.7418H119.1ZM132.433 17.1418V18.4418C133.333 17.4418 134.633 16.9418 135.933 17.0418C137.133 16.9418 138.433 17.4418 139.233 18.3418L136.633 20.9418C136.233 20.4418 135.533 20.1418 134.833 20.1418H134.633C133.333 20.3418 132.433 21.4418 132.533 22.7418V31.1418H129.033V17.1418H132.433ZM140.024 31.0418H143.524V20.0418H146.124V17.3418H143.524V15.8418C143.424 15.2418 143.824 14.6418 144.424 14.5418H146.024V11.5418H144.024C141.924 11.4418 140.124 13.1418 140.024 15.3418V31.0418ZM156 18.6418C157.1 17.4418 158.7 16.8418 160.3 16.9418C161.9 16.8418 163.5 17.4418 164.6 18.6418C165.9 19.9418 166.2 21.5418 166.2 24.0418C166.2 26.5418 165.9 28.1418 164.6 29.4418C163.5 30.6418 161.9 31.2418 160.3 31.1418C158.7 31.1418 157.1 30.5418 156 29.4418C154.7 28.1418 154.4 26.5418 154.4 24.0418C154.4 21.5418 154.7 19.9418 156 18.6418ZM162 27.4418C161.1 28.2418 159.7 28.2418 158.8 27.4418C158.1 26.7418 158 25.4418 158 24.0418C158 22.6418 158.1 21.3418 158.8 20.6418C159.7 19.8418 161.1 19.8418 162 20.6418C162.7 21.3418 162.8 22.5418 162.8 24.0418C162.8 25.5418 162.7 26.7418 162 27.4418ZM180.4 25.6418L182.7 17.0418L186.5 17.1418L182.2 31.1418H179.2L176.3 22.3418L173.4 31.1418H170.5L166.2 17.1418H169.9L172.2 25.7418L175 17.0418H177.5L180.4 25.6418ZM151.479 11.6418H147.979V27.0418C147.879 29.1418 149.479 30.9418 151.579 31.0418H154.079V28.0418H152.779C152.179 28.1418 151.679 27.8418 151.479 27.2418V11.6418ZM49.0034 17.4042H52.7034L50.9034 19.1042H49.0034V26.8042C49.0034 28.1042 49.5034 28.8042 50.8034 28.8042H51.8034V30.5042H50.4034C48.1034 30.5042 47.0034 28.9042 47.0034 26.9042V13.0042H49.0034V17.4042Z" fill="#222426"/>
<path id="Tray" d="M26 33V24H30V37H0V24H4V33H26Z" fill="#BCBBBB"/>
<path id="Bars" fill-rule="evenodd" clip-rule="evenodd" d="M21.5 0L18.8 2L28.7 15.3L31.4 13.3L21.5 0ZM26 18.4L13.3 7.8L15.4 5.3L28.1 15.9L26 18.4ZM9.1 15.2L24.1 22.2L25.5 19.2L10.5 12.2L9.1 15.2ZM23.0908 25.9902L23.7844 23.041L7.67993 19.687L7 23L23.0908 25.9902ZM23 30H7V27H23V30Z" fill="#F48024"/>
</g>
</svg>
