<svg width="143" height="30" viewBox="0 0 143 30" fill="none" xmlns="http://www.w3.org/2000/svg">
<path d="M21 27V19H24V30H0V19H3V27H21Z" fill="#BCBBBB"/>
<path d="M5.4021 19.1011L18.9631 21.061L19.127 18.6804L5.87134 16.134L5.4021 19.1011ZM7.2 12.3L19.2 17.9L20.3 15.5L8.3 9.9L7.2 12.3ZM10.6 6.4L20.8 14.9L22.5 12.9L12.3 4.4L10.6 6.4ZM17.1 0.199997L15 1.8L22.9 12.4L25 10.8L17.1 0.199997ZM5 25H19V22H5V25Z" fill="#F48024"/>
<path d="M59.1411 11.0036H51.367C51.1338 11.0036 50.9783 11.1593 50.9783 11.3929V23.5797C50.9783 23.8133 51.1338 23.969 51.367 23.969H53.2328C53.466 23.969 53.6215 23.8133 53.6215 23.5797V18.8296H58.2859C58.5191 18.8296 58.6746 18.6738 58.6746 18.4402V16.766C58.6746 16.5324 58.5191 16.3767 58.2859 16.3767H53.6215V13.4565H59.1799C59.4132 13.4565 59.5686 13.3008 59.5686 13.0672V11.3929C59.5298 11.1983 59.3354 11.0036 59.1411 11.0036Z" fill="#222426"/>
<path d="M69.4333 13.7293C69.239 13.2231 68.9669 12.7559 68.5393 12.3276C67.6064 11.3932 66.4014 10.9259 65.041 10.9259C63.6805 10.9259 62.5144 11.3932 61.5815 12.3276C61.2705 12.6391 60.9984 12.9895 60.8429 13.3399C60.6875 13.6903 60.532 14.0797 60.4542 14.469C60.3765 14.8584 60.3376 15.2867 60.2988 15.715C60.2599 16.1433 60.2599 16.7662 60.2599 17.506C60.2599 18.4794 60.2988 19.2192 60.3376 19.7642C60.3765 20.3093 60.4931 20.8155 60.6875 21.3217C60.8818 21.8278 61.1928 22.2561 61.5815 22.7233C62.5144 23.6578 63.6805 24.125 65.041 24.125C66.4014 24.125 67.5675 23.6578 68.5393 22.6844C68.928 22.2561 69.239 21.7889 69.4333 21.2827C69.6277 20.8155 69.7054 20.2704 69.7443 19.7253C69.7832 19.2192 69.7832 18.4404 69.7832 17.4671C69.7832 16.4937 69.7832 15.7539 69.7443 15.2088C69.7443 14.7027 69.6277 14.1965 69.4333 13.7293ZM63.0197 15.0141C63.0974 14.5859 63.2529 14.2354 63.4861 13.9629C63.6416 13.7682 63.8748 13.6125 64.1469 13.4957C64.419 13.3789 64.73 13.3399 65.0021 13.3399C65.313 13.3399 65.5851 13.4178 65.8572 13.4957C66.1293 13.6125 66.3626 13.7682 66.518 13.9629C66.7513 14.2354 66.9067 14.5469 66.9845 14.9752C67.0622 15.4424 67.1011 16.299 67.1011 17.4671C67.1011 18.2458 67.1011 18.8687 67.0622 19.336C67.0234 19.7643 66.9845 20.1147 66.8679 20.3483C66.7901 20.5819 66.6735 20.7766 66.4792 20.9712C66.0905 21.3995 65.5851 21.5942 64.9632 21.5942C64.6523 21.5942 64.3802 21.5553 64.1081 21.4385C63.836 21.3217 63.6027 21.1659 63.4473 21.0102C63.2918 20.8544 63.1752 20.6987 63.1363 20.543C63.0974 20.4651 63.0197 20.2704 62.9808 19.9589C62.9419 19.6864 62.9031 19.3749 62.8642 18.9855C62.8642 18.5962 62.8253 18.09 62.8253 17.4671C62.9031 16.3379 62.942 15.4814 63.0197 15.0141Z" fill="#222426"/>
<path d="M78.0717 18.4404C78.6548 18.2068 79.1601 17.8175 79.5877 17.3113C80.093 16.6884 80.3262 15.9097 80.3262 14.9752C80.3262 14.2354 80.1707 13.5346 79.8209 12.9506C79.4711 12.3665 78.9657 11.8604 78.3438 11.5489C77.7219 11.1985 76.9833 11.0427 76.1671 11.0427H71.4249C71.1916 11.0427 71.0361 11.1985 71.0361 11.4321V23.6188C71.0361 23.8524 71.1916 24.0082 71.4249 24.0082H73.2906C73.5239 24.0082 73.6793 23.8524 73.6793 23.6188V18.8687H75.3508L77.7996 23.7746C77.8774 23.8914 77.994 24.0082 78.1495 24.0082H80.2873C80.4039 24.0082 80.5594 23.9303 80.6372 23.8135C80.7149 23.6967 80.7149 23.541 80.6372 23.4242L78.0717 18.4404ZM73.6793 13.4567H76.0116C76.5558 13.4567 76.9445 13.5735 77.2554 13.885C77.5664 14.1576 77.683 14.508 77.683 15.0141C77.683 15.4814 77.5275 15.8318 77.2554 16.1043C76.9445 16.3769 76.5558 16.5326 76.0116 16.5326H73.6793V13.4567Z" fill="#222426"/>
<path d="M95.8776 11.0038H87.326C87.0928 11.0038 86.9372 11.1596 86.9372 11.3932V13.0674C86.9372 13.301 87.0928 13.4567 87.326 13.4567H90.2802V23.5799C90.2802 23.8135 90.4357 23.9693 90.669 23.9693H92.4959C92.7291 23.9693 92.8846 23.8135 92.8846 23.5799V13.4567H95.8387C96.072 13.4567 96.2274 13.301 96.2274 13.0674V11.3932C96.2663 11.1985 96.072 11.0038 95.8776 11.0038Z" fill="#222426"/>
<path d="M106.139 11.0038H98.3653C98.1321 11.0038 97.9766 11.1596 97.9766 11.3932V23.5799C97.9766 23.8135 98.1321 23.9693 98.3653 23.9693H106.139C106.373 23.9693 106.528 23.8135 106.528 23.5799V21.9057C106.528 21.6721 106.373 21.5163 106.139 21.5163H100.581V18.6351H105.245C105.479 18.6351 105.634 18.4794 105.634 18.2458V16.6105C105.634 16.3769 105.479 16.2212 105.245 16.2212H100.581V13.4567H106.139C106.373 13.4567 106.528 13.301 106.528 13.0674V11.3932C106.528 11.1985 106.334 11.0038 106.139 11.0038Z" fill="#222426"/>
<path d="M114.27 11.2764C114.231 11.1206 114.076 11.0038 113.92 11.0038H112.443C112.288 11.0038 112.132 11.1206 112.094 11.2764L107.623 23.4631C107.585 23.5799 107.585 23.6967 107.662 23.8135C107.74 23.9303 107.857 23.9693 107.973 23.9693H109.956C110.111 23.9693 110.267 23.8525 110.306 23.6967L111.044 21.5163H115.281L116.02 23.6967C116.058 23.8525 116.214 23.9693 116.369 23.9693H118.352C118.468 23.9693 118.585 23.8914 118.663 23.8135C118.74 23.6967 118.74 23.5799 118.702 23.4631L114.27 11.2764ZM114.504 19.1802H111.86L113.221 15.3646L114.504 19.1802Z" fill="#222426"/>
<path d="M131.225 11.0038H129.359C129.203 11.0038 129.087 11.0817 129.009 11.2374L125.899 18.0511L122.712 11.2374C122.634 11.0817 122.518 11.0038 122.362 11.0038H120.496C120.263 11.0038 120.108 11.1596 120.108 11.3932V23.5799C120.108 23.8135 120.263 23.9693 120.496 23.9693H122.362C122.595 23.9693 122.751 23.8135 122.751 23.5799V17.1556L124.889 21.5553C124.967 21.6721 125.083 21.7889 125.239 21.7889H126.599C126.755 21.7889 126.871 21.711 126.949 21.5553L129.009 17.1945V23.6188C129.009 23.8525 129.165 24.0082 129.398 24.0082H131.264C131.497 24.0082 131.652 23.8525 131.652 23.6188V11.4321C131.613 11.1985 131.458 11.0038 131.225 11.0038Z" fill="#222426"/>
<path d="M141.681 17.3503C141.409 17.0777 141.059 16.883 140.67 16.7273C140.282 16.5716 139.815 16.4548 139.232 16.3769L137.833 16.1822C137.599 16.1433 137.366 16.1043 137.133 15.9875C136.939 15.9097 136.744 15.7929 136.667 15.715C136.433 15.5203 136.356 15.2478 136.356 14.8584C136.356 14.5469 136.433 14.3133 136.55 14.0797C136.705 13.8461 136.9 13.6903 137.133 13.5735C137.405 13.4567 137.755 13.3789 138.144 13.3789C138.493 13.3789 138.804 13.4178 139.077 13.4567C139.349 13.4957 139.621 13.6125 139.854 13.7293C140.087 13.8461 140.32 14.0018 140.554 14.2354C140.709 14.3912 140.942 14.3912 141.098 14.2354L142.303 13.0674C142.381 12.9895 142.419 12.8727 142.419 12.7948C142.419 12.678 142.381 12.6002 142.303 12.5223C141.759 12.0161 141.137 11.6268 140.515 11.3932C139.893 11.1596 139.115 11.0427 138.26 11.0427C137.366 11.0427 136.589 11.1985 135.928 11.51C135.267 11.8215 134.723 12.3276 134.373 12.9116C134.023 13.4957 133.829 14.1965 133.829 14.9752C133.829 16.0654 134.179 16.9609 134.84 17.5839C135.462 18.1679 136.278 18.5183 137.366 18.6741L138.804 18.8687C139.115 18.9077 139.388 18.9855 139.543 19.0245C139.698 19.0634 139.815 19.1413 139.932 19.297C140.165 19.4917 140.282 19.8421 140.282 20.2704C140.282 20.7376 140.126 21.088 139.776 21.3217C139.388 21.5942 138.843 21.7499 138.144 21.7499C137.755 21.7499 137.366 21.711 137.055 21.6331C136.744 21.5553 136.433 21.4385 136.122 21.2827C135.85 21.127 135.578 20.9323 135.306 20.6598C135.228 20.5819 135.151 20.5429 135.034 20.5429C134.917 20.5429 134.84 20.5819 134.762 20.6598L133.518 21.8668C133.44 21.9446 133.401 22.0225 133.401 22.1393C133.401 22.2561 133.44 22.334 133.518 22.4118C134.14 23.0348 134.801 23.4631 135.539 23.7356C136.278 24.0082 137.133 24.125 138.105 24.125C138.766 24.125 139.426 24.0471 139.971 23.8524C140.554 23.6967 141.059 23.4242 141.487 23.0737C141.914 22.7233 142.264 22.295 142.497 21.7889C142.73 21.2827 142.847 20.7376 142.847 20.1536C142.808 18.9077 142.419 17.9732 141.681 17.3503Z" fill="#222426"/>
<rect x="38" y="11" width="1" height="13" fill="#D6D9DC"/>
</svg>
