<svg width="120" height="37" viewBox="0 0 120 37" fill="none" xmlns="http://www.w3.org/2000/svg">
<path d="M26 33V24H30V37H0V24H4V33H26Z" fill="#BCBBBB"/>
<path d="M23.0908 25.9902L23.7844 23.041L7.67993 19.687L7 23L23.0908 25.9902ZM9.1 15.2L24.1 22.2L25.5 19.2L10.5 12.2L9.1 15.2ZM13.3 7.8L26 18.4L28.1 15.9L15.4 5.3L13.3 7.8ZM21.5 0L18.8 2L28.7 15.3L31.4 13.3L21.5 0ZM7 30H23V27H7V30Z" fill="#F48024"/>
<rect x="47" y="13" width="1" height="17" fill="#D6D9DC"/>
<path d="M74.604 13.0146H71.3617C71.2837 13.0146 71.2089 13.0453 71.1538 13.0998C71.0987 13.1544 71.0677 13.2284 71.0677 13.3055V24.1896C71.0677 25.8461 70.251 26.7187 68.7482 26.7187C68.384 26.7334 68.0213 26.6653 67.6879 26.5196C67.3545 26.3739 67.0592 26.1546 66.8249 25.8784C66.7706 25.8251 66.6972 25.7952 66.6207 25.7952C66.5442 25.7952 66.4708 25.8251 66.4165 25.8784L64.2686 27.9954C64.2146 28.0508 64.1839 28.1245 64.1828 28.2015C64.1825 28.2397 64.1899 28.2777 64.2046 28.3131C64.2194 28.3484 64.2411 28.3805 64.2686 28.4075C65.5386 29.664 66.8371 30.1771 68.7605 30.1771C71.7211 30.1771 74.9062 28.3509 74.9062 24.3431V13.3055C74.9068 13.2665 74.8993 13.2277 74.8843 13.1916C74.8692 13.1555 74.8468 13.1228 74.8185 13.0956C74.7902 13.0684 74.7566 13.0471 74.7197 13.0332C74.6828 13.0193 74.6435 13.013 74.604 13.0146Z" fill="#222426"/>
<path d="M83.4747 12.8772C82.6002 12.8541 81.7304 13.0097 80.9196 13.3344C80.1087 13.659 79.3743 14.1457 78.7622 14.764C77.0431 16.4649 77.0431 18.5981 77.0431 21.2969V21.7655C77.0431 24.4643 77.0431 26.6137 78.7622 28.2984C79.374 28.9171 80.1083 29.404 80.9193 29.7287C81.7302 30.0534 82.6002 30.2088 83.4747 30.1852C84.3453 30.2074 85.2112 30.0512 86.0179 29.7265C86.8247 29.4019 87.5548 28.9156 88.1626 28.2984C89.9063 26.5733 89.9062 24.5047 89.9062 21.6484V21.4221C89.9062 18.5617 89.9063 16.4972 88.1626 14.7721C87.5554 14.1536 86.8255 13.666 86.0188 13.3399C85.212 13.0138 84.3459 12.8563 83.4747 12.8772ZM81.5921 17.0951C81.8324 16.8411 82.1245 16.6406 82.449 16.5069C82.7736 16.3731 83.1232 16.3092 83.4747 16.3194C83.822 16.308 84.1678 16.3715 84.4879 16.5054C84.808 16.6394 85.0949 16.8406 85.3286 17.0951C85.8962 17.7173 86.0718 18.4082 86.0718 21.5393C86.0718 24.6704 85.8962 25.341 85.3204 25.9834C85.0876 26.2394 84.801 26.4418 84.4808 26.5765C84.1605 26.7112 83.8143 26.7749 83.4665 26.7632C83.1137 26.7732 82.7629 26.7084 82.4375 26.5732C82.1121 26.438 81.8197 26.2356 81.5799 25.9794C81.0327 25.3774 80.8612 24.6865 80.8612 21.5554C80.8612 18.4243 81.0409 17.7254 81.5921 17.0951Z" fill="#222426"/>
<path d="M102.625 21.309C103.17 20.9237 103.613 20.4156 103.919 19.8268C104.225 19.238 104.385 18.5855 104.385 17.9234C104.385 14.8973 102.299 13.0146 98.9503 13.0146H92.2736C92.2352 13.0146 92.1972 13.0222 92.1617 13.0368C92.1263 13.0515 92.0942 13.073 92.0672 13.1C92.0402 13.1271 92.0189 13.1592 92.0046 13.1945C91.9903 13.2298 91.9832 13.2675 91.9837 13.3055V29.7488C91.9837 29.8249 92.0143 29.8979 92.0686 29.9517C92.123 30.0054 92.1968 30.0357 92.2736 30.0357H99.2157C102.532 30.0357 104.594 28.1126 104.594 25.0138C104.633 24.2782 104.47 23.5459 104.124 22.8939C103.778 22.242 103.26 21.6944 102.625 21.309ZM98.693 19.6687H95.81V16.4568H98.693C99.8568 16.4568 100.547 17.0588 100.547 18.0728C100.547 19.0869 99.8568 19.6687 98.693 19.6687ZM95.81 23.1311H98.9054C100.081 23.1311 100.784 23.7735 100.784 24.8522C100.784 25.9309 100.081 26.6137 98.9054 26.6137H95.81V23.1311Z" fill="#222426"/>
<path d="M117.726 21.1999C116.946 20.4767 115.917 20.0646 114.394 19.8545L112.433 19.5758C111.925 19.5247 111.444 19.3265 111.049 19.0061C110.918 18.881 110.815 18.7309 110.745 18.5649C110.674 18.3989 110.639 18.2205 110.641 18.0405C110.641 16.9376 111.515 16.2508 112.919 16.2508C113.953 16.2508 115.145 16.376 116.125 17.3012C116.152 17.3281 116.183 17.3494 116.218 17.364C116.254 17.3786 116.291 17.3861 116.329 17.3861C116.367 17.3861 116.405 17.3786 116.44 17.364C116.475 17.3494 116.507 17.3281 116.533 17.3012L118.575 15.2811C118.629 15.2257 118.66 15.152 118.661 15.0751C118.661 15.0364 118.653 14.9982 118.638 14.9627C118.622 14.9272 118.6 14.8953 118.571 14.869C117.15 13.4913 115.435 12.8772 113.021 12.8772C109.387 12.8772 106.941 14.9983 106.941 18.1537C106.941 19.6202 107.349 20.7434 108.223 21.5958C109.003 22.3473 110.11 22.8079 111.605 23.0382L113.61 23.3129C114.092 23.3322 114.554 23.5083 114.924 23.8139C115.071 23.9713 115.183 24.157 115.253 24.3594C115.323 24.5617 115.351 24.7763 115.333 24.9896C115.333 26.4319 113.895 26.7349 112.687 26.7349C111.008 26.7349 109.763 26.3309 108.877 25.434C108.823 25.3801 108.749 25.3496 108.673 25.3491C108.595 25.3502 108.52 25.3805 108.464 25.434L106.361 27.5106C106.307 27.5643 106.277 27.6369 106.277 27.7126C106.277 27.7883 106.307 27.8609 106.361 27.9146C107.937 29.4983 109.816 30.173 112.638 30.173C116.497 30.173 119.094 28.052 119.094 24.8966C119.11 23.3008 118.64 22.0564 117.726 21.1999Z" fill="#222426"/>
</svg>
