<svg width="146" height="37" viewBox="0 0 146 37" fill="none" xmlns="http://www.w3.org/2000/svg">
<path d="M26 33V24H30V37H0V24H4V33H26Z" fill="#BCBBBB"/>
<path d="M23.0908 25.9902L23.7844 23.041L7.67993 19.687L7 23L23.0908 25.9902ZM9.1 15.2L24.1 22.2L25.5 19.2L10.5 12.2L9.1 15.2ZM13.3 7.8L26 18.4L28.1 15.9L15.4 5.3L13.3 7.8ZM21.5 0L18.8 2L28.7 15.3L31.4 13.3L21.5 0ZM7 30H23V27H7V30Z" fill="#F48024"/>
<rect x="47" y="13" width="1" height="17" fill="#D6D9DC"/>
<path d="M77.3575 15.889V13.7494C77.3575 13.3928 77.0999 13.1381 76.7393 13.1381H65.6634C65.3028 13.1381 65.0452 13.3928 65.0452 13.7494V15.889C65.0452 16.2456 65.3028 16.5003 65.6634 16.5003H69.3725V29.3377C69.3725 29.6943 69.6301 29.9491 69.9907 29.9491H72.3604C72.721 29.9491 72.9786 29.6943 72.9786 29.3377V16.5003H76.6878C77.0999 16.5003 77.3575 16.2456 77.3575 15.889ZM85.0848 13.5966C84.9818 13.3419 84.7757 13.189 84.5181 13.189H82.612C82.3545 13.189 82.1484 13.3419 82.0454 13.5966L76.2756 29.1849C76.2241 29.3887 76.2241 29.5925 76.3271 29.7453C76.4302 29.8981 76.6362 30 76.8423 30H79.3666C79.6241 30 79.8817 29.8472 79.9332 29.5925L80.8605 26.8925H86.2181L87.1454 29.5925C87.2484 29.8472 87.4545 30 87.7121 30H90.2363C90.4424 30 90.6485 29.8981 90.7515 29.7453C90.8545 29.5925 90.9061 29.3887 90.803 29.1849L85.0848 13.5966ZM81.9939 23.6322L83.5908 19.2002L85.1363 23.6322H81.9939ZM102.631 26.6378H95.625V13.8004C95.625 13.4438 95.3674 13.189 95.0068 13.189H92.6371C92.2765 13.189 92.0189 13.4438 92.0189 13.8004V29.3887C92.0189 29.7453 92.2765 30 92.6371 30H102.631C102.992 30 103.249 29.7453 103.249 29.3887V27.2491C103.249 26.9435 102.992 26.6378 102.631 26.6378ZM115.745 13.189H105.648C105.287 13.189 105.03 13.4438 105.03 13.8004V29.3887C105.03 29.7453 105.287 30 105.648 30H115.745C116.106 30 116.363 29.7453 116.363 29.3887V27.2491C116.363 26.8925 116.106 26.6378 115.745 26.6378H108.688V23.1737H114.612C114.972 23.1737 115.23 22.919 115.23 22.5624V20.4738C115.23 20.1172 114.972 19.8625 114.612 19.8625H108.688V16.5003H115.745C116.106 16.5003 116.363 16.2456 116.363 15.889V13.7494C116.363 13.4438 116.106 13.189 115.745 13.189ZM130.472 13.189H128.102C127.742 13.189 127.484 13.4438 127.484 13.8004V22.7153L121.302 13.4438C121.199 13.2909 120.993 13.189 120.787 13.189H118.572C118.211 13.189 117.954 13.4438 117.954 13.8004V29.3887C117.954 29.7453 118.211 30 118.572 30H120.942C121.302 30 121.56 29.7453 121.56 29.3887V20.4738L127.742 29.7453C127.845 29.8981 128.051 30 128.257 30H130.472C130.833 30 131.09 29.7453 131.09 29.3887V13.8004C131.09 13.4438 130.833 13.189 130.472 13.189ZM144.742 13.189H133.666C133.305 13.189 133.048 13.4438 133.048 13.8004V15.9399C133.048 16.2965 133.305 16.5512 133.666 16.5512H137.375V29.3887C137.375 29.7453 137.633 30 137.993 30H140.363C140.724 30 140.981 29.7453 140.981 29.3887V16.5512H144.69C145.051 16.5512 145.308 16.2965 145.308 15.9399V13.8004C145.36 13.4438 145.102 13.189 144.742 13.189Z" fill="#222426"/>
</svg>
