<svg width="196" height="37" viewBox="0 0 196 37" fill="none" xmlns="http://www.w3.org/2000/svg">
<path d="M26 33V24H30V37H0V24H4V33H26Z" fill="#BCBBBB"/>
<path d="M23.0908 25.9902L23.7844 23.041L7.67993 19.687L7 23L23.0908 25.9902ZM9.1 15.2L24.1 22.2L25.5 19.2L10.5 12.2L9.1 15.2ZM13.3 7.8L26 18.4L28.1 15.9L15.4 5.3L13.3 7.8ZM21.5 0L18.8 2L28.7 15.3L31.4 13.3L21.5 0ZM7 30H23V27H7V30Z" fill="#F48024"/>
<rect x="47" y="13" width="1" height="17" fill="#D6D9DC"/>
<path d="M74.9254 12.9576H64.5403C64.2287 12.9576 64.021 13.1628 64.021 13.4707V29.5316C64.021 29.8395 64.2287 30.0447 64.5403 30.0447H74.9254C75.2369 30.0447 75.4446 29.8395 75.4446 29.5316V27.3252C75.4446 27.0173 75.2369 26.812 74.9254 26.812H67.5V23.0149H73.7311C74.0426 23.0149 74.2503 22.8096 74.2503 22.5018V20.3466C74.2503 20.0387 74.0426 19.8335 73.7311 19.8335H67.5V16.1903H74.9254C75.2369 16.1903 75.4446 15.985 75.4446 15.6771V13.4707C75.4446 13.2141 75.185 12.9576 74.9254 12.9576Z" fill="#222426"/>
<path d="M90.8427 12.9576H88.4022C88.0906 12.9576 87.8829 13.1628 87.8829 13.4707V23.0662L81.3403 13.2141C81.2365 13.0602 81.0807 12.9576 80.9249 12.9576H78.6401C78.3286 12.9576 78.1209 13.1628 78.1209 13.4707V29.5316C78.1209 29.8395 78.3286 30.0448 78.6401 30.0448H81.1326C81.4442 30.0448 81.6519 29.8395 81.6519 29.5316V19.9361L88.1945 29.7882C88.2983 29.9421 88.4541 30.0448 88.6099 30.0448H90.8946C91.2062 30.0448 91.4139 29.8395 91.4139 29.5316V13.4707C91.362 13.2141 91.1543 12.9576 90.8427 12.9576Z" fill="#222426"/>
<path d="M104.705 12.9576H93.2812C92.9697 12.9576 92.762 13.1628 92.762 13.4707V15.6771C92.762 15.985 92.9697 16.1903 93.2812 16.1903H97.2276V29.5316C97.2276 29.8395 97.4353 30.0448 97.7469 30.0448H100.187C100.499 30.0448 100.707 29.8395 100.707 29.5316V16.1903H104.653C104.965 16.1903 105.172 15.985 105.172 15.6771V13.4707C105.224 13.2141 105.016 12.9576 104.705 12.9576Z" fill="#222426"/>
<path d="M117.863 12.9576H107.478C107.166 12.9576 106.958 13.1628 106.958 13.4707V29.5316C106.958 29.8395 107.166 30.0448 107.478 30.0448H117.863C118.174 30.0448 118.382 29.8395 118.382 29.5316V27.3252C118.382 27.0173 118.174 26.812 117.863 26.812H110.438V23.0149H116.669C116.98 23.0149 117.188 22.8096 117.188 22.5018V20.3466C117.188 20.0387 116.98 19.8335 116.669 19.8335H110.438V16.1903H117.863C118.174 16.1903 118.382 15.985 118.382 15.6771V13.4707C118.382 13.2141 118.174 12.9576 117.863 12.9576Z" fill="#222426"/>
<path d="M129.363 22.707C130.142 22.3991 130.817 21.886 131.388 21.2189C132.063 20.3979 132.375 19.3717 132.375 18.1402C132.375 17.1652 132.167 16.2416 131.7 15.4719C131.232 14.7022 130.557 14.0351 129.726 13.6246C128.896 13.1628 127.909 12.9576 126.819 12.9576H120.484C120.172 12.9576 119.964 13.1628 119.964 13.4707V29.5316C119.964 29.8395 120.172 30.0448 120.484 30.0448H122.976C123.288 30.0448 123.495 29.8395 123.495 29.5316V23.2714H125.728L129 29.7369C129.103 29.8908 129.259 30.0448 129.467 30.0448H132.323C132.479 30.0448 132.686 29.9421 132.79 29.7882C132.894 29.6342 132.894 29.429 132.79 29.2751L129.363 22.707ZM123.495 16.139H126.611C127.338 16.139 127.857 16.2929 128.273 16.7034C128.688 17.0626 128.844 17.5244 128.844 18.1915C128.844 18.8072 128.636 19.269 128.273 19.6282C127.857 19.9874 127.338 20.1927 126.611 20.1927H123.495V16.139Z" fill="#222426"/>
<path d="M145.873 14.4969C145.354 14.0351 144.731 13.6246 144.004 13.3681C143.277 13.1115 142.498 12.9576 141.667 12.9576H135.488C135.177 12.9576 134.969 13.1628 134.969 13.4707V29.5316C134.969 29.8395 135.177 30.0448 135.488 30.0448H137.981C138.292 30.0448 138.5 29.8395 138.5 29.5316V23.7333H141.667C142.758 23.7333 143.796 23.4767 144.679 23.0149C145.562 22.5531 146.237 21.886 146.704 21.065C147.172 20.244 147.431 19.3204 147.431 18.2941C147.431 17.5244 147.275 16.806 147.016 16.139C146.756 15.5745 146.341 15.0101 145.873 14.4969ZM138.5 16.1903H141.564C142.291 16.1903 142.862 16.3955 143.329 16.7547C143.744 17.1139 143.952 17.6783 143.952 18.3454C143.952 19.0125 143.744 19.5256 143.329 19.9361C142.914 20.3466 142.342 20.5006 141.564 20.5006H138.5V16.1903Z" fill="#222426"/>
<path d="M158.377 22.707C159.156 22.3991 159.831 21.886 160.402 21.2189C161.077 20.3979 161.389 19.3717 161.389 18.1402C161.389 17.1652 161.181 16.2416 160.714 15.4719C160.246 14.7022 159.571 14.0351 158.74 13.6246C157.91 13.1628 156.923 12.9576 155.833 12.9576H149.498C149.186 12.9576 148.978 13.1628 148.978 13.4707V29.5316C148.978 29.8395 149.186 30.0448 149.498 30.0448H151.99C152.302 30.0448 152.509 29.8395 152.509 29.5316V23.2714H154.742L158.013 29.7369C158.117 29.8908 158.273 30.0448 158.481 30.0448H161.337C161.492 30.0448 161.7 29.9421 161.804 29.7882C161.908 29.6342 161.908 29.429 161.804 29.2751L158.377 22.707ZM152.509 16.139H155.625C156.352 16.139 156.871 16.2929 157.286 16.7034C157.702 17.0626 157.858 17.5244 157.858 18.1915C157.858 18.8072 157.65 19.269 157.286 19.6282C156.871 19.9874 156.352 20.1927 155.625 20.1927H152.509V16.139Z" fill="#222426"/>
<path d="M166.871 12.9576H164.378C164.067 12.9576 163.859 13.1628 163.859 13.4707V29.5316C163.859 29.8395 164.067 30.0448 164.378 30.0448H166.871C167.182 30.0448 167.39 29.8395 167.39 29.5316V13.4707C167.39 13.2141 167.182 12.9576 166.871 12.9576Z" fill="#222426"/>
<path d="M180.432 21.2702C180.069 20.9111 179.602 20.6545 179.082 20.4492C178.563 20.244 177.94 20.09 177.161 19.9874L175.292 19.7309C174.98 19.6795 174.669 19.6282 174.357 19.4743C174.097 19.3717 173.838 19.2177 173.734 19.1151C173.422 18.8585 173.319 18.4993 173.319 17.9862C173.319 17.5757 173.422 17.2678 173.578 16.96C173.786 16.6521 174.046 16.4468 174.357 16.2929C174.721 16.139 175.188 16.0363 175.707 16.0363C176.174 16.0363 176.59 16.0876 176.953 16.139C177.317 16.1903 177.628 16.3442 177.992 16.4981C178.303 16.6521 178.615 16.8573 178.927 17.1652C179.134 17.3705 179.446 17.3705 179.653 17.1652L181.263 15.6258C181.367 15.5232 181.419 15.3693 181.419 15.2666C181.419 15.1127 181.367 15.0101 181.263 14.9074C180.536 14.2404 179.705 13.7272 178.875 13.4194C178.044 13.1115 177.005 12.9576 175.863 12.9576C174.669 12.9576 173.63 13.1628 172.747 13.5733C171.865 13.9838 171.138 14.6509 170.67 15.4206C170.203 16.1903 169.943 17.1139 169.943 18.1402C169.943 19.5769 170.411 20.7571 171.293 21.5781C172.124 22.3478 173.215 22.8096 174.669 23.0149L176.59 23.2714C177.005 23.3228 177.369 23.4254 177.576 23.4767C177.784 23.528 177.94 23.6306 178.096 23.8359C178.407 24.0925 178.563 24.5543 178.563 25.1187C178.563 25.7345 178.355 26.1963 177.888 26.5042C177.369 26.8633 176.642 27.0686 175.707 27.0686C175.188 27.0686 174.669 27.0173 174.253 26.9147C173.838 26.812 173.422 26.6581 173.007 26.4528C172.644 26.2476 172.28 25.991 171.917 25.6318C171.813 25.5292 171.709 25.4779 171.553 25.4779C171.397 25.4779 171.293 25.5292 171.19 25.6318L169.528 27.2225C169.424 27.3252 169.372 27.4278 169.372 27.5817C169.372 27.7357 169.424 27.8383 169.528 27.9409C170.359 28.7619 171.242 29.3264 172.228 29.6856C173.215 30.0447 174.357 30.1987 175.655 30.1987C176.538 30.1987 177.421 30.0961 178.148 29.8395C178.927 29.6342 179.602 29.2751 180.173 28.8132C180.744 28.3514 181.211 27.787 181.523 27.1199C181.834 26.4528 181.99 25.7345 181.99 24.9648C181.938 23.3228 181.419 22.0913 180.432 21.2702Z" fill="#222426"/>
<path d="M194.957 16.1903C195.268 16.1903 195.476 15.985 195.476 15.6771V13.4707C195.476 13.1628 195.268 12.9576 194.957 12.9576H184.571C184.26 12.9576 184.052 13.1628 184.052 13.4707V29.5316C184.052 29.8395 184.26 30.0448 184.571 30.0448H194.957C195.268 30.0448 195.476 29.8395 195.476 29.5316V27.3252C195.476 27.0173 195.268 26.812 194.957 26.812H187.531V23.0149H193.762C194.074 23.0149 194.282 22.8096 194.282 22.5018V20.3466C194.282 20.0387 194.074 19.8335 193.762 19.8335H187.531V16.1903H194.957Z" fill="#222426"/>
</svg>
