<svg width="111" height="22" viewBox="0 0 111 22" fill="none" xmlns="http://www.w3.org/2000/svg">
<path d="M16 20V14H18V22H0V14H2V20H16Z" fill="#C1BEBC"/>
<path d="M4 18H14V16H4V18ZM12.72 0L11.15 1.17L17 9.05L18.57 7.87L12.72 0ZM7.86 4.64L15.4 10.92L16.65 9.42L9.11 3.13L7.86 4.64V4.64ZM5.39 9.01L14.29 13.15L15.12 11.37L6.22 7.23L5.4 9L5.39 9.01ZM4.12 13.61L14.03 15.28L14.16 13.61L4.53 11.69L4.13 13.61H4.12Z" fill="#F48024"/>
<path d="M31.26 11.52L32.3 10.48H30.17V7.95H29.04V15.93C29.04 17.07 29.7 18 31.01 18H31.81V17.03H31.21C30.5 17.03 30.17 16.61 30.17 15.9V11.52H31.26V11.52ZM89.98 15.58V6.86H87.98V15.71C87.98 16.85 88.67 18 90.31 18H91.45V16.3H90.68C90.18 16.3 89.98 16.06 89.98 15.58V15.58ZM108 9.98L106.71 14.94L105.07 9.99H103.61L101.98 14.94L100.68 9.99H98.56L101.02 17.99H102.67L104.34 12.97L106.02 18H107.67L110.11 9.99H108.01L108 9.98ZM96.1 15.94C95.87 16.17 95.56 16.29 95.16 16.29C94.76 16.29 94.47 16.17 94.24 15.94C93.82 15.52 93.78 14.82 93.78 13.99C93.78 13.15 93.82 12.46 94.24 12.05C94.47 11.82 94.76 11.69 95.16 11.69C95.56 11.69 95.86 11.82 96.1 12.05C96.51 12.46 96.56 13.15 96.56 13.99C96.56 14.82 96.51 15.52 96.1 15.94V15.94ZM95.16 9.9C93.98 9.9 93.18 10.36 92.69 10.88C91.96 11.63 91.78 12.54 91.78 13.98C91.78 15.45 91.96 16.35 92.68 17.11C93.18 17.63 93.98 18.09 95.16 18.09C96.35 18.09 97.16 17.63 97.66 17.11C98.38 16.35 98.56 15.45 98.56 13.99C98.56 12.54 98.38 11.63 97.66 10.88C97.3331 10.5535 96.9423 10.298 96.5122 10.1294C96.082 9.96079 95.6217 9.88269 95.16 9.9V9.9ZM83.04 9.15V18H85.04V11.68H86.52V10.16H85.04V9.29C85.04 8.82 85.27 8.56 85.75 8.56H86.52V6.86H85.38C83.75 6.86 83.04 8.01 83.04 9.16V9.15ZM78.94 10.75V10H76.98V18H78.98V13.18C78.98 12.17 79.65 11.7 80.27 11.7C80.77 11.7 81.02 11.87 81.32 12.17L82.84 10.66C82.5971 10.404 82.3012 10.2043 81.973 10.0747C81.6448 9.94515 81.2922 9.88894 80.94 9.91C80.08 9.91 79.32 10.31 78.94 10.77V10.75ZM70.97 13.25C70.98 12.89 71.03 12.68 71.15 12.39C71.2642 12.1331 71.4531 11.9165 71.6921 11.7685C71.9311 11.6205 72.2091 11.5478 72.49 11.56C73.17 11.56 73.61 11.91 73.83 12.39C73.95 12.68 74 12.89 74.01 13.25H70.97V13.25ZM72.49 9.9C70.42 9.9 69 11.37 69 13.99C69 17.23 70.82 18.09 72.7 18.09C74.15 18.09 74.94 17.64 75.75 16.83L74.54 15.65C74.03 16.15 73.6 16.4 72.72 16.4C71.6 16.4 70.97 15.65 70.97 14.62H75.98V13.72C75.98 11.52 74.72 9.9 72.49 9.9V9.9ZM66.99 9.99L65.37 14.94L63.74 9.99H61.64L64.59 17.99H66.15L69.09 9.99H67H66.99ZM59.2 15.94C58.97 16.17 58.66 16.29 58.26 16.29C57.86 16.29 57.57 16.17 57.34 15.94C56.93 15.52 56.88 14.82 56.88 13.99C56.88 13.15 56.93 12.46 57.34 12.05C57.57 11.82 57.86 11.69 58.26 11.69C58.66 11.69 58.97 11.82 59.2 12.05C59.62 12.46 59.66 13.15 59.66 13.99C59.66 14.82 59.62 15.52 59.2 15.94V15.94ZM58.26 9.9C57.08 9.9 56.28 10.36 55.79 10.88C55.07 11.63 54.89 12.54 54.89 13.98C54.89 15.45 55.07 16.35 55.79 17.11C56.29 17.63 57.08 18.09 58.26 18.09C59.45 18.09 60.26 17.63 60.76 17.11C61.48 16.35 61.66 15.45 61.66 13.99C61.66 12.54 61.48 11.63 60.76 10.88C60.4331 10.5535 60.0423 10.298 59.6122 10.1294C59.182 9.96079 58.7217 9.88269 58.26 9.9ZM52.98 10.3H51.58L48.08 13.69L48.09 6.87H46.97V18H48.09V15.19L49.45 13.82L52.03 18H53.43L50.23 13.04L52.98 10.3V10.3ZM43.34 11.21C44.07 11.21 44.53 11.43 45.1 12.07C45.1 12.07 45.86 11.34 45.85 11.33C45.549 10.9593 45.1649 10.6647 44.7288 10.4701C44.2927 10.2756 43.8169 10.1864 43.34 10.21C41.4 10.21 39.94 11.53 39.94 14.15C39.94 16.78 41.4 18.09 43.34 18.09C44.4 18.09 45.07 17.81 45.87 16.95L45.1 16.21C44.53 16.86 44.07 17.09 43.34 17.09C42.59 17.09 41.96 16.79 41.56 16.21C41.2 15.71 41.06 15.12 41.06 14.15C41.06 13.18 41.2 12.59 41.56 12.09C41.96 11.51 42.59 11.21 43.34 11.21V11.21ZM37.81 15.28C37.81 15.92 37.68 16.36 37.41 16.61C36.93 17.07 36.35 17.12 35.7 17.12C34.48 17.12 33.93 16.7 33.93 15.81C33.93 14.91 34.49 14.45 35.65 14.45H37.81V15.28V15.28ZM35.85 10.21C34.62 10.21 33.85 10.46 33.16 11.31C33.16 11.33 33.9 12.06 33.9 12.06C34.35 11.42 34.85 11.18 35.84 11.18C37.24 11.18 37.81 11.74 37.81 12.87V13.6H35.49C33.77 13.6 32.84 14.48 32.84 15.82C32.84 16.43 33.04 17.02 33.41 17.39C33.9 17.89 34.52 18.09 35.59 18.09C36.62 18.09 37.18 17.89 37.81 17.26V18H38.93V12.78C38.93 11.1 37.91 10.21 35.85 10.21V10.21ZM26.23 13.67L24.99 13.56C24.02 13.48 23.65 13.09 23.65 12.43C23.65 11.65 24.25 11.17 25.37 11.17C26.17 11.17 26.87 11.35 27.42 11.77L28.15 11.04C27.3483 10.4556 26.371 10.1627 25.38 10.21C23.74 10.21 22.56 11.06 22.56 12.46C22.56 13.73 23.36 14.4 24.86 14.53L26.12 14.63C27.01 14.71 27.4 15.09 27.4 15.76C27.4 16.66 26.62 17.12 25.35 17.12C24.4 17.12 23.57 16.87 22.96 16.23L22.21 16.98C22.6337 17.3699 23.1325 17.6694 23.6758 17.8602C24.219 18.0511 24.7955 18.1293 25.37 18.09C27.23 18.09 28.49 17.23 28.49 15.75C28.49 14.31 27.57 13.79 26.23 13.67V13.67Z" fill="black"/>
</svg>
