<svg width="187" height="37" viewBox="0 0 187 37" fill="none" xmlns="http://www.w3.org/2000/svg">
<path d="M42 23L39.8 22.8C38.1 22.7 37.5 22 37.5 20.8C37.5 19.4 38.5 18.6 40.5 18.6C41.8 18.5 43.1 18.9 44.1 19.7L45.4 18.4C44 17.4 42.3 16.9 40.6 17C37.7 17 35.7 18.5 35.7 20.9C35.7 23.1 37.1 24.3 39.7 24.5L41.9 24.7C43.5 24.8 44.1 25.5 44.1 26.7C44.1 28.3 42.7 29.1 40.5 29.1C38.9 29.2 37.4 28.6 36.3 27.5L35 28.8C36.5 30.2 38.5 30.8 40.5 30.7C43.7 30.7 46 29.2 46 26.6C46 24 44.4 23.2 42 23ZM57.8 16.9C55.6 16.9 54.3 17.3 53.1 18.8L54.4 20.1C55.2 19 56.5 18.4 57.8 18.6C60.3 18.6 61.2 19.6 61.2 21.5V22.8H57.2C54.2 22.8 52.6 24.3 52.6 26.7C52.6 27.7 52.9 28.7 53.6 29.4C54.4 30.3 55.5 30.6 57.4 30.6C58.8 30.7 60.3 30.2 61.3 29.2V30.5H63.3V21.4C63.2 18.5 61.4 16.9 57.8 16.9V16.9ZM61.2 25.8C61.3 26.6 61.1 27.5 60.5 28.1C60.0862 28.4441 59.6072 28.7012 59.0918 28.8558C58.5763 29.0105 58.0349 29.0595 57.5 29C55.4 29 54.4 28.3 54.4 26.7C54.4 25.1 55.4 24.3 57.4 24.3H61.2V25.8V25.8ZM70.9 18.7C72.1 18.7 73.3 19.2 74 20.2L75.3 18.9C74.7724 18.2477 74.1 17.7274 73.3363 17.3803C72.5725 17.0331 71.7384 16.8687 70.9 16.9C67.5 16.9 65 19.2 65 23.8C65 28.4 67.6 30.7 70.9 30.7C72.6 30.8 74.2 30 75.3 28.7L74 27.4C73.3 28.4 72.1 28.9 70.9 28.9C69.7 29 68.5 28.4 67.8 27.4C67.1 26.3 66.8 25.1 66.9 23.8C66.8 22.5 67.1 21.3 67.8 20.2C68.5 19.2 69.7 18.6 70.9 18.7V18.7ZM87.7 17.1H85.3L79.2 23V11.1H77.2V30.5H79.2V25.6L81.6 23.2L86.1 30.5H88.5L82.9 21.9L87.7 17.1V17.1ZM96.9 16.94C95.3 16.84 93.7 17.44 92.6 18.64C91.3 19.94 91 21.54 91 24.04C91 26.54 91.3 28.14 92.6 29.44C93.7 30.54 95.3 31.14 96.9 31.14C98.5 31.24 100.1 30.64 101.2 29.44C102.5 28.14 102.8 26.54 102.8 24.04C102.8 21.54 102.5 19.94 101.2 18.64C100.655 18.0548 99.9858 17.5986 99.2419 17.3045C98.4981 17.0104 97.698 16.8859 96.9 16.94V16.94ZM98.6 27.44C97.7 28.24 96.3 28.24 95.4 27.44C94.7 26.74 94.6 25.44 94.6 24.04C94.6 22.64 94.7 21.34 95.4 20.64C96.3 19.84 97.7 19.84 98.6 20.64C99.3 21.34 99.4 22.54 99.4 24.04C99.4 25.54 99.3 26.74 98.6 27.44ZM112.2 17.04L109.4 25.64L106.6 17.04H102.9L108.1 31.04H110.8L115.9 17.04H112.2ZM121.8 16.94C118.2 16.94 115.7 19.54 115.7 24.04C115.7 29.74 118.9 31.24 122.2 31.24C124.2 31.34 126.2 30.54 127.5 29.04L125.4 26.94C124.6 27.84 123.4 28.34 122.2 28.24C120.6 28.34 119.2 27.14 119.1 25.54V25.14H127.8V23.54C127.9 19.74 125.7 16.94 121.8 16.94V16.94ZM119.1 22.74C119.1 22.24 119.2 21.74 119.4 21.24C119.8 20.34 120.7 19.84 121.7 19.84C122.7 19.74 123.6 20.34 124 21.24C124.2 21.74 124.3 22.24 124.3 22.74H119.1V22.74ZM132.43 18.44V17.14H129.03V31.14H132.53V22.74C132.43 21.44 133.33 20.34 134.63 20.14H134.83C135.53 20.14 136.23 20.44 136.63 20.94L139.23 18.34C138.812 17.8901 138.299 17.5397 137.728 17.3147C137.157 17.0897 136.542 16.9958 135.93 17.04C134.63 16.94 133.33 17.44 132.43 18.44V18.44ZM140.03 15.64V31.04H143.53V20.04H146.13V17.34H143.53V15.84C143.43 15.24 143.83 14.64 144.43 14.54H146.03V11.54H144.03C143.518 11.5267 143.008 11.6145 142.53 11.7983C142.051 11.9821 141.614 12.2583 141.243 12.6112C140.871 12.9641 140.573 13.3867 140.365 13.8549C140.157 14.3232 140.043 14.8278 140.03 15.34V15.64V15.64ZM160.3 16.94C158.7 16.84 157.1 17.44 156 18.64C154.7 19.94 154.4 21.54 154.4 24.04C154.4 26.54 154.7 28.14 156 29.44C157.1 30.54 158.7 31.14 160.3 31.14C161.9 31.24 163.5 30.64 164.6 29.44C165.9 28.14 166.2 26.54 166.2 24.04C166.2 21.54 165.9 19.94 164.6 18.64C164.055 18.0548 163.386 17.5986 162.642 17.3045C161.898 17.0104 161.098 16.8859 160.3 16.94V16.94ZM162 27.44C161.1 28.24 159.7 28.24 158.8 27.44C158.1 26.74 158 25.44 158 24.04C158 22.64 158.1 21.34 158.8 20.64C159.7 19.84 161.1 19.84 162 20.64C162.7 21.34 162.8 22.54 162.8 24.04C162.8 25.54 162.7 26.74 162 27.44ZM182.7 17.04L180.4 25.64L177.5 17.04H175L172.2 25.74L169.9 17.14H166.2L170.5 31.14H173.4L176.3 22.34L179.2 31.14H182.2L186.5 17.14L182.7 17.04V17.04ZM151.48 26.84V11.64H147.98V27.04C147.953 27.5392 148.025 28.0388 148.191 28.5102C148.358 28.9815 148.616 29.4155 148.95 29.787C149.284 30.1586 149.689 30.4606 150.14 30.6756C150.591 30.8906 151.081 31.0144 151.58 31.04H154.08V28.04H152.78C152.18 28.14 151.68 27.84 151.48 27.24V26.84V26.84ZM52.7 17.4H49V13H47V26.9C47 28.9 48.1 30.5 50.4 30.5H51.8V28.8H50.8C49.5 28.8 49 28.1 49 26.8V19.1H50.9L52.7 17.4V17.4Z" fill="#222426"/>
<path d="M26 33V24H30V37H0V24H4V33H26Z" fill="#BCBBBB"/>
<path d="M23.1 25.99L23.78 23.04L7.68 19.69L7 23L23.1 25.99V25.99ZM9.1 15.2L24.1 22.2L25.5 19.2L10.5 12.2L9.1 15.2ZM13.3 7.8L26 18.4L28.1 15.9L15.4 5.3L13.3 7.8V7.8ZM21.5 0L18.8 2L28.7 15.3L31.4 13.3L21.5 0ZM7 30H23V27H7V30Z" fill="#F48024"/>
</svg>
