<svg width="85" height="8" viewBox="0 0 85 8" fill="none" xmlns="http://www.w3.org/2000/svg">
<g id="Icon/LogoEnterpriseWordmarkSm" clip-path="url(#clip0)">
<path id="Enterprise" fill-rule="evenodd" clip-rule="evenodd" d="M0.0805969 7.85702V0.00302201H5.0746V1.58702H2.0386V3.16002H4.5576V4.74402H2.0386V7.85702H0.0805969ZM5.9106 4.87938V3.10244C5.9106 1.91059 6.08396 1.28216 6.5607 0.772914C7.09161 0.22033 7.76338 -0.00720528 8.91189 -0.00720528C10.1362 -0.00720528 10.8622 0.26367 11.3823 0.913769C11.7615 1.39051 11.9132 1.99727 11.9132 3.10244V4.87938C11.9132 6.07123 11.7398 6.69966 11.2631 7.2089C10.7322 7.76149 10.0604 7.98902 8.91189 7.98902C7.68754 7.98902 6.96159 7.71815 6.44151 7.06805C6.06229 6.59131 5.9106 5.98455 5.9106 4.87938ZM9.98456 4.72769V3.25413C9.98456 1.91059 9.75702 1.5422 8.91189 1.5422C8.06676 1.5422 7.83923 1.91059 7.83923 3.25413V4.72769C7.83923 6.07123 8.06676 6.43962 8.91189 6.43962C9.75702 6.43962 9.98456 6.07123 9.98456 4.72769ZM14.9846 4.82102V7.85702H13.0266V0.00302201H16.1066C17.2066 0.00302201 17.7786 0.157022 18.1966 0.575022C18.6036 0.982022 18.7686 1.51002 18.7686 2.37902C18.7686 3.73202 18.3946 4.37002 17.4156 4.66702L19.1096 7.85702H16.9426L15.5126 4.82102H14.9846ZM14.9516 3.33602H15.9086C16.6016 3.33602 16.8326 3.11602 16.8326 2.44502C16.8326 1.77402 16.6016 1.55402 15.9086 1.55402H14.9516V3.33602ZM22.9839 7.85702V0.00302201H28.0659V1.58702H24.9199V3.10502H27.5709V4.68902H24.9199V6.27302H28.1319V7.85702H22.9839ZM29.0312 7.85702V0.00302201H30.9342L33.3432 4.59002V0.00302201H35.2352V7.85702H33.3322L30.9232 3.27002V7.85702H29.0312ZM38.1406 7.85702V1.58702H36.1166V0.00302201H42.1226V1.58702H40.0986V7.85702H38.1406ZM42.9806 7.85702V0.00302201H48.0626V1.58702H44.9166V3.10502H47.5676V4.68902H44.9166V6.27302H48.1286V7.85702H42.9806ZM50.9844 4.82102V7.85702H49.0264V0.00302201H52.1064C53.2064 0.00302201 53.7784 0.157022 54.1964 0.575022C54.6034 0.982022 54.7684 1.51002 54.7684 2.37902C54.7684 3.73202 54.3944 4.37002 53.4154 4.66702L55.1094 7.85702H52.9424L51.5124 4.82102H50.9844ZM50.9514 3.33602H51.9084C52.6014 3.33602 52.8324 3.11602 52.8324 2.44502C52.8324 1.77402 52.6014 1.55402 51.9084 1.55402H50.9514V3.33602ZM57.9397 5.22802V7.85702H55.9817V0.00302201H58.7207C59.9197 0.00302201 60.5357 0.179022 60.9867 0.641022C61.4267 1.09202 61.5917 1.64202 61.5917 2.64302C61.5917 3.63302 61.3717 4.26002 60.8767 4.68902C60.4257 5.08502 59.8317 5.22802 58.7207 5.22802H57.9397ZM57.9067 3.66602H58.7317C59.4247 3.66602 59.6557 3.40202 59.6557 2.61002C59.6557 1.81802 59.4247 1.55402 58.7317 1.55402H57.9067V3.66602ZM64.0136 4.82102V7.85702H62.0556V0.00302201H65.1356C66.2356 0.00302201 66.8076 0.157022 67.2256 0.575022C67.6326 0.982022 67.7976 1.51002 67.7976 2.37902C67.7976 3.73202 67.4236 4.37002 66.4446 4.66702L68.1386 7.85702H65.9716L64.5416 4.82102H64.0136ZM63.9806 3.33602H64.9376C65.6306 3.33602 65.8616 3.11602 65.8616 2.44502C65.8616 1.77402 65.6306 1.55402 64.9376 1.55402H63.9806V3.33602ZM69.0846 7.85702V0.00302201H71.0426V7.85702H69.0846ZM71.8236 6.55866L73.2866 5.62666C73.6334 6.22271 74.0886 6.45029 74.9122 6.45029C75.595 6.45029 75.9201 6.20103 75.9201 5.68084C75.9201 5.26903 75.7033 5.05228 75.1398 4.9114C73.7851 4.57544 73.5034 4.47791 73.0916 4.21781C72.4738 3.81683 72.1921 3.24246 72.1921 2.36464C72.1921 0.814905 73.1349 -0.00872803 74.9014 -0.00872803C76.2344 -0.00872803 77.0797 0.424763 77.6107 1.35677L76.191 2.25626C75.8117 1.72524 75.4541 1.53017 74.8689 1.53017C74.327 1.53017 74.0344 1.77942 74.0344 2.23459C74.0344 2.75478 74.327 2.97152 75.3674 3.23162C76.3536 3.48088 76.592 3.56757 76.9821 3.81683C77.5132 4.16362 77.7624 4.72716 77.7624 5.59415C77.7624 6.43945 77.5565 6.99216 77.1122 7.37146C76.6245 7.78328 75.8551 8.00002 74.8905 8.00002C74.0019 8.00002 73.1783 7.80495 72.6364 7.44732C72.2788 7.21974 72.062 6.99216 71.8236 6.55866ZM79.0163 7.85702V0.00302201H84.0983V1.58702H80.9523V3.10502H83.6033V4.68902H80.9523V6.27302H84.1643V7.85702H79.0163Z" fill="#F48024"/>
</g>
<defs>
<clipPath id="clip0">
<rect width="85" height="8" fill="white"/>
</clipPath>
</defs>
</svg>
