<svg width="146" height="36" viewBox="0 0 146 36" fill="none" xmlns="http://www.w3.org/2000/svg">
<g id="Icon/LogoEngagement">
<path id="Wordmark" fill-rule="evenodd" clip-rule="evenodd" d="M67.58 14.3889H69.4027L65.8533 17.9382L70.0742 24.5573H68.2515L64.7981 18.9934L62.9755 20.8161V24.5573H61.4406V9.7843H62.9755V18.8975L67.58 14.3889ZM33.9092 18.8975L32.2784 18.7056C31.0313 18.6097 30.4558 18.1301 30.4558 17.1708C30.4558 16.1156 31.2232 15.4441 32.7581 15.4441C33.8133 15.4441 34.7725 15.7319 35.444 16.2115L36.4033 15.2522C35.444 14.4848 34.197 14.197 32.7581 14.197C30.5517 14.197 29.0168 15.3481 29.0168 17.1708C29.0168 18.8975 30.0721 19.7608 32.0866 19.9527L33.8133 20.1446C34.9644 20.2405 35.54 20.7201 35.54 21.6794C35.54 22.9265 34.4848 23.502 32.854 23.502C31.6069 23.502 30.4558 23.2143 29.6883 22.3509L28.7291 23.3102C29.8802 24.3654 31.2232 24.7491 32.9499 24.7491C35.444 24.7491 37.0748 23.598 37.0748 21.6794C36.883 19.7608 35.6359 19.0893 33.9092 18.8975ZM46.6677 14.2929C45.0369 14.2929 43.9817 14.5807 43.1183 15.7319L44.0776 16.6911C44.6532 15.8278 45.3247 15.54 46.6677 15.54C48.4903 15.54 49.2577 16.3074 49.2577 17.7463V18.7056H46.188C43.8857 18.7056 42.6387 19.8568 42.6387 21.6794C42.6387 22.4468 42.9264 23.2143 43.4061 23.7898C44.0776 24.4613 44.845 24.7491 46.2839 24.7491C47.6269 24.7491 48.3944 24.4613 49.2577 23.6939V24.6532H50.7926V17.7463C50.6966 15.4441 49.3536 14.2929 46.6677 14.2929ZM48.7781 22.7346C49.0659 22.4468 49.2577 21.8713 49.2577 21.0079L49.3536 19.8568H46.4758C44.9409 19.8568 44.1735 20.5283 44.1735 21.6794C44.1735 22.8305 44.845 23.4061 46.4758 23.4061C47.3392 23.4061 48.1066 23.3102 48.7781 22.7346ZM56.5483 15.6359C57.5075 15.6359 58.0831 15.9237 58.8505 16.7871L59.8098 15.8278C58.7546 14.6766 57.8913 14.2929 56.4523 14.2929C53.8623 14.2929 51.9437 16.0196 51.9437 19.569C51.9437 23.0224 53.8623 24.845 56.4523 24.845C57.8913 24.845 58.7546 24.4613 59.8098 23.3102L58.7546 22.3509C57.9872 23.2143 57.4116 23.502 56.4523 23.502C55.4931 23.502 54.6297 23.1183 54.0541 22.3509C53.5745 21.6794 53.3826 20.912 53.3826 19.569C53.3826 18.3219 53.5745 17.4586 54.0541 16.7871C54.7256 16.0196 55.589 15.6359 56.5483 15.6359ZM76.4054 14.1011C74.8706 14.1011 73.8154 14.6766 73.1439 15.4441C72.1846 16.4034 71.8968 17.6504 71.8968 19.569C71.8968 21.4876 72.1846 22.7346 73.1439 23.6939C73.8154 24.3654 74.8706 25.0369 76.4054 25.0369C77.9403 25.0369 79.0914 24.4613 79.667 23.6939C80.6263 22.7346 80.914 21.4876 80.914 19.569C80.914 17.6504 80.6263 16.4034 79.667 15.4441C79.0914 14.6766 78.0362 14.1011 76.4054 14.1011ZM76.4054 22.5428C76.981 22.5428 77.3647 22.3509 77.6525 22.0631C78.2281 21.5835 78.324 20.6242 78.2281 19.4731C78.2281 18.3219 78.2281 17.4586 77.6525 16.883C77.3647 16.5952 76.981 16.4034 76.4054 16.4034C75.8298 16.4034 75.4461 16.5952 75.1584 16.883C74.6787 17.4586 74.5828 18.3219 74.5828 19.4731C74.5828 20.5283 74.5828 21.4876 75.1584 22.0631C75.4461 22.3509 75.8298 22.5428 76.4054 22.5428ZM88.0127 14.197L85.9023 20.8161L83.696 14.197H80.9141L84.8471 24.845H86.9575L90.8906 14.197H88.0127ZM90.6987 19.569C90.6987 16.0196 92.5214 14.1011 95.3033 14.1011C98.2771 14.1011 99.9079 16.2115 99.9079 19.2812V20.4323H93.2888C93.2888 21.8713 94.0562 22.8305 95.5911 22.8305C96.7422 22.8305 97.3178 22.5428 97.9893 21.8713L99.6201 23.4061C98.5648 24.4613 97.5096 25.0369 95.5911 25.0369C93.0969 25.0369 90.6987 23.8858 90.6987 19.569ZM93.2888 18.5138C93.2888 18.0341 93.3847 17.7463 93.5766 17.3626C93.8644 16.6911 94.4399 16.2115 95.3992 16.2115C96.2626 16.2115 96.9341 16.6911 97.2219 17.3626C97.3623 17.6435 97.3999 17.873 97.4476 18.1639C97.4651 18.2704 97.4839 18.3853 97.5096 18.5138H93.2888ZM103.841 14.197V15.2522C104.416 14.5807 105.376 14.1011 106.623 14.197C107.678 14.197 108.35 14.3889 109.117 15.1563L107.102 17.1708C106.623 16.6911 106.335 16.4993 105.664 16.4993C104.8 16.4993 103.937 17.0749 103.937 18.4178V24.845H101.251V14.197H103.841ZM109.23 13.0459V24.845H111.916V16.4034H113.835V14.3889H111.916V13.2377C111.916 12.6622 112.204 12.2784 112.876 12.2784H113.931V10.0721H112.396C110.19 10.0721 109.23 11.6069 109.23 13.0459ZM122.163 15.4441C122.835 14.6766 123.89 14.1011 125.425 14.1011C126.96 14.1011 128.111 14.6766 128.686 15.4441C129.646 16.4034 129.933 17.6504 129.933 19.569C129.933 21.4876 129.646 22.7346 128.686 23.6939C128.111 24.4613 126.96 25.0369 125.425 25.0369C123.89 25.0369 122.835 24.3654 122.163 23.6939C121.204 22.7346 120.916 21.4876 120.916 19.569C120.916 17.6504 121.204 16.4034 122.163 15.4441ZM126.672 22.0631C126.384 22.3509 126 22.5428 125.425 22.5428C124.849 22.5428 124.465 22.3509 124.178 22.0631C123.602 21.4876 123.602 20.5283 123.602 19.4731C123.602 18.3219 123.698 17.4586 124.178 16.883C124.465 16.5952 124.849 16.4034 125.425 16.4034C126 16.4034 126.384 16.5952 126.672 16.883C127.247 17.4586 127.247 18.3219 127.247 19.4731C127.247 20.6242 127.247 21.5835 126.672 22.0631ZM140.773 20.8161L142.5 14.197H145.282L142.02 24.845H139.814L137.608 18.1301L135.401 24.845H133.195L129.933 14.197H132.715L134.442 20.8161L136.648 14.197H138.567L140.773 20.8161ZM117.933 21.5835V9.97616H115.247V21.7753C115.247 23.3102 116.206 24.845 118.316 24.845H119.851V22.6387H118.892C118.221 22.6387 117.933 22.255 117.933 21.5835ZM42.3509 14.6766L41.0079 16.0196L39.3771 16.1156V21.9672C39.3771 22.9265 39.8567 23.502 40.816 23.502H41.5835V24.7491H40.5282C38.8015 24.7491 37.9382 23.502 37.9382 21.9672V11.3192H39.473V14.6766H42.3509Z" fill="#222426"/>
<path id="Tray" d="M21 27V19H24V30H0V19H3V27H21Z" fill="#BCBBBB"/>
<path id="Bars" fill-rule="evenodd" clip-rule="evenodd" d="M17.1 0.199997L15 1.8L22.9 12.4L25 10.8L17.1 0.199997ZM20.8 14.9L10.6 6.4L12.3 4.4L22.5 12.9L20.8 14.9ZM7.2 12.3L19.2 17.9L20.3 15.5L8.3 9.9L7.2 12.3ZM5.4 19.1L19 21.1L19.2 18.7L5.9 16.1L5.4 19.1ZM19 25H5V22H19V25Z" fill="#F48024"/>
<path id="Engagement" fill-rule="evenodd" clip-rule="evenodd" d="M29.0142 35.8642V28.0102H34.0962V29.5942H30.9502V31.1122H33.6012V32.6962H30.9502V34.2802H34.1622V35.8642H29.0142ZM34.9423 35.8642V28.0102H36.8453L39.2543 32.5972V28.0102H41.1463V35.8642H39.2433L36.8343 31.2772V35.8642H34.9423ZM45.1522 32.8502V31.3652H48.1112V32.7732C48.1112 33.9502 47.9792 34.5112 47.5942 35.0282C47.0772 35.7102 46.3292 35.9962 45.0422 35.9962C43.8322 35.9962 43.0842 35.7102 42.5672 35.0612C42.1712 34.5662 42.0282 33.9502 42.0282 32.8282V31.0792C42.0282 29.8582 42.2042 29.2202 42.6882 28.7142C43.2272 28.1422 43.9092 27.9112 45.0312 27.9112C46.2412 27.9112 47.0002 28.2082 47.4622 28.8572C47.7482 29.2532 47.8692 29.6492 47.9022 30.3642L46.1092 30.4852C46.0212 29.7702 45.7242 29.4842 45.0532 29.4842C44.2172 29.4842 43.9862 29.8582 43.9862 31.2332V32.6742C43.9862 34.0492 44.2172 34.4232 45.0642 34.4232C45.8782 34.4232 46.1752 34.0932 46.1752 33.2022V32.8502H45.1522ZM53.3802 34.4782H50.8722L50.4542 35.8642H48.3422L51.1692 28.0102H53.0722L55.9102 35.8642H53.7982L53.3802 34.4782ZM52.9182 32.9272L52.1372 30.2762L51.3342 32.9272H52.9182ZM59.3202 32.8502V31.3652H62.2792V32.7732C62.2792 33.9502 62.1472 34.5112 61.7622 35.0282C61.2452 35.7102 60.4972 35.9962 59.2102 35.9962C58.0002 35.9962 57.2522 35.7102 56.7352 35.0612C56.3392 34.5662 56.1962 33.9502 56.1962 32.8282V31.0792C56.1962 29.8582 56.3722 29.2202 56.8562 28.7142C57.3952 28.1422 58.0772 27.9112 59.1992 27.9112C60.4092 27.9112 61.1682 28.2082 61.6302 28.8572C61.9162 29.2532 62.0372 29.6492 62.0702 30.3642L60.2772 30.4852C60.1892 29.7702 59.8922 29.4842 59.2212 29.4842C58.3852 29.4842 58.1542 29.8582 58.1542 31.2332V32.6742C58.1542 34.0492 58.3852 34.4232 59.2322 34.4232C60.0462 34.4232 60.3432 34.0932 60.3432 33.2022V32.8502H59.3202ZM63.0154 35.8642V28.0102H68.0974V29.5942H64.9514V31.1122H67.6024V32.6962H64.9514V34.2802H68.1634V35.8642H63.0154ZM68.9606 35.8642V28.0102H70.7756L72.6566 31.9152L74.5376 28.0102H76.3526V35.8642H74.4826V31.6292L73.2836 34.1042H72.0296L70.8306 31.6292V35.8642H68.9606ZM76.9992 35.8642V28.0102H82.0812V29.5942H78.9352V31.1122H81.5862V32.6962H78.9352V34.2802H82.1472V35.8642H76.9992ZM83.0286 35.8642V28.0102H84.9316L87.3406 32.5972V28.0102H89.2326V35.8642H87.3296L84.9206 31.2772V35.8642H83.0286ZM92.0216 35.8642V29.5942H89.9976V28.0102H96.0036V29.5942H93.9796V35.8642H92.0216Z" fill="#F48024"/>
</g>
</svg>
