<svg width="202" height="37" viewBox="0 0 202 37" fill="none" xmlns="http://www.w3.org/2000/svg">
<path d="M26 33V24H30V37H0V24H4V33H26Z" fill="#BCBBBB"/>
<path d="M23.0908 25.9902L23.7844 23.041L7.67993 19.687L7 23L23.0908 25.9902ZM9.1 15.2L24.1 22.2L25.5 19.2L10.5 12.2L9.1 15.2ZM13.3 7.8L26 18.4L28.1 15.9L15.4 5.3L13.3 7.8ZM21.5 0L18.8 2L28.7 15.3L31.4 13.3L21.5 0ZM7 30H23V27H7V30Z" fill="#F48024"/>
<rect x="47" y="13" width="1" height="17" fill="#D6D9DC"/>
<path d="M73.2692 13.3463C73.218 13.1419 73.0133 12.9886 72.8085 12.9886H70.8632C70.6584 12.9886 70.4536 13.1419 70.4024 13.3463L64.5153 29.3415C64.4641 29.4949 64.4641 29.6482 64.5664 29.8015C64.6688 29.9548 64.8224 30.0059 64.976 30.0059H67.5868C67.7916 30.0059 67.9964 29.8526 68.0476 29.6482L69.0202 26.7864H74.6002L75.5729 29.6482C75.6241 29.8526 75.8289 30.0059 76.0336 30.0059H78.6445C78.798 30.0059 78.9516 29.9037 79.054 29.8015C79.1564 29.6482 79.1564 29.4949 79.1052 29.3415L73.2692 13.3463ZM73.5764 23.7202H70.0953L71.887 18.7121L73.5764 23.7202Z" fill="#222426"/>
<path d="M92.8449 16.4125C92.5889 15.7482 92.1794 15.186 91.6674 14.6239C90.5924 13.5507 89.0566 12.9886 87.1625 12.9886H81.5312C81.2241 12.9886 81.0193 13.193 81.0193 13.4996V29.4949C81.0193 29.8015 81.2241 30.0059 81.5312 30.0059H87.1625C89.0566 30.0059 90.5924 29.4438 91.6674 28.3706C92.1794 27.8596 92.5889 27.2463 92.8449 26.5309C93.1008 25.8665 93.2544 25.2022 93.3568 24.4868C93.408 23.8224 93.4592 23.0559 93.4592 22.1871V20.5518C93.4592 19.7342 93.408 18.9677 93.3568 18.3544C93.2544 17.6901 93.1008 17.0768 92.8449 16.4125ZM89.9781 21.4206C89.9781 22.7493 89.9269 23.8224 89.8245 24.4868C89.7221 25.1 89.5685 25.5599 89.2614 25.9177C88.6982 26.5309 87.9304 26.8375 86.9065 26.8375H84.4492V16.2081H86.9065C87.9304 16.2081 88.6982 16.5147 89.2614 17.1279C89.4661 17.3324 89.6197 17.639 89.7221 17.9967C89.8245 18.4055 89.9269 18.8143 89.9269 19.2743C89.9781 19.7853 89.9781 20.5007 89.9781 21.4206Z" fill="#222426"/>
<path d="M107.568 12.9886H105.009C104.804 12.9886 104.599 13.1419 104.497 13.3463L101.272 23.4647L98.0977 13.3463C98.0465 13.1419 97.8418 12.9886 97.5858 12.9886H95.0774C94.9238 12.9886 94.7702 13.0908 94.6678 13.193C94.5654 13.2952 94.5654 13.4996 94.6166 13.6529L99.8895 29.6482C99.9407 29.8526 100.145 30.0059 100.401 30.0059H102.296C102.5 30.0059 102.705 29.8526 102.756 29.6482L108.08 13.6529C108.132 13.4996 108.08 13.3463 108.029 13.193C107.876 13.0908 107.722 12.9886 107.568 12.9886Z" fill="#222426"/>
<path d="M119.758 12.9886H109.52C109.212 12.9886 109.008 13.193 109.008 13.4996V29.4949C109.008 29.8015 109.212 30.0059 109.52 30.0059H119.758C120.065 30.0059 120.27 29.8015 120.27 29.4949V27.2974C120.27 26.9908 120.065 26.7864 119.758 26.7864H112.438V23.0048H118.581C118.888 23.0048 119.093 22.8004 119.093 22.4938V20.3474C119.093 20.0408 118.888 19.8364 118.581 19.8364H112.438V16.2081H119.758C120.065 16.2081 120.27 16.0037 120.27 15.6971V13.4996C120.27 13.2441 120.065 12.9886 119.758 12.9886Z" fill="#222426"/>
<path d="M131.27 22.7493C132.038 22.4426 132.703 21.9316 133.266 21.2673C133.932 20.4496 134.239 19.4276 134.239 18.2011C134.239 17.2301 134.034 16.3103 133.574 15.5438C133.113 14.7772 132.447 14.1129 131.628 13.704C130.809 13.2441 129.836 13.0397 128.761 13.0397H122.516C122.209 13.0397 122.004 13.2441 122.004 13.5507V29.546C122.004 29.8526 122.209 30.057 122.516 30.057H124.973C125.28 30.057 125.485 29.8526 125.485 29.546V23.3114H127.686L130.912 29.7504C131.014 29.9037 131.167 30.057 131.372 30.057H134.188C134.341 30.057 134.546 29.9548 134.649 29.8015C134.751 29.6482 134.751 29.4438 134.649 29.2904L131.27 22.7493ZM130.809 18.2011C130.809 18.8143 130.604 19.2743 130.246 19.632C129.836 19.9897 129.325 20.1941 128.608 20.1941H125.536V16.2081H128.608C129.325 16.2081 129.836 16.3614 130.246 16.7702C130.604 17.0768 130.809 17.5879 130.809 18.2011Z" fill="#222426"/>
<path d="M146.637 12.9886H135.375C135.068 12.9886 134.863 13.193 134.863 13.4996V15.6971C134.863 16.0037 135.068 16.2081 135.375 16.2081H139.266V29.4949C139.266 29.8015 139.47 30.0059 139.778 30.0059H142.184C142.491 30.0059 142.696 29.8015 142.696 29.4949V16.2081H146.586C146.893 16.2081 147.098 16.0037 147.098 15.6971V13.4996C147.149 13.2441 146.893 12.9886 146.637 12.9886Z" fill="#222426"/>
<path d="M151.968 12.9886H149.51C149.203 12.9886 148.998 13.193 148.998 13.4996V29.4949C148.998 29.8015 149.203 30.0059 149.51 30.0059H151.968C152.275 30.0059 152.48 29.8015 152.48 29.4949V13.4996C152.48 13.2441 152.275 12.9886 151.968 12.9886Z" fill="#222426"/>
<path d="M164.738 21.2673C164.38 20.9096 163.919 20.654 163.407 20.4496C162.896 20.2452 162.281 20.0919 161.513 19.9897L159.67 19.7342C159.363 19.6831 159.056 19.632 158.749 19.4787C158.493 19.3765 158.237 19.2232 158.135 19.121C157.827 18.8654 157.725 18.5077 157.725 17.9967C157.725 17.5879 157.827 17.2813 157.981 16.9746C158.186 16.668 158.442 16.4636 158.749 16.3103C159.107 16.157 159.568 16.0548 160.08 16.0548C160.541 16.0548 160.95 16.1059 161.309 16.157C161.667 16.2081 161.974 16.3614 162.332 16.5147C162.64 16.668 162.947 16.8724 163.254 17.179C163.459 17.3835 163.766 17.3835 163.971 17.179L165.558 15.646C165.66 15.5438 165.711 15.3904 165.711 15.2882C165.711 15.1349 165.66 15.0327 165.558 14.9305C164.841 14.2662 164.022 13.7551 163.203 13.4485C162.384 13.1419 161.36 12.9886 160.234 12.9886C159.056 12.9886 158.032 13.193 157.162 13.6018C156.292 14.0107 155.575 14.675 155.114 15.4415C154.653 16.2081 154.398 17.1279 154.398 18.15C154.398 19.5809 154.858 20.7563 155.729 21.5739C156.548 22.3404 157.623 22.8004 159.056 23.0048L160.95 23.2603C161.36 23.3114 161.718 23.4136 161.923 23.4647C162.128 23.5158 162.281 23.618 162.435 23.8224C162.742 24.0779 162.896 24.5379 162.896 25.1C162.896 25.7132 162.691 26.1732 162.23 26.4798C161.718 26.8375 161.001 27.0419 160.08 27.0419C159.568 27.0419 159.056 26.9908 158.647 26.8886C158.237 26.7864 157.827 26.6331 157.418 26.4287C157.06 26.2243 156.701 25.9688 156.343 25.611C156.24 25.5088 156.138 25.4577 155.985 25.4577C155.831 25.4577 155.729 25.5088 155.626 25.611L153.988 27.1952C153.886 27.2974 153.834 27.3996 153.834 27.5529C153.834 27.7063 153.886 27.8085 153.988 27.9107C154.807 28.7283 155.677 29.2904 156.65 29.6482C157.623 30.0059 158.749 30.1592 160.029 30.1592C160.899 30.1592 161.769 30.057 162.486 29.8015C163.254 29.5971 163.919 29.2393 164.483 28.7794C165.046 28.3195 165.506 27.7574 165.814 27.093C166.121 26.4287 166.274 25.7132 166.274 24.9467C166.223 23.3625 165.711 22.136 164.738 21.2673Z" fill="#222426"/>
<path d="M171.013 12.9375H168.556C168.249 12.9375 168.044 13.1419 168.044 13.4485V29.4438C168.044 29.7504 168.249 29.9548 168.556 29.9548H171.013C171.32 29.9548 171.525 29.7504 171.525 29.4438V13.4485C171.525 13.193 171.32 12.9375 171.013 12.9375Z" fill="#222426"/>
<path d="M186.561 12.9886H184.155C183.848 12.9886 183.643 13.193 183.643 13.4996V23.0559L177.193 13.2441C177.09 13.0908 176.937 12.9886 176.783 12.9886H174.531C174.224 12.9886 174.019 13.193 174.019 13.4996V29.4949C174.019 29.8015 174.224 30.0059 174.531 30.0059H176.988C177.295 30.0059 177.5 29.8015 177.5 29.4949V19.9386L183.95 29.7504C184.053 29.9037 184.206 30.0059 184.36 30.0059H186.612C186.919 30.0059 187.124 29.8015 187.124 29.4949V13.4996C187.073 13.2441 186.817 12.9886 186.561 12.9886Z" fill="#222426"/>
<path d="M201.218 20.3474H195.382C195.075 20.3474 194.87 20.5518 194.87 20.8585V22.9026C194.87 23.2092 195.075 23.4136 195.382 23.4136H198.3V23.8224C198.3 24.7423 198.044 25.4577 197.634 26.0199C197.071 26.6842 196.355 26.9908 195.433 26.9908C195.024 26.9908 194.665 26.9397 194.307 26.7864C193.948 26.6331 193.641 26.4287 193.436 26.2243C193.232 26.0199 193.078 25.7643 193.027 25.611C192.925 25.4066 192.873 25.1511 192.771 24.7934C192.72 24.4357 192.669 24.0268 192.617 23.5158C192.617 23.0559 192.566 22.3915 192.566 21.5228C192.566 19.9897 192.617 18.8654 192.771 18.2522C192.873 17.6901 193.078 17.2301 193.436 16.8724C193.692 16.6169 193.948 16.4125 194.307 16.2592C194.665 16.1059 195.024 16.0548 195.433 16.0548C195.945 16.0548 196.406 16.157 196.815 16.3614C197.225 16.5658 197.532 16.8213 197.788 17.179C198.044 17.5368 198.249 17.9967 198.351 18.5077C198.402 18.7632 198.607 18.9165 198.863 18.9165H201.32C201.474 18.9165 201.627 18.8654 201.73 18.7121C201.832 18.6099 201.883 18.4566 201.832 18.3033C201.679 17.2813 201.32 16.3614 200.757 15.5949C200.194 14.7772 199.477 14.1129 198.607 13.6529C197.737 13.193 196.662 12.9375 195.484 12.9375C193.692 12.9375 192.157 13.5507 190.928 14.7772C190.519 15.186 190.16 15.646 189.955 16.1059C189.751 16.5658 189.546 17.0768 189.443 17.5879C189.341 18.0989 189.29 18.661 189.239 19.2232C189.188 19.7853 189.188 20.5518 189.188 21.5739C189.188 22.8515 189.239 23.8224 189.29 24.5379C189.341 25.2533 189.495 25.9176 189.751 26.582C190.007 27.2463 190.416 27.8085 190.928 28.4217C191.286 28.7794 191.747 29.1371 192.259 29.4438C192.771 29.7504 193.283 29.9548 193.795 30.1081C194.307 30.2614 194.921 30.3125 195.484 30.3125C197.43 30.3125 199.017 29.6482 200.245 28.3195C200.808 27.7063 201.218 26.9908 201.474 26.2243C201.73 25.4577 201.832 24.5379 201.832 23.4647V21.0118C201.73 20.5518 201.474 20.3474 201.218 20.3474Z" fill="#222426"/>
</svg>
