<svg width="156" height="30" viewBox="0 0 156 30" fill="none" xmlns="http://www.w3.org/2000/svg">
<path d="M21 27V19H24V30H0V19H3V27H21Z" fill="#BCBBBB"/>
<path d="M5.4021 19.1011L18.9631 21.061L19.127 18.6804L5.87134 16.134L5.4021 19.1011ZM7.2 12.3L19.2 17.9L20.3 15.5L8.3 9.9L7.2 12.3ZM10.6 6.4L20.8 14.9L22.5 12.9L12.3 4.4L10.6 6.4ZM17.1 0.199997L15 1.8L22.9 12.4L25 10.8L17.1 0.199997ZM5 25H19V22H5V25Z" fill="#F48024"/>
<rect x="38" y="11" width="1" height="13" fill="#D6D9DC"/>
<path d="M59.552 10.9809H51.3836C51.1386 10.9809 50.9752 11.1376 50.9752 11.3728V23.6389C50.9752 23.874 51.1386 24.0308 51.3836 24.0308H59.552C59.7971 24.0308 59.9604 23.874 59.9604 23.6389V21.9537C59.9604 21.7186 59.7971 21.5619 59.552 21.5619H53.7116V18.6619H58.6126C58.8577 18.6619 59.0211 18.5051 59.0211 18.27V16.6241C59.0211 16.3889 58.8577 16.2322 58.6126 16.2322H53.7116V13.4498H59.552C59.7971 13.4498 59.9604 13.293 59.9604 13.0579V11.3728C59.9604 11.1768 59.7562 10.9809 59.552 10.9809Z" fill="#222426"/>
<path d="M72.0088 10.9809H70.0892C69.8441 10.9809 69.6808 11.1376 69.6808 11.3728V18.7011L64.5347 11.1768C64.453 11.0593 64.3305 10.9809 64.208 10.9809H62.4109C62.1659 10.9809 62.0025 11.1376 62.0025 11.3728V23.6389C62.0025 23.874 62.1659 24.0308 62.4109 24.0308H64.3713C64.6164 24.0308 64.7798 23.874 64.7798 23.6389V16.3106L69.9258 23.8348C70.0075 23.9524 70.13 24.0308 70.2526 24.0308H72.0496C72.2947 24.0308 72.458 23.874 72.458 23.6389V11.3728C72.4172 11.1768 72.2538 10.9809 72.0088 10.9809Z" fill="#222426"/>
<path d="M83.4886 10.9809H74.5034C74.2583 10.9809 74.0949 11.1376 74.0949 11.3728V13.0579C74.0949 13.293 74.2583 13.4498 74.5034 13.4498H77.6073V23.6389C77.6073 23.874 77.7707 24.0308 78.0158 24.0308H79.9353C80.1804 24.0308 80.3438 23.874 80.3438 23.6389V13.4498H83.4477C83.6928 13.4498 83.8561 13.293 83.8561 13.0579V11.3728C83.897 11.1768 83.7336 10.9809 83.4886 10.9809Z" fill="#222426"/>
<path d="M93.5904 10.9809H85.422C85.177 10.9809 85.0136 11.1376 85.0136 11.3728V23.6389C85.0136 23.874 85.177 24.0308 85.422 24.0308H93.5904C93.8354 24.0308 93.9988 23.874 93.9988 23.6389V21.9537C93.9988 21.7186 93.8354 21.5619 93.5904 21.5619H87.75V18.6619H92.651C92.8961 18.6619 93.0594 18.5051 93.0594 18.27V16.6241C93.0594 16.3889 92.8961 16.2322 92.651 16.2322H87.75V13.4498H93.5904C93.8354 13.4498 93.9988 13.293 93.9988 13.0579V11.3728C93.9988 11.1768 93.8354 10.9809 93.5904 10.9809Z" fill="#222426"/>
<path d="M103.392 18.4659C104.005 18.2308 104.536 17.8389 104.985 17.3295C105.516 16.7024 105.761 15.9187 105.761 14.9781C105.761 14.2336 105.598 13.5282 105.23 12.9403C104.863 12.3525 104.332 11.843 103.678 11.5295C103.025 11.1768 102.249 11.0201 101.391 11.0201H96.4085C96.1634 11.0201 96 11.1768 96 11.412V23.6781C96 23.9132 96.1634 24.0699 96.4085 24.0699H98.3689C98.6139 24.0699 98.7773 23.9132 98.7773 23.6781V18.897H100.533L103.107 23.8348C103.188 23.9524 103.311 24.0699 103.474 24.0699H105.72C105.843 24.0699 106.006 23.9916 106.088 23.874C106.17 23.7564 106.17 23.5997 106.088 23.4821L103.392 18.4659ZM98.7773 13.4498H101.228C101.8 13.4498 102.208 13.5673 102.535 13.8809C102.861 14.1552 102.984 14.5079 102.984 15.0173C102.984 15.4876 102.821 15.8403 102.535 16.1146C102.208 16.3889 101.8 16.5457 101.228 16.5457H98.7773V13.4498Z" fill="#222426"/>
<path d="M116.625 12.1565C116.217 11.8038 115.727 11.4903 115.155 11.2944C114.583 11.0984 113.97 10.9809 113.317 10.9809H108.457C108.212 10.9809 108.048 11.1376 108.048 11.3728V23.6389C108.048 23.874 108.212 24.0308 108.457 24.0308H110.417C110.662 24.0308 110.826 23.874 110.826 23.6389V19.2105H113.317C114.175 19.2105 114.991 19.0146 115.686 18.6619C116.38 18.3092 116.911 17.7997 117.279 17.1727C117.646 16.5457 117.85 15.8403 117.85 15.0565C117.85 14.4687 117.728 13.92 117.524 13.4106C117.319 12.9795 116.993 12.5484 116.625 12.1565ZM110.826 13.4498H113.235C113.807 13.4498 114.256 13.6065 114.624 13.8809C114.951 14.1552 115.114 14.5862 115.114 15.0957C115.114 15.6052 114.951 15.997 114.624 16.3106C114.297 16.6241 113.848 16.7416 113.235 16.7416H110.826V13.4498Z" fill="#222426"/>
<path d="M126.428 18.4659C127.04 18.2308 127.571 17.8389 128.02 17.3295C128.551 16.7024 128.796 15.9187 128.796 14.9781C128.796 14.2336 128.633 13.5282 128.266 12.9403C127.898 12.3525 127.367 11.843 126.714 11.5295C126.06 11.1768 125.284 11.0201 124.426 11.0201H119.444C119.199 11.0201 119.035 11.1768 119.035 11.412V23.6781C119.035 23.9132 119.199 24.0699 119.444 24.0699H121.404C121.649 24.0699 121.812 23.9132 121.812 23.6781V18.897H123.569L126.142 23.8348C126.223 23.9524 126.346 24.0699 126.509 24.0699H128.756C128.878 24.0699 129.042 23.9916 129.123 23.874C129.205 23.7564 129.205 23.5997 129.123 23.4821L126.428 18.4659ZM121.812 13.4498H124.263C124.835 13.4498 125.243 13.5673 125.57 13.8809C125.897 14.1552 126.019 14.5079 126.019 15.0173C126.019 15.4876 125.856 15.8403 125.57 16.1146C125.243 16.3889 124.835 16.5457 124.263 16.5457H121.812V13.4498Z" fill="#222426"/>
<path d="M133.452 10.9809H131.492C131.247 10.9809 131.084 11.1376 131.084 11.3728V23.6389C131.084 23.874 131.247 24.0308 131.492 24.0308H133.452C133.697 24.0308 133.861 23.874 133.861 23.6389V11.3728C133.861 11.1768 133.697 10.9809 133.452 10.9809Z" fill="#222426"/>
<path d="M144.439 17.3687C144.153 17.0943 143.785 16.8984 143.377 16.7416C142.969 16.5849 142.478 16.4673 141.866 16.3889L140.396 16.193C140.15 16.1538 139.905 16.1146 139.66 15.997C139.456 15.9187 139.252 15.8011 139.17 15.7227C138.925 15.5268 138.844 15.2525 138.844 14.8606C138.844 14.5471 138.925 14.3119 139.048 14.0768C139.211 13.8417 139.415 13.6849 139.66 13.5673C139.946 13.4498 140.314 13.3714 140.722 13.3714C141.09 13.3714 141.417 13.4106 141.702 13.4498C141.988 13.489 142.233 13.6065 142.519 13.7241C142.764 13.8417 143.009 13.9984 143.254 14.2336C143.418 14.3903 143.663 14.3903 143.826 14.2336L145.092 13.0579C145.174 12.9795 145.215 12.8619 145.215 12.7836C145.215 12.666 145.174 12.5876 145.092 12.5092C144.521 11.9998 143.867 11.6079 143.214 11.3728C142.56 11.1376 141.743 11.0201 140.845 11.0201C139.905 11.0201 139.089 11.1768 138.394 11.4903C137.7 11.8038 137.128 12.3133 136.761 12.9011C136.393 13.489 136.189 14.1944 136.189 14.9781C136.189 16.0754 136.556 16.9768 137.251 17.6038C137.904 18.1916 138.762 18.5443 139.905 18.7011L141.417 18.897C141.743 18.9362 142.029 19.0146 142.193 19.0538C142.356 19.093 142.478 19.1713 142.601 19.3281C142.846 19.524 142.969 19.8767 142.969 20.3078C142.969 20.7781 142.805 21.1308 142.438 21.3659C142.029 21.6402 141.457 21.797 140.722 21.797C140.314 21.797 139.905 21.7578 139.579 21.6794C139.252 21.601 138.925 21.4835 138.598 21.3267C138.313 21.17 138.027 20.974 137.741 20.6997C137.659 20.6213 137.577 20.5821 137.455 20.5821C137.332 20.5821 137.251 20.6213 137.169 20.6997L135.862 21.9146C135.78 21.9929 135.74 22.0713 135.74 22.1889C135.74 22.3064 135.78 22.3848 135.862 22.4632C136.516 23.0902 137.21 23.5213 137.986 23.7956C138.762 24.0699 139.66 24.1875 140.681 24.1875C141.376 24.1875 142.07 24.1091 142.642 23.9132C143.254 23.7564 143.785 23.4821 144.235 23.1294C144.684 22.7767 145.052 22.3456 145.297 21.8362C145.542 21.3267 145.664 20.7781 145.664 20.1903C145.623 18.9362 145.215 17.9957 144.439 17.3687Z" fill="#222426"/>
<path d="M155.59 13.4498C155.835 13.4498 155.999 13.293 155.999 13.0579V11.3728C155.999 11.1376 155.835 10.9809 155.59 10.9809H147.422C147.177 10.9809 147.014 11.1376 147.014 11.3728V23.6389C147.014 23.874 147.177 24.0307 147.422 24.0307H155.59C155.835 24.0307 155.999 23.874 155.999 23.6389V21.9537C155.999 21.7186 155.835 21.5619 155.59 21.5619H149.75V18.6619H154.651C154.896 18.6619 155.059 18.5051 155.059 18.27V16.6241C155.059 16.3889 154.896 16.2322 154.651 16.2322H149.75V13.4498H155.59Z" fill="#222426"/>
</svg>
