<svg width="107" height="15" viewBox="0 0 107 15" fill="none" xmlns="http://www.w3.org/2000/svg">
<path fill-rule="evenodd" clip-rule="evenodd" d="M48.414 11.9312L46.4452 8.72663L45.4054 9.89044V11.9312H43.9913V2.17987H45.4054V8.19245L48.1369 4.98763H49.8558L47.4158 7.71303L50.1608 11.9312H48.414ZM41.3453 12.0136C39.765 12.0136 38.2121 11.0547 38.2121 8.45264C38.2121 5.85055 39.765 4.9055 41.3453 4.9055C42.316 4.9055 42.9953 5.17949 43.6607 5.87792L42.6902 6.80893C42.2466 6.32997 41.9001 6.15168 41.3453 6.15168C40.8048 6.15168 40.3472 6.37068 40.0421 6.76821C39.737 7.15147 39.6262 7.6447 39.6262 8.45264C39.6262 9.26057 39.737 9.76737 40.0421 10.1509C40.3472 10.5479 40.8048 10.7669 41.3453 10.7669C41.9001 10.7669 42.2466 10.5891 42.6902 10.1097L43.6607 11.0273C42.9953 11.7258 42.316 12.0136 41.3453 12.0136ZM35.6926 8.8635H34.0426C33.2107 8.8635 32.7811 9.23319 32.7811 9.86307C32.7811 10.4932 33.183 10.8493 34.0706 10.8493C34.6111 10.8493 35.0133 10.8081 35.3875 10.4522C35.5955 10.2468 35.6926 9.91805 35.6926 9.42482V8.8635ZM35.7203 11.9312V11.3013C35.2073 11.8081 34.7222 12.0136 33.8486 12.0136C32.9751 12.0136 32.3929 11.8081 31.9632 11.3832C31.6027 11.0135 31.4085 10.4796 31.4085 9.89044C31.4085 8.72663 32.2263 7.89085 33.8346 7.89085H35.6926V7.39809C35.6926 6.5216 35.249 6.09693 34.1537 6.09693C33.3773 6.09693 33.0028 6.27498 32.6148 6.76821L31.6858 5.9053C32.3512 5.13831 33.0445 4.9055 34.2091 4.9055C36.1362 4.9055 37.1067 5.71343 37.1067 7.28835V11.9312H35.7203ZM29.8134 11.9312C28.4962 11.9312 27.8861 11 27.8861 10.0002V6.17905H27.0822V5.11094H27.8861V3.00184H29.3004V5.11094H30.659V6.17905H29.3004V9.93162C29.3004 10.4384 29.5498 10.7396 30.0768 10.7396H30.659V11.9312H29.8134ZM23.494 12.0136C22.0103 12.0136 20.943 11.671 20 10.7262L20.9981 9.75356C21.7191 10.4658 22.5096 10.685 23.5214 10.685C24.8109 10.685 25.5596 10.1371 25.5596 9.19201C25.5596 8.76757 25.4348 8.41145 25.1714 8.17864C24.9218 7.94583 24.6724 7.85014 24.0899 7.76778L22.9255 7.60352C22.1213 7.49379 21.4835 7.22003 21.0538 6.82273C20.5685 6.37068 20.3328 5.75461 20.3328 4.96025C20.3328 3.26203 21.5806 2.09798 23.6325 2.09798C24.9357 2.09798 25.8507 2.42672 26.6966 3.20728L25.7397 4.13851C25.1297 3.56316 24.4227 3.38533 23.5908 3.38533C22.4262 3.38533 21.7885 4.04258 21.7885 4.9055C21.7885 5.26138 21.8994 5.57656 22.1628 5.80937C22.4124 6.02837 22.8144 6.19286 23.272 6.26141L24.395 6.42567C25.31 6.56255 25.823 6.78179 26.239 7.15147C26.7797 7.61733 27.0431 8.31552 27.0431 9.15106C27.0431 10.945 25.5596 12.0136 23.494 12.0136Z" fill="#FEFEFE"/>
<path fill-rule="evenodd" clip-rule="evenodd" d="M104.155 7.08519C103.964 6.66518 103.568 6.35329 102.969 6.35329C102.369 6.35329 101.974 6.66518 101.783 7.08519C101.674 7.34267 101.633 7.53253 101.619 7.84395H104.318C104.305 7.53253 104.264 7.34267 104.155 7.08519ZM101.619 9.05028C101.619 9.95838 102.178 10.6222 103.173 10.6222C103.95 10.6222 104.332 10.4057 104.782 9.95838L105.859 11.0019C105.136 11.7202 104.441 12.1133 103.16 12.1133C101.483 12.1133 99.8743 11.3541 99.8743 8.49458C99.8743 6.19075 101.128 4.88972 102.969 4.88972C104.945 4.88972 106.063 6.3262 106.063 8.2642V9.05028H101.619ZM96.144 6.47531C95.0943 6.47531 94.9854 7.36976 94.9854 8.30495C94.9854 9.24014 95.0943 10.1482 96.144 10.1482C97.1938 10.1482 97.3163 9.24014 97.3163 8.30495C97.3163 7.36976 97.1938 6.47531 96.144 6.47531ZM95.9667 14.702C94.8764 14.702 94.1267 14.485 93.3906 13.7802L94.4947 12.6688C94.8899 13.0483 95.2853 13.2111 95.8852 13.2111C96.9483 13.2111 97.3163 12.4655 97.3163 11.7473V11.029C96.8529 11.544 96.3214 11.7336 95.626 11.7336C94.9309 11.7336 94.3312 11.5032 93.9358 11.1103C93.2678 10.4462 93.2133 9.53837 93.2133 8.30495C93.2133 7.07153 93.2678 6.17709 93.9358 5.51303C94.3312 5.12011 94.9446 4.88972 95.6398 4.88972C96.3894 4.88972 96.8801 5.09301 97.371 5.63505V4.97099H99.0885V11.7744C99.0885 13.4683 97.8752 14.702 95.9667 14.702ZM90.2134 12.0318V7.76291C90.2134 6.80063 89.6003 6.47531 89.0413 6.47531C88.4824 6.47531 87.8553 6.80063 87.8553 7.76291V12.0318H86.0832V4.97099H87.8147V5.62162C88.2779 5.13353 88.9323 4.88972 89.5865 4.88972C90.2954 4.88972 90.8681 5.12011 91.2633 5.51303C91.8357 6.08216 91.9857 6.74622 91.9857 7.51887V12.0318H90.2134ZM83.1097 9.05028H81.7057C81.065 9.05028 80.7108 9.34827 80.7108 9.84979C80.7108 10.3379 81.0377 10.663 81.7329 10.663C82.2238 10.663 82.5373 10.6222 82.8508 10.3242C83.0415 10.1482 83.1097 9.86345 83.1097 9.42977V9.05028ZM83.1507 12.0318V11.422C82.6735 11.8964 82.2238 12.0997 81.4059 12.0997C80.6016 12.0997 80.0154 11.8964 79.5929 11.4764C79.2112 11.0832 79.0068 10.5141 79.0068 9.89054C79.0068 8.76572 79.7837 7.84395 81.4332 7.84395H83.1097V7.49178C83.1097 6.71913 82.7283 6.38038 81.7876 6.38038C81.106 6.38038 80.7925 6.54292 80.4243 6.96317L79.293 5.8652C79.9881 5.10644 80.6698 4.88972 81.8559 4.88972C83.8459 4.88972 84.882 5.72975 84.882 7.38318V12.0318H83.1507ZM76.225 12.0318V7.72216C76.225 6.78697 75.6253 6.47531 75.0664 6.47531C74.5075 6.47531 73.9213 6.80063 73.9213 7.72216V12.0318H72.1493V2.38214H73.9213V5.62162C74.3985 5.13353 74.9982 4.88972 75.6253 4.88972C77.1791 4.88972 77.9972 5.9738 77.9972 7.46469V12.0318H76.225ZM69.2585 12.1133C67.8409 12.1133 66.0824 11.3541 66.0824 8.49458C66.0824 5.63505 67.8409 4.88972 69.2585 4.88972C70.2401 4.88972 70.976 5.18795 71.6029 5.83834L70.4035 7.03101C70.0354 6.63786 69.7219 6.47531 69.2585 6.47531C68.836 6.47531 68.5088 6.62443 68.2496 6.93608C67.9771 7.27482 67.8544 7.74925 67.8544 8.49458C67.8544 9.24014 67.9771 9.728 68.2496 10.0667C68.5088 10.3786 68.836 10.5275 69.2585 10.5275C69.7219 10.5275 70.0354 10.365 70.4035 9.97204L71.6029 11.151C70.976 11.8014 70.2401 12.1133 69.2585 12.1133ZM63.7304 12.0318L62.4218 9.91763L61.1267 12.0318H59.0003L61.4539 8.42697L59.0957 4.97099H61.2222L62.4218 6.99026L63.6349 4.97099H65.7614L63.4032 8.42697L65.8568 12.0318H63.7304ZM51.976 12.0318V2.05874H58.5834V3.79582H53.9342V6.13498H57.8931V7.87183H53.9342V10.295H58.5834V12.0318H51.976Z" fill="#2F96E8"/>
<path d="M0 3C0 1.89543 0.895431 1 2 1H10C11.1046 1 12 1.89543 12 3H0Z" fill="#8FD8F7"/>
<path d="M12 10H0C0 11.1046 0.895431 12 2 12H7V15L10 12C11.1046 12 12 11.1046 12 10Z" fill="#155397"/>
<rect y="4" width="12" height="2" fill="#46A2D9"/>
<rect y="7" width="12" height="2" fill="#2D6DB5"/>
</svg>
