<svg width="118" height="17" viewBox="0 0 118 17" fill="none" xmlns="http://www.w3.org/2000/svg">
<g id="Icon/LogoWordmark">
<path id="Wordmark" fill-rule="evenodd" clip-rule="evenodd" d="M39.58 5.38886H41.4027L37.8533 8.93821L42.0742 15.5573H40.2515L36.7981 9.99342L34.9755 11.8161V15.5573H33.4406V0.784302H34.9755V9.89749L39.58 5.38886ZM5.90919 9.89749L4.27841 9.70563C3.03134 9.6097 2.45577 9.13006 2.45577 8.17078C2.45577 7.11557 3.2232 6.44407 4.75805 6.44407C5.81326 6.44407 6.77255 6.73186 7.44404 7.2115L8.40333 6.25221C7.44404 5.48479 6.19698 5.197 4.75805 5.197C2.5517 5.197 1.01685 6.34814 1.01685 8.17078C1.01685 9.89749 2.07206 10.7608 4.08655 10.9527L5.81326 11.1446C6.9644 11.2405 7.53997 11.7201 7.53997 12.6794C7.53997 13.9265 6.48476 14.502 4.85398 14.502C3.60691 14.502 2.45577 14.2143 1.68835 13.3509L0.729065 14.3102C1.8802 15.3654 3.2232 15.7491 4.94991 15.7491C7.44404 15.7491 9.07483 14.598 9.07483 12.6794C8.88297 10.7608 7.6359 10.0893 5.90919 9.89749ZM18.6677 5.29293C17.0369 5.29293 15.9817 5.58072 15.1183 6.73186L16.0776 7.69114C16.6532 6.82778 17.3247 6.54 18.6677 6.54C20.4903 6.54 21.2577 7.30743 21.2577 8.74635V9.70563H18.188C15.8857 9.70563 14.6387 10.8568 14.6387 12.6794C14.6387 13.4468 14.9264 14.2143 15.4061 14.7898C16.0776 15.4613 16.845 15.7491 18.2839 15.7491C19.6269 15.7491 20.3944 15.4613 21.2577 14.6939V15.6532H22.7926V8.74635C22.6966 6.44407 21.3536 5.29293 18.6677 5.29293ZM20.7781 13.7346C21.0659 13.4468 21.2577 12.8713 21.2577 12.0079L21.3536 10.8568H18.4758C16.9409 10.8568 16.1735 11.5283 16.1735 12.6794C16.1735 13.8305 16.845 14.4061 18.4758 14.4061C19.3392 14.4061 20.1066 14.3102 20.7781 13.7346ZM28.5483 6.63593C29.5075 6.63593 30.0831 6.92371 30.8505 7.78707L31.8098 6.82778C30.7546 5.67664 29.8913 5.29293 28.4523 5.29293C25.8623 5.29293 23.9437 7.01964 23.9437 10.569C23.9437 14.0224 25.8623 15.845 28.4523 15.845C29.8913 15.845 30.7546 15.4613 31.8098 14.3102L30.7546 13.3509C29.9872 14.2143 29.4116 14.502 28.4523 14.502C27.4931 14.502 26.6297 14.1183 26.0541 13.3509C25.5745 12.6794 25.3826 11.912 25.3826 10.569C25.3826 9.32192 25.5745 8.45856 26.0541 7.78707C26.7256 7.01964 27.589 6.63593 28.5483 6.63593ZM48.4054 5.10107C46.8706 5.10107 45.8154 5.67664 45.1439 6.44407C44.1846 7.40335 43.8968 8.65042 43.8968 10.569C43.8968 12.4876 44.1846 13.7346 45.1439 14.6939C45.8154 15.3654 46.8706 16.0369 48.4054 16.0369C49.9403 16.0369 51.0914 15.4613 51.667 14.6939C52.6263 13.7346 52.914 12.4876 52.914 10.569C52.914 8.65042 52.6263 7.40335 51.667 6.44407C51.0914 5.67664 50.0362 5.10107 48.4054 5.10107ZM48.4054 13.5428C48.981 13.5428 49.3647 13.3509 49.6525 13.0631C50.2281 12.5835 50.324 11.6242 50.2281 10.4731C50.2281 9.32192 50.2281 8.45856 49.6525 7.88299C49.3647 7.59521 48.981 7.40335 48.4054 7.40335C47.8298 7.40335 47.4461 7.59521 47.1584 7.88299C46.6787 8.45856 46.5828 9.32192 46.5828 10.4731C46.5828 11.5283 46.5828 12.4876 47.1584 13.0631C47.4461 13.3509 47.8298 13.5428 48.4054 13.5428ZM60.0127 5.197L57.9023 11.8161L55.696 5.197H52.9141L56.8471 15.845H58.9575L62.8906 5.197H60.0127ZM62.6987 10.569C62.6987 7.01964 64.5214 5.10107 67.3033 5.10107C70.2771 5.10107 71.9079 7.2115 71.9079 10.2812V11.4323H65.2888C65.2888 12.8713 66.0562 13.8305 67.5911 13.8305C68.7422 13.8305 69.3178 13.5428 69.9893 12.8713L71.6201 14.4061C70.5648 15.4613 69.5096 16.0369 67.5911 16.0369C65.0969 16.0369 62.6987 14.8858 62.6987 10.569ZM65.2888 9.51377C65.2888 9.03413 65.3847 8.74635 65.5766 8.36264C65.8644 7.69114 66.4399 7.2115 67.3992 7.2115C68.2626 7.2115 68.9341 7.69114 69.2219 8.36264C69.3623 8.6435 69.3999 8.87297 69.4476 9.16391C69.4651 9.27042 69.4839 9.38525 69.5096 9.51377H65.2888ZM75.8409 5.197V6.25221C76.4165 5.58072 77.3758 5.10107 78.6228 5.197C79.678 5.197 80.3495 5.38886 81.117 6.15629L79.1025 8.17078C78.6228 7.69114 78.335 7.49928 77.6636 7.49928C76.8002 7.49928 75.9368 8.07485 75.9368 9.41785V15.845H73.2508V5.197H75.8409ZM81.2305 4.04586V15.845H83.9165V7.40335H85.835V5.38886H83.9165V4.23772C83.9165 3.66215 84.2042 3.27844 84.8757 3.27844H85.931V1.07209H84.3961C82.1898 1.07209 81.2305 2.60694 81.2305 4.04586ZM94.1632 6.44407C94.8347 5.67664 95.8899 5.10107 97.4248 5.10107C98.9596 5.10107 100.111 5.67664 100.686 6.44407C101.646 7.40335 101.933 8.65042 101.933 10.569C101.933 12.4876 101.646 13.7346 100.686 14.6939C100.111 15.4613 98.9596 16.0369 97.4248 16.0369C95.8899 16.0369 94.8347 15.3654 94.1632 14.6939C93.2039 13.7346 92.9161 12.4876 92.9161 10.569C92.9161 8.65042 93.2039 7.40335 94.1632 6.44407ZM98.6718 13.0631C98.3841 13.3509 98.0003 13.5428 97.4248 13.5428C96.8492 13.5428 96.4655 13.3509 96.1777 13.0631C95.6021 12.4876 95.6021 11.5283 95.6021 10.4731C95.6021 9.32192 95.6981 8.45856 96.1777 7.88299C96.4655 7.59521 96.8492 7.40335 97.4248 7.40335C98.0003 7.40335 98.3841 7.59521 98.6718 7.88299C99.2474 8.45856 99.2474 9.32192 99.2474 10.4731C99.2474 11.6242 99.2474 12.5835 98.6718 13.0631ZM112.773 11.8161L114.5 5.197H117.282L114.02 15.845H111.814L109.608 9.13006L107.401 15.845H105.195L101.933 5.197H104.715L106.442 11.8161L108.648 5.197H110.567L112.773 11.8161ZM89.9328 12.5835V0.976158H87.2468V12.7753C87.2468 14.3102 88.2061 15.845 90.3165 15.845H91.8514V13.6387H90.8921C90.2206 13.6387 89.9328 13.255 89.9328 12.5835ZM14.3509 5.67664L13.0079 7.01964L11.3771 7.11557V12.9672C11.3771 13.9265 11.8567 14.502 12.816 14.502H13.5835V15.7491H12.5282C10.8015 15.7491 9.93818 14.502 9.93818 12.9672V2.31915H11.473V5.67664H14.3509Z" fill="#222426"/>
</g>
</svg>
