<svg width="89" height="13" viewBox="0 0 89 13" fill="none" xmlns="http://www.w3.org/2000/svg">
<path d="M9.26001 5.52L10.3 4.48H8.17001V1.95H7.04001V9.93C7.04001 11.07 7.70001 12 9.01001 12H9.81001V11.03H9.21001C8.50001 11.03 8.17001 10.61 8.17001 9.9V5.52H9.26001ZM67.98 9.58V0.860001H65.98V9.71C65.98 10.85 66.67 12 68.31 12H69.45V10.3H68.68C68.18 10.3 67.98 10.06 67.98 9.58ZM86 3.98L84.71 8.94L83.07 3.99H81.6L79.97 8.94L78.67 3.99H76.55L79.01 11.99H80.66L82.33 6.97L84.02 12H85.67L88.11 3.99H86.01L86 3.98ZM74.1 9.95C73.87 10.18 73.56 10.3 73.16 10.3C72.76 10.3 72.47 10.18 72.24 9.95C71.82 9.53 71.78 8.83 71.78 8C71.78 7.16 71.82 6.47 72.24 6.06C72.47 5.83 72.76 5.7 73.16 5.7C73.56 5.7 73.86 5.83 74.1 6.06C74.51 6.47 74.56 7.16 74.56 8C74.56 8.83 74.51 9.53 74.1 9.95ZM73.16 3.91C71.98 3.91 71.18 4.37 70.69 4.89C69.96 5.64 69.78 6.55 69.78 7.99C69.78 9.46 69.96 10.36 70.68 11.12C71.18 11.64 71.98 12.1 73.16 12.1C74.35 12.1 75.16 11.64 75.66 11.12C76.38 10.36 76.56 9.46 76.56 8C76.56 6.55 76.38 5.64 75.66 4.89C75.3331 4.56354 74.9423 4.30802 74.5122 4.1394C74.082 3.97079 73.6217 3.89269 73.16 3.91ZM61.04 3.16V12H63.04V5.67H64.52V4.15H63.04V3.28C63.04 2.81 63.27 2.55 63.75 2.55H64.52V0.860001H63.38C61.75 0.860001 61.04 2.01 61.04 3.16ZM56.94 4.76V4H54.98V12H56.98V7.18C56.98 6.17 57.65 5.7 58.27 5.7C58.77 5.7 59.02 5.87 59.32 6.17L60.84 4.66C60.5971 4.40403 60.3012 4.20427 59.973 4.07471C59.6448 3.94515 59.2922 3.88894 58.94 3.91C58.08 3.91 57.32 4.31 56.94 4.77V4.76ZM48.97 7.26C48.98 6.9 49.03 6.69 49.15 6.4C49.2642 6.1431 49.4531 5.92654 49.6921 5.7785C49.9311 5.63046 50.2091 5.55781 50.49 5.57C51.17 5.57 51.61 5.92 51.83 6.4C51.95 6.69 52 6.9 52.01 7.26H48.97ZM50.49 3.91C48.42 3.9 47 5.37 47 7.99C47 11.23 48.82 12.09 50.7 12.09C52.15 12.09 52.94 11.64 53.75 10.83L52.54 9.65C52.03 10.15 51.6 10.4 50.72 10.4C49.6 10.4 48.97 9.65 48.97 8.62H53.98V7.72C53.98 5.52 52.72 3.9 50.49 3.9V3.91ZM44.99 4L43.37 8.95L41.74 4H39.64L42.59 12H44.15L47.09 4H45H44.99ZM37.2 9.94C36.97 10.17 36.66 10.29 36.26 10.29C35.86 10.29 35.57 10.17 35.34 9.94C34.93 9.52 34.88 8.82 34.88 7.99C34.88 7.15 34.93 6.46 35.34 6.05C35.57 5.82 35.86 5.69 36.26 5.69C36.66 5.69 36.97 5.82 37.2 6.05C37.62 6.46 37.66 7.15 37.66 7.99C37.66 8.82 37.62 9.52 37.2 9.94ZM36.26 3.9C35.08 3.9 34.28 4.36 33.79 4.88C33.07 5.63 32.89 6.54 32.89 7.98C32.89 9.45 33.07 10.35 33.79 11.11C34.29 11.63 35.08 12.09 36.26 12.09C37.45 12.09 38.26 11.63 38.76 11.11C39.48 10.35 39.66 9.45 39.66 7.99C39.66 6.54 39.48 5.63 38.76 4.88C38.4331 4.55354 38.0423 4.29802 37.6122 4.1294C37.182 3.96078 36.7217 3.88269 36.26 3.9ZM30.98 4.3H29.58L26.08 7.69L26.09 0.870001H24.97V12H26.09V9.19L27.45 7.82L30.03 12H31.43L28.23 7.04L30.98 4.3ZM21.34 5.21C22.07 5.21 22.53 5.43 23.1 6.07C23.1 6.07 23.86 5.34 23.85 5.33C23.549 4.9593 23.1649 4.66472 22.7288 4.47014C22.2927 4.27555 21.8169 4.18643 21.34 4.21C19.4 4.21 17.94 5.53 17.94 8.15C17.94 10.78 19.4 12.09 21.34 12.09C22.4 12.09 23.07 11.81 23.87 10.95L23.1 10.21C22.53 10.86 22.07 11.09 21.34 11.09C20.59 11.09 19.96 10.79 19.56 10.21C19.2 9.71 19.06 9.12 19.06 8.15C19.06 7.18 19.2 6.59 19.56 6.09C19.96 5.51 20.59 5.21 21.34 5.21ZM15.8 9.28C15.8 9.92 15.67 10.36 15.4 10.61C14.92 11.07 14.34 11.12 13.69 11.12C12.47 11.12 11.92 10.7 11.92 9.81C11.92 8.91 12.48 8.45 13.64 8.45H15.8V9.28ZM13.85 4.2C12.62 4.2 11.85 4.45 11.16 5.3C11.16 5.32 11.9 6.05 11.9 6.05C12.35 5.41 12.85 5.17 13.84 5.17C15.24 5.17 15.81 5.73 15.81 6.86V7.59H13.49C11.77 7.59 10.84 8.47 10.84 9.81C10.84 10.42 11.04 11.01 11.41 11.38C11.9 11.88 12.52 12.08 13.59 12.08C14.62 12.08 15.18 11.88 15.81 11.25V12H16.93V6.78C16.93 5.1 15.91 4.21 13.85 4.21V4.2ZM4.23001 7.67L2.99001 7.56C2.02001 7.48 1.65001 7.09 1.65001 6.43C1.65001 5.65 2.25001 5.17 3.37001 5.17C4.17001 5.17 4.87001 5.35 5.42001 5.77L6.15001 5.04C5.34834 4.45555 4.37097 4.1627 3.38001 4.21C1.74001 4.21 0.560007 5.06 0.560007 6.46C0.560007 7.73 1.36001 8.4 2.86001 8.53L4.12001 8.63C5.00001 8.72 5.40001 9.1 5.40001 9.77C5.40001 10.67 4.62001 11.13 3.35001 11.13C2.40001 11.13 1.57001 10.88 0.960007 10.24L0.210007 10.99C0.63375 11.3799 1.13247 11.6794 1.67576 11.8702C2.21905 12.0611 2.79552 12.1393 3.37001 12.1C5.23001 12.1 6.49001 11.24 6.49001 9.76C6.49001 8.32 5.57001 7.8 4.23001 7.68V7.67Z" fill="#222426"/>
</svg>
