<svg width="158" height="30" viewBox="0 0 158 30" fill="none" xmlns="http://www.w3.org/2000/svg">
<path d="M21 27V19H24V30H0V19H3V27H21Z" fill="#BCBBBB"/>
<path d="M5.4021 19.1011L18.9631 21.061L19.127 18.6804L5.87134 16.134L5.4021 19.1011ZM7.2 12.3L19.2 17.9L20.3 15.5L8.3 9.9L7.2 12.3ZM10.6 6.4L20.8 14.9L22.5 12.9L12.3 4.4L10.6 6.4ZM17.1 0.199997L15 1.8L22.9 12.4L25 10.8L17.1 0.199997ZM5 25H19V22H5V25Z" fill="#F48024"/>
<rect x="38" y="11" width="1" height="13" fill="#D6D9DC"/>
<path d="M57.9013 11.3103C57.8625 11.1551 57.7071 11.0388 57.5517 11.0388H56.0752C55.9197 11.0388 55.7643 11.1551 55.7255 11.3103L51.2572 23.4506C51.2183 23.5669 51.2183 23.6833 51.296 23.7996C51.3737 23.916 51.4903 23.9548 51.6068 23.9548H53.5884C53.7439 23.9548 53.8993 23.8384 53.9381 23.6833L54.6764 21.5112H58.9116L59.6498 23.6833C59.6887 23.8384 59.8441 23.9548 59.9995 23.9548H61.9811C62.0977 23.9548 62.2143 23.8772 62.292 23.7996C62.3697 23.6833 62.3697 23.5669 62.3308 23.4506L57.9013 11.3103ZM58.1345 19.184H55.4923L56.8523 15.3829L58.1345 19.184Z" fill="#222426"/>
<path d="M71.9619 13.6375C71.7676 13.1333 71.4568 12.7066 71.0682 12.28C70.2523 11.4654 69.0866 11.0388 67.649 11.0388H63.3749C63.1418 11.0388 62.9864 11.1939 62.9864 11.4267V23.5669C62.9864 23.7996 63.1418 23.9548 63.3749 23.9548H67.649C69.0866 23.9548 70.2523 23.5281 71.0682 22.7136C71.4568 22.3257 71.7676 21.8603 71.9619 21.3173C72.1562 20.8131 72.2727 20.3088 72.3504 19.7658C72.3893 19.2616 72.4281 18.6798 72.4281 18.0204V16.7792C72.4281 16.1586 72.3893 15.5768 72.3504 15.1114C72.2727 14.6072 72.1562 14.1417 71.9619 13.6375ZM69.786 17.4386C69.786 18.4471 69.7472 19.2616 69.6694 19.7658C69.5917 20.2313 69.4752 20.5803 69.242 20.8518C68.8146 21.3173 68.2318 21.55 67.4547 21.55H65.5897V13.4824H67.4547C68.2318 13.4824 68.8146 13.7151 69.242 14.1805C69.3975 14.3357 69.514 14.5684 69.5917 14.8399C69.6694 15.1502 69.7472 15.4605 69.7472 15.8096C69.786 16.1974 69.786 16.7404 69.786 17.4386Z" fill="#222426"/>
<path d="M82.9342 11.0388H80.9914C80.836 11.0388 80.6806 11.1551 80.6029 11.3103L78.155 18.9901L75.746 11.3103C75.7072 11.1551 75.5517 11.0388 75.3575 11.0388H73.4536C73.337 11.0388 73.2204 11.1164 73.1427 11.1939C73.065 11.2715 73.065 11.4267 73.1039 11.543L77.1059 23.6833C77.1448 23.8384 77.3002 23.9548 77.4945 23.9548H78.9321C79.0875 23.9548 79.243 23.8384 79.2818 23.6833L83.3227 11.543C83.3616 11.4267 83.3227 11.3103 83.2839 11.1939C83.1673 11.1164 83.0507 11.0388 82.9342 11.0388Z" fill="#222426"/>
<path d="M93.1813 11.0388H85.4103C85.1771 11.0388 85.0217 11.1939 85.0217 11.4267V23.5669C85.0217 23.7996 85.1771 23.9548 85.4103 23.9548H93.1813C93.4144 23.9548 93.5698 23.7996 93.5698 23.5669V21.8991C93.5698 21.6664 93.4144 21.5112 93.1813 21.5112H87.625V18.641H92.2876C92.5207 18.641 92.6762 18.4858 92.6762 18.2531V16.6241C92.6762 16.3914 92.5207 16.2362 92.2876 16.2362H87.625V13.4824H93.1813C93.4144 13.4824 93.5698 13.3272 93.5698 13.0945V11.4267C93.5698 11.2327 93.4144 11.0388 93.1813 11.0388Z" fill="#222426"/>
<path d="M102.016 18.4471C102.598 18.2143 103.104 17.8265 103.531 17.3222C104.036 16.7017 104.269 15.9259 104.269 14.995C104.269 14.2581 104.114 13.5599 103.764 12.9781C103.414 12.3963 102.909 11.8921 102.288 11.5818C101.666 11.2327 100.928 11.0776 100.112 11.0776H95.3714C95.1383 11.0776 94.9829 11.2327 94.9829 11.4654V23.6057C94.9829 23.8384 95.1383 23.9936 95.3714 23.9936H97.2365C97.4696 23.9936 97.625 23.8384 97.625 23.6057V18.8737H99.2958L101.744 23.7608C101.821 23.8772 101.938 23.9936 102.093 23.9936H104.23C104.347 23.9936 104.502 23.916 104.58 23.7996C104.658 23.6833 104.658 23.5281 104.58 23.4118L102.016 18.4471ZM101.666 14.995C101.666 15.4605 101.51 15.8096 101.239 16.0811C100.928 16.3526 100.539 16.5077 99.9952 16.5077H97.6639V13.4824H99.9952C100.539 13.4824 100.928 13.5987 101.239 13.909C101.51 14.1417 101.666 14.5296 101.666 14.995Z" fill="#222426"/>
<path d="M113.834 11.0388H105.286C105.053 11.0388 104.897 11.1939 104.897 11.4267V13.0945C104.897 13.3272 105.053 13.4824 105.286 13.4824H108.239V23.5669C108.239 23.7996 108.394 23.9548 108.628 23.9548H110.454C110.687 23.9548 110.842 23.7996 110.842 23.5669V13.4824H113.795C114.028 13.4824 114.184 13.3272 114.184 13.0945V11.4267C114.223 11.2327 114.028 11.0388 113.834 11.0388Z" fill="#222426"/>
<path d="M118.294 11.0388H116.429C116.196 11.0388 116.041 11.1939 116.041 11.4267V23.5669C116.041 23.7996 116.196 23.9548 116.429 23.9548H118.294C118.527 23.9548 118.683 23.7996 118.683 23.5669V11.4267C118.683 11.2327 118.527 11.0388 118.294 11.0388Z" fill="#222426"/>
<path d="M128.599 17.3222C128.327 17.0507 127.977 16.8568 127.589 16.7017C127.2 16.5465 126.734 16.4301 126.151 16.3526L124.752 16.1586C124.519 16.1199 124.286 16.0811 124.053 15.9647C123.859 15.8871 123.664 15.7708 123.587 15.6932C123.354 15.4993 123.276 15.2278 123.276 14.8399C123.276 14.5296 123.354 14.2969 123.47 14.0642C123.626 13.8314 123.82 13.6763 124.053 13.5599C124.325 13.4436 124.675 13.366 125.063 13.366C125.413 13.366 125.724 13.4048 125.996 13.4436C126.268 13.4824 126.501 13.5987 126.773 13.7151C127.006 13.8314 127.239 13.9866 127.472 14.2193C127.628 14.3744 127.861 14.3744 128.016 14.2193L129.221 13.0557C129.298 12.9781 129.337 12.8618 129.337 12.7842C129.337 12.6678 129.298 12.5903 129.221 12.5127C128.677 12.0085 128.055 11.6206 127.433 11.3879C126.812 11.1551 126.035 11.0388 125.18 11.0388C124.286 11.0388 123.509 11.1939 122.848 11.5042C122.188 11.8145 121.644 12.3188 121.294 12.9006C120.945 13.4824 120.75 14.1805 120.75 14.9563C120.75 16.0423 121.1 16.9344 121.761 17.555C122.382 18.1368 123.198 18.4858 124.286 18.641L125.724 18.8349C126.035 18.8737 126.307 18.9513 126.462 18.9901C126.617 19.0289 126.734 19.1064 126.851 19.2616C127.084 19.4555 127.2 19.8046 127.2 20.2313C127.2 20.6967 127.045 21.0458 126.695 21.2785C126.307 21.55 125.763 21.7051 125.063 21.7051C124.675 21.7051 124.286 21.6664 123.975 21.5888C123.664 21.5112 123.354 21.3949 123.043 21.2397C122.771 21.0846 122.499 20.8906 122.227 20.6191C122.149 20.5415 122.071 20.5028 121.955 20.5028C121.838 20.5028 121.761 20.5415 121.683 20.6191L120.439 21.8215C120.362 21.8991 120.323 21.9767 120.323 22.093C120.323 22.2094 120.362 22.287 120.439 22.3645C121.061 22.9851 121.722 23.4118 122.46 23.6833C123.198 23.9548 124.053 24.0711 125.024 24.0711C125.685 24.0711 126.345 23.9936 126.889 23.7996C127.472 23.6445 127.977 23.373 128.405 23.0239C128.832 22.6748 129.182 22.2482 129.415 21.7439C129.648 21.2397 129.765 20.6967 129.765 20.1149C129.726 18.9125 129.337 17.9816 128.599 17.3222Z" fill="#222426"/>
<path d="M133.844 11.0388H131.979C131.746 11.0388 131.591 11.1939 131.591 11.4267V23.5669C131.591 23.7996 131.746 23.9548 131.979 23.9548H133.844C134.078 23.9548 134.233 23.7996 134.233 23.5669V11.4267C134.233 11.2327 134.078 11.0388 133.844 11.0388Z" fill="#222426"/>
<path d="M145.534 11.0388H143.707C143.474 11.0388 143.319 11.1939 143.319 11.4267V18.6798L138.423 11.2327C138.345 11.1164 138.229 11.0388 138.112 11.0388H136.403C136.17 11.0388 136.014 11.1939 136.014 11.4267V23.5669C136.014 23.7996 136.17 23.9548 136.403 23.9548H138.268C138.501 23.9548 138.656 23.7996 138.656 23.5669V16.3138L143.552 23.7608C143.63 23.8772 143.746 23.9548 143.863 23.9548H145.572C145.806 23.9548 145.961 23.7996 145.961 23.5669V11.4267C145.922 11.2327 145.728 11.0388 145.534 11.0388Z" fill="#222426"/>
<path d="M157.129 16.6241H152.699C152.466 16.6241 152.311 16.7792 152.311 17.0119V18.5634C152.311 18.7961 152.466 18.9513 152.699 18.9513H154.914V19.2616C154.914 19.9597 154.72 20.5028 154.409 20.9294C153.982 21.4336 153.438 21.6664 152.738 21.6664C152.427 21.6664 152.155 21.6276 151.883 21.5112C151.611 21.3949 151.378 21.2397 151.223 21.0846C151.067 20.9294 150.951 20.7355 150.912 20.6191C150.834 20.464 150.795 20.27 150.718 19.9985C150.679 19.727 150.64 19.4167 150.601 19.0289C150.601 18.6798 150.562 18.1756 150.562 17.5162C150.562 16.3526 150.601 15.4993 150.718 15.0338C150.795 14.6072 150.951 14.2581 151.223 13.9866C151.417 13.7926 151.611 13.6375 151.883 13.5211C152.155 13.4048 152.427 13.366 152.738 13.366C153.127 13.366 153.476 13.4436 153.787 13.5987C154.098 13.7539 154.331 13.9478 154.526 14.2193C154.72 14.4908 154.875 14.8399 154.953 15.2278C154.992 15.4217 155.147 15.5381 155.341 15.5381H157.207C157.323 15.5381 157.44 15.4993 157.517 15.3829C157.595 15.3053 157.634 15.189 157.595 15.0726C157.479 14.2969 157.207 13.5987 156.779 13.0169C156.352 12.3963 155.808 11.8921 155.147 11.543C154.487 11.1939 153.671 11 152.777 11C151.417 11 150.251 11.4654 149.319 12.3963C149.008 12.7066 148.736 13.0557 148.581 13.4048C148.425 13.7539 148.27 14.1417 148.192 14.5296C148.114 14.9175 148.076 15.3441 148.037 15.7708C147.998 16.1974 147.998 16.7792 147.998 17.555C147.998 18.5246 148.037 19.2616 148.076 19.8046C148.114 20.3476 148.231 20.8518 148.425 21.3561C148.62 21.8603 148.93 22.2869 149.319 22.7524C149.591 23.0239 149.941 23.2954 150.329 23.5281C150.718 23.7608 151.106 23.916 151.495 24.0324C151.883 24.1487 152.35 24.1875 152.777 24.1875C154.254 24.1875 155.458 23.6833 156.391 22.6748C156.818 22.2094 157.129 21.6664 157.323 21.0846C157.517 20.5028 157.595 19.8046 157.595 18.9901V17.1283C157.517 16.7792 157.323 16.6241 157.129 16.6241Z" fill="#222426"/>
</svg>
