<svg width="185" height="37" viewBox="0 0 185 37" fill="none" xmlns="http://www.w3.org/2000/svg">
<path d="M26 33V24H30V37H0V24H4V33H26Z" fill="#BCBBBB"/>
<path d="M23.0908 25.9902L23.7844 23.041L7.67993 19.687L7 23L23.0908 25.9902ZM9.1 15.2L24.1 22.2L25.5 19.2L10.5 12.2L9.1 15.2ZM13.3 7.8L26 18.4L28.1 15.9L15.4 5.3L13.3 7.8ZM21.5 0L18.8 2L28.7 15.3L31.4 13.3L21.5 0ZM7 30H23V27H7V30Z" fill="#F48024"/>
<path d="M75.5126 13.1918H65.5139C65.214 13.1918 65.014 13.3921 65.014 13.6926V29.3666C65.014 29.667 65.214 29.8673 65.5139 29.8673H67.9136C68.2136 29.8673 68.4135 29.667 68.4135 29.3666V23.2572H74.4127C74.7127 23.2572 74.9126 23.0569 74.9126 22.7564V20.6031C74.9126 20.3027 74.7127 20.1024 74.4127 20.1024H68.4135V16.3466H75.5626C75.8625 16.3466 76.0625 16.1463 76.0625 15.8459V13.6926C76.0125 13.4422 75.7625 13.1918 75.5126 13.1918Z" fill="#222426"/>
<path d="M89.5988 16.6975C89.3488 16.0465 88.9989 15.4456 88.449 14.8947C87.2491 13.6929 85.6993 13.0919 83.9496 13.0919C82.1998 13.0919 80.7001 13.6929 79.5002 14.8947C79.1003 15.2953 78.7503 15.746 78.5504 16.1967C78.3504 16.6474 78.1504 17.1482 78.0504 17.6489C77.9504 18.1497 77.9005 18.7005 77.8505 19.2514C77.8005 19.8022 77.8005 20.6034 77.8005 21.5549C77.8005 22.8068 77.8505 23.7583 77.9004 24.4593C77.9504 25.1604 78.1004 25.8114 78.3504 26.4624C78.6004 27.1134 79.0003 27.6643 79.5002 28.2652C80.7001 29.467 82.1998 30.0679 83.9496 30.0679C85.6993 30.0679 87.1991 29.467 88.449 28.2151C88.9489 27.6642 89.3488 27.0633 89.5988 26.4123C89.8488 25.8114 89.9488 25.1103 89.9988 24.4093C90.0487 23.7583 90.0487 22.7567 90.0487 21.5048C90.0487 20.2529 90.0487 19.3015 89.9988 18.6004C89.9988 17.9494 89.8488 17.2984 89.5988 16.6975ZM81.3499 18.35C81.4499 17.7992 81.6499 17.3485 81.9498 16.9979C82.1498 16.7475 82.4498 16.5472 82.7997 16.397C83.1497 16.2468 83.5496 16.1967 83.8996 16.1967C84.2995 16.1967 84.6495 16.2969 84.9994 16.397C85.3494 16.5472 85.6493 16.7475 85.8493 16.9979C86.1493 17.3485 86.3492 17.7491 86.4492 18.2999C86.5492 18.9008 86.5992 20.0025 86.5992 21.5048C86.5992 22.5064 86.5992 23.3076 86.5492 23.9085C86.4992 24.4593 86.4492 24.91 86.2992 25.2105C86.1993 25.511 86.0493 25.7613 85.7993 26.0117C85.2994 26.5626 84.6495 26.8129 83.8496 26.8129C83.4496 26.8129 83.0997 26.7629 82.7497 26.6126C82.3998 26.4624 82.0998 26.2621 81.8998 26.0618C81.6999 25.8615 81.5499 25.6612 81.4999 25.4609C81.4499 25.3607 81.3499 25.1103 81.2999 24.7097C81.25 24.3592 81.2 23.9586 81.15 23.4578C81.15 22.957 81.1 22.3061 81.1 21.5048C81.2 20.0526 81.25 18.9509 81.3499 18.35Z" fill="#222426"/>
<path d="M102.072 22.7567C102.822 22.4563 103.472 21.9555 104.022 21.3045C104.672 20.5033 104.972 19.5018 104.972 18.2999C104.972 17.3485 104.772 16.4471 104.322 15.6959C103.872 14.9448 103.222 14.2938 102.422 13.8932C101.622 13.4425 100.672 13.2422 99.6225 13.2422H93.5233C93.2233 13.2422 93.0234 13.4425 93.0234 13.7429V29.4169C93.0234 29.7174 93.2233 29.9177 93.5233 29.9177H95.923C96.2229 29.9177 96.4229 29.7174 96.4229 29.4169V23.3076H98.5726L101.722 29.6172C101.822 29.7675 101.972 29.9177 102.172 29.9177H104.922C105.072 29.9177 105.272 29.8175 105.372 29.6673C105.472 29.5171 105.472 29.3168 105.372 29.1665L102.072 22.7567ZM96.4229 16.3469H99.4225C100.122 16.3469 100.622 16.4972 101.022 16.8978C101.422 17.2483 101.572 17.699 101.572 18.35C101.572 18.9509 101.372 19.4016 101.022 19.7521C100.622 20.1027 100.122 20.303 99.4225 20.303H96.4229V16.3469Z" fill="#222426"/>
<path d="M124.044 13.1921H113.046C112.746 13.1921 112.546 13.3924 112.546 13.6929V15.8462C112.546 16.1466 112.746 16.3469 113.046 16.3469H116.845V29.3669C116.845 29.6673 117.045 29.8676 117.345 29.8676H119.695C119.995 29.8676 120.195 29.6673 120.195 29.3669V16.3469H123.994C124.294 16.3469 124.494 16.1466 124.494 15.8462V13.6929C124.544 13.4425 124.294 13.1921 124.044 13.1921Z" fill="#222426"/>
<path d="M137.524 13.1921H127.525C127.225 13.1921 127.025 13.3924 127.025 13.6929V29.3669C127.025 29.6673 127.225 29.8676 127.525 29.8676H137.524C137.824 29.8676 138.024 29.6673 138.024 29.3669V27.2136C138.024 26.9131 137.824 26.7128 137.524 26.7128H130.375V23.0071H136.374C136.674 23.0071 136.874 22.8068 136.874 22.5064V20.4031C136.874 20.1027 136.674 19.9024 136.374 19.9024H130.375V16.3469H137.524C137.824 16.3469 138.024 16.1466 138.024 15.8462V13.6929C138.024 13.4425 137.774 13.1921 137.524 13.1921Z" fill="#222426"/>
<path d="M147.942 13.5426C147.892 13.3423 147.692 13.1921 147.492 13.1921H145.592C145.392 13.1921 145.192 13.3423 145.142 13.5426L139.393 29.2166C139.343 29.3669 139.343 29.5171 139.443 29.6673C139.543 29.8176 139.693 29.8676 139.843 29.8676H142.392C142.592 29.8676 142.792 29.7174 142.842 29.5171L143.792 26.7128H149.241L150.191 29.5171C150.241 29.7174 150.441 29.8676 150.641 29.8676H153.191C153.341 29.8676 153.491 29.7675 153.591 29.6673C153.691 29.5171 153.691 29.3669 153.641 29.2166L147.942 13.5426ZM148.241 23.7082H144.842L146.592 18.8007L148.241 23.7082Z" fill="#222426"/>
<path d="M169.989 13.1921H167.589C167.389 13.1921 167.239 13.2923 167.139 13.4926L163.139 22.256L159.04 13.4926C158.94 13.2923 158.79 13.1921 158.59 13.1921H156.19C155.89 13.1921 155.69 13.3924 155.69 13.6929V29.3669C155.69 29.6673 155.89 29.8676 156.19 29.8676H158.59C158.89 29.8676 159.09 29.6673 159.09 29.3669V21.1042L161.84 26.7629C161.94 26.9131 162.09 27.0633 162.29 27.0633H164.039C164.239 27.0633 164.389 26.9632 164.489 26.7629L167.139 21.1543V29.4169C167.139 29.7174 167.339 29.9177 167.639 29.9177H170.039C170.339 29.9177 170.538 29.7174 170.538 29.4169V13.743C170.488 13.4425 170.289 13.1921 169.989 13.1921Z" fill="#222426"/>
<path d="M183.437 21.3546C183.087 21.004 182.637 20.7537 182.137 20.5534C181.637 20.3531 181.037 20.2028 180.287 20.1027L178.487 19.8523C178.187 19.8022 177.887 19.7521 177.588 19.6019C177.338 19.5018 177.088 19.3515 176.988 19.2514C176.688 19.001 176.588 18.6504 176.588 18.1497C176.588 17.7491 176.688 17.4486 176.838 17.1481C177.038 16.8477 177.288 16.6474 177.588 16.4972C177.937 16.3469 178.387 16.2468 178.887 16.2468C179.337 16.2468 179.737 16.2968 180.087 16.3469C180.437 16.397 180.787 16.5472 181.087 16.6975C181.387 16.8477 181.687 17.048 181.987 17.3485C182.187 17.5488 182.487 17.5488 182.687 17.3485L184.237 15.8462C184.337 15.746 184.387 15.5958 184.387 15.4956C184.387 15.3454 184.337 15.2452 184.237 15.1451C183.537 14.4941 182.737 13.9933 181.937 13.6929C181.137 13.3924 180.137 13.2422 179.037 13.2422C177.887 13.2422 176.888 13.4425 176.038 13.8431C175.188 14.2437 174.488 14.8947 174.038 15.6458C173.588 16.397 173.338 17.2984 173.338 18.2999C173.338 19.7021 173.788 20.8538 174.638 21.655C175.438 22.4062 176.488 22.8569 177.887 23.0572L179.737 23.3076C180.137 23.3576 180.487 23.4578 180.687 23.5079C180.887 23.558 181.037 23.6581 181.187 23.8584C181.487 24.1088 181.637 24.5595 181.637 25.1103C181.637 25.7113 181.437 26.1619 180.987 26.4624C180.487 26.8129 179.787 27.0132 178.887 27.0132C178.387 27.0132 177.887 26.9632 177.488 26.863C177.088 26.7629 176.688 26.6126 176.288 26.4123C175.938 26.212 175.588 25.9616 175.238 25.6111C175.138 25.5109 175.038 25.4609 174.888 25.4609C174.738 25.4609 174.638 25.5109 174.538 25.6111L172.938 27.1635C172.838 27.2636 172.788 27.3638 172.788 27.514C172.788 27.6642 172.838 27.7644 172.938 27.8645C173.738 28.6658 174.588 29.2166 175.538 29.5672C176.488 29.9177 177.588 30.0679 178.837 30.0679C179.687 30.0679 180.537 29.9678 181.237 29.7174C181.987 29.5171 182.637 29.1665 183.187 28.7159C183.737 28.2652 184.187 27.7143 184.487 27.0633C184.787 26.4123 184.937 25.7113 184.937 24.9601C184.887 23.3576 184.387 22.1558 183.437 21.3546Z" fill="#222426"/>
<rect x="47" y="13" width="1" height="17" fill="#D6D9DC"/>
</svg>
