<svg width="96" height="30" viewBox="0 0 96 30" fill="none" xmlns="http://www.w3.org/2000/svg">
<path d="M21 27V19H24V30H0V19H3V27H21Z" fill="#BCBBBB"/>
<path d="M5.4021 19.1011L18.9631 21.061L19.127 18.6804L5.87134 16.134L5.4021 19.1011ZM7.2 12.3L19.2 17.9L20.3 15.5L8.3 9.9L7.2 12.3ZM10.6 6.4L20.8 14.9L22.5 12.9L12.3 4.4L10.6 6.4ZM17.1 0.200001L15 1.8L22.9 12.4L25 10.8L17.1 0.200001ZM5 25H19V22H5V25Z" fill="#F48024"/>
<rect x="38" y="11" width="1" height="13" fill="#D6D9DC"/>
<path d="M59.5713 11.0027H57.0952C57.0357 11.0027 56.9785 11.0261 56.9364 11.0678C56.8943 11.1095 56.8707 11.166 56.8707 11.2249V19.5418C56.8707 20.8076 56.247 21.4744 55.0993 21.4744C54.8212 21.4856 54.5442 21.4335 54.2896 21.3222C54.0349 21.2109 53.8095 21.0433 53.6305 20.8323C53.589 20.7915 53.533 20.7687 53.4746 20.7687C53.4162 20.7687 53.3601 20.7915 53.3186 20.8323L51.6783 22.45C51.6371 22.4923 51.6136 22.5486 51.6128 22.6074C51.6126 22.6366 51.6182 22.6656 51.6295 22.6927C51.6407 22.7197 51.6573 22.7443 51.6783 22.7648C52.6482 23.725 53.6399 24.117 55.1087 24.117C57.3696 24.117 59.8021 22.7216 59.8021 19.6591V11.2249C59.8026 11.1951 59.7968 11.1655 59.7853 11.1379C59.7738 11.1103 59.7567 11.0854 59.7351 11.0646C59.7135 11.0437 59.6878 11.0275 59.6597 11.0169C59.6315 11.0062 59.6015 11.0014 59.5713 11.0027Z" fill="#222426"/>
<path d="M66.9959 10.8977C66.3281 10.88 65.6638 10.9989 65.0446 11.247C64.4253 11.4951 63.8645 11.867 63.3971 12.3394C62.0842 13.6391 62.0842 15.2692 62.0842 17.3314V17.6895C62.0842 19.7518 62.0842 21.3941 63.3971 22.6815C63.8643 23.1542 64.4251 23.5263 65.0444 23.7744C65.6637 24.0225 66.328 24.1413 66.9959 24.1232C67.6608 24.1402 68.322 24.0209 68.9381 23.7728C69.5542 23.5247 70.1118 23.1531 70.576 22.6815C71.9076 21.3633 71.9076 19.7826 71.9076 17.6V17.4271C71.9076 15.2414 71.9076 13.6638 70.576 12.3456C70.1123 11.873 69.5549 11.5004 68.9388 11.2512C68.3227 11.0021 67.6612 10.8817 66.9959 10.8977ZM65.5582 14.1207C65.7417 13.9266 65.9648 13.7734 66.2126 13.6712C66.4605 13.569 66.7275 13.5202 66.9959 13.528C67.2612 13.5193 67.5252 13.5678 67.7697 13.6701C68.0142 13.7725 68.2332 13.9262 68.4117 14.1207C68.8452 14.5962 68.9793 15.1241 68.9793 17.5166C68.9793 19.9092 68.8452 20.4217 68.4055 20.9125C68.2277 21.1081 68.0088 21.2628 67.7642 21.3657C67.5196 21.4686 67.2553 21.5173 66.9896 21.5084C66.7202 21.516 66.4523 21.4665 66.2038 21.3632C65.9553 21.2599 65.732 21.1052 65.5489 20.9094C65.131 20.4495 65 19.9215 65 17.529C65 15.1364 65.1372 14.6023 65.5582 14.1207Z" fill="#222426"/>
<path d="M82.141 17.3407C82.5566 17.0462 82.8954 16.658 83.1291 16.208C83.3629 15.7581 83.4849 15.2595 83.4851 14.7536C83.4851 12.4413 81.8915 11.0027 79.3343 11.0027H74.2355C74.2062 11.0027 74.1771 11.0084 74.1501 11.0196C74.123 11.0308 74.0984 11.0473 74.0778 11.0679C74.0572 11.0886 74.041 11.1132 74.03 11.1401C74.0191 11.1671 74.0137 11.1959 74.0141 11.2249V23.7898C74.0141 23.8479 74.0374 23.9037 74.0789 23.9448C74.1205 23.9859 74.1768 24.009 74.2355 24.009H79.537C82.0693 24.009 83.6442 22.5395 83.6442 20.1716C83.6738 19.6095 83.5499 19.05 83.2854 18.5518C83.0208 18.0536 82.6255 17.6352 82.141 17.3407ZM79.1379 16.0873H76.9362V13.6329H79.1379C80.0267 13.6329 80.5537 14.0929 80.5537 14.8678C80.5537 15.6427 80.0267 16.0873 79.1379 16.0873ZM76.9362 18.733H79.3C80.1982 18.733 80.7346 19.2238 80.7346 20.0481C80.7346 20.8724 80.1982 21.3941 79.3 21.3941H76.9362V18.733Z" fill="#222426"/>
<path d="M94.3429 17.2573C93.7472 16.7047 92.9613 16.3898 91.7981 16.2293L90.3012 16.0163C89.9133 15.9772 89.5455 15.8258 89.244 15.581C89.1442 15.4854 89.065 15.3707 89.0114 15.2438C88.9578 15.117 88.9308 14.9806 88.9322 14.8431C88.9322 14.0003 89.5995 13.4755 90.6723 13.4755C91.4613 13.4755 92.3719 13.5712 93.1204 14.2782C93.1407 14.2987 93.165 14.315 93.1917 14.3262C93.2185 14.3373 93.2473 14.343 93.2763 14.343C93.3054 14.343 93.3341 14.3373 93.3609 14.3262C93.3877 14.315 93.4119 14.2987 93.4322 14.2782L94.9915 12.7346C95.0328 12.6922 95.0562 12.6359 95.057 12.5771C95.0572 12.5476 95.0512 12.5184 95.0394 12.4913C95.0276 12.4642 95.0102 12.4398 94.9884 12.4197C93.9031 11.367 92.5934 10.8977 90.7503 10.8977C87.9748 10.8977 86.1068 12.5185 86.1068 14.9296C86.1068 16.0502 86.4186 16.9085 87.086 17.5598C87.6816 18.1341 88.5268 18.486 89.6682 18.662L91.1994 18.8719C91.5675 18.8867 91.9205 19.0212 92.2035 19.2547C92.3154 19.375 92.4009 19.5169 92.4546 19.6715C92.5083 19.8262 92.529 19.9901 92.5154 20.1531C92.5154 21.2552 91.4177 21.4867 90.4946 21.4867C89.2128 21.4867 88.2617 21.178 87.585 20.4927C87.5437 20.4515 87.4876 20.4282 87.429 20.4278C87.3696 20.4287 87.3128 20.4519 87.27 20.4927L85.6639 22.0795C85.6228 22.1205 85.5997 22.176 85.5997 22.2339C85.5997 22.2917 85.6228 22.3472 85.6639 22.3882C86.8677 23.5984 88.3022 24.1139 90.4571 24.1139C93.4042 24.1139 95.3876 22.4932 95.3876 20.0821C95.4001 18.8626 95.0414 17.9118 94.3429 17.2573Z" fill="#222426"/>
</svg>
