<svg width="152" height="21" viewBox="0 0 152 21" fill="none" xmlns="http://www.w3.org/2000/svg">
<g id="Icon/LogoWordmarkMd">
<path id="Wordmark" fill-rule="evenodd" clip-rule="evenodd" d="M50.3 6.10419H52.7L47.9 10.9042L53.5 19.5042H51.1L46.6 12.2042L44.2 14.6042V19.5042H42.2V0.104195H44.2V12.0042L50.3 6.10419ZM35.9 7.7042C37.1 7.7042 38.3 8.2042 39 9.2042L40.3 7.90419C39.2 6.60419 37.6 5.80419 35.9 5.90419C32.5 5.90419 30 8.2042 30 12.8042C30 17.4042 32.6 19.7042 35.9 19.7042C37.6 19.8042 39.2 19.0042 40.3 17.7042L39 16.4042C38.3 17.4042 37.1 17.9042 35.9 17.9042C34.7 18.0042 33.5 17.4042 32.8 16.4042C32.1 15.3042 31.8 14.1042 31.9 12.8042C31.8 11.5042 32.1 10.3042 32.8 9.2042C33.5 8.2042 34.7 7.60419 35.9 7.7042ZM22.8 5.90419C20.6 5.90419 19.3 6.30419 18.1 7.80419L19.4 9.10419C20.2 8.00419 21.5 7.40419 22.8 7.60419C25.3 7.60419 26.2 8.60419 26.2 10.5042V11.8042H22.2C19.2 11.8042 17.6 13.3042 17.6 15.7042C17.6 16.7042 17.9 17.7042 18.6 18.4042C19.4 19.3042 20.5 19.6042 22.4 19.6042C23.8 19.7042 25.3 19.2042 26.3 18.2042V19.5042H28.3V10.4042C28.2 7.50419 26.4 5.90419 22.8 5.90419ZM7 12.0042L4.8 11.8042C3.1 11.7042 2.5 11.0042 2.5 9.80419C2.5 8.40419 3.5 7.60419 5.5 7.60419C6.8 7.50419 8.1 7.90419 9.1 8.7042L10.4 7.40419C9 6.40419 7.3 5.90419 5.6 6.00419C2.7 6.00419 0.7 7.50419 0.7 9.90419C0.7 12.1042 2.1 13.3042 4.7 13.5042L6.9 13.7042C8.5 13.8042 9.1 14.5042 9.1 15.7042C9.1 17.3042 7.7 18.1042 5.5 18.1042C3.9 18.2042 2.4 17.6042 1.3 16.5042L0 17.8042C1.5 19.2042 3.5 19.8042 5.5 19.7042C8.7 19.7042 11 18.2042 11 15.6042C11 13.0042 9.4 12.2042 7 12.0042ZM25.5 17.1042C26.1 16.5042 26.3 15.6042 26.2 14.8042V13.3042H22.4C20.4 13.3042 19.4 14.1042 19.4 15.7042C19.4 17.3042 20.4 18.0042 22.5 18.0042C23.6 18.1042 24.7 17.8042 25.5 17.1042ZM61.9 5.94179C60.3 5.84179 58.7 6.44179 57.6 7.64179C56.3 8.94179 56 10.5418 56 13.0418C56 15.5418 56.3 17.1418 57.6 18.4418C58.7 19.5418 60.3 20.1418 61.9 20.1418C63.5 20.2418 65.1 19.6418 66.2 18.4418C67.5 17.1418 67.8 15.5418 67.8 13.0418C67.8 10.5418 67.5 8.94179 66.2 7.64179C65.1 6.44179 63.5 5.84179 61.9 5.94179ZM60.4 16.4418C61.3 17.2418 62.7 17.2418 63.6 16.4418C64.3 15.7418 64.4 14.5418 64.4 13.0418C64.4 11.5418 64.3 10.3418 63.6 9.64179C62.7 8.84179 61.3 8.84179 60.4 9.64179C59.7 10.3418 59.6 11.6418 59.6 13.0418C59.6 14.4418 59.7 15.7418 60.4 16.4418ZM77.2 6.04179L74.4 14.6418L71.6 6.04179H67.9L73.1 20.0418H75.8L80.9 6.04179H77.2ZM80.7 13.0418C80.7 8.54179 83.2 5.94179 86.8 5.94179C90.7 5.94179 92.9 8.74179 92.8 12.5418V14.1418H84.1V14.5418C84.2 16.1418 85.6 17.3418 87.2 17.2418C88.4 17.3418 89.6 16.8418 90.4 15.9418L92.5 18.0418C91.2 19.5418 89.2 20.3418 87.2 20.2418C83.9 20.2418 80.7 18.7418 80.7 13.0418ZM84.1 11.7418C84.1 11.2418 84.2 10.7418 84.4 10.2418C84.8 9.34179 85.7 8.84179 86.7 8.84179C87.7 8.74179 88.6 9.34179 89 10.2418C89.2 10.7418 89.3 11.2418 89.3 11.7418H84.1ZM97.4329 6.14179V7.44179C98.3329 6.44179 99.6329 5.94179 100.933 6.04179C102.133 5.94179 103.433 6.44179 104.233 7.34179L101.633 9.94179C101.233 9.44179 100.533 9.14179 99.8329 9.14179H99.6329C98.3329 9.34179 97.4329 10.4418 97.5329 11.7418V20.1418H94.0329V6.14179H97.4329ZM105.024 20.0418H108.524V9.04179H111.124V6.34179H108.524V4.84179C108.424 4.24179 108.824 3.64179 109.424 3.54179H111.024V0.541792H109.024C106.924 0.441792 105.124 2.14179 105.024 4.34179V20.0418ZM121 7.64179C122.1 6.44179 123.7 5.84179 125.3 5.94179C126.9 5.84179 128.5 6.44179 129.6 7.64179C130.9 8.94179 131.2 10.5418 131.2 13.0418C131.2 15.5418 130.9 17.1418 129.6 18.4418C128.5 19.6418 126.9 20.2418 125.3 20.1418C123.7 20.1418 122.1 19.5418 121 18.4418C119.7 17.1418 119.4 15.5418 119.4 13.0418C119.4 10.5418 119.7 8.94179 121 7.64179ZM127 16.4418C126.1 17.2418 124.7 17.2418 123.8 16.4418C123.1 15.7418 123 14.4418 123 13.0418C123 11.6418 123.1 10.3418 123.8 9.64179C124.7 8.84179 126.1 8.84179 127 9.64179C127.7 10.3418 127.8 11.5418 127.8 13.0418C127.8 14.5418 127.7 15.7418 127 16.4418ZM145.4 14.6418L147.7 6.04179L151.5 6.14179L147.2 20.1418H144.2L141.3 11.3418L138.4 20.1418H135.5L131.2 6.14179H134.9L137.2 14.7418L140 6.04179H142.5L145.4 14.6418ZM116.479 0.641792H112.979V16.0418C112.879 18.1418 114.479 19.9418 116.579 20.0418H119.079V17.0418H117.779C117.179 17.1418 116.679 16.8418 116.479 16.2418V0.641792ZM14.0034 6.40419H17.7034L15.9034 8.10419H14.0034V15.8042C14.0034 17.1042 14.5034 17.8042 15.8034 17.8042H16.8034V19.5042H15.4034C13.1034 19.5042 12.0034 17.9042 12.0034 15.9042V2.00419H14.0034V6.40419Z" fill="#222426"/>
</g>
</svg>
