<svg width="146" height="37" viewBox="0 0 146 37" fill="none" xmlns="http://www.w3.org/2000/svg">
<g id="Icon/LogoTeams">
<path id="Wordmark" fill-rule="evenodd" clip-rule="evenodd" d="M67.58 14.3889H69.4027L65.8533 17.9382L70.0742 24.5573H68.2515L64.7981 18.9934L62.9755 20.8161V24.5573H61.4406V9.7843H62.9755V18.8975L67.58 14.3889ZM33.9092 18.8975L32.2784 18.7056C31.0313 18.6097 30.4558 18.1301 30.4558 17.1708C30.4558 16.1156 31.2232 15.4441 32.7581 15.4441C33.8133 15.4441 34.7725 15.7319 35.444 16.2115L36.4033 15.2522C35.444 14.4848 34.197 14.197 32.7581 14.197C30.5517 14.197 29.0168 15.3481 29.0168 17.1708C29.0168 18.8975 30.0721 19.7608 32.0866 19.9527L33.8133 20.1446C34.9644 20.2405 35.54 20.7201 35.54 21.6794C35.54 22.9265 34.4848 23.502 32.854 23.502C31.6069 23.502 30.4558 23.2143 29.6883 22.3509L28.7291 23.3102C29.8802 24.3654 31.2232 24.7491 32.9499 24.7491C35.444 24.7491 37.0748 23.598 37.0748 21.6794C36.883 19.7608 35.6359 19.0893 33.9092 18.8975ZM46.6677 14.2929C45.0369 14.2929 43.9817 14.5807 43.1183 15.7319L44.0776 16.6911C44.6532 15.8278 45.3247 15.54 46.6677 15.54C48.4903 15.54 49.2577 16.3074 49.2577 17.7463V18.7056H46.188C43.8857 18.7056 42.6387 19.8568 42.6387 21.6794C42.6387 22.4468 42.9264 23.2143 43.4061 23.7898C44.0776 24.4613 44.845 24.7491 46.2839 24.7491C47.6269 24.7491 48.3944 24.4613 49.2577 23.6939V24.6532H50.7926V17.7463C50.6966 15.4441 49.3536 14.2929 46.6677 14.2929ZM48.7781 22.7346C49.0659 22.4468 49.2577 21.8713 49.2577 21.0079L49.3536 19.8568H46.4758C44.9409 19.8568 44.1735 20.5283 44.1735 21.6794C44.1735 22.8305 44.845 23.4061 46.4758 23.4061C47.3392 23.4061 48.1066 23.3102 48.7781 22.7346ZM56.5483 15.6359C57.5075 15.6359 58.0831 15.9237 58.8505 16.7871L59.8098 15.8278C58.7546 14.6766 57.8913 14.2929 56.4523 14.2929C53.8623 14.2929 51.9437 16.0196 51.9437 19.569C51.9437 23.0224 53.8623 24.845 56.4523 24.845C57.8913 24.845 58.7546 24.4613 59.8098 23.3102L58.7546 22.3509C57.9872 23.2143 57.4116 23.502 56.4523 23.502C55.4931 23.502 54.6297 23.1183 54.0541 22.3509C53.5745 21.6794 53.3826 20.912 53.3826 19.569C53.3826 18.3219 53.5745 17.4586 54.0541 16.7871C54.7256 16.0196 55.589 15.6359 56.5483 15.6359ZM76.4054 14.1011C74.8706 14.1011 73.8154 14.6766 73.1439 15.4441C72.1846 16.4034 71.8968 17.6504 71.8968 19.569C71.8968 21.4876 72.1846 22.7346 73.1439 23.6939C73.8154 24.3654 74.8706 25.0369 76.4054 25.0369C77.9403 25.0369 79.0914 24.4613 79.667 23.6939C80.6263 22.7346 80.914 21.4876 80.914 19.569C80.914 17.6504 80.6263 16.4034 79.667 15.4441C79.0914 14.6766 78.0362 14.1011 76.4054 14.1011ZM76.4054 22.5428C76.981 22.5428 77.3647 22.3509 77.6525 22.0631C78.2281 21.5835 78.324 20.6242 78.2281 19.4731C78.2281 18.3219 78.2281 17.4586 77.6525 16.883C77.3647 16.5952 76.981 16.4034 76.4054 16.4034C75.8298 16.4034 75.4461 16.5952 75.1584 16.883C74.6787 17.4586 74.5828 18.3219 74.5828 19.4731C74.5828 20.5283 74.5828 21.4876 75.1584 22.0631C75.4461 22.3509 75.8298 22.5428 76.4054 22.5428ZM88.0127 14.197L85.9023 20.8161L83.696 14.197H80.9141L84.8471 24.845H86.9575L90.8906 14.197H88.0127ZM90.6987 19.569C90.6987 16.0196 92.5214 14.1011 95.3033 14.1011C98.2771 14.1011 99.9079 16.2115 99.9079 19.2812V20.4323H93.2888C93.2888 21.8713 94.0562 22.8305 95.5911 22.8305C96.7422 22.8305 97.3178 22.5428 97.9893 21.8713L99.6201 23.4061C98.5648 24.4613 97.5096 25.0369 95.5911 25.0369C93.0969 25.0369 90.6987 23.8858 90.6987 19.569ZM93.2888 18.5138C93.2888 18.0341 93.3847 17.7463 93.5766 17.3626C93.8644 16.6911 94.4399 16.2115 95.3992 16.2115C96.2626 16.2115 96.9341 16.6911 97.2219 17.3626C97.3623 17.6435 97.3999 17.873 97.4476 18.1639C97.4651 18.2704 97.4839 18.3853 97.5096 18.5138H93.2888ZM103.841 14.197V15.2522C104.416 14.5807 105.376 14.1011 106.623 14.197C107.678 14.197 108.35 14.3889 109.117 15.1563L107.102 17.1708C106.623 16.6911 106.335 16.4993 105.664 16.4993C104.8 16.4993 103.937 17.0749 103.937 18.4178V24.845H101.251V14.197H103.841ZM109.23 13.0459V24.845H111.916V16.4034H113.835V14.3889H111.916V13.2377C111.916 12.6622 112.204 12.2784 112.876 12.2784H113.931V10.0721H112.396C110.19 10.0721 109.23 11.6069 109.23 13.0459ZM122.163 15.4441C122.835 14.6766 123.89 14.1011 125.425 14.1011C126.96 14.1011 128.111 14.6766 128.686 15.4441C129.646 16.4034 129.933 17.6504 129.933 19.569C129.933 21.4876 129.646 22.7346 128.686 23.6939C128.111 24.4613 126.96 25.0369 125.425 25.0369C123.89 25.0369 122.835 24.3654 122.163 23.6939C121.204 22.7346 120.916 21.4876 120.916 19.569C120.916 17.6504 121.204 16.4034 122.163 15.4441ZM126.672 22.0631C126.384 22.3509 126 22.5428 125.425 22.5428C124.849 22.5428 124.465 22.3509 124.178 22.0631C123.602 21.4876 123.602 20.5283 123.602 19.4731C123.602 18.3219 123.698 17.4586 124.178 16.883C124.465 16.5952 124.849 16.4034 125.425 16.4034C126 16.4034 126.384 16.5952 126.672 16.883C127.247 17.4586 127.247 18.3219 127.247 19.4731C127.247 20.6242 127.247 21.5835 126.672 22.0631ZM140.773 20.8161L142.5 14.197H145.282L142.02 24.845H139.814L137.608 18.1301L135.401 24.845H133.195L129.933 14.197H132.715L134.442 20.8161L136.648 14.197H138.567L140.773 20.8161ZM117.933 21.5835V9.97616H115.247V21.7753C115.247 23.3102 116.206 24.845 118.316 24.845H119.851V22.6387H118.892C118.221 22.6387 117.933 22.255 117.933 21.5835ZM42.3509 14.6766L41.0079 16.0196L39.3771 16.1156V21.9672C39.3771 22.9265 39.8567 23.502 40.816 23.502H41.5835V24.7491H40.5282C38.8015 24.7491 37.9382 23.502 37.9382 21.9672V11.3192H39.473V14.6766H42.3509Z" fill="#222426"/>
<path id="Tray" d="M21 27V19H24V30H0V19H3V27H21Z" fill="#BCBBBB"/>
<path id="Bars" fill-rule="evenodd" clip-rule="evenodd" d="M17.1 0.199997L15 1.8L22.9 12.4L25 10.8L17.1 0.199997ZM20.8 14.9L10.6 6.4L12.3 4.4L22.5 12.9L20.8 14.9ZM7.2 12.3L19.2 17.9L20.3 15.5L8.3 9.9L7.2 12.3ZM5.4 19.1L19 21.1L19.2 18.7L5.9 16.1L5.4 19.1ZM19 25H5V22H19V25Z" fill="#F48024"/>
<path id="For teams" fill-rule="evenodd" clip-rule="evenodd" d="M29.0081 35.8594V28.0054H34.0021V29.5894H30.9661V31.1624H33.4851V32.7464H30.9661V35.8594H29.0081ZM35.0241 32.8344V31.0304C35.0241 29.8204 35.2001 29.1824 35.6841 28.6654C36.2231 28.1044 36.9051 27.8734 38.0711 27.8734C39.3141 27.8734 40.0511 28.1484 40.5791 28.8084C40.9641 29.2924 41.1181 29.9084 41.1181 31.0304V32.8344C41.1181 34.0444 40.9421 34.6824 40.4581 35.1994C39.9191 35.7604 39.2371 35.9914 38.0711 35.9914C36.8281 35.9914 36.0911 35.7164 35.5631 35.0564C35.1781 34.5724 35.0241 33.9564 35.0241 32.8344ZM39.1601 32.6804V31.1844C39.1601 29.8204 38.9291 29.4464 38.0711 29.4464C37.2131 29.4464 36.9821 29.8204 36.9821 31.1844V32.6804C36.9821 34.0444 37.2131 34.4184 38.0711 34.4184C38.9291 34.4184 39.1601 34.0444 39.1601 32.6804ZM44.0361 32.8234V35.8594H42.0781V28.0054H45.1581C46.2581 28.0054 46.8301 28.1594 47.2481 28.5774C47.6551 28.9844 47.8201 29.5124 47.8201 30.3814C47.8201 31.7344 47.4461 32.3724 46.4671 32.6694L48.1611 35.8594H45.9941L44.5641 32.8234H44.0361ZM44.0031 31.3384H44.9601C45.6531 31.3384 45.8841 31.1184 45.8841 30.4474C45.8841 29.7764 45.6531 29.5564 44.9601 29.5564H44.0031V31.3384ZM53.0531 35.8594V29.5894H51.0291V28.0054H57.0351V29.5894H55.0111V35.8594H53.0531ZM58.0305 35.8594V28.0054H63.1125V29.5894H59.9665V31.1074H62.6175V32.6914H59.9665V34.2754H63.1785V35.8594H58.0305ZM68.2441 34.4734H65.7361L65.3181 35.8594H63.2061L66.0331 28.0054H67.9361L70.7741 35.8594H68.6621L68.2441 34.4734ZM67.7821 32.9224L67.0011 30.2714L66.1981 32.9224H67.7821ZM71.2361 35.8594V28.0054H73.0511L74.9321 31.9104L76.8131 28.0054H78.6281V35.8594H76.7581V31.6244L75.5591 34.0994H74.3051L73.1061 31.6244V35.8594H71.2361ZM79.4091 34.5394L80.8941 33.5934C81.2461 34.1984 81.7081 34.4294 82.5441 34.4294C83.2371 34.4294 83.5671 34.1764 83.5671 33.6484C83.5671 33.2304 83.3471 33.0104 82.7751 32.8674C81.4001 32.5264 81.1141 32.4274 80.6961 32.1634C80.0691 31.7564 79.7831 31.1734 79.7831 30.2824C79.7831 28.7094 80.7401 27.8734 82.5331 27.8734C83.8861 27.8734 84.7441 28.3134 85.2831 29.2594L83.8421 30.1724C83.4571 29.6334 83.0941 29.4354 82.5001 29.4354C81.9501 29.4354 81.6531 29.6884 81.6531 30.1504C81.6531 30.6784 81.9501 30.8984 83.0061 31.1624C84.0071 31.4154 84.2491 31.5034 84.6451 31.7564C85.1841 32.1084 85.4371 32.6804 85.4371 33.5604C85.4371 34.4184 85.2281 34.9794 84.7771 35.3644C84.2821 35.7824 83.5011 36.0024 82.5221 36.0024C81.6201 36.0024 80.7841 35.8044 80.2341 35.4414C79.8711 35.2104 79.6511 34.9794 79.4091 34.5394Z" fill="#F48024"/>
</g>
</svg>
