<svg width="146" height="37" viewBox="0 0 146 37" fill="none" xmlns="http://www.w3.org/2000/svg">
<path d="M33.9092 18.8975L32.2784 18.7056C31.0313 18.6097 30.4558 18.1301 30.4558 17.1708C30.4558 16.1156 31.2232 15.4441 32.758 15.4441C33.8133 15.4441 34.7725 15.7319 35.444 16.2115L36.4033 15.2522C35.444 14.4848 34.197 14.197 32.758 14.197C30.5517 14.197 29.0168 15.3481 29.0168 17.1708C29.0168 18.8975 30.0721 19.7608 32.0865 19.9527L33.8133 20.1446C34.9644 20.2405 35.54 20.7201 35.54 21.6794C35.54 22.9265 34.4848 23.502 32.854 23.502C31.6069 23.502 30.4558 23.2143 29.6883 22.3509L28.7291 23.3102C29.8802 24.3654 31.2232 24.7491 32.9499 24.7491C35.444 24.7491 37.0748 23.598 37.0748 21.6794C36.883 19.7608 35.6359 19.0893 33.9092 18.8975ZM46.6676 14.2929C45.0369 14.2929 43.9817 14.5807 43.1183 15.7319L44.0776 16.6911C44.6532 15.8278 45.3246 15.54 46.6676 15.54C48.4903 15.54 49.2577 16.3074 49.2577 17.7463V18.7056H46.188C43.8857 18.7056 42.6387 19.8568 42.6387 21.6794C42.6387 22.4468 42.9264 23.2143 43.4061 23.7898C44.0776 24.4613 44.845 24.7491 46.2839 24.7491C47.6269 24.7491 48.3944 24.4613 49.2577 23.6939V24.6532H50.7926V17.7463C50.6966 15.4441 49.3536 14.2929 46.6676 14.2929ZM49.2577 21.0079C49.2577 21.8713 49.0659 22.4468 48.7781 22.7346C48.1066 23.3102 47.3391 23.4061 46.4758 23.4061C44.845 23.4061 44.1735 22.8305 44.1735 21.6794C44.1735 20.5283 44.9409 19.8568 46.4758 19.8568H49.3536L49.2577 21.0079ZM56.5483 15.6359C57.5075 15.6359 58.0831 15.9237 58.8505 16.7871L59.8098 15.8278C58.7546 14.6766 57.8913 14.2929 56.4523 14.2929C53.8623 14.2929 51.9437 16.0196 51.9437 19.569C51.9437 23.0224 53.8623 24.845 56.4523 24.845C57.8913 24.845 58.7546 24.4613 59.8098 23.3102L58.7546 22.3509C57.9872 23.2143 57.4116 23.502 56.4523 23.502C55.493 23.502 54.6297 23.1183 54.0541 22.3509C53.5745 21.6794 53.3826 20.912 53.3826 19.569C53.3826 18.3219 53.5745 17.4586 54.0541 16.7871C54.7256 16.0196 55.589 15.6359 56.5483 15.6359ZM69.4026 14.3889H67.58L62.9755 18.8975V9.7843H61.4406V24.5573H62.9755V20.8161L64.7981 18.9934L68.2515 24.5573H70.0742L65.8533 17.9382L69.4026 14.3889ZM76.4054 14.1011C74.8706 14.1011 73.8153 14.6766 73.1439 15.4441C72.1846 16.4034 71.8968 17.6504 71.8968 19.569C71.8968 21.4876 72.1846 22.7346 73.1439 23.6939C73.8153 24.3654 74.8706 25.0369 76.4054 25.0369C77.9403 25.0369 79.0914 24.4613 79.667 23.6939C80.6263 22.7346 80.914 21.4876 80.914 19.569C80.914 17.6504 80.6263 16.4034 79.667 15.4441C79.0914 14.6766 78.0362 14.1011 76.4054 14.1011ZM77.6525 22.0631C77.3647 22.3509 76.981 22.5428 76.4054 22.5428C75.8298 22.5428 75.4461 22.3509 75.1583 22.0631C74.5828 21.4876 74.5828 20.5283 74.5828 19.4731C74.5828 18.3219 74.6787 17.4586 75.1583 16.883C75.4461 16.5952 75.8298 16.4034 76.4054 16.4034C76.981 16.4034 77.3647 16.5952 77.6525 16.883C78.2281 17.4586 78.2281 18.3219 78.2281 19.4731C78.324 20.6242 78.2281 21.5835 77.6525 22.0631ZM88.0127 14.197L85.9023 20.8161L83.696 14.197H80.914L84.8471 24.845H86.9575L90.8906 14.197H88.0127ZM95.3033 14.1011C92.5214 14.1011 90.6987 16.0196 90.6987 19.569C90.6987 23.8858 93.0969 25.0369 95.5911 25.0369C97.5096 25.0369 98.5648 24.4613 99.6201 23.4061L97.9893 21.8713C97.3178 22.5428 96.7422 22.8305 95.5911 22.8305C94.0562 22.8305 93.2888 21.8713 93.2888 20.4323H99.9078V19.2812C99.9078 16.2115 98.2771 14.1011 95.3033 14.1011ZM93.2888 18.5138C93.2888 18.0341 93.3847 17.7463 93.5766 17.3626C93.8644 16.6911 94.4399 16.2115 95.3992 16.2115C96.2626 16.2115 96.9341 16.6911 97.2219 17.3626C97.4137 17.7463 97.4137 18.0341 97.5096 18.5138H93.2888ZM103.841 15.2522V14.197H101.251V24.845H103.937V18.4178C103.937 17.0749 104.8 16.4993 105.664 16.4993C106.335 16.4993 106.623 16.6911 107.102 17.1708L109.117 15.1563C108.35 14.3889 107.678 14.197 106.623 14.197C105.376 14.1011 104.416 14.5807 103.841 15.2522ZM109.23 13.0459V24.845H111.916V16.4034H113.835V14.3889H111.916V13.2377C111.916 12.6621 112.204 12.2784 112.876 12.2784H113.931V10.0721H112.396C110.19 10.0721 109.23 11.6069 109.23 13.0459ZM125.425 14.1011C123.89 14.1011 122.835 14.6766 122.163 15.4441C121.204 16.4034 120.916 17.6504 120.916 19.569C120.916 21.4876 121.204 22.7346 122.163 23.6939C122.835 24.3654 123.89 25.0369 125.425 25.0369C126.96 25.0369 128.111 24.4613 128.686 23.6939C129.646 22.7346 129.933 21.4876 129.933 19.569C129.933 17.6504 129.646 16.4034 128.686 15.4441C128.111 14.6766 126.96 14.1011 125.425 14.1011ZM126.672 22.0631C126.384 22.3509 126 22.5428 125.425 22.5428C124.849 22.5428 124.465 22.3509 124.178 22.0631C123.602 21.4876 123.602 20.5283 123.602 19.4731C123.602 18.3219 123.698 17.4586 124.178 16.883C124.465 16.5952 124.849 16.4034 125.425 16.4034C126 16.4034 126.384 16.5952 126.672 16.883C127.247 17.4586 127.247 18.3219 127.247 19.4731C127.247 20.6242 127.247 21.5835 126.672 22.0631ZM142.5 14.197L140.773 20.8161L138.567 14.197H136.648L134.442 20.8161L132.715 14.197H129.933L133.195 24.845H135.401L137.608 18.1301L139.814 24.845H142.02L145.282 14.197H142.5ZM117.933 21.5835V9.97616H115.247V21.7753C115.247 23.3102 116.206 24.845 118.316 24.845H119.851V22.6387H118.892C118.221 22.6387 117.933 22.255 117.933 21.5835ZM41.0079 16.0196L42.3509 14.6766H39.473V11.3192H37.9382V21.9672C37.9382 23.502 38.8015 24.7491 40.5282 24.7491H41.5834V23.502H40.816C39.8567 23.502 39.3771 22.9265 39.3771 21.9672V16.1156L41.0079 16.0196Z" fill="#222426"/>
<path d="M21 27V19H24V30H0V19H3V27H21Z" fill="#BCBBBB"/>
<path d="M5.4 19.1L19 21.1L19.2 18.7L5.9 16.1L5.4 19.1ZM7.2 12.3L19.2 17.9L20.3 15.5L8.3 9.90001L7.2 12.3ZM10.6 6.40001L20.8 14.9L22.5 12.9L12.3 4.40001L10.6 6.40001ZM17.1 0.200012L15 1.80001L22.9 12.4L25 10.8L17.1 0.200012ZM5 25H19V22H5V25Z" fill="#F48024"/>
<path fill-rule="evenodd" clip-rule="evenodd" d="M29.0806 35.8657V28.0117H34.0746V29.5958H31.0386V31.1688H33.5576V32.7528H31.0386V35.8657H29.0806ZM34.9106 32.8881V31.1112C34.9106 29.9193 35.084 29.2909 35.5607 28.7816C36.0916 28.2291 36.7634 28.0015 37.9119 28.0015C39.1362 28.0015 39.8622 28.2724 40.3823 28.9225C40.7615 29.3992 40.9132 30.006 40.9132 31.1112V32.8881C40.9132 34.08 40.7398 34.7084 40.2631 35.2176C39.7322 35.7702 39.0604 35.9977 37.9119 35.9977C36.6875 35.9977 35.9616 35.7269 35.4415 35.0768C35.0623 34.6 34.9106 33.9933 34.9106 32.8881ZM38.9845 32.7364V31.2629C38.9845 29.9193 38.757 29.5509 37.9119 29.5509C37.0668 29.5509 36.8392 29.9193 36.8392 31.2629V32.7364C36.8392 34.08 37.0668 34.4483 37.9119 34.4483C38.757 34.4483 38.9845 34.08 38.9845 32.7364ZM43.9846 32.8298V35.8657H42.0266V28.0117H45.1066C46.2066 28.0117 46.7786 28.1657 47.1966 28.5837C47.6036 28.9907 47.7686 29.5188 47.7686 30.3878C47.7686 31.7408 47.3946 32.3788 46.4156 32.6758L48.1096 35.8657H45.9426L44.5126 32.8298H43.9846ZM43.9516 31.3447H44.9086C45.6016 31.3447 45.8326 31.1248 45.8326 30.4538C45.8326 29.7828 45.6016 29.5627 44.9086 29.5627H43.9516V31.3447ZM51.9839 35.8657V28.0117H57.0659V29.5958H53.9199V31.1138H56.5709V32.6978H53.9199V34.2817H57.1319V35.8657H51.9839ZM58.0312 35.8657V28.0117H59.9342L62.3432 32.5988V28.0117H64.2352V35.8657H62.3322L59.9232 31.2787V35.8657H58.0312ZM67.1406 35.8657V29.5958H65.1166V28.0117H71.1226V29.5958H69.0986V35.8657H67.1406ZM71.9806 35.8657V28.0117H77.0626V29.5958H73.9166V31.1138H76.5676V32.6978H73.9166V34.2817H77.1286V35.8657H71.9806ZM79.9844 32.8298V35.8657H78.0264V28.0117H81.1064C82.2064 28.0117 82.7784 28.1657 83.1964 28.5837C83.6034 28.9907 83.7684 29.5188 83.7684 30.3878C83.7684 31.7408 83.3944 32.3788 82.4154 32.6758L84.1094 35.8657H81.9424L80.5124 32.8298H79.9844ZM79.9514 31.3447H80.9084C81.6014 31.3447 81.8324 31.1248 81.8324 30.4538C81.8324 29.7828 81.6014 29.5627 80.9084 29.5627H79.9514V31.3447ZM86.9397 33.2368V35.8657H84.9817V28.0117H87.7207C88.9197 28.0117 89.5357 28.1877 89.9867 28.6497C90.4267 29.1007 90.5917 29.6508 90.5917 30.6518C90.5917 31.6418 90.3717 32.2688 89.8767 32.6978C89.4257 33.0938 88.8317 33.2368 87.7207 33.2368H86.9397ZM86.9067 31.6747H87.7317C88.4247 31.6747 88.6557 31.4107 88.6557 30.6187C88.6557 29.8267 88.4247 29.5627 87.7317 29.5627H86.9067V31.6747ZM93.0136 32.8298V35.8657H91.0556V28.0117H94.1356C95.2356 28.0117 95.8076 28.1657 96.2256 28.5837C96.6326 28.9907 96.7976 29.5188 96.7976 30.3878C96.7976 31.7408 96.4236 32.3788 95.4446 32.6758L97.1386 35.8657H94.9716L93.5416 32.8298H93.0136ZM92.9806 31.3447H93.9376C94.6306 31.3447 94.8616 31.1248 94.8616 30.4538C94.8616 29.7828 94.6306 29.5627 93.9376 29.5627H92.9806V31.3447ZM98.0846 35.8657V28.0117H100.043V35.8657H98.0846ZM100.824 34.5674L102.287 33.6354C102.633 34.2314 103.089 34.459 103.912 34.459C104.595 34.459 104.92 34.2098 104.92 33.6896C104.92 33.2778 104.703 33.061 104.14 32.9201C102.785 32.5842 102.503 32.4866 102.092 32.2265C101.474 31.8256 101.192 31.2512 101.192 30.3734C101.192 28.8236 102.135 28 103.901 28C105.234 28 106.08 28.4335 106.611 29.3655L105.191 30.265C104.812 29.734 104.454 29.5389 103.869 29.5389C103.327 29.5389 103.034 29.7882 103.034 30.2433C103.034 30.7635 103.327 30.9803 104.367 31.2403C105.354 31.4896 105.592 31.5763 105.982 31.8256C106.513 32.1724 106.762 32.7359 106.762 33.6029C106.762 34.4482 106.557 35.0009 106.112 35.3802C105.625 35.792 104.855 36.0088 103.891 36.0088C103.002 36.0088 102.178 35.8137 101.636 35.456C101.279 35.2285 101.062 35.0009 100.824 34.5674ZM108.016 35.8657V28.0117H113.098V29.5958H109.952V31.1138H112.603V32.6978H109.952V34.2817H113.164V35.8657H108.016Z" fill="#F48024"/>
</svg>
