<svg width="146" height="37" viewBox="0 0 146 37" fill="none" xmlns="http://www.w3.org/2000/svg">
<path d="M33.9092 18.8975L32.2784 18.7056C31.0313 18.6097 30.4558 18.1301 30.4558 17.1708C30.4558 16.1156 31.2232 15.4441 32.758 15.4441C33.8133 15.4441 34.7725 15.7319 35.444 16.2115L36.4033 15.2522C35.444 14.4848 34.197 14.197 32.758 14.197C30.5517 14.197 29.0168 15.3481 29.0168 17.1708C29.0168 18.8975 30.0721 19.7608 32.0865 19.9527L33.8133 20.1446C34.9644 20.2405 35.54 20.7201 35.54 21.6794C35.54 22.9265 34.4848 23.502 32.854 23.502C31.6069 23.502 30.4558 23.2143 29.6883 22.3509L28.7291 23.3102C29.8802 24.3654 31.2232 24.7491 32.9499 24.7491C35.444 24.7491 37.0748 23.598 37.0748 21.6794C36.883 19.7608 35.6359 19.0893 33.9092 18.8975ZM46.6676 14.2929C45.0369 14.2929 43.9817 14.5807 43.1183 15.7319L44.0776 16.6911C44.6532 15.8278 45.3246 15.54 46.6676 15.54C48.4903 15.54 49.2577 16.3074 49.2577 17.7463V18.7056H46.188C43.8857 18.7056 42.6387 19.8568 42.6387 21.6794C42.6387 22.4468 42.9264 23.2143 43.4061 23.7898C44.0776 24.4613 44.845 24.7491 46.2839 24.7491C47.6269 24.7491 48.3944 24.4613 49.2577 23.6939V24.6532H50.7926V17.7463C50.6966 15.4441 49.3536 14.2929 46.6676 14.2929ZM49.2577 21.0079C49.2577 21.8713 49.0659 22.4468 48.7781 22.7346C48.1066 23.3102 47.3391 23.4061 46.4758 23.4061C44.845 23.4061 44.1735 22.8305 44.1735 21.6794C44.1735 20.5283 44.9409 19.8568 46.4758 19.8568H49.3536L49.2577 21.0079ZM56.5483 15.6359C57.5075 15.6359 58.0831 15.9237 58.8505 16.7871L59.8098 15.8278C58.7546 14.6766 57.8913 14.2929 56.4523 14.2929C53.8623 14.2929 51.9437 16.0196 51.9437 19.569C51.9437 23.0224 53.8623 24.845 56.4523 24.845C57.8913 24.845 58.7546 24.4613 59.8098 23.3102L58.7546 22.3509C57.9872 23.2143 57.4116 23.502 56.4523 23.502C55.493 23.502 54.6297 23.1183 54.0541 22.3509C53.5745 21.6794 53.3826 20.912 53.3826 19.569C53.3826 18.3219 53.5745 17.4586 54.0541 16.7871C54.7256 16.0196 55.589 15.6359 56.5483 15.6359ZM69.4026 14.3889H67.58L62.9755 18.8975V9.7843H61.4406V24.5573H62.9755V20.8161L64.7981 18.9934L68.2515 24.5573H70.0742L65.8533 17.9382L69.4026 14.3889ZM76.4054 14.1011C74.8706 14.1011 73.8153 14.6766 73.1439 15.4441C72.1846 16.4034 71.8968 17.6504 71.8968 19.569C71.8968 21.4876 72.1846 22.7346 73.1439 23.6939C73.8153 24.3654 74.8706 25.0369 76.4054 25.0369C77.9403 25.0369 79.0914 24.4613 79.667 23.6939C80.6263 22.7346 80.914 21.4876 80.914 19.569C80.914 17.6504 80.6263 16.4034 79.667 15.4441C79.0914 14.6766 78.0362 14.1011 76.4054 14.1011ZM77.6525 22.0631C77.3647 22.3509 76.981 22.5428 76.4054 22.5428C75.8298 22.5428 75.4461 22.3509 75.1583 22.0631C74.5828 21.4876 74.5828 20.5283 74.5828 19.4731C74.5828 18.3219 74.6787 17.4586 75.1583 16.883C75.4461 16.5952 75.8298 16.4034 76.4054 16.4034C76.981 16.4034 77.3647 16.5952 77.6525 16.883C78.2281 17.4586 78.2281 18.3219 78.2281 19.4731C78.324 20.6242 78.2281 21.5835 77.6525 22.0631ZM88.0127 14.197L85.9023 20.8161L83.696 14.197H80.914L84.8471 24.845H86.9575L90.8906 14.197H88.0127ZM95.3033 14.1011C92.5214 14.1011 90.6987 16.0196 90.6987 19.569C90.6987 23.8858 93.0969 25.0369 95.5911 25.0369C97.5096 25.0369 98.5648 24.4613 99.6201 23.4061L97.9893 21.8713C97.3178 22.5428 96.7422 22.8305 95.5911 22.8305C94.0562 22.8305 93.2888 21.8713 93.2888 20.4323H99.9078V19.2812C99.9078 16.2115 98.2771 14.1011 95.3033 14.1011ZM93.2888 18.5138C93.2888 18.0341 93.3847 17.7463 93.5766 17.3626C93.8644 16.6911 94.4399 16.2115 95.3992 16.2115C96.2626 16.2115 96.9341 16.6911 97.2219 17.3626C97.4137 17.7463 97.4137 18.0341 97.5096 18.5138H93.2888ZM103.841 15.2522V14.197H101.251V24.845H103.937V18.4178C103.937 17.0749 104.8 16.4993 105.664 16.4993C106.335 16.4993 106.623 16.6911 107.102 17.1708L109.117 15.1563C108.35 14.3889 107.678 14.197 106.623 14.197C105.376 14.1011 104.416 14.5807 103.841 15.2522ZM109.23 13.0459V24.845H111.916V16.4034H113.835V14.3889H111.916V13.2377C111.916 12.6621 112.204 12.2784 112.876 12.2784H113.931V10.0721H112.396C110.19 10.0721 109.23 11.6069 109.23 13.0459ZM125.425 14.1011C123.89 14.1011 122.835 14.6766 122.163 15.4441C121.204 16.4034 120.916 17.6504 120.916 19.569C120.916 21.4876 121.204 22.7346 122.163 23.6939C122.835 24.3654 123.89 25.0369 125.425 25.0369C126.96 25.0369 128.111 24.4613 128.686 23.6939C129.646 22.7346 129.933 21.4876 129.933 19.569C129.933 17.6504 129.646 16.4034 128.686 15.4441C128.111 14.6766 126.96 14.1011 125.425 14.1011ZM126.672 22.0631C126.384 22.3509 126 22.5428 125.425 22.5428C124.849 22.5428 124.465 22.3509 124.178 22.0631C123.602 21.4876 123.602 20.5283 123.602 19.4731C123.602 18.3219 123.698 17.4586 124.178 16.883C124.465 16.5952 124.849 16.4034 125.425 16.4034C126 16.4034 126.384 16.5952 126.672 16.883C127.247 17.4586 127.247 18.3219 127.247 19.4731C127.247 20.6242 127.247 21.5835 126.672 22.0631ZM142.5 14.197L140.773 20.8161L138.567 14.197H136.648L134.442 20.8161L132.715 14.197H129.933L133.195 24.845H135.401L137.608 18.1301L139.814 24.845H142.02L145.282 14.197H142.5ZM117.933 21.5835V9.97616H115.247V21.7753C115.247 23.3102 116.206 24.845 118.316 24.845H119.851V22.6387H118.892C118.221 22.6387 117.933 22.255 117.933 21.5835ZM41.0079 16.0196L42.3509 14.6766H39.473V11.3192H37.9382V21.9672C37.9382 23.502 38.8015 24.7491 40.5282 24.7491H41.5834V23.502H40.816C39.8567 23.502 39.3771 22.9265 39.3771 21.9672V16.1156L41.0079 16.0196Z" fill="#222426"/>
<path d="M21 27V19H24V30H0V19H3V27H21Z" fill="#BCBBBB"/>
<path d="M5.4 19.1L19 21.1L19.2 18.7L5.9 16.1L5.4 19.1ZM7.2 12.3L19.2 17.9L20.3 15.5L8.3 9.90001L7.2 12.3ZM10.6 6.40001L20.8 14.9L22.5 12.9L12.3 4.40001L10.6 6.40001ZM17.1 0.200012L15 1.80001L22.9 12.4L25 10.8L17.1 0.200012ZM5 25H19V22H5V25Z" fill="#F48024"/>
<path fill-rule="evenodd" clip-rule="evenodd" d="M28.9839 35.8657V28.0117H34.0659V29.5958H30.9199V31.1138H33.5709V32.6978H30.9199V34.2817H34.1319V35.8657H28.9839ZM35.0312 35.8657V28.0117H36.9342L39.3432 32.5988V28.0117H41.2352V35.8657H39.3322L36.9232 31.2787V35.8657H35.0312ZM44.1406 35.8657V29.5958H42.1166V28.0117H48.1226V29.5958H46.0986V35.8657H44.1406ZM48.9806 35.8657V28.0117H54.0626V29.5958H50.9166V31.1138H53.5676V32.6978H50.9166V34.2817H54.1286V35.8657H48.9806ZM56.9844 32.8298V35.8657H55.0264V28.0117H58.1064C59.2064 28.0117 59.7784 28.1657 60.1964 28.5837C60.6034 28.9907 60.7684 29.5188 60.7684 30.3878C60.7684 31.7408 60.3944 32.3788 59.4154 32.6758L61.1094 35.8657H58.9424L57.5124 32.8298H56.9844ZM56.9514 31.3447H57.9084C58.6014 31.3447 58.8324 31.1248 58.8324 30.4538C58.8324 29.7828 58.6014 29.5627 57.9084 29.5627H56.9514V31.3447ZM63.9397 33.2368V35.8657H61.9817V28.0117H64.7207C65.9197 28.0117 66.5357 28.1877 66.9867 28.6497C67.4267 29.1007 67.5917 29.6508 67.5917 30.6518C67.5917 31.6418 67.3717 32.2688 66.8767 32.6978C66.4257 33.0938 65.8317 33.2368 64.7207 33.2368H63.9397ZM63.9067 31.6747H64.7317C65.4247 31.6747 65.6557 31.4107 65.6557 30.6187C65.6557 29.8267 65.4247 29.5627 64.7317 29.5627H63.9067V31.6747ZM70.0136 32.8298V35.8657H68.0556V28.0117H71.1356C72.2356 28.0117 72.8076 28.1657 73.2256 28.5837C73.6326 28.9907 73.7976 29.5188 73.7976 30.3878C73.7976 31.7408 73.4236 32.3788 72.4446 32.6758L74.1386 35.8657H71.9716L70.5416 32.8298H70.0136ZM69.9806 31.3447H70.9376C71.6306 31.3447 71.8616 31.1248 71.8616 30.4538C71.8616 29.7828 71.6306 29.5627 70.9376 29.5627H69.9806V31.3447ZM75.0846 35.8657V28.0117H77.0426V35.8657H75.0846ZM77.8236 34.5674L79.2866 33.6354C79.6334 34.2314 80.0886 34.459 80.9122 34.459C81.595 34.459 81.9201 34.2098 81.9201 33.6896C81.9201 33.2778 81.7033 33.061 81.1398 32.9201C79.7851 32.5842 79.5034 32.4866 79.0916 32.2265C78.4738 31.8256 78.1921 31.2512 78.1921 30.3734C78.1921 28.8236 79.1349 28 80.9014 28C82.2344 28 83.0797 28.4335 83.6107 29.3655L82.191 30.265C81.8117 29.734 81.4541 29.5389 80.8689 29.5389C80.327 29.5389 80.0344 29.7882 80.0344 30.2433C80.0344 30.7635 80.327 30.9803 81.3674 31.2403C82.3536 31.4896 82.592 31.5763 82.9821 31.8256C83.5132 32.1724 83.7624 32.7359 83.7624 33.6029C83.7624 34.4482 83.5565 35.0009 83.1122 35.3802C82.6245 35.792 81.8551 36.0088 80.8905 36.0088C80.0019 36.0088 79.1782 35.8137 78.6364 35.456C78.2788 35.2285 78.062 35.0009 77.8236 34.5674ZM85.0163 35.8657V28.0117H90.0983V29.5958H86.9523V31.1138H89.6033V32.6978H86.9523V34.2817H90.1643V35.8657H85.0163Z" fill="#F48024"/>
</svg>
