<svg width="154" height="30" viewBox="0 0 154 30" fill="none" xmlns="http://www.w3.org/2000/svg">
<path d="M21 27V19H24V30H0V19H3V27H21Z" fill="#BCBBBB"/>
<path d="M5.4021 19.1011L18.9631 21.061L19.127 18.6804L5.87134 16.134L5.4021 19.1011ZM7.2 12.3L19.2 17.9L20.3 15.5L8.3 9.90001L7.2 12.3ZM10.6 6.40001L20.8 14.9L22.5 12.9L12.3 4.40001L10.6 6.40001ZM17.1 0.200012L15 1.80001L22.9 12.4L25 10.8L17.1 0.200012ZM5 25H19V22H5V25Z" fill="#F48024"/>
<rect x="38" y="11" width="1" height="13" fill="#D6D9DC"/>
<path d="M59.5839 19.4749H57.8306C57.6479 19.4749 57.5018 19.59 57.4653 19.7817C57.3922 20.1268 57.2461 20.472 57.0635 20.7404C56.8809 21.0089 56.6617 21.2006 56.406 21.354C56.1503 21.5074 55.8216 21.5841 55.4928 21.5841C55.2006 21.5841 54.9449 21.5457 54.6892 21.4307C54.4335 21.3156 54.2144 21.1622 54.0683 21.0089C53.9664 20.9019 53.9 20.7763 53.8444 20.6711C53.8203 20.6254 53.7982 20.5835 53.7761 20.5487C53.7226 20.4364 53.6887 20.3035 53.6457 20.1351C53.63 20.0735 53.613 20.007 53.5934 19.9351C53.5569 19.6667 53.5204 19.3215 53.4838 18.9764C53.4838 18.8311 53.4774 18.6587 53.4699 18.459C53.4596 18.1844 53.4473 17.8582 53.4473 17.4808C53.4473 16.8289 53.4473 16.3304 53.4838 15.9853C53.4838 15.6401 53.5204 15.3333 53.5934 15.0265C53.63 14.7581 53.703 14.5664 53.7761 14.413C53.8491 14.2596 53.9222 14.1062 54.0683 13.9528C54.2509 13.7611 54.4335 13.6077 54.6892 13.531C54.9449 13.4159 55.2006 13.3776 55.4928 13.3776C56.0042 13.3776 56.4425 13.531 56.7713 13.8378C57.1 14.1445 57.3192 14.5664 57.4653 15.1416C57.5018 15.3333 57.6479 15.4484 57.8306 15.4484H59.6204C59.73 15.4484 59.8396 15.41 59.9126 15.295C59.9857 15.2183 60.0222 15.1032 59.9857 14.9882C59.7665 13.7227 59.2551 12.7257 58.4881 12.0354C57.6845 11.3451 56.6982 11 55.5659 11C54.9449 11 54.324 11.115 53.7761 11.3451C53.1551 11.5369 52.6437 11.882 52.2054 12.3422C51.9132 12.6873 51.694 13.0324 51.5114 13.3776C51.3653 13.6844 51.2192 14.0678 51.1461 14.4513C51.0731 14.8348 51.0365 15.2566 51 15.6785V17.4425C51 18.4012 51.0365 19.1298 51.0731 19.6667C51.1096 20.2035 51.2192 20.7021 51.4018 21.2006C51.5844 21.6991 51.8767 22.1209 52.2419 22.5811C52.4976 22.8496 52.8264 23.118 53.1916 23.3481C53.5569 23.5782 53.9222 23.7316 54.2874 23.8466C54.6527 23.9617 55.091 24 55.4928 24C56.0407 24 56.5886 23.9233 57.0635 23.7316C57.5749 23.5398 58.0132 23.3097 58.415 22.9646C58.8168 22.6195 59.1455 22.1976 59.4012 21.6991C59.6569 21.2006 59.8396 20.6254 59.9491 19.9734C59.9491 19.8584 59.9491 19.7434 59.8761 19.6667C59.7665 19.5133 59.6569 19.4749 59.5839 19.4749Z" fill="#222426"/>
<path fill-rule="evenodd" clip-rule="evenodd" d="M70.1694 13.7611C69.9857 13.2625 69.7286 12.8024 69.3245 12.3805C68.4061 11.4602 67.3041 11 66.0184 11C64.7327 11 63.6306 11.4602 62.749 12.3805C62.4551 12.6873 62.198 13.0324 62.051 13.3776C61.9041 13.7227 61.7571 14.1062 61.6837 14.4897C61.6102 14.8732 61.5735 15.295 61.5367 15.7168C61.5 16.1386 61.5 16.7522 61.5 17.4808C61.5 18.4395 61.5367 19.1681 61.5735 19.705C61.6102 20.2419 61.7204 20.7404 61.9041 21.2389C62.0878 21.7375 62.3816 22.1593 62.749 22.6195C63.6306 23.5398 64.7327 24 66.0184 24C67.3041 24 68.4061 23.5398 69.3245 22.5811C69.6918 22.1593 69.9857 21.6991 70.1694 21.2006C70.3531 20.7404 70.4265 20.2035 70.4633 19.6667C70.5 19.1681 70.5 18.4012 70.5 17.4425C70.5 16.4838 70.5 15.7552 70.4633 15.2183C70.4265 14.7198 70.3163 14.2212 70.1694 13.7611ZM68.0388 17.4808C68.0388 18.2478 68.0388 18.8614 68.002 19.3215C67.9653 19.7434 67.9286 20.0885 67.8184 20.3186C67.7449 20.5487 67.6347 20.7404 67.451 20.9322C67.0837 21.354 66.6061 21.5457 66.0184 21.5457C65.7245 21.5457 65.4673 21.5074 65.2102 21.3923C64.9531 21.2773 64.7327 21.1239 64.5857 20.9705C64.4388 20.8171 64.3286 20.6637 64.2918 20.5103C64.2551 20.4336 64.1816 20.2419 64.1449 19.9351C64.1082 19.6667 64.0714 19.3599 64.0347 18.9764C64.0347 18.8072 64.0275 18.6157 64.0196 18.4018C64.0094 18.1308 63.998 17.8235 63.998 17.4808C63.998 16.3304 64.0347 15.4867 64.1082 15.0265C64.1816 14.6047 64.3286 14.2596 64.549 13.9911C64.6959 13.7994 64.9163 13.646 65.1735 13.531C65.4306 13.4159 65.7245 13.3776 65.9816 13.3776C66.2755 13.3776 66.5327 13.4543 66.7898 13.531C67.0469 13.646 67.2673 13.7994 67.4143 13.9911C67.6347 14.2596 67.7816 14.5664 67.8551 14.9882C68.002 15.4867 68.0388 16.3304 68.0388 17.4808Z" fill="#222426"/>
<path d="M74.484 21.5405H79.6347C79.8539 21.5405 80 21.7357 80 21.9309V23.6096C80 23.8438 79.8539 24 79.6347 24H72.3653C72.1461 24 72 23.8438 72 23.6096V11.3904C72 11.1562 72.1461 11 72.3653 11H74.1187C74.3379 11 74.484 11.1562 74.484 11.3904V21.5405Z" fill="#222426"/>
<path d="M88.6347 21.5405H83.484V11.3904C83.484 11.1562 83.3379 11 83.1187 11H81.3653C81.1461 11 81 11.1562 81 11.3904V23.6096C81 23.8438 81.1461 24 81.3653 24H88.6347C88.8539 24 89 23.8438 89 23.6096V21.9309C89 21.7357 88.8174 21.5405 88.6347 21.5405Z" fill="#222426"/>
<path d="M91.3636 11H98.6364C98.8182 11 99 11.1562 99 11.3904V13.03C99 13.2643 98.8545 13.4204 98.6364 13.4204H93.4364V16.2312H97.8C98.0182 16.2312 98.1636 16.3874 98.1636 16.6216V18.2613C98.1636 18.4955 98.0182 18.6517 97.8 18.6517H93.4364V21.5405H98.6364C98.8545 21.5405 99 21.6967 99 21.9309V23.6096C99 23.8438 98.8545 24 98.6364 24H91.3636C91.1455 24 91 23.8438 91 23.6096V11.3904C91 11.1562 91.1455 11 91.3636 11Z" fill="#222426"/>
<path d="M108.582 19.4118H106.822C106.638 19.4118 106.492 19.5265 106.455 19.7176C106.382 20.0618 106.235 20.4059 106.052 20.6735C105.868 20.9412 105.648 21.1324 105.391 21.2853C105.135 21.4382 104.805 21.5147 104.474 21.5147C104.181 21.5147 103.924 21.4765 103.668 21.3618C103.411 21.2471 103.191 21.0941 103.044 20.9412C102.942 20.8345 102.875 20.7093 102.819 20.6044C102.795 20.5588 102.773 20.5171 102.751 20.4824C102.697 20.3704 102.663 20.238 102.62 20.07C102.604 20.0086 102.587 19.9423 102.567 19.8706C102.531 19.6029 102.494 19.2588 102.457 18.9147C102.457 18.7699 102.451 18.5979 102.443 18.3989C102.433 18.1251 102.421 17.7998 102.421 17.4235C102.421 16.7735 102.421 16.2765 102.457 15.9324C102.457 15.5882 102.494 15.2824 102.567 14.9765C102.604 14.7088 102.677 14.5176 102.751 14.3647C102.824 14.2118 102.934 14.0588 103.044 13.9441C103.227 13.7529 103.411 13.6 103.668 13.5235C103.924 13.4088 104.181 13.3706 104.474 13.3706C104.988 13.3706 105.428 13.5235 105.758 13.8294C106.088 14.1353 106.308 14.5559 106.455 15.1294C106.492 15.3206 106.638 15.4353 106.822 15.4353H108.619C108.729 15.4353 108.839 15.3971 108.912 15.2824C108.986 15.2059 109.022 15.0912 108.986 14.9765C108.766 13.7147 108.252 12.7206 107.482 12.0324C106.675 11.3441 105.685 11 104.548 11C103.924 11 103.301 11.1147 102.751 11.3441C102.201 11.5735 101.687 11.9176 101.247 12.3765C100.954 12.6824 100.697 13.0265 100.55 13.3706C100.403 13.7147 100.257 14.0971 100.183 14.4794C100.11 14.8617 100.073 15.2822 100.037 15.7027C100 16.1233 100 16.7353 100 17.4618C100 18.4176 100.037 19.1441 100.073 19.6794C100.11 20.2147 100.22 20.7118 100.403 21.2088C100.587 21.7059 100.88 22.1265 101.247 22.5853C101.504 22.8529 101.834 23.1206 102.201 23.35C102.567 23.5794 102.934 23.7324 103.301 23.8471C103.668 23.9618 104.108 24 104.511 24C105.061 24 105.611 23.9235 106.088 23.7324C106.602 23.5412 107.042 23.3118 107.445 22.9676C107.849 22.6235 108.179 22.2029 108.435 21.7059C108.692 21.2088 108.876 20.6353 108.986 19.9853C108.986 19.8706 108.986 19.7559 108.912 19.6794C108.802 19.45 108.692 19.4118 108.582 19.4118Z" fill="#222426"/>
<path d="M110.376 11H118.656C118.845 11 119.033 11.1562 118.995 11.3904V13.0691C118.995 13.3033 118.845 13.4595 118.619 13.4595H115.758V23.6096C115.758 23.8438 115.608 24 115.382 24H113.613C113.387 24 113.237 23.8438 113.237 23.6096V13.4595H110.376C110.151 13.4595 110 13.3033 110 13.0691V11.3904C110 11.1562 110.151 11 110.376 11Z" fill="#222426"/>
<path d="M122.632 11H120.868C120.647 11 120.5 11.1562 120.5 11.3904V23.6096C120.5 23.8438 120.647 24 120.868 24H122.632C122.853 24 123 23.8438 123 23.6096V11.3904C123 11.1562 122.853 11 122.632 11Z" fill="#222426"/>
<path d="M132.212 11H134.106C134.219 11 134.333 11.039 134.446 11.1562C134.484 11.2733 134.522 11.3904 134.484 11.5075L130.546 23.7267C130.508 23.8829 130.357 24 130.205 24H128.804C128.615 24 128.463 23.8829 128.425 23.7267L124.525 11.5075C124.487 11.3904 124.487 11.2342 124.563 11.1562C124.638 11.0781 124.752 11 124.866 11H126.721C126.911 11 127.062 11.1171 127.1 11.2733L129.448 19.003L131.834 11.2733C131.909 11.1171 132.061 11 132.212 11Z" fill="#222426"/>
<path d="M143.136 11H135.864C135.645 11 135.5 11.1562 135.5 11.3904V23.6096C135.5 23.8438 135.645 24 135.864 24H143.136C143.355 24 143.5 23.8438 143.5 23.6096V21.9309C143.5 21.6967 143.355 21.5405 143.136 21.5405H137.936V18.6517H142.3C142.518 18.6517 142.664 18.4955 142.664 18.2613V16.6216C142.664 16.3874 142.518 16.2312 142.3 16.2312H137.936V13.4204H143.136C143.355 13.4204 143.5 13.2643 143.5 13.03V11.3904C143.5 11.1562 143.355 11 143.136 11Z" fill="#222426"/>
<path d="M151.426 16.6488C151.796 16.8036 152.13 16.997 152.389 17.2679C153.093 17.9256 153.463 18.8542 153.5 20.0536C153.5 20.6339 153.389 21.1756 153.167 21.6786C152.944 22.1815 152.611 22.6071 152.204 22.9554C151.796 23.3036 151.315 23.5744 150.759 23.7292C150.241 23.9226 149.611 24 148.981 24C148.056 24 147.241 23.8839 146.537 23.6131C145.833 23.3423 145.204 22.9167 144.611 22.2976C144.537 22.2202 144.5 22.1429 144.5 22.0268C144.5 21.9107 144.537 21.8333 144.611 21.756L145.796 20.5565C145.87 20.4792 145.944 20.4405 146.056 20.4405C146.167 20.4405 146.241 20.4792 146.315 20.5565C146.574 20.8274 146.833 21.0208 147.093 21.1756C147.389 21.3304 147.685 21.4464 147.981 21.5238C148.278 21.6012 148.648 21.6399 149.019 21.6399C149.685 21.6399 150.204 21.4851 150.574 21.2143C150.907 20.9821 151.056 20.6339 151.056 20.1696C151.056 19.744 150.944 19.3958 150.722 19.2024C150.611 19.0476 150.5 18.9702 150.352 18.9315C150.329 18.9257 150.304 18.9189 150.277 18.9116C150.124 18.8703 149.9 18.8096 149.648 18.7768L148.278 18.5833C147.241 18.4286 146.463 18.0804 145.87 17.5C145.241 16.881 144.907 15.9911 144.907 14.9077C144.907 14.1339 145.093 13.4375 145.426 12.8571C145.759 12.2768 146.278 11.7738 146.907 11.4643C147.537 11.1548 148.278 11 149.13 11C149.944 11 150.685 11.1161 151.278 11.3482C151.87 11.5804 152.463 11.9673 152.981 12.4702C153.056 12.5476 153.093 12.625 153.093 12.7411C153.093 12.8185 153.056 12.9345 152.981 13.0119L151.833 14.1726C151.685 14.3274 151.463 14.3274 151.315 14.1726C151.093 13.9405 150.87 13.7857 150.648 13.6696C150.609 13.652 150.57 13.6343 150.532 13.6169C150.32 13.52 150.127 13.4316 149.907 13.3988C149.648 13.3601 149.352 13.3214 149.019 13.3214C148.648 13.3214 148.315 13.3988 148.056 13.5149C147.833 13.631 147.648 13.7857 147.5 14.0179C147.389 14.25 147.315 14.4821 147.315 14.7917C147.315 15.1786 147.389 15.4494 147.611 15.6429C147.685 15.7202 147.87 15.8363 148.056 15.9137C148.278 16.0298 148.5 16.0685 148.722 16.1071L150.056 16.3006C150.611 16.378 151.056 16.494 151.426 16.6488Z" fill="#222426"/>
</svg>
