<svg width="89" height="13" viewBox="0 0 89 13" fill="none" xmlns="http://www.w3.org/2000/svg">
<g id="Icon/LogoWordmarkSm">
<path id="Wordmark" fill-rule="evenodd" clip-rule="evenodd" d="M67.9767 9.584V0.861572H65.9779V9.70713C65.9779 10.8453 66.6694 11.9987 68.3148 11.9987H69.4522V10.3068H68.6835C68.1763 10.3068 67.9767 10.0612 67.9767 9.584ZM9.25767 5.51664L10.298 4.47634H8.16745V1.94713H7.04195V9.93343C7.04195 11.0749 7.69888 11.9967 9.0114 11.9967H9.80877V11.0276H9.21507C8.49558 11.0276 8.16745 10.6057 8.16745 9.90215V5.51664H9.25767ZM84.712 8.93839L86.0039 3.98714H88.1097L85.6651 11.9987H84.0198L82.3438 6.97027L80.6679 11.9987H79.0226L76.5626 3.98714H78.6845L79.9757 8.93839L81.6057 3.98714H83.0667L84.712 8.93839ZM74.1 9.93809C73.869 10.1684 73.5615 10.2915 73.1615 10.2915C72.7621 10.2915 72.4699 10.1684 72.239 9.93809C71.8237 9.52277 71.7777 8.81526 71.7777 7.98528C71.7777 7.15463 71.8237 6.4631 72.239 6.04777C72.4699 5.81748 72.7621 5.69435 73.1615 5.69435C73.5615 5.69435 73.869 5.81748 74.1 6.04777C74.5146 6.4631 74.5612 7.15463 74.5612 7.98528C74.5612 8.81526 74.5146 9.52277 74.1 9.93809ZM70.6862 4.87901C71.178 4.35653 71.9774 3.89529 73.1615 3.89529C74.3455 3.89529 75.1602 4.35653 75.6527 4.87901C76.3756 5.63245 76.5599 6.53964 76.5599 7.98528C76.5599 9.44623 76.3756 10.3534 75.6527 11.1068C75.1602 11.6293 74.3455 12.0906 73.1615 12.0906C71.9774 12.0906 71.178 11.6293 70.6862 11.1068C69.9634 10.3534 69.779 9.44623 69.779 7.98528C69.779 6.53964 69.9634 5.63245 70.6862 4.87901ZM61.0448 3.1525V11.9901H63.0443V5.67372H64.5205V4.15154H63.0443V3.27563C63.0443 2.81372 63.2745 2.55281 63.7511 2.55281H64.5205V0.861572H63.3824C61.7524 0.861572 61.0448 2.01436 61.0448 3.1525ZM56.9313 3.98714V4.75588C57.3153 4.29464 58.0848 3.89529 58.9454 3.89529C59.7294 3.89529 60.2832 4.09496 60.8369 4.64872L59.3241 6.16492C59.0159 5.85742 58.761 5.69435 58.2691 5.69435C57.6541 5.69435 56.9772 6.1556 56.9772 7.17061V11.9987H54.9785V3.98714H56.9313ZM48.9703 7.24715C48.9849 6.89306 49.0315 6.67808 49.1547 6.38589C49.3697 5.90933 49.8156 5.55591 50.4925 5.55591C51.1687 5.55591 51.6147 5.90933 51.8303 6.38589C51.9528 6.67808 51.9994 6.89306 52.0147 7.24715H48.9703ZM47.0015 7.98528C47.0015 5.37154 48.4165 3.89529 50.4925 3.89529C52.7215 3.89529 53.9828 5.52529 53.9828 7.7237V8.61558H48.9703C48.9703 9.6459 49.6006 10.3993 50.7228 10.3993C51.5993 10.3993 52.03 10.1531 52.5371 9.6459L53.7518 10.83C52.9372 11.6446 52.1531 12.0906 50.7075 12.0906C48.8159 12.0906 47.0015 11.23 47.0015 7.98528ZM44.9848 3.98714L43.3708 8.93839L41.7408 3.98714H39.6342L42.5867 11.9987H44.1548L47.0914 3.98714H44.9848ZM36.2644 10.2915C36.6637 10.2915 36.9712 10.1684 37.2022 9.93809C37.6175 9.52277 37.6634 8.81526 37.6634 7.98528C37.6634 7.15463 37.6175 6.4631 37.2022 6.04777C36.9712 5.81748 36.6637 5.69435 36.2644 5.69435C35.8644 5.69435 35.5722 5.81748 35.3419 6.04777C34.9266 6.4631 34.88 7.15463 34.88 7.98528C34.88 8.81526 34.9266 9.52277 35.3419 9.93809C35.5722 10.1684 35.8644 10.2915 36.2644 10.2915ZM36.2644 3.89529C35.0803 3.89529 34.2809 4.35653 33.7884 4.87901C33.0663 5.63245 32.8812 6.53964 32.8812 7.98528C32.8812 9.44623 33.0663 10.3534 33.7884 11.1068C34.2809 11.6293 35.0803 12.0906 36.2644 12.0906C37.4478 12.0906 38.2631 11.6293 38.755 11.1068C39.4778 10.3534 39.6622 9.44623 39.6622 7.98528C39.6622 6.53964 39.4778 5.63245 38.755 4.87901C38.2631 4.35653 37.4478 3.89529 36.2644 3.89529ZM29.574 4.2953H30.977L28.2315 7.04082L31.4223 11.9967H30.0312L27.4521 7.82021L26.087 9.18998L26.0923 11.9967H24.9675V0.868228H26.0923L26.087 7.69043L29.574 4.2953ZM21.3387 5.2138C22.0729 5.2138 22.5268 5.43211 23.1045 6.07307C23.1045 6.07307 23.858 5.34093 23.852 5.33427C23.0626 4.49032 22.393 4.21343 21.3387 4.21343C19.4006 4.21343 17.931 5.52596 17.931 8.15167C17.931 10.7774 19.4006 12.0906 21.3387 12.0906C22.4017 12.0906 23.0732 11.809 23.8706 10.9498L23.1045 10.215C22.5268 10.8559 22.0729 11.0902 21.3387 11.0902C20.588 11.0902 19.963 10.7934 19.557 10.215C19.1969 9.71512 19.0565 9.12076 19.0565 8.15167C19.0565 7.18325 19.1969 6.58889 19.557 6.08904C19.963 5.50998 20.588 5.2138 21.3387 5.2138ZM15.4151 10.6057C15.6806 10.3561 15.8058 9.91812 15.8058 9.27717V8.44919H13.6486C12.4918 8.44919 11.9294 8.91776 11.9294 9.8083C11.9294 10.6995 12.4765 11.1215 13.6952 11.1215C14.3521 11.1215 14.9305 11.0749 15.4151 10.6057ZM13.8516 4.21343C12.6183 4.21343 11.8409 4.45637 11.16 5.31896C11.1507 5.33028 11.8982 6.05776 11.8982 6.05776C12.3514 5.4168 12.8513 5.18252 13.8363 5.18252C15.2427 5.18252 15.8058 5.74493 15.8058 6.87043V7.60457H13.4922C11.773 7.60457 10.8352 8.48047 10.8352 9.82428C10.8352 10.4339 11.0382 11.0123 11.4136 11.3877C11.8982 11.8876 12.5231 12.0906 13.5861 12.0906C14.6177 12.0906 15.1801 11.8876 15.8058 11.2626V11.9967H16.9306V6.77658C16.9306 5.10398 15.9149 4.21343 13.8516 4.21343ZM2.99335 7.55797L4.228 7.66713C5.57248 7.79226 6.49497 8.30808 6.49497 9.7464C6.49497 11.2313 5.22837 12.0906 3.36874 12.0906C2.07152 12.0906 1.05518 11.7937 0.211227 10.9811L0.961336 10.2309C1.57101 10.8712 2.39966 11.1215 3.35277 11.1215C4.61937 11.1215 5.40076 10.6682 5.40076 9.76171C5.40076 9.08947 5.01006 8.71475 4.11885 8.63621L2.85292 8.52706C1.3527 8.40193 0.555332 7.72969 0.555332 6.46376C0.555332 5.05739 1.74339 4.21343 3.38405 4.21343C4.47826 4.21343 5.46332 4.479 6.15087 5.04142L5.41606 5.77622C4.86896 5.35424 4.16611 5.16654 3.36874 5.16654C2.24324 5.16654 1.64955 5.65109 1.64955 6.43248C1.64955 7.08941 2.02427 7.4801 2.99335 7.55797Z" fill="black"/>
</g>
</svg>
