<svg width="111" height="22" viewBox="0 0 111 22" fill="none" xmlns="http://www.w3.org/2000/svg">
<g id="Icon/LogoSm">
<path id="Tray" d="M16 20V14H18V22H0V14H2V20H16Z" fill="#C1BEBC"/>
<path id="Bars" fill-rule="evenodd" clip-rule="evenodd" d="M12.7238 0L11.1487 1.1715L17.0062 9.04613L18.5813 7.87463L12.7238 0ZM4 18H14V16H4V18ZM15.3968 10.9237L7.85558 4.64269L9.11164 3.13431L16.6535 9.41531L15.3968 10.9237ZM5.39364 9.00762L14.2906 13.1512L15.119 11.3713L6.22208 7.22837L5.39364 9.00762ZM14.0303 15.2767L4.12314 13.6063L4.52671 11.6854L14.1615 13.6073L14.0303 15.2767Z" fill="#F48024"/>
<path id="Wordmark" fill-rule="evenodd" clip-rule="evenodd" d="M89.9767 15.584V6.86157H87.9779V15.7071C87.9779 16.8453 88.6695 17.9987 90.3148 17.9987H91.4522V16.3068H90.6835C90.1763 16.3068 89.9767 16.0612 89.9767 15.584ZM31.2577 11.5166L32.298 10.4763H30.1674V7.94713H29.042V15.9334C29.042 17.0749 29.6989 17.9967 31.0114 17.9967H31.8088V17.0276H31.2151C30.4956 17.0276 30.1674 16.6057 30.1674 15.9021V11.5166H31.2577ZM106.712 14.9384L108.004 9.98714H110.11L107.665 17.9987H106.02L104.344 12.9703L102.668 17.9987H101.023L98.5626 9.98714H100.684L101.976 14.9384L103.606 9.98714H105.067L106.712 14.9384ZM96.1 15.9381C95.869 16.1684 95.5615 16.2915 95.1615 16.2915C94.7621 16.2915 94.4699 16.1684 94.239 15.9381C93.8237 15.5228 93.7777 14.8153 93.7777 13.9853C93.7777 13.1546 93.8237 12.4631 94.239 12.0478C94.4699 11.8175 94.7621 11.6944 95.1615 11.6944C95.5615 11.6944 95.869 11.8175 96.1 12.0478C96.5146 12.4631 96.5612 13.1546 96.5612 13.9853C96.5612 14.8153 96.5146 15.5228 96.1 15.9381ZM92.6862 10.879C93.1781 10.3565 93.9774 9.89529 95.1615 9.89529C96.3455 9.89529 97.1602 10.3565 97.6528 10.879C98.3756 11.6325 98.5599 12.5396 98.5599 13.9853C98.5599 15.4462 98.3756 16.3534 97.6528 17.1068C97.1602 17.6293 96.3455 18.0906 95.1615 18.0906C93.9774 18.0906 93.1781 17.6293 92.6862 17.1068C91.9634 16.3534 91.779 15.4462 91.779 13.9853C91.779 12.5396 91.9634 11.6325 92.6862 10.879ZM83.0448 9.1525V17.9901H85.0443V11.6737H86.5205V10.1515H85.0443V9.27563C85.0443 8.81372 85.2745 8.55281 85.7511 8.55281H86.5205V6.86157H85.3824C83.7524 6.86157 83.0448 8.01436 83.0448 9.1525ZM78.9313 9.98714V10.7559C79.3154 10.2946 80.0848 9.89529 80.9454 9.89529C81.7294 9.89529 82.2832 10.095 82.8369 10.6487L81.3241 12.1649C81.0159 11.8574 80.761 11.6944 80.2691 11.6944C79.6541 11.6944 78.9772 12.1556 78.9772 13.1706V17.9987H76.9785V9.98714H78.9313ZM70.9703 13.2471C70.985 12.8931 71.0315 12.6781 71.1547 12.3859C71.3697 11.9093 71.8156 11.5559 72.4925 11.5559C73.1687 11.5559 73.6147 11.9093 73.8303 12.3859C73.9528 12.6781 73.9994 12.8931 74.0147 13.2471H70.9703ZM69.0015 13.9853C69.0015 11.3715 70.4165 9.89529 72.4925 9.89529C74.7215 9.89529 75.9828 11.5253 75.9828 13.7237V14.6156H70.9703C70.9703 15.6459 71.6006 16.3993 72.7228 16.3993C73.5993 16.3993 74.03 16.1531 74.5372 15.6459L75.7518 16.83C74.9372 17.6446 74.1531 18.0906 72.7075 18.0906C70.8159 18.0906 69.0015 17.23 69.0015 13.9853ZM66.9848 9.98714L65.3708 14.9384L63.7408 9.98714H61.6342L64.5867 17.9987H66.1548L69.0914 9.98714H66.9848ZM58.2644 16.2915C58.6637 16.2915 58.9712 16.1684 59.2022 15.9381C59.6175 15.5228 59.6634 14.8153 59.6634 13.9853C59.6634 13.1546 59.6175 12.4631 59.2022 12.0478C58.9712 11.8175 58.6637 11.6944 58.2644 11.6944C57.8644 11.6944 57.5722 11.8175 57.3419 12.0478C56.9266 12.4631 56.88 13.1546 56.88 13.9853C56.88 14.8153 56.9266 15.5228 57.3419 15.9381C57.5722 16.1684 57.8644 16.2915 58.2644 16.2915ZM58.2644 9.89529C57.0803 9.89529 56.281 10.3565 55.7884 10.879C55.0663 11.6325 54.8812 12.5396 54.8812 13.9853C54.8812 15.4462 55.0663 16.3534 55.7884 17.1068C56.281 17.6293 57.0803 18.0906 58.2644 18.0906C59.4478 18.0906 60.2631 17.6293 60.755 17.1068C61.4778 16.3534 61.6622 15.4462 61.6622 13.9853C61.6622 12.5396 61.4778 11.6325 60.755 10.879C60.2631 10.3565 59.4478 9.89529 58.2644 9.89529ZM51.574 10.2953H52.977L50.2315 13.0408L53.4223 17.9967H52.0312L49.4521 13.8202L48.087 15.19L48.0923 17.9967H46.9675V6.86823H48.0923L48.087 13.6904L51.574 10.2953ZM43.3387 11.2138C44.0729 11.2138 44.5268 11.4321 45.1045 12.0731C45.1045 12.0731 45.858 11.3409 45.852 11.3343C45.0626 10.4903 44.393 10.2134 43.3387 10.2134C41.4006 10.2134 39.931 11.526 39.931 14.1517C39.931 16.7774 41.4006 18.0906 43.3387 18.0906C44.4017 18.0906 45.0732 17.809 45.8706 16.9498L45.1045 16.215C44.5268 16.8559 44.0729 17.0902 43.3387 17.0902C42.588 17.0902 41.963 16.7934 41.557 16.215C41.1969 15.7151 41.0565 15.1208 41.0565 14.1517C41.0565 13.1833 41.1969 12.5889 41.557 12.089C41.963 11.51 42.588 11.2138 43.3387 11.2138ZM37.4151 16.6057C37.6806 16.3561 37.8058 15.9181 37.8058 15.2772V14.4492H35.6486C34.4919 14.4492 33.9294 14.9178 33.9294 15.8083C33.9294 16.6995 34.4765 17.1215 35.6952 17.1215C36.3521 17.1215 36.9305 17.0749 37.4151 16.6057ZM35.8516 10.2134C34.6183 10.2134 33.8409 10.4564 33.16 11.319C33.1507 11.3303 33.8982 12.0578 33.8982 12.0578C34.3514 11.4168 34.8513 11.1825 35.8363 11.1825C37.2427 11.1825 37.8058 11.7449 37.8058 12.8704V13.6046H35.4922C33.773 13.6046 32.8352 14.4805 32.8352 15.8243C32.8352 16.4339 33.0382 17.0123 33.4136 17.3877C33.8982 17.8876 34.5231 18.0906 35.5861 18.0906C36.6177 18.0906 37.1801 17.8876 37.8058 17.2626V17.9967H38.9306V12.7766C38.9306 11.104 37.9149 10.2134 35.8516 10.2134ZM24.9934 13.558L26.228 13.6671C27.5725 13.7923 28.495 14.3081 28.495 15.7464C28.495 17.2313 27.2284 18.0906 25.3687 18.0906C24.0715 18.0906 23.0552 17.7937 22.2112 16.9811L22.9613 16.2309C23.571 16.8712 24.3997 17.1215 25.3528 17.1215C26.6194 17.1215 27.4008 16.6682 27.4008 15.7617C27.4008 15.0895 27.0101 14.7148 26.1189 14.6362L24.8529 14.5271C23.3527 14.4019 22.5553 13.7297 22.5553 12.4638C22.5553 11.0574 23.7434 10.2134 25.3841 10.2134C26.4783 10.2134 27.4633 10.479 28.1509 11.0414L27.4161 11.7762C26.869 11.3542 26.1661 11.1665 25.3687 11.1665C24.2432 11.1665 23.6496 11.6511 23.6496 12.4325C23.6496 13.0894 24.0243 13.4801 24.9934 13.558Z" fill="black"/>
</g>
</svg>
