<svg width="146" height="36" viewBox="0 0 146 36" fill="none" xmlns="http://www.w3.org/2000/svg">
<g id="Icon/LogoEnterprise" clip-path="url(#clip0)">
<path id="Wordmark" fill-rule="evenodd" clip-rule="evenodd" d="M67.58 14.3889H69.4027L65.8533 17.9382L70.0742 24.5573H68.2515L64.7981 18.9934L62.9755 20.8161V24.5573H61.4406V9.7843H62.9755V18.8975L67.58 14.3889ZM33.9092 18.8975L32.2784 18.7056C31.0313 18.6097 30.4558 18.1301 30.4558 17.1708C30.4558 16.1156 31.2232 15.4441 32.7581 15.4441C33.8133 15.4441 34.7725 15.7319 35.444 16.2115L36.4033 15.2522C35.444 14.4848 34.197 14.197 32.7581 14.197C30.5517 14.197 29.0168 15.3481 29.0168 17.1708C29.0168 18.8975 30.0721 19.7608 32.0866 19.9527L33.8133 20.1446C34.9644 20.2405 35.54 20.7201 35.54 21.6794C35.54 22.9265 34.4848 23.502 32.854 23.502C31.6069 23.502 30.4558 23.2143 29.6883 22.3509L28.7291 23.3102C29.8802 24.3654 31.2232 24.7491 32.9499 24.7491C35.444 24.7491 37.0748 23.598 37.0748 21.6794C36.883 19.7608 35.6359 19.0893 33.9092 18.8975ZM46.6677 14.2929C45.0369 14.2929 43.9817 14.5807 43.1183 15.7319L44.0776 16.6911C44.6532 15.8278 45.3247 15.54 46.6677 15.54C48.4903 15.54 49.2577 16.3074 49.2577 17.7463V18.7056H46.188C43.8857 18.7056 42.6387 19.8568 42.6387 21.6794C42.6387 22.4468 42.9264 23.2143 43.4061 23.7898C44.0776 24.4613 44.845 24.7491 46.2839 24.7491C47.6269 24.7491 48.3944 24.4613 49.2577 23.6939V24.6532H50.7926V17.7463C50.6966 15.4441 49.3536 14.2929 46.6677 14.2929ZM48.7781 22.7346C49.0659 22.4468 49.2577 21.8713 49.2577 21.0079L49.3536 19.8568H46.4758C44.9409 19.8568 44.1735 20.5283 44.1735 21.6794C44.1735 22.8305 44.845 23.4061 46.4758 23.4061C47.3392 23.4061 48.1066 23.3102 48.7781 22.7346ZM56.5483 15.6359C57.5075 15.6359 58.0831 15.9237 58.8505 16.7871L59.8098 15.8278C58.7546 14.6766 57.8913 14.2929 56.4523 14.2929C53.8623 14.2929 51.9437 16.0196 51.9437 19.569C51.9437 23.0224 53.8623 24.845 56.4523 24.845C57.8913 24.845 58.7546 24.4613 59.8098 23.3102L58.7546 22.3509C57.9872 23.2143 57.4116 23.502 56.4523 23.502C55.4931 23.502 54.6297 23.1183 54.0541 22.3509C53.5745 21.6794 53.3826 20.912 53.3826 19.569C53.3826 18.3219 53.5745 17.4586 54.0541 16.7871C54.7256 16.0196 55.589 15.6359 56.5483 15.6359ZM76.4054 14.1011C74.8706 14.1011 73.8154 14.6766 73.1439 15.4441C72.1846 16.4034 71.8968 17.6504 71.8968 19.569C71.8968 21.4876 72.1846 22.7346 73.1439 23.6939C73.8154 24.3654 74.8706 25.0369 76.4054 25.0369C77.9403 25.0369 79.0914 24.4613 79.667 23.6939C80.6263 22.7346 80.914 21.4876 80.914 19.569C80.914 17.6504 80.6263 16.4034 79.667 15.4441C79.0914 14.6766 78.0362 14.1011 76.4054 14.1011ZM76.4054 22.5428C76.981 22.5428 77.3647 22.3509 77.6525 22.0631C78.2281 21.5835 78.324 20.6242 78.2281 19.4731C78.2281 18.3219 78.2281 17.4586 77.6525 16.883C77.3647 16.5952 76.981 16.4034 76.4054 16.4034C75.8298 16.4034 75.4461 16.5952 75.1584 16.883C74.6787 17.4586 74.5828 18.3219 74.5828 19.4731C74.5828 20.5283 74.5828 21.4876 75.1584 22.0631C75.4461 22.3509 75.8298 22.5428 76.4054 22.5428ZM88.0127 14.197L85.9023 20.8161L83.696 14.197H80.9141L84.8471 24.845H86.9575L90.8906 14.197H88.0127ZM90.6987 19.569C90.6987 16.0196 92.5214 14.1011 95.3033 14.1011C98.2771 14.1011 99.9079 16.2115 99.9079 19.2812V20.4323H93.2888C93.2888 21.8713 94.0562 22.8305 95.5911 22.8305C96.7422 22.8305 97.3178 22.5428 97.9893 21.8713L99.6201 23.4061C98.5648 24.4613 97.5096 25.0369 95.5911 25.0369C93.0969 25.0369 90.6987 23.8858 90.6987 19.569ZM93.2888 18.5138C93.2888 18.0341 93.3847 17.7463 93.5766 17.3626C93.8644 16.6911 94.4399 16.2115 95.3992 16.2115C96.2626 16.2115 96.9341 16.6911 97.2219 17.3626C97.3623 17.6435 97.3999 17.873 97.4476 18.1639C97.4651 18.2704 97.4839 18.3853 97.5096 18.5138H93.2888ZM103.841 14.197V15.2522C104.416 14.5807 105.376 14.1011 106.623 14.197C107.678 14.197 108.35 14.3889 109.117 15.1563L107.102 17.1708C106.623 16.6911 106.335 16.4993 105.664 16.4993C104.8 16.4993 103.937 17.0749 103.937 18.4178V24.845H101.251V14.197H103.841ZM109.23 13.0459V24.845H111.916V16.4034H113.835V14.3889H111.916V13.2377C111.916 12.6622 112.204 12.2784 112.876 12.2784H113.931V10.0721H112.396C110.19 10.0721 109.23 11.6069 109.23 13.0459ZM122.163 15.4441C122.835 14.6766 123.89 14.1011 125.425 14.1011C126.96 14.1011 128.111 14.6766 128.686 15.4441C129.646 16.4034 129.933 17.6504 129.933 19.569C129.933 21.4876 129.646 22.7346 128.686 23.6939C128.111 24.4613 126.96 25.0369 125.425 25.0369C123.89 25.0369 122.835 24.3654 122.163 23.6939C121.204 22.7346 120.916 21.4876 120.916 19.569C120.916 17.6504 121.204 16.4034 122.163 15.4441ZM126.672 22.0631C126.384 22.3509 126 22.5428 125.425 22.5428C124.849 22.5428 124.465 22.3509 124.178 22.0631C123.602 21.4876 123.602 20.5283 123.602 19.4731C123.602 18.3219 123.698 17.4586 124.178 16.883C124.465 16.5952 124.849 16.4034 125.425 16.4034C126 16.4034 126.384 16.5952 126.672 16.883C127.247 17.4586 127.247 18.3219 127.247 19.4731C127.247 20.6242 127.247 21.5835 126.672 22.0631ZM140.773 20.8161L142.5 14.197H145.282L142.02 24.845H139.814L137.608 18.1301L135.401 24.845H133.195L129.933 14.197H132.715L134.442 20.8161L136.648 14.197H138.567L140.773 20.8161ZM117.933 21.5835V9.97616H115.247V21.7753C115.247 23.3102 116.206 24.845 118.316 24.845H119.851V22.6387H118.892C118.221 22.6387 117.933 22.255 117.933 21.5835ZM42.3509 14.6766L41.0079 16.0196L39.3771 16.1156V21.9672C39.3771 22.9265 39.8567 23.502 40.816 23.502H41.5835V24.7491H40.5282C38.8015 24.7491 37.9382 23.502 37.9382 21.9672V11.3192H39.473V14.6766H42.3509Z" fill="#222426"/>
<path id="Tray" d="M21 27V19H24V30H0V19H3V27H21Z" fill="#BCBBBB"/>
<path id="Bars" fill-rule="evenodd" clip-rule="evenodd" d="M17.1 0.199997L15 1.8L22.9 12.4L25 10.8L17.1 0.199997ZM20.8 14.9L10.6 6.4L12.3 4.4L22.5 12.9L20.8 14.9ZM7.2 12.3L19.2 17.9L20.3 15.5L8.3 9.9L7.2 12.3ZM5.4 19.1L19 21.1L19.2 18.7L5.9 16.1L5.4 19.1ZM19 25H5V22H19V25Z" fill="#F48024"/>
<path id="For Enterprise" fill-rule="evenodd" clip-rule="evenodd" d="M29.0806 35.8658V28.0118H34.0746V29.5957H31.0386V31.1688H33.5576V32.7528H31.0386V35.8658H29.0806ZM34.9106 32.8881V31.1112C34.9106 29.9193 35.084 29.2909 35.5607 28.7816C36.0916 28.2291 36.7634 28.0015 37.9119 28.0015C39.1362 28.0015 39.8622 28.2724 40.3823 28.9225C40.7615 29.3992 40.9132 30.006 40.9132 31.1112V32.8881C40.9132 34.08 40.7398 34.7084 40.2631 35.2176C39.7322 35.7702 39.0604 35.9977 37.9119 35.9977C36.6875 35.9977 35.9616 35.7269 35.4415 35.0768C35.0623 34.6 34.9106 33.9933 34.9106 32.8881ZM38.9846 32.7364V31.2629C38.9846 29.9193 38.757 29.5509 37.9119 29.5509C37.0668 29.5509 36.8392 29.9193 36.8392 31.2629V32.7364C36.8392 34.08 37.0668 34.4483 37.9119 34.4483C38.757 34.4483 38.9846 34.08 38.9846 32.7364ZM43.9846 32.8298V35.8658H42.0266V28.0118H45.1066C46.2066 28.0118 46.7786 28.1658 47.1966 28.5838C47.6036 28.9908 47.7686 29.5187 47.7686 30.3877C47.7686 31.7407 47.3946 32.3788 46.4156 32.6758L48.1096 35.8658H45.9426L44.5126 32.8298H43.9846ZM43.9516 31.3447H44.9086C45.6016 31.3447 45.8326 31.1247 45.8326 30.4537C45.8326 29.7827 45.6016 29.5627 44.9086 29.5627H43.9516V31.3447ZM51.9839 35.8658V28.0118H57.0659V29.5957H53.9199V31.1137H56.5709V32.6978H53.9199V34.2818H57.1319V35.8658H51.9839ZM58.0312 35.8658V28.0118H59.9342L62.3432 32.5988V28.0118H64.2352V35.8658H62.3322L59.9232 31.2787V35.8658H58.0312ZM67.1406 35.8658V29.5957H65.1166V28.0118H71.1226V29.5957H69.0986V35.8658H67.1406ZM71.9806 35.8658V28.0118H77.0626V29.5957H73.9166V31.1137H76.5676V32.6978H73.9166V34.2818H77.1286V35.8658H71.9806ZM79.9844 32.8298V35.8658H78.0264V28.0118H81.1064C82.2064 28.0118 82.7784 28.1658 83.1964 28.5838C83.6034 28.9908 83.7684 29.5187 83.7684 30.3877C83.7684 31.7407 83.3944 32.3788 82.4154 32.6758L84.1094 35.8658H81.9424L80.5124 32.8298H79.9844ZM79.9514 31.3447H80.9084C81.6014 31.3447 81.8324 31.1247 81.8324 30.4537C81.8324 29.7827 81.6014 29.5627 80.9084 29.5627H79.9514V31.3447ZM86.9397 33.2368V35.8658H84.9817V28.0118H87.7207C88.9197 28.0118 89.5357 28.1878 89.9867 28.6498C90.4267 29.1008 90.5917 29.6508 90.5917 30.6518C90.5917 31.6418 90.3717 32.2688 89.8767 32.6978C89.4257 33.0938 88.8317 33.2368 87.7207 33.2368H86.9397ZM86.9067 31.6747H87.7317C88.4247 31.6747 88.6557 31.4108 88.6557 30.6188C88.6557 29.8268 88.4247 29.5627 87.7317 29.5627H86.9067V31.6747ZM93.0136 32.8298V35.8658H91.0556V28.0118H94.1356C95.2356 28.0118 95.8076 28.1658 96.2256 28.5838C96.6326 28.9908 96.7976 29.5187 96.7976 30.3877C96.7976 31.7407 96.4236 32.3788 95.4446 32.6758L97.1386 35.8658H94.9716L93.5416 32.8298H93.0136ZM92.9806 31.3447H93.9376C94.6306 31.3447 94.8616 31.1247 94.8616 30.4537C94.8616 29.7827 94.6306 29.5627 93.9376 29.5627H92.9806V31.3447ZM98.0846 35.8658V28.0118H100.043V35.8658H98.0846ZM100.824 34.5674L102.287 33.6354C102.633 34.2314 103.089 34.459 103.912 34.459C104.595 34.459 104.92 34.2098 104.92 33.6896C104.92 33.2778 104.703 33.061 104.14 32.9201C102.785 32.5842 102.503 32.4866 102.092 32.2265C101.474 31.8256 101.192 31.2512 101.192 30.3734C101.192 28.8236 102.135 28 103.901 28C105.234 28 106.08 28.4335 106.611 29.3655L105.191 30.265C104.812 29.734 104.454 29.5389 103.869 29.5389C103.327 29.5389 103.034 29.7882 103.034 30.2433C103.034 30.7635 103.327 30.9803 104.367 31.2403C105.354 31.4896 105.592 31.5763 105.982 31.8256C106.513 32.1724 106.762 32.7359 106.762 33.6029C106.762 34.4482 106.557 35.0009 106.112 35.3802C105.625 35.792 104.855 36.0087 103.891 36.0087C103.002 36.0087 102.178 35.8137 101.636 35.456C101.279 35.2285 101.062 35.0009 100.824 34.5674ZM108.016 35.8658V28.0118H113.098V29.5957H109.952V31.1137H112.603V32.6978H109.952V34.2818H113.164V35.8658H108.016Z" fill="#F48024"/>
</g>
<defs>
<clipPath id="clip0">
<rect width="146" height="36" fill="white"/>
</clipPath>
</defs>
</svg>
