<svg width="146" height="36" viewBox="0 0 146 36" fill="none" xmlns="http://www.w3.org/2000/svg">
<path d="M33.9 18.9L32.28 18.7C31.03 18.61 30.46 18.13 30.46 17.17C30.46 16.12 31.22 15.44 32.76 15.44C33.81 15.44 34.77 15.74 35.44 16.21L36.4 15.25C35.343 14.493 34.0578 14.1223 32.76 14.2C30.56 14.2 29.02 15.35 29.02 17.17C29.02 18.9 30.07 19.77 32.09 19.95L33.81 20.15C34.96 20.24 35.54 20.72 35.54 21.68C35.54 22.93 34.48 23.5 32.85 23.5C31.61 23.5 30.45 23.21 29.69 22.35L28.73 23.31C29.88 24.37 31.23 24.75 32.95 24.75C35.45 24.75 37.07 23.6 37.07 21.68C36.88 19.76 35.64 19.08 33.91 18.9H33.9ZM46.67 14.3C45.04 14.3 43.98 14.58 43.12 15.73L44.08 16.69C44.65 15.83 45.32 15.54 46.67 15.54C48.49 15.54 49.26 16.31 49.26 17.74V18.71H46.19C43.89 18.71 42.64 19.86 42.64 21.68C42.64 22.45 42.93 23.21 43.41 23.79C44.08 24.46 44.85 24.75 46.28 24.75C47.63 24.75 48.39 24.46 49.26 23.69V24.65H50.79V17.75C50.69 15.45 49.35 14.29 46.67 14.29V14.3ZM49.26 21C49.26 21.87 49.06 22.45 48.78 22.73C48.11 23.31 47.34 23.41 46.48 23.41C44.85 23.41 44.18 22.83 44.18 21.68C44.18 20.53 44.94 19.86 46.48 19.86H49.35L49.25 21.01L49.26 21ZM56.55 15.64C57.51 15.64 58.08 15.92 58.85 16.79L59.81 15.83C58.75 14.68 57.89 14.29 56.45 14.29C53.86 14.29 51.95 16.02 51.95 19.57C51.95 23.02 53.86 24.85 56.45 24.85C57.89 24.85 58.75 24.46 59.81 23.31L58.75 22.35C57.99 23.21 57.41 23.5 56.45 23.5C55.49 23.5 54.63 23.12 54.05 22.35C53.57 21.68 53.38 20.91 53.38 19.57C53.38 18.32 53.58 17.46 54.05 16.79C54.3563 16.426 54.7392 16.1342 55.1714 15.9354C55.6036 15.7366 56.0743 15.6358 56.55 15.64ZM69.4 14.39H67.58L62.98 18.89V9.79999H61.44V24.57H62.98V20.83L64.8 19L68.25 24.57H70.07L65.85 17.95L69.4 14.4V14.39ZM76.4 14.1C74.87 14.1 73.82 14.68 73.14 15.44C72.18 16.4 71.9 17.65 71.9 19.57C71.9 21.49 72.18 22.73 73.14 23.69C73.5656 24.1243 74.0748 24.4678 74.6368 24.6998C75.1988 24.9318 75.802 25.0476 76.41 25.04C77.94 25.04 79.09 24.46 79.67 23.69C80.63 22.73 80.91 21.49 80.91 19.57C80.91 17.65 80.63 16.4 79.67 15.44C79.09 14.68 78.04 14.1 76.41 14.1H76.4ZM77.65 22.06C77.36 22.36 76.98 22.54 76.41 22.54C75.83 22.54 75.45 22.35 75.16 22.06C74.58 21.49 74.58 20.53 74.58 19.47C74.58 18.32 74.68 17.46 75.16 16.88C75.325 16.7195 75.5209 16.5942 75.7358 16.5117C75.9506 16.4292 76.18 16.3912 76.41 16.4C76.98 16.4 77.36 16.6 77.65 16.88C78.23 17.46 78.23 18.32 78.23 19.48C78.33 20.62 78.23 21.58 77.65 22.06ZM88.01 14.2L85.91 20.82L83.7 14.2H80.9L84.84 24.85H86.94L90.9 14.2H88.02H88.01ZM95.31 14.1C92.52 14.1 90.7 16.02 90.7 19.57C90.7 23.89 93.1 25.04 95.6 25.04C97.51 25.04 98.56 24.46 99.62 23.41L97.99 21.87C97.32 22.54 96.74 22.83 95.59 22.83C94.06 22.83 93.29 21.87 93.29 20.43H99.91V19.28C99.91 16.21 98.28 14.1 95.31 14.1ZM93.29 18.51C93.29 18.03 93.39 17.75 93.58 17.36C93.86 16.69 94.44 16.21 95.4 16.21C96.26 16.21 96.93 16.69 97.22 17.36C97.42 17.75 97.42 18.03 97.51 18.51H93.29ZM103.84 15.25V14.2H101.25V24.85H103.94V18.42C103.94 17.07 104.8 16.5 105.66 16.5C106.34 16.5 106.62 16.7 107.1 17.17L109.12 15.16C108.35 14.39 107.68 14.2 106.62 14.2C105.38 14.1 104.42 14.58 103.84 15.25ZM109.23 13.05V24.85H111.92V16.4H113.84V14.4H111.92V13.25C111.92 12.67 112.2 12.29 112.88 12.29H113.93V10.09H112.4C110.19 10.09 109.23 11.62 109.23 13.06V13.05ZM125.43 14.1C123.89 14.1 122.83 14.68 122.16 15.44C121.2 16.4 120.92 17.65 120.92 19.57C120.92 21.49 121.2 22.73 122.16 23.69C122.584 24.123 123.092 24.4658 123.652 24.6978C124.212 24.9298 124.814 25.0462 125.42 25.04C126.96 25.04 128.12 24.46 128.69 23.69C129.65 22.73 129.93 21.49 129.93 19.57C129.93 17.65 129.65 16.4 128.69 15.44C128.11 14.68 126.96 14.1 125.42 14.1H125.43ZM126.67 22.06C126.38 22.36 126 22.54 125.42 22.54C124.85 22.54 124.47 22.35 124.18 22.06C123.6 21.49 123.6 20.53 123.6 19.47C123.6 18.32 123.7 17.46 124.18 16.88C124.47 16.6 124.85 16.4 125.42 16.4C126 16.4 126.38 16.6 126.67 16.88C127.25 17.46 127.25 18.32 127.25 19.48C127.25 20.62 127.25 21.58 126.67 22.06ZM142.5 14.2L140.77 20.82L138.57 14.2H136.65L134.45 20.82L132.72 14.2H129.93L133.19 24.85H135.4L137.6 18.13L139.81 24.85H142.02L145.28 14.2H142.5ZM117.93 21.58V9.97999H115.25V21.78C115.25 23.31 116.21 24.85 118.32 24.85H119.85V22.64H118.89C118.22 22.64 117.93 22.25 117.93 21.58ZM41.01 16.02L42.35 14.68H39.47V11.32H37.94V21.97C37.94 23.5 38.8 24.75 40.53 24.75H41.58V23.5H40.82C39.86 23.5 39.38 22.93 39.38 21.97V16.12L41.01 16.02Z" fill="#222426"/>
<path d="M21 27V19H24V30H0V19H3V27H21Z" fill="#BCBBBB"/>
<path d="M5.4 19.1L19 21.1L19.2 18.7L5.9 16.1L5.4 19.1ZM7.2 12.3L19.2 17.9L20.3 15.5L8.3 9.90001L7.2 12.3ZM10.6 6.40001L20.8 14.9L22.5 12.9L12.3 4.40001L10.6 6.40001ZM17.1 0.200012L15 1.80001L22.9 12.4L25 10.8L17.1 0.200012ZM5 25H19V22H5V25ZM31.03 35.98V29.71H29.01V28.13H35.01V29.71H33V35.98H31.04H31.03ZM39.81 34.6H37.31L36.89 35.98H34.77L37.6 28.13H39.5L42.34 35.98H40.23L39.81 34.6ZM39.35 33.05L38.57 30.39L37.77 33.05H39.35ZM43 35.98V28.13H44.95V34.4H48.13V35.98H43ZM49 35.98V28.13H54.07V29.71H50.93V31.23H53.58V32.81H50.93V34.4H54.14V35.98H48.99H49ZM55.12 35.98V28.13H57.02L59.42 32.72V28.12H61.32V35.98H59.42L57 31.4V35.98H55.1H55.12ZM64.02 35.98V29.71H61.99V28.13H67.99V29.71H65.97V35.98H64.01H64.02Z" fill="#F48024"/>
</svg>
