<svg width="146" height="36" viewBox="0 0 146 36" fill="none" xmlns="http://www.w3.org/2000/svg">
<path d="M33.7616 28.0642H32.2802C32.2445 28.0642 32.2104 28.0783 32.1852 28.1033C32.16 28.1284 32.1458 28.1624 32.1458 28.1979V33.2006C32.1458 33.962 31.7726 34.3631 31.086 34.3631C30.9196 34.3698 30.7539 34.3385 30.6015 34.2715C30.4492 34.2046 30.3143 34.1038 30.2072 33.9768C30.1824 33.9523 30.1489 33.9386 30.1139 33.9386C30.079 33.9386 30.0454 33.9523 30.0206 33.9768L29.0392 34.9499C29.0145 34.9754 29.0005 35.0092 29 35.0446C28.9999 35.0622 29.0032 35.0796 29.01 35.0959C29.0167 35.1121 29.0266 35.1269 29.0392 35.1393C29.6195 35.7168 30.2128 35.9527 31.0916 35.9527C32.4444 35.9527 33.8997 35.1133 33.8997 33.2712V28.1979C33.9 28.1799 33.8966 28.1621 33.8897 28.1455C33.8828 28.1289 33.8726 28.1139 33.8596 28.1014C33.8467 28.0889 33.8313 28.0791 33.8145 28.0727C33.7976 28.0663 33.7797 28.0634 33.7616 28.0642Z" fill="#F48024"/>
<path d="M37.9878 28.001C37.5882 27.9904 37.1908 28.0619 36.8203 28.2111C36.4498 28.3604 36.1142 28.5841 35.8346 28.8682C35.0491 29.65 35.0491 30.6305 35.0491 31.871V32.0864C35.0491 33.3269 35.0491 34.3148 35.8346 35.0892C36.1141 35.3735 36.4497 35.5973 36.8202 35.7466C37.1907 35.8958 37.5882 35.9672 37.9878 35.9564C38.3856 35.9666 38.7812 35.8948 39.1498 35.7456C39.5185 35.5963 39.8521 35.3729 40.1298 35.0892C40.9265 34.2962 40.9265 33.3454 40.9265 32.0326V31.9286C40.9265 30.6138 40.9265 29.6649 40.1298 28.872C39.8523 28.5877 39.5188 28.3636 39.1502 28.2137C38.7816 28.0638 38.3858 27.9914 37.9878 28.001ZM37.1276 29.9397C37.2374 29.823 37.3708 29.7308 37.5191 29.6693C37.6674 29.6079 37.8272 29.5785 37.9878 29.5832C38.1465 29.5779 38.3045 29.6071 38.4507 29.6687C38.597 29.7302 38.7281 29.8227 38.8349 29.9397C39.0942 30.2257 39.1744 30.5433 39.1744 31.9824C39.1744 33.4216 39.0942 33.7298 38.8311 34.0251C38.7248 34.1427 38.5938 34.2358 38.4475 34.2977C38.3011 34.3596 38.143 34.3889 37.984 34.3835C37.8229 34.3881 37.6625 34.3583 37.5139 34.2962C37.3652 34.2341 37.2316 34.141 37.122 34.0232C36.872 33.7466 36.7936 33.429 36.7936 31.9898C36.7936 30.5507 36.8757 30.2294 37.1276 29.9397Z" fill="#F48024"/>
<path d="M47.0408 31.8766C47.2895 31.6995 47.4922 31.4659 47.632 31.1953C47.7719 30.9246 47.8449 30.6247 47.845 30.3204C47.845 28.9295 46.8916 28.0642 45.3616 28.0642H42.3109C42.2934 28.0642 42.276 28.0676 42.2598 28.0744C42.2436 28.0811 42.2289 28.091 42.2166 28.1034C42.2043 28.1159 42.1945 28.1306 42.188 28.1468C42.1815 28.1631 42.1782 28.1804 42.1785 28.1979V35.7558C42.1785 35.7908 42.1924 35.8243 42.2173 35.849C42.2421 35.8738 42.2758 35.8877 42.3109 35.8877H45.4829C46.9979 35.8877 47.9402 35.0037 47.9402 33.5794C47.9579 33.2413 47.8838 32.9047 47.7255 32.6051C47.5672 32.3054 47.3307 32.0537 47.0408 31.8766ZM45.244 31.1226H43.9268V29.6463H45.244C45.7758 29.6463 46.0911 29.923 46.0911 30.3891C46.0911 30.8552 45.7758 31.1226 45.244 31.1226ZM43.9268 32.7141H45.3411C45.8784 32.7141 46.1994 33.0093 46.1994 33.5051C46.1994 34.001 45.8784 34.3148 45.3411 34.3148H43.9268V32.7141Z" fill="#F48024"/>
<path d="M53.743 31.8264C53.3866 31.494 52.9164 31.3046 52.2204 31.2081L51.3248 31.0799C51.0927 31.0564 50.8727 30.9654 50.6923 30.8181C50.6326 30.7606 50.5852 30.6916 50.5531 30.6153C50.521 30.539 50.5049 30.457 50.5057 30.3743C50.5057 29.8673 50.905 29.5516 51.5469 29.5516C52.0189 29.5516 52.5638 29.6092 53.0116 30.0344C53.0237 30.0468 53.0382 30.0566 53.0542 30.0633C53.0703 30.07 53.0875 30.0735 53.1048 30.0735C53.1222 30.0735 53.1394 30.07 53.1554 30.0633C53.1715 30.0566 53.186 30.0468 53.1981 30.0344L54.1311 29.1059C54.1557 29.0805 54.1697 29.0466 54.1702 29.0112C54.1704 28.9935 54.1668 28.9759 54.1597 28.9596C54.1527 28.9433 54.1423 28.9286 54.1292 28.9165C53.4799 28.2833 52.6962 28.001 51.5935 28.001C49.9329 28.001 48.8153 28.976 48.8153 30.4263C48.8153 31.1003 49.0019 31.6166 49.4011 32.0084C49.7575 32.3538 50.2632 32.5655 50.9461 32.6714L51.8622 32.7976C52.0825 32.8065 52.2936 32.8875 52.463 33.0279C52.5299 33.1002 52.5811 33.1856 52.6132 33.2786C52.6453 33.3716 52.6577 33.4703 52.6496 33.5683C52.6496 34.2312 51.9928 34.3705 51.4405 34.3705C50.6736 34.3705 50.1046 34.1848 49.6997 33.7726C49.675 33.7478 49.6414 33.7338 49.6064 33.7336C49.5708 33.7341 49.5368 33.748 49.5112 33.7726L48.5503 34.727C48.5257 34.7517 48.5119 34.7851 48.5119 34.8199C48.5119 34.8547 48.5257 34.888 48.5503 34.9127C49.2705 35.6407 50.1288 35.9508 51.4181 35.9508C53.1813 35.9508 54.368 34.9759 54.368 33.5256C54.3755 32.7921 54.1609 32.2201 53.743 31.8264Z" fill="#F48024"/>
<path d="M33.9 18.9L32.28 18.7C31.03 18.61 30.46 18.13 30.46 17.17C30.46 16.12 31.22 15.44 32.76 15.44C33.81 15.44 34.77 15.74 35.44 16.21L36.4 15.25C35.3429 14.493 34.0578 14.1223 32.76 14.2C30.56 14.2 29.02 15.35 29.02 17.17C29.02 18.9 30.07 19.77 32.09 19.95L33.81 20.15C34.96 20.24 35.54 20.72 35.54 21.68C35.54 22.93 34.48 23.5 32.85 23.5C31.61 23.5 30.45 23.21 29.69 22.35L28.73 23.31C29.88 24.37 31.23 24.75 32.95 24.75C35.45 24.75 37.07 23.6 37.07 21.68C36.88 19.76 35.64 19.08 33.91 18.9H33.9ZM46.67 14.3C45.04 14.3 43.98 14.58 43.12 15.73L44.08 16.69C44.65 15.83 45.32 15.54 46.67 15.54C48.49 15.54 49.26 16.31 49.26 17.74V18.71H46.19C43.89 18.71 42.64 19.86 42.64 21.68C42.64 22.45 42.93 23.21 43.41 23.79C44.08 24.46 44.85 24.75 46.28 24.75C47.63 24.75 48.39 24.46 49.26 23.69V24.65H50.79V17.75C50.69 15.45 49.35 14.29 46.67 14.29V14.3ZM49.26 21C49.26 21.87 49.06 22.45 48.78 22.73C48.11 23.31 47.34 23.41 46.48 23.41C44.85 23.41 44.18 22.83 44.18 21.68C44.18 20.53 44.94 19.86 46.48 19.86H49.35L49.25 21.01L49.26 21ZM56.55 15.64C57.51 15.64 58.08 15.92 58.85 16.79L59.81 15.83C58.75 14.68 57.89 14.29 56.45 14.29C53.86 14.29 51.95 16.02 51.95 19.57C51.95 23.02 53.86 24.85 56.45 24.85C57.89 24.85 58.75 24.46 59.81 23.31L58.75 22.35C57.99 23.21 57.41 23.5 56.45 23.5C55.49 23.5 54.63 23.12 54.05 22.35C53.57 21.68 53.38 20.91 53.38 19.57C53.38 18.32 53.58 17.46 54.05 16.79C54.3563 16.426 54.7392 16.1342 55.1714 15.9354C55.6036 15.7366 56.0743 15.6358 56.55 15.64ZM69.4 14.39H67.58L62.98 18.89V9.79999H61.44V24.57H62.98V20.83L64.8 19L68.25 24.57H70.07L65.85 17.95L69.4 14.4V14.39ZM76.4 14.1C74.87 14.1 73.82 14.68 73.14 15.44C72.18 16.4 71.9 17.65 71.9 19.57C71.9 21.49 72.18 22.73 73.14 23.69C73.5656 24.1243 74.0747 24.4678 74.6368 24.6998C75.1988 24.9318 75.802 25.0476 76.41 25.04C77.94 25.04 79.09 24.46 79.67 23.69C80.63 22.73 80.91 21.49 80.91 19.57C80.91 17.65 80.63 16.4 79.67 15.44C79.09 14.68 78.04 14.1 76.41 14.1H76.4ZM77.65 22.06C77.36 22.36 76.98 22.54 76.41 22.54C75.83 22.54 75.45 22.35 75.16 22.06C74.58 21.49 74.58 20.53 74.58 19.47C74.58 18.32 74.68 17.46 75.16 16.88C75.325 16.7195 75.5209 16.5942 75.7357 16.5117C75.9506 16.4292 76.18 16.3912 76.41 16.4C76.98 16.4 77.36 16.6 77.65 16.88C78.23 17.46 78.23 18.32 78.23 19.48C78.33 20.62 78.23 21.58 77.65 22.06ZM88.01 14.2L85.91 20.82L83.7 14.2H80.9L84.84 24.85H86.94L90.9 14.2H88.02H88.01ZM95.31 14.1C92.52 14.1 90.7 16.02 90.7 19.57C90.7 23.89 93.1 25.04 95.6 25.04C97.51 25.04 98.56 24.46 99.62 23.41L97.99 21.87C97.32 22.54 96.74 22.83 95.59 22.83C94.06 22.83 93.29 21.87 93.29 20.43H99.91V19.28C99.91 16.21 98.28 14.1 95.31 14.1ZM93.29 18.51C93.29 18.03 93.39 17.75 93.58 17.36C93.86 16.69 94.44 16.21 95.4 16.21C96.26 16.21 96.93 16.69 97.22 17.36C97.42 17.75 97.42 18.03 97.51 18.51H93.29ZM103.84 15.25V14.2H101.25V24.85H103.94V18.42C103.94 17.07 104.8 16.5 105.66 16.5C106.34 16.5 106.62 16.7 107.1 17.17L109.12 15.16C108.35 14.39 107.68 14.2 106.62 14.2C105.38 14.1 104.42 14.58 103.84 15.25ZM109.23 13.05V24.85H111.92V16.4H113.84V14.4H111.92V13.25C111.92 12.67 112.2 12.29 112.88 12.29H113.93V10.09H112.4C110.19 10.09 109.23 11.62 109.23 13.06V13.05ZM125.43 14.1C123.89 14.1 122.83 14.68 122.16 15.44C121.2 16.4 120.92 17.65 120.92 19.57C120.92 21.49 121.2 22.73 122.16 23.69C122.584 24.123 123.092 24.4658 123.652 24.6978C124.212 24.9298 124.814 25.0462 125.42 25.04C126.96 25.04 128.12 24.46 128.69 23.69C129.65 22.73 129.93 21.49 129.93 19.57C129.93 17.65 129.65 16.4 128.69 15.44C128.11 14.68 126.96 14.1 125.42 14.1H125.43ZM126.67 22.06C126.38 22.36 126 22.54 125.42 22.54C124.85 22.54 124.47 22.35 124.18 22.06C123.6 21.49 123.6 20.53 123.6 19.47C123.6 18.32 123.7 17.46 124.18 16.88C124.47 16.6 124.85 16.4 125.42 16.4C126 16.4 126.38 16.6 126.67 16.88C127.25 17.46 127.25 18.32 127.25 19.48C127.25 20.62 127.25 21.58 126.67 22.06ZM142.5 14.2L140.77 20.82L138.57 14.2H136.65L134.45 20.82L132.72 14.2H129.93L133.19 24.85H135.4L137.6 18.13L139.81 24.85H142.02L145.28 14.2H142.5ZM117.93 21.58V9.97999H115.25V21.78C115.25 23.31 116.21 24.85 118.32 24.85H119.85V22.64H118.89C118.22 22.64 117.93 22.25 117.93 21.58ZM41.01 16.02L42.35 14.68H39.47V11.32H37.94V21.97C37.94 23.5 38.8 24.75 40.53 24.75H41.58V23.5H40.82C39.86 23.5 39.38 22.93 39.38 21.97V16.12L41.01 16.02Z" fill="#222426"/>
<path d="M21 27V19H24V30H0V19H3V27H21Z" fill="#BCBBBB"/>
<path d="M5.4 19.1L19 21.1L19.2 18.7L5.9 16.1L5.4 19.1ZM7.2 12.3L19.2 17.9L20.3 15.5L8.3 9.90001L7.2 12.3ZM10.6 6.40001L20.8 14.9L22.5 12.9L12.3 4.40001L10.6 6.40001ZM17.1 0.200012L15 1.80001L22.9 12.4L25 10.8L17.1 0.200012ZM5 25H19V22H5V25Z" fill="#F48024"/>
</svg>
