<svg width="118" height="17" viewBox="0 0 118 17" fill="none" xmlns="http://www.w3.org/2000/svg">
<path d="M5.9 9.9L4.28 9.7C3.03 9.61 2.46 9.13 2.46 8.17C2.46 7.12 3.22 6.44 4.76 6.44C5.81 6.44 6.77 6.74 7.44 7.21L8.4 6.25C7.34293 5.49302 6.05783 5.12232 4.76 5.2C2.56 5.2 1.02 6.35 1.02 8.17C1.02 9.9 2.07 10.77 4.09 10.95L5.81 11.15C6.96 11.24 7.54 11.72 7.54 12.68C7.54 13.93 6.48 14.5 4.85 14.5C3.61 14.5 2.45 14.21 1.69 13.35L0.729996 14.31C1.88 15.37 3.23 15.75 4.95 15.75C7.45 15.75 9.07 14.6 9.07 12.68C8.88 10.76 7.64 10.08 5.91 9.9H5.9ZM18.67 5.3C17.04 5.3 15.98 5.58 15.12 6.73L16.08 7.69C16.65 6.83 17.32 6.54 18.67 6.54C20.49 6.54 21.26 7.31 21.26 8.74V9.71H18.19C15.89 9.71 14.64 10.86 14.64 12.68C14.64 13.45 14.93 14.21 15.41 14.79C16.08 15.46 16.85 15.75 18.28 15.75C19.63 15.75 20.39 15.46 21.26 14.69V15.65H22.79V8.75C22.69 6.45 21.35 5.29 18.67 5.29V5.3ZM21.26 12C21.26 12.87 21.06 13.45 20.78 13.73C20.11 14.31 19.34 14.41 18.48 14.41C16.85 14.41 16.18 13.83 16.18 12.68C16.18 11.53 16.94 10.86 18.48 10.86H21.35L21.25 12.01L21.26 12ZM28.55 6.64C29.51 6.64 30.08 6.92 30.85 7.79L31.81 6.83C30.75 5.68 29.89 5.29 28.45 5.29C25.86 5.29 23.95 7.02 23.95 10.57C23.95 14.02 25.86 15.85 28.45 15.85C29.89 15.85 30.75 15.46 31.81 14.31L30.75 13.35C29.99 14.21 29.41 14.5 28.45 14.5C27.49 14.5 26.63 14.12 26.05 13.35C25.57 12.68 25.38 11.91 25.38 10.57C25.38 9.32 25.58 8.46 26.05 7.79C26.3563 7.42605 26.7392 7.13425 27.1714 6.93545C27.6036 6.73665 28.0743 6.63577 28.55 6.64ZM41.4 5.39H39.58L34.98 9.89V0.800003H33.44V15.57H34.98V11.83L36.8 10L40.25 15.57H42.07L37.85 8.95L41.4 5.4V5.39ZM48.4 5.1C46.87 5.1 45.82 5.68 45.14 6.44C44.18 7.4 43.9 8.65 43.9 10.57C43.9 12.49 44.18 13.73 45.14 14.69C45.5656 15.1243 46.0747 15.4678 46.6368 15.6998C47.1988 15.9318 47.802 16.0476 48.41 16.04C49.94 16.04 51.09 15.46 51.67 14.69C52.63 13.73 52.91 12.49 52.91 10.57C52.91 8.65 52.63 7.4 51.67 6.44C51.09 5.68 50.04 5.1 48.41 5.1H48.4ZM49.65 13.06C49.36 13.36 48.98 13.54 48.41 13.54C47.83 13.54 47.45 13.35 47.16 13.06C46.58 12.49 46.58 11.53 46.58 10.47C46.58 9.32 46.68 8.46 47.16 7.88C47.325 7.71954 47.5209 7.59426 47.7357 7.51175C47.9506 7.42924 48.18 7.39122 48.41 7.4C48.98 7.4 49.36 7.6 49.65 7.88C50.23 8.46 50.23 9.32 50.23 10.48C50.33 11.62 50.23 12.58 49.65 13.06ZM60.01 5.2L57.91 11.82L55.7 5.2H52.9L56.84 15.85H58.94L62.9 5.2H60.02H60.01ZM67.31 5.1C64.52 5.1 62.7 7.02 62.7 10.57C62.7 14.89 65.1 16.04 67.6 16.04C69.51 16.04 70.56 15.46 71.62 14.41L69.99 12.87C69.32 13.54 68.74 13.83 67.59 13.83C66.06 13.83 65.29 12.87 65.29 11.43H71.91V10.28C71.91 7.21 70.28 5.1 67.31 5.1ZM65.29 9.51C65.29 9.03 65.39 8.75 65.58 8.36C65.86 7.69 66.44 7.21 67.4 7.21C68.26 7.21 68.93 7.69 69.22 8.36C69.42 8.75 69.42 9.03 69.51 9.51H65.29ZM75.84 6.25V5.2H73.25V15.85H75.94V9.42C75.94 8.07 76.8 7.5 77.66 7.5C78.34 7.5 78.62 7.7 79.1 8.17L81.12 6.16C80.35 5.39 79.68 5.2 78.62 5.2C77.38 5.1 76.42 5.58 75.84 6.25ZM81.23 4.05V15.85H83.92V7.4H85.84V5.4H83.92V4.24C83.92 3.66 84.2 3.28 84.88 3.28H85.93V1.08H84.4C82.19 1.08 81.23 2.61 81.23 4.05ZM97.43 5.1C95.89 5.1 94.83 5.68 94.16 6.44C93.2 7.4 92.92 8.65 92.92 10.57C92.92 12.49 93.2 13.73 94.16 14.69C94.5844 15.123 95.0919 15.4659 95.6522 15.6978C96.2124 15.9298 96.8137 16.0462 97.42 16.04C98.96 16.04 100.12 15.46 100.69 14.69C101.65 13.73 101.93 12.49 101.93 10.57C101.93 8.65 101.65 7.4 100.69 6.44C100.11 5.68 98.96 5.1 97.42 5.1H97.43ZM98.67 13.06C98.38 13.36 98 13.54 97.42 13.54C96.85 13.54 96.47 13.35 96.18 13.06C95.6 12.49 95.6 11.53 95.6 10.47C95.6 9.32 95.7 8.46 96.18 7.88C96.47 7.6 96.85 7.4 97.42 7.4C98 7.4 98.38 7.6 98.67 7.88C99.25 8.46 99.25 9.32 99.25 10.48C99.25 11.62 99.25 12.58 98.67 13.06ZM114.5 5.2L112.77 11.82L110.57 5.2H108.65L106.45 11.82L104.72 5.2H101.93L105.19 15.85H107.4L109.6 9.13L111.81 15.85H114.02L117.28 5.2H114.5ZM89.93 12.58V0.980003H87.25V12.78C87.25 14.31 88.21 15.85 90.32 15.85H91.85V13.64H90.89C90.22 13.64 89.93 13.25 89.93 12.58ZM13.01 7.02L14.35 5.68H11.47V2.32H9.93999V12.97C9.93999 14.5 10.8 15.75 12.53 15.75H13.58V14.5H12.82C11.86 14.5 11.38 13.93 11.38 12.97V7.12L13.01 7.02Z" fill="#222426"/>
</svg>
