<svg width="202" height="37" viewBox="0 0 202 37" fill="none" xmlns="http://www.w3.org/2000/svg">
<path d="M26 33V24H30V37H0V24H4V33H26Z" fill="#BCBBBB"/>
<path d="M23.0908 25.9902L23.7844 23.041L7.67993 19.687L7 23L23.0908 25.9902ZM9.1 15.2L24.1 22.2L25.5 19.2L10.5 12.2L9.1 15.2ZM13.3 7.8L26 18.4L28.1 15.9L15.4 5.3L13.3 7.8ZM21.5 0L18.8 2L28.7 15.3L31.4 13.3L21.5 0ZM7 30H23V27H7V30Z" fill="#F48024"/>
<rect x="47" y="13" width="1" height="17" fill="#D6D9DC"/>
<path d="M75.8903 24.0826H73.4616C73.2086 24.0826 73.0062 24.233 72.9556 24.4838C72.8544 24.9351 72.6521 25.3864 72.3991 25.7375C72.1461 26.0885 71.8425 26.3392 71.4883 26.5398C71.1341 26.7404 70.6788 26.8407 70.2234 26.8407C69.8186 26.8407 69.4645 26.7906 69.1103 26.6401C68.7561 26.4897 68.4525 26.2891 68.2501 26.0885C68.109 25.9486 68.0171 25.7844 67.9401 25.6468C67.9066 25.587 67.876 25.5323 67.8454 25.4867C67.7714 25.3402 67.7245 25.1668 67.6651 24.9472L67.6648 24.9461L67.6645 24.9449C67.6428 24.8646 67.6193 24.7779 67.5924 24.6844C67.5418 24.3333 67.4912 23.882 67.4406 23.4307C67.4406 23.2406 67.4316 23.0149 67.4212 22.7537C67.4069 22.3946 67.39 21.9684 67.39 21.4749C67.39 20.6224 67.39 19.9705 67.4406 19.5192C67.4406 19.0678 67.4912 18.6667 67.5924 18.2655C67.643 17.9145 67.7442 17.6637 67.8454 17.4631C67.9465 17.2625 68.0477 17.0619 68.2501 16.8614C68.5031 16.6106 68.7561 16.41 69.1103 16.3097C69.4645 16.1593 69.8186 16.1091 70.2234 16.1091C70.9318 16.1091 71.5389 16.3097 71.9943 16.7109C72.4497 17.1121 72.7533 17.6637 72.9556 18.4159C73.0062 18.6667 73.2086 18.8171 73.4616 18.8171H75.9408C76.0926 18.8171 76.2444 18.767 76.3456 18.6165C76.4468 18.5162 76.4974 18.3658 76.4468 18.2153C76.1432 16.5605 75.4349 15.2566 74.3723 14.354C73.2592 13.4513 71.8931 13 70.3246 13C69.4645 13 68.6043 13.1504 67.8454 13.4513C66.9852 13.7021 66.2769 14.1534 65.6697 14.7552C65.2649 15.2065 64.9613 15.6578 64.7084 16.1091C64.506 16.5103 64.3036 17.0118 64.2024 17.5133C64.1012 18.0147 64.0506 18.5664 64 19.118V21.4248C64 22.6785 64.0506 23.6313 64.1012 24.3333C64.1518 25.0354 64.3036 25.6873 64.5566 26.3392C64.8095 26.9911 65.2143 27.5428 65.7203 28.1445C66.0745 28.4956 66.5298 28.8466 67.0358 29.1475C67.5418 29.4484 68.0477 29.649 68.5537 29.7994C69.0597 29.9499 69.6668 30 70.2234 30C70.9824 30 71.7413 29.8997 72.3991 29.649C73.1074 29.3982 73.7146 29.0973 74.2712 28.646C74.8277 28.1947 75.2831 27.6431 75.6373 26.9911C75.9914 26.3392 76.2444 25.587 76.3962 24.7345C76.3962 24.5841 76.3962 24.4336 76.295 24.3333C76.1432 24.1327 75.9914 24.0826 75.8903 24.0826Z" fill="#222426"/>
<path fill-rule="evenodd" clip-rule="evenodd" d="M90.0087 16.6106C89.7543 15.9587 89.3981 15.3569 88.8384 14.8053C87.5663 13.6018 86.0397 13 84.2588 13C82.4778 13 80.9513 13.6018 79.7301 14.8053C79.323 15.2065 78.9668 15.6578 78.7633 16.1091C78.5597 16.5605 78.3562 17.0619 78.2544 17.5634C78.1527 18.0649 78.1018 18.6165 78.0509 19.1681C78 19.7198 78 20.5221 78 21.4749C78 22.7286 78.0509 23.6814 78.1018 24.3835C78.1526 25.0855 78.3053 25.7375 78.5597 26.3894C78.8141 27.0413 79.2212 27.5929 79.7301 28.1947C80.9513 29.3982 82.4778 30 84.2588 30C86.0397 30 87.5663 29.3982 88.8384 28.1445C89.3472 27.5929 89.7543 26.9911 90.0087 26.3392C90.2631 25.7375 90.3649 25.0354 90.4158 24.3333C90.4667 23.6814 90.4667 22.6785 90.4667 21.4248C90.4667 20.1711 90.4667 19.2183 90.4158 18.5162C90.3649 17.8643 90.2122 17.2124 90.0087 16.6106ZM87.0574 21.4749C87.0574 22.4779 87.0574 23.2802 87.0065 23.882C86.9556 24.4336 86.9048 24.885 86.7521 25.1858C86.6503 25.4867 86.4977 25.7375 86.2433 25.9882C85.7344 26.5398 85.0729 26.7906 84.2588 26.7906C83.8517 26.7906 83.4955 26.7404 83.1393 26.59C82.7831 26.4395 82.4778 26.2389 82.2743 26.0383C82.0707 25.8378 81.9181 25.6372 81.8672 25.4366C81.8163 25.3363 81.7146 25.0855 81.6637 24.6844C81.6128 24.3333 81.5619 23.9322 81.511 23.4307C81.511 23.2093 81.5011 22.9585 81.49 22.6785C81.476 22.3242 81.4601 21.923 81.4601 21.4749C81.4601 19.9705 81.511 18.8673 81.6128 18.2655C81.7146 17.7139 81.9181 17.2625 82.2234 16.9115C82.4269 16.6608 82.7322 16.4602 83.0884 16.3097C83.4446 16.1593 83.8517 16.1091 84.2079 16.1091C84.615 16.1091 84.9712 16.2094 85.3273 16.3097C85.6835 16.4602 85.9888 16.6608 86.1924 16.9115C86.4977 17.2625 86.7012 17.6637 86.803 18.2153C87.0065 18.8673 87.0574 19.9705 87.0574 21.4749Z" fill="#222426"/>
<path d="M95.5001 26.7838H102.067C102.347 26.7838 102.533 27.039 102.533 27.2943V29.4895C102.533 29.7958 102.347 30 102.067 30H92.7988C92.5193 30 92.333 29.7958 92.333 29.4895V13.5105C92.333 13.2042 92.5193 13 92.7988 13H95.0344C95.3138 13 95.5001 13.2042 95.5001 13.5105V26.7838Z" fill="#222426"/>
<path d="M114.816 26.7838H107.519V13.5105C107.519 13.2042 107.312 13 107.002 13H104.518C104.207 13 104 13.2042 104 13.5105V29.4895C104 29.7958 104.207 30 104.518 30H114.816C115.126 30 115.333 29.7958 115.333 29.4895V27.2943C115.333 27.039 115.075 26.7838 114.816 26.7838Z" fill="#222426"/>
<path d="M117.782 13H128.085C128.342 13 128.6 13.2042 128.6 13.5105V15.6547C128.6 15.961 128.394 16.1652 128.085 16.1652H120.718V19.8408H126.9C127.209 19.8408 127.415 20.045 127.415 20.3514V22.4955C127.415 22.8018 127.209 23.006 126.9 23.006H120.718V26.7838H128.085C128.394 26.7838 128.6 26.988 128.6 27.2943V29.4895C128.6 29.7958 128.394 30 128.085 30H117.782C117.473 30 117.267 29.7958 117.267 29.4895V13.5105C117.267 13.2042 117.473 13 117.782 13Z" fill="#222426"/>
<path d="M140.807 24H138.59C138.359 24 138.175 24.15 138.128 24.4C138.036 24.85 137.851 25.3 137.62 25.65C137.39 26 137.112 26.25 136.789 26.45C136.466 26.65 136.05 26.75 135.635 26.75C135.265 26.75 134.942 26.7 134.618 26.55C134.295 26.4 134.018 26.2 133.833 26C133.705 25.8606 133.621 25.6968 133.55 25.5596C133.52 25.5 133.492 25.4454 133.464 25.4C133.396 25.2536 133.353 25.0804 133.299 24.8607L133.298 24.8587L133.297 24.8514C133.277 24.7737 133.257 24.6902 133.233 24.6C133.187 24.25 133.141 23.8 133.094 23.35C133.094 23.1607 133.086 22.9361 133.077 22.676L133.077 22.675C133.064 22.3172 133.048 21.8916 133.048 21.4C133.048 20.5504 133.048 19.8999 133.094 19.45C133.094 19 133.141 18.6 133.233 18.2C133.279 17.85 133.371 17.6 133.464 17.4C133.556 17.2 133.695 17 133.833 16.85C134.064 16.6 134.295 16.4 134.618 16.3C134.942 16.15 135.265 16.1 135.635 16.1C136.281 16.1 136.835 16.3 137.251 16.7C137.667 17.1 137.944 17.65 138.128 18.4C138.175 18.65 138.359 18.8 138.59 18.8H140.853C140.992 18.8 141.13 18.75 141.223 18.6C141.315 18.5 141.361 18.35 141.315 18.2C141.038 16.55 140.392 15.25 139.422 14.35C138.406 13.45 137.159 13 135.727 13C134.942 13 134.157 13.15 133.464 13.45C132.771 13.75 132.124 14.2 131.57 14.8C131.201 15.2 130.878 15.65 130.693 16.1C130.508 16.55 130.323 17.05 130.231 17.55C130.139 18.0498 130.092 18.5997 130.046 19.1495C130 19.6995 130 20.5 130 21.45C130 22.7 130.046 23.65 130.092 24.35C130.139 25.05 130.277 25.7 130.508 26.35C130.739 27 131.108 27.55 131.57 28.15C131.894 28.5 132.309 28.85 132.771 29.15C133.233 29.45 133.695 29.65 134.157 29.8C134.618 29.95 135.173 30 135.681 30C136.373 30 137.066 29.9 137.667 29.65C138.313 29.4 138.867 29.1 139.375 28.65C139.883 28.2 140.299 27.65 140.622 27C140.946 26.35 141.177 25.6 141.315 24.75C141.315 24.6 141.315 24.45 141.223 24.35C141.084 24.05 140.946 24 140.807 24Z" fill="#222426"/>
<path d="M143.474 13H153.901C154.138 13 154.375 13.2042 154.327 13.5105V15.7057C154.327 16.012 154.138 16.2162 153.853 16.2162H150.251V29.4895C150.251 29.7958 150.062 30 149.777 30H147.55C147.265 30 147.076 29.7958 147.076 29.4895V16.2162H143.474C143.19 16.2162 143 16.012 143 15.7057V13.5105C143 13.2042 143.19 13 143.474 13Z" fill="#222426"/>
<path d="M159.834 13H157.434C157.134 13 156.934 13.2042 156.934 13.5105V29.4895C156.934 29.7958 157.134 30 157.434 30H159.834C160.134 30 160.334 29.7958 160.334 29.4895V13.5105C160.334 13.2042 160.134 13 159.834 13Z" fill="#222426"/>
<path d="M173.089 13H175.664C175.819 13 175.973 13.0511 176.128 13.2042C176.179 13.3574 176.231 13.5105 176.179 13.6637L170.823 29.6426C170.771 29.8468 170.565 30 170.359 30H168.454C168.196 30 167.99 29.8468 167.939 29.6426L162.634 13.6637C162.583 13.5105 162.583 13.3063 162.686 13.2042C162.789 13.1021 162.943 13 163.098 13H165.621C165.879 13 166.085 13.1532 166.136 13.3574L169.329 23.4655L172.574 13.3574C172.677 13.1532 172.883 13 173.089 13Z" fill="#222426"/>
<path d="M187.736 13H178.464C178.185 13 178 13.2042 178 13.5105V29.4895C178 29.7958 178.185 30 178.464 30H187.736C188.015 30 188.2 29.7958 188.2 29.4895V27.2943C188.2 26.988 188.015 26.7838 187.736 26.7838H181.106V23.006H186.67C186.948 23.006 187.134 22.8018 187.134 22.4955V20.3514C187.134 20.045 186.948 19.8408 186.67 19.8408H181.106V16.1652H187.736C188.015 16.1652 188.2 15.961 188.2 15.6547V13.5105C188.2 13.2042 188.015 13 187.736 13Z" fill="#222426"/>
<path d="M198.594 20.3869C199.107 20.5893 199.568 20.8423 199.928 21.1964C200.902 22.0565 201.415 23.2708 201.467 24.8393C201.467 25.5982 201.313 26.3065 201.005 26.9643C200.697 27.622 200.235 28.1786 199.671 28.6339C199.107 29.0893 198.44 29.4435 197.67 29.6458C196.952 29.8988 196.08 30 195.208 30C193.925 30 192.796 29.8482 191.822 29.494C190.847 29.1399 189.975 28.5833 189.154 27.7738C189.051 27.6726 189 27.5714 189 27.4196C189 27.2679 189.051 27.1667 189.154 27.0655L190.796 25.497C190.898 25.3958 191.001 25.3452 191.155 25.3452C191.309 25.3452 191.411 25.3958 191.514 25.497C191.873 25.8512 192.232 26.1042 192.591 26.3065C193.002 26.5089 193.412 26.6607 193.822 26.7619C194.233 26.8631 194.746 26.9137 195.259 26.9137C196.182 26.9137 196.901 26.7113 197.414 26.3571C197.875 26.0536 198.081 25.5982 198.081 24.9911C198.081 24.4345 197.927 23.9792 197.619 23.7262C197.465 23.5238 197.311 23.4226 197.106 23.372C197.075 23.3644 197.04 23.3555 197.002 23.3459C196.791 23.2919 196.479 23.2126 196.131 23.1696L194.233 22.9167C192.796 22.7143 191.719 22.2589 190.898 21.5C190.026 20.6905 189.564 19.5268 189.564 18.1101C189.564 17.0982 189.821 16.1875 190.283 15.4286C190.744 14.6696 191.463 14.0119 192.335 13.6071C193.207 13.2024 194.233 13 195.413 13C196.542 13 197.568 13.1518 198.388 13.4554C199.209 13.7589 200.03 14.2649 200.748 14.9226C200.851 15.0238 200.902 15.125 200.902 15.2768C200.902 15.378 200.851 15.5298 200.748 15.631L199.158 17.1488C198.953 17.3512 198.645 17.3512 198.44 17.1488C198.132 16.8452 197.824 16.6429 197.516 16.4911C197.462 16.468 197.408 16.4448 197.355 16.4221C197.062 16.2954 196.795 16.1798 196.49 16.1369C196.131 16.0863 195.721 16.0357 195.259 16.0357C194.746 16.0357 194.284 16.1369 193.925 16.2887C193.617 16.4405 193.361 16.6429 193.156 16.9464C193.002 17.25 192.899 17.5536 192.899 17.9583C192.899 18.4643 193.002 18.8185 193.309 19.0714C193.412 19.1726 193.669 19.3244 193.925 19.4256C194.233 19.5774 194.541 19.628 194.849 19.6786L196.695 19.9315C197.465 20.0327 198.081 20.1845 198.594 20.3869Z" fill="#222426"/>
</svg>
