<svg width="21" height="18" viewBox="0 0 21 18" fill="none" xmlns="http://www.w3.org/2000/svg">
<path d="M6.76941 8.70588H7.26941V8.20588V7.03482L7.56739 7.45427L7.975 8.02805L8.38261 7.45427L8.68059 7.03482V8.20588V8.70588H9.18059H10.45H10.95V8.20588V5.73997L11.246 6.14701L13.171 8.79407L13.5754 9.35013L13.9798 8.79407L15.9048 6.14701L16.4822 5.35294H15.5004H14.6254V3.5V3H14.1254H13.0284H12.5284V3.5V5.35294H11.6504H10.95V3.5V3H10.45H9.18059H8.92247L8.77298 3.21043L7.975 4.33371L7.17702 3.21043L7.02753 3H6.76941H5.5H5V3.5V8.20588V8.70588H5.5H6.76941ZM1.5 11.5H19.5V12.5H1.5V11.5ZM1.5 14.5H19.5V15.5H1.5V14.5ZM0.5 4C0.5 3.17157 1.17157 2.5 2 2.5H19C19.8284 2.5 20.5 3.17157 20.5 4V8C20.5 8.82843 19.8284 9.5 19 9.5H2C1.17157 9.5 0.5 8.82843 0.5 8V4Z" fill="#0C0D0E" stroke="#0C0D0E"/>
</svg>
