<svg width="18" height="18" viewBox="0 0 18 18" fill="none" xmlns="http://www.w3.org/2000/svg">
<path d="M10.4 9.18C9.2382 8.87801 8.00969 8.96225 6.9 9.42L1.27 1.39C1.24489 1.3529 1.23022 1.30973 1.22751 1.26502C1.2248 1.2203 1.23416 1.17568 1.2546 1.13582C1.27504 1.09596 1.30581 1.06232 1.34371 1.03843C1.3816 1.01454 1.42522 1.00126 1.47 1H4.49999L10.4 9.18ZM11.6 8.7L9.77999 6.16L13.5 1H16.52C16.5664 1 16.6119 1.01293 16.6514 1.03734C16.6909 1.06175 16.7228 1.09667 16.7436 1.1382C16.7644 1.17972 16.7732 1.22621 16.769 1.27245C16.7648 1.31869 16.7479 1.36286 16.72 1.4L11.61 8.7H11.6ZM9 17C6.8 17 4.99999 15.43 4.99999 13.5C4.99999 11.57 6.8 10 9 10C11.2 10 13 11.57 13 13.5C13 15.43 11.2 17 9 17ZM9 15.1C10.21 15.1 11.1 14.32 11.1 13.5C11.1 12.68 10.21 11.9 9 11.9C7.79 11.9 6.9 12.68 6.9 13.5C6.9 14.32 7.79 15.1 9 15.1Z" fill="black"/>
</svg>
