<svg width="18" height="18" viewBox="0 0 18 18" fill="none" xmlns="http://www.w3.org/2000/svg">
<path d="M9 17C6.8 17 5 15.43 5 13.5C5 11.57 6.8 10 9 10C11.2 10 13 11.57 13 13.5C13 15.43 11.2 17 9 17ZM9 15.1C10.21 15.1 11.1 14.32 11.1 13.5C11.1 12.68 10.21 11.9 9 11.9C7.79 11.9 6.9 12.68 6.9 13.5C6.9 14.32 7.79 15.1 9 15.1Z" fill="#FFC166"/>
<g opacity="0.4">
<path d="M6.9 9.42C8.00969 8.96225 9.2382 8.87801 10.4 9.18L4.49999 1H1.47C1.42522 1.00126 1.3816 1.01454 1.34371 1.03843C1.30581 1.06232 1.27504 1.09596 1.2546 1.13582C1.23416 1.17568 1.2248 1.2203 1.22751 1.26502C1.23022 1.30973 1.24489 1.3529 1.27 1.39L6.9 9.42Z" fill="#3F3F3F"/>
<path d="M9.77999 6.16L11.6 8.7H11.61L16.72 1.4C16.7479 1.36286 16.7648 1.31869 16.769 1.27245C16.7732 1.22621 16.7644 1.17972 16.7436 1.1382C16.7228 1.09667 16.6909 1.06175 16.6514 1.03734C16.6119 1.01293 16.5664 1 16.52 1H13.5L9.77999 6.16Z" fill="#3F3F3F"/>
</g>
</svg>
