<svg width="18" height="18" viewBox="0 0 18 18" fill="none" xmlns="http://www.w3.org/2000/svg">
<g id="Icon/Medal">
<g id="Medal">
<path d="M1.27536 1.39337C1.15938 1.22767 1.27792 1 1.48017 1H4.50001L10.4088 9.18136C9.96018 9.06312 9.48703 9 9.00001 9C8.25186 9 7.53644 9.14895 6.8925 9.41785L1.27536 1.39337Z" fill="black"/>
<path d="M11.6066 8.7049L16.7246 1.39337C16.8406 1.22767 16.7221 1 16.5198 1H13.5L9.77096 6.16329L11.6066 8.7049Z" fill="black"/>
<path fill-rule="evenodd" clip-rule="evenodd" d="M9 17C11.2091 17 13 15.433 13 13.5C13 11.567 11.2091 10 9 10C6.79086 10 5 11.567 5 13.5C5 15.433 6.79086 17 9 17ZM9 15.1C10.212 15.1 11.1 14.323 11.1 13.5C11.1 12.677 10.212 11.9 9 11.9C7.78796 11.9 6.9 12.677 6.9 13.5C6.9 14.323 7.78796 15.1 9 15.1Z" fill="black"/>
</g>
</g>
</svg>
