<svg width="20" height="18" viewBox="0 0 20 18" fill="none" xmlns="http://www.w3.org/2000/svg">
<path d="M3 12.6516L3.76015 12H9.2889L7.29569 14H4.5L1 17V3C1 1.9 1.9 1 3 1H14C15.0893 1 16 1.91067 16 3V5.26657L15.9778 5.28832L14 7.27285V3.01233L13.9943 3.00571L3 3V12.6516Z" fill="black"/>
<path d="M19.2347 7.83019L18.0937 6.71081C17.8937 6.51095 17.5837 6.51095 17.3837 6.71081L16.21 7.86474L18.0898 9.70381L19.2347 8.53968C19.4347 8.33983 19.4347 8.03005 19.2347 7.83019Z" fill="black"/>
<path d="M15.37 8.69427L9 15.12V17H10.88L17.2466 10.5703L15.37 8.69427Z" fill="black"/>
<path d="M5 6C5 5.44772 5.44772 5 6 5H11C11.5523 5 12 5.44772 12 6C12 6.55228 11.5523 7 11 7H6C5.44772 7 5 6.55228 5 6Z" fill="black"/>
<path d="M6 8C5.44772 8 5 8.44771 5 9C5 9.55229 5.44772 10 6 10H9C9.55229 10 10 9.55229 10 9C10 8.44771 9.55229 8 9 8H6Z" fill="black"/>
</svg>
