<svg width="18" height="18" viewBox="0 0 18 18" fill="none" xmlns="http://www.w3.org/2000/svg">
<path d="M5 6C5 5.44772 5.44772 5 6 5H12C12.5523 5 13 5.44772 13 6C13 6.55228 12.5523 7 12 7H6C5.44772 7 5 6.55228 5 6Z" fill="black"/>
<path d="M6 8C5.44772 8 5 8.44771 5 9C5 9.55229 5.44772 10 6 10H10C10.5523 10 11 9.55229 11 9C11 8.44771 10.5523 8 10 8H6Z" fill="black"/>
<path fill-rule="evenodd" clip-rule="evenodd" d="M1 17V3C1 1.9 1.9 1 3 1H15C16.0893 1 17 1.91067 17 3V12C17 13.0893 16.0893 14 15 14H4.5L1 17ZM3.76015 12H14.9877C14.9897 11.9985 14.992 11.9966 14.9943 11.9943C14.9961 11.9925 14.9976 11.9907 14.9989 11.9891L15 11.9877V3.01233C14.9985 3.01032 14.9966 3.00804 14.9943 3.00571C14.992 3.00339 14.9897 3.00148 14.9877 3H3V12.6516L3.76015 12Z" fill="black"/>
</svg>
