<svg width="18" height="18" viewBox="0 0 18 18" fill="none" xmlns="http://www.w3.org/2000/svg">
<path d="M5 7C5 6.44772 5.44772 6 6 6H12C12.5523 6 13 6.44772 13 7C13 7.55228 12.5523 8 12 8H6C5.44772 8 5 7.55228 5 7Z" fill="black"/>
<path d="M6 9C5.44772 9 5 9.44771 5 10C5 10.5523 5.44772 11 6 11H10C10.5523 11 11 10.5523 11 10C11 9.44771 10.5523 9 10 9H6Z" fill="black"/>
<path fill-rule="evenodd" clip-rule="evenodd" d="M1 18V4C1 2.9 1.9 2 3 2H15C16.0893 2 17 2.91067 17 4V13C17 14.0893 16.0893 15 15 15H4.5L1 18ZM3.76015 13H14.9877C14.9897 12.9985 14.992 12.9966 14.9943 12.9943C14.9961 12.9925 14.9976 12.9907 14.9989 12.9891L15 12.9877V4.01233C14.9985 4.01032 14.9966 4.00804 14.9943 4.00571C14.992 4.00339 14.9897 4.00148 14.9877 4H3V13.6516L3.76015 13Z" fill="black"/>
</svg>
