<svg width="20" height="18" viewBox="0 0 20 18" fill="none" xmlns="http://www.w3.org/2000/svg">
<path d="M3 13.6516L3.76015 13H9.2889L7.29569 15H4.5L1 18V4C1 2.9 1.9 2 3 2H14C15.0893 2 16 2.91067 16 4V6.26657L15.9778 6.28832L14 8.27285V4.01233L13.9943 4.00571L3 4V13.6516Z" fill="black"/>
<path d="M19.2347 8.83019L18.0937 7.71081C17.8937 7.51095 17.5837 7.51095 17.3837 7.71081L16.21 8.86474L18.0898 10.7038L19.2347 9.53968C19.4347 9.33983 19.4347 9.03005 19.2347 8.83019Z" fill="black"/>
<path d="M15.37 9.69427L9 16.12V18H10.88L17.2466 11.5703L15.37 9.69427Z" fill="black"/>
<path d="M5 7C5 6.44772 5.44772 6 6 6H11C11.5523 6 12 6.44772 12 7C12 7.55228 11.5523 8 11 8H6C5.44772 8 5 7.55228 5 7Z" fill="black"/>
<path d="M6 9C5.44772 9 5 9.44771 5 10C5 10.5523 5.44772 11 6 11H9C9.55229 11 10 10.5523 10 10C10 9.44771 9.55229 9 9 9H6Z" fill="black"/>
</svg>
