<svg width="27" height="12" viewBox="0 0 27 12" fill="none" xmlns="http://www.w3.org/2000/svg">
<path d="M21.3495 6.78437H22.5782L21.9724 4.72806L21.3495 6.78437Z" fill="#F2720C"/>
<path fill-rule="evenodd" clip-rule="evenodd" d="M2 0C0.895431 0 0 0.895431 0 2V10C0 11.1046 0.895431 12 2 12H25C26.1046 12 27 11.1046 27 10V2C27 0.895431 26.1046 0 25 0H2ZM13.9915 9.0625H9.99826V2.97037H13.9403V4.19904H11.5V5.37651H13.5563V6.60517H11.5V7.83383H13.9915V9.0625ZM4.5857 9.06254H3.13519V2.97041H4.54304L6.00208 5.99941L7.46111 2.97041H8.86896V9.06254H7.41845V5.77757L6.48842 7.69736H5.51573L4.5857 5.77757V9.06254ZM16.2527 9.06252V4.19906H14.6828V2.9704H19.3414V4.19906H17.7715V9.06252H16.2527ZM23.2608 9.06252L22.9366 7.98743H20.9912L20.667 9.06252H19.0288L21.2216 2.97039H22.6977L24.899 9.06252H23.2608Z" fill="#F2720C"/>
</svg>
