<svg width="18" height="18" viewBox="0 0 18 18" fill="none" xmlns="http://www.w3.org/2000/svg">
<path d="M15.25 6.25C16.3546 6.25 17.25 5.35457 17.25 4.25C17.25 3.14543 16.3546 2.25 15.25 2.25C14.1454 2.25 13.25 3.14543 13.25 4.25C13.25 5.35457 14.1454 6.25 15.25 6.25Z" fill="#5158CC"/>
<path d="M17.2 7H13V12.5C13 13.8807 14.1193 15 15.5 15C16.8807 15 18 13.8807 18 12.5V7.8C18 7.35817 17.6418 7 17.2 7Z" fill="#5158CC"/>
<path d="M12 3.5C12 4.70948 11.1411 5.71836 9.99998 5.94999V5C9.99998 3.89543 9.10455 3 7.99998 3H7.04999C7.28162 1.85888 8.2905 1 9.49998 1C10.8807 1 12 2.11929 12 3.5Z" fill="#7B82EA"/>
<path d="M9.49998 17C7.54066 17 5.8738 15.7478 5.25604 14H7.99998C9.10455 14 9.99998 13.1046 9.99998 12V7H13C13.5523 7 14 7.44772 14 8V12.5C14 14.9853 11.9853 17 9.49998 17Z" fill="#7B82EA"/>
<path fill-rule="evenodd" clip-rule="evenodd" d="M1 4C0.447715 4 0 4.44772 0 5V12C0 12.5523 0.447715 13 1 13H8C8.55228 13 9 12.5523 9 12V5C9 4.44772 8.55228 4 8 4H1ZM2 6H7V7H5V11H4V7H2V6Z" fill="#4D54BC"/>
</svg>
