<svg width="18" height="18" viewBox="0 0 18 18" fill="none" xmlns="http://www.w3.org/2000/svg">
<path d="M9.24906 8.12547C7.48896 7.668 6.92293 7.19502 6.92293 6.45842C6.92293 5.61325 7.70606 5.02397 9.01645 5.02397C10.3966 5.02397 10.9724 6.00685 11.019 6.97607H12.7325C12.6783 5.64243 11.6298 4.0512 10.0093 3.65576L10 2H8L8.0014 3.5965C6.49717 3.92215 5.01617 4.97745 5.01617 6.47392C5.01617 8.26504 6.62054 9.15673 8.78384 9.67623C10.7223 10.1415 11.11 10.8238 11.11 11.5449C11.11 12.0799 10.73 12.9328 9.01645 12.9328C7.41917 12.9328 6.79112 11.9116 6.70583 10.9967L5 11C5.09305 12.6981 6.52617 13.9563 8.01489 14.2742L8 16H10L9.99951 14.2897C11.5115 14.0028 13 13.0895 13 11.5C13 9.29793 11.0092 8.58295 9.24906 8.12547Z" fill="black"/>
</svg>
