<svg width="14" height="14" viewBox="0 0 14 14" fill="none" xmlns="http://www.w3.org/2000/svg">
<path fill-rule="evenodd" clip-rule="evenodd" d="M13 7C13 10.3137 10.3137 13 7 13C3.68629 13 1 10.3137 1 7C1 3.68629 3.68629 1 7 1C10.3137 1 13 3.68629 13 7ZM11 7C11 6.25709 10.7975 5.56149 10.4446 4.96539L4.96539 10.4446C5.56149 10.7975 6.25709 11 7 11C9.20914 11 11 9.20914 11 7ZM3.55539 9.03462L9.03462 3.55539C8.43852 3.20253 7.74291 3 7 3C4.79086 3 3 4.79086 3 7C3 7.74291 3.20253 8.43852 3.55539 9.03462Z" fill="black"/>
</svg>
