<svg width="18" height="18" viewBox="0 0 18 18" fill="none" xmlns="http://www.w3.org/2000/svg">
<path fill-rule="evenodd" clip-rule="evenodd" d="M9 17C4.58172 17 1 13.4183 1 9C1 4.58172 4.58172 1 9 1C13.4183 1 17 4.58172 17 9C17 13.4183 13.4183 17 9 17ZM9 15C12.3137 15 15 12.3137 15 9C15 7.70309 14.5885 6.50228 13.889 5.52101L5.52101 13.889C6.50228 14.5885 7.70309 15 9 15ZM4.11101 12.479L12.479 4.11101C11.4977 3.41148 10.2969 3 9 3C5.68629 3 3 5.68629 3 9C3 10.2969 3.41148 11.4977 4.11101 12.479Z" fill="black"/>
</svg>
