<svg width="18" height="18" viewBox="0 0 18 18" fill="none" xmlns="http://www.w3.org/2000/svg">
<path d="M9 1C7.95012 0.998983 6.91032 1.20518 5.94001 1.60681C4.96971 2.00844 4.08791 2.59763 3.34499 3.34073C2.60207 4.08383 2.01259 4.96627 1.61023 5.93764C1.20787 6.90901 1.00051 7.95028 1 9.00194C1.00102 10.0533 1.20875 11.0941 1.61134 12.065C2.01393 13.036 2.60349 13.918 3.34636 14.6606C4.08922 15.4033 4.97086 15.9922 5.94091 16.3936C6.91097 16.795 7.95044 17.001 9 17C10.0496 17.001 11.089 16.795 12.0591 16.3936C13.0291 15.9922 13.9108 15.4033 14.6536 14.6606C15.3965 13.918 15.9861 13.036 16.3887 12.065C16.7913 11.0941 16.999 10.0533 17 9.00194C16.9995 7.95028 16.7921 6.90901 16.3898 5.93764C15.9874 4.96627 15.3979 4.08383 14.655 3.34073C13.9121 2.59763 13.0303 2.00844 12.06 1.60681C11.0897 1.20518 10.0499 0.998983 9 1V1ZM9 13.001C8.47522 13.0015 7.95548 12.8984 7.47045 12.6978C6.98542 12.4971 6.54461 12.2026 6.17318 11.8313C5.80174 11.4599 5.50697 11.019 5.30567 10.5335C5.10438 10.048 5.00051 9.52761 5 9.00194C5.00103 7.93995 5.42291 6.9218 6.17294 6.17122C6.92297 5.42064 7.93981 4.99903 9 4.99903C9.5251 4.99852 10.0452 5.10168 10.5304 5.30262C11.0157 5.50355 11.4567 5.79833 11.8282 6.17008C12.1997 6.54184 12.4944 6.98329 12.6954 7.4692C12.8965 7.95511 13 8.47595 13 9.00194C12.9995 9.52761 12.8956 10.048 12.6943 10.5335C12.493 11.019 12.1983 11.4599 11.8268 11.8313C11.4554 12.2026 11.0146 12.4971 10.5295 12.6978C10.0445 12.8984 9.52478 13.0015 9 13.001" fill="#007DC1"/>
</svg>
