<svg width="18" height="18" viewBox="0 0 18 18" fill="none" xmlns="http://www.w3.org/2000/svg">
<g opacity="0.2">
<path d="M11 16H9V6.96875L6 7.8125V5.5625L10.5 4H11V16Z" fill="black"/>
<path d="M16.25 15C16.25 15.6904 15.6904 16.25 15 16.25C14.3096 16.25 13.75 15.6904 13.75 15C13.75 14.3096 14.3096 13.75 15 13.75C15.6904 13.75 16.25 14.3096 16.25 15Z" fill="black"/>
</g>
<path d="M9 15H7V5.96875L4 6.8125V4.5625L8.5 3H9V15Z" fill="black"/>
<path d="M14.25 14C14.25 14.6904 13.6904 15.25 13 15.25C12.3096 15.25 11.75 14.6904 11.75 14C11.75 13.3096 12.3096 12.75 13 12.75C13.6904 12.75 14.25 13.3096 14.25 14Z" fill="black"/>
</svg>
