<svg width="36" height="36" viewBox="0 0 36 36" fill="none" xmlns="http://www.w3.org/2000/svg">
<g opacity="0.2">
<path d="M16 32H20V8H19L10 11.125V15.625L16 13.9375V32Z" fill="black"/>
<path d="M27 32C28.1046 32 29 31.1046 29 30C29 28.8954 28.1046 28 27 28C25.8954 28 25 28.8954 25 30C25 31.1046 25.8954 32 27 32Z" fill="black"/>
</g>
<path d="M14 30H18V6H17L8 9.125V13.625L14 11.9375V30Z" fill="black"/>
<path d="M25 30C26.1046 30 27 29.1046 27 28C27 26.8954 26.1046 26 25 26C23.8954 26 23 26.8954 23 28C23 29.1046 23.8954 30 25 30Z" fill="black"/>
</svg>
