<svg width="18" height="18" viewBox="0 0 18 18" fill="none" xmlns="http://www.w3.org/2000/svg">
<path d="M4 5.97C3.43 5.86 3 5.35 3 4.75V3.25C3 2.56 3.56 2 4.25 2H5.75C6.44 2 7 2.56 7 3.25V4L10 1V3H11C11.78 3.03 12.46 3.35 13.06 3.94C13.66 4.53 13.96 5.22 14 6V12.02C14.57 12.14 15 12.64 15 13.25V14.75C15 15.44 14.44 16 13.75 16H12.25C11.56 16 11 15.44 11 14.75V13.25C11 12.65 11.43 12.15 12 12.03V6C11.9989 5.86979 11.9708 5.74122 11.9175 5.62244C11.8641 5.50366 11.7866 5.39727 11.69 5.31C11.48 5.11 11.27 5.02 10.99 5H9.99V7L7 4V4.75C7 5.35 6.57 5.85 6 5.97V12.03C6.57 12.14 7 12.65 7 13.25V14.75C7 15.44 6.44 16 5.75 16H4.25C3.56 16 3 15.44 3 14.75V13.25C3 12.65 3.43 12.15 4 12.03V5.97ZM6 5V3H4V5H6ZM4 13V15H6V13H4ZM12 13V15H14V13H12Z" fill="black"/>
</svg>
