<svg width="18" height="18" viewBox="0 0 18 18" fill="none" xmlns="http://www.w3.org/2000/svg">
<g id="Icon/OpenSource">
<path id="OpenSource" fill-rule="evenodd" clip-rule="evenodd" d="M11.9984 12.0253C11.4287 12.1417 11 12.6458 11 13.25V14.75C11 15.4404 11.5596 16 12.25 16H13.75C14.4404 16 15 15.4404 15 14.75V13.25C15 12.6447 14.5698 12.1399 13.9984 12.0247V6C13.9684 5.22 13.6584 4.53 13.0584 3.94C12.4584 3.35 11.7784 3.03 10.9984 3H9.99845V1L7 3.99845V3.25C7 2.55964 6.44036 2 5.75 2H4.25C3.55964 2 3 2.55964 3 3.25V4.75C3 5.35474 3.42944 5.85918 4 5.975V12.025C3.42944 12.1408 3 12.6453 3 13.25V14.75C3 15.4404 3.55964 16 4.25 16H5.75C6.44036 16 7 15.4404 7 14.75V13.25C7 12.6453 6.57056 12.1408 6 12.025V5.975C6.57056 5.85918 7 5.35474 7 4.75V4.00155L9.99845 7V5H10.9984C11.2684 5.02 11.4784 5.11 11.6884 5.31C11.8984 5.51 11.9884 5.73 11.9984 6V12.0253ZM4 5H6V3H4V5ZM12 13H14V15H12V13ZM4 15V13H6V15H4Z" fill="black"/>
</g>
</svg>
