<svg width="14" height="14" viewBox="0 0 14 14" fill="none" xmlns="http://www.w3.org/2000/svg">
<path d="M2 11C1.5 11 1 10.5 1 10C1 8 3 7 3 7C3 7 3.375 6.375 3 6C2.94063 5.94063 2.875 5.88322 2.80657 5.82337C2.44277 5.50515 2 5.11786 2 4C2 2.67188 3.15025 2 4 2C4.84975 2 6 2.67188 6 4C6 5.11786 5.55723 5.50515 5.19343 5.82337C5.125 5.88322 5.05937 5.94063 5 6C4.625 6.375 5 7 5 7C5 7 7 8 7 10C7 10.5 6.5 11 6 11H2Z" fill="black"/>
<path d="M8 12C7.5 12 7 11.5 7 11C7 9 9 8 9 8C9 8 9.375 7.375 9 7C8.94063 6.94063 8.875 6.88322 8.80657 6.82337C8.44277 6.50516 8 6.11786 8 5C8 3.67188 9.15025 3 10 3C10.8498 3 12 3.67188 12 5C12 6.11786 11.5572 6.50515 11.1934 6.82337C11.125 6.88322 11.0594 6.94063 11 7C10.625 7.375 11 8 11 8C11 8 13 9 13 11C13 11.5 12.5 12 12 12H8Z" fill="black"/>
</svg>
