<svg width="18" height="18" viewBox="0 0 18 18" fill="none" xmlns="http://www.w3.org/2000/svg">
<path d="M17 13.999C17 14.438 16.55 14.999 16 14.999H8.995C8.456 14.999 8.001 14.552 8 14H2C1.46 14 1 13.439 1 13C1 10.366 4 9 4 9C4 9 4.229 8.591 4 8C3.159 7.379 2.942 7.41 3 5C3.058 2.581 4.367 2 5.5 2C6.633 2 7.942 2.58 8 5C8.058 7.41 7.841 7.379 7 8C6.771 8.59 7 9 7 9C7 9 8.549 9.711 9.42 11.088C10.196 10.369 11 9.999 11 9.999C11 9.999 11.229 9.59 11 8.999C10.159 8.379 9.942 8.409 10 5.999C10.058 3.58 11.367 2.999 12.5 2.999C13.633 2.999 14.937 3.58 14.995 5.999C15.054 8.409 14.837 8.379 13.995 8.999C13.766 9.589 13.995 9.999 13.995 9.999C13.995 9.999 17 11.365 17 13.999Z" fill="black"/>
</svg>
