<svg width="18" height="18" viewBox="0 0 18 18" fill="none" xmlns="http://www.w3.org/2000/svg">
<path d="M7 9H10V11H7V14H5V11H2V9H5V6H7V9Z" fill="#9966CB"/>
<path d="M17 15H15V6.3125L12 7.29688V5.46094L16.7578 3.67188H17V15Z" fill="#9966CB"/>
<g opacity="0.7">
<path d="M2.70564 6.94864C2.64383 6.97268 2.57786 6.98418 2.51157 6.98247C2.3877 6.99816 2.26251 6.96597 2.16157 6.89247L1.16157 5.89247C1.11471 5.84599 1.07751 5.79069 1.05213 5.72976C1.02674 5.66883 1.01367 5.60348 1.01367 5.53747C1.01367 5.47147 1.02674 5.40611 1.05213 5.34518C1.07751 5.28425 1.11471 5.22895 1.16157 5.18247C1.25672 5.09022 1.38404 5.03864 1.51657 5.03864C1.6491 5.03864 1.77642 5.09022 1.87157 5.18247L2.87157 6.13247C2.96382 6.22762 3.01541 6.35495 3.01541 6.48747C3.01541 6.62 2.96382 6.74732 2.87157 6.84247C2.82385 6.88852 2.76744 6.9246 2.70564 6.94864Z" fill="#F75D37"/>
<path d="M9.35472 6.94864C9.41653 6.97268 9.4825 6.98418 9.54879 6.98247C9.67266 6.99816 9.79785 6.96597 9.89879 6.89247L10.8988 5.89247C10.9457 5.84599 10.9829 5.79069 11.0082 5.72976C11.0336 5.66883 11.0467 5.60348 11.0467 5.53747C11.0467 5.47147 11.0336 5.40611 11.0082 5.34518C10.9829 5.28425 10.9457 5.22895 10.8988 5.18247C10.8036 5.09022 10.6763 5.03864 10.5438 5.03864C10.4113 5.03864 10.2839 5.09022 10.1888 5.18247L9.18879 6.13247C9.09654 6.22762 9.04495 6.35495 9.04495 6.48747C9.04495 6.62 9.09654 6.74732 9.18879 6.84247C9.23651 6.88852 9.29292 6.9246 9.35472 6.94864Z" fill="#F75D37"/>
<path d="M10.4959 14.9825C10.5622 14.9842 10.6282 14.9727 10.69 14.9486C10.7518 14.9246 10.8082 14.8885 10.8559 14.8425C10.9482 14.7473 10.9998 14.62 10.9998 14.4875C10.9998 14.3549 10.9482 14.2276 10.8559 14.1325L9.85595 13.1825C9.7608 13.0902 9.63347 13.0386 9.50095 13.0386C9.36842 13.0386 9.2411 13.0902 9.14595 13.1825C9.09908 13.229 9.06188 13.2843 9.0365 13.3452C9.01112 13.4061 8.99805 13.4715 8.99805 13.5375C8.99805 13.6035 9.01112 13.6688 9.0365 13.7298C9.06188 13.7907 9.09908 13.846 9.14595 13.8925L10.1459 14.8925C10.2469 14.966 10.3721 14.9982 10.4959 14.9825Z" fill="#F75D37"/>
<path d="M1.32347 14.9486C1.38528 14.9727 1.45125 14.9842 1.51754 14.9825C1.64141 14.9982 1.7666 14.966 1.86754 14.8925L2.86754 13.8925C2.9144 13.846 2.9516 13.7907 2.97698 13.7298C3.00237 13.6688 3.01544 13.6035 3.01544 13.5375C3.01544 13.4715 3.00237 13.4061 2.97698 13.3452C2.9516 13.2843 2.9144 13.229 2.86754 13.1825C2.77239 13.0902 2.64507 13.0386 2.51254 13.0386C2.38001 13.0386 2.25269 13.0902 2.15754 13.1825L1.15754 14.1325C1.06529 14.2276 1.0137 14.3549 1.0137 14.4875C1.0137 14.62 1.06529 14.7473 1.15754 14.8425C1.20526 14.8885 1.26167 14.9246 1.32347 14.9486Z" fill="#F75D37"/>
</g>
<g opacity="0.4">
<path d="M6 5C6.27614 5 6.5 4.77614 6.5 4.5C6.5 4.22386 6.27614 4 6 4C5.72386 4 5.5 4.22386 5.5 4.5C5.5 4.77614 5.72386 5 6 5Z" fill="black"/>
<path d="M0.5 10.5C0.776142 10.5 1 10.2761 1 10C1 9.72386 0.776142 9.5 0.5 9.5C0.223858 9.5 0 9.72386 0 10C0 10.2761 0.223858 10.5 0.5 10.5Z" fill="black"/>
<path d="M12 10C12 10.2761 11.7761 10.5 11.5 10.5C11.2239 10.5 11 10.2761 11 10C11 9.72386 11.2239 9.5 11.5 9.5C11.7761 9.5 12 9.72386 12 10Z" fill="black"/>
<path d="M6 16C6.27614 16 6.5 15.7761 6.5 15.5C6.5 15.2239 6.27614 15 6 15C5.72386 15 5.5 15.2239 5.5 15.5C5.5 15.7761 5.72386 16 6 16Z" fill="black"/>
</g>
</svg>
