<svg width="14" height="14" viewBox="0 0 14 14" fill="none" xmlns="http://www.w3.org/2000/svg">
<path fill-rule="evenodd" clip-rule="evenodd" d="M2.5 1C1.67157 1 1 1.67157 1 2.5V11.5C1 12.3284 1.67157 13 2.5 13H11.5C12.3284 13 13 12.3284 13 11.5V2.5C13 1.67157 12.3284 1 11.5 1H2.5ZM5 4C5 3.44772 5.44771 3 6 3H10C10.5523 3 11 3.44772 11 4V8C11 8.55228 10.5523 9 10 9C9.44771 9 9 8.55228 9 8V6.41421L4.91421 10.5C4.52369 10.8905 3.89052 10.8905 3.5 10.5C3.10947 10.1095 3.10948 9.47631 3.5 9.08579L7.58579 5H6C5.44771 5 5 4.55228 5 4Z" fill="black"/>
</svg>
