<svg width="18" height="18" viewBox="0 0 18 18" fill="none" xmlns="http://www.w3.org/2000/svg">
<path fill-rule="evenodd" clip-rule="evenodd" d="M3 1C1.89543 1 1 1.89543 1 3V15C1 16.1046 1.89543 17 3 17H15C16.1046 17 17 16.1046 17 15V3C17 1.89543 16.1046 1 15 1H3ZM7 5C7 4.44772 7.44771 4 8 4H13C13.5523 4 14 4.44772 14 5V10C14 10.5523 13.5523 11 13 11C12.4477 11 12 10.5523 12 10V7.41421L5.91421 13.5C5.52369 13.8905 4.89052 13.8905 4.5 13.5C4.10947 13.1095 4.10948 12.4763 4.5 12.0858L10.5858 6H8C7.44771 6 7 5.55228 7 5Z" fill="black"/>
</svg>
