<svg width="18" height="18" viewBox="0 0 18 18" fill="none" xmlns="http://www.w3.org/2000/svg">
<path d="M4 14L1 17V3C1 1.9 1.9 1 3 1H15C16.0893 1 17 1.91067 17 3V12C17 13.0893 16.0893 14 15 14H4ZM11.75 10.03C12.4681 9.19969 12.73 8.1746 12.73 7.09C12.73 5.43874 12.0227 3.87481 10.4238 3.25938C9.49912 2.90349 8.33186 2.90525 7.40679 3.25876C5.86053 3.84965 4.98984 5.46093 5.09 7.09C5.09 8.38 5.44 9.38 6.12 10.09C6.8684 10.8244 7.92321 11.2204 8.97 11.16C9.59 11.16 10.17 11.05 10.68 10.82C11.33 11.26 11.68 11.5 11.74 11.52C11.97 11.65 12.2 11.75 12.44 11.82L13.03 10.69C12.5748 10.5304 12.144 10.3083 11.75 10.03ZM10.48 9.13C10.0254 8.78581 9.5191 8.5158 8.98 8.33L8.53 9.23C8.86 9.35 9.19 9.52 9.51 9.73C9.31 9.8 9.09 9.84 8.86 9.84C8.25 9.84 7.74 9.61 7.34 9.16C6.47643 8.1669 6.47638 6.04317 7.34 5.05C8.14101 4.1487 9.6891 4.14836 10.49 5.05C11.3922 6.06498 11.3547 8.08037 10.48 9.13Z" fill="black"/>
</svg>
