<svg width="18" height="18" viewBox="0 0 18 18" fill="none" xmlns="http://www.w3.org/2000/svg">
<path d="M4 14L1 17V3C1 1.9 1.9 1 3 1H15C15.5304 1 16.0391 1.21071 16.4142 1.58579C16.7893 1.96086 17 2.46957 17 3V12C17 12.5304 16.7893 13.0391 16.4142 13.4142C16.0391 13.7893 15.5304 14 15 14H4ZM11.75 10.03C12.07 9.66 12.3 9.28 12.45 8.88C12.63 8.37 12.73 7.77 12.73 7.09C12.73 5.8 12.38 4.8 11.7 4.09C11.3375 3.72672 10.9027 3.44372 10.4238 3.25938C9.94485 3.07505 9.4325 2.99349 8.92 3.02C8.40446 2.99315 7.88902 3.07448 7.40679 3.25876C6.92457 3.44304 6.48625 3.72619 6.12 4.09C5.39298 4.91417 5.02256 5.99307 5.09 7.09C5.09 8.38 5.44 9.38 6.12 10.09C6.4942 10.4572 6.94106 10.7421 7.43187 10.9263C7.92268 11.1106 8.44661 11.1902 8.97 11.16C9.59 11.16 10.17 11.05 10.68 10.82C11.33 11.26 11.68 11.5 11.74 11.52C11.97 11.65 12.2 11.75 12.44 11.82L13.03 10.69C12.5748 10.5304 12.144 10.3083 11.75 10.03ZM10.48 9.13C10.0254 8.78581 9.5191 8.5158 8.98 8.33L8.53 9.23C8.86 9.35 9.19 9.52 9.51 9.73C9.31 9.8 9.09 9.84 8.86 9.84C8.25 9.84 7.74 9.61 7.34 9.16C6.94 8.7 6.74 8.01 6.74 7.09C6.74 6.19 6.94 5.51 7.34 5.05C7.53605 4.8294 7.77849 4.65493 8.04993 4.53909C8.32137 4.42325 8.61508 4.36892 8.91 4.38C9.20658 4.36743 9.50223 4.42103 9.77552 4.53691C10.0488 4.6528 10.2929 4.82807 10.49 5.05C10.89 5.5 11.09 6.18 11.09 7.09C11.09 7.53 11.04 7.92 10.93 8.26C10.83 8.6 10.68 8.89 10.48 9.13Z" fill="black"/>
</svg>
