<svg width="18" height="18" viewBox="0 0 18 18" fill="none" xmlns="http://www.w3.org/2000/svg">
<path d="M7.65381 10.6859H9.07183C9.46173 10.6859 9.7652 10.594 9.98223 10.41C10.2029 10.2224 10.3133 9.96495 10.3133 9.63757C10.3133 8.9019 9.93257 8.52854 9.17114 8.5175H7.65381V10.6859Z" fill="black"/>
<path d="M8.87871 7.34778C9.7137 7.33307 10.1312 7.00017 10.1312 6.3491C10.1312 5.98494 10.0245 5.72377 9.81118 5.5656C9.60151 5.40375 9.26862 5.32283 8.8125 5.32283H7.65381V7.34778H8.87871Z" fill="black"/>
<path fill-rule="evenodd" clip-rule="evenodd" d="M1 18L4 15H15C16.0893 15 17 14.0893 17 13V4C17 2.91067 16.0893 2 15 2H3C1.9 2 1 2.9 1 4V18ZM5.99854 3.98206H8.8125C9.78727 3.98206 10.5266 4.16965 11.0306 4.54485C11.5345 4.91637 11.7865 5.46261 11.7865 6.18357C11.7865 6.57716 11.6853 6.92476 11.483 7.22639C11.2807 7.52434 10.9993 7.7432 10.6388 7.88298C11.0508 7.98598 11.3745 8.19381 11.6099 8.50647C11.849 8.81913 11.9686 9.20168 11.9686 9.65413C11.9686 10.4266 11.7221 11.0115 11.2292 11.4087C10.7363 11.806 10.0337 12.0083 9.12148 12.0156H5.99854V3.98206Z" fill="black"/>
</svg>
