<svg width="18" height="18" viewBox="0 0 18 18" fill="none" xmlns="http://www.w3.org/2000/svg">
<path d="M4 15L1 18V4C1 2.9 1.9 2 3 2H15C16.0893 2 17 2.91067 17 4V13C17 14.0893 16.0893 15 15 15H4ZM11.75 11.03C12.4681 10.1997 12.73 9.1746 12.73 8.09C12.73 6.43874 12.0227 4.87481 10.4238 4.25938C9.49912 3.90349 8.33186 3.90525 7.40679 4.25876C5.86053 4.84965 4.98984 6.46093 5.09 8.09C5.09 9.38 5.44 10.38 6.12 11.09C6.8684 11.8244 7.92321 12.2204 8.97 12.16C9.59 12.16 10.17 12.05 10.68 11.82C11.33 12.26 11.68 12.5 11.74 12.52C11.97 12.65 12.2 12.75 12.44 12.82L13.03 11.69C12.5748 11.5304 12.144 11.3083 11.75 11.03ZM10.48 10.13C10.0254 9.78581 9.5191 9.5158 8.98 9.33L8.53 10.23C8.86 10.35 9.19 10.52 9.51 10.73C9.31 10.8 9.09 10.84 8.86 10.84C8.25 10.84 7.74 10.61 7.34 10.16C6.47643 9.1669 6.47638 7.04317 7.34 6.05C8.14101 5.1487 9.6891 5.14836 10.49 6.05C11.3922 7.06498 11.3547 9.08037 10.48 10.13Z" fill="black"/>
</svg>
