<svg width="18" height="18" viewBox="0 0 18 18" fill="none" xmlns="http://www.w3.org/2000/svg">
<path d="M9.13252 6.84436C9.57025 6.84436 9.90314 6.74137 10.1312 6.53538C10.3629 6.32939 10.4788 6.03512 10.4788 5.65256C10.4788 5.25898 10.3629 4.9408 10.1312 4.69802C9.89946 4.45525 9.57944 4.33018 9.17114 4.32283H7.65381V6.84436H9.13252Z" fill="black"/>
<path fill-rule="evenodd" clip-rule="evenodd" d="M1 17L4 14H15C16.0893 14 17 13.0893 17 12V3C17 1.91067 16.0893 1 15 1H3C1.9 1 1 1.9 1 3V17ZM7.65381 11.0156H5.99854V2.98206H9.13252C9.73577 2.98206 10.2655 3.09241 10.7216 3.31311C11.1814 3.53381 11.5345 3.84832 11.781 4.25662C12.0274 4.66124 12.1506 5.12288 12.1506 5.64153C12.1506 6.4287 11.8803 7.05035 11.3396 7.50647C10.8025 7.95891 10.0576 8.18513 9.10493 8.18513H7.65381V11.0156Z" fill="black"/>
</svg>
