<svg width="18" height="18" viewBox="0 0 18 18" fill="none" xmlns="http://www.w3.org/2000/svg">
<path d="M7.65381 9.68591H9.07183C9.46173 9.68591 9.7652 9.59395 9.98223 9.41003C10.2029 9.22244 10.3133 8.96495 10.3133 8.63757C10.3133 7.9019 9.93257 7.52854 9.17114 7.5175H7.65381V9.68591Z" fill="black"/>
<path d="M8.87871 6.34778C9.7137 6.33307 10.1312 6.00017 10.1312 5.3491C10.1312 4.98494 10.0245 4.72377 9.81118 4.5656C9.60151 4.40375 9.26862 4.32283 8.8125 4.32283H7.65381V6.34778H8.87871Z" fill="black"/>
<path fill-rule="evenodd" clip-rule="evenodd" d="M1 17L4 14H15C16.0893 14 17 13.0893 17 12V3C17 1.91067 16.0893 1 15 1H3C1.9 1 1 1.9 1 3V17ZM5.99854 2.98206H8.8125C9.78727 2.98206 10.5266 3.16965 11.0306 3.54485C11.5345 3.91637 11.7865 4.46261 11.7865 5.18357C11.7865 5.57716 11.6853 5.92476 11.483 6.22639C11.2807 6.52434 10.9993 6.7432 10.6388 6.88298C11.0508 6.98598 11.3745 7.19381 11.6099 7.50647C11.849 7.81913 11.9686 8.20168 11.9686 8.65413C11.9686 9.42659 11.7221 10.0115 11.2292 10.4087C10.7363 10.806 10.0337 11.0083 9.12148 11.0156H5.99854V2.98206Z" fill="black"/>
</svg>
