<svg width="18" height="18" viewBox="0 0 18 18" fill="none" xmlns="http://www.w3.org/2000/svg">
<path d="M9.13252 7.84436C9.57025 7.84436 9.90314 7.74137 10.1312 7.53538C10.3629 7.32939 10.4788 7.03512 10.4788 6.65256C10.4788 6.25898 10.3629 5.9408 10.1312 5.69802C9.89946 5.45525 9.57944 5.33018 9.17114 5.32283H7.65381V7.84436H9.13252Z" fill="black"/>
<path fill-rule="evenodd" clip-rule="evenodd" d="M1 18L4 15H15C16.0893 15 17 14.0893 17 13V4C17 2.91067 16.0893 2 15 2H3C1.9 2 1 2.9 1 4V18ZM7.65381 12.0156H5.99854V3.98206H9.13252C9.73577 3.98206 10.2655 4.09241 10.7216 4.31311C11.1814 4.53381 11.5345 4.84832 11.781 5.25662C12.0274 5.66124 12.1506 6.12288 12.1506 6.64153C12.1506 7.4287 11.8803 8.05035 11.3396 8.50647C10.8025 8.95891 10.0576 9.18513 9.10493 9.18513H7.65381V12.0156Z" fill="black"/>
</svg>
