<svg width="18" height="18" viewBox="0 0 18 18" fill="none" xmlns="http://www.w3.org/2000/svg">
<g id="Icon/Question">
<g id="Question">
<path d="M10.9348 8.26099C10.8328 8.60116 10.6797 8.89119 10.4756 9.1311C9.99935 8.77303 9.49984 8.50448 8.97705 8.32544L8.53125 9.23315C8.86426 9.35132 9.19189 9.51603 9.51416 9.72729C9.31006 9.80249 9.09343 9.84009 8.86426 9.84009C8.24837 9.84009 7.73902 9.61182 7.33618 9.15527C6.93335 8.69873 6.73193 8.01034 6.73193 7.09009C6.73193 6.18416 6.93335 5.50562 7.33618 5.05444C7.73902 4.60327 8.26448 4.37769 8.9126 4.37769C9.56071 4.37769 10.0853 4.60237 10.4863 5.05176C10.8874 5.50114 11.0879 6.18058 11.0879 7.09009C11.0879 7.53052 11.0369 7.92082 10.9348 8.26099Z" fill="black"/>
<path fill-rule="evenodd" clip-rule="evenodd" d="M1 17L4 14H15C16.1046 14 17 13.1046 17 12V3C17 1.89543 16.1046 1 15 1H3C1.89543 1 1 1.89543 1 3V17ZM13.0269 10.6941C12.5685 10.5294 12.1442 10.3074 11.7539 10.0281C12.069 9.65926 12.2982 9.27792 12.4414 8.88403C12.6312 8.36841 12.7261 7.77043 12.7261 7.09009C12.7261 5.8046 12.3841 4.80469 11.7002 4.09033C11.0163 3.37597 10.0907 3.0188 8.92334 3.0188C7.74527 3.0188 6.8125 3.37597 6.125 4.09033C5.4375 4.80469 5.09375 5.8046 5.09375 7.09009C5.09375 8.37916 5.4366 9.37996 6.12231 10.0925C6.80803 10.8051 7.75602 11.1614 8.96631 11.1614C9.59294 11.1614 10.1641 11.0486 10.6797 10.823C11.335 11.2634 11.6877 11.4962 11.7378 11.5212C11.967 11.6466 12.2015 11.745 12.4414 11.8167L13.0269 10.6941Z" fill="black"/>
</g>
</g>
</svg>
