<svg width="18" height="18" viewBox="0 0 18 18" fill="none" xmlns="http://www.w3.org/2000/svg">
<g id="Icon/Relocation">
<path id="Relocation" fill-rule="evenodd" clip-rule="evenodd" d="M13 5H15L18 9V14H17C17 15.66 15.66 17 14 17C12.34 17 11 15.66 11 14H7C7 15.66 5.66 17 4 17C2.34 17 1 15.66 1 14H0V3C0 1.89543 0.89543 1 2 1H13V5ZM2.5 14C2.5 14.83 3.17 15.5 4 15.5C4.83 15.5 5.5 14.83 5.5 14C5.5 13.17 4.83 12.5 4 12.5C3.17 12.5 2.5 13.17 2.5 14ZM14.5 6.5L16.5 9H13V6.5H14.5ZM12.5 14C12.5 14.83 13.17 15.5 14 15.5C14.83 15.5 15.5 14.83 15.5 14C15.5 13.17 14.83 12.5 14 12.5C13.17 12.5 12.5 13.17 12.5 14Z" fill="black"/>
</g>
</svg>
