<svg width="14" height="14" viewBox="0 0 14 14" fill="none" xmlns="http://www.w3.org/2000/svg">
<path fill-rule="evenodd" clip-rule="evenodd" d="M10 3H8V1H2C0.910666 1 0 1.91067 0 3V11H0.708022C1.0938 11.883 1.97484 12.5 3 12.5C4.02516 12.5 4.9062 11.883 5.29198 11H7.70802C8.0938 11.883 8.97484 12.5 10 12.5C11.0252 12.5 11.9062 11.883 12.292 11H13V7L10 3ZM9.5 4.5L11.5 7H8V4.5H9.5ZM4.2 10C4.2 10.6628 3.66274 11.2 3 11.2C2.33726 11.2 1.8 10.6628 1.8 10C1.8 9.33731 2.33726 8.80005 3 8.80005C3.66274 8.80005 4.2 9.33731 4.2 10ZM11.2 10C11.2 10.6628 10.6627 11.2 10 11.2C9.33726 11.2 8.8 10.6628 8.8 10C8.8 9.33731 9.33726 8.80005 10 8.80005C10.6627 8.80005 11.2 9.33731 11.2 10Z" fill="black"/>
</svg>
