<svg width="18" height="18" viewBox="0 0 18 18" fill="none" xmlns="http://www.w3.org/2000/svg">
<path d="M15 5H13V1H2C1.46957 1 0.960859 1.21071 0.585786 1.58579C0.210714 1.96086 0 2.46957 0 3L0 14H1C1 14.394 1.0776 14.7841 1.22836 15.1481C1.37913 15.512 1.6001 15.8427 1.87868 16.1213C2.15726 16.3999 2.48797 16.6209 2.85195 16.7716C3.21593 16.9224 3.60603 17 4 17C4.39397 17 4.78407 16.9224 5.14805 16.7716C5.51203 16.6209 5.84274 16.3999 6.12132 16.1213C6.3999 15.8427 6.62087 15.512 6.77164 15.1481C6.9224 14.7841 7 14.394 7 14H11C11 14.394 11.0776 14.7841 11.2284 15.1481C11.3791 15.512 11.6001 15.8427 11.8787 16.1213C12.1573 16.3999 12.488 16.6209 12.8519 16.7716C13.2159 16.9224 13.606 17 14 17C14.394 17 14.7841 16.9224 15.1481 16.7716C15.512 16.6209 15.8427 16.3999 16.1213 16.1213C16.3999 15.8427 16.6209 15.512 16.7716 15.1481C16.9224 14.7841 17 14.394 17 14H18V9L15 5ZM4 15.5C3.60218 15.5 3.22064 15.342 2.93934 15.0607C2.65804 14.7794 2.5 14.3978 2.5 14C2.5 13.6022 2.65804 13.2206 2.93934 12.9393C3.22064 12.658 3.60218 12.5 4 12.5C4.39782 12.5 4.77936 12.658 5.06066 12.9393C5.34196 13.2206 5.5 13.6022 5.5 14C5.5 14.3978 5.34196 14.7794 5.06066 15.0607C4.77936 15.342 4.39782 15.5 4 15.5ZM14.5 6.5L16.5 9H13V6.5H14.5ZM14 15.5C13.6022 15.5 13.2206 15.342 12.9393 15.0607C12.658 14.7794 12.5 14.3978 12.5 14C12.5 13.6022 12.658 13.2206 12.9393 12.9393C13.2206 12.658 13.6022 12.5 14 12.5C14.3978 12.5 14.7794 12.658 15.0607 12.9393C15.342 13.2206 15.5 13.6022 15.5 14C15.5 14.3978 15.342 14.7794 15.0607 15.0607C14.7794 15.342 14.3978 15.5 14 15.5Z" fill="black"/>
</svg>
