<svg width="14" height="14" viewBox="0 0 14 14" fill="none" xmlns="http://www.w3.org/2000/svg">
<path d="M13.3646 4.6375L11.9504 6.05172C9.21676 3.31805 4.7846 3.31805 2.05093 6.05172L0.636719 4.6375C4.15144 1.12279 9.84992 1.12279 13.3646 4.6375Z" fill="black"/>
<path d="M3.46521 7.46587C5.41783 5.51325 8.58366 5.51325 10.5363 7.46587L9.12206 8.88009C7.95049 7.70851 6.051 7.70851 4.87942 8.88009L3.46521 7.46587Z" fill="black"/>
<path d="M7 12C7.55228 12 8 11.5523 8 11C8 10.4477 7.55228 10 7 10C6.44772 10 6 10.4477 6 11C6 11.5523 6.44772 12 7 12Z" fill="black"/>
</svg>
