<svg width="18" height="18" viewBox="0 0 18 18" fill="none" xmlns="http://www.w3.org/2000/svg">
<path fill-rule="evenodd" clip-rule="evenodd" d="M12.1056 2.55279C12.275 2.214 12.6212 2 13 2H16.5C17.0523 2 17.5 2.44772 17.5 3C17.5 3.55228 17.0523 4 16.5 4H13.618L11.8944 7.44721C11.725 7.786 11.3788 8 11 8H6.1697L2.92468 15.8807C2.7144 16.3914 2.12994 16.635 1.61925 16.4247C1.10857 16.2144 0.865043 15.6299 1.07533 15.1193L4.57533 6.61925C4.72961 6.24455 5.09478 6 5.5 6H10.382L12.1056 2.55279Z" fill="black"/>
<g opacity="0.2">
<path d="M1 3C1 2.44772 1.44772 2 2 2H8C8.55229 2 9 2.44772 9 3C9 3.55228 8.55229 4 8 4H2C1.44772 4 1 3.55228 1 3Z" fill="black"/>
<path d="M1 7C1 6.44772 1.44772 6 2 6C2.55228 6 3 6.44772 3 7C3 7.55228 2.55228 8 2 8C1.44772 8 1 7.55228 1 7Z" fill="black"/>
<path d="M15 6C14.4477 6 14 6.44772 14 7C14 7.55228 14.4477 8 15 8H16C16.5523 8 17 7.55228 17 7C17 6.44772 16.5523 6 16 6H15Z" fill="black"/>
<path d="M7 11C7 10.4477 7.44772 10 8 10H16C16.5523 10 17 10.4477 17 11C17 11.5523 16.5523 12 16 12H8C7.44772 12 7 11.5523 7 11Z" fill="black"/>
<path d="M6 14C5.44772 14 5 14.4477 5 15C5 15.5523 5.44771 16 6 16H16C16.5523 16 17 15.5523 17 15C17 14.4477 16.5523 14 16 14H6Z" fill="black"/>
</g>
</svg>
