<svg width="14" height="14" viewBox="0 0 14 14" fill="none" xmlns="http://www.w3.org/2000/svg">
<path fill-rule="evenodd" clip-rule="evenodd" d="M9.66747 1.49972C9.84614 1.19048 10.1762 1 10.5333 1H12C12.5523 1 13 1.44772 13 2C13 2.55228 12.5523 3 12 3H11.1105L9.66586 5.50028C9.48719 5.80952 9.15715 6 8.8 6H6.61803L3.39443 12.4472C3.14744 12.9412 2.54676 13.1414 2.05278 12.8944C1.55881 12.6474 1.35858 12.0468 1.60557 11.5528L5.10557 4.55279C5.27496 4.214 5.62123 4 6 4H8.22286L9.66747 1.49972Z" fill="black"/>
<g opacity="0.2">
<path d="M1 2C1 1.44772 1.44772 1 2 1H7C7.55228 1 8 1.44772 8 2C8 2.55228 7.55228 3 7 3H2C1.44772 3 1 2.55228 1 2Z" fill="black"/>
<path d="M1 5C1 4.44772 1.44772 4 2 4C2.55228 4 3 4.44772 3 5C3 5.55228 2.55228 6 2 6C1.44772 6 1 5.55228 1 5Z" fill="black"/>
<path d="M12 4C11.4477 4 11 4.44772 11 5C11 5.55228 11.4477 6 12 6C12.5523 6 13 5.55228 13 5C13 4.44772 12.5523 4 12 4Z" fill="black"/>
<path d="M8 8C8 7.44772 8.44771 7 9 7H12C12.5523 7 13 7.44772 13 8C13 8.55229 12.5523 9 12 9H9C8.44771 9 8 8.55229 8 8Z" fill="black"/>
<path d="M7 10C6.44772 10 6 10.4477 6 11C6 11.5523 6.44772 12 7 12H12C12.5523 12 13 11.5523 13 11C13 10.4477 12.5523 10 12 10H7Z" fill="black"/>
</g>
</svg>
