<svg width="18" height="18" viewBox="0 0 18 18" fill="none" xmlns="http://www.w3.org/2000/svg">
<path d="M16 7.5L11 12.47L9.21 10.7C9.02307 10.5168 8.77175 10.4141 8.51 10.4141C8.24825 10.4141 7.99693 10.5168 7.81 10.7L5.71 12.8C5.52677 12.9869 5.42414 13.2382 5.42414 13.5C5.42414 13.7618 5.52677 14.0131 5.71 14.2L8.5 17H2C1.46957 17 0.960859 16.7893 0.585786 16.4142C0.210714 16.0391 0 15.5304 0 15V3C0 1.9 0.9 1 2 1H14C14.5304 1 15.0391 1.21071 15.4142 1.58579C15.7893 1.96086 16 2.46957 16 3V7.5ZM12 7H2V9H12V7ZM14 3H2V5H14V3ZM2 11V13H5V11H2ZM18 10.5L11 17.5L7 13.5L8.5 12L11 14.5L16.5 9L18 10.5Z" fill="black"/>
</svg>
