<svg width="18" height="18" viewBox="0 0 18 18" fill="none" xmlns="http://www.w3.org/2000/svg">
<path fill-rule="evenodd" clip-rule="evenodd" d="M11 12.47L16 7.5V3C16 2.46957 15.7893 1.96086 15.4142 1.58579C15.0391 1.21071 14.5304 1 14 1H2C0.9 1 0 1.9 0 3V15C0 15.5304 0.210714 16.0391 0.585786 16.4142C0.960859 16.7893 1.46957 17 2 17H8.5L5.71 14.2C5.52677 14.0131 5.42414 13.7618 5.42414 13.5C5.42414 13.2382 5.52677 12.9869 5.71 12.8L7.81 10.7C7.99693 10.5168 8.24825 10.4141 8.51 10.4141C8.77175 10.4141 9.02307 10.5168 9.21 10.7L11 12.47ZM2 7H12V9H2V7ZM2 3H14V5H2V3ZM2 13V11H5V13H2Z" fill="black"/>
<path d="M11 17.5L18 10.5L16.5 9L11 14.5L8.5 12L7 13.5L11 17.5Z" fill="black"/>
</svg>
