<svg width="18" height="18" viewBox="0 0 18 18" fill="none" xmlns="http://www.w3.org/2000/svg">
<g id="Icon/ReviewQueue">
<g id="ReviewQueue">
<path fill-rule="evenodd" clip-rule="evenodd" d="M16 7.5V3C16 1.89543 15.1046 1 14 1H2C0.89543 1 0 1.89543 0 3V15C0 16.1046 0.89543 17 2 17H8.49609L5.70414 14.2084C5.31358 13.8179 5.31354 13.1848 5.70404 12.7942L7.80053 10.7027C8.18956 10.3146 8.81887 10.3131 9.20972 10.6994L11 12.4687L16 7.5ZM12 7H2V9H12V7ZM2 3H14V5H2V3ZM2 11H5V13H2V11Z" fill="black"/>
<path d="M16.5 9L18 10.5L11 17.5L7 13.5L8.5 12L11 14.5L16.5 9Z" fill="black"/>
</g>
</g>
</svg>
