<svg width="18" height="18" viewBox="0 0 18 18" fill="none" xmlns="http://www.w3.org/2000/svg">
<path d="M1 3C1 1.9 1.9 1 3 1H15C15.5304 1 16.0391 1.21071 16.4142 1.58579C16.7893 1.96086 17 2.46957 17 3V15C17 15.5304 16.7893 16.0391 16.4142 16.4142C16.0391 16.7893 15.5304 17 15 17H3C2.46957 17 1.96086 16.7893 1.58579 16.4142C1.21071 16.0391 1 15.5304 1 15V3ZM15.5 15C15.5 8.1 9.9 2.5 3 2.5V5C5.65216 5 8.1957 6.05357 10.0711 7.92893C11.9464 9.8043 13 12.3478 13 15H15.5ZM10.5 15C10.5 13.0109 9.70982 11.1032 8.3033 9.6967C6.89678 8.29018 4.98912 7.5 3 7.5V10C4.32608 10 5.59785 10.5268 6.53553 11.4645C7.47322 12.4021 8 13.6739 8 15H10.5ZM5.5 15C5.5 14.337 5.23661 13.7011 4.76777 13.2322C4.29893 12.7634 3.66304 12.5 3 12.5V15H5.5Z" fill="black"/>
</svg>
