<svg width="18" height="18" viewBox="0 0 18 18" fill="none" xmlns="http://www.w3.org/2000/svg">
<g id="Icon/Rss">
<path id="Rss" fill-rule="evenodd" clip-rule="evenodd" d="M3 1C1.89543 1 1 1.89543 1 3V15C1 16.1046 1.89543 17 3 17H15C16.1046 17 17 16.1046 17 15V3C17 1.89543 16.1046 1 15 1H3ZM3 2.5C9.90356 2.5 15.5 8.09644 15.5 15H13C13 9.47715 8.52285 5 3 5V2.5ZM10.5 15C10.5 10.8579 7.14214 7.5 3 7.5V10C5.76142 10 8 12.2386 8 15H10.5ZM3 12.5C4.38071 12.5 5.5 13.6193 5.5 15H3V12.5Z" fill="black"/>
</g>
</svg>
