<svg width="15" height="15" viewBox="0 0 15 15" fill="none" xmlns="http://www.w3.org/2000/svg">
<path d="M10.95 9.72003H11.26L14 12.5L12.5 14L9.72 11.27V10.95C8.59959 11.7611 7.21471 12.1203 5.84134 11.9559C4.46796 11.7916 3.20693 11.1158 2.30954 10.0632C1.41215 9.01069 0.944282 7.65867 0.99918 6.27658C1.05408 4.8945 1.62771 3.58384 2.60576 2.60579C3.58381 1.62774 4.89447 1.05411 6.27655 0.99921C7.65864 0.944312 9.01066 1.41218 10.0632 2.30957C11.1158 3.20696 11.7915 4.46799 11.9559 5.84137C12.1202 7.21474 11.7611 8.59962 10.95 9.72003V9.72003ZM6.5 10C6.95963 10 7.41475 9.9095 7.83939 9.73361C8.26403 9.55772 8.64987 9.29991 8.97487 8.9749C9.29988 8.6499 9.55769 8.26406 9.73358 7.83942C9.90947 7.41478 10 6.95966 10 6.50003C10 6.0404 9.90947 5.58528 9.73358 5.16064C9.55769 4.736 9.29988 4.35016 8.97487 4.02516C8.64987 3.70015 8.26403 3.44234 7.83939 3.26645C7.41475 3.09056 6.95963 3.00003 6.5 3.00003C5.57174 3.00003 4.6815 3.36878 4.02513 4.02516C3.36875 4.68153 3 5.57177 3 6.50003C3 7.42829 3.36875 8.31853 4.02513 8.9749C4.6815 9.63128 5.57174 10 6.5 10V10Z" fill="black"/>
</svg>
