<svg width="14" height="14" viewBox="0 0 14 14" fill="none" xmlns="http://www.w3.org/2000/svg">
<path d="M9.95516 8.72516H10.2652L13.0052 11.5052L11.5052 13.0052L8.72516 10.2752V9.95516C7.60475 10.7662 6.21987 11.1254 4.8465 10.961C3.47312 10.7967 2.21209 10.1209 1.3147 9.06837C0.417304 8.01582 -0.0505606 6.66379 0.00433744 5.28171C0.0592355 3.89963 0.632865 2.58897 1.61092 1.61092C2.58897 0.632865 3.89963 0.0592355 5.28171 0.00433744C6.66379 -0.0505606 8.01582 0.417304 9.06837 1.3147C10.1209 2.21209 10.7967 3.47312 10.961 4.8465C11.1254 6.21987 10.7662 7.60475 9.95516 8.72516ZM5.50516 9.00516C5.96478 9.00516 6.41991 8.91463 6.84455 8.73874C7.26919 8.56284 7.65503 8.30503 7.98003 7.98003C8.30503 7.65503 8.56284 7.26919 8.73874 6.84455C8.91463 6.41991 9.00516 5.96478 9.00516 5.50516C9.00516 5.04553 8.91463 4.5904 8.73874 4.16576C8.56284 3.74112 8.30503 3.35529 7.98003 3.03028C7.65503 2.70528 7.26919 2.44747 6.84455 2.27158C6.41991 2.09569 5.96478 2.00516 5.50516 2.00516C4.5769 2.00516 3.68666 2.37391 3.03028 3.03028C2.37391 3.68666 2.00516 4.5769 2.00516 5.50516C2.00516 6.43341 2.37391 7.32365 3.03028 7.98003C3.68666 8.63641 4.5769 9.00516 5.50516 9.00516Z" fill="black"/>
</svg>
