<svg width="14" height="14" viewBox="0 0 14 14" fill="none" xmlns="http://www.w3.org/2000/svg">
<g id="Icon/SearchSm">
<path id="SearchSm" fill-rule="evenodd" clip-rule="evenodd" d="M9.95169 8.72163C10.6084 7.81593 10.9956 6.70208 10.9956 5.4978C10.9956 2.46145 8.53415 0 5.4978 0C2.46145 0 0 2.46145 0 5.4978C0 8.53415 2.46145 10.9956 5.4978 10.9956C6.70229 10.9956 7.81632 10.6083 8.72211 9.95135V10.265L11.5 13L13 11.5L10.2641 8.72201L9.95169 8.72163ZM5.50116 9.00232C7.4348 9.00232 9.00232 7.4348 9.00232 5.50116C9.00232 3.56752 7.4348 2 5.50116 2C3.56752 2 2 3.56752 2 5.50116C2 7.4348 3.56752 9.00232 5.50116 9.00232Z" fill="black"/>
</g>
</svg>
