<svg width="9" height="10" viewBox="0 0 9 10" fill="none" xmlns="http://www.w3.org/2000/svg">
<path d="M0 1.8406L4.5 0L9 1.8406V5.01C9 7.52752 6.30414 10 4.5 10C2.69586 10 0 7.52752 0 5.01L0 1.8406Z" fill="white"/>
<path fill-rule="evenodd" clip-rule="evenodd" d="M1 2.5L4.5 1L8 2.5V5.01C8 7.345 5.345 9 4.5 9C3.655 9 1 7.345 1 5.01V2.5ZM3.98176 5.52471L3.2 6.99999L5.8 6.99621L5.01824 5.52471C4.98811 5.37386 5.0544 5.223 5.1689 5.13773C5.50636 4.90161 5.89838 4.436 5.89838 4.0031C5.89838 3.28817 5.40363 2.76993 4.48795 2.76993C3.57227 2.76993 3.10443 3.28817 3.10443 4.0031C3.10443 4.436 3.49364 4.90161 3.8311 5.13773C3.94976 5.22064 4.00956 5.37426 3.98176 5.52471Z" fill="#6A7E7C"/>
</svg>
