<svg width="18" height="18" viewBox="0 0 18 18" fill="none" xmlns="http://www.w3.org/2000/svg">
<path opacity="0.2" d="M9.94543 1H8.05107C4.70673 1 2 3.86126 2 7.16951C2 8.75625 2.24018 10.3804 2.35924 11.9633C2.37151 12.8227 3.06196 13.5195 3.90837 13.5195H4.42183C4.7624 13.5195 4.86021 13.7965 4.90199 14.0734L5.07723 15.4599C5.24219 16.3086 5.78345 17 6.62461 17H11.3754C12.2165 17 12.7812 16.3086 12.9228 15.4599L13.098 14.0734C13.1398 13.7965 13.2376 13.5195 13.5782 13.5195H14.0916C14.938 13.5195 15.6285 12.8245 15.6408 11.9633C15.7598 10.3804 16 8.75625 16 7.16951C15.9861 3.86169 13.2961 1 9.94543 1Z" fill="black"/>
<path opacity="0.3" fill-rule="evenodd" clip-rule="evenodd" d="M9.13648 1H8.05107C4.70673 1 2 3.86126 2 7.16951C2 8.23099 2.10749 9.3092 2.21429 10.3806C2.26714 10.9108 2.31983 11.4393 2.35924 11.9633C2.37151 12.8227 3.06196 13.5195 3.90837 13.5195H4.42183C4.7624 13.5195 4.86021 13.7965 4.90199 14.0734L5.07723 15.4599C5.24219 16.3086 5.78345 17 6.62461 17H9.13648C7.20525 14.9945 6 12.1521 6 9C6 5.84794 7.20525 3.00554 9.13648 1Z" fill="black"/>
<path d="M10.0752 12.251C10.0349 12.0562 9.86662 11.9169 9.67211 11.9169C9.47405 11.9169 9.30229 12.0565 9.26204 12.251L9.12886 12.8996C9.07629 13.1604 9.2708 13.4052 9.53191 13.4052H9.80529C10.0664 13.4052 10.2609 13.1604 10.2083 12.8996L10.0752 12.251Z" fill="#1A1104"/>
<path d="M8.73452 12.251C8.69422 12.0562 8.52599 11.9169 8.33147 11.9169C8.13341 11.9169 7.96165 12.0565 7.9214 12.251L7.78822 12.8996C7.73565 13.1604 7.93017 13.4052 8.19128 13.4052H8.46465C8.72576 13.4052 8.92028 13.1604 8.86771 12.8996L8.73452 12.251Z" fill="#1A1104"/>
<circle cx="11.5" cy="9.5" r="1.75" fill="#1A1104"/>
<circle cx="6.5" cy="9.5" r="1.75" fill="#1A1104"/>
<path d="M7.5 15C7.22388 15 7 15.2239 7 15.5V17H8V15.5C8 15.2239 7.77612 15 7.5 15Z" fill="#1A1104"/>
<path d="M11 17V15.5C11 15.2239 10.7761 15 10.5 15C10.2239 15 10 15.2239 10 15.5V17H11Z" fill="#1A1104"/>
<path d="M9.5 17V15.5C9.5 15.2239 9.27612 15 9 15C8.72388 15 8.5 15.2239 8.5 15.5V17H9.5Z" fill="#1A1104"/>
</svg>
