<svg width="18" height="18" viewBox="0 0 18 18" fill="none" xmlns="http://www.w3.org/2000/svg">
<path fill-rule="evenodd" clip-rule="evenodd" d="M6.5 16C5.67157 16 5 15.3284 5 14.5V10.5C5 9.67157 5.67157 9 6.5 9C7.32843 9 8 9.67157 8 10.5V14.5C8 15.3284 7.32843 16 6.5 16ZM2.5 12C1.67157 12 1 11.3284 1 10.5C1 9.67157 1.67157 9 2.5 9H4V10.5C4 11.3284 3.32843 12 2.5 12Z" fill="#E01E5A"/>
<path fill-rule="evenodd" clip-rule="evenodd" d="M2.5 5H6.5C7.32843 5 8 5.67157 8 6.5C8 7.32843 7.32843 8 6.5 8H2.5C1.67157 8 1 7.32843 1 6.5C1 5.67157 1.67157 5 2.5 5ZM6.5 1C7.32843 1 8 1.67157 8 2.5V4H6.5C5.67157 4 5 3.32843 5 2.5C5 1.67157 5.67157 1 6.5 1Z" fill="#36C5F0"/>
<path fill-rule="evenodd" clip-rule="evenodd" d="M10.5 9H14.5C15.3284 9 16 9.67157 16 10.5C16 11.3284 15.3284 12 14.5 12H10.5C9.67157 12 9 11.3284 9 10.5C9 9.67157 9.67157 9 10.5 9ZM10.5 16C9.67157 16 9 15.3284 9 14.5V13H10.5C11.3284 13 12 13.6716 12 14.5C12 15.3284 11.3284 16 10.5 16Z" fill="#ECB22E"/>
<path fill-rule="evenodd" clip-rule="evenodd" d="M10.5 1C11.3284 1 12 1.67157 12 2.5V6.5C12 7.32843 11.3284 8 10.5 8C9.67157 8 9 7.32843 9 6.5V2.5C9 1.67157 9.67157 1 10.5 1ZM14.5 5C15.3284 5 16 5.67157 16 6.5C16 7.32843 15.3284 8 14.5 8H13V6.5C13 5.67157 13.6716 5 14.5 5Z" fill="#2EB67D"/>
</svg>
