<svg width="18" height="18" viewBox="0 0 18 18" fill="none" xmlns="http://www.w3.org/2000/svg">
<path d="M6 1H12C12.5304 1 13.0391 1.21071 13.4142 1.58579C13.7893 1.96086 14 2.46957 14 3V15C14 15.5304 13.7893 16.0391 13.4142 16.4142C13.0391 16.7893 12.5304 17 12 17H6C5.46957 17 4.96086 16.7893 4.58579 16.4142C4.21071 16.0391 4 15.5304 4 15V3C4 1.9 4.9 1 6 1ZM6 3V13H12V3H6ZM9 16.2C9.31826 16.2 9.62348 16.0736 9.84853 15.8485C10.0736 15.6235 10.2 15.3183 10.2 15C10.2 14.6817 10.0736 14.3765 9.84853 14.1515C9.62348 13.9264 9.31826 13.8 9 13.8C8.68174 13.8 8.37652 13.9264 8.15147 14.1515C7.92643 14.3765 7.8 14.6817 7.8 15C7.8 15.3183 7.92643 15.6235 8.15147 15.8485C8.37652 16.0736 8.68174 16.2 9 16.2Z" fill="black"/>
</svg>
