<svg width="18" height="18" viewBox="0 0 18 18" fill="none" xmlns="http://www.w3.org/2000/svg">
<path d="M13 0H15V3H18V5H15V8H13V5H10V3H13V0Z" fill="black"/>
<path d="M6.43927 2.15375C6.95572 2.05103 7.47849 2 8 2V4C7.21585 4 6.4354 4.15375 5.70392 4.45673C4.60755 4.91083 3.67047 5.67987 3.0112 6.66656C2.3519 7.65326 2 8.81329 2 10C2 11.5913 2.63214 13.1174 3.75736 14.2426C4.88257 15.3679 6.40869 16 8 16C9.18671 16 10.3467 15.6481 11.3334 14.9888C12.3201 14.3295 13.0891 13.3925 13.5433 12.2961C13.8463 11.5646 14 10.7842 14 10H16C16 12.1218 15.1571 14.1566 13.6569 15.6569C12.1566 17.1572 10.1217 18 8 18C6.41776 18 4.87103 17.5308 3.55545 16.6517C2.23984 15.7727 1.21448 14.5233 0.60898 13.0615C0.00348055 11.5997 -0.154967 9.99115 0.153719 8.43927C0.462404 6.88745 1.22434 5.46198 2.34314 4.34314C3.46198 3.2243 4.88742 2.4624 6.43927 2.15375Z" fill="black"/>
<path d="M8.10001 14.22C6.70188 14.1782 5.37198 13.6062 4.38001 12.62C4.23795 12.4514 4.16434 12.2357 4.17371 12.0154C4.18311 11.7952 4.27478 11.5865 4.43067 11.4307C4.58655 11.2748 4.79523 11.1831 5.01547 11.1737C5.23572 11.1643 5.45145 11.238 5.62 11.38C5.92337 11.7084 6.29144 11.9705 6.70105 12.1498C7.11063 12.329 7.55289 12.4216 8 12.4216C8.44711 12.4216 8.88938 12.329 9.29898 12.1498C9.70856 11.9705 10.0766 11.7084 10.38 11.38C10.5486 11.238 10.7643 11.1643 10.9845 11.1737C11.2048 11.1831 11.4135 11.2748 11.5693 11.4307C11.7252 11.5865 11.8169 11.7952 11.8263 12.0154C11.8357 12.2357 11.7621 12.4514 11.62 12.62C11.1725 13.1115 10.6296 13.5068 10.0245 13.7819C9.41934 14.0569 8.76459 14.206 8.10001 14.22Z" fill="black"/>
<path d="M7.25 8C7.25 8.69037 6.69037 9.25 6 9.25C5.30966 9.25 4.75 8.69037 4.75 8C4.75 7.30963 5.30966 6.75 6 6.75C6.69037 6.75 7.25 7.30963 7.25 8Z" fill="black"/>
<path d="M10 9.25C10.6904 9.25 11.25 8.69037 11.25 8C11.25 7.30963 10.6904 6.75 10 6.75C9.30966 6.75 8.75 7.30963 8.75 8C8.75 8.69037 9.30966 9.25 10 9.25Z" fill="black"/>
</svg>
