<svg width="14" height="14" viewBox="0 0 14 14" fill="none" xmlns="http://www.w3.org/2000/svg">
<path fill-rule="evenodd" clip-rule="evenodd" d="M13 14L10 11H3C1.89543 11 1 10.1046 1 9V4C1 2.89543 1.89543 2 3 2H11C12.1046 2 13 2.89543 13 4V14ZM7.31225 2.72023C7.21506 2.46033 6.84744 2.46033 6.75025 2.72023L5.9783 4.78468C5.93614 4.89743 5.83067 4.97407 5.7104 4.97932L3.50845 5.07554C3.23124 5.08765 3.11763 5.43729 3.33478 5.61003L5.05965 6.98214C5.15385 7.05709 5.19414 7.18108 5.16198 7.29708L4.57304 9.421C4.4989 9.68839 4.79632 9.90447 5.02771 9.75133L6.86568 8.53489C6.96606 8.46846 7.09644 8.46846 7.19682 8.53489L9.03479 9.75133C9.26618 9.90447 9.5636 9.68839 9.48946 9.42099L8.90052 7.29708C8.86836 7.18108 8.90865 7.05709 9.00285 6.98214L10.7277 5.61003C10.9449 5.43729 10.8313 5.08765 10.554 5.07554L8.3521 4.97932C8.23183 4.97407 8.12636 4.89743 8.0842 4.78468L7.31225 2.72023Z" fill="black"/>
</svg>
