<svg width="18" height="18" viewBox="0 0 18 18" fill="none" xmlns="http://www.w3.org/2000/svg">
<path fill-rule="evenodd" clip-rule="evenodd" d="M1 18L4 15H15C16.0893 15 17 14.0893 17 13V4C17 2.91067 16.0893 2 15 2H3C1.9 2 1 2.9 1 4V18ZM8.95996 13.06C8.38997 13.04 7.92997 12.63 7.94997 12C7.96996 11.37 8.44997 10.96 9.02997 10.98C9.62997 11 10.08 11.43 10.06 12.06C10.04 12.69 9.57997 13.08 8.95996 13.06ZM9.88001 9.38187C9.83365 9.59566 9.80688 9.81323 9.80001 10.0319C9.80001 10.0719 9.77001 10.1719 9.64001 10.1719H8.24001C8.10001 10.1719 8.08001 10.0819 8.08001 10.0419C8.06686 9.54441 8.19145 9.05299 8.44001 8.62187C8.64865 8.26001 9.02059 7.96779 9.50006 7.69187C9.91131 7.45521 10.2763 6.97995 10.2829 6.49556C10.2865 6.22429 10.1933 5.9606 10.02 5.75187C9.80001 5.49187 9.56001 5.35187 9.10001 5.35187C8.65001 5.35187 8.27001 5.58187 8.08001 5.87187C7.91269 6.13607 7.91599 6.42353 7.91916 6.7001C7.91959 6.73759 7.92001 6.77487 7.92001 6.81187H6.20001C6.20001 5.64187 6.51001 4.89187 7.18001 4.45187C7.73839 4.14087 8.37128 3.9887 9.01001 4.01187C9.89001 4.01187 10.59 4.17187 11.21 4.63187C11.79 5.05187 12.09 5.65187 12.09 6.45187C12.09 6.95187 11.92 7.35187 11.66 7.69187C11.51 7.89187 11.22 8.16187 10.8 8.48187L10.32 8.78187C10.1135 8.93021 9.9594 9.14031 9.88001 9.38187Z" fill="black"/>
</svg>
