<svg width="18" height="18" viewBox="0 0 18 18" fill="none" xmlns="http://www.w3.org/2000/svg">
<path fill-rule="evenodd" clip-rule="evenodd" d="M17 17L14 14H3C1.89543 14 1 13.1046 1 12V3C1 1.89543 1.89543 1 3 1H15C16.1046 1 17 1.89543 17 3V17ZM9.39463 2.40872C9.26027 2.07413 8.78661 2.07413 8.65225 2.40871L7.539 5.18094C7.48178 5.32343 7.34806 5.42058 7.19487 5.43097L4.21431 5.63307C3.85458 5.65746 3.70821 6.10793 3.9849 6.33911L6.27744 8.25454C6.39526 8.35298 6.44634 8.51019 6.40888 8.65909L5.68004 11.5562C5.59208 11.9059 5.97527 12.1843 6.28064 11.9926L8.81075 10.4042C8.94079 10.3225 9.10608 10.3225 9.23612 10.4042L11.7662 11.9926C12.0716 12.1843 12.4548 11.9059 12.3668 11.5562L11.638 8.65909C11.6005 8.51019 11.6516 8.35298 11.7694 8.25454L14.062 6.33911C14.3387 6.10793 14.1923 5.65746 13.8326 5.63307L10.852 5.43097C10.6988 5.42058 10.5651 5.32343 10.5079 5.18094L9.39463 2.40872Z" fill="black"/>
</svg>
