<svg width="14" height="14" viewBox="0 0 14 14" fill="none" xmlns="http://www.w3.org/2000/svg">
<path fill-rule="evenodd" clip-rule="evenodd" d="M13 13L10 10H3C1.89543 10 1 9.10457 1 8V3C1 1.89543 1.89543 1 3 1H11C12.1046 1 13 1.89543 13 3V13ZM7.31225 1.72023C7.21506 1.46033 6.84744 1.46033 6.75025 1.72023L5.9783 3.78468C5.93614 3.89743 5.83067 3.97407 5.7104 3.97932L3.50845 4.07554C3.23124 4.08765 3.11763 4.43729 3.33478 4.61003L5.05965 5.98214C5.15385 6.05709 5.19414 6.18108 5.16198 6.29708L4.57304 8.421C4.4989 8.68839 4.79632 8.90447 5.02771 8.75133L6.86568 7.53489C6.96606 7.46846 7.09644 7.46846 7.19682 7.53489L9.03479 8.75133C9.26618 8.90447 9.5636 8.68839 9.48946 8.42099L8.90052 6.29708C8.86836 6.18108 8.90865 6.05709 9.00285 5.98214L10.7277 4.61003C10.9449 4.43729 10.8313 4.08765 10.554 4.07554L8.3521 3.97932C8.23183 3.97407 8.12636 3.89743 8.0842 3.78468L7.31225 1.72023Z" fill="black"/>
</svg>
