<svg width="18" height="18" viewBox="0 0 18 18" fill="none" xmlns="http://www.w3.org/2000/svg">
<path fill-rule="evenodd" clip-rule="evenodd" d="M1 17L4 14H15C16.0893 14 17 13.0893 17 12V3C17 1.91067 16.0893 1 15 1H3C1.9 1 1 1.9 1 3V17ZM8.95996 12.06C8.38997 12.04 7.92997 11.63 7.94997 11C7.96996 10.37 8.44997 9.96002 9.02997 9.98002C9.62997 10 10.08 10.43 10.06 11.06C10.04 11.69 9.57997 12.08 8.95996 12.06ZM9.88001 8.38187C9.83365 8.59566 9.80688 8.81323 9.80001 9.03187C9.80001 9.07187 9.77001 9.17188 9.64001 9.17188H8.24001C8.10001 9.17188 8.08001 9.08187 8.08001 9.04187C8.06686 8.54441 8.19145 8.05299 8.44001 7.62187C8.64865 7.26001 9.02059 6.96779 9.50006 6.69187C9.91131 6.45521 10.2763 5.97995 10.2829 5.49556C10.2865 5.22429 10.1933 4.9606 10.02 4.75187C9.80001 4.49187 9.56001 4.35187 9.10001 4.35187C8.65001 4.35187 8.27001 4.58187 8.08001 4.87187C7.91269 5.13607 7.91599 5.42353 7.91916 5.7001C7.91959 5.73759 7.92001 5.77487 7.92001 5.81187H6.20001C6.20001 4.64187 6.51001 3.89187 7.18001 3.45187C7.73839 3.14087 8.37128 2.9887 9.01001 3.01187C9.89001 3.01187 10.59 3.17187 11.21 3.63187C11.79 4.05187 12.09 4.65187 12.09 5.45187C12.09 5.95187 11.92 6.35187 11.66 6.69187C11.51 6.89187 11.22 7.16187 10.8 7.48187L10.32 7.78187C10.1135 7.93021 9.9594 8.14031 9.88001 8.38187Z" fill="black"/>
</svg>
