<svg width="18" height="18" viewBox="0 0 18 18" fill="none" xmlns="http://www.w3.org/2000/svg">
<path fill-rule="evenodd" clip-rule="evenodd" d="M17 18L14 15H3C1.89543 15 1 14.1046 1 13V4C1 2.89543 1.89543 2 3 2H15C16.1046 2 17 2.89543 17 4V18ZM9.39463 3.40872C9.26027 3.07413 8.78661 3.07413 8.65225 3.40871L7.539 6.18094C7.48178 6.32343 7.34806 6.42058 7.19487 6.43097L4.21431 6.63307C3.85458 6.65746 3.70821 7.10793 3.9849 7.33911L6.27744 9.25454C6.39526 9.35298 6.44634 9.51019 6.40888 9.65909L5.68004 12.5562C5.59208 12.9059 5.97527 13.1843 6.28064 12.9926L8.81075 11.4042C8.94079 11.3225 9.10608 11.3225 9.23612 11.4042L11.7662 12.9926C12.0716 13.1843 12.4548 12.9059 12.3668 12.5562L11.638 9.65909C11.6005 9.51019 11.6516 9.35298 11.7694 9.25454L14.062 7.33911C14.3387 7.10793 14.1923 6.65746 13.8326 6.63307L10.852 6.43097C10.6988 6.42058 10.5651 6.32343 10.5079 6.18094L9.39463 3.40872Z" fill="black"/>
</svg>
