<svg width="18" height="18" viewBox="0 0 18 18" fill="none" xmlns="http://www.w3.org/2000/svg">
<path d="M8.63068 0.950489C8.76732 0.621972 9.2327 0.621972 9.36933 0.950489L11.419 5.87839C11.4766 6.01688 11.6068 6.11151 11.7563 6.12349L17.0764 6.55C17.4311 6.57844 17.5749 7.02104 17.3047 7.25251L13.2513 10.7246C13.1374 10.8222 13.0877 10.9753 13.1225 11.1212L14.3608 16.3127C14.4434 16.6588 14.0669 16.9323 13.7632 16.7469L9.20851 13.9649C9.0805 13.8867 8.91951 13.8867 8.7915 13.9649L4.23678 16.7469C3.93314 16.9323 3.55663 16.6588 3.63919 16.3127L4.87755 11.1212C4.91235 10.9753 4.86261 10.8222 4.74869 10.7246L0.695351 7.25251C0.425137 7.02104 0.568947 6.57844 0.923609 6.55L6.24369 6.12349C6.3932 6.11151 6.52345 6.01688 6.58105 5.87839L8.63068 0.950489Z" fill="black"/>
</svg>
