<svg width="14" height="14" viewBox="0 0 14 14" fill="none" xmlns="http://www.w3.org/2000/svg">
<path d="M6.72536 0.786961C6.82613 0.53602 7.18137 0.536019 7.28215 0.78696L8.83285 4.64854C8.87576 4.7554 8.97606 4.82827 9.09095 4.83606L13.2427 5.11757C13.5125 5.13587 13.6223 5.47372 13.4148 5.64711L10.2214 8.31521C10.133 8.38904 10.0947 8.50694 10.1228 8.61862L11.138 12.6542C11.204 12.9164 10.9166 13.1252 10.6876 12.9815L7.16327 10.7688C7.06574 10.7076 6.94177 10.7076 6.84424 10.7688L3.31991 12.9815C3.09089 13.1252 2.80349 12.9164 2.86947 12.6542L3.8847 8.61862C3.9128 8.50694 3.87449 8.38904 3.78612 8.31521L0.592729 5.64711C0.38521 5.47372 0.494986 5.13587 0.764784 5.11757L4.91656 4.83606C5.03145 4.82827 5.13175 4.7554 5.17466 4.64854L6.72536 0.786961Z" fill="black"/>
</svg>
