<svg width="14" height="14" viewBox="0 0 14 14" fill="none" xmlns="http://www.w3.org/2000/svg">
<path fill-rule="evenodd" clip-rule="evenodd" d="M5.17465 4.64866L6.72536 0.786961C6.82613 0.53602 7.18137 0.536019 7.28214 0.78696L8.83284 4.64854C8.87576 4.7554 8.97605 4.82827 9.09094 4.83606L13.2427 5.11757C13.5125 5.13587 13.6223 5.47372 13.4148 5.64711L10.2214 8.31521C10.133 8.38904 10.0947 8.50694 10.1228 8.61862L11.138 12.6542C11.204 12.9164 10.9166 13.1252 10.6876 12.9815L7.16326 10.7688C7.1134 10.7375 7.05662 10.7222 7 10.7229C6.94588 10.7236 6.8919 10.739 6.84424 10.7689L3.31991 12.9816C3.09089 13.1253 2.80349 12.9165 2.86947 12.6543L3.8847 8.61872C3.9128 8.50704 3.87449 8.38914 3.78612 8.31531L0.592729 5.64721C0.38521 5.47382 0.494986 5.13597 0.764784 5.11767L4.91656 4.83616C5.03145 4.82837 5.13174 4.75551 5.17465 4.64866ZM7.90487 5.02119L7.00375 2.7772L7 2.78654V9.72293C7.2412 9.72224 7.48256 9.78857 7.69497 9.92192L9.74297 11.2077L9.15301 8.86259C9.03127 8.37866 9.19727 7.86776 9.58022 7.5478L11.4359 5.99736L9.02329 5.83377C8.52543 5.80001 8.09082 5.48426 7.90487 5.02119Z" fill="black"/>
</svg>
