<svg width="18" height="18" viewBox="0 0 18 18" fill="none" xmlns="http://www.w3.org/2000/svg">
<path d="M8.63067 0.950459C8.76731 0.621942 9.23269 0.621942 9.36933 0.950459L11.419 5.87836C11.4766 6.01685 11.6068 6.11148 11.7563 6.12346L17.0764 6.54997C17.4311 6.57841 17.5749 7.02101 17.3047 7.25248L13.2513 10.7246C13.1374 10.8222 13.0877 10.9753 13.1225 11.1212L14.3608 16.3127C14.4434 16.6588 14.0669 16.9323 13.7632 16.7469L9.2085 13.9648C9.08049 13.8867 8.91951 13.8867 8.7915 13.9648L4.23677 16.7469C3.93313 16.9323 3.55663 16.6588 3.63918 16.3127L4.87755 11.1212C4.91235 10.9753 4.8626 10.8222 4.74868 10.7246L0.695346 7.25248C0.425131 7.02101 0.568942 6.57841 0.923603 6.54997L6.24368 6.12346C6.3932 6.11148 6.52344 6.01685 6.58104 5.87836L8.63067 0.950459Z" fill="black"/>
</svg>
