<svg width="18" height="18" viewBox="0 0 18 18" fill="none" xmlns="http://www.w3.org/2000/svg">
<path fill-rule="evenodd" clip-rule="evenodd" d="M9.85648 0.889426C9.40354 0.370192 8.59646 0.370191 8.14352 0.889426L7.63826 1.46864C7.33464 1.81669 6.85059 1.9464 6.41362 1.79678L5.68644 1.5478C5.03457 1.3246 4.33562 1.72813 4.20298 2.40427L4.05502 3.15852C3.96611 3.61175 3.61175 3.96611 3.15852 4.05502L2.40427 4.20298C1.72813 4.33562 1.3246 5.03457 1.5478 5.68644L1.79678 6.41362C1.9464 6.85059 1.81669 7.33464 1.46864 7.63826L0.889426 8.14352C0.370192 8.59646 0.370191 9.40353 0.889425 9.85648L1.46864 10.3617C1.81669 10.6654 1.9464 11.1494 1.79678 11.5864L1.5478 12.3136C1.3246 12.9654 1.72813 13.6644 2.40427 13.797L3.15852 13.945C3.61175 14.0339 3.96611 14.3882 4.05502 14.8415L4.20298 15.5957C4.33562 16.2719 5.03457 16.6754 5.68644 16.4522L6.41362 16.2032C6.85059 16.0536 7.33464 16.1833 7.63826 16.5314L8.14352 17.1106C8.59646 17.6298 9.40353 17.6298 9.85648 17.1106L10.3617 16.5314C10.6654 16.1833 11.1494 16.0536 11.5864 16.2032L12.3136 16.4522C12.9654 16.6754 13.6644 16.2719 13.797 15.5957L13.945 14.8415C14.0339 14.3882 14.3882 14.0339 14.8415 13.945L15.5957 13.797C16.2719 13.6644 16.6754 12.9654 16.4522 12.3136L16.2032 11.5864C16.0536 11.1494 16.1833 10.6654 16.5314 10.3617L17.1106 9.85648C17.6298 9.40353 17.6298 8.59646 17.1106 8.14352L16.5314 7.63826C16.1833 7.33464 16.0536 6.85059 16.2032 6.41362L16.4522 5.68644C16.6754 5.03457 16.2719 4.33562 15.5957 4.20298L14.8415 4.05502C14.3882 3.96611 14.0339 3.61175 13.945 3.15852L13.797 2.40427C13.6644 1.72813 12.9654 1.3246 12.3136 1.5478L11.5864 1.79678C11.1494 1.9464 10.6654 1.81669 10.3617 1.46864L9.85648 0.889426ZM9.37119 3.56497L10.5875 6.5938C10.6447 6.73628 10.7784 6.83344 10.9316 6.84382L14.1881 7.06463C14.5478 7.08902 14.6942 7.53949 14.4175 7.77067L11.9127 9.8634C11.7949 9.96185 11.7438 10.119 11.7813 10.2679L12.5776 13.4332C12.6656 13.7829 12.2824 14.0613 11.977 13.8696L9.21268 12.1341C9.08265 12.0525 8.91735 12.0525 8.78732 12.1341L6.02301 13.8696C5.71764 14.0613 5.33445 13.7829 5.42241 13.4332L6.21871 10.2679C6.25617 10.119 6.20509 9.96185 6.08727 9.8634L3.58253 7.77067C3.30584 7.53949 3.4522 7.08902 3.81194 7.06463L7.06839 6.84382C7.22157 6.83344 7.3553 6.73628 7.41252 6.5938L8.62881 3.56496C8.76317 3.23038 9.23683 3.23038 9.37119 3.56497Z" fill="black"/>
</svg>
