<svg width="14" height="14" viewBox="0 0 14 14" fill="none" xmlns="http://www.w3.org/2000/svg">
<path fill-rule="evenodd" clip-rule="evenodd" d="M7.69619 0.718833C7.29875 0.427055 6.75789 0.427056 6.36045 0.718833L5.10069 1.64366C4.95408 1.75129 4.78363 1.82189 4.60385 1.84946L3.05912 2.08629C2.57177 2.16101 2.18933 2.54345 2.11461 3.0308L1.87778 4.57553C1.85021 4.75531 1.77961 4.92576 1.67198 5.07237L0.747154 6.33213C0.455376 6.72957 0.455376 7.27043 0.747154 7.66787L1.67198 8.92763C1.77961 9.07424 1.85021 9.24469 1.87778 9.42447L2.11461 10.9692C2.18933 11.4566 2.57177 11.839 3.05912 11.9137L4.60385 12.1505C4.78363 12.1781 4.95408 12.2487 5.10069 12.3563L6.36045 13.2812C6.75789 13.5729 7.29875 13.5729 7.69619 13.2812L8.95595 12.3563C9.10256 12.2487 9.27301 12.1781 9.45279 12.1505L10.9975 11.9137C11.4849 11.839 11.8673 11.4566 11.942 10.9692L12.1789 9.42447C12.2064 9.24469 12.277 9.07424 12.3847 8.92763L13.3095 7.66787C13.6013 7.27043 13.6013 6.72957 13.3095 6.33213L12.3847 5.07237C12.277 4.92576 12.2064 4.75531 12.1789 4.57553L11.942 3.0308C11.8673 2.54345 11.4849 2.16101 10.9975 2.08629L9.45279 1.84946C9.27301 1.82189 9.10256 1.75129 8.95595 1.64366L7.69619 0.718833ZM7.31189 2.44155L8.21042 4.93329C8.25213 5.04894 8.36017 5.12745 8.48306 5.13137L11.1305 5.21593C11.4113 5.2249 11.5268 5.58041 11.3049 5.75273L9.21279 7.37728C9.11569 7.45268 9.07442 7.5797 9.10866 7.69778L9.84634 10.2418C9.92459 10.5116 9.62218 10.7314 9.38971 10.5735L7.19818 9.08582C7.09646 9.01677 6.9629 9.01677 6.86118 9.08582L4.66964 10.5735C4.43718 10.7314 4.13477 10.5116 4.21302 10.2418L4.9507 7.69778C4.98494 7.5797 4.94367 7.45268 4.84656 7.37728L2.75444 5.75273C2.53251 5.58041 2.64802 5.2249 2.92885 5.21593L5.5763 5.13137C5.69918 5.12745 5.80723 5.04894 5.84894 4.93329L6.74747 2.44155C6.84278 2.17724 7.21658 2.17724 7.31189 2.44155Z" fill="black"/>
</svg>
