<svg width="18" height="18" viewBox="0 0 18 18" fill="none" xmlns="http://www.w3.org/2000/svg">
<path d="M11.9572 6.19964C11.879 6.12146 11.7339 6.01537 11.5217 5.88135C11.3206 5.74733 11.0694 5.6189 10.7678 5.49605C10.4775 5.36204 10.1592 5.25036 9.81295 5.16101C9.46675 5.07167 9.11495 5.027 8.75758 5.027C8.121 5.027 7.64636 5.14426 7.33365 5.37879C7.02095 5.61332 6.8646 5.94277 6.8646 6.36716C6.8646 6.61285 6.92044 6.81946 7.03212 6.98698L7.04249 7H4.49366C4.48843 6.9143 4.48581 6.8262 4.48581 6.7357C4.48581 6.13263 4.59749 5.59657 4.82085 5.12751C5.04421 4.65845 5.35133 4.26757 5.74221 3.95487C6.14426 3.64216 6.60773 3.40763 7.13263 3.25128C7.65753 3.08376 8.22151 3 8.82458 3C9.66219 3 10.4328 3.13402 11.1364 3.40205C11.84 3.65891 12.4542 3.96603 12.9791 4.32341L11.9572 6.19964Z" fill="black"/>
<path d="M3 8V10H8.0204C8.42354 10.1155 8.79211 10.2224 9.12612 10.3206C9.50583 10.4323 9.82971 10.5552 10.0977 10.6892C10.3658 10.8232 10.5724 10.9795 10.7176 11.1582C10.8627 11.3369 10.9353 11.5547 10.9353 11.8116C10.9353 12.6268 10.2988 13.0345 9.02561 13.0345C8.56772 13.0345 8.121 12.9786 7.68545 12.8669C7.24989 12.7553 6.85343 12.6213 6.49605 12.4649C6.13868 12.2974 5.82597 12.1354 5.55794 11.9791C5.30107 11.8116 5.12239 11.6776 5.02187 11.577L4 13.5705C4.69242 14.0619 5.47418 14.4416 6.34528 14.7097C7.21639 14.9777 8.09866 15.1117 8.99211 15.1117C9.57284 15.1117 10.1257 15.0503 10.6506 14.9274C11.1866 14.7934 11.6557 14.5868 12.0577 14.3076C12.4709 14.0284 12.7948 13.6655 13.0293 13.2187C13.275 12.7608 13.3979 12.2136 13.3979 11.577C13.3979 11.0298 13.3085 10.5719 13.1299 10.2034C13.0971 10.1337 13.0617 10.0659 13.0236 10H15V8H3Z" fill="black"/>
</svg>
