<svg width="18" height="18" viewBox="0 0 18 18" fill="none" xmlns="http://www.w3.org/2000/svg">
<path d="M10 1C9.29873 1 8.62556 1.12031 8 1.34141V6H15.917C15.441 3.16229 12.973 1 10 1Z" fill="black"/>
<path fill-rule="evenodd" clip-rule="evenodd" d="M16 7H6L5 5H1V7H4C4 8.11867 4.30615 9.16584 4.83923 10.0623C3.22216 10.3712 2 11.7929 2 13.5C2 15.433 3.567 17 5.5 17C7.433 17 9 15.433 9 13.5C9 15.433 10.567 17 12.5 17C14.433 17 16 15.433 16 13.5C16 12.3898 15.4831 11.4003 14.6767 10.7591C15.5046 9.73048 16 8.4231 16 7ZM9 13.5C9 13.2984 8.98295 13.1008 8.95022 12.9085C8.98241 12.9142 9.01468 12.9196 9.04705 12.9247C9.0161 13.1119 9 13.3041 9 13.5ZM7 13.5C7 14.3284 6.32843 15 5.5 15C4.67157 15 4 14.3284 4 13.5C4 12.6716 4.67157 12 5.5 12C6.32843 12 7 12.6716 7 13.5ZM14 13.5C14 14.3284 13.3284 15 12.5 15C11.6716 15 11 14.3284 11 13.5C11 12.6716 11.6716 12 12.5 12C13.3284 12 14 12.6716 14 13.5Z" fill="black"/>
</svg>
