<svg width="18" height="18" viewBox="0 0 18 18" fill="none" xmlns="http://www.w3.org/2000/svg">
<g id="Icon/Subway">
<path id="Subway" fill-rule="evenodd" clip-rule="evenodd" d="M9 1C4.58 1 2 1.5 2 5V11.5C2 13.43 3.57 15 5.5 15L4 16.5V17H14V16.5L12.5 15C14.43 15 16 13.43 16 11.5V5C16 1.5 13.42 1 9 1ZM5.5 12.75C4.80833 12.75 4.25 12.1917 4.25 11.5C4.25 10.8083 4.80833 10.25 5.5 10.25C6.19167 10.25 6.75 10.8083 6.75 11.5C6.75 12.1917 6.19167 12.75 5.5 12.75ZM4 9H8V5H4V9ZM12.5 12.75C11.8083 12.75 11.25 12.1917 11.25 11.5C11.25 10.8083 11.8083 10.25 12.5 10.25C13.1917 10.25 13.75 10.8083 13.75 11.5C13.75 12.1917 13.1917 12.75 12.5 12.75ZM10 9H14V5H10V9Z" fill="black"/>
</g>
</svg>
