<svg width="18" height="18" viewBox="0 0 18 18" fill="none" xmlns="http://www.w3.org/2000/svg">
<path d="M9 1C4.58 1 2 1.5 2 5V11.5C2 12.4283 2.36875 13.3185 3.02513 13.9749C3.6815 14.6313 4.57174 15 5.5 15L4 16.5V17H14V16.5L12.5 15C13.4283 15 14.3185 14.6313 14.9749 13.9749C15.6313 13.3185 16 12.4283 16 11.5V5C16 1.5 13.42 1 9 1ZM5.5 12.75C5.16848 12.75 4.85054 12.6183 4.61612 12.3839C4.3817 12.1495 4.25 11.8315 4.25 11.5C4.25 11.1685 4.3817 10.8505 4.61612 10.6161C4.85054 10.3817 5.16848 10.25 5.5 10.25C5.83152 10.25 6.14946 10.3817 6.38388 10.6161C6.6183 10.8505 6.75 11.1685 6.75 11.5C6.75 11.8315 6.6183 12.1495 6.38388 12.3839C6.14946 12.6183 5.83152 12.75 5.5 12.75ZM8 9H4V5H8V9ZM12.5 12.75C12.1685 12.75 11.8505 12.6183 11.6161 12.3839C11.3817 12.1495 11.25 11.8315 11.25 11.5C11.25 11.1685 11.3817 10.8505 11.6161 10.6161C11.8505 10.3817 12.1685 10.25 12.5 10.25C12.8315 10.25 13.1495 10.3817 13.3839 10.6161C13.6183 10.8505 13.75 11.1685 13.75 11.5C13.75 11.8315 13.6183 12.1495 13.3839 12.3839C13.1495 12.6183 12.8315 12.75 12.5 12.75ZM14 9H10V5H14V9Z" fill="black"/>
</svg>
