<svg width="22" height="18" viewBox="0 0 22 18" fill="none" xmlns="http://www.w3.org/2000/svg">
<path fill-rule="evenodd" clip-rule="evenodd" d="M16.8203 9C16.8203 12.2145 14.2145 14.8203 11 14.8203C9.91368 14.8203 8.89687 14.5227 8.02665 14.0046L6.45017 15.5811C7.74187 16.4758 9.30972 17 11 17C15.4183 17 19 13.4183 19 9C19 7.30972 18.4758 5.74187 17.5811 4.45017L16.0046 6.02665C16.5227 6.89687 16.8203 7.91368 16.8203 9ZM15.5498 2.41892L13.9733 3.9954C13.1031 3.47727 12.0863 3.17967 11 3.17967C7.78552 3.17967 5.17967 5.78552 5.17967 9C5.17967 10.0863 5.47727 11.1031 5.9954 11.9733L4.41892 13.5498C3.52421 12.2581 3 10.6903 3 9C3 4.58172 6.58172 1 11 1C12.6903 1 14.2581 1.52421 15.5498 2.41892Z" fill="black"/>
<path d="M-2.00261e-07 10L4 14L8 10L-2.00261e-07 10Z" fill="black"/>
<path d="M22 8L18 4L14 8.00004L22 8Z" fill="black"/>
</svg>
