<svg width="16" height="14" viewBox="0 0 16 14" fill="none" xmlns="http://www.w3.org/2000/svg">
<path fill-rule="evenodd" clip-rule="evenodd" d="M11.1046 10.033C12.3243 8.81331 12.6788 7.07122 12.1823 5.55947L12.6719 6.04904L13.74 4.9809C14.4558 7.08623 13.9673 9.51796 12.2784 11.2068C10.2585 13.2267 7.17591 13.5297 4.86007 12.1086L6.08148 10.8871C7.70335 11.6817 9.73387 11.4038 11.1046 10.033ZM3.96956 8.59247C3.35967 7.03157 3.68661 5.17565 4.96693 3.89533C6.33175 2.53051 8.35067 2.24906 9.96903 3.03097L11.1921 1.80792C8.87844 0.400371 5.80741 0.707255 3.79313 2.72153C2.08475 4.42991 1.60456 6.89845 2.35685 9.02035L3.37715 8.00005L3.96956 8.59247Z" fill="black"/>
<path d="M1.53568e-06 7L3 9.99997L6 7.00003L1.53568e-06 7Z" fill="black"/>
<path d="M16 7.00001L13 4L10 7.00001L16 7.00001Z" fill="black"/>
</svg>
