<svg width="18" height="18" viewBox="0 0 18 18" fill="none" xmlns="http://www.w3.org/2000/svg">
<path opacity="0.4" d="M10.3225 7.43308C7.414 4.52459 4.92442 3.69872 4.80473 4.05779L2.20743 11.9095L1.01052 15.5003C0.939459 15.6983 0.927293 15.9127 0.97549 16.1176C1.02369 16.3224 1.13018 16.5089 1.28211 16.6545C1.43403 16.8001 1.62487 16.8985 1.83157 16.938C2.03826 16.9774 2.25195 16.9561 2.44681 16.8767L13.8654 13.5613C14.1766 13.4176 13.231 10.3416 10.3225 7.43308Z" fill="#FF9700"/>
<g opacity="0.6">
<path d="M13 2.5C13 2.77614 12.7761 3 12.5 3C12.2239 3 12 2.77614 12 2.5C12 2.22386 12.2239 2 12.5 2C12.7761 2 13 2.22386 13 2.5Z" fill="#0077CC"/>
<path d="M16 5.5C16 5.77614 15.7761 6 15.5 6C15.2239 6 15 5.77614 15 5.5C15 5.22386 15.2239 5 15.5 5C15.7761 5 16 5.22386 16 5.5Z" fill="#0077CC"/>
<path d="M15.54 10.95C15.8161 10.95 16.04 10.7262 16.04 10.45C16.04 10.1739 15.8161 9.95001 15.54 9.95001C15.2638 9.95001 15.04 10.1739 15.04 10.45C15.04 10.7262 15.2638 10.95 15.54 10.95Z" fill="#0077CC"/>
<path d="M7.96002 2.53998C7.96002 2.81612 7.73616 3.03998 7.46002 3.03998C7.18388 3.03998 6.96002 2.81612 6.96002 2.53998C6.96002 2.26384 7.18388 2.03998 7.46002 2.03998C7.73616 2.03998 7.96002 2.26384 7.96002 2.53998Z" fill="#0077CC"/>
</g>
<path d="M9.14645 4.85355C9.24021 4.94732 9.36739 5 9.5 5C9.63261 5 9.75979 4.94732 9.85355 4.85355C9.94732 4.75979 10 4.63261 10 4.5V1.5C10 1.36739 9.94732 1.24021 9.85355 1.14645C9.75979 1.05268 9.63261 1 9.5 1C9.36739 1 9.24021 1.05268 9.14645 1.14645C9.05268 1.24021 9 1.36739 9 1.5V4.5C9 4.63261 9.05268 4.75979 9.14645 4.85355Z" fill="#0077CC"/>
<path d="M13.5 9H16.5C16.6326 9 16.7598 8.94732 16.8536 8.85355C16.9473 8.75979 17 8.63261 17 8.5C17 8.36739 16.9473 8.24021 16.8536 8.14645C16.7598 8.05268 16.6326 8 16.5 8H13.5C13.3674 8 13.2402 8.05268 13.1464 8.14645C13.0527 8.24021 13 8.36739 13 8.5C13 8.63261 13.0527 8.75979 13.1464 8.85355C13.2402 8.94732 13.3674 9 13.5 9Z" fill="#0077CC"/>
<path d="M11.58 6.91997C11.5137 6.92168 11.4477 6.91018 11.3859 6.88614C11.3241 6.8621 11.2677 6.82602 11.22 6.77997C11.1278 6.68482 11.0762 6.5575 11.0762 6.42497C11.0762 6.29245 11.1278 6.16512 11.22 6.06997L15.22 2.11997C15.3152 2.02772 15.4425 1.97614 15.575 1.97614C15.7075 1.97614 15.8349 2.02772 15.93 2.11997C15.9769 2.16645 16.0141 2.22175 16.0395 2.28268C16.0648 2.34361 16.0779 2.40897 16.0779 2.47497C16.0779 2.54098 16.0648 2.60633 16.0395 2.66726C16.0141 2.72819 15.9769 2.78349 15.93 2.82997L11.93 6.82997C11.8291 6.90347 11.7039 6.93566 11.58 6.91997Z" fill="#F75D37"/>
<g opacity="0.6">
<path d="M6.74371 11.0238C5.5937 9.85182 4.59629 8.50712 3.80859 7.06641L4.80471 4.0578C5.41529 6.11083 6.5887 7.9518 8.19197 9.37209C9.84843 11.0741 11.6712 12.4808 13.7734 13.5859L10.918 14.4141C9.41852 13.3953 8.04788 12.283 6.74371 11.0238Z" fill="#FF9700"/>
<path d="M3.53603 14.1598C2.86843 13.5674 2.40371 12.7803 2.20746 11.9096L3.11711 9.16864C3.61802 10.4404 4.36662 11.5999 5.31943 12.5798C6.27149 13.5275 7.30925 14.385 8.41943 15.1412L5.84766 15.8867C4.99017 15.4398 4.2086 14.8545 3.53603 14.1598Z" fill="#FF9700"/>
</g>
</svg>
