<svg width="18" height="18" viewBox="0 0 18 18" fill="none" xmlns="http://www.w3.org/2000/svg">
<path opacity="0.4" d="M10.385 7.47996C7.4765 4.57146 4.98692 3.74559 4.86723 4.10467L1.07302 15.5471C0.930902 15.9433 1.04076 16.4102 1.34461 16.7013C1.64846 16.9925 2.1196 17.0824 2.50932 16.9236L13.9279 13.6082C14.2391 13.4645 13.2935 10.3885 10.385 7.47996Z" fill="#FF9700"/>
<g opacity="0.6">
<path d="M6.80621 11.0707C5.6562 9.8987 4.65879 8.554 3.87109 7.11328L4.86721 4.10468C5.47779 6.1577 6.6512 7.99867 8.25447 9.41897C9.91093 11.121 11.7337 12.5277 13.8359 13.6328L10.9805 14.4609C9.48102 13.4421 8.11038 12.3298 6.80621 11.0707Z" fill="#FF9700"/>
<path d="M3.59853 14.2066C2.93093 13.6142 2.46621 12.8271 2.26996 11.9564L3.17961 9.21552C3.68052 10.4872 4.42912 11.6468 5.38193 12.6267C6.33399 13.5744 7.37175 14.4318 8.48193 15.1881L5.91016 15.9336C5.05267 15.4867 4.2711 14.9014 3.59853 14.2066Z" fill="#FF9700"/>
</g>
<path d="M15.5 2.5L11.5 6.5" stroke="#F75D37" stroke-linecap="round"/>
<path d="M10 1.5C10 1.22386 9.77614 1 9.5 1C9.22386 1 9 1.22386 9 1.5V4.5C9 4.77614 9.22386 5 9.5 5C9.77614 5 10 4.77614 10 4.5V1.5Z" fill="#0077CC"/>
<path d="M13.5 8C13.2239 8 13 8.22386 13 8.5C13 8.77614 13.2239 9 13.5 9H16.5C16.7761 9 17 8.77614 17 8.5C17 8.22386 16.7761 8 16.5 8H13.5Z" fill="#0077CC"/>
<g opacity="0.6">
<path d="M7.5 3C7.77614 3 8 2.77614 8 2.5C8 2.22386 7.77614 2 7.5 2C7.22386 2 7 2.22386 7 2.5C7 2.77614 7.22386 3 7.5 3Z" fill="#0077CC"/>
<path d="M12.5 3C12.7761 3 13 2.77614 13 2.5C13 2.22386 12.7761 2 12.5 2C12.2239 2 12 2.22386 12 2.5C12 2.77614 12.2239 3 12.5 3Z" fill="#0077CC"/>
<path d="M16 5.5C16 5.77614 15.7761 6 15.5 6C15.2239 6 15 5.77614 15 5.5C15 5.22386 15.2239 5 15.5 5C15.7761 5 16 5.22386 16 5.5Z" fill="#0077CC"/>
<path d="M15.5 11C15.7761 11 16 10.7761 16 10.5C16 10.2239 15.7761 10 15.5 10C15.2239 10 15 10.2239 15 10.5C15 10.7761 15.2239 11 15.5 11Z" fill="#0077CC"/>
</g>
</svg>
