<svg width="18" height="18" viewBox="0 0 18 18" fill="none" xmlns="http://www.w3.org/2000/svg">
<path fill-rule="evenodd" clip-rule="evenodd" d="M9.83808 1C9.30836 1 8.80034 1.21043 8.42577 1.585L1.585 8.42577C0.805002 9.20576 0.804999 10.4704 1.585 11.2504L6.7496 16.415C7.5296 17.195 8.79423 17.195 9.57422 16.415L16.415 9.57414C16.7896 9.19957 17 8.69156 17 8.16184L17 2.99731C17 1.89423 16.1058 1 15.0027 1H9.83808ZM13 7C11.8954 7 11 6.10457 11 5C11 3.89543 11.8954 3 13 3C14.1046 3 15 3.89543 15 5C15 6.10457 14.1046 7 13 7Z" fill="black"/>
</svg>
