<svg width="18" height="18" viewBox="0 0 18 18" fill="none" xmlns="http://www.w3.org/2000/svg">
<path opacity="0.4" d="M9.24265 1C8.447 1 7.68394 1.31604 7.12133 1.87866L1.41422 7.58582C0.789633 8.21033 0.664511 9.14526 1.03885 9.89417C1.18523 9.52441 1.408 9.17786 1.70711 8.87866L7.70711 2.87866C8.26972 2.31604 9.03278 2 9.82844 2H14C14.2731 2 14.5376 2.0365 14.789 2.10486C14.4605 1.44971 13.7828 1 13 1H9.24265Z" fill="black"/>
<path fill-rule="evenodd" clip-rule="evenodd" d="M9.82843 3C9.298 3 8.78929 3.21071 8.41421 3.58579L2.41422 9.5858C1.63317 10.3668 1.63317 11.6332 2.41422 12.4142L6.58579 16.5858C7.36684 17.3668 8.63317 17.3668 9.41422 16.5858L15.4142 10.5858C15.7893 10.2107 16 9.70202 16 9.17159V5C16 3.89543 15.1046 3 14 3L9.82843 3ZM12 9C10.8954 9 10 8.10457 10 7C10 5.89543 10.8954 5 12 5C13.1046 5 14 5.89543 14 7C14 8.10457 13.1046 9 12 9Z" fill="black"/>
</svg>
