<svg width="13" height="14" viewBox="0 0 13 14" fill="none" xmlns="http://www.w3.org/2000/svg">
<path fill-rule="evenodd" clip-rule="evenodd" d="M7.41422 3C7.149 3 6.89464 3.10536 6.70711 3.29289L2.20711 7.79289C1.81658 8.18342 1.81658 8.81658 2.20711 9.20711L5.7929 12.7929C6.18342 13.1834 6.81658 13.1834 7.20711 12.7929L11.7071 8.29289C11.8946 8.10536 12 7.851 12 7.58579V4C12 3.44772 11.5523 3 11 3H7.41422ZM9 7C8.44772 7 8 6.55228 8 6C8 5.44772 8.44772 5 9 5C9.55228 5 10 5.44772 10 6C10 6.55228 9.55228 7 9 7Z" fill="black"/>
<path opacity="0.4" d="M6.82843 1C6.298 1 5.78929 1.21071 5.41421 1.58579L1.20711 5.79289C0.816584 6.18342 0.816584 6.81658 1.20711 7.20711L1.30795 7.30795C1.36563 7.23043 1.42965 7.15614 1.5 7.08579L6 2.58579C6.37507 2.21071 6.88378 2 7.41422 2H11C11 1.44772 10.5523 1 10 1H6.82843Z" fill="black"/>
</svg>
