<svg width="14" height="14" viewBox="0 0 14 14" fill="none" xmlns="http://www.w3.org/2000/svg">
<path opacity="0.4" d="M6.82843 1C6.298 1 5.78929 1.21071 5.41421 1.58579L1.20711 5.79289C0.816584 6.18342 0.816584 6.81658 1.20711 7.20711L1.30795 7.30795C1.36563 7.23043 1.42965 7.15614 1.5 7.08579L6 2.58579C6.37507 2.21071 6.88378 2 7.41422 2H11C11 1.44772 10.5523 1 10 1H6.82843Z" fill="black"/>
<path fill-rule="evenodd" clip-rule="evenodd" d="M6.70711 3.29289C6.89464 3.10536 7.149 3 7.41422 3H11C11.5523 3 12 3.44772 12 4V7.58579C12 7.851 11.8946 8.10536 11.7071 8.29289L7.20711 12.7929C6.81658 13.1834 6.18342 13.1834 5.7929 12.7929L2.20711 9.20711C1.81658 8.81658 1.81658 8.18342 2.20711 7.79289L6.70711 3.29289ZM9 7.25C9.69036 7.25 10.25 6.69036 10.25 6C10.25 5.30964 9.69036 4.75 9 4.75C8.30964 4.75 7.75 5.30964 7.75 6C7.75 6.69036 8.30964 7.25 9 7.25Z" fill="black"/>
</svg>
