<svg width="14" height="14" viewBox="0 0 14 14" fill="none" xmlns="http://www.w3.org/2000/svg">
<path fill-rule="evenodd" clip-rule="evenodd" d="M7.62856 1C7.23127 1 6.85026 1.15782 6.56933 1.43875L1.43875 6.56932C0.853751 7.15432 0.853749 8.10279 1.43875 8.68779L5.3122 12.5613C5.8972 13.1463 6.84567 13.1462 7.43067 12.5612L12.5613 7.43061C12.8422 7.14968 13 6.76867 13 6.37138L13 2.49798C13 1.67067 12.3293 1 11.502 1H7.62856ZM9.5 6C8.67157 6 8 5.32843 8 4.5C8 3.67157 8.67157 3 9.5 3C10.3284 3 11 3.67157 11 4.5C11 5.32843 10.3284 6 9.5 6Z" fill="black"/>
</svg>
