<svg width="36" height="36" viewBox="0 0 36 36" fill="none" xmlns="http://www.w3.org/2000/svg">
<g opacity="0.2">
<path d="M14.2067 18.5321H16.6439C17.8045 18.5321 18.6644 18.2502 19.2235 17.6865C19.7827 17.1228 20.0623 16.3746 20.0623 15.4418C20.0623 14.5399 19.7827 13.8378 19.2235 13.3356C18.6749 12.8333 17.9153 12.5822 16.9446 12.5822C16.0689 12.5822 15.3356 12.818 14.7448 13.2894C14.154 13.7507 13.8586 14.3554 13.8586 15.1036H9.28487C9.28487 13.9352 9.60666 12.8897 10.2502 11.9672C10.9044 11.0345 11.8117 10.3068 12.9723 9.78409C14.1434 9.26136 15.4306 9 16.8338 9C19.271 9 21.1807 9.56885 22.5628 10.7066C23.9449 11.834 24.636 13.3919 24.636 15.3803C24.636 16.4053 24.3142 17.3483 23.6706 18.2092C23.027 19.0702 22.183 19.7313 21.1385 20.1925C22.4362 20.6435 23.4016 21.32 24.0346 22.2219C24.6782 23.1239 25 24.1898 25 25.4198C25 27.4082 24.2509 29.002 22.7527 30.2012C21.2651 31.4004 19.2921 32 16.8338 32C14.5338 32 12.6505 31.4107 11.184 30.232C9.72799 29.0533 9 27.4953 9 25.5582H13.5737C13.5737 26.3986 13.8955 27.0853 14.5391 27.6183C15.1932 28.1513 15.9951 28.4178 16.9446 28.4178C18.0313 28.4178 18.8806 28.141 19.4926 27.5876C20.1151 27.0238 20.4263 26.2807 20.4263 25.3583C20.4263 23.1239 19.1602 22.0067 16.6281 22.0067H14.2067V18.5321Z" fill="black"/>
<path d="M33 30C33 31.1046 32.1046 32 31 32C29.8954 32 29 31.1046 29 30C29 28.8954 29.8954 28 31 28C32.1046 28 33 28.8954 33 30Z" fill="black"/>
</g>
<path d="M12.0312 15.6124H14.6439C15.8045 15.6124 16.6644 15.3282 17.2235 14.7597C17.7827 14.1912 18.0623 13.4367 18.0623 12.4961C18.0623 11.5866 17.7827 10.8786 17.2235 10.3721C16.6749 9.86563 15.9153 9.6124 14.9446 9.6124C14.0689 9.6124 13.3356 9.85013 12.7448 10.3256C12.154 10.7907 11.8586 11.4005 11.8586 12.155H7.28487C7.28487 10.9767 7.60666 9.92248 8.25025 8.99225C8.90439 8.05168 9.81174 7.31783 10.9723 6.7907C12.1434 6.26357 13.4306 6 14.8338 6C17.271 6 19.1807 6.57364 20.5628 7.72093C21.9449 8.85788 22.636 10.4289 22.636 12.4341C22.636 13.4677 22.2667 14.7442 21.6231 15.6124C20.9796 16.4806 20.183 17.1628 19.1385 17.6279C20.4362 18.0827 21.4016 19.23 22.0346 20.1395C22.6782 21.0491 23 22.124 23 23.3643C23 25.3695 22.2509 26.9767 20.7527 28.186C19.2651 29.3953 17.2921 30 14.8338 30C12.5338 30 10.6505 29.4057 9.18398 28.2171C7.72799 27.0284 7 25.4574 7 23.5039H11.5737C11.5737 24.3514 11.8955 25.0439 12.5391 25.5814C13.1932 26.1189 13.9951 26.3876 14.9446 26.3876C16.0313 26.3876 16.8806 26.1085 17.4926 25.5504C18.1151 24.9819 18.4263 24.2326 18.4263 23.3023C18.4263 21.0491 17.1602 19.9225 14.6281 19.9225H12.0312V15.6124Z" fill="black"/>
<path d="M31 28C31 29.1046 30.1046 30 29 30C27.8954 30 27 29.1046 27 28C27 26.8954 27.8954 26 29 26C30.1046 26 31 26.8954 31 28Z" fill="black"/>
</svg>
