<svg width="18" height="18" viewBox="0 0 18 18" fill="none" xmlns="http://www.w3.org/2000/svg">
<g opacity="0.2">
<path d="M8.07031 9.23438H9.27344C9.84635 9.23438 10.2708 9.09115 10.5469 8.80469C10.8229 8.51823 10.9609 8.13802 10.9609 7.66406C10.9609 7.20573 10.8229 6.84896 10.5469 6.59375C10.276 6.33854 9.90104 6.21094 9.42188 6.21094C8.98958 6.21094 8.6276 6.33073 8.33594 6.57031C8.04427 6.80469 7.89844 7.11198 7.89844 7.49219H5.64062C5.64062 6.89844 5.79948 6.36719 6.11719 5.89844C6.4401 5.42448 6.88802 5.05469 7.46094 4.78906C8.03906 4.52344 8.67448 4.39062 9.36719 4.39062C10.5703 4.39062 11.513 4.67969 12.1953 5.25781C12.8776 5.83073 13.2188 6.6224 13.2188 7.63281C13.2188 8.15365 13.0599 8.63281 12.7422 9.07031C12.4245 9.50781 12.0078 9.84375 11.4922 10.0781C12.1328 10.3073 12.6094 10.651 12.9219 11.1094C13.2396 11.5677 13.3984 12.1094 13.3984 12.7344C13.3984 13.7448 13.0286 14.5547 12.2891 15.1641C11.5547 15.7734 10.5807 16.0781 9.36719 16.0781C8.23177 16.0781 7.30208 15.7786 6.57812 15.1797C5.85938 14.5807 5.5 13.7891 5.5 12.8047H7.75781C7.75781 13.2318 7.91667 13.5807 8.23438 13.8516C8.55729 14.1224 8.95312 14.2578 9.42188 14.2578C9.95833 14.2578 10.3776 14.1172 10.6797 13.8359C10.987 13.5495 11.1406 13.1719 11.1406 12.7031C11.1406 11.5677 10.5156 11 9.26562 11H8.07031V9.23438Z" fill="black"/>
<path d="M17.25 15C17.25 15.6904 16.6904 16.25 16 16.25C15.3096 16.25 14.75 15.6904 14.75 15C14.75 14.3096 15.3096 13.75 16 13.75C16.6904 13.75 17.25 14.3096 17.25 15Z" fill="black"/>
</g>
<path d="M6.07031 7.82812H7.27344C7.84635 7.82812 8.27083 7.6849 8.54688 7.39844C8.82292 7.11198 8.96094 6.73177 8.96094 6.25781C8.96094 5.79948 8.82292 5.44271 8.54688 5.1875C8.27604 4.93229 7.90104 4.80469 7.42188 4.80469C6.98958 4.80469 6.6276 4.92448 6.33594 5.16406C6.04427 5.39844 5.89844 5.70573 5.89844 6.08594H3.64062C3.64062 5.49219 3.79948 4.96094 4.11719 4.49219C4.4401 4.01823 4.88802 3.64844 5.46094 3.38281C6.03906 3.11719 6.67448 2.98438 7.36719 2.98438C8.57031 2.98438 9.51302 3.27344 10.1953 3.85156C10.8776 4.42448 11.2188 5.21615 11.2188 6.22656C11.2188 6.7474 11.0365 7.39062 10.7188 7.82812C10.401 8.26562 10.0078 8.60938 9.49219 8.84375C10.1328 9.07292 10.6094 9.65104 10.9219 10.1094C11.2396 10.5677 11.3984 11.1094 11.3984 11.7344C11.3984 12.7448 11.0286 13.5547 10.2891 14.1641C9.55469 14.7734 8.58073 15.0781 7.36719 15.0781C6.23177 15.0781 5.30208 14.7786 4.57812 14.1797C3.85938 13.5807 3.5 12.7891 3.5 11.8047H5.75781C5.75781 12.2318 5.91667 12.5807 6.23438 12.8516C6.55729 13.1224 6.95312 13.2578 7.42188 13.2578C7.95833 13.2578 8.3776 13.1172 8.67969 12.8359C8.98698 12.5495 9.14062 12.1719 9.14062 11.7031C9.14062 10.5677 8.51562 10 7.26562 10H6.07031V7.82812Z" fill="black"/>
<path d="M15.25 14C15.25 14.6904 14.6904 15.25 14 15.25C13.3096 15.25 12.75 14.6904 12.75 14C12.75 13.3096 13.3096 12.75 14 12.75C14.6904 12.75 15.25 13.3096 15.25 14Z" fill="black"/>
</svg>
