<svg width="18" height="18" viewBox="0 0 18 18" fill="none" xmlns="http://www.w3.org/2000/svg">
<path d="M11.6582 6.10132C11.6582 6.10132 13.4815 5.74554 14.1104 5.71689C14.7394 5.68824 17.0015 5.85456 17.0015 7.50174C16.9923 9.64124 16.2186 11.5963 15.5091 13.3054C14.7996 15.0145 14.2341 15.5996 13.2589 15.8475C12.3342 16.0958 11.356 16.0761 10.4425 15.7908L6.61143 14.3988C5.69376 14.1673 5.03946 13.3731 5.00146 12.4447V7.93738C5.00182 7.55511 5.1209 7.18202 5.34287 6.86778L9.5554 1.37036C10.0697 0.903565 10.8638 0.903565 11.3781 1.37036C12.1904 2.43263 11.9546 4.28351 11.1314 5.33763C10.8947 5.67348 11.2044 6.10132 11.6582 6.10132Z" fill="black"/>
<path d="M2.5 6C1.67157 6 1 6.67157 1 7.5V12.5C1 13.3284 1.67157 14 2.5 14C3.32843 14 4 13.3284 4 12.5V7.5C4 6.67157 3.32843 6 2.5 6Z" fill="black"/>
</svg>
