<svg width="18" height="18" viewBox="0 0 18 18" fill="none" xmlns="http://www.w3.org/2000/svg">
<path opacity="0.7" d="M2.46 15H4V9H2.46C2.07278 9 1.70143 9.15382 1.42762 9.42762C1.15382 9.70143 1 10.0728 1 10.46V13.54C1 13.9272 1.15382 14.2986 1.42762 14.5724C1.70143 14.8462 2.07278 15 2.46 15V15Z" fill="#0077CC"/>
<path d="M5 15V9.00002L9.27 3.30002C9.505 3.08142 9.81405 2.9599 10.135 2.9599C10.456 2.9599 10.765 3.08142 11 3.30002C11.3419 3.61804 11.4843 4.52906 11.4398 5.18818C11.3952 5.8473 11.1551 6.47815 10.75 7.00002C10.52 7.31002 10.7891 7.78125 11.24 7.71002C11.24 7.71002 12.95 7.38002 13.54 7.35002C14.13 7.32002 16.25 7.48002 16.25 9.03002C16.1447 10.9176 15.669 12.7661 14.85 14.47C14.19 16.07 13.66 16.62 12.74 16.85C11.8724 17.0789 10.9583 17.0616 10.1 16.8L5 15Z" fill="#FFC166"/>
<g opacity="0.4">
<path d="M10.2994 1.95812C10.3596 1.98446 10.4243 1.99868 10.49 1.99998C10.6219 2.00008 10.7487 1.94911 10.8437 1.85775C10.9388 1.76639 10.9948 1.64175 11 1.50998V0.679983C11.0013 0.614319 10.9897 0.549036 10.9658 0.487865C10.9419 0.426694 10.9062 0.370832 10.8607 0.323472C10.8152 0.276111 10.7608 0.23818 10.7006 0.211844C10.6404 0.185507 10.5757 0.171283 10.51 0.169983C10.3789 0.172288 10.2535 0.224061 10.1589 0.314928C10.0643 0.405796 10.0076 0.529045 10 0.659983V1.48998C9.99868 1.55565 10.0103 1.62093 10.0342 1.6821C10.0581 1.74327 10.0939 1.79913 10.1394 1.84649C10.1849 1.89385 10.2392 1.93179 10.2994 1.95812Z" fill="black"/>
<path d="M6.8375 3.35414L6.1975 2.72414C6.1007 2.62999 6.04526 2.50124 6.04338 2.36621C6.04151 2.23119 6.09335 2.10095 6.1875 2.00414C6.28165 1.90734 6.4104 1.8519 6.54543 1.85002C6.68046 1.84815 6.8107 1.89999 6.9075 1.99414L7.5375 2.62414C7.58437 2.67062 7.62156 2.72592 7.64695 2.78685C7.67233 2.84778 7.6854 2.91314 7.6854 2.97914C7.6854 3.04515 7.67233 3.1105 7.64695 3.17143C7.62156 3.23236 7.58437 3.28766 7.5375 3.33414C7.49399 3.38328 7.44087 3.42297 7.38142 3.45077C7.32196 3.47857 7.25744 3.49388 7.19183 3.49575C7.12623 3.49763 7.06094 3.48603 6.99999 3.46167C6.93905 3.43731 6.88374 3.40072 6.8375 3.35414Z" fill="black"/>
<path d="M13.71 2.73001L13.07 3.36001C13.0251 3.40784 12.9709 3.44597 12.9107 3.47203C12.8505 3.49809 12.7856 3.51153 12.72 3.51153C12.6544 3.51153 12.5895 3.49809 12.5293 3.47203C12.4691 3.44597 12.4149 3.40784 12.37 3.36001C12.3231 3.31353 12.2859 3.25823 12.2606 3.1973C12.2352 3.13637 12.2221 3.07102 12.2221 3.00501C12.2221 2.93901 12.2352 2.87365 12.2606 2.81272C12.2859 2.75179 12.3231 2.69649 12.37 2.65001L13 2.00001C13.0466 1.95339 13.102 1.91641 13.1629 1.89118C13.2238 1.86595 13.2891 1.85297 13.355 1.85297C13.4209 1.85297 13.4862 1.86595 13.5471 1.89118C13.608 1.91641 13.6634 1.95339 13.71 2.00001C13.7566 2.04663 13.7936 2.10198 13.8188 2.16289C13.8441 2.2238 13.8571 2.28908 13.8571 2.35501C13.8571 2.42094 13.8441 2.48623 13.8188 2.54714C13.7936 2.60805 13.7566 2.66339 13.71 2.71001V2.73001Z" fill="black"/>
</g>
</svg>
