<svg width="18" height="18" viewBox="0 0 18 18" fill="none" xmlns="http://www.w3.org/2000/svg">
<path opacity="0.7" d="M1 6.5C1 5.67157 1.67157 5 2.5 5H4V11H2.5C1.67157 11 1 10.3284 1 9.5V6.5Z" fill="#0077CC"/>
<path d="M5 4.94727V10.9473C5 10.9473 8.94094 16.2317 9.20312 16.5567C9.46531 16.8816 9.84311 17.0098 10.1641 17.0098C10.485 17.0098 10.765 16.8659 11 16.6473C11.3419 16.3293 11.4843 15.4182 11.4398 14.7591C11.3952 14.1 11.1551 13.4691 10.75 12.9473C10.52 12.6373 10.7891 12.166 11.24 12.2373C11.24 12.2373 12.95 12.5673 13.54 12.5973C14.13 12.6273 16.25 12.7232 16.25 10.9173C16.25 9.11136 15.2812 6.39261 14.85 5.47727C14.4188 4.56194 13.66 3.32727 12.74 3.09727C11.8724 2.86841 10.9583 2.88572 10.1 3.14727L5 4.94727Z" fill="#FFC166"/>
</svg>
