<svg width="18" height="18" viewBox="0 0 18 18" fill="none" xmlns="http://www.w3.org/2000/svg">
<g id="Icon/ThumbsDown">
<g id="ThumbsDown">
<path d="M11.6582 10.9392C11.6582 10.9392 13.4815 11.295 14.1104 11.3236C14.7394 11.3523 17.0015 11.186 17.0015 9.53878C16.9923 7.39929 16.2186 5.44422 15.5091 3.7351C14.7996 2.02598 14.2341 1.4409 13.2589 1.193C12.3342 0.94476 11.356 0.964449 10.4425 1.24969L6.61143 2.64171C5.69376 2.87326 5.03946 3.66744 5.00146 4.59587V9.10315C5.00182 9.48542 5.1209 9.85851 5.34287 10.1728L9.5554 15.6702C10.0697 16.137 10.8638 16.137 11.3781 15.6702C12.1904 14.6079 11.9546 12.757 11.1314 11.7029C10.8947 11.367 11.2044 10.9392 11.6582 10.9392Z" fill="black"/>
<path d="M2.5 3C1.67157 3 1 3.67157 1 4.5V9.5C1 10.3284 1.67157 11 2.5 11C3.32843 11 4 10.3284 4 9.5V4.5C4 3.67157 3.32843 3 2.5 3Z" fill="black"/>
</g>
</g>
</svg>
