<svg width="18" height="18" viewBox="0 0 18 18" fill="none" xmlns="http://www.w3.org/2000/svg">
<path d="M5 15V9.00001C5 9.00001 8.94094 3.7156 9.20312 3.39062C9.46531 3.06565 9.84311 2.9375 10.1641 2.9375C10.485 2.9375 10.765 3.08141 11 3.30001C11.3419 3.61803 11.4843 4.52905 11.4398 5.18817C11.3952 5.84729 11.1551 6.47814 10.75 7.00001C10.52 7.31001 10.7891 7.78124 11.24 7.71001C11.24 7.71001 12.95 7.38001 13.54 7.35001C14.13 7.32001 16.25 7.22409 16.25 9.03001C16.25 10.8359 15.2812 13.5547 14.85 14.47C14.4188 15.3853 13.66 16.62 12.74 16.85C11.8724 17.0789 10.9583 17.0616 10.1 16.8L5 15Z" fill="#FFC166"/>
<path opacity="0.7" d="M1 10.5C1 9.67157 1.67157 9 2.5 9H4V15H2.5C1.67157 15 1 14.3284 1 13.5V10.5Z" fill="#0077CC"/>
<g opacity="0.4">
<path d="M11 0.5C11 0.223858 10.7761 0 10.5 0C10.2239 0 10 0.223858 10 0.5V1.5C10 1.77614 10.2239 2 10.5 2C10.7761 2 11 1.77614 11 1.5V0.5Z" fill="black"/>
<path d="M6.14645 2.14645C6.34171 1.95118 6.65829 1.95118 6.85355 2.14645L7.85355 3.14645C8.04882 3.34171 8.04882 3.65829 7.85355 3.85355C7.65829 4.04882 7.34171 4.04882 7.14645 3.85355L6.14645 2.85355C5.95118 2.65829 5.95118 2.34171 6.14645 2.14645Z" fill="black"/>
<path d="M14.8536 2.14645C15.0488 2.34171 15.0488 2.65829 14.8536 2.85355L13.8536 3.85355C13.6583 4.04882 13.3417 4.04882 13.1464 3.85355C12.9512 3.65829 12.9512 3.34171 13.1464 3.14645L14.1464 2.14645C14.3417 1.95118 14.6583 1.95118 14.8536 2.14645Z" fill="black"/>
</g>
</svg>
