<svg width="18" height="18" viewBox="0 0 18 18" fill="none" xmlns="http://www.w3.org/2000/svg">
<path opacity="0.7" d="M2.46 4.96967H4V10.9697H2.46C2.07278 10.9697 1.70143 10.8158 1.42762 10.542C1.15382 10.2682 1 9.89688 1 9.50967V6.42967C1 6.04245 1.15382 5.67109 1.42762 5.39729C1.70143 5.12349 2.07278 4.96967 2.46 4.96967V4.96967Z" fill="#0077CC"/>
<path d="M5 4.96964V10.9696L9.27 16.6696C9.505 16.8882 9.81405 17.0098 10.135 17.0098C10.456 17.0098 10.765 16.8882 11 16.6696C11.3419 16.3516 11.4843 15.4406 11.4398 14.7815C11.3952 14.1224 11.1551 13.4915 10.75 12.9696C10.52 12.6596 10.7891 12.1884 11.24 12.2596C11.24 12.2596 12.95 12.5896 13.54 12.6196C14.13 12.6496 16.25 12.4896 16.25 10.9396C16.1447 9.05203 15.669 7.20358 14.85 5.49964C14.19 3.89964 13.66 3.34964 12.74 3.11964C11.8724 2.89078 10.9583 2.90809 10.1 3.16965L5 4.96964Z" fill="#FFC166"/>
</svg>
