<svg width="18" height="18" viewBox="0 0 18 18" fill="none" xmlns="http://www.w3.org/2000/svg">
<path fill-rule="evenodd" clip-rule="evenodd" d="M2 4C2 2.89543 2.89543 2 4 2H15C16.1046 2 17 2.89543 17 4V15C17 16.1046 16.1046 17 15 17H4C2.89543 17 2 16.1046 2 15V4ZM4.5 6.5C4.5 6.77614 4.72386 7 5 7H6V12.5C6 12.7761 6.22386 13 6.5 13C6.77614 13 7 12.7761 7 12.5V7H8C8.27614 7 8.5 6.77614 8.5 6.5C8.5 6.22386 8.27614 6 8 6H5C4.72386 6 4.5 6.22386 4.5 6.5ZM10 6.5C10 6.22386 9.77614 6 9.5 6C9.22386 6 9 6.22386 9 6.5V12.5C9 12.7761 9.22386 13 9.5 13C9.77614 13 10 12.7761 10 12.5V6.5ZM12.5 6C12.2239 6 12 6.22386 12 6.5V12.5C12 12.7761 12.2239 13 12.5 13H14.5C14.7761 13 15 12.7761 15 12.5C15 12.2239 14.7761 12 14.5 12H13V6.5C13 6.22386 12.7761 6 12.5 6Z" fill="#8B41AF"/>
</svg>
