<svg width="18" height="18" viewBox="0 0 18 18" fill="none" xmlns="http://www.w3.org/2000/svg">
<path fill-rule="evenodd" clip-rule="evenodd" d="M17 4.03801C16.41 4.29801 15.78 4.47501 15.115 4.55501C15.792 4.14801 16.313 3.50501 16.558 2.73901C15.924 3.10901 15.221 3.37901 14.473 3.52901C13.875 2.88901 13.023 2.48901 12.077 2.48901C10.265 2.48901 8.795 3.95901 8.795 5.76901C8.795 6.02901 8.825 6.27901 8.88 6.51901C6.152 6.38901 3.733 5.07901 2.114 3.09901C1.83 3.58001 1.67 4.14001 1.67 4.75001C1.67 5.89001 2.25 6.89301 3.13 7.48201C2.592 7.46501 2.085 7.31701 1.643 7.07201V7.11201C1.643 8.70201 2.773 10.03 4.276 10.332C4 10.406 3.71 10.446 3.411 10.446C3.201 10.446 3.001 10.426 2.801 10.388C3.221 11.692 4.431 12.641 5.871 12.668C4.751 13.548 3.331 14.072 1.801 14.072C1.541 14.072 1.281 14.057 1.021 14.027C2.481 14.957 4.201 15.501 6.061 15.501C12.101 15.501 15.401 10.501 15.401 6.17101C15.401 6.03101 15.401 5.89101 15.391 5.75101C16.031 5.29101 16.591 4.71101 17.031 4.05101L17 4.03801Z" fill="#2AA3EF"/>
</svg>
