<svg width="18" height="18" viewBox="0 0 18 18" fill="none" xmlns="http://www.w3.org/2000/svg">
<g opacity="0.2">
<path d="M17.25 15C17.25 15.6904 16.6904 16.25 16 16.25C15.3096 16.25 14.75 15.6904 14.75 15C14.75 14.3096 15.3096 13.75 16 13.75C16.6904 13.75 17.25 14.3096 17.25 15Z" fill="black"/>
<path d="M12.9609 16H5.16406V14.4531L8.84375 10.5312C9.34896 9.97917 9.72135 9.4974 9.96094 9.08594C10.2057 8.67448 10.3281 8.28385 10.3281 7.91406C10.3281 7.40885 10.2005 7.01302 9.94531 6.72656C9.6901 6.4349 9.32552 6.28906 8.85156 6.28906C8.34115 6.28906 7.9375 6.46615 7.64062 6.82031C7.34896 7.16927 7.20312 7.45833 7.20312 8.03125H4.9375C4.9375 7.33854 5.10156 6.8776 5.42969 6.30469C5.76302 5.73177 6.23177 5.28385 6.83594 4.96094C7.4401 4.63281 8.125 4.46875 8.89062 4.46875C10.0625 4.46875 10.9714 4.75 11.6172 5.3125C12.2682 5.875 12.5938 6.66927 12.5938 7.69531C12.5938 8.25781 12.4479 8.83073 12.1562 9.41406C11.8646 9.9974 11.3646 10.6771 10.6562 11.4531L8.07031 14.1797H12.9609V16Z" fill="black"/>
</g>
<path d="M10.9609 15H3.16406V13.4531L6.84375 9.53125C7.34896 8.97917 7.72135 8.4974 7.96094 8.08594C8.20573 7.67448 8.38281 7.16276 8.38281 6.79297C8.38281 6.39844 8.38606 5.9122 8.03906 5.51562C7.78385 5.22396 7.32552 4.98438 6.85156 4.98438C6.34115 4.98438 5.9375 5.16146 5.64062 5.51562C5.34896 5.86458 5.20312 6.45833 5.20312 7.03125H2.9375C2.9375 6.33854 3.10156 5.4401 3.42969 4.86719C3.76302 4.29427 4.23177 3.84635 4.83594 3.52344C5.4401 3.19531 6.125 3.03125 6.89062 3.03125C8.0625 3.03125 8.96354 3.42188 9.60938 3.98438C10.2604 4.54688 10.5938 5.66927 10.5938 6.69531C10.5938 7.25781 10.4479 7.83073 10.1562 8.41406C9.86458 8.9974 9.36458 9.67708 8.65625 10.4531L6.07031 13.1797H10.9609V15Z" fill="black"/>
<path d="M15.25 14C15.25 14.6904 14.6904 15.25 14 15.25C13.3096 15.25 12.75 14.6904 12.75 14C12.75 13.3096 13.3096 12.75 14 12.75C14.6904 12.75 15.25 13.3096 15.25 14Z" fill="black"/>
</svg>
