<svg width="36" height="36" viewBox="0 0 36 36" fill="none" xmlns="http://www.w3.org/2000/svg">
<g opacity="0.2">
<path d="M33 30C33 31.1046 32.1046 32 31 32C29.8954 32 29 31.1046 29 30C29 28.8954 29.8954 28 31 28C32.1046 28 33 28.8954 33 30Z" fill="black"/>
<path d="M26 32H10.4518V28.9146L17.7897 21.0921C18.7971 19.991 19.5398 19.03 20.0175 18.2093C20.5057 17.3887 20.7498 16.6095 20.7498 15.872C20.7498 14.8643 20.4953 14.0748 19.9864 13.5034C19.4774 12.9216 18.7504 12.6308 17.8053 12.6308C16.7874 12.6308 15.9825 12.984 15.3905 13.6904C14.8088 14.3864 14.518 14.963 14.518 16.1057H10C10 14.724 10.3272 13.8047 10.9815 12.6619C11.6462 11.5192 12.581 10.6258 13.7858 9.98171C14.9906 9.32724 16.3564 9 17.8832 9C20.2201 9 22.0325 9.56098 23.3204 10.6829C24.6186 11.8049 25.2678 13.3891 25.2678 15.4356C25.2678 16.5576 24.977 17.7003 24.3953 18.8638C23.8137 20.0273 22.8166 21.383 21.4041 22.9309L16.2473 28.3692H26V32Z" fill="black"/>
</g>
<path d="M22 30H6V27.1562L13.7897 19.0339C14.7971 17.9269 15.5398 16.9608 16.0175 16.1358C16.5057 15.3107 16.8588 14.2846 16.8588 13.5431C16.8588 12.752 16.8653 11.7769 16.1733 10.9817C15.6644 10.3969 14.7504 9.91645 13.8053 9.91645C12.7874 9.91645 11.9825 10.2715 11.3905 10.9817C10.8088 11.6815 10.518 12.8721 10.518 14.0209H6C6 12.6319 6.32717 10.8303 6.9815 9.68146C7.64622 8.53264 8.58098 7.63446 9.78578 6.98695C10.9906 6.32898 12.3564 6 13.8832 6C16.2201 6 18.0169 6.78329 19.3048 7.91123C20.6031 9.03916 21.2678 11.2898 21.2678 13.3473C21.2678 14.4752 20.977 15.624 20.3953 16.7937C19.8137 17.9634 18.8166 19.3264 17.4041 20.8825L12.2473 26.3499H22V30Z" fill="black"/>
<path d="M31 28C31 29.1046 30.1046 30 29 30C27.8954 30 27 29.1046 27 28C27 26.8954 27.8954 26 29 26C30.1046 26 31 26.8954 31 28Z" fill="black"/>
</svg>
