<svg width="18" height="18" viewBox="0 0 18 18" fill="none" xmlns="http://www.w3.org/2000/svg">
<path fill-rule="evenodd" clip-rule="evenodd" d="M5.90317 6.00395C5.90317 4.29144 7.29144 2.90317 9.00395 2.90317C9.91374 2.90317 10.731 3.29378 11.2995 3.91938C11.6524 4.30766 12.2532 4.33636 12.6415 3.98349C13.0298 3.63063 13.0585 3.0298 12.7056 2.64152C11.7921 1.63639 10.4713 1.00317 9.00395 1.00317C6.2421 1.00317 4.00317 3.2421 4.00317 6.00395C4.00317 6.3232 4.00307 6.65632 4.00287 7.00006H4C3.46957 7.00006 2.96086 7.21078 2.58579 7.58585C2.21071 7.96092 2 8.46963 2 9.00006V15.0001C2 16.1001 2.9 17.0001 4 17.0001H14C14.5304 17.0001 15.0391 16.7893 15.4142 16.4143C15.7893 16.0392 16 15.5305 16 15.0001V9.00006C16 8.46963 15.7893 7.96092 15.4142 7.58585C15.0391 7.21078 14.5304 7.00006 14 7.00006H5.90287C5.90307 6.65636 5.90317 6.32324 5.90317 6.00395ZM7.58579 13.4143C7.21071 13.0392 7 12.5305 7 12.0001C7 10.9001 7.9 10.0001 9 10.0001C9.53043 10.0001 10.0391 10.2108 10.4142 10.5858C10.7893 10.9609 11 11.4696 11 12.0001C11 12.5305 10.7893 13.0392 10.4142 13.4143C10.0391 13.7893 9.53043 14.0001 9 14.0001C8.46957 14.0001 7.96086 13.7893 7.58579 13.4143Z" fill="black"/>
</svg>
