<svg width="14" height="14" viewBox="0 0 14 14" fill="none" xmlns="http://www.w3.org/2000/svg">
<path fill-rule="evenodd" clip-rule="evenodd" d="M4.90313 4.50317C4.90313 3.34338 5.84333 2.40317 7.00313 2.40317C7.58802 2.40317 8.11599 2.64137 8.49754 3.0278C8.76916 3.3029 9.21237 3.30572 9.48747 3.0341C9.76257 2.76247 9.76539 2.31927 9.49377 2.04417C8.85998 1.40227 7.97752 1.00317 7.00313 1.00317C5.07013 1.00317 3.50312 2.57018 3.50312 4.50317V5.00005H3.5C2.67157 5.00005 2 5.67162 2 6.50005V11.5C2 12.3285 2.67157 13 3.5 13H10.5C11.3284 13 12 12.3285 12 11.5V6.50005C12 5.67162 11.3284 5.00005 10.5 5.00005H4.90313V4.50317ZM8.5 9.00005C8.5 9.82848 7.82843 10.5 7 10.5C6.17157 10.5 5.5 9.82848 5.5 9.00005C5.5 8.17162 6.17157 7.50005 7 7.50005C7.82843 7.50005 8.5 8.17162 8.5 9.00005Z" fill="black"/>
</svg>
