<svg width="14" height="14" fill="none" xmlns="http://www.w3.org/2000/svg"><path fill-rule="evenodd" clip-rule="evenodd" d="M12.297.692L.813 12.177l1.013 1.013L13.31 1.705 12.297.692zM7 13a6.136 6.136 0 0 1-2.48-.52l1.277-1.277c.382.104.785.16 1.203.16a4.46 4.46 0 0 0 3.584-1.78L9 8h4v4l-1.25-1.25A6.105 6.105 0 0 1 7 13zm4.33-7a4.25 4.25 0 0 0-.071-.259l1.263-1.263c.224.477.387.987.478 1.522h-1.67zM8.227 2.804L9.502 1.53A6.134 6.134 0 0 0 7 1a6.105 6.105 0 0 0-4.75 2.25L1 2v4h4L3.416 4.416A4.46 4.46 0 0 1 7 2.636c.427 0 .838.06 1.227.168zm-6.74 6.74l1.261-1.261A4.274 4.274 0 0 1 2.67 8H1c.092.543.258 1.06.488 1.543z" fill="#000"/></svg>