<svg width="18" height="18" fill="none" xmlns="http://www.w3.org/2000/svg"><path fill-rule="evenodd" clip-rule="evenodd" d="M17.035 2.379L15.621.965.965 15.62l1.414 1.414L17.035 2.38zM9 1c1.456 0 2.823.365 4.01 1.005l-1.633 1.634A6.297 6.297 0 0 0 9 3.179c-1.916 0-3.592.837-4.696 2.125L7 8H1V2l1.759 1.759A8.356 8.356 0 0 1 9 1zm5.493 5.507l1.604-1.604c.398.646.705 1.35.903 2.097h-2.29a5.686 5.686 0 0 0-.217-.493zM3.29 11c.066.172.14.34.222.504l-1.603 1.602A7.82 7.82 0 0 1 1 11h2.29zm3.344 3.366L5 16C6.185 16.637 7.55 17 9 17a8.356 8.356 0 0 0 6.241-2.759L17 16v-6h-6l2.696 2.696C12.592 13.984 10.916 14.82 9 14.82a6.296 6.296 0 0 1-2.366-.454z" fill="#000"/></svg>