<svg width="16" height="14" viewBox="0 0 16 14" fill="none" xmlns="http://www.w3.org/2000/svg">
<path fill-rule="evenodd" clip-rule="evenodd" d="M8 13C6.85567 13 5.78617 12.6797 4.87628 12.1237L6.09793 10.9021C6.67229 11.1826 7.31776 11.34 8 11.34C8.45666 11.34 8.89684 11.2695 9.31026 11.1387L10.5868 12.4153C9.80355 12.7901 8.92629 13 8 13ZM3.74329 7.85046L2.40984 9.18391C2.14524 8.50712 2 7.77052 2 7C2 6.07371 2.2099 5.19645 2.58473 4.41319L3.86129 5.68974C3.73053 6.10316 3.66 6.54334 3.66 7C3.66 7.29107 3.68865 7.57544 3.74329 7.85046ZM11.1237 1.87626L9.90207 3.09792C9.32771 2.81742 8.68224 2.66 8 2.66C7.54333 2.66 7.10313 2.73053 6.6897 2.8613L5.41315 1.58475C6.19643 1.20991 7.0737 1 8 1C9.14433 1 10.2138 1.32035 11.1237 1.87626ZM12.2461 6.09768C12.3076 6.38875 12.34 6.6906 12.34 7C12.34 7.45667 12.2695 7.89687 12.1387 8.3103L13.4152 9.58685C13.7901 8.80357 14 7.9263 14 7C14 6.21245 13.8483 5.46034 13.5724 4.77131L12.2461 6.09768Z" fill="black"/>
<rect x="2.93004" y="0.91626" width="16" height="1.66" rx="0.83" transform="rotate(45 2.93004 0.91626)" fill="black"/>
<path d="M1.53568e-06 7L3 9.99997L6 7.00003L1.53568e-06 7Z" fill="black"/>
<path d="M16 7.00001L13 4L10 7.00001L16 7.00001Z" fill="black"/>
</svg>
