<svg width="22" height="18" viewBox="0 0 22 18" fill="none" xmlns="http://www.w3.org/2000/svg">
<path fill-rule="evenodd" clip-rule="evenodd" d="M17.8924 13.0639C18.5961 11.8729 19 10.4836 19 9C19 7.30972 18.4758 5.74187 17.5811 4.45017L16.1356 5.8957C16.6842 6.80137 17 7.86381 17 9C17 9.92629 16.7901 10.8036 16.4153 11.5868L17.8924 13.0639ZM15.0639 15.8924L13.5868 14.4153C12.8036 14.7901 11.9263 15 11 15C9.86381 15 8.80137 14.6842 7.8957 14.1356L6.45017 15.5811C7.74187 16.4758 9.30972 17 11 17C12.4836 17 13.8729 16.5961 15.0639 15.8924ZM8.41317 3.58474C9.19644 3.2099 10.0737 3 11 3C12.1362 3 13.1986 3.31581 14.1043 3.86445L15.5498 2.41892C14.2581 1.52421 12.6903 1 11 1C9.51638 1 8.12709 1.40386 6.93607 2.10764L8.41317 3.58474ZM4.10764 4.93607L5.58474 6.41317C5.2099 7.19644 5 8.07371 5 9C5 10.1362 5.31581 11.1986 5.86445 12.1043L4.41892 13.5498C3.52421 12.2581 3 10.6903 3 9C3 7.51638 3.40386 6.12709 4.10764 4.93607Z" fill="black"/>
<path d="M-2.00261e-07 10L4 14L8 10L-2.00261e-07 10Z" fill="black"/>
<rect x="19.4853" y="16.071" width="2" height="22" rx="1" transform="rotate(135 19.4853 16.071)" fill="black"/>
<path d="M22 8L18 4L14 8.00004L22 8Z" fill="black"/>
</svg>
