<svg width="18" height="18" viewBox="0 0 18 18" fill="none" xmlns="http://www.w3.org/2000/svg">
<path fill-rule="evenodd" clip-rule="evenodd" d="M11.5557 10.1288L10.1257 11.5588L15.5687 16.9988L16.9957 15.5718L11.5557 10.1288Z" fill="#9199A1"/>
<path fill-rule="evenodd" clip-rule="evenodd" d="M16.2656 3.63378L13.741 6.15838C10.9781 3.39545 7.11172 2.46859 3.64261 3.61613C7.12937 0.138192 12.7788 0.147019 16.2656 3.63378ZM3.61613 3.64261C0.138192 7.12937 0.147019 12.7788 3.63378 16.2656L6.15838 13.741C3.39545 10.9781 2.46859 7.11172 3.61613 3.64261Z" fill="#F7AA6D"/>
<path d="M3.62497 3.63379L3.63379 3.62497C6.2908 3.28953 9.71577 4.65775 12.4787 7.42068L7.42068 12.4787C4.65775 9.70694 3.28953 6.2908 3.62497 3.63379Z" fill="#F48024"/>
</svg>
