<svg width="18" height="18" viewBox="0 0 18 18" fill="none" xmlns="http://www.w3.org/2000/svg">
<path fill-rule="evenodd" clip-rule="evenodd" d="M16.2656 3.63378L13.741 6.15838C10.9781 3.39545 7.11172 2.46859 3.64261 3.61613C7.12937 0.138192 12.7788 0.147019 16.2656 3.63378ZM11.5558 10.1288L10.1258 11.5588L15.5688 16.9988L16.9958 15.5718L11.5558 10.1288ZM3.61613 3.64261C0.138192 7.12937 0.147019 12.7788 3.63378 16.2656L6.15838 13.741C3.39545 10.9781 2.46859 7.11172 3.61613 3.64261ZM3.62496 3.63378L3.63378 3.62496C6.29078 3.28952 9.71576 4.65774 12.4787 7.42067L7.42067 12.4787C4.65774 9.70693 3.28952 6.29078 3.62496 3.63378Z" fill="black"/>
</svg>
