<svg width="18" height="18" viewBox="0 0 18 18" fill="none" xmlns="http://www.w3.org/2000/svg">
<path d="M8.44164 14.9256H9.4754C9.4754 14.9256 9.78689 14.8898 9.94588 14.7094C10.097 14.5411 10.097 14.2298 10.097 14.2298C10.097 14.2298 10.0747 12.7627 10.7221 12.5472C11.3602 12.3333 12.1695 13.9633 13.0321 14.5899C13.691 15.0687 14.1867 14.9659 14.1867 14.9659L16.4966 14.9324C16.4966 14.9324 17.7067 14.8525 17.1347 13.8468C17.0909 13.7669 16.8103 13.1045 15.4291 11.7456C13.9817 10.3288 14.1759 10.5572 15.9154 8.10117C16.9722 6.60519 17.4045 5.69085 17.2642 5.30258C17.1448 4.93715 16.3578 5.02774 16.3578 5.02774L13.7666 5.05134C13.7666 5.05134 13.5723 5.02774 13.432 5.11986C13.2918 5.21046 13.2062 5.41753 13.2062 5.41753C13.2062 5.41753 12.7947 6.58158 12.245 7.56444C11.0775 9.64207 10.6135 9.75627 10.43 9.61923C9.99552 9.32156 10.107 8.41635 10.107 7.76771C10.107 5.75708 10.3977 4.38583 9.54518 4.16886C9.26462 4.09958 9.05528 4.05466 8.33301 4.04248C7.405 4.03182 6.6223 4.0501 6.17844 4.27925C5.88708 4.4338 5.66048 4.77563 5.79069 4.79314C5.96334 4.81598 6.35109 4.90429 6.55612 5.20196C6.82589 5.58719 6.81438 6.97442 6.81438 6.97442C6.81438 6.97442 6.96617 9.34668 6.459 9.64131C6.1029 9.84077 5.6281 9.42814 4.59218 7.54313C4.06343 6.58387 3.66345 5.51042 3.66345 5.51042C3.66345 5.51042 3.58791 5.31552 3.44835 5.20132C3.28505 5.0757 3.04765 5.03003 3.04765 5.03003L0.57655 5.05287C0.57655 5.05287 0.209662 5.06505 0.0808909 5.23558C-0.0385277 5.38404 0.0693807 5.70379 0.0693807 5.70379C0.0693807 5.70379 2.00166 10.4902 4.19292 12.9005C6.20002 15.1098 8.47761 14.9675 8.47761 14.9675L8.44164 14.9256Z" fill="#507299"/>
</svg>
