<svg width="18" height="18" viewBox="0 0 18 18" fill="none" xmlns="http://www.w3.org/2000/svg">
<path fill-rule="evenodd" clip-rule="evenodd" d="M14.4192 6.47988C14.7121 6.18699 14.7121 5.71212 14.4192 5.41922L12.5808 3.58075C12.2879 3.28785 11.813 3.28785 11.5201 3.58074L0.580769 14.5201C0.287876 14.813 0.287876 15.2879 0.580769 15.5807L2.41925 17.4192C2.71214 17.7121 3.18701 17.7121 3.47991 17.4192L14.4192 6.47988ZM12.0454 4.04541L13.9546 5.9546L10.9546 8.9546L9.0454 7.04541L12.0454 4.04541Z" fill="black"/>
<path d="M7.99999 0H6.99999V1H5.99999V2H6.99999V3H7.99999V2H8.99999V1H7.99999V0Z" fill="black"/>
<path d="M17 2H16V1H15V2H14V3H15V4H16V3H17V2Z" fill="black"/>
<path d="M15 11H16V12H15V13H14V12H13V11H14V10H15V11Z" fill="black"/>
</svg>
