<svg width="18" height="18" viewBox="0 0 18 18" fill="none" xmlns="http://www.w3.org/2000/svg">
<path fill-rule="evenodd" clip-rule="evenodd" d="M10.6963 16.9954C8.40252 16.9954 6.79954 14.9536 5.6292 13.4628C5.43321 13.2129 5.2835 13.0228 5.14262 12.8554C4.4739 12.0609 3.55231 11.2345 2.7377 10.5038C2.00473 9.8466 1.31272 9.22573 1.10465 8.87072C1.00474 8.70036 0.972617 8.49974 1.01417 8.30572C1.05337 8.12243 1.15299 7.97409 1.2806 7.90914C1.42 7.83787 1.56972 7.80181 1.72563 7.80181C2.08283 7.80181 2.3973 7.98895 2.598 8.1461L6.11343 10.899C6.14909 10.9271 6.20833 10.9268 6.24487 10.8962C6.28171 10.8657 6.28849 10.8137 6.26079 10.7749L6.2434 10.7518C5.67488 9.95861 2.82228 5.98352 2.52756 5.60181C2.31507 5.32606 2.22901 5.0203 2.29149 4.76271C2.34159 4.55658 2.48129 4.38953 2.69555 4.28027C2.86502 4.19358 3.03772 4.14982 3.20896 4.14982C3.64603 4.14982 3.97346 4.42586 4.17328 4.66033L7.77683 9.08483C7.8066 9.11978 7.84167 9.14097 7.91064 9.10409C7.95514 9.07685 7.96899 9.02511 7.94335 8.98162L4.41466 2.96231C4.27732 2.72811 4.23871 2.46721 4.30561 2.22723C4.3734 1.98422 4.54345 1.7825 4.78424 1.65948C4.93455 1.58242 5.10283 1.54197 5.27112 1.54197C5.646 1.54197 5.99466 1.73929 6.17915 2.0544L9.98458 8.19068C10.0093 8.23059 10.0515 8.25535 10.1163 8.22701C10.1614 8.20389 10.1815 8.15876 10.1626 8.10344C9.9112 7.37249 8.40135 3.21825 8.08688 2.53711C7.77624 1.86478 7.89472 1.40024 8.4488 1.11705C8.96662 0.85285 9.59261 1.04577 9.9224 1.59618L13.6094 9.90246C13.625 9.93769 13.6603 9.94952 13.7084 9.95998C13.7491 9.95751 13.788 9.92806 13.7986 9.89091L14.459 7.61027C14.5548 7.30341 14.7741 7.04912 15.0768 6.89418C15.3759 6.74144 15.7331 6.70594 16.0614 6.79566C16.7505 6.9839 17.1489 7.65623 16.9459 8.30819C16.8498 8.68468 16.4947 10.0439 15.963 11.7425L15.8613 12.0683C15.2845 13.9287 14.8289 15.3983 12.7502 16.4606C12.0562 16.8154 11.3651 16.9954 10.6963 16.9954Z" fill="#FFC166"/>
<path opacity="0.4" fill-rule="evenodd" clip-rule="evenodd" d="M12.1698 2.29404C12.4216 2.18072 12.7176 2.293 12.831 2.54482L13.6747 4.41982C13.788 4.67164 13.6758 4.96764 13.4239 5.08096C13.1721 5.19428 12.8761 5.082 12.7628 4.83018L11.919 2.95518C11.8057 2.70336 11.918 2.40736 12.1698 2.29404Z" fill="black"/>
<path opacity="0.4" fill-rule="evenodd" clip-rule="evenodd" d="M13.3375 0.147239C13.584 0.0229562 13.8847 0.122108 14.009 0.368702L15.9777 4.27495C16.102 4.52155 16.0029 4.8222 15.7563 4.94648C15.5097 5.07077 15.209 4.97161 15.0847 4.72502L13.116 0.818771C12.9917 0.572177 13.0909 0.271522 13.3375 0.147239Z" fill="black"/>
<path opacity="0.4" fill-rule="evenodd" clip-rule="evenodd" d="M2.23024 12.2817C2.41985 12.0809 2.7363 12.0719 2.93706 12.2615L4.62456 13.8552C4.82532 14.0449 4.83436 14.3613 4.64476 14.5621C4.45515 14.7628 4.1387 14.7719 3.93794 14.5823L2.25044 12.9885C2.04968 12.7989 2.04064 12.4824 2.23024 12.2817Z" fill="black"/>
<path opacity="0.4" fill-rule="evenodd" clip-rule="evenodd" d="M0.13535 13.2829C0.324284 13.0815 0.640706 13.0714 0.842097 13.2604L3.87335 16.1041C4.07474 16.293 4.08484 16.6095 3.8959 16.8108C3.70697 17.0122 3.39055 17.0223 3.18916 16.8334L0.157906 13.9897C-0.0434854 13.8007 -0.0535839 13.4843 0.13535 13.2829Z" fill="black"/>
</svg>
