<svg role="icon" class="icon" width="18" height="18" viewBox="0 0 18 18"><path d="M10.253 0l.626 2.186c.569.157 1.11.38 1.611.665l1.982-1.1 1.777 1.777-1.1 1.982c.285.501.508 1.042.665 1.61L18 7.748v2.506l-2.186.626a7.031 7.031 0 0 1-.665 1.611l1.1 1.982-1.777 1.777-1.982-1.1a7.03 7.03 0 0 1-1.61.665L10.252 18H7.747l-.626-2.186a7.03 7.03 0 0 1-1.611-.665l-1.982 1.1-1.777-1.777 1.1-1.982a7.031 7.031 0 0 1-.665-1.61L0 10.252V7.747l2.186-.626c.157-.569.38-1.11.665-1.611l-1.1-1.982 1.777-1.777 1.982 1.1a7.031 7.031 0 0 1 1.61-.665L7.748 0h2.506zM9 5.727a3.273 3.273 0 1 0 0 6.546 3.273 3.273 0 0 0 0-6.546z"/></svg>