<svg role="icon" class="icon" width="18" height="18" viewBox="0 0 18 18"><path d="M9 0a9 9 0 1 0 .001 18.001A9 9 0 0 0 9 0zm.812 13.126c-.02.716-.55 1.157-1.238 1.137-.659-.02-1.177-.49-1.157-1.209.02-.715.566-1.17 1.225-1.15.691.021 1.194.507 1.17 1.222zm1.956-5.114c-.168.237-.546.542-1.02.912l-.527.361c-.257.197-.417.43-.502.695-.044.141-.076.507-.084.752-.004.048-.032.156-.181.156H7.883c-.165 0-.185-.096-.18-.144.023-.667.12-1.218.397-1.66.374-.594 1.426-1.221 1.426-1.221.161-.12.286-.25.382-.39.177-.24.321-.51.321-.8 0-.333-.08-.65-.293-.915-.249-.31-.518-.458-1.036-.458-.51 0-.808.257-1.021.594-.213.338-.177.735-.177 1.097H5.746c0-1.366.357-2.238 1.112-2.752.51-.35 1.162-.502 1.921-.502.996 0 1.788.184 2.487.715.647.49.988 1.181.988 2.113 0 .575-.2 1.057-.486 1.447z"/></svg>