<svg role="icon" class="svg-icon iconLinkedin" width="18" height="18" viewBox="0 0 18 18"><path fill="#1178B3" d="M14.632 14.635h-2.37v-3.713c0-.886-.018-2.025-1.234-2.025-1.235 0-1.424.964-1.424 1.96v3.778h-2.37V7H9.51v1.04h.03c.318-.6 1.092-1.233 2.247-1.233 2.4 0 2.845 1.58 2.845 3.637v4.191zM4.558 5.955a1.376 1.376 0 1 1-.001-2.751 1.376 1.376 0 0 1 .001 2.751zm1.188 8.68H3.37V7h2.376v7.635zM15.816 1H2.18C1.528 1 1 1.516 1 2.153v13.694C1 16.484 1.528 17 2.18 17h13.635c.652 0 1.185-.516 1.185-1.153V2.153C17 1.516 16.467 1 15.815 1h.001z"/></svg>