<svg role="icon" class="svg-icon iconLogoSE" width="150" height="35" viewBox="0 0 150 35"><g><path d="M43.458 30.875l-2.854-4.847-1.507 1.76v3.087h-2.05V16.124h2.05v9.096l3.959-4.849h2.491l-3.536 4.123 3.979 6.381h-2.532zM32.388 31c-2.291 0-4.542-1.45-4.542-5.387 0-3.936 2.25-5.366 4.542-5.366 1.406 0 2.391.415 3.355 1.471l-1.406 1.409c-.643-.725-1.145-.995-1.95-.995-.783 0-1.446.332-1.888.933-.443.58-.603 1.326-.603 2.548s.16 1.989.603 2.57c.442.6 1.105.931 1.889.931.804 0 1.306-.269 1.949-.994l1.406 1.388C34.78 30.565 33.794 31 32.388 31zm-8.194-4.765h-2.391c-1.206 0-1.829.559-1.829 1.512s.583 1.492 1.87 1.492c.783 0 1.366-.063 1.908-.601.302-.31.442-.808.442-1.554v-.85zm.04 4.64v-.952c-.743.766-1.446 1.077-2.712 1.077-1.266 0-2.11-.31-2.733-.954-.523-.559-.804-1.367-.804-2.258 0-1.76 1.185-3.025 3.516-3.025h2.693v-.745c0-1.326-.643-1.969-2.23-1.969-1.125 0-1.668.27-2.23 1.016l-1.347-1.305c.964-1.16 1.97-1.513 3.657-1.513 2.793 0 4.2 1.222 4.2 3.605v7.023h-2.01zm-9.263 0c-1.91 0-2.794-1.408-2.794-2.92v-5.781h-1.165v-1.616h1.165v-3.19h2.05v3.19h1.97v1.616h-1.97v5.676c0 .767.362 1.223 1.126 1.223h.844v1.802H14.97zM5.064 31c-2.15 0-3.697-.518-5.064-1.947l1.447-1.472c1.045 1.078 2.19 1.41 3.657 1.41 1.869 0 2.954-.83 2.954-2.26 0-.641-.18-1.18-.562-1.532-.362-.353-.724-.497-1.568-.622L4.24 24.33c-1.165-.166-2.09-.58-2.713-1.182C.824 22.464.482 21.532.482 20.33c0-2.57 1.809-4.33 4.783-4.33 1.889 0 3.215.497 4.441 1.678L8.32 19.087c-.884-.87-1.909-1.14-3.114-1.14-1.688 0-2.613.995-2.613 2.3 0 .539.161 1.015.543 1.367.362.332.944.58 1.607.684l1.628.249c1.326.207 2.07.539 2.673 1.098.784.704 1.165 1.76 1.165 3.025 0 2.713-2.15 4.33-5.144 4.33z" fill="#020303"/><path d="M133.137 23.377c-.29-.64-.893-1.114-1.806-1.114s-1.516.475-1.806 1.114c-.166.393-.229.682-.25 1.156h4.111c-.02-.474-.083-.763-.25-1.156zm-3.861 2.994c0 1.383.851 2.394 2.366 2.394 1.184 0 1.765-.33 2.45-1.011l1.64 1.59c-1.1 1.094-2.16 1.693-4.11 1.693-2.554 0-5.004-1.157-5.004-5.513 0-3.51 1.91-5.49 4.713-5.49 3.01 0 4.713 2.187 4.713 5.14v1.197h-6.768zm-9.633-3.923c-1.598 0-1.764 1.363-1.764 2.787 0 1.425.166 2.808 1.764 2.808 1.6 0 1.786-1.383 1.786-2.808 0-1.424-.187-2.787-1.786-2.787zm-.27 12.532c-1.66 0-2.802-.33-3.923-1.404l1.681-1.693c.602.578 1.204.826 2.118.826 1.62 0 2.18-1.136 2.18-2.23v-1.094c-.706.784-1.516 1.073-2.575 1.073-1.058 0-1.972-.35-2.574-.95-1.017-1.01-1.1-2.394-1.1-4.273 0-1.878.083-3.24 1.1-4.252.602-.599 1.537-.95 2.595-.95 1.142 0 1.89.31 2.637 1.135v-1.011h2.616V30.52c0 2.58-1.848 4.46-4.755 4.46zm-9.342-4.068V24.41c0-1.466-.934-1.962-1.785-1.962-.851 0-1.806.496-1.806 1.962v6.502h-2.699V20.157h2.637v.991c.706-.744 1.702-1.115 2.699-1.115 1.08 0 1.951.351 2.553.95.872.866 1.1 1.878 1.1 3.055v6.874h-2.699zm-11.895-4.541h-2.138c-.976 0-1.515.454-1.515 1.218 0 .743.498 1.238 1.557 1.238.747 0 1.225-.062 1.702-.516.29-.268.394-.702.394-1.362v-.578zm.063 4.541v-.929c-.727.723-1.412 1.033-2.657 1.033-1.225 0-2.118-.31-2.762-.95-.58-.599-.892-1.466-.892-2.415 0-1.714 1.183-3.118 3.695-3.118h2.553v-.536c0-1.177-.58-1.693-2.013-1.693-1.038 0-1.516.247-2.076.888l-1.723-1.673c1.058-1.156 2.097-1.486 3.903-1.486 3.03 0 4.609 1.28 4.609 3.798v7.081h-2.637zm-11.148 0v-6.564c0-1.425-.913-1.9-1.765-1.9-.85 0-1.743.496-1.743 1.9v6.564h-2.7V16.213h2.7v4.935c.726-.744 1.64-1.115 2.595-1.115 2.366 0 3.612 1.651 3.612 3.922v6.957h-2.699zm-11.874.125c-2.16 0-4.837-1.157-4.837-5.513s2.678-5.49 4.837-5.49c1.495 0 2.615.453 3.57 1.444l-1.826 1.817c-.561-.599-1.038-.847-1.744-.847-.644 0-1.142.228-1.537.702-.415.516-.602 1.239-.602 2.374 0 1.136.187 1.88.602 2.395.395.475.893.702 1.537.702.706 0 1.183-.248 1.744-.846l1.826 1.796c-.955.99-2.075 1.466-3.57 1.466zm-8.885-.125l-1.993-3.22-1.973 3.22h-3.238l3.737-5.49-3.592-5.265h3.239l1.827 3.076 1.847-3.076h3.239l-3.592 5.264 3.737 5.491h-3.238zm-18.29 0V16.213h9.737v2.56h-6.851v3.448h5.834v2.56h-5.834v3.572h6.85v2.56h-9.736z" fill="#205196"/><path d="M150 3h-15v-.5c0-1.306 1.21-2.5 2.5-2.5h10c1.291 0 2.5 1.194 2.5 2.5V3z" fill="#8FD8F7"/><path d="M135 12v.5c0 1.306 1.21 2.5 2.5 2.5h6.5v3l3-3h.5c1.291 0 2.5-1.194 2.5-2.5V12h-15z" fill="#155397"/><path fill="#2D6DB5" d="M135 8v3h15V8z"/><path fill="#46A2D9" d="M135 4v3h15V4z"/></g></svg>