<svg aria-hidden="true" class="svg-icon iconAol" width="18" height="18" viewBox="0 0 18 18"><path d="M15 5.09v6.94h-1.58V5.05h1.56l.02.04zM4.92 12.03l-.34-1.01H2.16l-.37 1H-.07l2.75-6.97h1.4l2.72 6.98H4.92zm4.81.14c-1.89 0-2.8-1.5-2.8-2.78 0-1.28.91-2.78 2.8-2.78 1.9 0 2.8 1.5 2.8 2.78 0 1.28-.9 2.78-2.8 2.78zm7.15-.1a1.05 1.05 0 1 1 0-2.1 1.05 1.05 0 0 1 0 2.1zM2.65 9.6h1.46l-.73-2.43-.73 2.43zm7.08-1.53c-.67 0-1.24.56-1.24 1.32 0 .77.57 1.32 1.24 1.32.68 0 1.25-.55 1.25-1.32 0-.76-.57-1.32-1.25-1.32z" fill="#2D3140"/></svg>