<svg aria-hidden="true" class="svg-icon iconBlogger" width="18" height="18" viewBox="0 0 18 18"><path d="M15.82 1c.65 0 1.18.52 1.18 1.15v13.7c0 .63-.53 1.15-1.19 1.15H2.18C1.53 17 1 16.48 1 15.85V2.15C1 1.52 1.53 1 2.18 1h13.64zM9 3H6.76A3.76 3.76 0 0 0 3 6.76v4.48A3.76 3.76 0 0 0 6.76 15h4.48A3.76 3.76 0 0 0 15 11.24V8.27a.77.77 0 0 0-.79-.78h-.72a.74.74 0 0 1-.73-.73A3.76 3.76 0 0 0 9 3zm2.27 9.2H6.73a.74.74 0 0 1-.73-.73c0-.39.34-.73.73-.73h4.54c.4 0 .73.34.73.73 0 .4-.34.73-.73.73zM9.3 5.78c.38 0 .7.34.7.73 0 .4-.32.73-.7.73H6.7a.73.73 0 0 1 0-1.46h2.6z" fill="#FF5723"/></svg>