<svg aria-hidden="true" class="svg-icon iconCurrency" width="18" height="18" viewBox="0 0 18 18"><path d="M9 13.9a1.9 1.9 0 1 0 0-3.8 1.9 1.9 0 0 0 0 3.8z" fill="#367D4D"/><path d="M13.92 3H4c.07-.6.62-1.05 1.22-1h7.48c.6-.05 1.15.4 1.22 1zm1.79 2a1.14 1.14 0 0 0-1.22-1h-11c-.6-.04-1.13.4-1.2 1h13.42zM1 7h16a1.14 1.14 0 0 0-1.22-1H2.22c-.6-.05-1.15.4-1.22 1zM1 9.5C1 8.67 1.67 8 2.5 8h13c.83 0 1.5.67 1.5 1.5v5c0 .83-.67 1.5-1.5 1.5h-13A1.5 1.5 0 0 1 1 14.5v-5zM2 12a3 3 0 0 1 3-3h8a3 3 0 1 1 0 6H5a3 3 0 0 1-3-3z" fill="#5FBA7D"/></svg>