<svg aria-hidden="true" class="svg-icon iconDevto" width="18" height="18" viewBox="0 0 18 18"><path d="M1.42 4.1a.96.96 0 0 0-.3.25C1 4.5 1 4.54 1 8.93c0 4.4 0 4.43.12 4.59.06.08.2.2.3.24.17.1.64.1 7.58.1s7.4 0 7.58-.1c.1-.04.24-.16.3-.24.12-.16.12-.2.12-4.59 0-4.4 0-4.43-.12-4.58a.96.96 0 0 0-.3-.25C16.41 4 15.94 4 9 4s-7.4 0-7.58.1zm4.46 2.24c.27.14.64.54.77.82.1.19.1.4.1 1.9 0 1.62 0 1.72-.11 1.96-.17.36-.43.62-.78.8-.3.15-.33.15-1.42.17L3.33 12V6.2l1.17.01c1.06.02 1.17.03 1.38.14zm4.35.45v.6h-1.8v1.1h1.09v1.2h-1.1v1.1h1.81V12H9c-1.36 0-1.42-.01-1.7-.33l-.14-.17V9.12c0-2.63 0-2.61.35-2.82.16-.1.28-.1 1.45-.1h1.27v.6zm2.09 1.07l.44 1.69c.02.02.22-.71.46-1.63.23-.93.46-1.7.5-1.7.03-.02.34-.02.68-.02l.64.02-.68 2.53c-.36 1.39-.7 2.59-.73 2.66-.26.5-.8.72-1.2.51-.2-.1-.45-.4-.54-.61-.04-.09-.35-1.24-.7-2.56l-.67-2.49c-.02-.06.1-.07.68-.06l.7.02.42 1.64z"/><path d="M4.59 9.1v1.7h.25c.28 0 .54-.12.63-.27.03-.07.05-.64.05-1.46V7.72l-.16-.16c-.14-.14-.2-.16-.46-.16h-.31v1.7z"/></svg>