<svg aria-hidden="true" class="svg-icon iconDevTo" width="18" height="18" viewBox="0 0 18 18"><path d="M3 1a2 2 0 0 0-2 2v12c0 1.1.9 2 2 2h12a2 2 0 0 0 2-2V3a2 2 0 0 0-2-2H3zm1.78 6.14a.7.7 0 0 1 .42.16c.14.1.21.26.21.47v2.52c0 .21-.07.37-.2.47a.7.7 0 0 1-.43.16h-.63V7.14h.63zm-.1 4.87c1.33 0 1.75-1.03 1.75-1.71V7.73c0-.68-.43-1.71-1.71-1.71H3v5.99h1.68zm3.43-4.92h1.93V6.02H7.75a.73.73 0 0 0-.71.75v4.53c0 .4.34.72.75.71h2.25v-1.07H8.1V9.26h1.18V8.19H8.1v-1.1zm4.1 4.17c.38.9 1.24 1.11 1.72 0l1.39-5.24h-1.18l-1.07 4.12L12 6.02h-1.18l1.4 5.24z" fill="#010101"/></svg>