<svg aria-hidden="true" class="svg-icon iconEyeOff" width="18" height="18" viewBox="0 0 18 18"><path d="M7.05 12.5l1.51-1.55a2 2 0 0 0 2.38-2.42L12.47 7a3.99 3.99 0 0 1-5.42 5.5zM5.56 14a9.47 9.47 0 0 1-1.18-.82l1.57-1.59c.3.36.68.67 1.1.9L5.56 14zm0 0c1.02.6 2.19 1 3.5 1C14 15 17 9 17 9s-1.01-2.03-2.84-3.73L16 3.41 14.59 2 2 14.41 3.59 16l1.97-2zm8.6-8.73L12.46 7a4.02 4.02 0 0 0-.91-1.09l1.51-1.54c.4.28.77.59 1.1.9zM5.02 9.44l-2.22 2.2C1.63 10.25 1 9 1 9s3-6 8.06-6c.75 0 1.46.14 2.12.38L9.5 5.03a4.01 4.01 0 0 0-4.48 4.41z"/></svg>