<svg aria-hidden="true" class="svg-icon iconFaceFrown" width="18" height="18" viewBox="0 0 18 18"><path d="M9 17A8 8 0 1 1 9 1a8 8 0 0 1 0 16zm0-2A6 6 0 1 0 9 3a6 6 0 0 0 0 12z"/><path d="M11.93 11.24A3.33 3.33 0 0 0 9 9.84a3.33 3.33 0 0 0-2.93 1.4.74.74 0 0 0 0 .81.76.76 0 0 0 .65.36h.08a24 24 0 0 1 4.33 0 .77.77 0 0 0 .74-.34.76.76 0 0 0 .06-.83zM6.29 6a.54.54 0 0 0-.55.53v.41A1.3 1.3 0 0 0 7 8.25a1.27 1.27 0 0 0 1.26-1.31v-.41A.54.54 0 0 0 7.71 6H6.29zm4 0a.54.54 0 0 0-.55.53v.41A1.3 1.3 0 0 0 11 8.25a1.27 1.27 0 0 0 1.25-1.31v-.41a.54.54 0 0 0-.54-.53h-1.42z"/></svg>