<svg aria-hidden="true" class="svg-icon iconHelpSm" width="14" height="14" viewBox="0 0 14 14"><path d="M7 1a6 6 0 1 0 0 12A6 6 0 0 0 7 1zm1.06 9.06c-.02.63-.48 1.02-1.1 1-.57-.02-1.03-.43-1.01-1.06.02-.63.5-1.04 1.08-1.02.6.02 1.05.45 1.03 1.08zm.26-2.76l.47-.31c.42-.32.71-.58.86-.79.26-.33.43-.75.43-1.24 0-.8-.3-1.4-.87-1.82A3.52 3.52 0 0 0 7 2.52a3.5 3.5 0 0 0-1.83.44c-.67.44-.98 1.19-.98 2.36h1.73v-.11c0-.28 0-.58.16-.83.2-.29.57-.51 1.02-.51.46 0 .7.13.92.4.2.22.26.5.26.78 0 .25-.12.48-.28.69l-.03.05c-.08.1-.14.2-.27.28 0 0-.93.54-1.26 1.06a2.7 2.7 0 0 0-.36 1.42c0 .04.02.13.16.13h1.4c.13 0 .16-.1.16-.14 0-.2.04-.52.08-.64.07-.23.21-.43.44-.6z"/></svg>