<svg aria-hidden="true" class="svg-icon iconHelp" width="18" height="18" viewBox="0 0 18 18"><path d="M9 1a8 8 0 1 0 0 16A8 8 0 0 0 9 1zm.81 12.13c-.02.71-.55 1.15-1.24 1.13-.66-.02-1.17-.49-1.15-1.2.02-.72.56-1.18 1.22-1.16.7.03 1.2.51 1.17 1.23zm.94-4.2A5.8 5.8 0 0 0 11.77 8c.28-.39.48-.87.48-1.44a2.5 2.5 0 0 0-.98-2.12 3.9 3.9 0 0 0-2.5-.71c-.75 0-1.4.15-1.91.5-.76.51-1.11 1.38-1.11 2.75H7.7v-.14c0-.32 0-.66.18-.96.21-.33.51-.59 1.02-.59.52 0 .79.15 1.04.46.2.26.29.58.29.91 0 .3-.14.56-.32.8-.1.14-.22.27-.38.4 0 0-1.06.62-1.43 1.21-.28.45-.37 1-.4 1.66 0 .05.02.15.18.15h1.57c.15 0 .18-.11.19-.16a4 4 0 0 1 .08-.75c.08-.27.24-.5.5-.7l.53-.36z"/></svg>