<svg aria-hidden="true" class="svg-icon iconInternational" width="18" height="18" viewBox="0 0 18 18"><path d="M5.93 12c.17.98.42 1.85.77 2.54A6 6 0 0 1 3.8 12h2.13zm1.34 0c.35 1.8 1 3 1.73 3 .74 0 1.38-1.2 1.73-3H7.27zm3.62-1H7.1a17.1 17.1 0 0 1 0-4h3.78a17.1 17.1 0 0 1 0 4zm1.18 1a9.17 9.17 0 0 1-.77 2.54A6 6 0 0 0 14.2 12h-2.13zm2.58-1H12.2a19.78 19.78 0 0 0 0-4h2.45a6 6 0 0 1 0 4zm-.46-5a6 6 0 0 0-2.89-2.54c.35.7.6 1.56.77 2.54h2.12zm-3.46 0c-.35-1.8-1-3-1.73-3-.74 0-1.38 1.2-1.73 3h3.46zm-4.8 0c.17-.98.42-1.85.77-2.54A6 6 0 0 0 3.8 6h2.13zM3.35 7a6 6 0 0 0 0 4H5.8a19.76 19.76 0 0 1 0-4H3.35zm0 7.66a8 8 0 1 0 11.3-11.32 8 8 0 0 0-11.3 11.32z"/></svg>