<svg aria-hidden="true" class="svg-icon iconLogoWordmarkSm" width="89" height="13" viewBox="0 0 89 13"><path d="M67.98 9.58V.86h-2v8.85c0 1.14.69 2.29 2.33 2.29h1.14v-1.7h-.77c-.5 0-.7-.24-.7-.72zM9.26 5.52l1.04-1.04H8.17V1.95H7.04v7.98c0 1.14.66 2.07 1.97 2.07h.8v-.97h-.6c-.71 0-1.04-.42-1.04-1.13V5.52h1.09zM84.7 8.94L86 3.99h2.1l-2.44 8h-1.65l-1.68-5.02L80.67 12h-1.65l-2.46-8.01h2.12l1.3 4.95 1.63-4.95h1.46l1.64 4.95zm-10.61 1c-.23.23-.54.35-.94.35-.4 0-.69-.12-.92-.35-.42-.42-.46-1.12-.46-1.95 0-.84.04-1.53.46-1.94.23-.23.52-.36.92-.36s.7.13.94.36c.41.41.46 1.1.46 1.94 0 .83-.05 1.53-.46 1.95zm-3.41-5.06a3.28 3.28 0 0 1 2.47-.98c1.19 0 2 .46 2.5.98.72.75.9 1.66.9 3.1 0 1.47-.18 2.37-.9 3.13-.5.52-1.31.98-2.5.98a3.28 3.28 0 0 1-2.47-.98c-.73-.76-.91-1.66-.91-3.12 0-1.45.18-2.36.9-3.11zm-9.65-1.73V12h2V5.67h1.48V4.15h-1.48v-.87c0-.47.23-.73.71-.73h.77V.86h-1.14c-1.63 0-2.34 1.15-2.34 2.3zm-4.1.84v.77a2.71 2.71 0 0 1 2-.86c.79 0 1.34.2 1.9.75l-1.52 1.51c-.3-.3-.56-.47-1.05-.47-.62 0-1.3.47-1.3 1.48V12h-2V3.99h1.96zm-7.97 3.26c.01-.36.06-.57.18-.86a1.4 1.4 0 0 1 1.34-.83c.68 0 1.12.35 1.34.83.12.29.17.5.18.86h-3.04zM47 7.99c0-2.62 1.42-4.1 3.5-4.1 2.22 0 3.48 1.64 3.48 3.83v.9h-5.01c0 1.03.63 1.78 1.75 1.78.88 0 1.31-.25 1.82-.75l1.21 1.18a3.81 3.81 0 0 1-3.04 1.26c-1.9 0-3.7-.86-3.7-4.1zm-2.02-4l-1.6 4.95-1.64-4.95h-2.1l2.95 8h1.56l2.94-8H45zm-8.72 6.3c.4 0 .71-.12.94-.35.42-.42.46-1.12.46-1.95 0-.84-.04-1.53-.46-1.94a1.27 1.27 0 0 0-.94-.36c-.4 0-.69.13-.92.36-.41.41-.46 1.1-.46 1.94 0 .83.05 1.53.46 1.95.23.23.52.35.92.35zm0-6.4c-1.18 0-1.98.47-2.47.99-.72.75-.9 1.66-.9 3.1 0 1.47.18 2.37.9 3.13.5.52 1.29.98 2.47.98 1.19 0 2-.46 2.5-.98.72-.76.9-1.66.9-3.12 0-1.45-.18-2.36-.9-3.11a3.36 3.36 0 0 0-2.5-.98zm-6.69.4h1.4l-2.74 2.75 3.2 4.96h-1.4l-2.58-4.18-1.36 1.37v2.8h-1.12V.88h1.12V7.7l3.48-3.4zm-8.23.92c.73 0 1.19.22 1.76.86 0 0 .76-.73.75-.74a3.04 3.04 0 0 0-2.51-1.12c-1.94 0-3.4 1.32-3.4 3.94 0 2.63 1.46 3.94 3.4 3.94 1.06 0 1.73-.28 2.53-1.14l-.77-.73c-.57.64-1.03.87-1.76.87-.75 0-1.38-.3-1.78-.88-.36-.5-.5-1.09-.5-2.06s.14-1.56.5-2.06c.4-.58 1.03-.88 1.78-.88zm-5.92 5.4c.26-.25.39-.7.39-1.33v-.83h-2.16c-1.16 0-1.72.47-1.72 1.36 0 .89.55 1.31 1.77 1.31.65 0 1.23-.05 1.72-.51zm-1.57-6.4c-1.23 0-2 .25-2.69 1.1 0 .02.74.75.74.75.45-.64.95-.88 1.94-.88 1.4 0 1.97.56 1.97 1.69v.73h-2.32c-1.72 0-2.65.88-2.65 2.22 0 .61.2 1.2.57 1.57.49.5 1.11.7 2.18.7 1.03 0 1.59-.2 2.22-.83V12h1.12V6.78c0-1.68-1.02-2.57-3.08-2.57zM3 7.56l1.24.1c1.34.13 2.26.65 2.26 2.09 0 1.48-1.26 2.34-3.12 2.34a4.3 4.3 0 0 1-3.16-1.1l.75-.76c.61.64 1.44.9 2.4.9 1.26 0 2.04-.46 2.04-1.37 0-.67-.39-1.05-1.28-1.12l-1.27-.11c-1.5-.13-2.3-.8-2.3-2.07 0-1.4 1.2-2.25 2.83-2.25 1.1 0 2.08.27 2.77.83l-.73.74a3.28 3.28 0 0 0-2.05-.61c-1.13 0-1.72.48-1.72 1.26 0 .66.37 1.05 1.34 1.13z"/></svg>