<svg aria-hidden="true" class="svg-icon iconLogoWordmarkMd" width="152" height="21" viewBox="0 0 152 21"><path d="M50.3 6.1h2.4l-4.8 4.8 5.6 8.6h-2.4l-4.5-7.3-2.4 2.4v4.9h-2V.1h2V12l6.1-5.9zM35.9 7.7c1.2 0 2.4.5 3.1 1.5l1.3-1.3a5.4 5.4 0 0 0-4.4-2c-3.4 0-5.9 2.3-5.9 6.9 0 4.6 2.6 6.9 5.9 6.9 1.7.1 3.3-.7 4.4-2L39 16.4c-.7 1-1.9 1.5-3.1 1.5-1.2.1-2.4-.5-3.1-1.5-.7-1.1-1-2.3-.9-3.6-.1-1.3.2-2.5.9-3.6.7-1 1.9-1.6 3.1-1.5zM22.8 5.9c-2.2 0-3.5.4-4.7 1.9l1.3 1.3c.8-1.1 2.1-1.7 3.4-1.5 2.5 0 3.4 1 3.4 2.9v1.3h-4c-3 0-4.6 1.5-4.6 3.9 0 1 .3 2 1 2.7.8.9 1.9 1.2 3.8 1.2 1.4.1 2.9-.4 3.9-1.4v1.3h2v-9.1c-.1-2.9-1.9-4.5-5.5-4.5zM7 12l-2.2-.2c-1.7-.1-2.3-.8-2.3-2 0-1.4 1-2.2 3-2.2 1.3-.1 2.6.3 3.6 1.1l1.3-1.3C9 6.4 7.3 5.9 5.6 6 2.7 6 .7 7.5.7 9.9c0 2.2 1.4 3.4 4 3.6l2.2.2c1.6.1 2.2.8 2.2 2 0 1.6-1.4 2.4-3.6 2.4-1.6.1-3.1-.5-4.2-1.6L0 17.8c1.5 1.4 3.5 2 5.5 1.9 3.2 0 5.5-1.5 5.5-4.1 0-2.6-1.6-3.4-4-3.6zm18.5 5.1c.6-.6.8-1.5.7-2.3v-1.5h-3.8c-2 0-3 .8-3 2.4 0 1.6 1 2.3 3.1 2.3a4 4 0 0 0 3-.9zM61.9 5.94c-1.6-.1-3.2.5-4.3 1.7-1.3 1.3-1.6 2.9-1.6 5.4 0 2.5.3 4.1 1.6 5.4 1.1 1.1 2.7 1.7 4.3 1.7 1.6.1 3.2-.5 4.3-1.7 1.3-1.3 1.6-2.9 1.6-5.4 0-2.5-.3-4.1-1.6-5.4a5.38 5.38 0 0 0-4.3-1.7zm-1.5 10.5c.9.8 2.3.8 3.2 0 .7-.7.8-1.9.8-3.4s-.1-2.7-.8-3.4c-.9-.8-2.3-.8-3.2 0-.7.7-.8 2-.8 3.4s.1 2.7.8 3.4zm16.8-10.4l-2.8 8.6-2.8-8.6h-3.7l5.2 14h2.7l5.1-14h-3.7zm3.5 7c0-4.5 2.5-7.1 6.1-7.1 3.9 0 6.1 2.8 6 6.6v1.6h-8.7v.4c.1 1.6 1.5 2.8 3.1 2.7 1.2.1 2.4-.4 3.2-1.3l2.1 2.1a6.61 6.61 0 0 1-5.3 2.2c-3.3 0-6.5-1.5-6.5-7.2zm3.4-1.3c0-.5.1-1 .3-1.5.4-.9 1.3-1.4 2.3-1.4 1-.1 1.9.5 2.3 1.4.2.5.3 1 .3 1.5h-5.2zm13.33-5.6v1.3c.9-1 2.2-1.5 3.5-1.4 1.2-.1 2.5.4 3.3 1.3l-2.6 2.6c-.4-.5-1.1-.8-1.8-.8h-.2c-1.3.2-2.2 1.3-2.1 2.6v8.4h-3.5v-14h3.4zm7.6 13.9h3.5v-11h2.6v-2.7h-2.6v-1.5c-.1-.6.3-1.2.9-1.3h1.6v-3h-2a3.9 3.9 0 0 0-4 3.8v15.7zM121 7.64c1.1-1.2 2.7-1.8 4.3-1.7 1.6-.1 3.2.5 4.3 1.7 1.3 1.3 1.6 2.9 1.6 5.4 0 2.5-.3 4.1-1.6 5.4a5.38 5.38 0 0 1-4.3 1.7c-1.6 0-3.2-.6-4.3-1.7-1.3-1.3-1.6-2.9-1.6-5.4 0-2.5.3-4.1 1.6-5.4zm6 8.8c-.9.8-2.3.8-3.2 0-.7-.7-.8-2-.8-3.4s.1-2.7.8-3.4c.9-.8 2.3-.8 3.2 0 .7.7.8 1.9.8 3.4s-.1 2.7-.8 3.4zm18.4-1.8l2.3-8.6 3.8.1-4.3 14h-3l-2.9-8.8-2.9 8.8h-2.9l-4.3-14h3.7l2.3 8.6 2.8-8.7h2.5l2.9 8.6zm-28.92-14h-3.5v15.4a3.8 3.8 0 0 0 3.6 4h2.5v-3h-1.3c-.6.1-1.1-.2-1.3-.8V.64zM14 6.4h3.7l-1.8 1.7H14v7.7c0 1.3.5 2 1.8 2h1v1.7h-1.4c-2.3 0-3.4-1.6-3.4-3.6V2h2v4.4z" fill="#222426"/></svg>