<svg aria-hidden="true" class="svg-icon iconLogoWordmark" width="118" height="17" viewBox="0 0 118 17"><path d="M39.58 5.39h1.82l-3.55 3.55 4.22 6.62h-1.82L36.8 9.99l-1.82 1.83v3.74h-1.54V.78h1.54V9.9l4.6-4.51zM5.91 9.89l-1.63-.18c-1.25-.1-1.82-.58-1.82-1.54 0-1.05.76-1.73 2.3-1.73 1.05 0 2.01.3 2.68.77l.96-.96A5.67 5.67 0 0 0 4.76 5.2c-2.2 0-3.74 1.15-3.74 2.97 0 1.73 1.05 2.6 3.07 2.78l1.72.2c1.15.1 1.73.57 1.73 1.53 0 1.25-1.06 1.82-2.69 1.82-1.24 0-2.4-.29-3.16-1.15l-.96.96c1.15 1.06 2.5 1.44 4.22 1.44 2.5 0 4.12-1.15 4.12-3.07-.19-1.92-1.43-2.6-3.16-2.78zm12.76-4.6c-1.63 0-2.69.3-3.55 1.44l.96.96c.57-.86 1.24-1.15 2.59-1.15 1.82 0 2.59.77 2.59 2.2v.97h-3.07c-2.3 0-3.55 1.15-3.55 2.97 0 .77.29 1.53.77 2.11.67.67 1.43.96 2.87.96 1.35 0 2.11-.29 2.98-1.06v.96h1.53v-6.9c-.1-2.3-1.44-3.46-4.12-3.46zm2.1 8.44c.3-.28.49-.86.49-1.72l.1-1.15h-2.88c-1.54 0-2.3.67-2.3 1.82s.66 1.73 2.3 1.73c.86 0 1.63-.1 2.3-.68zm7.78-7.1c.96 0 1.53.3 2.3 1.16l.96-.96c-1.06-1.15-1.92-1.54-3.36-1.54-2.59 0-4.5 1.73-4.5 5.28 0 3.45 1.91 5.28 4.5 5.28 1.44 0 2.3-.39 3.36-1.54l-1.06-.96c-.76.86-1.34 1.15-2.3 1.15-.96 0-1.82-.38-2.4-1.15-.48-.67-.67-1.44-.67-2.78 0-1.25.2-2.11.67-2.78a3.23 3.23 0 0 1 2.5-1.15zM48.4 5.1c-1.54 0-2.6.58-3.27 1.34-.96.96-1.24 2.21-1.24 4.13s.28 3.16 1.24 4.12a4.5 4.5 0 0 0 3.27 1.35c1.53 0 2.68-.58 3.26-1.35.96-.96 1.24-2.2 1.24-4.12s-.28-3.17-1.24-4.13c-.58-.76-1.63-1.34-3.26-1.34zm0 8.44c.57 0 .95-.19 1.24-.48.58-.48.67-1.44.58-2.59 0-1.15 0-2.01-.58-2.59a1.66 1.66 0 0 0-1.24-.48c-.58 0-.96.2-1.25.48-.48.58-.58 1.44-.58 2.6 0 1.05 0 2 .58 2.58.29.3.67.48 1.25.48zM60 5.2l-2.1 6.62-2.2-6.62h-2.8l3.94 10.64h2.1L62.9 5.2h-2.88zm2.69 5.37c0-3.55 1.82-5.47 4.6-5.47 2.98 0 4.6 2.11 4.6 5.18v1.15H65.3c0 1.44.77 2.4 2.3 2.4 1.15 0 1.73-.29 2.4-.96l1.63 1.54a5.06 5.06 0 0 1-4.03 1.63c-2.5 0-4.9-1.15-4.9-5.47zm2.59-1.06c0-.48.1-.76.29-1.15.28-.67.86-1.15 1.82-1.15.86 0 1.53.48 1.82 1.15.14.28.18.51.23.8l.06.35h-4.22zM75.84 5.2v1.05a3.24 3.24 0 0 1 2.78-1.05c1.06 0 1.73.19 2.5.96L79.1 8.17c-.48-.48-.77-.67-1.44-.67-.86 0-1.72.57-1.72 1.92v6.43h-2.69V5.2h2.6zm5.4-1.15v11.8h2.68V7.4h1.91v-2h-1.91V4.24c0-.58.28-.96.96-.96h1.05v-2.2H84.4c-2.21 0-3.17 1.53-3.17 2.97zm12.92 2.4a4.15 4.15 0 0 1 3.26-1.35c1.54 0 2.7.58 3.27 1.34.96.96 1.24 2.21 1.24 4.13s-.28 3.16-1.24 4.12c-.58.77-1.73 1.35-3.27 1.35a4.5 4.5 0 0 1-3.26-1.35c-.96-.96-1.24-2.2-1.24-4.12s.28-3.17 1.24-4.13zm4.51 6.61c-.29.3-.67.48-1.25.48-.57 0-.95-.19-1.24-.48-.58-.57-.58-1.53-.58-2.59 0-1.15.1-2.01.58-2.59.29-.28.67-.48 1.24-.48.58 0 .96.2 1.25.48.58.58.58 1.44.58 2.6 0 1.14 0 2.1-.58 2.58zm14.1-1.24l1.73-6.62h2.78l-3.26 10.64h-2.2l-2.21-6.71-2.2 6.71h-2.22L101.93 5.2h2.78l1.73 6.62 2.2-6.62h1.93l2.2 6.62zm-22.84.76V.98h-2.68v11.8c0 1.53.96 3.07 3.07 3.07h1.53v-2.21h-.96c-.67 0-.96-.38-.96-1.06zm-75.58-6.9l-1.34 1.34-1.63.1v5.85c0 .96.48 1.53 1.44 1.53h.76v1.25h-1.05c-1.73 0-2.6-1.25-2.6-2.78V2.32h1.54v3.36h2.88z" fill="#222426"/></svg>