<svg aria-hidden="true" class="svg-icon iconLogoEnterprise" width="146" height="37" viewBox="0 0 146 37"><path d="M67.58 14.39h1.82l-3.55 3.55 4.22 6.62h-1.82l-3.45-5.57-1.82 1.83v3.74h-1.54V9.78h1.54v9.12l4.6-4.51zm-33.67 4.5l-1.63-.18c-1.25-.1-1.82-.58-1.82-1.54 0-1.05.76-1.73 2.3-1.73 1.05 0 2.01.3 2.68.77l.96-.96a5.67 5.67 0 0 0-3.64-1.05c-2.2 0-3.74 1.15-3.74 2.97 0 1.73 1.05 2.6 3.07 2.78l1.72.2c1.15.1 1.73.57 1.73 1.53 0 1.25-1.06 1.82-2.69 1.82-1.24 0-2.4-.29-3.16-1.15l-.96.96c1.15 1.06 2.5 1.44 4.22 1.44 2.5 0 4.12-1.15 4.12-3.07-.19-1.92-1.43-2.6-3.16-2.78zm12.76-4.6c-1.63 0-2.69.3-3.55 1.44l.96.96c.57-.86 1.24-1.15 2.59-1.15 1.82 0 2.59.77 2.59 2.2v.97h-3.07c-2.3 0-3.55 1.15-3.55 2.97 0 .77.29 1.53.77 2.11.67.67 1.44.96 2.87.96 1.35 0 2.11-.29 2.98-1.06v.96h1.53v-6.9c-.1-2.3-1.44-3.46-4.12-3.46zm2.1 8.44c.3-.28.49-.86.49-1.72l.1-1.15h-2.88c-1.54 0-2.3.67-2.3 1.82s.66 1.73 2.3 1.73c.86 0 1.63-.1 2.3-.68zm7.78-7.1c.96 0 1.53.3 2.3 1.16l.96-.96c-1.06-1.15-1.92-1.54-3.36-1.54-2.59 0-4.5 1.73-4.5 5.28 0 3.45 1.91 5.27 4.5 5.27 1.44 0 2.3-.38 3.36-1.53l-1.06-.96c-.76.86-1.34 1.15-2.3 1.15-.96 0-1.82-.38-2.4-1.15-.48-.67-.67-1.44-.67-2.78 0-1.25.2-2.11.67-2.78a3.23 3.23 0 0 1 2.5-1.15zM76.4 14.1c-1.54 0-2.6.58-3.27 1.34-.96.96-1.24 2.21-1.24 4.13s.28 3.16 1.24 4.12a4.5 4.5 0 0 0 3.27 1.35c1.53 0 2.68-.58 3.26-1.35.96-.96 1.24-2.2 1.24-4.12s-.28-3.17-1.24-4.13c-.58-.76-1.63-1.34-3.26-1.34zm0 8.44c.57 0 .95-.19 1.24-.48.58-.48.67-1.44.58-2.59 0-1.15 0-2.01-.58-2.59a1.66 1.66 0 0 0-1.24-.48c-.58 0-.96.2-1.25.48-.48.58-.58 1.44-.58 2.6 0 1.05 0 2 .58 2.58.29.3.67.48 1.25.48zM88 14.2l-2.1 6.62-2.21-6.62H80.9l3.94 10.64h2.1L90.9 14.2h-2.88zm2.69 5.37c0-3.55 1.82-5.47 4.6-5.47 2.98 0 4.6 2.11 4.6 5.18v1.15H93.3c0 1.44.77 2.4 2.3 2.4 1.15 0 1.73-.29 2.4-.96l1.63 1.54a5.06 5.06 0 0 1-4.03 1.63c-2.5 0-4.9-1.15-4.9-5.47zm2.59-1.06c0-.48.1-.76.29-1.15.28-.67.86-1.15 1.82-1.15.86 0 1.53.48 1.82 1.15.14.28.18.51.23.8l.06.35h-4.22zm10.55-4.31v1.05a3.24 3.24 0 0 1 2.78-1.05c1.06 0 1.73.19 2.5.96l-2.02 2.01c-.48-.48-.77-.67-1.44-.67-.86 0-1.72.57-1.72 1.92v6.42h-2.69V14.2h2.6zm5.39-1.15v11.8h2.69V16.4h1.91v-2h-1.91v-1.15c0-.58.28-.96.96-.96h1.05v-2.2h-1.53c-2.21 0-3.17 1.53-3.17 2.97zm12.93 2.4a4.15 4.15 0 0 1 3.27-1.35c1.53 0 2.68.58 3.26 1.34.96.96 1.24 2.21 1.24 4.13s-.28 3.16-1.24 4.12c-.58.77-1.73 1.35-3.27 1.35a4.5 4.5 0 0 1-3.26-1.35c-.96-.96-1.24-2.2-1.24-4.12s.28-3.17 1.24-4.13zm4.51 6.61c-.29.3-.67.48-1.25.48-.57 0-.95-.19-1.24-.48-.58-.57-.58-1.53-.58-2.59 0-1.15.1-2.01.58-2.59.28-.28.67-.48 1.24-.48.58 0 .96.2 1.25.48.58.58.58 1.44.58 2.6 0 1.14 0 2.1-.58 2.58zm14.1-1.24l1.73-6.62h2.78l-3.26 10.64h-2.2l-2.21-6.71-2.2 6.71h-2.22l-3.26-10.64h2.78l1.73 6.62 2.2-6.62h1.93l2.2 6.62zm-22.84.76V9.98h-2.68v11.8c0 1.53.96 3.06 3.07 3.06h1.53v-2.2h-.96c-.67 0-.96-.39-.96-1.06zm-75.58-6.9L41 16.02l-1.63.1v5.85c0 .96.48 1.53 1.44 1.53h.76v1.25h-1.05c-1.73 0-2.6-1.25-2.6-2.78V11.32h1.54v3.36h2.88z" fill="#222426"/><path d="M21 27v-8h3v11H0V19h3v8h18z" fill="#BCBBBB"/><path d="M17.1.2L15 1.8l7.9 10.6 2.1-1.6L17.1.2zm3.7 14.7L10.6 6.4l1.7-2 10.2 8.5-1.7 2zM7.2 12.3l12 5.6 1.1-2.4-12-5.6-1.1 2.4zm-1.8 6.8l13.6 2 .2-2.4-13.3-2.6-.5 3zM19 25H5v-3h14v3zm10.08 10.87V28h5v1.59h-3.04v1.57h2.52v1.58h-2.52v3.12h-1.96zm5.83-2.98V31.1c0-1.2.17-1.82.65-2.33.53-.55 1.2-.78 2.35-.78 1.23 0 1.95.27 2.47.92.38.48.53 1.09.53 2.2v1.77c0 1.19-.17 1.82-.65 2.33-.53.55-1.2.78-2.35.78-1.22 0-1.95-.27-2.47-.92-.38-.48-.53-1.09-.53-2.2zm4.07-.15v-1.48c0-1.34-.22-1.7-1.07-1.7-.84 0-1.07.36-1.07 1.7v1.48c0 1.34.23 1.7 1.07 1.7.85 0 1.07-.36 1.07-1.7zm5 .09v3.04h-1.95V28h3.08c1.1 0 1.67.16 2.09.57.4.41.57.94.57 1.8 0 1.36-.38 2-1.35 2.3l1.69 3.19h-2.17l-1.43-3.04h-.53zm-.03-1.49h.96c.7 0 .92-.22.92-.89s-.23-.89-.92-.89h-.96v1.78zm8.03 4.53V28h5.09v1.59h-3.15v1.51h2.65v1.59h-2.65v1.58h3.21v1.59h-5.15zm6.05 0V28h1.9l2.41 4.59V28h1.9v7.86h-1.9l-2.42-4.6v4.6h-1.89zm9.11 0V29.6h-2.02V28h6v1.59H69.1v6.27h-1.96zm4.84 0V28h5.08v1.59h-3.14v1.51h2.65v1.59h-2.65v1.58h3.2v1.59h-5.14zm8-3.04v3.04h-1.95V28h3.08c1.1 0 1.67.16 2.09.57.4.41.57.94.57 1.8 0 1.36-.38 2-1.35 2.3l1.69 3.19h-2.17l-1.43-3.04h-.53zm-.03-1.49h.96c.7 0 .92-.22.92-.89s-.23-.89-.92-.89h-.96v1.78zm6.99 1.9v2.63h-1.96V28h2.74c1.2 0 1.82.18 2.27.64.44.45.6 1 .6 2s-.22 1.62-.71 2.05c-.45.4-1.05.54-2.16.54h-.78zm-.03-1.57h.82c.7 0 .93-.26.93-1.05 0-.8-.24-1.06-.93-1.06h-.82v2.11zm6.1 1.16v3.04h-1.95V28h3.08c1.1 0 1.67.16 2.09.57.4.41.57.94.57 1.8 0 1.36-.38 2-1.36 2.3l1.7 3.19h-2.17l-1.43-3.04h-.53zm-.03-1.49h.96c.7 0 .92-.22.92-.89s-.23-.89-.92-.89h-.96v1.78zm5.1 4.53V28h1.96v7.86h-1.96zm2.74-1.3l1.47-.93c.34.6.8.82 1.62.82.69 0 1.01-.25 1.01-.77 0-.41-.22-.63-.78-.77-1.36-.34-1.64-.43-2.05-.7-.62-.4-.9-.97-.9-1.85 0-1.55.95-2.37 2.71-2.37 1.33 0 2.18.43 2.71 1.37l-1.42.9c-.38-.54-.74-.73-1.32-.73-.54 0-.84.25-.84.7 0 .52.3.74 1.34 1 .98.25 1.22.34 1.61.59.53.34.78.9.78 1.77 0 .85-.2 1.4-.65 1.78-.48.41-1.25.63-2.22.63-.89 0-1.71-.2-2.25-.55a2.17 2.17 0 0 1-.82-.9zm7.2 1.3V28h5.08v1.59h-3.15v1.51h2.65v1.59h-2.65v1.58h3.21v1.59h-5.14z" fill="#F48024"/></svg>