<svg aria-hidden="true" class="svg-icon iconOpenSource" width="18" height="18" viewBox="0 0 18 18"><path d="M12 12.03c-.57.11-1 .62-1 1.22v1.5c0 .69.56 1.25 1.25 1.25h1.5c.69 0 1.25-.56 1.25-1.25v-1.5c0-.6-.43-1.11-1-1.23V6a2.97 2.97 0 0 0-.94-2.06A3.03 3.03 0 0 0 11 3h-1V1L7 4v-.75C7 2.56 6.44 2 5.75 2h-1.5C3.56 2 3 2.56 3 3.25v1.5c0 .6.43 1.1 1 1.22v6.06c-.57.11-1 .62-1 1.22v1.5c0 .69.56 1.25 1.25 1.25h1.5C6.44 16 7 15.44 7 14.75v-1.5c0-.6-.43-1.1-1-1.22V5.98c.57-.12 1-.63 1-1.23V4l3 3V5h1c.27.02.48.11.69.31.2.2.3.42.3.69v6.03zM4 5h2V3H4v2zm8 8h2v2h-2v-2zm-8 2v-2h2v2H4z"/></svg>