<svg aria-hidden="true" class="svg-icon iconWave" width="18" height="18" viewBox="0 0 18 18"><path d="M7.3 17c-.67 0-1.36-.18-2.05-.54-2.08-1.06-2.54-2.53-3.12-4.4l-.1-.32c-.53-1.7-.88-3.06-.98-3.43-.2-.65.2-1.33.88-1.51.33-.1.69-.06.99.1.3.15.52.4.62.71l.66 2.28a.1.1 0 0 0 .09.07c.05-.01.08-.02.1-.06l3.68-8.3c.33-.55.96-.75 1.48-.48.55.28.67.74.36 1.42-.32.68-1.83 4.83-2.08 5.56-.02.06 0 .1.05.13.06.03.1 0 .13-.04l3.8-6.14a1.05 1.05 0 0 1 1.4-.4c.24.13.41.33.48.58.07.24.03.5-.1.73l-3.54 6.02c-.02.05-.01.1.03.12.07.04.1.02.14-.02l3.6-4.42c.2-.23.53-.51.97-.51.17 0 .34.04.51.13.21.11.35.28.4.48.07.26-.02.57-.23.84-.3.38-3.15 4.36-3.72 5.15l-.02.02c-.02.04-.02.1.02.13s.1.03.13 0l3.52-2.75c.2-.16.51-.35.87-.35.16 0 .3.04.44.1a.6.6 0 0 1 .27.4c.04.2.01.4-.09.57-.2.36-.9.98-1.63 1.63-.82.73-1.74 1.56-2.4 2.36-.15.16-.3.35-.5.6C11.2 14.96 9.6 17 7.3 17zm5.84-.17c.2.2 1.21 0 1.95-.74s.93-1.75.73-1.94c-.2-.2-.62.61-1.36 1.35-.74.75-1.52 1.14-1.32 1.33zM5.75 2.22c-.2-.2-1.21 0-1.95.74S2.87 4.7 3.07 4.9c.2.2.62-.61 1.36-1.35.74-.75 1.52-1.14 1.32-1.33z"/></svg>