<svg aria-hidden="true" class="svg-icon iconWordpress" width="18" height="18" viewBox="0 0 18 18"><path d="M15.31 5.55a7.17 7.17 0 0 1-2.7 9.67l2.2-6.35a6.8 6.8 0 0 0 .5-3.32zM10 5.62c.43-.02.82-.07.82-.07.4-.05.35-.62-.04-.6 0 0-1.17.09-1.92.09-.71 0-1.9-.1-1.9-.1-.4-.02-.44.57-.05.59 0 0 .36.04.75.06l1.12 3.07-1.58 4.72L4.57 5.6c.43-.02.82-.07.82-.07.4-.05.35-.62-.04-.6 0 0-1.17.1-1.92.1l-.46-.01A7.3 7.3 0 0 1 9 1.8c1.87 0 3.58.71 4.86 1.89h-.1c-.7 0-1.2.6-1.2 1.27 0 .6.34 1.1.7 1.69.28.48.6 1.1.6 1.98 0 .61-.24 1.33-.55 2.32l-.72 2.39L10 5.61zM9 16.19c-.7 0-1.39-.1-2.03-.3l2.16-6.26 2.2 6.06.06.1a7.2 7.2 0 0 1-2.39.4zM1.8 9c0-1.04.23-2.03.63-2.93l3.43 9.4A7.2 7.2 0 0 1 1.81 9zM9 1a8.01 8.01 0 0 0 0 16A8.01 8.01 0 0 0 9 1z" fill="#0087BE"/></svg>