<svg xmlns="http://www.w3.org/2000/svg" width="18" height="16" viewBox="0 0 18 16">
  <path fill="#000000" d="M15,1 L15,0 L3,0 L3,1 L0,1 L0,5 C0,6.6 1.4,8 3,8 L3,9 C3.4,10.5 6,11.6 8,12 L8,14 L5,14 C5,14 4,15.5 4,16 L14,16 C14,15.6 13,14 13,14 L10,14 L10,12 C12,11.6 14.6,10.5 15,9 L15,8 C16.6,7.8 18,6.6 18,5 L18,1 L15,1 Z M3,6 C2.5,6 2,5.5 2,5 L2,3 L3,3 L3,6 Z M11.4,8.5 L9,7 L6.6,8.4 L7.6,5.7 L5,4 L8,4 L9,1.3 L10,4 L12.8,4 L10.5,5.8 L11.5,8.5 L11.4,8.5 Z M16,5 C16,5.5 15.5,6 15,6 L15,3 L16,3 L16,5 Z"/>
</svg>
