<?xml version="1.0" encoding="UTF-8"?>
<svg width="18px" height="18px" viewBox="0 0 18 18" version="1.1" xmlns="http://www.w3.org/2000/svg" xmlns:xlink="http://www.w3.org/1999/xlink">
    <!-- Generator: Sketch 48.2 (47327) - http://www.bohemiancoding.com/sketch -->
    <title>Avatar</title>
    <desc>Created with Sketch.</desc>
    <defs></defs>
    <g id="Icons" stroke="none" stroke-width="1" fill="none" fill-rule="evenodd">
        <g id="Avatar" fill="#000000" fill-rule="nonzero">
            <path d="M16.0919307,16.6781107 C15.5707079,14.2457029 13.9020432,12.1391894 11.6129032,11.0322581 L11.6129032,10.7422544 C12.6706471,9.94775213 13.3548387,8.68280908 13.3548387,7.25806452 C13.3548387,4.85295351 11.405111,2.90322581 9,2.90322581 C6.59488899,2.90322581 4.64516129,4.85295351 4.64516129,7.25806452 C4.64516129,8.68280908 5.32935287,9.94775213 6.38709677,10.7422544 L6.38709677,11.0322581 C4.09794001,12.1391975 2.4292676,14.2457338 1.90805784,16.6781642 C1.36144034,16.3221705 1,15.7055591 1,15.0059397 L1,2.99406028 C1,1.8927712 1.89451376,1 2.99406028,1 L15.0059397,1 C16.1072288,1 17,1.89451376 17,2.99406028 L17,15.0059397 C17,15.7063438 16.6381891,16.322407 16.0919307,16.6781107 Z" id="Combined-Shape"></path>
        </g>
    </g>
</svg>