<svg xmlns="http://www.w3.org/2000/svg" width="18" height="18" viewBox="0 0 18 18">
  <path fill="#000000" d="M16.2574386,17.9841855 C17.2405286,17.8601235 18,17.0212696 18,16.0049107 L18,1.99508929 C18,0.892622799 17.1067681,-8.8817842e-16 16.0049107,-8.8817842e-16 L1.99508929,-8.8817842e-16 C0.892622799,-8.8817842e-16 8.8817842e-16,0.893231902 8.8817842e-16,1.99508929 L8.8817842e-16,16.0049107 C8.8817842e-16,17.0217899 0.759927502,17.8601421 1.74256165,17.9841804 C1.86313964,15.0152357 3.6965342,12.3333004 6.38709677,11.0322581 L6.38709677,10.7422544 C5.32935287,9.94775213 4.64516129,8.68280908 4.64516129,7.25806452 C4.64516129,4.85295351 6.59488899,2.90322581 9,2.90322581 C11.405111,2.90322581 13.3548387,4.85295351 13.3548387,7.25806452 C13.3548387,8.68280908 12.6706471,9.94775213 11.6129032,10.7422544 L11.6129032,11.0322581 C14.3034673,12.3333011 16.1368624,15.0152387 16.2574386,17.9841855 Z"/>
</svg>
