<?xml version="1.0" encoding="UTF-8"?>
<svg width="18px" height="18px" viewBox="0 0 18 18" version="1.1" xmlns="http://www.w3.org/2000/svg" xmlns:xlink="http://www.w3.org/1999/xlink">
    <!-- Generator: Sketch 47 (45396) - http://www.bohemiancoding.com/sketch -->
    <title>Avatar</title>
    <desc>Created with Sketch.</desc>
    <defs></defs>
    <g id="Icons" stroke="none" stroke-width="1" fill="none" fill-rule="evenodd">
        <g id="Avatar" fill-rule="nonzero" fill="#000000">
            <path d="M16.0919307,16.6781107 C16.6381891,16.322407 17,15.7063438 17,15.0059397 L17,2.99406028 C17,1.89451376 16.1072288,1 15.0059397,1 L2.99406028,1 C1.89451376,1 1,1.8927712 1,2.99406028 L1,15.0059397 C1,15.7055591 1.36144034,16.3221705 1.90805784,16.6781642 C2.4292676,14.2457338 4.09794001,12.1391975 6.38709677,11.0322581 L6.38709677,10.7422544 C5.32935287,9.94775213 4.64516129,8.68280908 4.64516129,7.25806452 C4.64516129,4.85295351 6.59488899,2.90322581 9,2.90322581 C11.405111,2.90322581 13.3548387,4.85295351 13.3548387,7.25806452 C13.3548387,8.68280908 12.6706471,9.94775213 11.6129032,10.7422544 L11.6129032,11.0322581 C13.9020432,12.1391894 15.5707079,14.2457029 16.0919307,16.6781107 Z" id="Combined-Shape"></path>
        </g>
    </g>
</svg>