<?xml version="1.0" encoding="UTF-8"?>
<svg width="18px" height="18px" viewBox="0 0 18 18" version="1.1" xmlns="http://www.w3.org/2000/svg" xmlns:xlink="http://www.w3.org/1999/xlink">
    <!-- Generator: Sketch 45.1 (43504) - http://www.bohemiancoding.com/sketch -->
    <title>DocumentEdit</title>
    <desc>Created with Sketch.</desc>
    <defs></defs>
    <g id="Icons" stroke="none" stroke-width="1" fill="none" fill-rule="evenodd">
        <g id="DocumentEdit" fill="#000000">
            <path d="M3,2.99406028 C3,1.8927712 3.88670635,1 4.99810135,1 L11,1 L15,5 L15,14.9914698 C15,16.1007504 14.0980496,17 12.9914698,17 L5.0085302,17 C3.8992496,17 3,16.1054862 3,15.0059397 L3,2.99406028 Z M5,14 L6.99624634,14.0089417 L13.059082,8.02789307 C13.259082,7.82789307 13.2870667,7.48921509 13.059082,7.22789307 L11.7628357,5.92584839 C11.5628357,5.72584839 11.2628357,5.72584839 11.0628357,5.92584839 L5,12.006897 L5,14 Z M13,14 L13,13 L10,13 L8.5,14 L13,14 Z" id="Combined-Shape"></path>
        </g>
    </g>
</svg>