<?xml version="1.0" encoding="UTF-8"?>
<svg width="18px" height="18px" viewBox="0 0 18 18" version="1.1" xmlns="http://www.w3.org/2000/svg" xmlns:xlink="http://www.w3.org/1999/xlink">
    <!-- Generator: Sketch 47.1 (45422) - http://www.bohemiancoding.com/sketch -->
    <title>DocumentCode</title>
    <desc>Created with Sketch.</desc>
    <defs></defs>
    <g id="Icons" stroke="none" stroke-width="1" fill="none" fill-rule="evenodd">
        <g id="DocumentCode" fill="#000000">
            <path d="M3,2.99406028 C3,1.8927712 3.88670635,1 4.99810135,1 L11,1 L15,5 L15,14.9914698 C15,16.1007504 14.0980496,17 12.9914698,17 L5.0085302,17 C3.8992496,17 3,16.1054862 3,15.0059397 L3,2.99406028 Z M10.7106323,6 L9.30063232,7.41 L11.8906323,10 L9.30063232,12.59 L10.7106323,14 L14.7106323,10 L10.7106323,6 Z M7.30329102,6 L3.30329102,10 L7.30329102,14 L8.71329102,12.59 L6.12329102,10 L8.71329102,7.41 L7.30329102,6 Z" id="Combined-Shape"></path>
        </g>
    </g>
</svg>