<svg xmlns="http://www.w3.org/2000/svg" width="18" height="18" viewBox="0 0 18 18">
  <path fill="#000000" fill-rule="evenodd" d="M15,9.99814066 C14.9389977,9.90062586 12.47716,6 9.00115967,6 C5.48115967,6 3.00115967,10 3.00115967,10 C3.00115967,10 5.48115967,14 9.00115967,14 C12.47716,14 14.9389977,10.0993741 15,10.0018593 L15,14.9914698 C15,16.1007504 14.0980496,17 12.9914698,17 L5.0085302,17 C3.8992496,17 3,16.1054862 3,15.0059397 L3,2.99406028 C3,1.8927712 3.88670635,1 4.99810135,1 L11,1 L15,5 L15,9.99814066 Z M9,13 C7.34314575,13 6,11.6568542 6,10 C6,8.34314575 7.34314575,7 9,7 C10.6568542,7 12,8.34314575 12,10 C12,11.6568542 10.6568542,13 9,13 Z M9,11.375 C9.75939153,11.375 10.375,10.7593915 10.375,10 C10.375,9.24060847 9.75939153,8.625 9,8.625 C8.24060847,8.625 7.625,9.24060847 7.625,10 C7.625,10.7593915 8.24060847,11.375 9,11.375 Z"/>
</svg>
