<svg xmlns="http://www.w3.org/2000/svg" width="18" height="18" viewBox="0 0 18 18">
  <path fill="#000000" fill-rule="evenodd" d="M2,1.99508929 C2,0.893231902 2.88743329,0 3.99961498,0 L12,0 L16,4 L16,15.9941413 C16,17.1019465 15.1029399,18 13.9941413,18 L4.00585866,18 C2.89805351,18 2,17.1073772 2,16.0049107 L2,1.99508929 Z M4,14 L5.99624634,14.0089417 L12.059082,8.02789307 C12.259082,7.82789307 12.2870667,7.48921509 12.059082,7.22789307 L10.7628357,5.92584839 C10.5628357,5.72584839 10.2628357,5.72584839 10.0628357,5.92584839 L4,12.006897 L4,14 Z M14,14 L14,13 L9,13 L7.5,14 L14,14 Z"/>
</svg>
