<svg xmlns="http://www.w3.org/2000/svg" width="18" height="18" viewBox="0 0 18 18">
  <path fill="#000000" fill-rule="evenodd" d="M2,1.99508929 C2,0.893231902 2.88743329,0 3.99961498,0 L12,0 L16,4 L16,15.9941413 C16,17.1019465 15.1029399,18 13.9941413,18 L4.00585866,18 C2.89805351,18 2,17.1073772 2,16.0049107 L2,1.99508929 Z M9.00115967,6 C5.48115967,6 3.00115967,10 3.00115967,10 C3.00115967,10 5.48115967,14 9.00115967,14 C12.5211597,14 15.0011597,10 15.0011597,10 C15.0011597,10 12.5211597,6 9.00115967,6 Z M9,13 C7.34314575,13 6,11.6568542 6,10 C6,8.34314575 7.34314575,7 9,7 C10.6568542,7 12,8.34314575 12,10 C12,11.6568542 10.6568542,13 9,13 Z M9,11.375 C9.75939153,11.375 10.375,10.7593915 10.375,10 C10.375,9.24060847 9.75939153,8.625 9,8.625 C8.24060847,8.625 7.625,9.24060847 7.625,10 C7.625,10.7593915 8.24060847,11.375 9,11.375 Z"/>
</svg>
