<?xml version="1.0" encoding="UTF-8"?>
<svg width="18px" height="18px" viewBox="0 0 18 18" version="1.1" xmlns="http://www.w3.org/2000/svg" xmlns:xlink="http://www.w3.org/1999/xlink">
    <!-- Generator: Sketch 45.1 (43504) - http://www.bohemiancoding.com/sketch -->
    <title>Eye</title>
    <desc>Created with Sketch.</desc>
    <defs></defs>
    <g id="Icons" stroke="none" stroke-width="1" fill="none" fill-rule="evenodd">
        <g id="Eye" fill-rule="nonzero" fill="#000000">
            <path d="M8.99884033,3 C14.2795207,3 18,8.5 18,8.5 C18,8.5 14.2795207,14 8.99884033,14 C3.71815999,14 -0.00231933594,8.5 -0.00231933594,8.5 C-0.00231933594,8.5 3.71815999,3 8.99884033,3 Z M9,12.75 L9,12.75 C11.3362497,12.7237475 13.2237475,10.8362497 13.25,8.5 C13.25,6.15278981 11.3472102,4.25 9,4.25 C6.65278981,4.25 4.75,6.15278981 4.75,8.5 C4.75,10.8472102 6.65278981,12.75 9,12.75 Z M9,10.75 C7.75735931,10.75 6.75,9.74264069 6.75,8.5 C6.75,7.25735931 7.75735931,6.25 9,6.25 C10.2426407,6.25 11.25,7.25735931 11.25,8.5 C11.25,9.74264069 10.2426407,10.75 9,10.75 Z" id="Combined-Shape"></path>
        </g>
    </g>
</svg>