<svg xmlns="http://www.w3.org/2000/svg" width="16" height="16" viewBox="0 0 16 16">
  <path fill="#3C5A96" fill-rule="evenodd" d="M15.117,0 L0.883,0 C0.395,0 0,0.395 0,0.883 L0,15.117 C0,15.605 0.395,16 0.883,16 L8.546,16 L8.546,9.804 L6.46,9.804 L6.46,7.39 L8.546,7.39 L8.546,5.607 C8.546,3.541 9.808,2.417 11.652,2.417 C12.535,2.417 13.294,2.481 13.515,2.511 L13.515,4.671 L12.235,4.671 C11.235,4.671 11.04,5.151 11.04,5.851 L11.04,7.391 L13.43,7.391 L13.12,9.811 L11.04,9.811 L11.04,16 L15.117,16 C15.605,16 16,15.605 16,15.117 L16,0.883 C16,0.395 15.605,0 15.117,0"/>
</svg>
