<svg xmlns="http://www.w3.org/2000/svg" width="18" height="18" viewBox="0 0 18 18">
  <path fill="#000000" fill-rule="evenodd" d="M2,1.99508929 C2,0.893231902 2.88743329,0 3.99961498,0 L12,0 L16,4 L16,15.9941413 C16,17.1019465 15.1029399,18 13.9941413,18 L4.00585866,18 C2.89805351,18 2,17.1073772 2,16.0049107 L2,1.99508929 Z M10.7106323,6 L9.30063232,7.41 L11.8906323,10 L9.30063232,12.59 L10.7106323,14 L14.7106323,10 L10.7106323,6 Z M7.30329102,6 L3.30329102,10 L7.30329102,14 L8.71329102,12.59 L6.12329102,10 L8.71329102,7.41 L7.30329102,6 Z"/>
</svg>
