<svg xmlns="http://www.w3.org/2000/svg" width="18" height="18" viewBox="0 0 18 18">
  <path fill="#000000" d="M10.2528409,0 L10.8792614,2.18605909 C11.447595,2.34265909 11.9886791,2.56553182 12.4900568,2.85083182 L14.4715909,1.7514 L16.2485795,3.52840909 L15.1491477,5.50992273 C15.434415,6.01122273 15.6573532,6.55245 15.8139205,7.12071818 L18,7.74715909 L18,10.2528409 L15.8139205,10.8792409 C15.6573532,11.4475909 15.434415,11.9886545 15.1491477,12.4900364 L16.2485795,14.4715909 L14.4715909,16.2485591 L12.4900568,15.1491273 C11.9886791,15.4344273 11.447595,15.6573409 10.8792614,15.8139 L10.2528409,18.0000164 L7.74715909,18.0000164 L7.12073864,15.8139 C6.55240909,15.6573409 6.01132091,15.4344273 5.50994318,15.1491273 L3.52840909,16.2485591 L1.75142045,14.4715909 L2.85085227,12.4900364 C2.56558091,11.9886545 2.34265091,11.4475909 2.18607955,10.8792409 L0,10.2528409 L0,7.74715909 L2.18607955,7.12071818 C2.34265091,6.55245 2.56558091,6.01122273 2.85085227,5.50992273 L1.75142045,3.52840909 L3.52840909,1.7514 L5.50994318,2.85083182 C6.01132091,2.56553182 6.55240909,2.34265909 7.12073864,2.18605909 L7.74715909,0 L10.2528409,0 Z M9,5.72727273 C7.19252591,5.72727273 5.72727273,7.19255455 5.72727273,9 C5.72727273,10.8074455 7.19252591,12.2727273 9,12.2727273 C10.8074741,12.2727273 12.2727273,10.8074455 12.2727273,9 C12.2727273,7.19255455 10.8074741,5.72727273 9,5.72727273 Z"/>
</svg>
