<?xml version="1.0" encoding="UTF-8"?>
<svg width="18px" height="18px" viewBox="0 0 18 18" version="1.1" xmlns="http://www.w3.org/2000/svg" xmlns:xlink="http://www.w3.org/1999/xlink">
    <!-- Generator: Sketch 47.1 (45422) - http://www.bohemiancoding.com/sketch -->
    <title>Globe</title>
    <desc>Created with Sketch.</desc>
    <defs></defs>
    <g id="Icons" stroke="none" stroke-width="1" fill="none" fill-rule="evenodd">
        <g id="Globe" fill-rule="nonzero" fill="#000000">
            <path d="M9,1 C4.584,1 1,4.584 1,9 C1,13.416 4.584,17 9,17 C13.416,17 17,13.416 17,9 C17,4.584 13.416,1 9,1 Z M8.2,15.344 C5.04,14.952 2.6,12.264 2.6,9 C2.6,8.504 2.664,8.032 2.768,7.568 L6.6,11.4 L6.6,12.2 C6.6,13.08 7.32,13.8 8.2,13.8 L8.2,15.344 Z M13.72,13.312 C13.512,12.664 12.72,12 12,12 L11,12 L11,10 C11,9.56 10.44,9 10,9 L6,9 L6,7 L7,7 C7.44,7 8,6.44 8,6 L8,5 L10,5 C10.88,5 11.4,4.28 11.4,3.4 L11.4,3.072 C13.744,4.024 15.4,6.32 15.4,9 C15.4,10.664 14.76,12.176 13.72,13.312 Z" id="Shape"></path>
        </g>
    </g>
</svg>