<?xml version="1.0" encoding="UTF-8"?>
<svg width="26px" height="5px" viewBox="0 0 26 5" version="1.1" xmlns="http://www.w3.org/2000/svg" xmlns:xlink="http://www.w3.org/1999/xlink">
    <!-- Generator: Sketch 45.1 (43504) - http://www.bohemiancoding.com/sketch -->
    <title>Grabber</title>
    <desc>Created with Sketch.</desc>
    <defs></defs>
    <g id="Icons" stroke="none" stroke-width="1" fill="none" fill-rule="evenodd">
        <g id="Grabber" fill-rule="nonzero" fill="#000000">
            <polygon id="Shape" points="0 0 2 0 2 2 0 2"></polygon>
            <polygon id="Shape" points="3 3 5 3 5 5 3 5"></polygon>
            <polygon id="Shape" points="9 3 11 3 11 5 9 5"></polygon>
            <polygon id="Shape" points="15 3 17 3 17 5 15 5"></polygon>
            <polygon id="Shape" points="21 3 23 3 23 5 21 5"></polygon>
            <polygon id="Shape" points="6 0 8 0 8 2 6 2"></polygon>
            <polygon id="Shape" points="12 0 14 0 14 2 12 2"></polygon>
            <polygon id="Shape" points="18 0 20 0 20 2 18 2"></polygon>
            <polygon id="Shape" points="24 0 26 0 26 2 24 2"></polygon>
        </g>
    </g>
</svg>