<?xml version="1.0" encoding="UTF-8"?>
<svg width="18px" height="18px" viewBox="0 0 18 18" version="1.1" xmlns="http://www.w3.org/2000/svg" xmlns:xlink="http://www.w3.org/1999/xlink">
    <!-- Generator: Sketch 45.2 (43514) - http://www.bohemiancoding.com/sketch -->
    <title>GridTwo</title>
    <desc>Created with Sketch.</desc>
    <defs></defs>
    <g id="Icons" stroke="none" stroke-width="1" fill="none" fill-rule="evenodd">
        <g id="GridTwo" fill="#000000">
            <path d="M2,2 L15,2 L15,16 L2,16 L2,2 Z M3,13 L3,15 L8,15 L8,13 L3,13 Z M9,13 L9,15 L14,15 L14,13 L9,13 Z M3,10 L3,12 L8,12 L8,10 L3,10 Z M9,10 L9,12 L14,12 L14,10 L9,10 Z M9,7 L9,9 L14,9 L14,7 L9,7 Z M3,7 L3,9 L8,9 L8,7 L3,7 Z" id="Combined-Shape"></path>
        </g>
    </g>
</svg>