<svg xmlns="http://www.w3.org/2000/svg" width="18" height="18" viewBox="0 0 18 18">
  <path fill="#000000" d="M9,0 C4.02916111,0.000276142375 -0.000276142375,4.03016111 0,9.001 C0.000276142375,13.9718389 4.03016111,18.0012761 9.001,18.001 C13.9718389,18.0007239 18.0012761,13.9708389 18.001,9 C18.0007239,4.02916111 13.9708389,-0.000276142375 9,9.99256235e-16 L9,0 Z M9.812,13.126 C9.792,13.842 9.262,14.283 8.574,14.263 C7.915,14.243 7.397,13.773 7.417,13.054 C7.437,12.339 7.983,11.884 8.642,11.904 C9.333,11.925 9.836,12.411 9.812,13.126 Z M11.768,8.012 C11.6,8.249 11.222,8.554 10.748,8.924 L10.221,9.285 C9.964,9.482 9.804,9.715 9.719,9.98 C9.675,10.121 9.643,10.487 9.635,10.732 C9.631,10.78 9.603,10.888 9.454,10.888 L7.883,10.888 C7.718,10.888 7.698,10.792 7.703,10.744 C7.726,10.077 7.823,9.526 8.1,9.084 C8.474,8.49 9.526,7.863 9.526,7.863 C9.687,7.743 9.812,7.613 9.908,7.473 C10.085,7.233 10.229,6.963 10.229,6.673 C10.229,6.34 10.149,6.023 9.936,5.758 C9.687,5.448 9.418,5.3 8.9,5.3 C8.39,5.3 8.092,5.557 7.879,5.894 C7.666,6.232 7.702,6.629 7.702,6.991 L5.746,6.991 C5.746,5.625 6.103,4.753 6.858,4.239 C7.368,3.889 8.02,3.737 8.779,3.737 C9.775,3.737 10.567,3.921 11.266,4.452 C11.913,4.942 12.254,5.633 12.254,6.565 C12.254,7.14 12.054,7.622 11.768,8.012 L11.768,8.012 Z"/>
</svg>
