<svg xmlns="http://www.w3.org/2000/svg" width="18" height="16" viewBox="0 0 18 16">
  <path fill="#000000" d="M13.19,-8.8828684e-16 L4.63,-4.66315354e-15 C3.78307313,-0.00729551592 3.03140932,0.541215914 2.78,1.35 L0,9.79 L0,14 C1.3527075e-16,15.1045695 0.8954305,16 2,16 L16,16 C17.1045695,16 18,15.1045695 18,14 L18,9.79 L15.13,1.35 C14.8468257,0.52516413 14.0618354,-0.0210919555 13.19,-8.8828684e-16 Z M12.91,10 L10.91,12 L6.91,12 L4.91,10 L1.96,10 L4.4,2.68 C4.53757212,2.27268828 4.92008409,1.99889024 5.35,2 L12.47,2 C12.8999159,1.99889024 13.2824279,2.27268828 13.42,2.68 L15.86,10 L12.91,10 Z"/>
</svg>
