<svg xmlns="http://www.w3.org/2000/svg" width="18" height="18" viewBox="0 0 18 18">
  <path fill="#000000" d="M9.37916667,7.83333333 C8.90083333,6.47416667 7.60583333,5.5 6.08333333,5.5 C4.1525,5.5 2.58333333,7.06916667 2.58333333,9 C2.58333333,10.9308333 4.1525,12.5 6.08333333,12.5 C7.60583333,12.5 8.90083333,11.5258333 9.37916667,10.1666667 L11.9166667,10.1666667 L11.9166667,12.5 L14.25,12.5 L14.25,10.1666667 L15.4166667,10.1666667 L15.4166667,7.83333333 L9.37916667,7.83333333 Z M6.08333333,10.1666667 C5.44166667,10.1666667 4.91666667,9.64166667 4.91666667,9 C4.91666667,8.35833333 5.44166667,7.83333333 6.08333333,7.83333333 C6.725,7.83333333 7.25,8.35833333 7.25,9 C7.25,9.64166667 6.725,10.1666667 6.08333333,10.1666667 Z"/>
</svg>
