<svg xmlns="http://www.w3.org/2000/svg" width="18" height="18" viewBox="0 0 18 18">
  <g fill="none" fill-rule="evenodd" transform="translate(2 2)">
    <polygon points="0 0 14 0 14 14 0 14"/>
    <path fill="#000000" fill-rule="nonzero" d="M7.37916667,5.83333333 C6.90083333,4.47416667 5.60583333,3.5 4.08333333,3.5 C2.1525,3.5 0.583333333,5.06916667 0.583333333,7 C0.583333333,8.93083333 2.1525,10.5 4.08333333,10.5 C5.60583333,10.5 6.90083333,9.52583333 7.37916667,8.16666667 L9.91666667,8.16666667 L9.91666667,10.5 L12.25,10.5 L12.25,8.16666667 L13.4166667,8.16666667 L13.4166667,5.83333333 L7.37916667,5.83333333 Z M4.08333333,8.16666667 C3.44166667,8.16666667 2.91666667,7.64166667 2.91666667,7 C2.91666667,6.35833333 3.44166667,5.83333333 4.08333333,5.83333333 C4.725,5.83333333 5.25,6.35833333 5.25,7 C5.25,7.64166667 4.725,8.16666667 4.08333333,8.16666667 Z"/>
  </g>
</svg>
