<svg xmlns="http://www.w3.org/2000/svg" width="16" height="16" viewBox="0 0 16 16">
  <path fill="#1178B3" fill-rule="evenodd" d="M13.632,13.635 L11.262,13.635 L11.262,9.922 C11.262,9.036 11.244,7.897 10.028,7.897 C8.793,7.897 8.604,8.861 8.604,9.857 L8.604,13.635 L6.234,13.635 L6.234,6 L8.51,6 L8.51,7.04 L8.54,7.04 C8.858,6.44 9.632,5.807 10.787,5.807 C13.187,5.807 13.632,7.387 13.632,9.444 L13.632,13.632 L13.632,13.635 Z M3.558,4.955 C2.796,4.955 2.182,4.338 2.182,3.578 C2.182,2.82 2.796,2.203 3.558,2.203 C4.318,2.203 4.934,2.82 4.934,3.578 C4.934,4.338 4.317,4.955 3.558,4.955 L3.558,4.955 Z M4.746,13.635 L2.37,13.635 L2.37,6 L4.746,6 L4.746,13.635 L4.746,13.635 Z M14.816,0 L1.18,0 C0.528,0 0,0.516 0,1.153 L0,14.847 C0,15.484 0.528,16 1.18,16 L14.815,16 C15.467,16 16,15.484 16,14.847 L16,1.153 C16,0.516 15.467,0 14.815,0 L14.816,0 Z"/>
</svg>
