<?xml version="1.0" encoding="UTF-8"?>
<svg width="154px" height="20px" viewBox="0 0 154 20" version="1.1" xmlns="http://www.w3.org/2000/svg" xmlns:xlink="http://www.w3.org/1999/xlink">
    <!-- Generator: Sketch 45.1 (43504) - http://www.bohemiancoding.com/sketch -->
    <title>LogoWordmarkMedium</title>
    <desc>Created with Sketch.</desc>
    <defs></defs>
    <g id="Icons" stroke="none" stroke-width="1" fill="none" fill-rule="evenodd">
        <g id="LogoWordmarkMedium" fill-rule="nonzero" fill="#222426">
            <path d="M7,12.004195 L4.8,11.804195 C3.1,11.704195 2.5,11.004195 2.5,9.80419496 C2.5,8.40419496 3.5,7.60419496 5.5,7.60419496 C6.8,7.50419496 8.1,7.90419496 9.1,8.70419496 L10.4,7.40419496 C9,6.40419496 7.3,5.90419496 5.6,6.00419496 C2.7,6.00419496 0.7,7.50419496 0.7,9.90419496 C0.7,12.104195 2.1,13.304195 4.7,13.504195 L6.9,13.704195 C8.5,13.804195 9.1,14.504195 9.1,15.704195 C9.1,17.304195 7.7,18.104195 5.5,18.104195 C3.9,18.204195 2.4,17.604195 1.3,16.504195 L0,17.804195 C1.5,19.204195 3.5,19.804195 5.5,19.704195 C8.7,19.704195 11,18.204195 11,15.604195 C11,13.004195 9.4,12.204195 7,12.004195 L7,12.004195 Z M23.8,5.90419496 C21.6,5.90419496 20.3,6.30419496 19.1,7.80419496 L20.4,9.10419496 C21.2,8.00419496 22.5,7.40419496 23.8,7.60419496 C26.3,7.60419496 27.2,8.60419496 27.2,10.504195 L27.2,11.804195 L23.2,11.804195 C20.2,11.804195 18.6,13.304195 18.6,15.704195 C18.6,16.704195 18.9,17.704195 19.6,18.404195 C20.4,19.304195 21.5,19.604195 23.4,19.604195 C24.8,19.704195 26.3,19.204195 27.3,18.204195 L27.3,19.504195 L29.3,19.504195 L29.3,10.404195 C29.2,7.50419496 27.4,5.90419496 23.8,5.90419496 L23.8,5.90419496 Z M27.2,14.804195 C27.3,15.604195 27.1,16.504195 26.5,17.104195 C25.7,17.804195 24.6,18.104195 23.5,18.004195 C21.4,18.004195 20.4,17.304195 20.4,15.704195 C20.4,14.104195 21.4,13.304195 23.4,13.304195 L27.2,13.304195 L27.2,14.804195 L27.2,14.804195 Z M36.9,7.70419496 C38.1,7.70419496 39.3,8.20419496 40,9.20419496 L41.3,7.90419496 C40.2,6.60419496 38.6,5.80419496 36.9,5.90419496 C33.5,5.90419496 31,8.20419496 31,12.804195 C31,17.404195 33.6,19.704195 36.9,19.704195 C38.6,19.804195 40.2,19.004195 41.3,17.704195 L40,16.404195 C39.3,17.404195 38.1,17.904195 36.9,17.904195 C35.7,18.004195 34.5,17.404195 33.8,16.404195 C33.1,15.304195 32.8,14.104195 32.9,12.804195 C32.8,11.504195 33.1,10.304195 33.8,9.20419496 C34.5,8.20419496 35.7,7.60419496 36.9,7.70419496 Z M53.7,6.10419496 L51.3,6.10419496 L45.2,12.004195 L45.2,0.104194958 L43.2,0.104194958 L43.2,19.504195 L45.2,19.504195 L45.2,14.604195 L47.6,12.204195 L52.1,19.504195 L54.5,19.504195 L48.9,10.904195 L53.7,6.10419496 L53.7,6.10419496 Z M62.9,5.40419496 C61.3,5.30419496 59.7,5.90419496 58.6,7.10419496 C57.3,8.40419496 57,10.004195 57,12.504195 C57,15.004195 57.3,16.604195 58.6,17.904195 C59.7,19.004195 61.3,19.604195 62.9,19.604195 C64.5,19.704195 66.1,19.104195 67.2,17.904195 C68.5,16.604195 68.8,15.004195 68.8,12.504195 C68.8,10.004195 68.5,8.40419496 67.2,7.10419496 C66.1,5.90419496 64.5,5.30419496 62.9,5.40419496 Z M64.6,15.904195 C63.7,16.704195 62.3,16.704195 61.4,15.904195 C60.7,15.204195 60.6,13.904195 60.6,12.504195 C60.6,11.104195 60.7,9.80419496 61.4,9.10419496 C62.3,8.30419496 63.7,8.30419496 64.6,9.10419496 C65.3,9.80419496 65.4,11.004195 65.4,12.504195 C65.4,14.004195 65.3,15.204195 64.6,15.904195 Z M78.2,5.50419496 L75.4,14.104195 L72.6,5.50419496 L68.9,5.50419496 L74.1,19.504195 L76.8,19.504195 L81.9,5.50419496 L78.2,5.50419496 Z M87.8,5.40419496 C84.2,5.40419496 81.7,8.00419496 81.7,12.504195 C81.7,18.204195 84.9,19.704195 88.2,19.704195 C90.2,19.804195 92.2,19.004195 93.5,17.504195 L91.4,15.404195 C90.6,16.304195 89.4,16.804195 88.2,16.704195 C86.6,16.804195 85.2,15.604195 85.1,14.004195 L85.1,13.604195 L93.8,13.604195 L93.8,12.004195 C93.9,8.20419496 91.7,5.40419496 87.8,5.40419496 L87.8,5.40419496 Z M85.1,11.204195 C85.1,10.704195 85.2,10.204195 85.4,9.70419496 C85.8,8.80419496 86.7,8.30419496 87.7,8.30419496 C88.7,8.20419496 89.6,8.80419496 90,9.70419496 C90.2,10.204195 90.3,10.704195 90.3,11.204195 L85.1,11.204195 L85.1,11.204195 Z M99,6.90419496 L99,5.60419496 L95.6,5.60419496 L95.6,19.604195 L99.1,19.604195 L99.1,11.204195 C99,9.90419496 99.9,8.80419496 101.2,8.60419496 L101.4,8.60419496 C102.1,8.60419496 102.8,8.90419496 103.2,9.40419496 L105.8,6.80419496 C105,5.90419496 103.7,5.40419496 102.5,5.50419496 C101.2,5.40419496 99.9,5.90419496 99,6.90419496 L99,6.90419496 Z M106.9,4.10419496 L106.9,19.504195 L110.4,19.504195 L110.4,8.50419496 L113,8.50419496 L113,5.80419496 L110.4,5.80419496 L110.4,4.30419496 C110.3,3.70419496 110.7,3.10419496 111.3,3.00419496 L112.9,3.00419496 L112.9,0.00419495803 L110.9,0.00419495803 C108.8,-0.095805042 107,1.60419496 106.9,3.80419496 L106.9,4.10419496 L106.9,4.10419496 Z M127.3,5.40419496 C125.7,5.30419496 124.1,5.90419496 123,7.10419496 C121.7,8.40419496 121.4,10.004195 121.4,12.504195 C121.4,15.004195 121.7,16.604195 123,17.904195 C124.1,19.004195 125.7,19.604195 127.3,19.604195 C128.9,19.704195 130.5,19.104195 131.6,17.904195 C132.9,16.604195 133.2,15.004195 133.2,12.504195 C133.2,10.004195 132.9,8.40419496 131.6,7.10419496 C130.5,5.90419496 128.9,5.30419496 127.3,5.40419496 L127.3,5.40419496 Z M129,15.904195 C128.1,16.704195 126.7,16.704195 125.8,15.904195 C125.1,15.204195 125,13.904195 125,12.504195 C125,11.104195 125.1,9.80419496 125.8,9.10419496 C126.7,8.30419496 128.1,8.30419496 129,9.10419496 C129.7,9.80419496 129.8,11.004195 129.8,12.504195 C129.8,14.004195 129.7,15.204195 129,15.904195 Z M149.7,5.50419496 L147.4,14.104195 L144.5,5.50419496 L142,5.50419496 L139.2,14.204195 L136.9,5.60419496 L133.2,5.60419496 L137.5,19.604195 L140.4,19.604195 L143.3,10.804195 L146.2,19.604195 L149.2,19.604195 L153.5,5.60419496 L149.7,5.50419496 L149.7,5.50419496 Z M118.1,15.304195 L118.1,0.104194958 L114.6,0.104194958 L114.6,15.504195 C114.5,17.604195 116.1,19.404195 118.2,19.504195 L120.7,19.504195 L120.7,16.504195 L119.4,16.504195 C118.8,16.604195 118.3,16.304195 118.1,15.704195 L118.1,15.304195 L118.1,15.304195 Z M18.2,6.40419496 L14.5,6.40419496 L14.5,2.00419496 L12.5,2.00419496 L12.5,15.904195 C12.5,17.904195 13.6,19.504195 15.9,19.504195 L17.3,19.504195 L17.3,17.804195 L16.3,17.804195 C15,17.804195 14.5,17.104195 14.5,15.804195 L14.5,8.10419496 L16.4,8.10419496 L18.2,6.40419496 L18.2,6.40419496 Z" id="Shape"></path>
        </g>
    </g>
</svg>