<?xml version="1.0" encoding="UTF-8"?>
<svg width="189px" height="37px" viewBox="0 0 189 37" version="1.1" xmlns="http://www.w3.org/2000/svg" xmlns:xlink="http://www.w3.org/1999/xlink">
    <!-- Generator: Sketch 45.2 (43514) - http://www.bohemiancoding.com/sketch -->
    <title>LogoMedium</title>
    <desc>Created with Sketch.</desc>
    <defs></defs>
    <g id="Icons" stroke="none" stroke-width="1" fill="none" fill-rule="evenodd">
        <g id="LogoMedium" fill-rule="nonzero">
            <path d="M42,23.004195 L39.8,22.804195 C38.1,22.704195 37.5,22.004195 37.5,20.804195 C37.5,19.404195 38.5,18.604195 40.5,18.604195 C41.8,18.504195 43.1,18.904195 44.1,19.704195 L45.4,18.404195 C44,17.404195 42.3,16.904195 40.6,17.004195 C37.7,17.004195 35.7,18.504195 35.7,20.904195 C35.7,23.104195 37.1,24.304195 39.7,24.504195 L41.9,24.704195 C43.5,24.804195 44.1,25.504195 44.1,26.704195 C44.1,28.304195 42.7,29.104195 40.5,29.104195 C38.9,29.204195 37.4,28.604195 36.3,27.504195 L35,28.804195 C36.5,30.204195 38.5,30.804195 40.5,30.704195 C43.7,30.704195 46,29.204195 46,26.604195 C46,24.004195 44.4,23.204195 42,23.004195 L42,23.004195 Z M58.8,16.904195 C56.6,16.904195 55.3,17.304195 54.1,18.804195 L55.4,20.104195 C56.2,19.004195 57.5,18.404195 58.8,18.604195 C61.3,18.604195 62.2,19.604195 62.2,21.504195 L62.2,22.804195 L58.2,22.804195 C55.2,22.804195 53.6,24.304195 53.6,26.704195 C53.6,27.704195 53.9,28.704195 54.6,29.404195 C55.4,30.304195 56.5,30.604195 58.4,30.604195 C59.8,30.704195 61.3,30.204195 62.3,29.204195 L62.3,30.504195 L64.3,30.504195 L64.3,21.404195 C64.2,18.504195 62.4,16.904195 58.8,16.904195 L58.8,16.904195 Z M62.2,25.804195 C62.3,26.604195 62.1,27.504195 61.5,28.104195 C60.7,28.804195 59.6,29.104195 58.5,29.004195 C56.4,29.004195 55.4,28.304195 55.4,26.704195 C55.4,25.104195 56.4,24.304195 58.4,24.304195 L62.2,24.304195 L62.2,25.804195 L62.2,25.804195 Z M71.9,18.704195 C73.1,18.704195 74.3,19.204195 75,20.204195 L76.3,18.904195 C75.2,17.604195 73.6,16.804195 71.9,16.904195 C68.5,16.904195 66,19.204195 66,23.804195 C66,28.404195 68.6,30.704195 71.9,30.704195 C73.6,30.804195 75.2,30.004195 76.3,28.704195 L75,27.404195 C74.3,28.404195 73.1,28.904195 71.9,28.904195 C70.7,29.004195 69.5,28.404195 68.8,27.404195 C68.1,26.304195 67.8,25.104195 67.9,23.804195 C67.8,22.504195 68.1,21.304195 68.8,20.204195 C69.5,19.204195 70.7,18.604195 71.9,18.704195 Z M88.7,17.104195 L86.3,17.104195 L80.2,23.004195 L80.2,11.104195 L78.2,11.104195 L78.2,30.504195 L80.2,30.504195 L80.2,25.604195 L82.6,23.204195 L87.1,30.504195 L89.5,30.504195 L83.9,21.904195 L88.7,17.104195 L88.7,17.104195 Z M97.9,16.404195 C96.3,16.304195 94.7,16.904195 93.6,18.104195 C92.3,19.404195 92,21.004195 92,23.504195 C92,26.004195 92.3,27.604195 93.6,28.904195 C94.7,30.004195 96.3,30.604195 97.9,30.604195 C99.5,30.704195 101.1,30.104195 102.2,28.904195 C103.5,27.604195 103.8,26.004195 103.8,23.504195 C103.8,21.004195 103.5,19.404195 102.2,18.104195 C101.1,16.904195 99.5,16.304195 97.9,16.404195 Z M99.6,26.904195 C98.7,27.704195 97.3,27.704195 96.4,26.904195 C95.7,26.204195 95.6,24.904195 95.6,23.504195 C95.6,22.104195 95.7,20.804195 96.4,20.104195 C97.3,19.304195 98.7,19.304195 99.6,20.104195 C100.3,20.804195 100.4,22.004195 100.4,23.504195 C100.4,25.004195 100.3,26.204195 99.6,26.904195 Z M113.2,16.504195 L110.4,25.104195 L107.6,16.504195 L103.9,16.504195 L109.1,30.504195 L111.8,30.504195 L116.9,16.504195 L113.2,16.504195 Z M122.8,16.404195 C119.2,16.404195 116.7,19.004195 116.7,23.504195 C116.7,29.204195 119.9,30.704195 123.2,30.704195 C125.2,30.804195 127.2,30.004195 128.5,28.504195 L126.4,26.404195 C125.6,27.304195 124.4,27.804195 123.2,27.704195 C121.6,27.804195 120.2,26.604195 120.1,25.004195 L120.1,24.604195 L128.8,24.604195 L128.8,23.004195 C128.9,19.204195 126.7,16.404195 122.8,16.404195 L122.8,16.404195 Z M120.1,22.204195 C120.1,21.704195 120.2,21.204195 120.4,20.704195 C120.8,19.804195 121.7,19.304195 122.7,19.304195 C123.7,19.204195 124.6,19.804195 125,20.704195 C125.2,21.204195 125.3,21.704195 125.3,22.204195 L120.1,22.204195 L120.1,22.204195 Z M134,17.904195 L134,16.604195 L130.6,16.604195 L130.6,30.604195 L134.1,30.604195 L134.1,22.204195 C134,20.904195 134.9,19.804195 136.2,19.604195 L136.4,19.604195 C137.1,19.604195 137.8,19.904195 138.2,20.404195 L140.8,17.804195 C140,16.904195 138.7,16.404195 137.5,16.504195 C136.2,16.404195 134.9,16.904195 134,17.904195 L134,17.904195 Z M141.9,15.104195 L141.9,30.504195 L145.4,30.504195 L145.4,19.504195 L148,19.504195 L148,16.804195 L145.4,16.804195 L145.4,15.304195 C145.3,14.704195 145.7,14.104195 146.3,14.004195 L147.9,14.004195 L147.9,11.004195 L145.9,11.004195 C143.8,10.904195 142,12.604195 141.9,14.804195 L141.9,15.104195 L141.9,15.104195 Z M162.3,16.404195 C160.7,16.304195 159.1,16.904195 158,18.104195 C156.7,19.404195 156.4,21.004195 156.4,23.504195 C156.4,26.004195 156.7,27.604195 158,28.904195 C159.1,30.004195 160.7,30.604195 162.3,30.604195 C163.9,30.704195 165.5,30.104195 166.6,28.904195 C167.9,27.604195 168.2,26.004195 168.2,23.504195 C168.2,21.004195 167.9,19.404195 166.6,18.104195 C165.5,16.904195 163.9,16.304195 162.3,16.404195 L162.3,16.404195 Z M164,26.904195 C163.1,27.704195 161.7,27.704195 160.8,26.904195 C160.1,26.204195 160,24.904195 160,23.504195 C160,22.104195 160.1,20.804195 160.8,20.104195 C161.7,19.304195 163.1,19.304195 164,20.104195 C164.7,20.804195 164.8,22.004195 164.8,23.504195 C164.8,25.004195 164.7,26.204195 164,26.904195 Z M184.7,16.504195 L182.4,25.104195 L179.5,16.504195 L177,16.504195 L174.2,25.204195 L171.9,16.604195 L168.2,16.604195 L172.5,30.604195 L175.4,30.604195 L178.3,21.804195 L181.2,30.604195 L184.2,30.604195 L188.5,16.604195 L184.7,16.504195 L184.7,16.504195 Z M153.1,26.304195 L153.1,11.104195 L149.6,11.104195 L149.6,26.504195 C149.5,28.604195 151.1,30.404195 153.2,30.504195 L155.7,30.504195 L155.7,27.504195 L154.4,27.504195 C153.8,27.604195 153.3,27.304195 153.1,26.704195 L153.1,26.304195 L153.1,26.304195 Z M53.2,17.404195 L49.5,17.404195 L49.5,13.004195 L47.5,13.004195 L47.5,26.904195 C47.5,28.904195 48.6,30.504195 50.9,30.504195 L52.3,30.504195 L52.3,28.804195 L51.3,28.804195 C50,28.804195 49.5,28.104195 49.5,26.804195 L49.5,19.104195 L51.4,19.104195 L53.2,17.404195 L53.2,17.404195 Z" id="Shape" fill="#222426"></path>
            <polygon id="Shape" fill="#BCBBBB" points="26 33 26 24 30 24 30 37 0 37 0 24 4 24 4 33"></polygon>
            <path d="M23.0908203,25.9902344 L23.7844238,23.0410156 L7.67993164,19.6870117 L7,23 L23.0908203,25.9902344 Z M9.1,15.2 L24.1,22.2 L25.5,19.2 L10.5,12.2 L9.1,15.2 Z M13.3,7.8 L26,18.4 L28.1,15.9 L15.4,5.3 L13.3,7.8 L13.3,7.8 Z M21.5,0 L18.8,2 L28.7,15.3 L31.4,13.3 L21.5,0 Z M7,30 L23,30 L23,27 L7,27 L7,30 Z" id="Shape" fill="#F48024"></path>
        </g>
    </g>
</svg>