<?xml version="1.0" encoding="UTF-8"?>
<svg width="122px" height="16px" viewBox="0 0 122 16" version="1.1" xmlns="http://www.w3.org/2000/svg" xmlns:xlink="http://www.w3.org/1999/xlink">
    <!-- Generator: Sketch 45.2 (43514) - http://www.bohemiancoding.com/sketch -->
    <title>LogoWordmark</title>
    <desc>Created with Sketch.</desc>
    <defs></defs>
    <g id="Icons" stroke="none" stroke-width="1" fill="none" fill-rule="evenodd">
        <g id="LogoWordmark" fill-rule="nonzero" fill="#222426">
            <path d="M5.9,9.6 L4.2,9.4 C2.9,9.3 2.3,8.8 2.3,7.8 C2.3,6.7 3.1,6 4.7,6 C5.8,6 6.8,6.3 7.5,6.8 L8.5,5.8 C7.5,5 6.2,4.7 4.7,4.7 C2.4,4.7 0.8,5.9 0.8,7.8 C0.8,9.6 1.9,10.5 4,10.7 L5.8,10.9 C7,11 7.6,11.5 7.6,12.5 C7.6,13.8 6.5,14.4 4.8,14.4 C3.5,14.4 2.3,14.1 1.5,13.2 L0.5,14.2 C1.7,15.3 3.1,15.7 4.9,15.7 C7.5,15.7 9.2,14.5 9.2,12.5 C9,10.5 7.7,9.8 5.9,9.6 L5.9,9.6 Z M19.2,4.8 C17.5,4.8 16.4,5.1 15.5,6.3 L16.5,7.3 C17.1,6.4 17.8,6.1 19.2,6.1 C21.1,6.1 21.9,6.9 21.9,8.4 L21.9,9.4 L18.7,9.4 C16.3,9.4 15,10.6 15,12.5 C15,13.3 15.3,14.1 15.8,14.7 C16.5,15.4 17.3,15.7 18.8,15.7 C20.2,15.7 21,15.4 21.9,14.6 L21.9,15.6 L23.5,15.6 L23.5,8.4 C23.4,6 22,4.8 19.2,4.8 L19.2,4.8 Z M21.9,11.8 C21.9,12.7 21.7,13.3 21.4,13.6 C20.7,14.2 19.9,14.3 19,14.3 C17.3,14.3 16.6,13.7 16.6,12.5 C16.6,11.3 17.4,10.6 19,10.6 L22,10.6 L21.9,11.8 L21.9,11.8 Z M29.5,6.2 C30.5,6.2 31.1,6.5 31.9,7.4 L32.9,6.4 C31.8,5.2 30.9,4.8 29.4,4.8 C26.7,4.8 24.7,6.6 24.7,10.3 C24.7,13.9 26.7,15.8 29.4,15.8 C30.9,15.8 31.8,15.4 32.9,14.2 L31.8,13.2 C31,14.1 30.4,14.4 29.4,14.4 C28.4,14.4 27.5,14 26.9,13.2 C26.4,12.5 26.2,11.7 26.2,10.3 C26.2,9 26.4,8.1 26.9,7.4 C27.6,6.6 28.5,6.2 29.5,6.2 Z M42.9,4.9 L41,4.9 L36.2,9.6 L36.2,0.1 L34.6,0.1 L34.6,15.5 L36.2,15.5 L36.2,11.6 L38.1,9.7 L41.7,15.5 L43.6,15.5 L39.2,8.6 L42.9,4.9 Z M50.2,4.4 C48.6,4.4 47.5,5 46.8,5.8 C45.8,6.8 45.5,8.1 45.5,10.1 C45.5,12.1 45.8,13.4 46.8,14.4 C47.5,15.1 48.6,15.8 50.2,15.8 C51.8,15.8 53,15.2 53.6,14.4 C54.6,13.4 54.9,12.1 54.9,10.1 C54.9,8.1 54.6,6.8 53.6,5.8 C53,5 51.9,4.4 50.2,4.4 Z M51.5,12.7 C51.2,13 50.8,13.2 50.2,13.2 C49.6,13.2 49.2,13 48.9,12.7 C48.3,12.1 48.3,11.1 48.3,10 C48.3,8.8 48.4,7.9 48.9,7.3 C49.2,7 49.6,6.8 50.2,6.8 C50.8,6.8 51.2,7 51.5,7.3 C52.1,7.9 52.1,8.8 52.1,10 C52.2,11.2 52.1,12.2 51.5,12.7 Z M62.3,4.5 L60.1,11.4 L57.8,4.5 L54.9,4.5 L59,15.6 L61.2,15.6 L65.3,4.5 L62.3,4.5 L62.3,4.5 Z M69.9,4.4 C67,4.4 65.1,6.4 65.1,10.1 C65.1,14.6 67.6,15.8 70.2,15.8 C72.2,15.8 73.3,15.2 74.4,14.1 L72.7,12.5 C72,13.2 71.4,13.5 70.2,13.5 C68.6,13.5 67.8,12.5 67.8,11 L74.7,11 L74.7,9.8 C74.7,6.6 73,4.4 69.9,4.4 Z M67.8,9 C67.8,8.5 67.9,8.2 68.1,7.8 C68.4,7.1 69,6.6 70,6.6 C70.9,6.6 71.6,7.1 71.9,7.8 C72.1,8.2 72.1,8.5 72.2,9 L67.8,9 Z M78.8,5.6 L78.8,4.5 L76.1,4.5 L76.1,15.6 L78.9,15.6 L78.9,8.9 C78.9,7.5 79.8,6.9 80.7,6.9 C81.4,6.9 81.7,7.1 82.2,7.6 L84.3,5.5 C83.5,4.7 82.8,4.5 81.7,4.5 C80.4,4.4 79.4,4.9 78.8,5.6 L78.8,5.6 Z M85.1,3.3 L85.1,15.6 L87.9,15.6 L87.9,6.8 L89.9,6.8 L89.9,4.7 L87.9,4.7 L87.9,3.5 C87.9,2.9 88.2,2.5 88.9,2.5 L90,2.5 L90,0.2 L88.4,0.2 C86.1,0.2 85.1,1.8 85.1,3.3 L85.1,3.3 Z M101.3,4.4 C99.7,4.4 98.6,5 97.9,5.8 C96.9,6.8 96.6,8.1 96.6,10.1 C96.6,12.1 96.9,13.4 97.9,14.4 C98.6,15.1 99.7,15.8 101.3,15.8 C102.9,15.8 104.1,15.2 104.7,14.4 C105.7,13.4 106,12.1 106,10.1 C106,8.1 105.7,6.8 104.7,5.8 C104.1,5 102.9,4.4 101.3,4.4 Z M102.6,12.7 C102.3,13 101.9,13.2 101.3,13.2 C100.7,13.2 100.3,13 100,12.7 C99.4,12.1 99.4,11.1 99.4,10 C99.4,8.8 99.5,7.9 100,7.3 C100.3,7 100.7,6.8 101.3,6.8 C101.9,6.8 102.3,7 102.6,7.3 C103.2,7.9 103.2,8.8 103.2,10 C103.2,11.2 103.2,12.2 102.6,12.7 Z M119.1,4.5 L117.3,11.4 L115,4.5 L113,4.5 L110.7,11.4 L108.9,4.5 L106,4.5 L109.4,15.6 L111.7,15.6 L114,8.6 L116.3,15.6 L118.6,15.6 L122,4.5 L119.1,4.5 L119.1,4.5 Z M94,12.2 L94,0.1 L91.2,0.1 L91.2,12.4 C91.2,14 92.2,15.6 94.4,15.6 L96,15.6 L96,13.3 L95,13.3 C94.3,13.3 94,12.9 94,12.2 Z M13.3,6.6 L14.7,5.2 L11.7,5.2 L11.7,1.7 L10.1,1.7 L10.1,12.8 C10.1,14.4 11,15.7 12.8,15.7 L13.9,15.7 L13.9,14.4 L13.1,14.4 C12.1,14.4 11.6,13.8 11.6,12.8 L11.6,6.7 L13.3,6.7 L13.3,6.6 L13.3,6.6 Z" id="Shape"></path>
        </g>
    </g>
</svg>