<svg xmlns="http://www.w3.org/2000/svg" width="32" height="37" viewBox="0 0 32 37">
  <g fill="none">
    <polygon fill="#BCBBBB" points="26 33 26 24 30 24 30 37 0 37 0 24 4 24 4 33"/>
    <path fill="#F48024" d="M23.0908203,25.9902344 L23.7844238,23.0410156 L7.67993164,19.6870117 L7,23 L23.0908203,25.9902344 Z M9.1,15.2 L24.1,22.2 L25.5,19.2 L10.5,12.2 L9.1,15.2 Z M13.3,7.8 L26,18.4 L28.1,15.9 L15.4,5.3 L13.3,7.8 L13.3,7.8 Z M21.5,0 L18.8,2 L28.7,15.3 L31.4,13.3 L21.5,0 Z M7,30 L23,30 L23,27 L7,27 L7,30 Z"/>
  </g>
</svg>
