<?xml version="1.0" encoding="UTF-8"?>
<svg width="62px" height="22px" viewBox="0 0 62 22" version="1.1" xmlns="http://www.w3.org/2000/svg" xmlns:xlink="http://www.w3.org/1999/xlink">
    <!-- Generator: Sketch 46.1 (44463) - http://www.bohemiancoding.com/sketch -->
    <title>LogoEnterpriseWordmarkSm</title>
    <desc>Created with Sketch.</desc>
    <defs></defs>
    <g id="Icons" stroke="none" stroke-width="1" fill="none" fill-rule="evenodd">
        <g id="LogoEnterpriseWordmarkSm" fill="#F48024">
            <path d="M60.9982513,11.6460055 L57.6850959,11.6460055 L57.6850959,13.2275115 L60.4690803,13.2275115 C60.628566,13.2275115 60.7573548,13.3563008 60.7573548,13.515786 L60.7573548,14.512068 C60.7573548,14.6715532 60.628566,14.8003425 60.4690803,14.8003425 L57.6850959,14.8003425 L57.6850959,16.4445749 L60.9982513,16.4445749 C61.157736,16.4445749 61.2865258,16.5740315 61.2865258,16.7328494 L61.2865258,17.7398083 C61.2865258,17.8986262 61.157736,18.0280828 60.9982513,18.0280828 L56.2764217,18.0280828 C56.116936,18.0280828 55.9881471,17.8986262 55.9881471,17.7398083 L55.9881471,10.3507721 C55.9881471,10.1912869 56.116936,10.0624976 56.2764217,10.0624976 L60.9982513,10.0624976 C61.157736,10.0624976 61.2865258,10.1912869 61.2865258,10.3507721 L61.2865258,11.357731 C61.2865258,11.5172162 61.157736,11.6460055 60.9982513,11.6460055 Z M54.2002194,13.8991129 C54.6548604,14.2957571 54.8968462,14.8937233 54.8968462,15.6270151 C54.8968462,17.0949321 53.7149135,18.081543 51.9550131,18.081543 C50.7124167,18.081543 49.8697977,17.7642276 49.1371719,17.0209363 C49.0258454,16.9076094 49.0271786,16.7256197 49.1405056,16.613626 L49.88713,15.8776676 C49.9991237,15.7670072 50.1804468,15.7676738 50.2924404,15.8790009 C50.7337488,16.3203092 51.2210541,16.5002991 51.9756781,16.5002991 C52.4369853,16.5002991 53.2116082,16.3903053 53.2116082,15.6576801 C53.2116082,15.4850232 53.1782767,15.2490365 53.0176196,15.1050446 C52.8869603,14.9823849 52.7683004,14.9230549 52.3603235,14.8650582 L51.489706,14.7403986 C50.8424088,14.6510703 50.3044397,14.4210833 49.933794,14.0751029 C49.515151,13.6804586 49.303163,13.1351561 49.303163,12.4545279 C49.303163,10.9866109 50.4111004,10 52.0590072,10 C53.1142803,10 53.8582383,10.2739846 54.5468665,10.9172815 C54.6041966,10.9706118 54.6368609,11.0452743 54.6381941,11.1232699 C54.6388613,11.2019321 54.6081963,11.2779278 54.5521995,11.3325913 L53.8369061,12.0378848 C53.7262457,12.1478786 53.5482563,12.1485452 53.4355955,12.0412179 C53.0756159,11.6972374 52.6543063,11.550579 52.0276751,11.550579 C51.3643798,11.550579 50.9677351,11.8732274 50.9677351,12.4131969 C50.9677351,12.6185186 51.0283988,12.7718433 51.1517247,12.8825037 C51.2950504,13.0098298 51.5497026,13.111824 51.8323533,13.1544883 L52.6709726,13.2791479 C53.3889315,13.3878084 53.8315731,13.5671316 54.2002194,13.8991129 Z M48.4049602,10.0624976 C48.5637868,10.0624976 48.6920434,10.1907547 48.6920434,10.3495808 L48.6920434,17.7080823 C48.6920434,17.8662439 48.5637868,17.9951655 48.4049602,17.9951655 L47.2891904,17.9951655 C47.1303638,17.9951655 47.0021072,17.8662439 47.0021072,17.7080823 L47.0021072,10.3495808 C47.0021072,10.1907547 47.1303638,10.0624976 47.2891904,10.0624976 L48.4049602,10.0624976 Z M44.4425886,14.6498842 L45.997397,17.6355708 C46.044289,17.7253356 46.0402697,17.8331874 45.9880185,17.9196029 C45.9357673,18.0060183 45.8419832,18.0589394 45.7408297,18.0589394 L44.4278511,18.0589394 C44.31866,18.0589394 44.2181769,17.9966399 44.1692747,17.8988364 L42.6868151,14.9332464 L41.7483029,14.9332464 L41.7483029,17.7695482 C41.7483029,17.9289813 41.6190152,18.0589394 41.4589117,18.0589394 L40.3341718,18.0589394 C40.1740683,18.0589394 40.0447806,17.9289813 40.0447806,17.7695482 L40.0447806,10.3518888 C40.0447806,10.1917858 40.1740683,10.0624976 40.3341718,10.0624976 L43.209327,10.0624976 C44.7353297,10.0624976 45.8011196,11.0726873 45.8011196,12.5189734 C45.8011196,13.4956688 45.2893259,14.2847957 44.4425886,14.6498842 Z M43.1255907,13.3965255 C43.4176614,13.3965255 44.0969269,13.3114498 44.0969269,12.5296916 C44.0969269,11.9797144 43.7338481,11.6521396 43.1255907,11.6521396 L41.7483029,11.6521396 L41.7483029,13.3965255 L43.1255907,13.3965255 Z M36.1720113,10.0624976 C37.7370384,10.0624976 38.8296167,11.1042898 38.8296167,12.5958101 C38.8296167,14.0879986 37.7370384,15.1297907 36.1720113,15.1297907 L34.7767182,15.1297907 L34.7767182,17.7506431 C34.7767182,17.9096852 34.6477466,18.0393245 34.4880368,18.0393245 L33.3660549,18.0393245 C33.2063451,18.0393245 33.0773736,17.9096852 33.0773736,17.7506431 L33.0773736,10.351179 C33.0773736,10.1914686 33.2063451,10.0624976 33.3660549,10.0624976 L36.1720113,10.0624976 Z M36.1098642,13.5333562 C36.7587294,13.5333562 37.130273,13.1918836 37.130273,12.5958101 C37.130273,12.0024095 36.7487053,11.6482403 36.1098642,11.6482403 L34.7767182,11.6482403 L34.7767182,13.5333562 L36.1098642,13.5333562 Z M30.4410908,14.6106279 L31.9819294,17.5707648 C32.0284202,17.6597615 32.0244353,17.7666903 31.9726312,17.8523663 C31.9208271,17.9380422 31.8278455,17.9905104 31.7275587,17.9905104 L30.4258157,17.9905104 C30.3175581,17.9905104 30.2179349,17.9287441 30.1694521,17.8317775 L28.6996776,14.8915653 L27.7691976,14.8915653 L27.7691976,17.7035957 C27.7691976,17.8616644 27.6410152,17.9905104 27.4822828,17.9905104 L26.3671668,17.9905104 C26.2084344,17.9905104 26.0802521,17.8616644 26.0802521,17.7035957 L26.0802521,10.3494124 C26.0802521,10.1906794 26.2084344,10.0624976 26.3671668,10.0624976 L29.2177181,10.0624976 C30.7306622,10.0624976 31.7873326,11.0640427 31.7873326,12.4979523 C31.7873326,13.4662897 31.2799185,14.2486637 30.4410908,14.6106279 Z M29.1346993,13.3679948 C29.4242707,13.3679948 30.0977234,13.2836472 30.0977234,12.5085788 C30.0977234,11.9633079 29.7377516,11.6385363 29.1346993,11.6385363 L27.7691976,11.6385363 L27.7691976,13.3679948 L29.1346993,13.3679948 Z M24.9892884,10.0624976 C25.1482624,10.0624976 25.2766381,10.1908737 25.2766381,10.3498474 L25.2766381,11.3535762 C25.2766381,11.5125498 25.1482624,11.6409259 24.9892884,11.6409259 L21.6874265,11.6409259 L21.6874265,13.2173588 L24.4618157,13.2173588 C24.6207889,13.2173588 24.7491655,13.345735 24.7491655,13.5047086 L24.7491655,14.4977947 C24.7491655,14.6567684 24.6207889,14.7851445 24.4618157,14.7851445 L21.6874265,14.7851445 L21.6874265,16.4241026 L24.9892884,16.4241026 C25.1482624,16.4241026 25.2766381,16.5531439 25.2766381,16.7114524 L25.2766381,17.7151811 C25.2766381,17.8734896 25.1482624,18.0025309 24.9892884,18.0025309 L20.2826053,18.0025309 C20.1242969,18.0025309 19.9952555,17.8734896 19.9952555,17.7151811 L19.9952555,10.3498474 C19.9952555,10.1908737 20.1242969,10.0624976 20.2826053,10.0624976 L24.9892884,10.0624976 Z M18.5551995,10.0624976 C18.7151894,10.0624976 18.8443872,10.1916948 18.8443872,10.3516852 L18.8443872,11.3618337 C18.8443872,11.5218241 18.7151894,11.6510213 18.5551995,11.6510213 L16.8040078,11.6510213 L16.8040078,17.7641264 C16.8040078,17.9234473 16.6748101,18.053314 16.5148202,18.053314 L15.3908706,18.053314 C15.2308807,18.053314 15.1016829,17.9234473 15.1016829,17.7641264 L15.1016829,11.6510213 L13.3504912,11.6510213 C13.1905013,11.6510213 13.0613036,11.5218241 13.0613036,11.3618337 L13.0613036,10.3516852 C13.0613036,10.1916948 13.1905013,10.0624976 13.3504912,10.0624976 L18.5551995,10.0624976 Z M11.8557622,10.0624976 C12.0156029,10.0624976 12.1446801,10.1915743 12.1446801,10.3514155 L12.1446801,17.7569431 C12.1446801,17.9161154 12.0156029,18.045861 11.8557622,18.045861 L10.8258234,18.045861 C10.7288482,18.045861 10.6378925,17.9963704 10.5843892,17.9154466 L7.69387265,13.5127926 L7.69387265,17.7569431 C7.69387265,17.9161154 7.56412711,18.045861 7.40428645,18.045861 L6.28138514,18.045861 C6.12154448,18.045861 5.99246724,17.9161154 5.99246724,17.7569431 L5.99246724,10.3514155 C5.99246724,10.1915743 6.12154448,10.0624976 6.28138514,10.0624976 L7.31065565,10.0624976 C7.4082992,10.0624976 7.49858555,10.1113193 7.55208887,10.1929119 L10.4432747,14.5868717 L10.4432747,10.3514155 C10.4432747,10.1915743 10.5730203,10.0624976 10.7321926,10.0624976 L11.8557622,10.0624976 Z M0.287018589,10.0624976 L4.98827678,10.0624976 C5.14706764,10.0624976 5.27529537,10.1907258 5.27529537,10.3495162 L5.27529537,11.3520881 C5.27529537,11.5108785 5.14706764,11.6391067 4.98827678,11.6391067 L1.69022058,11.6391067 L1.69022058,13.2137225 L4.46141212,13.2137225 C4.62020201,13.2137225 4.74843071,13.3419507 4.74843071,13.5007411 L4.74843071,14.4926827 C4.74843071,14.6514731 4.62020201,14.7797013 4.46141212,14.7797013 L1.69022058,14.7797013 L1.69022058,16.4167703 L4.98827678,16.4167703 C5.14706764,16.4167703 5.27529537,16.5456629 5.27529537,16.7037889 L5.27529537,17.7063607 C5.27529537,17.8644867 5.14706764,17.9933793 4.98827678,17.9933793 L0.287018589,17.9933793 C0.128228696,17.9933793 0,17.8644867 0,17.7063607 L0,10.3495162 C0,10.1907258 0.128228696,10.0624976 0.287018589,10.0624976 Z" id="Shape"></path>
        </g>
    </g>
</svg>