<svg xmlns="http://www.w3.org/2000/svg" style="background:#fff" viewBox="0 0 115 15">
    <g fill="none" fill-rule="evenodd">
        <path fill="#155397" d="M0 10v.417C0 11.505.968 12.5 2 12.5h5.2V15l2.4-2.5h.4c1.033 0 2-.995 2-2.083V10H0z"/>
        <path fill="#2D6DB5" d="M0 7v2h12V7z"/>
        <path fill="#46A2D9" d="M0 4v2h12V4z"/>
        <path fill="#8FD8F7" d="M12 3H0v-.333C0 1.796.968 1 2 1h8c1.033 0 2 .796 2 1.667V3z"/>
        <path fill="#FFFFFF" d="M50.238 11.917l-1.985-3.232-1.049 1.174v2.058h-1.426V2.083h1.426v6.063l2.755-3.232h1.733l-2.46 2.749L52 11.917h-1.762zM42.536 12c-1.594 0-3.16-.967-3.16-3.591s1.566-3.578 3.16-3.578c.978 0 1.664.277 2.335.981l-.98.94c-.447-.484-.796-.664-1.355-.664-.546 0-1.007.221-1.315.622-.307.387-.42.884-.42 1.699 0 .815.113 1.326.42 1.712.308.4.77.622 1.315.622.559 0 .908-.18 1.356-.663l.979.925c-.671.705-1.357.995-2.335.995zm-5.701-3.177H35.17c-.84 0-1.273.373-1.273 1.008 0 .636.406.995 1.3.995.546 0 .952-.042 1.329-.4.21-.208.308-.54.308-1.037v-.566zm.028 3.094v-.635c-.518.51-1.007.718-1.888.718s-1.468-.207-1.901-.636c-.364-.373-.56-.911-.56-1.505 0-1.174.825-2.017 2.447-2.017h1.874v-.497c0-.884-.448-1.312-1.552-1.312-.783 0-1.161.18-1.552.677l-.937-.87c.67-.774 1.37-1.009 2.545-1.009 1.943 0 2.922.815 2.922 2.404v4.682h-1.398zm-6.446 0c-1.328 0-1.944-.94-1.944-1.948V6.116h-.81V5.039h.81V2.912H29.9v2.127h1.37v1.077H29.9V9.9c0 .511.251.815.783.815h.587v1.202h-.853zM23.524 12c-1.497 0-2.573-.345-3.524-1.298l1.007-.981c.727.718 1.524.94 2.544.94 1.3 0 2.056-.553 2.056-1.507 0-.428-.126-.787-.392-1.022-.251-.234-.503-.33-1.09-.414l-1.175-.166c-.81-.11-1.454-.386-1.887-.787-.49-.456-.727-1.077-.727-1.878C20.336 3.174 21.594 2 23.663 2c1.315 0 2.238.332 3.09 1.119l-.964.939c-.616-.58-1.329-.76-2.168-.76-1.174 0-1.817.663-1.817 1.533 0 .36.112.677.377.912.252.22.657.387 1.119.456l1.132.166c.923.138 1.44.359 1.86.732.545.47.811 1.173.811 2.016 0 1.81-1.496 2.887-3.58 2.887z"/>
        <path fill="#2F96E8" d="M111.986 6.963c-.201-.443-.618-.773-1.251-.773-.633 0-1.05.33-1.252.773a2.051 2.051 0 0 0-.172.8h2.848a2.038 2.038 0 0 0-.173-.8zm-2.675 2.073c0 .959.59 1.659 1.64 1.659.82 0 1.222-.228 1.697-.7l1.136 1.1c-.762.759-1.496 1.173-2.848 1.173-1.769 0-3.466-.8-3.466-3.818 0-2.431 1.323-3.804 3.265-3.804 2.086 0 3.265 1.516 3.265 3.56v.83h-4.69zm-6.674-2.717c-1.108 0-1.223.944-1.223 1.93 0 .988.115 1.946 1.223 1.946s1.237-.958 1.237-1.945c0-.987-.13-1.93-1.237-1.93zM102.45 15c-1.15 0-1.942-.229-2.719-.973l1.166-1.172c.417.4.834.572 1.467.572 1.122 0 1.51-.787 1.51-1.545v-.758c-.49.544-1.05.744-1.784.744-.733 0-1.366-.243-1.783-.658-.705-.7-.763-1.659-.763-2.96 0-1.302.058-2.246.763-2.946.417-.415 1.064-.658 1.798-.658.79 0 1.309.215 1.827.787v-.701h1.812v7.179c0 1.787-1.28 3.089-3.294 3.089zm-6.473-2.818V7.678c0-1.016-.647-1.359-1.237-1.359-.59 0-1.251.343-1.251 1.359v4.504h-1.87v-7.45h1.827v.686c.489-.515 1.18-.772 1.87-.772.748 0 1.352.243 1.77.658.603.6.761 1.301.761 2.116v4.762h-1.87zm-8.241-3.146h-1.482c-.676 0-1.05.315-1.05.844 0 .515.345.858 1.079.858.518 0 .849-.043 1.18-.357.2-.186.273-.487.273-.944v-.4zm.043 3.146v-.643c-.503.5-.978.715-1.841.715-.849 0-1.467-.214-1.913-.658-.403-.415-.619-1.015-.619-1.673 0-1.187.82-2.16 2.56-2.16h1.77v-.371c0-.816-.403-1.173-1.395-1.173-.72 0-1.05.172-1.439.615l-1.194-1.159c.734-.8 1.453-1.029 2.705-1.029 2.1 0 3.193.886 3.193 2.631v4.905h-1.827zm-7.724 0V7.635c0-.987-.633-1.316-1.222-1.316-.59 0-1.209.343-1.209 1.316v4.547h-1.87V2h1.87v3.418a2.482 2.482 0 0 1 1.798-.772c1.64 0 2.503 1.144 2.503 2.717v4.82h-1.87zm-8.227.086c-1.496 0-3.351-.8-3.351-3.818 0-3.017 1.855-3.804 3.351-3.804 1.036 0 1.812.315 2.474 1.001l-1.266 1.259c-.388-.415-.719-.587-1.208-.587-.446 0-.791.158-1.065.486-.287.358-.417.858-.417 1.645s.13 1.301.417 1.659c.274.329.62.486 1.065.486.489 0 .82-.171 1.208-.586l1.266 1.244c-.662.686-1.438 1.015-2.474 1.015zm-6.156-.086l-1.38-2.23-1.367 2.23H60.68L63.27 8.38 60.78 4.732h2.244l1.266 2.13 1.28-2.13h2.244l-2.488 3.647 2.589 3.803h-2.244zm-12.672 0V2h6.746v1.774H55v2.388h4.042v1.773H55v2.474h4.747v1.773H53z"/>
    </g>
</svg>
