<?xml version="1.0" encoding="UTF-8"?>
<svg width="150px" height="30px" viewBox="0 0 150 30" version="1.1" xmlns="http://www.w3.org/2000/svg" xmlns:xlink="http://www.w3.org/1999/xlink">
    <!-- Generator: Sketch 45.2 (43514) - http://www.bohemiancoding.com/sketch -->
    <title>Logo</title>
    <desc>Created with Sketch.</desc>
    <defs></defs>
    <g id="Icons" stroke="none" stroke-width="1" fill="none" fill-rule="evenodd">
        <g id="Logo" fill-rule="nonzero">
            <path d="M33.9,18.6 L32.2,18.4 C30.9,18.3 30.3,17.8 30.3,16.8 C30.3,15.7 31.1,15 32.7,15 C33.8,15 34.8,15.3 35.5,15.8 L36.5,14.8 C35.5,14 34.2,13.7 32.7,13.7 C30.4,13.7 28.8,14.9 28.8,16.8 C28.8,18.6 29.9,19.5 32,19.7 L33.8,19.9 C35,20 35.6,20.5 35.6,21.5 C35.6,22.8 34.5,23.4 32.8,23.4 C31.5,23.4 30.3,23.1 29.5,22.2 L28.5,23.2 C29.7,24.3 31.1,24.7 32.9,24.7 C35.5,24.7 37.2,23.5 37.2,21.5 C37,19.5 35.7,18.8 33.9,18.6 L33.9,18.6 Z M47.2,13.8 C45.5,13.8 44.4,14.1 43.5,15.3 L44.5,16.3 C45.1,15.4 45.8,15.1 47.2,15.1 C49.1,15.1 49.9,15.9 49.9,17.4 L49.9,18.4 L46.7,18.4 C44.3,18.4 43,19.6 43,21.5 C43,22.3 43.3,23.1 43.8,23.7 C44.5,24.4 45.3,24.7 46.8,24.7 C48.2,24.7 49,24.4 49.9,23.6 L49.9,24.6 L51.5,24.6 L51.5,17.4 C51.4,15 50,13.8 47.2,13.8 L47.2,13.8 Z M49.9,20.8 C49.9,21.7 49.7,22.3 49.4,22.6 C48.7,23.2 47.9,23.3 47,23.3 C45.3,23.3 44.6,22.7 44.6,21.5 C44.6,20.3 45.4,19.6 47,19.6 L50,19.6 L49.9,20.8 L49.9,20.8 Z M57.5,15.2 C58.5,15.2 59.1,15.5 59.9,16.4 L60.9,15.4 C59.8,14.2 58.9,13.8 57.4,13.8 C54.7,13.8 52.7,15.6 52.7,19.3 C52.7,22.9 54.7,24.8 57.4,24.8 C58.9,24.8 59.8,24.4 60.9,23.2 L59.8,22.2 C59,23.1 58.4,23.4 57.4,23.4 C56.4,23.4 55.5,23 54.9,22.2 C54.4,21.5 54.2,20.7 54.2,19.3 C54.2,18 54.4,17.1 54.9,16.4 C55.6,15.6 56.5,15.2 57.5,15.2 Z M70.9,13.9 L69,13.9 L64.2,18.6 L64.2,9.1 L62.6,9.1 L62.6,24.5 L64.2,24.5 L64.2,20.6 L66.1,18.7 L69.7,24.5 L71.6,24.5 L67.2,17.6 L70.9,13.9 Z M78.2,13.4 C76.6,13.4 75.5,14 74.8,14.8 C73.8,15.8 73.5,17.1 73.5,19.1 C73.5,21.1 73.8,22.4 74.8,23.4 C75.5,24.1 76.6,24.8 78.2,24.8 C79.8,24.8 81,24.2 81.6,23.4 C82.6,22.4 82.9,21.1 82.9,19.1 C82.9,17.1 82.6,15.8 81.6,14.8 C81,14 79.9,13.4 78.2,13.4 Z M79.5,21.7 C79.2,22 78.8,22.2 78.2,22.2 C77.6,22.2 77.2,22 76.9,21.7 C76.3,21.1 76.3,20.1 76.3,19 C76.3,17.8 76.4,16.9 76.9,16.3 C77.2,16 77.6,15.8 78.2,15.8 C78.8,15.8 79.2,16 79.5,16.3 C80.1,16.9 80.1,17.8 80.1,19 C80.2,20.2 80.1,21.2 79.5,21.7 Z M90.3,13.5 L88.1,20.4 L85.8,13.5 L82.9,13.5 L87,24.6 L89.2,24.6 L93.3,13.5 L90.3,13.5 L90.3,13.5 Z M97.9,13.4 C95,13.4 93.1,15.4 93.1,19.1 C93.1,23.6 95.6,24.8 98.2,24.8 C100.2,24.8 101.3,24.2 102.4,23.1 L100.7,21.5 C100,22.2 99.4,22.5 98.2,22.5 C96.6,22.5 95.8,21.5 95.8,20 L102.7,20 L102.7,18.8 C102.7,15.6 101,13.4 97.9,13.4 Z M95.8,18 C95.8,17.5 95.9,17.2 96.1,16.8 C96.4,16.1 97,15.6 98,15.6 C98.9,15.6 99.6,16.1 99.9,16.8 C100.1,17.2 100.1,17.5 100.2,18 L95.8,18 Z M106.8,14.6 L106.8,13.5 L104.1,13.5 L104.1,24.6 L106.9,24.6 L106.9,17.9 C106.9,16.5 107.8,15.9 108.7,15.9 C109.4,15.9 109.7,16.1 110.2,16.6 L112.3,14.5 C111.5,13.7 110.8,13.5 109.7,13.5 C108.4,13.4 107.4,13.9 106.8,14.6 L106.8,14.6 Z M113.1,12.3 L113.1,24.6 L115.9,24.6 L115.9,15.8 L117.9,15.8 L117.9,13.7 L115.9,13.7 L115.9,12.5 C115.9,11.9 116.2,11.5 116.9,11.5 L118,11.5 L118,9.2 L116.4,9.2 C114.1,9.2 113.1,10.8 113.1,12.3 L113.1,12.3 Z M129.3,13.4 C127.7,13.4 126.6,14 125.9,14.8 C124.9,15.8 124.6,17.1 124.6,19.1 C124.6,21.1 124.9,22.4 125.9,23.4 C126.6,24.1 127.7,24.8 129.3,24.8 C130.9,24.8 132.1,24.2 132.7,23.4 C133.7,22.4 134,21.1 134,19.1 C134,17.1 133.7,15.8 132.7,14.8 C132.1,14 130.9,13.4 129.3,13.4 Z M130.6,21.7 C130.3,22 129.9,22.2 129.3,22.2 C128.7,22.2 128.3,22 128,21.7 C127.4,21.1 127.4,20.1 127.4,19 C127.4,17.8 127.5,16.9 128,16.3 C128.3,16 128.7,15.8 129.3,15.8 C129.9,15.8 130.3,16 130.6,16.3 C131.2,16.9 131.2,17.8 131.2,19 C131.2,20.2 131.2,21.2 130.6,21.7 Z M147.1,13.5 L145.3,20.4 L143,13.5 L141,13.5 L138.7,20.4 L136.9,13.5 L134,13.5 L137.4,24.6 L139.7,24.6 L142,17.6 L144.3,24.6 L146.6,24.6 L150,13.5 L147.1,13.5 L147.1,13.5 Z M122,21.2 L122,9.1 L119.2,9.1 L119.2,21.4 C119.2,23 120.2,24.6 122.4,24.6 L124,24.6 L124,22.3 L123,22.3 C122.3,22.3 122,21.9 122,21.2 Z M41.3,15.6 L42.7,14.2 L39.7,14.2 L39.7,10.7 L38.1,10.7 L38.1,21.8 C38.1,23.4 39,24.7 40.8,24.7 L41.9,24.7 L41.9,23.4 L41.1,23.4 C40.1,23.4 39.6,22.8 39.6,21.8 L39.6,15.7 L41.3,15.7 L41.3,15.6 L41.3,15.6 Z" id="Shape" fill="#222426"></path>
            <polygon id="Shape" fill="#BCBBBB" points="21 27 21 19 24 19 24 30 0 30 0 19 3 19 3 27"></polygon>
            <path d="M5.40209961,19.1010742 L18.9631348,21.0610352 L19.1269531,18.6804199 L5.87133789,16.1340332 L5.40209961,19.1010742 Z M7.2,12.3 L19.2,17.9 L20.3,15.5 L8.3,9.9 L7.2,12.3 L7.2,12.3 Z M10.6,6.4 L20.8,14.9 L22.5,12.9 L12.3,4.4 L10.6,6.4 L10.6,6.4 Z M17.1,0.2 L15,1.8 L22.9,12.4 L25,10.8 L17.1,0.2 L17.1,0.2 Z M5,25 L19,25 L19,22 L5,22 L5,25 Z" id="Shape" fill="#F48024"></path>
        </g>
    </g>
</svg>