<?xml version="1.0" encoding="UTF-8"?>
<svg width="88px" height="22px" viewBox="0 0 88 22" version="1.1" xmlns="http://www.w3.org/2000/svg" xmlns:xlink="http://www.w3.org/1999/xlink">
    <!-- Generator: Sketch 46.1 (44463) - http://www.bohemiancoding.com/sketch -->
    <title>LogoWordmarkSm</title>
    <desc>Created with Sketch.</desc>
    <defs></defs>
    <g id="Icons" stroke="none" stroke-width="1" fill="none" fill-rule="evenodd">
        <g id="LogoWordmarkSm" fill-rule="nonzero" fill="#000000">
            <path d="M9.25767015,11.5166404 L10.297972,10.4763385 L8.16744976,10.4763385 L8.16744976,7.9471336 L7.04195361,7.9471336 L7.04195361,15.9334307 C7.04195361,17.0749008 7.69888128,17.9967294 9.01140547,17.9967294 L9.80877058,17.9967294 L9.80877058,17.0276446 L9.21507302,17.0276446 C8.49558081,17.0276446 8.16744976,16.6056667 8.16744976,15.9021484 L8.16744976,11.5166404 L9.25767015,11.5166404 Z M67.9766524,15.5840011 L67.9766524,6.86157227 L65.977915,6.86157227 L65.977915,15.7071334 C65.977915,16.8452756 66.6694528,17.9987261 68.3147671,17.9987261 L69.4522437,17.9987261 L69.4522437,16.3068212 L68.6834986,16.3068212 C68.1763265,16.3068212 67.9766524,16.0612221 67.9766524,15.5840011 L67.9766524,15.5840011 Z M86.003856,9.98713697 L84.7119643,14.9383883 L83.06665,9.98713697 L81.6057019,9.98713697 L79.9756955,14.9383883 L78.6844699,9.98713697 L76.5626001,9.98713697 L79.0225846,17.9987261 L80.6678989,17.9987261 L82.3438299,12.9702676 L84.0197609,17.9987261 L85.6650752,17.9987261 L88.1097518,9.98713697 L86.003856,9.98713697 Z M74.0999535,15.9380897 C73.8689972,16.1683805 73.5614991,16.2915128 73.1614854,16.2915128 C72.7621373,16.2915128 72.4699476,16.1683805 72.2389912,15.9380897 C71.8236692,15.5227677 71.7777441,14.8152559 71.7777441,13.9852774 C71.7777441,13.1546333 71.8236692,12.4630954 72.2389912,12.0477734 C72.4699476,11.8174826 72.7621373,11.6943503 73.1614854,11.6943503 C73.5614991,11.6943503 73.8689972,11.8174826 74.0999535,12.0477734 C74.51461,12.4630954 74.5612006,13.1546333 74.5612006,13.9852774 C74.5612006,14.8152559 74.51461,15.5227677 74.0999535,15.9380897 L74.0999535,15.9380897 Z M73.1614854,9.8952869 C71.9774182,9.8952869 71.1780564,10.356534 70.6861926,10.8790145 C69.9633725,11.6324513 69.7790067,12.5396372 69.7790067,13.9852774 C69.7790067,15.446226 69.9633725,16.3534118 70.6861926,17.1068486 C71.1780564,17.6293291 71.9774182,18.0905762 73.1614854,18.0905762 C74.3455526,18.0905762 75.1602228,17.6293291 75.6527522,17.1068486 C76.3755723,16.3534118 76.5599378,15.446226 76.5599378,13.9852774 C76.5599378,12.5396372 76.3755723,11.6324513 75.6527522,10.8790145 C75.1602228,10.356534 74.3455526,9.8952869 73.1614854,9.8952869 L73.1614854,9.8952869 Z M61.0448485,9.15249938 L61.0448485,17.9900736 L63.0442515,17.9900736 L63.0442515,11.6737173 L64.5205084,11.6737173 L64.5205084,10.1515353 L63.0442515,10.1515353 L63.0442515,9.27563172 C63.0442515,8.81371905 63.2745423,8.5528116 63.7510977,8.5528116 L64.5205084,8.5528116 L64.5205084,6.86157227 L63.3823663,6.86157227 C61.7523603,6.86157227 61.0448485,8.0143572 61.0448485,9.15249938 L61.0448485,9.15249938 Z M56.9313118,10.7558822 L56.9313118,9.98713697 L54.9784994,9.98713697 L54.9784994,17.9987261 L56.9772368,17.9987261 L56.9772368,13.1706072 C56.9772368,12.1555974 57.6541319,11.6943503 58.269128,11.6943503 C58.7609918,11.6943503 59.015909,11.8574174 59.3240727,12.1649155 L60.8369365,10.6487238 C60.2831738,10.094961 59.729411,9.8952869 58.9453575,9.8952869 C58.0847623,9.8952869 57.3153516,10.2946351 56.9313118,10.7558822 L56.9313118,10.7558822 Z M48.9703068,13.2471489 C48.9849496,12.8930602 49.0315402,12.6780778 49.1546725,12.3858881 C49.3696549,11.9093327 49.8155937,11.5559096 50.4924888,11.5559096 C51.1687183,11.5559096 51.614657,11.9093327 51.830305,12.3858881 C51.9527718,12.6780778 51.9993624,12.8930602 52.0146707,13.2471489 L48.9703068,13.2471489 Z M50.4924888,9.8952869 C48.4165441,9.8952869 47.0015205,11.3715439 47.0015205,13.9852774 C47.0015205,17.229981 48.8158922,18.0905762 50.7074712,18.0905762 C52.1531114,18.0905762 52.9371649,17.6446374 53.7518351,16.8299672 L52.5371512,15.6459 C52.0299791,16.1530722 51.5993487,16.3993368 50.7227795,16.3993368 C49.6006113,16.3993368 48.9703068,15.6459 48.9703068,14.6155819 L53.9827914,14.6155819 L53.9827914,13.7237044 C53.9827914,11.5252929 52.7215169,9.8952869 50.4924888,9.8952869 L50.4924888,9.8952869 Z M44.9848125,9.98713697 L43.3707804,14.9383883 L41.7407745,9.98713697 L39.6342131,9.98713697 L42.5867269,17.9987261 L44.1548339,17.9987261 L47.0913739,9.98713697 L44.9848125,9.98713697 Z M37.202183,15.9380897 C36.9712266,16.1683805 36.6637286,16.2915128 36.2643804,16.2915128 C35.8643667,16.2915128 35.572177,16.1683805 35.3418863,15.9380897 C34.9265642,15.5227677 34.8799736,14.8152559 34.8799736,13.9852774 C34.8799736,13.1546333 34.9265642,12.4630954 35.3418863,12.0477734 C35.572177,11.8174826 35.8643667,11.6943503 36.2643804,11.6943503 C36.6637286,11.6943503 36.9712266,11.8174826 37.202183,12.0477734 C37.617505,12.4630954 37.6634301,13.1546333 37.6634301,13.9852774 C37.6634301,14.8152559 37.617505,15.5227677 37.202183,15.9380897 L37.202183,15.9380897 Z M36.2643804,9.8952869 C35.0803132,9.8952869 34.2809514,10.356534 33.788422,10.8790145 C33.0662675,11.6324513 32.8812362,12.5396372 32.8812362,13.9852774 C32.8812362,15.446226 33.0662675,16.3534118 33.788422,17.1068486 C34.2809514,17.6293291 35.0803132,18.0905762 36.2643804,18.0905762 C37.4477821,18.0905762 38.2631178,17.6293291 38.7549816,17.1068486 C39.4778017,16.3534118 39.6621675,15.446226 39.6621675,13.9852774 C39.6621675,12.5396372 39.4778017,11.6324513 38.7549816,10.8790145 C38.2631178,10.356534 37.4477821,9.8952869 36.2643804,9.8952869 L36.2643804,9.8952869 Z M30.9770112,10.2953007 L29.5739681,10.2953007 L26.0869933,13.6904254 L26.092318,6.86822807 L24.9674874,6.86822807 L24.9674874,17.9967294 L26.092318,17.9967294 L26.0869933,15.1899776 L27.4520984,13.8202135 L30.0312217,17.9967294 L31.4222844,17.9967294 L28.2314928,13.0408191 L30.9770112,10.2953007 Z M21.3387441,11.2138014 C22.072879,11.2138014 22.5268047,11.4321117 23.1045284,12.0730654 C23.1045284,12.0730654 23.8579652,11.3409272 23.851975,11.3342714 C23.0625968,10.4903157 22.3930231,10.2134343 21.3387441,10.2134343 C19.4005745,10.2134343 17.9309733,11.5259585 17.9309733,14.1516724 C17.9309733,16.7773864 19.4005745,18.0905762 21.3387441,18.0905762 C22.4016757,18.0905762 23.0732461,17.8090357 23.8706112,16.9497717 L23.1045284,16.2149711 C22.5268047,16.8559249 22.072879,17.0902091 21.3387441,17.0902091 C20.5879696,17.0902091 19.9629897,16.7933603 19.5569858,16.2149711 C19.1969069,15.7151204 19.0564695,15.1207572 19.0564695,14.1516724 C19.0564695,13.1832532 19.1969069,12.5888901 19.5569858,12.0890393 C19.9629897,11.5099846 20.5879696,11.2138014 21.3387441,11.2138014 L21.3387441,11.2138014 Z M15.8057757,15.2771686 C15.8057757,15.9181223 15.6806466,16.3560741 15.4150801,16.6056667 C14.9305377,17.0749008 14.3521485,17.1214914 13.6952208,17.1214914 C12.4765435,17.1214914 11.9294365,16.6995135 11.9294365,15.8083016 C11.9294365,14.9177553 12.4918518,14.4491868 13.6486302,14.4491868 L15.8057757,14.4491868 L15.8057757,15.2771686 Z M13.8516322,10.2134343 C12.618312,10.2134343 11.8409143,10.4563711 11.1600258,11.318963 C11.1507077,11.3302779 11.8981542,12.0577571 11.8981542,12.0577571 C12.3514144,11.4168033 12.8512651,11.1825191 13.8363238,11.1825191 C15.2426948,11.1825191 15.8057757,11.7449344 15.8057757,12.8704305 L15.8057757,13.6045655 L13.4922189,13.6045655 C11.7730252,13.6045655 10.8352226,14.4804691 10.8352226,15.8242755 C10.8352226,16.433947 11.0382246,17.0123362 11.4136118,17.3877235 C11.8981542,17.8875742 12.5231341,18.0905762 13.5860657,18.0905762 C14.617715,18.0905762 15.1801303,17.8875742 15.8057757,17.2625944 L15.8057757,17.9967294 L16.9306063,17.9967294 L16.9306063,12.7765837 C16.9306063,11.1039806 15.9149309,10.2134343 13.8516322,10.2134343 L13.8516322,10.2134343 Z M4.22800782,13.66713 L2.99335651,13.5579749 C2.02427171,13.480102 1.64955005,13.0894064 1.64955005,12.4324787 C1.64955005,11.6510876 2.24324761,11.1665452 3.36874375,11.1665452 C4.16610886,11.1665452 4.86896157,11.3542388 5.4160685,11.7762166 L6.15086907,11.0414161 C5.4633247,10.4790008 4.47826598,10.2134343 3.3840521,10.2134343 C1.74339686,10.2134343 0.555336173,11.05739 0.555336173,12.463761 C0.555336173,13.7296946 1.35270127,14.4019306 2.85291909,14.5270597 L4.11885266,14.6362148 C5.01006457,14.7147533 5.40076016,15.089475 5.40076016,15.761711 C5.40076016,16.6682312 4.61936898,17.1214914 3.35276983,17.1214914 C2.39965896,17.1214914 1.57101159,16.8712332 0.961340106,16.230945 L0.2112312,16.9810539 C1.05518692,17.7937274 2.07152791,18.0905762 3.36874375,18.0905762 C5.22837488,18.0905762 6.49497404,17.2313121 6.49497404,15.7464026 C6.49497404,14.3080838 5.57247986,13.7922591 4.22800782,13.66713 L4.22800782,13.66713 Z" id="Shape"></path>
        </g>
    </g>
</svg>