<?xml version="1.0" encoding="UTF-8"?>
<svg width="18px" height="18px" viewBox="0 0 18 18" version="1.1" xmlns="http://www.w3.org/2000/svg" xmlns:xlink="http://www.w3.org/1999/xlink">
    <!-- Generator: Sketch 44.1 (41455) - http://www.bohemiancoding.com/sketch -->
    <title>Mail</title>
    <desc>Created with Sketch.</desc>
    <defs></defs>
    <g id="Icons" stroke="none" stroke-width="1" fill="none" fill-rule="evenodd">
        <g id="Mail" fill-rule="nonzero" fill="#000000">
            <path d="M1,4 L1,14 L1,14 C1,15.1045695 1.8954305,16 3,16 L15,16 L15,16 C16.1045695,16 17,15.1045695 17,14 L17,4 L17,4 C17,2.8954305 16.1045695,2 15,2 L3,2 L3,2 C1.8954305,2 1,2.8954305 1,4 Z M15,14 L3,14 L3,6 L9,10.5 L15,6 L15,14 Z M9,8.5 L3,4 L15,4 L9,8.5 Z" id="Shape"></path>
        </g>
    </g>
</svg>