<?xml version="1.0" encoding="UTF-8"?>
<svg width="18px" height="18px" viewBox="0 0 18 18" version="1.1" xmlns="http://www.w3.org/2000/svg" xmlns:xlink="http://www.w3.org/1999/xlink">
    <!-- Generator: Sketch 44.1 (41455) - http://www.bohemiancoding.com/sketch -->
    <title>ReviewQueue</title>
    <desc>Created with Sketch.</desc>
    <defs></defs>
    <g id="Icons" stroke="none" stroke-width="1" fill="none" fill-rule="evenodd">
        <g id="ReviewQueue" fill-rule="nonzero" fill="#000000">
            <path d="M16,1 L2,1 C0.8,1 0,1.8 0,3 L0,18 L3,15 L16,15 C17,15 17.8,14.2 18,13 L18,3 C18,1.8 17.2,1 16,1 Z M3,12 L3,9.8 L9.3,3.5 C9.5,3.3 9.8,3.3 10,3.5 L11.5,5 C11.7,5.3 11.7,5.6 11.5,5.8 L5.2,12 L3,12 Z M15,12 L7.5,12 L9.5,10 L15,10 L15,12 Z" id="Shape"></path>
        </g>
    </g>
</svg>