<svg xmlns="http://www.w3.org/2000/svg" width="18" height="18" viewBox="0 0 18 18">
  <path fill="#000000" fill-rule="evenodd" d="M0,1.99508929 C0,0.893231902 0.892622799,0 1.99508929,0 L16.0049107,0 C17.1067681,0 18,0.892622799 18,1.99508929 L18,16.0049107 C18,17.1067681 17.1073772,18 16.0049107,18 L1.99508929,18 C0.893231902,18 0,17.1073772 0,16.0049107 L0,1.99508929 Z M15.5,15 C15.5,8.09644063 9.90355937,2.5 3,2.5 L3,5 C8.5228475,5 13,9.4771525 13,15 L15.5,15 L15.5,15 Z M10.5,15 C10.5,10.8578644 7.14213562,7.5 3,7.5 L3,10 C5.76142375,10 8,12.2385763 8,15 L10.5,15 Z M5.5,15 C5.5,13.6192881 4.38071187,12.5 3,12.5 L3,15 L5.5,15 Z"/>
</svg>
