<svg xmlns="http://www.w3.org/2000/svg" width="18" height="18" viewBox="0 0 18 18">
  <path fill="#000000" d="M12.864,11.32 L12.051,11.32 L11.763,11.043 C12.8067753,9.83298084 13.3806851,8.28800275 13.38,6.69 C13.38,2.99521502 10.384785,2.2624033e-16 6.69,0 C2.99521502,-2.2624033e-16 4.52480659e-16,2.99521502 0,6.69 C-4.52480659e-16,10.384785 2.99521502,13.38 6.69,13.38 C8.28834682,13.3809251 9.83372033,12.8070003 11.044,11.763 L11.322,12.051 L11.322,12.864 L16.467,18 L18,16.467 L12.864,11.321 L12.864,11.32 Z M6.69,11.32 C5.46129449,11.3218604 4.28234928,10.8347196 3.4133347,9.96608028 C2.54432011,9.09744091 2.05667026,7.9187062 2.058,6.69 C2.0561384,5.46094747 2.54355345,4.28169821 3.41262583,3.41262583 C4.28169821,2.54355345 5.46094747,2.0561384 6.69,2.058 C7.9187062,2.05667026 9.09744091,2.54432011 9.96608028,3.4133347 C10.8347196,4.28234928 11.3218604,5.46129449 11.32,6.69 C11.3213287,7.91835919 10.8339532,9.09678995 9.96537157,9.96537157 C9.09678995,10.8339532 7.91835919,11.3213287 6.69,11.32 L6.69,11.32 Z"/>
</svg>
