<?xml version="1.0" encoding="UTF-8"?>
<svg width="18px" height="18px" viewBox="0 0 18 18" version="1.1" xmlns="http://www.w3.org/2000/svg" xmlns:xlink="http://www.w3.org/1999/xlink">
    <!-- Generator: Sketch 47.1 (45422) - http://www.bohemiancoding.com/sketch -->
    <title>Stroller</title>
    <desc>Created with Sketch.</desc>
    <defs></defs>
    <g id="Icons" stroke="none" stroke-width="1" fill="none" fill-rule="evenodd">
        <g id="Stroller" fill="#000000">
            <path d="M5.52778699,11 C4.57770714,9.93848702 4,8.53670887 4,7 L8,7 L8,1.34141142 C8.62555785,1.12030844 9.29872915,1 10,1 C12.9729963,1 15.4409635,3.16228666 15.9170416,6 L8,6 L8,7 L16,7 C16,8.77699963 15.2274987,10.3735719 14,11.472213 L14,11 L11,11 L11,12.9170416 C10.6747915,12.9716012 10.3407122,13 10,13 C8.90713857,13 7.8825201,12.7078171 7,12.1973068 L7,11 L5.52778699,11 Z M1,5 L5,5 L6,7 L1,7 L1,5 Z" id="Combined-Shape"></path>
            <path d="M5.5,15 C6.32842712,15 7,14.3284271 7,13.5 C7,12.6715729 6.32842712,12 5.5,12 C4.67157288,12 4,12.6715729 4,13.5 C4,14.3284271 4.67157288,15 5.5,15 Z M5.5,17 C3.56700338,17 2,15.4329966 2,13.5 C2,11.5670034 3.56700338,10 5.5,10 C7.43299662,10 9,11.5670034 9,13.5 C9,15.4329966 7.43299662,17 5.5,17 Z" id="Oval-8" fill-rule="nonzero"></path>
            <path d="M12.5,15 C13.3284271,15 14,14.3284271 14,13.5 C14,12.6715729 13.3284271,12 12.5,12 C11.6715729,12 11,12.6715729 11,13.5 C11,14.3284271 11.6715729,15 12.5,15 Z M12.5,17 C10.5670034,17 9,15.4329966 9,13.5 C9,11.5670034 10.5670034,10 12.5,10 C14.4329966,10 16,11.5670034 16,13.5 C16,15.4329966 14.4329966,17 12.5,17 Z" id="Oval-8" fill-rule="nonzero"></path>
        </g>
    </g>
</svg>