<svg xmlns="http://www.w3.org/2000/svg" width="17" height="14" viewBox="0 0 17 14">
  <path fill="#2AA3EF" fill-rule="evenodd" d="M16,2.038 C15.41,2.298 14.78,2.475 14.115,2.555 C14.792,2.148 15.313,1.505 15.558,0.739 C14.924,1.109 14.221,1.379 13.473,1.529 C12.875,0.889 12.023,0.489 11.077,0.489 C9.265,0.489 7.795,1.959 7.795,3.769 C7.795,4.029 7.825,4.279 7.88,4.519 C5.152,4.389 2.733,3.079 1.114,1.099 C0.83,1.58 0.67,2.14 0.67,2.75 C0.67,3.89 1.25,4.893 2.13,5.482 C1.592,5.465 1.085,5.317 0.643,5.072 L0.643,5.112 C0.643,6.702 1.773,8.03 3.276,8.332 C3,8.406 2.71,8.446 2.411,8.446 C2.201,8.446 2.001,8.426 1.801,8.388 C2.221,9.692 3.431,10.641 4.871,10.668 C3.751,11.548 2.331,12.072 0.801,12.072 C0.541,12.072 0.281,12.057 0.021,12.027 C1.481,12.957 3.201,13.501 5.061,13.501 C11.101,13.501 14.401,8.501 14.401,4.171 C14.401,4.031 14.401,3.891 14.391,3.751 C15.031,3.291 15.591,2.711 16.031,2.051 L16,2.038 Z"/>
</svg>
