<?xml version="1.0" encoding="UTF-8"?>
<svg width="18px" height="18px" viewBox="0 0 18 18" version="1.1" xmlns="http://www.w3.org/2000/svg" xmlns:xlink="http://www.w3.org/1999/xlink">
    <!-- Generator: Sketch 47.1 (45422) - http://www.bohemiancoding.com/sketch -->
    <title>VK</title>
    <desc>Created with Sketch.</desc>
    <defs></defs>
    <g id="Icons" stroke="none" stroke-width="1" fill="none" fill-rule="evenodd">
        <g id="VK" fill-rule="nonzero" fill="#507299">
            <path d="M8.44162481,13.925591 L9.47538757,13.925591 C9.47538757,13.925591 9.78688324,13.8898092 9.94586833,13.7093777 C10.0969401,13.5411272 10.0969401,13.2297495 10.0969401,13.2297495 C10.0969401,13.2297495 10.0746391,11.7626963 10.7220896,11.5472443 C11.3601882,11.3333149 12.1695014,12.9632894 13.0320494,13.5898513 C13.6910103,14.0687182 14.1866696,13.9659407 14.1866696,13.9659407 L16.4966294,13.9324428 C16.4966294,13.9324428 17.7066426,13.8525048 17.134728,12.8468083 C17.0908452,12.7668703 16.8102833,12.1045266 15.4290554,10.7455801 C13.9816436,9.32877368 14.1758788,9.55716805 15.9153627,7.10116726 C16.9721459,5.60518415 17.404499,4.69084535 17.2642181,4.30257493 C17.1447994,3.93714394 16.3577873,4.02774037 16.3577873,4.02774037 L13.7665462,4.05134112 C13.7665462,4.05134112 13.572311,4.02774037 13.43203,4.11985943 C13.2917491,4.21045586 13.2061417,4.41753343 13.2061417,4.41753343 C13.2061417,4.41753343 12.7946509,5.58158339 12.2450373,6.5644405 C11.0774681,8.64206794 10.6134618,8.75626513 10.4300175,8.61922851 C9.99550621,8.32155451 10.1070116,7.41635149 10.1070116,6.76771149 C10.1070116,4.75707972 10.397645,3.38583334 9.54516836,3.16885869 C9.26460644,3.09957906 9.05526408,3.0546615 8.33299699,3.04248047 C7.40498449,3.03182206 6.62228867,3.05009361 6.17842533,3.2792493 C5.88707257,3.43379615 5.66046486,3.77562639 5.79067437,3.79313663 C5.96332786,3.81597607 6.35107882,3.90428856 6.55610484,4.20196255 C6.82587591,4.58718772 6.81436568,5.97442171 6.81436568,5.97442171 C6.81436568,5.97442171 6.96615687,8.34667789 6.45898725,8.64130663 C6.10288943,8.84077104 5.62809233,8.42813855 4.5921714,6.54312369 C4.06342009,5.58386734 3.66343951,4.5104138 3.66343951,4.5104138 C3.66343951,4.5104138 3.58790361,4.31551727 3.44834204,4.20132009 C3.28504062,4.07570319 3.04764207,4.03002431 3.04764207,4.03002431 L0.576539015,4.05286375 C0.576539015,4.05286375 0.209650352,4.06504478 0.0808796249,4.23557925 C-0.038539038,4.38403559 0.0693693923,4.7037877 0.0693693923,4.7037877 C0.0693693923,4.7037877 2.00164969,9.49017237 4.19291021,11.9004943 C6.20000702,14.1098291 8.47759429,13.9674633 8.47759429,13.9674633 L8.44162481,13.925591 Z" id="Shape"></path>
        </g>
    </g>
</svg>