<svg aria-hidden="true" class="svg-icon iconAchievementsLg" width="36" height="36" viewBox="0 0 36 36"><path d="M29 4H7v2H3a1 1 0 00-1 1v6a5 5 0 005 5 8 8 0 008 8h1v3h-3c-1.66 0-4 1.34-4 3v1h18v-1c0-1.66-2.34-3-4-3h-3v-3h1a8 8 0 008-8 5 5 0 005-5V7a1 1 0 00-1-1h-4V4zm3 9a3 3 0 01-3 3V8h3v5zM7 16a3 3 0 01-3-3V8h3v8zm11.38-8.33l1.33 4.08c.05.17.2.28.38.28h4.29c.38 0 .55.5.23.72l-3.47 2.52a.4.4 0 00-.14.45l1.32 4.08a.4.4 0 01-.61.45l-3.47-2.52a.4.4 0 00-.48 0l-3.47 2.52a.4.4 0 01-.61-.45L15 15.72a.4.4 0 00-.14-.45l-3.47-2.52a.4.4 0 01.23-.72h4.3a.4.4 0 00.37-.28l1.33-4.08a.4.4 0 01.76 0z"/></svg>