<svg aria-hidden="true" class="svg-icon iconAnswerRu" width="18" height="18" viewBox="0 0 18 18"><path d="M9.78 5.9c-.3-.44-.73-.66-1.3-.66-.55 0-.97.22-1.28.65-.3.43-.45 1.06-.45 1.9v.4c0 .81.15 1.45.45 1.9.3.45.73.68 1.3.68.56 0 .98-.22 1.28-.65.3-.44.45-1.08.45-1.91v-.4c0-.84-.15-1.48-.45-1.91ZM3 15h11l3 3V4c0-1.09-.91-2-2-2H3a2 2 0 0 0-2 2v9c0 1.09.91 2 2 2Zm8.5-4.74a3.15 3.15 0 0 1-3 1.87 3.2 3.2 0 0 1-3-1.85 4.73 4.73 0 0 1-.43-2.05v-.4c0-.8.14-1.49.42-2.09a3.19 3.19 0 0 1 3-1.87 3.24 3.24 0 0 1 2.99 1.87c.29.6.43 1.3.43 2.08v.36c0 .8-.14 1.49-.42 2.08Z"/></svg>