<svg aria-hidden="true" class="svg-icon iconAsterisk" width="18" height="18" viewBox="0 0 18 18"><path d="M2.32 11.83 6.95 9 2.32 6.17c-.3-.15-.41-.5-.24-.77l.5-.8a.65.65 0 0 1 .85-.2l4.55 2.98-.1-5.8c0-.32.28-.58.62-.58h1c.34 0 .62.26.61.57l-.09 5.8 4.55-2.97c.3-.16.68-.07.85.2l.5.8c.17.27.06.62-.24.77L11.05 9l4.63 2.83c.3.15.41.5.24.77l-.5.8a.65.65 0 0 1-.85.2l-4.55-2.98.1 5.8c0 .32-.28.58-.62.58h-1c-.34 0-.62-.26-.61-.57l.09-5.8-4.55 2.97a.65.65 0 0 1-.85-.2l-.5-.8c-.17-.27-.06-.62.24-.77Z"/></svg>