<svg aria-hidden="true" class="svg-icon iconAsteriskSm" width="14" height="14" viewBox="0 0 14 14"><path d="M1.52 9.03 4.95 7 1.52 4.97c-.3-.15-.41-.5-.24-.77l.5-.8a.65.65 0 0 1 .85-.2l3.35 2.18-.1-3.8c0-.32.28-.58.62-.58h1c.34 0 .62.26.61.57l-.09 3.8 3.35-2.17c.3-.16.68-.07.85.2l.5.8c.17.27.06.62-.24.77L9.05 7l3.43 2.03c.3.15.41.5.24.77l-.5.8a.65.65 0 0 1-.85.2L8.02 8.62l.1 3.8c0 .32-.28.58-.62.58h-1c-.34 0-.62-.26-.61-.57l.09-3.8-3.35 2.17a.65.65 0 0 1-.85-.2l-.5-.8c-.17-.27-.06-.62.24-.77Z"/></svg>