<svg aria-hidden="true" class="svg-icon iconCheckmarkVerifiedSm" width="14" height="14" viewBox="0 0 14 14"><path d="M7.82.84a1.16 1.16 0 0 0-1.64 0l-.9.88c-.2.21-.5.33-.8.34H3.22c-.64 0-1.15.52-1.16 1.16v1.26c0 .3-.13.6-.34.8l-.88.9a1.16 1.16 0 0 0 0 1.64l.88.9c.21.2.33.5.34.8v1.26c0 .64.52 1.15 1.16 1.15l1.26.01c.3 0 .6.12.8.34l.9.88c.45.45 1.18.45 1.64 0l.9-.88c.2-.22.5-.34.8-.34h1.26a1.16 1.16 0 0 0 1.15-1.16l.01-1.26c0-.3.12-.6.34-.8l.88-.9c.45-.46.45-1.19 0-1.64l-.88-.9c-.22-.2-.34-.5-.34-.8V3.22a1.17 1.17 0 0 0-1.16-1.16H9.52c-.3 0-.6-.13-.8-.34l-.9-.88Zm-1.9 9.44L3.28 7.65l1.27-1.27L5.9 7.74l3.81-3.81L11 5.2l-5.1 5.08Z"/></svg>