<svg aria-hidden="true" class="svg-icon iconCheckmarkVerified" width="18" height="18" viewBox="0 0 18 18"><path d="M9.85.9a1.13 1.13 0 0 0-1.7 0l-.51.58c-.3.35-.79.48-1.23.33l-.72-.25a1.13 1.13 0 0 0-1.48.85l-.15.76c-.09.45-.44.8-.9.9l-.75.14c-.67.13-1.07.83-.85 1.48l.25.72c.15.44.02.92-.33 1.23l-.58.5a1.13 1.13 0 0 0 0 1.71l.58.5c.35.3.48.8.33 1.23l-.25.72c-.22.65.18 1.35.85 1.48l.76.15c.45.1.8.44.9.9l.14.75c.13.67.83 1.08 1.48.85l.72-.24c.44-.15.92-.02 1.23.32l.5.58c.45.52 1.26.52 1.71 0l.5-.58c.3-.34.8-.47 1.23-.32l.72.24c.65.23 1.35-.18 1.48-.85l.15-.75c.1-.46.44-.8.9-.9l.75-.15c.67-.13 1.08-.83.85-1.48l-.24-.72c-.15-.44-.02-.92.32-1.22l.58-.5c.52-.46.52-1.27 0-1.72l-.58-.5c-.34-.3-.47-.79-.32-1.23l.24-.72a1.13 1.13 0 0 0-.85-1.48l-.75-.15c-.46-.09-.8-.44-.9-.9l-.15-.75a1.13 1.13 0 0 0-1.48-.85l-.72.25c-.44.15-.92.02-1.22-.33L9.86.9ZM12.6 5 14 6.41l-7 7-3-3L5.41 9 7 10.59 12.59 5Z"/></svg>