<svg aria-hidden="true" class="svg-icon iconDocumentAlt" width="18" height="18" viewBox="0 0 18 18"><path d="M5 3a2 2 0 00-2 2v10c0 1.1.9 2 2 2h7a2 2 0 002-2V5a2 2 0 00-2-2H5zm2 3a1 1 0 11-2 0 1 1 0 012 0zm-2 4.5c0-.28.22-.5.5-.5h6a.5.5 0 010 1h-6a.5.5 0 01-.5-.5zm.5 1.5h6a.5.5 0 010 1h-6a.5.5 0 010-1zM5 14.5c0-.28.22-.5.5-.5h6a.5.5 0 010 1h-6a.5.5 0 01-.5-.5z"/><path opacity=".4" d="M5.9 2h6.35A2.75 2.75 0 0115 4.75v9.35c.62-.6 1-1.43 1-2.35v-7.5C16 2.45 14.54 1 12.75 1h-4.5c-.92 0-1.75.38-2.35 1z"/></svg>