<svg aria-hidden="true" class="svg-icon iconFlagUnitedKingdom" width="18" height="18" viewBox="0 0 18 18"><rect x="1" y="3" width="16" height="12" rx="2" fill="#3F51B5"/><path d="M7 5.28 4.08 3H3a2 2 0 0 0-.89.2L7 7H5.39L1.34 3.88l.02-.02a2 2 0 0 0-.3.65L4.31 7H1v1h7V3H7v2.28ZM1 11v-1h7v5H7v-3.14L2.9 15a2 2 0 0 1-.8-.21L7 11H5.38l-4.03 3.11A2 2 0 0 1 1 13v-.33L3.14 11H1Zm9 4h1v-2.3l2.95 2.3H15a2 2 0 0 0 .9-.22L11 11h1.64l4.02 3.1c.13-.18.23-.4.28-.62L13.71 11H17v-1h-7v5Zm1-12v3.15L15.11 3c.29.02.55.1.8.22L11 7h1.64l4.02-3.1A2 2 0 0 1 17 5v.33L14.86 7H17v1h-7V3h1Z" fill="#FEFEFE"/><path d="M10 3H8v5H1v2h7v5h2v-5h7V8h-7V3Zm-7.89.2a2 2 0 0 0-.75.66l-.02.02L5.4 7H7v-.02L2.11 3.21Zm-.77 10.91a2 2 0 0 0 .76.68L7 11H5.38l-4.03 3.11Zm15.32-.01a2 2 0 0 1-.76.68L11 11h1.64l4.02 3.1ZM12.64 7l4.02-3.1a2 2 0 0 0-.76-.68L11 7h1.64Z" fill="#E53935"/></svg>