<svg aria-hidden="true" class="svg-icon iconHelp" width="18" height="18" viewBox="0 0 18 18"><path d="M9 1C4.64 1 1 4.64 1 9c0 4.36 3.64 8 8 8 4.36 0 8-3.64 8-8 0-4.36-3.64-8-8-8Zm.81 12.13c-.02.71-.55 1.15-1.24 1.13-.66-.02-1.17-.49-1.15-1.2.02-.72.56-1.18 1.22-1.16.7.03 1.2.51 1.17 1.23ZM11.77 8c-.59.66-1.78 1.09-2.05 1.97a4 4 0 0 0-.09.75c0 .05-.03.16-.18.16H7.88c-.16 0-.18-.1-.18-.15.06-1.35.66-2.2 1.83-2.88.39-.29.7-.75.7-1.24.01-1.24-1.64-1.82-2.35-.72-.21.33-.18.73-.18 1.1H5.75c0-1.97 1.03-3.26 3.03-3.26 1.75 0 3.47.87 3.47 2.83 0 .57-.2 1.05-.48 1.44Z"/></svg>