<svg aria-hidden="true" class="svg-icon iconInstagram" width="18" height="18" viewBox="0 0 18 18"><path d="M9 1c-2.17 0-2.44.01-3.3.05a5.9 5.9 0 0 0-1.94.37 3.94 3.94 0 0 0-2.34 2.34c-.2.51-.33 1.09-.37 1.94C1 6.56 1 6.83 1 9s.01 2.44.05 3.3c.04.85.17 1.43.37 1.94a3.94 3.94 0 0 0 2.34 2.34c.51.2 1.1.33 1.94.37.86.04 1.13.05 3.3.05s2.44-.01 3.3-.05a5.92 5.92 0 0 0 1.94-.37 3.94 3.94 0 0 0 2.34-2.34c.2-.51.33-1.1.37-1.94.04-.86.05-1.13.05-3.3s-.01-2.44-.05-3.3a5.92 5.92 0 0 0-.37-1.94c-.2-.53-.48-.97-.92-1.42a3.9 3.9 0 0 0-1.42-.92 5.9 5.9 0 0 0-1.94-.37C11.44 1 11.17 1 9 1Zm0 1.42c2.14 0 2.39.03 3.23.07.78.03 1.2.16 1.49.27.37.15.64.32.92.6.28.28.45.55.6.92.1.28.24.7.27 1.49.04.84.05 1.1.05 3.23 0 2.14-.01 2.39-.05 3.23a4.5 4.5 0 0 1-.28 1.49c-.15.37-.32.64-.6.92a2.5 2.5 0 0 1-.92.6c-.28.1-.71.24-1.5.27-.84.04-1.09.05-3.23.05-2.14 0-2.4-.01-3.24-.05a4.53 4.53 0 0 1-1.49-.28 2.48 2.48 0 0 1-.92-.6 2.43 2.43 0 0 1-.6-.92 4.54 4.54 0 0 1-.28-1.5c-.03-.83-.04-1.09-.04-3.22s.01-2.4.04-3.24c.04-.78.17-1.21.28-1.49.14-.38.32-.64.6-.92.28-.28.54-.46.92-.6.28-.11.7-.24 1.48-.28.85-.03 1.13-.04 3.27-.04Zm0 2.47a4.1 4.1 0 1 0 0 8.22 4.1 4.1 0 0 0 0-8.22Zm0 6.78a2.67 2.67 0 1 1 0-5.34 2.67 2.67 0 0 1 0 5.34Zm5.23-6.94a.96.96 0 1 1-1.92 0 .96.96 0 0 1 1.92 0Z" fill="url(#Instagrama)"/><defs><linearGradient id="Instagrama" x1="1.5" y1="1" x2="17" y2="17" gradientUnits="userSpaceOnUse"><stop stop-color="#EC0D2B"/><stop offset="1" stop-color="#BF179F"/></linearGradient></defs></svg>