<svg aria-hidden="true" class="svg-icon iconInternational" width="18" height="18" viewBox="0 0 18 18"><path d="M5.8 11a19.81 19.81 0 0 1 0-4H3.34a5.99 5.99 0 0 0 0 4H5.8Zm.13 1H3.8a6.02 6.02 0 0 0 2.9 2.54c-.35-.7-.6-1.56-.77-2.54Zm6.27-1h2.46a6 6 0 0 0 0-4H12.2a19.8 19.8 0 0 1 0 4Zm-.13 1a9.25 9.25 0 0 1-.76 2.54A6.02 6.02 0 0 0 14.2 12h-2.13ZM7.1 11h3.78a17.18 17.18 0 0 0 0-4H7.1a17.18 17.18 0 0 0 0 4Zm.16 1c.34 1.8.99 3 1.73 3s1.39-1.2 1.73-3H7.27ZM5.93 6c.17-.98.42-1.85.76-2.54A6.02 6.02 0 0 0 3.8 6h2.13Zm6.14 0h2.13a6.02 6.02 0 0 0-2.9-2.54c.35.7.6 1.56.77 2.54Zm-4.8 0h3.46C10.4 4.2 9.74 3 9 3S7.61 4.2 7.27 6ZM9 17A8 8 0 1 1 9 1a8 8 0 0 1 0 16Z"/></svg>