<svg aria-hidden="true" class="svg-icon iconInternationalSm" width="14" height="14" viewBox="0 0 14 14"><path d="M13 7A6 6 0 1 1 1 7a6 6 0 0 1 12 0Zm-5.99 4.6c.14-.16.3-.46.46-.91.16-.46.3-1.04.4-1.69H6.13c.09.65.23 1.23.39 1.69.16.45.32.75.46.91H7ZM7.97 8a15.04 15.04 0 0 0 0-2H6.03a15.04 15.04 0 0 0 0 2h1.94Zm.9 1c-.12.96-.34 1.8-.61 2.43A4.61 4.61 0 0 0 11.14 9H8.87Zm2.62-1a4.61 4.61 0 0 0 0-2H8.97a16.08 16.08 0 0 1 0 2h2.52ZM5.03 8a16.08 16.08 0 0 1 0-2H2.51a4.62 4.62 0 0 0 0 2h2.52ZM2.86 9a4.61 4.61 0 0 0 2.88 2.43A9.29 9.29 0 0 1 5.13 9H2.86Zm3.67-5.69A9.8 9.8 0 0 0 6.13 5h1.73a9.04 9.04 0 0 0-.39-1.69 3.07 3.07 0 0 0-.46-.91H7c-.14.16-.3.46-.46.91ZM8.87 5h2.27a4.61 4.61 0 0 0-2.88-2.43c.27.64.49 1.47.61 2.43ZM2.86 5h2.27c.12-.96.34-1.8.61-2.43A4.61 4.61 0 0 0 2.86 5Z"/></svg>