<svg aria-hidden="true" class="svg-icon iconInternationalSm" width="14" height="14" viewBox="0 0 14 14"><path d="M13 7A6 6 0 111 7a6 6 0 0112 0zm-5.99 4.6c.14-.16.3-.46.46-.91.16-.46.3-1.04.4-1.69H6.13c.09.65.23 1.23.39 1.69.16.45.32.75.46.91H7zM7.97 8a15.04 15.04 0 000-2H6.03a15.04 15.04 0 000 2h1.94zm.9 1c-.12.96-.34 1.8-.61 2.43A4.61 4.61 0 0011.14 9H8.87zm2.62-1a4.61 4.61 0 000-2H8.97a16.08 16.08 0 010 2h2.52zM5.03 8a16.08 16.08 0 010-2H2.51a4.62 4.62 0 000 2h2.52zM2.86 9a4.61 4.61 0 002.88 2.43A9.29 9.29 0 015.13 9H2.86zm3.67-5.69A9.8 9.8 0 006.13 5h1.73a9.04 9.04 0 00-.39-1.69 3.07 3.07 0 00-.46-.91H7c-.14.16-.3.46-.46.91zM8.87 5h2.27a4.61 4.61 0 00-2.88-2.43c.27.64.49 1.47.61 2.43zM2.86 5h2.27c.12-.96.34-1.8.61-2.43A4.61 4.61 0 002.86 5z"/></svg>