<svg aria-hidden="true" class="svg-icon iconLogoEnterpriseAltMd" width="196" height="37" viewBox="0 0 196 37"><path d="M26 33v-9h4v13H0V24h4v9h22Z" fill="#BCBBBB"/><path d="m23.1 25.99.68-2.95-16.1-3.35L7 23l16.1 2.99ZM9.1 15.2l15 7 1.4-3-15-7-1.4 3Zm4.2-7.4L26 18.4l2.1-2.5L15.4 5.3l-2.1 2.5ZM21.5 0l-2.7 2 9.9 13.3 2.7-2L21.5 0ZM7 30h16v-3H7v3Z" fill="#F48024"/><path fill="#D6D9DC" d="M47 13h1v17h-1z"/><path d="M74.93 12.96H64.54c-.31 0-.52.2-.52.51v16.06c0 .3.2.51.52.51h10.39c.3 0 .51-.2.51-.5v-2.21c0-.31-.2-.52-.51-.52H67.5v-3.8h6.23c.31 0 .52-.2.52-.5v-2.16c0-.31-.2-.52-.52-.52H67.5V16.2h7.43c.3 0 .51-.2.51-.51v-2.2a.54.54 0 0 0-.51-.52Zm15.91 0H88.4c-.3 0-.52.2-.52.51v9.6l-6.54-9.86a.53.53 0 0 0-.42-.25h-2.28c-.31 0-.52.2-.52.51v16.06c0 .3.2.51.52.51h2.5c.3 0 .51-.2.51-.5v-9.6l6.54 9.85c.1.15.26.25.42.25h2.28c.32 0 .52-.2.52-.5V13.46c-.05-.26-.26-.51-.57-.51Zm13.86 0H93.28c-.31 0-.52.2-.52.51v2.2c0 .31.21.52.52.52h3.95v13.34c0 .3.2.51.52.51h2.44c.3 0 .52-.2.52-.5V16.18h3.94c.31 0 .52-.2.52-.51v-2.2c.05-.27-.15-.52-.47-.52Zm13.16 0h-10.38c-.31 0-.52.2-.52.51v16.06c0 .3.2.51.52.51h10.38c.31 0 .52-.2.52-.5v-2.21c0-.31-.2-.52-.52-.52h-7.42v-3.8h6.23c.31 0 .52-.2.52-.5v-2.16a.5.5 0 0 0-.52-.52h-6.23V16.2h7.42c.31 0 .52-.2.52-.51v-2.2c0-.27-.2-.52-.52-.52Zm11.5 9.74a4.67 4.67 0 0 0 3.01-4.57 4.87 4.87 0 0 0-2.65-4.52 5.92 5.92 0 0 0-2.9-.65h-6.34c-.3 0-.52.2-.52.51v16.06c0 .3.21.51.52.51h2.5c.3 0 .52-.2.52-.5v-6.27h2.23l3.27 6.47c.1.15.26.3.47.3h2.85c.16 0 .37-.1.47-.25.1-.16.1-.36 0-.51l-3.43-6.57Zm-5.87-6.56h3.12c.73 0 1.25.15 1.66.56.42.36.57.82.57 1.5 0 .6-.2 1.07-.57 1.43a2.4 2.4 0 0 1-1.66.56h-3.11v-4.05Zm22.38-1.64a5.66 5.66 0 0 0-1.87-1.13 6.98 6.98 0 0 0-2.33-.41h-6.18c-.31 0-.52.2-.52.51v16.06c0 .3.2.51.52.51h2.5c.3 0 .51-.2.51-.5v-5.8h3.17c1.09 0 2.13-.26 3-.73a4.92 4.92 0 0 0 2.03-1.95c.47-.82.73-1.74.73-2.77 0-.77-.16-1.48-.41-2.15a6.7 6.7 0 0 0-1.15-1.64Zm-7.37 1.69h3.06c.73 0 1.3.2 1.77.56.41.36.62.93.62 1.6 0 .66-.2 1.18-.62 1.59-.42.4-.99.56-1.77.56h-3.06v-4.3Zm19.88 6.51a4.67 4.67 0 0 0 3.01-4.57 4.87 4.87 0 0 0-2.65-4.52 5.92 5.92 0 0 0-2.9-.65h-6.34c-.31 0-.52.2-.52.51v16.06c0 .3.2.51.52.51h2.49c.31 0 .52-.2.52-.5v-6.27h2.23l3.27 6.47c.1.15.26.3.47.3h2.86c.15 0 .36-.1.46-.25.1-.16.1-.36 0-.51l-3.42-6.57Zm-5.87-6.56h3.12c.72 0 1.24.15 1.66.56.41.36.57.82.57 1.5 0 .6-.21 1.07-.57 1.43a2.4 2.4 0 0 1-1.66.56h-3.12v-4.05Zm14.36-3.18h-2.5c-.3 0-.51.2-.51.51v16.06c0 .3.2.51.52.51h2.5c.3 0 .51-.2.51-.5V13.46a.5.5 0 0 0-.52-.51Zm13.56 8.31a3.94 3.94 0 0 0-1.35-.82 8.07 8.07 0 0 0-1.92-.46l-1.87-.26a3.19 3.19 0 0 1-1.56-.61c-.3-.26-.41-.62-.41-1.13 0-.41.1-.72.26-1.03.2-.3.47-.51.78-.67.36-.15.83-.25 1.35-.25.46 0 .88.05 1.24.1.37.05.68.2 1.04.36.31.15.63.36.94.67.2.2.52.2.72 0l1.61-1.54c.1-.1.16-.26.16-.36a.46.46 0 0 0-.16-.36 7.4 7.4 0 0 0-2.38-1.5 8.84 8.84 0 0 0-3.02-.45c-1.2 0-2.23.2-3.11.61a4.84 4.84 0 0 0-2.8 4.57c0 1.44.46 2.62 1.34 3.44a6 6 0 0 0 3.38 1.43l1.92.26c.41.05.78.16.99.2.2.06.36.16.52.37.3.25.46.71.46 1.28 0 .61-.2 1.08-.67 1.38a3.8 3.8 0 0 1-2.18.57 6 6 0 0 1-2.7-.62 4.9 4.9 0 0 1-1.1-.82.48.48 0 0 0-.36-.15.47.47 0 0 0-.36.15l-1.66 1.6c-.1.1-.16.2-.16.35 0 .16.05.26.16.36a7.38 7.38 0 0 0 2.7 1.75c.99.35 2.13.5 3.43.5.88 0 1.76-.1 2.49-.35.78-.2 1.45-.56 2.02-1.03a4.8 4.8 0 0 0 1.82-3.85c-.05-1.64-.57-2.87-1.56-3.69Zm14.53-5.08c.3 0 .52-.2.52-.51v-2.2c0-.32-.21-.52-.52-.52h-10.39c-.31 0-.52.2-.52.51v16.06c0 .3.21.51.52.51h10.39c.3 0 .52-.2.52-.5v-2.21a.5.5 0 0 0-.52-.52h-7.43v-3.8h6.23c.31 0 .52-.2.52-.5v-2.16c0-.31-.2-.52-.52-.52h-6.23V16.2h7.43Z" fill="var(--black-800)"/></svg>