<svg aria-hidden="true" class="svg-icon iconLogoJobsAltMd" width="120" height="37" viewBox="0 0 120 37"><path d="M26 33v-9h4v13H0V24h4v9h22Z" fill="#BCBBBB"/><path d="m23.1 25.99.68-2.95-16.1-3.35L7 23l16.1 2.99ZM9.1 15.2l15 7 1.4-3-15-7-1.4 3Zm4.2-7.4L26 18.4l2.1-2.5L15.4 5.3l-2.1 2.5ZM21.5 0l-2.7 2 9.9 13.3 2.7-2L21.5 0ZM7 30h16v-3H7v3Z" fill="#F48024"/><path fill="#D6D9DC" d="M47 13h1v17h-1z"/><path d="M74.6 13.01h-3.24a.3.3 0 0 0-.2.09.29.29 0 0 0-.1.2v10.9c0 1.66-.8 2.53-2.31 2.53a2.4 2.4 0 0 1-1.93-.84.3.3 0 0 0-.4 0L64.27 28a.3.3 0 0 0-.09.2.29.29 0 0 0 .09.2 5.78 5.78 0 0 0 4.49 1.78c2.96 0 6.15-1.83 6.15-5.84V13.31a.29.29 0 0 0-.19-.28.3.3 0 0 0-.12-.02Zm8.87-.13a6.42 6.42 0 0 0-4.7 1.88c-1.73 1.7-1.73 3.84-1.73 6.54v.47c0 2.7 0 4.84 1.72 6.53a6.35 6.35 0 0 0 4.71 1.89 6.38 6.38 0 0 0 4.7-1.9c1.74-1.72 1.74-3.79 1.74-6.64v-.23c0-2.86 0-4.92-1.75-6.65a6.33 6.33 0 0 0-4.69-1.9ZM81.6 17.1a2.48 2.48 0 0 1 1.88-.78 2.42 2.42 0 0 1 1.86.78c.57.62.74 1.3.74 4.44 0 3.13-.17 3.8-.75 4.44a2.38 2.38 0 0 1-1.85.78 2.5 2.5 0 0 1-1.89-.78c-.55-.6-.72-1.3-.72-4.42 0-3.14.18-3.83.73-4.46Zm21.03 4.2a4.17 4.17 0 0 0 1.76-3.38c0-3.02-2.1-4.9-5.44-4.9h-6.68a.3.3 0 0 0-.2.08.29.29 0 0 0-.09.2v16.45c0 .07.03.15.09.2a.3.3 0 0 0 .2.09h6.95c3.31 0 5.37-1.93 5.37-5.03a4.06 4.06 0 0 0-1.97-3.7Zm-3.94-1.63h-2.88v-3.21h2.88c1.17 0 1.86.6 1.86 1.61 0 1.02-.7 1.6-1.86 1.6Zm-2.88 3.46h3.1c1.17 0 1.87.64 1.87 1.72s-.7 1.76-1.87 1.76h-3.1v-3.48Zm21.92-1.93c-.78-.72-1.81-1.14-3.34-1.35l-1.96-.27c-.5-.06-.99-.25-1.38-.57a1.32 1.32 0 0 1-.4-.97c0-1.1.86-1.79 2.27-1.79 1.03 0 2.22.13 3.2 1.05a.29.29 0 0 0 .32.06.28.28 0 0 0 .1-.06l2.03-2.02a.29.29 0 0 0 .06-.32.28.28 0 0 0-.06-.1c-1.42-1.37-3.13-1.98-5.55-1.98-3.63 0-6.08 2.12-6.08 5.27 0 1.47.4 2.6 1.28 3.45a6.02 6.02 0 0 0 3.39 1.44l2 .27c.48.02.94.2 1.31.5a1.53 1.53 0 0 1 .41 1.18c0 1.44-1.44 1.74-2.64 1.74-1.68 0-2.93-.4-3.81-1.3a.3.3 0 0 0-.42 0l-2.1 2.08a.28.28 0 0 0 0 .4c1.58 1.59 3.46 2.26 6.28 2.26 3.86 0 6.45-2.12 6.45-5.27a4.78 4.78 0 0 0-1.36-3.7Z" fill="var(--black-800)"/></svg>