<svg aria-hidden="true" class="svg-icon iconLogoTalentAlt" width="115" height="30" viewBox="0 0 115 30"><path d="M21 27v-8h3v11H0V19h3v8h18z" fill="#BCBBBB"/><path d="M5.4 19.1l13.56 1.96.17-2.38-13.26-2.55-.47 2.97zm1.8-6.8l12 5.6 1.1-2.4-12-5.6-1.1 2.4zm3.4-5.9l10.2 8.5 1.7-2-10.2-8.5-1.7 2zM17.1.2L15 1.8l7.9 10.6 2.1-1.6L17.1.2zM5 25h14v-3H5v3z" fill="#F48024"/><path fill="#D6D9DC" d="M38 11h1v13h-1z"/><path d="M60.54 13.09v-1.66c0-.27-.2-.47-.48-.47h-8.58c-.28 0-.48.2-.48.47v1.66c0 .27.2.47.48.47h2.87v9.93c0 .27.2.47.48.47h1.84c.28 0 .48-.2.48-.47v-9.93h2.87c.32 0 .52-.2.52-.47zm5.99-1.78a.46.46 0 00-.44-.31H64.6c-.2 0-.36.12-.44.31L59.7 23.37c-.04.16-.04.31.04.43s.24.2.4.2h1.96c.2 0 .4-.12.43-.32l.72-2.08h4.15l.72 2.08c.08.2.24.32.44.32h1.96a.5.5 0 00.4-.2.42.42 0 00.04-.43l-4.43-12.06zm-2.4 7.76l1.24-3.42 1.2 3.42h-2.44zm16.44 2.33h-5.42v-9.93c0-.28-.2-.47-.48-.47h-1.84c-.28 0-.48.2-.48.47v12.06c0 .27.2.47.48.47h7.74c.28 0 .48-.2.48-.47v-1.66c0-.23-.2-.47-.48-.47zM90.34 11h-7.82c-.28 0-.48.2-.48.47v12.06c0 .27.2.47.48.47h7.82c.28 0 .48-.2.48-.47v-1.66c0-.27-.2-.47-.48-.47h-5.47v-2.68h4.6c.27 0 .47-.2.47-.47v-1.62c0-.27-.2-.47-.48-.47h-4.58v-2.6h5.46c.28 0 .48-.2.48-.47v-1.66c0-.24-.2-.43-.48-.43zm12.25 0h-1.83c-.28 0-.48.2-.48.47v6.9l-4.8-7.18a.5.5 0 00-.4-.2h-1.7c-.29 0-.49.2-.49.48v12.06c0 .27.2.47.48.47h1.84c.28 0 .48-.2.48-.47v-6.9l4.79 7.17c.08.12.24.2.4.2h1.71c.28 0 .48-.2.48-.47V11.47c0-.28-.2-.47-.48-.47zm11.71 0h-8.58c-.28 0-.48.2-.48.47v1.66c0 .27.2.47.48.47h2.87v9.93c0 .27.2.47.48.47h1.84c.28 0 .48-.2.48-.47V13.6h2.87c.28 0 .48-.2.48-.47v-1.66c.04-.28-.16-.47-.44-.47z" fill="var(--black-800)"/></svg>