<svg aria-hidden="true" class="svg-icon iconLogoEnterpriseAlt" width="156" height="30" viewBox="0 0 156 30"><path d="M21 27v-8h3v11H0V19h3v8h18Z" fill="#BCBBBB"/><path d="m5.4 19.1 13.56 1.96.17-2.38-13.26-2.55-.47 2.97Zm1.8-6.8 12 5.6 1.1-2.4-12-5.6-1.1 2.4Zm3.4-5.9 10.2 8.5 1.7-2-10.2-8.5-1.7 2ZM17.1.2 15 1.8l7.9 10.6 2.1-1.6L17.1.2ZM5 25h14v-3H5v3Z" fill="#F48024"/><path fill="#D6D9DC" d="M38 11h1v13h-1z"/><path d="M59.55 10.98h-8.17c-.24 0-.4.16-.4.4v12.26c0 .23.16.4.4.4h8.17c.25 0 .41-.17.41-.4v-1.69c0-.23-.16-.39-.4-.39H53.7v-2.9h4.9c.25 0 .41-.15.41-.39v-1.65c0-.23-.16-.39-.4-.39h-4.9v-2.78h5.83c.25 0 .41-.16.41-.4v-1.68c0-.2-.2-.39-.4-.39Zm12.45 0h-1.9c-.25 0-.4.16-.4.4v7.32l-5.16-7.52c-.08-.12-.2-.2-.32-.2h-1.8c-.24 0-.4.16-.4.4v12.26c0 .23.16.4.4.4h1.96c.25 0 .41-.17.41-.4V16.3l5.15 7.52c.08.12.2.2.32.2h1.8c.24 0 .4-.16.4-.4V11.38a.45.45 0 0 0-.44-.39Zm11.49 0H74.5c-.24 0-.4.16-.4.4v1.68c0 .23.16.39.4.39h3.1v10.19c0 .23.17.4.42.4h1.92c.24 0 .4-.17.4-.4V13.45h3.1c.25 0 .42-.16.42-.4v-1.68c.04-.2-.13-.39-.37-.39Zm10.1 0h-8.17c-.24 0-.4.16-.4.4v12.26c0 .23.16.4.4.4h8.17c.25 0 .4-.17.4-.4v-1.69c0-.23-.15-.39-.4-.39h-5.84v-2.9h4.9c.25 0 .4-.15.4-.39v-1.65c0-.23-.15-.39-.4-.39h-4.9v-2.78h5.84c.25 0 .4-.16.4-.4v-1.68a.4.4 0 0 0-.4-.39Zm9.81 7.49a4.07 4.07 0 0 0 1.58-1.14 3.5 3.5 0 0 0 .78-2.35 3.8 3.8 0 0 0-.53-2.04c-.37-.59-.9-1.1-1.55-1.41a4.77 4.77 0 0 0-2.29-.51h-4.98c-.25 0-.41.16-.41.4v12.26c0 .23.16.39.4.39h1.97c.24 0 .4-.16.4-.4V18.9h1.76l2.58 4.93c.08.12.2.24.36.24h2.25a.5.5 0 0 0 .37-.2.34.34 0 0 0 0-.39l-2.7-5.01Zm-4.62-5.02h2.45c.57 0 .98.12 1.3.43.33.28.45.63.45 1.14 0 .47-.16.82-.45 1.1-.32.27-.73.43-1.3.43h-2.45v-3.1Zm17.85-1.29c-.41-.36-.9-.67-1.47-.87a5.64 5.64 0 0 0-1.84-.3h-4.86c-.25 0-.41.15-.41.38v12.27c0 .23.16.4.4.4h1.97c.24 0 .4-.17.4-.4V19.2h2.5c.86 0 1.67-.2 2.37-.55a3.82 3.82 0 0 0 1.59-1.49c.37-.62.57-1.33.57-2.11a4.4 4.4 0 0 0-.33-1.65c-.2-.43-.53-.86-.9-1.25Zm-5.8 1.29h2.4c.58 0 1.03.16 1.4.43.32.28.48.7.48 1.22 0 .5-.16.9-.49 1.21-.32.31-.77.43-1.39.43h-2.4v-3.29Zm15.6 5.02a4.07 4.07 0 0 0 1.59-1.14 3.5 3.5 0 0 0 .78-2.35c0-.75-.17-1.45-.53-2.04-.37-.59-.9-1.1-1.56-1.41a4.78 4.78 0 0 0-2.28-.51h-4.99c-.24 0-.4.16-.4.4v12.26c0 .23.16.39.4.39h1.96c.25 0 .41-.16.41-.4V18.9h1.76l2.57 4.93c.08.12.2.24.37.24h2.25a.5.5 0 0 0 .36-.2.34.34 0 0 0 0-.39l-2.7-5.01Zm-4.62-5.02h2.45c.57 0 .98.12 1.31.43.33.28.45.63.45 1.14 0 .47-.16.82-.45 1.1-.33.27-.73.43-1.3.43h-2.46v-3.1Zm11.64-2.47h-1.96c-.24 0-.4.16-.4.4v12.26c0 .23.16.4.4.4h1.96c.25 0 .41-.17.41-.4V11.37a.4.4 0 0 0-.4-.39Zm10.99 6.39a3.13 3.13 0 0 0-1.06-.63c-.41-.16-.9-.27-1.51-.35l-1.47-.2a2.56 2.56 0 0 1-1.23-.47c-.24-.2-.33-.47-.33-.86 0-.31.09-.55.2-.78.17-.24.38-.4.62-.51.29-.12.65-.2 1.06-.2.37 0 .7.04.98.08.29.04.53.16.82.27.24.12.49.28.73.51.17.16.41.16.58 0l1.26-1.17c.08-.08.13-.2.13-.28 0-.11-.05-.2-.13-.27a5.86 5.86 0 0 0-1.88-1.14 7.14 7.14 0 0 0-2.37-.35c-.94 0-1.75.16-2.45.47-.69.31-1.26.82-1.63 1.41-.37.59-.57 1.3-.57 2.08 0 1.1.37 2 1.06 2.62.65.6 1.51.94 2.66 1.1l1.5.2c.33.04.62.11.78.15a.7.7 0 0 1 .41.28c.25.2.37.55.37.98 0 .47-.16.82-.53 1.06a3.1 3.1 0 0 1-1.72.43 4.92 4.92 0 0 1-2.12-.47 4 4 0 0 1-.86-.63.38.38 0 0 0-.28-.12c-.13 0-.2.04-.3.12l-1.3 1.21a.35.35 0 0 0-.12.28c0 .12.04.2.12.27A5.83 5.83 0 0 0 138 23.8a8.18 8.18 0 0 0 4.65.11 4.3 4.3 0 0 0 1.6-.78 3.68 3.68 0 0 0 1.42-2.94c-.04-1.25-.44-2.2-1.22-2.82Zm11.15-3.92c.25 0 .4-.16.4-.4v-1.68c0-.23-.16-.39-.4-.39h-8.17c-.24 0-.4.16-.4.4v12.26c0 .23.16.4.4.4h8.17c.25 0 .4-.17.4-.4v-1.69c0-.23-.16-.39-.4-.39h-5.84v-2.9h4.9c.25 0 .4-.15.4-.39v-1.65c0-.23-.15-.39-.4-.39h-4.9v-2.78h5.84Z" fill="var(--black-800)"/></svg>