<svg aria-hidden="true" class="svg-icon iconLogoAdvertisingAlt" width="158" height="30" viewBox="0 0 158 30"><path d="M21 27v-8h3v11H0V19h3v8h18Z" fill="#BCBBBB"/><path d="m5.4 19.1 13.56 1.96.17-2.38-13.26-2.55-.47 2.97Zm1.8-6.8 12 5.6 1.1-2.4-12-5.6-1.1 2.4Zm3.4-5.9 10.2 8.5 1.7-2-10.2-8.5-1.7 2ZM17.1.2 15 1.8l7.9 10.6 2.1-1.6L17.1.2ZM5 25h14v-3H5v3Z" fill="#F48024"/><path fill="#D6D9DC" d="M38 11h1v13h-1z"/><path d="M57.9 11.31a.37.37 0 0 0-.35-.27h-1.47a.37.37 0 0 0-.35.27l-4.47 12.14a.38.38 0 0 0 .04.35c.07.12.19.15.3.15h1.99c.15 0 .3-.11.35-.27l.74-2.17h4.23l.74 2.17c.04.16.2.27.35.27h1.98c.12 0 .23-.07.31-.15a.38.38 0 0 0 .04-.35L57.9 11.31Zm.23 7.87H55.5l1.36-3.8 1.28 3.8Zm13.83-5.54c-.2-.5-.5-.93-.9-1.36a4.68 4.68 0 0 0-3.41-1.24h-4.28c-.23 0-.38.15-.38.39v12.14c0 .23.15.38.38.38h4.28c1.44 0 2.6-.42 3.42-1.24.39-.38.7-.85.9-1.4.19-.5.3-1 .38-1.54.04-.5.08-1.09.08-1.75v-1.24a7.27 7.27 0 0 0-.47-3.14Zm-2.17 3.8c0 1-.04 1.82-.12 2.33-.08.46-.2.81-.43 1.08-.43.47-1 .7-1.79.7H65.6v-8.07h1.86c.78 0 1.36.24 1.8.7.15.16.26.39.34.66.08.31.16.62.16.97.04.39.04.93.04 1.63Zm13.14-6.4H81c-.15 0-.3.12-.39.27l-2.44 7.68-2.41-7.68c-.04-.15-.2-.27-.4-.27h-1.9c-.11 0-.23.08-.3.15-.09.08-.09.24-.05.35l4 12.14c.04.16.2.27.4.27h1.43c.16 0 .31-.11.35-.27l4.04-12.14c.04-.11 0-.23-.04-.35-.11-.07-.23-.15-.35-.15Zm10.25 0h-7.77c-.23 0-.39.15-.39.39v12.14c0 .23.16.38.39.38h7.77c.23 0 .39-.15.39-.38V21.9a.37.37 0 0 0-.39-.39h-5.56v-2.87h4.67c.23 0 .39-.15.39-.39v-1.63c0-.23-.16-.38-.4-.38h-4.66v-2.76h5.56c.23 0 .39-.15.39-.39v-1.66a.4.4 0 0 0-.39-.4Zm8.84 7.41a3.56 3.56 0 0 0 2.25-3.45 3.66 3.66 0 0 0-1.98-3.41 4.4 4.4 0 0 0-2.18-.51h-4.74c-.23 0-.39.15-.39.39V23.6c0 .23.16.38.4.38h1.86c.23 0 .39-.15.39-.38v-4.74h1.67l2.44 4.9c.08.1.2.22.35.22h2.14c.12 0 .27-.07.35-.19a.35.35 0 0 0 0-.39l-2.56-4.96Zm-.35-3.46c0 .47-.16.82-.43 1.1-.31.26-.7.42-1.24.42h-2.34v-3.03H100c.54 0 .93.12 1.24.43.27.23.43.62.43 1.08Zm12.16-3.95h-8.54c-.24 0-.4.15-.4.39v1.66c0 .24.16.4.4.4h2.95v10.08c0 .23.15.38.39.38h1.82c.24 0 .4-.15.4-.38V13.48h2.95c.23 0 .38-.15.38-.39v-1.66c.04-.2-.15-.4-.35-.4Zm4.47 0h-1.87c-.23 0-.39.15-.39.39v12.14c0 .23.16.38.39.38h1.86c.24 0 .4-.15.4-.38V11.43a.4.4 0 0 0-.4-.4Zm10.3 6.28a2.96 2.96 0 0 0-1.01-.62 6 6 0 0 0-1.44-.35l-1.4-.2a2.36 2.36 0 0 1-.7-.19c-.2-.07-.39-.19-.46-.27-.24-.2-.31-.46-.31-.85 0-.31.07-.54.19-.78.16-.23.35-.38.58-.5.28-.12.63-.2 1.01-.2.35 0 .66.04.94.08.27.04.5.16.77.28.24.11.47.27.7.5.16.15.4.15.55 0l1.2-1.16c.08-.08.12-.2.12-.28a.36.36 0 0 0-.12-.27 5.42 5.42 0 0 0-1.79-1.12 6.54 6.54 0 0 0-2.25-.35c-.9 0-1.67.15-2.33.46a3.63 3.63 0 0 0-2.1 3.46c0 1.08.35 1.97 1.01 2.6.62.58 1.44.93 2.53 1.08l1.43.2c.31.03.59.11.74.15.16.04.27.12.4.27.22.2.34.54.34.97 0 .47-.16.82-.5 1.05-.4.27-.94.43-1.64.43a4.56 4.56 0 0 1-2.02-.47 3.79 3.79 0 0 1-.81-.62.35.35 0 0 0-.28-.12.36.36 0 0 0-.27.12l-1.24 1.2a.35.35 0 0 0-.12.27c0 .12.04.2.12.27a5.52 5.52 0 0 0 2.02 1.32c.74.27 1.6.4 2.56.4a5.7 5.7 0 0 0 3.39-1.06 3.61 3.61 0 0 0 1.35-2.9 3.72 3.72 0 0 0-1.16-2.8Zm5.24-6.28h-1.86c-.23 0-.39.15-.39.39v12.14c0 .23.16.38.39.38h1.86c.24 0 .4-.15.4-.38V11.43a.4.4 0 0 0-.4-.4Zm11.69 0h-1.82c-.24 0-.4.15-.4.39v7.25l-4.89-7.45c-.07-.11-.2-.2-.3-.2h-1.72c-.23 0-.39.16-.39.4v12.14c0 .23.16.38.4.38h1.86c.23 0 .39-.15.39-.38V16.3l4.9 7.45c.07.12.19.2.3.2h1.71c.24 0 .4-.16.4-.4V11.44c-.05-.2-.24-.4-.44-.4Zm11.6 5.58h-4.43c-.23 0-.39.16-.39.4v1.54c0 .24.16.4.39.4h2.21v.3c0 .7-.19 1.24-.5 1.67-.43.5-.97.74-1.67.74a2.1 2.1 0 0 1-1.52-.59 1.37 1.37 0 0 1-.3-.46c-.09-.16-.13-.35-.2-.62l-.12-.97c0-.35-.04-.85-.04-1.51 0-1.17.04-2.02.16-2.49.07-.42.23-.77.5-1.04.2-.2.4-.35.66-.47.28-.12.55-.15.86-.15.39 0 .74.07 1.05.23.3.15.54.35.74.62.19.27.34.62.42 1 .04.2.2.32.4.32h1.86c.11 0 .23-.04.3-.16.09-.07.12-.2.09-.3a4.58 4.58 0 0 0-.82-2.06 4.57 4.57 0 0 0-4-2.02 4.72 4.72 0 0 0-4.2 2.4c-.16.35-.31.74-.39 1.13-.08.39-.11.81-.15 1.24-.04.43-.04 1-.04 1.79 0 .96.04 1.7.08 2.24.03.55.15 1.05.34 1.56.2.5.51.93.9 1.4a5.34 5.34 0 0 0 2.18 1.27c.38.12.85.16 1.28.16a4.7 4.7 0 0 0 3.61-1.52c.43-.46.74-1 .93-1.59.2-.58.28-1.28.28-2.09v-1.86c-.08-.35-.28-.5-.47-.5Z" fill="var(--black-800)"/></svg>