<svg aria-hidden="true" class="svg-icon iconLogoTalentAltMd" width="146" height="37" viewBox="0 0 146 37"><path d="M26 33v-9h4v13H0V24h4v9h22Z" fill="#BCBBBB"/><path d="m23.1 25.99.68-2.95-16.1-3.35L7 23l16.1 2.99ZM9.1 15.2l15 7 1.4-3-15-7-1.4 3Zm4.2-7.4L26 18.4l2.1-2.5L15.4 5.3l-2.1 2.5ZM21.5 0l-2.7 2 9.9 13.3 2.7-2L21.5 0ZM7 30h16v-3H7v3Z" fill="#F48024"/><path fill="#D6D9DC" d="M47 13h1v17h-1z"/><path d="M77.36 15.89v-2.14a.6.6 0 0 0-.62-.61H65.66a.6.6 0 0 0-.61.6v2.15c0 .36.25.61.61.61h3.71v12.84c0 .35.26.6.62.6h2.37a.6.6 0 0 0 .62-.6V16.5h3.7c.42 0 .68-.25.68-.61Zm7.72-2.3c-.1-.25-.3-.4-.56-.4h-1.9a.6.6 0 0 0-.57.4l-5.77 15.6c-.06.2-.06.4.05.56.1.15.3.25.51.25h2.53c.25 0 .51-.15.56-.4l.93-2.7h5.36l.93 2.7c.1.25.3.4.56.4h2.53c.2 0 .4-.1.51-.25.1-.16.16-.36.05-.57L85.08 13.6ZM82 23.64l1.6-4.43 1.55 4.43H82Zm20.64 3h-7V13.8a.6.6 0 0 0-.62-.61h-2.37a.6.6 0 0 0-.62.61v15.59c0 .36.26.61.62.61h10a.6.6 0 0 0 .6-.61v-2.14c0-.3-.25-.61-.6-.61Zm13.12-13.44h-10.1a.6.6 0 0 0-.62.61V29.4c0 .36.26.61.62.61h10.1a.6.6 0 0 0 .61-.61v-2.14a.6.6 0 0 0-.61-.61h-7.06v-3.47h5.92a.6.6 0 0 0 .62-.6v-2.1a.6.6 0 0 0-.62-.6h-5.92V16.5h7.06a.6.6 0 0 0 .61-.61v-2.14c0-.3-.25-.56-.61-.56Zm14.72 0h-2.37a.6.6 0 0 0-.62.61v8.92l-6.18-9.28a.64.64 0 0 0-.51-.25h-2.22a.6.6 0 0 0-.62.61V29.4c0 .36.26.61.62.61h2.37a.6.6 0 0 0 .62-.61v-8.92l6.18 9.28c.1.15.31.25.52.25h2.21a.6.6 0 0 0 .62-.61V13.8a.6.6 0 0 0-.62-.61Zm14.27 0h-11.07a.6.6 0 0 0-.62.61v2.14c0 .36.25.61.62.61h3.7V29.4c0 .36.26.61.62.61h2.37a.6.6 0 0 0 .62-.61V16.55h3.71a.6.6 0 0 0 .62-.61V13.8c.05-.36-.2-.61-.57-.61Z" fill="var(--black-800)"/></svg>