<svg aria-hidden="true" class="svg-icon iconLogoCollectivesAltMd" width="209" height="42" viewBox="0 0 209 42"><path d="M26 33v-9h4v13H0V24h4v9h22Z" fill="#BCBBBB"/><path d="m23.1 25.99.68-2.95-16.1-3.35L7 23l16.1 2.99ZM9.1 15.2l15 7 1.4-3-15-7-1.4 3Zm4.2-7.4L26 18.4l2.1-2.5L15.4 5.3l-2.1 2.5ZM21.5 0l-2.7 2 9.9 13.3 2.7-2L21.5 0ZM7 30h16v-3H7v3Z" fill="#F48024"/><path fill="#D6D9DC" d="M47 13h1v17h-1z"/><path d="M75.89 24.08h-2.43a.5.5 0 0 0-.5.4c-.1.46-.3.9-.56 1.26a2.62 2.62 0 0 1-2.18 1.1 2.74 2.74 0 0 1-1.97-.75 1.9 1.9 0 0 1-.31-.44c-.03-.06-.06-.12-.1-.16a2.65 2.65 0 0 1-.17-.54l-.08-.27-.15-1.25c0-.19 0-.42-.02-.68-.01-.36-.03-.78-.03-1.28 0-.85 0-1.5.05-1.95a5 5 0 0 1 .15-1.25c.05-.36.15-.6.26-.8.1-.2.2-.4.4-.6.25-.26.5-.46.86-.56.35-.15.7-.2 1.11-.2.71 0 1.32.2 1.77.6.46.4.76.95.97 1.7.05.26.25.4.5.4h2.48c.15 0 .3-.04.4-.2.1-.1.16-.24.1-.4a6.43 6.43 0 0 0-2.07-3.86A6.25 6.25 0 0 0 70.32 13a6.8 6.8 0 0 0-2.47.45 5.05 5.05 0 0 0-3.14 2.66c-.2.4-.4.9-.5 1.4-.1.5-.16 1.06-.21 1.6v2.31a40 40 0 0 0 .1 2.91 6.17 6.17 0 0 0 1.62 3.81 6.93 6.93 0 0 0 2.83 1.66c.51.15 1.12.2 1.67.2.76 0 1.52-.1 2.18-.35a5.46 5.46 0 0 0 3.24-2.66c.35-.65.6-1.4.76-2.26 0-.15 0-.3-.1-.4-.16-.2-.3-.25-.41-.25ZM90 16.61a5.02 5.02 0 0 0-1.16-1.8A6.43 6.43 0 0 0 84.26 13c-1.78 0-3.3.6-4.53 1.8a5 5 0 0 0-.97 1.3 7.05 7.05 0 0 0-.7 3.07c-.06.55-.06 1.35-.06 2.3a40 40 0 0 0 .1 2.91 6.21 6.21 0 0 0 1.63 3.81A6.23 6.23 0 0 0 84.26 30c1.78 0 3.3-.6 4.58-1.86a5.8 5.8 0 0 0 1.17-1.8c.25-.6.35-1.3.4-2 .06-.66.06-1.66.06-2.92 0-1.25 0-2.2-.05-2.9-.06-.66-.2-1.3-.41-1.9Zm-2.94 4.86c0 1 0 1.81-.05 2.41-.05.55-.1 1-.26 1.3a2.56 2.56 0 0 1-2.5 1.6 2.77 2.77 0 0 1-1.98-.74c-.2-.2-.35-.4-.4-.6a2.4 2.4 0 0 1-.2-.76c-.06-.35-.1-.75-.16-1.25 0-.22 0-.47-.02-.75-.01-.36-.03-.76-.03-1.2 0-1.5.05-2.61.15-3.21.1-.56.3-1 .61-1.36.2-.25.51-.45.87-.6.35-.15.76-.2 1.12-.2.4 0 .76.1 1.12.2.35.15.66.35.86.6.3.35.51.75.61 1.3.2.66.26 1.76.26 3.26Zm8.44 5.31h6.57c.28 0 .46.26.46.51v2.2c0 .3-.18.51-.46.51H92.8c-.28 0-.47-.2-.47-.51V13.5c0-.3.19-.51.47-.51h2.23c.28 0 .47.2.47.51v13.27Zm19.32 0h-7.3V13.51c0-.3-.2-.51-.52-.51h-2.48c-.31 0-.52.2-.52.51V29.5c0 .3.2.51.52.51h10.3c.3 0 .51-.2.51-.51v-2.2c0-.25-.25-.5-.51-.5ZM117.78 13h10.3c.26 0 .52.2.52.51v2.14c0 .31-.2.52-.51.52h-7.37v3.67h6.18c.3 0 .52.2.52.51v2.15c0 .3-.21.5-.52.5h-6.18v3.78h7.37c.3 0 .51.2.51.51v2.2c0 .3-.2.51-.51.51h-10.3c-.32 0-.52-.2-.52-.51V13.5c0-.3.2-.51.51-.51Zm23.02 11h-2.21c-.23 0-.41.15-.46.4-.1.45-.28.9-.51 1.25-.23.35-.5.6-.83.8-.32.2-.74.3-1.16.3-.37 0-.69-.05-1.01-.2-.33-.15-.6-.35-.79-.55-.13-.14-.2-.3-.28-.44a3.03 3.03 0 0 1-.25-.7l-.07-.26-.14-1.25-.01-.67a25.7 25.7 0 0 1 .01-3.23 5.57 5.57 0 0 1 .37-2.05c.1-.2.23-.4.37-.55.23-.25.46-.45.79-.55.32-.15.64-.2 1.01-.2.65 0 1.2.2 1.62.6.42.4.7.95.88 1.7.05.25.23.4.46.4h2.26a.4.4 0 0 0 .37-.2c.1-.1.14-.25.1-.4a6.6 6.6 0 0 0-1.9-3.85 5.4 5.4 0 0 0-3.7-1.35 5.6 5.6 0 0 0-5.03 3.1c-.18.45-.37.95-.46 1.45-.1.5-.14 1.05-.18 1.6-.05.55-.05 1.35-.05 2.3 0 1.25.05 2.2.1 2.9.04.7.18 1.35.4 2 .24.65.6 1.2 1.07 1.8a6.44 6.44 0 0 0 2.59 1.65c.46.15 1.01.2 1.52.2.7 0 1.39-.1 1.99-.35a5.3 5.3 0 0 0 2.95-2.65c.33-.65.56-1.4.7-2.25 0-.15 0-.3-.1-.4-.14-.3-.27-.35-.41-.35Zm2.67-11h10.43c.24 0 .47.2.43.51v2.2c0 .3-.2.5-.48.5h-3.6V29.5c0 .3-.19.51-.47.51h-2.23c-.29 0-.47-.2-.47-.51V16.22h-3.6c-.29 0-.48-.2-.48-.51v-2.2c0-.3.19-.51.47-.51Zm16.36 0h-2.4c-.3 0-.5.2-.5.51V29.5c0 .3.2.51.5.51h2.4c.3 0 .5-.2.5-.51v-16c0-.3-.2-.51-.5-.51Zm13.26 0h2.57c.16 0 .31.05.47.2.05.16.1.31.05.46l-5.36 15.98a.5.5 0 0 1-.46.36h-1.9c-.26 0-.47-.15-.52-.36l-5.3-15.98c-.06-.15-.06-.35.05-.46.1-.1.25-.2.4-.2h2.53c.26 0 .47.15.52.36l3.19 10.1 3.24-10.1c.1-.2.31-.36.52-.36Zm14.65 0h-9.28c-.28 0-.46.2-.46.51V29.5c0 .3.19.51.46.51h9.28c.27 0 .46-.2.46-.51v-2.2c0-.3-.19-.5-.46-.5h-6.63V23h5.56c.28 0 .46-.2.46-.51v-2.15c0-.3-.18-.5-.46-.5h-5.56v-3.68h6.63c.27 0 .46-.2.46-.52V13.5c0-.3-.19-.51-.46-.51Zm10.86 7.39c.5.2.97.45 1.33.8a4.83 4.83 0 0 1 1.54 3.65 4.73 4.73 0 0 1-1.8 3.8 5.3 5.3 0 0 1-2 1c-.72.26-1.59.36-2.46.36a9.91 9.91 0 0 1-3.39-.5 7.29 7.29 0 0 1-2.67-1.73.46.46 0 0 1-.15-.35c0-.15.05-.25.15-.35l1.65-1.57c.1-.1.2-.15.35-.15.16 0 .26.05.36.15a5 5 0 0 0 1.08.8c.41.2.82.36 1.23.46.41.1.93.15 1.44.15.92 0 1.64-.2 2.15-.55.47-.3.67-.76.67-1.37 0-.56-.15-1.01-.46-1.26a.87.87 0 0 0-.51-.36l-.1-.02a6.86 6.86 0 0 0-.88-.18l-1.9-.25a5.92 5.92 0 0 1-3.33-1.42 4.46 4.46 0 0 1-1.34-3.39 4.77 4.77 0 0 1 2.77-4.5c.88-.4 1.9-.61 3.08-.61a7.22 7.22 0 0 1 5.34 1.92c.1.1.15.2.15.36 0 .1-.05.25-.15.35l-1.6 1.52a.5.5 0 0 1-.71 0c-.3-.3-.62-.5-.92-.66l-.17-.07c-.29-.12-.56-.24-.86-.28-.36-.05-.77-.1-1.23-.1-.51 0-.98.1-1.33.25-.31.15-.57.35-.77.66a2 2 0 0 0-.26 1c0 .51.1.87.4 1.12a3.15 3.15 0 0 0 1.54.6l1.85.26a8 8 0 0 1 1.9.46Z" fill="var(--black-800)"/><path d="m126.36 37.84 1.08.13c1.16.12 1.98.57 2.1 1.83 0 1.25-1.07 2.01-2.73 2.01a3.89 3.89 0 0 1-2.81-.95l.64-.63c.5.57 1.28.76 2.1.76 1.08 0 1.79-.37 1.79-1.2 0-.62-.39-.94-1.15-1l-1.15-.13c-1.34-.12-2.04-.69-2.04-1.82 0-1.2 1.03-1.95 2.49-1.95a3.8 3.8 0 0 1 2.42.69l-.64.63a3.15 3.15 0 0 0-1.78-.5c-1.02 0-1.53.44-1.53 1.13 0 .63.38.94 1.21 1Zm7.21-1.94c.57-.76 1.28-.95 2.36-.95 1.78 0 2.67.76 2.74 2.27v4.52h-1.02v-.63c-.58.5-1.08.7-1.98.7-.95 0-1.46-.2-1.9-.63a2.19 2.19 0 0 1-.52-1.38c0-1.2.83-1.95 2.36-1.95h2.04v-.64c0-.94-.51-1.44-1.72-1.44-.9 0-1.34.19-1.72.75l-.64-.63Zm3.76 4.58c.19-.18.32-.56.32-1.13l.06-.75h-1.9c-1.03 0-1.54.44-1.54 1.2 0 .75.45 1.13 1.53 1.13.57 0 1.09-.07 1.53-.45Zm6.7-3.89c-.51-.57-.9-.76-1.53-.76a2.18 2.18 0 0 0-1.66.76c-.32.44-.45 1-.45 1.82 0 .88.13 1.39.45 1.82.38.51.95.76 1.6.76.63 0 1.02-.2 1.52-.76l.7.63c-.7.76-1.27 1.02-2.23 1.02-1.72 0-2.99-1.2-2.99-3.47 0-2.33 1.27-3.46 3-3.46.95 0 1.52.25 2.23 1l-.64.64Zm5.8-1.58h1.21l-2.36 2.34 2.8 4.34h-1.2l-2.3-3.65-1.2 1.2v2.45h-1.03V32h1.03v5.96l3.05-2.95Zm3.7.69a2.8 2.8 0 0 1 2.17-.88c1.09 0 1.79.38 2.17.88.64.63.83 1.45.83 2.71s-.19 2.07-.83 2.7c-.38.5-1.15.89-2.16.89a3.03 3.03 0 0 1-2.18-.89c-.64-.63-.82-1.44-.82-2.7 0-1.26.18-2.08.82-2.7Zm2.18 4.66c.37 0 .63-.12.82-.32.38-.31.45-.94.38-1.69 0-.76 0-1.32-.38-1.7-.2-.19-.45-.32-.82-.32a1.14 1.14 0 0 0-.84.32c-.32.38-.38.94-.38 1.7 0 .7 0 1.32.38 1.7.2.18.45.3.84.3Zm6.31-1.13 1.4-4.34h1.92l-2.63 6.99h-1.4l-2.62-7h1.86l1.47 4.35Zm3.18-.82c0-2.33 1.22-3.59 3.07-3.59 1.98 0 3.06 1.39 3.06 3.4v.75h-4.4c0 .95.51 1.58 1.53 1.58a2 2 0 0 0 1.6-.63l1.08 1.01a3.4 3.4 0 0 1-2.67 1.07c-1.67 0-3.26-.75-3.26-3.59Zm1.92-1.45c-.12.26-.2.44-.2.76h2.82a7.93 7.93 0 0 1-.04-.21 1.6 1.6 0 0 0-.16-.55 1.28 1.28 0 0 0-1.2-.75c-.65 0-1.03.31-1.22.75Zm6.82-2.07v.69a2.17 2.17 0 0 1 1.85-.7c.7 0 1.15.13 1.67.64l-1.35 1.32c-.32-.31-.5-.44-.96-.44-.57 0-1.14.37-1.14 1.26v4.22h-1.79v-7h1.72Zm3.59 6.99v-7.75c0-.94.64-1.95 2.1-1.95h1.02v1.45h-.7c-.45 0-.63.25-.63.63v.76h1.27v1.31h-1.27v5.55h-1.8Zm8.6-6.18a2.8 2.8 0 0 1 2.17-.88c1.02 0 1.78.38 2.17.88.64.63.82 1.45.82 2.71s-.18 2.07-.82 2.7c-.38.5-1.15.89-2.18.89a3.03 3.03 0 0 1-2.16-.89c-.64-.63-.83-1.44-.83-2.7 0-1.26.19-2.08.83-2.7Zm2.16 4.66c.39 0 .64-.12.84-.32.38-.31.38-.94.38-1.69 0-.76 0-1.32-.38-1.7-.2-.19-.45-.32-.84-.32-.38 0-.63.13-.82.32-.32.38-.39.94-.39 1.7 0 .7 0 1.32.39 1.7.2.18.44.3.82.3Zm.01-5.54Zm10.2 4.41 1.15-4.34h1.85l-2.17 6.99h-1.47l-1.47-4.41-1.46 4.4h-1.47l-2.17-6.98h1.86l1.15 4.34 1.46-4.34h1.28l1.46 4.34Zm-15.19-7.11v7.61c0 .44.2.7.64.7h.64v1.45h-1.02c-1.4 0-2.04-1.02-2.04-2.02v-7.74h1.78Zm-50.25 3.08-.9.88-1.08.07v3.84c0 .63.32 1 .96 1h.5v.82h-.7c-1.14 0-1.72-.82-1.72-1.82v-7h1.02v2.21h1.92Zm-22 .58c.74.7.89 1.66.89 2.72 0 1.06-.15 2.01-.89 2.72-.5.47-1.2.78-2.09.78-.88 0-1.58-.3-2.08-.78-.74-.7-.89-1.66-.89-2.72 0-1.06.15-2.01.89-2.72.5-.47 1.2-.78 2.08-.78.9 0 1.59.3 2.1.78Zm-.75 4.83c.53-.5.58-1.35.58-2.11 0-.76-.05-1.61-.58-2.11-.34-.32-.82-.5-1.34-.5-.51 0-.97.18-1.31.5-.53.5-.6 1.35-.6 2.11 0 .76.06 1.61.6 2.11.34.32.8.5 1.31.5.52 0 1-.18 1.34-.5Zm8.69-3.07v4.38h-1.07V37.7c0-1.21-.7-1.82-1.79-1.82-1.1 0-1.8.62-1.8 1.82v4.2h-1.07v-6.83h1.07v.75a2.7 2.7 0 0 1 2.04-.83c.79 0 1.42.22 1.87.64.51.47.75 1.11.75 1.9Z" fill="#9FA6AD"/><path opacity=".3" d="M209 11V6h-1l-1.5 2.5L205 6h-1v5h1V8l1 2h1l1-2v3h1Zm-6-4V6h-3v1h1v4h1V7h1Z" fill="#858585"/></svg>