<svg aria-hidden="true" class="svg-icon iconLogoCollectives" width="154" height="30" viewBox="0 0 154 30"><path d="M21 27v-8h3v11H0V19h3v8h18Z" fill="#BCBBBB"/><path d="m5.4 19.1 13.56 1.96.17-2.38-13.26-2.55-.47 2.97Zm1.8-6.8 12 5.6 1.1-2.4-12-5.6-1.1 2.4Zm3.4-5.9 10.2 8.5 1.7-2-10.2-8.5-1.7 2ZM17.1.2 15 1.8l7.9 10.6 2.1-1.6L17.1.2ZM5 25h14v-3H5v3Z" fill="#F48024"/><path fill="#D6D9DC" d="M38 11h1v13h-1z"/><path d="M59.58 19.47h-1.75a.36.36 0 0 0-.36.31c-.08.35-.22.7-.4.96a2 2 0 0 1-.66.61 1.8 1.8 0 0 1-.92.23 1.88 1.88 0 0 1-1.42-.57c-.1-.1-.17-.23-.23-.34a1.83 1.83 0 0 0-.06-.12c-.06-.11-.1-.25-.13-.41l-.06-.2-.1-.96-.02-.52-.02-.98c0-.65 0-1.15.03-1.5 0-.34.04-.65.11-.95a2 2 0 0 1 .19-.62 1.61 1.61 0 0 1 .9-.88c.26-.11.52-.15.81-.15.51 0 .95.15 1.28.46.33.3.55.73.7 1.3.03.2.18.3.36.3h1.79c.11 0 .22-.03.3-.14a.3.3 0 0 0 .07-.31 5 5 0 0 0-1.5-2.95A4.35 4.35 0 0 0 55.57 11a4.7 4.7 0 0 0-1.8.35 3.5 3.5 0 0 0-1.56 1 4.58 4.58 0 0 0-1.06 2.1c-.08.38-.11.8-.15 1.23v1.76c0 .96.04 1.69.07 2.23a4.98 4.98 0 0 0 1.17 2.91 5.05 5.05 0 0 0 2.05 1.27c.36.11.8.15 1.2.15.55 0 1.1-.08 1.57-.27a4.13 4.13 0 0 0 2.34-2.03c.26-.5.44-1.07.55-1.73 0-.11 0-.23-.07-.3-.11-.16-.22-.2-.3-.2Zm10.59-5.71c-.18-.5-.44-.96-.85-1.38a4.5 4.5 0 0 0-3.3-1.38 4.37 4.37 0 0 0-3.97 2.38c-.15.34-.3.73-.37 1.11-.07.38-.1.8-.14 1.23-.04.42-.04 1.03-.04 1.76 0 .96.04 1.69.07 2.22a4.97 4.97 0 0 0 1.18 2.91A4.37 4.37 0 0 0 66.02 24a4.4 4.4 0 0 0 4.15-2.8c.18-.46.26-1 .3-1.53.03-.5.03-1.27.03-2.23s0-1.68-.04-2.22c-.03-.5-.14-1-.3-1.46Zm-2.13 3.72c0 .77 0 1.38-.04 1.84-.03.42-.07.77-.18 1-.08.23-.19.42-.37.61a1.8 1.8 0 0 1-1.43.62 1.9 1.9 0 0 1-1.43-.58c-.15-.15-.26-.3-.3-.46a1.91 1.91 0 0 1-.15-.57l-.1-.96-.02-.58a23.74 23.74 0 0 1 .09-3.37c.07-.43.22-.77.44-1.04.15-.2.37-.34.62-.46.26-.11.55-.15.81-.15.3 0 .55.07.81.15.26.12.48.27.62.46.22.27.37.58.45 1 .14.5.18 1.34.18 2.5Zm6.44 4.06h5.15c.22 0 .37.2.37.4v1.67c0 .23-.15.39-.37.39h-7.26c-.22 0-.37-.16-.37-.39V11.39c0-.23.15-.39.37-.39h1.75c.22 0 .36.16.36.39v10.15Zm14.15 0h-5.15V11.4c0-.23-.14-.39-.36-.39h-1.75c-.22 0-.37.16-.37.39v12.22c0 .23.15.39.37.39h7.26c.22 0 .37-.16.37-.39v-1.68c0-.2-.18-.39-.37-.39ZM91.36 11h7.28c.18 0 .36.16.36.39v1.64c0 .23-.15.39-.36.39h-5.2v2.81h4.36c.22 0 .36.16.36.4v1.63c0 .24-.14.4-.36.4h-4.36v2.88h5.2c.21 0 .36.16.36.4v1.67c0 .23-.15.39-.36.39h-7.28c-.21 0-.36-.16-.36-.39V11.39c0-.23.15-.39.36-.39Zm17.22 8.41h-1.76a.36.36 0 0 0-.36.3c-.08.35-.22.7-.4.96-.2.27-.41.46-.67.62-.25.15-.58.22-.92.22a1.9 1.9 0 0 1-1.43-.57c-.1-.1-.17-.23-.22-.34a2.26 2.26 0 0 1-.2-.53l-.05-.2c-.04-.27-.08-.61-.11-.96 0-.14 0-.31-.02-.51l-.02-.98c0-.65 0-1.14.04-1.49a4.13 4.13 0 0 1 .3-1.57c.06-.15.17-.3.28-.42.19-.19.37-.34.63-.42.25-.11.51-.15.8-.15.52 0 .96.15 1.29.46.33.3.55.73.7 1.3.03.2.18.3.36.3h1.8c.1 0 .22-.03.3-.15.07-.07.1-.19.07-.3a4.98 4.98 0 0 0-1.5-2.95 4.39 4.39 0 0 0-2.94-1.03 4.46 4.46 0 0 0-4 2.37 5.6 5.6 0 0 0-.51 2.33c-.04.42-.04 1.04-.04 1.76 0 .96.04 1.68.07 2.22.04.53.15 1.03.33 1.53.19.5.48.92.85 1.38a5.06 5.06 0 0 0 2.05 1.26c.37.11.8.15 1.21.15.55 0 1.1-.08 1.58-.27a4.1 4.1 0 0 0 2.35-2.03c.25-.5.44-1.06.55-1.71 0-.12 0-.23-.08-.31-.1-.23-.22-.27-.33-.27Zm1.8-8.41h8.28c.19 0 .37.16.34.39v1.68c0 .23-.16.39-.38.39h-2.86V23.6c0 .23-.15.39-.38.39h-1.77c-.22 0-.37-.16-.37-.39V13.46h-2.86c-.23 0-.38-.16-.38-.4V11.4c0-.23.15-.39.38-.39Zm12.25 0h-1.76c-.22 0-.37.16-.37.39v12.22c0 .23.15.39.37.39h1.76c.22 0 .37-.16.37-.39V11.39c0-.23-.15-.39-.37-.39Zm9.58 0h1.9c.1 0 .22.04.34.16.03.11.07.23.03.35l-3.93 12.22a.37.37 0 0 1-.34.27h-1.4c-.2 0-.35-.12-.38-.27l-3.9-12.22c-.04-.12-.04-.28.03-.35.08-.08.2-.16.3-.16h1.86c.2 0 .34.12.38.27l2.35 7.73 2.38-7.73c.08-.15.23-.27.38-.27Zm10.93 0h-7.28c-.22 0-.36.16-.36.39v12.22c0 .23.15.39.36.39h7.28c.22 0 .36-.16.36-.39v-1.68c0-.23-.15-.39-.36-.39h-5.2v-2.89h4.36c.22 0 .36-.15.36-.39v-1.64c0-.23-.14-.39-.36-.39h-4.36v-2.81h5.2c.22 0 .36-.16.36-.39v-1.64c0-.23-.15-.39-.36-.39Zm8.29 5.65c.37.15.7.35.96.62a3.8 3.8 0 0 1 1.11 2.78 3.6 3.6 0 0 1-1.3 2.9 5.22 5.22 0 0 1-3.22 1.04 6.8 6.8 0 0 1-2.44-.38c-.7-.27-1.34-.7-1.93-1.31a.36.36 0 0 1-.11-.27c0-.12.04-.2.11-.27l1.19-1.2a.33.33 0 0 1 .26-.12c.1 0 .18.04.25.12.26.27.52.46.78.62a4.28 4.28 0 0 0 1.93.46 2.6 2.6 0 0 0 1.55-.43c.34-.23.49-.58.49-1.04 0-.43-.12-.77-.34-.97a.63.63 0 0 0-.37-.27l-.07-.02c-.16-.04-.38-.1-.63-.13l-1.37-.2a4.16 4.16 0 0 1-2.41-1.08 3.52 3.52 0 0 1-.96-2.6 4 4 0 0 1 .52-2.04c.33-.58.85-1.09 1.48-1.4.63-.3 1.37-.46 2.22-.46a6 6 0 0 1 2.15.35c.59.23 1.18.62 1.7 1.12.08.08.11.15.11.27 0 .08-.03.2-.1.27l-1.16 1.16a.35.35 0 0 1-.52 0 2.52 2.52 0 0 0-.78-.55 2.1 2.1 0 0 0-.62-.22 5.88 5.88 0 0 0-.9-.08c-.36 0-.7.08-.95.2-.23.11-.41.27-.56.5a1.7 1.7 0 0 0-.19.77c0 .39.08.66.3.85.07.08.26.2.45.27.22.12.44.16.66.2l1.34.2c.55.07 1 .18 1.37.34Z" fill="var(--black-800)"/></svg>