<svg aria-hidden="true" class="svg-icon iconLogoJobsAlt" width="96" height="30" viewBox="0 0 96 30"><path d="M21 27v-8h3v11H0V19h3v8h18Z" fill="#BCBBBB"/><path d="m5.4 19.1 13.56 1.96.17-2.38-13.26-2.55-.47 2.97Zm1.8-6.8 12 5.6 1.1-2.4-12-5.6-1.1 2.4Zm3.4-5.9 10.2 8.5 1.7-2-10.2-8.5-1.7 2ZM17.1.2 15 1.8l7.9 10.6 2.1-1.6L17.1.2ZM5 25h14v-3H5v3Z" fill="#F48024"/><path fill="#D6D9DC" d="M38 11h1v13h-1z"/><path d="M59.57 11H57.1a.23.23 0 0 0-.16.07.22.22 0 0 0-.07.15v8.32c0 1.27-.62 1.93-1.77 1.93a1.84 1.84 0 0 1-1.47-.64.22.22 0 0 0-.31 0l-1.64 1.62a.23.23 0 0 0-.07.16.22.22 0 0 0 .07.15 4.41 4.41 0 0 0 3.43 1.36c2.26 0 4.7-1.4 4.7-4.46v-8.44a.22.22 0 0 0-.15-.2.22.22 0 0 0-.09-.02Zm7.43-.1a4.9 4.9 0 0 0-3.6 1.44c-1.32 1.3-1.32 2.93-1.32 5v.35c0 2.06 0 3.7 1.32 5a4.85 4.85 0 0 0 3.6 1.43 4.87 4.87 0 0 0 3.58-1.44c1.33-1.32 1.33-2.9 1.33-5.08v-.17c0-2.19 0-3.77-1.33-5.08A4.83 4.83 0 0 0 67 10.9Zm-1.44 3.22a1.9 1.9 0 0 1 1.44-.6 1.85 1.85 0 0 1 1.41.6c.44.48.57 1 .57 3.4 0 2.39-.13 2.9-.57 3.4a1.82 1.82 0 0 1-1.42.59 1.9 1.9 0 0 1-1.44-.6c-.42-.46-.55-.99-.55-3.38 0-2.4.14-2.93.56-3.4Zm16.58 3.22a3.2 3.2 0 0 0 1.35-2.59c0-2.3-1.6-3.75-4.16-3.75h-5.1a.22.22 0 0 0-.2.14.22.22 0 0 0-.02.08V23.8c0 .06.03.11.07.15.04.05.1.07.16.07h5.3c2.53 0 4.1-1.47 4.1-3.84a3.1 3.1 0 0 0-1.5-2.83Zm-3-1.25h-2.2v-2.46h2.2c.89 0 1.41.46 1.41 1.24 0 .77-.52 1.22-1.41 1.22Zm-2.2 2.64h2.36c.9 0 1.43.5 1.43 1.32 0 .82-.53 1.34-1.43 1.34h-2.36v-2.66Zm17.4-1.47a4.42 4.42 0 0 0-2.54-1.03l-1.5-.21a2 2 0 0 1-1.06-.44 1.01 1.01 0 0 1-.3-.74c0-.84.66-1.36 1.73-1.36.8 0 1.7.1 2.45.8a.22.22 0 0 0 .31 0L95 12.73c.04-.04.07-.1.07-.15a.21.21 0 0 0-.07-.16c-1.09-1.05-2.4-1.52-4.24-1.52-2.78 0-4.64 1.62-4.64 4.03 0 1.12.3 1.98.98 2.63.6.57 1.44.93 2.58 1.1l1.53.21c.37.02.72.15 1 .38a1.18 1.18 0 0 1 .32.9c0 1.1-1.1 1.34-2.03 1.34-1.28 0-2.23-.31-2.9-1a.22.22 0 0 0-.32 0l-1.6 1.59a.22.22 0 0 0 0 .3c1.2 1.22 2.63 1.73 4.79 1.73 2.94 0 4.93-1.62 4.93-4.03a3.65 3.65 0 0 0-1.05-2.82Z" fill="var(--black-800)"/></svg>