<svg aria-hidden="true" class="svg-icon iconLogoAdvertisingAltMd" width="202" height="37" viewBox="0 0 202 37"><path d="M26 33v-9h4v13H0V24h4v9h22Z" fill="#BCBBBB"/><path d="m23.1 25.99.68-2.95-16.1-3.35L7 23l16.1 2.99ZM9.1 15.2l15 7 1.4-3-15-7-1.4 3Zm4.2-7.4L26 18.4l2.1-2.5L15.4 5.3l-2.1 2.5ZM21.5 0l-2.7 2 9.9 13.3 2.7-2L21.5 0ZM7 30h16v-3H7v3Z" fill="#F48024"/><path fill="#D6D9DC" d="M47 13h1v17h-1z"/><path d="M73.27 13.35a.5.5 0 0 0-.46-.36h-1.95a.5.5 0 0 0-.46.36l-5.88 16a.5.5 0 0 0 .05.45c.1.15.25.2.4.2h2.62a.5.5 0 0 0 .46-.35l.97-2.86h5.58l.97 2.86c.05.2.26.36.46.36h2.61c.16 0 .31-.1.41-.2.1-.16.1-.32.06-.47l-5.84-16Zm.3 10.37H70.1l1.79-5 1.69 5Zm19.27-7.31a5.7 5.7 0 0 0-1.17-1.79 6.16 6.16 0 0 0-4.5-1.63h-5.64c-.3 0-.51.2-.51.51v16c0 .3.2.5.51.5h5.63c1.9 0 3.43-.56 4.5-1.63.52-.51.93-1.12 1.18-1.84a9.2 9.2 0 0 0 .52-2.04c.05-.67.1-1.43.1-2.3v-1.64c0-.82-.05-1.58-.1-2.2a9.08 9.08 0 0 0-.52-1.94Zm-2.86 5.01c0 1.33-.05 2.4-.16 3.07-.1.61-.25 1.07-.56 1.43-.56.61-1.33.92-2.35.92h-2.46V16.2h2.46c1.02 0 1.79.3 2.35.92.2.2.36.5.46.87.1.4.2.81.2 1.27.06.52.06 1.23.06 2.15Zm17.59-8.43H105c-.2 0-.41.15-.51.36l-3.23 10.11-3.17-10.11c-.05-.2-.26-.36-.51-.36h-2.51c-.16 0-.31.1-.41.2-.1.1-.1.31-.05.46l5.27 16c.05.2.25.36.51.36h1.9c.2 0 .4-.16.46-.36l5.32-16c.05-.15 0-.3-.05-.46-.15-.1-.3-.2-.46-.2Zm12.19 0h-10.24c-.3 0-.51.2-.51.51v16c0 .3.2.5.51.5h10.24c.3 0 .51-.2.51-.5v-2.2c0-.3-.2-.51-.51-.51h-7.32V23h6.14c.3 0 .51-.2.51-.5v-2.15c0-.3-.2-.51-.5-.51h-6.15V16.2h7.32c.3 0 .51-.2.51-.51v-2.2a.5.5 0 0 0-.51-.51Zm11.51 9.76a4.68 4.68 0 0 0 2.97-4.55 4.82 4.82 0 0 0-2.61-4.5 5.8 5.8 0 0 0-2.87-.66h-6.24c-.31 0-.52.2-.52.51v16c0 .3.2.5.52.5h2.45c.31 0 .52-.2.52-.5V23.3h2.2l3.22 6.44c.1.15.26.3.46.3h2.82c.15 0 .36-.1.46-.25.1-.15.1-.36 0-.51l-3.38-6.54Zm-.46-4.55c0 .61-.2 1.07-.56 1.43-.41.36-.93.56-1.64.56h-3.07v-3.98h3.07c.71 0 1.23.15 1.64.56.35.3.56.82.56 1.43Zm15.83-5.21h-11.26c-.31 0-.52.2-.52.51v2.2c0 .3.2.5.51.5h3.9v13.3c0 .3.2.5.5.5h2.41c.31 0 .52-.2.52-.5V16.2h3.89c.3 0 .5-.2.5-.5v-2.2c.06-.26-.2-.51-.45-.51Zm5.33 0h-2.46c-.3 0-.51.2-.51.51v16c0 .3.2.5.51.5h2.46c.3 0 .51-.2.51-.5v-16a.5.5 0 0 0-.51-.51Zm12.77 8.28a3.89 3.89 0 0 0-1.33-.82 7.89 7.89 0 0 0-1.9-.46l-1.84-.26c-.3-.05-.61-.1-.92-.25-.26-.1-.51-.26-.62-.36-.3-.25-.4-.61-.4-1.12 0-.41.1-.72.25-1.03.2-.3.46-.5.77-.66a3.5 3.5 0 0 1 1.33-.26c.46 0 .87.06 1.23.1.36.06.66.21 1.02.36.31.16.62.36.92.67.2.2.52.2.72 0l1.59-1.53c.1-.1.15-.26.15-.36a.46.46 0 0 0-.15-.36 7.29 7.29 0 0 0-2.36-1.48 8.63 8.63 0 0 0-2.97-.46c-1.17 0-2.2.2-3.07.61a4.78 4.78 0 0 0-2.76 4.55c0 1.43.46 2.6 1.33 3.42.82.77 1.9 1.23 3.33 1.43l1.89.26c.41.05.77.15.97.2.2.06.36.16.52.36.3.26.46.72.46 1.28 0 .61-.2 1.07-.67 1.38a3.7 3.7 0 0 1-2.15.56c-.51 0-1.02-.05-1.43-.15a4.82 4.82 0 0 1-2.31-1.28.47.47 0 0 0-.35-.15.47.47 0 0 0-.36.15l-1.64 1.59c-.1.1-.16.2-.16.35 0 .16.06.26.16.36a7.26 7.26 0 0 0 2.66 1.74c.97.36 2.1.5 3.38.5.87 0 1.74-.1 2.46-.35a5.3 5.3 0 0 0 3.32-2.7c.31-.67.46-1.39.46-2.15a4.9 4.9 0 0 0-1.53-3.68Zm6.27-8.33h-2.45c-.31 0-.52.2-.52.5v16c0 .31.2.51.52.51H171c.31 0 .52-.2.52-.5v-16a.51.51 0 0 0-.52-.51Zm15.55.05h-2.4c-.31 0-.52.2-.52.51v9.56l-6.45-9.82c-.1-.15-.25-.25-.4-.25h-2.26c-.3 0-.51.2-.51.51v16c0 .3.2.5.51.5H177c.3 0 .51-.2.51-.5v-9.56l6.45 9.81c.1.15.26.26.41.26h2.25c.3 0 .51-.2.51-.52V13.5c-.05-.26-.3-.51-.56-.51Zm14.66 7.36h-5.84c-.3 0-.51.2-.51.5v2.05c0 .3.2.51.51.51h2.92v.41c0 .92-.26 1.64-.67 2.2a2.7 2.7 0 0 1-2.2.97 2.76 2.76 0 0 1-2-.77c-.2-.2-.35-.46-.4-.6-.1-.21-.16-.47-.26-.83-.05-.35-.1-.76-.15-1.27 0-.46-.05-1.13-.05-2 0-1.53.05-2.65.2-3.27.1-.56.3-1.02.67-1.38a2.52 2.52 0 0 1 1.99-.81c.51 0 .98.1 1.38.3.41.2.72.46.98.82.25.36.46.82.56 1.33.05.25.26.4.51.4h2.46c.15 0 .3-.04.41-.2a.4.4 0 0 0 .1-.4 6.04 6.04 0 0 0-1.07-2.72 6.03 6.03 0 0 0-5.28-2.65 6.2 6.2 0 0 0-4.55 1.84c-.41.4-.77.87-.97 1.33a7.33 7.33 0 0 0-.72 3.11c-.05.57-.05 1.33-.05 2.35 0 1.28.05 2.25.1 2.97.05.71.2 1.38.46 2.04a6.6 6.6 0 0 0 1.18 1.84 7 7 0 0 0 2.86 1.69c.52.15 1.13.2 1.7.2 1.94 0 3.53-.66 4.75-1.99a5.8 5.8 0 0 0 1.23-2.1 8.8 8.8 0 0 0 .36-2.76v-2.45c-.1-.46-.36-.66-.61-.66Z" fill="var(--black-800)"/></svg>