<svg aria-hidden="true" class="svg-icon iconLogoCollectivesMd" width="202" height="37" viewBox="0 0 202 37"><path d="M26 33v-9h4v13H0V24h4v9h22Z" fill="#BCBBBB"/><path d="m23.1 25.99.68-2.95-16.1-3.35L7 23l16.1 2.99ZM9.1 15.2l15 7 1.4-3-15-7-1.4 3Zm4.2-7.4L26 18.4l2.1-2.5L15.4 5.3l-2.1 2.5ZM21.5 0l-2.7 2 9.9 13.3 2.7-2L21.5 0ZM7 30h16v-3H7v3Z" fill="#F48024"/><path fill="#D6D9DC" d="M47 13h1v17h-1z"/><path d="M75.89 24.08h-2.43a.5.5 0 0 0-.5.4c-.1.46-.3.9-.56 1.26a2.62 2.62 0 0 1-2.18 1.1 2.74 2.74 0 0 1-1.97-.75 1.9 1.9 0 0 1-.31-.44c-.03-.06-.06-.12-.1-.16a2.65 2.65 0 0 1-.17-.54l-.08-.27-.15-1.25c0-.19 0-.42-.02-.68-.01-.36-.03-.78-.03-1.28 0-.85 0-1.5.05-1.95a5 5 0 0 1 .15-1.25c.05-.36.15-.6.26-.8.1-.2.2-.4.4-.6.25-.26.5-.46.86-.56.35-.15.7-.2 1.11-.2.71 0 1.32.2 1.77.6.46.4.76.95.97 1.7.05.26.25.4.5.4h2.48c.15 0 .3-.04.4-.2.1-.1.16-.24.1-.4a6.43 6.43 0 0 0-2.07-3.86A6.25 6.25 0 0 0 70.32 13a6.8 6.8 0 0 0-2.47.45 5.05 5.05 0 0 0-3.14 2.66c-.2.4-.4.9-.5 1.4-.1.5-.16 1.06-.21 1.6v2.31a40 40 0 0 0 .1 2.91 6.17 6.17 0 0 0 1.62 3.81 6.93 6.93 0 0 0 2.83 1.66c.51.15 1.12.2 1.67.2.76 0 1.52-.1 2.18-.35a5.46 5.46 0 0 0 3.24-2.66c.35-.65.6-1.4.76-2.26 0-.15 0-.3-.1-.4-.16-.2-.3-.25-.41-.25ZM90 16.61a5.02 5.02 0 0 0-1.16-1.8A6.43 6.43 0 0 0 84.26 13c-1.78 0-3.3.6-4.53 1.8a5 5 0 0 0-.97 1.3 7.05 7.05 0 0 0-.7 3.07c-.06.55-.06 1.35-.06 2.3a40 40 0 0 0 .1 2.91 6.21 6.21 0 0 0 1.63 3.81A6.23 6.23 0 0 0 84.26 30c1.78 0 3.3-.6 4.58-1.86a5.8 5.8 0 0 0 1.17-1.8c.25-.6.35-1.3.4-2 .06-.66.06-1.66.06-2.92 0-1.25 0-2.2-.05-2.9-.06-.66-.2-1.3-.41-1.9Zm-2.94 4.86c0 1 0 1.81-.05 2.41-.05.55-.1 1-.26 1.3a2.56 2.56 0 0 1-2.5 1.6 2.77 2.77 0 0 1-1.98-.74c-.2-.2-.35-.4-.4-.6a2.4 2.4 0 0 1-.2-.76c-.06-.35-.1-.75-.16-1.25 0-.22 0-.47-.02-.75-.01-.36-.03-.76-.03-1.2 0-1.5.05-2.61.15-3.21.1-.56.3-1 .61-1.36.2-.25.51-.45.87-.6.35-.15.76-.2 1.12-.2.4 0 .76.1 1.12.2.35.15.66.35.86.6.3.35.51.75.61 1.3.2.66.26 1.76.26 3.26Zm8.44 5.31h6.57c.28 0 .46.26.46.51v2.2c0 .3-.18.51-.46.51H92.8c-.28 0-.47-.2-.47-.51V13.5c0-.3.19-.51.47-.51h2.23c.28 0 .47.2.47.51v13.27Zm19.32 0h-7.3V13.51c0-.3-.2-.51-.52-.51h-2.48c-.31 0-.52.2-.52.51V29.5c0 .3.2.51.52.51h10.3c.3 0 .51-.2.51-.51v-2.2c0-.25-.25-.5-.51-.5ZM117.78 13h10.3c.26 0 .52.2.52.51v2.14c0 .31-.2.52-.51.52h-7.37v3.67h6.18c.3 0 .52.2.52.51v2.15c0 .3-.21.5-.52.5h-6.18v3.78h7.37c.3 0 .51.2.51.51v2.2c0 .3-.2.51-.51.51h-10.3c-.32 0-.52-.2-.52-.51V13.5c0-.3.2-.51.51-.51Zm23.02 11h-2.21c-.23 0-.41.15-.46.4-.1.45-.28.9-.51 1.25-.23.35-.5.6-.83.8-.32.2-.74.3-1.16.3-.37 0-.69-.05-1.01-.2-.33-.15-.6-.35-.79-.55-.13-.14-.2-.3-.28-.44a3.03 3.03 0 0 1-.25-.7l-.07-.26-.14-1.25-.01-.67a25.7 25.7 0 0 1 .01-3.23 5.57 5.57 0 0 1 .37-2.05c.1-.2.23-.4.37-.55.23-.25.46-.45.79-.55.32-.15.64-.2 1.01-.2.65 0 1.2.2 1.62.6.42.4.7.95.88 1.7.05.25.23.4.46.4h2.26a.4.4 0 0 0 .37-.2c.1-.1.14-.25.1-.4a6.6 6.6 0 0 0-1.9-3.85 5.4 5.4 0 0 0-3.7-1.35 5.6 5.6 0 0 0-5.03 3.1c-.18.45-.37.95-.46 1.45-.1.5-.14 1.05-.18 1.6-.05.55-.05 1.35-.05 2.3 0 1.25.05 2.2.1 2.9.04.7.18 1.35.4 2 .24.65.6 1.2 1.07 1.8a6.44 6.44 0 0 0 2.59 1.65c.46.15 1.01.2 1.52.2.7 0 1.39-.1 1.99-.35a5.3 5.3 0 0 0 2.95-2.65c.33-.65.56-1.4.7-2.25 0-.15 0-.3-.1-.4-.14-.3-.27-.35-.41-.35Zm2.67-11h10.43c.24 0 .47.2.43.51v2.2c0 .3-.2.5-.48.5h-3.6V29.5c0 .3-.19.51-.47.51h-2.23c-.29 0-.47-.2-.47-.51V16.22h-3.6c-.29 0-.48-.2-.48-.51v-2.2c0-.3.19-.51.47-.51Zm16.36 0h-2.4c-.3 0-.5.2-.5.51V29.5c0 .3.2.51.5.51h2.4c.3 0 .5-.2.5-.51v-16c0-.3-.2-.51-.5-.51Zm13.26 0h2.57c.16 0 .31.05.47.2.05.16.1.31.05.46l-5.36 15.98a.5.5 0 0 1-.46.36h-1.9c-.26 0-.47-.15-.52-.36l-5.3-15.98c-.06-.15-.06-.35.05-.46.1-.1.25-.2.4-.2h2.53c.26 0 .47.15.52.36l3.19 10.1 3.24-10.1c.1-.2.31-.36.52-.36Zm14.65 0h-9.28c-.28 0-.46.2-.46.51V29.5c0 .3.19.51.46.51h9.28c.27 0 .46-.2.46-.51v-2.2c0-.3-.19-.5-.46-.5h-6.63V23h5.56c.28 0 .46-.2.46-.51v-2.15c0-.3-.18-.5-.46-.5h-5.56v-3.68h6.63c.27 0 .46-.2.46-.52V13.5c0-.3-.19-.51-.46-.51Zm10.86 7.39c.5.2.97.45 1.33.8a4.83 4.83 0 0 1 1.54 3.65 4.73 4.73 0 0 1-1.8 3.8 5.3 5.3 0 0 1-2 1c-.72.26-1.59.36-2.46.36a9.91 9.91 0 0 1-3.39-.5 7.29 7.29 0 0 1-2.67-1.73.46.46 0 0 1-.15-.35c0-.15.05-.25.15-.35l1.65-1.57c.1-.1.2-.15.35-.15.16 0 .26.05.36.15a5 5 0 0 0 1.08.8c.41.2.82.36 1.23.46.41.1.93.15 1.44.15.92 0 1.64-.2 2.15-.55.47-.3.67-.76.67-1.37 0-.56-.15-1.01-.46-1.26a.87.87 0 0 0-.51-.36l-.1-.02a6.86 6.86 0 0 0-.88-.18l-1.9-.25a5.92 5.92 0 0 1-3.33-1.42 4.46 4.46 0 0 1-1.34-3.39 4.77 4.77 0 0 1 2.77-4.5c.88-.4 1.9-.61 3.08-.61a7.22 7.22 0 0 1 5.34 1.92c.1.1.15.2.15.36 0 .1-.05.25-.15.35l-1.6 1.52a.5.5 0 0 1-.71 0c-.3-.3-.62-.5-.92-.66l-.17-.07c-.29-.12-.56-.24-.86-.28-.36-.05-.77-.1-1.23-.1-.51 0-.98.1-1.33.25-.31.15-.57.35-.77.66a2 2 0 0 0-.26 1c0 .51.1.87.4 1.12a3.15 3.15 0 0 0 1.54.6l1.85.26a8 8 0 0 1 1.9.46Z" fill="var(--black-800)"/></svg>