<svg aria-hidden="true" class="svg-icon iconMeta" width="27" height="12" viewBox="0 0 27 12"><path d="M21.35 6.78h1.23l-.6-2.05-.63 2.05z" fill="#F2720C"/><path d="M2 0a2 2 0 0 0-2 2v8c0 1.1.9 2 2 2h23a2 2 0 0 0 2-2V2a2 2 0 0 0-2-2H2zm12 9.06h-4V2.97h3.94V4.2H11.5v1.18h2.06V6.6H11.5v1.22H14v1.23zm-9.41 0H3.14V2.97h1.4L6 6l1.46-3.03h1.4v6.1H7.43v-3.3L6.49 7.7h-.97l-.93-1.92v3.28zm11.66 0V4.2h-1.57V2.97h4.66V4.2h-1.57v4.86h-1.52zm7.01 0L22.94 8h-1.95l-.32 1.07h-1.64l2.2-6.09h1.47l2.2 6.1h-1.64z" fill="#F2720C"/></svg>