<svg aria-hidden="true" class="svg-icon iconMicrosoftTeams" width="18" height="18" viewBox="0 0 18 18"><path d="M15.25 6.25a2 2 0 1 0 0-4 2 2 0 0 0 0 4ZM17.2 7H13v5.5a2.5 2.5 0 0 0 5 0V7.8a.8.8 0 0 0-.8-.8Z" fill="#5158CC"/><path d="M12 3.5a2.5 2.5 0 0 1-2 2.45V5a2 2 0 0 0-2-2h-.95a2.5 2.5 0 0 1 4.95.5ZM9.5 17a4.5 4.5 0 0 1-4.24-3H8a2 2 0 0 0 2-2V7h3a1 1 0 0 1 1 1v4.5A4.5 4.5 0 0 1 9.5 17Z" fill="#7B82EA"/><path d="M1 4a1 1 0 0 0-1 1v7a1 1 0 0 0 1 1h7a1 1 0 0 0 1-1V5a1 1 0 0 0-1-1H1Zm1 2h5v1H5v4H4V7H2V6Z" fill="#4D54BC"/></svg>