<svg aria-hidden="true" class="svg-icon iconPeopleSm" width="14" height="14" viewBox="0 0 14 14"><path d="M2 11c-.5 0-1-.5-1-1 0-2 2-3 2-3s.38-.63 0-1a3.97 3.97 0 0 0-.2-.18C2.45 5.51 2 5.12 2 4c0-1.33 1.15-2 2-2 .85 0 2 .67 2 2 0 1.12-.44 1.5-.8 1.82L5 6c-.38.38 0 1 0 1s2 1 2 3c0 .5-.5 1-1 1H2Zm6 1c-.5 0-1-.5-1-1 0-2 2-3 2-3s.38-.63 0-1a3.97 3.97 0 0 0-.2-.18C8.45 6.51 8 6.12 8 5c0-1.33 1.15-2 2-2 .85 0 2 .67 2 2 0 1.12-.44 1.5-.8 1.82A4 4 0 0 0 11 7c-.38.38 0 1 0 1s2 1 2 3c0 .5-.5 1-1 1H8Z"/></svg>