<svg aria-hidden="true" class="svg-icon iconQuestionRu" width="18" height="18" viewBox="0 0 18 18"><path d="M7.65 10.69h1.42c.4 0 .7-.1.91-.28a.96.96 0 0 0 .33-.77c0-.74-.38-1.11-1.14-1.12H7.65v2.17Zm1.23-3.34c.83-.02 1.25-.35 1.25-1 0-.37-.1-.63-.32-.78-.2-.17-.54-.25-1-.25H7.65v2.03h1.23ZM1 18l3-3h11c1.09 0 2-.91 2-2V4c0-1.09-.91-2-2-2H3a2 2 0 0 0-2 2v14ZM6 3.98h2.8c.98 0 1.72.19 2.22.56.5.38.76.92.76 1.64 0 .4-.1.74-.3 1.05-.2.3-.5.51-.85.65.41.1.73.31.97.63.24.3.36.7.36 1.14 0 .78-.25 1.36-.74 1.76-.5.4-1.2.6-2.1.6H6V3.99Z"/></svg>