<svg aria-hidden="true" class="svg-icon iconReputation" width="18" height="18" viewBox="0 0 18 18"><path d="M12.1 2.55A1 1 0 0 1 13 2h3.5a1 1 0 1 1 0 2h-2.88l-1.73 3.45A1 1 0 0 1 11 8H6.17l-3.25 7.88a1 1 0 1 1-1.84-.76l3.5-8.5A1 1 0 0 1 5.5 6h4.88l1.73-3.45Z"/><path d="M1 3a1 1 0 0 1 1-1h6a1 1 0 1 1 0 2H2a1 1 0 0 1-1-1Zm0 4a1 1 0 1 1 2 0 1 1 0 0 1-2 0Zm14-1a1 1 0 1 0 0 2h1a1 1 0 1 0 0-2h-1Zm-8 5a1 1 0 0 1 1-1h8a1 1 0 1 1 0 2H8a1 1 0 0 1-1-1Zm-1 3a1 1 0 1 0 0 2h10a1 1 0 1 0 0-2H6Z" opacity=".2"/></svg>