<svg aria-hidden="true" class="svg-icon iconSpeechBubbleQuestion" width="18" height="18" viewBox="0 0 18 18"><path d="m1 18 3-3h11c1.09 0 2-.91 2-2V4c0-1.09-.91-2-2-2H3a2 2 0 0 0-2 2v14Zm7.96-4.94c-.57-.02-1.03-.43-1.01-1.06.02-.63.5-1.04 1.08-1.02.6.02 1.05.45 1.03 1.08-.02.63-.48 1.02-1.1 1Zm.92-3.68a3.6 3.6 0 0 0-.08.65c0 .04-.03.14-.16.14h-1.4c-.14 0-.16-.09-.16-.13-.01-.5.11-.99.36-1.42.2-.36.58-.65 1.06-.93.41-.23.78-.71.78-1.2 0-.27-.09-.53-.26-.74-.22-.26-.46-.4-.92-.4-.45 0-.83.23-1.02.52-.17.27-.16.55-.16.83v.11H6.2c0-1.17.31-1.92.98-2.36a3.5 3.5 0 0 1 1.83-.44c.88 0 1.58.16 2.2.62.58.42.88 1.02.88 1.82 0 .5-.17.9-.43 1.24-.15.2-.44.47-.86.8l-.48.3c-.2.14-.36.35-.44.6Z"/></svg>