<svg aria-hidden="true" class="svg-icon iconStarHalf" width="18" height="18" viewBox="0 0 18 18"><path d="M4.24 16.75a.4.4 0 0 1-.6-.44l1.24-5.19a.4.4 0 0 0-.13-.4L.7 7.25a.4.4 0 0 1 .22-.7l5.32-.43a.4.4 0 0 0 .34-.24L8.63.95A.4.4 0 0 1 9 .7c.15 0 .3.09.37.25l2.05 4.93a.4.4 0 0 0 .34.24l5.32.43c.35.03.5.47.22.7l-4.05 3.47a.4.4 0 0 0-.13.4l1.24 5.2a.4.4 0 0 1-.6.43l-4.55-2.79a.4.4 0 0 0-.42 0l-4.55 2.79ZM9 2.67V12.9c.25 0 .5.06.73.2l3.32 2.03-.9-3.79a1.4 1.4 0 0 1 .45-1.38l2.96-2.54-3.88-.31a1.4 1.4 0 0 1-1.18-.86L9 2.66Z"/></svg>