<svg aria-hidden="true" class="svg-icon iconStarVerifiedSm" width="14" height="14" viewBox="0 0 14 14"><path d="M7.7.72c-.4-.3-.94-.3-1.34 0l-1.26.92c-.15.11-.32.18-.5.2l-1.54.25c-.49.07-.87.45-.95.94l-.23 1.55c-.03.18-.1.35-.2.5L.74 6.32c-.3.4-.3.94 0 1.34l.92 1.26c.11.14.18.31.2.5l.24 1.54c.08.49.46.87.95.94l1.54.24c.18.03.35.1.5.2l1.26.93c.4.3.94.3 1.34 0l1.26-.92c.14-.11.31-.18.5-.21l1.54-.24c.48-.07.87-.45.94-.94l.24-1.55c.03-.18.1-.35.2-.5l.93-1.25c.3-.4.3-.94 0-1.34l-.93-1.26c-.1-.14-.17-.31-.2-.5l-.24-1.54A1.13 1.13 0 0 0 11 2.1l-1.55-.24c-.18-.03-.35-.1-.5-.2L7.7.71Zm-.4 1.72.9 2.5c.04.1.15.19.27.2l2.65.08c.28 0 .4.36.17.53L9.21 7.38a.3.3 0 0 0-.1.32l.74 2.54a.3.3 0 0 1-.46.33L7.19 9.1a.3.3 0 0 0-.33 0l-2.19 1.48a.3.3 0 0 1-.46-.33l.74-2.54a.3.3 0 0 0-.1-.32l-2.1-1.63a.3.3 0 0 1 .18-.53l2.65-.09a.3.3 0 0 0 .27-.2l.9-2.49a.3.3 0 0 1 .56 0Z"/></svg>