<svg aria-hidden="true" class="svg-icon iconStarHalfSm" width="14" height="14" viewBox="0 0 14 14"><path d="M5.17 4.65 6.73.79a.3.3 0 0 1 .55 0l1.55 3.86c.05.1.15.18.26.19l4.15.28a.3.3 0 0 1 .17.53l-3.19 2.67a.3.3 0 0 0-.1.3l1.02 4.03a.3.3 0 0 1-.45.33l-3.53-2.21a.3.3 0 0 0-.32 0l-3.52 2.21a.3.3 0 0 1-.45-.33l1.01-4.03a.3.3 0 0 0-.1-.3L.6 5.65a.3.3 0 0 1 .17-.53l4.16-.28a.3.3 0 0 0 .25-.2Zm2.73.37L7 2.78v6.94c.24 0 .48.07.7.2l2.04 1.29-.59-2.35c-.12-.48.05-1 .43-1.31L11.44 6l-2.42-.17a1.3 1.3 0 0 1-1.12-.8Z"/></svg>