<svg aria-hidden="true" class="svg-icon iconStrikethrough" width="18" height="18" viewBox="0 0 18 18"><path d="M11.96 6.2a4.28 4.28 0 0 0-1.19-.7c-.3-.14-.61-.25-.96-.34a4.2 4.2 0 0 0-1.05-.13c-.64 0-1.11.11-1.43.35-.3.23-.47.56-.47.99 0 .24.06.45.17.62l.01.01H4.5v-.26c0-.6.1-1.14.33-1.61.22-.47.53-.86.92-1.18.4-.3.87-.54 1.4-.7a6.44 6.44 0 0 1 4 .15c.7.26 1.31.57 1.84.92L11.96 6.2ZM3 8v2h5.02l1.1.32c.39.11.71.24.98.37s.47.29.62.47a1 1 0 0 1 .22.65c0 .82-.64 1.22-1.91 1.22-.46 0-.9-.05-1.34-.16a7.79 7.79 0 0 1-2.13-.9 3.6 3.6 0 0 1-.54-.4l-1.02 2a8.95 8.95 0 0 0 5 1.54c.57 0 1.13-.06 1.65-.18.54-.14 1-.34 1.4-.62.42-.28.74-.64.98-1.1.25-.45.37-1 .37-1.63a3.14 3.14 0 0 0-.38-1.58H15V8H3Z"/></svg>