<svg aria-hidden="true" class="svg-icon iconThree" width="18" height="18" viewBox="0 0 18 18"><path d="M8.07 9.23h1.2c.58 0 1-.14 1.28-.43.27-.28.41-.66.41-1.14 0-.45-.14-.81-.41-1.07a1.58 1.58 0 0 0-1.13-.38c-.43 0-.8.12-1.08.36-.3.23-.44.54-.44.92H5.64c0-.6.16-1.12.48-1.6.32-.47.77-.84 1.34-1.1.58-.27 1.21-.4 1.9-.4 1.21 0 2.15.29 2.84.87a2.93 2.93 0 0 1 1.02 2.37c0 .52-.16 1-.48 1.44a3.1 3.1 0 0 1-1.25 1 2.8 2.8 0 0 1 1.43 1.04c.32.46.48 1 .48 1.62a3 3 0 0 1-1.11 2.43c-.74.61-1.7.92-2.92.92-1.14 0-2.07-.3-2.8-.9A2.94 2.94 0 0 1 5.5 12.8h2.26c0 .43.16.78.47 1.05.33.27.72.4 1.2.4.53 0 .95-.13 1.25-.41.3-.29.46-.67.46-1.14 0-1.13-.62-1.7-1.87-1.7h-1.2V9.23ZM17.25 15a1.25 1.25 0 1 1-2.5 0 1.25 1.25 0 0 1 2.5 0Z" opacity=".2"/><path d="M6.07 7.83h1.2c.58 0 1-.15 1.28-.43.27-.29.41-.67.41-1.14 0-.46-.14-.82-.41-1.07a1.58 1.58 0 0 0-1.13-.39c-.43 0-.8.12-1.08.36-.3.24-.44.55-.44.93H3.64c0-.6.16-1.13.48-1.6.32-.47.77-.84 1.34-1.1.58-.27 1.21-.4 1.9-.4 1.21 0 2.15.28 2.84.86a2.93 2.93 0 0 1 1.02 2.38 2.92 2.92 0 0 1-1.73 2.61c.64.23 1.12.81 1.43 1.27.32.46.48 1 .48 1.62a3 3 0 0 1-1.11 2.43c-.74.61-1.7.92-2.92.92-1.14 0-2.07-.3-2.8-.9A2.94 2.94 0 0 1 3.5 11.8h2.26c0 .43.16.78.47 1.05.33.27.72.4 1.2.4.53 0 .95-.13 1.25-.41.3-.29.46-.67.46-1.14 0-1.13-.62-1.7-1.87-1.7h-1.2V7.83ZM15.25 14a1.25 1.25 0 1 1-2.5 0 1.25 1.25 0 0 1 2.5 0Z"/></svg>