<svg aria-hidden="true" class="svg-icon iconThreeLg" width="36" height="36" viewBox="0 0 36 36"><path d="M14.2 18.53h2.44c1.16 0 2.02-.28 2.58-.84.56-.57.84-1.32.84-2.25 0-.9-.28-1.6-.84-2.1-.55-.5-1.3-.76-2.28-.76-.87 0-1.6.24-2.2.7a2.2 2.2 0 0 0-.88 1.82H9.28c0-1.16.33-2.21.97-3.13a6.49 6.49 0 0 1 2.72-2.19A9.37 9.37 0 0 1 16.83 9c2.44 0 4.35.57 5.73 1.7a5.7 5.7 0 0 1 2.08 4.68c0 1.03-.33 1.97-.97 2.83a6.24 6.24 0 0 1-2.53 1.98 5.67 5.67 0 0 1 2.9 2.03c.64.9.96 1.97.96 3.2 0 1.99-.75 3.58-2.25 4.78-1.48 1.2-3.46 1.8-5.92 1.8-2.3 0-4.18-.59-5.65-1.77A5.72 5.72 0 0 1 9 25.56h4.57c0 .84.33 1.53.97 2.06.65.53 1.46.8 2.4.8 1.1 0 1.94-.28 2.55-.83.63-.57.94-1.3.94-2.23 0-2.24-1.27-3.35-3.8-3.35H14.2v-3.48ZM33 30a2 2 0 1 1-4 0 2 2 0 0 1 4 0Z" opacity=".2"/><path d="M12.03 15.61h2.61c1.16 0 2.02-.28 2.58-.85s.84-1.32.84-2.26c0-.91-.28-1.62-.84-2.13-.55-.5-1.3-.76-2.28-.76-.87 0-1.6.24-2.2.72a2.2 2.2 0 0 0-.88 1.82H7.28c0-1.17.33-2.23.97-3.16a6.5 6.5 0 0 1 2.72-2.2A9.3 9.3 0 0 1 14.83 6c2.44 0 4.35.57 5.73 1.72a5.77 5.77 0 0 1 2.08 4.71 5.71 5.71 0 0 1-3.5 5.2c1.3.45 2.26 1.6 2.9 2.51.64.9.96 1.98.96 3.22 0 2-.75 3.62-2.25 4.83-1.48 1.2-3.46 1.81-5.92 1.81-2.3 0-4.18-.6-5.65-1.78A5.78 5.78 0 0 1 7 23.5h4.57c0 .85.33 1.54.97 2.08.65.54 1.46.8 2.4.8 1.1 0 1.94-.27 2.55-.83a2.9 2.9 0 0 0 .94-2.25c0-2.25-1.27-3.38-3.8-3.38h-2.6v-4.3ZM31 28a2 2 0 1 1-4 0 2 2 0 0 1 4 0Z"/></svg>