<svg aria-hidden="true" class="svg-icon iconTwo" width="18" height="18" viewBox="0 0 18 18"><path d="M17.25 15a1.25 1.25 0 1 1-2.5 0 1.25 1.25 0 0 1 2.5 0Zm-4.29 1h-7.8v-1.55l3.68-3.92a9.2 9.2 0 0 0 1.12-1.44c.25-.42.37-.8.37-1.18 0-.5-.13-.9-.38-1.18-.26-.3-.62-.44-1.1-.44-.5 0-.91.18-1.2.53-.3.35-.45.64-.45 1.21H4.94c0-.7.16-1.15.49-1.73a3.5 3.5 0 0 1 1.4-1.34c.61-.33 1.3-.5 2.06-.5 1.17 0 2.08.29 2.73.85a3 3 0 0 1 .97 2.39 3.8 3.8 0 0 1-.43 1.71c-.3.59-.8 1.27-1.5 2.04l-2.59 2.73h4.9V16Z" opacity=".2"/><path d="M10.96 15h-7.8v-1.55l3.68-3.92a9.2 9.2 0 0 0 1.12-1.44c.25-.42.42-.93.42-1.3 0-.4 0-.88-.34-1.27-.26-.3-.71-.54-1.19-.54-.5 0-.91.18-1.2.54-.3.34-.45.94-.45 1.51H2.94c0-.7.16-1.59.49-2.16a3.5 3.5 0 0 1 1.4-1.35c.61-.32 1.3-.49 2.06-.49 1.17 0 2.07.4 2.72.95.65.57.98 1.69.98 2.72a3.8 3.8 0 0 1-.43 1.71c-.3.59-.8 1.27-1.5 2.04l-2.59 2.73h4.9V15Zm4.29-1a1.25 1.25 0 1 1-2.5 0 1.25 1.25 0 0 1 2.5 0Z"/></svg>