<svg aria-hidden="true" class="svg-icon iconTwoLg" width="36" height="36" viewBox="0 0 36 36"><path d="M33 30a2 2 0 1 1-4 0 2 2 0 0 1 4 0Zm-7 2H10.45v-3.09l7.34-7.82c1-1.1 1.75-2.06 2.23-2.88.49-.82.73-1.6.73-2.34 0-1-.25-1.8-.76-2.37a2.75 2.75 0 0 0-2.18-.87c-1.02 0-1.83.35-2.42 1.06-.58.7-.87 1.27-.87 2.42H10c0-1.39.33-2.3.98-3.45a6.97 6.97 0 0 1 2.8-2.68 8.44 8.44 0 0 1 4.1-.98c2.34 0 4.15.56 5.44 1.68 1.3 1.12 1.95 2.7 1.95 4.76 0 1.12-.3 2.26-.87 3.42a19.05 19.05 0 0 1-3 4.07l-5.15 5.44H26V32Z" opacity=".2"/><path d="M22 30H6v-2.84l7.79-8.13c1-1.1 1.75-2.07 2.23-2.9a5.7 5.7 0 0 0 .84-2.59c0-.79 0-1.76-.69-2.56a3.28 3.28 0 0 0-2.36-1.06c-1.02 0-1.83.35-2.42 1.06-.58.7-.87 1.9-.87 3.04H6c0-1.39.33-3.19.98-4.34a6.99 6.99 0 0 1 2.8-2.7 8.4 8.4 0 0 1 4.1-.98c2.34 0 4.14.78 5.42 1.91 1.3 1.13 1.97 3.38 1.97 5.44a7.7 7.7 0 0 1-.87 3.44 19.15 19.15 0 0 1-3 4.1l-5.15 5.46H22V30Zm9-2a2 2 0 1 1-4 0 2 2 0 0 1 4 0Z"/></svg>